// Created by Crowbar 0.74
version 1
nodes
  0 "ValveBiped" -1
  1 "ValveBiped.Bip01" 0
  2 "ValveBiped.Bip01_Spine" 1
  3 "ValveBiped.Bip01_Spine1" 2
  4 "ValveBiped.Bip01_Spine2" 3
  5 "ValveBiped.Bip01_Spine4" 4
  6 "ValveBiped.Bip01_L_Clavicle" 5
  7 "ValveBiped.Bip01_L_UpperArm" 6
  8 "ValveBiped.Bip01_L_Forearm" 7
  9 "ValveBiped.Bip01_L_Hand" 8
  10 "ValveBiped.clip1" 9
  11 "ValveBiped.base1" 9
  12 "ValveBiped.eject1" 11
  13 "ValveBiped.muzzle1" 11
  14 "ValveBiped.square1" 11
  15 "ValveBiped.hammer1" 11
  16 "ValveBiped.Bip01_R_Clavicle" 5
  17 "ValveBiped.Bip01_R_UpperArm" 16
  18 "ValveBiped.Bip01_R_Forearm" 17
  19 "ValveBiped.Bip01_R_Hand" 18
  20 "ValveBiped.base" 19
  21 "ValveBiped.eject" 20
  22 "ValveBiped.muzzle" 20
  23 "ValveBiped.square" 20
  24 "ValveBiped.hammer" 20
  25 "ValveBiped.clip" 19
  26 "ValveBiped.Bip01_L_Finger4" 9
  27 "ValveBiped.Bip01_L_Finger41" 26
  28 "ValveBiped.Bip01_L_Finger42" 27
  29 "ValveBiped.Bip01_L_Finger3" 9
  30 "ValveBiped.Bip01_L_Finger31" 29
  31 "ValveBiped.Bip01_L_Finger32" 30
  32 "ValveBiped.Bip01_L_Finger2" 9
  33 "ValveBiped.Bip01_L_Finger21" 32
  34 "ValveBiped.Bip01_L_Finger22" 33
  35 "ValveBiped.Bip01_L_Finger1" 9
  36 "ValveBiped.Bip01_L_Finger11" 35
  37 "ValveBiped.Bip01_L_Finger12" 36
  38 "ValveBiped.Bip01_L_Finger0" 9
  39 "ValveBiped.Bip01_L_Finger01" 38
  40 "ValveBiped.Bip01_L_Finger02" 39
  41 "ValveBiped.Bip01_R_Finger4" 19
  42 "ValveBiped.Bip01_R_Finger41" 41
  43 "ValveBiped.Bip01_R_Finger42" 42
  44 "ValveBiped.Bip01_R_Finger3" 19
  45 "ValveBiped.Bip01_R_Finger31" 44
  46 "ValveBiped.Bip01_R_Finger32" 45
  47 "ValveBiped.Bip01_R_Finger2" 19
  48 "ValveBiped.Bip01_R_Finger21" 47
  49 "ValveBiped.Bip01_R_Finger22" 48
  50 "ValveBiped.Bip01_R_Finger1" 19
  51 "ValveBiped.Bip01_R_Finger11" 50
  52 "ValveBiped.Bip01_R_Finger12" 51
  53 "ValveBiped.Bip01_R_Finger0" 19
  54 "ValveBiped.Bip01_R_Finger01" 53
  55 "ValveBiped.Bip01_R_Finger02" 54
end
skeleton
  time 0
    0 0.000000 0.000000 -65.998108 1.570796 0.000000 0.000000
    1 -0.000005 38.566917 0.533613 0.000000 0.000000 0.000000
    2 0.000005 3.345128 -2.981901 1.745363 0.086257 1.571335
    3 4.018332 0.000000 0.000000 0.000000 0.000000 -0.029242
    4 3.518567 0.000000 0.000000 0.000000 0.000000 0.100336
    5 8.942642 0.000000 0.000000 0.000000 0.000000 0.194096
    6 2.033347 1.000767 1.937660 1.596637 -1.286515 2.942961
    7 6.028141 0.000001 0.000000 -0.209900 -1.405715 -2.199629
    8 11.692556 0.000000 0.000001 0.000000 0.000000 -0.316626
    9 11.481672 0.000000 -0.000031 1.288846 -0.007432 0.200691
    10 3.820721 -1.405028 0.601078 1.564288 0.003442 -1.581444
    11 6.114854 -1.434045 1.934793 1.564288 0.003442 -1.581444
    12 0.051127 3.122170 -0.141701 0.000000 0.000000 1.570796
    13 -0.000001 1.537870 -5.938447 0.000000 1.570796 0.000000
    14 0.027345 1.595740 1.997380 0.000000 0.000000 0.000000
    15 -0.000001 1.225114 3.954165 0.000000 0.000000 0.000000
    16 2.033355 1.000771 -1.937610 -1.668474 1.286518 2.942953
    17 6.028143 0.000000 0.000000 1.955501 0.978199 -0.410498
    18 11.692550 0.000000 0.000001 0.000000 0.000000 -1.180663
    19 11.481699 0.000000 0.000003 -1.286827 0.004709 0.534471
    20 6.114873 -1.450003 -1.922835 -1.564198 -0.011689 -1.581440
    21 0.051129 3.122169 0.141701 0.000000 0.000000 1.570796
    22 0.000001 1.537870 5.938447 0.000000 -1.570796 0.000000
    23 0.000000 1.607459 -1.997381 -0.000084 0.000048 0.008245
    24 0.000000 1.225114 -3.954162 0.000000 0.000000 0.000000
    25 3.820735 -1.409995 -0.589408 -1.564198 -0.011689 -1.581440
    26 3.859704 -0.142406 -1.191974 -0.432212 0.155857 -0.861358
    27 1.312562 0.000000 0.000001 0.000000 0.000005 -1.191973
    28 0.729363 0.000000 0.000000 0.000000 0.000009 -1.063371
    29 3.942326 0.046772 -0.431443 -0.232410 -0.000605 -0.853325
    30 1.539094 0.000000 0.000000 0.000000 0.000002 -0.973398
    31 1.196323 0.000000 0.000000 0.000000 0.000002 -1.451290
    32 3.883687 -0.046769 0.431443 -0.066985 -0.050233 -0.694793
    33 1.719576 -0.000001 0.000000 0.000000 0.000003 -1.251021
    34 1.209181 -0.000001 0.000000 0.000000 0.000004 -1.141154
    35 3.859859 -0.137948 1.332466 0.311964 -0.262344 -0.078706
    36 1.719429 -0.000001 0.000000 0.000000 -0.036194 -0.662944
    37 1.099665 0.000000 0.000000 -0.025575 -0.041759 -1.021018
    38 0.806046 -0.348923 1.321258 -1.349678 -0.343508 -0.771484
    39 1.789784 0.000000 0.000001 0.000000 0.063403 0.390219
    40 1.206999 0.000000 0.000000 -0.024449 0.037705 0.990519
    41 3.859672 -0.132568 1.193108 0.432220 -0.155872 -0.861364
    42 1.312563 0.000001 0.000000 0.000000 -0.000007 -1.191994
    43 0.729365 0.000000 0.000000 0.000000 -0.000010 -1.063390
    44 3.942296 0.050325 0.431043 0.232419 0.000608 -0.853326
    45 1.539096 -0.000001 0.000000 0.000000 -0.000006 -0.973387
    46 1.196322 0.000002 0.000000 0.000000 -0.000003 -1.451278
    47 3.883656 -0.050329 -0.431043 0.066982 0.050237 -0.694789
    48 1.719576 -0.000001 0.000000 0.000000 -0.000004 -1.251031
    49 1.209180 -0.000002 0.000000 0.000000 -0.000003 -1.141144
    50 3.859828 -0.148936 -1.331282 -0.248859 0.263122 -0.072134
    51 1.719426 0.000001 0.000000 0.000000 -0.000009 -0.676743
    52 1.099666 0.000001 0.000000 0.000000 -0.000004 -1.021279
    53 0.806018 -0.359836 -1.318334 1.349675 0.343506 -0.771465
    54 1.789783 0.000001 -0.000001 0.000000 -0.000009 0.397490
    55 1.207001 0.000000 0.000001 0.000000 -0.000006 0.989014
  time 1
    0 0.000000 0.000000 -65.998108 1.570796 0.000000 0.000000
    1 -0.000005 38.566917 0.533613 0.000000 0.000000 0.000000
    2 0.000005 3.345128 -2.981901 1.745363 0.086257 1.571335
    3 4.018332 0.000000 0.000000 0.000000 0.000000 -0.029242
    4 3.518567 0.000000 0.000000 0.000000 0.000000 0.100336
    5 8.942642 0.000000 0.000000 0.000000 0.000000 0.194096
    6 2.033347 1.000767 1.937660 1.596637 -1.286515 2.942961
    7 6.028141 0.000001 0.000000 -0.211480 -1.405538 -2.198141
    8 11.692556 0.000000 0.000001 0.000000 0.000000 -0.316718
    9 11.481672 0.000000 -0.000031 1.288900 -0.008028 0.199752
    10 3.820721 -1.405028 0.601078 1.564288 0.003442 -1.581444
    11 6.114854 -1.434045 1.934793 1.564288 0.003442 -1.581444
    12 0.051127 3.122170 -0.141701 0.000000 0.000000 1.570796
    13 -0.000001 1.537870 -5.938447 0.000000 1.570796 0.000000
    14 0.027345 1.595740 1.997380 0.000000 0.000000 0.000000
    15 -0.000001 1.225114 3.954165 0.000000 0.000000 0.000000
    16 2.033355 1.000771 -1.937610 -1.668474 1.286518 2.942953
    17 6.028143 0.000000 0.000000 1.973727 1.013976 -0.389424
    18 11.692550 0.000000 0.000001 0.000000 0.000000 -1.093472
    19 11.481699 0.000000 0.000003 -1.287773 0.006231 0.358046
    20 6.114873 -1.450003 -1.922835 -1.564198 -0.011689 -1.581440
    21 0.051129 3.122169 0.141701 0.000000 0.000000 1.570796
    22 0.000001 1.537870 5.938447 0.000000 -1.570796 0.000000
    23 0.000000 1.607459 -1.997381 -0.000084 0.000048 0.008245
    24 0.000000 1.225114 -3.954162 0.000000 0.000000 0.000000
    25 3.820735 -1.409995 -0.589408 -1.564198 -0.011689 -1.581440
    26 3.859704 -0.142406 -1.191974 -0.432212 0.155857 -0.861358
    27 1.312562 0.000000 0.000001 0.000000 0.000005 -1.191973
    28 0.729363 0.000000 0.000000 0.000000 0.000009 -1.063371
    29 3.942326 0.046772 -0.431443 -0.232410 -0.000605 -0.853325
    30 1.539094 0.000000 0.000000 0.000000 0.000002 -0.973398
    31 1.196323 0.000000 0.000000 0.000000 0.000002 -1.451290
    32 3.883687 -0.046769 0.431443 -0.066985 -0.050233 -0.694793
    33 1.719576 -0.000001 0.000000 0.000000 0.000003 -1.251021
    34 1.209181 -0.000001 0.000000 0.000000 0.000004 -1.141154
    35 3.859859 -0.137948 1.332466 0.311964 -0.262344 -0.078706
    36 1.719429 -0.000001 0.000000 0.000000 -0.036194 -0.662944
    37 1.099665 0.000000 0.000000 -0.025575 -0.041759 -1.021018
    38 0.806046 -0.348923 1.321258 -1.349678 -0.343508 -0.771484
    39 1.789784 0.000000 0.000001 0.000000 0.063403 0.390219
    40 1.206999 0.000000 0.000000 -0.024449 0.037705 0.990519
    41 3.859672 -0.132568 1.193108 0.432220 -0.155872 -0.861364
    42 1.312563 0.000001 0.000000 0.000000 -0.000007 -1.191994
    43 0.729365 0.000000 0.000000 0.000000 -0.000010 -1.063390
    44 3.942296 0.050325 0.431043 0.232419 0.000608 -0.853326
    45 1.539096 -0.000001 0.000000 0.000000 -0.000006 -0.973387
    46 1.196322 0.000002 0.000000 0.000000 -0.000003 -1.451278
    47 3.883656 -0.050329 -0.431043 0.066982 0.050237 -0.694789
    48 1.719576 -0.000001 0.000000 0.000000 -0.000004 -1.251031
    49 1.209180 -0.000002 0.000000 0.000000 -0.000003 -1.141144
    50 3.859828 -0.148936 -1.331282 -0.248859 0.263122 -0.072134
    51 1.719426 0.000001 0.000000 0.000000 -0.000009 -0.676743
    52 1.099666 0.000001 0.000000 0.000000 -0.000004 -1.021279
    53 0.806018 -0.359836 -1.318334 1.349675 0.343506 -0.771465
    54 1.789783 0.000001 -0.000001 0.000000 -0.000009 0.397490
    55 1.207001 0.000000 0.000001 0.000000 -0.000006 0.989014
  time 2
    0 0.000000 0.000000 -65.998108 1.570796 0.000000 0.000000
    1 -0.000005 38.566917 0.533613 0.000000 0.000000 0.000000
    2 0.000005 3.345128 -2.981901 1.745363 0.086257 1.571335
    3 4.018332 0.000000 0.000000 0.000000 0.000000 -0.029242
    4 3.518567 0.000000 0.000000 0.000000 0.000000 0.100336
    5 8.942642 0.000000 0.000000 0.000000 0.000000 0.194096
    6 2.033347 1.000767 1.937660 1.596637 -1.286515 2.942961
    7 6.028141 0.000001 0.000000 -0.215092 -1.405138 -2.194584
    8 11.692556 0.000000 0.000001 0.000000 0.000000 -0.316994
    9 11.481672 0.000000 -0.000031 1.289009 -0.009344 0.197725
    10 3.820721 -1.405028 0.601078 1.564288 0.003442 -1.581444
    11 6.114854 -1.434045 1.934793 1.564288 0.003442 -1.581444
    12 0.051127 3.122170 -0.141701 0.000000 0.000000 1.570796
    13 -0.000001 1.537870 -5.938447 0.000000 1.570796 0.000000
    14 0.027345 1.595740 1.997380 0.000000 0.000000 0.000000
    15 -0.000001 1.225114 3.954165 0.000000 0.000000 0.000000
    16 2.033355 1.000771 -1.937610 -1.668474 1.286518 2.942953
    17 6.028143 0.000000 0.000000 2.042644 1.106392 -0.311831
    18 11.692550 0.000000 0.000001 0.000000 0.000000 -0.872160
    19 11.481699 0.000000 0.000003 -1.288829 0.007404 0.204094
    20 6.114873 -1.450003 -1.922835 -1.564198 -0.011689 -1.581440
    21 0.051129 3.122169 0.141701 0.000000 0.000000 1.570796
    22 0.000001 1.537870 5.938447 0.000000 -1.570796 0.000000
    23 0.000000 1.607459 -1.997381 -0.000084 0.000048 0.008245
    24 0.000000 1.225114 -3.954162 0.000000 0.000000 0.000000
    25 3.820735 -1.409995 -0.589408 -1.564198 -0.011689 -1.581440
    26 3.859704 -0.142406 -1.191974 -0.432212 0.155857 -0.861358
    27 1.312562 0.000000 0.000001 0.000000 0.000005 -1.191973
    28 0.729363 0.000000 0.000000 0.000000 0.000009 -1.063371
    29 3.942326 0.046772 -0.431443 -0.232410 -0.000605 -0.853325
    30 1.539094 0.000000 0.000000 0.000000 0.000002 -0.973398
    31 1.196323 0.000000 0.000000 0.000000 0.000002 -1.451290
    32 3.883687 -0.046769 0.431443 -0.066985 -0.050233 -0.694793
    33 1.719576 -0.000001 0.000000 0.000000 0.000003 -1.251021
    34 1.209181 -0.000001 0.000000 0.000000 0.000004 -1.141154
    35 3.859859 -0.137948 1.332466 0.311964 -0.262344 -0.078706
    36 1.719429 -0.000001 0.000000 0.000000 -0.036194 -0.662944
    37 1.099665 0.000000 0.000000 -0.025575 -0.041759 -1.021018
    38 0.806046 -0.348923 1.321258 -1.349678 -0.343508 -0.771484
    39 1.789784 0.000000 0.000001 0.000000 0.063403 0.390219
    40 1.206999 0.000000 0.000000 -0.024449 0.037705 0.990519
    41 3.859672 -0.132568 1.193108 0.432220 -0.155872 -0.861364
    42 1.312563 0.000001 0.000000 0.000000 -0.000007 -1.191994
    43 0.729365 0.000000 0.000000 0.000000 -0.000010 -1.063390
    44 3.942296 0.050325 0.431043 0.232419 0.000608 -0.853326
    45 1.539096 -0.000001 0.000000 0.000000 -0.000006 -0.973387
    46 1.196322 0.000002 0.000000 0.000000 -0.000003 -1.451278
    47 3.883656 -0.050329 -0.431043 0.066982 0.050237 -0.694789
    48 1.719576 -0.000001 0.000000 0.000000 -0.000004 -1.251031
    49 1.209180 -0.000002 0.000000 0.000000 -0.000003 -1.141144
    50 3.859828 -0.148936 -1.331282 -0.248859 0.263122 -0.072134
    51 1.719426 0.000001 0.000000 0.000000 -0.000009 -0.676743
    52 1.099666 0.000001 0.000000 0.000000 -0.000004 -1.021279
    53 0.806018 -0.359836 -1.318334 1.349675 0.343506 -0.771465
    54 1.789783 0.000001 -0.000001 0.000000 -0.000009 0.397490
    55 1.207001 0.000000 0.000001 0.000000 -0.000006 0.989014
  time 3
    0 0.000000 0.000000 -65.998108 1.570796 0.000000 0.000000
    1 -0.000005 38.566917 0.533613 0.000000 0.000000 0.000000
    2 0.000005 3.345128 -2.981901 1.745363 0.086257 1.571335
    3 4.018332 0.000000 0.000000 0.000000 0.000000 -0.029242
    4 3.518567 0.000000 0.000000 0.000000 0.000000 0.100336
    5 8.942642 0.000000 0.000000 0.000000 0.000000 0.194096
    6 2.033347 1.000767 1.937660 1.596637 -1.286515 2.942961
    7 6.028141 0.000001 0.000000 -0.219437 -1.404650 -2.190444
    8 11.692556 0.000000 0.000001 0.000000 0.000000 -0.317315
    9 11.481672 0.000000 -0.000031 1.289090 -0.010660 0.195804
    10 3.820721 -1.405028 0.601078 1.564288 0.003442 -1.581444
    11 6.114854 -1.434045 1.934793 1.564288 0.003442 -1.581444
    12 0.051127 3.122170 -0.141701 0.000000 0.000000 1.570796
    13 -0.000001 1.537870 -5.938447 0.000000 1.570796 0.000000
    14 0.027345 1.595740 1.997380 0.000000 0.000000 0.000000
    15 -0.000001 1.225114 3.954165 0.000000 0.000000 0.000000
    16 2.033355 1.000771 -1.937610 -1.668474 1.286518 2.942953
    17 6.028143 0.000000 0.000000 2.203491 1.221342 -0.137598
    18 11.692550 0.000000 0.000001 0.000000 0.000000 -0.591802
    19 11.481699 0.000000 0.000003 -1.288902 0.007486 0.192858
    20 6.114873 -1.450003 -1.922835 -1.564198 -0.011689 -1.581440
    21 0.051129 3.122169 0.141701 0.000000 0.000000 1.570796
    22 0.000001 1.537870 5.938447 0.000000 -1.570796 0.000000
    23 0.000000 1.607459 -1.997381 -0.000084 0.000048 0.008245
    24 0.000000 1.225114 -3.954162 0.000000 0.000000 0.000000
    25 3.820735 -1.409995 -0.589408 -1.564198 -0.011689 -1.581440
    26 3.859704 -0.142406 -1.191974 -0.432212 0.155857 -0.861358
    27 1.312562 0.000000 0.000001 0.000000 0.000005 -1.191996
    28 0.729363 0.000000 0.000000 0.000000 0.000009 -1.063371
    29 3.942326 0.046772 -0.431443 -0.232410 -0.000605 -0.853325
    30 1.539094 0.000000 0.000000 0.000000 0.000002 -0.973398
    31 1.196323 0.000000 0.000000 0.000000 0.000002 -1.451290
    32 3.883687 -0.046769 0.431443 -0.066985 -0.050233 -0.694793
    33 1.719576 -0.000001 0.000000 0.000000 0.000003 -1.251021
    34 1.209181 -0.000001 0.000000 0.000000 0.000004 -1.141154
    35 3.859859 -0.137948 1.332466 0.311964 -0.262344 -0.078706
    36 1.719429 -0.000001 0.000000 0.000000 -0.036194 -0.662944
    37 1.099665 0.000000 0.000000 -0.025575 -0.041759 -1.021018
    38 0.806046 -0.348923 1.321258 -1.349678 -0.343508 -0.771484
    39 1.789784 0.000000 0.000001 0.000000 0.063403 0.390219
    40 1.206999 0.000000 0.000000 -0.024449 0.037705 0.990519
    41 3.859672 -0.132568 1.193108 0.432220 -0.155872 -0.861364
    42 1.312563 0.000001 0.000000 0.000000 -0.000007 -1.191994
    43 0.729365 0.000000 0.000000 0.000000 -0.000010 -1.063390
    44 3.942296 0.050325 0.431043 0.232419 0.000608 -0.853326
    45 1.539096 -0.000001 0.000000 0.000000 -0.000006 -0.973387
    46 1.196322 0.000002 0.000000 0.000000 -0.000003 -1.451278
    47 3.883656 -0.050329 -0.431043 0.066982 0.050237 -0.694789
    48 1.719576 -0.000001 0.000000 0.000000 -0.000004 -1.251031
    49 1.209180 -0.000002 0.000000 0.000000 -0.000003 -1.141144
    50 3.859828 -0.148936 -1.331282 -0.248859 0.263122 -0.072134
    51 1.719426 0.000001 0.000000 0.000000 -0.000009 -0.676743
    52 1.099666 0.000001 0.000000 0.000000 -0.000004 -1.021279
    53 0.806018 -0.359836 -1.318334 1.349675 0.343506 -0.771465
    54 1.789783 0.000001 -0.000001 0.000000 -0.000009 0.397490
    55 1.207001 0.000000 0.000001 0.000000 -0.000006 0.989014
  time 4
    0 0.000000 0.000000 -65.998108 1.570796 0.000000 0.000000
    1 -0.000005 38.566917 0.533613 0.000000 0.000000 0.000000
    2 0.000005 3.345128 -2.981901 1.745363 0.086257 1.571335
    3 4.018332 0.000000 0.000000 0.000000 0.000000 -0.029242
    4 3.518567 0.000000 0.000000 0.000000 0.000000 0.100336
    5 8.942642 0.000000 0.000000 0.000000 0.000000 0.194096
    6 2.033347 1.000767 1.937660 1.596637 -1.286515 2.942961
    7 6.028141 0.000001 0.000000 -0.222992 -1.404251 -2.187016
    8 11.692556 0.000000 0.000001 0.000000 0.000000 -0.317591
    9 11.481672 0.000000 -0.000031 1.289063 -0.011195 0.195228
    10 3.820721 -1.405028 0.601078 1.564288 0.003442 -1.581444
    11 6.114854 -1.434045 1.934793 1.564288 0.003442 -1.581444
    12 0.051127 3.122170 -0.141701 0.000000 0.000000 1.570796
    13 -0.000001 1.537870 -5.938447 0.000000 1.570796 0.000000
    14 0.027345 1.595740 1.997380 0.000000 0.000000 0.000000
    15 -0.000001 1.225114 3.954165 0.000000 0.000000 0.000000
    16 2.033355 1.000771 -1.937610 -1.668474 1.286518 2.942953
    17 6.028143 0.000000 0.000000 2.376685 1.286132 0.044613
    18 11.692550 0.000000 0.000001 0.000000 0.000000 -0.415938
    19 11.481699 0.000000 0.000003 -1.288465 0.007054 0.251878
    20 6.114873 -1.450003 -1.922835 -1.564198 -0.011689 -1.581440
    21 0.051129 3.122169 0.141701 0.000000 0.000000 1.570796
    22 0.000001 1.537870 5.938447 0.000000 -1.570796 0.000000
    23 0.000000 1.607459 -1.997381 -0.000084 0.000048 0.008245
    24 0.000000 1.225114 -3.954162 0.000000 0.000000 0.000000
    25 3.820735 -1.409995 -0.589408 -1.564198 -0.011689 -1.581440
    26 3.859704 -0.142406 -1.191974 -0.432212 0.155857 -0.861358
    27 1.312562 0.000000 0.000001 0.000000 0.000005 -1.191973
    28 0.729363 0.000000 0.000000 0.000000 0.000009 -1.063371
    29 3.942326 0.046772 -0.431443 -0.232410 -0.000605 -0.853325
    30 1.539094 0.000000 0.000000 0.000000 0.000002 -0.973398
    31 1.196323 0.000000 0.000000 0.000000 0.000002 -1.451290
    32 3.883687 -0.046769 0.431443 -0.066985 -0.050233 -0.694793
    33 1.719576 -0.000001 0.000000 0.000000 0.000003 -1.251021
    34 1.209181 -0.000001 0.000000 0.000000 0.000004 -1.141154
    35 3.859859 -0.137948 1.332466 0.311964 -0.262344 -0.078706
    36 1.719429 -0.000001 0.000000 0.000000 -0.036194 -0.662944
    37 1.099665 0.000000 0.000000 -0.025575 -0.041759 -1.021018
    38 0.806046 -0.348923 1.321258 -1.349678 -0.343508 -0.771484
    39 1.789784 0.000000 0.000001 0.000000 0.063403 0.390219
    40 1.206999 0.000000 0.000000 -0.024449 0.037705 0.990519
    41 3.859672 -0.132568 1.193108 0.432220 -0.155872 -0.861364
    42 1.312563 0.000001 0.000000 0.000000 -0.000007 -1.191994
    43 0.729365 0.000000 0.000000 0.000000 -0.000010 -1.063390
    44 3.942296 0.050325 0.431043 0.232419 0.000608 -0.853326
    45 1.539096 -0.000001 0.000000 0.000000 -0.000006 -0.973387
    46 1.196322 0.000002 0.000000 0.000000 -0.000003 -1.451278
    47 3.883656 -0.050329 -0.431043 0.066982 0.050237 -0.694789
    48 1.719576 -0.000001 0.000000 0.000000 -0.000004 -1.251031
    49 1.209180 -0.000002 0.000000 0.000000 -0.000003 -1.141144
    50 3.859828 -0.148936 -1.331282 -0.248859 0.263122 -0.072134
    51 1.719426 0.000001 0.000000 0.000000 -0.000009 -0.676743
    52 1.099666 0.000001 0.000000 0.000000 -0.000004 -1.021279
    53 0.806018 -0.359836 -1.318334 1.349675 0.343506 -0.771465
    54 1.789783 0.000001 -0.000001 0.000000 -0.000009 0.397490
    55 1.207001 0.000000 0.000001 0.000000 -0.000006 0.989014
  time 5
    0 0.000000 0.000000 -65.998108 1.570796 0.000000 0.000000
    1 -0.000005 38.566917 0.533613 0.000000 0.000000 0.000000
    2 0.000005 3.345128 -2.981901 1.745363 0.086257 1.571335
    3 4.018332 0.000000 0.000000 0.000000 0.000000 -0.029242
    4 3.518567 0.000000 0.000000 0.000000 0.000000 0.100336
    5 8.942642 0.000000 0.000000 0.000000 0.000000 0.194096
    6 2.033347 1.000767 1.937660 1.596637 -1.286515 2.942961
    7 6.028141 0.000001 0.000000 -0.224516 -1.404073 -2.185528
    8 11.692556 0.000000 0.000001 0.000000 0.000000 -0.317683
    9 11.481672 0.000000 -0.000031 1.288873 -0.010578 0.196786
    10 3.820721 -1.405028 0.601078 1.564288 0.003442 -1.581444
    11 6.114854 -1.434045 1.934793 1.564288 0.003442 -1.581444
    12 0.051127 3.122170 -0.141701 0.000000 0.000000 1.570796
    13 -0.000001 1.537870 -5.938447 0.000000 1.570796 0.000000
    14 0.027345 1.595740 1.997380 0.000000 0.000000 0.000000
    15 -0.000001 1.225114 3.954165 0.000000 0.000000 0.000000
    16 2.033355 1.000771 -1.937610 -1.668474 1.286518 2.942953
    17 6.028143 0.000000 0.000000 2.418869 1.297256 0.088524
    18 11.692550 0.000000 0.000001 0.000000 0.000000 -0.382475
    19 11.481699 0.000000 0.000003 -1.288137 0.006663 0.302894
    20 6.114873 -1.450003 -1.922835 -1.564198 -0.011689 -1.581440
    21 0.051129 3.122169 0.141701 0.000000 0.000000 1.570796
    22 0.000001 1.537870 5.938447 0.000000 -1.570796 0.000000
    23 0.000000 1.607459 -1.997381 -0.000084 0.000048 0.008245
    24 0.000000 1.225114 -3.954162 0.000000 0.000000 0.000000
    25 3.820735 -1.409995 -0.589408 -1.564198 -0.011689 -1.581440
    26 3.859704 -0.142406 -1.191974 -0.432212 0.155857 -0.861358
    27 1.312562 0.000000 0.000001 0.000000 0.000005 -1.191973
    28 0.729363 0.000000 0.000000 0.000000 0.000009 -1.063371
    29 3.942326 0.046772 -0.431443 -0.232410 -0.000605 -0.853325
    30 1.539094 0.000000 0.000000 0.000000 0.000002 -0.973398
    31 1.196323 0.000000 0.000000 0.000000 0.000002 -1.451290
    32 3.883687 -0.046769 0.431443 -0.066985 -0.050233 -0.694793
    33 1.719576 -0.000001 0.000000 0.000000 0.000003 -1.251021
    34 1.209181 -0.000001 0.000000 0.000000 0.000004 -1.141154
    35 3.859859 -0.137948 1.332466 0.311964 -0.262344 -0.078706
    36 1.719429 -0.000001 0.000000 0.000000 -0.036194 -0.662944
    37 1.099665 0.000000 0.000000 -0.025575 -0.041759 -1.021018
    38 0.806046 -0.348923 1.321258 -1.349678 -0.343508 -0.771484
    39 1.789784 0.000000 0.000001 0.000000 0.063403 0.390219
    40 1.206999 0.000000 0.000000 -0.024449 0.037705 0.990519
    41 3.859672 -0.132568 1.193108 0.432220 -0.155872 -0.861364
    42 1.312563 0.000001 0.000000 0.000000 -0.000007 -1.191994
    43 0.729365 0.000000 0.000000 0.000000 -0.000010 -1.063390
    44 3.942296 0.050325 0.431043 0.232419 0.000608 -0.853326
    45 1.539096 -0.000001 0.000000 0.000000 -0.000006 -0.973387
    46 1.196322 0.000002 0.000000 0.000000 -0.000003 -1.451278
    47 3.883656 -0.050329 -0.431043 0.066982 0.050237 -0.694789
    48 1.719576 -0.000001 0.000000 0.000000 -0.000004 -1.251031
    49 1.209180 -0.000002 0.000000 0.000000 -0.000003 -1.141144
    50 3.859828 -0.148936 -1.331282 -0.248859 0.263122 -0.072134
    51 1.719426 0.000001 0.000000 0.000000 -0.000009 -0.676743
    52 1.099666 0.000001 0.000000 0.000000 -0.000004 -1.021279
    53 0.806018 -0.359836 -1.318334 1.349675 0.343506 -0.771465
    54 1.789783 0.000001 -0.000001 0.000000 -0.000009 0.397490
    55 1.207001 0.000000 0.000001 0.000000 -0.000006 0.989014
  time 6
    0 0.000000 0.000000 -65.998108 1.570796 0.000000 0.000000
    1 -0.000005 38.566917 0.533613 0.000000 0.000000 0.000000
    2 0.000005 3.345128 -2.981901 1.745363 0.086257 1.571335
    3 4.018332 0.000000 0.000000 0.000000 0.000000 -0.029242
    4 3.518567 0.000000 0.000000 0.000000 0.000000 0.100336
    5 8.942642 0.000000 0.000000 0.000000 0.000000 0.194096
    6 2.033347 1.000767 1.937660 1.596637 -1.286515 2.942961
    7 6.028141 0.000001 0.000000 -0.223444 -1.404206 -2.186563
    8 11.692556 0.000000 0.000001 0.000000 0.000000 -0.317591
    9 11.481672 0.000000 -0.000031 1.288576 -0.009262 0.199709
    10 3.820721 -1.405028 0.601078 1.564288 0.003442 -1.581444
    11 6.114854 -1.434045 1.934793 1.564288 0.003442 -1.581444
    12 0.051127 3.122170 -0.141701 0.000000 0.000000 1.570796
    13 -0.000001 1.537870 -5.938447 0.000000 1.570796 0.000000
    14 0.027345 1.595740 1.997380 0.000000 0.000000 0.000000
    15 -0.000001 1.225114 3.954165 0.000000 0.000000 0.000000
    16 2.033355 1.000771 -1.937610 -1.668474 1.286518 2.942953
    17 6.028143 0.000000 0.000000 2.448823 1.304305 0.119606
    18 11.692550 0.000000 0.000001 0.000000 0.000000 -0.360256
    19 11.481699 0.000000 0.000003 -1.288028 0.006560 0.316284
    20 6.114873 -1.450003 -1.922835 -1.564198 -0.011689 -1.581440
    21 0.051129 3.122169 0.141701 0.000000 0.000000 1.570796
    22 0.000001 1.537870 5.938447 0.000000 -1.570796 0.000000
    23 0.000000 1.607459 -1.997381 -0.000084 0.000048 0.008245
    24 0.000000 1.225114 -3.954162 0.000000 0.000000 0.000000
    25 3.820735 -1.409995 -0.589408 -1.564198 -0.011689 -1.581440
    26 3.859704 -0.142406 -1.191974 -0.432212 0.155857 -0.861358
    27 1.312562 0.000000 0.000001 0.000000 0.000005 -1.191973
    28 0.729363 0.000000 0.000000 0.000000 0.000009 -1.063371
    29 3.942326 0.046772 -0.431443 -0.232410 -0.000605 -0.853325
    30 1.539094 0.000000 0.000000 0.000000 0.000002 -0.973398
    31 1.196323 0.000000 0.000000 0.000000 0.000002 -1.451290
    32 3.883687 -0.046769 0.431443 -0.066985 -0.050233 -0.694793
    33 1.719576 -0.000001 0.000000 0.000000 0.000003 -1.251021
    34 1.209181 -0.000001 0.000000 0.000000 0.000004 -1.141154
    35 3.859859 -0.137948 1.332466 0.311964 -0.262344 -0.078706
    36 1.719429 -0.000001 0.000000 0.000000 -0.036194 -0.662944
    37 1.099665 0.000000 0.000000 -0.025575 -0.041759 -1.021018
    38 0.806046 -0.348923 1.321258 -1.349678 -0.343508 -0.771484
    39 1.789784 0.000000 0.000001 0.000000 0.063403 0.390219
    40 1.206999 0.000000 0.000000 -0.024449 0.037705 0.990519
    41 3.859672 -0.132568 1.193108 0.432220 -0.155872 -0.861364
    42 1.312563 0.000001 0.000000 0.000000 -0.000007 -1.191994
    43 0.729365 0.000000 0.000000 0.000000 -0.000010 -1.063390
    44 3.942296 0.050325 0.431043 0.232419 0.000608 -0.853326
    45 1.539096 -0.000001 0.000000 0.000000 -0.000006 -0.973387
    46 1.196322 0.000002 0.000000 0.000000 -0.000003 -1.451278
    47 3.883656 -0.050329 -0.431043 0.066982 0.050237 -0.694789
    48 1.719576 -0.000001 0.000000 0.000000 -0.000004 -1.251031
    49 1.209180 -0.000002 0.000000 0.000000 -0.000003 -1.141144
    50 3.859828 -0.148936 -1.331282 -0.248859 0.263122 -0.072134
    51 1.719426 0.000001 0.000000 0.000000 -0.000009 -0.676743
    52 1.099666 0.000001 0.000000 0.000000 -0.000004 -1.021279
    53 0.806018 -0.359836 -1.318334 1.349675 0.343506 -0.771465
    54 1.789783 0.000001 -0.000001 0.000000 -0.000009 0.397490
    55 1.207001 0.000000 0.000001 0.000000 -0.000006 0.989014
  time 7
    0 0.000000 0.000000 -65.998108 1.570796 0.000000 0.000000
    1 -0.000005 38.566917 0.533613 0.000000 0.000000 0.000000
    2 0.000005 3.345128 -2.981901 1.745363 0.086257 1.571335
    3 4.018332 0.000000 0.000000 0.000000 0.000000 -0.029242
    4 3.518567 0.000000 0.000000 0.000000 0.000000 0.100336
    5 8.942642 0.000000 0.000000 0.000000 0.000000 0.194096
    6 2.033347 1.000767 1.937660 1.596637 -1.286515 2.942961
    7 6.028141 0.000001 0.000000 -0.220792 -1.404517 -2.189151
    8 11.692556 0.000000 0.000001 0.000000 0.000000 -0.317407
    9 11.481672 0.000000 -0.000031 1.288279 -0.007822 0.202697
    10 3.820721 -1.405028 0.601078 1.564288 0.003442 -1.581444
    11 6.114854 -1.434045 1.934793 1.564288 0.003442 -1.581444
    12 0.051127 3.122170 -0.141701 0.000000 0.000000 1.570796
    13 -0.000001 1.537870 -5.938447 0.000000 1.570796 0.000000
    14 0.027345 1.595740 1.997380 0.000000 0.000000 0.000000
    15 -0.000001 1.225114 3.954165 0.000000 0.000000 0.000000
    16 2.033355 1.000771 -1.937610 -1.668474 1.286518 2.942953
    17 6.028143 0.000000 0.000000 2.472159 1.309399 0.143765
    18 11.692550 0.000000 0.000001 0.000000 0.000000 -0.343761
    19 11.481699 0.000000 0.000003 -1.288319 0.006889 0.273004
    20 6.114873 -1.450003 -1.922835 -1.564198 -0.011689 -1.581440
    21 0.051129 3.122169 0.141701 0.000000 0.000000 1.570796
    22 0.000001 1.537870 5.938447 0.000000 -1.570796 0.000000
    23 0.000000 1.607459 -1.997381 -0.000084 0.000048 0.008245
    24 0.000000 1.225114 -3.954162 0.000000 0.000000 0.000000
    25 3.820735 -1.409995 -0.589408 -1.564198 -0.011689 -1.581440
    26 3.859704 -0.142406 -1.191974 -0.432212 0.155857 -0.861358
    27 1.312562 0.000000 0.000001 0.000000 0.000005 -1.191973
    28 0.729363 0.000000 0.000000 0.000000 0.000009 -1.063371
    29 3.942326 0.046772 -0.431443 -0.232410 -0.000605 -0.853325
    30 1.539094 0.000000 0.000000 0.000000 0.000002 -0.973398
    31 1.196323 0.000000 0.000000 0.000000 0.000002 -1.451290
    32 3.883687 -0.046769 0.431443 -0.066985 -0.050233 -0.694793
    33 1.719576 -0.000001 0.000000 0.000000 0.000003 -1.251021
    34 1.209181 -0.000001 0.000000 0.000000 0.000004 -1.141154
    35 3.859859 -0.137948 1.332466 0.311964 -0.262344 -0.078706
    36 1.719429 -0.000001 0.000000 0.000000 -0.036194 -0.662944
    37 1.099665 0.000000 0.000000 -0.025575 -0.041759 -1.021018
    38 0.806046 -0.348923 1.321258 -1.349678 -0.343508 -0.771484
    39 1.789784 0.000000 0.000001 0.000000 0.063403 0.390219
    40 1.206999 0.000000 0.000000 -0.024449 0.037705 0.990519
    41 3.859672 -0.132568 1.193108 0.432220 -0.155872 -0.861364
    42 1.312563 0.000001 0.000000 0.000000 -0.000007 -1.191994
    43 0.729365 0.000000 0.000000 0.000000 -0.000010 -1.063390
    44 3.942296 0.050325 0.431043 0.232419 0.000608 -0.853326
    45 1.539096 -0.000001 0.000000 0.000000 -0.000006 -0.973387
    46 1.196322 0.000002 0.000000 0.000000 -0.000003 -1.451278
    47 3.883656 -0.050329 -0.431043 0.066982 0.050237 -0.694789
    48 1.719576 -0.000001 0.000000 0.000000 -0.000004 -1.251031
    49 1.209180 -0.000002 0.000000 0.000000 -0.000003 -1.141144
    50 3.859828 -0.148936 -1.331282 -0.248859 0.263122 -0.072134
    51 1.719426 0.000001 0.000000 0.000000 -0.000009 -0.676743
    52 1.099666 0.000001 0.000000 0.000000 -0.000004 -1.021279
    53 0.806018 -0.359836 -1.318334 1.349675 0.343506 -0.771465
    54 1.789783 0.000001 -0.000001 0.000000 -0.000009 0.397490
    55 1.207001 0.000000 0.000001 0.000000 -0.000006 0.989014
  time 8
    0 0.000000 0.000000 -65.998108 1.570796 0.000000 0.000000
    1 -0.000005 38.566917 0.533613 0.000000 0.000000 0.000000
    2 0.000005 3.345128 -2.981901 1.745363 0.086257 1.571335
    3 4.018332 0.000000 0.000000 0.000000 0.000000 -0.029242
    4 3.518567 0.000000 0.000000 0.000000 0.000000 0.100336
    5 8.942642 0.000000 0.000000 0.000000 0.000000 0.194096
    6 2.033347 1.000767 1.937660 1.596637 -1.286515 2.942961
    7 6.028141 0.000001 0.000000 -0.217293 -1.404916 -2.192514
    8 11.692556 0.000000 0.000001 0.000000 0.000000 -0.317177
    9 11.481672 0.000000 -0.000031 1.288144 -0.006856 0.204489
    10 3.820721 -1.405028 0.601078 1.564288 0.003442 -1.581444
    11 6.114854 -1.434045 1.934793 1.564288 0.003442 -1.581444
    12 0.051127 3.122170 -0.141701 0.000000 0.000000 1.570796
    13 -0.000001 1.537870 -5.938447 0.000000 1.570796 0.000000
    14 0.027345 1.595740 1.997380 0.000000 0.000000 0.000000
    15 -0.000001 1.225114 3.954165 0.000000 0.000000 0.000000
    16 2.033355 1.000771 -1.937610 -1.668474 1.286518 2.942953
    17 6.028143 0.000000 0.000000 2.490238 1.313147 0.162502
    18 11.692550 0.000000 0.000001 0.000000 0.000000 -0.331372
    19 11.481699 0.000000 0.000003 -1.288610 0.007198 0.232441
    20 6.114873 -1.450003 -1.922835 -1.564198 -0.011689 -1.581440
    21 0.051129 3.122169 0.141701 0.000000 0.000000 1.570796
    22 0.000001 1.537870 5.938447 0.000000 -1.570796 0.000000
    23 0.000000 1.607459 -1.997381 -0.000084 0.000048 0.008245
    24 0.000000 1.225114 -3.954162 0.000000 0.000000 0.000000
    25 3.820735 -1.409995 -0.589408 -1.564198 -0.011689 -1.581440
    26 3.859704 -0.142406 -1.191974 -0.432212 0.155857 -0.861358
    27 1.312562 0.000000 0.000001 0.000000 0.000005 -1.191996
    28 0.729363 0.000000 0.000000 0.000000 0.000009 -1.063371
    29 3.942326 0.046772 -0.431443 -0.232410 -0.000605 -0.853325
    30 1.539094 0.000000 0.000000 0.000000 0.000002 -0.973398
    31 1.196323 0.000000 0.000000 0.000000 0.000002 -1.451290
    32 3.883687 -0.046769 0.431443 -0.066985 -0.050233 -0.694793
    33 1.719576 -0.000001 0.000000 0.000000 0.000003 -1.251021
    34 1.209181 -0.000001 0.000000 0.000000 0.000004 -1.141154
    35 3.859859 -0.137948 1.332466 0.311964 -0.262344 -0.078706
    36 1.719429 -0.000001 0.000000 0.000000 -0.036194 -0.662944
    37 1.099665 0.000000 0.000000 -0.025575 -0.041759 -1.021018
    38 0.806046 -0.348923 1.321258 -1.349678 -0.343508 -0.771484
    39 1.789784 0.000000 0.000001 0.000000 0.063403 0.390219
    40 1.206999 0.000000 0.000000 -0.024449 0.037705 0.990519
    41 3.859672 -0.132568 1.193108 0.432220 -0.155872 -0.861364
    42 1.312563 0.000001 0.000000 0.000000 -0.000007 -1.191994
    43 0.729365 0.000000 0.000000 0.000000 -0.000010 -1.063390
    44 3.942296 0.050325 0.431043 0.232419 0.000608 -0.853326
    45 1.539096 -0.000001 0.000000 0.000000 -0.000006 -0.973387
    46 1.196322 0.000002 0.000000 0.000000 -0.000003 -1.451278
    47 3.883656 -0.050329 -0.431043 0.066982 0.050237 -0.694789
    48 1.719576 -0.000001 0.000000 0.000000 -0.000004 -1.251031
    49 1.209180 -0.000002 0.000000 0.000000 -0.000003 -1.141144
    50 3.859828 -0.148936 -1.331282 -0.248859 0.263122 -0.072134
    51 1.719426 0.000001 0.000000 0.000000 -0.000009 -0.676743
    52 1.099666 0.000001 0.000000 0.000000 -0.000004 -1.021279
    53 0.806018 -0.359836 -1.318334 1.349675 0.343506 -0.771465
    54 1.789783 0.000001 -0.000001 0.000000 -0.000009 0.397490
    55 1.207001 0.000000 0.000001 0.000000 -0.000006 0.989014
  time 9
    0 0.000000 0.000000 -65.998108 1.570796 0.000000 0.000000
    1 -0.000005 38.566917 0.533613 0.000000 0.000000 0.000000
    2 0.000005 3.345128 -2.981901 1.745363 0.086257 1.571335
    3 4.018332 0.000000 0.000000 0.000000 0.000000 -0.029242
    4 3.518567 0.000000 0.000000 0.000000 0.000000 0.100336
    5 8.942642 0.000000 0.000000 0.000000 0.000000 0.194096
    6 2.033347 1.000767 1.937660 1.596637 -1.286515 2.942961
    7 6.028141 0.000001 0.000000 -0.213737 -1.405272 -2.195942
    8 11.692556 0.000000 0.000001 0.000000 0.000000 -0.316902
    9 11.481672 0.000000 -0.000031 1.288306 -0.006774 0.203849
    10 3.820721 -1.405028 0.601078 1.564288 0.003442 -1.581444
    11 6.114854 -1.434045 1.934793 1.564288 0.003442 -1.581444
    12 0.051127 3.122170 -0.141701 0.000000 0.000000 1.570796
    13 -0.000001 1.537870 -5.938447 0.000000 1.570796 0.000000
    14 0.027345 1.595740 1.997380 0.000000 0.000000 0.000000
    15 -0.000001 1.225114 3.954165 0.000000 0.000000 0.000000
    16 2.033355 1.000771 -1.937610 -1.668474 1.286518 2.942953
    17 6.028143 0.000000 0.000000 2.503354 1.315715 0.176037
    18 11.692550 0.000000 0.000001 0.000000 0.000000 -0.322619
    19 11.481699 0.000000 0.000003 -1.288792 0.007363 0.210752
    20 6.114873 -1.450003 -1.922835 -1.564198 -0.011689 -1.581440
    21 0.051129 3.122169 0.141701 0.000000 0.000000 1.570796
    22 0.000001 1.537870 5.938447 0.000000 -1.570796 0.000000
    23 0.000000 1.607459 -1.997381 -0.000084 0.000048 0.008245
    24 0.000000 1.225114 -3.954162 0.000000 0.000000 0.000000
    25 3.820735 -1.409995 -0.589408 -1.564198 -0.011689 -1.581440
    26 3.859704 -0.142406 -1.191974 -0.432212 0.155857 -0.861358
    27 1.312562 0.000000 0.000001 0.000000 0.000005 -1.191973
    28 0.729363 0.000000 0.000000 0.000000 0.000009 -1.063371
    29 3.942326 0.046772 -0.431443 -0.232410 -0.000605 -0.853325
    30 1.539094 0.000000 0.000000 0.000000 0.000002 -0.973398
    31 1.196323 0.000000 0.000000 0.000000 0.000002 -1.451290
    32 3.883687 -0.046769 0.431443 -0.066985 -0.050233 -0.694793
    33 1.719576 -0.000001 0.000000 0.000000 0.000003 -1.251021
    34 1.209181 -0.000001 0.000000 0.000000 0.000004 -1.141154
    35 3.859859 -0.137948 1.332466 0.311964 -0.262344 -0.078706
    36 1.719429 -0.000001 0.000000 0.000000 -0.036194 -0.662944
    37 1.099665 0.000000 0.000000 -0.025575 -0.041759 -1.021018
    38 0.806046 -0.348923 1.321258 -1.349678 -0.343508 -0.771484
    39 1.789784 0.000000 0.000001 0.000000 0.063403 0.390219
    40 1.206999 0.000000 0.000000 -0.024449 0.037705 0.990519
    41 3.859672 -0.132568 1.193108 0.432220 -0.155872 -0.861364
    42 1.312563 0.000001 0.000000 0.000000 -0.000007 -1.191994
    43 0.729365 0.000000 0.000000 0.000000 -0.000010 -1.063390
    44 3.942296 0.050325 0.431043 0.232419 0.000608 -0.853326
    45 1.539096 -0.000001 0.000000 0.000000 -0.000006 -0.973387
    46 1.196322 0.000002 0.000000 0.000000 -0.000003 -1.451278
    47 3.883656 -0.050329 -0.431043 0.066982 0.050237 -0.694789
    48 1.719576 -0.000001 0.000000 0.000000 -0.000004 -1.251031
    49 1.209180 -0.000002 0.000000 0.000000 -0.000003 -1.141144
    50 3.859828 -0.148936 -1.331282 -0.248859 0.263122 -0.072134
    51 1.719426 0.000001 0.000000 0.000000 -0.000009 -0.676743
    52 1.099666 0.000001 0.000000 0.000000 -0.000004 -1.021279
    53 0.806018 -0.359836 -1.318334 1.349675 0.343506 -0.771465
    54 1.789783 0.000001 -0.000001 0.000000 -0.000009 0.397490
    55 1.207001 0.000000 0.000001 0.000000 -0.000006 0.989014
  time 10
    0 0.000000 0.000000 -65.998108 1.570796 0.000000 0.000000
    1 -0.000005 38.566917 0.533613 0.000000 0.000000 0.000000
    2 0.000005 3.345128 -2.981901 1.745363 0.086257 1.571335
    3 4.018332 0.000000 0.000000 0.000000 0.000000 -0.029242
    4 3.518567 0.000000 0.000000 0.000000 0.000000 0.100336
    5 8.942642 0.000000 0.000000 0.000000 0.000000 0.194096
    6 2.033347 1.000767 1.937660 1.596637 -1.286515 2.942961
    7 6.028141 0.000001 0.000000 -0.211028 -1.405582 -2.198529
    8 11.692556 0.000000 0.000001 0.000000 0.000000 -0.316718
    9 11.481672 0.000000 -0.000031 1.288657 -0.007164 0.201843
    10 3.820721 -1.405028 0.601078 1.564288 0.003442 -1.581444
    11 6.114854 -1.434045 1.934793 1.564288 0.003442 -1.581444
    12 0.051127 3.122170 -0.141701 0.000000 0.000000 1.570796
    13 -0.000001 1.537870 -5.938447 0.000000 1.570796 0.000000
    14 0.027345 1.595740 1.997380 0.000000 0.000000 0.000000
    15 -0.000001 1.225114 3.954165 0.000000 0.000000 0.000000
    16 2.033355 1.000771 -1.937610 -1.668474 1.286518 2.942953
    17 6.028143 0.000000 0.000000 2.511123 1.317181 0.184061
    18 11.692550 0.000000 0.000001 0.000000 0.000000 -0.317502
    19 11.481699 0.000000 0.000003 -1.288865 0.007424 0.201107
    20 6.114873 -1.450003 -1.922835 -1.564198 -0.011689 -1.581440
    21 0.051129 3.122169 0.141701 0.000000 0.000000 1.570796
    22 0.000001 1.537870 5.938447 0.000000 -1.570796 0.000000
    23 0.000000 1.607459 -1.997381 -0.000084 0.000048 0.008245
    24 0.000000 1.225114 -3.954162 0.000000 0.000000 0.000000
    25 3.820735 -1.409995 -0.589408 -1.564198 -0.011689 -1.581440
    26 3.859704 -0.142406 -1.191974 -0.432212 0.155857 -0.861358
    27 1.312562 0.000000 0.000001 0.000000 0.000005 -1.191996
    28 0.729363 0.000000 0.000000 0.000000 0.000009 -1.063371
    29 3.942326 0.046772 -0.431443 -0.232410 -0.000605 -0.853325
    30 1.539094 0.000000 0.000000 0.000000 0.000002 -0.973398
    31 1.196323 0.000000 0.000000 0.000000 0.000002 -1.451290
    32 3.883687 -0.046769 0.431443 -0.066985 -0.050233 -0.694793
    33 1.719576 -0.000001 0.000000 0.000000 0.000003 -1.251021
    34 1.209181 -0.000001 0.000000 0.000000 0.000004 -1.141154
    35 3.859859 -0.137948 1.332466 0.311964 -0.262344 -0.078706
    36 1.719429 -0.000001 0.000000 0.000000 -0.036194 -0.662944
    37 1.099665 0.000000 0.000000 -0.025575 -0.041759 -1.021018
    38 0.806046 -0.348923 1.321258 -1.349678 -0.343508 -0.771484
    39 1.789784 0.000000 0.000001 0.000000 0.063403 0.390219
    40 1.206999 0.000000 0.000000 -0.024449 0.037705 0.990519
    41 3.859672 -0.132568 1.193108 0.432220 -0.155872 -0.861364
    42 1.312563 0.000001 0.000000 0.000000 -0.000007 -1.191994
    43 0.729365 0.000000 0.000000 0.000000 -0.000010 -1.063390
    44 3.942296 0.050325 0.431043 0.232419 0.000608 -0.853326
    45 1.539096 -0.000001 0.000000 0.000000 -0.000006 -0.973387
    46 1.196322 0.000002 0.000000 0.000000 -0.000003 -1.451278
    47 3.883656 -0.050329 -0.431043 0.066982 0.050237 -0.694789
    48 1.719576 -0.000001 0.000000 0.000000 -0.000004 -1.251031
    49 1.209180 -0.000002 0.000000 0.000000 -0.000003 -1.141144
    50 3.859828 -0.148936 -1.331282 -0.248859 0.263122 -0.072134
    51 1.719426 0.000001 0.000000 0.000000 -0.000009 -0.676743
    52 1.099666 0.000001 0.000000 0.000000 -0.000004 -1.021279
    53 0.806018 -0.359836 -1.318334 1.349675 0.343506 -0.771465
    54 1.789783 0.000001 -0.000001 0.000000 -0.000009 0.397490
    55 1.207001 0.000000 0.000001 0.000000 -0.000006 0.989014
  time 11
    0 0.000000 0.000000 -65.998108 1.570796 0.000000 0.000000
    1 -0.000005 38.566917 0.533613 0.000000 0.000000 0.000000
    2 0.000005 3.345128 -2.981901 1.745363 0.086257 1.571335
    3 4.018332 0.000000 0.000000 0.000000 0.000000 -0.029242
    4 3.518567 0.000000 0.000000 0.000000 0.000000 0.100336
    5 8.942642 0.000000 0.000000 0.000000 0.000000 0.194096
    6 2.033347 1.000767 1.937660 1.596637 -1.286515 2.942961
    7 6.028141 0.000001 0.000000 -0.209900 -1.405715 -2.199629
    8 11.692556 0.000000 0.000001 0.000000 0.000000 -0.316626
    9 11.481672 0.000000 -0.000031 1.288846 -0.007432 0.200691
    10 3.820721 -1.405028 0.601078 1.564288 0.003442 -1.581444
    11 6.114854 -1.434045 1.934793 1.564288 0.003442 -1.581444
    12 0.051127 3.122170 -0.141701 0.000000 0.000000 1.570796
    13 -0.000001 1.537870 -5.938447 0.000000 1.570796 0.000000
    14 0.027345 1.595740 1.997380 0.000000 0.000000 0.000000
    15 -0.000001 1.225114 3.954165 0.000000 0.000000 0.000000
    16 2.033355 1.000771 -1.937610 -1.668474 1.286518 2.942953
    17 6.028143 0.000000 0.000000 2.512511 1.317467 0.185516
    18 11.692550 0.000000 0.000001 0.000000 0.000000 -0.316627
    19 11.481699 0.000000 0.000003 -1.288865 0.007424 0.200691
    20 6.114873 -1.450003 -1.922835 -1.564198 -0.011689 -1.581440
    21 0.051129 3.122169 0.141701 0.000000 0.000000 1.570796
    22 0.000001 1.537870 5.938447 0.000000 -1.570796 0.000000
    23 0.000000 1.607459 -1.997381 -0.000084 0.000048 0.008245
    24 0.000000 1.225114 -3.954162 0.000000 0.000000 0.000000
    25 3.820735 -1.409995 -0.589408 -1.564198 -0.011689 -1.581440
    26 3.859704 -0.142406 -1.191974 -0.432212 0.155857 -0.861358
    27 1.312562 0.000000 0.000001 0.000000 0.000005 -1.191973
    28 0.729363 0.000000 0.000000 0.000000 0.000009 -1.063371
    29 3.942326 0.046772 -0.431443 -0.232410 -0.000605 -0.853325
    30 1.539094 0.000000 0.000000 0.000000 0.000002 -0.973398
    31 1.196323 0.000000 0.000000 0.000000 0.000002 -1.451290
    32 3.883687 -0.046769 0.431443 -0.066985 -0.050233 -0.694793
    33 1.719576 -0.000001 0.000000 0.000000 0.000003 -1.251021
    34 1.209181 -0.000001 0.000000 0.000000 0.000004 -1.141154
    35 3.859859 -0.137948 1.332466 0.311964 -0.262344 -0.078706
    36 1.719429 -0.000001 0.000000 0.000000 -0.036194 -0.662944
    37 1.099665 0.000000 0.000000 -0.025575 -0.041759 -1.021018
    38 0.806046 -0.348923 1.321258 -1.349678 -0.343508 -0.771484
    39 1.789784 0.000000 0.000001 0.000000 0.063403 0.390219
    40 1.206999 0.000000 0.000000 -0.024449 0.037705 0.990519
    41 3.859672 -0.132568 1.193108 0.432220 -0.155872 -0.861364
    42 1.312563 0.000001 0.000000 0.000000 -0.000007 -1.191994
    43 0.729365 0.000000 0.000000 0.000000 -0.000010 -1.063390
    44 3.942296 0.050325 0.431043 0.232419 0.000608 -0.853326
    45 1.539096 -0.000001 0.000000 0.000000 -0.000006 -0.973387
    46 1.196322 0.000002 0.000000 0.000000 -0.000003 -1.451278
    47 3.883656 -0.050329 -0.431043 0.066982 0.050237 -0.694789
    48 1.719576 -0.000001 0.000000 0.000000 -0.000004 -1.251031
    49 1.209180 -0.000002 0.000000 0.000000 -0.000003 -1.141144
    50 3.859828 -0.148936 -1.331282 -0.248859 0.263122 -0.072134
    51 1.719426 0.000001 0.000000 0.000000 -0.000009 -0.676743
    52 1.099666 0.000001 0.000000 0.000000 -0.000004 -1.021279
    53 0.806018 -0.359836 -1.318334 1.349675 0.343506 -0.771465
    54 1.789783 0.000001 -0.000001 0.000000 -0.000009 0.397490
    55 1.207001 0.000000 0.000001 0.000000 -0.000006 0.989014
end
