// Created by Crowbar 0.74
version 1
nodes
  0 "ValveBiped" -1
  1 "ValveBiped.Bip01" 0
  2 "ValveBiped.Bip01_Spine" 1
  3 "ValveBiped.Bip01_Spine1" 2
  4 "ValveBiped.Bip01_Spine2" 3
  5 "ValveBiped.Bip01_Spine4" 4
  6 "ValveBiped.Bip01_L_Clavicle" 5
  7 "ValveBiped.Bip01_L_UpperArm" 6
  8 "ValveBiped.Bip01_L_Forearm" 7
  9 "ValveBiped.Bip01_L_Hand" 8
  10 "ValveBiped.clip1" 9
  11 "ValveBiped.base1" 9
  12 "ValveBiped.eject1" 11
  13 "ValveBiped.muzzle1" 11
  14 "ValveBiped.square1" 11
  15 "ValveBiped.hammer1" 11
  16 "ValveBiped.Bip01_R_Clavicle" 5
  17 "ValveBiped.Bip01_R_UpperArm" 16
  18 "ValveBiped.Bip01_R_Forearm" 17
  19 "ValveBiped.Bip01_R_Hand" 18
  20 "ValveBiped.base" 19
  21 "ValveBiped.eject" 20
  22 "ValveBiped.muzzle" 20
  23 "ValveBiped.square" 20
  24 "ValveBiped.hammer" 20
  25 "ValveBiped.clip" 19
  26 "ValveBiped.Bip01_L_Finger4" 9
  27 "ValveBiped.Bip01_L_Finger41" 26
  28 "ValveBiped.Bip01_L_Finger42" 27
  29 "ValveBiped.Bip01_L_Finger3" 9
  30 "ValveBiped.Bip01_L_Finger31" 29
  31 "ValveBiped.Bip01_L_Finger32" 30
  32 "ValveBiped.Bip01_L_Finger2" 9
  33 "ValveBiped.Bip01_L_Finger21" 32
  34 "ValveBiped.Bip01_L_Finger22" 33
  35 "ValveBiped.Bip01_L_Finger1" 9
  36 "ValveBiped.Bip01_L_Finger11" 35
  37 "ValveBiped.Bip01_L_Finger12" 36
  38 "ValveBiped.Bip01_L_Finger0" 9
  39 "ValveBiped.Bip01_L_Finger01" 38
  40 "ValveBiped.Bip01_L_Finger02" 39
  41 "ValveBiped.Bip01_R_Finger4" 19
  42 "ValveBiped.Bip01_R_Finger41" 41
  43 "ValveBiped.Bip01_R_Finger42" 42
  44 "ValveBiped.Bip01_R_Finger3" 19
  45 "ValveBiped.Bip01_R_Finger31" 44
  46 "ValveBiped.Bip01_R_Finger32" 45
  47 "ValveBiped.Bip01_R_Finger2" 19
  48 "ValveBiped.Bip01_R_Finger21" 47
  49 "ValveBiped.Bip01_R_Finger22" 48
  50 "ValveBiped.Bip01_R_Finger1" 19
  51 "ValveBiped.Bip01_R_Finger11" 50
  52 "ValveBiped.Bip01_R_Finger12" 51
  53 "ValveBiped.Bip01_R_Finger0" 19
  54 "ValveBiped.Bip01_R_Finger01" 53
  55 "ValveBiped.Bip01_R_Finger02" 54
end
skeleton
  time 0
    0 0.000000 0.000000 -65.998108 1.570796 0.000000 0.000000
    1 -0.000005 38.566917 0.533613 0.000000 0.000000 0.000000
    2 0.000005 3.345128 -2.981901 1.745363 0.086257 1.571335
    3 4.018332 0.000000 0.000000 0.000000 0.000000 -0.029242
    4 3.518567 0.000000 0.000000 0.000000 0.000000 0.100336
    5 8.942642 0.000000 0.000000 0.000000 0.000000 0.194096
    6 2.033347 1.000767 1.937660 1.596637 -1.286515 2.942961
    7 6.028141 0.000001 0.000000 -1.214033 -1.106321 -1.159999
    8 11.692556 0.000000 0.000001 0.000000 0.000000 -1.180639
    9 11.481672 0.000000 -0.000031 1.286820 -0.004697 0.534470
    10 3.820721 -1.405028 0.601078 1.564288 0.003442 -1.581444
    11 6.114854 -1.434045 1.934793 1.564288 0.003442 -1.581444
    12 0.051127 3.122170 -0.141701 0.000000 0.000000 1.570796
    13 -0.000001 1.537870 -5.938447 0.000000 1.570796 0.000000
    14 0.027345 1.595740 1.997380 0.000000 0.000000 0.000000
    15 -0.000001 1.225114 3.954165 0.000000 0.000000 0.000000
    16 2.033355 1.000771 -1.937610 -1.668474 1.286518 2.942953
    17 6.028143 0.000000 0.000000 2.512511 1.317467 0.185516
    18 11.692550 0.000000 0.000001 0.000000 0.000000 -0.316627
    19 11.481699 0.000000 0.000003 -1.288865 0.007424 0.200691
    20 6.114873 -1.450003 -1.922835 -1.564198 -0.011689 -1.581440
    21 0.051129 3.122169 0.141701 0.000000 0.000000 1.570796
    22 0.000001 1.537870 5.938447 0.000000 -1.570796 0.000000
    23 0.000000 1.607459 -0.020758 -0.000084 0.000048 0.008245
    24 0.000000 1.225114 -3.954162 0.000000 0.000000 0.000000
    25 3.820735 -1.409995 -0.589408 -1.564198 -0.011689 -1.581440
    26 3.859704 -0.142406 -1.191974 -0.432212 0.155857 -0.861358
    27 1.312562 0.000000 0.000001 0.000000 0.000005 -1.191973
    28 0.729363 0.000000 0.000000 0.000000 0.000009 -1.063371
    29 3.942326 0.046772 -0.431443 -0.232410 -0.000605 -0.853325
    30 1.539094 0.000000 0.000000 0.000000 0.000002 -0.973398
    31 1.196323 0.000000 0.000000 0.000000 0.000002 -1.451290
    32 3.883687 -0.046769 0.431443 -0.066985 -0.050233 -0.694793
    33 1.719576 -0.000001 0.000000 0.000000 0.000003 -1.251021
    34 1.209181 -0.000001 0.000000 0.000000 0.000004 -1.141154
    35 3.859859 -0.137948 1.332466 0.311964 -0.262344 -0.078706
    36 1.719429 -0.000001 0.000000 0.000000 -0.036194 -0.662944
    37 1.099665 0.000000 0.000000 -0.025575 -0.041759 -1.021018
    38 0.806046 -0.348923 1.321258 -1.349678 -0.343508 -0.771484
    39 1.789784 0.000000 0.000001 0.000000 0.063403 0.390219
    40 1.206999 0.000000 0.000000 -0.024449 0.037705 0.990519
    41 3.859672 -0.132568 1.193108 0.432220 -0.155872 -0.861364
    42 1.312563 0.000001 0.000000 0.000000 -0.000007 -1.191994
    43 0.729365 0.000000 0.000000 0.000000 -0.000010 -1.063390
    44 3.942296 0.050325 0.431043 0.232419 0.000608 -0.853326
    45 1.539096 -0.000001 0.000000 0.000000 -0.000006 -0.973387
    46 1.196322 0.000002 0.000000 0.000000 -0.000003 -1.451278
    47 3.883656 -0.050329 -0.431043 0.066982 0.050237 -0.694789
    48 1.719576 -0.000001 0.000000 0.000000 -0.000004 -1.251031
    49 1.209180 -0.000002 0.000000 0.000000 -0.000003 -1.141144
    50 3.859828 -0.148936 -1.331282 -0.248859 0.263122 -0.072134
    51 1.719426 0.000001 0.000000 0.000000 -0.000009 -0.676743
    52 1.099666 0.000001 0.000000 0.000000 -0.000004 -1.021279
    53 0.806018 -0.359836 -1.318334 1.349675 0.343506 -0.771465
    54 1.789783 0.000001 -0.000001 0.000000 -0.000009 0.397490
    55 1.207001 0.000000 0.000001 0.000000 -0.000006 0.989014
  time 1
    0 0.000000 0.000000 -65.998108 1.570796 0.000000 0.000000
    1 -0.000005 38.566917 0.533613 0.000000 0.000000 0.000000
    2 0.000005 3.345128 -2.981901 1.745363 0.086257 1.571335
    3 4.018332 0.000000 0.000000 0.000000 0.000000 -0.029242
    4 3.518567 0.000000 0.000000 0.000000 0.000000 0.100336
    5 8.942642 0.000000 0.000000 0.000000 0.000000 0.194096
    6 2.033347 1.000767 1.937660 1.596637 -1.286515 2.942961
    7 6.028141 0.000001 0.000000 -1.182147 -1.140144 -1.195833
    8 11.692556 0.000000 0.000001 0.000000 0.000000 -1.093429
    9 11.481672 0.000000 -0.000031 1.287766 -0.006218 0.358042
    10 3.820721 -1.405028 0.601078 1.564288 0.003442 -1.581444
    11 6.114854 -1.434045 1.934793 1.564288 0.003442 -1.581444
    12 0.051127 3.122170 -0.141701 0.000000 0.000000 1.570796
    13 -0.000001 1.537870 -5.938447 0.000000 1.570796 0.000000
    14 0.027345 1.595740 1.997380 0.000000 0.000000 0.000000
    15 -0.000001 1.225114 3.954165 0.000000 0.000000 0.000000
    16 2.033355 1.000771 -1.937610 -1.668474 1.286518 2.942953
    17 6.028143 0.000000 0.000000 2.511241 1.317426 0.184105
    18 11.692550 0.000000 0.000001 0.000000 0.000000 -0.316762
    19 11.481699 0.000000 0.000003 -1.288902 0.007959 0.198243
    20 6.114873 -1.450003 -1.922835 -1.564198 -0.011689 -1.581440
    21 0.051129 3.122169 0.141701 0.000000 0.000000 1.570796
    22 0.000001 1.537870 5.938447 0.000000 -1.570796 0.000000
    23 0.000000 1.607459 -0.020758 -0.000084 0.000048 0.008245
    24 0.000000 1.225114 -3.954162 0.000000 0.000000 0.000000
    25 3.820735 -1.409995 -0.589408 -1.564198 -0.011689 -1.581440
    26 3.859704 -0.142406 -1.191974 -0.432212 0.155857 -0.861358
    27 1.312562 0.000000 0.000001 0.000000 0.000005 -1.191973
    28 0.729363 0.000000 0.000000 0.000000 0.000009 -1.063371
    29 3.942326 0.046772 -0.431443 -0.232410 -0.000605 -0.853325
    30 1.539094 0.000000 0.000000 0.000000 0.000002 -0.973398
    31 1.196323 0.000000 0.000000 0.000000 0.000002 -1.451290
    32 3.883687 -0.046769 0.431443 -0.066985 -0.050233 -0.694793
    33 1.719576 -0.000001 0.000000 0.000000 0.000003 -1.251021
    34 1.209181 -0.000001 0.000000 0.000000 0.000004 -1.141154
    35 3.859859 -0.137948 1.332466 0.311964 -0.262344 -0.078706
    36 1.719429 -0.000001 0.000000 0.000000 -0.036194 -0.662944
    37 1.099665 0.000000 0.000000 -0.025575 -0.041759 -1.021018
    38 0.806046 -0.348923 1.321258 -1.349678 -0.343508 -0.771484
    39 1.789784 0.000000 0.000001 0.000000 0.063403 0.390219
    40 1.206999 0.000000 0.000000 -0.024449 0.037705 0.990519
    41 3.859672 -0.132568 1.193108 0.432220 -0.155872 -0.861364
    42 1.312563 0.000001 0.000000 0.000000 -0.000007 -1.191994
    43 0.729365 0.000000 0.000000 0.000000 -0.000010 -1.063390
    44 3.942296 0.050325 0.431043 0.232419 0.000608 -0.853326
    45 1.539096 -0.000001 0.000000 0.000000 -0.000006 -0.973387
    46 1.196322 0.000002 0.000000 0.000000 -0.000003 -1.451278
    47 3.883656 -0.050329 -0.431043 0.066982 0.050237 -0.694789
    48 1.719576 -0.000001 0.000000 0.000000 -0.000004 -1.251031
    49 1.209180 -0.000002 0.000000 0.000000 -0.000003 -1.141144
    50 3.859828 -0.148936 -1.331282 -0.248859 0.263122 -0.072134
    51 1.719426 0.000001 0.000000 0.000000 -0.000009 -0.676743
    52 1.099666 0.000001 0.000000 0.000000 -0.000004 -1.021279
    53 0.806018 -0.359836 -1.318334 1.349675 0.343506 -0.771465
    54 1.789783 0.000001 -0.000001 0.000000 -0.000009 0.397490
    55 1.207001 0.000000 0.000001 0.000000 -0.000006 0.989014
  time 2
    0 0.000000 0.000000 -65.998108 1.570796 0.000000 0.000000
    1 -0.000005 38.566917 0.533613 0.000000 0.000000 0.000000
    2 0.000005 3.345128 -2.981901 1.745363 0.086257 1.571335
    3 4.018332 0.000000 0.000000 0.000000 0.000000 -0.029242
    4 3.518567 0.000000 0.000000 0.000000 0.000000 0.100336
    5 8.942642 0.000000 0.000000 0.000000 0.000000 0.194096
    6 2.033347 1.000767 1.937660 1.596637 -1.286515 2.942961
    7 6.028141 0.000001 0.000000 -1.071254 -1.228653 -1.316400
    8 11.692556 0.000000 0.000001 0.000000 0.000000 -0.872142
    9 11.481672 0.000000 -0.000031 1.288819 -0.007411 0.204105
    10 3.820721 -1.405028 0.601078 1.564288 0.003442 -1.581444
    11 6.114854 -1.434045 1.934793 1.564288 0.003442 -1.581444
    12 0.051127 3.122170 -0.141701 0.000000 0.000000 1.570796
    13 -0.000001 1.537870 -5.938447 0.000000 1.570796 0.000000
    14 0.027345 1.595740 1.677058 0.000000 0.000000 0.000000
    15 -0.000001 1.225114 3.954165 0.000000 0.000000 0.000000
    16 2.033355 1.000771 -1.937610 -1.668474 1.286518 2.942953
    17 6.028143 0.000000 0.000000 2.508228 1.317304 0.180710
    18 11.692550 0.000000 0.000001 0.000000 0.000000 -0.317098
    19 11.481699 0.000000 0.000003 -1.289047 0.008905 0.193910
    20 6.114873 -1.450003 -1.922835 -1.564198 -0.011689 -1.581440
    21 0.051129 3.122169 0.141701 0.000000 0.000000 1.570796
    22 0.000001 1.537870 5.938447 0.000000 -1.570796 0.000000
    23 0.000000 1.607459 -0.020758 -0.000084 0.000048 0.008245
    24 0.000000 1.225114 -3.954162 0.000000 0.000000 0.000000
    25 3.820735 -1.409995 -0.589408 -1.564198 -0.011689 -1.581440
    26 3.859704 -0.142406 -1.191974 -0.432212 0.155857 -0.861358
    27 1.312562 0.000000 0.000001 0.000000 0.000005 -1.191973
    28 0.729363 0.000000 0.000000 0.000000 0.000009 -1.063371
    29 3.942326 0.046772 -0.431443 -0.232410 -0.000605 -0.853325
    30 1.539094 0.000000 0.000000 0.000000 0.000002 -0.973398
    31 1.196323 0.000000 0.000000 0.000000 0.000002 -1.451290
    32 3.883687 -0.046769 0.431443 -0.066985 -0.050233 -0.694793
    33 1.719576 -0.000001 0.000000 0.000000 0.000003 -1.251021
    34 1.209181 -0.000001 0.000000 0.000000 0.000004 -1.141154
    35 3.859859 -0.137948 1.332466 0.311964 -0.262344 -0.078706
    36 1.719429 -0.000001 0.000000 0.000000 -0.036194 -0.662944
    37 1.099665 0.000000 0.000000 -0.025575 -0.041759 -1.021018
    38 0.806046 -0.348923 1.321258 -1.349678 -0.343508 -0.771484
    39 1.789784 0.000000 0.000001 0.000000 0.063403 0.390219
    40 1.206999 0.000000 0.000000 -0.024449 0.037705 0.990519
    41 3.859672 -0.132568 1.193108 0.432220 -0.155872 -0.861364
    42 1.312563 0.000001 0.000000 0.000000 -0.000007 -1.191994
    43 0.729365 0.000000 0.000000 0.000000 -0.000010 -1.063390
    44 3.942296 0.050325 0.431043 0.232419 0.000608 -0.853326
    45 1.539096 -0.000001 0.000000 0.000000 -0.000006 -0.973387
    46 1.196322 0.000002 0.000000 0.000000 -0.000003 -1.451278
    47 3.883656 -0.050329 -0.431043 0.066982 0.050237 -0.694789
    48 1.719576 -0.000001 0.000000 0.000000 -0.000004 -1.251031
    49 1.209180 -0.000002 0.000000 0.000000 -0.000003 -1.141144
    50 3.859828 -0.148936 -1.331282 -0.248859 0.263122 -0.072134
    51 1.719426 0.000001 0.000000 0.000000 -0.000009 -0.676743
    52 1.099666 0.000001 0.000000 0.000000 -0.000004 -1.021279
    53 0.806018 -0.359836 -1.318334 1.349675 0.343506 -0.771465
    54 1.789783 0.000001 -0.000001 0.000000 -0.000009 0.397490
    55 1.207001 0.000000 0.000001 0.000000 -0.000006 0.989014
  time 3
    0 0.000000 0.000000 -65.998108 1.570796 0.000000 0.000000
    1 -0.000005 38.566917 0.533613 0.000000 0.000000 0.000000
    2 0.000005 3.345128 -2.981901 1.745363 0.086257 1.571335
    3 4.018332 0.000000 0.000000 0.000000 0.000000 -0.029242
    4 3.518567 0.000000 0.000000 0.000000 0.000000 0.100336
    5 8.942642 0.000000 0.000000 0.000000 0.000000 0.194096
    6 2.033347 1.000767 1.937660 1.596637 -1.286515 2.942961
    7 6.028141 0.000001 0.000000 -0.801612 -1.336959 -1.597248
    8 11.692556 0.000000 0.000001 0.000000 0.000000 -0.591811
    9 11.481672 0.000000 -0.000031 1.288900 -0.007493 0.192860
    10 3.820721 -1.405028 0.601078 1.564288 0.003442 -1.581444
    11 6.114854 -1.434045 1.934793 1.564288 0.003442 -1.581444
    12 0.051127 3.122170 -0.141701 0.000000 0.000000 1.570796
    13 -0.000001 1.537870 -5.938447 0.000000 1.570796 0.000000
    14 0.027345 1.595740 0.020758 0.000000 0.000000 0.000000
    15 -0.000001 1.225114 3.954165 0.000000 0.000000 0.000000
    16 2.033355 1.000771 -1.937610 -1.668474 1.286518 2.942953
    17 6.028143 0.000000 0.000000 2.504654 1.317181 0.176698
    18 11.692550 0.000000 0.000001 0.000000 0.000000 -0.317435
    19 11.481699 0.000000 0.000003 -1.289084 0.009317 0.192295
    20 6.114873 -1.450003 -1.922835 -1.564198 -0.011689 -1.581440
    21 0.051129 3.122169 0.141701 0.000000 0.000000 1.570796
    22 0.000001 1.537870 5.938447 0.000000 -1.570796 0.000000
    23 0.000000 1.607459 -0.020758 -0.000084 0.000048 0.008245
    24 0.000000 1.225114 -3.954162 0.000000 0.000000 0.000000
    25 3.820735 -1.409995 -0.589408 -1.564198 -0.011689 -1.581440
    26 3.859704 -0.142406 -1.191974 -0.432212 0.155857 -0.861358
    27 1.312562 0.000000 0.000001 0.000000 0.000005 -1.191973
    28 0.729363 0.000000 0.000000 0.000000 0.000009 -1.063371
    29 3.942326 0.046772 -0.431443 -0.232410 -0.000605 -0.853325
    30 1.539094 0.000000 0.000000 0.000000 0.000002 -0.973398
    31 1.196323 0.000000 0.000000 0.000000 0.000002 -1.451290
    32 3.883687 -0.046769 0.431443 -0.066985 -0.050233 -0.694793
    33 1.719576 -0.000001 0.000000 0.000000 0.000003 -1.251021
    34 1.209181 -0.000001 0.000000 0.000000 0.000004 -1.141154
    35 3.859859 -0.137948 1.332466 0.311964 -0.262344 -0.078706
    36 1.719429 -0.000001 0.000000 0.000000 -0.036194 -0.662944
    37 1.099665 0.000000 0.000000 -0.025575 -0.041759 -1.021018
    38 0.806046 -0.348923 1.321258 -1.349678 -0.343508 -0.771484
    39 1.789784 0.000000 0.000001 0.000000 0.063403 0.390219
    40 1.206999 0.000000 0.000000 -0.024449 0.037705 0.990519
    41 3.859672 -0.132568 1.193108 0.432220 -0.155872 -0.861364
    42 1.312563 0.000001 0.000000 0.000000 -0.000007 -1.191994
    43 0.729365 0.000000 0.000000 0.000000 -0.000010 -1.063390
    44 3.942296 0.050325 0.431043 0.232419 0.000608 -0.853326
    45 1.539096 -0.000001 0.000000 0.000000 -0.000006 -0.973387
    46 1.196322 0.000002 0.000000 0.000000 -0.000003 -1.451278
    47 3.883656 -0.050329 -0.431043 0.066982 0.050237 -0.694789
    48 1.719576 -0.000001 0.000000 0.000000 -0.000004 -1.251031
    49 1.209180 -0.000002 0.000000 0.000000 -0.000003 -1.141144
    50 3.859828 -0.148936 -1.331282 -0.248859 0.263122 -0.072134
    51 1.719426 0.000001 0.000000 0.000000 -0.000009 -0.676743
    52 1.099666 0.000001 0.000000 0.000000 -0.000004 -1.021279
    53 0.806018 -0.359836 -1.318334 1.349675 0.343506 -0.771465
    54 1.789783 0.000001 -0.000001 0.000000 -0.000009 0.397490
    55 1.207001 0.000000 0.000001 0.000000 -0.000006 0.989014
  time 4
    0 0.000000 0.000000 -65.998108 1.570796 0.000000 0.000000
    1 -0.000005 38.566917 0.533613 0.000000 0.000000 0.000000
    2 0.000005 3.345128 -2.981901 1.745363 0.086257 1.571335
    3 4.018332 0.000000 0.000000 0.000000 0.000000 -0.029242
    4 3.518567 0.000000 0.000000 0.000000 0.000000 0.100336
    5 8.942642 0.000000 0.000000 0.000000 0.000000 0.194096
    6 2.033347 1.000767 1.937660 1.596637 -1.286515 2.942961
    7 6.028141 0.000001 0.000000 -0.472883 -1.389114 -1.932817
    8 11.692556 0.000000 0.000001 0.000000 0.000000 -0.415920
    9 11.481672 0.000000 -0.000031 1.288468 -0.007061 0.251861
    10 3.820721 -1.405028 0.601078 1.564288 0.003442 -1.581444
    11 6.114854 -1.434045 1.934793 1.564288 0.003442 -1.581444
    12 0.051127 3.122170 -0.141701 0.000000 0.000000 1.570796
    13 -0.000001 1.537870 -5.938447 0.000000 1.570796 0.000000
    14 0.027345 1.595740 0.020758 0.000000 0.000000 0.000000
    15 -0.000001 1.225114 3.954165 0.000000 0.000000 0.000000
    16 2.033355 1.000771 -1.937610 -1.668474 1.286518 2.942953
    17 6.028143 0.000000 0.000000 2.501670 1.317059 0.173348
    18 11.692550 0.000000 0.000001 0.000000 0.000000 -0.317772
    19 11.481699 0.000000 0.000003 -1.289011 0.008802 0.195428
    20 6.114873 -1.450003 -1.922835 -1.564198 -0.011689 -1.581440
    21 0.051129 3.122169 0.141701 0.000000 0.000000 1.570796
    22 0.000001 1.537870 5.938447 0.000000 -1.570796 0.000000
    23 0.000000 1.607459 -0.020758 -0.000084 0.000048 0.008245
    24 0.000000 1.225114 -3.954162 0.000000 0.000000 0.000000
    25 3.820735 -1.409995 -0.589408 -1.564198 -0.011689 -1.581440
    26 3.859704 -0.142406 -1.191974 -0.432212 0.155857 -0.861358
    27 1.312562 0.000000 0.000001 0.000000 0.000005 -1.191973
    28 0.729363 0.000000 0.000000 0.000000 0.000009 -1.063371
    29 3.942326 0.046772 -0.431443 -0.232410 -0.000605 -0.853325
    30 1.539094 0.000000 0.000000 0.000000 0.000002 -0.973398
    31 1.196323 0.000000 0.000000 0.000000 0.000002 -1.451290
    32 3.883687 -0.046769 0.431443 -0.066985 -0.050233 -0.694793
    33 1.719576 -0.000001 0.000000 0.000000 0.000003 -1.251021
    34 1.209181 -0.000001 0.000000 0.000000 0.000004 -1.141154
    35 3.859859 -0.137948 1.332466 0.311964 -0.262344 -0.078706
    36 1.719429 -0.000001 0.000000 0.000000 -0.036194 -0.662944
    37 1.099665 0.000000 0.000000 -0.025575 -0.041759 -1.021018
    38 0.806046 -0.348923 1.321258 -1.349678 -0.343508 -0.771484
    39 1.789784 0.000000 0.000001 0.000000 0.063403 0.390219
    40 1.206999 0.000000 0.000000 -0.024449 0.037705 0.990519
    41 3.859672 -0.132568 1.193108 0.432220 -0.155872 -0.861364
    42 1.312563 0.000001 0.000000 0.000000 -0.000007 -1.191994
    43 0.729365 0.000000 0.000000 0.000000 -0.000010 -1.063390
    44 3.942296 0.050325 0.431043 0.232419 0.000608 -0.853326
    45 1.539096 -0.000001 0.000000 0.000000 -0.000006 -0.973387
    46 1.196322 0.000002 0.000000 0.000000 -0.000003 -1.451278
    47 3.883656 -0.050329 -0.431043 0.066982 0.050237 -0.694789
    48 1.719576 -0.000001 0.000000 0.000000 -0.000004 -1.251031
    49 1.209180 -0.000002 0.000000 0.000000 -0.000003 -1.141144
    50 3.859828 -0.148936 -1.331282 -0.248859 0.263122 -0.072134
    51 1.719426 0.000001 0.000000 0.000000 -0.000009 -0.676743
    52 1.099666 0.000001 0.000000 0.000000 -0.000004 -1.021279
    53 0.806018 -0.359836 -1.318334 1.349675 0.343506 -0.771465
    54 1.789783 0.000001 -0.000001 0.000000 -0.000009 0.397490
    55 1.207001 0.000000 0.000001 0.000000 -0.000006 0.989014
  time 5
    0 0.000000 0.000000 -65.998108 1.570796 0.000000 0.000000
    1 -0.000005 38.566917 0.533613 0.000000 0.000000 0.000000
    2 0.000005 3.345128 -2.981901 1.745363 0.086257 1.571335
    3 4.018332 0.000000 0.000000 0.000000 0.000000 -0.029242
    4 3.518567 0.000000 0.000000 0.000000 0.000000 0.100336
    5 8.942642 0.000000 0.000000 0.000000 0.000000 0.194096
    6 2.033347 1.000767 1.937660 1.596637 -1.286515 2.942961
    7 6.028141 0.000001 0.000000 -0.390150 -1.396039 -2.016838
    8 11.692556 0.000000 0.000001 0.000000 0.000000 -0.382470
    9 11.481672 0.000000 -0.000031 1.288144 -0.006671 0.302882
    10 3.820721 -1.405028 0.601078 1.564288 0.003442 -1.581444
    11 6.114854 -1.434045 1.934793 1.564288 0.003442 -1.581444
    12 0.051127 3.122170 -0.141701 0.000000 0.000000 1.570796
    13 -0.000001 1.537870 -5.938447 0.000000 1.570796 0.000000
    14 0.027345 1.595740 0.020758 0.000000 0.000000 0.000000
    15 -0.000001 1.225114 3.954165 0.000000 0.000000 0.000000
    16 2.033355 1.000771 -1.937610 -1.668474 1.286518 2.942953
    17 6.028143 0.000000 0.000000 2.500400 1.317019 0.171937
    18 11.692550 0.000000 0.000001 0.000000 0.000000 -0.317906
    19 11.481699 0.000000 0.000003 -1.288902 0.007856 0.200887
    20 6.114873 -1.450003 -1.922835 -1.564198 -0.011689 -1.581440
    21 0.051129 3.122169 0.141701 0.000000 0.000000 1.570796
    22 0.000001 1.537870 5.938447 0.000000 -1.570796 0.000000
    23 0.000000 1.607459 -0.020758 -0.000084 0.000048 0.008245
    24 0.000000 1.225114 -3.954162 0.000000 0.000000 0.000000
    25 3.820735 -1.409995 -0.589408 -1.564198 -0.011689 -1.581440
    26 3.859704 -0.142406 -1.191974 -0.432212 0.155857 -0.861358
    27 1.312562 0.000000 0.000001 0.000000 0.000005 -1.191973
    28 0.729363 0.000000 0.000000 0.000000 0.000009 -1.063371
    29 3.942326 0.046772 -0.431443 -0.232410 -0.000605 -0.853325
    30 1.539094 0.000000 0.000000 0.000000 0.000002 -0.973398
    31 1.196323 0.000000 0.000000 0.000000 0.000002 -1.451290
    32 3.883687 -0.046769 0.431443 -0.066985 -0.050233 -0.694793
    33 1.719576 -0.000001 0.000000 0.000000 0.000003 -1.251021
    34 1.209181 -0.000001 0.000000 0.000000 0.000004 -1.141154
    35 3.859859 -0.137948 1.332466 0.311964 -0.262344 -0.078706
    36 1.719429 -0.000001 0.000000 0.000000 -0.036194 -0.662944
    37 1.099665 0.000000 0.000000 -0.025575 -0.041759 -1.021018
    38 0.806046 -0.348923 1.321258 -1.349678 -0.343508 -0.771484
    39 1.789784 0.000000 0.000001 0.000000 0.063403 0.390219
    40 1.206999 0.000000 0.000000 -0.024449 0.037705 0.990519
    41 3.859672 -0.132568 1.193108 0.432220 -0.155872 -0.861364
    42 1.312563 0.000001 0.000000 0.000000 -0.000007 -1.191994
    43 0.729365 0.000000 0.000000 0.000000 -0.000010 -1.063390
    44 3.942296 0.050325 0.431043 0.232419 0.000608 -0.853326
    45 1.539096 -0.000001 0.000000 0.000000 -0.000006 -0.973387
    46 1.196322 0.000002 0.000000 0.000000 -0.000003 -1.451278
    47 3.883656 -0.050329 -0.431043 0.066982 0.050237 -0.694789
    48 1.719576 -0.000001 0.000000 0.000000 -0.000004 -1.251031
    49 1.209180 -0.000002 0.000000 0.000000 -0.000003 -1.141144
    50 3.859828 -0.148936 -1.331282 -0.248859 0.263122 -0.072134
    51 1.719426 0.000001 0.000000 0.000000 -0.000009 -0.676743
    52 1.099666 0.000001 0.000000 0.000000 -0.000004 -1.021279
    53 0.806018 -0.359836 -1.318334 1.349675 0.343506 -0.771465
    54 1.789783 0.000001 -0.000001 0.000000 -0.000009 0.397490
    55 1.207001 0.000000 0.000001 0.000000 -0.000006 0.989014
  time 6
    0 0.000000 0.000000 -65.998108 1.570796 0.000000 0.000000
    1 -0.000005 38.566917 0.533613 0.000000 0.000000 0.000000
    2 0.000005 3.345128 -2.981901 1.745363 0.086257 1.571335
    3 4.018332 0.000000 0.000000 0.000000 0.000000 -0.029242
    4 3.518567 0.000000 0.000000 0.000000 0.000000 0.100336
    5 8.942642 0.000000 0.000000 0.000000 0.000000 0.194096
    6 2.033347 1.000767 1.937660 1.596637 -1.286515 2.942961
    7 6.028141 0.000001 0.000000 -0.331741 -1.399901 -2.076087
    8 11.692556 0.000000 0.000001 0.000000 0.000000 -0.360277
    9 11.481672 0.000000 -0.000031 1.288036 -0.006568 0.316304
    10 3.820721 -1.405028 0.601078 1.564288 0.003442 -1.581444
    11 6.114854 -1.434045 1.934793 1.564288 0.003442 -1.581444
    12 0.051127 3.122170 -0.141701 0.000000 0.000000 1.570796
    13 -0.000001 1.537870 -5.938447 0.000000 1.570796 0.000000
    14 0.027345 1.595740 0.020758 0.000000 0.000000 0.000000
    15 -0.000001 1.225114 3.954165 0.000000 0.000000 0.000000
    16 2.033355 1.000771 -1.937610 -1.668474 1.286518 2.942953
    17 6.028143 0.000000 0.000000 2.501316 1.317059 0.172951
    18 11.692550 0.000000 0.000001 0.000000 0.000000 -0.317839
    19 11.481699 0.000000 0.000003 -1.288792 0.006869 0.206273
    20 6.114873 -1.450003 -1.922835 -1.564198 -0.011689 -1.581440
    21 0.051129 3.122169 0.141701 0.000000 0.000000 1.570796
    22 0.000001 1.537870 5.938447 0.000000 -1.570796 0.000000
    23 0.000000 1.607459 -0.020758 -0.000084 0.000048 0.008245
    24 0.000000 1.225114 -3.954162 0.000000 0.000000 0.000000
    25 3.820735 -1.409995 -0.589408 -1.564198 -0.011689 -1.581440
    26 3.859704 -0.142406 -1.191974 -0.432212 0.155857 -0.861358
    27 1.312562 0.000000 0.000001 0.000000 0.000005 -1.191996
    28 0.729363 0.000000 0.000000 0.000000 0.000009 -1.063371
    29 3.942326 0.046772 -0.431443 -0.232410 -0.000605 -0.853325
    30 1.539094 0.000000 0.000000 0.000000 0.000002 -0.973398
    31 1.196323 0.000000 0.000000 0.000000 0.000002 -1.451290
    32 3.883687 -0.046769 0.431443 -0.066985 -0.050233 -0.694793
    33 1.719576 -0.000001 0.000000 0.000000 0.000003 -1.251021
    34 1.209181 -0.000001 0.000000 0.000000 0.000004 -1.141154
    35 3.859859 -0.137948 1.332466 0.311964 -0.262344 -0.078706
    36 1.719429 -0.000001 0.000000 0.000000 -0.036194 -0.662944
    37 1.099665 0.000000 0.000000 -0.025575 -0.041759 -1.021018
    38 0.806046 -0.348923 1.321258 -1.349678 -0.343508 -0.771484
    39 1.789784 0.000000 0.000001 0.000000 0.063403 0.390219
    40 1.206999 0.000000 0.000000 -0.024449 0.037705 0.990519
    41 3.859672 -0.132568 1.193108 0.432220 -0.155872 -0.861364
    42 1.312563 0.000001 0.000000 0.000000 -0.000007 -1.191994
    43 0.729365 0.000000 0.000000 0.000000 -0.000010 -1.063390
    44 3.942296 0.050325 0.431043 0.232419 0.000608 -0.853326
    45 1.539096 -0.000001 0.000000 0.000000 -0.000006 -0.973387
    46 1.196322 0.000002 0.000000 0.000000 -0.000003 -1.451278
    47 3.883656 -0.050329 -0.431043 0.066982 0.050237 -0.694789
    48 1.719576 -0.000001 0.000000 0.000000 -0.000004 -1.251031
    49 1.209180 -0.000002 0.000000 0.000000 -0.000003 -1.141144
    50 3.859828 -0.148936 -1.331282 -0.248859 0.263122 -0.072134
    51 1.719426 0.000001 0.000000 0.000000 -0.000009 -0.676743
    52 1.099666 0.000001 0.000000 0.000000 -0.000004 -1.021279
    53 0.806018 -0.359836 -1.318334 1.349675 0.343506 -0.771465
    54 1.789783 0.000001 -0.000001 0.000000 -0.000009 0.397490
    55 1.207001 0.000000 0.000001 0.000000 -0.000006 0.989014
  time 7
    0 0.000000 0.000000 -65.998108 1.570796 0.000000 0.000000
    1 -0.000005 38.566917 0.533613 0.000000 0.000000 0.000000
    2 0.000005 3.345128 -2.981901 1.745363 0.086257 1.571335
    3 4.018332 0.000000 0.000000 0.000000 0.000000 -0.029242
    4 3.518567 0.000000 0.000000 0.000000 0.000000 0.100336
    5 8.942642 0.000000 0.000000 0.000000 0.000000 0.194096
    6 2.033347 1.000767 1.937660 1.596637 -1.286515 2.942961
    7 6.028141 0.000001 0.000000 -0.286650 -1.402386 -2.121817
    8 11.692556 0.000000 0.000001 0.000000 0.000000 -0.343736
    9 11.481672 0.000000 -0.000031 1.288333 -0.006897 0.272986
    10 3.820721 -1.405028 0.601078 1.564288 0.003442 -1.581444
    11 6.114854 -1.434045 1.934793 1.564288 0.003442 -1.581444
    12 0.051127 3.122170 -0.141701 0.000000 0.000000 1.570796
    13 -0.000001 1.537870 -5.938447 0.000000 1.570796 0.000000
    14 0.027345 1.595740 0.020758 0.000000 0.000000 0.000000
    15 -0.000001 1.225114 3.954165 0.000000 0.000000 0.000000
    16 2.033355 1.000771 -1.937610 -1.668474 1.286518 2.942953
    17 6.028143 0.000000 0.000000 2.503531 1.317141 0.175464
    18 11.692550 0.000000 0.000001 0.000000 0.000000 -0.317570
    19 11.481699 0.000000 0.000003 -1.288720 0.006293 0.209308
    20 6.114873 -1.450003 -1.922835 -1.564198 -0.011689 -1.581440
    21 0.051129 3.122169 0.141701 0.000000 0.000000 1.570796
    22 0.000001 1.537870 5.938447 0.000000 -1.570796 0.000000
    23 0.000000 1.607459 -0.020758 -0.000084 0.000048 0.008245
    24 0.000000 1.225114 -3.954162 0.000000 0.000000 0.000000
    25 3.820735 -1.409995 -0.589408 -1.564198 -0.011689 -1.581440
    26 3.859704 -0.142406 -1.191974 -0.432212 0.155857 -0.861358
    27 1.312562 0.000000 0.000001 0.000000 0.000005 -1.191973
    28 0.729363 0.000000 0.000000 0.000000 0.000009 -1.063371
    29 3.942326 0.046772 -0.431443 -0.232410 -0.000605 -0.853325
    30 1.539094 0.000000 0.000000 0.000000 0.000002 -0.973398
    31 1.196323 0.000000 0.000000 0.000000 0.000002 -1.451290
    32 3.883687 -0.046769 0.431443 -0.066985 -0.050233 -0.694793
    33 1.719576 -0.000001 0.000000 0.000000 0.000003 -1.251021
    34 1.209181 -0.000001 0.000000 0.000000 0.000004 -1.141154
    35 3.859859 -0.137948 1.332466 0.311964 -0.262344 -0.078706
    36 1.719429 -0.000001 0.000000 0.000000 -0.036194 -0.662944
    37 1.099665 0.000000 0.000000 -0.025575 -0.041759 -1.021018
    38 0.806046 -0.348923 1.321258 -1.349678 -0.343508 -0.771484
    39 1.789784 0.000000 0.000001 0.000000 0.063403 0.390219
    40 1.206999 0.000000 0.000000 -0.024449 0.037705 0.990519
    41 3.859672 -0.132568 1.193108 0.432220 -0.155872 -0.861364
    42 1.312563 0.000001 0.000000 0.000000 -0.000007 -1.191994
    43 0.729365 0.000000 0.000000 0.000000 -0.000010 -1.063390
    44 3.942296 0.050325 0.431043 0.232419 0.000608 -0.853326
    45 1.539096 -0.000001 0.000000 0.000000 -0.000006 -0.973387
    46 1.196322 0.000002 0.000000 0.000000 -0.000003 -1.451278
    47 3.883656 -0.050329 -0.431043 0.066982 0.050237 -0.694789
    48 1.719576 -0.000001 0.000000 0.000000 -0.000004 -1.251031
    49 1.209180 -0.000002 0.000000 0.000000 -0.000003 -1.141144
    50 3.859828 -0.148936 -1.331282 -0.248859 0.263122 -0.072134
    51 1.719426 0.000001 0.000000 0.000000 -0.000009 -0.676743
    52 1.099666 0.000001 0.000000 0.000000 -0.000004 -1.021279
    53 0.806018 -0.359836 -1.318334 1.349675 0.343506 -0.771465
    54 1.789783 0.000001 -0.000001 0.000000 -0.000009 0.397490
    55 1.207001 0.000000 0.000001 0.000000 -0.000006 0.989014
  time 8
    0 0.000000 0.000000 -65.998108 1.570796 0.000000 0.000000
    1 -0.000005 38.566917 0.533613 0.000000 0.000000 0.000000
    2 0.000005 3.345128 -2.981901 1.745363 0.086257 1.571335
    3 4.018332 0.000000 0.000000 0.000000 0.000000 -0.029242
    4 3.518567 0.000000 0.000000 0.000000 0.000000 0.100336
    5 8.942642 0.000000 0.000000 0.000000 0.000000 0.194096
    6 2.033347 1.000767 1.937660 1.596637 -1.286515 2.942961
    7 6.028141 0.000001 0.000000 -0.252056 -1.404029 -2.156874
    8 11.692556 0.000000 0.000001 0.000000 0.000000 -0.331375
    9 11.481672 0.000000 -0.000031 1.288630 -0.007205 0.232421
    10 3.820721 -1.405028 0.601078 1.564288 0.003442 -1.581444
    11 6.114854 -1.434045 1.934793 1.564288 0.003442 -1.581444
    12 0.051127 3.122170 -0.141701 0.000000 0.000000 1.570796
    13 -0.000001 1.537870 -5.938447 0.000000 1.570796 0.000000
    14 0.027345 1.595740 0.020758 0.000000 0.000000 0.000000
    15 -0.000001 1.225114 3.954165 0.000000 0.000000 0.000000
    16 2.033355 1.000771 -1.937610 -1.668474 1.286518 2.942953
    17 6.028143 0.000000 0.000000 2.506426 1.317263 0.178682
    18 11.692550 0.000000 0.000001 0.000000 0.000000 -0.317300
    19 11.481699 0.000000 0.000003 -1.288756 0.006334 0.208549
    20 6.114873 -1.450003 -1.922835 -1.564198 -0.011689 -1.581440
    21 0.051129 3.122169 0.141701 0.000000 0.000000 1.570796
    22 0.000001 1.537870 5.938447 0.000000 -1.570796 0.000000
    23 0.000000 1.607459 -0.020758 -0.000084 0.000048 0.008245
    24 0.000000 1.225114 -3.954162 0.000000 0.000000 0.000000
    25 3.820735 -1.409995 -0.589408 -1.564198 -0.011689 -1.581440
    26 3.859704 -0.142406 -1.191974 -0.432212 0.155857 -0.861358
    27 1.312562 0.000000 0.000001 0.000000 0.000005 -1.191996
    28 0.729363 0.000000 0.000000 0.000000 0.000009 -1.063371
    29 3.942326 0.046772 -0.431443 -0.232410 -0.000605 -0.853325
    30 1.539094 0.000000 0.000000 0.000000 0.000002 -0.973398
    31 1.196323 0.000000 0.000000 0.000000 0.000002 -1.451290
    32 3.883687 -0.046769 0.431443 -0.066985 -0.050233 -0.694793
    33 1.719576 -0.000001 0.000000 0.000000 0.000003 -1.251021
    34 1.209181 -0.000001 0.000000 0.000000 0.000004 -1.141154
    35 3.859859 -0.137948 1.332466 0.311964 -0.262344 -0.078706
    36 1.719429 -0.000001 0.000000 0.000000 -0.036194 -0.662944
    37 1.099665 0.000000 0.000000 -0.025575 -0.041759 -1.021018
    38 0.806046 -0.348923 1.321258 -1.349678 -0.343508 -0.771484
    39 1.789784 0.000000 0.000001 0.000000 0.063403 0.390219
    40 1.206999 0.000000 0.000000 -0.024449 0.037705 0.990519
    41 3.859672 -0.132568 1.193108 0.432220 -0.155872 -0.861364
    42 1.312563 0.000001 0.000000 0.000000 -0.000007 -1.191994
    43 0.729365 0.000000 0.000000 0.000000 -0.000010 -1.063390
    44 3.942296 0.050325 0.431043 0.232419 0.000608 -0.853326
    45 1.539096 -0.000001 0.000000 0.000000 -0.000006 -0.973387
    46 1.196322 0.000002 0.000000 0.000000 -0.000003 -1.451278
    47 3.883656 -0.050329 -0.431043 0.066982 0.050237 -0.694789
    48 1.719576 -0.000001 0.000000 0.000000 -0.000004 -1.251031
    49 1.209180 -0.000002 0.000000 0.000000 -0.000003 -1.141144
    50 3.859828 -0.148936 -1.331282 -0.248859 0.263122 -0.072134
    51 1.719426 0.000001 0.000000 0.000000 -0.000009 -0.676743
    52 1.099666 0.000001 0.000000 0.000000 -0.000004 -1.021279
    53 0.806018 -0.359836 -1.318334 1.349675 0.343506 -0.771465
    54 1.789783 0.000001 -0.000001 0.000000 -0.000009 0.397490
    55 1.207001 0.000000 0.000001 0.000000 -0.000006 0.989014
  time 9
    0 0.000000 0.000000 -65.998108 1.570796 0.000000 0.000000
    1 -0.000005 38.566917 0.533613 0.000000 0.000000 0.000000
    2 0.000005 3.345128 -2.981901 1.745363 0.086257 1.571335
    3 4.018332 0.000000 0.000000 0.000000 0.000000 -0.029242
    4 3.518567 0.000000 0.000000 0.000000 0.000000 0.100336
    5 8.942642 0.000000 0.000000 0.000000 0.000000 0.194096
    6 2.033347 1.000767 1.937660 1.596637 -1.286515 2.942961
    7 6.028141 0.000001 0.000000 -0.227169 -1.405050 -2.182100
    8 11.692556 0.000000 0.000001 0.000000 0.000000 -0.322645
    9 11.481672 0.000000 -0.000031 1.288765 -0.007349 0.210741
    10 3.820721 -1.405028 0.601078 1.564288 0.003442 -1.581444
    11 6.114854 -1.434045 1.934793 1.564288 0.003442 -1.581444
    12 0.051127 3.122170 -0.141701 0.000000 0.000000 1.570796
    13 -0.000001 1.537870 -5.938447 0.000000 1.570796 0.000000
    14 0.027345 1.595740 0.020758 0.000000 0.000000 0.000000
    15 -0.000001 1.225114 3.954165 0.000000 0.000000 0.000000
    16 2.033355 1.000771 -1.937610 -1.668474 1.286518 2.942953
    17 6.028143 0.000000 0.000000 2.509350 1.317344 0.181989
    18 11.692550 0.000000 0.000001 0.000000 0.000000 -0.316964
    19 11.481699 0.000000 0.000003 -1.288792 0.006746 0.205514
    20 6.114873 -1.450003 -1.922835 -1.564198 -0.011689 -1.581440
    21 0.051129 3.122169 0.141701 0.000000 0.000000 1.570796
    22 0.000001 1.537870 5.938447 0.000000 -1.570796 0.000000
    23 0.000000 1.607459 -0.020758 -0.000084 0.000048 0.008245
    24 0.000000 1.225114 -3.954162 0.000000 0.000000 0.000000
    25 3.820735 -1.409995 -0.589408 -1.564198 -0.011689 -1.581440
    26 3.859704 -0.142406 -1.191974 -0.432212 0.155857 -0.861358
    27 1.312562 0.000000 0.000001 0.000000 0.000005 -1.191973
    28 0.729363 0.000000 0.000000 0.000000 0.000009 -1.063371
    29 3.942326 0.046772 -0.431443 -0.232410 -0.000605 -0.853325
    30 1.539094 0.000000 0.000000 0.000000 0.000002 -0.973398
    31 1.196323 0.000000 0.000000 0.000000 0.000002 -1.451290
    32 3.883687 -0.046769 0.431443 -0.066985 -0.050233 -0.694793
    33 1.719576 -0.000001 0.000000 0.000000 0.000003 -1.251021
    34 1.209181 -0.000001 0.000000 0.000000 0.000004 -1.141154
    35 3.859859 -0.137948 1.332466 0.311964 -0.262344 -0.078706
    36 1.719429 -0.000001 0.000000 0.000000 -0.036194 -0.662944
    37 1.099665 0.000000 0.000000 -0.025575 -0.041759 -1.021018
    38 0.806046 -0.348923 1.321258 -1.349678 -0.343508 -0.771484
    39 1.789784 0.000000 0.000001 0.000000 0.063403 0.390219
    40 1.206999 0.000000 0.000000 -0.024449 0.037705 0.990519
    41 3.859672 -0.132568 1.193108 0.432220 -0.155872 -0.861364
    42 1.312563 0.000001 0.000000 0.000000 -0.000007 -1.191994
    43 0.729365 0.000000 0.000000 0.000000 -0.000010 -1.063390
    44 3.942296 0.050325 0.431043 0.232419 0.000608 -0.853326
    45 1.539096 -0.000001 0.000000 0.000000 -0.000006 -0.973387
    46 1.196322 0.000002 0.000000 0.000000 -0.000003 -1.451278
    47 3.883656 -0.050329 -0.431043 0.066982 0.050237 -0.694789
    48 1.719576 -0.000001 0.000000 0.000000 -0.000004 -1.251031
    49 1.209180 -0.000002 0.000000 0.000000 -0.000003 -1.141144
    50 3.859828 -0.148936 -1.331282 -0.248859 0.263122 -0.072134
    51 1.719426 0.000001 0.000000 0.000000 -0.000009 -0.676743
    52 1.099666 0.000001 0.000000 0.000000 -0.000004 -1.021279
    53 0.806018 -0.359836 -1.318334 1.349675 0.343506 -0.771465
    54 1.789783 0.000001 -0.000001 0.000000 -0.000009 0.397490
    55 1.207001 0.000000 0.000001 0.000000 -0.000006 0.989014
  time 10
    0 0.000000 0.000000 -65.998108 1.570796 0.000000 0.000000
    1 -0.000005 38.566917 0.533613 0.000000 0.000000 0.000000
    2 0.000005 3.345128 -2.981901 1.745363 0.086257 1.571335
    3 4.018332 0.000000 0.000000 0.000000 0.000000 -0.029242
    4 3.518567 0.000000 0.000000 0.000000 0.000000 0.100336
    5 8.942642 0.000000 0.000000 0.000000 0.000000 0.194096
    6 2.033347 1.000767 1.937660 1.596637 -1.286515 2.942961
    7 6.028141 0.000001 0.000000 -0.212496 -1.405582 -2.196977
    8 11.692556 0.000000 0.000001 0.000000 0.000000 -0.317545
    9 11.481672 0.000000 -0.000031 1.288846 -0.007432 0.201096
    10 3.820721 -1.405028 0.601078 1.564288 0.003442 -1.581444
    11 6.114854 -1.434045 1.934793 1.564288 0.003442 -1.581444
    12 0.051127 3.122170 -0.141701 0.000000 0.000000 1.570796
    13 -0.000001 1.537870 -5.938447 0.000000 1.570796 0.000000
    14 0.027345 1.595740 0.020758 0.000000 0.000000 0.000000
    15 -0.000001 1.225114 3.954165 0.000000 0.000000 0.000000
    16 2.033355 1.000771 -1.937610 -1.668474 1.286518 2.942953
    17 6.028143 0.000000 0.000000 2.511596 1.317426 0.184502
    18 11.692550 0.000000 0.000001 0.000000 0.000000 -0.316694
    19 11.481699 0.000000 0.000003 -1.288829 0.007198 0.202233
    20 6.114873 -1.450003 -1.922835 -1.564198 -0.011689 -1.581440
    21 0.051129 3.122169 0.141701 0.000000 0.000000 1.570796
    22 0.000001 1.537870 5.938447 0.000000 -1.570796 0.000000
    23 0.000000 1.607459 -0.020758 -0.000084 0.000048 0.008245
    24 0.000000 1.225114 -3.954162 0.000000 0.000000 0.000000
    25 3.820735 -1.409995 -0.589408 -1.564198 -0.011689 -1.581440
    26 3.859704 -0.142406 -1.191974 -0.432212 0.155857 -0.861358
    27 1.312562 0.000000 0.000001 0.000000 0.000005 -1.191973
    28 0.729363 0.000000 0.000000 0.000000 0.000009 -1.063371
    29 3.942326 0.046772 -0.431443 -0.232410 -0.000605 -0.853325
    30 1.539094 0.000000 0.000000 0.000000 0.000002 -0.973398
    31 1.196323 0.000000 0.000000 0.000000 0.000002 -1.451290
    32 3.883687 -0.046769 0.431443 -0.066985 -0.050233 -0.694793
    33 1.719576 -0.000001 0.000000 0.000000 0.000003 -1.251021
    34 1.209181 -0.000001 0.000000 0.000000 0.000004 -1.141154
    35 3.859859 -0.137948 1.332466 0.311964 -0.262344 -0.078706
    36 1.719429 -0.000001 0.000000 0.000000 -0.036194 -0.662944
    37 1.099665 0.000000 0.000000 -0.025575 -0.041759 -1.021018
    38 0.806046 -0.348923 1.321258 -1.349678 -0.343508 -0.771484
    39 1.789784 0.000000 0.000001 0.000000 0.063403 0.390219
    40 1.206999 0.000000 0.000000 -0.024449 0.037705 0.990519
    41 3.859672 -0.132568 1.193108 0.432220 -0.155872 -0.861364
    42 1.312563 0.000001 0.000000 0.000000 -0.000007 -1.191994
    43 0.729365 0.000000 0.000000 0.000000 -0.000010 -1.063390
    44 3.942296 0.050325 0.431043 0.232419 0.000608 -0.853326
    45 1.539096 -0.000001 0.000000 0.000000 -0.000006 -0.973387
    46 1.196322 0.000002 0.000000 0.000000 -0.000003 -1.451278
    47 3.883656 -0.050329 -0.431043 0.066982 0.050237 -0.694789
    48 1.719576 -0.000001 0.000000 0.000000 -0.000004 -1.251031
    49 1.209180 -0.000002 0.000000 0.000000 -0.000003 -1.141144
    50 3.859828 -0.148936 -1.331282 -0.248859 0.263122 -0.072134
    51 1.719426 0.000001 0.000000 0.000000 -0.000009 -0.676743
    52 1.099666 0.000001 0.000000 0.000000 -0.000004 -1.021279
    53 0.806018 -0.359836 -1.318334 1.349675 0.343506 -0.771465
    54 1.789783 0.000001 -0.000001 0.000000 -0.000009 0.397490
    55 1.207001 0.000000 0.000001 0.000000 -0.000006 0.989014
  time 11
    0 0.000000 0.000000 -65.998108 1.570796 0.000000 0.000000
    1 -0.000005 38.566917 0.533613 0.000000 0.000000 0.000000
    2 0.000005 3.345128 -2.981901 1.745363 0.086257 1.571335
    3 4.018332 0.000000 0.000000 0.000000 0.000000 -0.029242
    4 3.518567 0.000000 0.000000 0.000000 0.000000 0.100336
    5 8.942642 0.000000 0.000000 0.000000 0.000000 0.194096
    6 2.033347 1.000767 1.937660 1.596637 -1.286515 2.942961
    7 6.028141 0.000001 0.000000 -0.209900 -1.405715 -2.199629
    8 11.692556 0.000000 0.000001 0.000000 0.000000 -0.316626
    9 11.481672 0.000000 -0.000031 1.288846 -0.007432 0.200691
    10 3.820721 -1.405028 0.601078 1.564288 0.003442 -1.581444
    11 6.114854 -1.434045 1.934793 1.564288 0.003442 -1.581444
    12 0.051127 3.122170 -0.141701 0.000000 0.000000 1.570796
    13 -0.000001 1.537870 -5.938447 0.000000 1.570796 0.000000
    14 0.027345 1.595740 0.020758 0.000000 0.000000 0.000000
    15 -0.000001 1.225114 3.954165 0.000000 0.000000 0.000000
    16 2.033355 1.000771 -1.937610 -1.668474 1.286518 2.942953
    17 6.028143 0.000000 0.000000 2.512511 1.317467 0.185516
    18 11.692550 0.000000 0.000001 0.000000 0.000000 -0.316627
    19 11.481699 0.000000 0.000003 -1.288865 0.007424 0.200691
    20 6.114873 -1.450003 -1.922835 -1.564198 -0.011689 -1.581440
    21 0.051129 3.122169 0.141701 0.000000 0.000000 1.570796
    22 0.000001 1.537870 5.938447 0.000000 -1.570796 0.000000
    23 0.000000 1.607459 -0.020758 -0.000084 0.000048 0.008245
    24 0.000000 1.225114 -3.954162 0.000000 0.000000 0.000000
    25 3.820735 -1.409995 -0.589408 -1.564198 -0.011689 -1.581440
    26 3.859704 -0.142406 -1.191974 -0.432212 0.155857 -0.861358
    27 1.312562 0.000000 0.000001 0.000000 0.000005 -1.191973
    28 0.729363 0.000000 0.000000 0.000000 0.000009 -1.063371
    29 3.942326 0.046772 -0.431443 -0.232410 -0.000605 -0.853325
    30 1.539094 0.000000 0.000000 0.000000 0.000002 -0.973398
    31 1.196323 0.000000 0.000000 0.000000 0.000002 -1.451290
    32 3.883687 -0.046769 0.431443 -0.066985 -0.050233 -0.694793
    33 1.719576 -0.000001 0.000000 0.000000 0.000003 -1.251021
    34 1.209181 -0.000001 0.000000 0.000000 0.000004 -1.141154
    35 3.859859 -0.137948 1.332466 0.311964 -0.262344 -0.078706
    36 1.719429 -0.000001 0.000000 0.000000 -0.036194 -0.662944
    37 1.099665 0.000000 0.000000 -0.025575 -0.041759 -1.021018
    38 0.806046 -0.348923 1.321258 -1.349678 -0.343508 -0.771484
    39 1.789784 0.000000 0.000001 0.000000 0.063403 0.390219
    40 1.206999 0.000000 0.000000 -0.024449 0.037705 0.990519
    41 3.859672 -0.132568 1.193108 0.432220 -0.155872 -0.861364
    42 1.312563 0.000001 0.000000 0.000000 -0.000007 -1.191994
    43 0.729365 0.000000 0.000000 0.000000 -0.000010 -1.063390
    44 3.942296 0.050325 0.431043 0.232419 0.000608 -0.853326
    45 1.539096 -0.000001 0.000000 0.000000 -0.000006 -0.973387
    46 1.196322 0.000002 0.000000 0.000000 -0.000003 -1.451278
    47 3.883656 -0.050329 -0.431043 0.066982 0.050237 -0.694789
    48 1.719576 -0.000001 0.000000 0.000000 -0.000004 -1.251031
    49 1.209180 -0.000002 0.000000 0.000000 -0.000003 -1.141144
    50 3.859828 -0.148936 -1.331282 -0.248859 0.263122 -0.072134
    51 1.719426 0.000001 0.000000 0.000000 -0.000009 -0.676743
    52 1.099666 0.000001 0.000000 0.000000 -0.000004 -1.021279
    53 0.806018 -0.359836 -1.318334 1.349675 0.343506 -0.771465
    54 1.789783 0.000001 -0.000001 0.000000 -0.000009 0.397490
    55 1.207001 0.000000 0.000001 0.000000 -0.000006 0.989014
end
