// Created by Crowbar 0.74
version 1
nodes
  0 "ValveBiped" -1
  1 "ValveBiped.Bip01" 0
  2 "ValveBiped.Bip01_Spine" 1
  3 "ValveBiped.Bip01_Spine1" 2
  4 "ValveBiped.Bip01_Spine2" 3
  5 "ValveBiped.Bip01_Spine4" 4
  6 "ValveBiped.Bip01_L_Clavicle" 5
  7 "ValveBiped.Bip01_L_UpperArm" 6
  8 "ValveBiped.Bip01_L_Forearm" 7
  9 "ValveBiped.Bip01_L_Hand" 8
  10 "ValveBiped.clip1" 9
  11 "ValveBiped.base1" 9
  12 "ValveBiped.eject1" 11
  13 "ValveBiped.muzzle1" 11
  14 "ValveBiped.square1" 11
  15 "ValveBiped.hammer1" 11
  16 "ValveBiped.Bip01_R_Clavicle" 5
  17 "ValveBiped.Bip01_R_UpperArm" 16
  18 "ValveBiped.Bip01_R_Forearm" 17
  19 "ValveBiped.Bip01_R_Hand" 18
  20 "ValveBiped.base" 19
  21 "ValveBiped.eject" 20
  22 "ValveBiped.muzzle" 20
  23 "ValveBiped.square" 20
  24 "ValveBiped.hammer" 20
  25 "ValveBiped.clip" 19
  26 "ValveBiped.Bip01_L_Finger4" 9
  27 "ValveBiped.Bip01_L_Finger41" 26
  28 "ValveBiped.Bip01_L_Finger42" 27
  29 "ValveBiped.Bip01_L_Finger3" 9
  30 "ValveBiped.Bip01_L_Finger31" 29
  31 "ValveBiped.Bip01_L_Finger32" 30
  32 "ValveBiped.Bip01_L_Finger2" 9
  33 "ValveBiped.Bip01_L_Finger21" 32
  34 "ValveBiped.Bip01_L_Finger22" 33
  35 "ValveBiped.Bip01_L_Finger1" 9
  36 "ValveBiped.Bip01_L_Finger11" 35
  37 "ValveBiped.Bip01_L_Finger12" 36
  38 "ValveBiped.Bip01_L_Finger0" 9
  39 "ValveBiped.Bip01_L_Finger01" 38
  40 "ValveBiped.Bip01_L_Finger02" 39
  41 "ValveBiped.Bip01_R_Finger4" 19
  42 "ValveBiped.Bip01_R_Finger41" 41
  43 "ValveBiped.Bip01_R_Finger42" 42
  44 "ValveBiped.Bip01_R_Finger3" 19
  45 "ValveBiped.Bip01_R_Finger31" 44
  46 "ValveBiped.Bip01_R_Finger32" 45
  47 "ValveBiped.Bip01_R_Finger2" 19
  48 "ValveBiped.Bip01_R_Finger21" 47
  49 "ValveBiped.Bip01_R_Finger22" 48
  50 "ValveBiped.Bip01_R_Finger1" 19
  51 "ValveBiped.Bip01_R_Finger11" 50
  52 "ValveBiped.Bip01_R_Finger12" 51
  53 "ValveBiped.Bip01_R_Finger0" 19
  54 "ValveBiped.Bip01_R_Finger01" 53
  55 "ValveBiped.Bip01_R_Finger02" 54
end
skeleton
  time 0
    0 0.000000 0.000000 -65.998108 1.570796 0.000000 0.000000
    1 -0.000005 38.566917 0.533613 0.000000 0.000000 0.000000
    2 0.000005 3.345128 -2.981901 1.797736 0.086221 1.571491
    3 4.018332 0.000000 0.000000 0.000000 0.000000 -0.029242
    4 3.518567 0.000000 0.000000 0.000000 0.000000 0.100336
    5 8.942642 0.000000 0.000000 0.000000 0.000000 0.194096
    6 2.033347 1.000767 1.937660 1.596637 -1.286515 2.942961
    7 6.028141 0.000001 0.000000 -0.290206 -1.311924 -2.131778
    8 11.692556 0.000000 0.000001 0.000000 0.000000 -0.262177
    9 11.481672 0.000000 -0.000031 1.335322 0.112211 0.464543
    10 3.820721 -1.405028 0.601078 1.564288 0.003442 -1.581444
    11 6.114854 -1.434045 1.934793 1.564288 0.003442 -1.581444
    12 0.051127 3.122170 -0.141701 0.000000 0.000000 1.570796
    13 -0.000001 1.537870 -5.938447 0.000000 1.570796 0.000000
    14 0.027345 1.595740 0.001226 0.000000 0.000000 0.000000
    15 -0.000001 1.225114 3.954165 0.000000 0.000000 0.000000
    16 2.033355 1.000771 -1.937610 -1.668474 1.286518 2.942953
    17 6.028143 0.000000 0.000000 2.307768 1.269629 -0.045545
    18 11.692550 0.000000 0.000001 0.000000 0.000000 -0.262158
    19 11.481699 0.000000 0.000003 -1.335350 -0.112223 0.464533
    20 6.114873 -1.450003 -1.922835 -1.564198 -0.011689 -1.581440
    21 0.051129 3.122169 0.141701 0.000000 0.000000 1.570796
    22 0.000001 1.537870 5.938447 0.000000 -1.570796 0.000000
    23 0.000000 1.607459 -0.001227 -0.000084 0.000048 0.008245
    24 0.000000 1.225114 -3.954162 0.000000 0.000000 0.000000
    25 3.820735 -1.409995 -0.589408 -1.564198 -0.011689 -1.581440
    26 3.859704 -0.142406 -1.191974 -0.432212 0.155857 -0.861358
    27 1.312562 0.000000 0.000001 0.000000 0.000005 -1.191973
    28 0.729363 0.000000 0.000000 0.000000 0.000009 -1.063371
    29 3.942326 0.046772 -0.431443 -0.232410 -0.000605 -0.853325
    30 1.539094 0.000000 0.000000 0.000000 0.000002 -0.973398
    31 1.196323 0.000000 0.000000 0.000000 0.000002 -1.451290
    32 3.883687 -0.046769 0.431443 -0.066985 -0.050233 -0.694793
    33 1.719576 -0.000001 0.000000 0.000000 0.000003 -1.251021
    34 1.209181 -0.000001 0.000000 0.000000 0.000004 -1.141154
    35 3.859859 -0.137948 1.332466 0.311964 -0.262344 -0.078706
    36 1.719429 -0.000001 0.000000 0.000000 -0.036194 -0.662944
    37 1.099665 0.000000 0.000000 -0.025575 -0.041759 -1.021018
    38 0.806046 -0.348923 1.321258 -1.349678 -0.343508 -0.771484
    39 1.789784 0.000000 0.000001 0.000000 0.063403 0.390219
    40 1.206999 0.000000 0.000000 -0.024449 0.037705 0.990519
    41 3.859672 -0.132568 1.193108 0.432220 -0.155872 -0.861364
    42 1.312563 0.000001 0.000000 0.000000 -0.000007 -1.191994
    43 0.729365 0.000000 0.000000 0.000000 -0.000010 -1.063390
    44 3.942296 0.050325 0.431043 0.232419 0.000608 -0.853326
    45 1.539096 -0.000001 0.000000 0.000000 -0.000006 -0.973387
    46 1.196322 0.000002 0.000000 0.000000 -0.000003 -1.451278
    47 3.883656 -0.050329 -0.431043 0.066982 0.050237 -0.694789
    48 1.719576 -0.000001 0.000000 0.000000 -0.000004 -1.251031
    49 1.209180 -0.000002 0.000000 0.000000 -0.000003 -1.141144
    50 3.859828 -0.148936 -1.331282 -0.248859 0.263122 -0.072134
    51 1.719426 0.000001 0.000000 0.000000 -0.000009 -0.676743
    52 1.099666 0.000001 0.000000 0.000000 -0.000004 -1.021279
    53 0.806018 -0.359836 -1.318334 1.349675 0.343506 -0.771465
    54 1.789783 0.000001 -0.000001 0.000000 -0.000009 0.397490
    55 1.207001 0.000000 0.000001 0.000000 -0.000006 0.989014
  time 1
    0 0.000000 0.000000 -65.998108 1.570796 0.000000 0.000000
    1 -0.000005 38.566917 0.533613 0.000000 0.000000 0.000000
    2 0.000005 3.345128 -2.981901 1.795485 0.086221 1.571479
    3 4.018332 0.000000 0.000000 0.000000 0.000000 -0.029242
    4 3.518567 0.000000 0.000000 0.000000 0.000000 0.100336
    5 8.942642 0.000000 0.000000 0.000000 0.000000 0.194096
    6 2.033347 1.000767 1.937660 1.596637 -1.286515 2.942961
    7 6.028141 0.000001 0.000000 -0.294664 -1.314676 -2.127185
    8 11.692556 0.000000 0.000001 0.000000 0.000000 -0.265440
    9 11.481672 0.000000 -0.000031 1.334268 0.109682 0.462687
    10 3.820721 -1.405028 0.601078 1.564288 0.003442 -1.581444
    11 6.114854 -1.434045 1.934793 1.564288 0.003442 -1.581444
    12 0.051127 3.122170 -0.141701 0.000000 0.000000 1.570796
    13 -0.000001 1.537870 -5.938447 0.000000 1.570796 0.000000
    14 0.027345 1.595740 0.001226 0.000000 0.000000 0.000000
    15 -0.000001 1.225114 3.954165 0.000000 0.000000 0.000000
    16 2.033355 1.000771 -1.937610 -1.668474 1.286518 2.942953
    17 6.028143 0.000000 0.000000 2.309186 1.271177 -0.043825
    18 11.692550 0.000000 0.000001 0.000000 0.000000 -0.265457
    19 11.481699 0.000000 0.000003 -1.334295 -0.109673 0.462697
    20 6.114873 -1.450003 -1.922835 -1.564198 -0.011689 -1.581440
    21 0.051129 3.122169 0.141701 0.000000 0.000000 1.570796
    22 0.000001 1.537870 5.938447 0.000000 -1.570796 0.000000
    23 0.000000 1.607459 -0.001227 -0.000084 0.000048 0.008245
    24 0.000000 1.225114 -3.954162 0.000000 0.000000 0.000000
    25 3.820735 -1.409995 -0.589408 -1.564198 -0.011689 -1.581440
    26 3.859704 -0.142406 -1.191974 -0.432212 0.155857 -0.861358
    27 1.312562 0.000000 0.000001 0.000000 0.000005 -1.191973
    28 0.729363 0.000000 0.000000 0.000000 0.000009 -1.063371
    29 3.942326 0.046772 -0.431443 -0.232410 -0.000605 -0.853325
    30 1.539094 0.000000 0.000000 0.000000 0.000002 -0.973398
    31 1.196323 0.000000 0.000000 0.000000 0.000002 -1.451290
    32 3.883687 -0.046769 0.431443 -0.066985 -0.050233 -0.694793
    33 1.719576 -0.000001 0.000000 0.000000 0.000003 -1.251021
    34 1.209181 -0.000001 0.000000 0.000000 0.000004 -1.141154
    35 3.859859 -0.137948 1.332466 0.311964 -0.262344 -0.078706
    36 1.719429 -0.000001 0.000000 0.000000 -0.036194 -0.662944
    37 1.099665 0.000000 0.000000 -0.025575 -0.041759 -1.021018
    38 0.806046 -0.348923 1.321258 -1.349678 -0.343508 -0.771484
    39 1.789784 0.000000 0.000001 0.000000 0.063403 0.390219
    40 1.206999 0.000000 0.000000 -0.024449 0.037705 0.990519
    41 3.859672 -0.132568 1.193108 0.432220 -0.155872 -0.861364
    42 1.312563 0.000001 0.000000 0.000000 -0.000007 -1.191994
    43 0.729365 0.000000 0.000000 0.000000 -0.000010 -1.063390
    44 3.942296 0.050325 0.431043 0.232419 0.000608 -0.853326
    45 1.539096 -0.000001 0.000000 0.000000 -0.000006 -0.973387
    46 1.196322 0.000002 0.000000 0.000000 -0.000003 -1.451278
    47 3.883656 -0.050329 -0.431043 0.066982 0.050237 -0.694789
    48 1.719576 -0.000001 0.000000 0.000000 -0.000004 -1.251031
    49 1.209180 -0.000002 0.000000 0.000000 -0.000003 -1.141144
    50 3.859828 -0.148936 -1.331282 -0.248859 0.263122 -0.072134
    51 1.719426 0.000001 0.000000 0.000000 -0.000009 -0.676743
    52 1.099666 0.000001 0.000000 0.000000 -0.000004 -1.021279
    53 0.806018 -0.359836 -1.318334 1.349675 0.343506 -0.771465
    54 1.789783 0.000001 -0.000001 0.000000 -0.000009 0.397490
    55 1.207001 0.000000 0.000001 0.000000 -0.000006 0.989014
  time 2
    0 0.000000 0.000000 -65.998108 1.570796 0.000000 0.000000
    1 -0.000005 38.566917 0.533613 0.000000 0.000000 0.000000
    2 0.000005 3.345128 -2.981901 1.789557 0.086221 1.571467
    3 4.018332 0.000000 0.000000 0.000000 0.000000 -0.029242
    4 3.518567 0.000000 0.000000 0.000000 0.000000 0.100336
    5 8.942642 0.000000 0.000000 0.000000 0.000000 0.194096
    6 2.033347 1.000767 1.937660 1.596637 -1.286515 2.942961
    7 6.028141 0.000001 0.000000 -0.310973 -1.322622 -2.109721
    8 11.692556 0.000000 0.000001 0.000000 0.000000 -0.280557
    9 11.481672 0.000000 -0.000031 1.330782 0.100716 0.454472
    10 3.820721 -1.405028 0.601078 1.564288 0.003442 -1.581444
    11 6.114854 -1.434045 1.934793 1.564288 0.003442 -1.581444
    12 0.051127 3.122170 -0.141701 0.000000 0.000000 1.570796
    13 -0.000001 1.537870 -5.938447 0.000000 1.570796 0.000000
    14 0.027345 1.595740 0.001226 0.000000 0.000000 0.000000
    15 -0.000001 1.225114 3.954165 0.000000 0.000000 0.000000
    16 2.033355 1.000771 -1.937610 -1.668474 1.286518 2.942953
    17 6.028143 0.000000 0.000000 2.313351 1.273581 -0.038006
    18 11.692550 0.000000 0.000001 0.000000 0.000000 -0.280539
    19 11.481699 0.000000 0.000003 -1.330800 -0.100725 0.454472
    20 6.114873 -1.450003 -1.922835 -1.564198 -0.011689 -1.581440
    21 0.051129 3.122169 0.141701 0.000000 0.000000 1.570796
    22 0.000001 1.537870 5.938447 0.000000 -1.570796 0.000000
    23 0.000000 1.607459 -0.001227 -0.000084 0.000048 0.008245
    24 0.000000 1.225114 -3.954162 0.000000 0.000000 0.000000
    25 3.820735 -1.409995 -0.589408 -1.564198 -0.011689 -1.581440
    26 3.859704 -0.142406 -1.191974 -0.432212 0.155857 -0.861358
    27 1.312562 0.000000 0.000001 0.000000 0.000005 -1.191973
    28 0.729363 0.000000 0.000000 0.000000 0.000009 -1.063371
    29 3.942326 0.046772 -0.431443 -0.232410 -0.000605 -0.853325
    30 1.539094 0.000000 0.000000 0.000000 0.000002 -0.973398
    31 1.196323 0.000000 0.000000 0.000000 0.000002 -1.451290
    32 3.883687 -0.046769 0.431443 -0.066985 -0.050233 -0.694793
    33 1.719576 -0.000001 0.000000 0.000000 0.000003 -1.251021
    34 1.209181 -0.000001 0.000000 0.000000 0.000004 -1.141154
    35 3.859859 -0.137948 1.332466 0.311964 -0.262344 -0.078706
    36 1.719429 -0.000001 0.000000 0.000000 -0.036194 -0.662944
    37 1.099665 0.000000 0.000000 -0.025575 -0.041759 -1.021018
    38 0.806046 -0.348923 1.321258 -1.349678 -0.343508 -0.771484
    39 1.789784 0.000000 0.000001 0.000000 0.063403 0.390219
    40 1.206999 0.000000 0.000000 -0.024449 0.037705 0.990519
    41 3.859672 -0.132568 1.193108 0.432220 -0.155872 -0.861364
    42 1.312563 0.000001 0.000000 0.000000 -0.000007 -1.191994
    43 0.729365 0.000000 0.000000 0.000000 -0.000010 -1.063390
    44 3.942296 0.050325 0.431043 0.232419 0.000608 -0.853326
    45 1.539096 -0.000001 0.000000 0.000000 -0.000006 -0.973387
    46 1.196322 0.000002 0.000000 0.000000 -0.000003 -1.451278
    47 3.883656 -0.050329 -0.431043 0.066982 0.050237 -0.694789
    48 1.719576 -0.000001 0.000000 0.000000 -0.000004 -1.251031
    49 1.209180 -0.000002 0.000000 0.000000 -0.000003 -1.141144
    50 3.859828 -0.148936 -1.331282 -0.248859 0.263122 -0.072134
    51 1.719426 0.000001 0.000000 0.000000 -0.000009 -0.676743
    52 1.099666 0.000001 0.000000 0.000000 -0.000004 -1.021279
    53 0.806018 -0.359836 -1.318334 1.349675 0.343506 -0.771465
    54 1.789783 0.000001 -0.000001 0.000000 -0.000009 0.397490
    55 1.207001 0.000000 0.000001 0.000000 -0.000006 0.989014
  time 3
    0 0.000000 0.000000 -65.998108 1.570796 0.000000 0.000000
    1 -0.000005 38.566917 0.533613 0.000000 0.000000 0.000000
    2 0.000005 3.345128 -2.981901 1.781166 0.086233 1.571443
    3 4.018332 0.000000 0.000000 0.000000 0.000000 -0.029242
    4 3.518567 0.000000 0.000000 0.000000 0.000000 0.100336
    5 8.942642 0.000000 0.000000 0.000000 0.000000 0.194096
    6 2.033347 1.000767 1.937660 1.596637 -1.286515 2.942961
    7 6.028141 0.000001 0.000000 -0.330104 -1.336826 -2.087406
    8 11.692556 0.000000 0.000001 0.000000 0.000000 -0.308723
    9 11.481672 0.000000 -0.000031 1.322379 0.083113 0.432792
    10 3.820721 -1.405028 0.601078 1.564288 0.003442 -1.581444
    11 6.114854 -1.434045 1.934793 1.564288 0.003442 -1.581444
    12 0.051127 3.122170 -0.141701 0.000000 0.000000 1.570796
    13 -0.000001 1.537870 -5.938447 0.000000 1.570796 0.000000
    14 0.027345 1.595740 0.001226 0.000000 0.000000 0.000000
    15 -0.000001 1.225114 3.954165 0.000000 0.000000 0.000000
    16 2.033355 1.000771 -1.937610 -1.668474 1.286518 2.942953
    17 6.028143 0.000000 0.000000 2.329273 1.275822 -0.017417
    18 11.692550 0.000000 0.000001 0.000000 0.000000 -0.308750
    19 11.481699 0.000000 0.000003 -1.322391 -0.083119 0.432783
    20 6.114873 -1.450003 -1.922835 -1.564198 -0.011689 -1.581440
    21 0.051129 3.122169 0.141701 0.000000 0.000000 1.570796
    22 0.000001 1.537870 5.938447 0.000000 -1.570796 0.000000
    23 0.000000 1.607459 -0.001227 -0.000084 0.000048 0.008245
    24 0.000000 1.225114 -3.954162 0.000000 0.000000 0.000000
    25 3.820735 -1.409995 -0.589408 -1.564198 -0.011689 -1.581440
    26 3.859704 -0.142406 -1.191974 -0.432212 0.155857 -0.861358
    27 1.312562 0.000000 0.000001 0.000000 0.000005 -1.191973
    28 0.729363 0.000000 0.000000 0.000000 0.000009 -1.063371
    29 3.942326 0.046772 -0.431443 -0.232410 -0.000605 -0.853325
    30 1.539094 0.000000 0.000000 0.000000 0.000002 -0.973398
    31 1.196323 0.000000 0.000000 0.000000 0.000002 -1.451290
    32 3.883687 -0.046769 0.431443 -0.066985 -0.050233 -0.694793
    33 1.719576 -0.000001 0.000000 0.000000 0.000003 -1.251021
    34 1.209181 -0.000001 0.000000 0.000000 0.000004 -1.141154
    35 3.859859 -0.137948 1.332466 0.311964 -0.262344 -0.078706
    36 1.719429 -0.000001 0.000000 0.000000 -0.036194 -0.662944
    37 1.099665 0.000000 0.000000 -0.025575 -0.041759 -1.021018
    38 0.806046 -0.348923 1.321258 -1.349678 -0.343508 -0.771484
    39 1.789784 0.000000 0.000001 0.000000 0.063403 0.390219
    40 1.206999 0.000000 0.000000 -0.024449 0.037705 0.990519
    41 3.859672 -0.132568 1.193108 0.432220 -0.155872 -0.861364
    42 1.312563 0.000001 0.000000 0.000000 -0.000007 -1.191994
    43 0.729365 0.000000 0.000000 0.000000 -0.000010 -1.063390
    44 3.942296 0.050325 0.431043 0.232419 0.000608 -0.853326
    45 1.539096 -0.000001 0.000000 0.000000 -0.000006 -0.973387
    46 1.196322 0.000002 0.000000 0.000000 -0.000003 -1.451278
    47 3.883656 -0.050329 -0.431043 0.066982 0.050237 -0.694789
    48 1.719576 -0.000001 0.000000 0.000000 -0.000004 -1.251031
    49 1.209180 -0.000002 0.000000 0.000000 -0.000003 -1.141144
    50 3.859828 -0.148936 -1.331282 -0.248859 0.263122 -0.072134
    51 1.719426 0.000001 0.000000 0.000000 -0.000009 -0.676743
    52 1.099666 0.000001 0.000000 0.000000 -0.000004 -1.021279
    53 0.806018 -0.359836 -1.318334 1.349675 0.343506 -0.771465
    54 1.789783 0.000001 -0.000001 0.000000 -0.000009 0.397490
    55 1.207001 0.000000 0.000001 0.000000 -0.000006 0.989014
  time 4
    0 0.000000 0.000000 -65.998108 1.570796 0.000000 0.000000
    1 -0.000005 38.566917 0.533613 0.000000 0.000000 0.000000
    2 0.000005 3.345128 -2.981901 1.771549 0.086233 1.571407
    3 4.018332 0.000000 0.000000 0.000000 0.000000 -0.029242
    4 3.518567 0.000000 0.000000 0.000000 0.000000 0.100336
    5 8.942642 0.000000 0.000000 0.000000 0.000000 0.194096
    6 2.033347 1.000767 1.937660 1.596637 -1.286515 2.942961
    7 6.028141 0.000001 0.000000 -0.293366 -1.359863 -2.120523
    8 11.692556 0.000000 0.000001 0.000000 0.000000 -0.319659
    9 11.481672 0.000000 -0.000031 1.309517 0.056976 0.387746
    10 3.820721 -1.405028 0.601078 1.564288 0.003442 -1.581444
    11 6.114854 -1.434045 1.934793 1.564288 0.003442 -1.581444
    12 0.051127 3.122170 -0.141701 0.000000 0.000000 1.570796
    13 -0.000001 1.537870 -5.938447 0.000000 1.570796 0.000000
    14 0.027345 1.595740 0.001226 0.000000 0.000000 0.000000
    15 -0.000001 1.225114 3.954165 0.000000 0.000000 0.000000
    16 2.033355 1.000771 -1.937610 -1.668474 1.286518 2.942953
    17 6.028143 0.000000 0.000000 2.387970 1.286335 0.050036
    18 11.692550 0.000000 0.000001 0.000000 0.000000 -0.319657
    19 11.481699 0.000000 0.000003 -1.309505 -0.056997 0.387740
    20 6.114873 -1.450003 -1.922835 -1.564198 -0.011689 -1.581440
    21 0.051129 3.122169 0.141701 0.000000 0.000000 1.570796
    22 0.000001 1.537870 5.938447 0.000000 -1.570796 0.000000
    23 0.000000 1.607459 -0.001227 -0.000084 0.000048 0.008245
    24 0.000000 1.225114 -3.954162 0.000000 0.000000 0.000000
    25 3.820735 -1.409995 -0.589408 -1.564198 -0.011689 -1.581440
    26 3.859704 -0.142406 -1.191974 -0.432212 0.155857 -0.861358
    27 1.312562 0.000000 0.000001 0.000000 0.000005 -1.191973
    28 0.729363 0.000000 0.000000 0.000000 0.000009 -1.063371
    29 3.942326 0.046772 -0.431443 -0.232410 -0.000605 -0.853325
    30 1.539094 0.000000 0.000000 0.000000 0.000002 -0.973398
    31 1.196323 0.000000 0.000000 0.000000 0.000002 -1.451290
    32 3.883687 -0.046769 0.431443 -0.066985 -0.050233 -0.694793
    33 1.719576 -0.000001 0.000000 0.000000 0.000003 -1.251021
    34 1.209181 -0.000001 0.000000 0.000000 0.000004 -1.141154
    35 3.859859 -0.137948 1.332466 0.311964 -0.262344 -0.078706
    36 1.719429 -0.000001 0.000000 0.000000 -0.036194 -0.662944
    37 1.099665 0.000000 0.000000 -0.025575 -0.041759 -1.021018
    38 0.806046 -0.348923 1.321258 -1.349678 -0.343508 -0.771484
    39 1.789784 0.000000 0.000001 0.000000 0.063403 0.390219
    40 1.206999 0.000000 0.000000 -0.024449 0.037705 0.990519
    41 3.859672 -0.132568 1.193108 0.432220 -0.155872 -0.861364
    42 1.312563 0.000001 0.000000 0.000000 -0.000007 -1.191994
    43 0.729365 0.000000 0.000000 0.000000 -0.000010 -1.063390
    44 3.942296 0.050325 0.431043 0.232419 0.000608 -0.853326
    45 1.539096 -0.000001 0.000000 0.000000 -0.000006 -0.973387
    46 1.196322 0.000002 0.000000 0.000000 -0.000003 -1.451278
    47 3.883656 -0.050329 -0.431043 0.066982 0.050237 -0.694789
    48 1.719576 -0.000001 0.000000 0.000000 -0.000004 -1.251031
    49 1.209180 -0.000002 0.000000 0.000000 -0.000003 -1.141144
    50 3.859828 -0.148936 -1.331282 -0.248859 0.263122 -0.072134
    51 1.719426 0.000001 0.000000 0.000000 -0.000009 -0.676743
    52 1.099666 0.000001 0.000000 0.000000 -0.000004 -1.021279
    53 0.806018 -0.359836 -1.318334 1.349675 0.343506 -0.771465
    54 1.789783 0.000001 -0.000001 0.000000 -0.000009 0.397490
    55 1.207001 0.000000 0.000001 0.000000 -0.000006 0.989014
  time 5
    0 0.000000 0.000000 -65.998108 1.570796 0.000000 0.000000
    1 -0.000005 38.566917 0.533613 0.000000 0.000000 0.000000
    2 0.000005 3.345128 -2.981901 1.761946 0.086245 1.571383
    3 4.018332 0.000000 0.000000 0.000000 0.000000 -0.029242
    4 3.518567 0.000000 0.000000 0.000000 0.000000 0.100336
    5 8.942642 0.000000 0.000000 0.000000 0.000000 0.194096
    6 2.033347 1.000767 1.937660 1.596637 -1.286515 2.942961
    7 6.028141 0.000001 0.000000 -0.243591 -1.380903 -2.167482
    8 11.692556 0.000000 0.000001 0.000000 0.000000 -0.320256
    9 11.481672 0.000000 -0.000031 1.298087 0.029152 0.322513
    10 3.820721 -1.405028 0.601078 1.564288 0.003442 -1.581444
    11 6.114854 -1.434045 1.934793 1.564288 0.003442 -1.581444
    12 0.051127 3.122170 -0.141701 0.000000 0.000000 1.570796
    13 -0.000001 1.537870 -5.938447 0.000000 1.570796 0.000000
    14 0.027345 1.595740 0.001226 0.000000 0.000000 0.000000
    15 -0.000001 1.225114 3.954165 0.000000 0.000000 0.000000
    16 2.033355 1.000771 -1.937610 -1.668474 1.286518 2.942953
    17 6.028143 0.000000 0.000000 2.449561 1.298315 0.118768
    18 11.692550 0.000000 0.000001 0.000000 0.000000 -0.320263
    19 11.481699 0.000000 0.000003 -1.298075 -0.029147 0.322502
    20 6.114873 -1.450003 -1.922835 -1.564198 -0.011689 -1.581440
    21 0.051129 3.122169 0.141701 0.000000 0.000000 1.570796
    22 0.000001 1.537870 5.938447 0.000000 -1.570796 0.000000
    23 0.000000 1.607459 -0.001227 -0.000084 0.000048 0.008245
    24 0.000000 1.225114 -3.954162 0.000000 0.000000 0.000000
    25 3.820735 -1.409995 -0.589408 -1.564198 -0.011689 -1.581440
    26 3.859704 -0.142406 -1.191974 -0.432212 0.155857 -0.861358
    27 1.312562 0.000000 0.000001 0.000000 0.000005 -1.191973
    28 0.729363 0.000000 0.000000 0.000000 0.000009 -1.063371
    29 3.942326 0.046772 -0.431443 -0.232410 -0.000605 -0.853325
    30 1.539094 0.000000 0.000000 0.000000 0.000002 -0.973398
    31 1.196323 0.000000 0.000000 0.000000 0.000002 -1.451290
    32 3.883687 -0.046769 0.431443 -0.066985 -0.050233 -0.694793
    33 1.719576 -0.000001 0.000000 0.000000 0.000003 -1.251021
    34 1.209181 -0.000001 0.000000 0.000000 0.000004 -1.141154
    35 3.859859 -0.137948 1.332466 0.311964 -0.262344 -0.078706
    36 1.719429 -0.000001 0.000000 0.000000 -0.036194 -0.662944
    37 1.099665 0.000000 0.000000 -0.025575 -0.041759 -1.021018
    38 0.806046 -0.348923 1.321258 -1.349678 -0.343508 -0.771484
    39 1.789784 0.000000 0.000001 0.000000 0.063403 0.390219
    40 1.206999 0.000000 0.000000 -0.024449 0.037705 0.990519
    41 3.859672 -0.132568 1.193108 0.432220 -0.155872 -0.861364
    42 1.312563 0.000001 0.000000 0.000000 -0.000007 -1.191994
    43 0.729365 0.000000 0.000000 0.000000 -0.000010 -1.063390
    44 3.942296 0.050325 0.431043 0.232419 0.000608 -0.853326
    45 1.539096 -0.000001 0.000000 0.000000 -0.000006 -0.973387
    46 1.196322 0.000002 0.000000 0.000000 -0.000003 -1.451278
    47 3.883656 -0.050329 -0.431043 0.066982 0.050237 -0.694789
    48 1.719576 -0.000001 0.000000 0.000000 -0.000004 -1.251031
    49 1.209180 -0.000002 0.000000 0.000000 -0.000003 -1.141144
    50 3.859828 -0.148936 -1.331282 -0.248859 0.263122 -0.072134
    51 1.719426 0.000001 0.000000 0.000000 -0.000009 -0.676743
    52 1.099666 0.000001 0.000000 0.000000 -0.000004 -1.021279
    53 0.806018 -0.359836 -1.318334 1.349675 0.343506 -0.771465
    54 1.789783 0.000001 -0.000001 0.000000 -0.000009 0.397490
    55 1.207001 0.000000 0.000001 0.000000 -0.000006 0.989014
  time 6
    0 0.000000 0.000000 -65.998108 1.570796 0.000000 0.000000
    1 -0.000005 38.566917 0.533613 0.000000 0.000000 0.000000
    2 0.000005 3.345128 -2.981901 1.753555 0.086245 1.571359
    3 4.018332 0.000000 0.000000 0.000000 0.000000 -0.029242
    4 3.518567 0.000000 0.000000 0.000000 0.000000 0.100336
    5 8.942642 0.000000 0.000000 0.000000 0.000000 0.194096
    6 2.033347 1.000767 1.937660 1.596637 -1.286515 2.942961
    7 6.028141 0.000001 0.000000 -0.214358 -1.395240 -2.195425
    8 11.692556 0.000000 0.000001 0.000000 0.000000 -0.318188
    9 11.481672 0.000000 -0.000031 1.291630 0.007724 0.258775
    10 3.820721 -1.405028 0.601078 1.564288 0.003442 -1.581444
    11 6.114854 -1.434045 1.934793 1.564288 0.003442 -1.581444
    12 0.051127 3.122170 -0.141701 0.000000 0.000000 1.570796
    13 -0.000001 1.537870 -5.938447 0.000000 1.570796 0.000000
    14 0.027345 1.595740 0.001226 0.000000 0.000000 0.000000
    15 -0.000001 1.225114 3.954165 0.000000 0.000000 0.000000
    16 2.033355 1.000771 -1.937610 -1.668474 1.286518 2.942953
    17 6.028143 0.000000 0.000000 2.489913 1.308339 0.162414
    18 11.692550 0.000000 0.000001 0.000000 0.000000 -0.318176
    19 11.481699 0.000000 0.000003 -1.291632 -0.007735 0.258781
    20 6.114873 -1.450003 -1.922835 -1.564198 -0.011689 -1.581440
    21 0.051129 3.122169 0.141701 0.000000 0.000000 1.570796
    22 0.000001 1.537870 5.938447 0.000000 -1.570796 0.000000
    23 0.000000 1.607459 -0.001227 -0.000084 0.000048 0.008245
    24 0.000000 1.225114 -3.954162 0.000000 0.000000 0.000000
    25 3.820735 -1.409995 -0.589408 -1.564198 -0.011689 -1.581440
    26 3.859704 -0.142406 -1.191974 -0.432212 0.155857 -0.861358
    27 1.312562 0.000000 0.000001 0.000000 0.000005 -1.191973
    28 0.729363 0.000000 0.000000 0.000000 0.000009 -1.063371
    29 3.942326 0.046772 -0.431443 -0.232410 -0.000605 -0.853325
    30 1.539094 0.000000 0.000000 0.000000 0.000002 -0.973398
    31 1.196323 0.000000 0.000000 0.000000 0.000002 -1.451290
    32 3.883687 -0.046769 0.431443 -0.066985 -0.050233 -0.694793
    33 1.719576 -0.000001 0.000000 0.000000 0.000003 -1.251021
    34 1.209181 -0.000001 0.000000 0.000000 0.000004 -1.141154
    35 3.859859 -0.137948 1.332466 0.311964 -0.262344 -0.078706
    36 1.719429 -0.000001 0.000000 0.000000 -0.036194 -0.662944
    37 1.099665 0.000000 0.000000 -0.025575 -0.041759 -1.021018
    38 0.806046 -0.348923 1.321258 -1.349678 -0.343508 -0.771484
    39 1.789784 0.000000 0.000001 0.000000 0.063403 0.390219
    40 1.206999 0.000000 0.000000 -0.024449 0.037705 0.990519
    41 3.859672 -0.132568 1.193108 0.432220 -0.155872 -0.861364
    42 1.312563 0.000001 0.000000 0.000000 -0.000007 -1.191994
    43 0.729365 0.000000 0.000000 0.000000 -0.000010 -1.063390
    44 3.942296 0.050325 0.431043 0.232419 0.000608 -0.853326
    45 1.539096 -0.000001 0.000000 0.000000 -0.000006 -0.973387
    46 1.196322 0.000002 0.000000 0.000000 -0.000003 -1.451278
    47 3.883656 -0.050329 -0.431043 0.066982 0.050237 -0.694789
    48 1.719576 -0.000001 0.000000 0.000000 -0.000004 -1.251031
    49 1.209180 -0.000002 0.000000 0.000000 -0.000003 -1.141144
    50 3.859828 -0.148936 -1.331282 -0.248859 0.263122 -0.072134
    51 1.719426 0.000001 0.000000 0.000000 -0.000009 -0.676743
    52 1.099666 0.000001 0.000000 0.000000 -0.000004 -1.021279
    53 0.806018 -0.359836 -1.318334 1.349675 0.343506 -0.771465
    54 1.789783 0.000001 -0.000001 0.000000 -0.000009 0.397490
    55 1.207001 0.000000 0.000001 0.000000 -0.000006 0.989014
  time 7
    0 0.000000 0.000000 -65.998108 1.570796 0.000000 0.000000
    1 -0.000005 38.566917 0.533613 0.000000 0.000000 0.000000
    2 0.000005 3.345128 -2.981901 1.747614 0.086245 1.571335
    3 4.018332 0.000000 0.000000 0.000000 0.000000 -0.029242
    4 3.518567 0.000000 0.000000 0.000000 0.000000 0.100336
    5 8.942642 0.000000 0.000000 0.000000 0.000000 0.194096
    6 2.033347 1.000767 1.937660 1.596637 -1.286515 2.942961
    7 6.028141 0.000001 0.000000 -0.206627 -1.403319 -2.202798
    8 11.692556 0.000000 0.000001 0.000000 0.000000 -0.316810
    9 11.481672 0.000000 -0.000031 1.289279 -0.004182 0.214966
    10 3.820721 -1.405028 0.601078 1.564288 0.003442 -1.581444
    11 6.114854 -1.434045 1.934793 1.564288 0.003442 -1.581444
    12 0.051127 3.122170 -0.141701 0.000000 0.000000 1.570796
    13 -0.000001 1.537870 -5.938447 0.000000 1.570796 0.000000
    14 0.027345 1.595740 0.001226 0.000000 0.000000 0.000000
    15 -0.000001 1.225114 3.954165 0.000000 0.000000 0.000000
    16 2.033355 1.000771 -1.937610 -1.668474 1.286518 2.942953
    17 6.028143 0.000000 0.000000 2.509262 1.315063 0.182518
    18 11.692550 0.000000 0.000001 0.000000 0.000000 -0.316829
    19 11.481699 0.000000 0.000003 -1.289266 0.004195 0.214963
    20 6.114873 -1.450003 -1.922835 -1.564198 -0.011689 -1.581440
    21 0.051129 3.122169 0.141701 0.000000 0.000000 1.570796
    22 0.000001 1.537870 5.938447 0.000000 -1.570796 0.000000
    23 0.000000 1.607459 -0.001227 -0.000084 0.000048 0.008245
    24 0.000000 1.225114 -3.954162 0.000000 0.000000 0.000000
    25 3.820735 -1.409995 -0.589408 -1.564198 -0.011689 -1.581440
    26 3.859704 -0.142406 -1.191974 -0.432212 0.155857 -0.861358
    27 1.312562 0.000000 0.000001 0.000000 0.000005 -1.191996
    28 0.729363 0.000000 0.000000 0.000000 0.000009 -1.063371
    29 3.942326 0.046772 -0.431443 -0.232410 -0.000605 -0.853325
    30 1.539094 0.000000 0.000000 0.000000 0.000002 -0.973398
    31 1.196323 0.000000 0.000000 0.000000 0.000002 -1.451290
    32 3.883687 -0.046769 0.431443 -0.066985 -0.050233 -0.694793
    33 1.719576 -0.000001 0.000000 0.000000 0.000003 -1.251021
    34 1.209181 -0.000001 0.000000 0.000000 0.000004 -1.141154
    35 3.859859 -0.137948 1.332466 0.311964 -0.262344 -0.078706
    36 1.719429 -0.000001 0.000000 0.000000 -0.036194 -0.662944
    37 1.099665 0.000000 0.000000 -0.025575 -0.041759 -1.021018
    38 0.806046 -0.348923 1.321258 -1.349678 -0.343508 -0.771484
    39 1.789784 0.000000 0.000001 0.000000 0.063403 0.390219
    40 1.206999 0.000000 0.000000 -0.024449 0.037705 0.990519
    41 3.859672 -0.132568 1.193108 0.432220 -0.155872 -0.861364
    42 1.312563 0.000001 0.000000 0.000000 -0.000007 -1.191994
    43 0.729365 0.000000 0.000000 0.000000 -0.000010 -1.063390
    44 3.942296 0.050325 0.431043 0.232419 0.000608 -0.853326
    45 1.539096 -0.000001 0.000000 0.000000 -0.000006 -0.973387
    46 1.196322 0.000002 0.000000 0.000000 -0.000003 -1.451278
    47 3.883656 -0.050329 -0.431043 0.066982 0.050237 -0.694789
    48 1.719576 -0.000001 0.000000 0.000000 -0.000004 -1.251031
    49 1.209180 -0.000002 0.000000 0.000000 -0.000003 -1.141144
    50 3.859828 -0.148936 -1.331282 -0.248859 0.263122 -0.072134
    51 1.719426 0.000001 0.000000 0.000000 -0.000009 -0.676743
    52 1.099666 0.000001 0.000000 0.000000 -0.000004 -1.021279
    53 0.806018 -0.359836 -1.318334 1.349675 0.343506 -0.771465
    54 1.789783 0.000001 -0.000001 0.000000 -0.000009 0.397490
    55 1.207001 0.000000 0.000001 0.000000 -0.000006 0.989014
  time 8
    0 0.000000 0.000000 -65.998108 1.570796 0.000000 0.000000
    1 -0.000005 38.566917 0.533613 0.000000 0.000000 0.000000
    2 0.000005 3.345128 -2.981901 1.745363 0.086257 1.571335
    3 4.018332 0.000000 0.000000 0.000000 0.000000 -0.029242
    4 3.518567 0.000000 0.000000 0.000000 0.000000 0.100336
    5 8.942642 0.000000 0.000000 0.000000 0.000000 0.194096
    6 2.033347 1.000767 1.937660 1.596637 -1.286515 2.942961
    7 6.028141 0.000001 0.000000 -0.209900 -1.405715 -2.199629
    8 11.692556 0.000000 0.000001 0.000000 0.000000 -0.316626
    9 11.481672 0.000000 -0.000031 1.288846 -0.007432 0.200691
    10 3.820721 -1.405028 0.601078 1.564288 0.003442 -1.581444
    11 6.114854 -1.434045 1.934793 1.564288 0.003442 -1.581444
    12 0.051127 3.122170 -0.141701 0.000000 0.000000 1.570796
    13 -0.000001 1.537870 -5.938447 0.000000 1.570796 0.000000
    14 0.027345 1.595740 0.001226 0.000000 0.000000 0.000000
    15 -0.000001 1.225114 3.954165 0.000000 0.000000 0.000000
    16 2.033355 1.000771 -1.937610 -1.668474 1.286518 2.942953
    17 6.028143 0.000000 0.000000 2.512511 1.317467 0.185516
    18 11.692550 0.000000 0.000001 0.000000 0.000000 -0.316627
    19 11.481699 0.000000 0.000003 -1.288865 0.007424 0.200691
    20 6.114873 -1.450003 -1.922835 -1.564198 -0.011689 -1.581440
    21 0.051129 3.122169 0.141701 0.000000 0.000000 1.570796
    22 0.000001 1.537870 5.938447 0.000000 -1.570796 0.000000
    23 0.000000 1.607459 -0.001227 -0.000084 0.000048 0.008245
    24 0.000000 1.225114 -3.954162 0.000000 0.000000 0.000000
    25 3.820735 -1.409995 -0.589408 -1.564198 -0.011689 -1.581440
    26 3.859704 -0.142406 -1.191974 -0.432212 0.155857 -0.861358
    27 1.312562 0.000000 0.000001 0.000000 0.000005 -1.191973
    28 0.729363 0.000000 0.000000 0.000000 0.000009 -1.063371
    29 3.942326 0.046772 -0.431443 -0.232410 -0.000605 -0.853325
    30 1.539094 0.000000 0.000000 0.000000 0.000002 -0.973398
    31 1.196323 0.000000 0.000000 0.000000 0.000002 -1.451290
    32 3.883687 -0.046769 0.431443 -0.066985 -0.050233 -0.694793
    33 1.719576 -0.000001 0.000000 0.000000 0.000003 -1.251021
    34 1.209181 -0.000001 0.000000 0.000000 0.000004 -1.141154
    35 3.859859 -0.137948 1.332466 0.311964 -0.262344 -0.078706
    36 1.719429 -0.000001 0.000000 0.000000 -0.036194 -0.662944
    37 1.099665 0.000000 0.000000 -0.025575 -0.041759 -1.021018
    38 0.806046 -0.348923 1.321258 -1.349678 -0.343508 -0.771484
    39 1.789784 0.000000 0.000001 0.000000 0.063403 0.390219
    40 1.206999 0.000000 0.000000 -0.024449 0.037705 0.990519
    41 3.859672 -0.132568 1.193108 0.432220 -0.155872 -0.861364
    42 1.312563 0.000001 0.000000 0.000000 -0.000007 -1.191994
    43 0.729365 0.000000 0.000000 0.000000 -0.000010 -1.063390
    44 3.942296 0.050325 0.431043 0.232419 0.000608 -0.853326
    45 1.539096 -0.000001 0.000000 0.000000 -0.000006 -0.973387
    46 1.196322 0.000002 0.000000 0.000000 -0.000003 -1.451278
    47 3.883656 -0.050329 -0.431043 0.066982 0.050237 -0.694789
    48 1.719576 -0.000001 0.000000 0.000000 -0.000004 -1.251031
    49 1.209180 -0.000002 0.000000 0.000000 -0.000003 -1.141144
    50 3.859828 -0.148936 -1.331282 -0.248859 0.263122 -0.072134
    51 1.719426 0.000001 0.000000 0.000000 -0.000009 -0.676743
    52 1.099666 0.000001 0.000000 0.000000 -0.000004 -1.021279
    53 0.806018 -0.359836 -1.318334 1.349675 0.343506 -0.771465
    54 1.789783 0.000001 -0.000001 0.000000 -0.000009 0.397490
    55 1.207001 0.000000 0.000001 0.000000 -0.000006 0.989014
end
