version 1
nodes
0 "ValveBiped.Bip01_Spine4" -1
1 "ValveBiped.Bip01_R_Clavicle" 0
2 "ValveBiped.Bip01_R_UpperArm" 1
3 "ValveBiped.Bip01_R_Forearm" 2
4 "ValveBiped.Bip01_R_Hand" 3
5 "ValveBiped.Bip01_R_Finger4" 4
6 "ValveBiped.Bip01_R_Finger41" 5
7 "ValveBiped.Bip01_R_Finger42" 6
8 "ValveBiped.Bip01_R_Finger3" 4
9 "ValveBiped.Bip01_R_Finger31" 8
10 "ValveBiped.Bip01_R_Finger32" 9
11 "ValveBiped.Bip01_R_Finger2" 4
12 "ValveBiped.Bip01_R_Finger21" 11
13 "ValveBiped.Bip01_R_Finger22" 12
14 "ValveBiped.Bip01_R_Finger1" 4
15 "ValveBiped.Bip01_R_Finger11" 14
16 "ValveBiped.Bip01_R_Finger12" 15
17 "ValveBiped.Bip01_R_Finger0" 4
18 "ValveBiped.Bip01_R_Finger01" 17
19 "ValveBiped.Bip01_R_Finger02" 18
20 "ValveBiped.square" 4
21 "ValveBiped.clip" 4
22 "ik_target.Bip01_L_Hand" 4
23 "ik_target.Bip01_L_Finger1_tip" 22
24 "ik_target.Bip01_L_Finger2_tip" 22
25 "ik_target.Bip01_L_Finger3_tip" 22
26 "ik_target.Bip01_L_Finger4_tip" 22
27 "ik_target.Bip01_L_Finger0_tip" 22
28 "ik_chain.Bip01_Spine4" -1
29 "ik_chain.Bip01_L_Clavicle" 28
30 "ValveBiped.Bip01_L_Clavicle" 0
31 "ik_parent.Bip01_L_Clavicle" 29
32 "ik_chain.Bip01_L_UpperArm" 29
33 "ik_parent.Bip01_L_UpperArm" 32
34 "ValveBiped.Bip01_L_UpperArm" 30
35 "ik_chain.Bip01_L_Forearm" 32
36 "ik_parent.Bip01_L_Forearm" 35
37 "ValveBiped.Bip01_L_Forearm" 34
38 "ik_chain.Bip01_L_Hand" 35
39 "ik_parent.Bip01_L_Hand" 38
40 "ValveBiped.Bip01_L_Hand" 37
41 "ik_chain.Bip01_L_Finger1" 38
42 "ik_parent.Bip01_L_Finger1" 41
43 "ValveBiped.Bip01_L_Finger1" 40
44 "ik_chain.Bip01_L_Finger11" 41
45 "ik_parent.Bip01_L_Finger11" 44
46 "ValveBiped.Bip01_L_Finger11" 43
47 "ik_chain.Bip01_L_Finger12" 44
48 "ik_parent.Bip01_L_Finger12" 47
49 "ValveBiped.Bip01_L_Finger12" 46
50 "ik_chain.Bip01_L_Finger2" 38
51 "ik_parent.Bip01_L_Finger2" 50
52 "ValveBiped.Bip01_L_Finger2" 40
53 "ik_chain.Bip01_L_Finger21" 50
54 "ik_parent.Bip01_L_Finger21" 53
55 "ValveBiped.Bip01_L_Finger21" 52
56 "ik_chain.Bip01_L_Finger22" 53
57 "ik_parent.Bip01_L_Finger22" 56
58 "ValveBiped.Bip01_L_Finger22" 55
59 "ik_chain.Bip01_L_Finger3" 38
60 "ik_parent.Bip01_L_Finger3" 59
61 "ValveBiped.Bip01_L_Finger3" 40
62 "ik_chain.Bip01_L_Finger31" 59
63 "ik_parent.Bip01_L_Finger31" 62
64 "ValveBiped.Bip01_L_Finger31" 61
65 "ik_chain.Bip01_L_Finger32" 62
66 "ik_parent.Bip01_L_Finger32" 65
67 "ValveBiped.Bip01_L_Finger32" 64
68 "ik_chain.Bip01_L_Finger4" 38
69 "ik_parent.Bip01_L_Finger4" 68
70 "ValveBiped.Bip01_L_Finger4" 40
71 "ik_chain.Bip01_L_Finger41" 68
72 "ik_parent.Bip01_L_Finger41" 71
73 "ValveBiped.Bip01_L_Finger41" 70
74 "ik_chain.Bip01_L_Finger42" 71
75 "ik_parent.Bip01_L_Finger42" 74
76 "ValveBiped.Bip01_L_Finger42" 73
77 "ik_chain.Bip01_L_Finger0" 38
78 "ik_parent.Bip01_L_Finger0" 77
79 "ValveBiped.Bip01_L_Finger0" 40
80 "ik_chain.Bip01_L_Finger01" 77
81 "ik_parent.Bip01_L_Finger01" 80
82 "ValveBiped.Bip01_L_Finger01" 79
83 "ik_chain.Bip01_L_Finger02" 80
84 "ik_parent.Bip01_L_Finger02" 83
85 "ValveBiped.Bip01_L_Finger02" 82
86 "ik_enable" -1
end
skeleton
time 0
0  0.000000 4.707169 -8.644795  -1.570797 -1.391899 -1.570795
1  2.033356 1.000772 -1.937610  1.473119 1.855075 -0.198639
2  6.028143 -0.000001 0.000000  1.637460 1.095147 -0.929811
3  11.692555 0.000001 0.000002  -0.000000 -0.000000 -1.226498
4  11.481697 0.000000 0.000002  -1.286801 0.004693 0.534476
5  3.859678 -0.132570 1.193108  0.432208 -0.155862 -0.861350
6  1.312557 -0.000001 -0.000001  -0.000000 0.000000 -1.191994
7  0.729365 0.000001 -0.000003  0.000000 -0.000000 -1.063394
8  3.942305 0.050328 0.431045  0.232421 0.000609 -0.853331
9  1.539101 -0.000002 -0.000000  0.000000 -0.000000 -0.973399
10  1.196320 0.000009 0.000001  -0.000000 -0.000000 -1.451289
11  3.883659 -0.050324 -0.431041  0.066987 0.050243 -0.694792
12  1.719577 -0.000001 -0.000001  0.000000 -0.000000 -1.251039
13  1.209185 0.000001 0.000001  0.000000 -0.000003 -1.141173
14  3.859839 -0.148939 -1.331282  -0.248855 0.263129 -0.072121
15  1.719423 0.000001 -0.000000  0.000000 -0.000000 -0.676756
16  1.099666 0.000001 -0.000001  -0.000000 0.000000 -1.021287
17  0.806023 -0.359838 -1.318333  1.349685 0.343493 -0.771450
18  1.789781 0.000001 -0.000004  -0.000000 0.000000 0.397500
19  1.206999 0.000004 -0.000001  -0.000000 0.000000 0.989033
20  4.127903 -1.449150 -3.542002  -1.564198 -0.011689 -1.581440
21  3.820739 -1.409994 -0.589409  -1.564198 -0.011689 -1.581439
22  0.222813 -3.739062 1.509297  0.024887 2.851473 -1.494016
23  3.048727 6.125613 1.106839  1.596061 0.018247 -0.808184
24  3.527214 5.063569 0.216257  1.596061 0.018246 -0.808184
25  3.352951 5.114329 -0.401209  1.596061 0.018247 -0.808184
26  2.909482 4.772883 -1.012058  1.596061 0.018247 -0.808184
27  1.772479 4.476571 2.356866  1.596061 0.018247 -0.808184
28  0.000006 3.336140 -8.647861  -1.570799 -1.391898 -1.570795
29  2.033350 1.000764 1.937663  1.227517 0.585911 1.190966
30  2.274300 2.350463 1.937679  1.227515 0.585914 1.190966
31  0.000001 -0.000001 0.000004  1.583265 0.000007 1.570794
32  0.000000 6.028147 -0.000001  -0.669976 -0.370944 -0.616495
33  0.000000 0.000009 -0.000005  -0.000002 0.000003 1.570791
34  0.000015 6.028144 -0.000012  -0.460616 0.617174 0.674641
35  0.000000 11.692569 0.000000  0.000003 -0.000004 -1.436057
36  0.000001 0.000001 -0.000002  0.000005 0.000000 1.570801
37  11.692573 0.000055 0.000042  0.000007 -0.000003 -1.436048
38  0.000003 11.481684 -0.000001  0.713393 0.519926 1.317276
39  -0.000000 -0.000001 0.000001  0.000000 -0.000000 1.570789
40  11.481693 -0.000055 0.000006  0.648018 -0.603979 0.911197
41  0.137968 3.859857 1.332474  -1.467065 -1.620053 0.861884
42  -0.000001 -0.000001 -0.000001  1.933714 0.000004 1.570794
43  3.859864 -0.137941 1.332473  0.357813 -0.048994 -0.605058
44  0.000001 1.719428 -0.000001  -0.421926 0.202310 0.066145
45  0.000000 -0.000000 0.000000  1.743430 0.000000 1.570799
46  1.719432 0.000005 -0.000005  0.000199 -0.009280 -0.439634
47  0.000001 1.099663 0.000001  1.023612 1.908540 1.051661
48  0.000002 -0.000000 0.000000  -0.000002 0.000003 1.570799
49  1.099666 0.000002 0.000002  -0.000122 0.002599 -0.291824
50  0.046789 3.883687 0.431452  -0.020092 -1.505146 -0.652523
51  -0.000000 -0.000001 0.000000  1.590082 0.000009 1.570787
52  3.883693 -0.046762 0.431450  0.084924 0.001309 -0.672574
53  -0.000002 1.719574 0.000001  -0.720265 0.051523 -0.006475
54  0.000001 0.000000 -0.000001  1.538381 -0.000002 1.570794
55  1.719580 0.000015 -0.000017  -0.003918 0.016398 -0.719793
56  0.000001 1.209182 -0.000004  -1.502670 1.085594 -1.507504
57  -0.000002 -0.000001 0.000001  -0.000000 -0.000000 1.570805
58  1.209182 -0.000005 -0.000003  -0.000817 0.002971 -0.484143
59  -0.046751 3.942325 -0.431434  -0.321911 -1.473585 -0.665464
60  0.000001 -0.000000 0.000001  1.317660 0.000000 1.570797
61  3.942333 0.046778 -0.431437  -0.160888 0.030713 -0.985950
62  0.000001 1.539090 0.000001  -0.255286 -0.026494 -0.056799
63  -0.000000 -0.000000 0.000000  1.337310 -0.000004 1.570800
64  1.539096 -0.000001 0.000001  -0.000027 0.003577 -0.262831
65  -0.000000 1.196323 -0.000003  -1.013199 1.118262 -1.059664
66  -0.000003 0.000000 -0.000000  0.000000 -0.000001 1.570800
67  1.196325 -0.000006 0.000003  -0.000001 0.000003 -0.391273
68  0.142426 3.859704 -1.191966  -0.664682 -1.424113 -0.304701
69  0.000001 -0.000000 0.000001  0.976757 -0.000005 1.570807
70  3.859711 -0.142400 -1.191967  -0.478266 0.090283 -0.964140
71  0.000001 1.312563 -0.000002  -0.361378 -0.138963 -0.204711
72  -0.000001 -0.000001 0.000002  1.078169 0.000003 1.570794
73  1.312571 -0.000014 0.000007  0.000004 -0.001335 -0.437254
74  0.000000 0.729363 0.000006  -0.404326 1.030465 -0.462844
75  -0.000000 0.000000 0.000000  -0.000001 -0.000001 1.570795
76  0.729366 0.000005 0.000002  0.000001 -0.000005 -0.231753
77  0.348928 0.806044 1.321261  -1.143947 -2.277611 0.650740
78  -0.000000 0.000001 -0.000002  0.437032 0.000002 1.570790
79  0.806050 -0.348924 1.321259  -1.473610 -0.632482 -0.381032
80  0.000000 1.789783 -0.000003  0.105745 0.066302 0.344455
81  -0.000000 -0.000001 0.000001  0.347279 0.000000 1.570806
82  1.789789 0.000012 -0.000001  0.002686 0.043942 0.350314
83  -0.000001 1.206999 -0.000001  0.184484 0.295916 0.569250
84  0.000000 0.000001 0.000000  0.000001 -0.000001 1.570797
85  1.207005 -0.000011 0.000003  -0.000004 0.000001 0.541667
86  0.000000 0.000000 1.000000  1.570796 -0.000000 0.000000
time 1
0  0.000000 4.539195 -8.644795  -1.570797 -1.391899 -1.570795
1  2.033355 1.000772 -1.937610  1.473119 1.855075 -0.198639
2  6.028143 -0.000001 0.000000  1.641004 1.134265 -0.926084
3  11.692555 0.000002 0.000002  0.000000 0.000000 -1.134352
4  11.481696 0.000001 0.000001  -1.287764 0.006236 0.358045
5  3.859680 -0.132571 1.193109  0.432208 -0.155862 -0.861350
6  1.312558 -0.000003 0.000000  -0.000000 0.000000 -1.191994
7  0.729368 -0.000001 -0.000002  0.000000 -0.000000 -1.063394
8  3.942308 0.050328 0.431045  0.232421 0.000609 -0.853331
9  1.539098 -0.000004 -0.000001  0.000000 -0.000000 -0.973399
10  1.196319 0.000010 -0.000000  -0.000000 -0.000000 -1.451289
11  3.883661 -0.050324 -0.431041  0.066987 0.050243 -0.694792
12  1.719576 -0.000001 -0.000001  0.000000 -0.000000 -1.251039
13  1.209184 0.000002 -0.000001  0.000000 -0.000003 -1.141173
14  3.859843 -0.148938 -1.331281  -0.248855 0.263129 -0.072121
15  1.719422 0.000001 0.000002  0.000000 -0.000000 -0.676756
16  1.099665 -0.000000 -0.000001  -0.000000 0.000000 -1.021287
17  0.806024 -0.359837 -1.318333  1.349685 0.343493 -0.771450
18  1.789781 -0.000000 -0.000003  0.000000 0.000000 0.397500
19  1.206999 0.000004 0.000001  -0.000000 0.000000 0.989033
20  4.127906 -1.449149 -3.542002  -1.564198 -0.011689 -1.581440
21  3.820741 -1.409995 -0.589408  -1.564198 -0.011689 -1.581439
22  0.222819 -3.739063 1.509298  0.024887 2.851473 -1.494016
23  3.048727 6.125614 1.106841  1.596061 0.018247 -0.808184
24  3.527214 5.063570 0.216260  1.596061 0.018246 -0.808184
25  3.352950 5.114327 -0.401206  1.596061 0.018247 -0.808184
26  2.909482 4.772884 -1.012056  1.596061 0.018247 -0.808184
27  1.772478 4.476572 2.356869  1.596061 0.018247 -0.808184
28  0.000006 3.336140 -8.647861  -1.570799 -1.391898 -1.570795
29  2.033350 1.000764 1.937663  1.227517 0.585911 1.190966
30  2.244409 2.185170 1.937679  1.227515 0.585914 1.190966
31  0.000001 -0.000001 0.000004  1.583265 0.000007 1.570794
32  0.000000 6.028147 -0.000001  -0.634623 -0.388397 -0.640413
33  -0.000001 0.000010 -0.000005  -0.000002 0.000003 1.570792
34  0.000015 6.028144 -0.000012  -0.470122 0.580826 0.658467
35  -0.000001 11.692571 0.000002  0.000003 -0.000004 -1.346046
36  0.000000 0.000002 -0.000002  0.000005 0.000000 1.570801
37  11.692572 0.000056 0.000042  0.000006 -0.000003 -1.346037
38  -0.000002 11.481683 0.000001  0.809038 0.525654 1.246429
39  -0.000000 -0.000000 -0.000000  0.000000 -0.000000 1.570789
40  11.481690 -0.000053 0.000010  0.698939 -0.676319 0.762128
41  0.137968 3.859854 1.332474  -1.466325 -1.619805 0.861172
42  0.000000 0.000001 0.000000  1.933714 0.000004 1.570794
43  3.859863 -0.137941 1.332474  0.357803 -0.048744 -0.605035
44  -0.000002 1.719432 0.000002  -0.421568 0.202310 0.066145
45  0.000001 -0.000000 -0.000000  1.743430 0.000000 1.570799
46  1.719434 0.000005 -0.000008  0.000196 -0.009219 -0.439281
47  0.000003 1.099664 -0.000002  1.023212 1.908309 1.051235
48  0.000002 -0.000000 -0.000000  -0.000002 0.000003 1.570799
49  1.099666 0.000000 0.000004  -0.000121 0.002599 -0.291553
50  0.046788 3.883685 0.431450  -0.023423 -1.505147 -0.648880
51  -0.000001 0.000000 -0.000001  1.590082 0.000009 1.570787
52  3.883691 -0.046761 0.431449  0.084918 0.001528 -0.672257
53  0.000001 1.719576 -0.000001  -0.720268 0.051523 -0.006475
54  0.000000 0.000001 -0.000000  1.538381 -0.000002 1.570794
55  1.719580 0.000017 -0.000015  -0.003918 0.016398 -0.719796
56  -0.000000 1.209183 -0.000002  -1.502677 1.085535 -1.507513
57  0.000003 -0.000001 0.000002  -0.000000 -0.000000 1.570805
58  1.209183 -0.000004 -0.000003  -0.000817 0.002971 -0.484202
59  -0.046751 3.942320 -0.431436  -0.323806 -1.473521 -0.663203
60  0.000001 0.000001 0.000001  1.317660 0.000000 1.570797
61  3.942327 0.046779 -0.431437  -0.160886 0.030908 -0.985575
62  0.000001 1.539092 0.000003  -0.255348 -0.026494 -0.056799
63  0.000001 0.000000 -0.000000  1.337310 -0.000004 1.570800
64  1.539095 -0.000000 0.000002  -0.000027 0.003591 -0.262891
65  0.000003 1.196322 -0.000004  -1.013383 1.118118 -1.059869
66  -0.000000 0.000000 0.000000  0.000000 -0.000001 1.570800
67  1.196325 -0.000009 0.000005  -0.000000 0.000003 -0.391442
68  0.142426 3.859700 -1.191967  -0.665836 -1.423915 -0.303037
69  -0.000000 -0.000001 0.000000  0.976757 -0.000005 1.570807
70  3.859706 -0.142400 -1.191967  -0.478212 0.090538 -0.963611
71  0.000002 1.312564 -0.000002  -0.361535 -0.138964 -0.204711
72  0.000000 0.000000 0.000001  1.078169 0.000003 1.570794
73  1.312571 -0.000018 0.000009  0.000004 -0.001261 -0.437392
74  0.000000 0.729363 0.000003  -0.404679 1.030375 -0.463255
75  -0.000000 -0.000000 0.000000  -0.000001 -0.000001 1.570795
76  0.729366 0.000004 0.000001  0.000001 -0.000005 -0.231984
77  0.348927 0.806042 1.321259  -1.143498 -2.277149 0.650553
78  -0.000000 0.000000 -0.000001  0.437032 0.000002 1.570791
79  0.806046 -0.348924 1.321259  -1.473626 -0.631936 -0.380868
80  -0.000002 1.789783 0.000001  0.105723 0.066337 0.344123
81  0.000001 0.000000 0.000000  0.347279 0.000000 1.570806
82  1.789789 0.000013 -0.000000  0.002673 0.043830 0.350000
83  0.000000 1.207000 0.000002  0.184331 0.296010 0.568725
84  0.000000 0.000002 -0.000000  0.000001 -0.000001 1.570797
85  1.207006 -0.000009 0.000005  -0.000004 0.000001 0.541156
86  0.000000 0.000000 1.000000  1.570796 -0.000000 0.000000
time 2
0  0.000000 4.285281 -8.644795  -1.570797 -1.391899 -1.570795
1  2.033356 1.000772 -1.937610  1.473119 1.855075 -0.198639
2  6.028143 -0.000001 0.000000  1.658907 1.238954 -0.907161
3  11.692556 0.000002 0.000003  0.000000 -0.000000 -0.900360
4  11.481699 0.000002 0.000002  -1.288817 0.007408 0.204100
5  3.859680 -0.132570 1.193108  0.432208 -0.155862 -0.861350
6  1.312557 -0.000004 0.000000  -0.000000 0.000000 -1.191994
7  0.729366 -0.000002 -0.000001  0.000000 -0.000000 -1.063394
8  3.942305 0.050328 0.431044  0.232421 0.000609 -0.853331
9  1.539099 -0.000003 -0.000001  0.000000 -0.000000 -0.973399
10  1.196319 0.000010 0.000000  -0.000000 -0.000000 -1.451289
11  3.883663 -0.050323 -0.431042  0.066987 0.050243 -0.694792
12  1.719576 0.000001 -0.000001  0.000000 -0.000000 -1.251039
13  1.209186 0.000000 -0.000002  0.000000 -0.000003 -1.141145
14  3.859843 -0.148938 -1.331282  -0.248855 0.263129 -0.072121
15  1.719423 0.000001 -0.000001  0.000000 -0.000000 -0.676756
16  1.099663 -0.000001 0.000000  -0.000000 0.000000 -1.021287
17  0.806024 -0.359837 -1.318333  1.349685 0.343493 -0.771450
18  1.789782 0.000000 -0.000003  -0.000000 -0.000000 0.397500
19  1.206999 0.000003 0.000001  0.000000 -0.000000 0.989033
20  4.448228 -1.453056 -3.538095  -1.564198 -0.011689 -1.581440
21  3.820739 -1.409994 -0.589409  -1.564198 -0.011689 -1.581439
22  0.222823 -3.739062 1.509296  0.024887 2.851473 -1.494016
23  3.048727 6.125610 1.106842  1.596061 0.018247 -0.808184
24  3.527214 5.063570 0.216259  1.596061 0.018246 -0.808184
25  3.352949 5.114328 -0.401207  1.596061 0.018247 -0.808184
26  2.909482 4.772882 -1.012056  1.596061 0.018247 -0.808184
27  1.772479 4.476573 2.356868  1.596061 0.018247 -0.808184
28  0.000006 3.336140 -8.647861  -1.570799 -1.391898 -1.570795
29  2.033350 1.000764 1.937663  1.227517 0.585911 1.190966
30  2.199226 1.935308 1.937679  1.227515 0.585914 1.190966
31  0.000001 -0.000001 0.000004  1.583265 0.000007 1.570794
32  0.000000 6.028147 -0.000001  -0.566939 -0.425300 -0.703222
33  -0.000001 0.000010 -0.000006  -0.000002 0.000003 1.570792
34  0.000016 6.028144 -0.000012  -0.492772 0.511182 0.610686
35  0.000000 11.692571 0.000000  0.000002 -0.000004 -1.145742
36  -0.000001 0.000002 -0.000002  0.000005 0.000000 1.570801
37  11.692570 0.000057 0.000042  0.000005 -0.000003 -1.145733
38  -0.000001 11.481682 0.000001  0.785269 0.522095 1.091090
39  -0.000000 0.000001 0.000001  0.000000 -0.000000 1.570789
40  11.481688 -0.000051 0.000009  0.682952 -0.659624 0.628582
41  0.137968 3.859857 1.332475  -1.466700 -1.619694 0.860808
42  0.000000 0.000000 0.000000  1.933714 0.000004 1.570794
43  3.859861 -0.137941 1.332475  0.357832 -0.048635 -0.605769
44  0.000001 1.719425 0.000000  -0.420678 0.202310 0.066145
45  -0.000000 -0.000000 0.000000  1.743430 0.000000 1.570798
46  1.719431 0.000005 -0.000006  0.000187 -0.009066 -0.438404
47  -0.000001 1.099663 0.000001  1.021986 1.907605 1.049937
48  -0.000000 0.000000 0.000001  -0.000002 0.000003 1.570799
49  1.099666 -0.000003 0.000002  -0.000119 0.002600 -0.290729
50  0.046789 3.883689 0.431452  -0.023246 -1.505151 -0.649454
51  0.000001 -0.000000 -0.000003  1.590082 0.000009 1.570787
52  3.883693 -0.046761 0.431453  0.084914 0.001516 -0.672653
53  0.000002 1.719575 -0.000004  -0.719773 0.051523 -0.006475
54  0.000000 0.000000 -0.000000  1.538382 -0.000002 1.570794
55  1.719580 0.000015 -0.000015  -0.003910 0.016384 -0.719301
56  -0.000002 1.209182 -0.000000  -1.502615 1.086014 -1.507442
57  0.000003 -0.000001 0.000000  -0.000000 -0.000000 1.570805
58  1.209183 -0.000005 -0.000004  -0.000816 0.002971 -0.483722
59  -0.046750 3.942325 -0.431434  -0.323529 -1.473572 -0.664299
60  -0.000001 -0.000000 -0.000000  1.317660 0.000000 1.570797
61  3.942329 0.046778 -0.431433  -0.160926 0.030866 -0.986396
62  -0.000000 1.539089 0.000000  -0.254422 -0.026494 -0.056799
63  -0.000001 -0.000000 -0.000001  1.337310 -0.000004 1.570800
64  1.539093 0.000000 0.000004  -0.000024 0.003378 -0.261991
65  -0.000000 1.196322 -0.000001  -1.011999 1.119195 -1.058330
66  -0.000001 -0.000000 -0.000000  0.000000 -0.000001 1.570800
67  1.196327 -0.000005 0.000004  0.000000 0.000003 -0.390171
68  0.142426 3.859706 -1.191965  -0.665308 -1.424114 -0.304524
69  -0.000001 -0.000001 -0.000000  0.976757 -0.000005 1.570807
70  3.859712 -0.142400 -1.191964  -0.478323 0.090355 -0.964587
71  -0.000002 1.312566 0.000000  -0.360407 -0.138964 -0.204711
72  0.000000 -0.000001 -0.000001  1.078169 0.000003 1.570794
73  1.312573 -0.000012 0.000007  0.000003 -0.001794 -0.436397
74  -0.000001 0.729364 0.000001  -0.402759 1.030866 -0.461017
75  -0.000001 0.000000 0.000000  -0.000001 -0.000001 1.570795
76  0.729367 0.000006 -0.000001  0.000001 -0.000005 -0.230731
77  0.348928 0.806043 1.321261  -1.143417 -2.276696 0.650362
78  -0.000001 0.000000 -0.000000  0.437032 0.000002 1.570791
79  0.806047 -0.348924 1.321262  -1.473394 -0.631521 -0.381135
80  -0.000003 1.789782 -0.000001  0.105697 0.066379 0.343729
81  -0.000000 0.000001 0.000000  0.347279 0.000000 1.570806
82  1.789789 0.000010 -0.000003  0.002656 0.043696 0.349627
83  -0.000001 1.207000 0.000000  0.184148 0.296122 0.568099
84  0.000000 -0.000000 -0.000000  0.000001 -0.000001 1.570797
85  1.207005 -0.000011 0.000004  -0.000004 0.000002 0.540547
86  0.000000 0.000000 1.000000  1.570796 -0.000000 0.000000
time 3
0  0.000000 4.058712 -8.644796  -1.570797 -1.391899 -1.570795
1  2.033356 1.000772 -1.937610  1.473119 1.855075 -0.198639
2  6.028143 -0.000001 -0.000000  1.724319 1.379631 -0.839430
3  11.692555 0.000002 0.000003  -0.000000 0.000000 -0.602907
4  11.481702 0.000003 0.000002  -1.288908 0.007490 0.192858
5  3.859678 -0.132569 1.193107  0.432208 -0.155862 -0.861350
6  1.312557 -0.000003 -0.000001  -0.000000 0.000000 -1.191994
7  0.729367 -0.000003 -0.000002  0.000000 0.000000 -1.063394
8  3.942305 0.050328 0.431044  0.232421 0.000609 -0.853331
9  1.539098 -0.000000 -0.000001  0.000000 -0.000000 -0.973399
10  1.196320 0.000009 0.000001  -0.000000 -0.000000 -1.451289
11  3.883661 -0.050323 -0.431042  0.066987 0.050243 -0.694792
12  1.719577 0.000001 -0.000001  0.000000 -0.000000 -1.251039
13  1.209184 0.000002 -0.000000  0.000000 -0.000003 -1.141145
14  3.859841 -0.148937 -1.331283  -0.248855 0.263129 -0.072121
15  1.719421 -0.000000 -0.000001  0.000000 -0.000000 -0.676756
16  1.099664 0.000000 -0.000000  -0.000000 0.000000 -1.021287
17  0.806022 -0.359837 -1.318334  1.349685 0.343493 -0.771450
18  1.789783 0.000002 -0.000002  0.000000 -0.000000 0.397500
19  1.207000 0.000004 0.000000  -0.000000 -0.000000 0.989033
20  6.104527 -1.468679 -3.530283  -1.564198 -0.011689 -1.581440
21  3.820739 -1.409994 -0.589409  -1.564198 -0.011689 -1.581439
22  0.222822 -3.739060 1.509296  0.024887 2.851473 -1.494016
23  3.048727 6.125608 1.106841  1.596061 0.018247 -0.808184
24  3.527214 5.063565 0.216259  1.596061 0.018246 -0.808184
25  3.352951 5.114326 -0.401207  1.596061 0.018247 -0.808184
26  2.909482 4.772882 -1.012056  1.596061 0.018247 -0.808184
27  1.772479 4.476567 2.356869  1.596061 0.018247 -0.808184
28  0.000006 3.336140 -8.647861  -1.570799 -1.391898 -1.570795
29  2.033350 1.000764 1.937663  1.227517 0.585911 1.190966
30  2.158911 1.712355 1.937679  1.227515 0.585914 1.190966
31  0.000001 -0.000001 0.000004  1.583265 0.000007 1.570794
32  0.000000 6.028147 -0.000001  -0.497272 -0.464211 -0.788326
33  -0.000001 0.000009 -0.000007  -0.000002 0.000003 1.570792
34  0.000016 6.028144 -0.000011  -0.517846 0.440672 0.544075
35  0.000000 11.692572 -0.000001  0.000001 -0.000005 -0.924409
36  -0.000002 0.000000 -0.000002  0.000005 0.000000 1.570801
37  11.692573 0.000055 0.000044  0.000005 -0.000002 -0.924401
38  -0.000002 11.481681 0.000001  0.599572 0.505827 0.929091
39  -0.000000 -0.000003 -0.000001  0.000000 -0.000000 1.570789
40  11.481687 -0.000054 0.000008  0.590937 -0.516249 0.609271
41  0.137968 3.859853 1.332474  -1.465818 -1.619513 0.860301
42  -0.000002 0.000002 0.000000  1.933714 0.000004 1.570794
43  3.859860 -0.137941 1.332475  0.357808 -0.048451 -0.605405
44  -0.000003 1.719433 0.000003  -0.420877 0.202310 0.066145
45  -0.000001 0.000000 0.000001  1.743430 0.000000 1.570799
46  1.719437 0.000007 -0.000008  0.000190 -0.009100 -0.438600
47  -0.000000 1.099661 0.000001  1.022320 1.907796 1.050291
48  -0.000000 0.000001 0.000002  -0.000002 0.000003 1.570799
49  1.099664 0.000001 0.000004  -0.000120 0.002600 -0.290953
50  0.046789 3.883684 0.431451  -0.026782 -1.505150 -0.645535
51  0.000000 0.000002 0.000001  1.590082 0.000009 1.570787
52  3.883691 -0.046762 0.431451  0.084908 0.001748 -0.672265
53  0.000000 1.719575 0.000002  -0.720014 0.051523 -0.006475
54  0.000001 0.000000 -0.000000  1.538381 -0.000002 1.570794
55  1.719578 0.000015 -0.000017  -0.003913 0.016391 -0.719542
56  0.000003 1.209181 -0.000002  -1.502650 1.085749 -1.507481
57  -0.000000 -0.000001 0.000000  -0.000000 -0.000000 1.570805
58  1.209183 -0.000004 -0.000001  -0.000816 0.002971 -0.483988
59  -0.046751 3.942323 -0.431435  -0.325645 -1.473487 -0.661546
60  0.000000 0.000000 -0.000002  1.317660 0.000000 1.570797
61  3.942329 0.046778 -0.431436  -0.160912 0.031088 -0.985752
62  -0.000001 1.539093 0.000001  -0.254929 -0.026494 -0.056799
63  0.000001 -0.000001 -0.000000  1.337310 -0.000004 1.570800
64  1.539097 0.000004 0.000001  -0.000026 0.003495 -0.262484
65  0.000001 1.196322 0.000000  -1.012806 1.118568 -1.059227
66  -0.000001 -0.000000 -0.000000  0.000000 -0.000001 1.570800
67  1.196327 -0.000004 0.000005  0.000000 0.000003 -0.390911
68  0.142426 3.859700 -1.191966  -0.666825 -1.423832 -0.302197
69  0.000001 0.000001 0.000002  0.976757 -0.000005 1.570807
70  3.859707 -0.142401 -1.191965  -0.478237 0.090703 -0.963753
71  0.000001 1.312567 0.000003  -0.361099 -0.138963 -0.204711
72  0.000000 -0.000000 -0.000001  1.078169 0.000003 1.570794
73  1.312572 -0.000013 0.000010  0.000004 -0.001467 -0.437008
74  0.000000 0.729363 -0.000003  -0.403964 1.030558 -0.462421
75  -0.000000 0.000000 0.000000  -0.000001 -0.000001 1.570795
76  0.729366 0.000002 -0.000001  0.000001 -0.000004 -0.231517
77  0.348928 0.806039 1.321260  -1.143157 -2.276610 0.650330
78  0.000001 -0.000000 -0.000000  0.437032 0.000002 1.570791
79  0.806044 -0.348924 1.321261  -1.473519 -0.631361 -0.380895
80  -0.000001 1.789785 -0.000001  0.105699 0.066376 0.343762
81  -0.000000 -0.000001 0.000000  0.347279 0.000000 1.570806
82  1.789789 0.000009 -0.000002  0.002658 0.043707 0.349659
83  0.000001 1.206998 0.000000  0.184155 0.296117 0.568124
84  -0.000000 -0.000001 -0.000000  0.000001 -0.000001 1.570797
85  1.207003 -0.000012 0.000004  -0.000004 0.000001 0.540572
86  0.000000 0.000000 1.000000  1.570796 -0.000000 0.000000
time 4
0  0.000000 3.875112 -8.644796  -1.570797 -1.391899 -1.570795
1  2.033355 1.000772 -1.937610  1.473119 1.855075 -0.198639
2  6.028143 -0.000001 0.000000  1.865590 1.468897 -0.696465
3  11.692555 0.000000 0.000002  0.000000 0.000000 -0.415947
4  11.481699 0.000000 0.000003  -1.288472 0.007058 0.251866
5  3.859674 -0.132570 1.193107  0.432208 -0.155862 -0.861350
6  1.312557 -0.000003 0.000001  -0.000000 0.000000 -1.191994
7  0.729368 -0.000001 -0.000002  0.000000 0.000000 -1.063394
8  3.942303 0.050328 0.431044  0.232421 0.000609 -0.853331
9  1.539100 -0.000002 -0.000001  0.000000 -0.000000 -0.973399
10  1.196320 0.000009 0.000000  -0.000000 -0.000000 -1.451289
11  3.883657 -0.050323 -0.431042  0.066987 0.050243 -0.694792
12  1.719576 -0.000000 -0.000001  0.000000 -0.000000 -1.251039
13  1.209186 0.000000 -0.000000  0.000000 -0.000003 -1.141145
14  3.859838 -0.148938 -1.331282  -0.248855 0.263129 -0.072121
15  1.719423 0.000001 0.000002  0.000000 -0.000000 -0.676756
16  1.099664 -0.000004 0.000002  -0.000000 0.000000 -1.021287
17  0.806019 -0.359837 -1.318334  1.349685 0.343493 -0.771450
18  1.789780 0.000001 -0.000001  -0.000000 0.000000 0.397500
19  1.206999 0.000003 0.000000  0.000000 0.000000 0.989033
20  6.104522 -1.468680 -3.530282  -1.564198 -0.011689 -1.581440
21  3.820735 -1.409994 -0.589409  -1.564198 -0.011689 -1.581439
22  0.222826 -3.739062 1.509297  0.024887 2.851473 -1.494016
23  3.048726 6.125611 1.106839  1.596061 0.018247 -0.808184
24  3.527214 5.063570 0.216258  1.596061 0.018246 -0.808184
25  3.352949 5.114329 -0.401209  1.596061 0.018247 -0.808184
26  2.909481 4.772882 -1.012058  1.596061 0.018247 -0.808184
27  1.772478 4.476571 2.356867  1.596061 0.018247 -0.808184
28  0.000006 3.336140 -8.647861  -1.570799 -1.391898 -1.570795
29  2.033350 1.000764 1.937663  1.227517 0.585911 1.190966
30  2.126240 1.531685 1.937679  1.227515 0.585914 1.190966
31  0.000001 -0.000001 0.000004  1.583265 0.000007 1.570794
32  0.000000 6.028147 -0.000001  -0.459535 -0.484914 -0.841379
33  -0.000001 0.000009 -0.000004  -0.000002 0.000003 1.570792
34  0.000017 6.028143 -0.000011  -0.531446 0.403237 0.502699
35  -0.000000 11.692570 0.000000  0.000000 -0.000005 -0.800978
36  0.000001 0.000001 -0.000003  0.000005 0.000000 1.570801
37  11.692571 0.000055 0.000041  0.000005 -0.000002 -0.800969
38  -0.000000 11.481683 -0.000000  0.427449 0.491251 0.844097
39  -0.000001 0.000002 -0.000001  0.000000 -0.000000 1.570789
40  11.481686 -0.000056 0.000008  0.531466 -0.374195 0.632417
41  0.137967 3.859859 1.332473  -1.465590 -1.619471 0.860181
42  0.000000 -0.000000 -0.000000  1.933714 0.000004 1.570794
43  3.859859 -0.137941 1.332472  0.357801 -0.048407 -0.605290
44  -0.000001 1.719426 -0.000001  -0.420929 0.202310 0.066145
45  -0.000000 0.000001 -0.000000  1.743430 0.000000 1.570798
46  1.719434 0.000004 -0.000006  0.000190 -0.009108 -0.438652
47  0.000001 1.099661 -0.000000  1.022413 1.907850 1.050389
48  0.000001 0.000001 0.000001  -0.000002 0.000003 1.570799
49  1.099664 0.000001 0.000003  -0.000119 0.002600 -0.291016
50  0.046788 3.883688 0.431449  -0.027619 -1.505149 -0.644571
51  0.000001 0.000000 -0.000001  1.590082 0.000009 1.570787
52  3.883689 -0.046762 0.431448  0.084907 0.001803 -0.672135
53  0.000000 1.719575 -0.000002  -0.720088 0.051523 -0.006475
54  0.000001 -0.000000 -0.000001  1.538381 -0.000002 1.570794
55  1.719581 0.000016 -0.000016  -0.003915 0.016393 -0.719616
56  0.000000 1.209184 -0.000002  -1.502661 1.085665 -1.507494
57  0.000001 0.000000 0.000001  -0.000000 -0.000000 1.570805
58  1.209187 -0.000005 -0.000002  -0.000816 0.002971 -0.484071
59  -0.046751 3.942328 -0.431436  -0.326146 -1.473465 -0.660839
60  0.000001 -0.000000 -0.000002  1.317660 0.000000 1.570797
61  3.942327 0.046778 -0.431437  -0.160906 0.031141 -0.985543
62  0.000001 1.539091 -0.000001  -0.255082 -0.026494 -0.056799
63  0.000000 -0.000000 0.000002  1.337310 -0.000004 1.570800
64  1.539098 0.000001 0.000001  -0.000026 0.003531 -0.262632
65  -0.000000 1.196323 0.000004  -1.013053 1.118374 -1.059503
66  0.000002 0.000000 -0.000001  0.000000 -0.000001 1.570800
67  1.196325 -0.000008 0.000004  0.000001 0.000003 -0.391138
68  0.142425 3.859707 -1.191969  -0.667177 -1.423756 -0.301584
69  0.000000 0.000001 -0.000000  0.976757 -0.000005 1.570807
70  3.859707 -0.142400 -1.191970  -0.478209 0.090791 -0.963487
71  -0.000001 1.312566 -0.000001  -0.361309 -0.138963 -0.204711
72  0.000000 0.000000 0.000003  1.078169 0.000003 1.570794
73  1.312570 -0.000012 0.000008  0.000004 -0.001367 -0.437192
74  0.000000 0.729365 0.000003  -0.404339 1.030462 -0.462858
75  -0.000003 -0.000000 -0.000000  -0.000001 -0.000001 1.570795
76  0.729367 0.000007 -0.000001  0.000001 -0.000004 -0.231761
77  0.348927 0.806042 1.321258  -1.143065 -2.276568 0.650314
78  0.000000 0.000000 0.000001  0.437032 0.000002 1.570790
79  0.806044 -0.348924 1.321258  -1.473556 -0.631295 -0.380818
80  -0.000000 1.789783 0.000002  0.105698 0.066377 0.343744
81  0.000000 -0.000001 0.000001  0.347279 0.000000 1.570806
82  1.789787 0.000012 0.000000  0.002657 0.043701 0.349642
83  0.000000 1.206996 0.000003  0.184147 0.296122 0.568094
84  0.000000 0.000001 -0.000001  0.000001 -0.000001 1.570797
85  1.206999 -0.000011 0.000006  -0.000004 0.000001 0.540543
86  0.000000 0.000000 1.000000  1.570796 -0.000000 0.000000
time 5
0  0.000000 3.726670 -8.644795  -1.570797 -1.391899 -1.570795
1  2.033355 1.000771 -1.937610  1.473119 1.855075 -0.198639
2  6.028143 -0.000000 0.000000  1.921464 1.484460 -0.640300
3  11.692556 0.000002 0.000003  0.000000 0.000000 -0.382487
4  11.481697 0.000003 0.000002  -1.288127 0.006668 0.302887
5  3.859678 -0.132570 1.193108  0.432208 -0.155862 -0.861350
6  1.312557 -0.000004 -0.000000  -0.000000 0.000000 -1.191994
7  0.729367 0.000002 -0.000003  0.000000 -0.000000 -1.063394
8  3.942305 0.050328 0.431044  0.232421 0.000609 -0.853331
9  1.539098 -0.000002 -0.000001  0.000000 -0.000000 -0.973399
10  1.196320 0.000013 -0.000000  -0.000000 -0.000000 -1.451289
11  3.883663 -0.050323 -0.431042  0.066987 0.050243 -0.694792
12  1.719576 0.000001 -0.000001  0.000000 -0.000000 -1.251039
13  1.209186 0.000002 -0.000001  0.000000 -0.000003 -1.141173
14  3.859841 -0.148937 -1.331282  -0.248855 0.263129 -0.072121
15  1.719423 0.000001 0.000000  0.000000 -0.000000 -0.676756
16  1.099664 0.000001 0.000001  -0.000000 0.000000 -1.021287
17  0.806024 -0.359836 -1.318333  1.349685 0.343493 -0.771450
18  1.789782 0.000001 -0.000002  0.000000 0.000000 0.397500
19  1.207002 0.000003 -0.000001  0.000000 0.000000 0.989033
20  6.104527 -1.468679 -3.530283  -1.564198 -0.011689 -1.581440
21  3.820741 -1.409993 -0.589409  -1.564198 -0.011689 -1.581439
22  0.222819 -3.739061 1.509297  0.024887 2.851473 -1.494016
23  3.048727 6.125612 1.106841  1.596061 0.018247 -0.808184
24  3.527214 5.063568 0.216259  1.596061 0.018246 -0.808184
25  3.352950 5.114328 -0.401206  1.596061 0.018247 -0.808184
26  2.909482 4.772883 -1.012056  1.596061 0.018247 -0.808184
27  1.772479 4.476571 2.356868  1.596061 0.018247 -0.808184
28  0.000006 3.336140 -8.647861  -1.570799 -1.391898 -1.570795
29  2.033350 1.000764 1.937663  1.227517 0.585911 1.190966
30  2.099824 1.385612 1.937679  1.227515 0.585914 1.190966
31  0.000001 -0.000001 0.000004  1.583265 0.000007 1.570794
32  0.000000 6.028147 -0.000001  -0.447499 -0.491332 -0.859199
33  -0.000000 0.000010 -0.000006  -0.000002 0.000003 1.570791
34  0.000017 6.028143 -0.000011  -0.535662 0.391444 0.488891
35  -0.000000 11.692570 0.000000  -0.000000 -0.000005 -0.761074
36  0.000000 0.000001 -0.000003  0.000005 0.000000 1.570801
37  11.692571 0.000056 0.000041  0.000004 -0.000002 -0.761066
38  0.000000 11.481681 -0.000002  0.354778 0.485179 0.817896
39  -0.000000 -0.000001 0.000001  0.000000 -0.000000 1.570789
40  11.481686 -0.000055 0.000009  0.512178 -0.312340 0.646810
41  0.137967 3.859856 1.332474  -1.465572 -1.619480 0.860207
42  0.000000 0.000001 -0.000000  1.933714 0.000004 1.570794
43  3.859861 -0.137941 1.332473  0.357799 -0.048416 -0.605242
44  0.000001 1.719428 -0.000001  -0.420983 0.202310 0.066145
45  -0.000000 0.000001 0.000002  1.743430 0.000000 1.570799
46  1.719432 0.000005 -0.000006  0.000191 -0.009118 -0.438704
47  0.000000 1.099661 0.000002  1.022486 1.907892 1.050468
48  0.000001 -0.000001 -0.000002  -0.000002 0.000003 1.570799
49  1.099663 -0.000001 0.000003  -0.000120 0.002600 -0.291065
50  0.046788 3.883684 0.431450  -0.027579 -1.505149 -0.644585
51  -0.000000 0.000003 -0.000002  1.590082 0.000009 1.570787
52  3.883689 -0.046761 0.431449  0.084908 0.001800 -0.672107
53  -0.000001 1.719581 -0.000001  -0.720122 0.051523 -0.006475
54  -0.000000 -0.000001 0.000000  1.538381 -0.000002 1.570794
55  1.719584 0.000016 -0.000017  -0.003915 0.016394 -0.719650
56  -0.000001 1.209183 0.000001  -1.502665 1.085632 -1.507499
57  0.000002 -0.000001 0.000000  -0.000000 -0.000000 1.570805
58  1.209187 0.000002 -0.000002  -0.000816 0.002971 -0.484105
59  -0.046751 3.942327 -0.431435  -0.326132 -1.473462 -0.660796
60  0.000000 0.000001 -0.000002  1.317660 0.000000 1.570797
61  3.942331 0.046779 -0.431436  -0.160902 0.031141 -0.985486
62  -0.000001 1.539093 -0.000001  -0.255145 -0.026494 -0.056799
63  -0.000000 -0.000001 0.000001  1.337310 -0.000004 1.570800
64  1.539096 -0.000001 -0.000000  -0.000026 0.003545 -0.262694
65  0.000000 1.196323 0.000003  -1.013149 1.118300 -1.059609
66  0.000002 0.000000 0.000000  0.000000 -0.000001 1.570800
67  1.196326 -0.000002 0.000005  0.000000 0.000004 -0.391226
68  0.142426 3.859703 -1.191966  -0.667197 -1.423744 -0.301497
69  -0.000001 0.000001 0.000003  0.976757 -0.000005 1.570807
70  3.859707 -0.142400 -1.191967  -0.478201 0.090801 -0.963418
71  -0.000000 1.312567 0.000003  -0.361383 -0.138963 -0.204711
72  0.000001 0.000000 0.000001  1.078169 0.000003 1.570794
73  1.312569 -0.000016 0.000009  0.000005 -0.001333 -0.437257
74  0.000002 0.729363 -0.000003  -0.404466 1.030429 -0.463006
75  -0.000001 0.000000 0.000001  -0.000001 -0.000001 1.570795
76  0.729366 -0.000003 -0.000003  0.000001 -0.000004 -0.231844
77  0.348927 0.806041 1.321260  -1.143068 -2.276597 0.650326
78  0.000000 0.000001 0.000001  0.437032 0.000002 1.570790
79  0.806045 -0.348924 1.321259  -1.473572 -0.631320 -0.380800
80  0.000001 1.789784 0.000003  0.105699 0.066374 0.343766
81  -0.000001 -0.000000 -0.000000  0.347279 0.000000 1.570806
82  1.789786 0.000011 0.000002  0.002657 0.043709 0.349663
83  -0.000000 1.206998 -0.000002  0.184157 0.296116 0.568131
84  -0.000001 -0.000001 0.000000  0.000001 -0.000001 1.570797
85  1.207000 -0.000012 0.000004  -0.000004 0.000001 0.540578
86  0.000000 0.000000 1.000000  1.570796 -0.000000 0.000000
time 6
0  0.000000 3.609479 -8.644796  -1.570797 -1.391899 -1.570795
1  2.033355 1.000772 -1.937610  1.473119 1.855075 -0.198639
2  6.028143 -0.000000 0.000000  1.971053 1.494602 -0.590500
3  11.692556 0.000003 0.000002  0.000000 0.000000 -0.360268
4  11.481696 -0.000000 0.000002  -1.288036 0.006565 0.316286
5  3.859680 -0.132569 1.193106  0.432208 -0.155862 -0.861350
6  1.312557 -0.000003 0.000000  -0.000000 0.000000 -1.191994
7  0.729366 0.000002 -0.000003  0.000000 -0.000000 -1.063394
8  3.942305 0.050329 0.431043  0.232421 0.000609 -0.853331
9  1.539098 -0.000001 -0.000001  0.000000 -0.000000 -0.973399
10  1.196319 0.000012 -0.000001  -0.000000 -0.000000 -1.451289
11  3.883661 -0.050322 -0.431042  0.066987 0.050243 -0.694792
12  1.719576 -0.000001 -0.000000  0.000000 -0.000000 -1.251039
13  1.209184 0.000004 -0.000000  0.000000 -0.000003 -1.141173
14  3.859843 -0.148937 -1.331282  -0.248855 0.263129 -0.072121
15  1.719423 0.000001 -0.000000  0.000000 -0.000000 -0.676756
16  1.099664 -0.000000 -0.000001  -0.000000 0.000000 -1.021287
17  0.806026 -0.359836 -1.318334  1.349685 0.343493 -0.771450
18  1.789782 0.000002 -0.000004  -0.000000 0.000000 0.397500
19  1.206999 0.000003 0.000003  -0.000000 -0.000000 0.989033
20  6.104529 -1.468680 -3.530283  -1.564198 -0.011689 -1.581440
21  3.820742 -1.409994 -0.589409  -1.564198 -0.011689 -1.581439
22  0.222813 -3.739059 1.509298  0.024887 2.851473 -1.494016
23  3.048727 6.125610 1.106841  1.596061 0.018247 -0.808184
24  3.527214 5.063566 0.216259  1.596061 0.018246 -0.808184
25  3.352950 5.114326 -0.401207  1.596061 0.018247 -0.808184
26  2.909482 4.772881 -1.012056  1.596061 0.018247 -0.808184
27  1.772479 4.476568 2.356868  1.596061 0.018247 -0.808184
28  0.000006 3.336140 -8.647861  -1.570799 -1.391898 -1.570795
29  2.033350 1.000764 1.937663  1.227517 0.585911 1.190966
30  2.078972 1.270292 1.937679  1.227515 0.585914 1.190966
31  0.000001 -0.000001 0.000004  1.583265 0.000007 1.570794
32  0.000000 6.028147 -0.000001  -0.437253 -0.496443 -0.874199
33  0.000001 0.000009 -0.000006  -0.000002 0.000003 1.570792
34  0.000017 6.028143 -0.000011  -0.538912 0.381523 0.477523
35  0.000001 11.692571 -0.000000  -0.000000 -0.000005 -0.728492
36  -0.000001 0.000001 -0.000002  0.000005 0.000000 1.570801
37  11.692571 0.000053 0.000041  0.000004 -0.000002 -0.728483
38  -0.000002 11.481683 0.000000  0.326340 0.482428 0.797319
39  -0.000000 0.000000 0.000001  0.000000 -0.000000 1.570789
40  11.481687 -0.000053 0.000009  0.505050 -0.287949 0.641569
41  0.137968 3.859862 1.332474  -1.465563 -1.619484 0.860222
42  -0.000000 -0.000000 0.000001  1.933714 0.000004 1.570794
43  3.859864 -0.137941 1.332473  0.357798 -0.048420 -0.605210
44  0.000000 1.719429 0.000001  -0.421016 0.202310 0.066145
45  0.000000 -0.000001 -0.000000  1.743430 0.000000 1.570798
46  1.719434 0.000005 -0.000005  0.000191 -0.009123 -0.438737
47  0.000001 1.099661 -0.000001  1.022534 1.907920 1.050518
48  0.000001 -0.000001 -0.000000  -0.000002 0.000003 1.570799
49  1.099666 0.000001 0.000004  -0.000120 0.002599 -0.291097
50  0.046789 3.883691 0.431451  -0.027600 -1.505149 -0.644544
51  0.000000 -0.000000 0.000000  1.590082 0.000009 1.570787
52  3.883694 -0.046762 0.431450  0.084908 0.001802 -0.672084
53  0.000001 1.719577 0.000000  -0.720144 0.051523 -0.006475
54  -0.000001 0.000000 -0.000002  1.538381 -0.000002 1.570794
55  1.719582 0.000015 -0.000016  -0.003915 0.016395 -0.719671
56  -0.000004 1.209184 -0.000001  -1.502668 1.085610 -1.507501
57  0.000000 -0.000000 0.000000  -0.000000 -0.000000 1.570805
58  1.209187 -0.000003 -0.000006  -0.000817 0.002971 -0.484127
59  -0.046751 3.942328 -0.431436  -0.326154 -1.473459 -0.660736
60  0.000001 0.000001 0.000000  1.317660 0.000000 1.570797
61  3.942331 0.046778 -0.431438  -0.160901 0.031144 -0.985446
62  -0.000000 1.539091 0.000001  -0.255183 -0.026494 -0.056799
63  0.000001 -0.000000 -0.000004  1.337310 -0.000004 1.570800
64  1.539096 -0.000000 0.000000  -0.000026 0.003554 -0.262731
65  0.000001 1.196324 -0.000005  -1.013208 1.118254 -1.059675
66  -0.000003 -0.000000 -0.000000  0.000000 -0.000001 1.570800
67  1.196328 -0.000007 0.000004  0.000001 0.000004 -0.391280
68  0.142426 3.859708 -1.191968  -0.667218 -1.423735 -0.301430
69  -0.000001 -0.000001 0.000001  0.976757 -0.000005 1.570807
70  3.859711 -0.142400 -1.191968  -0.478195 0.090809 -0.963371
71  -0.000003 1.312570 0.000006  -0.361430 -0.138963 -0.204711
72  -0.000001 0.000001 -0.000001  1.078169 0.000003 1.570794
73  1.312576 -0.000009 0.000009  0.000005 -0.001310 -0.437299
74  -0.000002 0.729365 -0.000001  -0.404548 1.030408 -0.463103
75  -0.000000 0.000001 -0.000001  -0.000001 -0.000001 1.570795
76  0.729366 0.000003 -0.000001  0.000002 -0.000004 -0.231898
77  0.348928 0.806045 1.321260  -1.143067 -2.276611 0.650332
78  0.000001 -0.000001 -0.000001  0.437032 0.000002 1.570791
79  0.806049 -0.348924 1.321259  -1.473582 -0.631331 -0.380786
80  -0.000000 1.789785 -0.000000  0.105700 0.066374 0.343776
81  -0.000001 0.000001 -0.000001  0.347279 0.000000 1.570806
82  1.789791 0.000013 -0.000001  0.002658 0.043712 0.349673
83  -0.000002 1.207000 -0.000002  0.184162 0.296113 0.568148
84  -0.000000 0.000000 0.000001  0.000001 -0.000001 1.570797
85  1.207003 -0.000011 0.000004  -0.000004 0.000001 0.540595
86  0.000000 0.000000 1.000000  1.570796 -0.000000 0.000000
time 7
0  0.000000 3.515726 -8.644796  -1.570797 -1.391899 -1.570795
1  2.033356 1.000772 -1.937610  1.473119 1.855075 -0.198639
2  6.028143 -0.000000 0.000000  2.017305 1.501986 -0.544136
3  11.692556 0.000002 0.000002  0.000000 0.000000 -0.343764
4  11.481699 0.000001 0.000001  -1.288326 0.006894 0.272987
5  3.859677 -0.132570 1.193108  0.432208 -0.155862 -0.861350
6  1.312559 -0.000003 0.000001  -0.000000 0.000000 -1.191994
7  0.729365 0.000000 -0.000004  0.000000 -0.000000 -1.063394
8  3.942305 0.050328 0.431045  0.232421 0.000609 -0.853331
9  1.539098 -0.000003 -0.000000  0.000000 -0.000000 -0.973399
10  1.196320 0.000009 0.000000  -0.000000 -0.000000 -1.451289
11  3.883663 -0.050323 -0.431041  0.066987 0.050243 -0.694792
12  1.719578 -0.000000 -0.000001  -0.000000 -0.000000 -1.251039
13  1.209185 0.000002 -0.000000  0.000000 -0.000003 -1.141145
14  3.859842 -0.148938 -1.331282  -0.248855 0.263129 -0.072121
15  1.719422 0.000001 0.000001  0.000000 -0.000000 -0.676756
16  1.099665 0.000003 0.000001  -0.000000 0.000000 -1.021287
17  0.806023 -0.359837 -1.318333  1.349685 0.343493 -0.771450
18  1.789783 0.000002 -0.000005  -0.000000 0.000000 0.397500
19  1.206999 0.000004 -0.000002  -0.000000 0.000000 0.989033
20  6.104528 -1.468680 -3.530282  -1.564198 -0.011689 -1.581440
21  3.820740 -1.409994 -0.589409  -1.564198 -0.011689 -1.581439
22  0.222810 -3.739062 1.509298  0.024887 2.851473 -1.494016
23  3.048727 6.125613 1.106841  1.596061 0.018247 -0.808184
24  3.527214 5.063569 0.216259  1.596061 0.018246 -0.808184
25  3.352950 5.114329 -0.401206  1.596061 0.018247 -0.808184
26  2.909482 4.772883 -1.012056  1.596061 0.018247 -0.808184
27  1.772479 4.476570 2.356867  1.596061 0.018247 -0.808184
28  0.000006 3.336140 -8.647861  -1.570799 -1.391898 -1.570795
29  2.033350 1.000764 1.937663  1.227517 0.585911 1.190966
30  2.062289 1.178035 1.937679  1.227515 0.585914 1.190966
31  0.000001 -0.000001 0.000004  1.583265 0.000007 1.570794
32  0.000000 6.028147 -0.000001  -0.426747 -0.501171 -0.889102
33  -0.000000 0.000009 -0.000006  -0.000002 0.000003 1.570792
34  0.000017 6.028143 -0.000011  -0.541741 0.371495 0.466606
35  0.000000 11.692570 -0.000000  -0.000000 -0.000005 -0.697335
36  0.000001 0.000000 -0.000001  0.000005 0.000000 1.570801
37  11.692571 0.000055 0.000042  0.000005 -0.000002 -0.697326
38  0.000000 11.481682 0.000001  0.357364 0.484088 0.778468
39  -0.000001 -0.000002 0.000001  0.000000 -0.000000 1.570789
40  11.481686 -0.000055 0.000007  0.511460 -0.314782 0.606397
41  0.137968 3.859858 1.332474  -1.465520 -1.619469 0.860178
42  0.000000 0.000001 0.000001  1.933714 0.000004 1.570794
43  3.859865 -0.137941 1.332472  0.357798 -0.048405 -0.605220
44  0.000000 1.719429 0.000003  -0.420985 0.202310 0.066145
45  -0.000000 0.000000 0.000001  1.743430 0.000000 1.570798
46  1.719434 0.000010 -0.000006  0.000190 -0.009118 -0.438707
47  -0.000000 1.099663 0.000001  1.022497 1.907898 1.050479
48  -0.000002 -0.000000 -0.000000  -0.000002 0.000003 1.570799
49  1.099665 0.000001 0.000001  -0.000120 0.002600 -0.291072
50  0.046788 3.883685 0.431450  -0.027766 -1.505149 -0.644366
51  -0.000001 0.000000 -0.000002  1.590082 0.000009 1.570787
52  3.883692 -0.046761 0.431447  0.084907 0.001813 -0.672074
53  -0.000001 1.719572 -0.000002  -0.720135 0.051523 -0.006475
54  0.000000 -0.000000 0.000002  1.538381 -0.000002 1.570794
55  1.719578 0.000015 -0.000017  -0.003915 0.016395 -0.719663
56  0.000001 1.209180 -0.000004  -1.502667 1.085615 -1.507501
57  -0.000003 -0.000001 0.000001  -0.000000 -0.000000 1.570805
58  1.209183 -0.000007 -0.000003  -0.000817 0.002971 -0.484122
59  -0.046750 3.942322 -0.431436  -0.326247 -1.473457 -0.660637
60  0.000000 0.000000 -0.000001  1.317660 0.000000 1.570797
61  3.942328 0.046778 -0.431438  -0.160901 0.031153 -0.985440
62  -0.000001 1.539091 -0.000001  -0.255172 -0.026494 -0.056799
63  0.000000 0.000000 -0.000000  1.337310 -0.000004 1.570800
64  1.539095 -0.000003 0.000001  -0.000026 0.003551 -0.262720
65  0.000001 1.196322 0.000001  -1.013196 1.118264 -1.059661
66  0.000000 0.000000 0.000001  0.000000 -0.000001 1.570800
67  1.196326 -0.000003 0.000006  0.000000 0.000003 -0.391269
68  0.142426 3.859703 -1.191966  -0.667273 -1.423727 -0.301363
69  0.000000 0.000000 0.000001  0.976757 -0.000005 1.570807
70  3.859710 -0.142400 -1.191969  -0.478194 0.090820 -0.963359
71  -0.000002 1.312567 0.000000  -0.361420 -0.138963 -0.204711
72  0.000001 0.000000 0.000000  1.078169 0.000003 1.570794
73  1.312572 -0.000013 0.000010  0.000005 -0.001315 -0.437290
74  -0.000003 0.729366 -0.000000  -0.404536 1.030411 -0.463089
75  0.000002 0.000000 0.000000  -0.000001 -0.000001 1.570795
76  0.729367 0.000002 -0.000001  0.000001 -0.000004 -0.231890
77  0.348927 0.806042 1.321261  -1.143040 -2.276578 0.650319
78  0.000000 0.000001 -0.000000  0.437032 0.000002 1.570791
79  0.806048 -0.348924 1.321259  -1.473579 -0.631295 -0.380782
80  0.000001 1.789784 -0.000004  0.105698 0.066376 0.343753
81  0.000000 0.000000 -0.000000  0.347279 0.000000 1.570806
82  1.789787 0.000010 -0.000006  0.002657 0.043704 0.349650
83  -0.000002 1.207001 0.000002  0.184151 0.296120 0.568110
84  0.000000 -0.000000 -0.000001  0.000001 -0.000001 1.570797
85  1.207004 -0.000007 0.000007  -0.000004 0.000001 0.540558
86  0.000000 0.000000 1.000000  1.570796 -0.000000 0.000000
time 8
0  0.000000 3.445412 -8.644795  -1.570797 -1.391899 -1.570795
1  2.033356 1.000772 -1.937610  1.473119 1.855075 -0.198639
2  6.028143 0.000000 0.000000  2.058984 1.507408 -0.502369
3  11.692556 0.000001 0.000001  0.000000 0.000000 -0.331395
4  11.481697 -0.000001 0.000002  -1.288617 0.007202 0.232438
5  3.859679 -0.132569 1.193108  0.432208 -0.155862 -0.861350
6  1.312557 -0.000002 -0.000000  -0.000000 0.000000 -1.191994
7  0.729364 0.000001 -0.000003  0.000000 0.000000 -1.063394
8  3.942305 0.050329 0.431044  0.232421 0.000609 -0.853331
9  1.539100 0.000002 0.000000  0.000000 -0.000000 -0.973399
10  1.196321 0.000011 0.000000  -0.000000 -0.000000 -1.451289
11  3.883662 -0.050323 -0.431043  0.066987 0.050243 -0.694792
12  1.719580 0.000002 -0.000001  0.000000 -0.000000 -1.251039
13  1.209184 -0.000000 0.000000  0.000000 -0.000003 -1.141145
14  3.859843 -0.148937 -1.331282  -0.248855 0.263129 -0.072121
15  1.719423 0.000001 0.000001  0.000000 -0.000000 -0.676756
16  1.099668 0.000002 0.000000  -0.000000 0.000000 -1.021287
17  0.806025 -0.359837 -1.318334  1.349685 0.343493 -0.771450
18  1.789780 0.000001 -0.000002  -0.000000 0.000000 0.397500
19  1.206999 0.000003 0.000002  -0.000000 0.000000 0.989033
20  6.104529 -1.468679 -3.530283  -1.564198 -0.011689 -1.581440
21  3.820742 -1.409994 -0.589409  -1.564198 -0.011689 -1.581439
22  0.222816 -3.739062 1.509296  0.024887 2.851473 -1.494016
23  3.048727 6.125610 1.106840  1.596061 0.018247 -0.808184
24  3.527214 5.063567 0.216258  1.596061 0.018246 -0.808184
25  3.352950 5.114328 -0.401207  1.596061 0.018247 -0.808184
26  2.909481 4.772882 -1.012057  1.596061 0.018247 -0.808184
27  1.772478 4.476569 2.356868  1.596061 0.018247 -0.808184
28  0.000006 3.336140 -8.647861  -1.570799 -1.391898 -1.570795
29  2.033350 1.000764 1.937663  1.227517 0.585911 1.190966
30  2.049776 1.108843 1.937679  1.227515 0.585914 1.190966
31  0.000001 -0.000001 0.000004  1.583265 0.000007 1.570794
32  0.000000 6.028147 -0.000001  -0.418309 -0.504850 -0.901135
33  -0.000000 0.000009 -0.000006  -0.000002 0.000003 1.570792
34  0.000017 6.028143 -0.000011  -0.543915 0.363490 0.457860
35  -0.000000 11.692572 -0.000000  -0.000000 -0.000005 -0.672567
36  -0.000000 0.000001 -0.000004  0.000005 0.000000 1.570801
37  11.692571 0.000056 0.000042  0.000005 -0.000002 -0.672558
38  -0.000000 11.481683 -0.000001  0.388633 0.485879 0.763748
39  -0.000001 -0.000000 -0.000000  0.000000 -0.000000 1.570789
40  11.481686 -0.000052 0.000008  0.518566 -0.341674 0.574808
41  0.137968 3.859856 1.332474  -1.465488 -1.619452 0.860130
42  0.000000 0.000001 0.000000  1.933714 0.000004 1.570794
43  3.859864 -0.137941 1.332474  0.357798 -0.048388 -0.605240
44  -0.000001 1.719432 0.000001  -0.420940 0.202310 0.066145
45  -0.000001 0.000002 0.000002  1.743430 0.000000 1.570798
46  1.719435 0.000006 -0.000008  0.000190 -0.009110 -0.438662
47  -0.000001 1.099664 -0.000000  1.022438 1.907864 1.050417
48  0.000004 -0.000001 -0.000000  -0.000002 0.000003 1.570799
49  1.099667 -0.000002 0.000003  -0.000120 0.002600 -0.291032
50  0.046788 3.883684 0.431449  -0.027942 -1.505149 -0.644185
51  -0.000000 0.000002 0.000000  1.590082 0.000009 1.570787
52  3.883691 -0.046762 0.431449  0.084907 0.001824 -0.672070
53  0.000001 1.719575 -0.000003  -0.720122 0.051523 -0.006475
54  -0.000002 0.000000 0.000002  1.538381 -0.000002 1.570794
55  1.719577 0.000013 -0.000015  -0.003915 0.016394 -0.719649
56  -0.000001 1.209184 0.000003  -1.502666 1.085626 -1.507500
57  0.000001 -0.000000 0.000001  -0.000000 -0.000000 1.570805
58  1.209187 0.000001 -0.000003  -0.000816 0.002971 -0.484111
59  -0.046751 3.942328 -0.431436  -0.326341 -1.473455 -0.660546
60  -0.000001 -0.000000 -0.000002  1.317660 0.000000 1.570797
61  3.942332 0.046778 -0.431436  -0.160902 0.031162 -0.985443
62  -0.000001 1.539093 -0.000001  -0.255150 -0.026494 -0.056799
63  0.000001 -0.000001 0.000001  1.337310 -0.000004 1.570800
64  1.539098 0.000000 0.000001  -0.000026 0.003546 -0.262699
65  0.000000 1.196321 -0.000000  -1.013169 1.118285 -1.059631
66  0.000000 0.000001 -0.000000  0.000000 -0.000001 1.570800
67  1.196327 -0.000008 0.000004  0.000001 0.000003 -0.391244
68  0.142425 3.859705 -1.191969  -0.667317 -1.423723 -0.301319
69  -0.000000 -0.000000 0.000000  0.976757 -0.000005 1.570807
70  3.859712 -0.142400 -1.191969  -0.478195 0.090828 -0.963359
71  -0.000000 1.312564 -0.000001  -0.361398 -0.138963 -0.204711
72  0.000001 -0.000000 0.000001  1.078169 0.000003 1.570794
73  1.312570 -0.000015 0.000007  0.000004 -0.001325 -0.437271
74  0.000000 0.729364 0.000001  -0.404501 1.030420 -0.463050
75  0.000000 0.000000 0.000001  -0.000001 -0.000001 1.570795
76  0.729367 0.000004 -0.000000  0.000002 -0.000005 -0.231867
77  0.348927 0.806040 1.321259  -1.143014 -2.276541 0.650304
78  0.000001 -0.000003 0.000000  0.437032 0.000002 1.570790
79  0.806048 -0.348924 1.321259  -1.473573 -0.631254 -0.380781
80  0.000002 1.789780 -0.000000  0.105697 0.066379 0.343723
81  0.000001 -0.000000 0.000000  0.347279 0.000000 1.570806
82  1.789790 0.000010 -0.000002  0.002656 0.043694 0.349623
83  0.000002 1.206999 -0.000001  0.184138 0.296128 0.568064
84  0.000000 0.000003 -0.000000  0.000001 -0.000001 1.570797
85  1.207003 -0.000011 0.000004  -0.000003 0.000001 0.540513
86  0.000000 0.000000 1.000000  1.570796 -0.000000 0.000000
time 9
0  0.000000 3.394629 -8.644796  -1.570797 -1.391899 -1.570795
1  2.033356 1.000772 -1.937610  1.473119 1.855075 -0.198639
2  6.028143 -0.000000 0.000000  2.092978 1.511147 -0.468298
3  11.692556 0.000001 0.000003  0.000000 0.000000 -0.322636
4  11.481696 0.000001 0.000002  -1.288762 0.007346 0.210745
5  3.859680 -0.132570 1.193107  0.432208 -0.155862 -0.861350
6  1.312559 -0.000003 -0.000000  -0.000000 0.000000 -1.191994
7  0.729366 0.000000 -0.000002  0.000000 -0.000000 -1.063394
8  3.942308 0.050329 0.431044  0.232421 0.000609 -0.853331
9  1.539098 -0.000003 -0.000001  0.000000 -0.000000 -0.973399
10  1.196320 0.000010 -0.000000  -0.000000 -0.000000 -1.451289
11  3.883663 -0.050323 -0.431042  0.066987 0.050243 -0.694792
12  1.719578 -0.000002 -0.000000  0.000000 -0.000000 -1.251039
13  1.209186 0.000001 0.000000  0.000000 -0.000003 -1.141145
14  3.859841 -0.148937 -1.331283  -0.248855 0.263129 -0.072121
15  1.719424 0.000001 0.000001  0.000000 -0.000000 -0.676756
16  1.099667 0.000003 0.000000  -0.000000 0.000000 -1.021287
17  0.806023 -0.359837 -1.318334  1.349685 0.343493 -0.771450
18  1.789781 0.000002 -0.000002  -0.000000 0.000000 0.397500
19  1.206998 0.000004 0.000001  0.000000 0.000000 0.989033
20  6.104528 -1.468680 -3.530284  -1.564198 -0.011689 -1.581440
21  3.820741 -1.409994 -0.589410  -1.564198 -0.011689 -1.581439
22  0.222807 -3.739059 1.509295  0.024887 2.851473 -1.494016
23  3.048727 6.125610 1.106842  1.596061 0.018247 -0.808184
24  3.527214 5.063570 0.216259  1.596061 0.018246 -0.808184
25  3.352951 5.114326 -0.401205  1.596061 0.018247 -0.808184
26  2.909482 4.772882 -1.012056  1.596061 0.018247 -0.808184
27  1.772479 4.476571 2.356869  1.596061 0.018247 -0.808184
28  0.000006 3.336140 -8.647861  -1.570799 -1.391898 -1.570795
29  2.033350 1.000764 1.937663  1.227517 0.585911 1.190966
30  2.040741 1.058871 1.937679  1.227515 0.585914 1.190966
31  0.000001 -0.000001 0.000004  1.583265 0.000007 1.570794
32  0.000000 6.028147 -0.000001  -0.412469 -0.507440 -0.909672
33  -0.000001 0.000009 -0.000005  -0.000002 0.000003 1.570791
34  0.000017 6.028143 -0.000011  -0.545481 0.357954 0.451602
35  -0.000000 11.692570 0.000000  -0.000001 -0.000005 -0.655025
36  -0.000002 0.000001 -0.000002  0.000005 0.000000 1.570801
37  11.692571 0.000055 0.000041  0.000005 -0.000001 -0.655016
38  -0.000002 11.481683 -0.000001  0.403915 0.486658 0.753356
39  -0.000001 0.000004 -0.000000  0.000000 -0.000000 1.570789
40  11.481686 -0.000054 0.000008  0.522138 -0.354784 0.556056
41  0.137968 3.859862 1.332474  -1.465466 -1.619440 0.860091
42  -0.000000 -0.000001 -0.000001  1.933714 0.000004 1.570794
43  3.859862 -0.137942 1.332473  0.357798 -0.048376 -0.605254
44  -0.000000 1.719430 -0.000001  -0.420911 0.202310 0.066145
45  0.000000 0.000000 0.000000  1.743430 0.000000 1.570798
46  1.719438 0.000007 -0.000005  0.000190 -0.009105 -0.438633
47  0.000000 1.099662 -0.000003  1.022401 1.907843 1.050377
48  0.000004 0.000000 0.000000  -0.000002 0.000003 1.570799
49  1.099666 -0.000000 0.000003  -0.000119 0.002600 -0.291007
50  0.046789 3.883689 0.431451  -0.028051 -1.505149 -0.644072
51  0.000001 0.000001 -0.000000  1.590082 0.000009 1.570787
52  3.883688 -0.046763 0.431449  0.084906 0.001831 -0.672066
53  0.000001 1.719574 0.000001  -0.720113 0.051523 -0.006475
54  0.000001 -0.000000 0.000002  1.538381 -0.000002 1.570794
55  1.719578 0.000015 -0.000016  -0.003915 0.016394 -0.719641
56  0.000000 1.209183 0.000003  -1.502665 1.085632 -1.507499
57  -0.000000 -0.000000 0.000001  -0.000000 -0.000000 1.570805
58  1.209187 -0.000000 -0.000003  -0.000816 0.002971 -0.484105
59  -0.046750 3.942327 -0.431436  -0.326405 -1.473453 -0.660485
60  -0.000001 0.000001 0.000003  1.317660 0.000000 1.570797
61  3.942326 0.046778 -0.431438  -0.160903 0.031169 -0.985446
62  -0.000001 1.539091 0.000005  -0.255134 -0.026494 -0.056799
63  0.000000 0.000000 -0.000001  1.337310 -0.000004 1.570800
64  1.539096 0.000003 0.000001  -0.000026 0.003543 -0.262683
65  -0.000001 1.196323 0.000001  -1.013147 1.118301 -1.059608
66  -0.000001 -0.000000 -0.000001  0.000000 -0.000001 1.570800
67  1.196327 -0.000004 0.000001  0.000001 0.000003 -0.391224
68  0.142426 3.859706 -1.191967  -0.667348 -1.423719 -0.301290
69  0.000000 -0.000000 0.000000  0.976757 -0.000005 1.570807
70  3.859705 -0.142401 -1.191970  -0.478195 0.090833 -0.963360
71  -0.000000 1.312561 -0.000002  -0.361380 -0.138964 -0.204711
72  -0.000000 -0.000001 -0.000001  1.078169 0.000003 1.570794
73  1.312565 -0.000015 0.000006  0.000004 -0.001334 -0.437255
74  -0.000000 0.729364 -0.000000  -0.404475 1.030427 -0.463018
75  -0.000002 -0.000000 0.000001  -0.000001 -0.000001 1.570795
76  0.729368 0.000001 -0.000001  0.000002 -0.000005 -0.231850
77  0.348928 0.806047 1.321260  -1.142995 -2.276513 0.650292
78  -0.000001 0.000002 -0.000001  0.437032 0.000002 1.570791
79  0.806047 -0.348925 1.321260  -1.473569 -0.631224 -0.380781
80  -0.000002 1.789787 0.000002  0.105695 0.066382 0.343702
81  -0.000000 0.000000 0.000000  0.347279 0.000000 1.570806
82  1.789790 0.000012 0.000001  0.002655 0.043687 0.349603
83  -0.000002 1.207000 0.000002  0.184128 0.296134 0.568030
84  0.000000 0.000001 0.000000  0.000001 -0.000001 1.570797
85  1.207005 -0.000008 0.000004  -0.000003 0.000001 0.540481
86  0.000000 0.000000 1.000000  1.570796 -0.000000 0.000000
time 10
0  0.000000 3.359472 -8.644795  -1.570797 -1.391899 -1.570795
1  2.033356 1.000772 -1.937610  1.473119 1.855075 -0.198639
2  6.028143 -0.000000 0.000000  2.114837 1.513297 -0.446374
3  11.692556 0.000003 0.000002  0.000000 -0.000000 -0.317560
4  11.481696 0.000002 0.000002  -1.288835 0.007428 0.201108
5  3.859677 -0.132570 1.193107  0.432208 -0.155862 -0.861350
6  1.312556 -0.000005 -0.000002  -0.000000 0.000000 -1.191994
7  0.729366 -0.000000 -0.000003  0.000000 -0.000000 -1.063394
8  3.942302 0.050327 0.431045  0.232421 0.000609 -0.853331
9  1.539099 -0.000001 -0.000001  0.000000 -0.000000 -0.973399
10  1.196320 0.000012 0.000000  -0.000000 -0.000000 -1.451289
11  3.883659 -0.050324 -0.431041  0.066987 0.050243 -0.694792
12  1.719577 0.000001 0.000000  0.000000 -0.000000 -1.251039
13  1.209185 0.000001 -0.000000  0.000000 -0.000003 -1.141145
14  3.859838 -0.148938 -1.331281  -0.248855 0.263129 -0.072121
15  1.719423 0.000001 0.000001  0.000000 -0.000000 -0.676756
16  1.099666 -0.000000 0.000000  -0.000000 0.000000 -1.021287
17  0.806020 -0.359838 -1.318333  1.349685 0.343493 -0.771450
18  1.789780 0.000001 -0.000003  -0.000000 0.000000 0.397500
19  1.206997 0.000004 0.000001  -0.000000 -0.000000 0.989033
20  6.104524 -1.468681 -3.530282  -1.564198 -0.011689 -1.581440
21  3.820736 -1.409995 -0.589409  -1.564198 -0.011689 -1.581439
22  0.222822 -3.739064 1.509296  0.024887 2.851473 -1.494016
23  3.048726 6.125614 1.106841  1.596061 0.018247 -0.808184
24  3.527214 5.063568 0.216259  1.596061 0.018246 -0.808184
25  3.352950 5.114330 -0.401207  1.596061 0.018247 -0.808184
26  2.909482 4.772883 -1.012055  1.596061 0.018247 -0.808184
27  1.772478 4.476573 2.356869  1.596061 0.018247 -0.808184
28  0.000006 3.336140 -8.647861  -1.570799 -1.391898 -1.570795
29  2.033350 1.000764 1.937663  1.227517 0.585911 1.190966
30  2.034484 1.024275 1.937679  1.227515 0.585914 1.190966
31  0.000001 -0.000001 0.000004  1.583265 0.000007 1.570794
32  0.000000 6.028147 -0.000001  -0.408700 -0.509116 -0.915245
33  0.000001 0.000009 -0.000005  -0.000002 0.000003 1.570791
34  0.000017 6.028143 -0.000011  -0.546501 0.354385 0.447507
35  0.000002 11.692572 0.000000  -0.000001 -0.000005 -0.643594
36  0.000002 -0.000000 -0.000002  0.000005 0.000000 1.570801
37  11.692570 0.000055 0.000042  0.000004 -0.000001 -0.643586
38  0.000003 11.481680 -0.000000  0.409750 0.486852 0.746529
39  -0.000001 -0.000001 0.000000  0.000000 -0.000000 1.570789
40  11.481684 -0.000055 0.000007  0.523428 -0.359801 0.546048
41  0.137968 3.859854 1.332474  -1.465462 -1.619434 0.860075
42  -0.000000 -0.000002 -0.000001  1.933714 0.000004 1.570794
43  3.859860 -0.137941 1.332473  0.357798 -0.048370 -0.605263
44  -0.000001 1.719429 -0.000003  -0.420890 0.202310 0.066145
45  -0.000001 -0.000001 -0.000000  1.743430 0.000000 1.570798
46  1.719431 0.000003 -0.000004  0.000190 -0.009102 -0.438613
47  -0.000000 1.099660 -0.000000  1.022376 1.907828 1.050349
48  -0.000002 -0.000000 0.000000  -0.000002 0.000003 1.570799
49  1.099664 -0.000000 0.000002  -0.000120 0.002599 -0.290990
50  0.046788 3.883686 0.431450  -0.028139 -1.505149 -0.643984
51  0.000000 0.000001 0.000001  1.590082 0.000009 1.570787
52  3.883691 -0.046762 0.431449  0.084907 0.001837 -0.672063
53  0.000000 1.719577 -0.000000  -0.720105 0.051523 -0.006475
54  -0.000000 0.000000 -0.000001  1.538381 -0.000002 1.570794
55  1.719585 0.000015 -0.000016  -0.003915 0.016394 -0.719632
56  0.000001 1.209181 -0.000003  -1.502664 1.085638 -1.507497
57  0.000003 0.000002 -0.000001  -0.000000 -0.000000 1.570805
58  1.209184 -0.000006 -0.000002  -0.000817 0.002971 -0.484099
59  -0.046751 3.942326 -0.431436  -0.326449 -1.473452 -0.660444
60  0.000001 0.000000 0.000002  1.317660 0.000000 1.570797
61  3.942330 0.046779 -0.431438  -0.160903 0.031173 -0.985447
62  0.000001 1.539089 -0.000002  -0.255122 -0.026494 -0.056799
63  0.000000 0.000000 0.000000  1.337310 -0.000004 1.570800
64  1.539094 -0.000002 0.000003  -0.000026 0.003540 -0.262672
65  0.000000 1.196325 0.000001  -1.013133 1.118313 -1.059591
66  -0.000000 0.000001 0.000001  0.000000 -0.000001 1.570800
67  1.196329 -0.000005 0.000004  0.000000 0.000003 -0.391211
68  0.142425 3.859702 -1.191968  -0.667368 -1.423717 -0.301270
69  -0.000000 0.000002 0.000000  0.976757 -0.000005 1.570807
70  3.859708 -0.142400 -1.191969  -0.478195 0.090837 -0.963360
71  -0.000001 1.312571 0.000003  -0.361368 -0.138963 -0.204711
72  0.000000 0.000000 0.000001  1.078169 0.000003 1.570794
73  1.312577 -0.000012 0.000007  0.000005 -0.001339 -0.437244
74  -0.000001 0.729364 0.000000  -0.404458 1.030431 -0.462997
75  0.000000 -0.000000 0.000000  -0.000001 -0.000001 1.570795
76  0.729367 -0.000000 -0.000002  0.000002 -0.000004 -0.231838
77  0.348927 0.806042 1.321260  -1.142983 -2.276496 0.650286
78  0.000000 -0.000001 0.000002  0.437032 0.000002 1.570790
79  0.806048 -0.348924 1.321259  -1.473566 -0.631205 -0.380780
80  0.000000 1.789783 0.000002  0.105694 0.066383 0.343687
81  0.000000 0.000000 0.000001  0.347279 0.000000 1.570806
82  1.789788 0.000013 -0.000002  0.002655 0.043682 0.349589
83  -0.000002 1.207000 0.000000  0.184121 0.296138 0.568008
84  -0.000000 -0.000002 0.000000  0.000001 -0.000001 1.570797
85  1.207003 -0.000008 0.000004  -0.000003 0.000002 0.540458
86  0.000000 0.000000 1.000000  1.570796 -0.000000 0.000000
time 11
0  0.000000 3.339940 -8.644795  -1.570797 -1.391899 -1.570795
1  2.033355 1.000772 -1.937610  1.473119 1.855075 -0.198639
2  6.028144 -0.000001 0.000000  2.118875 1.513671 -0.442333
3  11.692555 -0.000000 0.000003  0.000000 0.000000 -0.316658
4  11.481695 0.000001 0.000002  -1.288835 0.007428 0.200690
5  3.859679 -0.132570 1.193107  0.432208 -0.155862 -0.861350
6  1.312556 -0.000002 0.000000  -0.000000 0.000000 -1.191994
7  0.729367 -0.000001 -0.000002  0.000000 0.000000 -1.063394
8  3.942306 0.050328 0.431045  0.232421 0.000609 -0.853331
9  1.539097 -0.000001 -0.000001  0.000000 -0.000000 -0.973399
10  1.196321 0.000012 -0.000000  -0.000000 -0.000000 -1.451289
11  3.883662 -0.050323 -0.431042  0.066987 0.050243 -0.694792
12  1.719578 -0.000002 -0.000001  0.000000 -0.000000 -1.251039
13  1.209184 0.000005 -0.000000  0.000000 -0.000003 -1.141145
14  3.859843 -0.148938 -1.331282  -0.248855 0.263129 -0.072121
15  1.719425 0.000000 0.000003  0.000000 -0.000000 -0.676756
16  1.099666 -0.000002 0.000001  -0.000000 0.000000 -1.021287
17  0.806023 -0.359838 -1.318333  1.349685 0.343493 -0.771450
18  1.789782 0.000001 -0.000003  -0.000000 0.000000 0.397500
19  1.206996 0.000004 0.000002  0.000000 0.000000 0.989033
20  6.104526 -1.468680 -3.530283  -1.564198 -0.011689 -1.581440
21  3.820741 -1.409994 -0.589409  -1.564198 -0.011689 -1.581439
22  0.222823 -3.739062 1.509297  0.024887 2.851473 -1.494016
23  3.048727 6.125613 1.106841  1.596061 0.018247 -0.808184
24  3.527215 5.063568 0.216260  1.596061 0.018246 -0.808184
25  3.352950 5.114328 -0.401207  1.596061 0.018247 -0.808184
26  2.909482 4.772882 -1.012056  1.596061 0.018247 -0.808184
27  1.772479 4.476573 2.356868  1.596061 0.018247 -0.808184
28  0.000006 3.336140 -8.647861  -1.570799 -1.391898 -1.570795
29  2.033350 1.000764 1.937663  1.227517 0.585911 1.190966
30  2.031008 1.005054 1.937679  1.227515 0.585914 1.190966
31  0.000001 -0.000001 0.000004  1.583265 0.000007 1.570794
32  0.000000 6.028147 -0.000001  -0.407048 -0.509879 -0.917751
33  -0.000001 0.000010 -0.000006  -0.000002 0.000003 1.570792
34  0.000017 6.028143 -0.000011  -0.546980 0.352817 0.445642
35  -0.000000 11.692571 0.000000  -0.000001 -0.000005 -0.638421
36  -0.000001 0.000000 -0.000002  0.000005 0.000000 1.570801
37  11.692570 0.000054 0.000042  0.000004 -0.000002 -0.638412
38  -0.000000 11.481680 0.000000  0.409201 0.486731 0.743427
39  -0.000001 0.000001 0.000001  0.000000 -0.000000 1.570789
40  11.481683 -0.000056 0.000008  0.523199 -0.359349 0.543284
41  0.137967 3.859858 1.332474  -1.465456 -1.619431 0.860060
42  0.000000 -0.000003 0.000002  1.933714 0.000004 1.570794
43  3.859860 -0.137941 1.332473  0.357798 -0.048367 -0.605272
44  0.000002 1.719425 0.000001  -0.420876 0.202310 0.066145
45  0.000000 0.000000 0.000003  1.743430 0.000000 1.570799
46  1.719430 0.000005 -0.000004  0.000189 -0.009100 -0.438599
47  0.000001 1.099662 0.000004  1.022356 1.907817 1.050330
48  -0.000001 0.000000 0.000002  -0.000002 0.000003 1.570799
49  1.099664 0.000003 0.000003  -0.000119 0.002600 -0.290977
50  0.046788 3.883687 0.431451  -0.028164 -1.505149 -0.643954
51  -0.000001 -0.000002 -0.000003  1.590082 0.000009 1.570787
52  3.883688 -0.046762 0.431450  0.084906 0.001839 -0.672065
53  -0.000003 1.719577 0.000001  -0.720099 0.051523 -0.006475
54  -0.000002 -0.000001 0.000000  1.538381 -0.000002 1.570794
55  1.719584 0.000019 -0.000017  -0.003915 0.016394 -0.719626
56  -0.000002 1.209184 0.000003  -1.502664 1.085644 -1.507497
57  -0.000002 0.000001 0.000001  -0.000000 -0.000000 1.570805
58  1.209189 0.000002 -0.000002  -0.000816 0.002971 -0.484093
59  -0.046750 3.942324 -0.431433  -0.326459 -1.473452 -0.660437
60  0.000001 0.000000 0.000004  1.317660 0.000000 1.570797
61  3.942325 0.046778 -0.431434  -0.160904 0.031174 -0.985454
62  0.000001 1.539091 0.000003  -0.255112 -0.026494 -0.056799
63  0.000000 0.000000 0.000000  1.337310 -0.000004 1.570800
64  1.539098 -0.000002 0.000003  -0.000026 0.003538 -0.262662
65  -0.000000 1.196323 -0.000000  -1.013118 1.118324 -1.059575
66  -0.000003 -0.000001 0.000000  0.000000 -0.000001 1.570800
67  1.196327 -0.000004 0.000003  0.000001 0.000004 -0.391197
68  0.142426 3.859702 -1.191965  -0.667375 -1.423717 -0.301267
69  0.000001 -0.000001 0.000002  0.976757 -0.000005 1.570807
70  3.859704 -0.142401 -1.191966  -0.478196 0.090837 -0.963366
71  0.000001 1.312563 0.000003  -0.361359 -0.138964 -0.204711
72  -0.000000 -0.000001 0.000000  1.078169 0.000003 1.570794
73  1.312571 -0.000010 0.000009  0.000004 -0.001344 -0.437236
74  -0.000000 0.729363 0.000001  -0.404441 1.030435 -0.462978
75  0.000001 0.000000 -0.000001  -0.000001 -0.000001 1.570795
76  0.729367 0.000000 -0.000000  0.000002 -0.000004 -0.231828
77  0.348927 0.806045 1.321261  -1.142978 -2.276486 0.650281
78  0.000000 -0.000001 -0.000002  0.437032 0.000002 1.570791
79  0.806047 -0.348924 1.321261  -1.473564 -0.631195 -0.380782
80  0.000000 1.789784 -0.000001  0.105694 0.066384 0.343680
81  0.000000 0.000000 0.000000  0.347279 0.000000 1.570806
82  1.789790 0.000012 -0.000002  0.002654 0.043679 0.349582
83  -0.000001 1.206998 -0.000002  0.184118 0.296140 0.567995
84  -0.000001 0.000000 -0.000000  0.000001 -0.000001 1.570797
85  1.207001 -0.000010 0.000002  -0.000003 0.000001 0.540447
86  0.000000 0.000000 1.000000  1.570796 -0.000000 0.000000
time 12
0  0.000000 3.336033 -8.644795  -1.570797 -1.391899 -1.570795
1  2.033355 1.000772 -1.937610  1.473119 1.855075 -0.198639
2  6.028143 -0.000001 0.000000  2.118875 1.513671 -0.442333
3  11.692554 0.000001 0.000003  0.000000 0.000000 -0.316658
4  11.481696 0.000002 0.000002  -1.288835 0.007428 0.200690
5  3.859679 -0.132570 1.193107  0.432208 -0.155862 -0.861350
6  1.312557 -0.000004 -0.000000  -0.000000 0.000000 -1.191994
7  0.729364 -0.000001 -0.000002  0.000000 0.000000 -1.063394
8  3.942306 0.050328 0.431044  0.232421 0.000609 -0.853331
9  1.539098 -0.000003 -0.000001  0.000000 -0.000000 -0.973399
10  1.196320 0.000010 0.000000  -0.000000 -0.000000 -1.451289
11  3.883662 -0.050323 -0.431042  0.066987 0.050243 -0.694792
12  1.719577 -0.000000 -0.000000  0.000000 -0.000000 -1.251039
13  1.209185 0.000003 -0.000000  0.000000 -0.000003 -1.141145
14  3.859843 -0.148938 -1.331282  -0.248855 0.263129 -0.072121
15  1.719427 0.000001 0.000002  0.000000 -0.000000 -0.676756
16  1.099666 -0.000002 -0.000000  -0.000000 0.000000 -1.021287
17  0.806023 -0.359837 -1.318333  1.349685 0.343493 -0.771450
18  1.789782 0.000001 -0.000005  -0.000000 0.000000 0.397500
19  1.206997 0.000004 0.000005  0.000000 0.000000 0.989033
20  6.104526 -1.468680 -3.530283  -1.564198 -0.011689 -1.581440
21  3.820741 -1.409994 -0.589410  -1.564198 -0.011689 -1.581439
22  0.222821 -3.739061 1.509296  0.024887 2.851473 -1.494016
23  3.048727 6.125613 1.106842  1.596061 0.018247 -0.808184
24  3.527215 5.063568 0.216260  1.596061 0.018246 -0.808184
25  3.352950 5.114328 -0.401206  1.596061 0.018247 -0.808184
26  2.909482 4.772882 -1.012055  1.596061 0.018247 -0.808184
27  1.772479 4.476573 2.356869  1.596061 0.018247 -0.808184
28  0.000006 3.336140 -8.647861  -1.570799 -1.391898 -1.570795
29  2.033350 1.000764 1.937663  1.227517 0.585911 1.190966
30  2.030313 1.001210 1.937679  1.227515 0.585914 1.190966
31  0.000001 -0.000001 0.000004  1.583265 0.000007 1.570794
32  0.000000 6.028147 -0.000001  -0.406741 -0.510019 -0.918214
33  -0.000000 0.000009 -0.000006  -0.000002 0.000003 1.570792
34  0.000017 6.028143 -0.000011  -0.547068 0.352526 0.445297
35  -0.000000 11.692570 -0.000000  -0.000001 -0.000005 -0.637465
36  -0.000000 0.000001 -0.000002  0.000005 0.000000 1.570801
37  11.692571 0.000053 0.000043  0.000004 -0.000002 -0.637456
38  0.000000 11.481682 0.000000  0.409107 0.486709 0.742854
39  -0.000000 -0.000001 -0.000001  0.000000 -0.000000 1.570789
40  11.481686 -0.000054 0.000007  0.523157 -0.359273 0.542769
41  0.137968 3.859858 1.332472  -1.465457 -1.619430 0.860062
42  -0.000001 0.000002 0.000000  1.933714 0.000004 1.570794
43  3.859862 -0.137941 1.332474  0.357799 -0.048366 -0.605272
44  0.000000 1.719429 0.000000  -0.420875 0.202310 0.066145
45  -0.000001 0.000001 0.000002  1.743430 0.000000 1.570798
46  1.719428 0.000006 -0.000005  0.000189 -0.009100 -0.438599
47  0.000000 1.099664 0.000000  1.022355 1.907817 1.050328
48  -0.000002 0.000001 0.000001  -0.000002 0.000003 1.570799
49  1.099666 0.000002 0.000004  -0.000119 0.002600 -0.290977
50  0.046789 3.883685 0.431449  -0.028172 -1.505149 -0.643954
51  -0.000001 0.000004 -0.000001  1.590082 0.000009 1.570787
52  3.883690 -0.046762 0.431451  0.084906 0.001839 -0.672065
53  -0.000002 1.719580 0.000001  -0.720100 0.051523 -0.006475
54  -0.000000 0.000000 0.000001  1.538382 -0.000002 1.570794
55  1.719581 0.000015 -0.000016  -0.003915 0.016394 -0.719628
56  0.000000 1.209182 -0.000001  -1.502664 1.085643 -1.507497
57  0.000000 0.000000 -0.000000  -0.000000 -0.000000 1.570805
58  1.209185 -0.000005 -0.000002  -0.000817 0.002971 -0.484095
59  -0.046750 3.942324 -0.431436  -0.326461 -1.473452 -0.660440
60  0.000000 0.000001 0.000000  1.317660 0.000000 1.570797
61  3.942328 0.046778 -0.431436  -0.160904 0.031174 -0.985454
62  -0.000000 1.539091 0.000001  -0.255111 -0.026494 -0.056799
63  0.000000 0.000001 0.000002  1.337310 -0.000004 1.570800
64  1.539096 -0.000000 0.000002  -0.000026 0.003537 -0.262661
65  -0.000000 1.196322 0.000001  -1.013117 1.118325 -1.059573
66  0.000002 0.000000 -0.000000  0.000000 -0.000001 1.570800
67  1.196325 -0.000004 0.000002  0.000000 0.000003 -0.391197
68  0.142426 3.859701 -1.191969  -0.667378 -1.423717 -0.301265
69  -0.000001 0.000000 -0.000002  0.976757 -0.000005 1.570807
70  3.859706 -0.142400 -1.191968  -0.478196 0.090838 -0.963364
71  0.000001 1.312565 -0.000002  -0.361360 -0.138963 -0.204711
72  -0.000001 -0.000000 -0.000002  1.078169 0.000003 1.570794
73  1.312570 -0.000017 0.000009  0.000005 -0.001343 -0.437237
74  -0.000001 0.729365 0.000000  -0.404444 1.030435 -0.462981
75  0.000004 0.000001 0.000001  -0.000001 -0.000001 1.570795
76  0.729367 0.000003 0.000000  0.000001 -0.000004 -0.231830
77  0.348927 0.806045 1.321258  -1.142977 -2.276484 0.650280
78  0.000000 0.000000 -0.000001  0.437032 0.000002 1.570790
79  0.806049 -0.348924 1.321260  -1.473563 -0.631194 -0.380782
80  0.000000 1.789782 -0.000003  0.105693 0.066384 0.343679
81  -0.000000 0.000000 0.000001  0.347279 0.000000 1.570806
82  1.789787 0.000007 -0.000004  0.002654 0.043679 0.349581
83  -0.000001 1.207000 0.000002  0.184117 0.296140 0.567994
84  -0.000001 -0.000002 -0.000000  0.000001 -0.000001 1.570797
85  1.207003 -0.000010 0.000005  -0.000004 0.000001 0.540445
86  0.000000 0.000000 1.000000  1.570796 -0.000000 0.000000
end
