version 1
nodes
0 "ValveBiped.Bip01_Spine4" -1
1 "ValveBiped.Bip01_R_Clavicle" 0
2 "ValveBiped.Bip01_R_UpperArm" 1
3 "ValveBiped.Bip01_R_Forearm" 2
4 "ValveBiped.Bip01_R_Hand" 3
5 "ValveBiped.Bip01_R_Finger4" 4
6 "ValveBiped.Bip01_R_Finger41" 5
7 "ValveBiped.Bip01_R_Finger42" 6
8 "ValveBiped.Bip01_R_Finger3" 4
9 "ValveBiped.Bip01_R_Finger31" 8
10 "ValveBiped.Bip01_R_Finger32" 9
11 "ValveBiped.Bip01_R_Finger2" 4
12 "ValveBiped.Bip01_R_Finger21" 11
13 "ValveBiped.Bip01_R_Finger22" 12
14 "ValveBiped.Bip01_R_Finger1" 4
15 "ValveBiped.Bip01_R_Finger11" 14
16 "ValveBiped.Bip01_R_Finger12" 15
17 "ValveBiped.Bip01_R_Finger0" 4
18 "ValveBiped.Bip01_R_Finger01" 17
19 "ValveBiped.Bip01_R_Finger02" 18
20 "ValveBiped.square" 4
21 "ValveBiped.clip" 4
22 "ik_target.Bip01_L_Hand" 4
23 "ik_target.Bip01_L_Finger1_tip" 22
24 "ik_target.Bip01_L_Finger2_tip" 22
25 "ik_target.Bip01_L_Finger3_tip" 22
26 "ik_target.Bip01_L_Finger4_tip" 22
27 "ik_target.Bip01_L_Finger0_tip" 22
28 "ik_chain.Bip01_Spine4" -1
29 "ik_chain.Bip01_L_Clavicle" 28
30 "ValveBiped.Bip01_L_Clavicle" 0
31 "ik_parent.Bip01_L_Clavicle" 29
32 "ik_chain.Bip01_L_UpperArm" 29
33 "ik_parent.Bip01_L_UpperArm" 32
34 "ValveBiped.Bip01_L_UpperArm" 30
35 "ik_chain.Bip01_L_Forearm" 32
36 "ik_parent.Bip01_L_Forearm" 35
37 "ValveBiped.Bip01_L_Forearm" 34
38 "ik_chain.Bip01_L_Hand" 35
39 "ik_parent.Bip01_L_Hand" 38
40 "ValveBiped.Bip01_L_Hand" 37
41 "ik_chain.Bip01_L_Finger1" 38
42 "ik_parent.Bip01_L_Finger1" 41
43 "ValveBiped.Bip01_L_Finger1" 40
44 "ik_chain.Bip01_L_Finger11" 41
45 "ik_parent.Bip01_L_Finger11" 44
46 "ValveBiped.Bip01_L_Finger11" 43
47 "ik_chain.Bip01_L_Finger12" 44
48 "ik_parent.Bip01_L_Finger12" 47
49 "ValveBiped.Bip01_L_Finger12" 46
50 "ik_chain.Bip01_L_Finger2" 38
51 "ik_parent.Bip01_L_Finger2" 50
52 "ValveBiped.Bip01_L_Finger2" 40
53 "ik_chain.Bip01_L_Finger21" 50
54 "ik_parent.Bip01_L_Finger21" 53
55 "ValveBiped.Bip01_L_Finger21" 52
56 "ik_chain.Bip01_L_Finger22" 53
57 "ik_parent.Bip01_L_Finger22" 56
58 "ValveBiped.Bip01_L_Finger22" 55
59 "ik_chain.Bip01_L_Finger3" 38
60 "ik_parent.Bip01_L_Finger3" 59
61 "ValveBiped.Bip01_L_Finger3" 40
62 "ik_chain.Bip01_L_Finger31" 59
63 "ik_parent.Bip01_L_Finger31" 62
64 "ValveBiped.Bip01_L_Finger31" 61
65 "ik_chain.Bip01_L_Finger32" 62
66 "ik_parent.Bip01_L_Finger32" 65
67 "ValveBiped.Bip01_L_Finger32" 64
68 "ik_chain.Bip01_L_Finger4" 38
69 "ik_parent.Bip01_L_Finger4" 68
70 "ValveBiped.Bip01_L_Finger4" 40
71 "ik_chain.Bip01_L_Finger41" 68
72 "ik_parent.Bip01_L_Finger41" 71
73 "ValveBiped.Bip01_L_Finger41" 70
74 "ik_chain.Bip01_L_Finger42" 71
75 "ik_parent.Bip01_L_Finger42" 74
76 "ValveBiped.Bip01_L_Finger42" 73
77 "ik_chain.Bip01_L_Finger0" 38
78 "ik_parent.Bip01_L_Finger0" 77
79 "ValveBiped.Bip01_L_Finger0" 40
80 "ik_chain.Bip01_L_Finger01" 77
81 "ik_parent.Bip01_L_Finger01" 80
82 "ValveBiped.Bip01_L_Finger01" 79
83 "ik_chain.Bip01_L_Finger02" 80
84 "ik_parent.Bip01_L_Finger02" 83
85 "ValveBiped.Bip01_L_Finger02" 82
86 "ik_enable" -1
end
skeleton
time 0
0  0.000000 6.511911 -8.644796  -1.570797 -1.391899 -1.570795
1  2.033355 1.000772 -1.937610  1.473119 1.855075 -0.198639
2  6.028144 0.000002 0.000000  1.632763 1.064534 -0.935256
3  11.692555 0.000001 0.000004  0.000000 0.000000 -1.292289
4  11.481696 0.000001 0.000002  -1.286801 0.004693 0.534476
5  3.859680 -0.132568 1.193111  0.432210 -0.155861 -0.861350
6  1.312559 -0.000001 0.000003  -0.000000 0.000000 -1.191994
7  0.729364 0.000000 -0.000003  -0.000000 -0.000000 -1.063394
8  3.942306 0.050329 0.431045  0.232421 0.000609 -0.853331
9  1.539100 -0.000000 0.000002  0.000000 -0.000000 -0.973399
10  1.196323 0.000006 0.000000  0.000000 0.000000 -1.451289
11  3.883659 -0.050322 -0.431041  0.066987 0.050243 -0.694792
12  1.719581 0.000004 -0.000002  0.000000 -0.000000 -1.251039
13  1.209186 0.000000 0.000000  -0.000000 -0.000003 -1.141145
14  3.859835 -0.148937 -1.331281  -0.248855 0.263129 -0.072121
15  1.719423 0.000001 -0.000000  -0.000000 0.000000 -0.676756
16  1.099665 0.000001 0.000001  -0.000000 0.000000 -1.021287
17  0.806017 -0.359836 -1.318334  1.349685 0.343493 -0.771450
18  1.789782 0.000000 -0.000005  0.000000 0.000000 0.397500
19  1.206998 0.000002 0.000003  -0.000000 -0.000000 0.989033
20  4.127902 -1.449149 -3.542003  -1.564198 -0.011689 -1.581440
21  3.820740 -1.409993 -0.589407  -1.564198 -0.011689 -1.581440
22  0.222812 -3.739062 1.509296  0.024887 2.851473 -1.494016
23  3.048727 6.125610 1.106842  1.596061 0.018247 -0.808184
24  3.527214 5.063567 0.216260  1.596061 0.018246 -0.808184
25  3.352950 5.114328 -0.401206  1.596061 0.018247 -0.808184
26  2.909482 4.772882 -1.012056  1.596061 0.018247 -0.808184
27  1.772479 4.476570 2.356869  1.596061 0.018247 -0.808184
28  0.000006 3.336140 -8.647861  -1.570799 -1.391898 -1.570795
29  2.033350 1.000764 1.937663  1.227517 0.585911 1.190966
30  2.595444 4.126403 1.937680  1.227515 0.585914 1.190966
31  0.000001 -0.000001 0.000004  1.583265 0.000007 1.570794
32  0.000000 6.028147 -0.000001  -0.777275 -0.321096 -0.568011
33  0.000000 0.000009 -0.000005  -0.000002 0.000003 1.570791
34  0.000014 6.028144 -0.000012  -0.436577 0.728156 0.701693
35  0.000000 11.692570 0.000001  0.000004 -0.000003 -1.657445
36  -0.000000 0.000000 -0.000001  0.000005 0.000000 1.570801
37  11.692575 0.000053 0.000043  0.000008 -0.000003 -1.657436
38  0.000000 11.481682 0.000001  0.854724 0.526332 1.526647
39  -0.000001 -0.000002 0.000000  0.000000 -0.000000 1.570789
40  11.481695 -0.000054 0.000007  0.724519 -0.710591 1.003051
41  0.137967 3.859857 1.332473  -1.467548 -1.620320 0.862665
42  -0.000000 -0.000000 -0.000001  1.933714 0.000004 1.570794
43  3.859869 -0.137941 1.332472  0.357809 -0.049261 -0.604757
44  -0.000000 1.719428 -0.000000  -0.422505 0.202310 0.066145
45  -0.000001 -0.000001 0.000001  1.743430 0.000000 1.570798
46  1.719433 0.000006 -0.000008  0.000204 -0.009380 -0.440204
47  -0.000000 1.099661 0.000001  1.024353 1.908967 1.052446
48  0.000001 0.000000 -0.000000  -0.000002 0.000003 1.570799
49  1.099664 0.000000 0.000002  -0.000124 0.002599 -0.292325
50  0.046788 3.883685 0.431451  -0.016869 -1.505141 -0.655747
51  -0.000001 -0.000000 0.000002  1.590082 0.000009 1.570787
52  3.883696 -0.046761 0.431450  0.084933 0.001098 -0.672578
53  -0.000002 1.719574 0.000001  -0.720473 0.051523 -0.006475
54  0.000001 -0.000001 -0.000000  1.538382 -0.000002 1.570794
55  1.719580 0.000015 -0.000018  -0.003921 0.016403 -0.720001
56  0.000000 1.209181 0.000002  -1.502692 1.085420 -1.507530
57  -0.000001 -0.000000 -0.000001  -0.000000 -0.000000 1.570805
58  1.209182 0.000000 -0.000002  -0.000818 0.002971 -0.484317
59  -0.046752 3.942324 -0.431436  -0.320150 -1.473619 -0.667094
60  -0.000001 -0.000001 0.000001  1.317660 0.000000 1.570797
61  3.942334 0.046779 -0.431437  -0.160866 0.030540 -0.985823
62  0.000000 1.539088 0.000003  -0.255622 -0.026495 -0.056799
63  -0.000000 -0.000001 0.000001  1.337310 -0.000004 1.570800
64  1.539093 0.000002 0.000003  -0.000028 0.003655 -0.263159
65  0.000002 1.196320 -0.000002  -1.013660 1.117902 -1.060176
66  0.000002 -0.000000 -0.000001  0.000000 -0.000001 1.570800
67  1.196324 -0.000007 0.000004  -0.000001 0.000003 -0.391698
68  0.142426 3.859702 -1.191966  -0.663686 -1.424204 -0.305601
69  0.000000 0.000000 0.000002  0.976757 -0.000005 1.570807
70  3.859712 -0.142400 -1.191967  -0.478247 0.090113 -0.964051
71  0.000000 1.312566 0.000002  -0.361718 -0.138964 -0.204711
72  -0.000000 -0.000000 0.000002  1.078169 0.000003 1.570794
73  1.312570 -0.000014 0.000009  0.000005 -0.001175 -0.437554
74  -0.000002 0.729362 -0.000001  -0.404886 1.030322 -0.463496
75  -0.000002 -0.000000 0.000001  -0.000001 -0.000001 1.570795
76  0.729364 0.000004 -0.000002  0.000001 -0.000005 -0.232119
77  0.348927 0.806041 1.321260  -1.144242 -2.278065 0.650927
78  -0.000000 0.000001 -0.000001  0.437032 0.000002 1.570790
79  0.806048 -0.348924 1.321259  -1.473695 -0.632970 -0.381019
80  0.000000 1.789784 -0.000002  0.105764 0.066271 0.344743
81  0.000000 0.000002 -0.000001  0.347279 0.000000 1.570806
82  1.789791 0.000010 -0.000002  0.002698 0.044040 0.350586
83  0.000000 1.207001 -0.000001  0.184626 0.295829 0.569737
84  -0.000000 0.000002 0.000001  0.000001 -0.000001 1.570797
85  1.207006 -0.000010 0.000004  -0.000003 0.000002 0.542141
86  0.000000 0.000000 1.000000  1.570796 -0.000000 0.000000
time 1
0  0.000000 6.117368 -8.644795  -1.570797 -1.391899 -1.570795
1  2.033356 1.000772 -1.937610  1.473119 1.855075 -0.198639
2  6.028144 0.000002 -0.000000  1.636224 1.106644 -0.931529
3  11.692554 0.000002 0.000003  0.000000 0.000000 -1.193038
4  11.481699 0.000001 0.000001  -1.287764 0.006236 0.358045
5  3.859679 -0.132569 1.193111  0.432210 -0.155861 -0.861350
6  1.312556 -0.000001 0.000003  -0.000000 0.000000 -1.191994
7  0.729365 0.000001 -0.000002  0.000000 -0.000000 -1.063394
8  3.942306 0.050328 0.431045  0.232421 0.000609 -0.853331
9  1.539100 0.000001 0.000002  0.000000 -0.000000 -0.973399
10  1.196323 0.000007 -0.000001  0.000000 0.000000 -1.451289
11  3.883658 -0.050323 -0.431042  0.066987 0.050243 -0.694792
12  1.719579 0.000003 -0.000000  0.000000 -0.000000 -1.251039
13  1.209187 0.000001 -0.000001  -0.000000 -0.000003 -1.141145
14  3.859838 -0.148937 -1.331282  -0.248855 0.263129 -0.072121
15  1.719421 0.000000 0.000000  -0.000000 0.000000 -0.676756
16  1.099666 0.000002 -0.000000  0.000000 0.000000 -1.021287
17  0.806018 -0.359837 -1.318335  1.349685 0.343493 -0.771450
18  1.789783 0.000001 -0.000005  0.000000 0.000000 0.397500
19  1.206997 0.000003 0.000002  -0.000000 -0.000000 0.989033
20  4.127903 -1.449149 -3.542003  -1.564198 -0.011689 -1.581440
21  3.820740 -1.409993 -0.589408  -1.564198 -0.011689 -1.581440
22  0.222818 -3.739064 1.509300  0.024887 2.851473 -1.494016
23  3.048727 6.125612 1.106840  1.596061 0.018247 -0.808184
24  3.527215 5.063569 0.216259  1.596061 0.018246 -0.808184
25  3.352950 5.114328 -0.401208  1.596061 0.018247 -0.808184
26  2.909482 4.772883 -1.012057  1.596061 0.018247 -0.808184
27  1.772479 4.476572 2.356867  1.596061 0.018247 -0.808184
28  0.000006 3.336140 -8.647861  -1.570799 -1.391898 -1.570795
29  2.033350 1.000764 1.937663  1.227517 0.585911 1.190966
30  2.525237 3.738157 1.937680  1.227515 0.585914 1.190966
31  0.000001 -0.000001 0.000004  1.583265 0.000007 1.570794
32  0.000000 6.028147 -0.000001  -0.725212 -0.343809 -0.585364
33  -0.000000 0.000010 -0.000006  -0.000002 0.000003 1.570792
34  0.000014 6.028144 -0.000012  -0.446237 0.674461 0.695102
35  -0.000001 11.692572 -0.000000  0.000003 -0.000003 -1.553279
36  0.000001 0.000002 -0.000002  0.000005 0.000000 1.570801
37  11.692574 0.000055 0.000042  0.000007 -0.000004 -1.553270
38  -0.000000 11.481683 -0.000000  0.923032 0.533108 1.429545
39  -0.000000 -0.000001 -0.000001  0.000000 -0.000000 1.570789
40  11.481693 -0.000054 0.000006  0.774249 -0.757037 0.838106
41  0.137968 3.859854 1.332474  -1.466345 -1.619962 0.861653
42  0.000001 0.000000 -0.000000  1.933714 0.000004 1.570794
43  3.859863 -0.137941 1.332474  0.357788 -0.048900 -0.604567
44  0.000002 1.719426 -0.000001  -0.422189 0.202310 0.066145
45  -0.000001 0.000001 0.000000  1.743430 0.000000 1.570798
46  1.719432 0.000004 -0.000003  0.000201 -0.009326 -0.439893
47  -0.000001 1.099662 0.000001  1.024048 1.908791 1.052123
48  -0.000000 -0.000000 -0.000002  -0.000002 0.000003 1.570799
49  1.099664 0.000001 0.000003  -0.000123 0.002599 -0.292119
50  0.046788 3.883685 0.431449  -0.022178 -1.505142 -0.649913
51  0.000000 0.000001 0.000001  1.590082 0.000009 1.570787
52  3.883693 -0.046761 0.431449  0.084925 0.001446 -0.672044
53  0.000000 1.719576 0.000002  -0.720585 0.051523 -0.006475
54  -0.000001 0.000000 0.000001  1.538381 -0.000002 1.570794
55  1.719580 0.000017 -0.000016  -0.003923 0.016406 -0.720113
56  0.000000 1.209182 0.000003  -1.502716 1.085233 -1.507557
57  -0.000001 -0.000000 0.000001  -0.000000 -0.000000 1.570805
58  1.209182 0.000001 -0.000002  -0.000818 0.002970 -0.484504
59  -0.046751 3.942327 -0.431438  -0.323207 -1.473510 -0.663335
60  -0.000000 -0.000000 0.000000  1.317660 0.000000 1.570797
61  3.942334 0.046779 -0.431437  -0.160856 0.030856 -0.985108
62  0.000001 1.539090 -0.000001  -0.255918 -0.026494 -0.056799
63  0.000000 -0.000000 -0.000001  1.337310 -0.000004 1.570800
64  1.539097 -0.000001 0.000003  -0.000030 0.003724 -0.263446
65  0.000001 1.196320 -0.000003  -1.014227 1.117459 -1.060807
66  -0.000002 0.000001 -0.000001  0.000000 -0.000001 1.570800
67  1.196322 -0.000007 0.000006  -0.000001 0.000003 -0.392220
68  0.142425 3.859704 -1.191970  -0.665653 -1.423856 -0.302693
69  -0.000000 -0.000000 0.000002  0.976757 -0.000005 1.570807
70  3.859711 -0.142399 -1.191969  -0.478148 0.090554 -0.963079
71  0.000001 1.312566 0.000002  -0.362202 -0.138964 -0.204711
72  -0.000000 0.000000 0.000001  1.078169 0.000003 1.570794
73  1.312572 -0.000016 0.000009  0.000005 -0.000946 -0.437980
74  -0.000000 0.729363 0.000000  -0.405819 1.030081 -0.464585
75  0.000001 -0.000000 0.000000  -0.000001 -0.000001 1.570795
76  0.729365 0.000004 -0.000001  0.000001 -0.000004 -0.232729
77  0.348928 0.806044 1.321258  -1.143616 -2.277503 0.650701
78  -0.000000 0.000001 0.000000  0.437032 0.000002 1.570790
79  0.806047 -0.348924 1.321259  -1.473769 -0.632279 -0.380725
80  -0.000003 1.789784 0.000002  0.105740 0.066310 0.344379
81  -0.000000 -0.000000 0.000002  0.347279 0.000000 1.570806
82  1.789790 0.000014 -0.000000  0.002683 0.043917 0.350242
83  -0.000001 1.206999 0.000000  0.184454 0.295934 0.569149
84  0.000000 0.000002 0.000001  0.000001 -0.000001 1.570797
85  1.207005 -0.000010 0.000003  -0.000004 0.000002 0.541569
86  0.000000 0.000000 1.000000  1.570796 -0.000000 0.000000
time 2
0  0.000000 5.527505 -8.644795  -1.570797 -1.391899 -1.570795
1  2.033355 1.000772 -1.937610  1.473119 1.855075 -0.198639
2  6.028144 0.000002 -0.000000  1.653571 1.219465 -0.912920
3  11.692555 0.000003 0.000003  -0.000000 0.000000 -0.941038
4  11.481698 0.000001 0.000003  -1.288817 0.007408 0.204100
5  3.859681 -0.132568 1.193112  0.432210 -0.155861 -0.861350
6  1.312558 -0.000002 0.000003  -0.000000 0.000000 -1.191994
7  0.729364 0.000002 -0.000001  -0.000000 -0.000000 -1.063394
8  3.942304 0.050329 0.431046  0.232421 0.000609 -0.853331
9  1.539100 -0.000000 0.000001  0.000000 0.000000 -0.973399
10  1.196323 0.000006 -0.000001  0.000000 0.000000 -1.451289
11  3.883659 -0.050323 -0.431040  0.066987 0.050243 -0.694792
12  1.719579 0.000006 0.000000  0.000000 -0.000000 -1.251039
13  1.209185 0.000002 -0.000002  -0.000000 -0.000003 -1.141145
14  3.859837 -0.148937 -1.331281  -0.248855 0.263129 -0.072121
15  1.719419 0.000001 -0.000001  -0.000000 0.000000 -0.676756
16  1.099668 0.000002 -0.000001  -0.000000 -0.000000 -1.021287
17  0.806018 -0.359836 -1.318334  1.349685 0.343493 -0.771450
18  1.789782 -0.000000 -0.000003  0.000000 0.000000 0.397500
19  1.206998 0.000003 0.000002  -0.000000 -0.000000 0.989033
20  4.448222 -1.453056 -3.538095  -1.564198 -0.011689 -1.581440
21  3.820738 -1.409993 -0.589408  -1.564198 -0.011689 -1.581440
22  0.222820 -3.739062 1.509299  0.024887 2.851473 -1.494016
23  3.048727 6.125610 1.106842  1.596061 0.018247 -0.808184
24  3.527215 5.063569 0.216260  1.596061 0.018246 -0.808184
25  3.352951 5.114327 -0.401205  1.596061 0.018247 -0.808184
26  2.909482 4.772884 -1.012056  1.596061 0.018247 -0.808184
27  1.772478 4.476570 2.356869  1.596061 0.018247 -0.808184
28  0.000006 3.336140 -8.647861  -1.570799 -1.391898 -1.570795
29  2.033350 1.000764 1.937663  1.227517 0.585911 1.190966
30  2.420274 3.157708 1.937680  1.227515 0.585914 1.190966
31  0.000001 -0.000001 0.000004  1.583265 0.000007 1.570794
32  0.000000 6.028147 -0.000001  -0.635576 -0.389272 -0.640189
33  0.000000 0.000009 -0.000006  -0.000002 0.000003 1.570791
34  0.000015 6.028144 -0.000012  -0.471413 0.581440 0.657621
35  0.000000 11.692568 0.000000  0.000002 -0.000004 -1.328619
36  -0.000000 0.000000 -0.000004  0.000005 0.000000 1.570801
37  11.692573 0.000054 0.000042  0.000006 -0.000003 -1.328610
38  0.000000 11.481681 -0.000001  0.857122 0.529782 1.232577
39  -0.000000 -0.000002 0.000001  0.000000 -0.000000 1.570789
40  11.481694 -0.000054 0.000007  0.729827 -0.710651 0.704310
41  0.137968 3.859856 1.332474  -1.466182 -1.619750 0.861011
42  0.000001 -0.000001 -0.000000  1.933714 0.000004 1.570794
43  3.859862 -0.137941 1.332472  0.357802 -0.048687 -0.605045
44  -0.000000 1.719428 0.000002  -0.421481 0.202310 0.066145
45  0.000001 -0.000001 0.000000  1.743430 0.000000 1.570798
46  1.719435 0.000006 -0.000009  0.000195 -0.009204 -0.439195
47  0.000000 1.099663 0.000002  1.023109 1.908250 1.051127
48  0.000001 -0.000001 -0.000000  -0.000002 0.000003 1.570799
49  1.099665 0.000003 0.000001  -0.000121 0.002599 -0.291485
50  0.046788 3.883684 0.431451  -0.024176 -1.505147 -0.648084
51  0.000000 -0.000000 0.000000  1.590082 0.000009 1.570787
52  3.883690 -0.046761 0.431449  0.084917 0.001577 -0.672202
53  0.000000 1.719574 -0.000001  -0.720258 0.051523 -0.006475
54  -0.000001 0.000001 0.000000  1.538381 -0.000002 1.570794
55  1.719578 0.000015 -0.000015  -0.003917 0.016397 -0.719786
56  -0.000001 1.209183 -0.000002  -1.502678 1.085533 -1.507513
57  -0.000000 0.000000 0.000001  -0.000000 -0.000000 1.570805
58  1.209183 -0.000006 -0.000004  -0.000817 0.002971 -0.484204
59  -0.046751 3.942327 -0.431436  -0.324240 -1.473508 -0.662716
60  0.000001 -0.000001 -0.000001  1.317660 0.000000 1.570797
61  3.942332 0.046779 -0.431438  -0.160886 0.030952 -0.985514
62  0.000002 1.539088 0.000000  -0.255343 -0.026494 -0.056799
63  0.000000 -0.000000 -0.000002  1.337310 -0.000004 1.570800
64  1.539094 -0.000002 0.000003  -0.000027 0.003591 -0.262887
65  -0.000000 1.196321 -0.000003  -1.013394 1.118109 -1.059882
66  0.000001 -0.000000 0.000001  0.000000 -0.000001 1.570800
67  1.196325 -0.000005 0.000004  -0.000000 0.000003 -0.391452
68  0.142426 3.859703 -1.191968  -0.666088 -1.423876 -0.302701
69  0.000001 -0.000000 -0.000000  0.976757 -0.000005 1.570807
70  3.859709 -0.142399 -1.191971  -0.478203 0.090592 -0.963523
71  0.000002 1.312567 -0.000003  -0.361545 -0.138963 -0.204711
72  -0.000001 -0.000001 -0.000001  1.078169 0.000003 1.570794
73  1.312571 -0.000014 0.000006  0.000004 -0.001256 -0.437401
74  0.000001 0.729361 -0.000005  -0.404713 1.030366 -0.463294
75  -0.000000 -0.000001 0.000000  -0.000001 -0.000001 1.570795
76  0.729365 -0.000002 -0.000000  0.000001 -0.000005 -0.232006
77  0.348928 0.806042 1.321259  -1.143406 -2.277048 0.650513
78  0.000000 -0.000001 0.000000  0.437032 0.000002 1.570791
79  0.806047 -0.348924 1.321259  -1.473624 -0.631819 -0.380840
80  0.000002 1.789782 -0.000001  0.105718 0.066344 0.344055
81  -0.000001 0.000002 0.000001  0.347279 0.000000 1.570806
82  1.789789 0.000010 -0.000003  0.002669 0.043807 0.349935
83  -0.000000 1.207000 -0.000000  0.184298 0.296030 0.568613
84  0.000000 -0.000001 -0.000000  0.000001 -0.000001 1.570797
85  1.207003 -0.000011 0.000004  -0.000004 0.000002 0.541048
86  0.000000 0.000000 1.000000  1.570796 -0.000000 0.000000
time 3
0  0.000000 5.007958 -8.644795  -1.570797 -1.391899 -1.570795
1  2.033355 1.000772 -1.937610  1.473119 1.855075 -0.198639
2  6.028144 0.000003 0.000000  1.718035 1.371826 -0.845866
3  11.692554 0.000001 0.000001  0.000000 0.000000 -0.619148
4  11.481697 0.000002 0.000002  -1.288908 0.007490 0.192858
5  3.859678 -0.132569 1.193112  0.432210 -0.155861 -0.861350
6  1.312560 -0.000002 0.000002  -0.000000 0.000000 -1.191994
7  0.729364 -0.000001 -0.000001  -0.000000 -0.000000 -1.063394
8  3.942306 0.050328 0.431045  0.232421 0.000609 -0.853331
9  1.539100 0.000000 0.000000  0.000000 -0.000000 -0.973399
10  1.196323 0.000008 -0.000001  0.000000 0.000000 -1.451289
11  3.883659 -0.050323 -0.431041  0.066987 0.050243 -0.694792
12  1.719581 0.000001 -0.000001  0.000000 -0.000000 -1.251039
13  1.209187 0.000004 -0.000001  -0.000000 -0.000003 -1.141145
14  3.859837 -0.148937 -1.331281  -0.248855 0.263129 -0.072121
15  1.719420 0.000001 0.000000  -0.000000 0.000000 -0.676756
16  1.099668 0.000001 0.000000  -0.000000 0.000000 -1.021287
17  0.806017 -0.359836 -1.318335  1.349685 0.343493 -0.771450
18  1.789782 0.000000 -0.000005  0.000000 0.000000 0.397500
19  1.206996 0.000002 0.000003  -0.000000 -0.000000 0.989033
20  6.104524 -1.468681 -3.530283  -1.564198 -0.011689 -1.581440
21  3.820737 -1.409994 -0.589408  -1.564198 -0.011689 -1.581440
22  0.222808 -3.739065 1.509295  0.024887 2.851473 -1.494016
23  3.048726 6.125612 1.106840  1.596061 0.018247 -0.808184
24  3.527214 5.063569 0.216259  1.596061 0.018246 -0.808184
25  3.352950 5.114328 -0.401208  1.596061 0.018247 -0.808184
26  2.909482 4.772882 -1.012057  1.596061 0.018247 -0.808184
27  1.772478 4.476572 2.356867  1.596061 0.018247 -0.808184
28  0.000006 3.336140 -8.647861  -1.570799 -1.391898 -1.570795
29  2.033350 1.000764 1.937663  1.227517 0.585911 1.190966
30  2.327823 2.646453 1.937680  1.227515 0.585914 1.190966
31  0.000001 -0.000001 0.000004  1.583265 0.000007 1.570794
32  0.000000 6.028147 -0.000001  -0.551009 -0.436457 -0.723938
33  -0.000001 0.000010 -0.000006  -0.000002 0.000003 1.570792
34  0.000016 6.028144 -0.000011  -0.500916 0.494358 0.592699
35  -0.000000 11.692570 0.000000  0.000001 -0.000004 -1.081333
36  0.000001 0.000003 -0.000002  0.000005 0.000000 1.570801
37  11.692572 0.000057 0.000042  0.000005 -0.000003 -1.081325
38  0.000001 11.481684 -0.000001  0.637393 0.511944 1.036666
39  -0.000000 -0.000000 -0.000001  0.000000 -0.000000 1.570789
40  11.481689 -0.000054 0.000009  0.610189 -0.545449 0.688669
41  0.137968 3.859855 1.332473  -1.466190 -1.619495 0.860218
42  0.000001 -0.000001 -0.000000  1.933714 0.000004 1.570794
43  3.859860 -0.137942 1.332473  0.357827 -0.048435 -0.605848
44  0.000002 1.719427 0.000001  -0.420408 0.202310 0.066145
45  -0.000001 0.000000 0.000000  1.743430 0.000000 1.570799
46  1.719431 0.000006 -0.000007  0.000185 -0.009019 -0.438138
47  -0.000000 1.099661 -0.000003  1.021656 1.907416 1.049588
48  0.000000 0.000001 -0.000000  -0.000002 0.000003 1.570799
49  1.099664 -0.000002 0.000003  -0.000118 0.002600 -0.290508
50  0.046789 3.883686 0.431451  -0.025989 -1.505153 -0.646624
51  -0.000001 0.000000 -0.000000  1.590082 0.000009 1.570787
52  3.883692 -0.046762 0.431451  0.084907 0.001696 -0.672560
53  0.000001 1.719575 -0.000001  -0.719718 0.051523 -0.006475
54  -0.000000 -0.000001 0.000002  1.538382 -0.000002 1.570794
55  1.719579 0.000016 -0.000014  -0.003909 0.016382 -0.719246
56  0.000000 1.209180 0.000002  -1.502611 1.086046 -1.507438
57  0.000000 -0.000000 0.000000  -0.000000 -0.000000 1.570805
58  1.209183 -0.000003 -0.000004  -0.000815 0.002971 -0.483690
59  -0.046751 3.942325 -0.431435  -0.325077 -1.473531 -0.662673
60  -0.000001 0.000000 -0.000001  1.317660 0.000000 1.570797
61  3.942331 0.046778 -0.431436  -0.160935 0.031022 -0.986314
62  -0.000001 1.539089 -0.000001  -0.254360 -0.026494 -0.056799
63  -0.000000 -0.000000 -0.000001  1.337310 -0.000004 1.570800
64  1.539093 -0.000002 0.000001  -0.000024 0.003364 -0.261930
65  -0.000001 1.196323 -0.000001  -1.011937 1.119243 -1.058261
66  0.000003 0.000000 0.000000  0.000000 -0.000001 1.570800
67  1.196327 -0.000005 0.000002  0.000000 0.000003 -0.390115
68  0.142426 3.859704 -1.191968  -0.666269 -1.423992 -0.303421
69  0.000001 0.000001 0.000002  0.976757 -0.000005 1.570807
70  3.859711 -0.142401 -1.191967  -0.478312 0.090541 -0.964435
71  0.000002 1.312568 -0.000002  -0.360395 -0.138963 -0.204711
72  -0.000001 0.000000 0.000002  1.078169 0.000003 1.570794
73  1.312573 -0.000016 0.000007  0.000003 -0.001800 -0.436387
74  -0.000001 0.729364 -0.000001  -0.402750 1.030868 -0.461006
75  0.000003 0.000000 0.000000  -0.000001 -0.000001 1.570795
76  0.729366 0.000001 -0.000001  0.000002 -0.000004 -0.230725
77  0.348928 0.806046 1.321260  -1.143193 -2.276427 0.650252
78  0.000000 0.000000 -0.000002  0.437032 0.000002 1.570791
79  0.806049 -0.348925 1.321261  -1.473377 -0.631216 -0.381084
80  0.000001 1.789784 -0.000003  0.105687 0.066394 0.343586
81  0.000000 -0.000000 0.000000  0.347279 0.000000 1.570806
82  1.789789 0.000009 -0.000003  0.002650 0.043648 0.349492
83  0.000000 1.206999 0.000001  0.184074 0.296167 0.567846
84  -0.000000 -0.000000 -0.000000  0.000001 -0.000001 1.570797
85  1.207005 -0.000012 0.000005  -0.000004 0.000001 0.540301
86  0.000000 0.000000 1.000000  1.570796 -0.000000 0.000000
time 4
0  0.000000 4.582165 -8.644796  -1.570797 -1.391899 -1.570795
1  2.033355 1.000772 -1.937610  1.473119 1.855075 -0.198639
2  6.028143 0.000002 0.000000  1.865590 1.468897 -0.696465
3  11.692554 0.000000 0.000003  0.000000 0.000000 -0.415947
4  11.481698 0.000002 0.000003  -1.288472 0.007058 0.251866
5  3.859680 -0.132569 1.193111  0.432210 -0.155861 -0.861350
6  1.312559 -0.000003 0.000002  -0.000000 0.000000 -1.191994
7  0.729366 -0.000000 -0.000002  0.000000 -0.000000 -1.063394
8  3.942308 0.050328 0.431045  0.232421 0.000609 -0.853331
9  1.539101 0.000001 0.000000  0.000000 -0.000000 -0.973399
10  1.196324 0.000008 -0.000000  0.000000 0.000000 -1.451289
11  3.883659 -0.050322 -0.431042  0.066987 0.050243 -0.694792
12  1.719579 0.000001 -0.000001  0.000000 -0.000000 -1.251039
13  1.209187 -0.000000 0.000001  -0.000000 -0.000003 -1.141145
14  3.859838 -0.148937 -1.331282  -0.248855 0.263129 -0.072121
15  1.719422 0.000001 0.000001  -0.000000 -0.000000 -0.676756
16  1.099667 0.000003 0.000002  -0.000000 0.000000 -1.021287
17  0.806019 -0.359837 -1.318335  1.349685 0.343493 -0.771450
18  1.789782 0.000001 -0.000002  0.000000 0.000000 0.397500
19  1.206995 0.000004 0.000002  -0.000000 -0.000000 0.989033
20  6.104522 -1.468681 -3.530283  -1.564198 -0.011689 -1.581440
21  3.820739 -1.409994 -0.589408  -1.564198 -0.011689 -1.581440
22  0.222807 -3.739062 1.509296  0.024887 2.851473 -1.494016
23  3.048727 6.125609 1.106841  1.596061 0.018247 -0.808184
24  3.527214 5.063570 0.216259  1.596061 0.018246 -0.808184
25  3.352949 5.114329 -0.401207  1.596061 0.018247 -0.808184
26  2.909481 4.772882 -1.012058  1.596061 0.018247 -0.808184
27  1.772478 4.476572 2.356868  1.596061 0.018247 -0.808184
28  0.000006 3.336140 -8.647861  -1.570799 -1.391898 -1.570795
29  2.033350 1.000764 1.937663  1.227517 0.585911 1.190966
30  2.252056 2.227454 1.937679  1.227515 0.585914 1.190966
31  0.000001 -0.000001 0.000004  1.583265 0.000007 1.570794
32  0.000000 6.028147 -0.000001  -0.501867 -0.463516 -0.784986
33  -0.000000 0.000010 -0.000005  -0.000002 0.000003 1.570792
34  0.000016 6.028145 -0.000011  -0.518178 0.444829 0.545218
35  0.000001 11.692571 0.000001  0.000001 -0.000005 -0.928965
36  0.000000 0.000001 -0.000002  0.000005 0.000000 1.570801
37  11.692571 0.000053 0.000042  0.000005 -0.000002 -0.928957
38  -0.000001 11.481682 -0.000000  0.446352 0.495142 0.926657
39  -0.000000 0.000002 0.000001  0.000000 -0.000000 1.570789
40  11.481687 -0.000054 0.000009  0.539435 -0.389612 0.703057
41  0.137968 3.859860 1.332474  -1.465835 -1.619522 0.860324
42  -0.000000 0.000003 0.000001  1.933714 0.000004 1.570794
43  3.859860 -0.137941 1.332473  0.357808 -0.048459 -0.605389
44  0.000000 1.719433 0.000003  -0.420918 0.202310 0.066145
45  0.000000 -0.000002 -0.000002  1.743430 0.000000 1.570798
46  1.719437 0.000006 -0.000007  0.000190 -0.009107 -0.438640
47  -0.000001 1.099663 0.000001  1.022371 1.907826 1.050346
48  -0.000001 0.000000 -0.000001  -0.000002 0.000003 1.570799
49  1.099667 0.000003 0.000000  -0.000120 0.002600 -0.290987
50  0.046789 3.883687 0.431452  -0.026731 -1.505150 -0.645597
51  -0.000000 -0.000001 -0.000001  1.590082 0.000009 1.570787
52  3.883688 -0.046762 0.431449  0.084908 0.001745 -0.672274
53  0.000001 1.719572 0.000000  -0.720027 0.051523 -0.006475
54  0.000000 0.000000 -0.000002  1.538381 -0.000002 1.570794
55  1.719574 0.000016 -0.000016  -0.003913 0.016392 -0.719554
56  0.000001 1.209181 -0.000005  -1.502651 1.085741 -1.507482
57  0.000001 0.000000 -0.000000  -0.000000 -0.000000 1.570805
58  1.209184 -0.000007 -0.000001  -0.000816 0.002971 -0.483996
59  -0.046750 3.942328 -0.431434  -0.325616 -1.473488 -0.661574
60  0.000000 0.000001 -0.000001  1.317660 0.000000 1.570797
61  3.942327 0.046779 -0.431436  -0.160912 0.031085 -0.985750
62  0.000001 1.539089 -0.000002  -0.254951 -0.026494 -0.056799
63  0.000001 -0.000000 -0.000000  1.337310 -0.000004 1.570800
64  1.539094 -0.000000 0.000002  -0.000026 0.003501 -0.262505
65  0.000003 1.196321 -0.000001  -1.012832 1.118547 -1.059257
66  0.000001 -0.000000 0.000000  0.000000 -0.000001 1.570800
67  1.196324 -0.000010 0.000005  0.000001 0.000003 -0.390935
68  0.142426 3.859705 -1.191966  -0.666828 -1.423833 -0.302196
69  -0.000001 -0.000001 -0.000002  0.976757 -0.000005 1.570807
70  3.859707 -0.142400 -1.191968  -0.478238 0.090704 -0.963755
71  -0.000001 1.312564 0.000000  -0.361125 -0.138963 -0.204711
72  -0.000001 0.000000 0.000002  1.078169 0.000003 1.570794
73  1.312571 -0.000011 0.000010  0.000004 -0.001455 -0.437030
74  -0.000001 0.729363 0.000001  -0.404000 1.030549 -0.462462
75  -0.000000 -0.000000 0.000001  -0.000001 -0.000001 1.570795
76  0.729366 0.000001 -0.000000  0.000001 -0.000004 -0.231540
77  0.348928 0.806044 1.321261  -1.143182 -2.276643 0.650344
78  -0.000001 0.000001 0.000001  0.437032 0.000002 1.570790
79  0.806045 -0.348924 1.321260  -1.473523 -0.631398 -0.380897
80  -0.000001 1.789784 0.000003  0.105701 0.066372 0.343793
81  0.000000 -0.000000 0.000000  0.347279 0.000000 1.570806
82  1.789790 0.000015 0.000000  0.002659 0.043718 0.349689
83  0.000000 1.206999 -0.000000  0.184169 0.296109 0.568171
84  -0.000000 -0.000002 -0.000000  0.000001 -0.000001 1.570797
85  1.207002 -0.000011 0.000003  -0.000003 0.000001 0.540618
86  0.000000 0.000000 1.000000  1.570796 -0.000000 0.000000
time 5
0  0.000000 4.238405 -8.644795  -1.570797 -1.391899 -1.570795
1  2.033355 1.000772 -1.937610  1.473119 1.855075 -0.198639
2  6.028144 0.000002 -0.000000  1.921464 1.484460 -0.640300
3  11.692554 0.000002 0.000003  -0.000000 0.000000 -0.382487
4  11.481696 0.000000 0.000003  -1.288127 0.006668 0.302887
5  3.859682 -0.132569 1.193112  0.432210 -0.155861 -0.861350
6  1.312557 -0.000005 0.000000  -0.000000 -0.000000 -1.191994
7  0.729362 0.000000 -0.000001  0.000000 -0.000000 -1.063394
8  3.942309 0.050329 0.431046  0.232421 0.000609 -0.853331
9  1.539100 0.000001 -0.000000  0.000000 -0.000000 -0.973399
10  1.196323 0.000006 -0.000000  0.000000 0.000000 -1.451289
11  3.883663 -0.050323 -0.431041  0.066987 0.050243 -0.694792
12  1.719579 0.000006 -0.000001  0.000000 -0.000000 -1.251039
13  1.209187 -0.000000 -0.000001  -0.000000 -0.000003 -1.141173
14  3.859841 -0.148937 -1.331281  -0.248855 0.263129 -0.072121
15  1.719420 0.000002 -0.000001  -0.000000 0.000000 -0.676756
16  1.099666 0.000003 0.000002  -0.000000 0.000000 -1.021287
17  0.806022 -0.359837 -1.318335  1.349685 0.343493 -0.771450
18  1.789780 -0.000000 -0.000003  0.000000 0.000000 0.397500
19  1.206997 0.000001 0.000000  -0.000000 -0.000000 0.989033
20  6.104530 -1.468681 -3.530283  -1.564198 -0.011689 -1.581440
21  3.820741 -1.409993 -0.589408  -1.564198 -0.011689 -1.581440
22  0.222819 -3.739063 1.509298  0.024887 2.851473 -1.494016
23  3.048727 6.125612 1.106841  1.596061 0.018247 -0.808184
24  3.527214 5.063568 0.216259  1.596061 0.018246 -0.808184
25  3.352950 5.114326 -0.401207  1.596061 0.018247 -0.808184
26  2.909482 4.772882 -1.012056  1.596061 0.018247 -0.808184
27  1.772478 4.476569 2.356868  1.596061 0.018247 -0.808184
28  0.000006 3.336140 -8.647861  -1.570799 -1.391898 -1.570795
29  2.033350 1.000764 1.937663  1.227517 0.585911 1.190966
30  2.190885 1.889180 1.937679  1.227515 0.585914 1.190966
31  0.000001 -0.000001 0.000004  1.583265 0.000007 1.570794
32  0.000000 6.028147 -0.000001  -0.479882 -0.475288 -0.814528
33  -0.000002 0.000010 -0.000005  -0.000002 0.000003 1.570792
34  0.000016 6.028145 -0.000011  -0.525711 0.423005 0.522454
35  -0.000000 11.692572 0.000001  0.000000 -0.000005 -0.859890
36  -0.000002 0.000001 -0.000003  0.000005 0.000000 1.570801
37  11.692572 0.000054 0.000042  0.000005 -0.000002 -0.859881
38  -0.000001 11.481681 -0.000001  0.368058 0.488071 0.880369
39  -0.000000 0.000001 0.000000  0.000000 -0.000000 1.570789
40  11.481687 -0.000055 0.000007  0.517328 -0.323395 0.701462
41  0.137967 3.859861 1.332474  -1.465704 -1.619504 0.860279
42  0.000000 -0.000000 0.000001  1.933714 0.000004 1.570794
43  3.859865 -0.137941 1.332473  0.357803 -0.048441 -0.605305
44  0.000000 1.719427 0.000001  -0.420969 0.202310 0.066145
45  0.000000 0.000000 -0.000001  1.743430 0.000000 1.570798
46  1.719428 0.000003 -0.000006  0.000191 -0.009116 -0.438691
47  0.000001 1.099661 0.000000  1.022452 1.907873 1.050433
48  -0.000005 0.000000 0.000000  -0.000002 0.000003 1.570799
49  1.099663 0.000003 0.000003  -0.000120 0.002600 -0.291042
50  0.046788 3.883687 0.431451  -0.027146 -1.505150 -0.645100
51  -0.000001 -0.000003 -0.000001  1.590082 0.000009 1.570787
52  3.883693 -0.046762 0.431450  0.084908 0.001772 -0.672189
53  -0.000002 1.719575 0.000001  -0.720081 0.051523 -0.006475
54  0.000001 -0.000000 -0.000001  1.538381 -0.000002 1.570794
55  1.719582 0.000015 -0.000017  -0.003914 0.016393 -0.719608
56  0.000002 1.209182 -0.000001  -1.502659 1.085681 -1.507491
57  -0.000000 -0.000000 -0.000002  -0.000000 -0.000000 1.570805
58  1.209186 -0.000004 -0.000001  -0.000816 0.002971 -0.484056
59  -0.046751 3.942330 -0.431437  -0.325869 -1.473475 -0.661185
60  0.000000 0.000000 -0.000001  1.317660 0.000000 1.570797
61  3.942332 0.046779 -0.431438  -0.160907 0.031112 -0.985611
62  0.000000 1.539091 0.000000  -0.255061 -0.026494 -0.056799
63  0.000000 0.000000 -0.000002  1.337310 -0.000004 1.570800
64  1.539096 0.000004 0.000002  -0.000026 0.003525 -0.262612
65  0.000002 1.196325 0.000000  -1.013008 1.118410 -1.059452
66  -0.000001 0.000000 -0.000000  0.000000 -0.000001 1.570800
67  1.196326 -0.000009 0.000005  -0.000000 0.000003 -0.391097
68  0.142426 3.859708 -1.191967  -0.667019 -1.423787 -0.301834
69  0.000001 0.000000 0.000000  0.976757 -0.000005 1.570807
70  3.859712 -0.142400 -1.191968  -0.478218 0.090754 -0.963579
71  0.000000 1.312567 0.000005  -0.361270 -0.138963 -0.204711
72  0.000000 0.000000 -0.000001  1.078169 0.000003 1.570794
73  1.312572 -0.000013 0.000011  0.000004 -0.001386 -0.437158
74  0.000000 0.729365 0.000001  -0.404258 1.030483 -0.462764
75  0.000001 0.000001 -0.000001  -0.000001 -0.000001 1.570795
76  0.729367 0.000003 0.000001  0.000001 -0.000004 -0.231709
77  0.348927 0.806044 1.321259  -1.143132 -2.276633 0.650340
78  0.000000 -0.000001 0.000002  0.437032 0.000002 1.570791
79  0.806049 -0.348924 1.321259  -1.473551 -0.631372 -0.380847
80  0.000000 1.789781 0.000001  0.105701 0.066372 0.343792
81  0.000001 0.000003 0.000000  0.347279 0.000000 1.570806
82  1.789787 0.000011 -0.000001  0.002659 0.043717 0.349687
83  0.000000 1.207000 0.000000  0.184168 0.296109 0.568169
84  0.000001 0.000001 0.000001  0.000001 -0.000001 1.570797
85  1.207005 -0.000009 0.000004  -0.000004 0.000002 0.540615
86  0.000000 0.000000 1.000000  1.570796 -0.000000 0.000000
time 6
0  0.000000 3.964959 -8.644795  -1.570797 -1.391899 -1.570795
1  2.033356 1.000772 -1.937610  1.473119 1.855075 -0.198639
2  6.028144 0.000002 0.000000  1.971053 1.494602 -0.590500
3  11.692555 0.000001 0.000002  0.000000 0.000000 -0.360268
4  11.481696 0.000000 0.000002  -1.288036 0.006565 0.316286
5  3.859681 -0.132569 1.193111  0.432210 -0.155861 -0.861350
6  1.312557 0.000001 0.000001  -0.000000 0.000000 -1.191994
7  0.729367 0.000000 0.000000  -0.000000 -0.000000 -1.063394
8  3.942304 0.050329 0.431045  0.232421 0.000609 -0.853331
9  1.539099 0.000001 -0.000000  -0.000000 -0.000000 -0.973399
10  1.196322 0.000009 0.000000  0.000000 0.000000 -1.451289
11  3.883658 -0.050322 -0.431042  0.066987 0.050243 -0.694792
12  1.719580 0.000004 -0.000001  0.000000 -0.000000 -1.251039
13  1.209186 -0.000002 -0.000000  -0.000000 -0.000003 -1.141173
14  3.859838 -0.148936 -1.331281  -0.248855 0.263129 -0.072121
15  1.719423 0.000002 -0.000000  -0.000000 0.000000 -0.676756
16  1.099668 0.000000 -0.000000  -0.000000 0.000000 -1.021287
17  0.806019 -0.359836 -1.318335  1.349685 0.343493 -0.771450
18  1.789781 0.000000 -0.000004  0.000000 0.000000 0.397500
19  1.206998 0.000003 0.000002  -0.000000 -0.000000 0.989033
20  6.104522 -1.468680 -3.530282  -1.564198 -0.011689 -1.581440
21  3.820739 -1.409993 -0.589408  -1.564198 -0.011689 -1.581440
22  0.222807 -3.739060 1.509298  0.024887 2.851473 -1.494016
23  3.048727 6.125610 1.106841  1.596061 0.018247 -0.808184
24  3.527214 5.063566 0.216260  1.596061 0.018246 -0.808184
25  3.352950 5.114327 -0.401206  1.596061 0.018247 -0.808184
26  2.909483 4.772881 -1.012055  1.596061 0.018247 -0.808184
27  1.772478 4.476569 2.356869  1.596061 0.018247 -0.808184
28  0.000006 3.336140 -8.647861  -1.570799 -1.391898 -1.570795
29  2.033350 1.000764 1.937663  1.227517 0.585911 1.190966
30  2.142227 1.620098 1.937679  1.227515 0.585914 1.190966
31  0.000001 -0.000001 0.000004  1.583265 0.000007 1.570794
32  0.000000 6.028147 -0.000001  -0.460960 -0.484985 -0.840625
33  0.000000 0.000009 -0.000005  -0.000002 0.000003 1.570792
34  0.000017 6.028144 -0.000010  -0.531829 0.404450 0.502637
35  0.000000 11.692572 0.000000  0.000000 -0.000005 -0.801219
36  -0.000001 0.000001 -0.000002  0.000005 0.000000 1.570801
37  11.692573 0.000055 0.000042  0.000005 -0.000002 -0.801211
38  0.000000 11.481683 -0.000000  0.335386 0.484525 0.842602
39  -0.000000 -0.000001 0.000002  0.000000 -0.000000 1.570789
40  11.481688 -0.000053 0.000008  0.508531 -0.295527 0.681645
41  0.137967 3.859863 1.332475  -1.465615 -1.619482 0.860215
42  0.000001 -0.000001 0.000000  1.933714 0.000004 1.570794
43  3.859865 -0.137941 1.332472  0.357801 -0.048419 -0.605278
44  0.000001 1.719425 -0.000000  -0.420950 0.202310 0.066145
45  0.000000 -0.000001 0.000001  1.743430 0.000000 1.570798
46  1.719430 0.000004 -0.000006  0.000190 -0.009112 -0.438672
47  0.000001 1.099661 0.000001  1.022440 1.907865 1.050417
48  -0.000004 -0.000000 -0.000000  -0.000002 0.000003 1.570799
49  1.099665 0.000002 0.000004  -0.000119 0.002599 -0.291033
50  0.046788 3.883689 0.431451  -0.027469 -1.505149 -0.644723
51  0.000001 0.000003 0.000001  1.590082 0.000009 1.570787
52  3.883691 -0.046761 0.431448  0.084908 0.001793 -0.672134
53  0.000000 1.719581 0.000002  -0.720097 0.051523 -0.006475
54  -0.000000 0.000000 0.000002  1.538381 -0.000002 1.570794
55  1.719583 0.000015 -0.000018  -0.003914 0.016394 -0.719625
56  -0.000000 1.209183 -0.000001  -1.502661 1.085657 -1.507495
57  0.000000 0.000000 0.000002  -0.000000 -0.000000 1.570805
58  1.209187 -0.000004 -0.000003  -0.000816 0.002971 -0.484080
59  -0.046751 3.942325 -0.431436  -0.326059 -1.473466 -0.660921
60  -0.000000 0.000002 0.000000  1.317660 0.000000 1.570797
61  3.942326 0.046779 -0.431438  -0.160904 0.031133 -0.985536
62  0.000000 1.539093 0.000000  -0.255095 -0.026494 -0.056799
63  0.000000 0.000000 0.000000  1.337310 -0.000004 1.570800
64  1.539096 0.000001 0.000002  -0.000026 0.003533 -0.262645
65  -0.000000 1.196322 -0.000002  -1.013074 1.118359 -1.059525
66  -0.000001 -0.000000 -0.000001  0.000000 -0.000001 1.570800
67  1.196324 -0.000006 0.000002  0.000000 0.000003 -0.391157
68  0.142426 3.859706 -1.191966  -0.667131 -1.423761 -0.301628
69  -0.000000 0.000002 -0.000004  0.976757 -0.000005 1.570807
70  3.859708 -0.142400 -1.191968  -0.478208 0.090783 -0.963484
71  -0.000001 1.312568 -0.000004  -0.361317 -0.138964 -0.204711
72  -0.000000 0.000000 -0.000000  1.078169 0.000003 1.570794
73  1.312572 -0.000014 0.000009  0.000004 -0.001364 -0.437200
74  -0.000000 0.729364 0.000001  -0.404353 1.030458 -0.462875
75  0.000000 0.000000 -0.000001  -0.000001 -0.000001 1.570795
76  0.729366 0.000006 0.000001  0.000001 -0.000004 -0.231771
77  0.348927 0.806046 1.321260  -1.143075 -2.276586 0.650322
78  -0.000000 -0.000000 0.000000  0.437032 0.000002 1.570791
79  0.806046 -0.348924 1.321259  -1.473560 -0.631313 -0.380817
80  -0.000000 1.789782 0.000000  0.105699 0.066377 0.343754
81  0.000000 0.000000 0.000001  0.347279 0.000000 1.570806
82  1.789786 0.000008 -0.000002  0.002657 0.043704 0.349652
83  0.000000 1.207001 0.000003  0.184152 0.296120 0.568112
84  0.000000 0.000000 -0.000000  0.000001 -0.000001 1.570797
85  1.207003 -0.000009 0.000005  -0.000003 0.000001 0.540560
86  0.000000 0.000000 1.000000  1.570796 -0.000000 0.000000
time 7
0  0.000000 3.754015 -8.644795  -1.570797 -1.391899 -1.570795
1  2.033355 1.000772 -1.937610  1.473119 1.855075 -0.198639
2  6.028144 0.000002 0.000000  2.017305 1.501986 -0.544136
3  11.692555 0.000000 0.000003  0.000000 0.000000 -0.343764
4  11.481700 0.000002 0.000002  -1.288326 0.006894 0.272987
5  3.859682 -0.132568 1.193112  0.432210 -0.155861 -0.861350
6  1.312560 0.000004 0.000002  -0.000000 0.000000 -1.191994
7  0.729366 0.000002 -0.000000  0.000000 -0.000000 -1.063394
8  3.942311 0.050329 0.431045  0.232421 0.000609 -0.853331
9  1.539098 -0.000003 -0.000000  0.000000 -0.000000 -0.973399
10  1.196322 0.000008 0.000000  0.000000 0.000000 -1.451289
11  3.883661 -0.050322 -0.431042  0.066987 0.050243 -0.694792
12  1.719578 0.000001 -0.000002  0.000000 -0.000000 -1.251039
13  1.209185 0.000000 0.000000  -0.000000 -0.000003 -1.141145
14  3.859840 -0.148937 -1.331281  -0.248855 0.263129 -0.072121
15  1.719421 0.000002 0.000002  -0.000000 0.000000 -0.676756
16  1.099667 0.000003 0.000000  0.000000 0.000000 -1.021287
17  0.806022 -0.359836 -1.318335  1.349685 0.343493 -0.771450
18  1.789781 -0.000000 -0.000001  0.000000 0.000000 0.397500
19  1.206999 0.000003 0.000002  -0.000000 -0.000000 0.989033
20  6.104529 -1.468680 -3.530283  -1.564198 -0.011689 -1.581440
21  3.820742 -1.409993 -0.589408  -1.564198 -0.011689 -1.581440
22  0.222819 -3.739063 1.509296  0.024887 2.851473 -1.494016
23  3.048727 6.125610 1.106839  1.596061 0.018247 -0.808184
24  3.527214 5.063568 0.216258  1.596061 0.018246 -0.808184
25  3.352951 5.114326 -0.401208  1.596061 0.018247 -0.808184
26  2.909482 4.772883 -1.012058  1.596061 0.018247 -0.808184
27  1.772479 4.476568 2.356867  1.596061 0.018247 -0.808184
28  0.000006 3.336140 -8.647861  -1.570799 -1.391898 -1.570795
29  2.033350 1.000764 1.937663  1.227517 0.585911 1.190966
30  2.104691 1.412521 1.937679  1.227515 0.585914 1.190966
31  0.000001 -0.000001 0.000004  1.583265 0.000007 1.570794
32  0.000000 6.028147 -0.000001  -0.443433 -0.493235 -0.864907
33  0.000000 0.000010 -0.000006  -0.000002 0.000003 1.570791
34  0.000017 6.028144 -0.000010  -0.536816 0.387530 0.484668
35  0.000001 11.692571 -0.000000  -0.000000 -0.000005 -0.748869
36  0.000001 0.000001 -0.000002  0.000005 0.000000 1.570801
37  11.692571 0.000054 0.000043  0.000005 -0.000002 -0.748860
38  -0.000000 11.481682 0.000000  0.363306 0.485484 0.810141
39  -0.000000 0.000001 0.000000  0.000000 -0.000000 1.570789
40  11.481685 -0.000055 0.000007  0.513864 -0.319718 0.634552
41  0.137967 3.859862 1.332474  -1.465566 -1.619480 0.860214
42  0.000000 0.000001 0.000000  1.933714 0.000004 1.570794
43  3.859865 -0.137941 1.332473  0.357799 -0.048416 -0.605231
44  -0.000001 1.719429 -0.000001  -0.420996 0.202310 0.066145
45  0.000000 0.000000 -0.000001  1.743430 0.000000 1.570798
46  1.719432 0.000002 -0.000006  0.000190 -0.009120 -0.438717
47  0.000000 1.099662 0.000000  1.022505 1.907903 1.050487
48  0.000000 0.000000 0.000000  -0.000002 0.000003 1.570799
49  1.099665 0.000001 0.000003  -0.000120 0.002600 -0.291077
50  0.046788 3.883688 0.431451  -0.027618 -1.505149 -0.644540
51  -0.000001 0.000002 -0.000001  1.590082 0.000009 1.570787
52  3.883692 -0.046762 0.431450  0.084908 0.001803 -0.672098
53  -0.000001 1.719577 -0.000001  -0.720128 0.051523 -0.006475
54  0.000000 -0.000001 0.000003  1.538381 -0.000002 1.570794
55  1.719579 0.000015 -0.000017  -0.003915 0.016395 -0.719656
56  -0.000000 1.209181 0.000001  -1.502666 1.085626 -1.507500
57  0.000001 -0.000000 -0.000001  -0.000000 -0.000000 1.570805
58  1.209186 -0.000002 -0.000003  -0.000816 0.002971 -0.484112
59  -0.046751 3.942329 -0.431436  -0.326151 -1.473461 -0.660765
60  -0.000001 0.000000 -0.000001  1.317660 0.000000 1.570797
61  3.942332 0.046778 -0.431437  -0.160902 0.031143 -0.985472
62  0.000000 1.539093 0.000004  -0.255157 -0.026494 -0.056799
63  -0.000000 0.000000 -0.000000  1.337310 -0.000004 1.570800
64  1.539099 0.000004 0.000002  -0.000026 0.003548 -0.262705
65  -0.000001 1.196321 -0.000001  -1.013169 1.118285 -1.059631
66  -0.000002 -0.000000 -0.000000  0.000000 -0.000001 1.570800
67  1.196325 -0.000007 0.000003  0.000001 0.000004 -0.391244
68  0.142426 3.859708 -1.191969  -0.667214 -1.423739 -0.301463
69  0.000000 0.000000 -0.000002  0.976757 -0.000005 1.570807
70  3.859710 -0.142400 -1.191970  -0.478199 0.090805 -0.963400
71  0.000003 1.312566 -0.000005  -0.361399 -0.138964 -0.204711
72  0.000001 0.000000 0.000002  1.078169 0.000003 1.570794
73  1.312569 -0.000015 0.000010  0.000005 -0.001325 -0.437271
74  0.000001 0.729364 0.000001  -0.404494 1.030422 -0.463040
75  0.000000 0.000001 0.000000  -0.000001 -0.000001 1.570795
76  0.729366 0.000002 0.000001  0.000001 -0.000005 -0.231863
77  0.348927 0.806046 1.321260  -1.143065 -2.276599 0.650328
78  -0.000000 0.000002 0.000000  0.437032 0.000002 1.570791
79  0.806048 -0.348924 1.321260  -1.473575 -0.631320 -0.380795
80  0.000003 1.789785 -0.000002  0.105699 0.066374 0.343768
81  -0.000001 0.000001 0.000001  0.347279 0.000000 1.570806
82  1.789790 0.000009 -0.000002  0.002658 0.043709 0.349665
83  -0.000000 1.207000 -0.000001  0.184158 0.296115 0.568134
84  -0.000001 -0.000003 0.000000  0.000001 -0.000001 1.570797
85  1.207006 -0.000014 0.000003  -0.000003 0.000001 0.540581
86  0.000000 0.000000 1.000000  1.570796 -0.000000 0.000000
time 8
0  0.000000 3.589947 -8.644796  -1.570797 -1.391899 -1.570795
1  2.033355 1.000772 -1.937610  1.473119 1.855075 -0.198639
2  6.028144 0.000002 -0.000000  2.058984 1.507408 -0.502369
3  11.692555 0.000000 0.000002  0.000000 0.000000 -0.331395
4  11.481698 0.000001 0.000003  -1.288617 0.007202 0.232438
5  3.859685 -0.132568 1.193111  0.432210 -0.155861 -0.861350
6  1.312558 -0.000003 0.000003  0.000000 0.000000 -1.191994
7  0.729365 0.000000 -0.000001  0.000000 -0.000000 -1.063394
8  3.942307 0.050329 0.431044  0.232421 0.000609 -0.853331
9  1.539101 0.000002 0.000000  0.000000 -0.000000 -0.973399
10  1.196322 0.000008 0.000000  0.000000 0.000000 -1.451289
11  3.883664 -0.050322 -0.431042  0.066987 0.050243 -0.694792
12  1.719580 0.000006 -0.000000  0.000000 -0.000000 -1.251039
13  1.209185 0.000001 0.000000  -0.000000 -0.000003 -1.141145
14  3.859839 -0.148937 -1.331281  -0.248855 0.263129 -0.072121
15  1.719422 0.000001 0.000000  -0.000000 0.000000 -0.676756
16  1.099664 0.000003 0.000001  -0.000000 0.000000 -1.021287
17  0.806022 -0.359836 -1.318335  1.349685 0.343493 -0.771450
18  1.789782 0.000001 -0.000002  0.000000 0.000000 0.397500
19  1.206999 0.000003 0.000001  -0.000000 -0.000000 0.989033
20  6.104529 -1.468680 -3.530283  -1.564198 -0.011689 -1.581440
21  3.820742 -1.409993 -0.589408  -1.564198 -0.011689 -1.581440
22  0.222821 -3.739062 1.509297  0.024887 2.851473 -1.494016
23  3.048727 6.125612 1.106840  1.596061 0.018247 -0.808184
24  3.527214 5.063569 0.216258  1.596061 0.018246 -0.808184
25  3.352950 5.114329 -0.401208  1.596061 0.018247 -0.808184
26  2.909482 4.772885 -1.012058  1.596061 0.018247 -0.808184
27  1.772479 4.476572 2.356867  1.596061 0.018247 -0.808184
28  0.000006 3.336140 -8.647861  -1.570799 -1.391898 -1.570795
29  2.033350 1.000764 1.937663  1.227517 0.585911 1.190966
30  2.075497 1.251071 1.937679  1.227515 0.585914 1.190966
31  0.000001 -0.000001 0.000004  1.583265 0.000007 1.570794
32  0.000000 6.028147 -0.000001  -0.428875 -0.499895 -0.885535
33  0.000000 0.000010 -0.000006  -0.000002 0.000003 1.570791
34  0.000017 6.028144 -0.000010  -0.540831 0.373591 0.469484
35  0.000000 11.692570 0.000000  -0.000000 -0.000005 -0.705356
36  -0.000001 0.000002 -0.000001  0.000005 0.000000 1.570801
37  11.692571 0.000054 0.000042  0.000005 -0.000002 -0.705347
38  -0.000001 11.481683 0.000001  0.392181 0.486719 0.783694
39  -0.000000 0.000001 0.000001  0.000000 -0.000000 1.570789
40  11.481684 -0.000054 0.000008  0.520072 -0.344595 0.592590
41  0.137967 3.859858 1.332473  -1.465519 -1.619467 0.860174
42  -0.000000 -0.000000 -0.000000  1.933714 0.000004 1.570794
43  3.859861 -0.137941 1.332472  0.357798 -0.048403 -0.605220
44  -0.000002 1.719428 -0.000001  -0.420987 0.202310 0.066145
45  0.000001 0.000000 -0.000002  1.743430 0.000000 1.570799
46  1.719433 0.000003 -0.000008  0.000191 -0.009119 -0.438708
47  0.000001 1.099663 0.000002  1.022498 1.907899 1.050480
48  0.000001 0.000001 0.000001  -0.000002 0.000003 1.570799
49  1.099667 0.000002 0.000001  -0.000120 0.002600 -0.291073
50  0.046788 3.883687 0.431451  -0.027792 -1.505149 -0.644344
51  0.000001 -0.000002 0.000000  1.590082 0.000009 1.570787
52  3.883688 -0.046762 0.431450  0.084907 0.001814 -0.672076
53  0.000000 1.719573 0.000001  -0.720136 0.051523 -0.006475
54  0.000000 0.000000 0.000002  1.538381 -0.000002 1.570794
55  1.719579 0.000013 -0.000016  -0.003915 0.016395 -0.719663
56  -0.000002 1.209185 0.000001  -1.502667 1.085616 -1.507501
57  -0.000002 -0.000001 -0.000001  -0.000000 -0.000000 1.570805
58  1.209189 -0.000002 -0.000005  -0.000816 0.002971 -0.484121
59  -0.046751 3.942325 -0.431436  -0.326265 -1.473457 -0.660623
60  -0.000000 0.000001 0.000000  1.317660 0.000000 1.570797
61  3.942326 0.046779 -0.431437  -0.160901 0.031155 -0.985441
62  -0.000002 1.539093 0.000004  -0.255171 -0.026494 -0.056799
63  0.000001 0.000000 -0.000001  1.337310 -0.000004 1.570800
64  1.539096 0.000000 0.000002  -0.000026 0.003551 -0.262719
65  0.000001 1.196322 0.000001  -1.013194 1.118265 -1.059659
66  -0.000002 -0.000000 0.000001  0.000000 -0.000001 1.570800
67  1.196325 -0.000007 0.000004  0.000001 0.000003 -0.391267
68  0.142426 3.859702 -1.191968  -0.667282 -1.423727 -0.301356
69  0.000000 0.000000 -0.000000  0.976757 -0.000005 1.570807
70  3.859705 -0.142400 -1.191968  -0.478195 0.090821 -0.963362
71  0.000000 1.312563 0.000001  -0.361419 -0.138964 -0.204711
72  0.000000 0.000000 0.000001  1.078169 0.000003 1.570794
73  1.312570 -0.000013 0.000009  0.000004 -0.001315 -0.437290
74  0.000001 0.729364 0.000003  -0.404532 1.030412 -0.463085
75  -0.000002 -0.000000 0.000000  -0.000001 -0.000001 1.570795
76  0.729367 0.000003 0.000001  0.000002 -0.000004 -0.231888
77  0.348927 0.806043 1.321259  -1.143041 -2.276578 0.650319
78  -0.000001 0.000000 0.000002  0.437032 0.000002 1.570791
79  0.806046 -0.348924 1.321259  -1.473578 -0.631296 -0.380782
80  -0.000001 1.789785 0.000002  0.105699 0.066376 0.343755
81  0.000000 -0.000002 0.000001  0.347279 0.000000 1.570806
82  1.789793 0.000011 -0.000003  0.002657 0.043705 0.349653
83  0.000000 1.206999 0.000002  0.184152 0.296119 0.568112
84  0.000000 -0.000000 -0.000000  0.000001 -0.000001 1.570797
85  1.207005 -0.000011 0.000004  -0.000003 0.000001 0.540561
86  0.000000 0.000000 1.000000  1.570796 -0.000000 0.000000
time 9
0  0.000000 3.472756 -8.644795  -1.570797 -1.391899 -1.570795
1  2.033355 1.000772 -1.937610  1.473119 1.855075 -0.198639
2  6.028144 0.000002 -0.000000  2.092978 1.511147 -0.468297
3  11.692556 0.000001 0.000002  0.000000 0.000000 -0.322636
4  11.481697 0.000001 0.000002  -1.288762 0.007346 0.210745
5  3.859678 -0.132569 1.193110  0.432210 -0.155861 -0.861350
6  1.312560 -0.000000 0.000003  -0.000000 0.000000 -1.191994
7  0.729363 -0.000001 0.000000  -0.000000 -0.000000 -1.063394
8  3.942307 0.050329 0.431045  0.232421 0.000609 -0.853331
9  1.539099 0.000001 0.000001  0.000000 -0.000000 -0.973399
10  1.196323 0.000008 -0.000000  0.000000 0.000000 -1.451289
11  3.883660 -0.050323 -0.431042  0.066987 0.050243 -0.694792
12  1.719582 0.000004 -0.000001  0.000000 -0.000000 -1.251039
13  1.209187 0.000001 -0.000000  -0.000000 -0.000003 -1.141145
14  3.859834 -0.148937 -1.331282  -0.248855 0.263129 -0.072121
15  1.719420 0.000002 -0.000002  -0.000000 0.000000 -0.676756
16  1.099665 0.000001 0.000001  -0.000000 0.000000 -1.021287
17  0.806017 -0.359836 -1.318335  1.349685 0.343493 -0.771450
18  1.789779 -0.000001 -0.000000  0.000000 0.000000 0.397500
19  1.206998 0.000002 0.000001  -0.000000 -0.000000 0.989033
20  6.104523 -1.468680 -3.530284  -1.564198 -0.011689 -1.581440
21  3.820738 -1.409993 -0.589409  -1.564198 -0.011689 -1.581440
22  0.222812 -3.739062 1.509297  0.024887 2.851473 -1.494016
23  3.048726 6.125608 1.106842  1.596061 0.018247 -0.808184
24  3.527213 5.063566 0.216260  1.596061 0.018246 -0.808184
25  3.352950 5.114324 -0.401206  1.596061 0.018247 -0.808184
26  2.909481 4.772880 -1.012057  1.596061 0.018247 -0.808184
27  1.772478 4.476566 2.356868  1.596061 0.018247 -0.808184
28  0.000006 3.336140 -8.647861  -1.570799 -1.391898 -1.570795
29  2.033350 1.000764 1.937663  1.227517 0.585911 1.190966
30  2.054642 1.135751 1.937679  1.227515 0.585914 1.190966
31  0.000001 -0.000001 0.000004  1.583265 0.000007 1.570794
32  0.000000 6.028147 -0.000001  -0.418373 -0.504702 -0.900846
33  -0.000001 0.000009 -0.000005  -0.000002 0.000003 1.570792
34  0.000017 6.028144 -0.000010  -0.543773 0.363576 0.458168
35  -0.000000 11.692571 0.000000  -0.000001 -0.000005 -0.673402
36  0.000001 -0.000000 -0.000002  0.000005 0.000000 1.570801
37  11.692571 0.000055 0.000042  0.000004 -0.000002 -0.673393
38  0.000001 11.481680 -0.000000  0.405813 0.487111 0.764453
39  -0.000000 0.000001 0.000001  0.000000 -0.000000 1.570789
40  11.481682 -0.000056 0.000007  0.522964 -0.356339 0.565978
41  0.137968 3.859857 1.332473  -1.465493 -1.619450 0.860125
42  -0.000000 0.000000 -0.000003  1.933714 0.000004 1.570794
43  3.859859 -0.137941 1.332471  0.357798 -0.048386 -0.605242
44  -0.000000 1.719428 -0.000002  -0.420939 0.202310 0.066145
45  -0.000001 0.000001 -0.000001  1.743430 0.000000 1.570798
46  1.719433 0.000007 -0.000006  0.000190 -0.009110 -0.438661
47  -0.000003 1.099661 0.000000  1.022438 1.907864 1.050416
48  0.000000 0.000001 -0.000001  -0.000002 0.000003 1.570799
49  1.099663 0.000001 0.000001  -0.000120 0.002599 -0.291032
50  0.046788 3.883690 0.431450  -0.027987 -1.505149 -0.644145
51  -0.000000 -0.000000 0.000001  1.590082 0.000009 1.570787
52  3.883691 -0.046761 0.431448  0.084907 0.001827 -0.672069
53  -0.000001 1.719576 0.000000  -0.720119 0.051523 -0.006475
54  -0.000000 0.000000 0.000003  1.538381 -0.000002 1.570794
55  1.719580 0.000015 -0.000017  -0.003915 0.016395 -0.719647
56  0.000001 1.209182 0.000002  -1.502666 1.085628 -1.507499
57  -0.000001 -0.000000 -0.000001  -0.000000 -0.000000 1.570805
58  1.209185 -0.000004 -0.000002  -0.000816 0.002971 -0.484110
59  -0.046751 3.942328 -0.431436  -0.326352 -1.473454 -0.660540
60  0.000001 0.000002 0.000001  1.317660 0.000000 1.570797
61  3.942328 0.046778 -0.431439  -0.160902 0.031164 -0.985445
62  0.000001 1.539092 0.000001  -0.255148 -0.026494 -0.056799
63  0.000001 0.000000 -0.000000  1.337310 -0.000004 1.570800
64  1.539097 -0.000002 0.000003  -0.000026 0.003546 -0.262696
65  0.000002 1.196323 -0.000001  -1.013165 1.118288 -1.059627
66  0.000001 0.000000 0.000000  0.000000 -0.000001 1.570800
67  1.196326 -0.000007 0.000003  0.000000 0.000003 -0.391241
68  0.142426 3.859706 -1.191968  -0.667332 -1.423721 -0.301304
69  0.000001 0.000001 -0.000002  0.976757 -0.000005 1.570807
70  3.859707 -0.142400 -1.191971  -0.478195 0.090831 -0.963358
71  0.000000 1.312571 0.000003  -0.361396 -0.138963 -0.204711
72  -0.000001 0.000000 -0.000001  1.078169 0.000003 1.570794
73  1.312579 -0.000012 0.000009  0.000005 -0.001326 -0.437269
74  -0.000001 0.729364 -0.000000  -0.404500 1.030420 -0.463046
75  0.000002 0.000000 0.000000  -0.000001 -0.000001 1.570795
76  0.729367 -0.000002 -0.000001  0.000002 -0.000005 -0.231866
77  0.348928 0.806046 1.321259  -1.143012 -2.276536 0.650302
78  -0.000001 0.000001 0.000000  0.437032 0.000002 1.570791
79  0.806048 -0.348924 1.321257  -1.473572 -0.631249 -0.380781
80  -0.000001 1.789784 -0.000000  0.105696 0.066380 0.343721
81  -0.000000 0.000002 0.000000  0.347279 0.000000 1.570806
82  1.789789 0.000011 -0.000003  0.002655 0.043693 0.349620
83  -0.000001 1.207000 0.000000  0.184136 0.296129 0.568059
84  -0.000000 -0.000000 -0.000001  0.000001 -0.000001 1.570797
85  1.207002 -0.000009 0.000005  -0.000004 0.000001 0.540509
86  0.000000 0.000000 1.000000  1.570796 -0.000000 0.000000
time 10
0  0.000000 3.394629 -8.644796  -1.570797 -1.391899 -1.570795
1  2.033355 1.000772 -1.937610  1.473119 1.855075 -0.198639
2  6.028144 0.000003 -0.000000  2.114837 1.513297 -0.446374
3  11.692556 -0.000000 0.000002  0.000000 -0.000000 -0.317560
4  11.481697 0.000001 0.000003  -1.288835 0.007428 0.201108
5  3.859678 -0.132568 1.193111  0.432210 -0.155861 -0.861350
6  1.312558 0.000001 0.000003  -0.000000 0.000000 -1.191994
7  0.729364 -0.000001 -0.000002  0.000000 -0.000000 -1.063394
8  3.942306 0.050329 0.431046  0.232421 0.000609 -0.853331
9  1.539097 -0.000000 0.000001  0.000000 -0.000000 -0.973399
10  1.196322 0.000005 -0.000001  0.000000 0.000000 -1.451289
11  3.883659 -0.050322 -0.431042  0.066987 0.050243 -0.694792
12  1.719576 0.000003 -0.000000  0.000000 -0.000000 -1.251039
13  1.209188 -0.000001 -0.000000  -0.000000 -0.000003 -1.141145
14  3.859837 -0.148937 -1.331281  -0.248855 0.263129 -0.072121
15  1.719421 0.000001 0.000000  -0.000000 0.000000 -0.676756
16  1.099667 0.000003 0.000000  -0.000000 0.000000 -1.021287
17  0.806019 -0.359836 -1.318335  1.349685 0.343493 -0.771450
18  1.789783 0.000002 -0.000006  0.000000 0.000000 0.397500
19  1.206995 0.000004 -0.000000  -0.000000 -0.000000 0.989033
20  6.104523 -1.468681 -3.530282  -1.564198 -0.011689 -1.581440
21  3.820736 -1.409993 -0.589408  -1.564198 -0.011689 -1.581440
22  0.222824 -3.739063 1.509297  0.024887 2.851473 -1.494016
23  3.048726 6.125610 1.106842  1.596061 0.018247 -0.808184
24  3.527214 5.063568 0.216260  1.596061 0.018246 -0.808184
25  3.352949 5.114326 -0.401206  1.596061 0.018247 -0.808184
26  2.909482 4.772883 -1.012055  1.596061 0.018247 -0.808184
27  1.772478 4.476571 2.356868  1.596061 0.018247 -0.808184
28  0.000006 3.336140 -8.647861  -1.570799 -1.391898 -1.570795
29  2.033350 1.000764 1.937663  1.227517 0.585911 1.190966
30  2.040741 1.058871 1.937679  1.227515 0.585914 1.190966
31  0.000001 -0.000001 0.000004  1.583265 0.000007 1.570794
32  0.000000 6.028147 -0.000001  -0.411419 -0.507864 -0.911149
33  0.000000 0.000010 -0.000006  -0.000002 0.000003 1.570792
34  0.000017 6.028144 -0.000010  -0.545719 0.356968 0.450552
35  0.000001 11.692571 -0.000000  -0.000001 -0.000005 -0.652073
36  -0.000001 0.000001 -0.000002  0.000005 0.000000 1.570801
37  11.692570 0.000053 0.000042  0.000004 -0.000002 -0.652064
38  -0.000001 11.481681 -0.000001  0.410598 0.487055 0.751623
39  -0.000000 0.000003 0.000001  0.000000 -0.000000 1.570789
40  11.481684 -0.000055 0.000006  0.523801 -0.360495 0.550614
41  0.137968 3.859860 1.332474  -1.465461 -1.619439 0.860087
42  0.000000 0.000000 0.000001  1.933714 0.000004 1.570794
43  3.859862 -0.137941 1.332472  0.357798 -0.048374 -0.605256
44  -0.000000 1.719431 0.000002  -0.420906 0.202310 0.066145
45  0.000000 0.000001 -0.000001  1.743430 0.000000 1.570799
46  1.719434 0.000007 -0.000008  0.000190 -0.009105 -0.438628
47  -0.000001 1.099666 0.000002  1.022395 1.907840 1.050371
48  0.000001 0.000000 0.000001  -0.000002 0.000003 1.570799
49  1.099667 0.000005 0.000001  -0.000119 0.002600 -0.291003
50  0.046789 3.883689 0.431451  -0.028101 -1.505149 -0.644021
51  0.000001 0.000001 -0.000000  1.590082 0.000009 1.570787
52  3.883691 -0.046762 0.431449  0.084906 0.001834 -0.672064
53  0.000000 1.719577 0.000001  -0.720110 0.051523 -0.006475
54  0.000000 0.000000 0.000002  1.538381 -0.000002 1.570794
55  1.719585 0.000019 -0.000016  -0.003915 0.016394 -0.719638
56  -0.000002 1.209185 0.000003  -1.502665 1.085635 -1.507498
57  -0.000002 0.000000 0.000001  -0.000000 -0.000000 1.570805
58  1.209188 -0.000001 -0.000005  -0.000816 0.002971 -0.484102
59  -0.046750 3.942329 -0.431434  -0.326430 -1.473453 -0.660460
60  0.000001 -0.000000 -0.000002  1.317660 0.000000 1.570797
61  3.942329 0.046778 -0.431436  -0.160903 0.031171 -0.985446
62  -0.000000 1.539091 -0.000001  -0.255129 -0.026494 -0.056799
63  0.000001 0.000001 0.000001  1.337310 -0.000004 1.570800
64  1.539097 0.000001 0.000001  -0.000026 0.003541 -0.262678
65  0.000001 1.196324 0.000003  -1.013141 1.118307 -1.059600
66  -0.000000 0.000000 -0.000001  0.000000 -0.000001 1.570800
67  1.196328 -0.000006 0.000005  0.000000 0.000004 -0.391218
68  0.142426 3.859709 -1.191967  -0.667359 -1.423718 -0.301278
69  0.000001 0.000002 -0.000002  0.976757 -0.000005 1.570807
70  3.859710 -0.142400 -1.191968  -0.478195 0.090835 -0.963360
71  0.000001 1.312569 -0.000003  -0.361376 -0.138964 -0.204711
72  0.000001 0.000000 -0.000003  1.078169 0.000003 1.570794
73  1.312574 -0.000017 0.000010  0.000004 -0.001336 -0.437252
74  0.000000 0.729365 -0.000006  -0.404469 1.030428 -0.463011
75  0.000000 -0.000000 -0.000001  -0.000001 -0.000001 1.570795
76  0.729368 -0.000001 -0.000002  0.000002 -0.000004 -0.231846
77  0.348928 0.806047 1.321260  -1.142991 -2.276507 0.650290
78  -0.000000 -0.000000 0.000001  0.437032 0.000002 1.570791
79  0.806049 -0.348924 1.321259  -1.473568 -0.631218 -0.380781
80  0.000002 1.789782 -0.000001  0.105695 0.066382 0.343698
81  0.000000 -0.000001 0.000000  0.347279 0.000000 1.570806
82  1.789787 0.000008 -0.000003  0.002654 0.043686 0.349598
83  0.000000 1.206999 0.000001  0.184126 0.296135 0.568023
84  -0.000000 -0.000003 0.000000  0.000001 -0.000001 1.570797
85  1.207005 -0.000010 0.000007  -0.000004 0.000001 0.540474
86  0.000000 0.000000 1.000000  1.570796 -0.000000 0.000000
time 11
0  0.000000 3.347752 -8.644795  -1.570797 -1.391899 -1.570795
1  2.033355 1.000772 -1.937610  1.473119 1.855075 -0.198639
2  6.028144 0.000001 0.000000  2.118875 1.513671 -0.442333
3  11.692554 0.000000 0.000002  -0.000000 0.000000 -0.316658
4  11.481697 0.000001 0.000002  -1.288835 0.007428 0.200690
5  3.859680 -0.132569 1.193111  0.432210 -0.155861 -0.861350
6  1.312558 0.000000 0.000001  -0.000000 0.000000 -1.191994
7  0.729366 0.000000 -0.000002  0.000000 -0.000000 -1.063394
8  3.942306 0.050329 0.431046  0.232421 0.000609 -0.853331
9  1.539099 0.000000 0.000001  0.000000 -0.000000 -0.973399
10  1.196322 0.000007 -0.000000  0.000000 0.000000 -1.451289
11  3.883658 -0.050322 -0.431042  0.066987 0.050243 -0.694792
12  1.719577 0.000004 -0.000001  0.000000 -0.000000 -1.251039
13  1.209186 0.000001 -0.000000  -0.000000 -0.000003 -1.141145
14  3.859835 -0.148937 -1.331282  -0.248855 0.263129 -0.072121
15  1.719423 0.000002 -0.000000  -0.000000 0.000000 -0.676756
16  1.099667 0.000003 0.000003  -0.000000 0.000000 -1.021287
17  0.806018 -0.359836 -1.318336  1.349685 0.343493 -0.771450
18  1.789782 0.000000 -0.000003  0.000000 0.000000 0.397500
19  1.206997 0.000001 0.000001  -0.000000 -0.000000 0.989033
20  6.104523 -1.468681 -3.530283  -1.564198 -0.011689 -1.581440
21  3.820740 -1.409993 -0.589408  -1.564198 -0.011689 -1.581440
22  0.222817 -3.739061 1.509295  0.024887 2.851473 -1.494016
23  3.048727 6.125615 1.106840  1.596061 0.018247 -0.808184
24  3.527214 5.063570 0.216259  1.596061 0.018246 -0.808184
25  3.352950 5.114330 -0.401207  1.596061 0.018247 -0.808184
26  2.909482 4.772886 -1.012056  1.596061 0.018247 -0.808184
27  1.772478 4.476574 2.356868  1.596061 0.018247 -0.808184
28  0.000006 3.336140 -8.647861  -1.570799 -1.391898 -1.570795
29  2.033350 1.000764 1.937663  1.227517 0.585911 1.190966
30  2.032398 1.012742 1.937679  1.227515 0.585914 1.190966
31  0.000001 -0.000001 0.000004  1.583265 0.000007 1.570794
32  0.000000 6.028147 -0.000001  -0.407659 -0.509598 -0.916826
33  -0.000001 0.000010 -0.000005  -0.000002 0.000003 1.570792
34  0.000017 6.028144 -0.000010  -0.546805 0.353397 0.446329
35  -0.000001 11.692572 0.000000  -0.000001 -0.000005 -0.640330
36  -0.000000 0.000002 -0.000002  0.000005 0.000000 1.570801
37  11.692570 0.000055 0.000041  0.000004 -0.000001 -0.640321
38  0.000000 11.481681 -0.000000  0.409388 0.486776 0.744571
39  -0.000001 -0.000001 -0.000001  0.000000 -0.000000 1.570789
40  11.481684 -0.000055 0.000008  0.523281 -0.359503 0.544311
41  0.137968 3.859857 1.332472  -1.465458 -1.619430 0.860060
42  0.000000 0.000001 0.000001  1.933714 0.000004 1.570794
43  3.859859 -0.137941 1.332471  0.357798 -0.048366 -0.605270
44  -0.000001 1.719429 0.000001  -0.420877 0.202310 0.066145
45  -0.000000 0.000000 -0.000000  1.743430 0.000000 1.570799
46  1.719430 0.000004 -0.000006  0.000190 -0.009100 -0.438600
47  -0.000000 1.099663 0.000000  1.022359 1.907819 1.050333
48  0.000002 -0.000001 0.000000  -0.000002 0.000003 1.570799
49  1.099667 -0.000000 0.000004  -0.000120 0.002599 -0.290979
50  0.046789 3.883686 0.431450  -0.028155 -1.505149 -0.643966
51  -0.000000 -0.000001 -0.000000  1.590082 0.000009 1.570787
52  3.883687 -0.046762 0.431449  0.084906 0.001838 -0.672064
53  0.000001 1.719576 0.000002  -0.720102 0.051523 -0.006475
54  -0.000000 -0.000001 0.000002  1.538381 -0.000002 1.570794
55  1.719581 0.000018 -0.000015  -0.003915 0.016394 -0.719629
56  -0.000000 1.209182 -0.000001  -1.502664 1.085641 -1.507497
57  0.000001 -0.000001 -0.000000  -0.000000 -0.000000 1.570805
58  1.209187 -0.000004 -0.000002  -0.000816 0.002971 -0.484096
59  -0.046750 3.942323 -0.431437  -0.326452 -1.473453 -0.660444
60  -0.000000 0.000000 -0.000001  1.317660 0.000000 1.570797
61  3.942325 0.046777 -0.431437  -0.160904 0.031173 -0.985452
62  -0.000003 1.539096 0.000005  -0.255116 -0.026494 -0.056799
63  -0.000000 0.000000 -0.000000  1.337310 -0.000004 1.570800
64  1.539101 0.000006 0.000000  -0.000026 0.003539 -0.262665
65  -0.000000 1.196322 0.000002  -1.013123 1.118320 -1.059580
66  0.000001 -0.000000 0.000000  0.000000 -0.000001 1.570800
67  1.196326 -0.000002 0.000005  0.000001 0.000003 -0.391202
68  0.142427 3.859703 -1.191969  -0.667377 -1.423717 -0.301263
69  0.000000 -0.000002 0.000001  0.976757 -0.000005 1.570807
70  3.859704 -0.142401 -1.191970  -0.478195 0.090838 -0.963362
71  -0.000002 1.312566 -0.000002  -0.361364 -0.138963 -0.204711
72  0.000000 -0.000001 -0.000001  1.078169 0.000003 1.570794
73  1.312574 -0.000014 0.000006  0.000004 -0.001342 -0.437240
74  0.000000 0.729362 -0.000003  -0.404449 1.030433 -0.462987
75  0.000003 0.000000 -0.000000  -0.000001 -0.000001 1.570795
76  0.729366 0.000002 -0.000000  0.000001 -0.000004 -0.231833
77  0.348928 0.806042 1.321259  -1.142981 -2.276490 0.650282
78  -0.000001 0.000001 0.000000  0.437032 0.000002 1.570790
79  0.806044 -0.348924 1.321259  -1.473564 -0.631199 -0.380782
80  0.000001 1.789784 -0.000000  0.105694 0.066383 0.343684
81  0.000000 0.000001 0.000000  0.347279 0.000000 1.570806
82  1.789789 0.000009 -0.000001  0.002654 0.043681 0.349585
83  0.000001 1.207001 0.000003  0.184119 0.296139 0.568002
84  -0.000001 0.000002 0.000000  0.000001 -0.000001 1.570797
85  1.207005 -0.000012 0.000005  -0.000003 0.000001 0.540453
86  0.000000 0.000000 1.000000  1.570796 -0.000000 0.000000
time 12
0  0.000000 3.336033 -8.644795  -1.570797 -1.391899 -1.570795
1  2.033355 1.000772 -1.937610  1.473119 1.855075 -0.198639
2  6.028144 0.000002 0.000000  2.118875 1.513671 -0.442333
3  11.692554 0.000000 0.000002  -0.000000 0.000000 -0.316658
4  11.481697 0.000002 0.000002  -1.288835 0.007428 0.200690
5  3.859679 -0.132569 1.193111  0.432210 -0.155861 -0.861350
6  1.312559 0.000000 0.000001  -0.000000 0.000000 -1.191994
7  0.729366 0.000002 -0.000002  0.000000 -0.000000 -1.063394
8  3.942304 0.050329 0.431046  0.232421 0.000609 -0.853331
9  1.539096 0.000000 0.000001  0.000000 -0.000000 -0.973399
10  1.196322 0.000008 -0.000000  0.000000 0.000000 -1.451289
11  3.883657 -0.050323 -0.431042  0.066987 0.050243 -0.694792
12  1.719578 0.000004 -0.000000  0.000000 -0.000000 -1.251039
13  1.209186 0.000001 0.000000  -0.000000 -0.000003 -1.141145
14  3.859833 -0.148937 -1.331282  -0.248855 0.263129 -0.072121
15  1.719423 0.000001 0.000000  -0.000000 0.000000 -0.676756
16  1.099665 0.000003 0.000000  -0.000000 0.000000 -1.021287
17  0.806016 -0.359836 -1.318336  1.349685 0.343493 -0.771450
18  1.789782 -0.000001 -0.000005  0.000000 0.000000 0.397500
19  1.206998 0.000002 0.000001  -0.000000 -0.000000 0.989033
20  6.104521 -1.468681 -3.530283  -1.564198 -0.011689 -1.581440
21  3.820738 -1.409993 -0.589408  -1.564198 -0.011689 -1.581440
22  0.222817 -3.739061 1.509295  0.024887 2.851473 -1.494016
23  3.048727 6.125611 1.106841  1.596061 0.018247 -0.808184
24  3.527214 5.063566 0.216260  1.596061 0.018246 -0.808184
25  3.352950 5.114326 -0.401206  1.596061 0.018247 -0.808184
26  2.909482 4.772882 -1.012055  1.596061 0.018247 -0.808184
27  1.772479 4.476570 2.356869  1.596061 0.018247 -0.808184
28  0.000006 3.336140 -8.647861  -1.570799 -1.391898 -1.570795
29  2.033350 1.000764 1.937663  1.227517 0.585911 1.190966
30  2.030313 1.001210 1.937679  1.227515 0.585914 1.190966
31  0.000001 -0.000001 0.000004  1.583265 0.000007 1.570794
32  0.000000 6.028147 -0.000001  -0.406741 -0.510019 -0.918215
33  0.000000 0.000010 -0.000005  -0.000002 0.000003 1.570792
34  0.000017 6.028144 -0.000010  -0.547068 0.352526 0.445297
35  0.000000 11.692570 0.000000  -0.000001 -0.000005 -0.637465
36  -0.000001 0.000001 -0.000002  0.000005 0.000000 1.570801
37  11.692570 0.000053 0.000041  0.000004 -0.000001 -0.637456
38  -0.000000 11.481682 0.000000  0.409107 0.486708 0.742854
39  -0.000000 0.000001 0.000000  0.000000 -0.000000 1.570789
40  11.481685 -0.000052 0.000009  0.523157 -0.359273 0.542769
41  0.137967 3.859862 1.332473  -1.465463 -1.619431 0.860062
42  0.000000 0.000000 -0.000000  1.933714 0.000004 1.570794
43  3.859863 -0.137941 1.332471  0.357799 -0.048366 -0.605269
44  0.000000 1.719428 0.000000  -0.420878 0.202310 0.066145
45  -0.000000 -0.000001 -0.000000  1.743430 0.000000 1.570799
46  1.719435 0.000007 -0.000006  0.000189 -0.009100 -0.438601
47  0.000001 1.099659 -0.000003  1.022360 1.907819 1.050332
48  -0.000000 0.000002 0.000001  -0.000002 0.000003 1.570799
49  1.099664 -0.000003 0.000003  -0.000119 0.002599 -0.290980
50  0.046788 3.883689 0.431450  -0.028156 -1.505149 -0.643968
51  0.000000 -0.000002 -0.000001  1.590082 0.000009 1.570787
52  3.883691 -0.046762 0.431448  0.084907 0.001838 -0.672064
53  0.000001 1.719573 0.000001  -0.720102 0.051523 -0.006475
54  -0.000001 -0.000000 -0.000002  1.538381 -0.000002 1.570794
55  1.719580 0.000016 -0.000016  -0.003914 0.016394 -0.719629
56  -0.000000 1.209180 -0.000003  -1.502664 1.085641 -1.507497
57  0.000001 0.000000 -0.000000  -0.000000 -0.000000 1.570805
58  1.209185 -0.000003 -0.000001  -0.000816 0.002971 -0.484096
59  -0.046751 3.942325 -0.431436  -0.326455 -1.473452 -0.660441
60  -0.000001 -0.000000 0.000001  1.317660 0.000000 1.570797
61  3.942323 0.046778 -0.431438  -0.160903 0.031174 -0.985450
62  -0.000001 1.539092 0.000002  -0.255115 -0.026494 -0.056799
63  -0.000000 0.000001 0.000000  1.337310 -0.000004 1.570800
64  1.539097 -0.000001 0.000002  -0.000026 0.003538 -0.262664
65  -0.000001 1.196323 0.000000  -1.013122 1.118321 -1.059580
66  0.000003 0.000000 0.000000  0.000000 -0.000001 1.570800
67  1.196328 -0.000003 0.000003  0.000001 0.000003 -0.391201
68  0.142426 3.859709 -1.191967  -0.667373 -1.423717 -0.301267
69  -0.000001 -0.000000 0.000000  0.976757 -0.000005 1.570807
70  3.859710 -0.142400 -1.191970  -0.478195 0.090838 -0.963362
71  -0.000000 1.312565 0.000001  -0.361360 -0.138963 -0.204711
72  0.000000 0.000000 0.000000  1.078169 0.000003 1.570794
73  1.312571 -0.000016 0.000009  0.000005 -0.001343 -0.437237
74  0.000002 0.729364 -0.000001  -0.404444 1.030434 -0.462982
75  0.000002 -0.000001 -0.000001  -0.000001 -0.000001 1.570795
76  0.729367 -0.000003 0.000000  0.000002 -0.000005 -0.231830
77  0.348928 0.806048 1.321260  -1.142977 -2.276485 0.650281
78  0.000000 0.000001 0.000000  0.437032 0.000002 1.570790
79  0.806048 -0.348924 1.321259  -1.473563 -0.631194 -0.380781
80  0.000000 1.789783 0.000000  0.105694 0.066384 0.343680
81  0.000001 -0.000002 0.000000  0.347279 0.000000 1.570806
82  1.789786 0.000010 -0.000002  0.002654 0.043679 0.349581
83  -0.000000 1.206998 0.000000  0.184117 0.296140 0.567995
84  0.000000 0.000002 -0.000000  0.000001 -0.000001 1.570797
85  1.207005 -0.000010 0.000004  -0.000004 0.000001 0.540446
86  0.000000 0.000000 1.000000  1.570796 -0.000000 0.000000
end
