version 1
nodes
0 "ValveBiped.Bip01_Spine4" -1
1 "ValveBiped.Bip01_R_Clavicle" 0
2 "ValveBiped.Bip01_R_UpperArm" 1
3 "ValveBiped.Bip01_R_Forearm" 2
4 "ValveBiped.Bip01_R_Hand" 3
5 "ValveBiped.Bip01_R_Finger4" 4
6 "ValveBiped.Bip01_R_Finger41" 5
7 "ValveBiped.Bip01_R_Finger42" 6
8 "ValveBiped.Bip01_R_Finger3" 4
9 "ValveBiped.Bip01_R_Finger31" 8
10 "ValveBiped.Bip01_R_Finger32" 9
11 "ValveBiped.Bip01_R_Finger2" 4
12 "ValveBiped.Bip01_R_Finger21" 11
13 "ValveBiped.Bip01_R_Finger22" 12
14 "ValveBiped.Bip01_R_Finger1" 4
15 "ValveBiped.Bip01_R_Finger11" 14
16 "ValveBiped.Bip01_R_Finger12" 15
17 "ValveBiped.Bip01_R_Finger0" 4
18 "ValveBiped.Bip01_R_Finger01" 17
19 "ValveBiped.Bip01_R_Finger02" 18
20 "ValveBiped.square" 4
21 "ValveBiped.clip" 4
22 "ik_target.Bip01_L_Hand" 4
23 "ik_target.Bip01_L_Finger1_tip" 22
24 "ik_target.Bip01_L_Finger2_tip" 22
25 "ik_target.Bip01_L_Finger3_tip" 22
26 "ik_target.Bip01_L_Finger4_tip" 22
27 "ik_target.Bip01_L_Finger0_tip" 22
28 "ik_chain.Bip01_Spine4" -1
29 "ik_chain.Bip01_L_Clavicle" 28
30 "ValveBiped.Bip01_L_Clavicle" 0
31 "ik_parent.Bip01_L_Clavicle" 29
32 "ik_chain.Bip01_L_UpperArm" 29
33 "ik_parent.Bip01_L_UpperArm" 32
34 "ValveBiped.Bip01_L_UpperArm" 30
35 "ik_chain.Bip01_L_Forearm" 32
36 "ik_parent.Bip01_L_Forearm" 35
37 "ValveBiped.Bip01_L_Forearm" 34
38 "ik_chain.Bip01_L_Hand" 35
39 "ik_parent.Bip01_L_Hand" 38
40 "ValveBiped.Bip01_L_Hand" 37
41 "ik_chain.Bip01_L_Finger1" 38
42 "ik_parent.Bip01_L_Finger1" 41
43 "ValveBiped.Bip01_L_Finger1" 40
44 "ik_chain.Bip01_L_Finger11" 41
45 "ik_parent.Bip01_L_Finger11" 44
46 "ValveBiped.Bip01_L_Finger11" 43
47 "ik_chain.Bip01_L_Finger12" 44
48 "ik_parent.Bip01_L_Finger12" 47
49 "ValveBiped.Bip01_L_Finger12" 46
50 "ik_chain.Bip01_L_Finger2" 38
51 "ik_parent.Bip01_L_Finger2" 50
52 "ValveBiped.Bip01_L_Finger2" 40
53 "ik_chain.Bip01_L_Finger21" 50
54 "ik_parent.Bip01_L_Finger21" 53
55 "ValveBiped.Bip01_L_Finger21" 52
56 "ik_chain.Bip01_L_Finger22" 53
57 "ik_parent.Bip01_L_Finger22" 56
58 "ValveBiped.Bip01_L_Finger22" 55
59 "ik_chain.Bip01_L_Finger3" 38
60 "ik_parent.Bip01_L_Finger3" 59
61 "ValveBiped.Bip01_L_Finger3" 40
62 "ik_chain.Bip01_L_Finger31" 59
63 "ik_parent.Bip01_L_Finger31" 62
64 "ValveBiped.Bip01_L_Finger31" 61
65 "ik_chain.Bip01_L_Finger32" 62
66 "ik_parent.Bip01_L_Finger32" 65
67 "ValveBiped.Bip01_L_Finger32" 64
68 "ik_chain.Bip01_L_Finger4" 38
69 "ik_parent.Bip01_L_Finger4" 68
70 "ValveBiped.Bip01_L_Finger4" 40
71 "ik_chain.Bip01_L_Finger41" 68
72 "ik_parent.Bip01_L_Finger41" 71
73 "ValveBiped.Bip01_L_Finger41" 70
74 "ik_chain.Bip01_L_Finger42" 71
75 "ik_parent.Bip01_L_Finger42" 74
76 "ValveBiped.Bip01_L_Finger42" 73
77 "ik_chain.Bip01_L_Finger0" 38
78 "ik_parent.Bip01_L_Finger0" 77
79 "ValveBiped.Bip01_L_Finger0" 40
80 "ik_chain.Bip01_L_Finger01" 77
81 "ik_parent.Bip01_L_Finger01" 80
82 "ValveBiped.Bip01_L_Finger01" 79
83 "ik_chain.Bip01_L_Finger02" 80
84 "ik_parent.Bip01_L_Finger02" 83
85 "ValveBiped.Bip01_L_Finger02" 82
86 "ik_enable" -1
end
skeleton
time 0
0  0.000005 3.335938 -8.640624  -1.570780 -1.391896 -1.570809
1  2.033355 1.000771 -1.937610  1.473118 1.855075 -0.198640
2  6.028144 -0.000000 0.000000  1.641066 1.116599 -0.925673
3  11.692555 -0.000001 0.000004  -0.000000 -0.000000 -1.180669
4  11.481699 -0.000001 0.000001  -1.286801 0.004693 0.534476
5  3.859676 -0.132569 1.193110  0.432208 -0.155862 -0.861350
6  1.312557 -0.000002 -0.000000  0.000000 0.000000 -1.191994
7  0.729363 0.000001 -0.000001  0.000000 -0.000000 -1.063394
8  3.942307 0.050328 0.431045  0.232421 0.000609 -0.853331
9  1.539099 0.000001 0.000000  0.000000 -0.000000 -0.973379
10  1.196319 0.000014 0.000001  -0.000000 0.000000 -1.451289
11  3.883661 -0.050323 -0.431041  0.066987 0.050243 -0.694792
12  1.719580 0.000004 -0.000001  -0.000000 -0.000000 -1.251039
13  1.209187 -0.000001 0.000000  -0.000000 -0.000003 -1.141145
14  3.859836 -0.148938 -1.331281  -0.248855 0.263129 -0.072121
15  1.719424 0.000001 0.000001  -0.000000 -0.000000 -0.676756
16  1.099668 -0.000001 0.000002  0.000000 -0.000004 -1.021265
17  0.806020 -0.359837 -1.318335  1.349685 0.343493 -0.771450
18  1.789785 -0.000000 -0.000005  0.000000 0.000000 0.397500
19  1.207000 0.000004 0.000001  0.000000 0.000000 0.989033
20  4.125000 -1.447266 -3.542969  -1.564198 -0.011689 -1.581440
21  3.820736 -1.409993 -0.589409  -1.564198 -0.011689 -1.581440
22  0.222823 -3.739063 1.509298  0.024887 2.851473 -1.494016
23  3.048727 6.125611 1.106841  1.596061 0.018247 -0.808184
24  3.527214 5.063568 0.216259  1.596061 0.018246 -0.808184
25  3.352950 5.114327 -0.401207  1.596061 0.018247 -0.808184
26  2.909481 4.772883 -1.012056  1.596061 0.018247 -0.808184
27  1.772478 4.476571 2.356867  1.596061 0.018247 -0.808184
28  0.000006 3.336140 -8.647861  -1.570799 -1.391898 -1.570795
29  2.033350 1.000764 1.937663  1.227517 0.585911 1.190966
30  2.026190 1.001859 1.937675  1.227511 0.585916 1.190961
31  0.000001 -0.000001 0.000004  1.583265 0.000007 1.570794
32  0.000000 6.028147 -0.000001  -0.592292 -0.409979 -0.676576
33  -0.000001 0.000010 -0.000006  -0.000002 0.000003 1.570792
34  0.000015 6.028144 -0.000012  -0.482535 0.537511 0.632173
35  -0.000001 11.692572 -0.000000  0.000002 -0.000004 -1.242636
36  -0.000002 0.000001 -0.000002  0.000005 0.000000 1.570801
37  11.692572 0.000057 0.000042  0.000006 -0.000003 -1.242628
38  -0.000001 11.481681 -0.000000  0.625886 0.511434 1.159304
39  -0.000000 0.000000 0.000001  0.000000 -0.000000 1.570789
40  11.481690 -0.000055 0.000007  0.605683 -0.536175 0.819262
41  0.137968 3.859859 1.332475  -1.467699 -1.619902 0.861387
42  0.000001 -0.000000 -0.000001  1.933714 0.000004 1.570794
43  3.859867 -0.137941 1.332472  0.357859 -0.048847 -0.606194
44  0.000002 1.719429 0.000000  -0.420609 0.202310 0.066145
45  -0.000001 0.000001 -0.000001  1.743430 0.000000 1.570798
46  1.719434 0.000007 -0.000006  0.000187 -0.009054 -0.438336
47  0.000000 1.099661 0.000001  1.021786 1.907491 1.049726
48  0.000001 -0.000000 -0.000000  -0.000002 0.000003 1.570799
49  1.099662 -0.000000 0.000003  -0.000119 0.002600 -0.290595
50  0.046788 3.883689 0.431452  -0.019587 -1.505153 -0.653688
51  0.000001 0.000002 0.000000  1.590082 0.000009 1.570787
52  3.883696 -0.046762 0.431448  0.084917 0.001276 -0.673239
53  0.000001 1.719575 -0.000001  -0.719500 0.051523 -0.006475
54  0.000002 0.000001 0.000000  1.538382 -0.000002 1.570794
55  1.719578 0.000016 -0.000015  -0.003905 0.016376 -0.719028
56  0.000003 1.209184 0.000001  -1.502573 1.086344 -1.507394
57  -0.000001 -0.000000 0.000001  -0.000000 -0.000000 1.570805
58  1.209185 0.000002 -0.000002  -0.000814 0.002972 -0.483391
59  -0.046751 3.942327 -0.431435  -0.321336 -1.473669 -0.667359
60  0.000001 0.000001 0.000001  1.317660 0.000000 1.570797
61  3.942333 0.046778 -0.431438  -0.160951 0.030633 -0.987277
62  0.000001 1.539092 0.000001  -0.253853 -0.026494 -0.056799
63  0.000002 0.000000 0.000002  1.337310 -0.000004 1.570800
64  1.539096 0.000003 0.000002  -0.000022 0.003246 -0.261437
65  0.000001 1.196324 0.000003  -1.011033 1.119943 -1.057257
66  -0.000002 -0.000000 0.000000  0.000000 -0.000001 1.570800
67  1.196327 -0.000006 0.000003  -0.000000 0.000003 -0.389290
68  0.142426 3.859703 -1.191965  -0.663800 -1.424438 -0.307143
69  0.000002 -0.000001 -0.000000  0.976757 -0.000005 1.570807
70  3.859712 -0.142400 -1.191969  -0.478445 0.089982 -0.965724
71  0.000002 1.312562 0.000000  -0.359623 -0.138964 -0.204711
72  0.000002 -0.000000 -0.000000  1.078169 0.000003 1.570794
73  1.312569 -0.000014 0.000007  0.000001 -0.002165 -0.435707
74  0.000002 0.729362 0.000001  -0.401318 1.031234 -0.459336
75  0.000000 0.000000 -0.000000  -0.000001 -0.000001 1.570795
76  0.729366 0.000003 0.000000  0.000001 -0.000004 -0.229793
77  0.348928 0.806044 1.321260  -1.143896 -2.276991 0.650479
78  0.000000 0.000000 -0.000000  0.437032 0.000002 1.570791
79  0.806048 -0.348924 1.321257  -1.473251 -0.631934 -0.381468
80  -0.000000 1.789784 -0.000001  0.105709 0.066359 0.343918
81  0.000000 0.000000 -0.000001  0.347279 0.000000 1.570806
82  1.789790 0.000010 -0.000003  0.002664 0.043760 0.349807
83  -0.000000 1.207001 -0.000000  0.184234 0.296069 0.568394
84  0.000001 0.000002 -0.000000  0.000001 -0.000001 1.570797
85  1.207004 -0.000010 0.000005  -0.000004 0.000001 0.540834
86  0.000000 0.000000 1.000000  1.570796 -0.000000 0.000000
time 1
0  0.000005 3.335938 -8.640624  -1.570780 -1.391896 -1.570809
1  2.033355 1.000771 -1.937610  1.473118 1.855075 -0.198640
2  6.028144 -0.000000 0.000000  1.644692 1.153614 -0.921946
3  11.692556 -0.000000 0.000003  -0.000000 0.000000 -1.093448
4  11.481697 -0.000002 0.000001  -1.287764 0.006236 0.358045
5  3.859673 -0.132571 1.193109  0.432208 -0.155862 -0.861350
6  1.312557 -0.000001 0.000001  -0.000000 -0.000000 -1.191994
7  0.729364 0.000004 -0.000002  0.000000 -0.000000 -1.063394
8  3.942307 0.050326 0.431045  0.232421 0.000609 -0.853331
9  1.539099 -0.000001 -0.000001  0.000000 -0.000000 -0.973401
10  1.196319 0.000014 0.000001  -0.000000 0.000000 -1.451289
11  3.883659 -0.050325 -0.431042  0.066987 0.050243 -0.694792
12  1.719576 0.000002 -0.000000  -0.000000 -0.000000 -1.251039
13  1.209187 0.000001 -0.000002  -0.000000 -0.000003 -1.141145
14  3.859833 -0.148940 -1.331282  -0.248855 0.263129 -0.072121
15  1.719423 0.000002 0.000000  -0.000000 -0.000000 -0.676756
16  1.099668 0.000000 0.000002  0.000000 -0.000004 -1.021288
17  0.806020 -0.359839 -1.318334  1.349685 0.343493 -0.771450
18  1.789784 0.000002 -0.000004  0.000000 0.000000 0.397500
19  1.206998 0.000002 0.000003  0.000000 0.000000 0.989033
20  4.124998 -1.447268 -3.542970  -1.564198 -0.011689 -1.581440
21  3.820737 -1.409995 -0.589409  -1.564198 -0.011689 -1.581440
22  0.222814 -3.739062 1.509297  0.024887 2.851473 -1.494016
23  3.048726 6.125611 1.106841  1.596061 0.018247 -0.808184
24  3.527214 5.063570 0.216259  1.596061 0.018246 -0.808184
25  3.352950 5.114327 -0.401206  1.596061 0.018247 -0.808184
26  2.909482 4.772881 -1.012056  1.596061 0.018247 -0.808184
27  1.772478 4.476572 2.356868  1.596061 0.018247 -0.808184
28  0.000006 3.336140 -8.647861  -1.570799 -1.391898 -1.570795
29  2.033350 1.000764 1.937663  1.227517 0.585911 1.190966
30  2.026190 1.001859 1.937675  1.227511 0.585916 1.190961
31  0.000001 -0.000001 0.000004  1.583265 0.000007 1.570794
32  0.000000 6.028147 -0.000001  -0.566158 -0.423504 -0.701642
33  -0.000001 0.000010 -0.000006  -0.000002 0.000003 1.570792
34  0.000016 6.028145 -0.000012  -0.490574 0.510949 0.613663
35  -0.000001 11.692569 -0.000001  0.000002 -0.000004 -1.165775
36  -0.000002 0.000001 -0.000003  0.000005 0.000000 1.570801
37  11.692570 0.000055 0.000042  0.000006 -0.000003 -1.165766
38  -0.000001 11.481681 -0.000001  0.736228 0.517884 1.105589
39  -0.000001 0.000001 0.000000  0.000000 -0.000000 1.570789
40  11.481689 -0.000053 0.000007  0.655483 -0.622956 0.683888
41  0.137967 3.859856 1.332474  -1.466868 -1.619747 0.860959
42  -0.000000 -0.000000 -0.000001  1.933714 0.000004 1.570794
43  3.859862 -0.137941 1.332475  0.357834 -0.048689 -0.605788
44  -0.000000 1.719427 -0.000003  -0.420737 0.202310 0.066145
45  0.000001 0.000001 0.000000  1.743430 0.000000 1.570798
46  1.719433 0.000005 -0.000006  0.000188 -0.009076 -0.438463
47  0.000002 1.099663 -0.000000  1.022048 1.907641 1.050003
48  0.000000 0.000000 -0.000000  -0.000002 0.000003 1.570799
49  1.099665 0.000000 0.000005  -0.000119 0.002599 -0.290771
50  0.046788 3.883686 0.431451  -0.022489 -1.505151 -0.650290
51  -0.000001 -0.000000 0.000000  1.590082 0.000009 1.570787
52  3.883690 -0.046761 0.431452  0.084915 0.001466 -0.672730
53  -0.000003 1.719577 -0.000000  -0.719762 0.051523 -0.006475
54  0.000000 -0.000001 0.000001  1.538382 -0.000002 1.570794
55  1.719580 0.000014 -0.000018  -0.003909 0.016384 -0.719290
56  0.000002 1.209179 -0.000000  -1.502613 1.086037 -1.507439
57  -0.000004 -0.000001 0.000000  -0.000000 -0.000000 1.570805
58  1.209182 -0.000006 -0.000002  -0.000815 0.002971 -0.483699
59  -0.046751 3.942325 -0.431436  -0.323081 -1.473587 -0.664840
60  -0.000002 0.000002 -0.000002  1.317660 0.000000 1.570797
61  3.942329 0.046779 -0.431436  -0.160927 0.030820 -0.986493
62  -0.000004 1.539093 -0.000001  -0.254392 -0.026494 -0.056799
63  0.000001 0.000001 -0.000001  1.337310 -0.000004 1.570800
64  1.539095 0.000001 0.000000  -0.000024 0.003371 -0.261961
65  0.000003 1.196322 -0.000001  -1.011932 1.119246 -1.058256
66  -0.000003 0.000000 -0.000002  0.000001 -0.000001 1.570800
67  1.196325 -0.000004 0.000006  -0.000000 0.000003 -0.390112
68  0.142426 3.859700 -1.191967  -0.665033 -1.424163 -0.304929
69  0.000001 -0.000001 0.000003  0.976757 -0.000005 1.570807
70  3.859707 -0.142400 -1.191966  -0.478336 0.090293 -0.964721
71  0.000000 1.312567 0.000003  -0.360350 -0.138963 -0.204711
72  -0.000001 0.000001 0.000001  1.078169 0.000003 1.570794
73  1.312572 -0.000015 0.000008  0.000003 -0.001821 -0.436348
74  -0.000003 0.729365 0.000002  -0.402645 1.030895 -0.460884
75  0.000000 -0.000000 0.000000  -0.000001 -0.000001 1.570795
76  0.729367 0.000004 -0.000001  0.000002 -0.000004 -0.230657
77  0.348928 0.806041 1.321260  -1.143513 -2.276786 0.650399
78  0.000000 0.000000 -0.000002  0.437032 0.000002 1.570791
79  0.806045 -0.348924 1.321261  -1.473385 -0.631630 -0.381176
80  0.000001 1.789783 -0.000002  0.105701 0.066372 0.343789
81  0.000001 -0.000000 0.000001  0.347279 0.000000 1.570806
82  1.789789 0.000010 -0.000002  0.002658 0.043716 0.349685
83  0.000000 1.206999 0.000002  0.184177 0.296104 0.568197
84  -0.000000 0.000002 -0.000000  0.000001 -0.000001 1.570797
85  1.207006 -0.000011 0.000005  -0.000003 0.000001 0.540642
86  0.000000 0.000000 1.000000  1.570796 -0.000000 0.000000
time 2
0  0.000005 3.335938 -8.640624  -1.570780 -1.391896 -1.570809
1  2.033355 1.000771 -1.937610  1.473118 1.855075 -0.198640
2  6.028144 -0.000000 0.000000  1.662987 1.252461 -0.902805
3  11.692556 0.000001 0.000003  0.000000 -0.000000 -0.872164
4  11.481699 0.000001 0.000001  -1.288817 0.007408 0.204100
5  3.859674 -0.132571 1.193110  0.432208 -0.155862 -0.861350
6  1.312557 0.000000 0.000000  0.000000 -0.000000 -1.191994
7  0.729366 0.000004 -0.000002  0.000000 -0.000000 -1.063394
8  3.942304 0.050327 0.431046  0.232421 0.000609 -0.853331
9  1.539098 -0.000003 -0.000001  0.000000 -0.000000 -0.973379
10  1.196321 0.000015 0.000000  -0.000000 0.000000 -1.451289
11  3.883657 -0.050324 -0.431042  0.066987 0.050243 -0.694792
12  1.719577 0.000002 -0.000001  -0.000000 -0.000000 -1.251039
13  1.209189 0.000000 -0.000002  -0.000000 -0.000003 -1.141173
14  3.859833 -0.148939 -1.331282  -0.248855 0.263129 -0.072121
15  1.719427 0.000003 -0.000002  -0.000000 -0.000000 -0.676756
16  1.099666 0.000001 0.000002  0.000000 -0.000004 -1.021265
17  0.806018 -0.359838 -1.318334  1.349685 0.343493 -0.771450
18  1.789783 -0.000001 -0.000004  0.000000 0.000000 0.397500
19  1.207000 0.000003 0.000002  0.000000 0.000000 0.989033
20  4.124997 -1.447267 -3.542969  -1.564198 -0.011689 -1.581440
21  3.820736 -1.409994 -0.589409  -1.564198 -0.011689 -1.581440
22  0.222816 -3.739062 1.509302  0.024887 2.851473 -1.494016
23  3.048727 6.125612 1.106841  1.596061 0.018247 -0.808184
24  3.527214 5.063568 0.216259  1.596061 0.018246 -0.808183
25  3.352950 5.114326 -0.401207  1.596061 0.018247 -0.808184
26  2.909481 4.772882 -1.012056  1.596061 0.018247 -0.808184
27  1.772479 4.476570 2.356868  1.596061 0.018247 -0.808184
28  0.000006 3.336140 -8.647861  -1.570799 -1.391898 -1.570795
29  2.033350 1.000764 1.937663  1.227517 0.585911 1.190966
30  2.026190 1.001859 1.937675  1.227511 0.585916 1.190961
31  0.000001 -0.000001 0.000004  1.583265 0.000007 1.570794
32  0.000000 6.028147 -0.000001  -0.511188 -0.454060 -0.766402
33  -0.000000 0.000009 -0.000006  -0.000002 0.000003 1.570791
34  0.000016 6.028144 -0.000011  -0.510194 0.455201 0.563146
35  0.000000 11.692570 -0.000001  0.000001 -0.000005 -0.985950
36  0.000000 0.000002 -0.000001  0.000005 0.000000 1.570801
37  11.692572 0.000056 0.000041  0.000005 -0.000002 -0.985941
38  -0.000001 11.481682 0.000001  0.737184 0.515534 0.977734
39  -0.000001 -0.000002 -0.000000  0.000000 -0.000000 1.570789
40  11.481690 -0.000056 0.000007  0.653258 -0.624677 0.556860
41  0.137968 3.859857 1.332472  -1.465984 -1.619516 0.860296
42  0.000000 0.000000 0.000001  1.933714 0.000004 1.570794
43  3.859866 -0.137941 1.332472  0.357816 -0.048454 -0.605572
44  -0.000001 1.719428 0.000002  -0.420692 0.202310 0.066145
45  0.000001 0.000001 0.000000  1.743430 0.000000 1.570798
46  1.719432 0.000005 -0.000008  0.000188 -0.009068 -0.438418
47  -0.000001 1.099665 0.000002  1.022061 1.907648 1.050015
48  0.000002 0.000001 -0.000001  -0.000002 0.000003 1.570799
49  1.099669 0.000004 0.000001  -0.000119 0.002599 -0.290779
50  0.046789 3.883685 0.431450  -0.026326 -1.505151 -0.646097
51  0.000000 -0.000000 -0.000000  1.590082 0.000009 1.570787
52  3.883693 -0.046761 0.431450  0.084908 0.001718 -0.672370
53  0.000000 1.719577 0.000002  -0.719901 0.051523 -0.006475
54  0.000001 0.000000 0.000000  1.538382 -0.000002 1.570794
55  1.719580 0.000017 -0.000017  -0.003912 0.016388 -0.719429
56  0.000000 1.209182 0.000002  -1.502635 1.085860 -1.507465
57  0.000001 -0.000001 0.000000  -0.000000 -0.000000 1.570805
58  1.209184 0.000002 -0.000001  -0.000816 0.002971 -0.483877
59  -0.046750 3.942326 -0.431436  -0.325331 -1.473506 -0.662066
60  -0.000001 0.000001 -0.000001  1.317660 0.000000 1.570797
61  3.942332 0.046779 -0.431436  -0.160919 0.031053 -0.985957
62  0.000000 1.539092 0.000000  -0.254712 -0.026494 -0.056799
63  0.000000 0.000000 -0.000001  1.337310 -0.000004 1.570800
64  1.539096 0.000001 0.000004  -0.000025 0.003445 -0.262272
65  0.000002 1.196322 -0.000002  -1.012479 1.118823 -1.058863
66  -0.000002 0.000000 -0.000001  0.000000 -0.000001 1.570800
67  1.196325 -0.000009 0.000004  -0.000000 0.000003 -0.390612
68  0.142426 3.859705 -1.191969  -0.666547 -1.423899 -0.302721
69  0.000000 0.000000 0.000003  0.976757 -0.000005 1.570807
70  3.859713 -0.142399 -1.191970  -0.478264 0.090630 -0.964005
71  -0.000001 1.312568 -0.000001  -0.360825 -0.138964 -0.204711
72  0.000000 -0.000000 -0.000000  1.078169 0.000003 1.570794
73  1.312573 -0.000014 0.000008  0.000004 -0.001596 -0.436766
74  0.000000 0.729364 -0.000003  -0.403500 1.030677 -0.461880
75  -0.000001 0.000000 0.000000  -0.000001 -0.000001 1.570795
76  0.729367 -0.000000 -0.000001  0.000001 -0.000004 -0.231215
77  0.348928 0.806041 1.321258  -1.143166 -2.276537 0.650299
78  0.000001 -0.000000 0.000000  0.437032 0.000002 1.570791
79  0.806048 -0.348924 1.321259  -1.473466 -0.631301 -0.380964
80  0.000002 1.789785 0.000001  0.105694 0.066384 0.343683
81  0.000002 -0.000001 -0.000000  0.347279 0.000000 1.570806
82  1.789791 0.000008 -0.000002  0.002654 0.043680 0.349584
83  0.000002 1.206998 0.000000  0.184120 0.296139 0.568004
84  0.000000 0.000000 -0.000000  0.000001 -0.000001 1.570797
85  1.207005 -0.000012 0.000004  -0.000003 0.000001 0.540454
86  0.000000 0.000000 1.000000  1.570796 -0.000000 0.000000
time 3
0  0.000005 3.335938 -8.640624  -1.570780 -1.391896 -1.570809
1  2.033355 1.000771 -1.937610  1.473118 1.855075 -0.198640
2  6.028144 -0.000000 0.000000  1.728914 1.385005 -0.834735
3  11.692555 0.000001 0.000003  -0.000000 0.000000 -0.591817
4  11.481702 0.000001 0.000001  -1.288908 0.007490 0.192858
5  3.859674 -0.132570 1.193110  0.432208 -0.155862 -0.861350
6  1.312558 -0.000000 0.000001  0.000000 0.000000 -1.191994
7  0.729365 0.000003 -0.000003  0.000000 -0.000000 -1.063394
8  3.942305 0.050327 0.431045  0.232421 0.000609 -0.853331
9  1.539099 -0.000000 -0.000001  0.000000 -0.000000 -0.973379
10  1.196319 0.000012 0.000000  -0.000000 0.000000 -1.451289
11  3.883661 -0.050323 -0.431041  0.066987 0.050243 -0.694792
12  1.719581 0.000002 -0.000001  -0.000000 -0.000000 -1.251039
13  1.209187 0.000002 -0.000000  -0.000000 -0.000003 -1.141145
14  3.859835 -0.148939 -1.331282  -0.248855 0.263129 -0.072121
15  1.719426 0.000001 0.000003  0.000000 -0.000000 -0.676756
16  1.099666 0.000000 -0.000000  -0.000000 -0.000004 -1.021265
17  0.806018 -0.359837 -1.318334  1.349685 0.343493 -0.771450
18  1.789783 -0.000000 -0.000006  -0.000000 0.000000 0.397500
19  1.207001 0.000003 0.000003  0.000000 0.000000 0.989033
20  4.124998 -1.447267 -3.542969  -1.564198 -0.011689 -1.581440
21  3.820737 -1.409993 -0.589409  -1.564198 -0.011689 -1.581440
22  0.222806 -3.739063 1.509296  0.024887 2.851473 -1.494016
23  3.048727 6.125615 1.106840  1.596061 0.018247 -0.808184
24  3.527214 5.063568 0.216259  1.596061 0.018246 -0.808184
25  3.352950 5.114330 -0.401208  1.596061 0.018247 -0.808184
26  2.909482 4.772884 -1.012056  1.596061 0.018247 -0.808184
27  1.772479 4.476572 2.356867  1.596061 0.018247 -0.808184
28  0.000006 3.336140 -8.647861  -1.570799 -1.391898 -1.570795
29  2.033350 1.000764 1.937663  1.227517 0.585911 1.190966
30  2.026190 1.001859 1.937675  1.227511 0.585916 1.190961
31  0.000001 -0.000001 0.000004  1.583265 0.000007 1.570794
32  0.000000 6.028147 -0.000001  -0.451300 -0.487138 -0.850027
33  -0.000000 0.000009 -0.000006  -0.000002 0.000003 1.570792
34  0.000017 6.028144 -0.000011  -0.532036 0.395644 0.497668
35  -0.000000 11.692570 0.000000  0.000000 -0.000005 -0.785411
36  0.000001 0.000000 -0.000003  0.000005 0.000000 1.570801
37  11.692572 0.000056 0.000041  0.000005 -0.000002 -0.785403
38  0.000002 11.481680 -0.000002  0.573457 0.501266 0.839260
39  -0.000001 -0.000000 -0.000001  0.000000 -0.000000 1.570789
40  11.481684 -0.000056 0.000008  0.577985 -0.495862 0.538320
41  0.137967 3.859857 1.332472  -1.465546 -1.619456 0.860138
42  -0.000001 0.000002 0.000000  1.933714 0.000004 1.570794
43  3.859860 -0.137941 1.332472  0.357800 -0.048393 -0.605291
44  -0.000003 1.719430 0.000002  -0.420916 0.202310 0.066145
45  -0.000000 0.000000 -0.000001  1.743430 0.000000 1.570799
46  1.719432 0.000005 -0.000008  0.000190 -0.009107 -0.438639
47  0.000000 1.099663 -0.000003  1.022398 1.907841 1.050372
48  0.000000 0.000000 0.000001  -0.000002 0.000003 1.570799
49  1.099666 -0.000000 0.000005  -0.000119 0.002599 -0.291005
50  0.046788 3.883688 0.431448  -0.027839 -1.505150 -0.644341
51  -0.000001 0.000002 0.000001  1.590082 0.000009 1.570787
52  3.883689 -0.046762 0.431448  0.084906 0.001817 -0.672126
53  0.000001 1.719575 0.000000  -0.720089 0.051523 -0.006475
54  -0.000001 -0.000000 0.000000  1.538382 -0.000002 1.570794
55  1.719578 0.000012 -0.000016  -0.003915 0.016393 -0.719616
56  0.000000 1.209181 0.000000  -1.502661 1.085664 -1.507494
57  0.000000 -0.000001 -0.000000  -0.000000 -0.000000 1.570805
58  1.209184 -0.000003 -0.000002  -0.000816 0.002971 -0.484073
59  -0.046751 3.942323 -0.431436  -0.326269 -1.473461 -0.660703
60  0.000000 0.000000 0.000001  1.317660 0.000000 1.570797
61  3.942326 0.046778 -0.431436  -0.160906 0.031154 -0.985532
62  0.000000 1.539088 0.000001  -0.255085 -0.026494 -0.056799
63  0.000000 0.000000 -0.000002  1.337310 -0.000004 1.570800
64  1.539094 -0.000000 0.000002  -0.000026 0.003531 -0.262635
65  0.000000 1.196324 -0.000000  -1.013060 1.118369 -1.059511
66  0.000001 -0.000000 -0.000001  0.000000 -0.000001 1.570800
67  1.196328 -0.000005 0.000002  0.000000 0.000004 -0.391145
68  0.142425 3.859704 -1.191968  -0.667266 -1.423744 -0.301478
69  0.000001 -0.000000 -0.000003  0.976757 -0.000005 1.570807
70  3.859706 -0.142400 -1.191969  -0.478207 0.090808 -0.963469
71  0.000000 1.312568 -0.000002  -0.361315 -0.138963 -0.204711
72  -0.000001 0.000001 -0.000001  1.078169 0.000003 1.570794
73  1.312574 -0.000012 0.000008  0.000004 -0.001365 -0.437198
74  -0.000003 0.729365 -0.000000  -0.404348 1.030459 -0.462871
75  0.000001 0.000000 0.000000  -0.000001 -0.000001 1.570795
76  0.729366 0.000002 -0.000001  0.000002 -0.000005 -0.231768
77  0.348927 0.806044 1.321259  -1.143052 -2.276557 0.650310
78  0.000001 0.000001 0.000002  0.437032 0.000002 1.570791
79  0.806046 -0.348924 1.321259  -1.473558 -0.631281 -0.380812
80  0.000000 1.789785 0.000001  0.105698 0.066377 0.343743
81  0.000000 -0.000001 0.000001  0.347279 0.000000 1.570806
82  1.789789 0.000008 -0.000003  0.002656 0.043701 0.349641
83  0.000002 1.206998 -0.000001  0.184145 0.296124 0.568089
84  0.000000 -0.000001 0.000000  0.000001 -0.000001 1.570797
85  1.207002 -0.000013 0.000005  -0.000004 0.000001 0.540538
86  0.000000 0.000000 1.000000  1.570796 -0.000000 0.000000
time 4
0  0.000005 3.335938 -8.640624  -1.570780 -1.391896 -1.570809
1  2.033355 1.000771 -1.937610  1.473118 1.855075 -0.198640
2  6.028144 -0.000000 0.000000  1.865590 1.468897 -0.696465
3  11.692555 0.000001 0.000003  -0.000000 -0.000000 -0.415947
4  11.481700 0.000001 0.000000  -1.288472 0.007058 0.251866
5  3.859678 -0.132569 1.193109  0.432208 -0.155862 -0.861350
6  1.312557 -0.000003 0.000002  0.000000 0.000000 -1.191994
7  0.729366 0.000005 -0.000002  0.000000 -0.000000 -1.063394
8  3.942309 0.050328 0.431044  0.232421 0.000609 -0.853331
9  1.539097 -0.000003 -0.000001  0.000000 -0.000000 -0.973401
10  1.196319 0.000012 0.000001  -0.000000 0.000000 -1.451289
11  3.883663 -0.050323 -0.431042  0.066987 0.050243 -0.694792
12  1.719579 0.000004 -0.000001  -0.000000 -0.000000 -1.251039
13  1.209186 0.000001 -0.000001  -0.000000 -0.000003 -1.141145
14  3.859838 -0.148938 -1.331282  -0.248855 0.263129 -0.072121
15  1.719424 0.000003 -0.000001  -0.000000 -0.000000 -0.676756
16  1.099663 0.000001 -0.000002  -0.000000 -0.000004 -1.021265
17  0.806022 -0.359837 -1.318334  1.349685 0.343493 -0.771450
18  1.789782 -0.000001 -0.000004  -0.000000 0.000000 0.397500
19  1.207000 0.000002 0.000003  0.000000 0.000000 0.989033
20  4.125003 -1.447266 -3.542969  -1.564198 -0.011689 -1.581440
21  3.820741 -1.409993 -0.589409  -1.564198 -0.011689 -1.581440
22  0.222814 -3.739059 1.509296  0.024887 2.851473 -1.494016
23  3.048727 6.125615 1.106842  1.596061 0.018247 -0.808184
24  3.527214 5.063570 0.216260  1.596061 0.018246 -0.808184
25  3.352950 5.114328 -0.401206  1.596061 0.018247 -0.808184
26  2.909482 4.772884 -1.012056  1.596061 0.018247 -0.808184
27  1.772479 4.476574 2.356869  1.596061 0.018247 -0.808184
28  0.000006 3.336140 -8.647861  -1.570799 -1.391898 -1.570795
29  2.033350 1.000764 1.937663  1.227517 0.585911 1.190966
30  2.026190 1.001859 1.937675  1.227511 0.585916 1.190961
31  0.000001 -0.000001 0.000004  1.583265 0.000007 1.570794
32  0.000000 6.028147 -0.000001  -0.422516 -0.502513 -0.894285
33  -0.000001 0.000010 -0.000006  -0.000002 0.000003 1.570791
34  0.000017 6.028144 -0.000011  -0.542301 0.367585 0.463257
35  0.000000 11.692572 -0.000000  -0.000000 -0.000005 -0.687700
36  0.000000 0.000001 -0.000001  0.000005 0.000000 1.570801
37  11.692571 0.000056 0.000041  0.000004 -0.000002 -0.687691
38  0.000000 11.481683 0.000000  0.413661 0.488055 0.773980
39  -0.000001 -0.000002 0.000000  0.000000 -0.000000 1.570789
40  11.481686 -0.000053 0.000007  0.525429 -0.362945 0.570960
41  0.137967 3.859858 1.332472  -1.465497 -1.619456 0.860139
42  -0.000000 -0.000002 0.000001  1.933714 0.000004 1.570794
43  3.859866 -0.137941 1.332471  0.357798 -0.048392 -0.605236
44  0.000000 1.719423 0.000000  -0.420955 0.202310 0.066145
45  -0.000001 0.000000 -0.000002  1.743430 0.000000 1.570798
46  1.719429 0.000006 -0.000006  0.000190 -0.009113 -0.438677
47  -0.000002 1.099663 -0.000002  1.022457 1.907875 1.050436
48  0.000001 0.000000 0.000001  -0.000002 0.000003 1.570799
49  1.099665 -0.000003 -0.000000  -0.000120 0.002600 -0.291045
50  0.046789 3.883683 0.431449  -0.027932 -1.505149 -0.644201
51  -0.000001 0.000003 -0.000001  1.590082 0.000009 1.570787
52  3.883690 -0.046762 0.431449  0.084907 0.001823 -0.672074
53  -0.000002 1.719579 -0.000000  -0.720125 0.051523 -0.006475
54  -0.000000 -0.000000 -0.000001  1.538381 -0.000002 1.570794
55  1.719578 0.000016 -0.000018  -0.003915 0.016394 -0.719652
56  0.000000 1.209182 -0.000005  -1.502666 1.085624 -1.507500
57  0.000000 0.000000 -0.000000  -0.000000 -0.000000 1.570805
58  1.209185 -0.000008 -0.000003  -0.000817 0.002971 -0.484113
59  -0.046751 3.942327 -0.431438  -0.326326 -1.473455 -0.660565
60  -0.000001 -0.000000 -0.000001  1.317660 0.000000 1.570797
61  3.942333 0.046778 -0.431439  -0.160902 0.031161 -0.985446
62  0.000000 1.539088 -0.000002  -0.255157 -0.026494 -0.056799
63  0.000001 -0.000000 -0.000002  1.337310 -0.000004 1.570800
64  1.539093 -0.000005 0.000003  -0.000026 0.003548 -0.262705
65  -0.000001 1.196321 0.000002  -1.013175 1.118280 -1.059638
66  -0.000001 -0.000000 -0.000000  0.000000 -0.000001 1.570800
67  1.196326 0.000000 0.000004  0.000000 0.000004 -0.391250
68  0.142426 3.859705 -1.191970  -0.667318 -1.423723 -0.301322
69  -0.000000 0.000001 -0.000000  0.976757 -0.000005 1.570807
70  3.859712 -0.142401 -1.191971  -0.478195 0.090828 -0.963362
71  -0.000002 1.312570 0.000002  -0.361404 -0.138963 -0.204711
72  -0.000001 0.000000 0.000002  1.078169 0.000003 1.570794
73  1.312576 -0.000008 0.000007  0.000005 -0.001323 -0.437275
74  0.000001 0.729365 0.000000  -0.404510 1.030418 -0.463058
75  0.000001 0.000000 -0.000001  -0.000001 -0.000001 1.570795
76  0.729367 0.000001 0.000001  0.000002 -0.000005 -0.231873
77  0.348927 0.806042 1.321258  -1.143023 -2.276551 0.650308
78  0.000001 0.000000 -0.000000  0.437032 0.000002 1.570791
79  0.806050 -0.348924 1.321258  -1.473574 -0.631267 -0.380783
80  0.000002 1.789783 -0.000002  0.105697 0.066378 0.343734
81  0.000000 -0.000001 0.000002  0.347279 0.000000 1.570806
82  1.789789 0.000010 -0.000003  0.002656 0.043698 0.349633
83  0.000000 1.206997 0.000003  0.184142 0.296125 0.568080
84  0.000000 0.000001 -0.000000  0.000001 -0.000001 1.570797
85  1.207003 -0.000010 0.000004  -0.000004 0.000002 0.540529
86  0.000000 0.000000 1.000000  1.570796 -0.000000 0.000000
time 5
0  0.000005 3.335938 -8.640624  -1.570780 -1.391896 -1.570809
1  2.033355 1.000771 -1.937610  1.473118 1.855075 -0.198640
2  6.028144 -0.000000 0.000000  1.921464 1.484460 -0.640300
3  11.692555 0.000001 0.000003  -0.000000 -0.000000 -0.382487
4  11.481698 0.000001 0.000002  -1.288127 0.006668 0.302887
5  3.859676 -0.132570 1.193111  0.432208 -0.155862 -0.861350
6  1.312558 0.000001 0.000001  -0.000000 0.000000 -1.191994
7  0.729363 0.000001 -0.000001  0.000000 -0.000000 -1.063394
8  3.942308 0.050327 0.431045  0.232421 0.000609 -0.853331
9  1.539099 -0.000001 -0.000000  0.000000 -0.000000 -0.973379
10  1.196318 0.000016 0.000001  -0.000000 0.000000 -1.451289
11  3.883662 -0.050323 -0.431041  0.066987 0.050243 -0.694792
12  1.719578 0.000004 -0.000001  -0.000000 -0.000000 -1.251039
13  1.209187 0.000002 -0.000001  -0.000000 -0.000003 -1.141173
14  3.859837 -0.148938 -1.331281  -0.248855 0.263129 -0.072121
15  1.719425 0.000002 0.000001  0.000000 -0.000000 -0.676756
16  1.099666 -0.000003 0.000000  -0.000000 -0.000004 -1.021265
17  0.806021 -0.359837 -1.318334  1.349685 0.343493 -0.771450
18  1.789783 0.000000 -0.000002  0.000000 0.000000 0.397500
19  1.207000 0.000003 0.000003  0.000000 0.000000 0.989033
20  4.125000 -1.447266 -3.542969  -1.564198 -0.011689 -1.581440
21  3.820740 -1.409993 -0.589408  -1.564198 -0.011689 -1.581440
22  0.222832 -3.739061 1.509297  0.024887 2.851473 -1.494016
23  3.048727 6.125611 1.106841  1.596061 0.018247 -0.808184
24  3.527213 5.063569 0.216259  1.596061 0.018246 -0.808184
25  3.352950 5.114327 -0.401207  1.596061 0.018247 -0.808184
26  2.909481 4.772883 -1.012056  1.596061 0.018247 -0.808184
27  1.772478 4.476573 2.356868  1.596061 0.018247 -0.808184
28  0.000006 3.336140 -8.647861  -1.570799 -1.391898 -1.570795
29  2.033350 1.000764 1.937663  1.227517 0.585911 1.190966
30  2.026190 1.001859 1.937675  1.227511 0.585916 1.190961
31  0.000001 -0.000001 0.000004  1.583265 0.000007 1.570794
32  0.000000 6.028147 -0.000001  -0.419757 -0.504389 -0.899339
33  0.000000 0.000010 -0.000006  -0.000002 0.000003 1.570792
34  0.000017 6.028144 -0.000011  -0.543718 0.364827 0.459027
35  0.000001 11.692571 0.000001  -0.000001 -0.000005 -0.676100
36  -0.000002 0.000002 -0.000001  0.000005 0.000000 1.570801
37  11.692570 0.000056 0.000041  0.000004 -0.000002 -0.676091
38  -0.000002 11.481683 -0.000000  0.344877 0.482844 0.765808
39  -0.000000 -0.000001 -0.000001  0.000000 -0.000000 1.570789
40  11.481686 -0.000055 0.000007  0.508223 -0.304091 0.600528
41  0.137968 3.859855 1.332473  -1.465509 -1.619461 0.860154
42  -0.000001 0.000000 -0.000001  1.933714 0.000004 1.570794
43  3.859861 -0.137942 1.332474  0.357798 -0.048397 -0.605234
44  -0.000002 1.719431 0.000001  -0.420953 0.202310 0.066145
45  -0.000000 -0.000001 0.000000  1.743430 0.000000 1.570798
46  1.719434 0.000006 -0.000008  0.000190 -0.009113 -0.438674
47  0.000001 1.099662 0.000000  1.022455 1.907874 1.050433
48  0.000002 -0.000000 0.000001  -0.000002 0.000003 1.570799
49  1.099666 0.000002 0.000002  -0.000119 0.002600 -0.291043
50  0.046789 3.883683 0.431450  -0.027837 -1.505149 -0.644291
51  0.000001 0.000001 -0.000000  1.590082 0.000009 1.570787
52  3.883688 -0.046762 0.431451  0.084907 0.001817 -0.672068
53  -0.000000 1.719576 -0.000002  -0.720125 0.051523 -0.006475
54  0.000001 0.000000 -0.000001  1.538381 -0.000002 1.570794
55  1.719578 0.000014 -0.000018  -0.003915 0.016395 -0.719653
56  0.000000 1.209183 0.000001  -1.502666 1.085623 -1.507500
57  0.000003 -0.000000 0.000001  -0.000000 -0.000000 1.570805
58  1.209187 0.000000 -0.000005  -0.000816 0.002971 -0.484114
59  -0.046750 3.942324 -0.431435  -0.326279 -1.473456 -0.660606
60  -0.000001 0.000000 0.000001  1.317660 0.000000 1.570797
61  3.942328 0.046778 -0.431435  -0.160902 0.031156 -0.985442
62  -0.000000 1.539093 0.000003  -0.255153 -0.026494 -0.056799
63  -0.000001 -0.000001 0.000000  1.337310 -0.000004 1.570800
64  1.539098 -0.000000 0.000002  -0.000026 0.003547 -0.262701
65  -0.000001 1.196320 -0.000003  -1.013173 1.118282 -1.059635
66  -0.000001 -0.000000 0.000000  0.000000 -0.000001 1.570800
67  1.196325 -0.000007 0.000002  0.000001 0.000003 -0.391247
68  0.142426 3.859702 -1.191968  -0.667277 -1.423727 -0.301358
69  -0.000000 -0.000000 0.000002  0.976757 -0.000005 1.570807
70  3.859707 -0.142400 -1.191967  -0.478194 0.090820 -0.963358
71  -0.000001 1.312565 0.000002  -0.361402 -0.138964 -0.204711
72  -0.000000 0.000000 0.000004  1.078169 0.000003 1.570794
73  1.312571 -0.000012 0.000008  0.000004 -0.001323 -0.437274
74  -0.000001 0.729363 0.000005  -0.404509 1.030418 -0.463058
75  -0.000002 -0.000001 -0.000000  -0.000001 -0.000001 1.570795
76  0.729367 0.000006 -0.000001  0.000002 -0.000004 -0.231872
77  0.348928 0.806042 1.321258  -1.143019 -2.276547 0.650306
78  0.000000 -0.000000 0.000001  0.437032 0.000002 1.570790
79  0.806048 -0.348925 1.321260  -1.473574 -0.631261 -0.380781
80  -0.000001 1.789783 0.000003  0.105696 0.066379 0.343724
81  0.000000 -0.000001 0.000001  0.347279 0.000000 1.570806
82  1.789786 0.000013 0.000000  0.002656 0.043694 0.349623
83  0.000001 1.206997 0.000000  0.184139 0.296127 0.568067
84  0.000000 -0.000001 -0.000001  0.000001 -0.000001 1.570797
85  1.207000 -0.000011 0.000004  -0.000004 0.000001 0.540516
86  0.000000 0.000000 1.000000  1.570796 -0.000000 0.000000
time 6
0  0.000005 3.335938 -8.640624  -1.570780 -1.391896 -1.570809
1  2.033355 1.000771 -1.937610  1.473118 1.855075 -0.198640
2  6.028144 -0.000000 0.000000  1.971053 1.494602 -0.590500
3  11.692555 0.000002 0.000003  -0.000000 0.000000 -0.360268
4  11.481696 0.000001 0.000001  -1.288036 0.006565 0.316286
5  3.859678 -0.132570 1.193109  0.432208 -0.155862 -0.861350
6  1.312559 0.000002 0.000000  -0.000000 -0.000000 -1.191994
7  0.729365 0.000002 -0.000003  0.000000 -0.000000 -1.063394
8  3.942308 0.050327 0.431045  0.232421 0.000609 -0.853331
9  1.539099 -0.000002 -0.000002  0.000000 -0.000000 -0.973379
10  1.196319 0.000015 0.000000  -0.000000 0.000000 -1.451289
11  3.883664 -0.050324 -0.431042  0.066987 0.050243 -0.694792
12  1.719579 0.000002 -0.000000  -0.000000 -0.000000 -1.251039
13  1.209188 0.000002 -0.000001  -0.000000 -0.000003 -1.141145
14  3.859839 -0.148939 -1.331282  -0.248855 0.263129 -0.072121
15  1.719425 0.000003 0.000000  -0.000000 -0.000000 -0.676756
16  1.099664 0.000000 -0.000001  -0.000000 -0.000004 -1.021265
17  0.806023 -0.359838 -1.318335  1.349685 0.343493 -0.771450
18  1.789784 -0.000002 -0.000004  0.000000 0.000000 0.397500
19  1.206996 0.000003 0.000003  0.000000 0.000000 0.989033
20  4.125002 -1.447267 -3.542970  -1.564198 -0.011689 -1.581440
21  3.820739 -1.409994 -0.589410  -1.564198 -0.011689 -1.581440
22  0.222817 -3.739062 1.509297  0.024887 2.851473 -1.494016
23  3.048727 6.125613 1.106841  1.596061 0.018247 -0.808184
24  3.527214 5.063569 0.216259  1.596061 0.018246 -0.808184
25  3.352951 5.114328 -0.401207  1.596061 0.018247 -0.808184
26  2.909482 4.772881 -1.012058  1.596061 0.018247 -0.808184
27  1.772479 4.476568 2.356868  1.596061 0.018247 -0.808184
28  0.000006 3.336140 -8.647861  -1.570799 -1.391898 -1.570795
29  2.033350 1.000764 1.937663  1.227517 0.585911 1.190966
30  2.026190 1.001859 1.937675  1.227511 0.585916 1.190961
31  0.000001 -0.000001 0.000004  1.583265 0.000007 1.570794
32  0.000000 6.028147 -0.000001  -0.417255 -0.505755 -0.903392
33  0.000000 0.000010 -0.000006  -0.000002 0.000003 1.570792
34  0.000017 6.028144 -0.000011  -0.544654 0.362399 0.455851
35  0.000001 11.692572 0.000000  -0.000001 -0.000005 -0.667286
36  0.000001 0.000001 -0.000002  0.000005 0.000000 1.570801
37  11.692572 0.000055 0.000042  0.000004 -0.000002 -0.667277
38  0.000001 11.481682 0.000001  0.319428 0.480782 0.760077
39  -0.000000 -0.000000 0.000000  0.000000 -0.000000 1.570789
40  11.481686 -0.000052 0.000008  0.502378 -0.282148 0.608279
41  0.137967 3.859858 1.332472  -1.465515 -1.619461 0.860152
42  -0.000000 0.000002 -0.000001  1.933714 0.000004 1.570794
43  3.859861 -0.137941 1.332472  0.357798 -0.048397 -0.605237
44  0.000001 1.719429 -0.000001  -0.420945 0.202310 0.066145
45  0.000000 0.000001 0.000001  1.743430 0.000000 1.570798
46  1.719431 0.000004 -0.000005  0.000190 -0.009112 -0.438667
47  -0.000000 1.099662 0.000000  1.022446 1.907869 1.050424
48  -0.000001 -0.000001 -0.000000  -0.000002 0.000003 1.570799
49  1.099663 0.000000 0.000002  -0.000119 0.002600 -0.291037
50  0.046788 3.883688 0.431450  -0.027817 -1.505149 -0.644309
51  -0.000000 0.000001 -0.000001  1.590082 0.000009 1.570787
52  3.883691 -0.046762 0.431450  0.084907 0.001816 -0.672067
53  -0.000000 1.719577 -0.000001  -0.720123 0.051523 -0.006475
54  0.000001 0.000000 0.000001  1.538381 -0.000002 1.570794
55  1.719581 0.000017 -0.000017  -0.003915 0.016394 -0.719651
56  0.000001 1.209181 0.000003  -1.502666 1.085624 -1.507500
57  0.000003 0.000000 -0.000001  -0.000000 -0.000000 1.570805
58  1.209183 0.000003 -0.000002  -0.000816 0.002971 -0.484113
59  -0.046751 3.942325 -0.431436  -0.326264 -1.473456 -0.660622
60  0.000001 0.000001 -0.000000  1.317660 0.000000 1.570797
61  3.942327 0.046778 -0.431436  -0.160902 0.031155 -0.985442
62  -0.000000 1.539093 0.000001  -0.255152 -0.026494 -0.056799
63  0.000001 0.000000 -0.000000  1.337310 -0.000004 1.570800
64  1.539099 0.000003 0.000002  -0.000026 0.003547 -0.262701
65  0.000002 1.196321 -0.000003  -1.013172 1.118283 -1.059635
66  -0.000001 0.000000 0.000000  0.000000 -0.000001 1.570800
67  1.196326 -0.000007 0.000005  0.000001 0.000003 -0.391247
68  0.142425 3.859703 -1.191968  -0.667267 -1.423728 -0.301369
69  -0.000001 0.000002 -0.000000  0.976757 -0.000005 1.570807
70  3.859706 -0.142400 -1.191969  -0.478194 0.090819 -0.963359
71  -0.000003 1.312567 -0.000003  -0.361397 -0.138963 -0.204711
72  -0.000000 -0.000000 0.000000  1.078169 0.000003 1.570794
73  1.312573 -0.000014 0.000006  0.000005 -0.001326 -0.437269
74  0.000001 0.729363 -0.000001  -0.404504 1.030419 -0.463051
75  -0.000003 -0.000001 0.000000  -0.000001 -0.000001 1.570795
76  0.729366 0.000001 -0.000000  0.000001 -0.000004 -0.231869
77  0.348927 0.806042 1.321258  -1.143017 -2.276544 0.650304
78  0.000002 -0.000002 0.000001  0.437032 0.000002 1.570791
79  0.806046 -0.348924 1.321259  -1.473573 -0.631258 -0.380781
80  0.000002 1.789781 -0.000001  0.105696 0.066380 0.343720
81  -0.000001 -0.000003 0.000000  0.347279 0.000000 1.570806
82  1.789790 0.000008 -0.000004  0.002656 0.043693 0.349620
83  -0.000001 1.206998 -0.000001  0.184137 0.296128 0.568062
84  -0.000000 -0.000001 -0.000000  0.000001 -0.000001 1.570797
85  1.207005 -0.000010 0.000003  -0.000004 0.000001 0.540512
86  0.000000 0.000000 1.000000  1.570796 -0.000000 0.000000
time 7
0  0.000005 3.335938 -8.640624  -1.570780 -1.391896 -1.570809
1  2.033355 1.000771 -1.937610  1.473118 1.855075 -0.198640
2  6.028144 -0.000000 0.000000  2.017305 1.501986 -0.544136
3  11.692555 0.000001 0.000003  -0.000000 -0.000000 -0.343764
4  11.481699 0.000001 0.000002  -1.288326 0.006894 0.272987
5  3.859679 -0.132569 1.193109  0.432208 -0.155862 -0.861350
6  1.312560 -0.000000 0.000001  0.000000 -0.000000 -1.191994
7  0.729365 0.000002 -0.000002  0.000000 -0.000000 -1.063394
8  3.942313 0.050328 0.431045  0.232421 0.000609 -0.853331
9  1.539097 -0.000003 -0.000001  0.000000 -0.000000 -0.973379
10  1.196318 0.000012 0.000000  -0.000000 0.000000 -1.451289
11  3.883664 -0.050323 -0.431042  0.066987 0.050243 -0.694792
12  1.719576 0.000004 -0.000001  -0.000000 -0.000000 -1.251039
13  1.209187 0.000002 -0.000002  -0.000000 -0.000003 -1.141145
14  3.859841 -0.148938 -1.331282  -0.248855 0.263129 -0.072121
15  1.719425 0.000002 0.000000  -0.000000 -0.000000 -0.676756
16  1.099668 0.000002 -0.000000  -0.000000 -0.000004 -1.021265
17  0.806023 -0.359837 -1.318334  1.349685 0.343493 -0.771450
18  1.789783 0.000000 -0.000004  -0.000000 0.000000 0.397500
19  1.207001 0.000003 0.000003  0.000000 0.000000 0.989033
20  4.125001 -1.447267 -3.542969  -1.564198 -0.011689 -1.581440
21  3.820741 -1.409993 -0.589409  -1.564198 -0.011689 -1.581440
22  0.222820 -3.739059 1.509297  0.024887 2.851473 -1.494016
23  3.048726 6.125613 1.106840  1.596061 0.018247 -0.808184
24  3.527213 5.063572 0.216259  1.596061 0.018246 -0.808184
25  3.352949 5.114328 -0.401208  1.596061 0.018247 -0.808184
26  2.909481 4.772886 -1.012057  1.596061 0.018247 -0.808184
27  1.772478 4.476572 2.356867  1.596061 0.018247 -0.808184
28  0.000006 3.336140 -8.647861  -1.570799 -1.391898 -1.570795
29  2.033350 1.000764 1.937663  1.227517 0.585911 1.190966
30  2.026190 1.001859 1.937675  1.227511 0.585916 1.190961
31  0.000001 -0.000001 0.000004  1.583265 0.000007 1.570794
32  0.000000 6.028147 -0.000001  -0.413160 -0.507398 -0.909098
33  0.000000 0.000009 -0.000006  -0.000002 0.000003 1.570791
34  0.000017 6.028144 -0.000011  -0.545571 0.358553 0.451809
35  0.000001 11.692570 -0.000000  -0.000001 -0.000005 -0.655869
36  0.000003 0.000001 -0.000002  0.000005 0.000000 1.570801
37  11.692572 0.000055 0.000042  0.000004 -0.000002 -0.655860
38  0.000003 11.481681 -0.000001  0.352802 0.482993 0.753410
39  -0.000001 0.000000 0.000002  0.000000 -0.000000 1.570789
40  11.481687 -0.000054 0.000006  0.509604 -0.310987 0.584032
41  0.137967 3.859854 1.332475  -1.465490 -1.619449 0.860118
42  0.000000 -0.000001 -0.000000  1.933714 0.000004 1.570794
43  3.859860 -0.137941 1.332471  0.357798 -0.048385 -0.605249
44  -0.000000 1.719426 -0.000002  -0.420917 0.202310 0.066145
45  -0.000000 0.000000 0.000001  1.743430 0.000000 1.570799
46  1.719432 0.000003 -0.000007  0.000190 -0.009107 -0.438640
47  0.000000 1.099663 -0.000000  1.022410 1.907848 1.050387
48  -0.000002 0.000000 0.000000  -0.000002 0.000003 1.570799
49  1.099666 0.000001 0.000002  -0.000119 0.002600 -0.291013
50  0.046788 3.883686 0.431451  -0.027934 -1.505149 -0.644187
51  0.000001 0.000000 -0.000001  1.590082 0.000009 1.570787
52  3.883691 -0.046761 0.431447  0.084907 0.001824 -0.672064
53  0.000002 1.719576 -0.000002  -0.720115 0.051523 -0.006475
54  -0.000001 -0.000000 0.000002  1.538381 -0.000002 1.570794
55  1.719581 0.000013 -0.000017  -0.003915 0.016394 -0.719642
56  -0.000001 1.209181 0.000002  -1.502665 1.085630 -1.507499
57  -0.000000 -0.000000 -0.000001  -0.000000 -0.000000 1.570805
58  1.209186 -0.000000 -0.000003  -0.000817 0.002971 -0.484107
59  -0.046751 3.942324 -0.431434  -0.326331 -1.473455 -0.660556
60  0.000000 0.000000 -0.000000  1.317660 0.000000 1.570797
61  3.942329 0.046779 -0.431439  -0.160902 0.031161 -0.985442
62  0.000001 1.539092 0.000001  -0.255141 -0.026494 -0.056799
63  -0.000001 -0.000000 0.000000  1.337310 -0.000004 1.570800
64  1.539098 0.000004 0.000001  -0.000026 0.003544 -0.262690
65  -0.000001 1.196323 0.000002  -1.013158 1.118293 -1.059619
66  0.000001 -0.000000 -0.000000  0.000000 -0.000001 1.570800
67  1.196326 -0.000002 0.000002  0.000001 0.000003 -0.391234
68  0.142425 3.859704 -1.191967  -0.667305 -1.423723 -0.301329
69  0.000001 0.000001 -0.000001  0.976757 -0.000005 1.570807
70  3.859709 -0.142399 -1.191971  -0.478194 0.090826 -0.963356
71  -0.000001 1.312569 0.000001  -0.361386 -0.138963 -0.204711
72  0.000001 -0.000001 -0.000001  1.078169 0.000003 1.570794
73  1.312573 -0.000012 0.000008  0.000005 -0.001331 -0.437259
74  0.000001 0.729362 -0.000001  -0.404486 1.030424 -0.463031
75  -0.000001 0.000000 -0.000001  -0.000001 -0.000001 1.570795
76  0.729365 0.000002 0.000000  0.000002 -0.000005 -0.231857
77  0.348926 0.806046 1.321261  -1.143001 -2.276522 0.650295
78  -0.000000 -0.000002 -0.000001  0.437032 0.000002 1.570791
79  0.806051 -0.348923 1.321257  -1.473571 -0.631234 -0.380780
80  -0.000001 1.789782 0.000001  0.105695 0.066382 0.343705
81  0.000000 -0.000001 0.000001  0.347279 0.000000 1.570806
82  1.789789 0.000013 -0.000000  0.002655 0.043688 0.349605
83  0.000001 1.206998 0.000000  0.184130 0.296133 0.568037
84  -0.000000 0.000002 -0.000000  0.000001 -0.000001 1.570797
85  1.207000 -0.000013 0.000005  -0.000004 0.000001 0.540487
86  0.000000 0.000000 1.000000  1.570796 -0.000000 0.000000
time 8
0  0.000005 3.335938 -8.640624  -1.570780 -1.391896 -1.570809
1  2.033355 1.000771 -1.937610  1.473118 1.855075 -0.198640
2  6.028144 -0.000000 0.000000  2.058984 1.507408 -0.502369
3  11.692556 0.000002 0.000003  -0.000000 -0.000000 -0.331395
4  11.481698 0.000001 0.000001  -1.288617 0.007202 0.232438
5  3.859677 -0.132569 1.193111  0.432208 -0.155862 -0.861350
6  1.312557 0.000000 0.000002  0.000000 0.000000 -1.191994
7  0.729367 0.000003 -0.000003  0.000000 -0.000000 -1.063394
8  3.942308 0.050328 0.431046  0.232421 0.000609 -0.853331
9  1.539099 0.000000 -0.000000  0.000000 -0.000000 -0.973379
10  1.196320 0.000012 0.000000  -0.000000 0.000000 -1.451289
11  3.883662 -0.050323 -0.431041  0.066987 0.050243 -0.694792
12  1.719576 -0.000001 0.000000  -0.000000 -0.000000 -1.251039
13  1.209189 0.000000 -0.000001  -0.000000 -0.000003 -1.141145
14  3.859837 -0.148938 -1.331281  -0.248855 0.263129 -0.072121
15  1.719425 0.000002 0.000000  0.000000 -0.000000 -0.676756
16  1.099666 0.000001 0.000001  -0.000000 -0.000004 -1.021265
17  0.806019 -0.359837 -1.318334  1.349685 0.343493 -0.771450
18  1.789783 -0.000000 -0.000003  0.000000 0.000000 0.397500
19  1.207001 0.000003 0.000002  0.000000 0.000000 0.989033
20  4.125001 -1.447267 -3.542969  -1.564198 -0.011689 -1.581440
21  3.820738 -1.409993 -0.589408  -1.564198 -0.011689 -1.581440
22  0.222812 -3.739062 1.509298  0.024887 2.851473 -1.494016
23  3.048727 6.125612 1.106840  1.596061 0.018247 -0.808184
24  3.527214 5.063569 0.216259  1.596061 0.018246 -0.808184
25  3.352950 5.114327 -0.401206  1.596061 0.018247 -0.808184
26  2.909482 4.772884 -1.012057  1.596061 0.018247 -0.808184
27  1.772479 4.476571 2.356868  1.596061 0.018247 -0.808184
28  0.000006 3.336140 -8.647861  -1.570799 -1.391898 -1.570795
29  2.033350 1.000764 1.937663  1.227517 0.585911 1.190966
30  2.026190 1.001859 1.937675  1.227511 0.585916 1.190961
31  0.000001 -0.000001 0.000004  1.583265 0.000007 1.570794
32  0.000000 6.028147 -0.000001  -0.409760 -0.508691 -0.913754
33  -0.000002 0.000010 -0.000006  -0.000002 0.000003 1.570792
34  0.000017 6.028144 -0.000011  -0.546263 0.355379 0.448564
35  -0.000001 11.692572 -0.000000  -0.000001 -0.000005 -0.646698
36  0.000000 0.000001 -0.000003  0.000005 0.000000 1.570801
37  11.692570 0.000054 0.000041  0.000004 -0.000001 -0.646689
38  0.000000 11.481681 -0.000001  0.385805 0.485195 0.748210
39  -0.000001 -0.000001 0.000002  0.000000 -0.000000 1.570789
40  11.481687 -0.000056 0.000008  0.517357 -0.339345 0.560994
41  0.137968 3.859859 1.332474  -1.465470 -1.619439 0.860087
42  0.000000 0.000000 0.000001  1.933714 0.000004 1.570794
43  3.859863 -0.137940 1.332471  0.357798 -0.048375 -0.605261
44  -0.000001 1.719433 0.000000  -0.420896 0.202310 0.066145
45  0.000000 0.000001 -0.000002  1.743430 0.000000 1.570798
46  1.719434 0.000005 -0.000007  0.000190 -0.009103 -0.438618
47  0.000000 1.099666 0.000001  1.022382 1.907832 1.050357
48  0.000001 -0.000002 0.000000  -0.000002 0.000003 1.570799
49  1.099667 0.000006 0.000002  -0.000120 0.002600 -0.290995
50  0.046788 3.883685 0.431452  -0.028051 -1.505149 -0.644069
51  0.000001 0.000000 -0.000000  1.590082 0.000009 1.570787
52  3.883688 -0.046761 0.431448  0.084906 0.001831 -0.672065
53  -0.000000 1.719579 0.000002  -0.720107 0.051523 -0.006475
54  -0.000000 0.000000 -0.000002  1.538381 -0.000002 1.570794
55  1.719583 0.000015 -0.000018  -0.003915 0.016394 -0.719635
56  -0.000000 1.209184 -0.000003  -1.502665 1.085637 -1.507498
57  -0.000002 -0.000000 -0.000000  -0.000000 -0.000000 1.570805
58  1.209188 -0.000003 -0.000002  -0.000816 0.002971 -0.484100
59  -0.046751 3.942327 -0.431434  -0.326397 -1.473454 -0.660495
60  -0.000001 -0.000001 0.000001  1.317660 0.000000 1.570797
61  3.942330 0.046779 -0.431438  -0.160903 0.031168 -0.985450
62  -0.000001 1.539089 -0.000002  -0.255125 -0.026494 -0.056799
63  -0.000001 -0.000000 0.000003  1.337310 -0.000004 1.570800
64  1.539097 -0.000002 0.000001  -0.000026 0.003540 -0.262674
65  -0.000001 1.196322 0.000003  -1.013135 1.118311 -1.059593
66  -0.000002 -0.000000 -0.000000  0.000000 -0.000001 1.570800
67  1.196326 -0.000006 0.000004  0.000001 0.000003 -0.391212
68  0.142426 3.859707 -1.191967  -0.667343 -1.423720 -0.301297
69  -0.000002 -0.000000 -0.000001  0.976757 -0.000005 1.570807
70  3.859710 -0.142399 -1.191969  -0.478195 0.090832 -0.963363
71  0.000000 1.312565 -0.000002  -0.361370 -0.138963 -0.204711
72  -0.000000 0.000000 0.000000  1.078169 0.000003 1.570794
73  1.312569 -0.000016 0.000008  0.000004 -0.001339 -0.437246
74  -0.000001 0.729363 0.000003  -0.404459 1.030431 -0.463000
75  -0.000000 -0.000001 -0.000001  -0.000001 -0.000001 1.570795
76  0.729367 0.000005 0.000000  0.000002 -0.000004 -0.231840
77  0.348927 0.806046 1.321261  -1.142990 -2.276505 0.650289
78  -0.000000 0.000000 0.000001  0.437032 0.000002 1.570791
79  0.806048 -0.348924 1.321258  -1.473567 -0.631214 -0.380782
80  0.000001 1.789783 0.000000  0.105694 0.066382 0.343694
81  0.000000 -0.000002 0.000001  0.347279 0.000000 1.570806
82  1.789786 0.000009 -0.000001  0.002655 0.043684 0.349594
83  0.000000 1.206997 -0.000001  0.184124 0.296136 0.568017
84  -0.000001 0.000001 -0.000001  0.000001 -0.000001 1.570797
85  1.206999 -0.000012 0.000003  -0.000004 0.000001 0.540468
86  0.000000 0.000000 1.000000  1.570796 -0.000000 0.000000
time 9
0  0.000005 3.335938 -8.640624  -1.570780 -1.391896 -1.570809
1  2.033355 1.000771 -1.937610  1.473118 1.855075 -0.198640
2  6.028144 -0.000000 0.000000  2.092978 1.511147 -0.468298
3  11.692554 0.000002 0.000003  0.000000 -0.000000 -0.322636
4  11.481699 0.000000 0.000002  -1.288762 0.007346 0.210745
5  3.859677 -0.132570 1.193110  0.432208 -0.155862 -0.861350
6  1.312556 -0.000003 -0.000000  0.000000 -0.000000 -1.191994
7  0.729363 0.000004 -0.000002  0.000000 -0.000000 -1.063394
8  3.942308 0.050327 0.431045  0.232421 0.000609 -0.853331
9  1.539097 -0.000001 -0.000001  -0.000000 -0.000000 -0.973401
10  1.196318 0.000013 0.000001  -0.000000 0.000000 -1.451289
11  3.883663 -0.050323 -0.431041  0.066987 0.050243 -0.694792
12  1.719577 0.000002 -0.000000  -0.000000 -0.000000 -1.251039
13  1.209187 0.000004 -0.000001  -0.000000 -0.000003 -1.141145
14  3.859839 -0.148938 -1.331281  -0.248855 0.263129 -0.072121
15  1.719422 0.000003 0.000001  -0.000000 -0.000000 -0.676756
16  1.099668 0.000000 0.000000  -0.000000 -0.000004 -1.021265
17  0.806021 -0.359837 -1.318334  1.349685 0.343493 -0.771450
18  1.789781 -0.000000 -0.000003  -0.000000 0.000000 0.397500
19  1.207000 0.000002 0.000004  0.000000 0.000000 0.989033
20  4.124999 -1.447267 -3.542969  -1.564198 -0.011689 -1.581440
21  3.820739 -1.409993 -0.589409  -1.564198 -0.011689 -1.581440
22  0.222825 -3.739063 1.509297  0.024887 2.851473 -1.494016
23  3.048727 6.125615 1.106841  1.596061 0.018247 -0.808184
24  3.527214 5.063569 0.216259  1.596061 0.018246 -0.808184
25  3.352950 5.114329 -0.401207  1.596061 0.018247 -0.808184
26  2.909482 4.772886 -1.012056  1.596061 0.018247 -0.808184
27  1.772479 4.476571 2.356868  1.596061 0.018247 -0.808184
28  0.000006 3.336140 -8.647861  -1.570799 -1.391898 -1.570795
29  2.033350 1.000764 1.937663  1.227517 0.585911 1.190966
30  2.026190 1.001859 1.937675  1.227511 0.585916 1.190961
31  0.000001 -0.000001 0.000004  1.583265 0.000007 1.570794
32  0.000000 6.028147 -0.000001  -0.407708 -0.509515 -0.916655
33  -0.000001 0.000009 -0.000006  -0.000002 0.000003 1.570792
34  0.000017 6.028144 -0.000011  -0.546728 0.353456 0.446502
35  -0.000000 11.692572 -0.000001  -0.000001 -0.000005 -0.640932
36  -0.000000 0.000001 -0.000002  0.000005 0.000000 1.570801
37  11.692570 0.000056 0.000041  0.000004 -0.000001 -0.640923
38  -0.000001 11.481681 0.000000  0.402324 0.486270 0.744946
39  -0.000001 -0.000000 -0.000001  0.000000 -0.000000 1.570789
40  11.481685 -0.000056 0.000006  0.521439 -0.353480 0.548632
41  0.137967 3.859859 1.332472  -1.465462 -1.619432 0.860069
42  0.000000 0.000000 -0.000001  1.933714 0.000004 1.570794
43  3.859863 -0.137941 1.332472  0.357799 -0.048368 -0.605270
44  -0.000001 1.719430 -0.000001  -0.420878 0.202310 0.066145
45  0.000000 -0.000001 -0.000000  1.743430 0.000000 1.570798
46  1.719435 0.000005 -0.000007  0.000190 -0.009100 -0.438601
47  -0.000000 1.099662 -0.000001  1.022360 1.907819 1.050333
48  -0.000001 -0.000000 0.000001  -0.000002 0.000003 1.570799
49  1.099666 0.000003 0.000002  -0.000119 0.002600 -0.290980
50  0.046788 3.883688 0.431449  -0.028132 -1.505149 -0.643991
51  0.000001 0.000001 -0.000000  1.590082 0.000009 1.570787
52  3.883689 -0.046761 0.431449  0.084906 0.001836 -0.672065
53  -0.000001 1.719574 0.000002  -0.720101 0.051523 -0.006475
54  0.000000 -0.000001 0.000001  1.538382 -0.000002 1.570794
55  1.719579 0.000019 -0.000018  -0.003915 0.016394 -0.719629
56  -0.000000 1.209180 -0.000003  -1.502664 1.085642 -1.507497
57  0.000001 0.000001 -0.000001  -0.000000 -0.000000 1.570805
58  1.209185 -0.000004 -0.000003  -0.000816 0.002971 -0.484095
59  -0.046751 3.942328 -0.431437  -0.326436 -1.473453 -0.660463
60  -0.000001 -0.000000 -0.000001  1.317660 0.000000 1.570797
61  3.942329 0.046778 -0.431437  -0.160904 0.031172 -0.985454
62  -0.000001 1.539090 0.000002  -0.255114 -0.026494 -0.056799
63  -0.000000 -0.000000 0.000001  1.337310 -0.000004 1.570800
64  1.539099 0.000002 0.000002  -0.000026 0.003538 -0.262663
65  -0.000000 1.196322 -0.000000  -1.013120 1.118322 -1.059577
66  0.000002 -0.000001 -0.000000  0.000000 -0.000001 1.570800
67  1.196327 -0.000006 0.000003  0.000001 0.000003 -0.391199
68  0.142425 3.859707 -1.191969  -0.667367 -1.423718 -0.301277
69  0.000000 -0.000002 -0.000001  0.976757 -0.000005 1.570807
70  3.859709 -0.142400 -1.191969  -0.478196 0.090836 -0.963366
71  -0.000001 1.312564 -0.000001  -0.361359 -0.138963 -0.204711
72  -0.000000 0.000001 0.000004  1.078169 0.000003 1.570794
73  1.312570 -0.000014 0.000008  0.000004 -0.001344 -0.437236
74  0.000000 0.729365 0.000002  -0.404441 1.030435 -0.462978
75  0.000002 -0.000001 0.000001  -0.000001 -0.000001 1.570795
76  0.729367 0.000001 -0.000001  0.000001 -0.000004 -0.231828
77  0.348927 0.806043 1.321257  -1.142982 -2.276491 0.650283
78  0.000000 0.000001 0.000001  0.437032 0.000002 1.570791
79  0.806045 -0.348924 1.321259  -1.473564 -0.631201 -0.380782
80  0.000000 1.789784 0.000001  0.105694 0.066384 0.343684
81  0.000000 0.000004 0.000001  0.347279 0.000000 1.570806
82  1.789788 0.000011 -0.000002  0.002654 0.043681 0.349585
83  0.000001 1.206999 -0.000002  0.184119 0.296139 0.568002
84  0.000001 -0.000001 0.000000  0.000001 -0.000001 1.570797
85  1.207002 -0.000013 0.000002  -0.000003 0.000001 0.540452
86  0.000000 0.000000 1.000000  1.570796 -0.000000 0.000000
time 10
0  0.000005 3.335938 -8.640624  -1.570780 -1.391896 -1.570809
1  2.033355 1.000771 -1.937610  1.473118 1.855075 -0.198640
2  6.028144 -0.000000 0.000000  2.114837 1.513297 -0.446374
3  11.692555 0.000000 0.000003  0.000000 0.000000 -0.317560
4  11.481699 0.000001 0.000001  -1.288835 0.007428 0.201108
5  3.859675 -0.132570 1.193110  0.432208 -0.155862 -0.861350
6  1.312555 -0.000000 0.000000  0.000000 -0.000000 -1.191994
7  0.729364 0.000002 -0.000002  0.000000 -0.000000 -1.063394
8  3.942306 0.050327 0.431046  0.232421 0.000609 -0.853331
9  1.539097 -0.000002 -0.000001  -0.000000 -0.000000 -0.973379
10  1.196319 0.000015 -0.000001  -0.000000 0.000000 -1.451289
11  3.883661 -0.050324 -0.431041  0.066987 0.050243 -0.694792
12  1.719577 0.000002 -0.000000  -0.000000 -0.000000 -1.251039
13  1.209187 -0.000002 -0.000000  -0.000000 -0.000003 -1.141145
14  3.859836 -0.148939 -1.331281  -0.248855 0.263129 -0.072121
15  1.719425 0.000002 -0.000001  -0.000000 -0.000000 -0.676756
16  1.099668 0.000000 0.000001  -0.000000 -0.000004 -1.021265
17  0.806020 -0.359837 -1.318334  1.349685 0.343493 -0.771450
18  1.789783 -0.000001 -0.000002  0.000000 0.000000 0.397500
19  1.206999 0.000004 0.000002  0.000000 0.000000 0.989033
20  4.124998 -1.447267 -3.542969  -1.564198 -0.011689 -1.581440
21  3.820740 -1.409993 -0.589408  -1.564198 -0.011689 -1.581440
22  0.222824 -3.739061 1.509297  0.024887 2.851473 -1.494016
23  3.048727 6.125611 1.106840  1.596061 0.018247 -0.808184
24  3.527214 5.063569 0.216258  1.596061 0.018246 -0.808184
25  3.352950 5.114327 -0.401207  1.596061 0.018247 -0.808184
26  2.909482 4.772882 -1.012058  1.596061 0.018247 -0.808184
27  1.772479 4.476571 2.356867  1.596061 0.018247 -0.808184
28  0.000006 3.336140 -8.647861  -1.570799 -1.391898 -1.570795
29  2.033350 1.000764 1.937663  1.227517 0.585911 1.190966
30  2.026190 1.001859 1.937675  1.227511 0.585916 1.190961
31  0.000001 -0.000001 0.000004  1.583265 0.000007 1.570794
32  0.000000 6.028147 -0.000001  -0.406641 -0.509944 -0.918170
33  0.000000 0.000009 -0.000006  -0.000002 0.000003 1.570791
34  0.000017 6.028144 -0.000011  -0.546970 0.352456 0.445425
35  0.000001 11.692571 -0.000000  -0.000001 -0.000005 -0.637918
36  0.000002 0.000000 -0.000003  0.000005 0.000000 1.570801
37  11.692569 0.000054 0.000042  0.000004 -0.000002 -0.637909
38  0.000001 11.481683 -0.000001  0.409009 0.486668 0.743182
39  -0.000000 -0.000001 0.000001  0.000000 -0.000000 1.570789
40  11.481686 -0.000053 0.000007  0.523097 -0.359196 0.543165
41  0.137968 3.859855 1.332474  -1.465457 -1.619429 0.860060
42  0.000000 -0.000000 -0.000001  1.933714 0.000004 1.570794
43  3.859859 -0.137942 1.332472  0.357799 -0.048365 -0.605272
44  0.000000 1.719430 -0.000001  -0.420876 0.202310 0.066145
45  -0.000001 -0.000000 0.000001  1.743430 0.000000 1.570798
46  1.719433 0.000005 -0.000006  0.000189 -0.009099 -0.438598
47  -0.000002 1.099660 0.000002  1.022357 1.907817 1.050329
48  -0.000001 -0.000000 -0.000001  -0.000002 0.000003 1.570799
49  1.099664 0.000004 0.000001  -0.000120 0.002599 -0.290977
50  0.046789 3.883687 0.431451  -0.028163 -1.505149 -0.643962
51  -0.000000 0.000001 -0.000002  1.590082 0.000009 1.570787
52  3.883690 -0.046762 0.431449  0.084906 0.001839 -0.672065
53  0.000000 1.719575 -0.000002  -0.720099 0.051523 -0.006475
54  -0.000000 -0.000000 -0.000001  1.538381 -0.000002 1.570794
55  1.719578 0.000014 -0.000015  -0.003915 0.016393 -0.719627
56  0.000001 1.209181 -0.000001  -1.502663 1.085644 -1.507497
57  0.000002 0.000001 0.000001  -0.000000 -0.000000 1.570805
58  1.209185 -0.000003 -0.000002  -0.000816 0.002971 -0.484093
59  -0.046751 3.942323 -0.431436  -0.326455 -1.473453 -0.660444
60  0.000000 -0.000001 -0.000001  1.317660 0.000000 1.570797
61  3.942325 0.046778 -0.431438  -0.160904 0.031174 -0.985454
62  0.000001 1.539091 -0.000004  -0.255112 -0.026494 -0.056799
63  -0.000001 -0.000001 0.000000  1.337310 -0.000004 1.570800
64  1.539098 -0.000002 0.000002  -0.000026 0.003537 -0.262661
65  -0.000001 1.196323 -0.000001  -1.013118 1.118325 -1.059574
66  0.000000 0.000000 0.000001  0.000000 -0.000001 1.570800
67  1.196326 -0.000007 0.000004  0.000001 0.000003 -0.391197
68  0.142426 3.859704 -1.191967  -0.667376 -1.423717 -0.301264
69  -0.000001 0.000002 -0.000000  0.976757 -0.000005 1.570807
70  3.859707 -0.142400 -1.191970  -0.478196 0.090838 -0.963364
71  -0.000001 1.312569 -0.000003  -0.361362 -0.138963 -0.204711
72  -0.000000 0.000000 0.000003  1.078169 0.000003 1.570794
73  1.312570 -0.000018 0.000007  0.000004 -0.001343 -0.437238
74  0.000001 0.729365 0.000001  -0.404447 1.030434 -0.462984
75  -0.000003 0.000000 -0.000000  -0.000001 -0.000001 1.570795
76  0.729367 0.000002 0.000001  0.000002 -0.000004 -0.231832
77  0.348928 0.806041 1.321259  -1.142979 -2.276486 0.650281
78  0.000002 -0.000001 0.000001  0.437032 0.000002 1.570790
79  0.806045 -0.348924 1.321259  -1.473563 -0.631196 -0.380782
80  0.000003 1.789783 0.000002  0.105694 0.066384 0.343681
81  0.000000 -0.000002 0.000000  0.347279 0.000000 1.570806
82  1.789790 0.000012 -0.000001  0.002654 0.043680 0.349583
83  -0.000002 1.206999 0.000002  0.184118 0.296140 0.567997
84  -0.000000 -0.000000 0.000000  0.000001 -0.000001 1.570797
85  1.207006 -0.000008 0.000004  -0.000004 0.000001 0.540448
86  0.000000 0.000000 1.000000  1.570796 -0.000000 0.000000
time 11
0  0.000005 3.335938 -8.640624  -1.570780 -1.391896 -1.570809
1  2.033355 1.000771 -1.937610  1.473118 1.855075 -0.198640
2  6.028144 -0.000000 0.000000  2.118875 1.513671 -0.442333
3  11.692555 0.000000 0.000003  -0.000000 0.000000 -0.316658
4  11.481696 0.000000 0.000001  -1.288835 0.007428 0.200690
5  3.859678 -0.132570 1.193110  0.432208 -0.155862 -0.861350
6  1.312558 -0.000001 0.000002  0.000000 0.000000 -1.191994
7  0.729365 0.000002 -0.000002  0.000000 -0.000000 -1.063394
8  3.942308 0.050327 0.431045  0.232421 0.000609 -0.853331
9  1.539099 -0.000003 0.000000  0.000000 -0.000000 -0.973379
10  1.196319 0.000014 -0.000001  -0.000000 0.000000 -1.451289
11  3.883662 -0.050324 -0.431042  0.066987 0.050243 -0.694792
12  1.719577 0.000005 -0.000000  -0.000000 -0.000000 -1.251039
13  1.209186 0.000001 -0.000001  -0.000000 -0.000003 -1.141145
14  3.859839 -0.148939 -1.331282  -0.248855 0.263129 -0.072121
15  1.719426 0.000003 -0.000001  -0.000000 -0.000000 -0.676756
16  1.099667 -0.000001 -0.000001  0.000000 -0.000004 -1.021265
17  0.806024 -0.359837 -1.318334  1.349685 0.343493 -0.771450
18  1.789784 0.000002 -0.000005  -0.000000 0.000000 0.397500
19  1.207000 0.000004 0.000002  0.000000 0.000000 0.989033
20  4.125002 -1.447267 -3.542969  -1.564198 -0.011689 -1.581440
21  3.820742 -1.409994 -0.589409  -1.564198 -0.011689 -1.581440
22  0.222822 -3.739062 1.509298  0.024887 2.851473 -1.494016
23  3.048727 6.125613 1.106841  1.596061 0.018247 -0.808184
24  3.527214 5.063570 0.216259  1.596061 0.018246 -0.808184
25  3.352950 5.114330 -0.401207  1.596061 0.018247 -0.808184
26  2.909481 4.772885 -1.012056  1.596061 0.018247 -0.808184
27  1.772478 4.476573 2.356868  1.596061 0.018247 -0.808184
28  0.000006 3.336140 -8.647861  -1.570799 -1.391898 -1.570795
29  2.033350 1.000764 1.937663  1.227517 0.585911 1.190966
30  2.026190 1.001859 1.937675  1.227511 0.585916 1.190961
31  0.000001 -0.000001 0.000004  1.583265 0.000007 1.570794
32  0.000000 6.028147 -0.000001  -0.406514 -0.510007 -0.918370
33  -0.000002 0.000010 -0.000005  -0.000002 0.000003 1.570792
34  0.000017 6.028144 -0.000011  -0.547012 0.352334 0.445272
35  -0.000001 11.692572 0.000000  -0.000001 -0.000005 -0.637503
36  -0.000001 0.000001 -0.000002  0.000005 0.000000 1.570801
37  11.692571 0.000054 0.000041  0.000004 -0.000002 -0.637494
38  0.000000 11.481681 0.000000  0.408929 0.486661 0.742934
39  -0.000001 0.000002 -0.000001  0.000000 -0.000000 1.570789
40  11.481684 -0.000054 0.000008  0.523074 -0.359129 0.542961
41  0.137967 3.859860 1.332473  -1.465453 -1.619430 0.860061
42  0.000001 0.000000 -0.000001  1.933714 0.000004 1.570794
43  3.859860 -0.137941 1.332473  0.357798 -0.048366 -0.605272
44  0.000000 1.719429 -0.000000  -0.420876 0.202310 0.066145
45  -0.000001 0.000001 0.000000  1.743430 0.000000 1.570798
46  1.719429 0.000006 -0.000007  0.000190 -0.009099 -0.438599
47  -0.000000 1.099662 -0.000001  1.022357 1.907817 1.050330
48  0.000003 0.000000 -0.000001  -0.000002 0.000003 1.570799
49  1.099664 -0.000001 0.000002  -0.000119 0.002600 -0.290978
50  0.046789 3.883689 0.431450  -0.028170 -1.505149 -0.643954
51  -0.000001 -0.000001 -0.000003  1.590082 0.000009 1.570787
52  3.883686 -0.046762 0.431450  0.084906 0.001839 -0.672066
53  -0.000001 1.719576 -0.000000  -0.720099 0.051523 -0.006475
54  0.000001 0.000000 -0.000002  1.538382 -0.000002 1.570794
55  1.719584 0.000017 -0.000017  -0.003915 0.016394 -0.719627
56  -0.000000 1.209183 -0.000005  -1.502664 1.085643 -1.507497
57  0.000000 0.000000 0.000001  -0.000000 -0.000000 1.570805
58  1.209187 -0.000003 -0.000005  -0.000816 0.002971 -0.484093
59  -0.046751 3.942328 -0.431436  -0.326463 -1.473452 -0.660438
60  -0.000001 0.000001 -0.000001  1.317660 0.000000 1.570797
61  3.942325 0.046779 -0.431437  -0.160904 0.031174 -0.985455
62  -0.000002 1.539093 -0.000004  -0.255112 -0.026494 -0.056799
63  0.000001 -0.000000 -0.000001  1.337310 -0.000004 1.570800
64  1.539097 0.000003 -0.000000  -0.000026 0.003538 -0.262662
65  0.000003 1.196324 -0.000000  -1.013117 1.118325 -1.059574
66  -0.000001 -0.000000 0.000001  0.000000 -0.000001 1.570800
67  1.196327 -0.000007 0.000004  0.000000 0.000003 -0.391197
68  0.142426 3.859707 -1.191966  -0.667375 -1.423717 -0.301270
69  0.000000 -0.000001 -0.000000  0.976757 -0.000005 1.570807
70  3.859705 -0.142400 -1.191967  -0.478196 0.090837 -0.963366
71  0.000001 1.312566 -0.000000  -0.361358 -0.138963 -0.204711
72  0.000000 0.000000 0.000002  1.078169 0.000003 1.570794
73  1.312572 -0.000014 0.000009  0.000004 -0.001344 -0.437235
74  0.000000 0.729365 0.000003  -0.404441 1.030436 -0.462977
75  -0.000002 -0.000000 0.000001  -0.000001 -0.000001 1.570795
76  0.729367 0.000004 -0.000000  0.000001 -0.000004 -0.231828
77  0.348928 0.806044 1.321260  -1.142977 -2.276485 0.650280
78  0.000000 -0.000000 0.000000  0.437032 0.000002 1.570791
79  0.806043 -0.348924 1.321261  -1.473563 -0.631195 -0.380782
80  0.000000 1.789784 0.000000  0.105694 0.066384 0.343680
81  -0.000001 0.000001 0.000000  0.347279 0.000000 1.570806
82  1.789789 0.000010 -0.000002  0.002654 0.043679 0.349582
83  -0.000002 1.207002 -0.000000  0.184118 0.296140 0.567996
84  -0.000001 -0.000000 -0.000001  0.000001 -0.000001 1.570797
85  1.207005 -0.000011 0.000003  -0.000003 0.000001 0.540447
86  0.000000 0.000000 1.000000  1.570796 -0.000000 0.000000
time 12
0  0.000005 3.335938 -8.640624  -1.570780 -1.391896 -1.570809
1  2.033355 1.000771 -1.937610  1.473118 1.855075 -0.198640
2  6.028144 -0.000000 0.000000  2.118875 1.513671 -0.442333
3  11.692555 0.000000 0.000003  -0.000000 0.000000 -0.316658
4  11.481696 0.000000 0.000001  -1.288835 0.007428 0.200690
5  3.859678 -0.132570 1.193110  0.432208 -0.155862 -0.861350
6  1.312558 -0.000001 0.000002  0.000000 0.000000 -1.191994
7  0.729365 0.000002 -0.000002  0.000000 -0.000000 -1.063394
8  3.942308 0.050327 0.431045  0.232421 0.000609 -0.853331
9  1.539099 -0.000003 0.000000  0.000000 -0.000000 -0.973379
10  1.196319 0.000014 -0.000001  -0.000000 0.000000 -1.451289
11  3.883662 -0.050324 -0.431042  0.066987 0.050243 -0.694792
12  1.719577 0.000005 -0.000000  -0.000000 -0.000000 -1.251039
13  1.209186 0.000001 -0.000001  -0.000000 -0.000003 -1.141145
14  3.859839 -0.148939 -1.331282  -0.248855 0.263129 -0.072121
15  1.719426 0.000003 -0.000001  -0.000000 -0.000000 -0.676756
16  1.099667 -0.000001 -0.000001  0.000000 -0.000004 -1.021265
17  0.806024 -0.359837 -1.318334  1.349685 0.343493 -0.771450
18  1.789784 0.000002 -0.000005  -0.000000 0.000000 0.397500
19  1.207000 0.000004 0.000002  0.000000 0.000000 0.989033
20  4.125002 -1.447267 -3.542969  -1.564198 -0.011689 -1.581440
21  3.820742 -1.409994 -0.589409  -1.564198 -0.011689 -1.581440
22  0.222822 -3.739062 1.509298  0.024887 2.851473 -1.494016
23  3.048727 6.125613 1.106841  1.596061 0.018247 -0.808184
24  3.527214 5.063570 0.216259  1.596061 0.018246 -0.808184
25  3.352950 5.114330 -0.401207  1.596061 0.018247 -0.808184
26  2.909481 4.772885 -1.012056  1.596061 0.018247 -0.808184
27  1.772478 4.476573 2.356868  1.596061 0.018247 -0.808184
28  0.000006 3.336140 -8.647861  -1.570799 -1.391898 -1.570795
29  2.033350 1.000764 1.937663  1.227517 0.585911 1.190966
30  2.026190 1.001859 1.937675  1.227511 0.585916 1.190961
31  0.000001 -0.000001 0.000004  1.583265 0.000007 1.570794
32  0.000000 6.028147 -0.000001  -0.406514 -0.510007 -0.918370
33  -0.000002 0.000010 -0.000005  -0.000002 0.000003 1.570792
34  0.000017 6.028144 -0.000011  -0.547012 0.352334 0.445272
35  -0.000001 11.692572 0.000000  -0.000001 -0.000005 -0.637503
36  -0.000001 0.000001 -0.000002  0.000005 0.000000 1.570801
37  11.692571 0.000054 0.000041  0.000004 -0.000002 -0.637494
38  0.000000 11.481681 0.000000  0.408929 0.486661 0.742934
39  -0.000001 0.000002 -0.000001  0.000000 -0.000000 1.570789
40  11.481684 -0.000054 0.000008  0.523074 -0.359129 0.542961
41  0.137967 3.859860 1.332473  -1.465453 -1.619430 0.860061
42  0.000001 0.000000 -0.000001  1.933714 0.000004 1.570794
43  3.859860 -0.137941 1.332473  0.357798 -0.048366 -0.605272
44  0.000000 1.719429 -0.000000  -0.420876 0.202310 0.066145
45  -0.000001 0.000001 0.000000  1.743430 0.000000 1.570798
46  1.719429 0.000006 -0.000007  0.000190 -0.009099 -0.438599
47  -0.000000 1.099662 -0.000001  1.022357 1.907817 1.050330
48  0.000003 0.000000 -0.000001  -0.000002 0.000003 1.570799
49  1.099664 -0.000001 0.000002  -0.000119 0.002600 -0.290978
50  0.046789 3.883689 0.431450  -0.028170 -1.505149 -0.643954
51  -0.000001 -0.000001 -0.000003  1.590082 0.000009 1.570787
52  3.883686 -0.046762 0.431450  0.084906 0.001839 -0.672066
53  -0.000001 1.719576 -0.000000  -0.720099 0.051523 -0.006475
54  0.000001 0.000000 -0.000002  1.538382 -0.000002 1.570794
55  1.719584 0.000017 -0.000017  -0.003915 0.016394 -0.719627
56  -0.000000 1.209183 -0.000005  -1.502664 1.085643 -1.507497
57  0.000000 0.000000 0.000001  -0.000000 -0.000000 1.570805
58  1.209187 -0.000003 -0.000005  -0.000816 0.002971 -0.484093
59  -0.046751 3.942328 -0.431436  -0.326463 -1.473452 -0.660438
60  -0.000001 0.000001 -0.000001  1.317660 0.000000 1.570797
61  3.942325 0.046779 -0.431437  -0.160904 0.031174 -0.985455
62  -0.000002 1.539093 -0.000004  -0.255112 -0.026494 -0.056799
63  0.000001 -0.000000 -0.000001  1.337310 -0.000004 1.570800
64  1.539097 0.000003 -0.000000  -0.000026 0.003538 -0.262662
65  0.000003 1.196324 -0.000000  -1.013117 1.118325 -1.059574
66  -0.000001 -0.000000 0.000001  0.000000 -0.000001 1.570800
67  1.196327 -0.000007 0.000004  0.000000 0.000003 -0.391197
68  0.142426 3.859707 -1.191966  -0.667375 -1.423717 -0.301270
69  0.000000 -0.000001 -0.000000  0.976757 -0.000005 1.570807
70  3.859705 -0.142400 -1.191967  -0.478196 0.090837 -0.963366
71  0.000001 1.312566 -0.000000  -0.361358 -0.138963 -0.204711
72  0.000000 0.000000 0.000002  1.078169 0.000003 1.570794
73  1.312572 -0.000014 0.000009  0.000004 -0.001344 -0.437235
74  0.000000 0.729365 0.000003  -0.404441 1.030436 -0.462977
75  -0.000002 -0.000000 0.000001  -0.000001 -0.000001 1.570795
76  0.729367 0.000004 -0.000000  0.000001 -0.000004 -0.231828
77  0.348928 0.806044 1.321260  -1.142977 -2.276485 0.650280
78  0.000000 -0.000000 0.000000  0.437032 0.000002 1.570791
79  0.806043 -0.348924 1.321261  -1.473563 -0.631195 -0.380782
80  0.000000 1.789784 0.000000  0.105694 0.066384 0.343680
81  -0.000001 0.000001 0.000000  0.347279 0.000000 1.570806
82  1.789789 0.000010 -0.000002  0.002654 0.043679 0.349582
83  -0.000002 1.207002 -0.000000  0.184118 0.296140 0.567996
84  -0.000001 -0.000000 -0.000001  0.000001 -0.000001 1.570797
85  1.207005 -0.000011 0.000003  -0.000003 0.000001 0.540447
86  0.000000 0.000000 1.000000  1.570796 -0.000000 0.000000
end
