version 1
nodes
0 "ValveBiped.Bip01_Spine4" -1
1 "ValveBiped.Bip01_R_Clavicle" 0
2 "ValveBiped.Bip01_R_UpperArm" 1
3 "ValveBiped.Bip01_R_Forearm" 2
4 "ValveBiped.Bip01_R_Hand" 3
5 "ValveBiped.Bip01_R_Finger4" 4
6 "ValveBiped.Bip01_R_Finger41" 5
7 "ValveBiped.Bip01_R_Finger42" 6
8 "ValveBiped.Bip01_R_Finger3" 4
9 "ValveBiped.Bip01_R_Finger31" 8
10 "ValveBiped.Bip01_R_Finger32" 9
11 "ValveBiped.Bip01_R_Finger2" 4
12 "ValveBiped.Bip01_R_Finger21" 11
13 "ValveBiped.Bip01_R_Finger22" 12
14 "ValveBiped.Bip01_R_Finger1" 4
15 "ValveBiped.Bip01_R_Finger11" 14
16 "ValveBiped.Bip01_R_Finger12" 15
17 "ValveBiped.Bip01_R_Finger0" 4
18 "ValveBiped.Bip01_R_Finger01" 17
19 "ValveBiped.Bip01_R_Finger02" 18
20 "ValveBiped.square" 4
21 "ValveBiped.clip" 4
22 "ik_target.Bip01_L_Hand" 4
23 "ik_target.Bip01_L_Finger1_tip" 22
24 "ik_target.Bip01_L_Finger2_tip" 22
25 "ik_target.Bip01_L_Finger3_tip" 22
26 "ik_target.Bip01_L_Finger4_tip" 22
27 "ik_target.Bip01_L_Finger0_tip" 22
28 "ik_chain.Bip01_Spine4" -1
29 "ik_chain.Bip01_L_Clavicle" 28
30 "ValveBiped.Bip01_L_Clavicle" 0
31 "ik_parent.Bip01_L_Clavicle" 29
32 "ik_chain.Bip01_L_UpperArm" 29
33 "ik_parent.Bip01_L_UpperArm" 32
34 "ValveBiped.Bip01_L_UpperArm" 30
35 "ik_chain.Bip01_L_Forearm" 32
36 "ik_parent.Bip01_L_Forearm" 35
37 "ValveBiped.Bip01_L_Forearm" 34
38 "ik_chain.Bip01_L_Hand" 35
39 "ik_parent.Bip01_L_Hand" 38
40 "ValveBiped.Bip01_L_Hand" 37
41 "ik_chain.Bip01_L_Finger1" 38
42 "ik_parent.Bip01_L_Finger1" 41
43 "ValveBiped.Bip01_L_Finger1" 40
44 "ik_chain.Bip01_L_Finger11" 41
45 "ik_parent.Bip01_L_Finger11" 44
46 "ValveBiped.Bip01_L_Finger11" 43
47 "ik_chain.Bip01_L_Finger12" 44
48 "ik_parent.Bip01_L_Finger12" 47
49 "ValveBiped.Bip01_L_Finger12" 46
50 "ik_chain.Bip01_L_Finger2" 38
51 "ik_parent.Bip01_L_Finger2" 50
52 "ValveBiped.Bip01_L_Finger2" 40
53 "ik_chain.Bip01_L_Finger21" 50
54 "ik_parent.Bip01_L_Finger21" 53
55 "ValveBiped.Bip01_L_Finger21" 52
56 "ik_chain.Bip01_L_Finger22" 53
57 "ik_parent.Bip01_L_Finger22" 56
58 "ValveBiped.Bip01_L_Finger22" 55
59 "ik_chain.Bip01_L_Finger3" 38
60 "ik_parent.Bip01_L_Finger3" 59
61 "ValveBiped.Bip01_L_Finger3" 40
62 "ik_chain.Bip01_L_Finger31" 59
63 "ik_parent.Bip01_L_Finger31" 62
64 "ValveBiped.Bip01_L_Finger31" 61
65 "ik_chain.Bip01_L_Finger32" 62
66 "ik_parent.Bip01_L_Finger32" 65
67 "ValveBiped.Bip01_L_Finger32" 64
68 "ik_chain.Bip01_L_Finger4" 38
69 "ik_parent.Bip01_L_Finger4" 68
70 "ValveBiped.Bip01_L_Finger4" 40
71 "ik_chain.Bip01_L_Finger41" 68
72 "ik_parent.Bip01_L_Finger41" 71
73 "ValveBiped.Bip01_L_Finger41" 70
74 "ik_chain.Bip01_L_Finger42" 71
75 "ik_parent.Bip01_L_Finger42" 74
76 "ValveBiped.Bip01_L_Finger42" 73
77 "ik_chain.Bip01_L_Finger0" 38
78 "ik_parent.Bip01_L_Finger0" 77
79 "ValveBiped.Bip01_L_Finger0" 40
80 "ik_chain.Bip01_L_Finger01" 77
81 "ik_parent.Bip01_L_Finger01" 80
82 "ValveBiped.Bip01_L_Finger01" 79
83 "ik_chain.Bip01_L_Finger02" 80
84 "ik_parent.Bip01_L_Finger02" 83
85 "ValveBiped.Bip01_L_Finger02" 82
86 "ik_enable" -1
end
skeleton
time 0
0  0.000005 3.335938 -8.640624  -1.570780 -1.391896 -1.570809
1  2.033356 1.000772 -1.937610  1.473119 1.855075 -0.198639
2  6.028144 -0.000001 0.000000  2.118874 1.513671 -0.442333
3  11.692555 0.000003 0.000004  0.000000 0.000000 -0.316658
4  11.481697 0.000001 0.000002  -1.288831 0.007417 0.200699
5  3.859679 -0.132571 1.193108  0.432208 -0.155862 -0.861350
6  1.312558 -0.000002 0.000001  0.000000 -0.000000 -1.191994
7  0.729362 0.000001 -0.000003  0.000000 -0.000000 -1.063394
8  3.942305 0.050325 0.431045  0.232421 0.000609 -0.853331
9  1.539101 0.000001 -0.000000  0.000000 -0.000000 -0.973399
10  1.196323 0.000006 0.000001  -0.000000 0.000000 -1.451289
11  3.883661 -0.050322 -0.431041  0.066987 0.050243 -0.694792
12  1.719578 0.000003 -0.000001  -0.000000 -0.000000 -1.251039
13  1.209184 0.000000 0.000000  -0.000000 -0.000003 -1.141145
14  3.859837 -0.148935 -1.331281  -0.248855 0.263129 -0.072121
15  1.719424 -0.000001 -0.000001  -0.000000 0.000000 -0.676756
16  1.099670 0.000002 0.000003  -0.000000 -0.000000 -1.021287
17  0.806021 -0.359836 -1.318335  1.349685 0.343493 -0.771450
18  1.789780 -0.000001 -0.000004  0.000000 0.000000 0.397500
19  1.206997 0.000002 0.000002  0.000000 -0.000000 0.989033
20  4.125000 -1.447265 -3.542968  -1.564198 -0.011689 -1.581440
21  3.820735 -1.409994 -0.589408  -1.564198 -0.011689 -1.581440
22  0.222819 -3.739062 1.509298  0.024887 2.851473 -1.494016
23  3.048727 6.125607 1.106840  1.596061 0.018247 -0.808184
24  3.527214 5.063565 0.216259  1.596061 0.018246 -0.808184
25  3.352950 5.114326 -0.401206  1.596061 0.018247 -0.808184
26  2.909482 4.772879 -1.012057  1.596061 0.018247 -0.808184
27  1.772478 4.476570 2.356868  1.596061 0.018247 -0.808184
28  0.000006 3.336140 -8.647861  -1.570799 -1.391898 -1.570795
29  2.033350 1.000764 1.937663  1.227517 0.585911 1.190966
30  2.026190 1.001859 1.937675  1.227511 0.585916 1.190961
31  0.000001 -0.000001 0.000004  1.583265 0.000007 1.570794
32  0.000000 6.028147 -0.000001  -0.406517 -0.510005 -0.918365
33  -0.000000 0.000010 -0.000006  -0.000002 0.000003 1.570791
34  0.000017 6.028144 -0.000011  -0.547011 0.352337 0.445276
35  0.000000 11.692571 -0.000000  -0.000001 -0.000005 -0.637515
36  0.000002 0.000000 -0.000001  0.000005 0.000000 1.570801
37  11.692578 0.000055 0.000041  0.000004 -0.000001 -0.637505
38  0.000002 11.481681 0.000000  0.408927 0.486660 0.742954
39  -0.000000 0.000001 0.000000  0.000000 -0.000000 1.570789
40  11.481682 -0.000051 0.000007  0.523072 -0.359126 0.542984
41  0.137967 3.859860 1.332474  -1.465452 -1.619430 0.860063
42  -0.000000 0.000000 -0.000001  1.933714 0.000004 1.570794
43  3.859862 -0.137941 1.332473  0.357799 -0.048366 -0.605273
44  0.000000 1.719428 0.000000  -0.420874 0.202310 0.066145
45  0.000000 0.000002 0.000001  1.743430 0.000000 1.570798
46  1.719433 0.000008 -0.000007  0.000190 -0.009099 -0.438597
47  0.000001 1.099665 0.000002  1.022355 1.907816 1.050327
48  -0.000002 -0.000000 -0.000000  -0.000002 0.000003 1.570799
49  1.099666 0.000001 0.000001  -0.000119 0.002599 -0.290976
50  0.046788 3.883687 0.431452  -0.028167 -1.505149 -0.643958
51  -0.000001 0.000001 0.000000  1.590082 0.000009 1.570787
52  3.883689 -0.046762 0.431449  0.084906 0.001839 -0.672065
53  -0.000000 1.719579 0.000004  -0.720099 0.051523 -0.006475
54  -0.000001 -0.000001 -0.000000  1.538381 -0.000002 1.570794
55  1.719581 0.000018 -0.000016  -0.003915 0.016394 -0.719625
56  -0.000000 1.209182 -0.000001  -1.502663 1.085644 -1.507497
57  0.000002 0.000001 -0.000001  -0.000000 -0.000000 1.570805
58  1.209186 -0.000004 -0.000002  -0.000816 0.002971 -0.484093
59  -0.046751 3.942328 -0.431434  -0.326448 -1.473453 -0.660452
60  0.000001 0.000000 -0.000003  1.317660 0.000000 1.570797
61  3.942327 0.046778 -0.431437  -0.160904 0.031173 -0.985455
62  0.000002 1.539092 -0.000002  -0.255110 -0.026494 -0.056799
63  -0.000000 -0.000000 -0.000000  1.337310 -0.000004 1.570800
64  1.539096 -0.000002 0.000004  -0.000026 0.003537 -0.262659
65  -0.000000 1.196323 0.000004  -1.013114 1.118327 -1.059571
66  -0.000000 -0.000001 0.000001  0.000000 -0.000001 1.570800
67  1.196325 -0.000005 0.000003  0.000001 0.000003 -0.391194
68  0.142426 3.859706 -1.191965  -0.667374 -1.423718 -0.301271
69  -0.000001 -0.000000 0.000001  0.976757 -0.000005 1.570807
70  3.859706 -0.142400 -1.191970  -0.478197 0.090837 -0.963367
71  -0.000001 1.312564 -0.000002  -0.361356 -0.138964 -0.204711
72  0.000001 -0.000001 0.000001  1.078169 0.000003 1.570794
73  1.312568 -0.000018 0.000006  0.000004 -0.001345 -0.437234
74  0.000002 0.729363 0.000001  -0.404437 1.030436 -0.462973
75  0.000001 0.000001 0.000000  -0.000001 -0.000001 1.570795
76  0.729367 0.000000 0.000002  0.000002 -0.000004 -0.231825
77  0.348927 0.806045 1.321260  -1.142975 -2.276482 0.650279
78  -0.000001 0.000001 -0.000000  0.437032 0.000002 1.570790
79  0.806048 -0.348924 1.321260  -1.473562 -0.631191 -0.380782
80  -0.000001 1.789783 0.000003  0.105693 0.066384 0.343677
81  0.000001 -0.000002 0.000000  0.347279 0.000000 1.570806
82  1.789787 0.000013 0.000001  0.002654 0.043678 0.349579
83  0.000003 1.206997 -0.000003  0.184116 0.296141 0.567990
84  0.000000 -0.000002 -0.000001  0.000001 -0.000001 1.570797
85  1.207002 -0.000013 0.000002  -0.000004 0.000001 0.540442
86  0.000000 0.000000 1.000000  1.570796 -0.000000 0.000000
time 1
0  0.000005 3.335938 -8.640624  -1.570780 -1.391896 -1.570809
1  2.033356 1.000772 -1.937610  1.473119 1.855075 -0.198639
2  6.028144 -0.000001 0.000000  2.118874 1.513671 -0.442333
3  11.692555 0.000003 0.000004  0.000000 0.000000 -0.316658
4  11.481697 0.000001 0.000002  -1.288831 0.007417 0.200699
5  3.859679 -0.132571 1.193108  0.432208 -0.155862 -0.861350
6  1.312558 -0.000002 0.000001  0.000000 -0.000000 -1.191994
7  0.729362 0.000001 -0.000003  0.000000 -0.000000 -1.063394
8  3.942305 0.050325 0.431045  0.232421 0.000609 -0.853331
9  1.539101 0.000001 -0.000000  0.000000 -0.000000 -0.973399
10  1.196323 0.000006 0.000001  -0.000000 0.000000 -1.451289
11  3.883661 -0.050322 -0.431041  0.066987 0.050243 -0.694792
12  1.719578 0.000003 -0.000001  -0.000000 -0.000000 -1.251039
13  1.209184 0.000000 0.000000  -0.000000 -0.000003 -1.141145
14  3.859837 -0.148935 -1.331281  -0.248855 0.263129 -0.072121
15  1.719424 -0.000001 -0.000001  -0.000000 0.000000 -0.676756
16  1.099670 0.000002 0.000003  -0.000000 -0.000000 -1.021287
17  0.806021 -0.359836 -1.318335  1.349685 0.343493 -0.771450
18  1.789780 -0.000001 -0.000004  0.000000 0.000000 0.397500
19  1.206997 0.000002 0.000002  0.000000 -0.000000 0.989033
20  4.125000 -1.447265 -3.542968  -1.564198 -0.011689 -1.581440
21  3.820735 -1.409994 -0.589408  -1.564198 -0.011689 -1.581440
22  0.222819 -3.739062 1.509298  0.024887 2.851473 -1.494016
23  3.048727 6.125607 1.106840  1.596061 0.018247 -0.808184
24  3.527214 5.063565 0.216259  1.596061 0.018246 -0.808184
25  3.352950 5.114326 -0.401206  1.596061 0.018247 -0.808184
26  2.909482 4.772879 -1.012057  1.596061 0.018247 -0.808184
27  1.772478 4.476570 2.356868  1.596061 0.018247 -0.808184
28  0.000006 3.336140 -8.647861  -1.570799 -1.391898 -1.570795
29  2.033350 1.000764 1.937663  1.227517 0.585911 1.190966
30  2.026190 1.001859 1.937675  1.227511 0.585916 1.190961
31  0.000001 -0.000001 0.000004  1.583265 0.000007 1.570794
32  0.000000 6.028147 -0.000001  -0.406517 -0.510005 -0.918365
33  -0.000000 0.000010 -0.000006  -0.000002 0.000003 1.570791
34  0.000017 6.028144 -0.000011  -0.547011 0.352337 0.445276
35  0.000000 11.692571 -0.000000  -0.000001 -0.000005 -0.637515
36  0.000002 0.000000 -0.000001  0.000005 0.000000 1.570801
37  11.692578 0.000055 0.000041  0.000004 -0.000001 -0.637505
38  0.000002 11.481681 0.000000  0.408927 0.486660 0.742954
39  -0.000000 0.000001 0.000000  0.000000 -0.000000 1.570789
40  11.481682 -0.000051 0.000007  0.523072 -0.359126 0.542984
41  0.137967 3.859860 1.332474  -1.465452 -1.619430 0.860063
42  -0.000000 0.000000 -0.000001  1.933714 0.000004 1.570794
43  3.859862 -0.137941 1.332473  0.357799 -0.048366 -0.605273
44  0.000000 1.719428 0.000000  -0.420874 0.202310 0.066145
45  0.000000 0.000002 0.000001  1.743430 0.000000 1.570798
46  1.719433 0.000008 -0.000007  0.000190 -0.009099 -0.438597
47  0.000001 1.099665 0.000002  1.022355 1.907816 1.050327
48  -0.000002 -0.000000 -0.000000  -0.000002 0.000003 1.570799
49  1.099666 0.000001 0.000001  -0.000119 0.002599 -0.290976
50  0.046788 3.883687 0.431452  -0.028167 -1.505149 -0.643958
51  -0.000001 0.000001 0.000000  1.590082 0.000009 1.570787
52  3.883689 -0.046762 0.431449  0.084906 0.001839 -0.672065
53  -0.000000 1.719579 0.000004  -0.720099 0.051523 -0.006475
54  -0.000001 -0.000001 -0.000000  1.538381 -0.000002 1.570794
55  1.719581 0.000018 -0.000016  -0.003915 0.016394 -0.719625
56  -0.000000 1.209182 -0.000001  -1.502663 1.085644 -1.507497
57  0.000002 0.000001 -0.000001  -0.000000 -0.000000 1.570805
58  1.209186 -0.000004 -0.000002  -0.000816 0.002971 -0.484093
59  -0.046751 3.942328 -0.431434  -0.326448 -1.473453 -0.660452
60  0.000001 0.000000 -0.000003  1.317660 0.000000 1.570797
61  3.942327 0.046778 -0.431437  -0.160904 0.031173 -0.985455
62  0.000002 1.539092 -0.000002  -0.255110 -0.026494 -0.056799
63  -0.000000 -0.000000 -0.000000  1.337310 -0.000004 1.570800
64  1.539096 -0.000002 0.000004  -0.000026 0.003537 -0.262659
65  -0.000000 1.196323 0.000004  -1.013114 1.118327 -1.059571
66  -0.000000 -0.000001 0.000001  0.000000 -0.000001 1.570800
67  1.196325 -0.000005 0.000003  0.000001 0.000003 -0.391194
68  0.142426 3.859706 -1.191965  -0.667374 -1.423718 -0.301271
69  -0.000001 -0.000000 0.000001  0.976757 -0.000005 1.570807
70  3.859706 -0.142400 -1.191970  -0.478197 0.090837 -0.963367
71  -0.000001 1.312564 -0.000002  -0.361356 -0.138964 -0.204711
72  0.000001 -0.000001 0.000001  1.078169 0.000003 1.570794
73  1.312568 -0.000018 0.000006  0.000004 -0.001345 -0.437234
74  0.000002 0.729363 0.000001  -0.404437 1.030436 -0.462973
75  0.000001 0.000001 0.000000  -0.000001 -0.000001 1.570795
76  0.729367 0.000000 0.000002  0.000002 -0.000004 -0.231825
77  0.348927 0.806045 1.321260  -1.142975 -2.276482 0.650279
78  -0.000001 0.000001 -0.000000  0.437032 0.000002 1.570790
79  0.806048 -0.348924 1.321260  -1.473562 -0.631191 -0.380782
80  -0.000001 1.789783 0.000003  0.105693 0.066384 0.343677
81  0.000001 -0.000002 0.000000  0.347279 0.000000 1.570806
82  1.789787 0.000013 0.000001  0.002654 0.043678 0.349579
83  0.000003 1.206997 -0.000003  0.184116 0.296141 0.567990
84  0.000000 -0.000002 -0.000001  0.000001 -0.000001 1.570797
85  1.207002 -0.000013 0.000002  -0.000004 0.000001 0.540442
86  0.000000 0.000000 1.000000  1.570796 -0.000000 0.000000
time 2
0  0.000005 3.335938 -8.640624  -1.570780 -1.391896 -1.570809
1  2.033356 1.000772 -1.937610  1.473119 1.855075 -0.198639
2  6.028144 -0.000001 0.000000  1.853764 1.483572 -0.711928
3  11.692555 0.000003 0.000003  0.000000 0.000000 -0.355118
4  11.481700 0.000002 0.000002  -1.288831 0.007417 0.200699
5  3.859678 -0.132570 1.193107  0.432208 -0.155862 -0.861350
6  1.312558 0.000001 0.000001  0.000000 -0.000000 -1.191994
7  0.729362 0.000006 -0.000003  0.000000 -0.000000 -1.063394
8  3.942302 0.050325 0.431044  0.232421 0.000609 -0.853331
9  1.539102 0.000001 -0.000000  0.000000 -0.000000 -0.973399
10  1.196322 0.000005 0.000001  0.000000 -0.000000 -1.451289
11  3.883658 -0.050323 -0.431042  0.066987 0.050243 -0.694792
12  1.719577 0.000005 0.000001  -0.000000 -0.000000 -1.251039
13  1.209186 -0.000000 -0.000000  -0.000000 -0.000003 -1.141145
14  3.859837 -0.148935 -1.331282  -0.248855 0.263129 -0.072121
15  1.719424 0.000001 -0.000000  -0.000000 0.000000 -0.676756
16  1.099671 0.000005 0.000001  -0.000000 -0.000000 -1.021287
17  0.806020 -0.359836 -1.318336  1.349685 0.343493 -0.771450
18  1.789780 -0.000003 -0.000001  0.000000 0.000000 0.397500
19  1.206993 0.000002 0.000005  0.000000 -0.000000 0.989033
20  4.125000 -1.447265 -3.542969  -1.564198 -0.011689 -1.581440
21  3.820733 -1.409994 -0.589409  -1.564198 -0.011689 -1.581440
22  0.222817 -3.739064 1.509298  0.024887 2.851473 -1.494016
23  3.048727 6.125610 1.106841  1.596061 0.018247 -0.808184
24  3.527214 5.063565 0.216260  1.596061 0.018246 -0.808184
25  3.352951 5.114326 -0.401206  1.596061 0.018247 -0.808184
26  2.909482 4.772881 -1.012056  1.596061 0.018247 -0.808184
27  1.772479 4.476570 2.356869  1.596061 0.018247 -0.808184
28  0.000006 3.336140 -8.647861  -1.570799 -1.391898 -1.570795
29  2.033350 1.000764 1.937663  1.227517 0.585911 1.190966
30  2.026190 1.001859 1.937675  1.227511 0.585916 1.190961
31  0.000001 -0.000001 0.000004  1.583265 0.000007 1.570794
32  0.000000 6.028147 -0.000001  -0.432585 -0.507598 -0.894743
33  -0.000001 0.000010 -0.000005  -0.000002 0.000003 1.570791
34  0.000017 6.028144 -0.000011  -0.549666 0.375095 0.455254
35  -0.000000 11.692570 0.000001  -0.000001 -0.000005 -0.652967
36  0.000001 0.000001 -0.000001  0.000005 0.000000 1.570801
37  11.692578 0.000053 0.000039  0.000004 -0.000001 -0.652958
38  0.000001 11.481683 0.000001  0.432608 0.493659 0.754147
39  -0.000001 0.000000 0.000001  0.000000 -0.000000 1.570789
40  11.481683 -0.000054 0.000007  0.535033 -0.378127 0.538718
41  0.137968 3.859857 1.332474  -1.465414 -1.619463 0.860167
42  0.000000 -0.000001 0.000000  1.933714 0.000004 1.570794
43  3.859857 -0.137941 1.332474  0.357793 -0.048399 -0.605120
44  0.000001 1.719428 0.000001  -0.421087 0.202310 0.066145
45  0.000000 0.000002 0.000002  1.743430 0.000000 1.570798
46  1.719433 0.000005 -0.000005  0.000192 -0.009136 -0.438807
47  0.000002 1.099662 -0.000001  1.022641 1.907981 1.050631
48  0.000003 -0.000000 0.000001  -0.000002 0.000003 1.570799
49  1.099663 -0.000005 0.000004  -0.000120 0.002600 -0.291168
50  0.046788 3.883688 0.431450  -0.028114 -1.505148 -0.643949
51  0.000000 -0.000002 -0.000000  1.590082 0.000009 1.570787
52  3.883687 -0.046762 0.431449  0.084907 0.001835 -0.672003
53  0.000003 1.719573 -0.000001  -0.720204 0.051523 -0.006475
54  -0.000000 -0.000000 0.000001  1.538381 -0.000002 1.570794
55  1.719576 0.000013 -0.000014  -0.003916 0.016397 -0.719731
56  0.000000 1.209183 -0.000001  -1.502676 1.085547 -1.507511
57  -0.000002 -0.000001 0.000000  -0.000000 -0.000000 1.570805
58  1.209185 -0.000003 -0.000002  -0.000817 0.002971 -0.484190
59  -0.046751 3.942326 -0.431435  -0.326469 -1.473444 -0.660286
60  0.000001 0.000001 0.000002  1.317660 0.000000 1.570797
61  3.942324 0.046778 -0.431436  -0.160897 0.031177 -0.985308
62  0.000003 1.539091 -0.000001  -0.255302 -0.026494 -0.056799
63  -0.000000 -0.000000 -0.000000  1.337310 -0.000004 1.570800
64  1.539097 -0.000004 0.000003  -0.000027 0.003581 -0.262846
65  0.000001 1.196322 0.000002  -1.013394 1.118109 -1.059881
66  0.000003 0.000001 -0.000000  0.000000 -0.000001 1.570800
67  1.196327 -0.000005 0.000005  0.000001 0.000003 -0.391451
68  0.142426 3.859704 -1.191967  -0.667458 -1.423684 -0.301020
69  0.000001 0.000000 -0.000000  0.976757 -0.000005 1.570807
70  3.859704 -0.142400 -1.191969  -0.478177 0.090868 -0.963196
71  0.000001 1.312566 -0.000000  -0.361587 -0.138963 -0.204711
72  0.000000 -0.000001 -0.000002  1.078169 0.000003 1.570794
73  1.312570 -0.000014 0.000010  0.000005 -0.001236 -0.437437
74  -0.000002 0.729363 0.000001  -0.404820 1.030338 -0.463421
75  -0.000003 -0.000000 0.000000  -0.000001 -0.000001 1.570795
76  0.729366 0.000005 -0.000001  0.000002 -0.000005 -0.232075
77  0.348927 0.806046 1.321260  -1.143026 -2.276613 0.650334
78  -0.000000 0.000000 0.000000  0.437032 0.000002 1.570791
79  0.806046 -0.348924 1.321261  -1.473611 -0.631320 -0.380736
80  0.000001 1.789784 0.000000  0.105701 0.066372 0.343793
81  0.000000 0.000001 0.000002  0.347279 0.000000 1.570806
82  1.789788 0.000010 -0.000001  0.002659 0.043718 0.349689
83  0.000001 1.207000 0.000000  0.184169 0.296109 0.568171
84  -0.000000 0.000002 0.000001  0.000001 -0.000001 1.570797
85  1.207001 -0.000012 0.000003  -0.000003 0.000001 0.540618
86  0.000000 0.000000 1.000000  1.570796 -0.000000 0.000000
time 3
0  0.000005 3.335938 -8.640624  -1.570780 -1.391896 -1.570809
1  2.033356 1.000772 -1.937610  1.473119 1.855075 -0.198639
2  6.028144 -0.000001 0.000000  1.624212 1.370237 -0.952170
3  11.692554 0.000002 0.000003  -0.000000 0.000000 -0.506250
4  11.481699 0.000000 0.000003  -1.288831 0.007417 0.200699
5  3.859681 -0.132571 1.193107  0.432208 -0.155862 -0.861350
6  1.312559 0.000002 0.000001  0.000000 0.000000 -1.191994
7  0.729363 0.000002 -0.000003  0.000000 -0.000000 -1.063394
8  3.942303 0.050324 0.431045  0.232421 0.000609 -0.853331
9  1.539099 -0.000001 0.000000  0.000000 -0.000000 -0.973399
10  1.196321 0.000006 0.000001  0.000000 -0.000000 -1.451289
11  3.883662 -0.050322 -0.431042  0.066987 0.050243 -0.694792
12  1.719579 0.000004 0.000001  -0.000000 -0.000000 -1.251039
13  1.209186 0.000002 0.000000  -0.000000 -0.000003 -1.141173
14  3.859839 -0.148935 -1.331281  -0.248855 0.263129 -0.072121
15  1.719423 0.000001 0.000000  -0.000000 0.000000 -0.676756
16  1.099669 0.000002 0.000002  -0.000000 -0.000000 -1.021287
17  0.806023 -0.359837 -1.318336  1.349685 0.343493 -0.771450
18  1.789782 0.000000 -0.000003  0.000000 0.000000 0.397500
19  1.206997 0.000003 0.000001  0.000000 -0.000000 0.989033
20  4.125002 -1.447266 -3.542969  -1.564198 -0.011689 -1.581440
21  3.820738 -1.409994 -0.589408  -1.564198 -0.011689 -1.581440
22  0.222811 -3.739061 1.509298  0.024887 2.851473 -1.494016
23  3.048727 6.125610 1.106841  1.596061 0.018247 -0.808184
24  3.527214 5.063567 0.216259  1.596061 0.018246 -0.808184
25  3.352950 5.114327 -0.401208  1.596061 0.018247 -0.808184
26  2.909482 4.772882 -1.012056  1.596061 0.018247 -0.808184
27  1.772479 4.476569 2.356868  1.596061 0.018247 -0.808184
28  0.000006 3.336140 -8.647861  -1.570799 -1.391898 -1.570795
29  2.033350 1.000764 1.937663  1.227517 0.585911 1.190966
30  2.026190 1.001859 1.937675  1.227511 0.585916 1.190961
31  0.000001 -0.000001 0.000004  1.583265 0.000007 1.570794
32  0.000000 6.028147 -0.000001  -0.511157 -0.491812 -0.817916
33  -0.000001 0.000009 -0.000006  -0.000002 0.000003 1.570792
34  0.000016 6.028143 -0.000012  -0.550819 0.445830 0.493956
35  0.000000 11.692569 0.000000  -0.000000 -0.000005 -0.728408
36  0.000001 0.000000 -0.000001  0.000005 0.000000 1.570801
37  11.692579 0.000051 0.000038  0.000004 -0.000001 -0.728399
38  0.000002 11.481681 0.000001  0.524981 0.513728 0.806260
39  -0.000000 -0.000001 -0.000001  0.000000 -0.000000 1.570789
40  11.481684 -0.000054 0.000006  0.577832 -0.451701 0.528953
41  0.137968 3.859853 1.332473  -1.465380 -1.619500 0.860280
42  -0.000001 -0.000000 0.000001  1.933714 0.000004 1.570794
43  3.859858 -0.137941 1.332474  0.357788 -0.048435 -0.604976
44  0.000000 1.719426 -0.000000  -0.421298 0.202310 0.066145
45  -0.000000 -0.000001 -0.000000  1.743430 0.000000 1.570798
46  1.719431 0.000004 -0.000004  0.000193 -0.009172 -0.439014
47  0.000001 1.099659 0.000001  1.022922 1.908142 1.050928
48  -0.000002 -0.000000 -0.000000  -0.000002 0.000003 1.570799
49  1.099662 -0.000000 0.000003  -0.000120 0.002599 -0.291358
50  0.046788 3.883684 0.431450  -0.027974 -1.505148 -0.644038
51  -0.000001 0.000000 -0.000002  1.590082 0.000009 1.570787
52  3.883688 -0.046761 0.431450  0.084908 0.001826 -0.671956
53  -0.000002 1.719579 -0.000003  -0.720300 0.051523 -0.006475
54  -0.000000 -0.000000 0.000001  1.538381 -0.000002 1.570794
55  1.719580 0.000018 -0.000018  -0.003918 0.016399 -0.719828
56  -0.000000 1.209183 0.000005  -1.502687 1.085459 -1.507524
57  -0.000003 -0.000000 0.000001  -0.000000 -0.000000 1.570805
58  1.209186 0.000003 -0.000001  -0.000817 0.002971 -0.484279
59  -0.046750 3.942324 -0.431435  -0.326430 -1.473439 -0.660194
60  0.000001 0.000001 0.000001  1.317660 0.000000 1.570797
61  3.942327 0.046778 -0.431437  -0.160890 0.031176 -0.985179
62  -0.000000 1.539089 0.000002  -0.255483 -0.026494 -0.056799
63  0.000000 -0.000000 0.000000  1.337310 -0.000004 1.570800
64  1.539091 0.000000 0.000001  -0.000028 0.003623 -0.263022
65  0.000000 1.196322 -0.000002  -1.013654 1.117906 -1.060170
66  0.000000 0.000000 0.000001  0.000000 -0.000001 1.570800
67  1.196325 -0.000007 0.000003  0.000000 0.000004 -0.391690
68  0.142426 3.859702 -1.191966  -0.667517 -1.423656 -0.300815
69  0.000001 0.000001 0.000000  0.976757 -0.000005 1.570807
70  3.859704 -0.142400 -1.191967  -0.478160 0.090892 -0.963049
71  0.000002 1.312564 -0.000003  -0.361799 -0.138964 -0.204711
72  -0.000001 0.000000 -0.000001  1.078169 0.000003 1.570794
73  1.312569 -0.000017 0.000008  0.000005 -0.001136 -0.437625
74  -0.000001 0.729363 0.000001  -0.405170 1.030248 -0.463828
75  0.000000 -0.000002 -0.000000  -0.000001 -0.000001 1.570795
76  0.729364 0.000003 0.000000  0.000002 -0.000004 -0.232304
77  0.348928 0.806040 1.321260  -1.143082 -2.276745 0.650389
78  0.000001 0.000000 0.000000  0.437032 0.000002 1.570790
79  0.806044 -0.348924 1.321262  -1.473657 -0.631453 -0.380697
80  -0.000000 1.789786 0.000003  0.105709 0.066360 0.343910
81  0.000003 -0.000001 0.000001  0.347279 0.000000 1.570806
82  1.789792 0.000015 -0.000000  0.002664 0.043757 0.349799
83  0.000002 1.206999 0.000000  0.184222 0.296077 0.568352
84  0.000000 0.000002 0.000000  0.000001 -0.000001 1.570797
85  1.207004 -0.000012 0.000004  -0.000004 0.000001 0.540794
86  0.000000 0.000000 1.000000  1.570796 -0.000000 0.000000
time 4
0  0.000005 3.335938 -8.640624  -1.570780 -1.391896 -1.570809
1  2.033356 1.000772 -1.937610  1.473119 1.855075 -0.198639
2  6.028144 -0.000001 0.000000  1.540382 1.211193 -1.049521
3  11.692555 0.000003 0.000003  0.000000 0.000000 -0.683022
4  11.481697 -0.000001 0.000002  -1.288831 0.007417 0.200699
5  3.859679 -0.132570 1.193108  0.432208 -0.155862 -0.861350
6  1.312557 -0.000001 0.000002  0.000000 0.000000 -1.191994
7  0.729363 0.000005 -0.000003  0.000000 -0.000000 -1.063394
8  3.942302 0.050326 0.431044  0.232421 0.000609 -0.853331
9  1.539100 -0.000001 0.000000  0.000000 -0.000000 -0.973399
10  1.196321 0.000005 0.000000  0.000000 -0.000000 -1.451289
11  3.883659 -0.050322 -0.431041  0.066987 0.050243 -0.694792
12  1.719575 0.000004 0.000001  -0.000000 -0.000000 -1.251039
13  1.209187 0.000003 0.000000  -0.000000 -0.000003 -1.141145
14  3.859836 -0.148935 -1.331282  -0.248855 0.263129 -0.072121
15  1.719420 0.000001 -0.000002  -0.000000 0.000000 -0.676756
16  1.099669 0.000003 0.000002  0.000000 -0.000000 -1.021287
17  0.806020 -0.359836 -1.318335  1.349685 0.343493 -0.771450
18  1.789782 -0.000002 -0.000005  0.000000 0.000000 0.397500
19  1.206997 0.000002 0.000003  0.000000 -0.000000 0.989033
20  4.124999 -1.447265 -3.542969  -1.564198 -0.011689 -1.581440
21  3.820736 -1.409994 -0.589409  -1.564198 -0.011689 -1.581440
22  0.222814 -3.739061 1.509298  0.024887 2.851473 -1.494016
23  3.048727 6.125611 1.106840  1.596061 0.018247 -0.808184
24  3.527215 5.063570 0.216260  1.596061 0.018246 -0.808184
25  3.352951 5.114328 -0.401207  1.596061 0.018247 -0.808184
26  2.909482 4.772884 -1.012056  1.596061 0.018247 -0.808184
27  1.772479 4.476571 2.356868  1.596061 0.018247 -0.808184
28  0.000006 3.336140 -8.647861  -1.570799 -1.391898 -1.570795
29  2.033350 1.000764 1.937663  1.227517 0.585911 1.190966
30  2.026190 1.001859 1.937675  1.227511 0.585916 1.190961
31  0.000001 -0.000001 0.000004  1.583265 0.000007 1.570794
32  0.000000 6.028147 -0.000001  -0.635726 -0.456537 -0.703991
33  -0.000000 0.000010 -0.000006  -0.000002 0.000003 1.570791
34  0.000016 6.028143 -0.000012  -0.548026 0.562084 0.552285
35  0.000000 11.692572 0.000001  0.000000 -0.000005 -0.833827
36  -0.000001 0.000000 -0.000001  0.000005 0.000000 1.570801
37  11.692582 0.000054 0.000040  0.000005 -0.000002 -0.833819
38  -0.000000 11.481680 0.000000  0.642453 0.540939 0.881800
39  -0.000001 0.000003 -0.000000  0.000000 -0.000000 1.570789
40  11.481685 -0.000054 0.000008  0.643687 -0.539389 0.513968
41  0.137967 3.859859 1.332474  -1.465376 -1.619524 0.860357
42  -0.000001 0.000001 -0.000001  1.933714 0.000004 1.570794
43  3.859858 -0.137941 1.332477  0.357785 -0.048459 -0.604896
44  0.000000 1.719431 -0.000002  -0.421420 0.202310 0.066145
45  -0.000001 0.000000 -0.000001  1.743430 0.000000 1.570798
46  1.719433 0.000005 -0.000005  0.000194 -0.009193 -0.439135
47  -0.000001 1.099662 0.000003  1.023084 1.908236 1.051101
48  -0.000000 -0.000001 -0.000001  -0.000002 0.000003 1.570799
49  1.099662 0.000002 0.000001  -0.000121 0.002599 -0.291468
50  0.046788 3.883690 0.431450  -0.027883 -1.505147 -0.644104
51  0.000001 0.000000 -0.000000  1.590082 0.000009 1.570787
52  3.883688 -0.046762 0.431451  0.084909 0.001820 -0.671932
53  0.000002 1.719575 -0.000000  -0.720355 0.051523 -0.006475
54  -0.000001 -0.000001 0.000004  1.538381 -0.000002 1.570794
55  1.719578 0.000016 -0.000016  -0.003919 0.016400 -0.719882
56  0.000001 1.209181 0.000004  -1.502694 1.085410 -1.507531
57  0.000000 0.000000 -0.000000  -0.000000 -0.000000 1.570805
58  1.209184 -0.000001 -0.000000  -0.000817 0.002971 -0.484327
59  -0.046751 3.942326 -0.431437  -0.326380 -1.473436 -0.660176
60  0.000000 -0.000002 0.000001  1.317660 0.000000 1.570797
61  3.942325 0.046778 -0.431436  -0.160886 0.031172 -0.985111
62  0.000001 1.539087 0.000002  -0.255582 -0.026494 -0.056799
63  -0.000001 -0.000001 0.000001  1.337310 -0.000004 1.570800
64  1.539093 -0.000004 0.000003  -0.000028 0.003646 -0.263119
65  -0.000002 1.196319 0.000000  -1.013797 1.117795 -1.060327
66  0.000000 0.000000 0.000001  0.000000 -0.000001 1.570800
67  1.196324 -0.000006 0.000001  -0.000000 0.000003 -0.391821
68  0.142426 3.859706 -1.191967  -0.667533 -1.423643 -0.300727
69  0.000000 -0.000000 -0.000002  0.976757 -0.000005 1.570807
70  3.859704 -0.142400 -1.191968  -0.478151 0.090902 -0.962975
71  -0.000000 1.312567 -0.000003  -0.361915 -0.138963 -0.204711
72  0.000000 0.000000 -0.000001  1.078169 0.000003 1.570794
73  1.312572 -0.000014 0.000008  0.000005 -0.001081 -0.437726
74  0.000001 0.729363 -0.000000  -0.405360 1.030199 -0.464049
75  -0.000001 0.000000 -0.000001  -0.000001 -0.000001 1.570795
76  0.729364 0.000004 0.000001  0.000001 -0.000004 -0.232428
77  0.348927 0.806044 1.321259  -1.143121 -2.276827 0.650423
78  -0.000003 0.000001 -0.000000  0.437032 0.000002 1.570791
79  0.806044 -0.348924 1.321261  -1.473682 -0.631536 -0.380677
80  -0.000004 1.789785 0.000001  0.105714 0.066352 0.343981
81  -0.000000 -0.000001 0.000001  0.347279 0.000000 1.570806
82  1.789791 0.000012 -0.000001  0.002666 0.043782 0.349867
83  -0.000000 1.207001 0.000000  0.184254 0.296057 0.568463
84  -0.000000 0.000002 0.000000  0.000001 -0.000001 1.570797
85  1.207004 -0.000011 0.000004  -0.000004 0.000001 0.540902
86  0.000000 0.000000 1.000000  1.570796 -0.000000 0.000000
time 5
0  0.000005 3.335938 -8.640624  -1.570780 -1.391896 -1.570809
1  2.033356 1.000772 -1.937610  1.473119 1.855075 -0.198639
2  6.028144 -0.000001 0.000000  1.494418 0.992046 -1.109121
3  11.692555 0.000002 0.000003  -0.000000 0.000000 -0.881525
4  11.481697 0.000001 0.000002  -1.288831 0.007417 0.200699
5  3.859678 -0.132571 1.193108  0.432208 -0.155862 -0.861350
6  1.312560 0.000002 0.000002  0.000000 -0.000000 -1.191994
7  0.729363 0.000005 -0.000002  0.000000 -0.000000 -1.063394
8  3.942301 0.050324 0.431044  0.232421 0.000609 -0.853331
9  1.539100 0.000000 -0.000000  0.000000 -0.000000 -0.973399
10  1.196321 0.000004 0.000001  0.000000 0.000000 -1.451289
11  3.883659 -0.050323 -0.431042  0.066987 0.050243 -0.694792
12  1.719578 0.000004 0.000001  -0.000000 -0.000000 -1.251039
13  1.209183 0.000005 0.000000  -0.000000 -0.000003 -1.141145
14  3.859837 -0.148936 -1.331281  -0.248855 0.263129 -0.072121
15  1.719423 0.000000 0.000001  -0.000000 0.000000 -0.676756
16  1.099669 0.000003 -0.000001  0.000000 -0.000000 -1.021287
17  0.806019 -0.359837 -1.318334  1.349685 0.343493 -0.771450
18  1.789782 0.000002 -0.000001  0.000000 0.000000 0.397500
19  1.206995 0.000001 0.000003  0.000000 -0.000000 0.989033
20  4.124998 -1.447266 -3.542968  -1.564198 -0.011689 -1.581440
21  3.820734 -1.409995 -0.589409  -1.564198 -0.011689 -1.581440
22  0.222815 -3.739063 1.509298  0.024887 2.851473 -1.494016
23  3.048727 6.125616 1.106841  1.596061 0.018247 -0.808184
24  3.527214 5.063572 0.216258  1.596061 0.018246 -0.808184
25  3.352951 5.114332 -0.401208  1.596061 0.018247 -0.808184
26  2.909482 4.772884 -1.012057  1.596061 0.018247 -0.808184
27  1.772478 4.476574 2.356867  1.596061 0.018247 -0.808184
28  0.000006 3.336140 -8.647861  -1.570799 -1.391898 -1.570795
29  2.033350 1.000764 1.937663  1.227517 0.585911 1.190966
30  2.026190 1.001859 1.937675  1.227511 0.585916 1.190961
31  0.000001 -0.000001 0.000004  1.583265 0.000007 1.570794
32  0.000000 6.028147 -0.000001  -0.816416 -0.381993 -0.555180
33  0.000000 0.000010 -0.000006  -0.000002 0.000003 1.570791
34  0.000014 6.028143 -0.000013  -0.530511 0.742557 0.637995
35  0.000001 11.692571 -0.000001  0.000001 -0.000005 -0.959185
36  -0.000001 0.000001 -0.000003  0.000005 0.000000 1.570801
37  11.692586 0.000054 0.000042  0.000005 -0.000003 -0.959177
38  -0.000000 11.481683 -0.000002  0.787858 0.572796 0.976346
39  0.000000 0.000001 0.000000  0.000000 -0.000000 1.570789
40  11.481688 -0.000052 0.000009  0.740660 -0.638138 0.477609
41  0.137968 3.859855 1.332473  -1.465403 -1.619583 0.860540
42  0.000001 -0.000000 0.000001  1.933714 0.000004 1.570794
43  3.859858 -0.137941 1.332474  0.357781 -0.048518 -0.604742
44  0.000000 1.719428 0.000001  -0.421651 0.202310 0.066145
45  0.000001 0.000000 0.000001  1.743430 0.000000 1.570798
46  1.719431 0.000006 -0.000006  0.000196 -0.009233 -0.439363
47  0.000002 1.099659 0.000000  1.023392 1.908412 1.051425
48  0.000002 -0.000000 0.000001  -0.000002 0.000003 1.570799
49  1.099661 0.000002 0.000004  -0.000121 0.002599 -0.291676
50  0.046789 3.883688 0.431450  -0.027416 -1.505147 -0.644528
51  -0.000000 -0.000000 -0.000001  1.590082 0.000009 1.570787
52  3.883688 -0.046762 0.431449  0.084911 0.001790 -0.671884
53  -0.000000 1.719574 -0.000002  -0.720459 0.051523 -0.006475
54  -0.000001 -0.000001 0.000000  1.538381 -0.000002 1.570794
55  1.719577 0.000014 -0.000016  -0.003920 0.016404 -0.719987
56  0.000000 1.209181 -0.000001  -1.502706 1.085314 -1.507545
57  -0.000000 0.000000 -0.000000  -0.000000 -0.000000 1.570805
58  1.209182 -0.000007 -0.000002  -0.000818 0.002971 -0.484424
59  -0.046751 3.942328 -0.431437  -0.326182 -1.473434 -0.660248
60  -0.000002 -0.000001 0.000000  1.317660 0.000000 1.570797
61  3.942329 0.046778 -0.431438  -0.160877 0.031154 -0.984982
62  -0.000004 1.539090 0.000001  -0.255768 -0.026494 -0.056799
63  -0.000001 -0.000000 -0.000003  1.337310 -0.000004 1.570800
64  1.539094 0.000003 0.000001  -0.000028 0.003689 -0.263300
65  0.000001 1.196321 -0.000004  -1.014063 1.117587 -1.060625
66  0.000001 -0.000000 0.000001  0.000000 -0.000001 1.570800
67  1.196324 -0.000005 0.000005  -0.000000 0.000003 -0.392068
68  0.142426 3.859703 -1.191967  -0.667473 -1.423629 -0.300647
69  -0.000001 -0.000002 -0.000000  0.976757 -0.000005 1.570807
70  3.859706 -0.142400 -1.191970  -0.478134 0.090904 -0.962832
71  -0.000002 1.312565 0.000001  -0.362133 -0.138964 -0.204711
72  -0.000001 0.000000 0.000004  1.078169 0.000003 1.570794
73  1.312569 -0.000010 0.000009  0.000005 -0.000978 -0.437919
74  -0.000001 0.729364 0.000003  -0.405720 1.030106 -0.464470
75  0.000000 -0.000001 -0.000000  -0.000001 -0.000001 1.570795
76  0.729367 0.000001 -0.000000  0.000001 -0.000005 -0.232664
77  0.348928 0.806046 1.321259  -1.143191 -2.276979 0.650487
78  -0.000000 -0.000001 -0.000001  0.437032 0.000002 1.570791
79  0.806047 -0.348924 1.321261  -1.473730 -0.631691 -0.380639
80  0.000001 1.789785 -0.000001  0.105721 0.066339 0.344101
81  0.000001 -0.000001 -0.000000  0.347279 0.000000 1.570806
82  1.789790 0.000008 -0.000002  0.002671 0.043822 0.349980
83  0.000000 1.206997 -0.000000  0.184310 0.296022 0.568656
84  0.000001 0.000000 -0.000000  0.000001 -0.000001 1.570797
85  1.207001 -0.000011 0.000004  -0.000003 0.000001 0.541090
86  0.000000 0.000000 1.000000  1.570796 -0.000000 0.000000
time 6
0  0.000005 3.335938 -8.640624  -1.570780 -1.391896 -1.570809
1  2.033356 1.000772 -1.937610  1.473119 1.855075 -0.198639
2  6.028144 -0.000001 0.000000  1.461742 0.677137 -1.147307
3  11.692554 0.000001 0.000003  -0.000000 0.000000 -1.121081
4  11.481697 0.000004 0.000002  -1.288831 0.007417 0.200699
5  3.859675 -0.132570 1.193108  0.432208 -0.155862 -0.861350
6  1.312560 -0.000000 0.000001  0.000000 -0.000000 -1.191994
7  0.729361 0.000007 -0.000003  0.000000 -0.000000 -1.063394
8  3.942301 0.050325 0.431044  0.232421 0.000609 -0.853331
9  1.539100 -0.000003 -0.000002  -0.000000 -0.000000 -0.973399
10  1.196321 0.000007 0.000002  0.000000 -0.000000 -1.451289
11  3.883657 -0.050323 -0.431040  0.066987 0.050243 -0.694792
12  1.719575 0.000003 -0.000000  -0.000000 -0.000000 -1.251039
13  1.209186 0.000000 0.000001  -0.000000 -0.000003 -1.141145
14  3.859833 -0.148935 -1.331279  -0.248855 0.263129 -0.072121
15  1.719420 0.000001 -0.000004  -0.000000 0.000000 -0.676756
16  1.099670 0.000004 0.000000  0.000000 -0.000000 -1.021287
17  0.806019 -0.359837 -1.318334  1.349685 0.343493 -0.771450
18  1.789782 0.000001 -0.000000  0.000000 0.000000 0.397500
19  1.206995 0.000003 0.000004  0.000000 -0.000000 0.989033
20  4.124998 -1.447265 -3.542967  -1.564198 -0.011689 -1.581440
21  3.820735 -1.409994 -0.589408  -1.564198 -0.011689 -1.581440
22  0.222813 -3.739060 1.509296  0.024887 2.851473 -1.494016
23  3.048727 6.125613 1.106843  1.596061 0.018247 -0.808184
24  3.527214 5.063570 0.216261  1.596061 0.018246 -0.808184
25  3.352950 5.114330 -0.401206  1.596061 0.018247 -0.808184
26  2.909482 4.772883 -1.012055  1.596061 0.018247 -0.808184
27  1.772478 4.476573 2.356869  1.596061 0.018247 -0.808184
28  0.000006 3.336140 -8.647861  -1.570799 -1.391898 -1.570795
29  2.033350 1.000764 1.937663  1.227517 0.585911 1.190966
30  2.026190 1.001859 1.937675  1.227511 0.585916 1.190961
31  0.000001 -0.000001 0.000004  1.583265 0.000007 1.570794
32  0.000000 6.028147 -0.000001  -1.061195 -0.229667 -0.384413
33  -0.000001 0.000010 -0.000005  -0.000002 0.000003 1.570792
34  0.000011 6.028142 -0.000013  -0.446917 1.016020 0.799523
35  -0.000001 11.692572 0.000000  0.000001 -0.000005 -1.104493
36  0.000001 0.000001 -0.000001  0.000005 0.000000 1.570801
37  11.692591 0.000055 0.000041  0.000005 -0.000004 -1.104484
38  0.000000 11.481683 0.000001  0.978232 0.601876 1.090514
39  -0.000000 -0.000001 0.000003  0.000000 -0.000000 1.570789
40  11.481697 -0.000056 0.000008  0.888134 -0.752878 0.391297
41  0.137968 3.859856 1.332472  -1.465630 -1.619864 0.861391
42  -0.000001 0.000003 0.000001  1.933714 0.000004 1.570794
43  3.859867 -0.137941 1.332472  0.357762 -0.048798 -0.604120
44  -0.000002 1.719431 0.000002  -0.422565 0.202310 0.066145
45  0.000002 0.000000 -0.000000  1.743430 0.000000 1.570798
46  1.719432 0.000005 -0.000006  0.000205 -0.009389 -0.440263
47  0.000001 1.099662 -0.000001  1.024603 1.909112 1.052711
48  -0.000003 0.000000 0.000000  -0.000002 0.000003 1.570799
49  1.099664 0.000001 0.000003  -0.000124 0.002599 -0.292494
50  0.046788 3.883687 0.431453  -0.024730 -1.505141 -0.646994
51  -0.000002 -0.000001 -0.000001  1.590082 0.000009 1.570787
52  3.883695 -0.046761 0.431448  0.084921 0.001614 -0.671674
53  -0.000000 1.719574 -0.000002  -0.720881 0.051523 -0.006475
54  -0.000000 0.000000 -0.000001  1.538381 -0.000002 1.570794
55  1.719580 0.000015 -0.000016  -0.003927 0.016416 -0.720409
56  -0.000001 1.209182 -0.000001  -1.502756 1.084925 -1.507601
57  0.000003 -0.000000 0.000001  -0.000000 -0.000000 1.570805
58  1.209182 -0.000002 -0.000000  -0.000819 0.002970 -0.484813
59  -0.046751 3.942324 -0.431436  -0.324808 -1.473438 -0.661083
60  0.000001 0.000001 -0.000000  1.317660 0.000000 1.570797
61  3.942333 0.046779 -0.431438  -0.160838 0.031026 -0.984451
62  0.000003 1.539089 -0.000003  -0.256508 -0.026494 -0.056799
63  0.000001 -0.000001 0.000000  1.337310 -0.000004 1.570800
64  1.539090 -0.000005 0.000003  -0.000031 0.003860 -0.264021
65  0.000001 1.196322 -0.000001  -1.015135 1.116746 -1.061817
66  0.000003 0.000001 -0.000001  0.000000 -0.000001 1.570800
67  1.196324 -0.000005 0.000004  -0.000000 0.000003 -0.393059
68  0.142425 3.859702 -1.191967  -0.666866 -1.423607 -0.300674
69  0.000001 -0.000000 -0.000000  0.976757 -0.000005 1.570807
70  3.859710 -0.142399 -1.191972  -0.478062 0.090847 -0.962252
71  -0.000004 1.312567 0.000002  -0.362975 -0.138964 -0.204711
72  -0.000002 0.000001 0.000000  1.078169 0.000003 1.570794
73  1.312569 -0.000008 0.000005  0.000006 -0.000579 -0.438661
74  -0.000002 0.729364 0.000000  -0.407145 1.029738 -0.466130
75  0.000000 0.000001 -0.000001  -0.000001 -0.000001 1.570795
76  0.729364 0.000003 -0.000001  0.000001 -0.000004 -0.233596
77  0.348928 0.806044 1.321260  -1.143456 -2.277563 0.650730
78  0.000001 -0.000000 0.000001  0.437032 0.000002 1.570791
79  0.806049 -0.348924 1.321260  -1.473919 -0.632278 -0.380487
80  0.000001 1.789782 0.000001  0.105749 0.066296 0.344512
81  0.000001 -0.000001 -0.000001  0.347279 0.000000 1.570806
82  1.789791 0.000012 -0.000002  0.002688 0.043961 0.350368
83  0.000000 1.207001 -0.000000  0.184509 0.295901 0.569337
84  -0.000000 0.000000 0.000000  0.000001 -0.000001 1.570797
85  1.207007 -0.000008 0.000004  -0.000004 0.000001 0.541752
86  0.000000 0.000000 1.000000  1.570796 -0.000000 0.000000
time 7
0  0.000005 3.335938 -8.640624  -1.570780 -1.391896 -1.570809
1  2.033356 1.000772 -1.937610  1.473119 1.855075 -0.198639
2  6.028144 -0.000001 0.000000  1.429932 0.367041 -1.166254
3  11.692555 0.000003 0.000002  -0.000000 -0.000000 -1.260709
4  11.481699 -0.000000 0.000002  -1.288831 0.007417 0.200699
5  3.859678 -0.132571 1.193106  0.432208 -0.155862 -0.861350
6  1.312558 -0.000003 -0.000000  0.000000 -0.000000 -1.191994
7  0.729363 0.000001 -0.000005  0.000000 -0.000000 -1.063394
8  3.942303 0.050324 0.431043  0.232421 0.000609 -0.853331
9  1.539101 0.000002 0.000002  0.000000 -0.000000 -0.973399
10  1.196322 0.000007 0.000001  -0.000000 0.000000 -1.451289
11  3.883661 -0.050323 -0.431042  0.066987 0.050243 -0.694792
12  1.719578 0.000007 -0.000001  -0.000000 -0.000000 -1.251039
13  1.209183 0.000001 -0.000000  -0.000000 -0.000003 -1.141145
14  3.859835 -0.148936 -1.331283  -0.248855 0.263129 -0.072121
15  1.719420 -0.000000 -0.000001  -0.000000 0.000000 -0.676756
16  1.099671 0.000004 0.000004  -0.000000 -0.000000 -1.021287
17  0.806020 -0.359838 -1.318338  1.349685 0.343493 -0.771450
18  1.789782 0.000001 -0.000000  0.000000 0.000000 0.397500
19  1.206998 0.000003 0.000003  0.000000 -0.000000 0.989033
20  4.124999 -1.447266 -3.542970  -1.564198 -0.011689 -1.581440
21  3.820735 -1.409994 -0.589409  -1.564198 -0.011689 -1.581440
22  0.222812 -3.739061 1.509296  0.024887 2.851473 -1.494016
23  3.048726 6.125608 1.106837  1.596061 0.018247 -0.808184
24  3.527214 5.063568 0.216258  1.596061 0.018246 -0.808184
25  3.352950 5.114325 -0.401210  1.596061 0.018247 -0.808184
26  2.909482 4.772882 -1.012058  1.596061 0.018247 -0.808184
27  1.772479 4.476567 2.356867  1.596061 0.018247 -0.808184
28  0.000006 3.336140 -8.647861  -1.570799 -1.391898 -1.570795
29  2.033350 1.000764 1.937663  1.227517 0.585911 1.190966
30  2.026190 1.001859 1.937675  1.227511 0.585916 1.190961
31  0.000001 -0.000001 0.000004  1.583265 0.000007 1.570794
32  0.000000 6.028147 -0.000001  -1.291556 -0.053742 -0.265275
33  -0.000000 0.000009 -0.000005  -0.000002 0.000003 1.570791
34  0.000009 6.028141 -0.000013  -0.192762 1.286568 1.120305
35  0.000000 11.692570 0.000000  0.000002 -0.000004 -1.142842
36  -0.000001 0.000001 -0.000003  0.000005 0.000000 1.570801
37  11.692596 0.000055 0.000040  0.000004 -0.000007 -1.142833
38  -0.000001 11.481682 -0.000001  1.098573 0.614652 1.120797
39  -0.000000 0.000000 0.000002  0.000000 -0.000000 1.570789
40  11.481703 -0.000054 0.000008  0.998355 -0.814760 0.274863
41  0.137968 3.859856 1.332478  -1.465442 -1.619781 0.861154
42  0.000001 0.000000 0.000001  1.933714 0.000004 1.570794
43  3.859866 -0.137941 1.332477  0.357760 -0.048715 -0.604168
44  -0.000000 1.719428 0.000000  -0.422382 0.202310 0.066145
45  0.000003 0.000003 0.000001  1.743430 0.000000 1.570798
46  1.719433 0.000004 -0.000008  0.000203 -0.009358 -0.440083
47  0.000000 1.099665 0.000000  1.024381 1.908984 1.052478
48  -0.000000 0.000000 0.000001  -0.000002 0.000003 1.570799
49  1.099661 -0.000002 0.000001  -0.000123 0.002599 -0.292345
50  0.046789 3.883688 0.431454  -0.025717 -1.505141 -0.645940
51  -0.000004 -0.000001 0.000000  1.590082 0.000009 1.570787
52  3.883696 -0.046762 0.431453  0.084918 0.001678 -0.671601
53  -0.000005 1.719572 -0.000001  -0.720841 0.051523 -0.006475
54  0.000001 -0.000000 0.000001  1.538381 -0.000002 1.570794
55  1.719579 0.000016 -0.000017  -0.003926 0.016415 -0.720370
56  0.000001 1.209183 0.000004  -1.502753 1.084944 -1.507599
57  0.000000 -0.000001 0.000001  -0.000000 -0.000000 1.570805
58  1.209180 0.000001 -0.000002  -0.000818 0.002970 -0.484794
59  -0.046750 3.942325 -0.431430  -0.325336 -1.473422 -0.660506
60  0.000000 -0.000002 0.000001  1.317660 0.000000 1.570797
61  3.942332 0.046778 -0.431433  -0.160840 0.031080 -0.984395
62  0.000001 1.539089 -0.000000  -0.256451 -0.026494 -0.056799
63  -0.000002 0.000001 -0.000002  1.337310 -0.000004 1.570800
64  1.539093 -0.000001 0.000004  -0.000031 0.003847 -0.263966
65  -0.000002 1.196325 -0.000002  -1.015083 1.116788 -1.061758
66  -0.000002 -0.000001 0.000000  0.000000 -0.000001 1.570800
67  1.196322 -0.000004 0.000002  -0.000000 0.000003 -0.393011
68  0.142427 3.859703 -1.191964  -0.667165 -1.423562 -0.300290
69  -0.000004 -0.000001 0.000000  0.976757 -0.000005 1.570807
70  3.859711 -0.142400 -1.191968  -0.478054 0.090909 -0.962160
71  0.000000 1.312564 -0.000003  -0.362929 -0.138963 -0.204711
72  -0.000001 -0.000001 -0.000002  1.078169 0.000003 1.570794
73  1.312568 -0.000018 0.000008  0.000007 -0.000600 -0.438622
74  -0.000002 0.729361 -0.000001  -0.407100 1.029751 -0.466077
75  -0.000004 0.000000 0.000000  -0.000001 -0.000001 1.570794
76  0.729362 0.000003 -0.000004  0.000001 -0.000004 -0.233567
77  0.348928 0.806042 1.321262  -1.143310 -2.277384 0.650659
78  -0.000000 -0.000000 -0.000000  0.437032 0.000002 1.570791
79  0.806047 -0.348924 1.321261  -1.473907 -0.632076 -0.380455
80  -0.000002 1.789783 -0.000001  0.105740 0.066311 0.344375
81  -0.000000 -0.000000 0.000001  0.347279 0.000000 1.570806
82  1.789792 0.000012 -0.000003  0.002683 0.043915 0.350239
83  -0.000005 1.207000 0.000002  0.184447 0.295939 0.569122
84  0.000000 0.000001 0.000000  0.000001 -0.000001 1.570797
85  1.207007 -0.000006 0.000005  -0.000004 0.000001 0.541542
86  0.000000 0.000000 1.000000  1.570796 -0.000000 0.000000
time 8
0  0.000005 3.335938 -8.640624  -1.570780 -1.391896 -1.570809
1  2.033356 1.000772 -1.937610  1.473119 1.855075 -0.198639
2  6.028144 -0.000001 0.000000  1.395031 0.148502 -1.175570
3  11.692558 0.000003 0.000004  -0.000000 -0.000000 -1.236460
4  11.481699 0.000002 0.000001  -1.288831 0.007417 0.200699
5  3.859678 -0.132571 1.193107  0.432208 -0.155862 -0.861350
6  1.312559 0.000003 0.000002  0.000000 0.000000 -1.191994
7  0.729361 0.000006 -0.000004  0.000000 -0.000000 -1.063394
8  3.942302 0.050325 0.431045  0.232421 0.000609 -0.853331
9  1.539102 0.000001 0.000004  0.000000 -0.000000 -0.973399
10  1.196322 0.000008 0.000001  0.000000 -0.000000 -1.451289
11  3.883657 -0.050323 -0.431045  0.066987 0.050243 -0.694792
12  1.719577 0.000002 -0.000000  -0.000000 -0.000000 -1.251039
13  1.209185 0.000001 -0.000000  -0.000000 -0.000003 -1.141145
14  3.859834 -0.148936 -1.331284  -0.248855 0.263129 -0.072121
15  1.719421 -0.000000 -0.000001  -0.000000 0.000000 -0.676756
16  1.099671 0.000003 0.000000  -0.000000 -0.000000 -1.021287
17  0.806020 -0.359837 -1.318337  1.349685 0.343493 -0.771450
18  1.789781 -0.000002 -0.000001  0.000000 0.000000 0.397500
19  1.206994 0.000001 0.000003  0.000000 -0.000000 0.989033
20  4.124998 -1.447266 -3.542970  -1.564198 -0.011689 -1.581440
21  3.820734 -1.409994 -0.589410  -1.564198 -0.011689 -1.581440
22  0.222819 -3.739062 1.509296  0.024887 2.851473 -1.494016
23  3.048727 6.125612 1.106841  1.596061 0.018247 -0.808184
24  3.527214 5.063570 0.216257  1.596061 0.018246 -0.808184
25  3.352950 5.114329 -0.401207  1.596061 0.018247 -0.808184
26  2.909482 4.772883 -1.012056  1.596061 0.018247 -0.808184
27  1.772479 4.476573 2.356868  1.596061 0.018247 -0.808184
28  0.000006 3.336140 -8.647861  -1.570799 -1.391898 -1.570795
29  2.033350 1.000764 1.937663  1.227517 0.585911 1.190966
30  2.026190 1.001859 1.937675  1.227511 0.585916 1.190961
31  0.000001 -0.000001 0.000004  1.583265 0.000007 1.570794
32  0.000000 6.028147 -0.000001  -1.460420 0.056817 -0.193490
33  -0.000000 0.000010 -0.000006  -0.000002 0.000003 1.570792
34  0.000008 6.028139 -0.000012  0.476630 1.446713 1.850798
35  0.000000 11.692570 0.000000  0.000001 -0.000005 -1.012556
36  0.000002 0.000001 -0.000002  0.000005 0.000000 1.570801
37  11.692600 0.000055 0.000042  0.000003 -0.000004 -1.012547
38  0.000001 11.481682 0.000000  1.084331 0.620113 1.019423
39  -0.000000 0.000001 0.000000  0.000000 -0.000000 1.570789
40  11.481707 -0.000052 0.000008  0.991123 -0.802939 0.186965
41  0.137968 3.859859 1.332474  -1.465427 -1.619697 0.860896
42  0.000003 -0.000003 0.000000  1.933714 0.000004 1.570794
43  3.859867 -0.137941 1.332477  0.357767 -0.048631 -0.604401
44  0.000000 1.719427 0.000000  -0.422055 0.202310 0.066145
45  -0.000003 0.000000 -0.000003  1.743430 0.000000 1.570798
46  1.719435 0.000005 -0.000009  0.000201 -0.009301 -0.439761
47  -0.000002 1.099660 -0.000003  1.023945 1.908731 1.052014
48  -0.000000 -0.000000 -0.000001  -0.000002 0.000003 1.570799
49  1.099661 0.000001 0.000004  -0.000122 0.002600 -0.292049
50  0.046788 3.883687 0.431449  -0.026496 -1.505143 -0.645260
51  -0.000002 0.000002 -0.000001  1.590082 0.000009 1.570787
52  3.883695 -0.046762 0.431451  0.084914 0.001729 -0.671692
53  -0.000005 1.719577 -0.000001  -0.720681 0.051523 -0.006475
54  -0.000002 -0.000000 0.000001  1.538381 -0.000002 1.570794
55  1.719581 0.000015 -0.000020  -0.003923 0.016412 -0.720210
56  -0.000002 1.209181 0.000000  -1.502734 1.085093 -1.507578
57  -0.000000 -0.000000 -0.000002  -0.000000 -0.000000 1.570805
58  1.209178 -0.000003 -0.000003  -0.000817 0.002971 -0.484645
59  -0.046750 3.942326 -0.431438  -0.325706 -1.473425 -0.660359
60  -0.000001 0.000000 -0.000001  1.317660 0.000000 1.570797
61  3.942333 0.046778 -0.431435  -0.160856 0.031113 -0.984612
62  -0.000002 1.539095 0.000000  -0.256162 -0.026494 -0.056799
63  -0.000001 0.000001 0.000001  1.337310 -0.000004 1.570800
64  1.539096 0.000003 0.000000  -0.000029 0.003781 -0.263684
65  0.000000 1.196322 -0.000000  -1.014663 1.117119 -1.061290
66  0.000000 0.000000 0.000002  0.000000 -0.000001 1.570800
67  1.196321 -0.000007 0.000005  0.000000 0.000003 -0.392623
68  0.142426 3.859706 -1.191971  -0.667302 -1.423584 -0.300396
69  0.000001 -0.000001 0.000000  0.976757 -0.000005 1.570807
70  3.859714 -0.142400 -1.191970  -0.478085 0.090912 -0.962402
71  -0.000001 1.312567 0.000001  -0.362591 -0.138963 -0.204711
72  0.000000 0.000000 0.000001  1.078169 0.000003 1.570794
73  1.312571 -0.000014 0.000009  0.000007 -0.000760 -0.438325
74  -0.000001 0.729365 0.000003  -0.406529 1.029898 -0.465412
75  0.000000 0.000000 -0.000001  -0.000001 -0.000001 1.570795
76  0.729365 0.000002 -0.000002  0.000001 -0.000004 -0.233194
77  0.348928 0.806045 1.321257  -1.143238 -2.277197 0.650581
78  -0.000001 -0.000000 0.000000  0.437031 0.000002 1.570791
79  0.806048 -0.348924 1.321262  -1.473838 -0.631891 -0.380519
80  0.000002 1.789783 -0.000002  0.105731 0.066324 0.344244
81  0.000002 0.000000 0.000002  0.347279 0.000000 1.570806
82  1.789794 0.000008 -0.000003  0.002677 0.043870 0.350115
83  0.000001 1.207001 0.000001  0.184383 0.295978 0.568903
84  0.000000 0.000000 -0.000000  0.000001 -0.000001 1.570797
85  1.207009 -0.000010 0.000003  -0.000004 0.000000 0.541329
86  0.000000 0.000000 1.000000  1.570796 -0.000000 0.000000
end
