version 1
nodes
0 "ValveBiped.Bip01_Spine4" -1
1 "ValveBiped.Bip01_R_Clavicle" 0
2 "ValveBiped.Bip01_R_UpperArm" 1
3 "ValveBiped.Bip01_R_Forearm" 2
4 "ValveBiped.Bip01_R_Hand" 3
5 "ValveBiped.Bip01_R_Finger4" 4
6 "ValveBiped.Bip01_R_Finger41" 5
7 "ValveBiped.Bip01_R_Finger42" 6
8 "ValveBiped.Bip01_R_Finger3" 4
9 "ValveBiped.Bip01_R_Finger31" 8
10 "ValveBiped.Bip01_R_Finger32" 9
11 "ValveBiped.Bip01_R_Finger2" 4
12 "ValveBiped.Bip01_R_Finger21" 11
13 "ValveBiped.Bip01_R_Finger22" 12
14 "ValveBiped.Bip01_R_Finger1" 4
15 "ValveBiped.Bip01_R_Finger11" 14
16 "ValveBiped.Bip01_R_Finger12" 15
17 "ValveBiped.Bip01_R_Finger0" 4
18 "ValveBiped.Bip01_R_Finger01" 17
19 "ValveBiped.Bip01_R_Finger02" 18
20 "ValveBiped.square" 4
21 "ValveBiped.clip" 4
22 "ik_target.Bip01_L_Hand" 4
23 "ik_target.Bip01_L_Finger1_tip" 22
24 "ik_target.Bip01_L_Finger2_tip" 22
25 "ik_target.Bip01_L_Finger3_tip" 22
26 "ik_target.Bip01_L_Finger4_tip" 22
27 "ik_target.Bip01_L_Finger0_tip" 22
28 "ik_chain.Bip01_Spine4" -1
29 "ik_chain.Bip01_L_Clavicle" 28
30 "ValveBiped.Bip01_L_Clavicle" 0
31 "ik_parent.Bip01_L_Clavicle" 29
32 "ik_chain.Bip01_L_UpperArm" 29
33 "ik_parent.Bip01_L_UpperArm" 32
34 "ValveBiped.Bip01_L_UpperArm" 30
35 "ik_chain.Bip01_L_Forearm" 32
36 "ik_parent.Bip01_L_Forearm" 35
37 "ValveBiped.Bip01_L_Forearm" 34
38 "ik_chain.Bip01_L_Hand" 35
39 "ik_parent.Bip01_L_Hand" 38
40 "ValveBiped.Bip01_L_Hand" 37
41 "ik_chain.Bip01_L_Finger1" 38
42 "ik_parent.Bip01_L_Finger1" 41
43 "ValveBiped.Bip01_L_Finger1" 40
44 "ik_chain.Bip01_L_Finger11" 41
45 "ik_parent.Bip01_L_Finger11" 44
46 "ValveBiped.Bip01_L_Finger11" 43
47 "ik_chain.Bip01_L_Finger12" 44
48 "ik_parent.Bip01_L_Finger12" 47
49 "ValveBiped.Bip01_L_Finger12" 46
50 "ik_chain.Bip01_L_Finger2" 38
51 "ik_parent.Bip01_L_Finger2" 50
52 "ValveBiped.Bip01_L_Finger2" 40
53 "ik_chain.Bip01_L_Finger21" 50
54 "ik_parent.Bip01_L_Finger21" 53
55 "ValveBiped.Bip01_L_Finger21" 52
56 "ik_chain.Bip01_L_Finger22" 53
57 "ik_parent.Bip01_L_Finger22" 56
58 "ValveBiped.Bip01_L_Finger22" 55
59 "ik_chain.Bip01_L_Finger3" 38
60 "ik_parent.Bip01_L_Finger3" 59
61 "ValveBiped.Bip01_L_Finger3" 40
62 "ik_chain.Bip01_L_Finger31" 59
63 "ik_parent.Bip01_L_Finger31" 62
64 "ValveBiped.Bip01_L_Finger31" 61
65 "ik_chain.Bip01_L_Finger32" 62
66 "ik_parent.Bip01_L_Finger32" 65
67 "ValveBiped.Bip01_L_Finger32" 64
68 "ik_chain.Bip01_L_Finger4" 38
69 "ik_parent.Bip01_L_Finger4" 68
70 "ValveBiped.Bip01_L_Finger4" 40
71 "ik_chain.Bip01_L_Finger41" 68
72 "ik_parent.Bip01_L_Finger41" 71
73 "ValveBiped.Bip01_L_Finger41" 70
74 "ik_chain.Bip01_L_Finger42" 71
75 "ik_parent.Bip01_L_Finger42" 74
76 "ValveBiped.Bip01_L_Finger42" 73
77 "ik_chain.Bip01_L_Finger0" 38
78 "ik_parent.Bip01_L_Finger0" 77
79 "ValveBiped.Bip01_L_Finger0" 40
80 "ik_chain.Bip01_L_Finger01" 77
81 "ik_parent.Bip01_L_Finger01" 80
82 "ValveBiped.Bip01_L_Finger01" 79
83 "ik_chain.Bip01_L_Finger02" 80
84 "ik_parent.Bip01_L_Finger02" 83
85 "ValveBiped.Bip01_L_Finger02" 82
86 "ik_enable" -1
end
skeleton
time 0
0  0.000005 3.335938 -8.640624  -1.570780 -1.391896 -1.570809
1  2.033356 1.000772 -1.937610  1.473119 1.855075 -0.198639
2  6.028144 -0.000001 0.000000  1.592917 1.460905 -0.988903
3  11.692556 0.000001 0.000004  0.000000 -0.000000 -0.262183
4  11.481691 -0.000003 0.000001  -1.335318 -0.112210 0.464555
5  3.859678 -0.132569 1.193110  0.432208 -0.155862 -0.861350
6  1.312556 -0.000004 0.000001  -0.000000 0.000000 -1.191994
7  0.729364 0.000004 -0.000004  0.000000 -0.000000 -1.063394
8  3.942307 0.050328 0.431045  0.232421 0.000609 -0.853331
9  1.539098 -0.000004 0.000001  -0.000000 0.000000 -0.973401
10  1.196321 0.000005 -0.000001  0.000000 0.000000 -1.451261
11  3.883661 -0.050323 -0.431043  0.066987 0.050243 -0.694792
12  1.719581 0.000002 -0.000001  -0.000000 -0.000000 -1.251039
13  1.209185 -0.000000 -0.000000  0.000000 -0.000003 -1.141145
14  3.859839 -0.148935 -1.331283  -0.248855 0.263129 -0.072121
15  1.719418 0.000003 -0.000001  -0.000000 -0.000000 -0.676756
16  1.099667 0.000004 0.000003  -0.000000 -0.000004 -1.021265
17  0.806022 -0.359836 -1.318335  1.349685 0.343493 -0.771450
18  1.789780 0.000001 -0.000002  -0.000000 -0.000000 0.397500
19  1.206997 0.000001 0.000005  0.000000 0.000000 0.989033
20  6.104528 -1.468678 -3.530284  -1.564198 -0.011689 -1.581440
21  3.820738 -1.409993 -0.589408  -1.564198 -0.011689 -1.581440
22  0.222826 -3.739061 1.509294  0.024887 2.851473 -1.494016
23  3.048727 6.125610 1.106842  1.596061 0.018247 -0.808184
24  3.527215 5.063566 0.216260  1.596061 0.018246 -0.808184
25  3.352950 5.114326 -0.401206  1.596061 0.018247 -0.808184
26  2.909482 4.772880 -1.012055  1.596061 0.018247 -0.808184
27  1.772479 4.476569 2.356869  1.596061 0.018247 -0.808184
28  0.000006 3.336140 -8.647861  -1.570799 -1.391898 -1.570795
29  2.033350 1.000764 1.937663  1.227517 0.585911 1.190966
30  2.026190 1.001859 1.937675  1.227511 0.585916 1.190961
31  0.000001 -0.000001 0.000004  1.583265 0.000007 1.570794
32  0.000000 6.028147 -0.000001  -0.563463 -0.486058 -0.779065
33  -0.000001 0.000009 -0.000005  -0.000002 0.000003 1.570792
34  0.000016 6.028143 -0.000012  -0.558563 0.491848 0.504735
35  0.000000 11.692570 0.000001  -0.000000 -0.000005 -0.744159
36  -0.000000 0.000001 -0.000003  0.000005 0.000000 1.570801
37  11.692580 0.000052 0.000039  0.000005 -0.000002 -0.744150
38  0.000000 11.481682 -0.000002  0.211307 0.426694 0.934084
39  -0.000000 -0.000001 -0.000000  0.000000 -0.000000 1.570789
40  11.481682 -0.000053 0.000007  0.435229 -0.192106 0.845530
41  0.137968 3.859853 1.332475  -1.465474 -1.619554 0.860443
42  0.000001 -0.000002 0.000000  1.933714 0.000004 1.570794
43  3.859856 -0.137942 1.332477  0.357786 -0.048489 -0.604907
44  -0.000000 1.719427 0.000000  -0.421431 0.202310 0.066145
45  0.000001 -0.000000 -0.000001  1.743430 0.000000 1.570798
46  1.719432 0.000006 -0.000007  0.000195 -0.009195 -0.439146
47  -0.000001 1.099664 -0.000002  1.023094 1.908241 1.051111
48  0.000001 -0.000000 0.000000  -0.000002 0.000003 1.570799
49  1.099666 0.000005 -0.000000  -0.000121 0.002600 -0.291474
50  0.046789 3.883684 0.431452  -0.027449 -1.505147 -0.644563
51  -0.000000 0.000000 -0.000002  1.590082 0.000009 1.570787
52  3.883687 -0.046762 0.431453  0.084910 0.001792 -0.671955
53  -0.000000 1.719576 -0.000003  -0.720345 0.051523 -0.006475
54  -0.000001 0.000001 -0.000001  1.538381 -0.000002 1.570794
55  1.719575 0.000013 -0.000016  -0.003919 0.016401 -0.719872
56  -0.000002 1.209185 -0.000001  -1.502692 1.085421 -1.507529
57  -0.000004 0.000001 0.000000  -0.000000 -0.000000 1.570805
58  1.209187 -0.000003 -0.000003  -0.000817 0.002971 -0.484316
59  -0.046751 3.942324 -0.431435  -0.326136 -1.473444 -0.660456
60  0.000000 0.000001 0.000001  1.317660 0.000000 1.570797
61  3.942324 0.046778 -0.431434  -0.160886 0.031147 -0.985148
62  0.000000 1.539090 0.000000  -0.255555 -0.026494 -0.056799
63  -0.000001 0.000000 -0.000000  1.337310 -0.000004 1.570800
64  1.539095 -0.000002 0.000003  -0.000027 0.003640 -0.263093
65  -0.000000 1.196324 -0.000002  -1.013754 1.117828 -1.060282
66  0.000003 -0.000000 0.000001  0.000000 -0.000001 1.570800
67  1.196326 -0.000007 0.000004  0.000001 0.000003 -0.391783
68  0.142427 3.859702 -1.191966  -0.667367 -1.423667 -0.300938
69  0.000001 0.000001 -0.000000  0.976757 -0.000005 1.570807
70  3.859703 -0.142401 -1.191966  -0.478156 0.090867 -0.963023
71  0.000000 1.312567 -0.000002  -0.361873 -0.138963 -0.204711
72  -0.000001 0.000000 -0.000002  1.078169 0.000003 1.570794
73  1.312571 -0.000014 0.000008  0.000005 -0.001100 -0.437690
74  -0.000001 0.729363 -0.000003  -0.405292 1.030216 -0.463970
75  -0.000000 0.000001 0.000001  -0.000001 -0.000001 1.570795
76  0.729366 0.000002 0.000001  0.000001 -0.000004 -0.232384
77  0.348927 0.806041 1.321260  -1.143153 -2.276856 0.650434
78  0.000000 -0.000000 0.000000  0.437032 0.000002 1.570791
79  0.806044 -0.348924 1.321263  -1.473678 -0.631572 -0.380693
80  0.000001 1.789782 0.000000  0.105714 0.066351 0.343994
81  0.000000 0.000002 -0.000000  0.347279 0.000000 1.570806
82  1.789787 0.000011 -0.000002  0.002667 0.043786 0.349879
83  -0.000001 1.206998 -0.000001  0.184261 0.296052 0.568487
84  0.000001 -0.000001 0.000000  0.000001 -0.000001 1.570797
85  1.207000 -0.000010 0.000004  -0.000004 0.000001 0.540926
86  0.000000 0.000000 1.000000  1.570796 -0.000000 0.000000
time 1
0  0.000005 3.335938 -8.640624  -1.570780 -1.391896 -1.570809
1  2.033356 1.000772 -1.937610  1.473119 1.855075 -0.198639
2  6.028144 -0.000001 0.000000  1.598830 1.461466 -0.982515
3  11.692554 0.000002 0.000003  0.000000 -0.000000 -0.265453
4  11.481694 -0.000001 0.000003  -1.334265 -0.109681 0.462707
5  3.859678 -0.132570 1.193112  0.432208 -0.155862 -0.861350
6  1.312554 -0.000005 0.000004  -0.000000 0.000000 -1.191994
7  0.729365 0.000001 -0.000003  -0.000000 0.000000 -1.063394
8  3.942308 0.050327 0.431046  0.232421 0.000609 -0.853331
9  1.539099 -0.000004 0.000001  -0.000000 0.000000 -0.973379
10  1.196321 0.000008 0.000001  0.000000 0.000000 -1.451261
11  3.883662 -0.050324 -0.431041  0.066987 0.050243 -0.694792
12  1.719578 0.000001 0.000000  -0.000000 -0.000000 -1.251039
13  1.209185 0.000001 -0.000001  0.000000 -0.000003 -1.141145
14  3.859840 -0.148936 -1.331281  -0.248855 0.263129 -0.072121
15  1.719418 0.000002 -0.000002  -0.000000 -0.000000 -0.676756
16  1.099669 0.000000 0.000004  -0.000000 -0.000004 -1.021265
17  0.806022 -0.359837 -1.318334  1.349685 0.343493 -0.771450
18  1.789780 0.000002 -0.000003  0.000000 -0.000000 0.397500
19  1.207000 0.000002 0.000003  0.000000 0.000000 0.989033
20  6.104527 -1.468679 -3.530283  -1.564198 -0.011689 -1.581440
21  3.820740 -1.409994 -0.589409  -1.564198 -0.011689 -1.581440
22  0.222811 -3.739061 1.509302  0.024887 2.851473 -1.494016
23  3.048726 6.125612 1.106841  1.596061 0.018247 -0.808184
24  3.527213 5.063569 0.216258  1.596061 0.018246 -0.808184
25  3.352950 5.114327 -0.401207  1.596061 0.018247 -0.808184
26  2.909481 4.772882 -1.012057  1.596061 0.018247 -0.808184
27  1.772478 4.476569 2.356867  1.596061 0.018247 -0.808184
28  0.000006 3.336140 -8.647861  -1.570799 -1.391898 -1.570795
29  2.033350 1.000764 1.937663  1.227517 0.585911 1.190966
30  2.026190 1.001859 1.937675  1.227511 0.585916 1.190961
31  0.000001 -0.000001 0.000004  1.583265 0.000007 1.570794
32  0.000000 6.028147 -0.000001  -0.560246 -0.486604 -0.781648
33  -0.000001 0.000010 -0.000004  -0.000002 0.000003 1.570792
34  0.000016 6.028143 -0.000012  -0.558246 0.488965 0.503804
35  0.000000 11.692572 0.000001  -0.000000 -0.000005 -0.742999
36  -0.000000 0.000000 -0.000002  0.000005 0.000000 1.570801
37  11.692582 0.000051 0.000039  0.000005 -0.000001 -0.742990
38  -0.000000 11.481681 0.000000  0.212851 0.427595 0.930447
39  -0.000000 0.000002 0.000000  0.000000 -0.000000 1.570789
40  11.481682 -0.000054 0.000007  0.436271 -0.193425 0.841054
41  0.137968 3.859860 1.332473  -1.465472 -1.619551 0.860438
42  -0.000000 0.000002 -0.000001  1.933714 0.000004 1.570794
43  3.859861 -0.137941 1.332473  0.357786 -0.048487 -0.604912
44  0.000001 1.719430 -0.000001  -0.421422 0.202310 0.066145
45  0.000001 -0.000003 -0.000000  1.743430 0.000000 1.570798
46  1.719429 0.000006 -0.000005  0.000194 -0.009193 -0.439137
47  0.000003 1.099658 -0.000001  1.023082 1.908234 1.051098
48  -0.000001 0.000000 0.000001  -0.000002 0.000003 1.570799
49  1.099662 -0.000000 0.000005  -0.000121 0.002600 -0.291466
50  0.046789 3.883690 0.431449  -0.027465 -1.505147 -0.644548
51  -0.000000 -0.000000 0.000001  1.590082 0.000009 1.570787
52  3.883688 -0.046762 0.431447  0.084910 0.001793 -0.671956
53  -0.000001 1.719576 0.000002  -0.720344 0.051524 -0.006475
54  -0.000002 -0.000000 0.000001  1.538381 -0.000002 1.570794
55  1.719581 0.000015 -0.000016  -0.003918 0.016401 -0.719871
56  -0.000001 1.209180 0.000001  -1.502692 1.085422 -1.507529
57  -0.000000 -0.000000 -0.000000  -0.000000 -0.000000 1.570805
58  1.209183 -0.000000 -0.000004  -0.000817 0.002971 -0.484315
59  -0.046750 3.942328 -0.431437  -0.326144 -1.473444 -0.660453
60  0.000000 0.000002 0.000002  1.317660 0.000000 1.570797
61  3.942328 0.046778 -0.431439  -0.160886 0.031148 -0.985152
62  0.000002 1.539090 -0.000000  -0.255549 -0.026494 -0.056799
63  -0.000002 0.000000 -0.000003  1.337310 -0.000004 1.570800
64  1.539093 -0.000002 0.000003  -0.000028 0.003638 -0.263086
65  -0.000002 1.196324 -0.000006  -1.013745 1.117835 -1.060271
66  0.000002 0.000000 -0.000001  0.000000 -0.000001 1.570800
67  1.196328 -0.000008 0.000002  0.000001 0.000003 -0.391773
68  0.142427 3.859705 -1.191969  -0.667372 -1.423667 -0.300934
69  -0.000000 -0.000001 0.000002  0.976757 -0.000005 1.570807
70  3.859704 -0.142400 -1.191971  -0.478157 0.090868 -0.963025
71  0.000001 1.312564 -0.000001  -0.361870 -0.138964 -0.204711
72  -0.000000 -0.000000 0.000000  1.078169 0.000003 1.570794
73  1.312570 -0.000014 0.000009  0.000005 -0.001102 -0.437687
74  -0.000001 0.729361 -0.000004  -0.405284 1.030218 -0.463962
75  -0.000001 -0.000000 -0.000001  -0.000001 -0.000001 1.570795
76  0.729362 -0.000001 -0.000004  0.000001 -0.000004 -0.232379
77  0.348928 0.806045 1.321259  -1.143152 -2.276853 0.650434
78  -0.000001 0.000001 0.000001  0.437032 0.000002 1.570791
79  0.806043 -0.348924 1.321259  -1.473678 -0.631568 -0.380693
80  -0.000002 1.789789 0.000003  0.105714 0.066351 0.343992
81  -0.000000 0.000001 0.000001  0.347279 0.000000 1.570806
82  1.789791 0.000012 0.000000  0.002667 0.043785 0.349877
83  -0.000001 1.207001 0.000003  0.184260 0.296053 0.568484
84  -0.000002 -0.000000 -0.000000  0.000001 -0.000001 1.570797
85  1.207006 -0.000010 0.000007  -0.000004 0.000001 0.540922
86  0.000000 0.000000 1.000000  1.570796 -0.000000 0.000000
time 2
0  0.000005 3.335938 -8.640624  -1.570780 -1.391896 -1.570809
1  2.033356 1.000772 -1.937610  1.473119 1.855075 -0.198639
2  6.028144 -0.000001 0.000000  1.620977 1.462167 -0.958655
3  11.692554 0.000001 0.000003  0.000000 -0.000000 -0.280567
4  11.481691 -0.000002 0.000002  -1.330779 -0.100715 0.454456
5  3.859678 -0.132571 1.193112  0.432208 -0.155862 -0.861350
6  1.312554 -0.000009 0.000002  -0.000000 0.000000 -1.191994
7  0.729363 0.000005 -0.000005  -0.000000 -0.000000 -1.063394
8  3.942307 0.050327 0.431046  0.232421 0.000609 -0.853331
9  1.539098 -0.000003 0.000000  -0.000000 0.000000 -0.973401
10  1.196321 0.000008 -0.000001  0.000000 0.000000 -1.451261
11  3.883661 -0.050324 -0.431043  0.066987 0.050243 -0.694792
12  1.719576 0.000003 0.000000  -0.000000 -0.000000 -1.251039
13  1.209187 0.000000 0.000001  0.000000 -0.000003 -1.141145
14  3.859839 -0.148937 -1.331282  -0.248855 0.263129 -0.072121
15  1.719416 0.000003 -0.000002  -0.000000 -0.000000 -0.676756
16  1.099667 0.000005 0.000004  -0.000000 -0.000004 -1.021288
17  0.806019 -0.359838 -1.318333  1.349685 0.343493 -0.771450
18  1.789781 0.000001 -0.000007  0.000000 0.000000 0.397500
19  1.206999 0.000002 0.000002  0.000000 0.000000 0.989033
20  6.104525 -1.468680 -3.530283  -1.564198 -0.011689 -1.581440
21  3.820740 -1.409995 -0.589408  -1.564198 -0.011689 -1.581440
22  0.222825 -3.739061 1.509295  0.024887 2.851473 -1.494016
23  3.048727 6.125611 1.106840  1.596061 0.018247 -0.808184
24  3.527214 5.063570 0.216260  1.596061 0.018246 -0.808184
25  3.352950 5.114330 -0.401206  1.596061 0.018247 -0.808184
26  2.909481 4.772882 -1.012056  1.596061 0.018247 -0.808184
27  1.772479 4.476571 2.356868  1.596061 0.018247 -0.808184
28  0.000006 3.336140 -8.647861  -1.570799 -1.391898 -1.570795
29  2.033350 1.000764 1.937663  1.227517 0.585911 1.190966
30  2.026190 1.001859 1.937675  1.227511 0.585916 1.190961
31  0.000001 -0.000001 0.000004  1.583265 0.000007 1.570794
32  0.000000 6.028147 -0.000001  -0.548564 -0.488351 -0.790843
33  -0.000000 0.000010 -0.000005  -0.000002 0.000003 1.570792
34  0.000016 6.028143 -0.000012  -0.556894 0.478566 0.500710
35  0.000000 11.692572 0.000001  -0.000000 -0.000005 -0.739836
36  -0.000001 0.000001 -0.000001  0.000005 0.000000 1.570801
37  11.692579 0.000050 0.000039  0.000005 -0.000001 -0.739827
38  -0.000000 11.481680 -0.000001  0.221868 0.430518 0.917945
39  -0.000001 0.000001 0.000000  0.000000 -0.000000 1.570789
40  11.481684 -0.000055 0.000007  0.440005 -0.201323 0.824068
41  0.137967 3.859862 1.332473  -1.465468 -1.619545 0.860417
42  0.000001 -0.000003 -0.000000  1.933714 0.000004 1.570794
43  3.859862 -0.137940 1.332473  0.357787 -0.048481 -0.604931
44  0.000001 1.719428 0.000000  -0.421394 0.202310 0.066145
45  0.000000 -0.000000 -0.000002  1.743430 0.000000 1.570799
46  1.719432 0.000006 -0.000005  0.000194 -0.009188 -0.439109
47  0.000001 1.099663 0.000003  1.023045 1.908213 1.051059
48  0.000000 0.000000 -0.000000  -0.000002 0.000003 1.570799
49  1.099664 0.000006 0.000002  -0.000121 0.002600 -0.291441
50  0.046788 3.883688 0.431450  -0.027503 -1.505147 -0.644518
51  -0.000001 -0.000001 -0.000001  1.590082 0.000009 1.570787
52  3.883687 -0.046762 0.431448  0.084909 0.001795 -0.671963
53  -0.000000 1.719574 -0.000001  -0.720330 0.051523 -0.006475
54  -0.000000 0.000000 0.000001  1.538381 -0.000002 1.570794
55  1.719580 0.000015 -0.000016  -0.003918 0.016400 -0.719857
56  -0.000002 1.209184 0.000003  -1.502691 1.085435 -1.507527
57  -0.000000 -0.000001 0.000000  -0.000000 -0.000000 1.570805
58  1.209187 0.000000 -0.000005  -0.000817 0.002971 -0.484302
59  -0.046751 3.942326 -0.431436  -0.326160 -1.473444 -0.660454
60  -0.000000 0.000000 0.000000  1.317660 0.000000 1.570797
61  3.942325 0.046779 -0.431438  -0.160887 0.031149 -0.985170
62  -0.000001 1.539088 -0.000002  -0.255526 -0.026494 -0.056799
63  -0.000000 0.000002 0.000000  1.337310 -0.000004 1.570800
64  1.539091 -0.000006 0.000001  -0.000027 0.003633 -0.263064
65  -0.000000 1.196323 0.000001  -1.013710 1.117862 -1.060233
66  0.000000 -0.000001 0.000002  0.000000 -0.000001 1.570800
67  1.196322 -0.000005 0.000005  0.000000 0.000003 -0.391742
68  0.142426 3.859707 -1.191967  -0.667369 -1.423671 -0.300961
69  0.000002 0.000000 0.000000  0.976757 -0.000005 1.570807
70  3.859706 -0.142400 -1.191970  -0.478159 0.090865 -0.963046
71  0.000000 1.312567 0.000003  -0.361842 -0.138963 -0.204711
72  0.000000 0.000000 0.000001  1.078169 0.000003 1.570794
73  1.312572 -0.000009 0.000008  0.000005 -0.001115 -0.437662
74  0.000000 0.729364 0.000002  -0.405241 1.030230 -0.463909
75  -0.000001 -0.000001 -0.000001  -0.000001 -0.000001 1.570795
76  0.729365 -0.000000 0.000000  0.000001 -0.000004 -0.232350
77  0.348927 0.806043 1.321259  -1.143142 -2.276832 0.650425
78  -0.000000 -0.000001 0.000001  0.437032 0.000002 1.570791
79  0.806044 -0.348923 1.321259  -1.473671 -0.631548 -0.380699
80  -0.000000 1.789783 0.000001  0.105713 0.066353 0.343975
81  0.000000 -0.000001 0.000000  0.347279 0.000000 1.570806
82  1.789788 0.000011 -0.000001  0.002666 0.043779 0.349860
83  0.000001 1.207002 -0.000000  0.184252 0.296058 0.568457
84  0.000001 -0.000000 -0.000000  0.000001 -0.000001 1.570797
85  1.207005 -0.000012 0.000005  -0.000004 0.000001 0.540895
86  0.000000 0.000000 1.000000  1.570796 -0.000000 0.000000
time 3
0  0.000005 3.335938 -8.640624  -1.570780 -1.391896 -1.570809
1  2.033356 1.000772 -1.937610  1.473119 1.855075 -0.198639
2  6.028144 -0.000001 0.000000  1.670609 1.465111 -0.905322
3  11.692555 0.000002 0.000004  0.000000 -0.000000 -0.308763
4  11.481693 -0.000003 0.000003  -1.322372 -0.083113 0.432785
5  3.859676 -0.132570 1.193111  0.432208 -0.155862 -0.861350
6  1.312554 -0.000005 0.000000  -0.000000 0.000000 -1.191994
7  0.729365 0.000005 -0.000002  -0.000000 -0.000000 -1.063394
8  3.942306 0.050327 0.431045  0.232421 0.000609 -0.853331
9  1.539098 -0.000002 0.000000  -0.000000 0.000000 -0.973379
10  1.196321 0.000008 -0.000001  0.000000 0.000000 -1.451292
11  3.883659 -0.050323 -0.431042  0.066987 0.050243 -0.694792
12  1.719579 0.000001 0.000000  -0.000000 -0.000000 -1.251039
13  1.209184 0.000000 -0.000001  0.000000 -0.000003 -1.141145
14  3.859838 -0.148936 -1.331282  -0.248855 0.263129 -0.072121
15  1.719420 0.000002 -0.000003  -0.000000 -0.000000 -0.676756
16  1.099666 0.000003 0.000002  -0.000000 -0.000004 -1.021265
17  0.806019 -0.359837 -1.318334  1.349685 0.343493 -0.771450
18  1.789782 0.000001 -0.000004  0.000000 -0.000000 0.397500
19  1.206996 0.000001 0.000004  0.000000 0.000000 0.989033
20  6.104524 -1.468679 -3.530283  -1.564198 -0.011689 -1.581440
21  3.820738 -1.409994 -0.589409  -1.564198 -0.011689 -1.581440
22  0.222815 -3.739060 1.509297  0.024887 2.851473 -1.494016
23  3.048727 6.125611 1.106841  1.596061 0.018247 -0.808184
24  3.527214 5.063567 0.216260  1.596061 0.018246 -0.808184
25  3.352950 5.114329 -0.401206  1.596061 0.018247 -0.808184
26  2.909482 4.772882 -1.012055  1.596061 0.018247 -0.808184
27  1.772479 4.476571 2.356870  1.596061 0.018247 -0.808184
28  0.000006 3.336140 -8.647861  -1.570799 -1.391898 -1.570795
29  2.033350 1.000764 1.937663  1.227517 0.585911 1.190966
30  2.026190 1.001859 1.937675  1.227511 0.585916 1.190961
31  0.000001 -0.000001 0.000004  1.583265 0.000007 1.570794
32  0.000000 6.028147 -0.000001  -0.523523 -0.491634 -0.810449
33  0.000000 0.000010 -0.000006  -0.000002 0.000003 1.570792
34  0.000016 6.028143 -0.000012  -0.553771 0.456404 0.494297
35  0.000001 11.692571 -0.000001  -0.000000 -0.000005 -0.733349
36  -0.000001 0.000000 -0.000003  0.000005 0.000000 1.570801
37  11.692580 0.000055 0.000040  0.000005 -0.000002 -0.733340
38  -0.000002 11.481682 0.000000  0.243770 0.437817 0.893663
39  -0.000000 -0.000003 0.000000  0.000000 -0.000000 1.570789
40  11.481684 -0.000055 0.000008  0.449449 -0.220370 0.788596
41  0.137968 3.859857 1.332473  -1.465468 -1.619533 0.860380
42  0.000000 0.000000 -0.000001  1.933714 0.000004 1.570794
43  3.859864 -0.137941 1.332472  0.357789 -0.048468 -0.604962
44  -0.000000 1.719429 -0.000001  -0.421347 0.202310 0.066145
45  0.000001 -0.000001 -0.000002  1.743430 0.000000 1.570798
46  1.719432 0.000005 -0.000006  0.000194 -0.009180 -0.439062
47  0.000001 1.099660 -0.000001  1.022982 1.908176 1.050992
48  0.000001 -0.000000 -0.000001  -0.000002 0.000003 1.570799
49  1.099662 0.000002 0.000003  -0.000121 0.002600 -0.291398
50  0.046788 3.883684 0.431449  -0.027578 -1.505148 -0.644453
51  -0.000001 0.000001 -0.000000  1.590082 0.000009 1.570787
52  3.883691 -0.046762 0.431448  0.084909 0.001800 -0.671972
53  -0.000000 1.719577 0.000002  -0.720309 0.051523 -0.006475
54  -0.000001 -0.000001 -0.000001  1.538381 -0.000002 1.570794
55  1.719582 0.000017 -0.000016  -0.003918 0.016400 -0.719837
56  0.000000 1.209178 -0.000001  -1.502688 1.085454 -1.507524
57  -0.000002 -0.000000 0.000001  -0.000000 -0.000000 1.570805
58  1.209181 -0.000002 -0.000003  -0.000817 0.002971 -0.484283
59  -0.046751 3.942325 -0.431437  -0.326205 -1.473445 -0.660437
60  0.000001 -0.000000 0.000000  1.317660 0.000000 1.570797
61  3.942331 0.046778 -0.431440  -0.160889 0.031153 -0.985196
62  0.000001 1.539091 0.000000  -0.255490 -0.026494 -0.056799
63  0.000001 -0.000002 -0.000001  1.337310 -0.000004 1.570800
64  1.539095 -0.000003 0.000003  -0.000027 0.003625 -0.263029
65  0.000002 1.196319 -0.000000  -1.013658 1.117903 -1.060175
66  0.000003 0.000000 -0.000001  0.000000 -0.000001 1.570800
67  1.196324 -0.000005 0.000005  0.000001 0.000003 -0.391694
68  0.142426 3.859706 -1.191968  -0.667375 -1.423675 -0.300983
69  -0.000001 -0.000001 -0.000000  0.976757 -0.000005 1.570807
70  3.859713 -0.142400 -1.191971  -0.478162 0.090864 -0.963076
71  -0.000000 1.312566 -0.000003  -0.361799 -0.138964 -0.204711
72  0.000000 -0.000001 0.000002  1.078169 0.000003 1.570794
73  1.312573 -0.000016 0.000005  0.000005 -0.001136 -0.437624
74  0.000000 0.729364 0.000003  -0.405167 1.030249 -0.463824
75  -0.000001 -0.000001 0.000002  -0.000001 -0.000001 1.570795
76  0.729368 0.000008 0.000001  0.000001 -0.000004 -0.232302
77  0.348927 0.806043 1.321259  -1.143126 -2.276799 0.650411
78  -0.000001 -0.000000 -0.000001  0.437032 0.000002 1.570791
79  0.806051 -0.348923 1.321259  -1.473660 -0.631513 -0.380707
80  -0.000001 1.789780 -0.000004  0.105711 0.066356 0.343946
81  0.000001 0.000001 0.000000  0.347279 0.000000 1.570806
82  1.789785 0.000007 -0.000005  0.002665 0.043769 0.349833
83  0.000001 1.207001 0.000002  0.184239 0.296066 0.568412
84  0.000001 0.000002 0.000000  0.000001 -0.000001 1.570797
85  1.207006 -0.000011 0.000006  -0.000003 0.000001 0.540852
86  0.000000 0.000000 1.000000  1.570796 -0.000000 0.000000
time 4
0  0.000005 3.335938 -8.640624  -1.570780 -1.391896 -1.570809
1  2.033356 1.000772 -1.937610  1.473119 1.855075 -0.198639
2  6.028144 -0.000001 0.000000  1.775578 1.482544 -0.794832
3  11.692556 0.000002 0.000003  0.000000 -0.000000 -0.319666
4  11.481692 -0.000002 0.000003  -1.309498 -0.056997 0.387747
5  3.859676 -0.132570 1.193112  0.432208 -0.155862 -0.861350
6  1.312555 -0.000003 0.000000  -0.000000 0.000000 -1.191994
7  0.729362 0.000005 -0.000003  -0.000000 0.000000 -1.063394
8  3.942306 0.050327 0.431045  0.232421 0.000609 -0.853331
9  1.539099 -0.000000 -0.000001  -0.000000 0.000000 -0.973379
10  1.196320 0.000009 0.000001  0.000000 0.000000 -1.451261
11  3.883658 -0.050324 -0.431042  0.066987 0.050243 -0.694792
12  1.719578 0.000003 0.000001  -0.000000 -0.000000 -1.251039
13  1.209184 0.000002 0.000000  0.000000 -0.000003 -1.141145
14  3.859838 -0.148936 -1.331283  -0.248855 0.263129 -0.072121
15  1.719417 0.000001 -0.000003  -0.000000 -0.000000 -0.676756
16  1.099666 0.000004 0.000002  -0.000000 -0.000004 -1.021265
17  0.806021 -0.359837 -1.318335  1.349685 0.343493 -0.771450
18  1.789784 0.000000 -0.000003  -0.000000 -0.000000 0.397500
19  1.206998 0.000001 0.000003  0.000000 0.000000 0.989033
20  6.104523 -1.468679 -3.530284  -1.564198 -0.011689 -1.581440
21  3.820737 -1.409994 -0.589409  -1.564198 -0.011689 -1.581440
22  0.222812 -3.739061 1.509298  0.024887 2.851473 -1.494016
23  3.048727 6.125610 1.106841  1.596061 0.018247 -0.808184
24  3.527214 5.063567 0.216259  1.596061 0.018246 -0.808184
25  3.352950 5.114327 -0.401206  1.596061 0.018247 -0.808184
26  2.909482 4.772881 -1.012057  1.596061 0.018247 -0.808184
27  1.772479 4.476569 2.356868  1.596061 0.018247 -0.808184
28  0.000006 3.336140 -8.647861  -1.570799 -1.391898 -1.570795
29  2.033350 1.000764 1.937663  1.227517 0.585911 1.190966
30  2.026190 1.001859 1.937675  1.227511 0.585916 1.190961
31  0.000001 -0.000001 0.000004  1.583265 0.000007 1.570794
32  0.000000 6.028147 -0.000001  -0.483616 -0.497496 -0.844136
33  -0.000001 0.000009 -0.000005  -0.000002 0.000003 1.570792
34  0.000017 6.028143 -0.000011  -0.550217 0.420939 0.481064
35  -0.000001 11.692571 -0.000000  -0.000000 -0.000005 -0.712488
36  0.000002 0.000001 -0.000001  0.000005 0.000000 1.570801
37  11.692579 0.000052 0.000041  0.000005 -0.000001 -0.712479
38  0.000002 11.481681 0.000000  0.272587 0.450190 0.852371
39  -0.000000 0.000001 -0.000000  0.000000 -0.000000 1.570789
40  11.481682 -0.000057 0.000009  0.465099 -0.244833 0.731316
41  0.137968 3.859859 1.332473  -1.465455 -1.619514 0.860321
42  -0.000000 0.000003 -0.000000  1.933714 0.000004 1.570794
43  3.859862 -0.137942 1.332475  0.357790 -0.048449 -0.605008
44  0.000000 1.719432 -0.000001  -0.421271 0.202310 0.066145
45  0.000001 0.000000 -0.000001  1.743430 0.000000 1.570798
46  1.719432 0.000005 -0.000005  0.000193 -0.009167 -0.438988
47  0.000001 1.099660 -0.000001  1.022882 1.908119 1.050887
48  0.000000 0.000000 -0.000001  -0.000002 0.000003 1.570799
49  1.099664 0.000001 0.000005  -0.000120 0.002599 -0.291331
50  0.046789 3.883686 0.431451  -0.027707 -1.505148 -0.644333
51  0.000000 0.000003 -0.000002  1.590082 0.000009 1.570787
52  3.883687 -0.046762 0.431453  0.084909 0.001809 -0.671981
53  0.000001 1.719578 0.000000  -0.720279 0.051523 -0.006475
54  -0.000000 -0.000000 -0.000001  1.538381 -0.000002 1.570794
55  1.719577 0.000017 -0.000015  -0.003918 0.016399 -0.719806
56  -0.000000 1.209183 -0.000001  -1.502685 1.085481 -1.507521
57  0.000001 -0.000000 0.000000  -0.000000 -0.000000 1.570805
58  1.209187 0.000002 -0.000004  -0.000817 0.002971 -0.484256
59  -0.046750 3.942328 -0.431435  -0.326261 -1.473445 -0.660412
60  0.000001 -0.000000 0.000003  1.317660 0.000000 1.570797
61  3.942328 0.046778 -0.431435  -0.160891 0.031158 -0.985226
62  0.000003 1.539086 0.000001  -0.255439 -0.026494 -0.056799
63  0.000000 -0.000000 -0.000001  1.337310 -0.000004 1.570800
64  1.539092 -0.000003 0.000004  -0.000027 0.003613 -0.262980
65  0.000000 1.196322 0.000003  -1.013588 1.117958 -1.060097
66  -0.000002 -0.000001 -0.000001  0.000000 -0.000001 1.570800
67  1.196324 -0.000004 0.000004  0.000000 0.000004 -0.391629
68  0.142426 3.859708 -1.191968  -0.667391 -1.423678 -0.301001
69  0.000002 -0.000003 0.000000  0.976757 -0.000005 1.570807
70  3.859709 -0.142400 -1.191968  -0.478167 0.090864 -0.963111
71  0.000003 1.312564 -0.000003  -0.361738 -0.138963 -0.204711
72  -0.000001 0.000000 -0.000000  1.078169 0.000003 1.570794
73  1.312572 -0.000015 0.000007  0.000005 -0.001164 -0.437571
74  -0.000003 0.729364 0.000001  -0.405067 1.030274 -0.463709
75  0.000003 0.000001 -0.000000  -0.000001 -0.000001 1.570795
76  0.729368 0.000003 -0.000001  0.000002 -0.000004 -0.232237
77  0.348927 0.806044 1.321259  -1.143097 -2.276744 0.650388
78  -0.000001 -0.000001 -0.000001  0.437032 0.000002 1.570790
79  0.806047 -0.348924 1.321262  -1.473646 -0.631457 -0.380715
80  -0.000002 1.789783 -0.000001  0.105708 0.066361 0.343899
81  0.000000 0.000003 0.000000  0.347279 0.000000 1.570806
82  1.789788 0.000013 -0.000002  0.002663 0.043754 0.349789
83  0.000000 1.207005 0.000003  0.184218 0.296079 0.568339
84  -0.000000 0.000001 0.000001  0.000001 -0.000001 1.570797
85  1.207007 -0.000009 0.000006  -0.000003 0.000001 0.540781
86  0.000000 0.000000 1.000000  1.570796 -0.000000 0.000000
time 5
0  0.000005 3.335938 -8.640624  -1.570780 -1.391896 -1.570809
1  2.033356 1.000772 -1.937610  1.473119 1.855075 -0.198639
2  6.028144 -0.000001 0.000000  1.916477 1.499323 -0.649109
3  11.692555 0.000001 0.000004  0.000000 -0.000000 -0.320267
4  11.481692 -0.000002 0.000003  -1.298077 -0.029154 0.322513
5  3.859674 -0.132570 1.193113  0.432208 -0.155862 -0.861350
6  1.312556 -0.000006 0.000001  -0.000000 0.000000 -1.191994
7  0.729365 0.000001 -0.000004  0.000000 -0.000000 -1.063394
8  3.942305 0.050327 0.431045  0.232421 0.000609 -0.853331
9  1.539098 -0.000004 0.000000  -0.000000 0.000000 -0.973379
10  1.196320 0.000005 0.000000  0.000000 0.000000 -1.451261
11  3.883659 -0.050323 -0.431042  0.066987 0.050243 -0.694792
12  1.719579 -0.000001 0.000001  -0.000000 -0.000000 -1.251039
13  1.209185 0.000001 0.000000  0.000000 -0.000003 -1.141145
14  3.859837 -0.148936 -1.331282  -0.248855 0.263129 -0.072121
15  1.719419 0.000003 -0.000002  -0.000000 -0.000000 -0.676756
16  1.099666 0.000004 0.000002  -0.000000 -0.000004 -1.021265
17  0.806017 -0.359836 -1.318334  1.349685 0.343493 -0.771450
18  1.789783 0.000001 -0.000005  0.000000 0.000000 0.397500
19  1.206998 0.000000 0.000004  0.000000 0.000000 0.989033
20  6.104523 -1.468679 -3.530284  -1.564198 -0.011689 -1.581440
21  3.820735 -1.409994 -0.589408  -1.564198 -0.011689 -1.581440
22  0.222822 -3.739061 1.509296  0.024887 2.851473 -1.494016
23  3.048727 6.125609 1.106842  1.596061 0.018247 -0.808184
24  3.527214 5.063566 0.216260  1.596061 0.018246 -0.808184
25  3.352951 5.114326 -0.401206  1.596061 0.018247 -0.808184
26  2.909482 4.772882 -1.012055  1.596061 0.018247 -0.808184
27  1.772479 4.476569 2.356869  1.596061 0.018247 -0.808184
28  0.000006 3.336140 -8.647861  -1.570799 -1.391898 -1.570795
29  2.033350 1.000764 1.937663  1.227517 0.585911 1.190966
30  2.026190 1.001859 1.937675  1.227511 0.585916 1.190961
31  0.000001 -0.000001 0.000004  1.583265 0.000007 1.570794
32  0.000000 6.028147 -0.000001  -0.446520 -0.503224 -0.878071
33  0.000001 0.000009 -0.000006  -0.000002 0.000003 1.570792
34  0.000017 6.028143 -0.000011  -0.547987 0.387954 0.465804
35  0.000002 11.692572 0.000000  -0.000000 -0.000005 -0.683090
36  0.000000 0.000001 -0.000003  0.000005 0.000000 1.570801
37  11.692579 0.000053 0.000041  0.000005 -0.000002 -0.683080
38  0.000001 11.481681 -0.000001  0.316011 0.464642 0.805504
39  -0.000001 0.000002 -0.000000  0.000000 -0.000000 1.570789
40  11.481682 -0.000058 0.000008  0.485291 -0.281529 0.660015
41  0.137967 3.859857 1.332473  -1.465467 -1.619493 0.860257
42  -0.000000 -0.000001 -0.000000  1.933714 0.000004 1.570794
43  3.859856 -0.137941 1.332474  0.357793 -0.048429 -0.605090
44  -0.000001 1.719428 0.000001  -0.421158 0.202310 0.066145
45  -0.000000 -0.000001 -0.000001  1.743430 0.000000 1.570798
46  1.719434 0.000006 -0.000007  0.000192 -0.009148 -0.438877
47  0.000001 1.099659 0.000000  1.022730 1.908032 1.050725
48  0.000002 -0.000001 0.000000  -0.000002 0.000003 1.570799
49  1.099663 -0.000001 0.000003  -0.000120 0.002599 -0.291229
50  0.046788 3.883685 0.431449  -0.027761 -1.505148 -0.644311
51  0.000001 0.000001 -0.000001  1.590082 0.000009 1.570787
52  3.883684 -0.046762 0.431450  0.084908 0.001812 -0.672015
53  0.000001 1.719575 -0.000002  -0.720225 0.051523 -0.006475
54  0.000001 -0.000000 0.000002  1.538381 -0.000002 1.570794
55  1.719579 0.000014 -0.000014  -0.003917 0.016397 -0.719753
56  0.000001 1.209180 -0.000003  -1.502678 1.085531 -1.507513
57  0.000000 -0.000000 0.000000  -0.000000 -0.000000 1.570805
58  1.209184 -0.000006 -0.000003  -0.000817 0.002971 -0.484206
59  -0.046751 3.942326 -0.431435  -0.326279 -1.473449 -0.660470
60  0.000000 -0.000001 -0.000001  1.317660 0.000000 1.570797
61  3.942324 0.046778 -0.431435  -0.160895 0.031159 -0.985306
62  -0.000001 1.539090 -0.000003  -0.255337 -0.026494 -0.056799
63  -0.000001 -0.000002 0.000003  1.337310 -0.000004 1.570800
64  1.539095 0.000001 0.000003  -0.000027 0.003590 -0.262881
65  -0.000000 1.196321 0.000001  -1.013439 1.118074 -1.059931
66  0.000004 -0.000000 -0.000000  0.000000 -0.000001 1.570800
67  1.196327 -0.000007 0.000003  0.000000 0.000003 -0.391492
68  0.142426 3.859705 -1.191966  -0.667359 -1.423695 -0.301122
69  0.000000 -0.000001 0.000002  0.976757 -0.000005 1.570807
70  3.859704 -0.142401 -1.191968  -0.478177 0.090850 -0.963202
71  0.000001 1.312566 0.000001  -0.361619 -0.138963 -0.204711
72  0.000002 -0.000001 -0.000000  1.078169 0.000003 1.570794
73  1.312571 -0.000014 0.000010  0.000005 -0.001221 -0.437466
74  0.000001 0.729364 -0.000001  -0.404869 1.030325 -0.463478
75  0.000001 -0.000000 -0.000001  -0.000001 -0.000001 1.570795
76  0.729367 0.000004 0.000001  0.000002 -0.000005 -0.232107
77  0.348927 0.806044 1.321260  -1.143069 -2.276674 0.650359
78  0.000001 0.000002 0.000001  0.437032 0.000002 1.570791
79  0.806045 -0.348924 1.321262  -1.473620 -0.631387 -0.380740
80  -0.000001 1.789786 0.000003  0.105704 0.066368 0.343838
81  0.000001 0.000000 0.000000  0.347279 0.000000 1.570806
82  1.789788 0.000014 -0.000000  0.002660 0.043733 0.349732
83  0.000001 1.207001 -0.000001  0.184190 0.296096 0.568244
84  0.000001 0.000002 0.000001  0.000001 -0.000001 1.570797
85  1.207004 -0.000011 0.000004  -0.000004 0.000001 0.540688
86  0.000000 0.000000 1.000000  1.570796 -0.000000 0.000000
time 6
0  0.000005 3.335938 -8.640624  -1.570780 -1.391896 -1.570809
1  2.033356 1.000772 -1.937610  1.473119 1.855075 -0.198639
2  6.028144 -0.000001 0.000000  2.037949 1.508950 -0.524801
3  11.692554 0.000001 0.000003  0.000000 -0.000000 -0.318199
4  11.481690 -0.000002 0.000003  -1.291613 -0.007727 0.258796
5  3.859679 -0.132569 1.193111  0.432208 -0.155862 -0.861350
6  1.312554 -0.000004 0.000001  -0.000000 0.000000 -1.191994
7  0.729363 0.000003 -0.000002  -0.000000 -0.000000 -1.063394
8  3.942309 0.050328 0.431044  0.232421 0.000609 -0.853331
9  1.539099 -0.000005 0.000000  -0.000000 0.000000 -0.973379
10  1.196322 0.000004 -0.000001  0.000000 0.000000 -1.451261
11  3.883662 -0.050323 -0.431042  0.066987 0.050243 -0.694792
12  1.719579 0.000002 0.000001  -0.000000 -0.000000 -1.251039
13  1.209185 -0.000003 -0.000001  0.000000 -0.000003 -1.141173
14  3.859840 -0.148935 -1.331282  -0.248855 0.263129 -0.072121
15  1.719417 0.000002 -0.000003  -0.000000 -0.000000 -0.676756
16  1.099669 0.000001 0.000002  -0.000000 -0.000004 -1.021265
17  0.806021 -0.359836 -1.318334  1.349685 0.343493 -0.771450
18  1.789783 0.000000 -0.000001  0.000000 -0.000000 0.397500
19  1.207000 0.000001 0.000006  0.000000 -0.000000 0.989033
20  6.104526 -1.468679 -3.530284  -1.564198 -0.011689 -1.581440
21  3.820740 -1.409993 -0.589409  -1.564198 -0.011689 -1.581440
22  0.222824 -3.739062 1.509297  0.024887 2.851473 -1.494016
23  3.048727 6.125611 1.106841  1.596061 0.018247 -0.808184
24  3.527214 5.063567 0.216259  1.596061 0.018246 -0.808184
25  3.352950 5.114328 -0.401208  1.596061 0.018247 -0.808184
26  2.909481 4.772881 -1.012057  1.596061 0.018247 -0.808184
27  1.772478 4.476570 2.356868  1.596061 0.018247 -0.808184
28  0.000006 3.336140 -8.647861  -1.570799 -1.391898 -1.570795
29  2.033350 1.000764 1.937663  1.227517 0.585911 1.190966
30  2.026190 1.001859 1.937675  1.227511 0.585916 1.190961
31  0.000001 -0.000001 0.000004  1.583265 0.000007 1.570794
32  0.000000 6.028147 -0.000001  -0.421915 -0.507237 -0.902230
33  -0.000001 0.000009 -0.000005  -0.000002 0.000003 1.570791
34  0.000017 6.028144 -0.000011  -0.547127 0.366067 0.453872
35  0.000000 11.692570 0.000001  -0.000001 -0.000005 -0.657395
36  -0.000002 -0.000000 -0.000002  0.000005 0.000000 1.570801
37  11.692580 0.000055 0.000042  0.000005 -0.000001 -0.657386
38  -0.000001 11.481681 -0.000000  0.362568 0.476968 0.768937
39  -0.000000 0.000002 0.000000  0.000000 -0.000000 1.570789
40  11.481683 -0.000055 0.000008  0.504907 -0.320548 0.596509
41  0.137968 3.859859 1.332473  -1.465469 -1.619459 0.860146
42  -0.000000 0.000000 -0.000001  1.933714 0.000004 1.570794
43  3.859862 -0.137941 1.332472  0.357796 -0.048395 -0.605200
44  0.000000 1.719430 -0.000002  -0.420990 0.202310 0.066145
45  -0.000001 0.000001 0.000002  1.743430 0.000000 1.570799
46  1.719432 0.000005 -0.000006  0.000190 -0.009119 -0.438711
47  0.000000 1.099663 0.000001  1.022508 1.907904 1.050490
48  -0.000001 0.000001 -0.000000  -0.000002 0.000003 1.570799
49  1.099665 -0.000002 0.000003  -0.000120 0.002600 -0.291079
50  0.046789 3.883687 0.431450  -0.027947 -1.505149 -0.644158
51  0.000000 -0.000002 0.000001  1.590082 0.000009 1.570787
52  3.883687 -0.046762 0.431449  0.084907 0.001824 -0.672048
53  0.000001 1.719573 0.000001  -0.720150 0.051523 -0.006475
54  -0.000001 -0.000000 0.000002  1.538381 -0.000002 1.570794
55  1.719580 0.000017 -0.000015  -0.003916 0.016395 -0.719677
56  -0.000002 1.209184 0.000005  -1.502669 1.085599 -1.507503
57  -0.000003 0.000000 0.000001  -0.000000 -0.000000 1.570805
58  1.209189 0.000002 -0.000005  -0.000816 0.002971 -0.484138
59  -0.046750 3.942328 -0.431435  -0.326351 -1.473452 -0.660490
60  0.000000 0.000002 -0.000003  1.317660 0.000000 1.570797
61  3.942327 0.046778 -0.431437  -0.160901 0.031164 -0.985399
62  -0.000000 1.539093 0.000001  -0.255199 -0.026494 -0.056799
63  0.000000 -0.000002 0.000001  1.337310 -0.000004 1.570800
64  1.539096 0.000002 0.000001  -0.000026 0.003557 -0.262746
65  0.000000 1.196321 0.000003  -1.013241 1.118228 -1.059712
66  -0.000001 0.000000 0.000001  0.000000 -0.000001 1.570800
67  1.196325 -0.000006 0.000003  0.000001 0.000003 -0.391311
68  0.142426 3.859705 -1.191967  -0.667352 -1.423711 -0.301229
69  0.000001 0.000001 -0.000003  0.976757 -0.000005 1.570807
70  3.859708 -0.142401 -1.191970  -0.478189 0.090839 -0.963304
71  -0.000001 1.312569 -0.000003  -0.361461 -0.138963 -0.204711
72  0.000001 0.000001 -0.000001  1.078169 0.000003 1.570794
73  1.312571 -0.000013 0.000008  0.000005 -0.001295 -0.437326
74  0.000002 0.729365 -0.000001  -0.404608 1.030392 -0.463174
75  0.000001 -0.000000 0.000001  -0.000001 -0.000001 1.570795
76  0.729368 0.000002 0.000000  0.000002 -0.000005 -0.231937
77  0.348928 0.806043 1.321259  -1.143019 -2.276566 0.650314
78  -0.000000 0.000001 -0.000002  0.437032 0.000002 1.570791
79  0.806046 -0.348924 1.321260  -1.473585 -0.631278 -0.380767
80  -0.000001 1.789784 0.000000  0.105698 0.066377 0.343746
81  -0.000001 -0.000001 -0.000000  0.347279 0.000000 1.570806
82  1.789791 0.000013 0.000001  0.002657 0.043702 0.349644
83  -0.000000 1.206999 0.000000  0.184148 0.296122 0.568099
84  0.000000 -0.000003 -0.000000  0.000001 -0.000001 1.570797
85  1.207002 -0.000011 0.000004  -0.000004 0.000001 0.540547
86  0.000000 0.000000 1.000000  1.570796 -0.000000 0.000000
time 7
0  0.000005 3.335938 -8.640624  -1.570780 -1.391896 -1.570809
1  2.033356 1.000772 -1.937610  1.473119 1.855075 -0.198639
2  6.028144 -0.000001 0.000000  2.106390 1.513016 -0.455061
3  11.692554 0.000001 0.000004  0.000000 -0.000000 -0.316808
4  11.481693 -0.000003 0.000002  -1.289271 0.004179 0.214969
5  3.859678 -0.132570 1.193110  0.432208 -0.155862 -0.861350
6  1.312557 -0.000004 0.000000  -0.000000 0.000000 -1.191994
7  0.729365 0.000003 -0.000002  0.000000 -0.000000 -1.063394
8  3.942307 0.050328 0.431044  0.232421 0.000609 -0.853331
9  1.539096 -0.000004 -0.000001  -0.000000 0.000000 -0.973379
10  1.196319 0.000008 0.000000  0.000000 0.000000 -1.451261
11  3.883662 -0.050323 -0.431043  0.066987 0.050243 -0.694792
12  1.719581 0.000004 0.000000  -0.000000 -0.000000 -1.251039
13  1.209185 0.000002 -0.000000  0.000000 -0.000003 -1.141145
14  3.859841 -0.148936 -1.331283  -0.248855 0.263129 -0.072121
15  1.719419 0.000002 -0.000003  -0.000000 -0.000000 -0.676756
16  1.099667 0.000003 0.000003  -0.000000 -0.000004 -1.021265
17  0.806023 -0.359836 -1.318334  1.349685 0.343493 -0.771450
18  1.789781 -0.000000 -0.000002  0.000000 0.000000 0.397500
19  1.206998 0.000001 0.000004  0.000000 0.000000 0.989033
20  6.104528 -1.468679 -3.530283  -1.564198 -0.011689 -1.581440
21  3.820740 -1.409994 -0.589409  -1.564198 -0.011689 -1.581440
22  0.222827 -3.739062 1.509296  0.024887 2.851473 -1.494016
23  3.048727 6.125611 1.106842  1.596061 0.018247 -0.808184
24  3.527213 5.063569 0.216260  1.596061 0.018246 -0.808184
25  3.352949 5.114327 -0.401206  1.596061 0.018247 -0.808184
26  2.909482 4.772882 -1.012056  1.596061 0.018247 -0.808184
27  1.772478 4.476571 2.356869  1.596061 0.018247 -0.808184
28  0.000006 3.336140 -8.647861  -1.570799 -1.391898 -1.570795
29  2.033350 1.000764 1.937663  1.227517 0.585911 1.190966
30  2.026190 1.001859 1.937675  1.227511 0.585916 1.190961
31  0.000001 -0.000001 0.000004  1.583265 0.000007 1.570794
32  0.000000 6.028147 -0.000001  -0.409392 -0.509425 -0.915216
33  -0.000001 0.000009 -0.000005  -0.000002 0.000003 1.570792
34  0.000017 6.028144 -0.000011  -0.546958 0.354913 0.447040
35  -0.000000 11.692570 0.000000  -0.000001 -0.000005 -0.641861
36  0.000001 0.000000 -0.000001  0.000005 0.000000 1.570801
37  11.692577 0.000052 0.000041  0.000005 -0.000001 -0.641852
38  0.000001 11.481680 0.000001  0.397018 0.484386 0.748463
39  -0.000001 -0.000000 -0.000001  0.000000 -0.000000 1.570789
40  11.481684 -0.000054 0.000006  0.518503 -0.349240 0.555634
41  0.137967 3.859853 1.332472  -1.465466 -1.619436 0.860080
42  0.000001 0.000001 -0.000001  1.933714 0.000004 1.570794
43  3.859856 -0.137941 1.332472  0.357798 -0.048372 -0.605260
44  0.000001 1.719431 0.000001  -0.420896 0.202310 0.066145
45  0.000000 0.000000 -0.000000  1.743430 0.000000 1.570798
46  1.719436 0.000007 -0.000006  0.000190 -0.009103 -0.438619
47  0.000000 1.099661 0.000001  1.022383 1.907833 1.050358
48  -0.000001 -0.000000 0.000001  -0.000002 0.000003 1.570799
49  1.099663 0.000003 0.000004  -0.000119 0.002600 -0.290995
50  0.046788 3.883683 0.431449  -0.028110 -1.505149 -0.644013
51  -0.000000 0.000000 0.000001  1.590082 0.000009 1.570787
52  3.883684 -0.046762 0.431448  0.084906 0.001835 -0.672062
53  0.000001 1.719576 0.000001  -0.720108 0.051523 -0.006475
54  -0.000000 -0.000000 -0.000002  1.538381 -0.000002 1.570794
55  1.719580 0.000015 -0.000015  -0.003915 0.016394 -0.719636
56  0.000001 1.209183 -0.000000  -1.502665 1.085635 -1.507498
57  -0.000001 -0.000000 -0.000000  -0.000000 -0.000000 1.570805
58  1.209187 -0.000004 -0.000001  -0.000816 0.002971 -0.484102
59  -0.046751 3.942324 -0.431438  -0.326429 -1.473453 -0.660462
60  0.000000 0.000000 0.000000  1.317660 0.000000 1.570797
61  3.942326 0.046778 -0.431438  -0.160904 0.031171 -0.985446
62  0.000001 1.539090 -0.000002  -0.255127 -0.026494 -0.056799
63  0.000000 0.000000 -0.000000  1.337310 -0.000004 1.570800
64  1.539095 -0.000004 0.000002  -0.000026 0.003541 -0.262676
65  -0.000000 1.196321 0.000001  -1.013139 1.118308 -1.059598
66  -0.000002 0.000001 -0.000000  0.000000 -0.000001 1.570800
67  1.196325 -0.000007 0.000003  0.000001 0.000004 -0.391217
68  0.142426 3.859703 -1.191969  -0.667365 -1.423717 -0.301269
69  -0.000000 0.000001 -0.000000  0.976757 -0.000005 1.570807
70  3.859706 -0.142400 -1.191970  -0.478195 0.090837 -0.963356
71  0.000001 1.312570 0.000002  -0.361375 -0.138964 -0.204711
72  0.000000 -0.000000 0.000000  1.078169 0.000003 1.570794
73  1.312574 -0.000013 0.000008  0.000004 -0.001336 -0.437250
74  -0.000000 0.729362 0.000001  -0.404469 1.030428 -0.463010
75  -0.000001 -0.000001 -0.000000  -0.000001 -0.000001 1.570795
76  0.729366 0.000004 0.000002  0.000002 -0.000004 -0.231846
77  0.348927 0.806041 1.321258  -1.142986 -2.276500 0.650286
78  -0.000000 -0.000000 0.000000  0.437032 0.000002 1.570791
79  0.806045 -0.348924 1.321259  -1.473567 -0.631211 -0.380779
80  -0.000001 1.789784 0.000002  0.105694 0.066382 0.343692
81  0.000001 -0.000001 0.000000  0.347279 0.000000 1.570806
82  1.789789 0.000015 -0.000000  0.002654 0.043683 0.349593
83  0.000001 1.206999 0.000001  0.184123 0.296137 0.568014
84  0.000000 -0.000000 0.000000  0.000001 -0.000001 1.570797
85  1.207004 -0.000010 0.000005  -0.000004 0.000001 0.540465
86  0.000000 0.000000 1.000000  1.570796 -0.000000 0.000000
time 8
0  0.000005 3.335938 -8.640624  -1.570780 -1.391896 -1.570809
1  2.033356 1.000772 -1.937610  1.473119 1.855075 -0.198639
2  6.028144 -0.000001 0.000000  2.118874 1.513671 -0.442333
3  11.692555 0.000000 0.000004  0.000000 -0.000000 -0.316658
4  11.481692 -0.000000 0.000002  -1.288835 0.007428 0.200690
5  3.859676 -0.132571 1.193112  0.432208 -0.155862 -0.861350
6  1.312554 -0.000007 0.000001  -0.000000 0.000000 -1.191994
7  0.729365 0.000001 -0.000003  -0.000000 -0.000000 -1.063394
8  3.942306 0.050327 0.431045  0.232421 0.000609 -0.853331
9  1.539096 -0.000005 0.000000  -0.000000 0.000000 -0.973379
10  1.196319 0.000007 0.000001  0.000000 0.000000 -1.451261
11  3.883660 -0.050324 -0.431042  0.066987 0.050243 -0.694792
12  1.719574 0.000004 0.000001  -0.000000 -0.000000 -1.251039
13  1.209185 0.000001 0.000000  0.000000 -0.000003 -1.141145
14  3.859838 -0.148937 -1.331282  -0.248855 0.263129 -0.072121
15  1.719419 0.000002 -0.000003  -0.000000 -0.000000 -0.676756
16  1.099668 0.000002 0.000003  -0.000000 -0.000004 -1.021265
17  0.806021 -0.359837 -1.318334  1.349685 0.343493 -0.771450
18  1.789782 0.000001 -0.000004  0.000000 0.000000 0.397500
19  1.206998 0.000001 0.000006  0.000000 -0.000000 0.989033
20  6.104524 -1.468680 -3.530284  -1.564198 -0.011689 -1.581440
21  3.820737 -1.409994 -0.589408  -1.564198 -0.011689 -1.581440
22  0.222816 -3.739063 1.509297  0.024887 2.851473 -1.494016
23  3.048727 6.125610 1.106840  1.596061 0.018247 -0.808184
24  3.527214 5.063570 0.216259  1.596061 0.018246 -0.808184
25  3.352950 5.114327 -0.401208  1.596061 0.018247 -0.808184
26  2.909482 4.772881 -1.012056  1.596061 0.018247 -0.808184
27  1.772478 4.476570 2.356867  1.596061 0.018247 -0.808184
28  0.000006 3.336140 -8.647861  -1.570799 -1.391898 -1.570795
29  2.033350 1.000764 1.937663  1.227517 0.585911 1.190966
30  2.026190 1.001859 1.937675  1.227511 0.585916 1.190961
31  0.000001 -0.000001 0.000004  1.583265 0.000007 1.570794
32  0.000000 6.028147 -0.000001  -0.406514 -0.510007 -0.918370
33  0.000001 0.000009 -0.000006  -0.000002 0.000003 1.570791
34  0.000017 6.028144 -0.000011  -0.547012 0.352335 0.445272
35  0.000002 11.692572 0.000000  -0.000001 -0.000005 -0.637504
36  -0.000002 0.000001 -0.000002  0.000005 0.000000 1.570801
37  11.692578 0.000053 0.000040  0.000004 -0.000001 -0.637495
38  -0.000003 11.481684 0.000000  0.408929 0.486661 0.742935
39  0.000000 -0.000001 0.000001  0.000000 -0.000000 1.570789
40  11.481680 -0.000053 0.000006  0.523074 -0.359128 0.542962
41  0.137968 3.859857 1.332475  -1.465452 -1.619430 0.860058
42  -0.000000 -0.000001 0.000002  1.933714 0.000004 1.570794
43  3.859857 -0.137941 1.332474  0.357798 -0.048366 -0.605272
44  -0.000001 1.719433 0.000006  -0.420874 0.202310 0.066145
45  -0.000000 0.000000 -0.000001  1.743430 0.000000 1.570798
46  1.719434 0.000007 -0.000009  0.000190 -0.009099 -0.438597
47  0.000002 1.099660 0.000001  1.022354 1.907816 1.050327
48  -0.000001 0.000001 -0.000000  -0.000002 0.000003 1.570799
49  1.099662 -0.000000 0.000004  -0.000119 0.002600 -0.290976
50  0.046789 3.883686 0.431452  -0.028160 -1.505149 -0.643960
51  0.000001 0.000001 0.000002  1.590082 0.000009 1.570787
52  3.883686 -0.046761 0.431451  0.084906 0.001838 -0.672064
53  -0.000001 1.719574 0.000002  -0.720101 0.051523 -0.006475
54  -0.000001 0.000000 0.000000  1.538381 -0.000002 1.570794
55  1.719577 0.000015 -0.000019  -0.003915 0.016394 -0.719628
56  0.000000 1.209182 0.000002  -1.502664 1.085642 -1.507497
57  0.000002 -0.000000 0.000000  -0.000000 -0.000000 1.570805
58  1.209185 -0.000000 -0.000002  -0.000816 0.002971 -0.484095
59  -0.046750 3.942326 -0.431434  -0.326459 -1.473452 -0.660438
60  0.000000 0.000001 -0.000001  1.317660 0.000000 1.570797
61  3.942322 0.046778 -0.431437  -0.160904 0.031174 -0.985454
62  0.000001 1.539091 -0.000002  -0.255110 -0.026494 -0.056799
63  -0.000001 -0.000001 -0.000001  1.337310 -0.000004 1.570800
64  1.539095 -0.000002 0.000001  -0.000026 0.003537 -0.262659
65  0.000000 1.196322 -0.000003  -1.013115 1.118327 -1.059571
66  0.000001 -0.000000 0.000000  0.000000 -0.000001 1.570800
67  1.196326 -0.000008 0.000004  0.000000 0.000004 -0.391195
68  0.142427 3.859704 -1.191966  -0.667375 -1.423717 -0.301266
69  0.000001 -0.000001 -0.000001  0.976757 -0.000005 1.570807
70  3.859704 -0.142400 -1.191969  -0.478196 0.090838 -0.963364
71  0.000001 1.312566 -0.000004  -0.361360 -0.138964 -0.204711
72  0.000003 -0.000001 -0.000000  1.078169 0.000003 1.570794
73  1.312570 -0.000016 0.000008  0.000004 -0.001343 -0.437237
74  0.000003 0.729363 -0.000002  -0.404443 1.030435 -0.462981
75  -0.000002 -0.000000 0.000000  -0.000001 -0.000001 1.570795
76  0.729367 0.000001 -0.000002  0.000001 -0.000004 -0.231829
77  0.348928 0.806044 1.321262  -1.142977 -2.276485 0.650280
78  -0.000000 0.000000 -0.000001  0.437032 0.000002 1.570790
79  0.806044 -0.348924 1.321262  -1.473564 -0.631196 -0.380781
80  -0.000001 1.789785 0.000001  0.105694 0.066384 0.343680
81  -0.000000 -0.000000 -0.000001  0.347279 0.000000 1.570806
82  1.789788 0.000013 -0.000000  0.002654 0.043680 0.349582
83  -0.000000 1.207000 -0.000000  0.184118 0.296140 0.567996
84  0.000000 -0.000000 -0.000001  0.000001 -0.000001 1.570797
85  1.207003 -0.000013 0.000005  -0.000003 0.000001 0.540448
86  0.000000 0.000000 1.000000  1.570796 -0.000000 0.000000
end
