// Created by Crowbar 0.74
version 1
nodes
  0 "ValveBiped.Bip01_Spine4" -1
  1 "ValveBiped.Bip01_L_Clavicle" 0
  2 "ValveBiped.Bip01_L_UpperArm" 1
  3 "ValveBiped.Bip01_L_Forearm" 2
  4 "ValveBiped.Bip01_L_Hand" 3
  5 "ValveBiped.Bip01_L_Finger4" 4
  6 "ValveBiped.Bip01_L_Finger41" 5
  7 "ValveBiped.Bip01_L_Finger42" 6
  8 "ValveBiped.Bip01_L_Finger3" 4
  9 "ValveBiped.Bip01_L_Finger31" 8
  10 "ValveBiped.Bip01_L_Finger32" 9
  11 "ValveBiped.Bip01_L_Finger2" 4
  12 "ValveBiped.Bip01_L_Finger21" 11
  13 "ValveBiped.Bip01_L_Finger22" 12
  14 "ValveBiped.Bip01_L_Finger1" 4
  15 "ValveBiped.Bip01_L_Finger11" 14
  16 "ValveBiped.Bip01_L_Finger12" 15
  17 "ValveBiped.Bip01_L_Finger0" 4
  18 "ValveBiped.Bip01_L_Finger01" 17
  19 "ValveBiped.Bip01_L_Finger02" 18
  20 "ValveBiped.Bip01_R_Clavicle" 0
  21 "ValveBiped.Bip01_R_UpperArm" 20
  22 "ValveBiped.Bip01_R_Forearm" 21
  23 "ValveBiped.Bip01_R_Hand" 22
  24 "ValveBiped.Bip01_R_Finger4" 23
  25 "ValveBiped.Bip01_R_Finger41" 24
  26 "ValveBiped.Bip01_R_Finger42" 25
  27 "ValveBiped.Bip01_R_Finger3" 23
  28 "ValveBiped.Bip01_R_Finger31" 27
  29 "ValveBiped.Bip01_R_Finger32" 28
  30 "ValveBiped.Bip01_R_Finger2" 23
  31 "ValveBiped.Bip01_R_Finger21" 30
  32 "ValveBiped.Bip01_R_Finger22" 31
  33 "ValveBiped.Bip01_R_Finger1" 23
  34 "ValveBiped.Bip01_R_Finger11" 33
  35 "ValveBiped.Bip01_R_Finger12" 34
  36 "ValveBiped.Bip01_R_Finger0" 23
  37 "ValveBiped.Bip01_R_Finger01" 36
  38 "ValveBiped.Bip01_R_Finger02" 37
  39 "ValveBiped.square" 23
  40 "ValveBiped.clip" 23
end
skeleton
  time 0
    0 0.000005 3.335938 -8.640625 -1.570781 -1.391896 -1.570809
    1 2.033349 1.000767 1.937660 1.596637 -1.286515 2.942961
    2 6.028141 0.000000 0.000000 -1.579228 0.357999 -1.145030
    3 11.692554 0.000001 0.000002 0.000000 0.000000 -1.541525
    4 11.481674 0.000001 -0.000032 1.573168 -0.028074 0.044378
    5 3.859709 -0.142404 -1.191975 -0.476793 0.134331 -0.965122
    6 1.312555 -0.000002 0.000001 0.000000 0.000000 -0.279217
    7 0.729363 -0.000002 -0.000002 0.000000 0.000000 -0.096880
    8 3.942335 0.046767 -0.431443 -0.145081 0.087432 -0.741678
    9 1.539097 0.000000 0.000000 0.000000 0.000000 -0.309316
    10 1.196326 -0.000002 -0.000001 0.000000 0.000000 -0.521199
    11 3.883696 -0.046765 0.431443 0.085902 0.021830 -0.587867
    12 1.719570 -0.000004 -0.000001 0.000000 0.005516 -0.366478
    13 1.209171 -0.000002 0.000000 0.000000 0.003084 -0.216400
    14 3.859865 -0.137947 1.332466 0.354449 -0.042750 -0.531718
    15 1.719429 0.000002 -0.000001 0.000000 0.004074 -0.363009
    16 1.099665 0.000000 0.000000 0.000000 0.002596 -0.244331
    17 0.806053 -0.348925 1.321258 -1.166382 -0.626621 -0.921969
    18 1.789780 -0.000002 0.000002 0.000000 0.000000 0.189105
    19 1.207006 0.000000 0.000000 0.000000 0.000000 0.306015
    20 2.033356 1.000772 -1.937610 -1.668474 1.286518 2.942953
    21 6.028144 0.000000 0.000000 1.415737 0.359516 -1.181184
    22 11.692554 0.000001 0.000003 0.000000 0.000000 -1.106156
    23 11.481697 0.000001 0.000002 -1.715390 -0.567218 0.743381
    24 3.859678 -0.132570 1.193109 0.432208 -0.155862 -0.861350
    25 1.312557 -0.000002 0.000001 0.000000 0.000000 -1.191973
    26 0.729365 0.000002 -0.000002 0.000000 0.000000 -1.063371
    27 3.942305 0.050327 0.431044 0.232421 0.000609 -0.853331
    28 1.539099 -0.000002 0.000000 0.000000 0.000000 -0.973379
    29 1.196321 0.000008 0.000000 0.000000 0.000000 -1.451289
    30 3.883661 -0.050323 -0.431042 0.066987 0.050243 -0.694792
    31 1.719578 0.000004 0.000000 0.000000 0.000000 -1.251039
    32 1.209185 0.000002 0.000000 0.000000 0.000000 -1.141170
    33 3.859838 -0.148937 -1.331282 -0.248855 0.263129 -0.072121
    34 1.719423 0.000002 0.000000 0.000000 0.000000 -0.676756
    35 1.099667 0.000002 0.000000 0.000000 0.000000 -1.021287
    36 0.806021 -0.359837 -1.318334 1.349685 0.343493 -0.771450
    37 1.789782 0.000000 -0.000004 0.000000 0.000000 0.397500
    38 1.206999 0.000003 0.000002 0.000000 0.000000 0.989033
    39 6.104525 -1.468680 -3.530283 -1.564198 -0.011689 -1.581440
    40 3.820738 -1.409994 -0.589409 -1.564198 -0.011689 -1.581440
  time 1
    0 0.000005 3.335938 -8.640625 -1.570781 -1.391896 -1.570809
    1 2.033349 1.000767 1.937660 1.596637 -1.286515 2.942961
    2 6.028141 0.000000 0.000000 -1.579228 0.357999 -1.145030
    3 11.692554 0.000001 0.000002 0.000000 0.000000 -1.541525
    4 11.481674 0.000001 -0.000032 1.573168 -0.028074 0.044378
    5 3.859709 -0.142404 -1.191975 -0.476793 0.134331 -0.965122
    6 1.312555 -0.000002 0.000001 0.000000 0.000000 -0.279217
    7 0.729363 -0.000002 -0.000002 0.000000 0.000000 -0.096880
    8 3.942335 0.046767 -0.431443 -0.145081 0.087432 -0.741678
    9 1.539097 0.000000 0.000000 0.000000 0.000000 -0.309316
    10 1.196326 -0.000002 -0.000001 0.000000 0.000000 -0.521199
    11 3.883696 -0.046765 0.431443 0.085902 0.021830 -0.587867
    12 1.719570 -0.000004 -0.000001 0.000000 0.005516 -0.366478
    13 1.209171 -0.000002 0.000000 0.000000 0.003084 -0.216400
    14 3.859865 -0.137947 1.332466 0.354449 -0.042750 -0.531718
    15 1.719429 0.000002 -0.000001 0.000000 0.004074 -0.363009
    16 1.099665 0.000000 0.000000 0.000000 0.002596 -0.244331
    17 0.806053 -0.348925 1.321258 -1.166382 -0.626621 -0.921969
    18 1.789780 -0.000002 0.000002 0.000000 0.000000 0.189105
    19 1.207006 0.000000 0.000000 0.000000 0.000000 0.306015
    20 2.033356 1.000772 -1.937610 -1.668474 1.286518 2.942953
    21 6.028144 0.000000 0.000000 1.415737 0.359516 -1.181184
    22 11.692554 0.000001 0.000003 0.000000 0.000000 -1.106156
    23 11.481697 0.000001 0.000002 -1.715390 -0.567218 0.743381
    24 3.859678 -0.132570 1.193109 0.432208 -0.155862 -0.861350
    25 1.312557 -0.000002 0.000001 0.000000 0.000000 -1.191973
    26 0.729365 0.000002 -0.000002 0.000000 0.000000 -1.063371
    27 3.942305 0.050327 0.431044 0.232421 0.000609 -0.853331
    28 1.539099 -0.000002 0.000000 0.000000 0.000000 -0.973379
    29 1.196321 0.000008 0.000000 0.000000 0.000000 -1.451289
    30 3.883661 -0.050323 -0.431042 0.066987 0.050243 -0.694792
    31 1.719578 0.000004 0.000000 0.000000 0.000000 -1.251039
    32 1.209185 0.000002 0.000000 0.000000 0.000000 -1.141170
    33 3.859838 -0.148937 -1.331282 -0.248855 0.263129 -0.072121
    34 1.719423 0.000002 0.000000 0.000000 0.000000 -0.676756
    35 1.099667 0.000002 0.000000 0.000000 0.000000 -1.021287
    36 0.806021 -0.359837 -1.318334 1.349685 0.343493 -0.771450
    37 1.789782 0.000000 -0.000004 0.000000 0.000000 0.397500
    38 1.206999 0.000003 0.000002 0.000000 0.000000 0.989033
    39 6.104525 -1.468680 -3.530283 -1.564198 -0.011689 -1.581440
    40 3.820738 -1.409994 -0.589409 -1.564198 -0.011689 -1.581440
  time 2
    0 0.000005 3.335938 -8.640625 -1.570781 -1.391896 -1.570809
    1 2.033349 1.000767 1.937660 1.596637 -1.286515 2.942961
    2 6.028141 0.000000 0.000000 -1.579228 0.357999 -1.145030
    3 11.692554 0.000001 0.000002 0.000000 0.000000 -1.541525
    4 11.481674 0.000001 -0.000032 1.573168 -0.028074 0.044378
    5 3.859709 -0.142404 -1.191975 -0.476793 0.134331 -0.965122
    6 1.312555 -0.000002 0.000001 0.000000 0.000000 -0.279217
    7 0.729363 -0.000002 -0.000002 0.000000 0.000000 -0.096880
    8 3.942335 0.046767 -0.431443 -0.145081 0.087432 -0.741678
    9 1.539097 0.000000 0.000000 0.000000 0.000000 -0.309316
    10 1.196326 -0.000002 -0.000001 0.000000 0.000000 -0.521199
    11 3.883696 -0.046765 0.431443 0.085902 0.021830 -0.587867
    12 1.719570 -0.000004 -0.000001 0.000000 0.005516 -0.366478
    13 1.209171 -0.000002 0.000000 0.000000 0.003084 -0.216400
    14 3.859865 -0.137947 1.332466 0.354449 -0.042750 -0.531718
    15 1.719429 0.000002 -0.000001 0.000000 0.004074 -0.363009
    16 1.099665 0.000000 0.000000 0.000000 0.002596 -0.244331
    17 0.806053 -0.348925 1.321258 -1.166382 -0.626621 -0.921969
    18 1.789780 -0.000002 0.000002 0.000000 0.000000 0.189105
    19 1.207006 0.000000 0.000000 0.000000 0.000000 0.306015
    20 2.033356 1.000772 -1.937610 -1.668474 1.286518 2.942953
    21 6.028144 0.000000 0.000000 1.415284 0.372649 -1.183024
    22 11.692554 0.000001 0.000003 0.000000 0.000000 -1.099501
    23 11.481697 0.000001 0.000002 -1.652892 -0.561460 0.765118
    24 3.859678 -0.132570 1.193109 0.432208 -0.155862 -0.861350
    25 1.312557 -0.000002 0.000001 0.000000 0.000000 -1.191973
    26 0.729365 0.000002 -0.000002 0.000000 0.000000 -1.063371
    27 3.942305 0.050327 0.431044 0.232421 0.000609 -0.853331
    28 1.539099 -0.000002 0.000000 0.000000 0.000000 -0.973379
    29 1.196321 0.000008 0.000000 0.000000 0.000000 -1.451289
    30 3.883661 -0.050323 -0.431042 0.066987 0.050243 -0.694792
    31 1.719578 0.000004 0.000000 0.000000 0.000000 -1.251039
    32 1.209185 0.000002 0.000000 0.000000 0.000000 -1.141170
    33 3.859838 -0.148937 -1.331282 -0.248855 0.263129 -0.072121
    34 1.719423 0.000002 0.000000 0.000000 0.000000 -0.676756
    35 1.099667 0.000002 0.000000 0.000000 0.000000 -1.021287
    36 0.806021 -0.359837 -1.318334 1.349685 0.343493 -0.771450
    37 1.789782 0.000000 -0.000004 0.000000 0.000000 0.397500
    38 1.206999 0.000003 0.000002 0.000000 0.000000 0.989033
    39 6.104525 -1.468680 -3.530283 -1.564198 -0.011689 -1.581440
    40 3.820738 -1.409994 -0.589409 -1.564198 -0.011689 -1.581440
  time 3
    0 0.000005 3.335938 -8.640625 -1.570781 -1.391896 -1.570809
    1 2.033349 1.000767 1.937660 1.596637 -1.286515 2.942961
    2 6.028141 0.000000 0.000000 -1.579228 0.357999 -1.145030
    3 11.692554 0.000001 0.000002 0.000000 0.000000 -1.541525
    4 11.481674 0.000001 -0.000032 1.573168 -0.028074 0.044378
    5 3.859709 -0.142404 -1.191975 -0.476793 0.134331 -0.965122
    6 1.312555 -0.000002 0.000001 0.000000 0.000000 -0.279217
    7 0.729363 -0.000002 -0.000002 0.000000 0.000000 -0.096880
    8 3.942335 0.046767 -0.431443 -0.145081 0.087432 -0.741678
    9 1.539097 0.000000 0.000000 0.000000 0.000000 -0.309316
    10 1.196326 -0.000002 -0.000001 0.000000 0.000000 -0.521199
    11 3.883696 -0.046765 0.431443 0.085902 0.021830 -0.587867
    12 1.719570 -0.000004 -0.000001 0.000000 0.005516 -0.366478
    13 1.209171 -0.000002 0.000000 0.000000 0.003084 -0.216400
    14 3.859865 -0.137947 1.332466 0.354449 -0.042750 -0.531718
    15 1.719429 0.000002 -0.000001 0.000000 0.004074 -0.363009
    16 1.099665 0.000000 0.000000 0.000000 0.002596 -0.244331
    17 0.806053 -0.348925 1.321258 -1.166382 -0.626621 -0.921969
    18 1.789780 -0.000002 0.000002 0.000000 0.000000 0.189105
    19 1.207006 0.000000 0.000000 0.000000 0.000000 0.306015
    20 2.033356 1.000772 -1.937610 -1.668474 1.286518 2.942953
    21 6.028144 0.000000 0.000000 1.418889 0.416628 -1.183169
    22 11.692554 0.000001 0.000003 0.000000 0.000000 -1.079726
    23 11.481697 0.000001 0.000002 -1.547361 -0.545750 0.763336
    24 3.859678 -0.132570 1.193109 0.432208 -0.155862 -0.861350
    25 1.312557 -0.000002 0.000001 0.000000 0.000000 -1.191996
    26 0.729365 0.000002 -0.000002 0.000000 0.000000 -1.063371
    27 3.942305 0.050327 0.431044 0.232421 0.000609 -0.853331
    28 1.539099 -0.000002 0.000000 0.000000 0.000000 -0.973401
    29 1.196321 0.000008 0.000000 0.000000 0.000000 -1.451289
    30 3.883661 -0.050323 -0.431042 0.066987 0.050243 -0.694792
    31 1.719578 0.000004 0.000000 0.000000 0.000000 -1.251039
    32 1.209185 0.000002 0.000000 0.000000 0.000000 -1.141170
    33 3.859838 -0.148937 -1.331282 -0.248855 0.263129 -0.072121
    34 1.719423 0.000002 0.000000 0.000000 0.000000 -0.676756
    35 1.099667 0.000002 0.000000 0.000000 0.000000 -1.021287
    36 0.806021 -0.359837 -1.318334 1.349685 0.343493 -0.771450
    37 1.789782 0.000000 -0.000004 0.000000 0.000000 0.397500
    38 1.206999 0.000003 0.000002 0.000000 0.000000 0.989033
    39 6.104525 -1.468680 -3.530283 -1.564198 -0.011689 -1.581440
    40 3.820738 -1.409994 -0.589409 -1.564198 -0.011689 -1.581440
  time 4
    0 0.000005 3.335938 -8.640625 -1.570781 -1.391896 -1.570809
    1 2.033349 1.000767 1.937660 1.596637 -1.286515 2.942961
    2 6.028141 0.000000 0.000000 -1.579228 0.357999 -1.145030
    3 11.692554 0.000001 0.000002 0.000000 0.000000 -1.541525
    4 11.481674 0.000001 -0.000032 1.573168 -0.028074 0.044378
    5 3.859709 -0.142404 -1.191975 -0.476793 0.134331 -0.965122
    6 1.312555 -0.000002 0.000001 0.000000 0.000000 -0.279217
    7 0.729363 -0.000002 -0.000002 0.000000 0.000000 -0.096880
    8 3.942335 0.046767 -0.431443 -0.145081 0.087432 -0.741678
    9 1.539097 0.000000 0.000000 0.000000 0.000000 -0.309316
    10 1.196326 -0.000002 -0.000001 0.000000 0.000000 -0.521199
    11 3.883696 -0.046765 0.431443 0.085902 0.021830 -0.587867
    12 1.719570 -0.000004 -0.000001 0.000000 0.005516 -0.366478
    13 1.209171 -0.000002 0.000000 0.000000 0.003084 -0.216400
    14 3.859865 -0.137947 1.332466 0.354449 -0.042750 -0.531718
    15 1.719429 0.000002 -0.000001 0.000000 0.004074 -0.363009
    16 1.099665 0.000000 0.000000 0.000000 0.002596 -0.244331
    17 0.806053 -0.348925 1.321258 -1.166382 -0.626621 -0.921969
    18 1.789780 -0.000002 0.000002 0.000000 0.000000 0.189105
    19 1.207006 0.000000 0.000000 0.000000 0.000000 0.306015
    20 2.033356 1.000772 -1.937610 -1.668474 1.286518 2.942953
    21 6.028144 0.000000 0.000000 1.429025 0.511970 -1.178934
    22 11.692554 0.000001 0.000003 0.000000 0.000000 -1.049274
    23 11.481697 0.000001 0.000002 -1.480269 -0.520374 0.729212
    24 3.859678 -0.132570 1.193109 0.432208 -0.155862 -0.861350
    25 1.312557 -0.000002 0.000001 0.000000 0.000000 -1.191973
    26 0.729365 0.000002 -0.000002 0.000000 0.000000 -1.063371
    27 3.942305 0.050327 0.431044 0.232421 0.000609 -0.853331
    28 1.539099 -0.000002 0.000000 0.000000 0.000000 -0.973379
    29 1.196321 0.000008 0.000000 0.000000 0.000000 -1.451289
    30 3.883661 -0.050323 -0.431042 0.066987 0.050243 -0.694792
    31 1.719578 0.000004 0.000000 0.000000 0.000000 -1.251039
    32 1.209185 0.000002 0.000000 0.000000 0.000000 -1.141170
    33 3.859838 -0.148937 -1.331282 -0.248855 0.263129 -0.072121
    34 1.719423 0.000002 0.000000 0.000000 0.000000 -0.676756
    35 1.099667 0.000002 0.000000 0.000000 0.000000 -1.021287
    36 0.806021 -0.359837 -1.318334 1.349685 0.343493 -0.771450
    37 1.789782 0.000000 -0.000004 0.000000 0.000000 0.397500
    38 1.206999 0.000003 0.000002 0.000000 0.000000 0.989033
    39 6.104525 -1.468680 -3.530283 -1.564198 -0.011689 -1.581440
    40 3.820738 -1.409994 -0.589409 -1.564198 -0.011689 -1.581440
  time 5
    0 0.000005 3.335938 -8.640625 -1.570781 -1.391896 -1.570809
    1 2.033349 1.000767 1.937660 1.596637 -1.286515 2.942961
    2 6.028141 0.000000 0.000000 -1.579228 0.357999 -1.145030
    3 11.692554 0.000001 0.000002 0.000000 0.000000 -1.541525
    4 11.481674 0.000001 -0.000032 1.573168 -0.028074 0.044378
    5 3.859709 -0.142404 -1.191975 -0.476793 0.134331 -0.965122
    6 1.312555 -0.000002 0.000001 0.000000 0.000000 -0.279217
    7 0.729363 -0.000002 -0.000002 0.000000 0.000000 -0.096880
    8 3.942335 0.046767 -0.431443 -0.145081 0.087432 -0.741678
    9 1.539097 0.000000 0.000000 0.000000 0.000000 -0.309316
    10 1.196326 -0.000002 -0.000001 0.000000 0.000000 -0.521199
    11 3.883696 -0.046765 0.431443 0.085902 0.021830 -0.587867
    12 1.719570 -0.000004 -0.000001 0.000000 0.005516 -0.366478
    13 1.209171 -0.000002 0.000000 0.000000 0.003084 -0.216400
    14 3.859865 -0.137947 1.332466 0.354449 -0.042750 -0.531718
    15 1.719429 0.000002 -0.000001 0.000000 0.004074 -0.363009
    16 1.099665 0.000000 0.000000 0.000000 0.002596 -0.244331
    17 0.806053 -0.348925 1.321258 -1.166382 -0.626621 -0.921969
    18 1.789780 -0.000002 0.000002 0.000000 0.000000 0.189105
    19 1.207006 0.000000 0.000000 0.000000 0.000000 0.306015
    20 2.033356 1.000772 -1.937610 -1.668474 1.286518 2.942953
    21 6.028144 0.000000 0.000000 1.442087 0.650450 -1.170658
    22 11.692554 0.000001 0.000003 0.000000 0.000000 -0.992581
    23 11.481697 0.000001 0.000002 -1.440068 -0.494752 0.686507
    24 3.859678 -0.132570 1.193109 0.432208 -0.155862 -0.861350
    25 1.312557 -0.000002 0.000001 0.000000 0.000000 -1.191973
    26 0.729365 0.000002 -0.000002 0.000000 0.000000 -1.063371
    27 3.942305 0.050327 0.431044 0.232421 0.000609 -0.853331
    28 1.539099 -0.000002 0.000000 0.000000 0.000000 -0.973379
    29 1.196321 0.000008 0.000000 0.000000 0.000000 -1.451289
    30 3.883661 -0.050323 -0.431042 0.066987 0.050243 -0.694792
    31 1.719578 0.000004 0.000000 0.000000 0.000000 -1.251039
    32 1.209185 0.000002 0.000000 0.000000 0.000000 -1.141170
    33 3.859838 -0.148937 -1.331282 -0.248855 0.263129 -0.072121
    34 1.719423 0.000002 0.000000 0.000000 0.000000 -0.676756
    35 1.099667 0.000002 0.000000 0.000000 0.000000 -1.021287
    36 0.806021 -0.359837 -1.318334 1.349685 0.343493 -0.771450
    37 1.789782 0.000000 -0.000004 0.000000 0.000000 0.397500
    38 1.206999 0.000003 0.000002 0.000000 0.000000 0.989033
    39 6.104525 -1.468680 -3.530283 -1.564198 -0.011689 -1.581440
    40 3.820738 -1.409994 -0.589409 -1.564198 -0.011689 -1.581440
  time 6
    0 0.000005 3.335938 -8.640625 -1.570781 -1.391896 -1.570809
    1 2.033349 1.000767 1.937660 1.596637 -1.286515 2.942961
    2 6.028141 0.000000 0.000000 -1.579228 0.357999 -1.145030
    3 11.692554 0.000001 0.000002 0.000000 0.000000 -1.541525
    4 11.481674 0.000001 -0.000032 1.573168 -0.028074 0.044378
    5 3.859709 -0.142404 -1.191975 -0.476793 0.134331 -0.965122
    6 1.312555 -0.000002 0.000001 0.000000 0.000000 -0.279217
    7 0.729363 -0.000002 -0.000002 0.000000 0.000000 -0.096880
    8 3.942335 0.046767 -0.431443 -0.145081 0.087432 -0.741678
    9 1.539097 0.000000 0.000000 0.000000 0.000000 -0.309316
    10 1.196326 -0.000002 -0.000001 0.000000 0.000000 -0.521199
    11 3.883696 -0.046765 0.431443 0.085902 0.021830 -0.587867
    12 1.719570 -0.000004 -0.000001 0.000000 0.005516 -0.366478
    13 1.209171 -0.000002 0.000000 0.000000 0.003084 -0.216400
    14 3.859865 -0.137947 1.332466 0.354449 -0.042750 -0.531718
    15 1.719429 0.000002 -0.000001 0.000000 0.004074 -0.363009
    16 1.099665 0.000000 0.000000 0.000000 0.002596 -0.244331
    17 0.806053 -0.348925 1.321258 -1.166382 -0.626621 -0.921969
    18 1.789780 -0.000002 0.000002 0.000000 0.000000 0.189105
    19 1.207006 0.000000 0.000000 0.000000 0.000000 0.306015
    20 2.033356 1.000772 -1.937610 -1.668474 1.286518 2.942953
    21 6.028144 0.000000 0.000000 1.453481 0.782153 -1.160277
    22 11.692554 0.000001 0.000003 0.000000 0.000000 -0.920812
    23 11.481697 0.000001 0.000002 -1.397126 -0.459794 0.632383
    24 3.859678 -0.132570 1.193109 0.432208 -0.155862 -0.861350
    25 1.312557 -0.000002 0.000001 0.000000 0.000000 -1.191973
    26 0.729365 0.000002 -0.000002 0.000000 0.000000 -1.063371
    27 3.942305 0.050327 0.431044 0.232421 0.000609 -0.853331
    28 1.539099 -0.000002 0.000000 0.000000 0.000000 -0.973379
    29 1.196321 0.000008 0.000000 0.000000 0.000000 -1.451289
    30 3.883661 -0.050323 -0.431042 0.066987 0.050243 -0.694792
    31 1.719578 0.000004 0.000000 0.000000 0.000000 -1.251039
    32 1.209185 0.000002 0.000000 0.000000 0.000000 -1.141170
    33 3.859838 -0.148937 -1.331282 -0.248855 0.263129 -0.072121
    34 1.719423 0.000002 0.000000 0.000000 0.000000 -0.676756
    35 1.099667 0.000002 0.000000 0.000000 0.000000 -1.021287
    36 0.806021 -0.359837 -1.318334 1.349685 0.343493 -0.771450
    37 1.789782 0.000000 -0.000004 0.000000 0.000000 0.397500
    38 1.206999 0.000003 0.000002 0.000000 0.000000 0.989033
    39 6.104525 -1.468680 -3.530283 -1.564198 -0.011689 -1.581440
    40 3.820738 -1.409994 -0.589409 -1.564198 -0.011689 -1.581440
  time 7
    0 0.000005 3.335938 -8.640625 -1.570781 -1.391896 -1.570809
    1 2.033349 1.000767 1.937660 1.596637 -1.286515 2.942961
    2 6.028141 0.000000 0.000000 -1.579228 0.357999 -1.145030
    3 11.692554 0.000001 0.000002 0.000000 0.000000 -1.541525
    4 11.481674 0.000001 -0.000032 1.573168 -0.028074 0.044378
    5 3.859709 -0.142404 -1.191975 -0.476793 0.134331 -0.965122
    6 1.312555 -0.000002 0.000001 0.000000 0.000000 -0.279217
    7 0.729363 -0.000002 -0.000002 0.000000 0.000000 -0.096880
    8 3.942335 0.046767 -0.431443 -0.145081 0.087432 -0.741678
    9 1.539097 0.000000 0.000000 0.000000 0.000000 -0.309316
    10 1.196326 -0.000002 -0.000001 0.000000 0.000000 -0.521199
    11 3.883696 -0.046765 0.431443 0.085902 0.021830 -0.587867
    12 1.719570 -0.000004 -0.000001 0.000000 0.005516 -0.366478
    13 1.209171 -0.000002 0.000000 0.000000 0.003084 -0.216400
    14 3.859865 -0.137947 1.332466 0.354449 -0.042750 -0.531718
    15 1.719429 0.000002 -0.000001 0.000000 0.004074 -0.363009
    16 1.099665 0.000000 0.000000 0.000000 0.002596 -0.244331
    17 0.806053 -0.348925 1.321258 -1.166382 -0.626621 -0.921969
    18 1.789780 -0.000002 0.000002 0.000000 0.000000 0.189105
    19 1.207006 0.000000 0.000000 0.000000 0.000000 0.306015
    20 2.033356 1.000772 -1.937610 -1.668474 1.286518 2.942953
    21 6.028144 0.000000 0.000000 1.464132 0.892778 -1.147863
    22 11.692554 0.000001 0.000003 0.000000 0.000000 -0.854795
    23 11.481697 0.000001 0.000002 -1.354020 -0.413814 0.572010
    24 3.859678 -0.132570 1.193109 0.432208 -0.155862 -0.861350
    25 1.312557 -0.000002 0.000001 0.000000 0.000000 -1.191973
    26 0.729365 0.000002 -0.000002 0.000000 0.000000 -1.063396
    27 3.942305 0.050327 0.431044 0.232421 0.000609 -0.853331
    28 1.539099 -0.000002 0.000000 0.000000 0.000000 -0.973379
    29 1.196321 0.000008 0.000000 0.000000 0.000000 -1.451289
    30 3.883661 -0.050323 -0.431042 0.066987 0.050243 -0.694792
    31 1.719578 0.000004 0.000000 0.000000 0.000000 -1.251039
    32 1.209185 0.000002 0.000000 0.000000 0.000000 -1.141170
    33 3.859838 -0.148937 -1.331282 -0.248855 0.263129 -0.072121
    34 1.719423 0.000002 0.000000 0.000000 0.000000 -0.676756
    35 1.099667 0.000002 0.000000 0.000000 0.000000 -1.021287
    36 0.806021 -0.359837 -1.318334 1.349685 0.343493 -0.771450
    37 1.789782 0.000000 -0.000004 0.000000 0.000000 0.397500
    38 1.206999 0.000003 0.000002 0.000000 0.000000 0.989033
    39 6.104525 -1.468680 -3.530283 -1.564198 -0.011689 -1.581440
    40 3.820738 -1.409994 -0.589409 -1.564198 -0.011689 -1.581440
  time 8
    0 0.000005 3.335938 -8.640625 -1.570781 -1.391896 -1.570809
    1 2.033349 1.000767 1.937660 1.596637 -1.286515 2.942961
    2 6.028141 0.000000 0.000000 -1.579228 0.357999 -1.145030
    3 11.692554 0.000001 0.000002 0.000000 0.000000 -1.541525
    4 11.481674 0.000001 -0.000032 1.573168 -0.028074 0.044378
    5 3.859709 -0.142404 -1.191975 -0.476793 0.134331 -0.965122
    6 1.312555 -0.000002 0.000001 0.000000 0.000000 -0.279217
    7 0.729363 -0.000002 -0.000002 0.000000 0.000000 -0.096880
    8 3.942335 0.046767 -0.431443 -0.145081 0.087432 -0.741678
    9 1.539097 0.000000 0.000000 0.000000 0.000000 -0.309316
    10 1.196326 -0.000002 -0.000001 0.000000 0.000000 -0.521199
    11 3.883696 -0.046765 0.431443 0.085902 0.021830 -0.587867
    12 1.719570 -0.000004 -0.000001 0.000000 0.005516 -0.366478
    13 1.209171 -0.000002 0.000000 0.000000 0.003084 -0.216400
    14 3.859865 -0.137947 1.332466 0.354449 -0.042750 -0.531718
    15 1.719429 0.000002 -0.000001 0.000000 0.004074 -0.363009
    16 1.099665 0.000000 0.000000 0.000000 0.002596 -0.244331
    17 0.806053 -0.348925 1.321258 -1.166382 -0.626621 -0.921969
    18 1.789780 -0.000002 0.000002 0.000000 0.000000 0.189105
    19 1.207006 0.000000 0.000000 0.000000 0.000000 0.306015
    20 2.033356 1.000772 -1.937610 -1.668474 1.286518 2.942953
    21 6.028144 0.000000 0.000000 1.475566 0.987045 -1.132981
    22 11.692554 0.000001 0.000003 0.000000 0.000000 -0.796560
    23 11.481697 0.000001 0.000002 -1.314128 -0.357080 0.509130
    24 3.859678 -0.132570 1.193109 0.432208 -0.155862 -0.861350
    25 1.312557 -0.000002 0.000001 0.000000 0.000000 -1.191973
    26 0.729365 0.000002 -0.000002 0.000000 0.000000 -1.063371
    27 3.942305 0.050327 0.431044 0.232421 0.000609 -0.853331
    28 1.539099 -0.000002 0.000000 0.000000 0.000000 -0.973379
    29 1.196321 0.000008 0.000000 0.000000 0.000000 -1.451289
    30 3.883661 -0.050323 -0.431042 0.066987 0.050243 -0.694792
    31 1.719578 0.000004 0.000000 0.000000 0.000000 -1.251039
    32 1.209185 0.000002 0.000000 0.000000 0.000000 -1.141170
    33 3.859838 -0.148937 -1.331282 -0.248855 0.263129 -0.072121
    34 1.719423 0.000002 0.000000 0.000000 0.000000 -0.676756
    35 1.099667 0.000002 0.000000 0.000000 0.000000 -1.021287
    36 0.806021 -0.359837 -1.318334 1.349685 0.343493 -0.771450
    37 1.789782 0.000000 -0.000004 0.000000 0.000000 0.397500
    38 1.206999 0.000003 0.000002 0.000000 0.000000 0.989033
    39 6.104525 -1.468680 -3.530283 -1.564198 -0.011689 -1.581440
    40 3.820738 -1.409994 -0.589409 -1.564198 -0.011689 -1.581440
  time 9
    0 0.000005 3.335938 -8.640625 -1.570781 -1.391896 -1.570809
    1 2.033349 1.000767 1.937660 1.596637 -1.286515 2.942961
    2 6.028141 0.000000 0.000000 -1.579228 0.357999 -1.145030
    3 11.692554 0.000001 0.000002 0.000000 0.000000 -1.541525
    4 11.481674 0.000001 -0.000032 1.573168 -0.028074 0.044378
    5 3.859709 -0.142404 -1.191975 -0.476793 0.134331 -0.965122
    6 1.312555 -0.000002 0.000001 0.000000 0.000000 -0.279217
    7 0.729363 -0.000002 -0.000002 0.000000 0.000000 -0.096880
    8 3.942335 0.046767 -0.431443 -0.145081 0.087432 -0.741678
    9 1.539097 0.000000 0.000000 0.000000 0.000000 -0.309316
    10 1.196326 -0.000002 -0.000001 0.000000 0.000000 -0.521199
    11 3.883696 -0.046765 0.431443 0.085902 0.021830 -0.587867
    12 1.719570 -0.000004 -0.000001 0.000000 0.005516 -0.366478
    13 1.209171 -0.000002 0.000000 0.000000 0.003084 -0.216400
    14 3.859865 -0.137947 1.332466 0.354449 -0.042750 -0.531718
    15 1.719429 0.000002 -0.000001 0.000000 0.004074 -0.363009
    16 1.099665 0.000000 0.000000 0.000000 0.002596 -0.244331
    17 0.806053 -0.348925 1.321258 -1.166382 -0.626621 -0.921969
    18 1.789780 -0.000002 0.000002 0.000000 0.000000 0.189105
    19 1.207006 0.000000 0.000000 0.000000 0.000000 0.306015
    20 2.033356 1.000772 -1.937610 -1.668474 1.286518 2.942953
    21 6.028144 0.000000 0.000000 1.488917 1.072526 -1.115050
    22 11.692554 0.000001 0.000003 0.000000 0.000000 -0.739415
    23 11.481697 0.000001 0.000002 -1.280573 -0.291400 0.446315
    24 3.859678 -0.132570 1.193109 0.432208 -0.155862 -0.861350
    25 1.312557 -0.000002 0.000001 0.000000 0.000000 -1.191973
    26 0.729365 0.000002 -0.000002 0.000000 0.000000 -1.063371
    27 3.942305 0.050327 0.431044 0.232421 0.000609 -0.853331
    28 1.539099 -0.000002 0.000000 0.000000 0.000000 -0.973379
    29 1.196321 0.000008 0.000000 0.000000 0.000000 -1.451289
    30 3.883661 -0.050323 -0.431042 0.066987 0.050243 -0.694792
    31 1.719578 0.000004 0.000000 0.000000 0.000000 -1.251039
    32 1.209185 0.000002 0.000000 0.000000 0.000000 -1.141170
    33 3.859838 -0.148937 -1.331282 -0.248855 0.263129 -0.072121
    34 1.719423 0.000002 0.000000 0.000000 0.000000 -0.676756
    35 1.099667 0.000002 0.000000 0.000000 0.000000 -1.021287
    36 0.806021 -0.359837 -1.318334 1.349685 0.343493 -0.771450
    37 1.789782 0.000000 -0.000004 0.000000 0.000000 0.397500
    38 1.206999 0.000003 0.000002 0.000000 0.000000 0.989033
    39 6.104525 -1.468680 -3.530283 -1.564198 -0.011689 -1.581440
    40 3.820738 -1.409994 -0.589409 -1.564198 -0.011689 -1.581440
  time 10
    0 0.000005 3.335938 -8.640625 -1.570781 -1.391896 -1.570809
    1 2.033349 1.000767 1.937660 1.596637 -1.286515 2.942961
    2 6.028141 0.000000 0.000000 -1.579228 0.357999 -1.145030
    3 11.692554 0.000001 0.000002 0.000000 0.000000 -1.541525
    4 11.481674 0.000001 -0.000032 1.573168 -0.028074 0.044378
    5 3.859709 -0.142404 -1.191975 -0.476793 0.134331 -0.965122
    6 1.312555 -0.000002 0.000001 0.000000 0.000000 -0.279217
    7 0.729363 -0.000002 -0.000002 0.000000 0.000000 -0.096880
    8 3.942335 0.046767 -0.431443 -0.145081 0.087432 -0.741678
    9 1.539097 0.000000 0.000000 0.000000 0.000000 -0.309316
    10 1.196326 -0.000002 -0.000001 0.000000 0.000000 -0.521199
    11 3.883696 -0.046765 0.431443 0.085902 0.021830 -0.587867
    12 1.719570 -0.000004 -0.000001 0.000000 0.005516 -0.366478
    13 1.209171 -0.000002 0.000000 0.000000 0.003084 -0.216400
    14 3.859865 -0.137947 1.332466 0.354449 -0.042750 -0.531718
    15 1.719429 0.000002 -0.000001 0.000000 0.004074 -0.363009
    16 1.099665 0.000000 0.000000 0.000000 0.002596 -0.244331
    17 0.806053 -0.348925 1.321258 -1.166382 -0.626621 -0.921969
    18 1.789780 -0.000002 0.000002 0.000000 0.000000 0.189105
    19 1.207006 0.000000 0.000000 0.000000 0.000000 0.306015
    20 2.033356 1.000772 -1.937610 -1.668474 1.286518 2.942953
    21 6.028144 0.000000 0.000000 1.505728 1.153053 -1.092715
    22 11.692554 0.000001 0.000003 0.000000 0.000000 -0.680128
    23 11.481697 0.000001 0.000002 -1.255716 -0.220148 0.384843
    24 3.859678 -0.132570 1.193109 0.432208 -0.155862 -0.861350
    25 1.312557 -0.000002 0.000001 0.000000 0.000000 -1.191973
    26 0.729365 0.000002 -0.000002 0.000000 0.000000 -1.063371
    27 3.942305 0.050327 0.431044 0.232421 0.000609 -0.853331
    28 1.539099 -0.000002 0.000000 0.000000 0.000000 -0.973379
    29 1.196321 0.000008 0.000000 0.000000 0.000000 -1.451289
    30 3.883661 -0.050323 -0.431042 0.066987 0.050243 -0.694792
    31 1.719578 0.000004 0.000000 0.000000 0.000000 -1.251039
    32 1.209185 0.000002 0.000000 0.000000 0.000000 -1.141170
    33 3.859838 -0.148937 -1.331282 -0.248855 0.263129 -0.072121
    34 1.719423 0.000002 0.000000 0.000000 0.000000 -0.676756
    35 1.099667 0.000002 0.000000 0.000000 0.000000 -1.021287
    36 0.806021 -0.359837 -1.318334 1.349685 0.343493 -0.771450
    37 1.789782 0.000000 -0.000004 0.000000 0.000000 0.397500
    38 1.206999 0.000003 0.000002 0.000000 0.000000 0.989033
    39 6.104525 -1.468680 -3.530283 -1.564198 -0.011689 -1.581440
    40 3.820738 -1.409994 -0.589409 -1.564198 -0.011689 -1.581440
  time 11
    0 0.000005 3.335938 -8.640625 -1.570781 -1.391896 -1.570809
    1 2.033349 1.000767 1.937660 1.596637 -1.286515 2.942961
    2 6.028141 0.000000 0.000000 -1.579228 0.357999 -1.145030
    3 11.692554 0.000001 0.000002 0.000000 0.000000 -1.541525
    4 11.481674 0.000001 -0.000032 1.573168 -0.028074 0.044378
    5 3.859709 -0.142404 -1.191975 -0.476793 0.134331 -0.965122
    6 1.312555 -0.000002 0.000001 0.000000 0.000000 -0.279217
    7 0.729363 -0.000002 -0.000002 0.000000 0.000000 -0.096880
    8 3.942335 0.046767 -0.431443 -0.145081 0.087432 -0.741678
    9 1.539097 0.000000 0.000000 0.000000 0.000000 -0.309316
    10 1.196326 -0.000002 -0.000001 0.000000 0.000000 -0.521199
    11 3.883696 -0.046765 0.431443 0.085902 0.021830 -0.587867
    12 1.719570 -0.000004 -0.000001 0.000000 0.005516 -0.366478
    13 1.209171 -0.000002 0.000000 0.000000 0.003084 -0.216400
    14 3.859865 -0.137947 1.332466 0.354449 -0.042750 -0.531718
    15 1.719429 0.000002 -0.000001 0.000000 0.004074 -0.363009
    16 1.099665 0.000000 0.000000 0.000000 0.002596 -0.244331
    17 0.806053 -0.348925 1.321258 -1.166382 -0.626621 -0.921969
    18 1.789780 -0.000002 0.000002 0.000000 0.000000 0.189105
    19 1.207006 0.000000 0.000000 0.000000 0.000000 0.306015
    20 2.033356 1.000772 -1.937610 -1.668474 1.286518 2.942953
    21 6.028144 0.000000 0.000000 1.527835 1.227784 -1.064427
    22 11.692554 0.000001 0.000003 0.000000 0.000000 -0.620539
    23 11.481697 0.000001 0.000002 -1.240990 -0.147846 0.324933
    24 3.859678 -0.132570 1.193109 0.432208 -0.155862 -0.861350
    25 1.312557 -0.000002 0.000001 0.000000 0.000000 -1.191973
    26 0.729365 0.000002 -0.000002 0.000000 0.000000 -1.063371
    27 3.942305 0.050327 0.431044 0.232421 0.000609 -0.853331
    28 1.539099 -0.000002 0.000000 0.000000 0.000000 -0.973379
    29 1.196321 0.000008 0.000000 0.000000 0.000000 -1.451289
    30 3.883661 -0.050323 -0.431042 0.066987 0.050243 -0.694792
    31 1.719578 0.000004 0.000000 0.000000 0.000000 -1.251039
    32 1.209185 0.000002 0.000000 0.000000 0.000000 -1.141170
    33 3.859838 -0.148937 -1.331282 -0.248855 0.263129 -0.072121
    34 1.719423 0.000002 0.000000 0.000000 0.000000 -0.676756
    35 1.099667 0.000002 0.000000 0.000000 0.000000 -1.021287
    36 0.806021 -0.359837 -1.318334 1.349685 0.343493 -0.771450
    37 1.789782 0.000000 -0.000004 0.000000 0.000000 0.397500
    38 1.206999 0.000003 0.000002 0.000000 0.000000 0.989033
    39 6.104525 -1.468680 -3.530283 -1.564198 -0.011689 -1.581440
    40 3.820738 -1.409994 -0.589409 -1.564198 -0.011689 -1.581440
  time 12
    0 0.000005 3.335938 -8.640625 -1.570781 -1.391896 -1.570809
    1 2.033349 1.000767 1.937660 1.596637 -1.286515 2.942961
    2 6.028141 0.000000 0.000000 -1.579228 0.357999 -1.145030
    3 11.692554 0.000001 0.000002 0.000000 0.000000 -1.541525
    4 11.481674 0.000001 -0.000032 1.573168 -0.028074 0.044378
    5 3.859709 -0.142404 -1.191975 -0.476793 0.134331 -0.965122
    6 1.312555 -0.000002 0.000001 0.000000 0.000000 -0.279217
    7 0.729363 -0.000002 -0.000002 0.000000 0.000000 -0.096880
    8 3.942335 0.046767 -0.431443 -0.145081 0.087432 -0.741678
    9 1.539097 0.000000 0.000000 0.000000 0.000000 -0.309316
    10 1.196326 -0.000002 -0.000001 0.000000 0.000000 -0.521199
    11 3.883696 -0.046765 0.431443 0.085902 0.021830 -0.587867
    12 1.719570 -0.000004 -0.000001 0.000000 0.005516 -0.366478
    13 1.209171 -0.000002 0.000000 0.000000 0.003084 -0.216400
    14 3.859865 -0.137947 1.332466 0.354449 -0.042750 -0.531718
    15 1.719429 0.000002 -0.000001 0.000000 0.004074 -0.363009
    16 1.099665 0.000000 0.000000 0.000000 0.002596 -0.244331
    17 0.806053 -0.348925 1.321258 -1.166382 -0.626621 -0.921969
    18 1.789780 -0.000002 0.000002 0.000000 0.000000 0.189105
    19 1.207006 0.000000 0.000000 0.000000 0.000000 0.306015
    20 2.033356 1.000772 -1.937610 -1.668474 1.286518 2.942953
    21 6.028144 0.000000 0.000000 1.557420 1.295365 -1.028468
    22 11.692554 0.000001 0.000003 0.000000 0.000000 -0.561966
    23 11.481697 0.000001 0.000002 -1.236814 -0.079925 0.266057
    24 3.859678 -0.132570 1.193109 0.432208 -0.155862 -0.861350
    25 1.312557 -0.000002 0.000001 0.000000 0.000000 -1.191973
    26 0.729365 0.000002 -0.000002 0.000000 0.000000 -1.063371
    27 3.942305 0.050327 0.431044 0.232421 0.000609 -0.853331
    28 1.539099 -0.000002 0.000000 0.000000 0.000000 -0.973379
    29 1.196321 0.000008 0.000000 0.000000 0.000000 -1.451289
    30 3.883661 -0.050323 -0.431042 0.066987 0.050243 -0.694792
    31 1.719578 0.000004 0.000000 0.000000 0.000000 -1.251039
    32 1.209185 0.000002 0.000000 0.000000 0.000000 -1.141170
    33 3.859838 -0.148937 -1.331282 -0.248855 0.263129 -0.072121
    34 1.719423 0.000002 0.000000 0.000000 0.000000 -0.676756
    35 1.099667 0.000002 0.000000 0.000000 0.000000 -1.021287
    36 0.806021 -0.359837 -1.318334 1.349685 0.343493 -0.771450
    37 1.789782 0.000000 -0.000004 0.000000 0.000000 0.397500
    38 1.206999 0.000003 0.000002 0.000000 0.000000 0.989033
    39 6.104525 -1.468680 -3.530283 -1.564198 -0.011689 -1.581440
    40 3.820738 -1.409994 -0.589409 -1.564198 -0.011689 -1.581440
  time 13
    0 0.000005 3.335938 -8.640625 -1.570781 -1.391896 -1.570809
    1 2.033349 1.000767 1.937660 1.596637 -1.286515 2.942961
    2 6.028141 0.000000 0.000000 -1.579228 0.357999 -1.145030
    3 11.692554 0.000001 0.000002 0.000000 0.000000 -1.541525
    4 11.481674 0.000001 -0.000032 1.573168 -0.028074 0.044378
    5 3.859709 -0.142404 -1.191975 -0.476793 0.134331 -0.965122
    6 1.312555 -0.000002 0.000001 0.000000 0.000000 -0.279217
    7 0.729363 -0.000002 -0.000002 0.000000 0.000000 -0.096880
    8 3.942335 0.046767 -0.431443 -0.145081 0.087432 -0.741678
    9 1.539097 0.000000 0.000000 0.000000 0.000000 -0.309316
    10 1.196326 -0.000002 -0.000001 0.000000 0.000000 -0.521199
    11 3.883696 -0.046765 0.431443 0.085902 0.021830 -0.587867
    12 1.719570 -0.000004 -0.000001 0.000000 0.005516 -0.366478
    13 1.209171 -0.000002 0.000000 0.000000 0.003084 -0.216400
    14 3.859865 -0.137947 1.332466 0.354449 -0.042750 -0.531718
    15 1.719429 0.000002 -0.000001 0.000000 0.004074 -0.363009
    16 1.099665 0.000000 0.000000 0.000000 0.002596 -0.244331
    17 0.806053 -0.348925 1.321258 -1.166382 -0.626621 -0.921969
    18 1.789780 -0.000002 0.000002 0.000000 0.000000 0.189105
    19 1.207006 0.000000 0.000000 0.000000 0.000000 0.306015
    20 2.033356 1.000772 -1.937610 -1.668474 1.286518 2.942953
    21 6.028144 0.000000 0.000000 1.598398 1.354814 -0.981208
    22 11.692554 0.000001 0.000003 0.000000 0.000000 -0.506777
    23 11.481697 0.000001 0.000002 -1.242497 -0.022101 0.207379
    24 3.859678 -0.132570 1.193109 0.432208 -0.155862 -0.861350
    25 1.312557 -0.000002 0.000001 0.000000 0.000000 -1.191973
    26 0.729365 0.000002 -0.000002 0.000000 0.000000 -1.063371
    27 3.942305 0.050327 0.431044 0.232421 0.000609 -0.853331
    28 1.539099 -0.000002 0.000000 0.000000 0.000000 -0.973379
    29 1.196321 0.000008 0.000000 0.000000 0.000000 -1.451289
    30 3.883661 -0.050323 -0.431042 0.066987 0.050243 -0.694792
    31 1.719578 0.000004 0.000000 0.000000 0.000000 -1.251039
    32 1.209185 0.000002 0.000000 0.000000 0.000000 -1.141170
    33 3.859838 -0.148937 -1.331282 -0.248855 0.263129 -0.072121
    34 1.719423 0.000002 0.000000 0.000000 0.000000 -0.676756
    35 1.099667 0.000002 0.000000 0.000000 0.000000 -1.021287
    36 0.806021 -0.359837 -1.318334 1.349685 0.343493 -0.771450
    37 1.789782 0.000000 -0.000004 0.000000 0.000000 0.397500
    38 1.206999 0.000003 0.000002 0.000000 0.000000 0.989033
    39 6.104525 -1.468680 -3.530283 -1.564198 -0.011689 -1.581440
    40 3.820738 -1.409994 -0.589409 -1.564198 -0.011689 -1.581440
  time 14
    0 0.000005 3.335938 -8.640625 -1.570781 -1.391896 -1.570809
    1 2.033349 1.000767 1.937660 1.596637 -1.286515 2.942961
    2 6.028141 0.000000 0.000000 -1.579228 0.357999 -1.145030
    3 11.692554 0.000001 0.000002 0.000000 0.000000 -1.541525
    4 11.481674 0.000001 -0.000032 1.573168 -0.028074 0.044378
    5 3.859709 -0.142404 -1.191975 -0.476793 0.134331 -0.965122
    6 1.312555 -0.000002 0.000001 0.000000 0.000000 -0.279217
    7 0.729363 -0.000002 -0.000002 0.000000 0.000000 -0.096880
    8 3.942335 0.046767 -0.431443 -0.145081 0.087432 -0.741678
    9 1.539097 0.000000 0.000000 0.000000 0.000000 -0.309316
    10 1.196326 -0.000002 -0.000001 0.000000 0.000000 -0.521199
    11 3.883696 -0.046765 0.431443 0.085902 0.021830 -0.587867
    12 1.719570 -0.000004 -0.000001 0.000000 0.005516 -0.366478
    13 1.209171 -0.000002 0.000000 0.000000 0.003084 -0.216400
    14 3.859865 -0.137947 1.332466 0.354449 -0.042750 -0.531718
    15 1.719429 0.000002 -0.000001 0.000000 0.004074 -0.363009
    16 1.099665 0.000000 0.000000 0.000000 0.002596 -0.244331
    17 0.806053 -0.348925 1.321258 -1.166382 -0.626621 -0.921969
    18 1.789780 -0.000002 0.000002 0.000000 0.000000 0.189105
    19 1.207006 0.000000 0.000000 0.000000 0.000000 0.306015
    20 2.033356 1.000772 -1.937610 -1.668474 1.286518 2.942953
    21 6.028144 0.000000 0.000000 1.656353 1.405102 -0.917421
    22 11.692554 0.000001 0.000003 0.000000 0.000000 -0.457189
    23 11.481697 0.000001 0.000002 -1.256188 0.020095 0.148304
    24 3.859678 -0.132570 1.193109 0.432208 -0.155862 -0.861350
    25 1.312557 -0.000002 0.000001 0.000000 0.000000 -1.191973
    26 0.729365 0.000002 -0.000002 0.000000 0.000000 -1.063371
    27 3.942305 0.050327 0.431044 0.232421 0.000609 -0.853331
    28 1.539099 -0.000002 0.000000 0.000000 0.000000 -0.973379
    29 1.196321 0.000008 0.000000 0.000000 0.000000 -1.451289
    30 3.883661 -0.050323 -0.431042 0.066987 0.050243 -0.694792
    31 1.719578 0.000004 0.000000 0.000000 0.000000 -1.251039
    32 1.209185 0.000002 0.000000 0.000000 0.000000 -1.141170
    33 3.859838 -0.148937 -1.331282 -0.248855 0.263129 -0.072121
    34 1.719423 0.000002 0.000000 0.000000 0.000000 -0.676756
    35 1.099667 0.000002 0.000000 0.000000 0.000000 -1.021287
    36 0.806021 -0.359837 -1.318334 1.349685 0.343493 -0.771450
    37 1.789782 0.000000 -0.000004 0.000000 0.000000 0.397500
    38 1.206999 0.000003 0.000002 0.000000 0.000000 0.989033
    39 6.104525 -1.468680 -3.530283 -1.564198 -0.011689 -1.581440
    40 3.820738 -1.409994 -0.589409 -1.564198 -0.011689 -1.581440
  time 15
    0 0.000005 3.335938 -8.640625 -1.570781 -1.391896 -1.570809
    1 2.033349 1.000767 1.937660 1.596637 -1.286515 2.942961
    2 6.028141 0.000000 0.000000 -1.579228 0.357999 -1.145030
    3 11.692554 0.000001 0.000002 0.000000 0.000000 -1.541525
    4 11.481674 0.000001 -0.000032 1.573168 -0.028074 0.044378
    5 3.859709 -0.142404 -1.191975 -0.476793 0.134331 -0.965122
    6 1.312555 -0.000002 0.000001 0.000000 0.000000 -0.279217
    7 0.729363 -0.000002 -0.000002 0.000000 0.000000 -0.096880
    8 3.942335 0.046767 -0.431443 -0.145081 0.087432 -0.741678
    9 1.539097 0.000000 0.000000 0.000000 0.000000 -0.309316
    10 1.196326 -0.000002 -0.000001 0.000000 0.000000 -0.521199
    11 3.883696 -0.046765 0.431443 0.085902 0.021830 -0.587867
    12 1.719570 -0.000004 -0.000001 0.000000 0.005516 -0.366478
    13 1.209171 -0.000002 0.000000 0.000000 0.003084 -0.216400
    14 3.859865 -0.137947 1.332466 0.354449 -0.042750 -0.531718
    15 1.719429 0.000002 -0.000001 0.000000 0.004074 -0.363009
    16 1.099665 0.000000 0.000000 0.000000 0.002596 -0.244331
    17 0.806053 -0.348925 1.321258 -1.166382 -0.626621 -0.921969
    18 1.789780 -0.000002 0.000002 0.000000 0.000000 0.189105
    19 1.207006 0.000000 0.000000 0.000000 0.000000 0.306015
    20 2.033356 1.000772 -1.937610 -1.668474 1.286518 2.942953
    21 6.028144 0.000000 0.000000 1.737897 1.445482 -0.830791
    22 11.692554 0.000001 0.000003 0.000000 0.000000 -0.415120
    23 11.481697 0.000001 0.000002 -1.273728 0.041708 0.111232
    24 3.859678 -0.132570 1.193109 0.432208 -0.155862 -0.861350
    25 1.312557 -0.000002 0.000001 0.000000 0.000000 -1.191973
    26 0.729365 0.000002 -0.000002 0.000000 0.000000 -1.063371
    27 3.942305 0.050327 0.431044 0.232421 0.000609 -0.853331
    28 1.539099 -0.000002 0.000000 0.000000 0.000000 -0.973379
    29 1.196321 0.000008 0.000000 0.000000 0.000000 -1.451289
    30 3.883661 -0.050323 -0.431042 0.066987 0.050243 -0.694792
    31 1.719578 0.000004 0.000000 0.000000 0.000000 -1.251039
    32 1.209185 0.000002 0.000000 0.000000 0.000000 -1.141170
    33 3.859838 -0.148937 -1.331282 -0.248855 0.263129 -0.072121
    34 1.719423 0.000002 0.000000 0.000000 0.000000 -0.676756
    35 1.099667 0.000002 0.000000 0.000000 0.000000 -1.021287
    36 0.806021 -0.359837 -1.318334 1.349685 0.343493 -0.771450
    37 1.789782 0.000000 -0.000004 0.000000 0.000000 0.397500
    38 1.206999 0.000003 0.000002 0.000000 0.000000 0.989033
    39 6.104525 -1.468680 -3.530283 -1.564198 -0.011689 -1.581440
    40 3.820738 -1.409994 -0.589409 -1.564198 -0.011689 -1.581440
  time 16
    0 0.000005 3.335938 -8.640625 -1.570781 -1.391896 -1.570809
    1 2.033349 1.000767 1.937660 1.596637 -1.286515 2.942961
    2 6.028141 0.000000 0.000000 -1.579228 0.357999 -1.145030
    3 11.692554 0.000001 0.000002 0.000000 0.000000 -1.541525
    4 11.481674 0.000001 -0.000032 1.573168 -0.028074 0.044378
    5 3.859709 -0.142404 -1.191975 -0.476793 0.134331 -0.965122
    6 1.312555 -0.000002 0.000001 0.000000 0.000000 -0.279217
    7 0.729363 -0.000002 -0.000002 0.000000 0.000000 -0.096880
    8 3.942335 0.046767 -0.431443 -0.145081 0.087432 -0.741678
    9 1.539097 0.000000 0.000000 0.000000 0.000000 -0.309316
    10 1.196326 -0.000002 -0.000001 0.000000 0.000000 -0.521199
    11 3.883696 -0.046765 0.431443 0.085902 0.021830 -0.587867
    12 1.719570 -0.000004 -0.000001 0.000000 0.005516 -0.366478
    13 1.209171 -0.000002 0.000000 0.000000 0.003084 -0.216400
    14 3.859865 -0.137947 1.332466 0.354449 -0.042750 -0.531718
    15 1.719429 0.000002 -0.000001 0.000000 0.004074 -0.363009
    16 1.099665 0.000000 0.000000 0.000000 0.002596 -0.244331
    17 0.806053 -0.348925 1.321258 -1.166382 -0.626621 -0.921969
    18 1.789780 -0.000002 0.000002 0.000000 0.000000 0.189105
    19 1.207006 0.000000 0.000000 0.000000 0.000000 0.306015
    20 2.033356 1.000772 -1.937610 -1.668474 1.286518 2.942953
    21 6.028144 0.000000 0.000000 1.846884 1.475487 -0.717736
    22 11.692554 0.000001 0.000003 0.000000 0.000000 -0.381848
    23 11.481697 0.000001 0.000002 -1.290415 0.046088 0.099021
    24 3.859678 -0.132570 1.193109 0.432208 -0.155862 -0.861350
    25 1.312557 -0.000002 0.000001 0.000000 0.000000 -1.191973
    26 0.729365 0.000002 -0.000002 0.000000 0.000000 -1.063371
    27 3.942305 0.050327 0.431044 0.232421 0.000609 -0.853331
    28 1.539099 -0.000002 0.000000 0.000000 0.000000 -0.973379
    29 1.196321 0.000008 0.000000 0.000000 0.000000 -1.451289
    30 3.883661 -0.050323 -0.431042 0.066987 0.050243 -0.694792
    31 1.719578 0.000004 0.000000 0.000000 0.000000 -1.251039
    32 1.209185 0.000002 0.000000 0.000000 0.000000 -1.141170
    33 3.859838 -0.148937 -1.331282 -0.248855 0.263129 -0.072121
    34 1.719423 0.000002 0.000000 0.000000 0.000000 -0.676756
    35 1.099667 0.000002 0.000000 0.000000 0.000000 -1.021287
    36 0.806021 -0.359837 -1.318334 1.349685 0.343493 -0.771450
    37 1.789782 0.000000 -0.000004 0.000000 0.000000 0.397500
    38 1.206999 0.000003 0.000002 0.000000 0.000000 0.989033
    39 6.104525 -1.468680 -3.530283 -1.564198 -0.011689 -1.581440
    40 3.820738 -1.409994 -0.589409 -1.564198 -0.011689 -1.581440
  time 17
    0 0.000005 3.335938 -8.640625 -1.570781 -1.391896 -1.570809
    1 2.033349 1.000767 1.937660 1.596637 -1.286515 2.942961
    2 6.028141 0.000000 0.000000 -1.579228 0.357999 -1.145030
    3 11.692554 0.000001 0.000002 0.000000 0.000000 -1.541525
    4 11.481674 0.000001 -0.000032 1.573168 -0.028074 0.044378
    5 3.859709 -0.142404 -1.191975 -0.476793 0.134331 -0.965122
    6 1.312555 -0.000002 0.000001 0.000000 0.000000 -0.279217
    7 0.729363 -0.000002 -0.000002 0.000000 0.000000 -0.096880
    8 3.942335 0.046767 -0.431443 -0.145081 0.087432 -0.741678
    9 1.539097 0.000000 0.000000 0.000000 0.000000 -0.309316
    10 1.196326 -0.000002 -0.000001 0.000000 0.000000 -0.521199
    11 3.883696 -0.046765 0.431443 0.085902 0.021830 -0.587867
    12 1.719570 -0.000004 -0.000001 0.000000 0.005516 -0.366478
    13 1.209171 -0.000002 0.000000 0.000000 0.003084 -0.216400
    14 3.859865 -0.137947 1.332466 0.354449 -0.042750 -0.531718
    15 1.719429 0.000002 -0.000001 0.000000 0.004074 -0.363009
    16 1.099665 0.000000 0.000000 0.000000 0.002596 -0.244331
    17 0.806053 -0.348925 1.321258 -1.166382 -0.626621 -0.921969
    18 1.789780 -0.000002 0.000002 0.000000 0.000000 0.189105
    19 1.207006 0.000000 0.000000 0.000000 0.000000 0.306015
    20 2.033356 1.000772 -1.937610 -1.668474 1.286518 2.942953
    21 6.028144 0.000000 0.000000 1.975711 1.495677 -0.585927
    22 11.692554 0.000001 0.000003 0.000000 0.000000 -0.357411
    23 11.481697 0.000001 0.000002 -1.304051 0.044134 0.099439
    24 3.859678 -0.132570 1.193109 0.432208 -0.155862 -0.861350
    25 1.312557 -0.000002 0.000001 0.000000 0.000000 -1.191973
    26 0.729365 0.000002 -0.000002 0.000000 0.000000 -1.063371
    27 3.942305 0.050327 0.431044 0.232421 0.000609 -0.853331
    28 1.539099 -0.000002 0.000000 0.000000 0.000000 -0.973379
    29 1.196321 0.000008 0.000000 0.000000 0.000000 -1.451289
    30 3.883661 -0.050323 -0.431042 0.066987 0.050243 -0.694792
    31 1.719578 0.000004 0.000000 0.000000 0.000000 -1.251039
    32 1.209185 0.000002 0.000000 0.000000 0.000000 -1.141170
    33 3.859838 -0.148937 -1.331282 -0.248855 0.263129 -0.072121
    34 1.719423 0.000002 0.000000 0.000000 0.000000 -0.676756
    35 1.099667 0.000002 0.000000 0.000000 0.000000 -1.021287
    36 0.806021 -0.359837 -1.318334 1.349685 0.343493 -0.771450
    37 1.789782 0.000000 -0.000004 0.000000 0.000000 0.397500
    38 1.206999 0.000003 0.000002 0.000000 0.000000 0.989033
    39 6.104525 -1.468680 -3.530283 -1.564198 -0.011689 -1.581440
    40 3.820738 -1.409994 -0.589409 -1.564198 -0.011689 -1.581440
  time 18
    0 0.000005 3.335938 -8.640625 -1.570781 -1.391896 -1.570809
    1 2.033349 1.000767 1.937660 1.596637 -1.286515 2.942961
    2 6.028141 0.000000 0.000000 -1.579228 0.357999 -1.145030
    3 11.692554 0.000001 0.000002 0.000000 0.000000 -1.541525
    4 11.481674 0.000001 -0.000032 1.573168 -0.028074 0.044378
    5 3.859709 -0.142404 -1.191975 -0.476793 0.134331 -0.965122
    6 1.312555 -0.000002 0.000001 0.000000 0.000000 -0.279217
    7 0.729363 -0.000002 -0.000002 0.000000 0.000000 -0.096880
    8 3.942335 0.046767 -0.431443 -0.145081 0.087432 -0.741678
    9 1.539097 0.000000 0.000000 0.000000 0.000000 -0.309316
    10 1.196326 -0.000002 -0.000001 0.000000 0.000000 -0.521199
    11 3.883696 -0.046765 0.431443 0.085902 0.021830 -0.587867
    12 1.719570 -0.000004 -0.000001 0.000000 0.005516 -0.366478
    13 1.209171 -0.000002 0.000000 0.000000 0.003084 -0.216400
    14 3.859865 -0.137947 1.332466 0.354449 -0.042750 -0.531718
    15 1.719429 0.000002 -0.000001 0.000000 0.004074 -0.363009
    16 1.099665 0.000000 0.000000 0.000000 0.002596 -0.244331
    17 0.806053 -0.348925 1.321258 -1.166382 -0.626621 -0.921969
    18 1.789780 -0.000002 0.000002 0.000000 0.000000 0.189105
    19 1.207006 0.000000 0.000000 0.000000 0.000000 0.306015
    20 2.033356 1.000772 -1.937610 -1.668474 1.286518 2.942953
    21 6.028144 0.000000 0.000000 2.101303 1.507969 -0.458473
    22 11.692554 0.000001 0.000003 0.000000 0.000000 -0.340080
    23 11.481697 0.000001 0.000002 -1.312839 0.039240 0.107579
    24 3.859678 -0.132570 1.193109 0.432208 -0.155862 -0.861350
    25 1.312557 -0.000002 0.000001 0.000000 0.000000 -1.191973
    26 0.729365 0.000002 -0.000002 0.000000 0.000000 -1.063371
    27 3.942305 0.050327 0.431044 0.232421 0.000609 -0.853331
    28 1.539099 -0.000002 0.000000 0.000000 0.000000 -0.973379
    29 1.196321 0.000008 0.000000 0.000000 0.000000 -1.451289
    30 3.883661 -0.050323 -0.431042 0.066987 0.050243 -0.694792
    31 1.719578 0.000004 0.000000 0.000000 0.000000 -1.251039
    32 1.209185 0.000002 0.000000 0.000000 0.000000 -1.141170
    33 3.859838 -0.148937 -1.331282 -0.248855 0.263129 -0.072121
    34 1.719423 0.000002 0.000000 0.000000 0.000000 -0.676756
    35 1.099667 0.000002 0.000000 0.000000 0.000000 -1.021287
    36 0.806021 -0.359837 -1.318334 1.349685 0.343493 -0.771450
    37 1.789782 0.000000 -0.000004 0.000000 0.000000 0.397500
    38 1.206999 0.000003 0.000002 0.000000 0.000000 0.989033
    39 6.104525 -1.468680 -3.530283 -1.564198 -0.011689 -1.581440
    40 3.820738 -1.409994 -0.589409 -1.564198 -0.011689 -1.581440
  time 19
    0 0.000005 3.335938 -8.640625 -1.570781 -1.391896 -1.570809
    1 2.033349 1.000767 1.937660 1.596637 -1.286515 2.942961
    2 6.028141 0.000000 0.000000 -1.579228 0.357999 -1.145030
    3 11.692554 0.000001 0.000002 0.000000 0.000000 -1.541525
    4 11.481674 0.000001 -0.000032 1.573168 -0.028074 0.044378
    5 3.859709 -0.142404 -1.191975 -0.476793 0.134331 -0.965122
    6 1.312555 -0.000002 0.000001 0.000000 0.000000 -0.279217
    7 0.729363 -0.000002 -0.000002 0.000000 0.000000 -0.096880
    8 3.942335 0.046767 -0.431443 -0.145081 0.087432 -0.741690
    9 1.539097 0.000000 0.000000 0.000000 0.000000 -0.309316
    10 1.196326 -0.000002 -0.000001 0.000000 0.000000 -0.521199
    11 3.883696 -0.046765 0.431443 0.085902 0.021830 -0.587867
    12 1.719570 -0.000004 -0.000001 0.000000 0.005516 -0.366478
    13 1.209171 -0.000002 0.000000 0.000000 0.003084 -0.216400
    14 3.859865 -0.137947 1.332466 0.354449 -0.042750 -0.531718
    15 1.719429 0.000002 -0.000001 0.000000 0.004074 -0.363009
    16 1.099665 0.000000 0.000000 0.000000 0.002596 -0.244331
    17 0.806053 -0.348925 1.321258 -1.166382 -0.626621 -0.921969
    18 1.789780 -0.000002 0.000002 0.000000 0.000000 0.189105
    19 1.207006 0.000000 0.000000 0.000000 0.000000 0.306015
    20 2.033356 1.000772 -1.937610 -1.668474 1.286518 2.942953
    21 6.028144 0.000000 0.000000 2.202770 1.515353 -0.356138
    22 11.692554 0.000001 0.000003 0.000000 0.000000 -0.326395
    23 11.481697 0.000001 0.000002 -1.312857 0.032886 0.120824
    24 3.859678 -0.132570 1.193109 0.432208 -0.155862 -0.861350
    25 1.312557 -0.000002 0.000001 0.000000 0.000000 -1.191973
    26 0.729365 0.000002 -0.000002 0.000000 0.000000 -1.063371
    27 3.942305 0.050327 0.431044 0.232421 0.000609 -0.853331
    28 1.539099 -0.000002 0.000000 0.000000 0.000000 -0.973379
    29 1.196321 0.000008 0.000000 0.000000 0.000000 -1.451289
    30 3.883661 -0.050323 -0.431042 0.066987 0.050243 -0.694792
    31 1.719578 0.000004 0.000000 0.000000 0.000000 -1.251039
    32 1.209185 0.000002 0.000000 0.000000 0.000000 -1.141170
    33 3.859838 -0.148937 -1.331282 -0.248855 0.263129 -0.072121
    34 1.719423 0.000002 0.000000 0.000000 0.000000 -0.676756
    35 1.099667 0.000002 0.000000 0.000000 0.000000 -1.021287
    36 0.806021 -0.359837 -1.318334 1.349685 0.343493 -0.771450
    37 1.789782 0.000000 -0.000004 0.000000 0.000000 0.397500
    38 1.206999 0.000003 0.000002 0.000000 0.000000 0.989033
    39 6.104525 -1.468680 -3.530283 -1.564198 -0.011689 -1.581440
    40 3.820738 -1.409994 -0.589409 -1.564198 -0.011689 -1.581440
  time 20
    0 0.000005 3.335938 -8.640625 -1.570781 -1.391896 -1.570809
    1 2.033349 1.000767 1.937660 1.596637 -1.286515 2.942961
    2 6.028141 0.000000 0.000000 -1.579228 0.357999 -1.145030
    3 11.692554 0.000001 0.000002 0.000000 0.000000 -1.541525
    4 11.481674 0.000001 -0.000032 1.573168 -0.028074 0.044378
    5 3.859709 -0.142404 -1.191975 -0.476793 0.134331 -0.965122
    6 1.312555 -0.000002 0.000001 0.000000 0.000000 -0.279217
    7 0.729363 -0.000002 -0.000002 0.000000 0.000000 -0.096880
    8 3.942335 0.046767 -0.431443 -0.145081 0.087432 -0.741690
    9 1.539097 0.000000 0.000000 0.000000 0.000000 -0.309316
    10 1.196326 -0.000002 -0.000001 0.000000 0.000000 -0.521199
    11 3.883696 -0.046765 0.431443 0.085902 0.021830 -0.587867
    12 1.719570 -0.000004 -0.000001 0.000000 0.005516 -0.366478
    13 1.209171 -0.000002 0.000000 0.000000 0.003084 -0.216400
    14 3.859865 -0.137947 1.332466 0.354449 -0.042750 -0.531718
    15 1.719429 0.000002 -0.000001 0.000000 0.004074 -0.363009
    16 1.099665 0.000000 0.000000 0.000000 0.002596 -0.244331
    17 0.806053 -0.348925 1.321258 -1.166382 -0.626621 -0.921969
    18 1.789780 -0.000002 0.000002 0.000000 0.000000 0.189105
    19 1.207006 0.000000 0.000000 0.000000 0.000000 0.306015
    20 2.033356 1.000772 -1.937610 -1.668474 1.286518 2.942953
    21 6.028144 0.000000 0.000000 2.288724 1.521008 -0.270064
    22 11.692554 0.000001 0.000003 0.000000 0.000000 -0.311658
    23 11.481697 0.000001 0.000002 -1.305721 0.025997 0.137414
    24 3.859678 -0.132570 1.193109 0.432208 -0.155862 -0.861350
    25 1.312557 -0.000002 0.000001 0.000000 0.000000 -1.191973
    26 0.729365 0.000002 -0.000002 0.000000 0.000000 -1.063371
    27 3.942305 0.050327 0.431044 0.232421 0.000609 -0.853331
    28 1.539099 -0.000002 0.000000 0.000000 0.000000 -0.973379
    29 1.196321 0.000008 0.000000 0.000000 0.000000 -1.451289
    30 3.883661 -0.050323 -0.431042 0.066987 0.050243 -0.694792
    31 1.719578 0.000004 0.000000 0.000000 0.000000 -1.251039
    32 1.209185 0.000002 0.000000 0.000000 0.000000 -1.141170
    33 3.859838 -0.148937 -1.331282 -0.248855 0.263129 -0.072121
    34 1.719423 0.000002 0.000000 0.000000 0.000000 -0.676756
    35 1.099667 0.000002 0.000000 0.000000 0.000000 -1.021287
    36 0.806021 -0.359837 -1.318334 1.349685 0.343493 -0.771450
    37 1.789782 0.000000 -0.000004 0.000000 0.000000 0.397500
    38 1.206999 0.000003 0.000002 0.000000 0.000000 0.989033
    39 6.104525 -1.468680 -3.530283 -1.564198 -0.011689 -1.581440
    40 3.820738 -1.409994 -0.589409 -1.564198 -0.011689 -1.581440
  time 21
    0 0.000005 3.335938 -8.640625 -1.570781 -1.391896 -1.570809
    1 2.033349 1.000767 1.937660 1.596637 -1.286515 2.942961
    2 6.028141 0.000000 0.000000 -1.579228 0.357999 -1.145030
    3 11.692554 0.000001 0.000002 0.000000 0.000000 -1.541525
    4 11.481674 0.000001 -0.000032 1.573168 -0.028074 0.044378
    5 3.859709 -0.142404 -1.191975 -0.476793 0.134331 -0.965122
    6 1.312555 -0.000002 0.000001 0.000000 0.000000 -0.279217
    7 0.729363 -0.000002 -0.000002 0.000000 0.000000 -0.096880
    8 3.942335 0.046767 -0.431443 -0.145081 0.087432 -0.741690
    9 1.539097 0.000000 0.000000 0.000000 0.000000 -0.309316
    10 1.196326 -0.000002 -0.000001 0.000000 0.000000 -0.521199
    11 3.883696 -0.046765 0.431443 0.085902 0.021830 -0.587867
    12 1.719570 -0.000004 -0.000001 0.000000 0.005516 -0.366478
    13 1.209171 -0.000002 0.000000 0.000000 0.003084 -0.216400
    14 3.859865 -0.137947 1.332466 0.354449 -0.042750 -0.531718
    15 1.719429 0.000002 -0.000001 0.000000 0.004074 -0.363009
    16 1.099665 0.000000 0.000000 0.000000 0.002596 -0.244331
    17 0.806053 -0.348925 1.321258 -1.166382 -0.626621 -0.921969
    18 1.789780 -0.000002 0.000002 0.000000 0.000000 0.189105
    19 1.207006 0.000000 0.000000 0.000000 0.000000 0.306015
    20 2.033356 1.000772 -1.937610 -1.668474 1.286518 2.942953
    21 6.028144 0.000000 0.000000 2.314538 1.523345 -0.244656
    22 11.692554 0.000001 0.000003 0.000000 0.000000 -0.302635
    23 11.481697 0.000001 0.000002 -1.299130 0.019314 0.155917
    24 3.859678 -0.132570 1.193109 0.432208 -0.155862 -0.861350
    25 1.312557 -0.000002 0.000001 0.000000 0.000000 -1.191973
    26 0.729365 0.000002 -0.000002 0.000000 0.000000 -1.063371
    27 3.942305 0.050327 0.431044 0.232421 0.000609 -0.853331
    28 1.539099 -0.000002 0.000000 0.000000 0.000000 -0.973379
    29 1.196321 0.000008 0.000000 0.000000 0.000000 -1.451289
    30 3.883661 -0.050323 -0.431042 0.066987 0.050243 -0.694792
    31 1.719578 0.000004 0.000000 0.000000 0.000000 -1.251039
    32 1.209185 0.000002 0.000000 0.000000 0.000000 -1.141170
    33 3.859838 -0.148937 -1.331282 -0.248855 0.263129 -0.072121
    34 1.719423 0.000002 0.000000 0.000000 0.000000 -0.676756
    35 1.099667 0.000002 0.000000 0.000000 0.000000 -1.021287
    36 0.806021 -0.359837 -1.318334 1.349685 0.343493 -0.771450
    37 1.789782 0.000000 -0.000004 0.000000 0.000000 0.397500
    38 1.206999 0.000003 0.000002 0.000000 0.000000 0.989033
    39 6.104525 -1.468680 -3.530283 -1.564198 -0.011689 -1.581440
    40 3.820738 -1.409994 -0.589409 -1.564198 -0.011689 -1.581440
  time 22
    0 0.000005 3.335938 -8.640625 -1.570781 -1.391896 -1.570809
    1 2.033349 1.000767 1.937660 1.596637 -1.286515 2.942961
    2 6.028141 0.000000 0.000000 -1.579228 0.357999 -1.145030
    3 11.692554 0.000001 0.000002 0.000000 0.000000 -1.541525
    4 11.481674 0.000001 -0.000032 1.573168 -0.028074 0.044378
    5 3.859709 -0.142404 -1.191975 -0.476793 0.134331 -0.965122
    6 1.312555 -0.000002 0.000001 0.000000 0.000000 -0.279217
    7 0.729363 -0.000002 -0.000002 0.000000 0.000000 -0.096880
    8 3.942335 0.046767 -0.431443 -0.145081 0.087432 -0.741690
    9 1.539097 0.000000 0.000000 0.000000 0.000000 -0.309316
    10 1.196326 -0.000002 -0.000001 0.000000 0.000000 -0.521199
    11 3.883696 -0.046765 0.431443 0.085902 0.021830 -0.587867
    12 1.719570 -0.000004 -0.000001 0.000000 0.005516 -0.366478
    13 1.209171 -0.000002 0.000000 0.000000 0.003084 -0.216400
    14 3.859865 -0.137947 1.332466 0.354449 -0.042750 -0.531718
    15 1.719429 0.000002 -0.000001 0.000000 0.004074 -0.363009
    16 1.099665 0.000000 0.000000 0.000000 0.002596 -0.244331
    17 0.806053 -0.348925 1.321258 -1.166382 -0.626621 -0.921969
    18 1.789780 -0.000002 0.000002 0.000000 0.000000 0.189105
    19 1.207006 0.000000 0.000000 0.000000 0.000000 0.306015
    20 2.033356 1.000772 -1.937610 -1.668474 1.286518 2.942953
    21 6.028144 0.000000 0.000000 2.245891 1.520868 -0.314081
    22 11.692554 0.000001 0.000003 0.000000 0.000000 -0.305417
    23 11.481697 0.000001 0.000002 -1.293737 0.013453 0.174816
    24 3.859678 -0.132570 1.193109 0.432208 -0.155862 -0.861350
    25 1.312557 -0.000002 0.000001 0.000000 0.000000 -1.191973
    26 0.729365 0.000002 -0.000002 0.000000 0.000000 -1.063371
    27 3.942305 0.050327 0.431044 0.232421 0.000609 -0.853331
    28 1.539099 -0.000002 0.000000 0.000000 0.000000 -0.973379
    29 1.196321 0.000008 0.000000 0.000000 0.000000 -1.451289
    30 3.883661 -0.050323 -0.431042 0.066987 0.050243 -0.694792
    31 1.719578 0.000004 0.000000 0.000000 0.000000 -1.251039
    32 1.209185 0.000002 0.000000 0.000000 0.000000 -1.141170
    33 3.859838 -0.148937 -1.331282 -0.248855 0.263129 -0.072121
    34 1.719423 0.000002 0.000000 0.000000 0.000000 -0.676756
    35 1.099667 0.000002 0.000000 0.000000 0.000000 -1.021287
    36 0.806021 -0.359837 -1.318334 1.349685 0.343493 -0.771450
    37 1.789782 0.000000 -0.000004 0.000000 0.000000 0.397500
    38 1.206999 0.000003 0.000002 0.000000 0.000000 0.989033
    39 6.104525 -1.468680 -3.530283 -1.564198 -0.011689 -1.581440
    40 3.820738 -1.409994 -0.589409 -1.564198 -0.011689 -1.581440
  time 23
    0 0.000005 3.335938 -8.640625 -1.570781 -1.391896 -1.570809
    1 2.033349 1.000767 1.937660 1.596637 -1.286515 2.942961
    2 6.028141 0.000000 0.000000 -1.579228 0.357999 -1.145030
    3 11.692554 0.000001 0.000002 0.000000 0.000000 -1.541525
    4 11.481674 0.000001 -0.000032 1.573168 -0.028074 0.044378
    5 3.859709 -0.142404 -1.191975 -0.476793 0.134331 -0.965122
    6 1.312555 -0.000002 0.000001 0.000000 0.000000 -0.279217
    7 0.729363 -0.000002 -0.000002 0.000000 0.000000 -0.096880
    8 3.942335 0.046767 -0.431443 -0.145081 0.087432 -0.741690
    9 1.539097 0.000000 0.000000 0.000000 0.000000 -0.309316
    10 1.196326 -0.000002 -0.000001 0.000000 0.000000 -0.521199
    11 3.883696 -0.046765 0.431443 0.085902 0.021830 -0.587867
    12 1.719570 -0.000004 -0.000001 0.000000 0.005516 -0.366478
    13 1.209171 -0.000002 0.000000 0.000000 0.003084 -0.216400
    14 3.859865 -0.137947 1.332466 0.354449 -0.042750 -0.531718
    15 1.719429 0.000002 -0.000001 0.000000 0.004074 -0.363009
    16 1.099665 0.000000 0.000000 0.000000 0.002596 -0.244331
    17 0.806053 -0.348925 1.321258 -1.166382 -0.626621 -0.921969
    18 1.789780 -0.000002 0.000002 0.000000 0.000000 0.189105
    19 1.207006 0.000000 0.000000 0.000000 0.000000 0.306015
    20 2.033356 1.000772 -1.937610 -1.668474 1.286518 2.942953
    21 6.028144 0.000000 0.000000 2.163090 1.516475 -0.397638
    22 11.692554 0.000001 0.000003 0.000000 0.000000 -0.312485
    23 11.481697 0.000001 0.000002 -1.290142 0.009156 0.191779
    24 3.859678 -0.132570 1.193109 0.432208 -0.155862 -0.861350
    25 1.312557 -0.000002 0.000001 0.000000 0.000000 -1.191973
    26 0.729365 0.000002 -0.000002 0.000000 0.000000 -1.063371
    27 3.942305 0.050327 0.431044 0.232421 0.000609 -0.853331
    28 1.539099 -0.000002 0.000000 0.000000 0.000000 -0.973379
    29 1.196321 0.000008 0.000000 0.000000 0.000000 -1.451289
    30 3.883661 -0.050323 -0.431042 0.066987 0.050243 -0.694792
    31 1.719578 0.000004 0.000000 0.000000 0.000000 -1.251039
    32 1.209185 0.000002 0.000000 0.000000 0.000000 -1.141170
    33 3.859838 -0.148937 -1.331282 -0.248855 0.263129 -0.072121
    34 1.719423 0.000002 0.000000 0.000000 0.000000 -0.676756
    35 1.099667 0.000002 0.000000 0.000000 0.000000 -1.021287
    36 0.806021 -0.359837 -1.318334 1.349685 0.343493 -0.771450
    37 1.789782 0.000000 -0.000004 0.000000 0.000000 0.397500
    38 1.206999 0.000003 0.000002 0.000000 0.000000 0.989033
    39 6.104525 -1.468680 -3.530283 -1.564198 -0.011689 -1.581440
    40 3.820738 -1.409994 -0.589409 -1.564198 -0.011689 -1.581440
  time 24
    0 0.000005 3.335938 -8.640625 -1.570781 -1.391896 -1.570809
    1 2.033349 1.000767 1.937660 1.596637 -1.286515 2.942961
    2 6.028141 0.000000 0.000000 -1.579228 0.357999 -1.145030
    3 11.692554 0.000001 0.000002 0.000000 0.000000 -1.541525
    4 11.481674 0.000001 -0.000032 1.573168 -0.028074 0.044378
    5 3.859709 -0.142404 -1.191975 -0.476793 0.134331 -0.965122
    6 1.312555 -0.000002 0.000001 0.000000 0.000000 -0.279217
    7 0.729363 -0.000002 -0.000002 0.000000 0.000000 -0.096880
    8 3.942335 0.046767 -0.431443 -0.145081 0.087432 -0.741690
    9 1.539097 0.000000 0.000000 0.000000 0.000000 -0.309316
    10 1.196326 -0.000002 -0.000001 0.000000 0.000000 -0.521199
    11 3.883696 -0.046765 0.431443 0.085902 0.021830 -0.587867
    12 1.719570 -0.000004 -0.000001 0.000000 0.005516 -0.366478
    13 1.209171 -0.000002 0.000000 0.000000 0.003084 -0.216400
    14 3.859865 -0.137947 1.332466 0.354449 -0.042750 -0.531718
    15 1.719429 0.000002 -0.000001 0.000000 0.004074 -0.363009
    16 1.099665 0.000000 0.000000 0.000000 0.002596 -0.244331
    17 0.806053 -0.348925 1.321258 -1.166382 -0.626621 -0.921969
    18 1.789780 -0.000002 0.000002 0.000000 0.000000 0.189105
    19 1.207006 0.000000 0.000000 0.000000 0.000000 0.306015
    20 2.033356 1.000772 -1.937610 -1.668474 1.286518 2.942953
    21 6.028144 0.000000 0.000000 2.118877 1.513671 -0.442333
    22 11.692554 0.000001 0.000003 0.000000 0.000000 -0.316658
    23 11.481697 0.000001 0.000002 -1.288835 0.007428 0.200690
    24 3.859678 -0.132570 1.193109 0.432208 -0.155862 -0.861350
    25 1.312557 -0.000002 0.000001 0.000000 0.000000 -1.191973
    26 0.729365 0.000002 -0.000002 0.000000 0.000000 -1.063371
    27 3.942305 0.050327 0.431044 0.232421 0.000609 -0.853331
    28 1.539099 -0.000002 0.000000 0.000000 0.000000 -0.973379
    29 1.196321 0.000008 0.000000 0.000000 0.000000 -1.451289
    30 3.883661 -0.050323 -0.431042 0.066987 0.050243 -0.694792
    31 1.719578 0.000004 0.000000 0.000000 0.000000 -1.251039
    32 1.209185 0.000002 0.000000 0.000000 0.000000 -1.141170
    33 3.859838 -0.148937 -1.331282 -0.248855 0.263129 -0.072121
    34 1.719423 0.000002 0.000000 0.000000 0.000000 -0.676756
    35 1.099667 0.000002 0.000000 0.000000 0.000000 -1.021287
    36 0.806021 -0.359837 -1.318334 1.349685 0.343493 -0.771450
    37 1.789782 0.000000 -0.000004 0.000000 0.000000 0.397500
    38 1.206999 0.000003 0.000002 0.000000 0.000000 0.989033
    39 6.104525 -1.468680 -3.530283 -1.564198 -0.011689 -1.581440
    40 3.820738 -1.409994 -0.589409 -1.564198 -0.011689 -1.581440
end
