// Created by Crowbar 0.74
version 1
nodes
  0 "ValveBiped.Bip01_Spine4" -1
  1 "ValveBiped.Bip01_L_Clavicle" 0
  2 "ValveBiped.Bip01_L_UpperArm" 1
  3 "ValveBiped.Bip01_L_Forearm" 2
  4 "ValveBiped.Bip01_L_Hand" 3
  5 "ValveBiped.Bip01_L_Finger4" 4
  6 "ValveBiped.Bip01_L_Finger41" 5
  7 "ValveBiped.Bip01_L_Finger42" 6
  8 "ValveBiped.Bip01_L_Finger3" 4
  9 "ValveBiped.Bip01_L_Finger31" 8
  10 "ValveBiped.Bip01_L_Finger32" 9
  11 "ValveBiped.Bip01_L_Finger2" 4
  12 "ValveBiped.Bip01_L_Finger21" 11
  13 "ValveBiped.Bip01_L_Finger22" 12
  14 "ValveBiped.Bip01_L_Finger1" 4
  15 "ValveBiped.Bip01_L_Finger11" 14
  16 "ValveBiped.Bip01_L_Finger12" 15
  17 "ValveBiped.Bip01_L_Finger0" 4
  18 "ValveBiped.Bip01_L_Finger01" 17
  19 "ValveBiped.Bip01_L_Finger02" 18
  20 "ValveBiped.Bip01_R_Clavicle" 0
  21 "ValveBiped.Bip01_R_UpperArm" 20
  22 "ValveBiped.Bip01_R_Forearm" 21
  23 "ValveBiped.Bip01_R_Hand" 22
  24 "ValveBiped.Bip01_R_Finger4" 23
  25 "ValveBiped.Bip01_R_Finger41" 24
  26 "ValveBiped.Bip01_R_Finger42" 25
  27 "ValveBiped.Bip01_R_Finger3" 23
  28 "ValveBiped.Bip01_R_Finger31" 27
  29 "ValveBiped.Bip01_R_Finger32" 28
  30 "ValveBiped.Bip01_R_Finger2" 23
  31 "ValveBiped.Bip01_R_Finger21" 30
  32 "ValveBiped.Bip01_R_Finger22" 31
  33 "ValveBiped.Bip01_R_Finger1" 23
  34 "ValveBiped.Bip01_R_Finger11" 33
  35 "ValveBiped.Bip01_R_Finger12" 34
  36 "ValveBiped.Bip01_R_Finger0" 23
  37 "ValveBiped.Bip01_R_Finger01" 36
  38 "ValveBiped.Bip01_R_Finger02" 37
  39 "ValveBiped.square" 23
  40 "ValveBiped.clip" 23
end
skeleton
  time 0
    0 0.000005 3.335938 -8.640625 -1.570781 -1.391896 -1.570809
    1 2.033349 1.000767 1.937660 1.596637 -1.286515 2.942961
    2 6.028141 0.000000 0.000000 -1.579228 0.357999 -1.145030
    3 11.692554 0.000001 0.000002 0.000000 0.000000 -1.541525
    4 11.481674 0.000001 -0.000032 1.573168 -0.028074 0.044378
    5 3.859709 -0.142404 -1.191975 -0.476793 0.134331 -0.965122
    6 1.312555 -0.000002 0.000001 0.000000 0.000000 -0.279217
    7 0.729363 -0.000002 -0.000002 0.000000 0.000000 -0.096880
    8 3.942335 0.046767 -0.431443 -0.145073 0.087435 -0.741656
    9 1.539097 0.000000 0.000000 0.000000 0.000000 -0.309335
    10 1.196326 -0.000002 -0.000001 0.000000 0.000000 -0.521226
    11 3.883696 -0.046765 0.431443 0.085902 0.021830 -0.587867
    12 1.719570 -0.000004 -0.000001 0.000000 0.005516 -0.366478
    13 1.209171 -0.000002 0.000000 0.000000 0.003084 -0.216400
    14 3.859865 -0.137947 1.332466 0.354449 -0.042750 -0.531718
    15 1.719429 0.000002 -0.000001 0.000000 0.004074 -0.363009
    16 1.099665 0.000000 0.000000 0.000000 0.002596 -0.244331
    17 0.806053 -0.348925 1.321258 -1.166382 -0.626621 -0.921969
    18 1.789780 -0.000002 0.000002 0.000000 0.000000 0.189105
    19 1.207006 0.000000 0.000000 0.000000 0.000000 0.306015
    20 2.033356 1.000772 -1.937610 -1.668474 1.286518 2.942953
    21 6.028144 0.000000 0.000000 1.415737 0.359516 -1.181184
    22 11.692554 0.000001 0.000003 0.000000 0.000000 -1.106156
    23 11.481697 0.000001 0.000002 -1.715390 -0.567218 0.743381
    24 3.859678 -0.132570 1.193109 0.432208 -0.155862 -0.861350
    25 1.312557 -0.000002 0.000001 0.000000 0.000000 -1.191994
    26 0.729365 0.000002 -0.000002 0.000000 0.000000 -1.063394
    27 3.942305 0.050327 0.431044 0.232421 0.000609 -0.853331
    28 1.539099 -0.000002 0.000000 0.000000 0.000000 -0.973399
    29 1.196321 0.000008 0.000000 0.000000 0.000000 -1.451289
    30 3.883661 -0.050323 -0.431042 0.066987 0.050243 -0.694792
    31 1.719578 0.000004 0.000000 0.000000 0.000000 -1.251039
    32 1.209185 0.000002 0.000000 0.000000 0.000000 -1.141170
    33 3.859838 -0.148937 -1.331282 -0.248859 0.263122 -0.072137
    34 1.719423 0.000002 0.000000 0.000000 0.000000 -0.676756
    35 1.099667 0.000002 0.000000 0.000000 0.000000 -1.021287
    36 0.806021 -0.359837 -1.318334 1.349685 0.343493 -0.771450
    37 1.789782 0.000000 -0.000004 0.000000 0.000000 0.397500
    38 1.206999 0.000003 0.000002 0.000000 0.000000 0.989033
    39 4.125000 -1.447266 -3.542969 -1.564198 -0.011689 -1.581440
    40 3.820738 -1.409994 -0.589409 -1.564198 -0.011689 -1.581440
  time 1
    0 0.000005 3.335938 -8.640625 -1.570781 -1.391896 -1.570809
    1 2.033349 1.000767 1.937660 1.596637 -1.286515 2.942961
    2 6.028141 0.000000 0.000000 -1.579228 0.357999 -1.145030
    3 11.692554 0.000001 0.000002 0.000000 0.000000 -1.541525
    4 11.481674 0.000001 -0.000032 1.573168 -0.028074 0.044378
    5 3.859709 -0.142404 -1.191975 -0.476793 0.134331 -0.965122
    6 1.312555 -0.000002 0.000001 0.000000 0.000000 -0.279217
    7 0.729363 -0.000002 -0.000002 0.000000 0.000000 -0.096880
    8 3.942335 0.046767 -0.431443 -0.145073 0.087435 -0.741656
    9 1.539097 0.000000 0.000000 0.000000 0.000000 -0.309335
    10 1.196326 -0.000002 -0.000001 0.000000 0.000000 -0.521226
    11 3.883696 -0.046765 0.431443 0.085902 0.021830 -0.587867
    12 1.719570 -0.000004 -0.000001 0.000000 0.005516 -0.366478
    13 1.209171 -0.000002 0.000000 0.000000 0.003084 -0.216400
    14 3.859865 -0.137947 1.332466 0.354449 -0.042750 -0.531718
    15 1.719429 0.000002 -0.000001 0.000000 0.004074 -0.363009
    16 1.099665 0.000000 0.000000 0.000000 0.002596 -0.244331
    17 0.806053 -0.348925 1.321258 -1.166382 -0.626621 -0.921969
    18 1.789780 -0.000002 0.000002 0.000000 0.000000 0.189105
    19 1.207006 0.000000 0.000000 0.000000 0.000000 0.306015
    20 2.033356 1.000772 -1.937610 -1.668474 1.286518 2.942953
    21 6.028144 0.000000 0.000000 1.415737 0.359516 -1.181184
    22 11.692554 0.000001 0.000003 0.000000 0.000000 -1.106156
    23 11.481697 0.000001 0.000002 -1.715390 -0.567218 0.743381
    24 3.859678 -0.132570 1.193109 0.432208 -0.155862 -0.861350
    25 1.312557 -0.000002 0.000001 0.000000 0.000000 -1.191994
    26 0.729365 0.000002 -0.000002 0.000000 0.000000 -1.063394
    27 3.942305 0.050327 0.431044 0.232421 0.000609 -0.853331
    28 1.539099 -0.000002 0.000000 0.000000 0.000000 -0.973399
    29 1.196321 0.000008 0.000000 0.000000 0.000000 -1.451289
    30 3.883661 -0.050323 -0.431042 0.066987 0.050243 -0.694792
    31 1.719578 0.000004 0.000000 0.000000 0.000000 -1.251039
    32 1.209185 0.000002 0.000000 0.000000 0.000000 -1.141170
    33 3.859838 -0.148937 -1.331282 -0.248859 0.263122 -0.072137
    34 1.719423 0.000002 0.000000 0.000000 0.000000 -0.676756
    35 1.099667 0.000002 0.000000 0.000000 0.000000 -1.021287
    36 0.806021 -0.359837 -1.318334 1.349685 0.343493 -0.771450
    37 1.789782 0.000000 -0.000004 0.000000 0.000000 0.397500
    38 1.206999 0.000003 0.000002 0.000000 0.000000 0.989033
    39 4.125000 -1.447266 -3.542969 -1.564198 -0.011689 -1.581440
    40 3.820738 -1.409994 -0.589409 -1.564198 -0.011689 -1.581440
  time 2
    0 0.000005 3.335938 -8.640625 -1.570781 -1.391896 -1.570809
    1 2.033349 1.000767 1.937660 1.596637 -1.286515 2.942961
    2 6.028141 0.000000 0.000000 -1.579228 0.357999 -1.145030
    3 11.692554 0.000001 0.000002 0.000000 0.000000 -1.541525
    4 11.481674 0.000001 -0.000032 1.573168 -0.028074 0.044378
    5 3.859709 -0.142404 -1.191975 -0.476793 0.134331 -0.965122
    6 1.312555 -0.000002 0.000001 0.000000 0.000000 -0.279217
    7 0.729363 -0.000002 -0.000002 0.000000 0.000000 -0.096880
    8 3.942335 0.046767 -0.431443 -0.145073 0.087435 -0.741656
    9 1.539097 0.000000 0.000000 0.000000 0.000000 -0.309335
    10 1.196326 -0.000002 -0.000001 0.000000 0.000000 -0.521226
    11 3.883696 -0.046765 0.431443 0.085902 0.021830 -0.587867
    12 1.719570 -0.000004 -0.000001 0.000000 0.005516 -0.366478
    13 1.209171 -0.000002 0.000000 0.000000 0.003084 -0.216400
    14 3.859865 -0.137947 1.332466 0.354449 -0.042750 -0.531718
    15 1.719429 0.000002 -0.000001 0.000000 0.004074 -0.363009
    16 1.099665 0.000000 0.000000 0.000000 0.002596 -0.244331
    17 0.806053 -0.348925 1.321258 -1.166382 -0.626621 -0.921969
    18 1.789780 -0.000002 0.000002 0.000000 0.000000 0.189105
    19 1.207006 0.000000 0.000000 0.000000 0.000000 0.306015
    20 2.033356 1.000772 -1.937610 -1.668474 1.286518 2.942953
    21 6.028144 0.000000 0.000000 1.415881 0.371294 -1.182225
    22 11.692554 0.000001 0.000003 0.000000 0.000000 -1.105667
    23 11.481697 0.000001 0.000002 -1.715226 -0.566724 0.745779
    24 3.859678 -0.132570 1.193109 0.432208 -0.155862 -0.861350
    25 1.312557 -0.000002 0.000001 0.000000 0.000000 -1.191994
    26 0.729365 0.000002 -0.000002 0.000000 0.000000 -1.063394
    27 3.942305 0.050327 0.431044 0.232421 0.000609 -0.853331
    28 1.539099 -0.000002 0.000000 0.000000 0.000000 -0.973399
    29 1.196321 0.000008 0.000000 0.000000 0.000000 -1.451289
    30 3.883661 -0.050323 -0.431042 0.066987 0.050243 -0.694792
    31 1.719578 0.000004 0.000000 0.000000 0.000000 -1.251039
    32 1.209185 0.000002 0.000000 0.000000 0.000000 -1.141170
    33 3.859838 -0.148937 -1.331282 -0.248859 0.263122 -0.072137
    34 1.719423 0.000002 0.000000 0.000000 0.000000 -0.676756
    35 1.099667 0.000002 0.000000 0.000000 0.000000 -1.021287
    36 0.806021 -0.359837 -1.318334 1.349685 0.343493 -0.771450
    37 1.789782 0.000000 -0.000004 0.000000 0.000000 0.397500
    38 1.206999 0.000003 0.000002 0.000000 0.000000 0.989033
    39 4.125000 -1.447266 -3.542969 -1.564198 -0.011689 -1.581440
    40 3.820738 -1.409994 -0.589409 -1.564198 -0.011689 -1.581440
  time 3
    0 0.000005 3.335938 -8.640625 -1.570781 -1.391896 -1.570809
    1 2.033349 1.000767 1.937660 1.596637 -1.286515 2.942961
    2 6.028141 0.000000 0.000000 -1.579228 0.357999 -1.145030
    3 11.692554 0.000001 0.000002 0.000000 0.000000 -1.541525
    4 11.481674 0.000001 -0.000032 1.573168 -0.028074 0.044378
    5 3.859709 -0.142404 -1.191975 -0.476793 0.134331 -0.965122
    6 1.312555 -0.000002 0.000001 0.000000 0.000000 -0.279217
    7 0.729363 -0.000002 -0.000002 0.000000 0.000000 -0.096880
    8 3.942335 0.046767 -0.431443 -0.145073 0.087435 -0.741656
    9 1.539097 0.000000 0.000000 0.000000 0.000000 -0.309335
    10 1.196326 -0.000002 -0.000001 0.000000 0.000000 -0.521226
    11 3.883696 -0.046765 0.431443 0.085902 0.021830 -0.587867
    12 1.719570 -0.000004 -0.000001 0.000000 0.005516 -0.366478
    13 1.209171 -0.000002 0.000000 0.000000 0.003084 -0.216400
    14 3.859865 -0.137947 1.332466 0.354449 -0.042750 -0.531718
    15 1.719429 0.000002 -0.000001 0.000000 0.004074 -0.363009
    16 1.099665 0.000000 0.000000 0.000000 0.002596 -0.244331
    17 0.806053 -0.348925 1.321258 -1.166382 -0.626621 -0.921969
    18 1.789780 -0.000002 0.000002 0.000000 0.000000 0.189105
    19 1.207006 0.000000 0.000000 0.000000 0.000000 0.306015
    20 2.033356 1.000772 -1.937610 -1.668474 1.286518 2.942953
    21 6.028144 0.000000 0.000000 1.418374 0.400598 -1.182273
    22 11.692554 0.000001 0.000003 0.000000 0.000000 -1.102810
    23 11.481697 0.000001 0.000002 -1.711340 -0.566149 0.748243
    24 3.859678 -0.132570 1.193109 0.432208 -0.155862 -0.861350
    25 1.312557 -0.000002 0.000001 0.000000 0.000000 -1.191994
    26 0.729365 0.000002 -0.000002 0.000000 0.000000 -1.063394
    27 3.942305 0.050327 0.431044 0.232421 0.000609 -0.853331
    28 1.539099 -0.000002 0.000000 0.000000 0.000000 -0.973399
    29 1.196321 0.000008 0.000000 0.000000 0.000000 -1.451289
    30 3.883661 -0.050323 -0.431042 0.066987 0.050243 -0.694792
    31 1.719578 0.000004 0.000000 0.000000 0.000000 -1.251039
    32 1.209185 0.000002 0.000000 0.000000 0.000000 -1.141170
    33 3.859838 -0.148937 -1.331282 -0.248859 0.263122 -0.072137
    34 1.719423 0.000002 0.000000 0.000000 0.000000 -0.676756
    35 1.099667 0.000002 0.000000 0.000000 0.000000 -1.021287
    36 0.806021 -0.359837 -1.318334 1.349685 0.343493 -0.771450
    37 1.789782 0.000000 -0.000004 0.000000 0.000000 0.397500
    38 1.206999 0.000003 0.000002 0.000000 0.000000 0.989033
    39 4.125000 -1.447266 -3.542969 -1.564198 -0.011689 -1.581440
    40 3.820738 -1.409994 -0.589409 -1.564198 -0.011689 -1.581440
  time 4
    0 0.000005 3.335938 -8.640625 -1.570781 -1.391896 -1.570809
    1 2.033349 1.000767 1.937660 1.596637 -1.286515 2.942961
    2 6.028141 0.000000 0.000000 -1.579228 0.357999 -1.145030
    3 11.692554 0.000001 0.000002 0.000000 0.000000 -1.541525
    4 11.481674 0.000001 -0.000032 1.573168 -0.028074 0.044378
    5 3.859709 -0.142404 -1.191975 -0.476793 0.134331 -0.965122
    6 1.312555 -0.000002 0.000001 0.000000 0.000000 -0.279217
    7 0.729363 -0.000002 -0.000002 0.000000 0.000000 -0.096880
    8 3.942335 0.046767 -0.431443 -0.145073 0.087435 -0.741656
    9 1.539097 0.000000 0.000000 0.000000 0.000000 -0.309335
    10 1.196326 -0.000002 -0.000001 0.000000 0.000000 -0.521226
    11 3.883696 -0.046765 0.431443 0.085902 0.021830 -0.587867
    12 1.719570 -0.000004 -0.000001 0.000000 0.005516 -0.366478
    13 1.209171 -0.000002 0.000000 0.000000 0.003084 -0.216400
    14 3.859865 -0.137947 1.332466 0.354449 -0.042750 -0.531718
    15 1.719429 0.000002 -0.000001 0.000000 0.004074 -0.363009
    16 1.099665 0.000000 0.000000 0.000000 0.002596 -0.244331
    17 0.806053 -0.348925 1.321258 -1.166382 -0.626621 -0.921969
    18 1.789780 -0.000002 0.000002 0.000000 0.000000 0.189105
    19 1.207006 0.000000 0.000000 0.000000 0.000000 0.306015
    20 2.033356 1.000772 -1.937610 -1.668474 1.286518 2.942953
    21 6.028144 0.000000 0.000000 1.423257 0.445137 -1.180628
    22 11.692554 0.000001 0.000003 0.000000 0.000000 -1.095028
    23 11.481697 0.000001 0.000002 -1.701808 -0.565470 0.750333
    24 3.859678 -0.132570 1.193109 0.432208 -0.155862 -0.861350
    25 1.312557 -0.000002 0.000001 0.000000 0.000000 -1.191994
    26 0.729365 0.000002 -0.000002 0.000000 0.000000 -1.063394
    27 3.942305 0.050327 0.431044 0.232421 0.000609 -0.853331
    28 1.539099 -0.000002 0.000000 0.000000 0.000000 -0.973399
    29 1.196321 0.000008 0.000000 0.000000 0.000000 -1.451289
    30 3.883661 -0.050323 -0.431042 0.066987 0.050243 -0.694792
    31 1.719578 0.000004 0.000000 0.000000 0.000000 -1.251039
    32 1.209185 0.000002 0.000000 0.000000 0.000000 -1.141170
    33 3.859838 -0.148937 -1.331282 -0.248859 0.263122 -0.072137
    34 1.719423 0.000002 0.000000 0.000000 0.000000 -0.676756
    35 1.099667 0.000002 0.000000 0.000000 0.000000 -1.021287
    36 0.806021 -0.359837 -1.318334 1.349685 0.343493 -0.771450
    37 1.789782 0.000000 -0.000004 0.000000 0.000000 0.397500
    38 1.206999 0.000003 0.000002 0.000000 0.000000 0.989033
    39 4.125000 -1.447266 -3.542969 -1.564198 -0.011689 -1.581440
    40 3.820738 -1.409994 -0.589409 -1.564198 -0.011689 -1.581440
  time 5
    0 0.000005 3.335938 -8.640625 -1.570781 -1.391896 -1.570809
    1 2.033349 1.000767 1.937660 1.596637 -1.286515 2.942961
    2 6.028141 0.000000 0.000000 -1.579228 0.357999 -1.145030
    3 11.692554 0.000001 0.000002 0.000000 0.000000 -1.541525
    4 11.481674 0.000001 -0.000032 1.573168 -0.028074 0.044378
    5 3.859709 -0.142404 -1.191975 -0.476793 0.134331 -0.965122
    6 1.312555 -0.000002 0.000001 0.000000 0.000000 -0.279217
    7 0.729363 -0.000002 -0.000002 0.000000 0.000000 -0.096880
    8 3.942335 0.046767 -0.431443 -0.145073 0.087435 -0.741656
    9 1.539097 0.000000 0.000000 0.000000 0.000000 -0.309335
    10 1.196326 -0.000002 -0.000001 0.000000 0.000000 -0.521226
    11 3.883696 -0.046765 0.431443 0.085902 0.021830 -0.587867
    12 1.719570 -0.000004 -0.000001 0.000000 0.005516 -0.366478
    13 1.209171 -0.000002 0.000000 0.000000 0.003084 -0.216400
    14 3.859865 -0.137947 1.332466 0.354449 -0.042750 -0.531718
    15 1.719429 0.000002 -0.000001 0.000000 0.004074 -0.363009
    16 1.099665 0.000000 0.000000 0.000000 0.002596 -0.244331
    17 0.806053 -0.348925 1.321258 -1.166382 -0.626621 -0.921969
    18 1.789780 -0.000002 0.000002 0.000000 0.000000 0.189105
    19 1.207006 0.000000 0.000000 0.000000 0.000000 0.306015
    20 2.033356 1.000772 -1.937610 -1.668474 1.286518 2.942953
    21 6.028144 0.000000 0.000000 1.429541 0.501735 -1.177603
    22 11.692554 0.000001 0.000003 0.000000 0.000000 -1.080929
    23 11.481697 0.000001 0.000002 -1.683432 -0.564689 0.751587
    24 3.859678 -0.132570 1.193109 0.432208 -0.155862 -0.861350
    25 1.312557 -0.000002 0.000001 0.000000 0.000000 -1.191994
    26 0.729365 0.000002 -0.000002 0.000000 0.000000 -1.063394
    27 3.942305 0.050327 0.431044 0.232421 0.000609 -0.853331
    28 1.539099 -0.000002 0.000000 0.000000 0.000000 -0.973399
    29 1.196321 0.000008 0.000000 0.000000 0.000000 -1.451289
    30 3.883661 -0.050323 -0.431042 0.066987 0.050243 -0.694792
    31 1.719578 0.000004 0.000000 0.000000 0.000000 -1.251039
    32 1.209185 0.000002 0.000000 0.000000 0.000000 -1.141170
    33 3.859838 -0.148937 -1.331282 -0.248859 0.263122 -0.072137
    34 1.719423 0.000002 0.000000 0.000000 0.000000 -0.676756
    35 1.099667 0.000002 0.000000 0.000000 0.000000 -1.021287
    36 0.806021 -0.359837 -1.318334 1.349685 0.343493 -0.771450
    37 1.789782 0.000000 -0.000004 0.000000 0.000000 0.397500
    38 1.206999 0.000003 0.000002 0.000000 0.000000 0.989033
    39 4.125000 -1.447266 -3.542969 -1.564198 -0.011689 -1.581440
    40 3.820738 -1.409994 -0.589409 -1.564198 -0.011689 -1.581440
  time 6
    0 0.000005 3.335938 -8.640625 -1.570781 -1.391896 -1.570809
    1 2.033349 1.000767 1.937660 1.596637 -1.286515 2.942961
    2 6.028141 0.000000 0.000000 -1.579228 0.357999 -1.145030
    3 11.692554 0.000001 0.000002 0.000000 0.000000 -1.541525
    4 11.481674 0.000001 -0.000032 1.573168 -0.028074 0.044378
    5 3.859709 -0.142404 -1.191975 -0.476793 0.134331 -0.965122
    6 1.312555 -0.000002 0.000001 0.000000 0.000000 -0.279217
    7 0.729363 -0.000002 -0.000002 0.000000 0.000000 -0.096880
    8 3.942335 0.046767 -0.431443 -0.145073 0.087435 -0.741656
    9 1.539097 0.000000 0.000000 0.000000 0.000000 -0.309335
    10 1.196326 -0.000002 -0.000001 0.000000 0.000000 -0.521226
    11 3.883696 -0.046765 0.431443 0.085902 0.021830 -0.587867
    12 1.719570 -0.000004 -0.000001 0.000000 0.005516 -0.366478
    13 1.209171 -0.000002 0.000000 0.000000 0.003084 -0.216400
    14 3.859865 -0.137947 1.332466 0.354449 -0.042750 -0.531718
    15 1.719429 0.000002 -0.000001 0.000000 0.004074 -0.363009
    16 1.099665 0.000000 0.000000 0.000000 0.002596 -0.244331
    17 0.806053 -0.348925 1.321258 -1.166382 -0.626621 -0.921969
    18 1.789780 -0.000002 0.000002 0.000000 0.000000 0.189105
    19 1.207006 0.000000 0.000000 0.000000 0.000000 0.306015
    20 2.033356 1.000772 -1.937610 -1.668474 1.286518 2.942953
    21 6.028144 0.000000 0.000000 1.436442 0.566699 -1.173465
    22 11.692554 0.000001 0.000003 0.000000 0.000000 -1.060478
    23 11.481697 0.000001 0.000002 -1.650114 -0.563763 0.750993
    24 3.859678 -0.132570 1.193109 0.432208 -0.155862 -0.861350
    25 1.312557 -0.000002 0.000001 0.000000 0.000000 -1.191994
    26 0.729365 0.000002 -0.000002 0.000000 0.000000 -1.063394
    27 3.942305 0.050327 0.431044 0.232421 0.000609 -0.853331
    28 1.539099 -0.000002 0.000000 0.000000 0.000000 -0.973399
    29 1.196321 0.000008 0.000000 0.000000 0.000000 -1.451289
    30 3.883661 -0.050323 -0.431042 0.066987 0.050243 -0.694792
    31 1.719578 0.000004 0.000000 0.000000 0.000000 -1.251039
    32 1.209185 0.000002 0.000000 0.000000 0.000000 -1.141170
    33 3.859838 -0.148937 -1.331282 -0.248859 0.263122 -0.072137
    34 1.719423 0.000002 0.000000 0.000000 0.000000 -0.676756
    35 1.099667 0.000002 0.000000 0.000000 0.000000 -1.021287
    36 0.806021 -0.359837 -1.318334 1.349685 0.343493 -0.771450
    37 1.789782 0.000000 -0.000004 0.000000 0.000000 0.397500
    38 1.206999 0.000003 0.000002 0.000000 0.000000 0.989033
    39 4.125000 -1.447266 -3.542969 -1.564198 -0.011689 -1.581440
    40 3.820738 -1.409994 -0.589409 -1.564198 -0.011689 -1.581440
  time 7
    0 0.000005 3.335938 -8.640625 -1.570781 -1.391896 -1.570809
    1 2.033349 1.000767 1.937660 1.596637 -1.286515 2.942961
    2 6.028141 0.000000 0.000000 -1.579228 0.357999 -1.145030
    3 11.692554 0.000001 0.000002 0.000000 0.000000 -1.541525
    4 11.481674 0.000001 -0.000032 1.573168 -0.028074 0.044378
    5 3.859709 -0.142404 -1.191975 -0.476793 0.134331 -0.965122
    6 1.312555 -0.000002 0.000001 0.000000 0.000000 -0.279217
    7 0.729363 -0.000002 -0.000002 0.000000 0.000000 -0.096880
    8 3.942335 0.046767 -0.431443 -0.145073 0.087435 -0.741656
    9 1.539097 0.000000 0.000000 0.000000 0.000000 -0.309335
    10 1.196326 -0.000002 -0.000001 0.000000 0.000000 -0.521226
    11 3.883696 -0.046765 0.431443 0.085902 0.021830 -0.587867
    12 1.719570 -0.000004 -0.000001 0.000000 0.005516 -0.366478
    13 1.209171 -0.000002 0.000000 0.000000 0.003084 -0.216400
    14 3.859865 -0.137947 1.332466 0.354449 -0.042750 -0.531718
    15 1.719429 0.000002 -0.000001 0.000000 0.004074 -0.363009
    16 1.099665 0.000000 0.000000 0.000000 0.002596 -0.244331
    17 0.806053 -0.348925 1.321258 -1.166382 -0.626621 -0.921969
    18 1.789780 -0.000002 0.000002 0.000000 0.000000 0.189105
    19 1.207006 0.000000 0.000000 0.000000 0.000000 0.306015
    20 2.033356 1.000772 -1.937610 -1.668474 1.286518 2.942953
    21 6.028144 0.000000 0.000000 1.443612 0.636850 -1.168190
    22 11.692554 0.000001 0.000003 0.000000 0.000000 -1.034123
    23 11.481697 0.000001 0.000002 -1.594733 -0.562714 0.746461
    24 3.859678 -0.132570 1.193109 0.432208 -0.155862 -0.861350
    25 1.312557 -0.000002 0.000001 0.000000 0.000000 -1.191994
    26 0.729365 0.000002 -0.000002 0.000000 0.000000 -1.063394
    27 3.942305 0.050327 0.431044 0.232421 0.000609 -0.853331
    28 1.539099 -0.000002 0.000000 0.000000 0.000000 -0.973399
    29 1.196321 0.000008 0.000000 0.000000 0.000000 -1.451289
    30 3.883661 -0.050323 -0.431042 0.066987 0.050243 -0.694792
    31 1.719578 0.000004 0.000000 0.000000 0.000000 -1.251039
    32 1.209185 0.000002 0.000000 0.000000 0.000000 -1.141170
    33 3.859838 -0.148937 -1.331282 -0.248859 0.263122 -0.072137
    34 1.719423 0.000002 0.000000 0.000000 0.000000 -0.676756
    35 1.099667 0.000002 0.000000 0.000000 0.000000 -1.021287
    36 0.806021 -0.359837 -1.318334 1.349685 0.343493 -0.771450
    37 1.789782 0.000000 -0.000004 0.000000 0.000000 0.397500
    38 1.206999 0.000003 0.000002 0.000000 0.000000 0.989033
    39 4.125000 -1.447266 -3.542969 -1.564198 -0.011689 -1.581440
    40 3.820738 -1.409994 -0.589409 -1.564198 -0.011689 -1.581440
  time 8
    0 0.000005 3.335938 -8.640625 -1.570781 -1.391896 -1.570809
    1 2.033349 1.000767 1.937660 1.596637 -1.286515 2.942961
    2 6.028141 0.000000 0.000000 -1.579228 0.357999 -1.145030
    3 11.692554 0.000001 0.000002 0.000000 0.000000 -1.541525
    4 11.481674 0.000001 -0.000032 1.573168 -0.028074 0.044378
    5 3.859709 -0.142404 -1.191975 -0.476793 0.134331 -0.965122
    6 1.312555 -0.000002 0.000001 0.000000 0.000000 -0.279217
    7 0.729363 -0.000002 -0.000002 0.000000 0.000000 -0.096880
    8 3.942335 0.046767 -0.431443 -0.145073 0.087435 -0.741656
    9 1.539097 0.000000 0.000000 0.000000 0.000000 -0.309335
    10 1.196326 -0.000002 -0.000001 0.000000 0.000000 -0.521226
    11 3.883696 -0.046765 0.431443 0.085902 0.021830 -0.587867
    12 1.719570 -0.000004 -0.000001 0.000000 0.005516 -0.366478
    13 1.209171 -0.000002 0.000000 0.000000 0.003084 -0.216400
    14 3.859865 -0.137947 1.332466 0.354449 -0.042750 -0.531718
    15 1.719429 0.000002 -0.000001 0.000000 0.004074 -0.363009
    16 1.099665 0.000000 0.000000 0.000000 0.002596 -0.244331
    17 0.806053 -0.348925 1.321258 -1.166382 -0.626621 -0.921969
    18 1.789780 -0.000002 0.000002 0.000000 0.000000 0.189105
    19 1.207006 0.000000 0.000000 0.000000 0.000000 0.306015
    20 2.033356 1.000772 -1.937610 -1.668474 1.286518 2.942953
    21 6.028144 0.000000 0.000000 1.450988 0.709759 -1.161656
    22 11.692554 0.000001 0.000003 0.000000 0.000000 -1.002393
    23 11.481697 0.000001 0.000002 -1.535831 -0.561111 0.733854
    24 3.859678 -0.132570 1.193109 0.432208 -0.155862 -0.861350
    25 1.312557 -0.000002 0.000001 0.000000 0.000000 -1.191994
    26 0.729365 0.000002 -0.000002 0.000000 0.000000 -1.063394
    27 3.942305 0.050327 0.431044 0.232421 0.000609 -0.853331
    28 1.539099 -0.000002 0.000000 0.000000 0.000000 -0.973399
    29 1.196321 0.000008 0.000000 0.000000 0.000000 -1.451289
    30 3.883661 -0.050323 -0.431042 0.066987 0.050243 -0.694792
    31 1.719578 0.000004 0.000000 0.000000 0.000000 -1.251039
    32 1.209185 0.000002 0.000000 0.000000 0.000000 -1.141170
    33 3.859838 -0.148937 -1.331282 -0.248859 0.263122 -0.072137
    34 1.719423 0.000002 0.000000 0.000000 0.000000 -0.676756
    35 1.099667 0.000002 0.000000 0.000000 0.000000 -1.021287
    36 0.806021 -0.359837 -1.318334 1.349685 0.343493 -0.771450
    37 1.789782 0.000000 -0.000004 0.000000 0.000000 0.397500
    38 1.206999 0.000003 0.000002 0.000000 0.000000 0.989033
    39 4.125000 -1.447266 -3.542969 -1.564198 -0.011689 -1.581440
    40 3.820738 -1.409994 -0.589409 -1.564198 -0.011689 -1.581440
  time 9
    0 0.000005 3.335938 -8.640625 -1.570781 -1.391896 -1.570809
    1 2.033349 1.000767 1.937660 1.596637 -1.286515 2.942961
    2 6.028141 0.000000 0.000000 -1.579228 0.357999 -1.145030
    3 11.692554 0.000001 0.000002 0.000000 0.000000 -1.541525
    4 11.481674 0.000001 -0.000032 1.573168 -0.028074 0.044378
    5 3.859709 -0.142404 -1.191975 -0.476793 0.134331 -0.965122
    6 1.312555 -0.000002 0.000001 0.000000 0.000000 -0.279217
    7 0.729363 -0.000002 -0.000002 0.000000 0.000000 -0.096880
    8 3.942335 0.046767 -0.431443 -0.145073 0.087435 -0.741656
    9 1.539097 0.000000 0.000000 0.000000 0.000000 -0.309335
    10 1.196326 -0.000002 -0.000001 0.000000 0.000000 -0.521226
    11 3.883696 -0.046765 0.431443 0.085902 0.021830 -0.587867
    12 1.719570 -0.000004 -0.000001 0.000000 0.005516 -0.366478
    13 1.209171 -0.000002 0.000000 0.000000 0.003084 -0.216400
    14 3.859865 -0.137947 1.332466 0.354449 -0.042750 -0.531718
    15 1.719429 0.000002 -0.000001 0.000000 0.004074 -0.363009
    16 1.099665 0.000000 0.000000 0.000000 0.002596 -0.244331
    17 0.806053 -0.348925 1.321258 -1.166382 -0.626621 -0.921969
    18 1.789780 -0.000002 0.000002 0.000000 0.000000 0.189105
    19 1.207006 0.000000 0.000000 0.000000 0.000000 0.306015
    20 2.033356 1.000772 -1.937610 -1.668474 1.286518 2.942953
    21 6.028144 0.000000 0.000000 1.458631 0.783696 -1.153792
    22 11.692554 0.000001 0.000003 0.000000 0.000000 -0.965851
    23 11.481697 0.000001 0.000002 -1.491672 -0.555826 0.708200
    24 3.859678 -0.132570 1.193109 0.432208 -0.155862 -0.861350
    25 1.312557 -0.000002 0.000001 0.000000 0.000000 -1.191994
    26 0.729365 0.000002 -0.000002 0.000000 0.000000 -1.063394
    27 3.942305 0.050327 0.431044 0.232421 0.000609 -0.853331
    28 1.539099 -0.000002 0.000000 0.000000 0.000000 -0.973399
    29 1.196321 0.000008 0.000000 0.000000 0.000000 -1.451289
    30 3.883661 -0.050323 -0.431042 0.066987 0.050243 -0.694792
    31 1.719578 0.000004 0.000000 0.000000 0.000000 -1.251039
    32 1.209185 0.000002 0.000000 0.000000 0.000000 -1.141170
    33 3.859838 -0.148937 -1.331282 -0.248859 0.263122 -0.072137
    34 1.719423 0.000002 0.000000 0.000000 0.000000 -0.676756
    35 1.099667 0.000002 0.000000 0.000000 0.000000 -1.021287
    36 0.806021 -0.359837 -1.318334 1.349685 0.343493 -0.771450
    37 1.789782 0.000000 -0.000004 0.000000 0.000000 0.397500
    38 1.206999 0.000003 0.000002 0.000000 0.000000 0.989033
    39 4.125000 -1.447266 -3.542969 -1.564198 -0.011689 -1.581440
    40 3.820738 -1.409994 -0.589409 -1.564198 -0.011689 -1.581440
  time 10
    0 0.000005 3.335938 -8.640625 -1.570781 -1.391896 -1.570809
    1 2.033349 1.000767 1.937660 1.596637 -1.286515 2.942961
    2 6.028141 0.000000 0.000000 -1.579228 0.357999 -1.145030
    3 11.692554 0.000001 0.000002 0.000000 0.000000 -1.541525
    4 11.481674 0.000001 -0.000032 1.573168 -0.028074 0.044378
    5 3.859709 -0.142404 -1.191975 -0.476793 0.134331 -0.965122
    6 1.312555 -0.000002 0.000001 0.000000 0.000000 -0.279217
    7 0.729363 -0.000002 -0.000002 0.000000 0.000000 -0.096880
    8 3.942335 0.046767 -0.431443 -0.145073 0.087435 -0.741656
    9 1.539097 0.000000 0.000000 0.000000 0.000000 -0.309335
    10 1.196326 -0.000002 -0.000001 0.000000 0.000000 -0.521226
    11 3.883696 -0.046765 0.431443 0.085902 0.021830 -0.587867
    12 1.719570 -0.000004 -0.000001 0.000000 0.005516 -0.366478
    13 1.209171 -0.000002 0.000000 0.000000 0.003084 -0.216400
    14 3.859865 -0.137947 1.332466 0.354449 -0.042750 -0.531718
    15 1.719429 0.000002 -0.000001 0.000000 0.004074 -0.363009
    16 1.099665 0.000000 0.000000 0.000000 0.002596 -0.244331
    17 0.806053 -0.348925 1.321258 -1.166382 -0.626621 -0.921969
    18 1.789780 -0.000002 0.000002 0.000000 0.000000 0.189105
    19 1.207006 0.000000 0.000000 0.000000 0.000000 0.306015
    20 2.033356 1.000772 -1.937610 -1.668474 1.286518 2.942953
    21 6.028144 0.000000 0.000000 1.466707 0.857399 -1.144427
    22 11.692554 0.000001 0.000003 0.000000 0.000000 -0.924947
    23 11.481697 0.000001 0.000002 -1.450073 -0.539868 0.669719
    24 3.859678 -0.132570 1.193109 0.432208 -0.155862 -0.861350
    25 1.312557 -0.000002 0.000001 0.000000 0.000000 -1.191994
    26 0.729365 0.000002 -0.000002 0.000000 0.000000 -1.063394
    27 3.942305 0.050327 0.431044 0.232421 0.000609 -0.853331
    28 1.539099 -0.000002 0.000000 0.000000 0.000000 -0.973399
    29 1.196321 0.000008 0.000000 0.000000 0.000000 -1.451289
    30 3.883661 -0.050323 -0.431042 0.066987 0.050243 -0.694792
    31 1.719578 0.000004 0.000000 0.000000 0.000000 -1.251039
    32 1.209185 0.000002 0.000000 0.000000 0.000000 -1.141170
    33 3.859838 -0.148937 -1.331282 -0.248859 0.263122 -0.072123
    34 1.719423 0.000002 0.000000 0.000000 0.000000 -0.676756
    35 1.099667 0.000002 0.000000 0.000000 0.000000 -1.021287
    36 0.806021 -0.359837 -1.318334 1.349685 0.343493 -0.771450
    37 1.789782 0.000000 -0.000004 0.000000 0.000000 0.397500
    38 1.206999 0.000003 0.000002 0.000000 0.000000 0.989033
    39 4.125000 -1.447266 -3.542969 -1.564198 -0.011689 -1.581440
    40 3.820738 -1.409994 -0.589409 -1.564198 -0.011689 -1.581440
  time 11
    0 0.000005 3.335938 -8.640625 -1.570781 -1.391896 -1.570809
    1 2.033349 1.000767 1.937660 1.596637 -1.286515 2.942961
    2 6.028141 0.000000 0.000000 -1.579228 0.357999 -1.145030
    3 11.692554 0.000001 0.000002 0.000000 0.000000 -1.541525
    4 11.481674 0.000001 -0.000032 1.573168 -0.028074 0.044378
    5 3.859709 -0.142404 -1.191975 -0.476793 0.134331 -0.965122
    6 1.312555 -0.000002 0.000001 0.000000 0.000000 -0.279217
    7 0.729363 -0.000002 -0.000002 0.000000 0.000000 -0.096880
    8 3.942335 0.046767 -0.431443 -0.145073 0.087435 -0.741656
    9 1.539097 0.000000 0.000000 0.000000 0.000000 -0.309335
    10 1.196326 -0.000002 -0.000001 0.000000 0.000000 -0.521226
    11 3.883696 -0.046765 0.431443 0.085902 0.021830 -0.587867
    12 1.719570 -0.000004 -0.000001 0.000000 0.005516 -0.366478
    13 1.209171 -0.000002 0.000000 0.000000 0.003084 -0.216400
    14 3.859865 -0.137947 1.332466 0.354449 -0.042750 -0.531718
    15 1.719429 0.000002 -0.000001 0.000000 0.004074 -0.363009
    16 1.099665 0.000000 0.000000 0.000000 0.002596 -0.244331
    17 0.806053 -0.348925 1.321258 -1.166382 -0.626621 -0.921969
    18 1.789780 -0.000002 0.000002 0.000000 0.000000 0.189105
    19 1.207006 0.000000 0.000000 0.000000 0.000000 0.306015
    20 2.033356 1.000772 -1.937610 -1.668474 1.286518 2.942953
    21 6.028144 0.000000 0.000000 1.475525 0.930167 -1.133393
    22 11.692554 0.000001 0.000003 0.000000 0.000000 -0.880171
    23 11.481697 0.000001 0.000002 -1.401901 -0.516611 0.610491
    24 3.859678 -0.132570 1.193109 0.432208 -0.155862 -0.861350
    25 1.312557 -0.000002 0.000001 0.000000 0.000000 -1.191994
    26 0.729365 0.000002 -0.000002 0.000000 0.000000 -1.063394
    27 3.942305 0.050327 0.431044 0.232421 0.000609 -0.853331
    28 1.539099 -0.000002 0.000000 0.000000 0.000000 -0.973399
    29 1.196321 0.000008 0.000000 0.000000 0.000000 -1.451289
    30 3.883661 -0.050323 -0.431042 0.066987 0.050243 -0.694792
    31 1.719578 0.000004 0.000000 0.000000 0.000000 -1.251039
    32 1.209185 0.000002 0.000000 0.000000 0.000000 -1.141170
    33 3.859838 -0.148937 -1.331282 -0.248859 0.263122 -0.072137
    34 1.719423 0.000002 0.000000 0.000000 0.000000 -0.676756
    35 1.099667 0.000002 0.000000 0.000000 0.000000 -1.021287
    36 0.806021 -0.359837 -1.318334 1.349685 0.343493 -0.771450
    37 1.789782 0.000000 -0.000004 0.000000 0.000000 0.397500
    38 1.206999 0.000003 0.000002 0.000000 0.000000 0.989033
    39 4.125000 -1.447266 -3.542969 -1.564198 -0.011689 -1.581440
    40 3.820738 -1.409994 -0.589409 -1.564198 -0.011689 -1.581440
  time 12
    0 0.000005 3.335938 -8.640625 -1.570781 -1.391896 -1.570809
    1 2.033349 1.000767 1.937660 1.596637 -1.286515 2.942961
    2 6.028141 0.000000 0.000000 -1.579228 0.357999 -1.145030
    3 11.692554 0.000001 0.000002 0.000000 0.000000 -1.541525
    4 11.481674 0.000001 -0.000032 1.573168 -0.028074 0.044378
    5 3.859709 -0.142404 -1.191975 -0.476793 0.134331 -0.965122
    6 1.312555 -0.000002 0.000001 0.000000 0.000000 -0.279217
    7 0.729363 -0.000002 -0.000002 0.000000 0.000000 -0.096880
    8 3.942335 0.046767 -0.431443 -0.145073 0.087435 -0.741656
    9 1.539097 0.000000 0.000000 0.000000 0.000000 -0.309335
    10 1.196326 -0.000002 -0.000001 0.000000 0.000000 -0.521226
    11 3.883696 -0.046765 0.431443 0.085902 0.021830 -0.587867
    12 1.719570 -0.000004 -0.000001 0.000000 0.005516 -0.366478
    13 1.209171 -0.000002 0.000000 0.000000 0.003084 -0.216400
    14 3.859865 -0.137947 1.332466 0.354449 -0.042750 -0.531718
    15 1.719429 0.000002 -0.000001 0.000000 0.004074 -0.363009
    16 1.099665 0.000000 0.000000 0.000000 0.002596 -0.244331
    17 0.806053 -0.348925 1.321258 -1.166382 -0.626621 -0.921969
    18 1.789780 -0.000002 0.000002 0.000000 0.000000 0.189105
    19 1.207006 0.000000 0.000000 0.000000 0.000000 0.306015
    20 2.033356 1.000772 -1.937610 -1.668474 1.286518 2.942953
    21 6.028144 0.000000 0.000000 1.485414 1.001393 -1.120398
    22 11.692554 0.000001 0.000003 0.000000 0.000000 -0.831937
    23 11.481697 0.000001 0.000002 -1.351986 -0.481119 0.542550
    24 3.859678 -0.132570 1.193109 0.432208 -0.155862 -0.861350
    25 1.312557 -0.000002 0.000001 0.000000 0.000000 -1.191994
    26 0.729365 0.000002 -0.000002 0.000000 0.000000 -1.063394
    27 3.942305 0.050327 0.431044 0.232421 0.000609 -0.853331
    28 1.539099 -0.000002 0.000000 0.000000 0.000000 -0.973399
    29 1.196321 0.000008 0.000000 0.000000 0.000000 -1.451289
    30 3.883661 -0.050323 -0.431042 0.066987 0.050243 -0.694792
    31 1.719578 0.000004 0.000000 0.000000 0.000000 -1.251039
    32 1.209185 0.000002 0.000000 0.000000 0.000000 -1.141170
    33 3.859838 -0.148937 -1.331282 -0.248859 0.263122 -0.072137
    34 1.719423 0.000002 0.000000 0.000000 0.000000 -0.676756
    35 1.099667 0.000002 0.000000 0.000000 0.000000 -1.021287
    36 0.806021 -0.359837 -1.318334 1.349685 0.343493 -0.771450
    37 1.789782 0.000000 -0.000004 0.000000 0.000000 0.397500
    38 1.206999 0.000003 0.000002 0.000000 0.000000 0.989033
    39 4.125000 -1.447266 -3.542969 -1.564198 -0.011689 -1.581440
    40 3.820738 -1.409994 -0.589409 -1.564198 -0.011689 -1.581440
  time 13
    0 0.000005 3.335938 -8.640625 -1.570781 -1.391896 -1.570809
    1 2.033349 1.000767 1.937660 1.596637 -1.286515 2.942961
    2 6.028141 0.000000 0.000000 -1.579228 0.357999 -1.145030
    3 11.692554 0.000001 0.000002 0.000000 0.000000 -1.541525
    4 11.481674 0.000001 -0.000032 1.573168 -0.028074 0.044378
    5 3.859709 -0.142404 -1.191975 -0.476793 0.134331 -0.965122
    6 1.312555 -0.000002 0.000001 0.000000 0.000000 -0.279217
    7 0.729363 -0.000002 -0.000002 0.000000 0.000000 -0.096880
    8 3.942335 0.046767 -0.431443 -0.145073 0.087435 -0.741656
    9 1.539097 0.000000 0.000000 0.000000 0.000000 -0.309335
    10 1.196326 -0.000002 -0.000001 0.000000 0.000000 -0.521226
    11 3.883696 -0.046765 0.431443 0.085902 0.021830 -0.587867
    12 1.719570 -0.000004 -0.000001 0.000000 0.005516 -0.366478
    13 1.209171 -0.000002 0.000000 0.000000 0.003084 -0.216400
    14 3.859865 -0.137947 1.332466 0.354449 -0.042750 -0.531718
    15 1.719429 0.000002 -0.000001 0.000000 0.004074 -0.363009
    16 1.099665 0.000000 0.000000 0.000000 0.002596 -0.244331
    17 0.806053 -0.348925 1.321258 -1.166382 -0.626621 -0.921969
    18 1.789780 -0.000002 0.000002 0.000000 0.000000 0.189105
    19 1.207006 0.000000 0.000000 0.000000 0.000000 0.306015
    20 2.033356 1.000772 -1.937610 -1.668474 1.286518 2.942953
    21 6.028144 0.000000 0.000000 1.496993 1.070750 -1.104984
    22 11.692554 0.000001 0.000003 0.000000 0.000000 -0.780695
    23 11.481697 0.000001 0.000002 -1.305721 -0.431766 0.474763
    24 3.859678 -0.132570 1.193109 0.432208 -0.155862 -0.861350
    25 1.312557 -0.000002 0.000001 0.000000 0.000000 -1.191994
    26 0.729365 0.000002 -0.000002 0.000000 0.000000 -1.063394
    27 3.942305 0.050327 0.431044 0.232421 0.000609 -0.853331
    28 1.539099 -0.000002 0.000000 0.000000 0.000000 -0.973399
    29 1.196321 0.000008 0.000000 0.000000 0.000000 -1.451289
    30 3.883661 -0.050323 -0.431042 0.066987 0.050243 -0.694792
    31 1.719578 0.000004 0.000000 0.000000 0.000000 -1.251039
    32 1.209185 0.000002 0.000000 0.000000 0.000000 -1.141170
    33 3.859838 -0.148937 -1.331282 -0.248859 0.263122 -0.072137
    34 1.719423 0.000002 0.000000 0.000000 0.000000 -0.676756
    35 1.099667 0.000002 0.000000 0.000000 0.000000 -1.021287
    36 0.806021 -0.359837 -1.318334 1.349685 0.343493 -0.771450
    37 1.789782 0.000000 -0.000004 0.000000 0.000000 0.397500
    38 1.206999 0.000003 0.000002 0.000000 0.000000 0.989033
    39 4.125000 -1.447266 -3.542969 -1.564198 -0.011689 -1.581440
    40 3.820738 -1.409994 -0.589409 -1.564198 -0.011689 -1.581440
  time 14
    0 0.000005 3.335938 -8.640625 -1.570781 -1.391896 -1.570809
    1 2.033349 1.000767 1.937660 1.596637 -1.286515 2.942961
    2 6.028141 0.000000 0.000000 -1.579228 0.357999 -1.145030
    3 11.692554 0.000001 0.000002 0.000000 0.000000 -1.541525
    4 11.481674 0.000001 -0.000032 1.573168 -0.028074 0.044378
    5 3.859709 -0.142404 -1.191975 -0.476793 0.134331 -0.965122
    6 1.312555 -0.000002 0.000001 0.000000 0.000000 -0.279217
    7 0.729363 -0.000002 -0.000002 0.000000 0.000000 -0.096880
    8 3.942335 0.046767 -0.431443 -0.145073 0.087435 -0.741656
    9 1.539097 0.000000 0.000000 0.000000 0.000000 -0.309335
    10 1.196326 -0.000002 -0.000001 0.000000 0.000000 -0.521226
    11 3.883696 -0.046765 0.431443 0.085902 0.021830 -0.587867
    12 1.719570 -0.000004 -0.000001 0.000000 0.005516 -0.366478
    13 1.209171 -0.000002 0.000000 0.000000 0.003084 -0.216400
    14 3.859865 -0.137947 1.332466 0.354449 -0.042750 -0.531718
    15 1.719429 0.000002 -0.000001 0.000000 0.004074 -0.363009
    16 1.099665 0.000000 0.000000 0.000000 0.002596 -0.244331
    17 0.806053 -0.348925 1.321258 -1.166382 -0.626621 -0.921969
    18 1.789780 -0.000002 0.000002 0.000000 0.000000 0.189105
    19 1.207006 0.000000 0.000000 0.000000 0.000000 0.306015
    20 2.033356 1.000772 -1.937610 -1.668474 1.286518 2.942953
    21 6.028144 0.000000 0.000000 1.511023 1.138004 -1.086447
    22 11.692554 0.000001 0.000003 0.000000 0.000000 -0.726971
    23 11.481697 0.000001 0.000002 -1.266265 -0.370179 0.410629
    24 3.859678 -0.132570 1.193109 0.432208 -0.155862 -0.861350
    25 1.312557 -0.000002 0.000001 0.000000 0.000000 -1.191994
    26 0.729365 0.000002 -0.000002 0.000000 0.000000 -1.063394
    27 3.942305 0.050327 0.431044 0.232421 0.000609 -0.853331
    28 1.539099 -0.000002 0.000000 0.000000 0.000000 -0.973399
    29 1.196321 0.000008 0.000000 0.000000 0.000000 -1.451289
    30 3.883661 -0.050323 -0.431042 0.066987 0.050243 -0.694792
    31 1.719578 0.000004 0.000000 0.000000 0.000000 -1.251039
    32 1.209185 0.000002 0.000000 0.000000 0.000000 -1.141170
    33 3.859838 -0.148937 -1.331282 -0.248859 0.263122 -0.072137
    34 1.719423 0.000002 0.000000 0.000000 0.000000 -0.676756
    35 1.099667 0.000002 0.000000 0.000000 0.000000 -1.021287
    36 0.806021 -0.359837 -1.318334 1.349685 0.343493 -0.771450
    37 1.789782 0.000000 -0.000004 0.000000 0.000000 0.397500
    38 1.206999 0.000003 0.000002 0.000000 0.000000 0.989033
    39 4.125000 -1.447266 -3.542969 -1.564198 -0.011689 -1.581440
    40 3.820738 -1.409994 -0.589409 -1.564198 -0.011689 -1.581440
  time 15
    0 0.000005 3.335938 -8.640625 -1.570781 -1.391896 -1.570809
    1 2.033349 1.000767 1.937660 1.596637 -1.286515 2.942961
    2 6.028141 0.000000 0.000000 -1.579228 0.357999 -1.145030
    3 11.692554 0.000001 0.000002 0.000000 0.000000 -1.541525
    4 11.481674 0.000001 -0.000032 1.573168 -0.028074 0.044378
    5 3.859709 -0.142404 -1.191975 -0.476793 0.134331 -0.965122
    6 1.312555 -0.000002 0.000001 0.000000 0.000000 -0.279217
    7 0.729363 -0.000002 -0.000002 0.000000 0.000000 -0.096880
    8 3.942335 0.046767 -0.431443 -0.145073 0.087435 -0.741656
    9 1.539097 0.000000 0.000000 0.000000 0.000000 -0.309335
    10 1.196326 -0.000002 -0.000001 0.000000 0.000000 -0.521226
    11 3.883696 -0.046765 0.431443 0.085902 0.021830 -0.587867
    12 1.719570 -0.000004 -0.000001 0.000000 0.005516 -0.366478
    13 1.209171 -0.000002 0.000000 0.000000 0.003084 -0.216400
    14 3.859865 -0.137947 1.332466 0.354449 -0.042750 -0.531718
    15 1.719429 0.000002 -0.000001 0.000000 0.004074 -0.363009
    16 1.099665 0.000000 0.000000 0.000000 0.002596 -0.244331
    17 0.806053 -0.348925 1.321258 -1.166382 -0.626621 -0.921969
    18 1.789780 -0.000002 0.000002 0.000000 0.000000 0.189105
    19 1.207006 0.000000 0.000000 0.000000 0.000000 0.306015
    20 2.033356 1.000772 -1.937610 -1.668474 1.286518 2.942953
    21 6.028144 0.000000 0.000000 1.528927 1.202360 -1.063507
    22 11.692554 0.000001 0.000003 0.000000 0.000000 -0.672308
    23 11.481697 0.000001 0.000002 -1.235706 -0.299646 0.351885
    24 3.859678 -0.132570 1.193109 0.432208 -0.155862 -0.861350
    25 1.312557 -0.000002 0.000001 0.000000 0.000000 -1.191994
    26 0.729365 0.000002 -0.000002 0.000000 0.000000 -1.063394
    27 3.942305 0.050327 0.431044 0.232421 0.000609 -0.853331
    28 1.539099 -0.000002 0.000000 0.000000 0.000000 -0.973399
    29 1.196321 0.000008 0.000000 0.000000 0.000000 -1.451289
    30 3.883661 -0.050323 -0.431042 0.066987 0.050243 -0.694792
    31 1.719578 0.000004 0.000000 0.000000 0.000000 -1.251039
    32 1.209185 0.000002 0.000000 0.000000 0.000000 -1.141170
    33 3.859838 -0.148937 -1.331282 -0.248859 0.263122 -0.072137
    34 1.719423 0.000002 0.000000 0.000000 0.000000 -0.676756
    35 1.099667 0.000002 0.000000 0.000000 0.000000 -1.021287
    36 0.806021 -0.359837 -1.318334 1.349685 0.343493 -0.771450
    37 1.789782 0.000000 -0.000004 0.000000 0.000000 0.397500
    38 1.206999 0.000003 0.000002 0.000000 0.000000 0.989033
    39 4.125000 -1.447266 -3.542969 -1.564198 -0.011689 -1.581440
    40 3.820738 -1.409994 -0.589409 -1.564198 -0.011689 -1.581440
  time 16
    0 0.000005 3.335938 -8.640625 -1.570781 -1.391896 -1.570809
    1 2.033349 1.000767 1.937660 1.596637 -1.286515 2.942961
    2 6.028141 0.000000 0.000000 -1.579228 0.357999 -1.145030
    3 11.692554 0.000001 0.000002 0.000000 0.000000 -1.541525
    4 11.481674 0.000001 -0.000032 1.573168 -0.028074 0.044378
    5 3.859709 -0.142404 -1.191975 -0.476793 0.134331 -0.965122
    6 1.312555 -0.000002 0.000001 0.000000 0.000000 -0.279217
    7 0.729363 -0.000002 -0.000002 0.000000 0.000000 -0.096880
    8 3.942335 0.046767 -0.431443 -0.145073 0.087435 -0.741656
    9 1.539097 0.000000 0.000000 0.000000 0.000000 -0.309335
    10 1.196326 -0.000002 -0.000001 0.000000 0.000000 -0.521226
    11 3.883696 -0.046765 0.431443 0.085902 0.021830 -0.587867
    12 1.719570 -0.000004 -0.000001 0.000000 0.005516 -0.366478
    13 1.209171 -0.000002 0.000000 0.000000 0.003084 -0.216400
    14 3.859865 -0.137947 1.332466 0.354449 -0.042750 -0.531718
    15 1.719429 0.000002 -0.000001 0.000000 0.004074 -0.363009
    16 1.099665 0.000000 0.000000 0.000000 0.002596 -0.244331
    17 0.806053 -0.348925 1.321258 -1.166382 -0.626621 -0.921969
    18 1.789780 -0.000002 0.000002 0.000000 0.000000 0.189105
    19 1.207006 0.000000 0.000000 0.000000 0.000000 0.306015
    20 2.033356 1.000772 -1.937610 -1.668474 1.286518 2.942953
    21 6.028144 0.000000 0.000000 1.552846 1.262930 -1.034082
    22 11.692554 0.000001 0.000003 0.000000 0.000000 -0.618622
    23 11.481697 0.000001 0.000002 -1.215079 -0.224857 0.299213
    24 3.859678 -0.132570 1.193109 0.432208 -0.155862 -0.861350
    25 1.312557 -0.000002 0.000001 0.000000 0.000000 -1.191994
    26 0.729365 0.000002 -0.000002 0.000000 0.000000 -1.063394
    27 3.942305 0.050327 0.431044 0.232421 0.000609 -0.853331
    28 1.539099 -0.000002 0.000000 0.000000 0.000000 -0.973399
    29 1.196321 0.000008 0.000000 0.000000 0.000000 -1.451289
    30 3.883661 -0.050323 -0.431042 0.066987 0.050243 -0.694792
    31 1.719578 0.000004 0.000000 0.000000 0.000000 -1.251039
    32 1.209185 0.000002 0.000000 0.000000 0.000000 -1.141170
    33 3.859838 -0.148937 -1.331282 -0.248859 0.263122 -0.072137
    34 1.719423 0.000002 0.000000 0.000000 0.000000 -0.676756
    35 1.099667 0.000002 0.000000 0.000000 0.000000 -1.021287
    36 0.806021 -0.359837 -1.318334 1.349685 0.343493 -0.771450
    37 1.789782 0.000000 -0.000004 0.000000 0.000000 0.397500
    38 1.206999 0.000003 0.000002 0.000000 0.000000 0.989033
    39 4.125000 -1.447266 -3.542969 -1.564198 -0.011689 -1.581440
    40 3.820738 -1.409994 -0.589409 -1.564198 -0.011689 -1.581440
  time 17
    0 0.000005 3.335938 -8.640625 -1.570781 -1.391896 -1.570809
    1 2.033349 1.000767 1.937660 1.596637 -1.286515 2.942961
    2 6.028141 0.000000 0.000000 -1.579228 0.357999 -1.145030
    3 11.692554 0.000001 0.000002 0.000000 0.000000 -1.541525
    4 11.481674 0.000001 -0.000032 1.573168 -0.028074 0.044378
    5 3.859709 -0.142404 -1.191975 -0.476793 0.134331 -0.965122
    6 1.312555 -0.000002 0.000001 0.000000 0.000000 -0.279217
    7 0.729363 -0.000002 -0.000002 0.000000 0.000000 -0.096880
    8 3.942335 0.046767 -0.431443 -0.145073 0.087435 -0.741656
    9 1.539097 0.000000 0.000000 0.000000 0.000000 -0.309335
    10 1.196326 -0.000002 -0.000001 0.000000 0.000000 -0.521226
    11 3.883696 -0.046765 0.431443 0.085902 0.021830 -0.587867
    12 1.719570 -0.000004 -0.000001 0.000000 0.005516 -0.366478
    13 1.209171 -0.000002 0.000000 0.000000 0.003084 -0.216400
    14 3.859865 -0.137947 1.332466 0.354449 -0.042750 -0.531718
    15 1.719429 0.000002 -0.000001 0.000000 0.004074 -0.363009
    16 1.099665 0.000000 0.000000 0.000000 0.002596 -0.244331
    17 0.806053 -0.348925 1.321258 -1.166382 -0.626621 -0.921969
    18 1.789780 -0.000002 0.000002 0.000000 0.000000 0.189105
    19 1.207006 0.000000 0.000000 0.000000 0.000000 0.306015
    20 2.033356 1.000772 -1.937610 -1.668474 1.286518 2.942953
    21 6.028144 0.000000 0.000000 1.584821 1.318687 -0.996453
    22 11.692554 0.000001 0.000003 0.000000 0.000000 -0.566440
    23 11.481697 0.000001 0.000002 -1.204385 -0.151281 0.252614
    24 3.859678 -0.132570 1.193109 0.432208 -0.155862 -0.861350
    25 1.312557 -0.000002 0.000001 0.000000 0.000000 -1.191994
    26 0.729365 0.000002 -0.000002 0.000000 0.000000 -1.063394
    27 3.942305 0.050327 0.431044 0.232421 0.000609 -0.853331
    28 1.539099 -0.000002 0.000000 0.000000 0.000000 -0.973399
    29 1.196321 0.000008 0.000000 0.000000 0.000000 -1.451289
    30 3.883661 -0.050323 -0.431042 0.066987 0.050243 -0.694792
    31 1.719578 0.000004 0.000000 0.000000 0.000000 -1.251039
    32 1.209185 0.000002 0.000000 0.000000 0.000000 -1.141170
    33 3.859838 -0.148937 -1.331282 -0.248859 0.263122 -0.072137
    34 1.719423 0.000002 0.000000 0.000000 0.000000 -0.676756
    35 1.099667 0.000002 0.000000 0.000000 0.000000 -1.021287
    36 0.806021 -0.359837 -1.318334 1.349685 0.343493 -0.771450
    37 1.789782 0.000000 -0.000004 0.000000 0.000000 0.397500
    38 1.206999 0.000003 0.000002 0.000000 0.000000 0.989033
    39 4.125000 -1.447266 -3.542969 -1.564198 -0.011689 -1.581440
    40 3.820738 -1.409994 -0.589409 -1.564198 -0.011689 -1.581440
  time 18
    0 0.000005 3.335938 -8.640625 -1.570781 -1.391896 -1.570809
    1 2.033349 1.000767 1.937660 1.596637 -1.286515 2.942961
    2 6.028141 0.000000 0.000000 -1.579228 0.357999 -1.145030
    3 11.692554 0.000001 0.000002 0.000000 0.000000 -1.541525
    4 11.481674 0.000001 -0.000032 1.573168 -0.028074 0.044378
    5 3.859709 -0.142404 -1.191975 -0.476793 0.134331 -0.965122
    6 1.312555 -0.000002 0.000001 0.000000 0.000000 -0.279217
    7 0.729363 -0.000002 -0.000002 0.000000 0.000000 -0.096880
    8 3.942335 0.046767 -0.431443 -0.145073 0.087435 -0.741656
    9 1.539097 0.000000 0.000000 0.000000 0.000000 -0.309335
    10 1.196326 -0.000002 -0.000001 0.000000 0.000000 -0.521226
    11 3.883696 -0.046765 0.431443 0.085902 0.021830 -0.587867
    12 1.719570 -0.000004 -0.000001 0.000000 0.005516 -0.366478
    13 1.209171 -0.000002 0.000000 0.000000 0.003084 -0.216400
    14 3.859865 -0.137947 1.332466 0.354449 -0.042750 -0.531718
    15 1.719429 0.000002 -0.000001 0.000000 0.004074 -0.363009
    16 1.099665 0.000000 0.000000 0.000000 0.002596 -0.244331
    17 0.806053 -0.348925 1.321258 -1.166382 -0.626621 -0.921969
    18 1.789780 -0.000002 0.000002 0.000000 0.000000 0.189105
    19 1.207006 0.000000 0.000000 0.000000 0.000000 0.306015
    20 2.033356 1.000772 -1.937610 -1.668474 1.286518 2.942953
    21 6.028144 0.000000 0.000000 1.626603 1.367853 -0.949363
    22 11.692554 0.000001 0.000003 0.000000 0.000000 -0.516739
    23 11.481697 0.000001 0.000002 -1.202750 -0.084717 0.211889
    24 3.859678 -0.132570 1.193109 0.432208 -0.155862 -0.861350
    25 1.312557 -0.000002 0.000001 0.000000 0.000000 -1.191994
    26 0.729365 0.000002 -0.000002 0.000000 0.000000 -1.063394
    27 3.942305 0.050327 0.431044 0.232421 0.000609 -0.853331
    28 1.539099 -0.000002 0.000000 0.000000 0.000000 -0.973399
    29 1.196321 0.000008 0.000000 0.000000 0.000000 -1.451289
    30 3.883661 -0.050323 -0.431042 0.066987 0.050243 -0.694792
    31 1.719578 0.000004 0.000000 0.000000 0.000000 -1.251039
    32 1.209185 0.000002 0.000000 0.000000 0.000000 -1.141170
    33 3.859838 -0.148937 -1.331282 -0.248859 0.263122 -0.072137
    34 1.719423 0.000002 0.000000 0.000000 0.000000 -0.676756
    35 1.099667 0.000002 0.000000 0.000000 0.000000 -1.021287
    36 0.806021 -0.359837 -1.318334 1.349685 0.343493 -0.771450
    37 1.789782 0.000000 -0.000004 0.000000 0.000000 0.397500
    38 1.206999 0.000003 0.000002 0.000000 0.000000 0.989033
    39 4.125000 -1.447266 -3.542969 -1.564198 -0.011689 -1.581440
    40 3.820738 -1.409994 -0.589409 -1.564198 -0.011689 -1.581440
  time 19
    0 0.000005 3.335938 -8.640625 -1.570781 -1.391896 -1.570809
    1 2.033349 1.000767 1.937660 1.596637 -1.286515 2.942961
    2 6.028141 0.000000 0.000000 -1.579228 0.357999 -1.145030
    3 11.692554 0.000001 0.000002 0.000000 0.000000 -1.541525
    4 11.481674 0.000001 -0.000032 1.573168 -0.028074 0.044378
    5 3.859709 -0.142404 -1.191975 -0.476793 0.134331 -0.965122
    6 1.312555 -0.000002 0.000001 0.000000 0.000000 -0.279217
    7 0.729363 -0.000002 -0.000002 0.000000 0.000000 -0.096880
    8 3.942335 0.046767 -0.431443 -0.145073 0.087435 -0.741656
    9 1.539097 0.000000 0.000000 0.000000 0.000000 -0.309335
    10 1.196326 -0.000002 -0.000001 0.000000 0.000000 -0.521226
    11 3.883696 -0.046765 0.431443 0.085902 0.021830 -0.587867
    12 1.719570 -0.000004 -0.000001 0.000000 0.005516 -0.366478
    13 1.209171 -0.000002 0.000000 0.000000 0.003084 -0.216400
    14 3.859865 -0.137947 1.332466 0.354449 -0.042750 -0.531718
    15 1.719429 0.000002 -0.000001 0.000000 0.004074 -0.363009
    16 1.099665 0.000000 0.000000 0.000000 0.002596 -0.244331
    17 0.806053 -0.348925 1.321258 -1.166382 -0.626621 -0.921969
    18 1.789780 -0.000002 0.000002 0.000000 0.000000 0.189105
    19 1.207006 0.000000 0.000000 0.000000 0.000000 0.306015
    20 2.033356 1.000772 -1.937610 -1.668474 1.286518 2.942953
    21 6.028144 0.000000 0.000000 1.681467 1.409635 -0.889738
    22 11.692554 0.000001 0.000003 0.000000 0.000000 -0.471437
    23 11.481697 0.000001 0.000002 -1.208579 -0.030532 0.177500
    24 3.859678 -0.132570 1.193109 0.432208 -0.155862 -0.861350
    25 1.312557 -0.000002 0.000001 0.000000 0.000000 -1.191994
    26 0.729365 0.000002 -0.000002 0.000000 0.000000 -1.063394
    27 3.942305 0.050327 0.431044 0.232421 0.000609 -0.853331
    28 1.539099 -0.000002 0.000000 0.000000 0.000000 -0.973399
    29 1.196321 0.000008 0.000000 0.000000 0.000000 -1.451289
    30 3.883661 -0.050323 -0.431042 0.066987 0.050243 -0.694792
    31 1.719578 0.000004 0.000000 0.000000 0.000000 -1.251039
    32 1.209185 0.000002 0.000000 0.000000 0.000000 -1.141170
    33 3.859838 -0.148937 -1.331282 -0.248859 0.263122 -0.072137
    34 1.719423 0.000002 0.000000 0.000000 0.000000 -0.676756
    35 1.099667 0.000002 0.000000 0.000000 0.000000 -1.021287
    36 0.806021 -0.359837 -1.318334 1.349685 0.343493 -0.771450
    37 1.789782 0.000000 -0.000004 0.000000 0.000000 0.397500
    38 1.206999 0.000003 0.000002 0.000000 0.000000 0.989033
    39 4.125000 -1.447266 -3.542969 -1.564198 -0.011689 -1.581440
    40 3.820738 -1.409994 -0.589409 -1.564198 -0.011689 -1.581440
  time 20
    0 0.000005 3.335938 -8.640625 -1.570781 -1.391896 -1.570809
    1 2.033349 1.000767 1.937660 1.596637 -1.286515 2.942961
    2 6.028141 0.000000 0.000000 -1.579228 0.357999 -1.145030
    3 11.692554 0.000001 0.000002 0.000000 0.000000 -1.541525
    4 11.481674 0.000001 -0.000032 1.573168 -0.028074 0.044378
    5 3.859709 -0.142404 -1.191975 -0.476793 0.134331 -0.965122
    6 1.312555 -0.000002 0.000001 0.000000 0.000000 -0.279217
    7 0.729363 -0.000002 -0.000002 0.000000 0.000000 -0.096880
    8 3.942335 0.046767 -0.431443 -0.145073 0.087435 -0.741656
    9 1.539097 0.000000 0.000000 0.000000 0.000000 -0.309335
    10 1.196326 -0.000002 -0.000001 0.000000 0.000000 -0.521226
    11 3.883696 -0.046765 0.431443 0.085902 0.021830 -0.587867
    12 1.719570 -0.000004 -0.000001 0.000000 0.005516 -0.366478
    13 1.209171 -0.000002 0.000000 0.000000 0.003084 -0.216400
    14 3.859865 -0.137947 1.332466 0.354449 -0.042750 -0.531718
    15 1.719429 0.000002 -0.000001 0.000000 0.004074 -0.363009
    16 1.099665 0.000000 0.000000 0.000000 0.002596 -0.244331
    17 0.806053 -0.348925 1.321258 -1.166382 -0.626621 -0.921969
    18 1.789780 -0.000002 0.000002 0.000000 0.000000 0.189105
    19 1.207006 0.000000 0.000000 0.000000 0.000000 0.306015
    20 2.033356 1.000772 -1.937610 -1.668474 1.286518 2.942953
    21 6.028144 0.000000 0.000000 1.752113 1.443519 -0.815110
    22 11.692554 0.000001 0.000003 0.000000 0.000000 -0.432113
    23 11.481697 0.000001 0.000002 -1.219728 0.006811 0.151363
    24 3.859678 -0.132570 1.193109 0.432208 -0.155862 -0.861350
    25 1.312557 -0.000002 0.000001 0.000000 0.000000 -1.191994
    26 0.729365 0.000002 -0.000002 0.000000 0.000000 -1.063394
    27 3.942305 0.050327 0.431044 0.232421 0.000609 -0.853331
    28 1.539099 -0.000002 0.000000 0.000000 0.000000 -0.973399
    29 1.196321 0.000008 0.000000 0.000000 0.000000 -1.451289
    30 3.883661 -0.050323 -0.431042 0.066987 0.050243 -0.694792
    31 1.719578 0.000004 0.000000 0.000000 0.000000 -1.251039
    32 1.209185 0.000002 0.000000 0.000000 0.000000 -1.141170
    33 3.859838 -0.148937 -1.331282 -0.248859 0.263122 -0.072137
    34 1.719423 0.000002 0.000000 0.000000 0.000000 -0.676756
    35 1.099667 0.000002 0.000000 0.000000 0.000000 -1.021287
    36 0.806021 -0.359837 -1.318334 1.349685 0.343493 -0.771450
    37 1.789782 0.000000 -0.000004 0.000000 0.000000 0.397500
    38 1.206999 0.000003 0.000002 0.000000 0.000000 0.989033
    39 4.125000 -1.447266 -3.542969 -1.564198 -0.011689 -1.581440
    40 3.820738 -1.409994 -0.589409 -1.564198 -0.011689 -1.581440
  time 21
    0 0.000005 3.335938 -8.640625 -1.570781 -1.391896 -1.570809
    1 2.033349 1.000767 1.937660 1.596637 -1.286515 2.942961
    2 6.028141 0.000000 0.000000 -1.579228 0.357999 -1.145030
    3 11.692554 0.000001 0.000002 0.000000 0.000000 -1.541525
    4 11.481674 0.000001 -0.000032 1.573168 -0.028074 0.044378
    5 3.859709 -0.142404 -1.191975 -0.476793 0.134331 -0.965122
    6 1.312555 -0.000002 0.000001 0.000000 0.000000 -0.279217
    7 0.729363 -0.000002 -0.000002 0.000000 0.000000 -0.096880
    8 3.942335 0.046767 -0.431443 -0.145073 0.087435 -0.741656
    9 1.539097 0.000000 0.000000 0.000000 0.000000 -0.309335
    10 1.196326 -0.000002 -0.000001 0.000000 0.000000 -0.521226
    11 3.883696 -0.046765 0.431443 0.085902 0.021830 -0.587867
    12 1.719570 -0.000004 -0.000001 0.000000 0.005516 -0.366478
    13 1.209171 -0.000002 0.000000 0.000000 0.003084 -0.216400
    14 3.859865 -0.137947 1.332466 0.354449 -0.042750 -0.531718
    15 1.719429 0.000002 -0.000001 0.000000 0.004074 -0.363009
    16 1.099665 0.000000 0.000000 0.000000 0.002596 -0.244331
    17 0.806053 -0.348925 1.321258 -1.166382 -0.626621 -0.921969
    18 1.789780 -0.000002 0.000002 0.000000 0.000000 0.189105
    19 1.207006 0.000000 0.000000 0.000000 0.000000 0.306015
    20 2.033356 1.000772 -1.937610 -1.668474 1.286518 2.942953
    21 6.028144 0.000000 0.000000 1.837489 1.469224 -0.726641
    22 11.692554 0.000001 0.000003 0.000000 0.000000 -0.399856
    23 11.481697 0.000001 0.000002 -1.233727 0.024126 0.139284
    24 3.859678 -0.132570 1.193109 0.432208 -0.155862 -0.861350
    25 1.312557 -0.000002 0.000001 0.000000 0.000000 -1.191994
    26 0.729365 0.000002 -0.000002 0.000000 0.000000 -1.063394
    27 3.942305 0.050327 0.431044 0.232421 0.000609 -0.853331
    28 1.539099 -0.000002 0.000000 0.000000 0.000000 -0.973399
    29 1.196321 0.000008 0.000000 0.000000 0.000000 -1.451289
    30 3.883661 -0.050323 -0.431042 0.066987 0.050243 -0.694792
    31 1.719578 0.000004 0.000000 0.000000 0.000000 -1.251039
    32 1.209185 0.000002 0.000000 0.000000 0.000000 -1.141170
    33 3.859838 -0.148937 -1.331282 -0.248859 0.263122 -0.072137
    34 1.719423 0.000002 0.000000 0.000000 0.000000 -0.676756
    35 1.099667 0.000002 0.000000 0.000000 0.000000 -1.021287
    36 0.806021 -0.359837 -1.318334 1.349685 0.343493 -0.771450
    37 1.789782 0.000000 -0.000004 0.000000 0.000000 0.397500
    38 1.206999 0.000003 0.000002 0.000000 0.000000 0.989033
    39 4.125000 -1.447266 -3.542969 -1.564198 -0.011689 -1.581440
    40 3.820738 -1.409994 -0.589409 -1.564198 -0.011689 -1.581440
  time 22
    0 0.000005 3.335938 -8.640625 -1.570781 -1.391896 -1.570809
    1 2.033349 1.000767 1.937660 1.596637 -1.286515 2.942961
    2 6.028141 0.000000 0.000000 -1.579228 0.357999 -1.145030
    3 11.692554 0.000001 0.000002 0.000000 0.000000 -1.541525
    4 11.481674 0.000001 -0.000032 1.573168 -0.028074 0.044378
    5 3.859709 -0.142404 -1.191975 -0.476793 0.134331 -0.965122
    6 1.312555 -0.000002 0.000001 0.000000 0.000000 -0.279217
    7 0.729363 -0.000002 -0.000002 0.000000 0.000000 -0.096880
    8 3.942335 0.046767 -0.431443 -0.145073 0.087435 -0.741656
    9 1.539097 0.000000 0.000000 0.000000 0.000000 -0.309335
    10 1.196326 -0.000002 -0.000001 0.000000 0.000000 -0.521226
    11 3.883696 -0.046765 0.431443 0.085902 0.021830 -0.587867
    12 1.719570 -0.000004 -0.000001 0.000000 0.005516 -0.366478
    13 1.209171 -0.000002 0.000000 0.000000 0.003084 -0.216400
    14 3.859865 -0.137947 1.332466 0.354449 -0.042750 -0.531718
    15 1.719429 0.000002 -0.000001 0.000000 0.004074 -0.363009
    16 1.099665 0.000000 0.000000 0.000000 0.002596 -0.244331
    17 0.806053 -0.348925 1.321258 -1.166382 -0.626621 -0.921969
    18 1.789780 -0.000002 0.000002 0.000000 0.000000 0.189105
    19 1.207006 0.000000 0.000000 0.000000 0.000000 0.306015
    20 2.033356 1.000772 -1.937610 -1.668474 1.286518 2.942953
    21 6.028144 0.000000 0.000000 1.928943 1.487171 -0.633017
    22 11.692554 0.000001 0.000003 0.000000 0.000000 -0.374930
    23 11.481697 0.000001 0.000002 -1.248253 0.027169 0.140428
    24 3.859678 -0.132570 1.193109 0.432208 -0.155862 -0.861350
    25 1.312557 -0.000002 0.000001 0.000000 0.000000 -1.191994
    26 0.729365 0.000002 -0.000002 0.000000 0.000000 -1.063394
    27 3.942305 0.050327 0.431044 0.232421 0.000609 -0.853331
    28 1.539099 -0.000002 0.000000 0.000000 0.000000 -0.973399
    29 1.196321 0.000008 0.000000 0.000000 0.000000 -1.451289
    30 3.883661 -0.050323 -0.431042 0.066987 0.050243 -0.694792
    31 1.719578 0.000004 0.000000 0.000000 0.000000 -1.251039
    32 1.209185 0.000002 0.000000 0.000000 0.000000 -1.141170
    33 3.859838 -0.148937 -1.331282 -0.248859 0.263122 -0.072137
    34 1.719423 0.000002 0.000000 0.000000 0.000000 -0.676756
    35 1.099667 0.000002 0.000000 0.000000 0.000000 -1.021287
    36 0.806021 -0.359837 -1.318334 1.349685 0.343493 -0.771450
    37 1.789782 0.000000 -0.000004 0.000000 0.000000 0.397500
    38 1.206999 0.000003 0.000002 0.000000 0.000000 0.989033
    39 4.125000 -1.447266 -3.542969 -1.564198 -0.011689 -1.581440
    40 3.820738 -1.409994 -0.589409 -1.564198 -0.011689 -1.581440
  time 23
    0 0.000005 3.335938 -8.640625 -1.570781 -1.391896 -1.570809
    1 2.033349 1.000767 1.937660 1.596637 -1.286515 2.942961
    2 6.028141 0.000000 0.000000 -1.579228 0.357999 -1.145030
    3 11.692554 0.000001 0.000002 0.000000 0.000000 -1.541525
    4 11.481674 0.000001 -0.000032 1.573168 -0.028074 0.044378
    5 3.859709 -0.142404 -1.191975 -0.476793 0.134331 -0.965122
    6 1.312555 -0.000002 0.000001 0.000000 0.000000 -0.279217
    7 0.729363 -0.000002 -0.000002 0.000000 0.000000 -0.096880
    8 3.942335 0.046767 -0.431443 -0.145073 0.087435 -0.741656
    9 1.539097 0.000000 0.000000 0.000000 0.000000 -0.309335
    10 1.196326 -0.000002 -0.000001 0.000000 0.000000 -0.521226
    11 3.883696 -0.046765 0.431443 0.085902 0.021830 -0.587867
    12 1.719570 -0.000004 -0.000001 0.000000 0.005516 -0.366478
    13 1.209171 -0.000002 0.000000 0.000000 0.003084 -0.216400
    14 3.859865 -0.137947 1.332466 0.354449 -0.042750 -0.531718
    15 1.719429 0.000002 -0.000001 0.000000 0.004074 -0.363009
    16 1.099665 0.000000 0.000000 0.000000 0.002596 -0.244331
    17 0.806053 -0.348925 1.321258 -1.166382 -0.626621 -0.921969
    18 1.789780 -0.000002 0.000002 0.000000 0.000000 0.189105
    19 1.207006 0.000000 0.000000 0.000000 0.000000 0.306015
    20 2.033356 1.000772 -1.937610 -1.668474 1.286518 2.942953
    21 6.028144 0.000000 0.000000 2.011003 1.498668 -0.549726
    22 11.692554 0.000001 0.000003 0.000000 0.000000 -0.356471
    23 11.481697 0.000001 0.000002 -1.261853 0.026511 0.145378
    24 3.859678 -0.132570 1.193109 0.432208 -0.155862 -0.861350
    25 1.312557 -0.000002 0.000001 0.000000 0.000000 -1.191994
    26 0.729365 0.000002 -0.000002 0.000000 0.000000 -1.063394
    27 3.942305 0.050327 0.431044 0.232421 0.000609 -0.853331
    28 1.539099 -0.000002 0.000000 0.000000 0.000000 -0.973399
    29 1.196321 0.000008 0.000000 0.000000 0.000000 -1.451289
    30 3.883661 -0.050323 -0.431042 0.066987 0.050243 -0.694792
    31 1.719578 0.000004 0.000000 0.000000 0.000000 -1.251039
    32 1.209185 0.000002 0.000000 0.000000 0.000000 -1.141170
    33 3.859838 -0.148937 -1.331282 -0.248859 0.263122 -0.072137
    34 1.719423 0.000002 0.000000 0.000000 0.000000 -0.676756
    35 1.099667 0.000002 0.000000 0.000000 0.000000 -1.021287
    36 0.806021 -0.359837 -1.318334 1.349685 0.343493 -0.771450
    37 1.789782 0.000000 -0.000004 0.000000 0.000000 0.397500
    38 1.206999 0.000003 0.000002 0.000000 0.000000 0.989033
    39 4.125000 -1.447266 -3.542969 -1.564198 -0.011689 -1.581440
    40 3.820738 -1.409994 -0.589409 -1.564198 -0.011689 -1.581440
  time 24
    0 0.000005 3.335938 -8.640625 -1.570781 -1.391896 -1.570809
    1 2.033349 1.000767 1.937660 1.596637 -1.286515 2.942961
    2 6.028141 0.000000 0.000000 -1.579228 0.357999 -1.145030
    3 11.692554 0.000001 0.000002 0.000000 0.000000 -1.541525
    4 11.481674 0.000001 -0.000032 1.573168 -0.028074 0.044378
    5 3.859709 -0.142404 -1.191975 -0.476793 0.134331 -0.965122
    6 1.312555 -0.000002 0.000001 0.000000 0.000000 -0.279217
    7 0.729363 -0.000002 -0.000002 0.000000 0.000000 -0.096880
    8 3.942335 0.046767 -0.431443 -0.145073 0.087435 -0.741656
    9 1.539097 0.000000 0.000000 0.000000 0.000000 -0.309335
    10 1.196326 -0.000002 -0.000001 0.000000 0.000000 -0.521226
    11 3.883696 -0.046765 0.431443 0.085902 0.021830 -0.587867
    12 1.719570 -0.000004 -0.000001 0.000000 0.005516 -0.366478
    13 1.209171 -0.000002 0.000000 0.000000 0.003084 -0.216400
    14 3.859865 -0.137947 1.332466 0.354449 -0.042750 -0.531718
    15 1.719429 0.000002 -0.000001 0.000000 0.004074 -0.363009
    16 1.099665 0.000000 0.000000 0.000000 0.002596 -0.244331
    17 0.806053 -0.348925 1.321258 -1.166382 -0.626621 -0.921969
    18 1.789780 -0.000002 0.000002 0.000000 0.000000 0.189105
    19 1.207006 0.000000 0.000000 0.000000 0.000000 0.306015
    20 2.033356 1.000772 -1.937610 -1.668474 1.286518 2.942953
    21 6.028144 0.000000 0.000000 2.073160 1.505912 -0.487076
    22 11.692554 0.000001 0.000003 0.000000 0.000000 -0.342373
    23 11.481697 0.000001 0.000002 -1.273655 0.024126 0.153255
    24 3.859678 -0.132570 1.193109 0.432208 -0.155862 -0.861350
    25 1.312557 -0.000002 0.000001 0.000000 0.000000 -1.191994
    26 0.729365 0.000002 -0.000002 0.000000 0.000000 -1.063394
    27 3.942305 0.050327 0.431044 0.232421 0.000609 -0.853331
    28 1.539099 -0.000002 0.000000 0.000000 0.000000 -0.973399
    29 1.196321 0.000008 0.000000 0.000000 0.000000 -1.451289
    30 3.883661 -0.050323 -0.431042 0.066987 0.050243 -0.694792
    31 1.719578 0.000004 0.000000 0.000000 0.000000 -1.251039
    32 1.209185 0.000002 0.000000 0.000000 0.000000 -1.141170
    33 3.859838 -0.148937 -1.331282 -0.248859 0.263122 -0.072137
    34 1.719423 0.000002 0.000000 0.000000 0.000000 -0.676756
    35 1.099667 0.000002 0.000000 0.000000 0.000000 -1.021287
    36 0.806021 -0.359837 -1.318334 1.349685 0.343493 -0.771450
    37 1.789782 0.000000 -0.000004 0.000000 0.000000 0.397500
    38 1.206999 0.000003 0.000002 0.000000 0.000000 0.989033
    39 4.125000 -1.447266 -3.542969 -1.564198 -0.011689 -1.581440
    40 3.820738 -1.409994 -0.589409 -1.564198 -0.011689 -1.581440
  time 25
    0 0.000005 3.335938 -8.640625 -1.570781 -1.391896 -1.570809
    1 2.033349 1.000767 1.937660 1.596637 -1.286515 2.942961
    2 6.028141 0.000000 0.000000 -1.579228 0.357999 -1.145030
    3 11.692554 0.000001 0.000002 0.000000 0.000000 -1.541525
    4 11.481674 0.000001 -0.000032 1.573168 -0.028074 0.044378
    5 3.859709 -0.142404 -1.191975 -0.476793 0.134331 -0.965122
    6 1.312555 -0.000002 0.000001 0.000000 0.000000 -0.279217
    7 0.729363 -0.000002 -0.000002 0.000000 0.000000 -0.096880
    8 3.942335 0.046767 -0.431443 -0.145073 0.087435 -0.741656
    9 1.539097 0.000000 0.000000 0.000000 0.000000 -0.309335
    10 1.196326 -0.000002 -0.000001 0.000000 0.000000 -0.521226
    11 3.883696 -0.046765 0.431443 0.085902 0.021830 -0.587867
    12 1.719570 -0.000004 -0.000001 0.000000 0.005516 -0.366478
    13 1.209171 -0.000002 0.000000 0.000000 0.003084 -0.216400
    14 3.859865 -0.137947 1.332466 0.354449 -0.042750 -0.531718
    15 1.719429 0.000002 -0.000001 0.000000 0.004074 -0.363009
    16 1.099665 0.000000 0.000000 0.000000 0.002596 -0.244331
    17 0.806053 -0.348925 1.321258 -1.166382 -0.626621 -0.921969
    18 1.789780 -0.000002 0.000002 0.000000 0.000000 0.189105
    19 1.207006 0.000000 0.000000 0.000000 0.000000 0.306015
    20 2.033356 1.000772 -1.937610 -1.668474 1.286518 2.942953
    21 6.028144 0.000000 0.000000 2.124543 1.511334 -0.435557
    22 11.692554 0.000001 0.000003 0.000000 0.000000 -0.329553
    23 11.481697 0.000001 0.000002 -1.282371 0.020877 0.163023
    24 3.859678 -0.132570 1.193109 0.432208 -0.155862 -0.861350
    25 1.312557 -0.000002 0.000001 0.000000 0.000000 -1.191994
    26 0.729365 0.000002 -0.000002 0.000000 0.000000 -1.063394
    27 3.942305 0.050327 0.431044 0.232421 0.000609 -0.853331
    28 1.539099 -0.000002 0.000000 0.000000 0.000000 -0.973399
    29 1.196321 0.000008 0.000000 0.000000 0.000000 -1.451289
    30 3.883661 -0.050323 -0.431042 0.066987 0.050243 -0.694792
    31 1.719578 0.000004 0.000000 0.000000 0.000000 -1.251039
    32 1.209185 0.000002 0.000000 0.000000 0.000000 -1.141170
    33 3.859838 -0.148937 -1.331282 -0.248859 0.263122 -0.072137
    34 1.719423 0.000002 0.000000 0.000000 0.000000 -0.676756
    35 1.099667 0.000002 0.000000 0.000000 0.000000 -1.021287
    36 0.806021 -0.359837 -1.318334 1.349685 0.343493 -0.771450
    37 1.789782 0.000000 -0.000004 0.000000 0.000000 0.397500
    38 1.206999 0.000003 0.000002 0.000000 0.000000 0.989033
    39 4.125000 -1.447266 -3.542969 -1.564198 -0.011689 -1.581440
    40 3.820738 -1.409994 -0.589409 -1.564198 -0.011689 -1.581440
  time 26
    0 0.000005 3.335938 -8.640625 -1.570781 -1.391896 -1.570809
    1 2.033349 1.000767 1.937660 1.596637 -1.286515 2.942961
    2 6.028141 0.000000 0.000000 -1.579228 0.357999 -1.145030
    3 11.692554 0.000001 0.000002 0.000000 0.000000 -1.541525
    4 11.481674 0.000001 -0.000032 1.573168 -0.028074 0.044378
    5 3.859709 -0.142404 -1.191975 -0.476793 0.134331 -0.965122
    6 1.312555 -0.000002 0.000001 0.000000 0.000000 -0.279217
    7 0.729363 -0.000002 -0.000002 0.000000 0.000000 -0.096880
    8 3.942335 0.046767 -0.431443 -0.145073 0.087435 -0.741656
    9 1.539097 0.000000 0.000000 0.000000 0.000000 -0.309335
    10 1.196326 -0.000002 -0.000001 0.000000 0.000000 -0.521226
    11 3.883696 -0.046765 0.431443 0.085902 0.021830 -0.587867
    12 1.719570 -0.000004 -0.000001 0.000000 0.005516 -0.366478
    13 1.209171 -0.000002 0.000000 0.000000 0.003084 -0.216400
    14 3.859865 -0.137947 1.332466 0.354449 -0.042750 -0.531718
    15 1.719429 0.000002 -0.000001 0.000000 0.004074 -0.363009
    16 1.099665 0.000000 0.000000 0.000000 0.002596 -0.244331
    17 0.806053 -0.348925 1.321258 -1.166382 -0.626621 -0.921969
    18 1.789780 -0.000002 0.000002 0.000000 0.000000 0.189105
    19 1.207006 0.000000 0.000000 0.000000 0.000000 0.306015
    20 2.033356 1.000772 -1.937610 -1.668474 1.286518 2.942953
    21 6.028144 0.000000 0.000000 2.202029 1.517690 -0.357904
    22 11.692554 0.000001 0.000003 0.000000 0.000000 -0.314139
    23 11.481697 0.000001 0.000002 -1.286456 0.017278 0.173584
    24 3.859678 -0.132570 1.193109 0.432208 -0.155862 -0.861350
    25 1.312557 -0.000002 0.000001 0.000000 0.000000 -1.191994
    26 0.729365 0.000002 -0.000002 0.000000 0.000000 -1.063394
    27 3.942305 0.050327 0.431044 0.232421 0.000609 -0.853331
    28 1.539099 -0.000002 0.000000 0.000000 0.000000 -0.973399
    29 1.196321 0.000008 0.000000 0.000000 0.000000 -1.451289
    30 3.883661 -0.050323 -0.431042 0.066987 0.050243 -0.694792
    31 1.719578 0.000004 0.000000 0.000000 0.000000 -1.251039
    32 1.209185 0.000002 0.000000 0.000000 0.000000 -1.141170
    33 3.859838 -0.148937 -1.331282 -0.248859 0.263122 -0.072137
    34 1.719423 0.000002 0.000000 0.000000 0.000000 -0.676756
    35 1.099667 0.000002 0.000000 0.000000 0.000000 -1.021287
    36 0.806021 -0.359837 -1.318334 1.349685 0.343493 -0.771450
    37 1.789782 0.000000 -0.000004 0.000000 0.000000 0.397500
    38 1.206999 0.000003 0.000002 0.000000 0.000000 0.989033
    39 4.125000 -1.447266 -3.542969 -1.564198 -0.011689 -1.581440
    40 3.820738 -1.409994 -0.589409 -1.564198 -0.011689 -1.581440
  time 27
    0 0.000005 3.335938 -8.640625 -1.570781 -1.391896 -1.570809
    1 2.033349 1.000767 1.937660 1.596637 -1.286515 2.942961
    2 6.028141 0.000000 0.000000 -1.579228 0.357999 -1.145030
    3 11.692554 0.000001 0.000002 0.000000 0.000000 -1.541525
    4 11.481674 0.000001 -0.000032 1.573168 -0.028074 0.044378
    5 3.859709 -0.142404 -1.191975 -0.476793 0.134331 -0.965122
    6 1.312555 -0.000002 0.000001 0.000000 0.000000 -0.279217
    7 0.729363 -0.000002 -0.000002 0.000000 0.000000 -0.096880
    8 3.942335 0.046767 -0.431443 -0.145073 0.087435 -0.741656
    9 1.539097 0.000000 0.000000 0.000000 0.000000 -0.309335
    10 1.196326 -0.000002 -0.000001 0.000000 0.000000 -0.521226
    11 3.883696 -0.046765 0.431443 0.085902 0.021830 -0.587867
    12 1.719570 -0.000004 -0.000001 0.000000 0.005516 -0.366478
    13 1.209171 -0.000002 0.000000 0.000000 0.003084 -0.216400
    14 3.859865 -0.137947 1.332466 0.354449 -0.042750 -0.531718
    15 1.719429 0.000002 -0.000001 0.000000 0.004074 -0.363009
    16 1.099665 0.000000 0.000000 0.000000 0.002596 -0.244331
    17 0.806053 -0.348925 1.321258 -1.166382 -0.626621 -0.921969
    18 1.789780 -0.000002 0.000002 0.000000 0.000000 0.189105
    19 1.207006 0.000000 0.000000 0.000000 0.000000 0.306015
    20 2.033356 1.000772 -1.937610 -1.668474 1.286518 2.942953
    21 6.028144 0.000000 0.000000 2.251227 1.521195 -0.308757
    22 11.692554 0.000001 0.000003 0.000000 0.000000 -0.304327
    23 11.481697 0.000001 0.000002 -1.288290 0.013741 0.183771
    24 3.859678 -0.132570 1.193109 0.432208 -0.155862 -0.861350
    25 1.312557 -0.000002 0.000001 0.000000 0.000000 -1.191994
    26 0.729365 0.000002 -0.000002 0.000000 0.000000 -1.063394
    27 3.942305 0.050327 0.431044 0.232421 0.000609 -0.853331
    28 1.539099 -0.000002 0.000000 0.000000 0.000000 -0.973399
    29 1.196321 0.000008 0.000000 0.000000 0.000000 -1.451289
    30 3.883661 -0.050323 -0.431042 0.066987 0.050243 -0.694792
    31 1.719578 0.000004 0.000000 0.000000 0.000000 -1.251039
    32 1.209185 0.000002 0.000000 0.000000 0.000000 -1.141170
    33 3.859838 -0.148937 -1.331282 -0.248859 0.263122 -0.072137
    34 1.719423 0.000002 0.000000 0.000000 0.000000 -0.676756
    35 1.099667 0.000002 0.000000 0.000000 0.000000 -1.021287
    36 0.806021 -0.359837 -1.318334 1.349685 0.343493 -0.771450
    37 1.789782 0.000000 -0.000004 0.000000 0.000000 0.397500
    38 1.206999 0.000003 0.000002 0.000000 0.000000 0.989033
    39 4.125000 -1.447266 -3.542969 -1.564198 -0.011689 -1.581440
    40 3.820738 -1.409994 -0.589409 -1.564198 -0.011689 -1.581440
  time 28
    0 0.000005 3.335938 -8.640625 -1.570781 -1.391896 -1.570809
    1 2.033349 1.000767 1.937660 1.596637 -1.286515 2.942961
    2 6.028141 0.000000 0.000000 -1.579228 0.357999 -1.145030
    3 11.692554 0.000001 0.000002 0.000000 0.000000 -1.541525
    4 11.481674 0.000001 -0.000032 1.573168 -0.028074 0.044378
    5 3.859709 -0.142404 -1.191975 -0.476793 0.134331 -0.965122
    6 1.312555 -0.000002 0.000001 0.000000 0.000000 -0.279217
    7 0.729363 -0.000002 -0.000002 0.000000 0.000000 -0.096880
    8 3.942335 0.046767 -0.431443 -0.145073 0.087435 -0.741656
    9 1.539097 0.000000 0.000000 0.000000 0.000000 -0.309335
    10 1.196326 -0.000002 -0.000001 0.000000 0.000000 -0.521226
    11 3.883696 -0.046765 0.431443 0.085902 0.021830 -0.587867
    12 1.719570 -0.000004 -0.000001 0.000000 0.005516 -0.366478
    13 1.209171 -0.000002 0.000000 0.000000 0.003084 -0.216400
    14 3.859865 -0.137947 1.332466 0.354449 -0.042750 -0.531718
    15 1.719429 0.000002 -0.000001 0.000000 0.004074 -0.363009
    16 1.099665 0.000000 0.000000 0.000000 0.002596 -0.244331
    17 0.806053 -0.348925 1.321258 -1.166382 -0.626621 -0.921969
    18 1.789780 -0.000002 0.000002 0.000000 0.000000 0.189105
    19 1.207006 0.000000 0.000000 0.000000 0.000000 0.306015
    20 2.033356 1.000772 -1.937610 -1.668474 1.286518 2.942953
    21 6.028144 0.000000 0.000000 2.216471 1.519700 -0.343893
    22 11.692554 0.000001 0.000003 0.000000 0.000000 -0.306207
    23 11.481697 0.000001 0.000002 -1.288926 0.010616 0.192461
    24 3.859678 -0.132570 1.193109 0.432208 -0.155862 -0.861350
    25 1.312557 -0.000002 0.000001 0.000000 0.000000 -1.191994
    26 0.729365 0.000002 -0.000002 0.000000 0.000000 -1.063394
    27 3.942305 0.050327 0.431044 0.232421 0.000609 -0.853331
    28 1.539099 -0.000002 0.000000 0.000000 0.000000 -0.973399
    29 1.196321 0.000008 0.000000 0.000000 0.000000 -1.451289
    30 3.883661 -0.050323 -0.431042 0.066987 0.050243 -0.694792
    31 1.719578 0.000004 0.000000 0.000000 0.000000 -1.251039
    32 1.209185 0.000002 0.000000 0.000000 0.000000 -1.141170
    33 3.859838 -0.148937 -1.331282 -0.248859 0.263122 -0.072137
    34 1.719423 0.000002 0.000000 0.000000 0.000000 -0.676756
    35 1.099667 0.000002 0.000000 0.000000 0.000000 -1.021287
    36 0.806021 -0.359837 -1.318334 1.349685 0.343493 -0.771450
    37 1.789782 0.000000 -0.000004 0.000000 0.000000 0.397500
    38 1.206999 0.000003 0.000002 0.000000 0.000000 0.989033
    39 4.125000 -1.447266 -3.542969 -1.564198 -0.011689 -1.581440
    40 3.820738 -1.409994 -0.589409 -1.564198 -0.011689 -1.581440
  time 29
    0 0.000005 3.335938 -8.640625 -1.570781 -1.391896 -1.570809
    1 2.033349 1.000767 1.937660 1.596637 -1.286515 2.942961
    2 6.028141 0.000000 0.000000 -1.579228 0.357999 -1.145030
    3 11.692554 0.000001 0.000002 0.000000 0.000000 -1.541525
    4 11.481674 0.000001 -0.000032 1.573168 -0.028074 0.044378
    5 3.859709 -0.142404 -1.191975 -0.476793 0.134331 -0.965122
    6 1.312555 -0.000002 0.000001 0.000000 0.000000 -0.279217
    7 0.729363 -0.000002 -0.000002 0.000000 0.000000 -0.096880
    8 3.942335 0.046767 -0.431443 -0.145073 0.087435 -0.741656
    9 1.539097 0.000000 0.000000 0.000000 0.000000 -0.309335
    10 1.196326 -0.000002 -0.000001 0.000000 0.000000 -0.521226
    11 3.883696 -0.046765 0.431443 0.085902 0.021830 -0.587867
    12 1.719570 -0.000004 -0.000001 0.000000 0.005516 -0.366478
    13 1.209171 -0.000002 0.000000 0.000000 0.003084 -0.216400
    14 3.859865 -0.137947 1.332466 0.354449 -0.042750 -0.531718
    15 1.719429 0.000002 -0.000001 0.000000 0.004074 -0.363009
    16 1.099665 0.000000 0.000000 0.000000 0.002596 -0.244331
    17 0.806053 -0.348925 1.321258 -1.166382 -0.626621 -0.921969
    18 1.789780 -0.000002 0.000002 0.000000 0.000000 0.189105
    19 1.207006 0.000000 0.000000 0.000000 0.000000 0.306015
    20 2.033356 1.000772 -1.937610 -1.668474 1.286518 2.942953
    21 6.028144 0.000000 0.000000 2.156209 1.516148 -0.404632
    22 11.692554 0.000001 0.000003 0.000000 0.000000 -0.312673
    23 11.481697 0.000001 0.000002 -1.288944 0.008354 0.198468
    24 3.859678 -0.132570 1.193109 0.432208 -0.155862 -0.861350
    25 1.312557 -0.000002 0.000001 0.000000 0.000000 -1.191994
    26 0.729365 0.000002 -0.000002 0.000000 0.000000 -1.063394
    27 3.942305 0.050327 0.431044 0.232421 0.000609 -0.853331
    28 1.539099 -0.000002 0.000000 0.000000 0.000000 -0.973399
    29 1.196321 0.000008 0.000000 0.000000 0.000000 -1.451289
    30 3.883661 -0.050323 -0.431042 0.066987 0.050243 -0.694792
    31 1.719578 0.000004 0.000000 0.000000 0.000000 -1.251039
    32 1.209185 0.000002 0.000000 0.000000 0.000000 -1.141170
    33 3.859838 -0.148937 -1.331282 -0.248859 0.263122 -0.072137
    34 1.719423 0.000002 0.000000 0.000000 0.000000 -0.676756
    35 1.099667 0.000002 0.000000 0.000000 0.000000 -1.021287
    36 0.806021 -0.359837 -1.318334 1.349685 0.343493 -0.771450
    37 1.789782 0.000000 -0.000004 0.000000 0.000000 0.397500
    38 1.206999 0.000003 0.000002 0.000000 0.000000 0.989033
    39 4.125000 -1.447266 -3.542969 -1.564198 -0.011689 -1.581440
    40 3.820738 -1.409994 -0.589409 -1.564198 -0.011689 -1.581440
end
