// Created by Crowbar 0.74
version 1
nodes
  0 "ValveBiped.Bip01_Spine4" -1
  1 "ValveBiped.Bip01_L_Clavicle" 0
  2 "ValveBiped.Bip01_L_UpperArm" 1
  3 "ValveBiped.Bip01_L_Forearm" 2
  4 "ValveBiped.Bip01_L_Hand" 3
  5 "ValveBiped.Bip01_L_Finger4" 4
  6 "ValveBiped.Bip01_L_Finger41" 5
  7 "ValveBiped.Bip01_L_Finger42" 6
  8 "ValveBiped.Bip01_L_Finger3" 4
  9 "ValveBiped.Bip01_L_Finger31" 8
  10 "ValveBiped.Bip01_L_Finger32" 9
  11 "ValveBiped.Bip01_L_Finger2" 4
  12 "ValveBiped.Bip01_L_Finger21" 11
  13 "ValveBiped.Bip01_L_Finger22" 12
  14 "ValveBiped.Bip01_L_Finger1" 4
  15 "ValveBiped.Bip01_L_Finger11" 14
  16 "ValveBiped.Bip01_L_Finger12" 15
  17 "ValveBiped.Bip01_L_Finger0" 4
  18 "ValveBiped.Bip01_L_Finger01" 17
  19 "ValveBiped.Bip01_L_Finger02" 18
  20 "ValveBiped.Bip01_R_Clavicle" 0
  21 "ValveBiped.Bip01_R_UpperArm" 20
  22 "ValveBiped.Bip01_R_Forearm" 21
  23 "ValveBiped.Bip01_R_Hand" 22
  24 "ValveBiped.Bip01_R_Finger4" 23
  25 "ValveBiped.Bip01_R_Finger41" 24
  26 "ValveBiped.Bip01_R_Finger42" 25
  27 "ValveBiped.Bip01_R_Finger3" 23
  28 "ValveBiped.Bip01_R_Finger31" 27
  29 "ValveBiped.Bip01_R_Finger32" 28
  30 "ValveBiped.Bip01_R_Finger2" 23
  31 "ValveBiped.Bip01_R_Finger21" 30
  32 "ValveBiped.Bip01_R_Finger22" 31
  33 "ValveBiped.Bip01_R_Finger1" 23
  34 "ValveBiped.Bip01_R_Finger11" 33
  35 "ValveBiped.Bip01_R_Finger12" 34
  36 "ValveBiped.Bip01_R_Finger0" 23
  37 "ValveBiped.Bip01_R_Finger01" 36
  38 "ValveBiped.Bip01_R_Finger02" 37
  39 "ValveBiped.square" 23
  40 "ValveBiped.clip" 23
end
skeleton
  time 0
    0 0.000000 5.672042 -8.644795 -1.570798 -1.391899 -1.570795
    1 2.033349 1.000767 1.937660 1.596637 -1.286515 2.942961
    2 6.028141 0.000000 0.000000 -1.580198 0.690741 -1.292067
    3 11.692554 0.000001 0.000002 0.000000 0.000000 -0.732215
    4 11.481674 0.000001 -0.000032 1.573168 -0.028074 0.044378
    5 3.859709 -0.142404 -1.191975 -0.476793 0.134331 -0.965122
    6 1.312555 -0.000002 0.000001 0.000000 0.000000 -0.279217
    7 0.729363 -0.000002 -0.000002 0.000000 0.000000 -0.096880
    8 3.942335 0.046767 -0.431443 -0.145164 0.087288 -0.742661
    9 1.539097 0.000000 0.000000 0.000000 0.000000 -0.308403
    10 1.196326 -0.000002 -0.000001 0.000000 0.000000 -0.519838
    11 3.883696 -0.046765 0.431443 0.085902 0.021830 -0.587867
    12 1.719570 -0.000004 -0.000001 0.000000 0.005516 -0.366478
    13 1.209171 -0.000002 0.000000 0.000000 0.003084 -0.216400
    14 3.859865 -0.137947 1.332466 0.354449 -0.042750 -0.531718
    15 1.719429 0.000002 -0.000001 0.000000 0.004074 -0.363009
    16 1.099665 0.000000 0.000000 0.000000 0.002596 -0.244331
    17 0.806053 -0.348925 1.321258 -1.166382 -0.626621 -0.921969
    18 1.789780 -0.000002 0.000002 0.000000 0.000000 0.189105
    19 1.207006 0.000000 0.000000 0.000000 0.000000 0.306015
    20 2.033356 1.000772 -1.937610 -1.668474 1.286518 2.942953
    21 6.028144 0.000000 0.000000 1.635297 1.081359 -0.932303
    22 11.692554 0.000001 0.000003 0.000000 0.000000 -1.256010
    23 11.481697 0.000001 0.000002 -1.286801 0.004693 0.534476
    24 3.859678 -0.132570 1.193109 0.432208 -0.155862 -0.861350
    25 1.312557 -0.000002 0.000001 0.000000 0.000000 -1.191994
    26 0.729365 0.000002 -0.000002 0.000000 0.000000 -1.063394
    27 3.942305 0.050327 0.431044 0.232421 0.000609 -0.853331
    28 1.539099 -0.000002 0.000000 0.000000 0.000000 -0.973399
    29 1.196321 0.000008 0.000000 0.000000 0.000000 -1.451289
    30 3.883661 -0.050323 -0.431042 0.066987 0.050243 -0.694792
    31 1.719578 0.000004 0.000000 0.000000 0.000000 -1.251039
    32 1.209185 0.000002 0.000000 0.000000 0.000000 -1.141170
    33 3.859838 -0.148937 -1.331282 -0.248855 0.263129 -0.072121
    34 1.719423 0.000002 0.000000 0.000000 0.000000 -0.676756
    35 1.099667 0.000002 0.000000 0.000000 0.000000 -1.021287
    36 0.806021 -0.359837 -1.318334 1.349685 0.343493 -0.771450
    37 1.789782 0.000000 -0.000004 0.000000 0.000000 0.397500
    38 1.206999 0.000003 0.000002 0.000000 0.000000 0.989033
    39 4.127902 -1.449149 -3.542003 -1.564198 -0.011689 -1.581440
    40 3.820738 -1.409994 -0.589409 -1.564198 -0.011689 -1.581440
  time 1
    0 0.000000 5.382971 -8.644795 -1.570798 -1.391899 -1.570795
    1 2.033349 1.000767 1.937660 1.596637 -1.286515 2.942961
    2 6.028141 0.000000 0.000000 -1.580198 0.690741 -1.292067
    3 11.692554 0.000001 0.000002 0.000000 0.000000 -0.732215
    4 11.481674 0.000001 -0.000032 1.573168 -0.028074 0.044378
    5 3.859709 -0.142404 -1.191975 -0.476793 0.134331 -0.965122
    6 1.312555 -0.000002 0.000001 0.000000 0.000000 -0.279217
    7 0.729363 -0.000002 -0.000002 0.000000 0.000000 -0.096880
    8 3.942335 0.046767 -0.431443 -0.145164 0.087288 -0.742661
    9 1.539097 0.000000 0.000000 0.000000 0.000000 -0.308391
    10 1.196326 -0.000002 -0.000001 0.000000 0.000000 -0.519838
    11 3.883696 -0.046765 0.431443 0.085902 0.021830 -0.587867
    12 1.719570 -0.000004 -0.000001 0.000000 0.005516 -0.366478
    13 1.209171 -0.000002 0.000000 0.000000 0.003084 -0.216400
    14 3.859865 -0.137947 1.332466 0.354449 -0.042750 -0.531718
    15 1.719429 0.000002 -0.000001 0.000000 0.004074 -0.363009
    16 1.099665 0.000000 0.000000 0.000000 0.002596 -0.244331
    17 0.806053 -0.348925 1.321258 -1.166382 -0.626621 -0.921969
    18 1.789780 -0.000002 0.000002 0.000000 0.000000 0.189105
    19 1.207006 0.000000 0.000000 0.000000 0.000000 0.306015
    20 2.033356 1.000772 -1.937610 -1.668474 1.286518 2.942953
    21 6.028144 0.000000 0.000000 1.638799 1.121880 -0.928601
    22 11.692554 0.000001 0.000003 0.000000 0.000000 -1.160669
    23 11.481697 0.000001 0.000002 -1.287764 0.006236 0.358045
    24 3.859678 -0.132570 1.193109 0.432208 -0.155862 -0.861350
    25 1.312557 -0.000002 0.000001 0.000000 0.000000 -1.191994
    26 0.729365 0.000002 -0.000002 0.000000 0.000000 -1.063394
    27 3.942305 0.050327 0.431044 0.232421 0.000609 -0.853331
    28 1.539099 -0.000002 0.000000 0.000000 0.000000 -0.973399
    29 1.196321 0.000008 0.000000 0.000000 0.000000 -1.451289
    30 3.883661 -0.050323 -0.431042 0.066987 0.050243 -0.694792
    31 1.719578 0.000004 0.000000 0.000000 0.000000 -1.251039
    32 1.209185 0.000002 0.000000 0.000000 0.000000 -1.141170
    33 3.859838 -0.148937 -1.331282 -0.248855 0.263129 -0.072121
    34 1.719423 0.000002 0.000000 0.000000 0.000000 -0.676756
    35 1.099667 0.000002 0.000000 0.000000 0.000000 -1.021287
    36 0.806021 -0.359837 -1.318334 1.349685 0.343493 -0.771450
    37 1.789782 0.000000 -0.000004 0.000000 0.000000 0.397500
    38 1.206999 0.000003 0.000002 0.000000 0.000000 0.989033
    39 4.127902 -1.449149 -3.542003 -1.564198 -0.011689 -1.581440
    40 3.820738 -1.409994 -0.589409 -1.564198 -0.011689 -1.581440
  time 2
    0 0.000000 4.949364 -8.644795 -1.570798 -1.391899 -1.570795
    1 2.033349 1.000767 1.937660 1.596637 -1.286515 2.942961
    2 6.028141 0.000000 0.000000 -1.580198 0.690741 -1.292067
    3 11.692554 0.000001 0.000002 0.000000 0.000000 -0.732215
    4 11.481674 0.000001 -0.000032 1.573168 -0.028074 0.044378
    5 3.859709 -0.142404 -1.191975 -0.476793 0.134331 -0.965122
    6 1.312555 -0.000002 0.000001 0.000000 0.000000 -0.279217
    7 0.729363 -0.000002 -0.000002 0.000000 0.000000 -0.096880
    8 3.942335 0.046767 -0.431443 -0.145164 0.087288 -0.742661
    9 1.539097 0.000000 0.000000 0.000000 0.000000 -0.308391
    10 1.196326 -0.000002 -0.000001 0.000000 0.000000 -0.519838
    11 3.883696 -0.046765 0.431443 0.085902 0.021830 -0.587867
    12 1.719570 -0.000004 -0.000001 0.000000 0.005516 -0.366478
    13 1.209171 -0.000002 0.000000 0.000000 0.003084 -0.216400
    14 3.859865 -0.137947 1.332466 0.354449 -0.042750 -0.531718
    15 1.719429 0.000002 -0.000001 0.000000 0.004074 -0.363009
    16 1.099665 0.000000 0.000000 0.000000 0.002596 -0.244331
    17 0.806053 -0.348925 1.321258 -1.166382 -0.626621 -0.921969
    18 1.789780 -0.000002 0.000002 0.000000 0.000000 0.189105
    19 1.207006 0.000000 0.000000 0.000000 0.000000 0.306015
    20 2.033356 1.000772 -1.937610 -1.668474 1.286518 2.942953
    21 6.028144 0.000000 0.000000 1.656456 1.230215 -0.909823
    22 11.692554 0.000001 0.000003 0.000000 0.000000 -0.918594
    23 11.481697 0.000001 0.000002 -1.288817 0.007408 0.204100
    24 3.859678 -0.132570 1.193109 0.432208 -0.155862 -0.861350
    25 1.312557 -0.000002 0.000001 0.000000 0.000000 -1.191994
    26 0.729365 0.000002 -0.000002 0.000000 0.000000 -1.063394
    27 3.942305 0.050327 0.431044 0.232421 0.000609 -0.853331
    28 1.539099 -0.000002 0.000000 0.000000 0.000000 -0.973399
    29 1.196321 0.000008 0.000000 0.000000 0.000000 -1.451289
    30 3.883661 -0.050323 -0.431042 0.066987 0.050243 -0.694792
    31 1.719578 0.000004 0.000000 0.000000 0.000000 -1.251039
    32 1.209185 0.000002 0.000000 0.000000 0.000000 -1.141170
    33 3.859838 -0.148937 -1.331282 -0.248855 0.263129 -0.072121
    34 1.719423 0.000002 0.000000 0.000000 0.000000 -0.676756
    35 1.099667 0.000002 0.000000 0.000000 0.000000 -1.021287
    36 0.806021 -0.359837 -1.318334 1.349685 0.343493 -0.771450
    37 1.789782 0.000000 -0.000004 0.000000 0.000000 0.397500
    38 1.206999 0.000003 0.000002 0.000000 0.000000 0.989033
    39 4.448224 -1.453055 -3.538096 -1.564198 -0.011689 -1.581440
    40 3.820738 -1.409994 -0.589409 -1.564198 -0.011689 -1.581440
  time 3
    0 0.000000 4.566540 -8.644795 -1.570798 -1.391899 -1.570795
    1 2.033349 1.000767 1.937660 1.596637 -1.286515 2.942961
    2 6.028141 0.000000 0.000000 -1.580198 0.690741 -1.292067
    3 11.692554 0.000001 0.000002 0.000000 0.000000 -0.732215
    4 11.481674 0.000001 -0.000032 1.573168 -0.028074 0.044378
    5 3.859709 -0.142404 -1.191975 -0.476793 0.134331 -0.965122
    6 1.312555 -0.000002 0.000001 0.000000 0.000000 -0.279217
    7 0.729363 -0.000002 -0.000002 0.000000 0.000000 -0.096880
    8 3.942335 0.046767 -0.431443 -0.145164 0.087288 -0.742661
    9 1.539097 0.000000 0.000000 0.000000 0.000000 -0.308391
    10 1.196326 -0.000002 -0.000001 0.000000 0.000000 -0.519838
    11 3.883696 -0.046765 0.431443 0.085902 0.021830 -0.587867
    12 1.719570 -0.000004 -0.000001 0.000000 0.005516 -0.366478
    13 1.209171 -0.000002 0.000000 0.000000 0.003084 -0.216400
    14 3.859865 -0.137947 1.332466 0.354449 -0.042750 -0.531718
    15 1.719429 0.000002 -0.000001 0.000000 0.004074 -0.363009
    16 1.099665 0.000000 0.000000 0.000000 0.002596 -0.244331
    17 0.806053 -0.348925 1.321258 -1.166382 -0.626621 -0.921969
    18 1.789780 -0.000002 0.000002 0.000000 0.000000 0.189105
    19 1.207006 0.000000 0.000000 0.000000 0.000000 0.306015
    20 2.033356 1.000772 -1.937610 -1.668474 1.286518 2.942953
    21 6.028144 0.000000 0.000000 1.721456 1.376125 -0.842358
    22 11.692554 0.000001 0.000003 0.000000 0.000000 -0.610163
    23 11.481697 0.000001 0.000002 -1.288908 0.007490 0.192858
    24 3.859678 -0.132570 1.193109 0.432208 -0.155862 -0.861350
    25 1.312557 -0.000002 0.000001 0.000000 0.000000 -1.191994
    26 0.729365 0.000002 -0.000002 0.000000 0.000000 -1.063394
    27 3.942305 0.050327 0.431044 0.232421 0.000609 -0.853331
    28 1.539099 -0.000002 0.000000 0.000000 0.000000 -0.973399
    29 1.196321 0.000008 0.000000 0.000000 0.000000 -1.451289
    30 3.883661 -0.050323 -0.431042 0.066987 0.050243 -0.694792
    31 1.719578 0.000004 0.000000 0.000000 0.000000 -1.251039
    32 1.209185 0.000002 0.000000 0.000000 0.000000 -1.141170
    33 3.859838 -0.148937 -1.331282 -0.248855 0.263129 -0.072121
    34 1.719423 0.000002 0.000000 0.000000 0.000000 -0.676756
    35 1.099667 0.000002 0.000000 0.000000 0.000000 -1.021287
    36 0.806021 -0.359837 -1.318334 1.349685 0.343493 -0.771450
    37 1.789782 0.000000 -0.000004 0.000000 0.000000 0.397500
    38 1.206999 0.000003 0.000002 0.000000 0.000000 0.989033
    39 6.104525 -1.468680 -3.530283 -1.564198 -0.011689 -1.581440
    40 3.820738 -1.409994 -0.589409 -1.564198 -0.011689 -1.581440
  time 4
    0 0.000000 4.254030 -8.644795 -1.570798 -1.391899 -1.570795
    1 2.033349 1.000767 1.937660 1.596637 -1.286515 2.942961
    2 6.028141 0.000000 0.000000 -1.580198 0.690741 -1.292067
    3 11.692554 0.000001 0.000002 0.000000 0.000000 -0.732215
    4 11.481674 0.000001 -0.000032 1.573168 -0.028074 0.044378
    5 3.859709 -0.142404 -1.191975 -0.476793 0.134331 -0.965122
    6 1.312555 -0.000002 0.000001 0.000000 0.000000 -0.279217
    7 0.729363 -0.000002 -0.000002 0.000000 0.000000 -0.096880
    8 3.942335 0.046767 -0.431443 -0.145164 0.087288 -0.742661
    9 1.539097 0.000000 0.000000 0.000000 0.000000 -0.308391
    10 1.196326 -0.000002 -0.000001 0.000000 0.000000 -0.519838
    11 3.883696 -0.046765 0.431443 0.085902 0.021830 -0.587867
    12 1.719570 -0.000004 -0.000001 0.000000 0.005516 -0.366478
    13 1.209171 -0.000002 0.000000 0.000000 0.003084 -0.216400
    14 3.859865 -0.137947 1.332466 0.354449 -0.042750 -0.531718
    15 1.719429 0.000002 -0.000001 0.000000 0.004074 -0.363009
    16 1.099665 0.000000 0.000000 0.000000 0.002596 -0.244331
    17 0.806053 -0.348925 1.321258 -1.166382 -0.626621 -0.921969
    18 1.789780 -0.000002 0.000002 0.000000 0.000000 0.189105
    19 1.207006 0.000000 0.000000 0.000000 0.000000 0.306015
    20 2.033356 1.000772 -1.937610 -1.668474 1.286518 2.942953
    21 6.028144 0.000000 0.000000 1.865591 1.468897 -0.696465
    22 11.692554 0.000001 0.000003 0.000000 0.000000 -0.415947
    23 11.481697 0.000001 0.000002 -1.288472 0.007058 0.251866
    24 3.859678 -0.132570 1.193109 0.432208 -0.155862 -0.861350
    25 1.312557 -0.000002 0.000001 0.000000 0.000000 -1.191994
    26 0.729365 0.000002 -0.000002 0.000000 0.000000 -1.063394
    27 3.942305 0.050327 0.431044 0.232421 0.000609 -0.853331
    28 1.539099 -0.000002 0.000000 0.000000 0.000000 -0.973399
    29 1.196321 0.000008 0.000000 0.000000 0.000000 -1.451289
    30 3.883661 -0.050323 -0.431042 0.066987 0.050243 -0.694792
    31 1.719578 0.000004 0.000000 0.000000 0.000000 -1.251039
    32 1.209185 0.000002 0.000000 0.000000 0.000000 -1.141170
    33 3.859838 -0.148937 -1.331282 -0.248855 0.263129 -0.072121
    34 1.719423 0.000002 0.000000 0.000000 0.000000 -0.676756
    35 1.099667 0.000002 0.000000 0.000000 0.000000 -1.021287
    36 0.806021 -0.359837 -1.318334 1.349685 0.343493 -0.771450
    37 1.789782 0.000000 -0.000004 0.000000 0.000000 0.397500
    38 1.206999 0.000003 0.000002 0.000000 0.000000 0.989033
    39 6.104525 -1.468680 -3.530283 -1.564198 -0.011689 -1.581440
    40 3.820738 -1.409994 -0.589409 -1.564198 -0.011689 -1.581440
  time 5
    0 0.000000 4.000116 -8.644795 -1.570798 -1.391899 -1.570795
    1 2.033349 1.000767 1.937660 1.596637 -1.286515 2.942961
    2 6.028141 0.000000 0.000000 -1.580198 0.690741 -1.292067
    3 11.692554 0.000001 0.000002 0.000000 0.000000 -0.732215
    4 11.481674 0.000001 -0.000032 1.573168 -0.028074 0.044378
    5 3.859709 -0.142404 -1.191975 -0.476793 0.134331 -0.965122
    6 1.312555 -0.000002 0.000001 0.000000 0.000000 -0.279217
    7 0.729363 -0.000002 -0.000002 0.000000 0.000000 -0.096880
    8 3.942335 0.046767 -0.431443 -0.145164 0.087288 -0.742661
    9 1.539097 0.000000 0.000000 0.000000 0.000000 -0.308391
    10 1.196326 -0.000002 -0.000001 0.000000 0.000000 -0.519838
    11 3.883696 -0.046765 0.431443 0.085902 0.021830 -0.587867
    12 1.719570 -0.000004 -0.000001 0.000000 0.005516 -0.366478
    13 1.209171 -0.000002 0.000000 0.000000 0.003084 -0.216400
    14 3.859865 -0.137947 1.332466 0.354449 -0.042750 -0.531718
    15 1.719429 0.000002 -0.000001 0.000000 0.004074 -0.363009
    16 1.099665 0.000000 0.000000 0.000000 0.002596 -0.244331
    17 0.806053 -0.348925 1.321258 -1.166382 -0.626621 -0.921969
    18 1.789780 -0.000002 0.000002 0.000000 0.000000 0.189105
    19 1.207006 0.000000 0.000000 0.000000 0.000000 0.306015
    20 2.033356 1.000772 -1.937610 -1.668474 1.286518 2.942953
    21 6.028144 0.000000 0.000000 1.921465 1.484460 -0.640300
    22 11.692554 0.000001 0.000003 0.000000 0.000000 -0.382487
    23 11.481697 0.000001 0.000002 -1.288127 0.006668 0.302887
    24 3.859678 -0.132570 1.193109 0.432208 -0.155862 -0.861350
    25 1.312557 -0.000002 0.000001 0.000000 0.000000 -1.191994
    26 0.729365 0.000002 -0.000002 0.000000 0.000000 -1.063394
    27 3.942305 0.050327 0.431044 0.232421 0.000609 -0.853331
    28 1.539099 -0.000002 0.000000 0.000000 0.000000 -0.973399
    29 1.196321 0.000008 0.000000 0.000000 0.000000 -1.451289
    30 3.883661 -0.050323 -0.431042 0.066987 0.050243 -0.694792
    31 1.719578 0.000004 0.000000 0.000000 0.000000 -1.251039
    32 1.209185 0.000002 0.000000 0.000000 0.000000 -1.141170
    33 3.859838 -0.148937 -1.331282 -0.248855 0.263129 -0.072121
    34 1.719423 0.000002 0.000000 0.000000 0.000000 -0.676756
    35 1.099667 0.000002 0.000000 0.000000 0.000000 -1.021287
    36 0.806021 -0.359837 -1.318334 1.349685 0.343493 -0.771450
    37 1.789782 0.000000 -0.000004 0.000000 0.000000 0.397500
    38 1.206999 0.000003 0.000002 0.000000 0.000000 0.989033
    39 6.104525 -1.468680 -3.530283 -1.564198 -0.011689 -1.581440
    40 3.820738 -1.409994 -0.589409 -1.564198 -0.011689 -1.581440
  time 6
    0 0.000000 3.800891 -8.644795 -1.570798 -1.391899 -1.570795
    1 2.033349 1.000767 1.937660 1.596637 -1.286515 2.942961
    2 6.028141 0.000000 0.000000 -1.580198 0.690741 -1.292067
    3 11.692554 0.000001 0.000002 0.000000 0.000000 -0.732215
    4 11.481674 0.000001 -0.000032 1.573168 -0.028074 0.044378
    5 3.859709 -0.142404 -1.191975 -0.476793 0.134331 -0.965122
    6 1.312555 -0.000002 0.000001 0.000000 0.000000 -0.279217
    7 0.729363 -0.000002 -0.000002 0.000000 0.000000 -0.096880
    8 3.942335 0.046767 -0.431443 -0.145164 0.087288 -0.742673
    9 1.539097 0.000000 0.000000 0.000000 0.000000 -0.308391
    10 1.196326 -0.000002 -0.000001 0.000000 0.000000 -0.519838
    11 3.883696 -0.046765 0.431443 0.085902 0.021830 -0.587867
    12 1.719570 -0.000004 -0.000001 0.000000 0.005516 -0.366478
    13 1.209171 -0.000002 0.000000 0.000000 0.003084 -0.216400
    14 3.859865 -0.137947 1.332466 0.354449 -0.042750 -0.531718
    15 1.719429 0.000002 -0.000001 0.000000 0.004074 -0.363009
    16 1.099665 0.000000 0.000000 0.000000 0.002596 -0.244331
    17 0.806053 -0.348925 1.321258 -1.166382 -0.626621 -0.921969
    18 1.789780 -0.000002 0.000002 0.000000 0.000000 0.189105
    19 1.207006 0.000000 0.000000 0.000000 0.000000 0.306015
    20 2.033356 1.000772 -1.937610 -1.668474 1.286518 2.942953
    21 6.028144 0.000000 0.000000 1.971055 1.494602 -0.590500
    22 11.692554 0.000001 0.000003 0.000000 0.000000 -0.360268
    23 11.481697 0.000001 0.000002 -1.288036 0.006565 0.316286
    24 3.859678 -0.132570 1.193109 0.432208 -0.155862 -0.861350
    25 1.312557 -0.000002 0.000001 0.000000 0.000000 -1.191994
    26 0.729365 0.000002 -0.000002 0.000000 0.000000 -1.063394
    27 3.942305 0.050327 0.431044 0.232421 0.000609 -0.853331
    28 1.539099 -0.000002 0.000000 0.000000 0.000000 -0.973399
    29 1.196321 0.000008 0.000000 0.000000 0.000000 -1.451289
    30 3.883661 -0.050323 -0.431042 0.066987 0.050243 -0.694792
    31 1.719578 0.000004 0.000000 0.000000 0.000000 -1.251039
    32 1.209185 0.000002 0.000000 0.000000 0.000000 -1.141170
    33 3.859838 -0.148937 -1.331282 -0.248855 0.263129 -0.072121
    34 1.719423 0.000002 0.000000 0.000000 0.000000 -0.676756
    35 1.099667 0.000002 0.000000 0.000000 0.000000 -1.021287
    36 0.806021 -0.359837 -1.318334 1.349685 0.343493 -0.771450
    37 1.789782 0.000000 -0.000004 0.000000 0.000000 0.397500
    38 1.206999 0.000003 0.000002 0.000000 0.000000 0.989033
    39 6.104525 -1.468680 -3.530283 -1.564198 -0.011689 -1.581440
    40 3.820738 -1.409994 -0.589409 -1.564198 -0.011689 -1.581440
  time 7
    0 0.000000 3.644636 -8.644795 -1.570798 -1.391899 -1.570795
    1 2.033349 1.000767 1.937660 1.596637 -1.286515 2.942961
    2 6.028141 0.000000 0.000000 -1.580198 0.690741 -1.292067
    3 11.692554 0.000001 0.000002 0.000000 0.000000 -0.732215
    4 11.481674 0.000001 -0.000032 1.573168 -0.028074 0.044378
    5 3.859709 -0.142404 -1.191975 -0.476793 0.134331 -0.965122
    6 1.312555 -0.000002 0.000001 0.000000 0.000000 -0.279217
    7 0.729363 -0.000002 -0.000002 0.000000 0.000000 -0.096880
    8 3.942335 0.046767 -0.431443 -0.145164 0.087288 -0.742673
    9 1.539097 0.000000 0.000000 0.000000 0.000000 -0.308391
    10 1.196326 -0.000002 -0.000001 0.000000 0.000000 -0.519838
    11 3.883696 -0.046765 0.431443 0.085902 0.021830 -0.587867
    12 1.719570 -0.000004 -0.000001 0.000000 0.005516 -0.366478
    13 1.209171 -0.000002 0.000000 0.000000 0.003084 -0.216400
    14 3.859865 -0.137947 1.332466 0.354449 -0.042750 -0.531718
    15 1.719429 0.000002 -0.000001 0.000000 0.004074 -0.363009
    16 1.099665 0.000000 0.000000 0.000000 0.002596 -0.244331
    17 0.806053 -0.348925 1.321258 -1.166382 -0.626621 -0.921969
    18 1.789780 -0.000002 0.000002 0.000000 0.000000 0.189105
    19 1.207006 0.000000 0.000000 0.000000 0.000000 0.306015
    20 2.033356 1.000772 -1.937610 -1.668474 1.286518 2.942953
    21 6.028144 0.000000 0.000000 2.017307 1.501986 -0.544136
    22 11.692554 0.000001 0.000003 0.000000 0.000000 -0.343764
    23 11.481697 0.000001 0.000002 -1.288326 0.006894 0.272987
    24 3.859678 -0.132570 1.193109 0.432208 -0.155862 -0.861350
    25 1.312557 -0.000002 0.000001 0.000000 0.000000 -1.191994
    26 0.729365 0.000002 -0.000002 0.000000 0.000000 -1.063394
    27 3.942305 0.050327 0.431044 0.232421 0.000609 -0.853331
    28 1.539099 -0.000002 0.000000 0.000000 0.000000 -0.973399
    29 1.196321 0.000008 0.000000 0.000000 0.000000 -1.451289
    30 3.883661 -0.050323 -0.431042 0.066987 0.050243 -0.694792
    31 1.719578 0.000004 0.000000 0.000000 0.000000 -1.251039
    32 1.209185 0.000002 0.000000 0.000000 0.000000 -1.141170
    33 3.859838 -0.148937 -1.331282 -0.248855 0.263129 -0.072121
    34 1.719423 0.000002 0.000000 0.000000 0.000000 -0.676756
    35 1.099667 0.000002 0.000000 0.000000 0.000000 -1.021287
    36 0.806021 -0.359837 -1.318334 1.349685 0.343493 -0.771450
    37 1.789782 0.000000 -0.000004 0.000000 0.000000 0.397500
    38 1.206999 0.000003 0.000002 0.000000 0.000000 0.989033
    39 6.104525 -1.468680 -3.530283 -1.564198 -0.011689 -1.581440
    40 3.820738 -1.409994 -0.589409 -1.564198 -0.011689 -1.581440
  time 8
    0 0.000000 3.523539 -8.644795 -1.570798 -1.391899 -1.570795
    1 2.033349 1.000767 1.937660 1.596637 -1.286515 2.942961
    2 6.028141 0.000000 0.000000 -1.580198 0.690741 -1.292067
    3 11.692554 0.000001 0.000002 0.000000 0.000000 -0.732215
    4 11.481674 0.000001 -0.000032 1.573168 -0.028074 0.044378
    5 3.859709 -0.142404 -1.191975 -0.476793 0.134331 -0.965122
    6 1.312555 -0.000002 0.000001 0.000000 0.000000 -0.279217
    7 0.729363 -0.000002 -0.000002 0.000000 0.000000 -0.096880
    8 3.942335 0.046767 -0.431443 -0.145164 0.087288 -0.742673
    9 1.539097 0.000000 0.000000 0.000000 0.000000 -0.308379
    10 1.196326 -0.000002 -0.000001 0.000000 0.000000 -0.519838
    11 3.883696 -0.046765 0.431443 0.085902 0.021830 -0.587867
    12 1.719570 -0.000004 -0.000001 0.000000 0.005516 -0.366478
    13 1.209171 -0.000002 0.000000 0.000000 0.003084 -0.216400
    14 3.859865 -0.137947 1.332466 0.354449 -0.042750 -0.531718
    15 1.719429 0.000002 -0.000001 0.000000 0.004074 -0.363009
    16 1.099665 0.000000 0.000000 0.000000 0.002596 -0.244331
    17 0.806053 -0.348925 1.321258 -1.166382 -0.626621 -0.921969
    18 1.789780 -0.000002 0.000002 0.000000 0.000000 0.189105
    19 1.207006 0.000000 0.000000 0.000000 0.000000 0.306015
    20 2.033356 1.000772 -1.937610 -1.668474 1.286518 2.942953
    21 6.028144 0.000000 0.000000 2.058986 1.507408 -0.502369
    22 11.692554 0.000001 0.000003 0.000000 0.000000 -0.331395
    23 11.481697 0.000001 0.000002 -1.288617 0.007202 0.232438
    24 3.859678 -0.132570 1.193109 0.432208 -0.155862 -0.861350
    25 1.312557 -0.000002 0.000001 0.000000 0.000000 -1.191994
    26 0.729365 0.000002 -0.000002 0.000000 0.000000 -1.063394
    27 3.942305 0.050327 0.431044 0.232421 0.000609 -0.853331
    28 1.539099 -0.000002 0.000000 0.000000 0.000000 -0.973399
    29 1.196321 0.000008 0.000000 0.000000 0.000000 -1.451289
    30 3.883661 -0.050323 -0.431042 0.066987 0.050243 -0.694792
    31 1.719578 0.000004 0.000000 0.000000 0.000000 -1.251039
    32 1.209185 0.000002 0.000000 0.000000 0.000000 -1.141170
    33 3.859838 -0.148937 -1.331282 -0.248855 0.263129 -0.072121
    34 1.719423 0.000002 0.000000 0.000000 0.000000 -0.676756
    35 1.099667 0.000002 0.000000 0.000000 0.000000 -1.021287
    36 0.806021 -0.359837 -1.318334 1.349685 0.343493 -0.771450
    37 1.789782 0.000000 -0.000004 0.000000 0.000000 0.397500
    38 1.206999 0.000003 0.000002 0.000000 0.000000 0.989033
    39 6.104525 -1.468680 -3.530283 -1.564198 -0.011689 -1.581440
    40 3.820738 -1.409994 -0.589409 -1.564198 -0.011689 -1.581440
  time 9
    0 0.000000 3.437599 -8.644795 -1.570798 -1.391899 -1.570795
    1 2.033349 1.000767 1.937660 1.596637 -1.286515 2.942961
    2 6.028141 0.000000 0.000000 -1.580198 0.690741 -1.292067
    3 11.692554 0.000001 0.000002 0.000000 0.000000 -0.732215
    4 11.481674 0.000001 -0.000032 1.573168 -0.028074 0.044378
    5 3.859709 -0.142404 -1.191975 -0.476793 0.134331 -0.965122
    6 1.312555 -0.000002 0.000001 0.000000 0.000000 -0.279217
    7 0.729363 -0.000002 -0.000002 0.000000 0.000000 -0.096880
    8 3.942335 0.046767 -0.431443 -0.145164 0.087276 -0.742673
    9 1.539097 0.000000 0.000000 0.000000 0.000000 -0.308379
    10 1.196326 -0.000002 -0.000001 0.000000 0.000000 -0.519838
    11 3.883696 -0.046765 0.431443 0.085902 0.021830 -0.587867
    12 1.719570 -0.000004 -0.000001 0.000000 0.005516 -0.366478
    13 1.209171 -0.000002 0.000000 0.000000 0.003084 -0.216400
    14 3.859865 -0.137947 1.332466 0.354449 -0.042750 -0.531718
    15 1.719429 0.000002 -0.000001 0.000000 0.004074 -0.363009
    16 1.099665 0.000000 0.000000 0.000000 0.002596 -0.244331
    17 0.806053 -0.348925 1.321258 -1.166382 -0.626621 -0.921969
    18 1.789780 -0.000002 0.000002 0.000000 0.000000 0.189105
    19 1.207006 0.000000 0.000000 0.000000 0.000000 0.306015
    20 2.033356 1.000772 -1.937610 -1.668474 1.286518 2.942953
    21 6.028144 0.000000 0.000000 2.092980 1.511147 -0.468298
    22 11.692554 0.000001 0.000003 0.000000 0.000000 -0.322636
    23 11.481697 0.000001 0.000002 -1.288762 0.007346 0.210745
    24 3.859678 -0.132570 1.193109 0.432208 -0.155862 -0.861350
    25 1.312557 -0.000002 0.000001 0.000000 0.000000 -1.191994
    26 0.729365 0.000002 -0.000002 0.000000 0.000000 -1.063394
    27 3.942305 0.050327 0.431044 0.232421 0.000609 -0.853331
    28 1.539099 -0.000002 0.000000 0.000000 0.000000 -0.973399
    29 1.196321 0.000008 0.000000 0.000000 0.000000 -1.451289
    30 3.883661 -0.050323 -0.431042 0.066987 0.050243 -0.694792
    31 1.719578 0.000004 0.000000 0.000000 0.000000 -1.251039
    32 1.209185 0.000002 0.000000 0.000000 0.000000 -1.141170
    33 3.859838 -0.148937 -1.331282 -0.248855 0.263129 -0.072121
    34 1.719423 0.000002 0.000000 0.000000 0.000000 -0.676756
    35 1.099667 0.000002 0.000000 0.000000 0.000000 -1.021287
    36 0.806021 -0.359837 -1.318334 1.349685 0.343493 -0.771450
    37 1.789782 0.000000 -0.000004 0.000000 0.000000 0.397500
    38 1.206999 0.000003 0.000002 0.000000 0.000000 0.989033
    39 6.104525 -1.468680 -3.530283 -1.564198 -0.011689 -1.581440
    40 3.820738 -1.409994 -0.589409 -1.564198 -0.011689 -1.581440
  time 10
    0 0.000000 3.379003 -8.644795 -1.570798 -1.391899 -1.570795
    1 2.033349 1.000767 1.937660 1.596637 -1.286515 2.942961
    2 6.028141 0.000000 0.000000 -1.580198 0.690741 -1.292067
    3 11.692554 0.000001 0.000002 0.000000 0.000000 -0.732215
    4 11.481674 0.000001 -0.000032 1.573168 -0.028074 0.044378
    5 3.859709 -0.142404 -1.191975 -0.476793 0.134331 -0.965122
    6 1.312555 -0.000002 0.000001 0.000000 0.000000 -0.279217
    7 0.729363 -0.000002 -0.000002 0.000000 0.000000 -0.096880
    8 3.942335 0.046767 -0.431443 -0.145164 0.087276 -0.742673
    9 1.539097 0.000000 0.000000 0.000000 0.000000 -0.308379
    10 1.196326 -0.000002 -0.000001 0.000000 0.000000 -0.519802
    11 3.883696 -0.046765 0.431443 0.085902 0.021830 -0.587867
    12 1.719570 -0.000004 -0.000001 0.000000 0.005516 -0.366478
    13 1.209171 -0.000002 0.000000 0.000000 0.003084 -0.216400
    14 3.859865 -0.137947 1.332466 0.354449 -0.042750 -0.531718
    15 1.719429 0.000002 -0.000001 0.000000 0.004074 -0.363009
    16 1.099665 0.000000 0.000000 0.000000 0.002596 -0.244331
    17 0.806053 -0.348925 1.321258 -1.166382 -0.626621 -0.921969
    18 1.789780 -0.000002 0.000002 0.000000 0.000000 0.189105
    19 1.207006 0.000000 0.000000 0.000000 0.000000 0.306015
    20 2.033356 1.000772 -1.937610 -1.668474 1.286518 2.942953
    21 6.028144 0.000000 0.000000 2.114839 1.513297 -0.446374
    22 11.692554 0.000001 0.000003 0.000000 0.000000 -0.317560
    23 11.481697 0.000001 0.000002 -1.288835 0.007428 0.201108
    24 3.859678 -0.132570 1.193109 0.432208 -0.155862 -0.861350
    25 1.312557 -0.000002 0.000001 0.000000 0.000000 -1.191994
    26 0.729365 0.000002 -0.000002 0.000000 0.000000 -1.063394
    27 3.942305 0.050327 0.431044 0.232421 0.000609 -0.853331
    28 1.539099 -0.000002 0.000000 0.000000 0.000000 -0.973399
    29 1.196321 0.000008 0.000000 0.000000 0.000000 -1.451289
    30 3.883661 -0.050323 -0.431042 0.066987 0.050243 -0.694792
    31 1.719578 0.000004 0.000000 0.000000 0.000000 -1.251039
    32 1.209185 0.000002 0.000000 0.000000 0.000000 -1.141170
    33 3.859838 -0.148937 -1.331282 -0.248855 0.263129 -0.072121
    34 1.719423 0.000002 0.000000 0.000000 0.000000 -0.676756
    35 1.099667 0.000002 0.000000 0.000000 0.000000 -1.021287
    36 0.806021 -0.359837 -1.318334 1.349685 0.343493 -0.771450
    37 1.789782 0.000000 -0.000004 0.000000 0.000000 0.397500
    38 1.206999 0.000003 0.000002 0.000000 0.000000 0.989033
    39 6.104525 -1.468680 -3.530283 -1.564198 -0.011689 -1.581440
    40 3.820738 -1.409994 -0.589409 -1.564198 -0.011689 -1.581440
  time 11
    0 0.000000 3.343846 -8.644795 -1.570798 -1.391899 -1.570795
    1 2.033349 1.000767 1.937660 1.596637 -1.286515 2.942961
    2 6.028141 0.000000 0.000000 -1.580198 0.690741 -1.292067
    3 11.692554 0.000001 0.000002 0.000000 0.000000 -0.732215
    4 11.481674 0.000001 -0.000032 1.573168 -0.028074 0.044378
    5 3.859709 -0.142404 -1.191975 -0.476793 0.134331 -0.965122
    6 1.312555 -0.000002 0.000001 0.000000 0.000000 -0.279217
    7 0.729363 -0.000002 -0.000002 0.000000 0.000000 -0.096880
    8 3.942335 0.046767 -0.431443 -0.145164 0.087276 -0.742685
    9 1.539097 0.000000 0.000000 0.000000 0.000000 -0.308379
    10 1.196326 -0.000002 -0.000001 0.000000 0.000000 -0.519802
    11 3.883696 -0.046765 0.431443 0.085902 0.021830 -0.587867
    12 1.719570 -0.000004 -0.000001 0.000000 0.005516 -0.366478
    13 1.209171 -0.000002 0.000000 0.000000 0.003084 -0.216400
    14 3.859865 -0.137947 1.332466 0.354449 -0.042750 -0.531718
    15 1.719429 0.000002 -0.000001 0.000000 0.004074 -0.363009
    16 1.099665 0.000000 0.000000 0.000000 0.002596 -0.244331
    17 0.806053 -0.348925 1.321258 -1.166382 -0.626621 -0.921969
    18 1.789780 -0.000002 0.000002 0.000000 0.000000 0.189105
    19 1.207006 0.000000 0.000000 0.000000 0.000000 0.306015
    20 2.033356 1.000772 -1.937610 -1.668474 1.286518 2.942953
    21 6.028144 0.000000 0.000000 2.118877 1.513671 -0.442333
    22 11.692554 0.000001 0.000003 0.000000 0.000000 -0.316658
    23 11.481697 0.000001 0.000002 -1.288835 0.007428 0.200690
    24 3.859678 -0.132570 1.193109 0.432208 -0.155862 -0.861350
    25 1.312557 -0.000002 0.000001 0.000000 0.000000 -1.191994
    26 0.729365 0.000002 -0.000002 0.000000 0.000000 -1.063394
    27 3.942305 0.050327 0.431044 0.232421 0.000609 -0.853331
    28 1.539099 -0.000002 0.000000 0.000000 0.000000 -0.973399
    29 1.196321 0.000008 0.000000 0.000000 0.000000 -1.451289
    30 3.883661 -0.050323 -0.431042 0.066987 0.050243 -0.694792
    31 1.719578 0.000004 0.000000 0.000000 0.000000 -1.251039
    32 1.209185 0.000002 0.000000 0.000000 0.000000 -1.141170
    33 3.859838 -0.148937 -1.331282 -0.248855 0.263129 -0.072121
    34 1.719423 0.000002 0.000000 0.000000 0.000000 -0.676756
    35 1.099667 0.000002 0.000000 0.000000 0.000000 -1.021287
    36 0.806021 -0.359837 -1.318334 1.349685 0.343493 -0.771450
    37 1.789782 0.000000 -0.000004 0.000000 0.000000 0.397500
    38 1.206999 0.000003 0.000002 0.000000 0.000000 0.989033
    39 6.104525 -1.468680 -3.530283 -1.564198 -0.011689 -1.581440
    40 3.820738 -1.409994 -0.589409 -1.564198 -0.011689 -1.581440
  time 12
    0 0.000000 3.336033 -8.644795 -1.570798 -1.391899 -1.570795
    1 2.033349 1.000767 1.937660 1.596637 -1.286515 2.942961
    2 6.028141 0.000000 0.000000 -1.580198 0.690741 -1.292067
    3 11.692554 0.000001 0.000002 0.000000 0.000000 -0.732215
    4 11.481674 0.000001 -0.000032 1.573168 -0.028074 0.044378
    5 3.859709 -0.142404 -1.191975 -0.476793 0.134331 -0.965122
    6 1.312555 -0.000002 0.000001 0.000000 0.000000 -0.279217
    7 0.729363 -0.000002 -0.000002 0.000000 0.000000 -0.096880
    8 3.942335 0.046767 -0.431443 -0.145164 0.087276 -0.742685
    9 1.539097 0.000000 0.000000 0.000000 0.000000 -0.308379
    10 1.196326 -0.000002 -0.000001 0.000000 0.000000 -0.519802
    11 3.883696 -0.046765 0.431443 0.085902 0.021830 -0.587867
    12 1.719570 -0.000004 -0.000001 0.000000 0.005516 -0.366478
    13 1.209171 -0.000002 0.000000 0.000000 0.003084 -0.216400
    14 3.859865 -0.137947 1.332466 0.354449 -0.042750 -0.531718
    15 1.719429 0.000002 -0.000001 0.000000 0.004074 -0.363009
    16 1.099665 0.000000 0.000000 0.000000 0.002596 -0.244331
    17 0.806053 -0.348925 1.321258 -1.166382 -0.626621 -0.921969
    18 1.789780 -0.000002 0.000002 0.000000 0.000000 0.189105
    19 1.207006 0.000000 0.000000 0.000000 0.000000 0.306015
    20 2.033356 1.000772 -1.937610 -1.668474 1.286518 2.942953
    21 6.028144 0.000000 0.000000 2.118877 1.513671 -0.442333
    22 11.692554 0.000001 0.000003 0.000000 0.000000 -0.316658
    23 11.481697 0.000001 0.000002 -1.288835 0.007428 0.200690
    24 3.859678 -0.132570 1.193109 0.432208 -0.155862 -0.861350
    25 1.312557 -0.000002 0.000001 0.000000 0.000000 -1.191994
    26 0.729365 0.000002 -0.000002 0.000000 0.000000 -1.063394
    27 3.942305 0.050327 0.431044 0.232421 0.000609 -0.853331
    28 1.539099 -0.000002 0.000000 0.000000 0.000000 -0.973399
    29 1.196321 0.000008 0.000000 0.000000 0.000000 -1.451289
    30 3.883661 -0.050323 -0.431042 0.066987 0.050243 -0.694792
    31 1.719578 0.000004 0.000000 0.000000 0.000000 -1.251039
    32 1.209185 0.000002 0.000000 0.000000 0.000000 -1.141170
    33 3.859838 -0.148937 -1.331282 -0.248855 0.263129 -0.072121
    34 1.719423 0.000002 0.000000 0.000000 0.000000 -0.676756
    35 1.099667 0.000002 0.000000 0.000000 0.000000 -1.021287
    36 0.806021 -0.359837 -1.318334 1.349685 0.343493 -0.771450
    37 1.789782 0.000000 -0.000004 0.000000 0.000000 0.397500
    38 1.206999 0.000003 0.000002 0.000000 0.000000 0.989033
    39 6.104525 -1.468680 -3.530283 -1.564198 -0.011689 -1.581440
    40 3.820738 -1.409994 -0.589409 -1.564198 -0.011689 -1.581440
end
