// Created by Crowbar 0.74
version 1
nodes
  0 "ValveBiped.Bip01_Spine4" -1
  1 "ValveBiped.Bip01_L_Clavicle" 0
  2 "ValveBiped.Bip01_L_UpperArm" 1
  3 "ValveBiped.Bip01_L_Forearm" 2
  4 "ValveBiped.Bip01_L_Hand" 3
  5 "ValveBiped.Bip01_L_Finger4" 4
  6 "ValveBiped.Bip01_L_Finger41" 5
  7 "ValveBiped.Bip01_L_Finger42" 6
  8 "ValveBiped.Bip01_L_Finger3" 4
  9 "ValveBiped.Bip01_L_Finger31" 8
  10 "ValveBiped.Bip01_L_Finger32" 9
  11 "ValveBiped.Bip01_L_Finger2" 4
  12 "ValveBiped.Bip01_L_Finger21" 11
  13 "ValveBiped.Bip01_L_Finger22" 12
  14 "ValveBiped.Bip01_L_Finger1" 4
  15 "ValveBiped.Bip01_L_Finger11" 14
  16 "ValveBiped.Bip01_L_Finger12" 15
  17 "ValveBiped.Bip01_L_Finger0" 4
  18 "ValveBiped.Bip01_L_Finger01" 17
  19 "ValveBiped.Bip01_L_Finger02" 18
  20 "ValveBiped.Bip01_R_Clavicle" 0
  21 "ValveBiped.Bip01_R_UpperArm" 20
  22 "ValveBiped.Bip01_R_Forearm" 21
  23 "ValveBiped.Bip01_R_Hand" 22
  24 "ValveBiped.Bip01_R_Finger4" 23
  25 "ValveBiped.Bip01_R_Finger41" 24
  26 "ValveBiped.Bip01_R_Finger42" 25
  27 "ValveBiped.Bip01_R_Finger3" 23
  28 "ValveBiped.Bip01_R_Finger31" 27
  29 "ValveBiped.Bip01_R_Finger32" 28
  30 "ValveBiped.Bip01_R_Finger2" 23
  31 "ValveBiped.Bip01_R_Finger21" 30
  32 "ValveBiped.Bip01_R_Finger22" 31
  33 "ValveBiped.Bip01_R_Finger1" 23
  34 "ValveBiped.Bip01_R_Finger11" 33
  35 "ValveBiped.Bip01_R_Finger12" 34
  36 "ValveBiped.Bip01_R_Finger0" 23
  37 "ValveBiped.Bip01_R_Finger01" 36
  38 "ValveBiped.Bip01_R_Finger02" 37
  39 "ValveBiped.square" 23
  40 "ValveBiped.clip" 23
end
skeleton
  time 0
    0 0.000005 3.335938 -8.640625 -1.570781 -1.391896 -1.570809
    1 2.033349 1.000767 1.937660 1.596637 -1.286515 2.942961
    2 6.028141 0.000000 0.000000 -1.579228 0.357999 -1.145030
    3 11.692554 0.000001 0.000002 0.000000 0.000000 -1.541525
    4 11.481674 0.000001 -0.000032 1.573168 -0.028074 0.044378
    5 3.859709 -0.142404 -1.191975 -0.476793 0.134331 -0.965122
    6 1.312555 -0.000002 0.000001 0.000000 0.000000 -0.279217
    7 0.729363 -0.000002 -0.000002 0.000000 0.000000 -0.096880
    8 3.942335 0.046767 -0.431443 -0.145073 0.087435 -0.741654
    9 1.539097 0.000000 0.000000 0.000000 0.000000 -0.309339
    10 1.196326 -0.000002 -0.000001 0.000000 0.000000 -0.521230
    11 3.883696 -0.046765 0.431443 0.085902 0.021830 -0.587867
    12 1.719570 -0.000004 -0.000001 0.000000 0.005516 -0.366478
    13 1.209171 -0.000002 0.000000 0.000000 0.003084 -0.216400
    14 3.859865 -0.137947 1.332466 0.354449 -0.042750 -0.531718
    15 1.719429 0.000002 -0.000001 0.000000 0.004074 -0.363009
    16 1.099665 0.000000 0.000000 0.000000 0.002596 -0.244331
    17 0.806053 -0.348925 1.321258 -1.166382 -0.626621 -0.921969
    18 1.789780 -0.000002 0.000002 0.000000 0.000000 0.189105
    19 1.207006 0.000000 0.000000 0.000000 0.000000 0.306015
    20 2.033356 1.000772 -1.937610 -1.668474 1.286518 2.942953
    21 6.028144 0.000000 0.000000 1.592918 1.460905 -0.988903
    22 11.692554 0.000001 0.000003 0.000000 0.000000 -0.262183
    23 11.481697 0.000001 0.000002 -1.335318 -0.112210 0.464555
    24 3.859678 -0.132570 1.193109 0.432208 -0.155862 -0.861350
    25 1.312557 -0.000002 0.000001 0.000000 0.000000 -1.191994
    26 0.729365 0.000002 -0.000002 0.000000 0.000000 -1.063394
    27 3.942305 0.050327 0.431044 0.232421 0.000609 -0.853331
    28 1.539099 -0.000002 0.000000 0.000000 0.000000 -0.973401
    29 1.196321 0.000008 0.000000 0.000000 0.000000 -1.451289
    30 3.883661 -0.050323 -0.431042 0.066987 0.050243 -0.694792
    31 1.719578 0.000004 0.000000 0.000000 -0.000004 -1.251013
    32 1.209185 0.000002 0.000000 0.000000 0.000000 -1.141170
    33 3.859838 -0.148937 -1.331282 -0.248855 0.263129 -0.072121
    34 1.719423 0.000002 0.000000 0.000000 0.000000 -0.676756
    35 1.099667 0.000002 0.000000 0.000000 -0.000004 -1.021265
    36 0.806021 -0.359837 -1.318334 1.349685 0.343493 -0.771450
    37 1.789782 0.000000 -0.000004 0.000000 0.000000 0.397500
    38 1.206999 0.000003 0.000002 0.000000 0.000000 0.989033
    39 6.104525 -1.468680 -3.530283 -1.564198 -0.011689 -1.581440
    40 3.820738 -1.409994 -0.589409 -1.564198 -0.011689 -1.581440
  time 1
    0 0.000005 3.335938 -8.640625 -1.570781 -1.391896 -1.570809
    1 2.033349 1.000767 1.937660 1.596637 -1.286515 2.942961
    2 6.028141 0.000000 0.000000 -1.579228 0.357999 -1.145030
    3 11.692554 0.000001 0.000002 0.000000 0.000000 -1.541525
    4 11.481674 0.000001 -0.000032 1.573168 -0.028074 0.044378
    5 3.859709 -0.142404 -1.191975 -0.476793 0.134331 -0.965122
    6 1.312555 -0.000002 0.000001 0.000000 0.000000 -0.279217
    7 0.729363 -0.000002 -0.000002 0.000000 0.000000 -0.096880
    8 3.942335 0.046767 -0.431443 -0.145073 0.087435 -0.741654
    9 1.539097 0.000000 0.000000 0.000000 0.000000 -0.309339
    10 1.196326 -0.000002 -0.000001 0.000000 0.000000 -0.521230
    11 3.883696 -0.046765 0.431443 0.085902 0.021830 -0.587867
    12 1.719570 -0.000004 -0.000001 0.000000 0.005516 -0.366478
    13 1.209171 -0.000002 0.000000 0.000000 0.003084 -0.216400
    14 3.859865 -0.137947 1.332466 0.354449 -0.042750 -0.531718
    15 1.719429 0.000002 -0.000001 0.000000 0.004074 -0.363009
    16 1.099665 0.000000 0.000000 0.000000 0.002596 -0.244331
    17 0.806053 -0.348925 1.321258 -1.166382 -0.626621 -0.921969
    18 1.789780 -0.000002 0.000002 0.000000 0.000000 0.189105
    19 1.207006 0.000000 0.000000 0.000000 0.000000 0.306015
    20 2.033356 1.000772 -1.937610 -1.668474 1.286518 2.942953
    21 6.028144 0.000000 0.000000 1.598831 1.461466 -0.982515
    22 11.692554 0.000001 0.000003 0.000000 0.000000 -0.265453
    23 11.481697 0.000001 0.000002 -1.334265 -0.109681 0.462707
    24 3.859678 -0.132570 1.193109 0.432208 -0.155862 -0.861350
    25 1.312557 -0.000002 0.000001 0.000000 0.000000 -1.191994
    26 0.729365 0.000002 -0.000002 0.000000 0.000000 -1.063394
    27 3.942305 0.050327 0.431044 0.232421 0.000609 -0.853331
    28 1.539099 -0.000002 0.000000 0.000000 0.000000 -0.973379
    29 1.196321 0.000008 0.000000 0.000000 0.000000 -1.451289
    30 3.883661 -0.050323 -0.431042 0.066987 0.050243 -0.694792
    31 1.719578 0.000004 0.000000 0.000000 -0.000004 -1.251013
    32 1.209185 0.000002 0.000000 0.000000 0.000000 -1.141170
    33 3.859838 -0.148937 -1.331282 -0.248855 0.263129 -0.072121
    34 1.719423 0.000002 0.000000 0.000000 0.000000 -0.676756
    35 1.099667 0.000002 0.000000 0.000000 -0.000004 -1.021265
    36 0.806021 -0.359837 -1.318334 1.349685 0.343493 -0.771450
    37 1.789782 0.000000 -0.000004 0.000000 0.000000 0.397500
    38 1.206999 0.000003 0.000002 0.000000 0.000000 0.989033
    39 6.104525 -1.468680 -3.530283 -1.564198 -0.011689 -1.581440
    40 3.820738 -1.409994 -0.589409 -1.564198 -0.011689 -1.581440
  time 2
    0 0.000005 3.335938 -8.640625 -1.570781 -1.391896 -1.570809
    1 2.033349 1.000767 1.937660 1.596637 -1.286515 2.942961
    2 6.028141 0.000000 0.000000 -1.579228 0.357999 -1.145030
    3 11.692554 0.000001 0.000002 0.000000 0.000000 -1.541525
    4 11.481674 0.000001 -0.000032 1.573168 -0.028074 0.044378
    5 3.859709 -0.142404 -1.191975 -0.476793 0.134331 -0.965122
    6 1.312555 -0.000002 0.000001 0.000000 0.000000 -0.279217
    7 0.729363 -0.000002 -0.000002 0.000000 0.000000 -0.096880
    8 3.942335 0.046767 -0.431443 -0.145073 0.087435 -0.741654
    9 1.539097 0.000000 0.000000 0.000000 0.000000 -0.309339
    10 1.196326 -0.000002 -0.000001 0.000000 0.000000 -0.521230
    11 3.883696 -0.046765 0.431443 0.085902 0.021830 -0.587867
    12 1.719570 -0.000004 -0.000001 0.000000 0.005516 -0.366478
    13 1.209171 -0.000002 0.000000 0.000000 0.003084 -0.216400
    14 3.859865 -0.137947 1.332466 0.354449 -0.042750 -0.531718
    15 1.719429 0.000002 -0.000001 0.000000 0.004074 -0.363009
    16 1.099665 0.000000 0.000000 0.000000 0.002596 -0.244331
    17 0.806053 -0.348925 1.321258 -1.166382 -0.626621 -0.921969
    18 1.789780 -0.000002 0.000002 0.000000 0.000000 0.189105
    19 1.207006 0.000000 0.000000 0.000000 0.000000 0.306015
    20 2.033356 1.000772 -1.937610 -1.668474 1.286518 2.942953
    21 6.028144 0.000000 0.000000 1.620978 1.462167 -0.958655
    22 11.692554 0.000001 0.000003 0.000000 0.000000 -0.280567
    23 11.481697 0.000001 0.000002 -1.330779 -0.100715 0.454456
    24 3.859678 -0.132570 1.193109 0.432208 -0.155862 -0.861350
    25 1.312557 -0.000002 0.000001 0.000000 0.000000 -1.191994
    26 0.729365 0.000002 -0.000002 0.000000 0.000000 -1.063394
    27 3.942305 0.050327 0.431044 0.232421 0.000609 -0.853331
    28 1.539099 -0.000002 0.000000 0.000000 0.000000 -0.973401
    29 1.196321 0.000008 0.000000 0.000000 0.000000 -1.451289
    30 3.883661 -0.050323 -0.431042 0.066987 0.050243 -0.694792
    31 1.719578 0.000004 0.000000 0.000000 -0.000004 -1.251040
    32 1.209185 0.000002 0.000000 0.000000 0.000000 -1.141170
    33 3.859838 -0.148937 -1.331282 -0.248855 0.263129 -0.072121
    34 1.719423 0.000002 0.000000 0.000000 0.000000 -0.676756
    35 1.099667 0.000002 0.000000 0.000000 -0.000004 -1.021288
    36 0.806021 -0.359837 -1.318334 1.349685 0.343493 -0.771450
    37 1.789782 0.000000 -0.000004 0.000000 0.000000 0.397500
    38 1.206999 0.000003 0.000002 0.000000 0.000000 0.989033
    39 6.104525 -1.468680 -3.530283 -1.564198 -0.011689 -1.581440
    40 3.820738 -1.409994 -0.589409 -1.564198 -0.011689 -1.581440
  time 3
    0 0.000005 3.335938 -8.640625 -1.570781 -1.391896 -1.570809
    1 2.033349 1.000767 1.937660 1.596637 -1.286515 2.942961
    2 6.028141 0.000000 0.000000 -1.579228 0.357999 -1.145030
    3 11.692554 0.000001 0.000002 0.000000 0.000000 -1.541525
    4 11.481674 0.000001 -0.000032 1.573168 -0.028074 0.044378
    5 3.859709 -0.142404 -1.191975 -0.476793 0.134331 -0.965122
    6 1.312555 -0.000002 0.000001 0.000000 0.000000 -0.279217
    7 0.729363 -0.000002 -0.000002 0.000000 0.000000 -0.096880
    8 3.942335 0.046767 -0.431443 -0.145073 0.087435 -0.741654
    9 1.539097 0.000000 0.000000 0.000000 0.000000 -0.309339
    10 1.196326 -0.000002 -0.000001 0.000000 0.000000 -0.521230
    11 3.883696 -0.046765 0.431443 0.085902 0.021830 -0.587867
    12 1.719570 -0.000004 -0.000001 0.000000 0.005516 -0.366478
    13 1.209171 -0.000002 0.000000 0.000000 0.003084 -0.216400
    14 3.859865 -0.137947 1.332466 0.354449 -0.042750 -0.531718
    15 1.719429 0.000002 -0.000001 0.000000 0.004074 -0.363009
    16 1.099665 0.000000 0.000000 0.000000 0.002596 -0.244331
    17 0.806053 -0.348925 1.321258 -1.166382 -0.626621 -0.921969
    18 1.789780 -0.000002 0.000002 0.000000 0.000000 0.189105
    19 1.207006 0.000000 0.000000 0.000000 0.000000 0.306015
    20 2.033356 1.000772 -1.937610 -1.668474 1.286518 2.942953
    21 6.028144 0.000000 0.000000 1.670610 1.465111 -0.905322
    22 11.692554 0.000001 0.000003 0.000000 0.000000 -0.308763
    23 11.481697 0.000001 0.000002 -1.322372 -0.083113 0.432785
    24 3.859678 -0.132570 1.193109 0.432208 -0.155862 -0.861350
    25 1.312557 -0.000002 0.000001 0.000000 0.000000 -1.191994
    26 0.729365 0.000002 -0.000002 0.000000 0.000000 -1.063394
    27 3.942305 0.050327 0.431044 0.232421 0.000609 -0.853331
    28 1.539099 -0.000002 0.000000 0.000000 0.000000 -0.973379
    29 1.196321 0.000008 0.000000 0.000000 0.000000 -1.451289
    30 3.883661 -0.050323 -0.431042 0.066987 0.050243 -0.694792
    31 1.719578 0.000004 0.000000 0.000000 -0.000004 -1.251013
    32 1.209185 0.000002 0.000000 0.000000 0.000000 -1.141170
    33 3.859838 -0.148937 -1.331282 -0.248855 0.263129 -0.072121
    34 1.719423 0.000002 0.000000 0.000000 0.000000 -0.676756
    35 1.099667 0.000002 0.000000 0.000000 -0.000004 -1.021265
    36 0.806021 -0.359837 -1.318334 1.349685 0.343493 -0.771450
    37 1.789782 0.000000 -0.000004 0.000000 0.000000 0.397500
    38 1.206999 0.000003 0.000002 0.000000 0.000000 0.989033
    39 6.104525 -1.468680 -3.530283 -1.564198 -0.011689 -1.581440
    40 3.820738 -1.409994 -0.589409 -1.564198 -0.011689 -1.581440
  time 4
    0 0.000005 3.335938 -8.640625 -1.570781 -1.391896 -1.570809
    1 2.033349 1.000767 1.937660 1.596637 -1.286515 2.942961
    2 6.028141 0.000000 0.000000 -1.579228 0.357999 -1.145030
    3 11.692554 0.000001 0.000002 0.000000 0.000000 -1.541525
    4 11.481674 0.000001 -0.000032 1.573168 -0.028074 0.044378
    5 3.859709 -0.142404 -1.191975 -0.476793 0.134331 -0.965122
    6 1.312555 -0.000002 0.000001 0.000000 0.000000 -0.279217
    7 0.729363 -0.000002 -0.000002 0.000000 0.000000 -0.096880
    8 3.942335 0.046767 -0.431443 -0.145073 0.087435 -0.741654
    9 1.539097 0.000000 0.000000 0.000000 0.000000 -0.309339
    10 1.196326 -0.000002 -0.000001 0.000000 0.000000 -0.521230
    11 3.883696 -0.046765 0.431443 0.085902 0.021830 -0.587867
    12 1.719570 -0.000004 -0.000001 0.000000 0.005516 -0.366478
    13 1.209171 -0.000002 0.000000 0.000000 0.003084 -0.216400
    14 3.859865 -0.137947 1.332466 0.354449 -0.042750 -0.531718
    15 1.719429 0.000002 -0.000001 0.000000 0.004074 -0.363009
    16 1.099665 0.000000 0.000000 0.000000 0.002596 -0.244331
    17 0.806053 -0.348925 1.321258 -1.166382 -0.626621 -0.921969
    18 1.789780 -0.000002 0.000002 0.000000 0.000000 0.189105
    19 1.207006 0.000000 0.000000 0.000000 0.000000 0.306015
    20 2.033356 1.000772 -1.937610 -1.668474 1.286518 2.942953
    21 6.028144 0.000000 0.000000 1.775579 1.482544 -0.794832
    22 11.692554 0.000001 0.000003 0.000000 0.000000 -0.319666
    23 11.481697 0.000001 0.000002 -1.309498 -0.056997 0.387747
    24 3.859678 -0.132570 1.193109 0.432208 -0.155862 -0.861350
    25 1.312557 -0.000002 0.000001 0.000000 0.000000 -1.191994
    26 0.729365 0.000002 -0.000002 0.000000 0.000000 -1.063394
    27 3.942305 0.050327 0.431044 0.232421 0.000609 -0.853331
    28 1.539099 -0.000002 0.000000 0.000000 0.000000 -0.973379
    29 1.196321 0.000008 0.000000 0.000000 0.000000 -1.451289
    30 3.883661 -0.050323 -0.431042 0.066987 0.050243 -0.694792
    31 1.719578 0.000004 0.000000 0.000000 -0.000004 -1.251013
    32 1.209185 0.000002 0.000000 0.000000 0.000000 -1.141170
    33 3.859838 -0.148937 -1.331282 -0.248855 0.263129 -0.072121
    34 1.719423 0.000002 0.000000 0.000000 0.000000 -0.676756
    35 1.099667 0.000002 0.000000 0.000000 -0.000004 -1.021265
    36 0.806021 -0.359837 -1.318334 1.349685 0.343493 -0.771450
    37 1.789782 0.000000 -0.000004 0.000000 0.000000 0.397500
    38 1.206999 0.000003 0.000002 0.000000 0.000000 0.989033
    39 6.104525 -1.468680 -3.530283 -1.564198 -0.011689 -1.581440
    40 3.820738 -1.409994 -0.589409 -1.564198 -0.011689 -1.581440
  time 5
    0 0.000005 3.335938 -8.640625 -1.570781 -1.391896 -1.570809
    1 2.033349 1.000767 1.937660 1.596637 -1.286515 2.942961
    2 6.028141 0.000000 0.000000 -1.579228 0.357999 -1.145030
    3 11.692554 0.000001 0.000002 0.000000 0.000000 -1.541525
    4 11.481674 0.000001 -0.000032 1.573168 -0.028074 0.044378
    5 3.859709 -0.142404 -1.191975 -0.476793 0.134331 -0.965122
    6 1.312555 -0.000002 0.000001 0.000000 0.000000 -0.279217
    7 0.729363 -0.000002 -0.000002 0.000000 0.000000 -0.096880
    8 3.942335 0.046767 -0.431443 -0.145073 0.087435 -0.741654
    9 1.539097 0.000000 0.000000 0.000000 0.000000 -0.309339
    10 1.196326 -0.000002 -0.000001 0.000000 0.000000 -0.521230
    11 3.883696 -0.046765 0.431443 0.085902 0.021830 -0.587867
    12 1.719570 -0.000004 -0.000001 0.000000 0.005516 -0.366478
    13 1.209171 -0.000002 0.000000 0.000000 0.003084 -0.216400
    14 3.859865 -0.137947 1.332466 0.354449 -0.042750 -0.531718
    15 1.719429 0.000002 -0.000001 0.000000 0.004074 -0.363009
    16 1.099665 0.000000 0.000000 0.000000 0.002596 -0.244331
    17 0.806053 -0.348925 1.321258 -1.166382 -0.626621 -0.921969
    18 1.789780 -0.000002 0.000002 0.000000 0.000000 0.189105
    19 1.207006 0.000000 0.000000 0.000000 0.000000 0.306015
    20 2.033356 1.000772 -1.937610 -1.668474 1.286518 2.942953
    21 6.028144 0.000000 0.000000 1.916479 1.499323 -0.649109
    22 11.692554 0.000001 0.000003 0.000000 0.000000 -0.320267
    23 11.481697 0.000001 0.000002 -1.298077 -0.029154 0.322513
    24 3.859678 -0.132570 1.193109 0.432208 -0.155862 -0.861350
    25 1.312557 -0.000002 0.000001 0.000000 0.000000 -1.191994
    26 0.729365 0.000002 -0.000002 0.000000 0.000000 -1.063394
    27 3.942305 0.050327 0.431044 0.232421 0.000609 -0.853331
    28 1.539099 -0.000002 0.000000 0.000000 0.000000 -0.973379
    29 1.196321 0.000008 0.000000 0.000000 0.000000 -1.451289
    30 3.883661 -0.050323 -0.431042 0.066987 0.050243 -0.694792
    31 1.719578 0.000004 0.000000 0.000000 -0.000004 -1.251013
    32 1.209185 0.000002 0.000000 0.000000 0.000000 -1.141170
    33 3.859838 -0.148937 -1.331282 -0.248855 0.263129 -0.072121
    34 1.719423 0.000002 0.000000 0.000000 0.000000 -0.676756
    35 1.099667 0.000002 0.000000 0.000000 -0.000004 -1.021265
    36 0.806021 -0.359837 -1.318334 1.349685 0.343493 -0.771450
    37 1.789782 0.000000 -0.000004 0.000000 0.000000 0.397500
    38 1.206999 0.000003 0.000002 0.000000 0.000000 0.989033
    39 6.104525 -1.468680 -3.530283 -1.564198 -0.011689 -1.581440
    40 3.820738 -1.409994 -0.589409 -1.564198 -0.011689 -1.581440
  time 6
    0 0.000005 3.335938 -8.640625 -1.570781 -1.391896 -1.570809
    1 2.033349 1.000767 1.937660 1.596637 -1.286515 2.942961
    2 6.028141 0.000000 0.000000 -1.579228 0.357999 -1.145030
    3 11.692554 0.000001 0.000002 0.000000 0.000000 -1.541525
    4 11.481674 0.000001 -0.000032 1.573168 -0.028074 0.044378
    5 3.859709 -0.142404 -1.191975 -0.476793 0.134331 -0.965122
    6 1.312555 -0.000002 0.000001 0.000000 0.000000 -0.279217
    7 0.729363 -0.000002 -0.000002 0.000000 0.000000 -0.096880
    8 3.942335 0.046767 -0.431443 -0.145073 0.087435 -0.741654
    9 1.539097 0.000000 0.000000 0.000000 0.000000 -0.309339
    10 1.196326 -0.000002 -0.000001 0.000000 0.000000 -0.521230
    11 3.883696 -0.046765 0.431443 0.085902 0.021830 -0.587867
    12 1.719570 -0.000004 -0.000001 0.000000 0.005516 -0.366478
    13 1.209171 -0.000002 0.000000 0.000000 0.003084 -0.216400
    14 3.859865 -0.137947 1.332466 0.354449 -0.042750 -0.531718
    15 1.719429 0.000002 -0.000001 0.000000 0.004074 -0.363009
    16 1.099665 0.000000 0.000000 0.000000 0.002596 -0.244331
    17 0.806053 -0.348925 1.321258 -1.166382 -0.626621 -0.921969
    18 1.789780 -0.000002 0.000002 0.000000 0.000000 0.189105
    19 1.207006 0.000000 0.000000 0.000000 0.000000 0.306015
    20 2.033356 1.000772 -1.937610 -1.668474 1.286518 2.942953
    21 6.028144 0.000000 0.000000 2.037951 1.508950 -0.524801
    22 11.692554 0.000001 0.000003 0.000000 0.000000 -0.318199
    23 11.481697 0.000001 0.000002 -1.291613 -0.007727 0.258796
    24 3.859678 -0.132570 1.193109 0.432208 -0.155862 -0.861350
    25 1.312557 -0.000002 0.000001 0.000000 0.000000 -1.191994
    26 0.729365 0.000002 -0.000002 0.000000 0.000000 -1.063394
    27 3.942305 0.050327 0.431044 0.232421 0.000609 -0.853331
    28 1.539099 -0.000002 0.000000 0.000000 0.000000 -0.973379
    29 1.196321 0.000008 0.000000 0.000000 0.000000 -1.451289
    30 3.883661 -0.050323 -0.431042 0.066987 0.050243 -0.694792
    31 1.719578 0.000004 0.000000 0.000000 -0.000004 -1.251013
    32 1.209185 0.000002 0.000000 0.000000 0.000000 -1.141170
    33 3.859838 -0.148937 -1.331282 -0.248855 0.263129 -0.072121
    34 1.719423 0.000002 0.000000 0.000000 0.000000 -0.676756
    35 1.099667 0.000002 0.000000 0.000000 -0.000004 -1.021265
    36 0.806021 -0.359837 -1.318334 1.349685 0.343493 -0.771450
    37 1.789782 0.000000 -0.000004 0.000000 0.000000 0.397500
    38 1.206999 0.000003 0.000002 0.000000 0.000000 0.989033
    39 6.104525 -1.468680 -3.530283 -1.564198 -0.011689 -1.581440
    40 3.820738 -1.409994 -0.589409 -1.564198 -0.011689 -1.581440
  time 7
    0 0.000005 3.335938 -8.640625 -1.570781 -1.391896 -1.570809
    1 2.033349 1.000767 1.937660 1.596637 -1.286515 2.942961
    2 6.028141 0.000000 0.000000 -1.579228 0.357999 -1.145030
    3 11.692554 0.000001 0.000002 0.000000 0.000000 -1.541525
    4 11.481674 0.000001 -0.000032 1.573168 -0.028074 0.044378
    5 3.859709 -0.142404 -1.191975 -0.476793 0.134331 -0.965122
    6 1.312555 -0.000002 0.000001 0.000000 0.000000 -0.279217
    7 0.729363 -0.000002 -0.000002 0.000000 0.000000 -0.096880
    8 3.942335 0.046767 -0.431443 -0.145073 0.087435 -0.741654
    9 1.539097 0.000000 0.000000 0.000000 0.000000 -0.309339
    10 1.196326 -0.000002 -0.000001 0.000000 0.000000 -0.521230
    11 3.883696 -0.046765 0.431443 0.085902 0.021830 -0.587867
    12 1.719570 -0.000004 -0.000001 0.000000 0.005516 -0.366478
    13 1.209171 -0.000002 0.000000 0.000000 0.003084 -0.216400
    14 3.859865 -0.137947 1.332466 0.354449 -0.042750 -0.531718
    15 1.719429 0.000002 -0.000001 0.000000 0.004074 -0.363009
    16 1.099665 0.000000 0.000000 0.000000 0.002596 -0.244331
    17 0.806053 -0.348925 1.321258 -1.166382 -0.626621 -0.921969
    18 1.789780 -0.000002 0.000002 0.000000 0.000000 0.189105
    19 1.207006 0.000000 0.000000 0.000000 0.000000 0.306015
    20 2.033356 1.000772 -1.937610 -1.668474 1.286518 2.942953
    21 6.028144 0.000000 0.000000 2.106392 1.513016 -0.455061
    22 11.692554 0.000001 0.000003 0.000000 0.000000 -0.316808
    23 11.481697 0.000001 0.000002 -1.289271 0.004179 0.214969
    24 3.859678 -0.132570 1.193109 0.432208 -0.155862 -0.861350
    25 1.312557 -0.000002 0.000001 0.000000 0.000000 -1.191994
    26 0.729365 0.000002 -0.000002 0.000000 0.000000 -1.063394
    27 3.942305 0.050327 0.431044 0.232421 0.000609 -0.853331
    28 1.539099 -0.000002 0.000000 0.000000 0.000000 -0.973379
    29 1.196321 0.000008 0.000000 0.000000 0.000000 -1.451289
    30 3.883661 -0.050323 -0.431042 0.066987 0.050243 -0.694792
    31 1.719578 0.000004 0.000000 0.000000 -0.000004 -1.251013
    32 1.209185 0.000002 0.000000 0.000000 0.000000 -1.141170
    33 3.859838 -0.148937 -1.331282 -0.248855 0.263129 -0.072121
    34 1.719423 0.000002 0.000000 0.000000 0.000000 -0.676756
    35 1.099667 0.000002 0.000000 0.000000 -0.000004 -1.021265
    36 0.806021 -0.359837 -1.318334 1.349685 0.343493 -0.771450
    37 1.789782 0.000000 -0.000004 0.000000 0.000000 0.397500
    38 1.206999 0.000003 0.000002 0.000000 0.000000 0.989033
    39 6.104525 -1.468680 -3.530283 -1.564198 -0.011689 -1.581440
    40 3.820738 -1.409994 -0.589409 -1.564198 -0.011689 -1.581440
  time 8
    0 0.000005 3.335938 -8.640625 -1.570781 -1.391896 -1.570809
    1 2.033349 1.000767 1.937660 1.596637 -1.286515 2.942961
    2 6.028141 0.000000 0.000000 -1.579228 0.357999 -1.145030
    3 11.692554 0.000001 0.000002 0.000000 0.000000 -1.541525
    4 11.481674 0.000001 -0.000032 1.573168 -0.028074 0.044378
    5 3.859709 -0.142404 -1.191975 -0.476793 0.134331 -0.965122
    6 1.312555 -0.000002 0.000001 0.000000 0.000000 -0.279217
    7 0.729363 -0.000002 -0.000002 0.000000 0.000000 -0.096880
    8 3.942335 0.046767 -0.431443 -0.145073 0.087435 -0.741654
    9 1.539097 0.000000 0.000000 0.000000 0.000000 -0.309339
    10 1.196326 -0.000002 -0.000001 0.000000 0.000000 -0.521230
    11 3.883696 -0.046765 0.431443 0.085902 0.021830 -0.587867
    12 1.719570 -0.000004 -0.000001 0.000000 0.005516 -0.366478
    13 1.209171 -0.000002 0.000000 0.000000 0.003084 -0.216400
    14 3.859865 -0.137947 1.332466 0.354449 -0.042750 -0.531718
    15 1.719429 0.000002 -0.000001 0.000000 0.004074 -0.363009
    16 1.099665 0.000000 0.000000 0.000000 0.002596 -0.244331
    17 0.806053 -0.348925 1.321258 -1.166382 -0.626621 -0.921969
    18 1.789780 -0.000002 0.000002 0.000000 0.000000 0.189105
    19 1.207006 0.000000 0.000000 0.000000 0.000000 0.306015
    20 2.033356 1.000772 -1.937610 -1.668474 1.286518 2.942953
    21 6.028144 0.000000 0.000000 2.118877 1.513671 -0.442333
    22 11.692554 0.000001 0.000003 0.000000 0.000000 -0.316658
    23 11.481697 0.000001 0.000002 -1.288835 0.007428 0.200690
    24 3.859678 -0.132570 1.193109 0.432208 -0.155862 -0.861350
    25 1.312557 -0.000002 0.000001 0.000000 0.000000 -1.191994
    26 0.729365 0.000002 -0.000002 0.000000 0.000000 -1.063394
    27 3.942305 0.050327 0.431044 0.232421 0.000609 -0.853331
    28 1.539099 -0.000002 0.000000 0.000000 0.000000 -0.973379
    29 1.196321 0.000008 0.000000 0.000000 0.000000 -1.451289
    30 3.883661 -0.050323 -0.431042 0.066987 0.050243 -0.694792
    31 1.719578 0.000004 0.000000 0.000000 -0.000004 -1.251013
    32 1.209185 0.000002 0.000000 0.000000 0.000000 -1.141170
    33 3.859838 -0.148937 -1.331282 -0.248855 0.263129 -0.072121
    34 1.719423 0.000002 0.000000 0.000000 0.000000 -0.676756
    35 1.099667 0.000002 0.000000 0.000000 -0.000004 -1.021265
    36 0.806021 -0.359837 -1.318334 1.349685 0.343493 -0.771450
    37 1.789782 0.000000 -0.000004 0.000000 0.000000 0.397500
    38 1.206999 0.000003 0.000002 0.000000 0.000000 0.989033
    39 6.104525 -1.468680 -3.530283 -1.564198 -0.011689 -1.581440
    40 3.820738 -1.409994 -0.589409 -1.564198 -0.011689 -1.581440
end
