// Created by Crowbar 0.74
version 1
nodes
  0 "Scene_Root" -1
  1 "Rig_base" 0
  2 "ValveBiped.Bip01_L_Clavicle" 1
  3 "ValveBiped.Bip01_L_UpperArm" 2
  4 "ValveBiped.Bip01_L_Forearm" 3
  5 "ValveBiped.Bip01_L_Hand" 4
  6 "ValveBiped.Bip01_L_Finger4" 5
  7 "ValveBiped.Bip01_L_Finger41" 6
  8 "ValveBiped.Bip01_L_Finger42" 7
  9 "ValveBiped.Bip01_L_Finger3" 5
  10 "ValveBiped.Bip01_L_Finger31" 9
  11 "ValveBiped.Bip01_L_Finger32" 10
  12 "ValveBiped.Bip01_L_Finger2" 5
  13 "ValveBiped.Bip01_L_Finger21" 12
  14 "ValveBiped.Bip01_L_Finger22" 13
  15 "ValveBiped.Bip01_L_Finger1" 5
  16 "ValveBiped.Bip01_L_Finger11" 15
  17 "ValveBiped.Bip01_L_Finger12" 16
  18 "ValveBiped.Bip01_L_Finger0" 5
  19 "ValveBiped.Bip01_L_Finger01" 18
  20 "ValveBiped.Bip01_L_Finger02" 19
  21 "Detonator" 5
  22 "ValveBiped.Bip01_R_Clavicle" 1
  23 "ValveBiped.Bip01_R_UpperArm" 22
  24 "ValveBiped.Bip01_R_Forearm" 23
  25 "ValveBiped.Bip01_R_Hand" 24
  26 "ValveBiped.Bip01_R_Finger4" 25
  27 "ValveBiped.Bip01_R_Finger41" 26
  28 "ValveBiped.Bip01_R_Finger42" 27
  29 "ValveBiped.Bip01_R_Finger3" 25
  30 "ValveBiped.Bip01_R_Finger31" 29
  31 "ValveBiped.Bip01_R_Finger32" 30
  32 "ValveBiped.Bip01_R_Finger2" 25
  33 "ValveBiped.Bip01_R_Finger21" 32
  34 "ValveBiped.Bip01_R_Finger22" 33
  35 "ValveBiped.Bip01_R_Finger1" 25
  36 "ValveBiped.Bip01_R_Finger11" 35
  37 "ValveBiped.Bip01_R_Finger12" 36
  38 "ValveBiped.Bip01_R_Finger0" 25
  39 "ValveBiped.Bip01_R_Finger01" 38
  40 "ValveBiped.Bip01_R_Finger02" 39
  41 "Slam_base" 25
  42 "HandControlPosParentL" 1
  43 "UpperArmControlL" 42
  44 "HandControlPosL" 43
  45 "HandControlPosParentR" 1
  46 "UpperArmControlR" 45
  47 "HandControlPosR" 46
  48 "HandControlRotGrandmaL" 1
  49 "HandControlRotParentL" 48
  50 "HandControlRotL" 49
  51 "HandControlRotL1" 50
  52 "HandControlRotConstrainerL" 51
  53 "HandControlRotGrandmaR" 1
  54 "HandControlRotParentR" 53
  55 "HandControlRotR" 54
  56 "HandControlRotR1" 55
  57 "HandControlRotConstrainerR" 56
end
skeleton
  time 0
    0 0.000000 0.000000 -67.998169 1.570796 0.000000 0.000000
    1 0.000000 59.000000 1.996216 0.000000 0.000000 0.000000
    2 1.937660 1.174958 0.010475 0.006897 -0.005535 -0.284229
    3 6.028143 -0.000002 0.000000 -1.634186 -1.087891 -0.544991
    4 11.692555 0.000000 0.000000 0.000000 0.000000 -0.982355
    5 11.481671 -0.000001 -0.000032 1.604631 -0.200856 0.043973
    6 3.859704 -0.142405 -1.191976 -0.319953 0.094030 -1.042932
    7 1.312562 0.000000 0.000000 0.000000 0.000000 -1.494899
    8 0.729363 0.000001 -0.000002 0.000000 0.000000 -1.428325
    9 3.942325 0.046771 -0.431444 -0.120431 0.068511 -0.919744
    10 1.539093 0.000000 -0.000001 0.000000 0.000000 -1.191886
    11 1.196322 0.000001 -0.000001 0.000000 0.000000 -1.711911
    12 3.883687 -0.046771 0.431443 0.166007 0.072693 -0.591067
    13 1.719575 -0.000001 -0.000003 0.000000 0.000003 -1.314572
    14 1.209183 0.000002 0.000000 0.000000 0.000004 -1.213847
    15 3.859859 -0.137948 1.332463 0.263873 -0.198889 -0.341237
    16 1.719428 -0.000001 0.000000 0.000000 0.000000 -0.826631
    17 1.099666 0.000001 0.000001 0.000000 0.000000 -0.697327
    18 0.806046 -0.348922 1.321256 -1.209003 -0.877804 -0.755208
    19 1.789786 -0.000001 0.000001 0.000000 0.000000 0.482669
    20 1.206999 -0.000003 0.000001 0.000000 0.000000 0.726106
    21 1.085958 -11.442460 -66.779285 1.278926 0.000010 1.518250
    22 -1.937610 1.174966 0.010480 3.062865 -0.005537 -2.857366
    23 6.028143 -0.000001 0.000000 0.975206 -0.035611 -0.958221
    24 11.692554 -0.000001 0.000000 0.000000 0.000000 -0.837190
    25 11.481701 0.000000 -0.000001 -0.348946 -0.588457 -0.206691
    26 3.859674 -0.132568 1.193108 0.287816 -0.342592 -0.661305
    27 1.312562 0.000000 0.000002 0.000000 0.000000 -1.114840
    28 0.729364 0.000000 -0.000001 0.000000 0.000000 -0.972653
    29 3.942296 0.050328 0.431040 -0.004960 -0.256036 -0.352620
    30 1.539098 0.000001 0.000001 0.000000 0.000000 -0.706513
    31 1.196322 0.000000 0.000000 0.000000 0.000000 -1.088518
    32 3.883659 -0.050328 -0.431046 -0.270983 -0.189874 -0.192733
    33 1.719577 0.000000 0.000000 0.000000 -0.000004 -0.883866
    34 1.209182 0.000000 -0.000001 0.000000 -0.000003 -0.739250
    35 3.859830 -0.148935 -1.331283 -0.524145 -0.148500 -0.016370
    36 1.719426 0.000002 0.000001 0.000000 -0.000010 -0.694703
    37 1.099666 -0.000001 -0.000001 0.000000 -0.000004 -0.565032
    38 0.806017 -0.359833 -1.318335 1.234213 0.479108 -1.009509
    39 1.789784 0.000001 -0.000001 0.000000 0.000000 0.342545
    40 1.206998 -0.000001 -0.000001 0.000000 0.000000 0.526219
    41 -44.062309 -47.230815 -23.058550 -0.000048 0.016331 -0.810754
    42 7.723854 -0.515411 0.043839 0.000000 0.000000 0.000000
    43 0.000000 0.000001 0.000000 0.000000 0.000000 0.000000
    44 0.260770 0.343316 20.429131 0.000000 0.000000 0.000000
    45 -7.723807 -0.515392 0.043857 0.000000 0.000000 0.000000
    46 0.000000 0.000001 0.000000 0.000000 0.000000 0.000000
    47 -1.647020 -20.528147 4.909353 0.000000 0.000000 0.000000
    48 11.313541 -4.575236 10.404209 1.613623 -1.069474 2.218562
    49 11.481672 -0.000001 -0.000032 1.573183 -0.106613 0.044193
    50 0.000000 0.000000 -0.000001 0.031412 0.000000 0.094242
    51 0.000000 0.000000 -0.000001 0.000000 0.000000 0.000000
    52 0.000000 0.000000 -0.000001 0.000000 0.000000 0.000000
    53 -11.515544 -11.515952 -1.082642 3.931275 -0.553631 4.933631
    54 11.481699 0.000001 0.000000 -1.564936 0.106606 0.044193
    55 0.000001 0.000000 0.000000 1.075966 0.204184 -0.710755
    56 0.000000 0.000000 0.000000 0.000000 0.000000 0.000000
    57 0.000000 0.000000 0.000000 0.000000 0.000000 0.000000
  time 1
    0 0.000000 0.000000 -67.998169 1.570796 0.000000 0.000000
    1 0.000000 59.000000 1.996216 0.000000 0.000000 0.000000
    2 1.937660 1.174958 0.010475 0.006897 -0.005535 -0.284229
    3 6.028143 -0.000002 0.000000 -1.631525 -1.095414 -0.548706
    4 11.692555 0.000000 0.000000 0.000000 0.000000 -0.963515
    5 11.481671 -0.000001 -0.000032 1.645882 -0.200868 0.050660
    6 3.859704 -0.142405 -1.191976 -0.319953 0.094030 -1.042932
    7 1.312562 0.000000 0.000000 0.000000 0.000000 -1.494899
    8 0.729363 0.000001 -0.000002 0.000000 0.000000 -1.428325
    9 3.942325 0.046771 -0.431444 -0.120431 0.068511 -0.919744
    10 1.539093 0.000000 -0.000001 0.000000 0.000000 -1.191886
    11 1.196322 0.000001 -0.000001 0.000000 0.000000 -1.711911
    12 3.883687 -0.046771 0.431443 0.166007 0.072693 -0.591067
    13 1.719575 -0.000001 -0.000003 0.000000 0.000003 -1.314572
    14 1.209183 0.000002 0.000000 0.000000 0.000004 -1.213847
    15 3.859859 -0.137948 1.332463 0.267504 -0.181907 -0.388791
    16 1.719428 -0.000001 0.000000 0.000000 0.000000 -0.722169
    17 1.099666 0.000001 0.000001 0.000000 0.000000 -0.697327
    18 0.806046 -0.348922 1.321256 -1.243399 -0.773622 -0.703494
    19 1.789786 -0.000001 0.000001 0.008377 -0.003176 0.479253
    20 1.206999 -0.000003 0.000001 0.000000 0.000000 0.482627
    21 1.085958 -11.442460 -66.779285 1.278926 0.000010 1.518250
    22 -1.937610 1.174966 0.010480 3.062865 -0.005537 -2.857366
    23 6.028143 -0.000001 0.000000 0.975206 -0.035611 -0.958221
    24 11.692554 -0.000001 0.000000 0.000000 0.000000 -0.837190
    25 11.481701 0.000000 -0.000001 -0.348946 -0.588457 -0.206691
    26 3.859674 -0.132568 1.193108 0.287816 -0.342592 -0.661305
    27 1.312562 0.000000 0.000002 0.000000 0.000000 -1.114840
    28 0.729364 0.000000 -0.000001 0.000000 0.000000 -0.972653
    29 3.942296 0.050328 0.431040 -0.004960 -0.256036 -0.352620
    30 1.539098 0.000001 0.000001 0.000000 0.000000 -0.706513
    31 1.196322 0.000000 0.000000 0.000000 0.000000 -1.088518
    32 3.883659 -0.050328 -0.431046 -0.270983 -0.189874 -0.192733
    33 1.719577 0.000000 0.000000 0.000000 -0.000004 -0.883866
    34 1.209182 0.000000 -0.000001 0.000000 -0.000003 -0.739250
    35 3.859830 -0.148935 -1.331283 -0.524145 -0.148500 -0.016370
    36 1.719426 0.000002 0.000001 0.000000 -0.000010 -0.694703
    37 1.099666 -0.000001 -0.000001 0.000000 -0.000004 -0.565032
    38 0.806017 -0.359833 -1.318335 1.234213 0.479108 -1.009509
    39 1.789784 0.000001 -0.000001 0.000000 0.000000 0.342545
    40 1.206998 -0.000001 -0.000001 0.000000 0.000000 0.526219
    41 -44.062309 -47.230815 -23.058550 -0.000048 0.016331 -0.810754
    42 7.723854 -0.515411 0.043839 0.000000 0.000000 0.000000
    43 0.000000 0.000001 0.000000 0.000000 0.000000 0.000000
    44 0.260770 0.292534 20.530696 0.000000 0.000000 0.000000
    45 -7.723807 -0.515392 0.043857 0.000000 0.000000 0.000000
    46 0.000000 0.000001 0.000000 0.000000 0.000000 0.000000
    47 -1.647020 -20.528147 4.909353 0.000000 0.000000 0.000000
    48 11.247133 -4.528360 10.443273 1.611041 -1.080924 2.219052
    49 11.481672 -0.000001 -0.000032 1.573183 -0.106613 0.044193
    50 0.000000 0.000000 -0.000001 0.074005 0.006556 0.094242
    51 0.000000 0.000000 -0.000001 0.000000 0.000000 0.000000
    52 0.000000 0.000000 -0.000001 0.000000 0.000000 0.000000
    53 -11.515544 -11.515952 -1.082642 3.931275 -0.553631 4.933631
    54 11.481699 0.000001 0.000000 -1.564936 0.106606 0.044193
    55 0.000001 0.000000 0.000000 1.075966 0.204184 -0.710755
    56 0.000000 0.000000 0.000000 0.000000 0.000000 0.000000
    57 0.000000 0.000000 0.000000 0.000000 0.000000 0.000000
  time 2
    0 0.000000 0.000000 -67.998169 1.570796 0.000000 0.000000
    1 0.000000 59.000000 1.996216 0.000000 0.000000 0.000000
    2 1.937660 1.174958 0.010475 0.006897 -0.005535 -0.284229
    3 6.028143 -0.000002 0.000000 -1.627822 -1.106245 -0.553861
    4 11.692555 0.000000 0.000000 0.000000 0.000000 -0.936658
    5 11.481671 -0.000001 -0.000032 1.703348 -0.200868 0.059984
    6 3.859704 -0.142405 -1.191976 -0.319953 0.094030 -1.042932
    7 1.312562 0.000000 0.000000 0.000000 0.000000 -1.494899
    8 0.729363 0.000001 -0.000002 0.000000 0.000000 -1.428325
    9 3.942325 0.046771 -0.431444 -0.120431 0.068511 -0.919744
    10 1.539093 0.000000 -0.000001 0.000000 0.000000 -1.191886
    11 1.196322 0.000001 -0.000001 0.000000 0.000000 -1.711911
    12 3.883687 -0.046771 0.431443 0.166007 0.072693 -0.591067
    13 1.719575 -0.000001 -0.000003 0.000000 0.000003 -1.314601
    14 1.209183 0.000002 0.000000 0.000000 0.000004 -1.213847
    15 3.859859 -0.137948 1.332463 0.271315 -0.156895 -0.457751
    16 1.719428 -0.000001 0.000000 0.000000 0.000000 -0.569826
    17 1.099666 0.000001 0.000001 0.000000 0.000000 -0.697327
    18 0.806046 -0.348922 1.321256 -1.267860 -0.668469 -0.660913
    19 1.789786 -0.000001 0.000001 0.016754 -0.006352 0.475838
    20 1.206999 -0.000003 0.000001 0.000000 0.000000 0.239172
    21 1.085958 -11.442460 -66.779285 1.278926 0.000010 1.518250
    22 -1.937610 1.174966 0.010480 3.062865 -0.005537 -2.857366
    23 6.028143 -0.000001 0.000000 0.975206 -0.035611 -0.958221
    24 11.692554 -0.000001 0.000000 0.000000 0.000000 -0.837190
    25 11.481701 0.000000 -0.000001 -0.348946 -0.588457 -0.206691
    26 3.859674 -0.132568 1.193108 0.287816 -0.342592 -0.661305
    27 1.312562 0.000000 0.000002 0.000000 0.000000 -1.114840
    28 0.729364 0.000000 -0.000001 0.000000 0.000000 -0.972653
    29 3.942296 0.050328 0.431040 -0.004960 -0.256036 -0.352620
    30 1.539098 0.000001 0.000001 0.000000 0.000000 -0.706513
    31 1.196322 0.000000 0.000000 0.000000 0.000000 -1.088518
    32 3.883659 -0.050328 -0.431046 -0.270983 -0.189874 -0.192733
    33 1.719577 0.000000 0.000000 0.000000 -0.000004 -0.883866
    34 1.209182 0.000000 -0.000001 0.000000 -0.000003 -0.739250
    35 3.859830 -0.148935 -1.331283 -0.524145 -0.148500 -0.016370
    36 1.719426 0.000002 0.000001 0.000000 -0.000010 -0.694703
    37 1.099666 -0.000001 -0.000001 0.000000 -0.000004 -0.565032
    38 0.806017 -0.359833 -1.318335 1.234213 0.479108 -1.009509
    39 1.789784 0.000001 -0.000001 0.000000 0.000000 0.342545
    40 1.206998 -0.000001 -0.000001 0.000000 0.000000 0.526219
    41 -44.062309 -47.230815 -23.058550 -0.000048 0.016331 -0.810754
    42 7.723854 -0.515411 0.043839 0.000000 0.000000 0.000000
    43 0.000000 0.000001 0.000000 0.000000 0.000000 0.000000
    44 0.260770 0.222219 20.675232 0.000000 0.000000 0.000000
    45 -7.723807 -0.515392 0.043857 0.000000 0.000000 0.000000
    46 0.000000 0.000001 0.000000 0.000000 0.000000 0.000000
    47 -1.647020 -20.528147 4.909353 0.000000 0.000000 0.000000
    48 11.149474 -4.465858 10.501868 1.607390 -1.097142 2.219869
    49 11.481672 -0.000001 -0.000032 1.573183 -0.106613 0.044193
    50 0.000000 0.000000 -0.000001 0.133329 0.015700 0.094242
    51 0.000000 0.000000 -0.000001 0.000000 0.000000 0.000000
    52 0.000000 0.000000 -0.000001 0.000000 0.000000 0.000000
    53 -11.515544 -11.515952 -1.082642 3.931275 -0.553631 4.933631
    54 11.481699 0.000001 0.000000 -1.564936 0.106606 0.044193
    55 0.000001 0.000000 0.000000 1.075966 0.204184 -0.710755
    56 0.000000 0.000000 0.000000 0.000000 0.000000 0.000000
    57 0.000000 0.000000 0.000000 0.000000 0.000000 0.000000
  time 3
    0 0.000000 0.000000 -67.998169 1.570796 0.000000 0.000000
    1 0.000000 59.000000 1.996216 0.000000 0.000000 0.000000
    2 1.937660 1.174958 0.010475 0.006897 -0.005535 -0.284229
    3 6.028143 -0.000002 0.000000 -1.630087 -1.103390 -0.550803
    4 11.692555 0.000000 0.000000 0.000000 0.000000 -0.945047
    5 11.481671 -0.000001 -0.000032 1.697847 -0.200868 0.056484
    6 3.859704 -0.142405 -1.191976 -0.319953 0.094030 -1.042932
    7 1.312562 0.000000 0.000000 0.000000 0.000000 -1.494899
    8 0.729363 0.000001 -0.000002 0.000000 0.000000 -1.428325
    9 3.942325 0.046771 -0.431444 -0.120431 0.068511 -0.919744
    10 1.539093 0.000000 -0.000001 0.000000 0.000000 -1.191886
    11 1.196322 0.000001 -0.000001 0.000000 0.000000 -1.711911
    12 3.883687 -0.046771 0.431443 0.166007 0.072693 -0.591067
    13 1.719575 -0.000001 -0.000003 0.000000 0.000003 -1.314572
    14 1.209183 0.000002 0.000000 0.000000 0.000004 -1.213847
    15 3.859859 -0.137948 1.332463 0.272897 -0.139626 -0.504850
    16 1.719428 -0.000001 0.000000 0.000000 0.000000 -0.465349
    17 1.099666 0.000001 0.000001 0.000000 0.000000 -0.697327
    18 0.806046 -0.348922 1.321256 -1.256211 -0.723095 -0.682066
    19 1.789786 -0.000001 0.000001 0.012404 -0.004698 0.477611
    20 1.206999 -0.000003 0.000001 0.000000 0.000000 0.365406
    21 1.085958 -11.442460 -66.779285 1.278926 0.000010 1.518250
    22 -1.937610 1.174966 0.010480 3.062865 -0.005537 -2.857366
    23 6.028143 -0.000001 0.000000 0.975206 -0.035611 -0.958221
    24 11.692554 -0.000001 0.000000 0.000000 0.000000 -0.837190
    25 11.481701 0.000000 -0.000001 -0.348946 -0.588457 -0.206691
    26 3.859674 -0.132568 1.193108 0.287816 -0.342592 -0.661305
    27 1.312562 0.000000 0.000002 0.000000 0.000000 -1.114840
    28 0.729364 0.000000 -0.000001 0.000000 0.000000 -0.972653
    29 3.942296 0.050328 0.431040 -0.004960 -0.256036 -0.352620
    30 1.539098 0.000001 0.000001 0.000000 0.000000 -0.706513
    31 1.196322 0.000000 0.000000 0.000000 0.000000 -1.088518
    32 3.883659 -0.050328 -0.431046 -0.270983 -0.189874 -0.192733
    33 1.719577 0.000000 0.000000 0.000000 -0.000004 -0.883866
    34 1.209182 0.000000 -0.000001 0.000000 -0.000003 -0.739250
    35 3.859830 -0.148935 -1.331283 -0.524145 -0.148500 -0.016370
    36 1.719426 0.000002 0.000001 0.000000 -0.000010 -0.694703
    37 1.099666 -0.000001 -0.000001 0.000000 -0.000004 -0.565032
    38 0.806017 -0.359833 -1.318335 1.234213 0.479108 -1.009509
    39 1.789784 0.000001 -0.000001 0.000000 0.000000 0.342545
    40 1.206998 -0.000001 -0.000001 0.000000 0.000000 0.526219
    41 -44.062309 -47.230815 -23.058550 -0.000048 0.016331 -0.810754
    42 7.723854 -0.515411 0.043839 0.000000 0.000000 0.000000
    43 0.000000 0.000001 0.000000 0.000000 0.000000 0.000000
    44 0.260770 0.261283 20.628356 0.000000 0.000000 0.000000
    45 -7.723807 -0.515392 0.043857 0.000000 0.000000 0.000000
    46 0.000000 0.000001 0.000000 0.000000 0.000000 0.000000
    47 -1.647020 -20.528147 4.909353 0.000000 0.000000 0.000000
    48 11.180725 -4.477577 10.486243 1.609527 -1.091507 2.219134
    49 11.481672 -0.000001 -0.000032 1.573183 -0.106613 0.044193
    50 0.000000 0.000000 -0.000001 0.127121 0.012260 0.094242
    51 0.000000 0.000000 -0.000001 0.000000 0.000000 0.000000
    52 0.000000 0.000000 -0.000001 0.000000 0.000000 0.000000
    53 -11.515544 -11.515952 -1.082642 3.931275 -0.553631 4.933631
    54 11.481699 0.000001 0.000000 -1.564936 0.106606 0.044193
    55 0.000001 0.000000 0.000000 1.075966 0.204184 -0.710755
    56 0.000000 0.000000 0.000000 0.000000 0.000000 0.000000
    57 0.000000 0.000000 0.000000 0.000000 0.000000 0.000000
  time 4
    0 0.000000 0.000000 -67.998169 1.570796 0.000000 0.000000
    1 0.000000 59.000000 1.996216 0.000000 0.000000 0.000000
    2 1.937660 1.174958 0.010475 0.006897 -0.005535 -0.284229
    3 6.028143 -0.000002 0.000000 -1.634581 -1.098201 -0.544713
    4 11.692555 0.000000 0.000000 0.000000 0.000000 -0.960771
    5 11.481671 -0.000001 -0.000032 1.684304 -0.200868 0.047808
    6 3.859704 -0.142405 -1.191976 -0.319953 0.094030 -1.042932
    7 1.312562 0.000000 0.000000 0.000000 0.000000 -1.494899
    8 0.729363 0.000001 -0.000002 0.000000 0.000000 -1.428325
    9 3.942325 0.046771 -0.431444 -0.120431 0.068511 -0.919744
    10 1.539093 0.000000 -0.000001 0.000000 0.000000 -1.191886
    11 1.196322 0.000001 -0.000001 0.000000 0.000000 -1.711911
    12 3.883687 -0.046771 0.431443 0.166007 0.072693 -0.591067
    13 1.719575 -0.000001 -0.000003 0.000000 0.000003 -1.314601
    14 1.209183 0.000002 0.000000 0.000000 0.000004 -1.213847
    15 3.859859 -0.137948 1.332463 0.272322 -0.146984 -0.484812
    16 1.719428 -0.000001 0.000000 0.000000 0.000000 -0.509834
    17 1.099666 0.000001 0.000001 0.000000 0.000000 -0.697327
    18 0.806046 -0.348922 1.321256 -1.228311 -0.823933 -0.727008
    19 1.789786 -0.000001 0.000001 0.004338 -0.001642 0.480895
    20 1.206999 -0.000003 0.000001 0.000000 0.000000 0.599860
    21 1.085958 -11.442460 -66.779285 1.278926 0.000010 1.518250
    22 -1.937610 1.174966 0.010480 3.062865 -0.005537 -2.857366
    23 6.028143 -0.000001 0.000000 0.975206 -0.035611 -0.958221
    24 11.692554 -0.000001 0.000000 0.000000 0.000000 -0.837190
    25 11.481701 0.000000 -0.000001 -0.348946 -0.588457 -0.206691
    26 3.859674 -0.132568 1.193108 0.287816 -0.342592 -0.661305
    27 1.312562 0.000000 0.000002 0.000000 0.000000 -1.114840
    28 0.729364 0.000000 -0.000001 0.000000 0.000000 -0.972653
    29 3.942296 0.050328 0.431040 -0.004960 -0.256036 -0.352620
    30 1.539098 0.000001 0.000001 0.000000 0.000000 -0.706513
    31 1.196322 0.000000 0.000000 0.000000 0.000000 -1.088518
    32 3.883659 -0.050328 -0.431046 -0.270983 -0.189874 -0.192733
    33 1.719577 0.000000 0.000000 0.000000 -0.000004 -0.883866
    34 1.209182 0.000000 -0.000001 0.000000 -0.000003 -0.739250
    35 3.859830 -0.148935 -1.331283 -0.524145 -0.148500 -0.016370
    36 1.719426 0.000002 0.000001 0.000000 -0.000010 -0.694703
    37 1.099666 -0.000001 -0.000001 0.000000 -0.000004 -0.565032
    38 0.806017 -0.359833 -1.318335 1.234213 0.479108 -1.009509
    39 1.789784 0.000001 -0.000001 0.000000 0.000000 0.342545
    40 1.206998 -0.000001 -0.000001 0.000000 0.000000 0.526219
    41 -44.062309 -47.230815 -23.058550 -0.000048 0.016331 -0.810754
    42 7.723854 -0.515411 0.043839 0.000000 0.000000 0.000000
    43 0.000000 0.000001 0.000000 0.000000 0.000000 0.000000
    44 0.260770 0.331597 20.546322 0.000000 0.000000 0.000000
    45 -7.723807 -0.515392 0.043857 0.000000 0.000000 0.000000
    46 0.000000 0.000001 0.000000 0.000000 0.000000 0.000000
    47 -1.647020 -20.528147 4.909353 0.000000 0.000000 0.000000
    48 11.243227 -4.493202 10.458898 1.613712 -1.080759 2.217909
    49 11.481672 -0.000001 -0.000032 1.573183 -0.106613 0.044193
    50 0.000000 0.000000 -0.000001 0.111852 0.003775 0.094242
    51 0.000000 0.000000 -0.000001 0.000000 0.000000 0.000000
    52 0.000000 0.000000 -0.000001 0.000000 0.000000 0.000000
    53 -11.515544 -11.515952 -1.082642 3.931275 -0.553631 4.933631
    54 11.481699 0.000001 0.000000 -1.564936 0.106606 0.044193
    55 0.000001 0.000000 0.000000 1.075966 0.204184 -0.710755
    56 0.000000 0.000000 0.000000 0.000000 0.000000 0.000000
    57 0.000000 0.000000 0.000000 0.000000 0.000000 0.000000
  time 5
    0 0.000000 0.000000 -67.998169 1.570796 0.000000 0.000000
    1 0.000000 59.000000 1.996216 0.000000 0.000000 0.000000
    2 1.937660 1.174958 0.010475 0.006897 -0.005535 -0.284229
    3 6.028143 -0.000002 0.000000 -1.637937 -1.095414 -0.540189
    4 11.692555 0.000000 0.000000 0.000000 0.000000 -0.970143
    5 11.481671 -0.000001 -0.000032 1.667358 -0.200832 0.035967
    6 3.859704 -0.142405 -1.191976 -0.319953 0.094030 -1.042932
    7 1.312562 0.000000 0.000000 0.000000 0.000000 -1.494899
    8 0.729363 0.000001 -0.000002 0.000000 0.000000 -1.428325
    9 3.942325 0.046771 -0.431444 -0.120431 0.068511 -0.919744
    10 1.539093 0.000000 -0.000001 0.000000 0.000000 -1.191886
    11 1.196322 0.000001 -0.000001 0.000000 0.000000 -1.711911
    12 3.883687 -0.046771 0.431443 0.166007 0.072693 -0.591067
    13 1.719575 -0.000001 -0.000003 0.000000 0.000003 -1.314572
    14 1.209183 0.000002 0.000000 0.000000 0.000004 -1.213847
    15 3.859859 -0.137948 1.332463 0.270764 -0.161402 -0.445419
    16 1.719428 -0.000001 0.000000 0.000000 0.000000 -0.597133
    17 1.099666 0.000001 0.000001 0.000000 0.000000 -0.697327
    18 0.806046 -0.348922 1.321256 -1.209003 -0.877804 -0.755208
    19 1.789786 -0.000001 0.000001 0.000000 0.000000 0.482669
    20 1.206999 -0.000003 0.000001 0.000000 0.000000 0.726106
    21 1.085958 -11.442460 -66.779285 1.278926 0.000010 1.518250
    22 -1.937610 1.174966 0.010480 3.062865 -0.005537 -2.857366
    23 6.028143 -0.000001 0.000000 0.975206 -0.035611 -0.958221
    24 11.692554 -0.000001 0.000000 0.000000 0.000000 -0.837190
    25 11.481701 0.000000 -0.000001 -0.348946 -0.588457 -0.206691
    26 3.859674 -0.132568 1.193108 0.287816 -0.342592 -0.661305
    27 1.312562 0.000000 0.000002 0.000000 0.000000 -1.114840
    28 0.729364 0.000000 -0.000001 0.000000 0.000000 -0.972653
    29 3.942296 0.050328 0.431040 -0.004960 -0.256036 -0.352620
    30 1.539098 0.000001 0.000001 0.000000 0.000000 -0.706513
    31 1.196322 0.000000 0.000000 0.000000 0.000000 -1.088518
    32 3.883659 -0.050328 -0.431046 -0.270983 -0.189874 -0.192733
    33 1.719577 0.000000 0.000000 0.000000 -0.000004 -0.883866
    34 1.209182 0.000000 -0.000001 0.000000 -0.000003 -0.739250
    35 3.859830 -0.148935 -1.331283 -0.524145 -0.148500 -0.016370
    36 1.719426 0.000002 0.000001 0.000000 -0.000010 -0.694703
    37 1.099666 -0.000001 -0.000001 0.000000 -0.000004 -0.565032
    38 0.806017 -0.359833 -1.318335 1.234213 0.479108 -1.009509
    39 1.789784 0.000001 -0.000001 0.000000 0.000000 0.342545
    40 1.206998 -0.000001 -0.000001 0.000000 0.000000 0.526219
    41 -44.062309 -47.230815 -23.058550 -0.000048 0.016331 -0.810754
    42 7.723854 -0.515411 0.043839 0.000000 0.000000 0.000000
    43 0.000000 0.000001 0.000000 0.000000 0.000000 0.000000
    44 0.260770 0.386286 20.495539 0.000000 0.000000 0.000000
    45 -7.723807 -0.515392 0.043857 0.000000 0.000000 0.000000
    46 0.000000 0.000001 0.000000 0.000000 0.000000 0.000000
    47 -1.647020 -20.528147 4.909353 0.000000 0.000000 0.000000
    48 11.278384 -4.497109 10.443273 1.616650 -1.073988 2.217011
    49 11.481672 -0.000001 -0.000032 1.573183 -0.106613 0.044193
    50 0.000000 0.000000 -0.000001 0.092533 -0.007838 0.094242
    51 0.000000 0.000000 -0.000001 0.000000 0.000000 0.000000
    52 0.000000 0.000000 -0.000001 0.000000 0.000000 0.000000
    53 -11.515544 -11.515952 -1.082642 3.931275 -0.553631 4.933631
    54 11.481699 0.000001 0.000000 -1.564936 0.106606 0.044193
    55 0.000001 0.000000 0.000000 1.075966 0.204184 -0.710755
    56 0.000000 0.000000 0.000000 0.000000 0.000000 0.000000
    57 0.000000 0.000000 0.000000 0.000000 0.000000 0.000000
  time 6
    0 0.000000 0.000000 -67.998169 1.570796 0.000000 0.000000
    1 0.000000 59.000000 1.996216 0.000000 0.000000 0.000000
    2 1.937660 1.174958 0.010475 0.006897 -0.005535 -0.284229
    3 6.028143 -0.000002 0.000000 -1.638680 -1.094961 -0.539204
    4 11.692555 0.000000 0.000000 0.000000 0.000000 -0.971916
    5 11.481671 -0.000001 -0.000032 1.651694 -0.200760 0.022460
    6 3.859704 -0.142405 -1.191976 -0.319953 0.094030 -1.042932
    7 1.312562 0.000000 0.000000 0.000000 0.000000 -1.494899
    8 0.729363 0.000001 -0.000002 0.000000 0.000000 -1.428325
    9 3.942325 0.046771 -0.431444 -0.120431 0.068511 -0.919744
    10 1.539093 0.000000 -0.000001 0.000000 0.000000 -1.191886
    11 1.196322 0.000001 -0.000001 0.000000 0.000000 -1.711911
    12 3.883687 -0.046771 0.431443 0.166007 0.072693 -0.591067
    13 1.719575 -0.000001 -0.000003 0.000000 0.000003 -1.314572
    14 1.209183 0.000002 0.000000 0.000000 0.000004 -1.213847
    15 3.859859 -0.137948 1.332463 0.268319 -0.177449 -0.401172
    16 1.719428 -0.000001 0.000000 0.000000 0.000000 -0.694861
    17 1.099666 0.000001 0.000001 0.000000 0.000000 -0.697327
    18 0.806046 -0.348922 1.321256 -1.209003 -0.877804 -0.755208
    19 1.789786 -0.000001 0.000001 0.000000 0.000000 0.482669
    20 1.206999 -0.000003 0.000001 0.000000 0.000000 0.726106
    21 1.085958 -11.442460 -66.779285 1.278926 0.000010 1.518250
    22 -1.937610 1.174966 0.010480 3.062865 -0.005537 -2.857366
    23 6.028143 -0.000001 0.000000 0.975206 -0.035611 -0.958221
    24 11.692554 -0.000001 0.000000 0.000000 0.000000 -0.837190
    25 11.481701 0.000000 -0.000001 -0.348946 -0.588457 -0.206691
    26 3.859674 -0.132568 1.193108 0.287816 -0.342592 -0.661305
    27 1.312562 0.000000 0.000002 0.000000 0.000000 -1.114840
    28 0.729364 0.000000 -0.000001 0.000000 0.000000 -0.972653
    29 3.942296 0.050328 0.431040 -0.004960 -0.256036 -0.352620
    30 1.539098 0.000001 0.000001 0.000000 0.000000 -0.706513
    31 1.196322 0.000000 0.000000 0.000000 0.000000 -1.088518
    32 3.883659 -0.050328 -0.431046 -0.270983 -0.189874 -0.192733
    33 1.719577 0.000000 0.000000 0.000000 -0.000004 -0.883866
    34 1.209182 0.000000 -0.000001 0.000000 -0.000003 -0.739250
    35 3.859830 -0.148935 -1.331283 -0.524145 -0.148500 -0.016370
    36 1.719426 0.000002 0.000001 0.000000 -0.000010 -0.694703
    37 1.099666 -0.000001 -0.000001 0.000000 -0.000004 -0.565032
    38 0.806017 -0.359833 -1.318335 1.234213 0.479108 -1.009509
    39 1.789784 0.000001 -0.000001 0.000000 0.000000 0.342545
    40 1.206998 -0.000001 -0.000001 0.000000 0.000000 0.526219
    41 -44.062309 -47.230815 -23.058550 -0.000048 0.016331 -0.810754
    42 7.723854 -0.515411 0.043839 0.000000 0.000000 0.000000
    43 0.000000 0.000001 0.000000 0.000000 0.000000 0.000000
    44 0.260770 0.398006 20.483820 0.000000 0.000000 0.000000
    45 -7.723807 -0.515392 0.043857 0.000000 0.000000 0.000000
    46 0.000000 0.000001 0.000000 0.000000 0.000000 0.000000
    47 -1.647020 -20.528147 4.909353 0.000000 0.000000 0.000000
    48 11.286197 -4.497109 10.443273 1.617363 -1.072642 2.216848
    49 11.481672 -0.000001 -0.000032 1.573183 -0.106613 0.044193
    50 0.000000 0.000000 -0.000001 0.074185 -0.021081 0.094242
    51 0.000000 0.000000 -0.000001 0.000000 0.000000 0.000000
    52 0.000000 0.000000 -0.000001 0.000000 0.000000 0.000000
    53 -11.515544 -11.515952 -1.082642 3.931275 -0.553631 4.933631
    54 11.481699 0.000001 0.000000 -1.564936 0.106606 0.044193
    55 0.000001 0.000000 0.000000 1.075966 0.204184 -0.710755
    56 0.000000 0.000000 0.000000 0.000000 0.000000 0.000000
    57 0.000000 0.000000 0.000000 0.000000 0.000000 0.000000
  time 7
    0 0.000000 0.000000 -67.998169 1.570796 0.000000 0.000000
    1 0.000000 59.000000 1.996216 0.000000 0.000000 0.000000
    2 1.937660 1.174958 0.010475 0.006897 -0.005535 -0.284229
    3 6.028143 -0.000002 0.000000 -1.637913 -1.093805 -0.540189
    4 11.692555 0.000000 0.000000 0.000000 0.000000 -0.973582
    5 11.481671 -0.000001 -0.000032 1.641987 -0.200652 0.009169
    6 3.859704 -0.142405 -1.191976 -0.319953 0.094030 -1.042932
    7 1.312562 0.000000 0.000000 0.000000 0.000000 -1.494899
    8 0.729363 0.000001 -0.000002 0.000000 0.000000 -1.428325
    9 3.942325 0.046771 -0.431444 -0.120431 0.068511 -0.919744
    10 1.539093 0.000000 -0.000001 0.000000 0.000000 -1.191886
    11 1.196322 0.000001 -0.000001 0.000000 0.000000 -1.711911
    12 3.883687 -0.046771 0.431443 0.166007 0.072693 -0.591067
    13 1.719575 -0.000001 -0.000003 0.000000 0.000003 -1.314572
    14 1.209183 0.000002 0.000000 0.000000 0.000004 -1.213847
    15 3.859859 -0.137948 1.332463 0.265527 -0.191687 -0.361515
    16 1.719428 -0.000001 0.000000 0.000000 0.000000 -0.782161
    17 1.099666 0.000001 0.000001 0.000000 0.000000 -0.697327
    18 0.806046 -0.348922 1.321256 -1.209003 -0.877804 -0.755208
    19 1.789786 -0.000001 0.000001 0.000000 0.000000 0.482669
    20 1.206999 -0.000003 0.000001 0.000000 0.000000 0.726106
    21 1.085958 -11.442460 -66.779285 1.278926 0.000010 1.518250
    22 -1.937610 1.174966 0.010480 3.062865 -0.005537 -2.857366
    23 6.028143 -0.000001 0.000000 0.975206 -0.035611 -0.958221
    24 11.692554 -0.000001 0.000000 0.000000 0.000000 -0.837190
    25 11.481701 0.000000 -0.000001 -0.348946 -0.588457 -0.206691
    26 3.859674 -0.132568 1.193108 0.287816 -0.342592 -0.661305
    27 1.312562 0.000000 0.000002 0.000000 0.000000 -1.114840
    28 0.729364 0.000000 -0.000001 0.000000 0.000000 -0.972653
    29 3.942296 0.050328 0.431040 -0.004960 -0.256036 -0.352620
    30 1.539098 0.000001 0.000001 0.000000 0.000000 -0.706513
    31 1.196322 0.000000 0.000000 0.000000 0.000000 -1.088518
    32 3.883659 -0.050328 -0.431046 -0.270983 -0.189874 -0.192733
    33 1.719577 0.000000 0.000000 0.000000 -0.000004 -0.883866
    34 1.209182 0.000000 -0.000001 0.000000 -0.000003 -0.739250
    35 3.859830 -0.148935 -1.331283 -0.524145 -0.148500 -0.016370
    36 1.719426 0.000002 0.000001 0.000000 -0.000010 -0.694703
    37 1.099666 -0.000001 -0.000001 0.000000 -0.000004 -0.565032
    38 0.806017 -0.359833 -1.318335 1.234213 0.479108 -1.009509
    39 1.789784 0.000001 -0.000001 0.000000 0.000000 0.342545
    40 1.206998 -0.000001 -0.000001 0.000000 0.000000 0.526219
    41 -44.062309 -47.230815 -23.058550 -0.000048 0.016331 -0.810754
    42 7.723854 -0.515411 0.043839 0.000000 0.000000 0.000000
    43 0.000000 0.000001 0.000000 0.000000 0.000000 0.000000
    44 0.260770 0.386286 20.476007 0.000000 0.000000 0.000000
    45 -7.723807 -0.515392 0.043857 0.000000 0.000000 0.000000
    46 0.000000 0.000001 0.000000 0.000000 0.000000 0.000000
    47 -1.647020 -20.528147 4.909353 0.000000 0.000000 0.000000
    48 11.290103 -4.512734 10.435460 1.616739 -1.072164 2.217093
    49 11.481672 -0.000001 -0.000032 1.573183 -0.106613 0.044193
    50 0.000000 0.000000 -0.000001 0.061829 -0.034096 0.094242
    51 0.000000 0.000000 -0.000001 0.000000 0.000000 0.000000
    52 0.000000 0.000000 -0.000001 0.000000 0.000000 0.000000
    53 -11.515544 -11.515952 -1.082642 3.931275 -0.553631 4.933631
    54 11.481699 0.000001 0.000000 -1.564936 0.106606 0.044193
    55 0.000001 0.000000 0.000000 1.075966 0.204184 -0.710755
    56 0.000000 0.000000 0.000000 0.000000 0.000000 0.000000
    57 0.000000 0.000000 0.000000 0.000000 0.000000 0.000000
  time 8
    0 0.000000 0.000000 -67.998169 1.570796 0.000000 0.000000
    1 0.000000 59.000000 1.996216 0.000000 0.000000 0.000000
    2 1.937660 1.174958 0.010475 0.006897 -0.005535 -0.284229
    3 6.028143 -0.000002 0.000000 -1.636139 -1.092241 -0.542514
    4 11.692555 0.000000 0.000000 0.000000 0.000000 -0.975116
    5 11.481671 -0.000001 -0.000032 1.639386 -0.200580 0.002230
    6 3.859704 -0.142405 -1.191976 -0.319953 0.094030 -1.042932
    7 1.312562 0.000000 0.000000 0.000000 0.000000 -1.494899
    8 0.729363 0.000001 -0.000002 0.000000 0.000000 -1.428325
    9 3.942325 0.046771 -0.431444 -0.120431 0.068511 -0.919744
    10 1.539093 0.000000 -0.000001 0.000000 0.000000 -1.191886
    11 1.196322 0.000001 -0.000001 0.000000 0.000000 -1.711911
    12 3.883687 -0.046771 0.431443 0.166007 0.072693 -0.591067
    13 1.719575 -0.000001 -0.000003 0.000000 0.000003 -1.314572
    14 1.209183 0.000002 0.000000 0.000000 0.000004 -1.213847
    15 3.859859 -0.137948 1.332463 0.263873 -0.198889 -0.341237
    16 1.719428 -0.000001 0.000000 0.000000 0.000000 -0.826631
    17 1.099666 0.000001 0.000001 0.000000 0.000000 -0.697327
    18 0.806046 -0.348922 1.321256 -1.209003 -0.877804 -0.755208
    19 1.789786 -0.000001 0.000001 0.000000 0.000000 0.482669
    20 1.206999 -0.000003 0.000001 0.000000 0.000000 0.726106
    21 1.085958 -11.442460 -66.779285 1.278926 0.000010 1.518250
    22 -1.937610 1.174966 0.010480 3.062865 -0.005537 -2.857366
    23 6.028143 -0.000001 0.000000 0.975206 -0.035611 -0.958221
    24 11.692554 -0.000001 0.000000 0.000000 0.000000 -0.837190
    25 11.481701 0.000000 -0.000001 -0.348946 -0.588457 -0.206691
    26 3.859674 -0.132568 1.193108 0.287816 -0.342592 -0.661305
    27 1.312562 0.000000 0.000002 0.000000 0.000000 -1.114840
    28 0.729364 0.000000 -0.000001 0.000000 0.000000 -0.972653
    29 3.942296 0.050328 0.431040 -0.004960 -0.256036 -0.352620
    30 1.539098 0.000001 0.000001 0.000000 0.000000 -0.706513
    31 1.196322 0.000000 0.000000 0.000000 0.000000 -1.088518
    32 3.883659 -0.050328 -0.431046 -0.270983 -0.189874 -0.192733
    33 1.719577 0.000000 0.000000 0.000000 -0.000004 -0.883866
    34 1.209182 0.000000 -0.000001 0.000000 -0.000003 -0.739250
    35 3.859830 -0.148935 -1.331283 -0.524145 -0.148500 -0.016370
    36 1.719426 0.000002 0.000001 0.000000 -0.000010 -0.694703
    37 1.099666 -0.000001 -0.000001 0.000000 -0.000004 -0.565032
    38 0.806017 -0.359833 -1.318335 1.234213 0.479108 -1.009509
    39 1.789784 0.000001 -0.000001 0.000000 0.000000 0.342545
    40 1.206998 -0.000001 -0.000001 0.000000 0.000000 0.526219
    41 -44.062309 -47.230815 -23.058550 -0.000048 0.016331 -0.810754
    42 7.723854 -0.515411 0.043839 0.000000 0.000000 0.000000
    43 0.000000 0.000001 0.000000 0.000000 0.000000 0.000000
    44 0.260770 0.362848 20.468194 0.000000 0.000000 0.000000
    45 -7.723807 -0.515392 0.043857 0.000000 0.000000 0.000000
    46 0.000000 0.000001 0.000000 0.000000 0.000000 0.000000
    47 -1.647020 -20.528147 4.909353 0.000000 0.000000 0.000000
    48 11.294010 -4.532266 10.427647 1.615226 -1.072284 2.217746
    49 11.481672 -0.000001 -0.000032 1.573183 -0.106613 0.044193
    50 0.000000 0.000000 -0.000001 0.057850 -0.040903 0.094242
    51 0.000000 0.000000 -0.000001 0.000000 0.000000 0.000000
    52 0.000000 0.000000 -0.000001 0.000000 0.000000 0.000000
    53 -11.515544 -11.515952 -1.082642 3.931275 -0.553631 4.933631
    54 11.481699 0.000001 0.000000 -1.564936 0.106606 0.044193
    55 0.000001 0.000000 0.000000 1.075966 0.204184 -0.710755
    56 0.000000 0.000000 0.000000 0.000000 0.000000 0.000000
    57 0.000000 0.000000 0.000000 0.000000 0.000000 0.000000
  time 9
    0 0.000000 0.000000 -67.998169 1.570796 0.000000 0.000000
    1 0.000000 59.000000 1.996216 0.000000 0.000000 0.000000
    2 1.937660 1.174958 0.010475 0.006897 -0.005535 -0.284229
    3 6.028143 -0.000002 0.000000 -1.633838 -1.090474 -0.545522
    4 11.692555 0.000000 0.000000 0.000000 0.000000 -0.976495
    5 11.481671 -0.000001 -0.000032 1.641291 -0.200592 0.002602
    6 3.859704 -0.142405 -1.191976 -0.319953 0.094030 -1.042932
    7 1.312562 0.000000 0.000000 0.000000 0.000000 -1.494899
    8 0.729363 0.000001 -0.000002 0.000000 0.000000 -1.428325
    9 3.942325 0.046771 -0.431444 -0.120431 0.068511 -0.919744
    10 1.539093 0.000000 -0.000001 0.000000 0.000000 -1.191886
    11 1.196322 0.000001 -0.000001 0.000000 0.000000 -1.711911
    12 3.883687 -0.046771 0.431443 0.166007 0.072693 -0.591067
    13 1.719575 -0.000001 -0.000003 0.000000 0.000003 -1.314572
    14 1.209183 0.000002 0.000000 0.000000 0.000004 -1.213847
    15 3.859859 -0.137948 1.332463 0.263873 -0.198889 -0.341237
    16 1.719428 -0.000001 0.000000 0.000000 0.000000 -0.826631
    17 1.099666 0.000001 0.000001 0.000000 0.000000 -0.697327
    18 0.806046 -0.348922 1.321256 -1.209003 -0.877804 -0.755208
    19 1.789786 -0.000001 0.000001 0.000000 0.000000 0.482669
    20 1.206999 -0.000003 0.000001 0.000000 0.000000 0.726106
    21 1.085958 -11.442460 -66.779285 1.278926 0.000010 1.518250
    22 -1.937610 1.174966 0.010480 3.062865 -0.005537 -2.857366
    23 6.028143 -0.000001 0.000000 0.975206 -0.035611 -0.958221
    24 11.692554 -0.000001 0.000000 0.000000 0.000000 -0.837190
    25 11.481701 0.000000 -0.000001 -0.348946 -0.588457 -0.206691
    26 3.859674 -0.132568 1.193108 0.287816 -0.342592 -0.661305
    27 1.312562 0.000000 0.000002 0.000000 0.000000 -1.114840
    28 0.729364 0.000000 -0.000001 0.000000 0.000000 -0.972653
    29 3.942296 0.050328 0.431040 -0.004960 -0.256036 -0.352620
    30 1.539098 0.000001 0.000001 0.000000 0.000000 -0.706513
    31 1.196322 0.000000 0.000000 0.000000 0.000000 -1.088518
    32 3.883659 -0.050328 -0.431046 -0.270983 -0.189874 -0.192733
    33 1.719577 0.000000 0.000000 0.000000 -0.000004 -0.883866
    34 1.209182 0.000000 -0.000001 0.000000 -0.000003 -0.739250
    35 3.859830 -0.148935 -1.331283 -0.524145 -0.148500 -0.016370
    36 1.719426 0.000002 0.000001 0.000000 -0.000010 -0.694703
    37 1.099666 -0.000001 -0.000001 0.000000 -0.000004 -0.565032
    38 0.806017 -0.359833 -1.318335 1.234213 0.479108 -1.009509
    39 1.789784 0.000001 -0.000001 0.000000 0.000000 0.342545
    40 1.206998 -0.000001 -0.000001 0.000000 0.000000 0.526219
    41 -44.062309 -47.230815 -23.058550 -0.000048 0.016331 -0.810754
    42 7.723854 -0.515411 0.043839 0.000000 0.000000 0.000000
    43 0.000000 0.000001 0.000000 0.000000 0.000000 0.000000
    44 0.260770 0.331597 20.460382 0.000000 0.000000 0.000000
    45 -7.723807 -0.515392 0.043857 0.000000 0.000000 0.000000
    46 0.000000 0.000001 0.000000 0.000000 0.000000 0.000000
    47 -1.647020 -20.528147 4.909353 0.000000 0.000000 0.000000
    48 11.294010 -4.555704 10.415928 1.613267 -1.072777 2.218562
    49 11.481672 -0.000001 -0.000032 1.573183 -0.106613 0.044193
    50 0.000000 0.000000 -0.000001 0.059815 -0.040532 0.094242
    51 0.000000 0.000000 -0.000001 0.000000 0.000000 0.000000
    52 0.000000 0.000000 -0.000001 0.000000 0.000000 0.000000
    53 -11.515544 -11.515952 -1.082642 3.931275 -0.553631 4.933631
    54 11.481699 0.000001 0.000000 -1.564936 0.106606 0.044193
    55 0.000001 0.000000 0.000000 1.075966 0.204184 -0.710755
    56 0.000000 0.000000 0.000000 0.000000 0.000000 0.000000
    57 0.000000 0.000000 0.000000 0.000000 0.000000 0.000000
  time 10
    0 0.000000 0.000000 -67.998169 1.570796 0.000000 0.000000
    1 0.000000 59.000000 1.996216 0.000000 0.000000 0.000000
    2 1.937660 1.174958 0.010475 0.006897 -0.005535 -0.284229
    3 6.028143 -0.000002 0.000000 -1.631501 -1.088729 -0.548579
    4 11.692555 0.000000 0.000000 0.000000 0.000000 -0.977717
    5 11.481671 -0.000001 -0.000032 1.646133 -0.200640 0.007192
    6 3.859704 -0.142405 -1.191976 -0.319953 0.094030 -1.042932
    7 1.312562 0.000000 0.000000 0.000000 0.000000 -1.494899
    8 0.729363 0.000001 -0.000002 0.000000 0.000000 -1.428325
    9 3.942325 0.046771 -0.431444 -0.120431 0.068511 -0.919744
    10 1.539093 0.000000 -0.000001 0.000000 0.000000 -1.191886
    11 1.196322 0.000001 -0.000001 0.000000 0.000000 -1.711911
    12 3.883687 -0.046771 0.431443 0.166007 0.072693 -0.591067
    13 1.719575 -0.000001 -0.000003 0.000000 0.000003 -1.314572
    14 1.209183 0.000002 0.000000 0.000000 0.000004 -1.213847
    15 3.859859 -0.137948 1.332463 0.263873 -0.198889 -0.341237
    16 1.719428 -0.000001 0.000000 0.000000 0.000000 -0.826631
    17 1.099666 0.000001 0.000001 0.000000 0.000000 -0.697327
    18 0.806046 -0.348922 1.321256 -1.209003 -0.877804 -0.755208
    19 1.789786 -0.000001 0.000001 0.000000 0.000000 0.482669
    20 1.206999 -0.000003 0.000001 0.000000 0.000000 0.726106
    21 1.085958 -11.442460 -66.779285 1.278926 0.000010 1.518250
    22 -1.937610 1.174966 0.010480 3.062865 -0.005537 -2.857366
    23 6.028143 -0.000001 0.000000 0.975206 -0.035611 -0.958221
    24 11.692554 -0.000001 0.000000 0.000000 0.000000 -0.837190
    25 11.481701 0.000000 -0.000001 -0.348946 -0.588457 -0.206691
    26 3.859674 -0.132568 1.193108 0.287816 -0.342592 -0.661305
    27 1.312562 0.000000 0.000002 0.000000 0.000000 -1.114840
    28 0.729364 0.000000 -0.000001 0.000000 0.000000 -0.972653
    29 3.942296 0.050328 0.431040 -0.004960 -0.256036 -0.352620
    30 1.539098 0.000001 0.000001 0.000000 0.000000 -0.706513
    31 1.196322 0.000000 0.000000 0.000000 0.000000 -1.088518
    32 3.883659 -0.050328 -0.431046 -0.270983 -0.189874 -0.192733
    33 1.719577 0.000000 0.000000 0.000000 -0.000004 -0.883866
    34 1.209182 0.000000 -0.000001 0.000000 -0.000003 -0.739250
    35 3.859830 -0.148935 -1.331283 -0.524145 -0.148500 -0.016370
    36 1.719426 0.000002 0.000001 0.000000 -0.000010 -0.694703
    37 1.099666 -0.000001 -0.000001 0.000000 -0.000004 -0.565032
    38 0.806017 -0.359833 -1.318335 1.234213 0.479108 -1.009509
    39 1.789784 0.000001 -0.000001 0.000000 0.000000 0.342545
    40 1.206998 -0.000001 -0.000001 0.000000 0.000000 0.526219
    41 -44.062309 -47.230815 -23.058550 -0.000048 0.016331 -0.810754
    42 7.723854 -0.515411 0.043839 0.000000 0.000000 0.000000
    43 0.000000 0.000001 0.000000 0.000000 0.000000 0.000000
    44 0.260770 0.300346 20.452569 0.000000 0.000000 0.000000
    45 -7.723807 -0.515392 0.043857 0.000000 0.000000 0.000000
    46 0.000000 0.000001 0.000000 0.000000 0.000000 0.000000
    47 -1.647020 -20.528147 4.909353 0.000000 0.000000 0.000000
    48 11.294010 -4.579142 10.408115 1.611219 -1.073390 2.219379
    49 11.481672 -0.000001 -0.000032 1.573183 -0.106613 0.044193
    50 0.000000 0.000000 -0.000001 0.065580 -0.036038 0.094242
    51 0.000000 0.000000 -0.000001 0.000000 0.000000 0.000000
    52 0.000000 0.000000 -0.000001 0.000000 0.000000 0.000000
    53 -11.515544 -11.515952 -1.082642 3.931275 -0.553631 4.933631
    54 11.481699 0.000001 0.000000 -1.564936 0.106606 0.044193
    55 0.000001 0.000000 0.000000 1.075966 0.204184 -0.710755
    56 0.000000 0.000000 0.000000 0.000000 0.000000 0.000000
    57 0.000000 0.000000 0.000000 0.000000 0.000000 0.000000
  time 11
    0 0.000000 0.000000 -67.998169 1.570796 0.000000 0.000000
    1 0.000000 59.000000 1.996216 0.000000 0.000000 0.000000
    2 1.937660 1.174958 0.010475 0.006897 -0.005535 -0.284229
    3 6.028143 -0.000002 0.000000 -1.629727 -1.087347 -0.550904
    4 11.692555 0.000000 0.000000 0.000000 0.000000 -0.978772
    5 11.481671 -0.000001 -0.000032 1.652102 -0.200700 0.014083
    6 3.859704 -0.142405 -1.191976 -0.319953 0.094030 -1.042932
    7 1.312562 0.000000 0.000000 0.000000 0.000000 -1.494899
    8 0.729363 0.000001 -0.000002 0.000000 0.000000 -1.428325
    9 3.942325 0.046771 -0.431444 -0.120431 0.068511 -0.919744
    10 1.539093 0.000000 -0.000001 0.000000 0.000000 -1.191886
    11 1.196322 0.000001 -0.000001 0.000000 0.000000 -1.711911
    12 3.883687 -0.046771 0.431443 0.166007 0.072693 -0.591067
    13 1.719575 -0.000001 -0.000003 0.000000 0.000003 -1.314572
    14 1.209183 0.000002 0.000000 0.000000 0.000004 -1.213847
    15 3.859859 -0.137948 1.332463 0.263873 -0.198889 -0.341237
    16 1.719428 -0.000001 0.000000 0.000000 0.000000 -0.826631
    17 1.099666 0.000001 0.000001 0.000000 0.000000 -0.697327
    18 0.806046 -0.348922 1.321256 -1.209003 -0.877804 -0.755208
    19 1.789786 -0.000001 0.000001 0.000000 0.000000 0.482669
    20 1.206999 -0.000003 0.000001 0.000000 0.000000 0.726106
    21 1.085958 -11.442460 -66.779285 1.278926 0.000010 1.518250
    22 -1.937610 1.174966 0.010480 3.062865 -0.005537 -2.857366
    23 6.028143 -0.000001 0.000000 0.975206 -0.035611 -0.958221
    24 11.692554 -0.000001 0.000000 0.000000 0.000000 -0.837190
    25 11.481701 0.000000 -0.000001 -0.348946 -0.588457 -0.206691
    26 3.859674 -0.132568 1.193108 0.287816 -0.342592 -0.661305
    27 1.312562 0.000000 0.000002 0.000000 0.000000 -1.114840
    28 0.729364 0.000000 -0.000001 0.000000 0.000000 -0.972653
    29 3.942296 0.050328 0.431040 -0.004960 -0.256036 -0.352620
    30 1.539098 0.000001 0.000001 0.000000 0.000000 -0.706513
    31 1.196322 0.000000 0.000000 0.000000 0.000000 -1.088518
    32 3.883659 -0.050328 -0.431046 -0.270983 -0.189874 -0.192733
    33 1.719577 0.000000 0.000000 0.000000 -0.000004 -0.883866
    34 1.209182 0.000000 -0.000001 0.000000 -0.000003 -0.739250
    35 3.859830 -0.148935 -1.331283 -0.524145 -0.148500 -0.016370
    36 1.719426 0.000002 0.000001 0.000000 -0.000010 -0.694703
    37 1.099666 -0.000001 -0.000001 0.000000 -0.000004 -0.565032
    38 0.806017 -0.359833 -1.318335 1.234213 0.479108 -1.009509
    39 1.789784 0.000001 -0.000001 0.000000 0.000000 0.342545
    40 1.206998 -0.000001 -0.000001 0.000000 0.000000 0.526219
    41 -44.062309 -47.230815 -23.058550 -0.000048 0.016331 -0.810754
    42 7.723854 -0.515411 0.043839 0.000000 0.000000 0.000000
    43 0.000000 0.000001 0.000000 0.000000 0.000000 0.000000
    44 0.260770 0.276908 20.448663 0.000000 0.000000 0.000000
    45 -7.723807 -0.515392 0.043857 0.000000 0.000000 0.000000
    46 0.000000 0.000001 0.000000 0.000000 0.000000 0.000000
    47 -1.647020 -20.528147 4.909353 0.000000 0.000000 0.000000
    48 11.294010 -4.598674 10.400303 1.609705 -1.073793 2.220032
    49 11.481672 -0.000001 -0.000032 1.573183 -0.106613 0.044193
    50 0.000000 0.000000 -0.000001 0.072926 -0.029278 0.094242
    51 0.000000 0.000000 -0.000001 0.000000 0.000000 0.000000
    52 0.000000 0.000000 -0.000001 0.000000 0.000000 0.000000
    53 -11.515544 -11.515952 -1.082642 3.931275 -0.553631 4.933631
    54 11.481699 0.000001 0.000000 -1.564936 0.106606 0.044193
    55 0.000001 0.000000 0.000000 1.075966 0.204184 -0.710755
    56 0.000000 0.000000 0.000000 0.000000 0.000000 0.000000
    57 0.000000 0.000000 0.000000 0.000000 0.000000 0.000000
  time 12
    0 0.000000 0.000000 -67.998169 1.570796 0.000000 0.000000
    1 0.000000 59.000000 1.996216 0.000000 0.000000 0.000000
    2 1.937660 1.174958 0.010475 0.006897 -0.005535 -0.284229
    3 6.028143 -0.000002 0.000000 -1.628769 -1.086441 -0.552168
    4 11.692555 0.000000 0.000000 0.000000 0.000000 -0.979682
    5 11.481671 -0.000001 -0.000032 1.657315 -0.200760 0.021813
    6 3.859704 -0.142405 -1.191976 -0.319953 0.094030 -1.042932
    7 1.312562 0.000000 0.000000 0.000000 0.000000 -1.494899
    8 0.729363 0.000001 -0.000002 0.000000 0.000000 -1.428325
    9 3.942325 0.046771 -0.431444 -0.120431 0.068511 -0.919744
    10 1.539093 0.000000 -0.000001 0.000000 0.000000 -1.191912
    11 1.196322 0.000001 -0.000001 0.000000 0.000000 -1.711911
    12 3.883687 -0.046771 0.431443 0.166007 0.072693 -0.591067
    13 1.719575 -0.000001 -0.000003 0.000000 0.000003 -1.314601
    14 1.209183 0.000002 0.000000 0.000000 0.000004 -1.213847
    15 3.859859 -0.137948 1.332463 0.263873 -0.198889 -0.341237
    16 1.719428 -0.000001 0.000000 0.000000 0.000000 -0.826631
    17 1.099666 0.000001 0.000001 0.000000 0.000000 -0.697327
    18 0.806046 -0.348922 1.321256 -1.209003 -0.877804 -0.755208
    19 1.789786 -0.000001 0.000001 0.000000 0.000000 0.482669
    20 1.206999 -0.000003 0.000001 0.000000 0.000000 0.726106
    21 1.085958 -11.442460 -66.779285 1.278926 0.000010 1.518250
    22 -1.937610 1.174966 0.010480 3.062865 -0.005537 -2.857366
    23 6.028143 -0.000001 0.000000 0.975206 -0.035611 -0.958221
    24 11.692554 -0.000001 0.000000 0.000000 0.000000 -0.837190
    25 11.481701 0.000000 -0.000001 -0.348946 -0.588457 -0.206691
    26 3.859674 -0.132568 1.193108 0.287816 -0.342592 -0.661305
    27 1.312562 0.000000 0.000002 0.000000 0.000000 -1.114840
    28 0.729364 0.000000 -0.000001 0.000000 0.000000 -0.972653
    29 3.942296 0.050328 0.431040 -0.004960 -0.256036 -0.352620
    30 1.539098 0.000001 0.000001 0.000000 0.000000 -0.706513
    31 1.196322 0.000000 0.000000 0.000000 0.000000 -1.088518
    32 3.883659 -0.050328 -0.431046 -0.270983 -0.189874 -0.192733
    33 1.719577 0.000000 0.000000 0.000000 -0.000004 -0.883866
    34 1.209182 0.000000 -0.000001 0.000000 -0.000003 -0.739250
    35 3.859830 -0.148935 -1.331283 -0.524145 -0.148500 -0.016370
    36 1.719426 0.000002 0.000001 0.000000 -0.000010 -0.694703
    37 1.099666 -0.000001 -0.000001 0.000000 -0.000004 -0.565032
    38 0.806017 -0.359833 -1.318335 1.234213 0.479108 -1.009509
    39 1.789784 0.000001 -0.000001 0.000000 0.000000 0.342545
    40 1.206998 -0.000001 -0.000001 0.000000 0.000000 0.526219
    41 -44.062309 -47.230815 -23.058550 -0.000048 0.016331 -0.810754
    42 7.723854 -0.515411 0.043839 0.000000 0.000000 0.000000
    43 0.000000 0.000001 0.000000 0.000000 0.000000 0.000000
    44 0.260770 0.265189 20.444756 0.000000 0.000000 0.000000
    45 -7.723807 -0.515392 0.043857 0.000000 0.000000 0.000000
    46 0.000000 0.000001 0.000000 0.000000 0.000000 0.000000
    47 -1.647020 -20.528147 4.909353 0.000000 0.000000 0.000000
    48 11.294010 -4.610393 10.396396 1.608815 -1.073823 2.220358
    49 11.481672 -0.000001 -0.000032 1.573183 -0.106613 0.044193
    50 0.000000 0.000000 -0.000001 0.079686 -0.021704 0.094242
    51 0.000000 0.000000 -0.000001 0.000000 0.000000 0.000000
    52 0.000000 0.000000 -0.000001 0.000000 0.000000 0.000000
    53 -11.515544 -11.515952 -1.082642 3.931275 -0.553631 4.933631
    54 11.481699 0.000001 0.000000 -1.564936 0.106606 0.044193
    55 0.000001 0.000000 0.000000 1.075966 0.204184 -0.710755
    56 0.000000 0.000000 0.000000 0.000000 0.000000 0.000000
    57 0.000000 0.000000 0.000000 0.000000 0.000000 0.000000
  time 13
    0 0.000000 0.000000 -67.998169 1.570796 0.000000 0.000000
    1 0.000000 59.000000 1.996216 0.000000 0.000000 0.000000
    2 1.937660 1.174958 0.010475 0.006897 -0.005535 -0.284229
    3 6.028143 -0.000002 0.000000 -1.628529 -1.085965 -0.552471
    4 11.692555 0.000000 0.000000 0.000000 0.000000 -0.980437
    5 11.481671 -0.000001 -0.000032 1.659856 -0.200796 0.029100
    6 3.859704 -0.142405 -1.191976 -0.319953 0.094030 -1.042932
    7 1.312562 0.000000 0.000000 0.000000 0.000000 -1.494899
    8 0.729363 0.000001 -0.000002 0.000000 0.000000 -1.428325
    9 3.942325 0.046771 -0.431444 -0.120431 0.068511 -0.919744
    10 1.539093 0.000000 -0.000001 0.000000 0.000000 -1.191886
    11 1.196322 0.000001 -0.000001 0.000000 0.000000 -1.711911
    12 3.883687 -0.046771 0.431443 0.166007 0.072693 -0.591067
    13 1.719575 -0.000001 -0.000003 0.000000 0.000003 -1.314572
    14 1.209183 0.000002 0.000000 0.000000 0.000004 -1.213847
    15 3.859859 -0.137948 1.332463 0.263873 -0.198889 -0.341237
    16 1.719428 -0.000001 0.000000 0.000000 0.000000 -0.826631
    17 1.099666 0.000001 0.000001 0.000000 0.000000 -0.697327
    18 0.806046 -0.348922 1.321256 -1.209003 -0.877804 -0.755208
    19 1.789786 -0.000001 0.000001 0.000000 0.000000 0.482669
    20 1.206999 -0.000003 0.000001 0.000000 0.000000 0.726106
    21 1.085958 -11.442460 -66.779285 1.278926 0.000010 1.518250
    22 -1.937610 1.174966 0.010480 3.062865 -0.005537 -2.857366
    23 6.028143 -0.000001 0.000000 0.975206 -0.035611 -0.958221
    24 11.692554 -0.000001 0.000000 0.000000 0.000000 -0.837190
    25 11.481701 0.000000 -0.000001 -0.348946 -0.588457 -0.206691
    26 3.859674 -0.132568 1.193108 0.287816 -0.342592 -0.661305
    27 1.312562 0.000000 0.000002 0.000000 0.000000 -1.114840
    28 0.729364 0.000000 -0.000001 0.000000 0.000000 -0.972653
    29 3.942296 0.050328 0.431040 -0.004960 -0.256036 -0.352620
    30 1.539098 0.000001 0.000001 0.000000 0.000000 -0.706513
    31 1.196322 0.000000 0.000000 0.000000 0.000000 -1.088518
    32 3.883659 -0.050328 -0.431046 -0.270983 -0.189874 -0.192733
    33 1.719577 0.000000 0.000000 0.000000 -0.000004 -0.883866
    34 1.209182 0.000000 -0.000001 0.000000 -0.000003 -0.739250
    35 3.859830 -0.148935 -1.331283 -0.524145 -0.148500 -0.016370
    36 1.719426 0.000002 0.000001 0.000000 -0.000010 -0.694703
    37 1.099666 -0.000001 -0.000001 0.000000 -0.000004 -0.565032
    38 0.806017 -0.359833 -1.318335 1.234213 0.479108 -1.009509
    39 1.789784 0.000001 -0.000001 0.000000 0.000000 0.342545
    40 1.206998 -0.000001 -0.000001 0.000000 0.000000 0.526219
    41 -44.062309 -47.230815 -23.058550 -0.000048 0.016331 -0.810754
    42 7.723854 -0.515411 0.043839 0.000000 0.000000 0.000000
    43 0.000000 0.000001 0.000000 0.000000 0.000000 0.000000
    44 0.260770 0.261283 20.440850 0.000000 0.000000 0.000000
    45 -7.723807 -0.515392 0.043857 0.000000 0.000000 0.000000
    46 0.000000 0.000001 0.000000 0.000000 0.000000 0.000000
    47 -1.647020 -20.528147 4.909353 0.000000 0.000000 0.000000
    48 11.297916 -4.614300 10.392490 1.608637 -1.073554 2.220440
    49 11.481672 -0.000001 -0.000032 1.573183 -0.106613 0.044193
    50 0.000000 0.000000 -0.000001 0.083664 -0.014561 0.094242
    51 0.000000 0.000000 -0.000001 0.000000 0.000000 0.000000
    52 0.000000 0.000000 -0.000001 0.000000 0.000000 0.000000
    53 -11.515544 -11.515952 -1.082642 3.931275 -0.553631 4.933631
    54 11.481699 0.000001 0.000000 -1.564936 0.106606 0.044193
    55 0.000001 0.000000 0.000000 1.075966 0.204184 -0.710755
    56 0.000000 0.000000 0.000000 0.000000 0.000000 0.000000
    57 0.000000 0.000000 0.000000 0.000000 0.000000 0.000000
  time 14
    0 0.000000 0.000000 -67.998169 1.570796 0.000000 0.000000
    1 0.000000 59.000000 1.996216 0.000000 0.000000 0.000000
    2 1.937660 1.174958 0.010475 0.006897 -0.005535 -0.284229
    3 6.028143 -0.000002 0.000000 -1.628888 -1.085851 -0.551991
    4 11.692555 0.000000 0.000000 0.000000 0.000000 -0.981061
    5 11.481671 -0.000001 -0.000032 1.657794 -0.200820 0.034541
    6 3.859704 -0.142405 -1.191976 -0.319953 0.094030 -1.042932
    7 1.312562 0.000000 0.000000 0.000000 0.000000 -1.494899
    8 0.729363 0.000001 -0.000002 0.000000 0.000000 -1.428325
    9 3.942325 0.046771 -0.431444 -0.120431 0.068511 -0.919744
    10 1.539093 0.000000 -0.000001 0.000000 0.000000 -1.191886
    11 1.196322 0.000001 -0.000001 0.000000 0.000000 -1.711911
    12 3.883687 -0.046771 0.431443 0.166007 0.072693 -0.591067
    13 1.719575 -0.000001 -0.000003 0.000000 0.000003 -1.314572
    14 1.209183 0.000002 0.000000 0.000000 0.000004 -1.213847
    15 3.859859 -0.137948 1.332463 0.263873 -0.198889 -0.341237
    16 1.719428 -0.000001 0.000000 0.000000 0.000000 -0.826631
    17 1.099666 0.000001 0.000001 0.000000 0.000000 -0.697327
    18 0.806046 -0.348922 1.321256 -1.209003 -0.877804 -0.755208
    19 1.789786 -0.000001 0.000001 0.000000 0.000000 0.482669
    20 1.206999 -0.000003 0.000001 0.000000 0.000000 0.726106
    21 1.085958 -11.442460 -66.779285 1.278926 0.000010 1.518250
    22 -1.937610 1.174966 0.010480 3.062865 -0.005537 -2.857366
    23 6.028143 -0.000001 0.000000 0.975206 -0.035611 -0.958221
    24 11.692554 -0.000001 0.000000 0.000000 0.000000 -0.837190
    25 11.481701 0.000000 -0.000001 -0.348946 -0.588457 -0.206691
    26 3.859674 -0.132568 1.193108 0.287816 -0.342592 -0.661305
    27 1.312562 0.000000 0.000002 0.000000 0.000000 -1.114840
    28 0.729364 0.000000 -0.000001 0.000000 0.000000 -0.972653
    29 3.942296 0.050328 0.431040 -0.004960 -0.256036 -0.352620
    30 1.539098 0.000001 0.000001 0.000000 0.000000 -0.706513
    31 1.196322 0.000000 0.000000 0.000000 0.000000 -1.088518
    32 3.883659 -0.050328 -0.431046 -0.270983 -0.189874 -0.192733
    33 1.719577 0.000000 0.000000 0.000000 -0.000004 -0.883866
    34 1.209182 0.000000 -0.000001 0.000000 -0.000003 -0.739250
    35 3.859830 -0.148935 -1.331283 -0.524145 -0.148500 -0.016370
    36 1.719426 0.000002 0.000001 0.000000 -0.000010 -0.694703
    37 1.099666 -0.000001 -0.000001 0.000000 -0.000004 -0.565032
    38 0.806017 -0.359833 -1.318335 1.234213 0.479108 -1.009509
    39 1.789784 0.000001 -0.000001 0.000000 0.000000 0.342545
    40 1.206998 -0.000001 -0.000001 0.000000 0.000000 0.526219
    41 -44.062309 -47.230815 -23.058550 -0.000048 0.016331 -0.810754
    42 7.723854 -0.515411 0.043839 0.000000 0.000000 0.000000
    43 0.000000 0.000001 0.000000 0.000000 0.000000 0.000000
    44 0.260770 0.265189 20.436943 0.000000 0.000000 0.000000
    45 -7.723807 -0.515392 0.043857 0.000000 0.000000 0.000000
    46 0.000000 0.000001 0.000000 0.000000 0.000000 0.000000
    47 -1.647020 -20.528147 4.909353 0.000000 0.000000 0.000000
    48 11.301822 -4.614300 10.392490 1.608993 -1.073031 2.220358
    49 11.481672 -0.000001 -0.000032 1.573183 -0.106613 0.044193
    50 0.000000 0.000000 -0.000001 0.082694 -0.009228 0.094242
    51 0.000000 0.000000 -0.000001 0.000000 0.000000 0.000000
    52 0.000000 0.000000 -0.000001 0.000000 0.000000 0.000000
    53 -11.515544 -11.515952 -1.082642 3.931275 -0.553631 4.933631
    54 11.481699 0.000001 0.000000 -1.564936 0.106606 0.044193
    55 0.000001 0.000000 0.000000 1.075966 0.204184 -0.710755
    56 0.000000 0.000000 0.000000 0.000000 0.000000 0.000000
    57 0.000000 0.000000 0.000000 0.000000 0.000000 0.000000
  time 15
    0 0.000000 0.000000 -67.998169 1.570796 0.000000 0.000000
    1 0.000000 59.000000 1.996216 0.000000 0.000000 0.000000
    2 1.937660 1.174958 0.010475 0.006897 -0.005535 -0.284229
    3 6.028143 -0.000002 0.000000 -1.629715 -1.086033 -0.550904
    4 11.692555 0.000000 0.000000 0.000000 0.000000 -0.981540
    5 11.481671 -0.000001 -0.000032 1.650855 -0.200844 0.038100
    6 3.859704 -0.142405 -1.191976 -0.319953 0.094030 -1.042932
    7 1.312562 0.000000 0.000000 0.000000 0.000000 -1.494934
    8 0.729363 0.000001 -0.000002 0.000000 0.000000 -1.428325
    9 3.942325 0.046771 -0.431444 -0.120431 0.068511 -0.919744
    10 1.539093 0.000000 -0.000001 0.000000 0.000000 -1.191912
    11 1.196322 0.000001 -0.000001 0.000000 0.000000 -1.711911
    12 3.883687 -0.046771 0.431443 0.166007 0.072693 -0.591067
    13 1.719575 -0.000001 -0.000003 0.000000 0.000003 -1.314601
    14 1.209183 0.000002 0.000000 0.000000 0.000004 -1.213847
    15 3.859859 -0.137948 1.332463 0.263873 -0.198889 -0.341237
    16 1.719428 -0.000001 0.000000 0.000000 0.000000 -0.826631
    17 1.099666 0.000001 0.000001 0.000000 0.000000 -0.697327
    18 0.806046 -0.348922 1.321256 -1.209003 -0.877804 -0.755208
    19 1.789786 -0.000001 0.000001 0.000000 0.000000 0.482669
    20 1.206999 -0.000003 0.000001 0.000000 0.000000 0.726106
    21 1.085958 -11.442460 -66.779285 1.278926 0.000010 1.518250
    22 -1.937610 1.174966 0.010480 3.062865 -0.005537 -2.857366
    23 6.028143 -0.000001 0.000000 0.975206 -0.035611 -0.958221
    24 11.692554 -0.000001 0.000000 0.000000 0.000000 -0.837190
    25 11.481701 0.000000 -0.000001 -0.348946 -0.588457 -0.206691
    26 3.859674 -0.132568 1.193108 0.287816 -0.342592 -0.661305
    27 1.312562 0.000000 0.000002 0.000000 0.000000 -1.114840
    28 0.729364 0.000000 -0.000001 0.000000 0.000000 -0.972653
    29 3.942296 0.050328 0.431040 -0.004960 -0.256036 -0.352620
    30 1.539098 0.000001 0.000001 0.000000 0.000000 -0.706513
    31 1.196322 0.000000 0.000000 0.000000 0.000000 -1.088518
    32 3.883659 -0.050328 -0.431046 -0.270983 -0.189874 -0.192733
    33 1.719577 0.000000 0.000000 0.000000 -0.000004 -0.883866
    34 1.209182 0.000000 -0.000001 0.000000 -0.000003 -0.739250
    35 3.859830 -0.148935 -1.331283 -0.524145 -0.148500 -0.016370
    36 1.719426 0.000002 0.000001 0.000000 -0.000010 -0.694703
    37 1.099666 -0.000001 -0.000001 0.000000 -0.000004 -0.565032
    38 0.806017 -0.359833 -1.318335 1.234213 0.479108 -1.009509
    39 1.789784 0.000001 -0.000001 0.000000 0.000000 0.342545
    40 1.206998 -0.000001 -0.000001 0.000000 0.000000 0.526219
    41 -44.062309 -47.230815 -23.058550 -0.000048 0.016331 -0.810754
    42 7.723854 -0.515411 0.043839 0.000000 0.000000 0.000000
    43 0.000000 0.000001 0.000000 0.000000 0.000000 0.000000
    44 0.260770 0.276908 20.433037 0.000000 0.000000 0.000000
    45 -7.723807 -0.515392 0.043857 0.000000 0.000000 0.000000
    46 0.000000 0.000001 0.000000 0.000000 0.000000 0.000000
    47 -1.647020 -20.528147 4.909353 0.000000 0.000000 0.000000
    48 11.301822 -4.610393 10.392490 1.609705 -1.072329 2.220032
    49 11.481672 -0.000001 -0.000032 1.573183 -0.106613 0.044193
    50 0.000000 0.000000 -0.000001 0.076462 -0.005741 0.094242
    51 0.000000 0.000000 -0.000001 0.000000 0.000000 0.000000
    52 0.000000 0.000000 -0.000001 0.000000 0.000000 0.000000
    53 -11.515544 -11.515952 -1.082642 3.931275 -0.553631 4.933631
    54 11.481699 0.000001 0.000000 -1.564936 0.106606 0.044193
    55 0.000001 0.000000 0.000000 1.075966 0.204184 -0.710755
    56 0.000000 0.000000 0.000000 0.000000 0.000000 0.000000
    57 0.000000 0.000000 0.000000 0.000000 0.000000 0.000000
  time 16
    0 0.000000 0.000000 -67.998169 1.570796 0.000000 0.000000
    1 0.000000 59.000000 1.996216 0.000000 0.000000 0.000000
    2 1.937660 1.174958 0.010475 0.006897 -0.005535 -0.284229
    3 6.028143 -0.000002 0.000000 -1.630818 -1.086441 -0.549439
    4 11.692555 0.000000 0.000000 0.000000 0.000000 -0.981888
    5 11.481671 -0.000001 -0.000032 1.640572 -0.200844 0.040785
    6 3.859704 -0.142405 -1.191976 -0.319953 0.094030 -1.042932
    7 1.312562 0.000000 0.000000 0.000000 0.000000 -1.494899
    8 0.729363 0.000001 -0.000002 0.000000 0.000000 -1.428325
    9 3.942325 0.046771 -0.431444 -0.120431 0.068511 -0.919744
    10 1.539093 0.000000 -0.000001 0.000000 0.000000 -1.191886
    11 1.196322 0.000001 -0.000001 0.000000 0.000000 -1.711911
    12 3.883687 -0.046771 0.431443 0.166007 0.072693 -0.591067
    13 1.719575 -0.000001 -0.000003 0.000000 0.000003 -1.314572
    14 1.209183 0.000002 0.000000 0.000000 0.000004 -1.213847
    15 3.859859 -0.137948 1.332463 0.263873 -0.198889 -0.341237
    16 1.719428 -0.000001 0.000000 0.000000 0.000000 -0.826631
    17 1.099666 0.000001 0.000001 0.000000 0.000000 -0.697327
    18 0.806046 -0.348922 1.321256 -1.209003 -0.877804 -0.755208
    19 1.789786 -0.000001 0.000001 0.000000 0.000000 0.482669
    20 1.206999 -0.000003 0.000001 0.000000 0.000000 0.726106
    21 1.085958 -11.442460 -66.779285 1.278926 0.000010 1.518250
    22 -1.937610 1.174966 0.010480 3.062865 -0.005537 -2.857366
    23 6.028143 -0.000001 0.000000 0.975206 -0.035611 -0.958221
    24 11.692554 -0.000001 0.000000 0.000000 0.000000 -0.837190
    25 11.481701 0.000000 -0.000001 -0.348946 -0.588457 -0.206691
    26 3.859674 -0.132568 1.193108 0.287816 -0.342592 -0.661305
    27 1.312562 0.000000 0.000002 0.000000 0.000000 -1.114840
    28 0.729364 0.000000 -0.000001 0.000000 0.000000 -0.972653
    29 3.942296 0.050328 0.431040 -0.004960 -0.256036 -0.352620
    30 1.539098 0.000001 0.000001 0.000000 0.000000 -0.706513
    31 1.196322 0.000000 0.000000 0.000000 0.000000 -1.088518
    32 3.883659 -0.050328 -0.431046 -0.270983 -0.189874 -0.192733
    33 1.719577 0.000000 0.000000 0.000000 -0.000004 -0.883866
    34 1.209182 0.000000 -0.000001 0.000000 -0.000003 -0.739250
    35 3.859830 -0.148935 -1.331283 -0.524145 -0.148500 -0.016370
    36 1.719426 0.000002 0.000001 0.000000 -0.000010 -0.694703
    37 1.099666 -0.000001 -0.000001 0.000000 -0.000004 -0.565032
    38 0.806017 -0.359833 -1.318335 1.234213 0.479108 -1.009509
    39 1.789784 0.000001 -0.000001 0.000000 0.000000 0.342545
    40 1.206998 -0.000001 -0.000001 0.000000 0.000000 0.526219
    41 -44.062309 -47.230815 -23.058550 -0.000048 0.016331 -0.810754
    42 7.723854 -0.515411 0.043839 0.000000 0.000000 0.000000
    43 0.000000 0.000001 0.000000 0.000000 0.000000 0.000000
    44 0.260770 0.292534 20.433037 0.000000 0.000000 0.000000
    45 -7.723807 -0.515392 0.043857 0.000000 0.000000 0.000000
    46 0.000000 0.000001 0.000000 0.000000 0.000000 0.000000
    47 -1.647020 -20.528147 4.909353 0.000000 0.000000 0.000000
    48 11.305729 -4.602581 10.396396 1.610685 -1.071536 2.219705
    49 11.481672 -0.000001 -0.000032 1.573183 -0.106613 0.044193
    50 0.000000 0.000000 -0.000001 0.066718 -0.003116 0.094242
    51 0.000000 0.000000 -0.000001 0.000000 0.000000 0.000000
    52 0.000000 0.000000 -0.000001 0.000000 0.000000 0.000000
    53 -11.515544 -11.515952 -1.082642 3.931275 -0.553631 4.933631
    54 11.481699 0.000001 0.000000 -1.564936 0.106606 0.044193
    55 0.000001 0.000000 0.000000 1.075966 0.204184 -0.710755
    56 0.000000 0.000000 0.000000 0.000000 0.000000 0.000000
    57 0.000000 0.000000 0.000000 0.000000 0.000000 0.000000
  time 17
    0 0.000000 0.000000 -67.998169 1.570796 0.000000 0.000000
    1 0.000000 59.000000 1.996216 0.000000 0.000000 0.000000
    2 1.937660 1.174958 0.010475 0.006897 -0.005535 -0.284229
    3 6.028143 -0.000002 0.000000 -1.632004 -1.086916 -0.547872
    4 11.692555 0.000000 0.000000 0.000000 0.000000 -0.982127
    5 11.481671 -0.000001 -0.000032 1.628396 -0.200856 0.042570
    6 3.859704 -0.142405 -1.191976 -0.319953 0.094030 -1.042932
    7 1.312562 0.000000 0.000000 0.000000 0.000000 -1.494899
    8 0.729363 0.000001 -0.000002 0.000000 0.000000 -1.428325
    9 3.942325 0.046771 -0.431444 -0.120431 0.068511 -0.919744
    10 1.539093 0.000000 -0.000001 0.000000 0.000000 -1.191912
    11 1.196322 0.000001 -0.000001 0.000000 0.000000 -1.711911
    12 3.883687 -0.046771 0.431443 0.166007 0.072693 -0.591067
    13 1.719575 -0.000001 -0.000003 0.000000 0.000003 -1.314601
    14 1.209183 0.000002 0.000000 0.000000 0.000004 -1.213847
    15 3.859859 -0.137948 1.332463 0.263873 -0.198889 -0.341237
    16 1.719428 -0.000001 0.000000 0.000000 0.000000 -0.826631
    17 1.099666 0.000001 0.000001 0.000000 0.000000 -0.697327
    18 0.806046 -0.348922 1.321256 -1.209003 -0.877804 -0.755208
    19 1.789786 -0.000001 0.000001 0.000000 0.000000 0.482669
    20 1.206999 -0.000003 0.000001 0.000000 0.000000 0.726106
    21 1.085958 -11.442460 -66.779285 1.278926 0.000010 1.518250
    22 -1.937610 1.174966 0.010480 3.062865 -0.005537 -2.857366
    23 6.028143 -0.000001 0.000000 0.975206 -0.035611 -0.958221
    24 11.692554 -0.000001 0.000000 0.000000 0.000000 -0.837190
    25 11.481701 0.000000 -0.000001 -0.348946 -0.588457 -0.206691
    26 3.859674 -0.132568 1.193108 0.287816 -0.342592 -0.661305
    27 1.312562 0.000000 0.000002 0.000000 0.000000 -1.114840
    28 0.729364 0.000000 -0.000001 0.000000 0.000000 -0.972653
    29 3.942296 0.050328 0.431040 -0.004960 -0.256036 -0.352620
    30 1.539098 0.000001 0.000001 0.000000 0.000000 -0.706513
    31 1.196322 0.000000 0.000000 0.000000 0.000000 -1.088518
    32 3.883659 -0.050328 -0.431046 -0.270983 -0.189874 -0.192733
    33 1.719577 0.000000 0.000000 0.000000 -0.000004 -0.883866
    34 1.209182 0.000000 -0.000001 0.000000 -0.000003 -0.739250
    35 3.859830 -0.148935 -1.331283 -0.524145 -0.148500 -0.016370
    36 1.719426 0.000002 0.000001 0.000000 -0.000010 -0.694703
    37 1.099666 -0.000001 -0.000001 0.000000 -0.000004 -0.565032
    38 0.806017 -0.359833 -1.318335 1.234213 0.479108 -1.009509
    39 1.789784 0.000001 -0.000001 0.000000 0.000000 0.342545
    40 1.206998 -0.000001 -0.000001 0.000000 0.000000 0.526219
    41 -44.062309 -47.230815 -23.058550 -0.000048 0.016331 -0.810754
    42 7.723854 -0.515411 0.043839 0.000000 0.000000 0.000000
    43 0.000000 0.000001 0.000000 0.000000 0.000000 0.000000
    44 0.260770 0.312065 20.429131 0.000000 0.000000 0.000000
    45 -7.723807 -0.515392 0.043857 0.000000 0.000000 0.000000
    46 0.000000 0.000001 0.000000 0.000000 0.000000 0.000000
    47 -1.647020 -20.528147 4.909353 0.000000 0.000000 0.000000
    48 11.309635 -4.590862 10.396396 1.611753 -1.070774 2.219297
    49 11.481672 -0.000001 -0.000032 1.573183 -0.106613 0.044193
    50 0.000000 0.000000 -0.000001 0.054901 -0.001366 0.094242
    51 0.000000 0.000000 -0.000001 0.000000 0.000000 0.000000
    52 0.000000 0.000000 -0.000001 0.000000 0.000000 0.000000
    53 -11.515544 -11.515952 -1.082642 3.931275 -0.553631 4.933631
    54 11.481699 0.000001 0.000000 -1.564936 0.106606 0.044193
    55 0.000001 0.000000 0.000000 1.075966 0.204184 -0.710755
    56 0.000000 0.000000 0.000000 0.000000 0.000000 0.000000
    57 0.000000 0.000000 0.000000 0.000000 0.000000 0.000000
  time 18
    0 0.000000 0.000000 -67.998169 1.570796 0.000000 0.000000
    1 0.000000 59.000000 1.996216 0.000000 0.000000 0.000000
    2 1.937660 1.174958 0.010475 0.006897 -0.005535 -0.284229
    3 6.028143 -0.000002 0.000000 -1.633095 -1.087392 -0.546431
    4 11.692555 0.000000 0.000000 0.000000 0.000000 -0.982271
    5 11.481671 -0.000001 -0.000032 1.616615 -0.200856 0.043541
    6 3.859704 -0.142405 -1.191976 -0.319953 0.094030 -1.042932
    7 1.312562 0.000000 0.000000 0.000000 0.000000 -1.494934
    8 0.729363 0.000001 -0.000002 0.000000 0.000000 -1.428325
    9 3.942325 0.046771 -0.431444 -0.120431 0.068511 -0.919744
    10 1.539093 0.000000 -0.000001 0.000000 0.000000 -1.191886
    11 1.196322 0.000001 -0.000001 0.000000 0.000000 -1.711911
    12 3.883687 -0.046771 0.431443 0.166007 0.072693 -0.591067
    13 1.719575 -0.000001 -0.000003 0.000000 0.000003 -1.314572
    14 1.209183 0.000002 0.000000 0.000000 0.000004 -1.213847
    15 3.859859 -0.137948 1.332463 0.263873 -0.198889 -0.341237
    16 1.719428 -0.000001 0.000000 0.000000 0.000000 -0.826631
    17 1.099666 0.000001 0.000001 0.000000 0.000000 -0.697327
    18 0.806046 -0.348922 1.321256 -1.209003 -0.877804 -0.755208
    19 1.789786 -0.000001 0.000001 0.000000 0.000000 0.482669
    20 1.206999 -0.000003 0.000001 0.000000 0.000000 0.726106
    21 1.085958 -11.442460 -66.779285 1.278926 0.000010 1.518250
    22 -1.937610 1.174966 0.010480 3.062865 -0.005537 -2.857366
    23 6.028143 -0.000001 0.000000 0.975206 -0.035611 -0.958221
    24 11.692554 -0.000001 0.000000 0.000000 0.000000 -0.837190
    25 11.481701 0.000000 -0.000001 -0.348946 -0.588457 -0.206691
    26 3.859674 -0.132568 1.193108 0.287816 -0.342592 -0.661305
    27 1.312562 0.000000 0.000002 0.000000 0.000000 -1.114840
    28 0.729364 0.000000 -0.000001 0.000000 0.000000 -0.972653
    29 3.942296 0.050328 0.431040 -0.004960 -0.256036 -0.352620
    30 1.539098 0.000001 0.000001 0.000000 0.000000 -0.706513
    31 1.196322 0.000000 0.000000 0.000000 0.000000 -1.088518
    32 3.883659 -0.050328 -0.431046 -0.270983 -0.189874 -0.192733
    33 1.719577 0.000000 0.000000 0.000000 -0.000004 -0.883866
    34 1.209182 0.000000 -0.000001 0.000000 -0.000003 -0.739250
    35 3.859830 -0.148935 -1.331283 -0.524145 -0.148500 -0.016370
    36 1.719426 0.000002 0.000001 0.000000 -0.000010 -0.694703
    37 1.099666 -0.000001 -0.000001 0.000000 -0.000004 -0.565032
    38 0.806017 -0.359833 -1.318335 1.234213 0.479108 -1.009509
    39 1.789784 0.000001 -0.000001 0.000000 0.000000 0.342545
    40 1.206998 -0.000001 -0.000001 0.000000 0.000000 0.526219
    41 -44.062309 -47.230815 -23.058550 -0.000048 0.016331 -0.810754
    42 7.723854 -0.515411 0.043839 0.000000 0.000000 0.000000
    43 0.000000 0.000001 0.000000 0.000000 0.000000 0.000000
    44 0.260770 0.327691 20.429131 0.000000 0.000000 0.000000
    45 -7.723807 -0.515392 0.043857 0.000000 0.000000 0.000000
    46 0.000000 0.000001 0.000000 0.000000 0.000000 0.000000
    47 -1.647020 -20.528147 4.909353 0.000000 0.000000 0.000000
    48 11.313541 -4.583049 10.400303 1.612644 -1.070101 2.218971
    49 11.481672 -0.000001 -0.000032 1.573183 -0.106613 0.044193
    50 0.000000 0.000000 -0.000001 0.043312 -0.000419 0.094242
    51 0.000000 0.000000 -0.000001 0.000000 0.000000 0.000000
    52 0.000000 0.000000 -0.000001 0.000000 0.000000 0.000000
    53 -11.515544 -11.515952 -1.082642 3.931275 -0.553631 4.933631
    54 11.481699 0.000001 0.000000 -1.564936 0.106606 0.044193
    55 0.000001 0.000000 0.000000 1.075966 0.204184 -0.710755
    56 0.000000 0.000000 0.000000 0.000000 0.000000 0.000000
    57 0.000000 0.000000 0.000000 0.000000 0.000000 0.000000
  time 19
    0 0.000000 0.000000 -67.998169 1.570796 0.000000 0.000000
    1 0.000000 59.000000 1.996216 0.000000 0.000000 0.000000
    2 1.937660 1.174958 0.010475 0.006897 -0.005535 -0.284229
    3 6.028143 -0.000002 0.000000 -1.633886 -1.087755 -0.545395
    4 11.692555 0.000000 0.000000 0.000000 0.000000 -0.982331
    5 11.481671 -0.000001 -0.000032 1.607902 -0.200856 0.043913
    6 3.859704 -0.142405 -1.191976 -0.319953 0.094030 -1.042932
    7 1.312562 0.000000 0.000000 0.000000 0.000000 -1.494899
    8 0.729363 0.000001 -0.000002 0.000000 0.000000 -1.428325
    9 3.942325 0.046771 -0.431444 -0.120431 0.068511 -0.919744
    10 1.539093 0.000000 -0.000001 0.000000 0.000000 -1.191886
    11 1.196322 0.000001 -0.000001 0.000000 0.000000 -1.711911
    12 3.883687 -0.046771 0.431443 0.166007 0.072693 -0.591067
    13 1.719575 -0.000001 -0.000003 0.000000 0.000003 -1.314572
    14 1.209183 0.000002 0.000000 0.000000 0.000004 -1.213847
    15 3.859859 -0.137948 1.332463 0.263873 -0.198889 -0.341237
    16 1.719428 -0.000001 0.000000 0.000000 0.000000 -0.826631
    17 1.099666 0.000001 0.000001 0.000000 0.000000 -0.697327
    18 0.806046 -0.348922 1.321256 -1.209003 -0.877804 -0.755208
    19 1.789786 -0.000001 0.000001 0.000000 0.000000 0.482669
    20 1.206999 -0.000003 0.000001 0.000000 0.000000 0.726106
    21 1.085958 -11.442460 -66.779285 1.278926 0.000010 1.518250
    22 -1.937610 1.174966 0.010480 3.062865 -0.005537 -2.857366
    23 6.028143 -0.000001 0.000000 0.975206 -0.035611 -0.958221
    24 11.692554 -0.000001 0.000000 0.000000 0.000000 -0.837190
    25 11.481701 0.000000 -0.000001 -0.348946 -0.588457 -0.206691
    26 3.859674 -0.132568 1.193108 0.287816 -0.342592 -0.661305
    27 1.312562 0.000000 0.000002 0.000000 0.000000 -1.114840
    28 0.729364 0.000000 -0.000001 0.000000 0.000000 -0.972653
    29 3.942296 0.050328 0.431040 -0.004960 -0.256036 -0.352620
    30 1.539098 0.000001 0.000001 0.000000 0.000000 -0.706513
    31 1.196322 0.000000 0.000000 0.000000 0.000000 -1.088518
    32 3.883659 -0.050328 -0.431046 -0.270983 -0.189874 -0.192733
    33 1.719577 0.000000 0.000000 0.000000 -0.000004 -0.883866
    34 1.209182 0.000000 -0.000001 0.000000 -0.000003 -0.739250
    35 3.859830 -0.148935 -1.331283 -0.524145 -0.148500 -0.016370
    36 1.719426 0.000002 0.000001 0.000000 -0.000010 -0.694703
    37 1.099666 -0.000001 -0.000001 0.000000 -0.000004 -0.565032
    38 0.806017 -0.359833 -1.318335 1.234213 0.479108 -1.009509
    39 1.789784 0.000001 -0.000001 0.000000 0.000000 0.342545
    40 1.206998 -0.000001 -0.000001 0.000000 0.000000 0.526219
    41 -44.062309 -47.230815 -23.058550 -0.000048 0.016331 -0.810754
    42 7.723854 -0.515411 0.043839 0.000000 0.000000 0.000000
    43 0.000000 0.000001 0.000000 0.000000 0.000000 0.000000
    44 0.260770 0.339410 20.429131 0.000000 0.000000 0.000000
    45 -7.723807 -0.515392 0.043857 0.000000 0.000000 0.000000
    46 0.000000 0.000001 0.000000 0.000000 0.000000 0.000000
    47 -1.647020 -20.528147 4.909353 0.000000 0.000000 0.000000
    48 11.313541 -4.575236 10.404209 1.613356 -1.069653 2.218644
    49 11.481672 -0.000001 -0.000032 1.573183 -0.106613 0.044193
    50 0.000000 0.000000 -0.000001 0.034671 -0.000048 0.094242
    51 0.000000 0.000000 -0.000001 0.000000 0.000000 0.000000
    52 0.000000 0.000000 -0.000001 0.000000 0.000000 0.000000
    53 -11.515544 -11.515952 -1.082642 3.931275 -0.553631 4.933631
    54 11.481699 0.000001 0.000000 -1.564936 0.106606 0.044193
    55 0.000001 0.000000 0.000000 1.075966 0.204184 -0.710755
    56 0.000000 0.000000 0.000000 0.000000 0.000000 0.000000
    57 0.000000 0.000000 0.000000 0.000000 0.000000 0.000000
  time 20
    0 0.000000 0.000000 -67.998169 1.570796 0.000000 0.000000
    1 0.000000 59.000000 1.996216 0.000000 0.000000 0.000000
    2 1.937660 1.174958 0.010475 0.006897 -0.005535 -0.284229
    3 6.028143 -0.000002 0.000000 -1.634186 -1.087891 -0.544991
    4 11.692555 0.000000 0.000000 0.000000 0.000000 -0.982355
    5 11.481671 -0.000001 -0.000032 1.604631 -0.200856 0.043973
    6 3.859704 -0.142405 -1.191976 -0.319953 0.094030 -1.042932
    7 1.312562 0.000000 0.000000 0.000000 0.000000 -1.494899
    8 0.729363 0.000001 -0.000002 0.000000 0.000000 -1.428325
    9 3.942325 0.046771 -0.431444 -0.120431 0.068511 -0.919744
    10 1.539093 0.000000 -0.000001 0.000000 0.000000 -1.191886
    11 1.196322 0.000001 -0.000001 0.000000 0.000000 -1.711911
    12 3.883687 -0.046771 0.431443 0.166007 0.072693 -0.591067
    13 1.719575 -0.000001 -0.000003 0.000000 0.000003 -1.314572
    14 1.209183 0.000002 0.000000 0.000000 0.000004 -1.213847
    15 3.859859 -0.137948 1.332463 0.263873 -0.198889 -0.341237
    16 1.719428 -0.000001 0.000000 0.000000 0.000000 -0.826631
    17 1.099666 0.000001 0.000001 0.000000 0.000000 -0.697327
    18 0.806046 -0.348922 1.321256 -1.209003 -0.877804 -0.755208
    19 1.789786 -0.000001 0.000001 0.000000 0.000000 0.482669
    20 1.206999 -0.000003 0.000001 0.000000 0.000000 0.726106
    21 1.085958 -11.442460 -66.779285 1.278926 0.000010 1.518250
    22 -1.937610 1.174966 0.010480 3.062865 -0.005537 -2.857366
    23 6.028143 -0.000001 0.000000 0.975206 -0.035611 -0.958221
    24 11.692554 -0.000001 0.000000 0.000000 0.000000 -0.837190
    25 11.481701 0.000000 -0.000001 -0.348946 -0.588457 -0.206691
    26 3.859674 -0.132568 1.193108 0.287816 -0.342592 -0.661305
    27 1.312562 0.000000 0.000002 0.000000 0.000000 -1.114840
    28 0.729364 0.000000 -0.000001 0.000000 0.000000 -0.972653
    29 3.942296 0.050328 0.431040 -0.004960 -0.256036 -0.352620
    30 1.539098 0.000001 0.000001 0.000000 0.000000 -0.706513
    31 1.196322 0.000000 0.000000 0.000000 0.000000 -1.088518
    32 3.883659 -0.050328 -0.431046 -0.270983 -0.189874 -0.192733
    33 1.719577 0.000000 0.000000 0.000000 -0.000004 -0.883866
    34 1.209182 0.000000 -0.000001 0.000000 -0.000003 -0.739250
    35 3.859830 -0.148935 -1.331283 -0.524145 -0.148500 -0.016370
    36 1.719426 0.000002 0.000001 0.000000 -0.000010 -0.694703
    37 1.099666 -0.000001 -0.000001 0.000000 -0.000004 -0.565032
    38 0.806017 -0.359833 -1.318335 1.234213 0.479108 -1.009509
    39 1.789784 0.000001 -0.000001 0.000000 0.000000 0.342545
    40 1.206998 -0.000001 -0.000001 0.000000 0.000000 0.526219
    41 -44.062309 -47.230815 -23.058550 -0.000048 0.016331 -0.810754
    42 7.723854 -0.515411 0.043839 0.000000 0.000000 0.000000
    43 0.000000 0.000001 0.000000 0.000000 0.000000 0.000000
    44 0.260770 0.343316 20.429131 0.000000 0.000000 0.000000
    45 -7.723807 -0.515392 0.043857 0.000000 0.000000 0.000000
    46 0.000000 0.000001 0.000000 0.000000 0.000000 0.000000
    47 -1.647020 -20.528147 4.909353 0.000000 0.000000 0.000000
    48 11.313541 -4.575236 10.404209 1.613623 -1.069474 2.218562
    49 11.481672 -0.000001 -0.000032 1.573183 -0.106613 0.044193
    50 0.000000 0.000000 -0.000001 0.031412 0.000000 0.094242
    51 0.000000 0.000000 -0.000001 0.000000 0.000000 0.000000
    52 0.000000 0.000000 -0.000001 0.000000 0.000000 0.000000
    53 -11.515544 -11.515952 -1.082642 3.931275 -0.553631 4.933631
    54 11.481699 0.000001 0.000000 -1.564936 0.106606 0.044193
    55 0.000001 0.000000 0.000000 1.075966 0.204184 -0.710755
    56 0.000000 0.000000 0.000000 0.000000 0.000000 0.000000
    57 0.000000 0.000000 0.000000 0.000000 0.000000 0.000000
end
