// Created by Crowbar 0.74
version 1
nodes
  0 "Scene_Root" -1
  1 "Rig_base" 0
  2 "ValveBiped.Bip01_L_Clavicle" 1
  3 "ValveBiped.Bip01_L_UpperArm" 2
  4 "ValveBiped.Bip01_L_Forearm" 3
  5 "ValveBiped.Bip01_L_Hand" 4
  6 "ValveBiped.Bip01_L_Finger4" 5
  7 "ValveBiped.Bip01_L_Finger41" 6
  8 "ValveBiped.Bip01_L_Finger42" 7
  9 "ValveBiped.Bip01_L_Finger3" 5
  10 "ValveBiped.Bip01_L_Finger31" 9
  11 "ValveBiped.Bip01_L_Finger32" 10
  12 "ValveBiped.Bip01_L_Finger2" 5
  13 "ValveBiped.Bip01_L_Finger21" 12
  14 "ValveBiped.Bip01_L_Finger22" 13
  15 "ValveBiped.Bip01_L_Finger1" 5
  16 "ValveBiped.Bip01_L_Finger11" 15
  17 "ValveBiped.Bip01_L_Finger12" 16
  18 "ValveBiped.Bip01_L_Finger0" 5
  19 "ValveBiped.Bip01_L_Finger01" 18
  20 "ValveBiped.Bip01_L_Finger02" 19
  21 "Detonator" 5
  22 "ValveBiped.Bip01_R_Clavicle" 1
  23 "ValveBiped.Bip01_R_UpperArm" 22
  24 "ValveBiped.Bip01_R_Forearm" 23
  25 "ValveBiped.Bip01_R_Hand" 24
  26 "ValveBiped.Bip01_R_Finger4" 25
  27 "ValveBiped.Bip01_R_Finger41" 26
  28 "ValveBiped.Bip01_R_Finger42" 27
  29 "ValveBiped.Bip01_R_Finger3" 25
  30 "ValveBiped.Bip01_R_Finger31" 29
  31 "ValveBiped.Bip01_R_Finger32" 30
  32 "ValveBiped.Bip01_R_Finger2" 25
  33 "ValveBiped.Bip01_R_Finger21" 32
  34 "ValveBiped.Bip01_R_Finger22" 33
  35 "ValveBiped.Bip01_R_Finger1" 25
  36 "ValveBiped.Bip01_R_Finger11" 35
  37 "ValveBiped.Bip01_R_Finger12" 36
  38 "ValveBiped.Bip01_R_Finger0" 25
  39 "ValveBiped.Bip01_R_Finger01" 38
  40 "ValveBiped.Bip01_R_Finger02" 39
  41 "Slam_base" 25
  42 "HandControlPosParentL" 1
  43 "UpperArmControlL" 42
  44 "HandControlPosL" 43
  45 "HandControlPosParentR" 1
  46 "UpperArmControlR" 45
  47 "HandControlPosR" 46
  48 "HandControlRotGrandmaL" 1
  49 "HandControlRotParentL" 48
  50 "HandControlRotL" 49
  51 "HandControlRotL1" 50
  52 "HandControlRotConstrainerL" 51
  53 "HandControlRotGrandmaR" 1
  54 "HandControlRotParentR" 53
  55 "HandControlRotR" 54
  56 "HandControlRotR1" 55
  57 "HandControlRotConstrainerR" 56
end
skeleton
  time 0
    0 0.000000 0.000000 -67.998169 1.570796 0.000000 0.000000
    1 0.000000 59.000000 1.996216 0.000000 0.000000 0.000000
    2 1.937660 1.174958 0.010475 0.006897 -0.005535 -0.284229
    3 6.028143 -0.000002 0.000000 -1.634186 -1.087891 -0.544991
    4 11.692555 0.000000 0.000000 0.000000 0.000000 -0.982355
    5 11.481671 -0.000001 -0.000032 1.604631 -0.200856 0.043973
    6 3.859704 -0.142405 -1.191976 -0.319953 0.094030 -1.042932
    7 1.312562 0.000000 0.000000 0.000000 0.000000 -1.494899
    8 0.729363 0.000001 -0.000002 0.000000 0.000000 -1.428325
    9 3.942325 0.046771 -0.431444 -0.120431 0.068511 -0.919744
    10 1.539093 0.000000 -0.000001 0.000000 0.000000 -1.191886
    11 1.196322 0.000001 -0.000001 0.000000 0.000000 -1.711911
    12 3.883687 -0.046771 0.431443 0.166007 0.072693 -0.591067
    13 1.719575 -0.000001 -0.000003 0.000000 0.000003 -1.314572
    14 1.209183 0.000002 0.000000 0.000000 0.000004 -1.213847
    15 3.859859 -0.137948 1.332463 0.263873 -0.198889 -0.341237
    16 1.719428 -0.000001 0.000000 0.000000 0.000000 -0.826631
    17 1.099666 0.000001 0.000001 0.000000 0.000000 -0.697327
    18 0.806046 -0.348922 1.321256 -1.209003 -0.877804 -0.755208
    19 1.789786 -0.000001 0.000001 0.000000 0.000000 0.482669
    20 1.206999 -0.000003 0.000001 0.000000 0.000000 0.726106
    21 1.085958 -11.442460 -66.779285 1.278926 0.000010 1.518250
    22 -1.937610 1.174966 0.010480 3.062865 -0.005537 -2.857366
    23 6.028143 -0.000001 0.000000 0.975206 -0.035611 -0.958221
    24 11.692554 -0.000001 0.000000 0.000000 0.000000 -0.837190
    25 11.481701 0.000000 -0.000001 -0.348946 -0.588457 -0.206691
    26 3.859674 -0.132568 1.193108 0.287816 -0.342592 -0.661305
    27 1.312562 0.000000 0.000002 0.000000 0.000000 -1.114840
    28 0.729364 0.000000 -0.000001 0.000000 0.000000 -0.972653
    29 3.942296 0.050328 0.431040 -0.004960 -0.256036 -0.352620
    30 1.539098 0.000001 0.000001 0.000000 0.000000 -0.706513
    31 1.196322 0.000000 0.000000 0.000000 0.000000 -1.088518
    32 3.883659 -0.050328 -0.431046 -0.270983 -0.189874 -0.192733
    33 1.719577 0.000000 0.000000 0.000000 -0.000004 -0.883866
    34 1.209182 0.000000 -0.000001 0.000000 -0.000003 -0.739250
    35 3.859830 -0.148935 -1.331283 -0.524145 -0.148500 -0.016370
    36 1.719426 0.000002 0.000001 0.000000 -0.000010 -0.694703
    37 1.099666 -0.000001 -0.000001 0.000000 -0.000004 -0.565032
    38 0.806017 -0.359833 -1.318335 1.234213 0.479108 -1.009509
    39 1.789784 0.000001 -0.000001 0.000000 0.000000 0.342545
    40 1.206998 -0.000001 -0.000001 0.000000 0.000000 0.526219
    41 -44.062309 -47.230815 -23.058550 -0.000048 0.016331 -0.810754
    42 7.723854 -0.515411 0.043839 0.000000 0.000000 0.000000
    43 0.000000 0.000001 0.000000 0.000000 0.000000 0.000000
    44 0.260770 0.343316 20.429131 0.000000 0.000000 0.000000
    45 -7.723807 -0.515392 0.043857 0.000000 0.000000 0.000000
    46 0.000000 0.000001 0.000000 0.000000 0.000000 0.000000
    47 -1.647020 -20.528147 4.909353 0.000000 0.000000 0.000000
    48 11.313541 -4.575236 10.404209 1.613623 -1.069474 2.218562
    49 11.481672 -0.000001 -0.000032 1.573183 -0.106613 0.044193
    50 0.000000 0.000000 -0.000001 0.031412 0.000000 0.094242
    51 0.000000 0.000000 -0.000001 0.000000 0.000000 0.000000
    52 0.000000 0.000000 -0.000001 0.000000 0.000000 0.000000
    53 -11.515544 -11.515952 -1.082642 3.931275 -0.553631 4.933631
    54 11.481699 0.000001 0.000000 -1.564936 0.106606 0.044193
    55 0.000001 0.000000 0.000000 1.075966 0.204184 -0.710755
    56 0.000000 0.000000 0.000000 0.000000 0.000000 0.000000
    57 0.000000 0.000000 0.000000 0.000000 0.000000 0.000000
  time 1
    0 0.000000 0.000000 -67.998169 1.570796 0.000000 0.000000
    1 0.000000 59.000000 1.996216 0.000000 0.000000 0.000000
    2 1.937660 1.174958 0.010475 0.006897 -0.005535 -0.284229
    3 6.028143 -0.000002 0.000000 -1.615226 -1.068676 -0.569908
    4 11.692555 0.000000 0.000000 0.000000 0.000000 -1.002154
    5 11.481671 -0.000001 -0.000032 1.618988 -0.216520 -0.022794
    6 3.859704 -0.142405 -1.191976 -0.319953 0.094030 -1.042932
    7 1.312562 0.000000 0.000000 0.000000 0.000000 -1.494899
    8 0.729363 0.000001 -0.000002 0.000000 0.000000 -1.428325
    9 3.942325 0.046771 -0.431444 -0.120431 0.068511 -0.919744
    10 1.539093 0.000000 -0.000001 0.000000 0.000000 -1.191886
    11 1.196322 0.000001 -0.000001 0.000000 0.000000 -1.711911
    12 3.883687 -0.046771 0.431443 0.166007 0.072693 -0.591067
    13 1.719575 -0.000001 -0.000003 0.000000 0.000003 -1.314572
    14 1.209183 0.000002 0.000000 0.000000 0.000004 -1.213847
    15 3.859859 -0.137948 1.332463 0.263873 -0.198889 -0.341237
    16 1.719428 -0.000001 0.000000 0.000000 0.000000 -0.826631
    17 1.099666 0.000001 0.000001 0.000000 0.000000 -0.697327
    18 0.806046 -0.348922 1.321256 -1.209003 -0.877804 -0.755208
    19 1.789786 -0.000001 0.000001 0.000000 0.000000 0.482669
    20 1.206999 -0.000003 0.000001 0.000000 0.000000 0.726106
    21 1.085958 -11.442460 -66.779285 1.278926 0.000010 1.518250
    22 -1.937610 1.174966 0.010480 3.062865 -0.005537 -2.857366
    23 6.028143 -0.000001 0.000000 0.975206 -0.035611 -0.958221
    24 11.692554 -0.000001 0.000000 0.000000 0.000000 -0.837190
    25 11.481701 0.000000 -0.000001 -0.348946 -0.588457 -0.206691
    26 3.859674 -0.132568 1.193108 0.287816 -0.342592 -0.661305
    27 1.312562 0.000000 0.000002 0.000000 0.000000 -1.114840
    28 0.729364 0.000000 -0.000001 0.000000 0.000000 -0.972653
    29 3.942296 0.050328 0.431040 -0.004960 -0.256036 -0.352620
    30 1.539098 0.000001 0.000001 0.000000 0.000000 -0.706513
    31 1.196322 0.000000 0.000000 0.000000 0.000000 -1.088518
    32 3.883659 -0.050328 -0.431046 -0.270983 -0.189874 -0.192733
    33 1.719577 0.000000 0.000000 0.000000 -0.000004 -0.883866
    34 1.209182 0.000000 -0.000001 0.000000 -0.000003 -0.739250
    35 3.859830 -0.148935 -1.331283 -0.524145 -0.148500 -0.016370
    36 1.719426 0.000002 0.000001 0.000000 -0.000010 -0.694703
    37 1.099666 -0.000001 -0.000001 0.000000 -0.000004 -0.565032
    38 0.806017 -0.359833 -1.318335 1.234213 0.479108 -1.009509
    39 1.789784 0.000001 -0.000001 0.000000 0.000000 0.342545
    40 1.206998 -0.000001 -0.000001 0.000000 0.000000 0.526219
    41 -44.062309 -47.230815 -23.058550 -0.000048 0.016331 -0.810754
    42 7.723854 -0.515411 0.043839 0.000000 0.000000 0.000000
    43 0.000000 0.000001 0.000000 0.000000 0.000000 0.000000
    44 0.260770 0.077683 20.323659 0.000000 0.000000 0.000000
    45 -7.723807 -0.515392 0.043857 0.000000 0.000000 0.000000
    46 0.000000 0.000001 0.000000 0.000000 0.000000 0.000000
    47 -1.647020 -20.528147 4.909353 0.000000 0.000000 0.000000
    48 11.344792 -4.813525 10.294831 1.596884 -1.069608 2.225583
    49 11.481672 -0.000001 -0.000032 1.573183 -0.106613 0.044193
    50 0.000000 0.000000 -0.000001 0.031400 -0.065148 0.110529
    51 0.000000 0.000000 -0.000001 0.000000 0.000000 0.000000
    52 0.000000 0.000000 -0.000001 0.000000 0.000000 0.000000
    53 -11.515544 -11.515952 -1.082642 3.931275 -0.553631 4.933631
    54 11.481699 0.000001 0.000000 -1.564936 0.106606 0.044193
    55 0.000001 0.000000 0.000000 1.075966 0.204184 -0.710755
    56 0.000000 0.000000 0.000000 0.000000 0.000000 0.000000
    57 0.000000 0.000000 0.000000 0.000000 0.000000 0.000000
  time 2
    0 0.000000 0.000000 -67.998169 1.570796 0.000000 0.000000
    1 0.000000 59.000000 1.996216 0.000000 0.000000 0.000000
    2 1.937660 1.174958 0.010475 0.006897 -0.005535 -0.284229
    3 6.028143 -0.000002 0.000000 -1.569852 -1.016061 -0.630610
    4 11.692555 0.000000 0.000000 0.000000 0.000000 -1.052081
    5 11.481671 -0.000001 -0.000032 1.651287 -0.242586 -0.147997
    6 3.859704 -0.142405 -1.191976 -0.319953 0.094030 -1.042932
    7 1.312562 0.000000 0.000000 0.000000 0.000000 -1.494899
    8 0.729363 0.000001 -0.000002 0.000000 0.000000 -1.428325
    9 3.942325 0.046771 -0.431444 -0.120431 0.068511 -0.919744
    10 1.539093 0.000000 -0.000001 0.000000 0.000000 -1.191912
    11 1.196322 0.000001 -0.000001 0.000000 0.000000 -1.711911
    12 3.883687 -0.046771 0.431443 0.166007 0.072693 -0.591067
    13 1.719575 -0.000001 -0.000003 0.000000 0.000003 -1.314601
    14 1.209183 0.000002 0.000000 0.000000 0.000004 -1.213847
    15 3.859859 -0.137948 1.332463 0.263873 -0.198889 -0.341237
    16 1.719428 -0.000001 0.000000 0.000000 0.000000 -0.826631
    17 1.099666 0.000001 0.000001 0.000000 0.000000 -0.697327
    18 0.806046 -0.348922 1.321256 -1.209003 -0.877804 -0.755208
    19 1.789786 -0.000001 0.000001 0.000000 0.000000 0.482669
    20 1.206999 -0.000003 0.000001 0.000000 0.000000 0.726106
    21 1.085958 -11.442460 -66.779285 1.278926 0.000010 1.518250
    22 -1.937610 1.174966 0.010480 3.062865 -0.005537 -2.857366
    23 6.028143 -0.000001 0.000000 0.975206 -0.035611 -0.958221
    24 11.692554 -0.000001 0.000000 0.000000 0.000000 -0.837190
    25 11.481701 0.000000 -0.000001 -0.348946 -0.588457 -0.206691
    26 3.859674 -0.132568 1.193108 0.287816 -0.342592 -0.661305
    27 1.312562 0.000000 0.000002 0.000000 0.000000 -1.114840
    28 0.729364 0.000000 -0.000001 0.000000 0.000000 -0.972653
    29 3.942296 0.050328 0.431040 -0.004960 -0.256036 -0.352620
    30 1.539098 0.000001 0.000001 0.000000 0.000000 -0.706513
    31 1.196322 0.000000 0.000000 0.000000 0.000000 -1.088518
    32 3.883659 -0.050328 -0.431046 -0.270983 -0.189874 -0.192733
    33 1.719577 0.000000 0.000000 0.000000 -0.000004 -0.883866
    34 1.209182 0.000000 -0.000001 0.000000 -0.000003 -0.739250
    35 3.859830 -0.148935 -1.331283 -0.524145 -0.148500 -0.016370
    36 1.719426 0.000002 0.000001 0.000000 -0.000010 -0.694703
    37 1.099666 -0.000001 -0.000001 0.000000 -0.000004 -0.565032
    38 0.806017 -0.359833 -1.318335 1.234213 0.479108 -1.009509
    39 1.789784 0.000001 -0.000001 0.000000 0.000000 0.342545
    40 1.206998 -0.000001 -0.000001 0.000000 0.000000 0.526219
    41 -44.062309 -47.230815 -23.058550 -0.000048 0.016331 -0.810754
    42 7.723854 -0.515411 0.043839 0.000000 0.000000 0.000000
    43 0.000000 0.000001 0.000000 0.000000 0.000000 0.000000
    44 0.260770 -0.648901 20.026775 0.000000 0.000000 0.000000
    45 -7.723807 -0.515392 0.043857 0.000000 0.000000 0.000000
    46 0.000000 0.000001 0.000000 0.000000 0.000000 0.000000
    47 -1.647020 -20.528147 4.909353 0.000000 0.000000 0.000000
    48 11.407294 -5.446356 9.982321 1.551297 -1.072971 2.244767
    49 11.481672 -0.000001 -0.000032 1.573183 -0.106613 0.044193
    50 0.000000 0.000000 -0.000001 0.031376 -0.186157 0.140778
    51 0.000000 0.000000 -0.000001 0.000000 0.000000 0.000000
    52 0.000000 0.000000 -0.000001 0.000000 0.000000 0.000000
    53 -11.515544 -11.515952 -1.082642 3.931275 -0.553631 4.933631
    54 11.481699 0.000001 0.000000 -1.564936 0.106606 0.044193
    55 0.000001 0.000000 0.000000 1.075966 0.204184 -0.710755
    56 0.000000 0.000000 0.000000 0.000000 0.000000 0.000000
    57 0.000000 0.000000 0.000000 0.000000 0.000000 0.000000
  time 3
    0 0.000000 0.000000 -67.998169 1.570796 0.000000 0.000000
    1 0.000000 59.000000 1.996216 0.000000 0.000000 0.000000
    2 1.937660 1.174958 0.010475 0.006897 -0.005535 -0.284229
    3 6.028143 -0.000002 0.000000 -1.515802 -0.938113 -0.704806
    4 11.692555 0.000000 0.000000 0.000000 0.000000 -1.115264
    5 11.481671 -0.000001 -0.000032 1.671541 -0.254607 -0.216081
    6 3.859704 -0.142405 -1.191976 -0.319953 0.094030 -1.042932
    7 1.312562 0.000000 0.000000 0.000000 0.000000 -1.494899
    8 0.729363 0.000001 -0.000002 0.000000 0.000000 -1.428325
    9 3.942325 0.046771 -0.431444 -0.120431 0.068511 -0.919744
    10 1.539093 0.000000 -0.000001 0.000000 0.000000 -1.191886
    11 1.196322 0.000001 -0.000001 0.000000 0.000000 -1.711911
    12 3.883687 -0.046771 0.431443 0.166007 0.072693 -0.591067
    13 1.719575 -0.000001 -0.000003 0.000000 0.000003 -1.314601
    14 1.209183 0.000002 0.000000 0.000000 0.000004 -1.213847
    15 3.859859 -0.137948 1.332463 0.263873 -0.198889 -0.341237
    16 1.719428 -0.000001 0.000000 0.000000 0.000000 -0.826631
    17 1.099666 0.000001 0.000001 0.000000 0.000000 -0.697327
    18 0.806046 -0.348922 1.321256 -1.209003 -0.877804 -0.755208
    19 1.789786 -0.000001 0.000001 0.000000 0.000000 0.482669
    20 1.206999 -0.000003 0.000001 0.000000 0.000000 0.726106
    21 1.085958 -11.442460 -66.779285 1.278926 0.000010 1.518250
    22 -1.937610 1.174966 0.010480 3.062865 -0.005537 -2.857366
    23 6.028143 -0.000001 0.000000 0.975206 -0.035611 -0.958221
    24 11.692554 -0.000001 0.000000 0.000000 0.000000 -0.837190
    25 11.481701 0.000000 -0.000001 -0.348946 -0.588457 -0.206691
    26 3.859674 -0.132568 1.193108 0.287816 -0.342592 -0.661305
    27 1.312562 0.000000 0.000002 0.000000 0.000000 -1.114840
    28 0.729364 0.000000 -0.000001 0.000000 0.000000 -0.972653
    29 3.942296 0.050328 0.431040 -0.004960 -0.256036 -0.352620
    30 1.539098 0.000001 0.000001 0.000000 0.000000 -0.706513
    31 1.196322 0.000000 0.000000 0.000000 0.000000 -1.088518
    32 3.883659 -0.050328 -0.431046 -0.270983 -0.189874 -0.192733
    33 1.719577 0.000000 0.000000 0.000000 -0.000004 -0.883866
    34 1.209182 0.000000 -0.000001 0.000000 -0.000003 -0.739250
    35 3.859830 -0.148935 -1.331283 -0.524145 -0.148500 -0.016370
    36 1.719426 0.000002 0.000001 0.000000 -0.000010 -0.694703
    37 1.099666 -0.000001 -0.000001 0.000000 -0.000004 -0.565032
    38 0.806017 -0.359833 -1.318335 1.234213 0.479108 -1.009509
    39 1.789784 0.000001 -0.000001 0.000000 0.000000 0.342545
    40 1.206998 -0.000001 -0.000001 0.000000 0.000000 0.526219
    41 -44.062309 -47.230815 -23.058550 -0.000048 0.016331 -0.810754
    42 7.723854 -0.515411 0.043839 0.000000 0.000000 0.000000
    43 0.000000 0.000001 0.000000 0.000000 0.000000 0.000000
    44 0.260770 -1.746591 19.581449 0.000000 0.000000 0.000000
    45 -7.723807 -0.515392 0.043857 0.000000 0.000000 0.000000
    46 0.000000 0.000001 0.000000 0.000000 0.000000 0.000000
    47 -1.647020 -20.528147 4.909353 0.000000 0.000000 0.000000
    48 11.454171 -6.340915 9.470587 1.482026 -1.085722 2.275543
    49 11.481672 -0.000001 -0.000032 1.573183 -0.106613 0.044193
    50 0.000000 0.000000 -0.000001 0.031340 -0.251317 0.157077
    51 0.000000 0.000000 -0.000001 0.000000 0.000000 0.000000
    52 0.000000 0.000000 -0.000001 0.000000 0.000000 0.000000
    53 -11.515544 -11.515952 -1.082642 3.931275 -0.553631 4.933631
    54 11.481699 0.000001 0.000000 -1.564936 0.106606 0.044193
    55 0.000001 0.000000 0.000000 1.075966 0.204184 -0.710755
    56 0.000000 0.000000 0.000000 0.000000 0.000000 0.000000
    57 0.000000 0.000000 0.000000 0.000000 0.000000 0.000000
  time 4
    0 0.000000 0.000000 -67.998169 1.570796 0.000000 0.000000
    1 0.000000 59.000000 1.996216 0.000000 0.000000 0.000000
    2 1.937660 1.174958 0.010475 0.006897 -0.005535 -0.284229
    3 6.028143 -0.000002 0.000000 -1.464232 -0.843579 -0.776930
    4 11.692555 0.000000 0.000000 0.000000 0.000000 -1.175870
    5 11.481671 -0.000001 -0.000032 1.668688 -0.253109 -0.207045
    6 3.859704 -0.142405 -1.191976 -0.319953 0.094030 -1.042932
    7 1.312562 0.000000 0.000000 0.000000 0.000000 -1.494899
    8 0.729363 0.000001 -0.000002 0.000000 0.000000 -1.428325
    9 3.942325 0.046771 -0.431444 -0.120431 0.068511 -0.919744
    10 1.539093 0.000000 -0.000001 0.000000 0.000000 -1.191886
    11 1.196322 0.000001 -0.000001 0.000000 0.000000 -1.711911
    12 3.883687 -0.046771 0.431443 0.166007 0.072693 -0.591067
    13 1.719575 -0.000001 -0.000003 0.000000 0.000003 -1.314601
    14 1.209183 0.000002 0.000000 0.000000 0.000004 -1.213847
    15 3.859859 -0.137948 1.332463 0.263873 -0.198889 -0.341237
    16 1.719428 -0.000001 0.000000 0.000000 0.000000 -0.826631
    17 1.099666 0.000001 0.000001 0.000000 0.000000 -0.697327
    18 0.806046 -0.348922 1.321256 -1.209003 -0.877804 -0.755208
    19 1.789786 -0.000001 0.000001 0.000000 0.000000 0.482669
    20 1.206999 -0.000003 0.000001 0.000000 0.000000 0.726106
    21 1.085958 -11.442460 -66.779285 1.278926 0.000010 1.518250
    22 -1.937610 1.174966 0.010480 3.062865 -0.005537 -2.857366
    23 6.028143 -0.000001 0.000000 0.975206 -0.035611 -0.958221
    24 11.692554 -0.000001 0.000000 0.000000 0.000000 -0.837190
    25 11.481701 0.000000 -0.000001 -0.348946 -0.588457 -0.206691
    26 3.859674 -0.132568 1.193108 0.287816 -0.342592 -0.661305
    27 1.312562 0.000000 0.000002 0.000000 0.000000 -1.114840
    28 0.729364 0.000000 -0.000001 0.000000 0.000000 -0.972653
    29 3.942296 0.050328 0.431040 -0.004960 -0.256036 -0.352620
    30 1.539098 0.000001 0.000001 0.000000 0.000000 -0.706513
    31 1.196322 0.000000 0.000000 0.000000 0.000000 -1.088518
    32 3.883659 -0.050328 -0.431046 -0.270983 -0.189874 -0.192733
    33 1.719577 0.000000 0.000000 0.000000 -0.000004 -0.883866
    34 1.209182 0.000000 -0.000001 0.000000 -0.000003 -0.739250
    35 3.859830 -0.148935 -1.331283 -0.524145 -0.148500 -0.016370
    36 1.719426 0.000002 0.000001 0.000000 -0.000010 -0.694703
    37 1.099666 -0.000001 -0.000001 0.000000 -0.000004 -0.565032
    38 0.806017 -0.359833 -1.318335 1.234213 0.479108 -1.009509
    39 1.789784 0.000001 -0.000001 0.000000 0.000000 0.342545
    40 1.206998 -0.000001 -0.000001 0.000000 0.000000 0.526219
    41 -44.062309 -47.230815 -23.058550 -0.000048 0.016331 -0.810754
    42 7.723854 -0.515411 0.043839 0.000000 0.000000 0.000000
    43 0.000000 0.000001 0.000000 0.000000 0.000000 0.000000
    44 0.260770 -3.125539 19.026744 0.000000 0.000000 0.000000
    45 -7.723807 -0.515392 0.043857 0.000000 0.000000 0.000000
    46 0.000000 0.000001 0.000000 0.000000 0.000000 0.000000
    47 -1.647020 -20.528147 4.909353 0.000000 0.000000 0.000000
    48 11.450264 -7.344852 8.771347 1.389872 -1.113017 2.322809
    49 11.481672 -0.000001 -0.000032 1.573183 -0.106613 0.044193
    50 0.000000 0.000000 -0.000001 0.031280 -0.242700 0.154920
    51 0.000000 0.000000 -0.000001 0.000000 0.000000 0.000000
    52 0.000000 0.000000 -0.000001 0.000000 0.000000 0.000000
    53 -11.515544 -11.515952 -1.082642 3.931275 -0.553631 4.933631
    54 11.481699 0.000001 0.000000 -1.564936 0.106606 0.044193
    55 0.000001 0.000000 0.000000 1.075966 0.204184 -0.710755
    56 0.000000 0.000000 0.000000 0.000000 0.000000 0.000000
    57 0.000000 0.000000 0.000000 0.000000 0.000000 0.000000
  time 5
    0 0.000000 0.000000 -67.998169 1.570796 0.000000 0.000000
    1 0.000000 59.000000 1.996216 0.000000 0.000000 0.000000
    2 1.937660 1.174958 0.010475 0.006897 -0.005535 -0.284229
    3 6.028143 -0.000002 0.000000 -1.419230 -0.741612 -0.839501
    4 11.692555 0.000000 0.000000 0.000000 0.000000 -1.221711
    5 11.481671 -0.000001 -0.000032 1.661294 -0.248950 -0.182884
    6 3.859704 -0.142405 -1.191976 -0.319953 0.094030 -1.042932
    7 1.312562 0.000000 0.000000 0.000000 0.000000 -1.494899
    8 0.729363 0.000001 -0.000002 0.000000 0.000000 -1.428325
    9 3.942325 0.046771 -0.431444 -0.120431 0.068511 -0.919744
    10 1.539093 0.000000 -0.000001 0.000000 0.000000 -1.191886
    11 1.196322 0.000001 -0.000001 0.000000 0.000000 -1.711911
    12 3.883687 -0.046771 0.431443 0.166007 0.072693 -0.591067
    13 1.719575 -0.000001 -0.000003 0.000000 0.000003 -1.314601
    14 1.209183 0.000002 0.000000 0.000000 0.000004 -1.213847
    15 3.859859 -0.137948 1.332463 0.263873 -0.198889 -0.341237
    16 1.719428 -0.000001 0.000000 0.000000 0.000000 -0.826631
    17 1.099666 0.000001 0.000001 0.000000 0.000000 -0.697327
    18 0.806046 -0.348922 1.321256 -1.209003 -0.877804 -0.755208
    19 1.789786 -0.000001 0.000001 0.000000 0.000000 0.482669
    20 1.206999 -0.000003 0.000001 0.000000 0.000000 0.726106
    21 1.085958 -11.442460 -66.779285 1.278926 0.000010 1.518250
    22 -1.937610 1.174966 0.010480 3.062865 -0.005537 -2.857366
    23 6.028143 -0.000001 0.000000 0.975206 -0.035611 -0.958221
    24 11.692554 -0.000001 0.000000 0.000000 0.000000 -0.837190
    25 11.481701 0.000000 -0.000001 -0.348946 -0.588457 -0.206691
    26 3.859674 -0.132568 1.193108 0.287816 -0.342592 -0.661305
    27 1.312562 0.000000 0.000002 0.000000 0.000000 -1.114840
    28 0.729364 0.000000 -0.000001 0.000000 0.000000 -0.972653
    29 3.942296 0.050328 0.431040 -0.004960 -0.256036 -0.352620
    30 1.539098 0.000001 0.000001 0.000000 0.000000 -0.706513
    31 1.196322 0.000000 0.000000 0.000000 0.000000 -1.088518
    32 3.883659 -0.050328 -0.431046 -0.270983 -0.189874 -0.192733
    33 1.719577 0.000000 0.000000 0.000000 -0.000004 -0.883866
    34 1.209182 0.000000 -0.000001 0.000000 -0.000003 -0.739250
    35 3.859830 -0.148935 -1.331283 -0.524145 -0.148500 -0.016370
    36 1.719426 0.000002 0.000001 0.000000 -0.000010 -0.694703
    37 1.099666 -0.000001 -0.000001 0.000000 -0.000004 -0.565032
    38 0.806017 -0.359833 -1.318335 1.234213 0.479108 -1.009509
    39 1.789784 0.000001 -0.000001 0.000000 0.000000 0.342545
    40 1.206998 -0.000001 -0.000001 0.000000 0.000000 0.526219
    41 -44.062309 -47.230815 -23.058550 -0.000048 0.016331 -0.810754
    42 7.723854 -0.515411 0.043839 0.000000 0.000000 0.000000
    43 0.000000 0.000001 0.000000 0.000000 0.000000 0.000000
    44 0.260770 -4.688087 18.393912 0.000000 0.000000 0.000000
    45 -7.723807 -0.515392 0.043857 0.000000 0.000000 0.000000
    46 0.000000 0.000001 0.000000 0.000000 0.000000 0.000000
    47 -1.647020 -20.528147 4.909353 0.000000 0.000000 0.000000
    48 11.391669 -8.333163 7.927571 1.268069 -1.156171 2.399054
    49 11.481672 -0.000001 -0.000032 1.573183 -0.106613 0.044193
    50 0.000000 0.000000 -0.000001 0.031208 -0.219606 0.149143
    51 0.000000 0.000000 -0.000001 0.000000 0.000000 0.000000
    52 0.000000 0.000000 -0.000001 0.000000 0.000000 0.000000
    53 -11.515544 -11.515952 -1.082642 3.931275 -0.553631 4.933631
    54 11.481699 0.000001 0.000000 -1.564936 0.106606 0.044193
    55 0.000001 0.000000 0.000000 1.075966 0.204184 -0.710755
    56 0.000000 0.000000 0.000000 0.000000 0.000000 0.000000
    57 0.000000 0.000000 0.000000 0.000000 0.000000 0.000000
  time 6
    0 0.000000 0.000000 -67.998169 1.570796 0.000000 0.000000
    1 0.000000 59.000000 1.996216 0.000000 0.000000 0.000000
    2 1.937660 1.174958 0.010475 0.006897 -0.005535 -0.284229
    3 6.028143 -0.000002 0.000000 -1.381059 -0.641391 -0.890524
    4 11.692555 0.000000 0.000000 0.000000 0.000000 -1.245153
    5 11.481671 -0.000001 -0.000032 1.651047 -0.242586 -0.147997
    6 3.859704 -0.142405 -1.191976 -0.319953 0.094030 -1.042932
    7 1.312562 0.000000 0.000000 0.000000 0.000000 -1.494934
    8 0.729363 0.000001 -0.000002 0.000000 0.000000 -1.428325
    9 3.942325 0.046771 -0.431444 -0.120431 0.068511 -0.919744
    10 1.539093 0.000000 -0.000001 0.000000 0.000000 -1.191912
    11 1.196322 0.000001 -0.000001 0.000000 0.000000 -1.711911
    12 3.883687 -0.046771 0.431443 0.166007 0.072693 -0.591055
    13 1.719575 -0.000001 -0.000003 0.000000 0.000003 -1.314601
    14 1.209183 0.000002 0.000000 0.000000 0.000004 -1.213847
    15 3.859859 -0.137948 1.332463 0.263873 -0.198889 -0.341237
    16 1.719428 -0.000001 0.000000 0.000000 0.000000 -0.826631
    17 1.099666 0.000001 0.000001 0.000000 0.000000 -0.697327
    18 0.806046 -0.348922 1.321256 -1.209003 -0.877804 -0.755208
    19 1.789786 -0.000001 0.000001 0.000000 0.000000 0.482669
    20 1.206999 -0.000003 0.000001 0.000000 0.000000 0.726106
    21 1.085958 -11.442460 -66.779285 1.278926 0.000010 1.518250
    22 -1.937610 1.174966 0.010480 3.062865 -0.005537 -2.857366
    23 6.028143 -0.000001 0.000000 0.975206 -0.035611 -0.958221
    24 11.692554 -0.000001 0.000000 0.000000 0.000000 -0.837190
    25 11.481701 0.000000 -0.000001 -0.348946 -0.588457 -0.206691
    26 3.859674 -0.132568 1.193108 0.287816 -0.342592 -0.661305
    27 1.312562 0.000000 0.000002 0.000000 0.000000 -1.114840
    28 0.729364 0.000000 -0.000001 0.000000 0.000000 -0.972653
    29 3.942296 0.050328 0.431040 -0.004960 -0.256036 -0.352620
    30 1.539098 0.000001 0.000001 0.000000 0.000000 -0.706513
    31 1.196322 0.000000 0.000000 0.000000 0.000000 -1.088518
    32 3.883659 -0.050328 -0.431046 -0.270983 -0.189874 -0.192733
    33 1.719577 0.000000 0.000000 0.000000 -0.000004 -0.883866
    34 1.209182 0.000000 -0.000001 0.000000 -0.000003 -0.739250
    35 3.859830 -0.148935 -1.331283 -0.524145 -0.148500 -0.016370
    36 1.719426 0.000002 0.000001 0.000000 -0.000010 -0.694703
    37 1.099666 -0.000001 -0.000001 0.000000 -0.000004 -0.565032
    38 0.806017 -0.359833 -1.318335 1.234213 0.479108 -1.009509
    39 1.789784 0.000001 -0.000001 0.000000 0.000000 0.342545
    40 1.206998 -0.000001 -0.000001 0.000000 0.000000 0.526219
    41 -44.062309 -47.230815 -23.058550 -0.000048 0.016331 -0.810754
    42 7.723854 -0.515411 0.043839 0.000000 0.000000 0.000000
    43 0.000000 0.000001 0.000000 0.000000 0.000000 0.000000
    44 0.260770 -6.344388 17.722017 0.000000 0.000000 0.000000
    45 -7.723807 -0.515392 0.043857 0.000000 0.000000 0.000000
    46 0.000000 0.000001 0.000000 0.000000 0.000000 0.000000
    47 -1.647020 -20.528147 4.909353 0.000000 0.000000 0.000000
    48 11.286197 -9.196471 7.021293 1.099877 -1.210865 2.525831
    49 11.481672 -0.000001 -0.000032 1.573183 -0.106613 0.044193
    50 0.000000 0.000000 -0.000001 0.031124 -0.186157 0.140778
    51 0.000000 0.000000 -0.000001 0.000000 0.000000 0.000000
    52 0.000000 0.000000 -0.000001 0.000000 0.000000 0.000000
    53 -11.515544 -11.515952 -1.082642 3.931275 -0.553631 4.933631
    54 11.481699 0.000001 0.000000 -1.564936 0.106606 0.044193
    55 0.000001 0.000000 0.000000 1.075966 0.204184 -0.710755
    56 0.000000 0.000000 0.000000 0.000000 0.000000 0.000000
    57 0.000000 0.000000 0.000000 0.000000 0.000000 0.000000
  time 7
    0 0.000000 0.000000 -67.998169 1.570796 0.000000 0.000000
    1 0.000000 59.000000 1.996216 0.000000 0.000000 0.000000
    2 1.937660 1.174958 0.010475 0.006897 -0.005535 -0.284229
    3 6.028143 -0.000002 0.000000 -1.348749 -0.551207 -0.930806
    4 11.692555 0.000000 0.000000 0.000000 0.000000 -1.243415
    5 11.481671 -0.000001 -0.000032 1.639566 -0.234533 -0.106794
    6 3.859704 -0.142405 -1.191976 -0.319953 0.094030 -1.042932
    7 1.312562 0.000000 0.000000 0.000000 0.000000 -1.494899
    8 0.729363 0.000001 -0.000002 0.000000 0.000000 -1.428325
    9 3.942325 0.046771 -0.431444 -0.120431 0.068511 -0.919744
    10 1.539093 0.000000 -0.000001 0.000000 0.000000 -1.191886
    11 1.196322 0.000001 -0.000001 0.000000 0.000000 -1.711911
    12 3.883687 -0.046771 0.431443 0.166007 0.072693 -0.591067
    13 1.719575 -0.000001 -0.000003 0.000000 0.000003 -1.314601
    14 1.209183 0.000002 0.000000 0.000000 0.000004 -1.213847
    15 3.859859 -0.137948 1.332463 0.263873 -0.198889 -0.341237
    16 1.719428 -0.000001 0.000000 0.000000 0.000000 -0.826631
    17 1.099666 0.000001 0.000001 0.000000 0.000000 -0.697327
    18 0.806046 -0.348922 1.321256 -1.209003 -0.877804 -0.755208
    19 1.789786 -0.000001 0.000001 0.000000 0.000000 0.482669
    20 1.206999 -0.000003 0.000001 0.000000 0.000000 0.726106
    21 1.085958 -11.442460 -66.779285 1.278926 0.000010 1.518250
    22 -1.937610 1.174966 0.010480 3.062865 -0.005537 -2.857366
    23 6.028143 -0.000001 0.000000 0.975206 -0.035611 -0.958221
    24 11.692554 -0.000001 0.000000 0.000000 0.000000 -0.837190
    25 11.481701 0.000000 -0.000001 -0.348946 -0.588457 -0.206691
    26 3.859674 -0.132568 1.193108 0.287816 -0.342592 -0.661305
    27 1.312562 0.000000 0.000002 0.000000 0.000000 -1.114840
    28 0.729364 0.000000 -0.000001 0.000000 0.000000 -0.972653
    29 3.942296 0.050328 0.431040 -0.004960 -0.256036 -0.352620
    30 1.539098 0.000001 0.000001 0.000000 0.000000 -0.706513
    31 1.196322 0.000000 0.000000 0.000000 0.000000 -1.088518
    32 3.883659 -0.050328 -0.431046 -0.270983 -0.189874 -0.192733
    33 1.719577 0.000000 0.000000 0.000000 -0.000004 -0.883866
    34 1.209182 0.000000 -0.000001 0.000000 -0.000003 -0.739250
    35 3.859830 -0.148935 -1.331283 -0.524145 -0.148500 -0.016370
    36 1.719426 0.000002 0.000001 0.000000 -0.000010 -0.694703
    37 1.099666 -0.000001 -0.000001 0.000000 -0.000004 -0.565032
    38 0.806017 -0.359833 -1.318335 1.234213 0.479108 -1.009509
    39 1.789784 0.000001 -0.000001 0.000000 0.000000 0.342545
    40 1.206998 -0.000001 -0.000001 0.000000 0.000000 0.526219
    41 -44.062309 -47.230815 -23.058550 -0.000048 0.016331 -0.810754
    42 7.723854 -0.515411 0.043839 0.000000 0.000000 0.000000
    43 0.000000 0.000001 0.000000 0.000000 0.000000 0.000000
    44 0.260770 -8.000688 17.050121 0.000000 0.000000 0.000000
    45 -7.723807 -0.515392 0.043857 0.000000 0.000000 0.000000
    46 0.000000 0.000001 0.000000 0.000000 0.000000 0.000000
    47 -1.647020 -20.528147 4.909353 0.000000 0.000000 0.000000
    48 11.145568 -9.883992 6.142360 0.858319 -1.265948 2.733262
    49 11.481672 -0.000001 -0.000032 1.573183 -0.106613 0.044193
    50 0.000000 0.000000 -0.000001 0.031040 -0.146512 0.130867
    51 0.000000 0.000000 -0.000001 0.000000 0.000000 0.000000
    52 0.000000 0.000000 -0.000001 0.000000 0.000000 0.000000
    53 -11.515544 -11.515952 -1.082642 3.931275 -0.553631 4.933631
    54 11.481699 0.000001 0.000000 -1.564936 0.106606 0.044193
    55 0.000001 0.000000 0.000000 1.075966 0.204184 -0.710755
    56 0.000000 0.000000 0.000000 0.000000 0.000000 0.000000
    57 0.000000 0.000000 0.000000 0.000000 0.000000 0.000000
  time 8
    0 0.000000 0.000000 -67.998169 1.570796 0.000000 0.000000
    1 0.000000 59.000000 1.996216 0.000000 0.000000 0.000000
    2 1.937660 1.174958 0.010475 0.006897 -0.005535 -0.284229
    3 6.028143 -0.000002 0.000000 -1.321520 -0.477224 -0.962294
    4 11.692555 0.000000 0.000000 0.000000 0.000000 -1.218631
    5 11.481671 -0.000001 -0.000032 1.628312 -0.225532 -0.063637
    6 3.859704 -0.142405 -1.191976 -0.319953 0.094030 -1.042932
    7 1.312562 0.000000 0.000000 0.000000 0.000000 -1.494899
    8 0.729363 0.000001 -0.000002 0.000000 0.000000 -1.428325
    9 3.942325 0.046771 -0.431444 -0.120431 0.068511 -0.919744
    10 1.539093 0.000000 -0.000001 0.000000 0.000000 -1.191886
    11 1.196322 0.000001 -0.000001 0.000000 0.000000 -1.711911
    12 3.883687 -0.046771 0.431443 0.166007 0.072693 -0.591067
    13 1.719575 -0.000001 -0.000003 0.000000 0.000003 -1.314572
    14 1.209183 0.000002 0.000000 0.000000 0.000004 -1.213847
    15 3.859859 -0.137948 1.332463 0.263873 -0.198889 -0.341237
    16 1.719428 -0.000001 0.000000 0.000000 0.000000 -0.826631
    17 1.099666 0.000001 0.000001 0.000000 0.000000 -0.697327
    18 0.806046 -0.348922 1.321256 -1.209003 -0.877804 -0.755208
    19 1.789786 -0.000001 0.000001 0.000000 0.000000 0.482669
    20 1.206999 -0.000003 0.000001 0.000000 0.000000 0.726106
    21 1.085958 -11.442460 -66.779285 1.278926 0.000010 1.518250
    22 -1.937610 1.174966 0.010480 3.062865 -0.005537 -2.857366
    23 6.028143 -0.000001 0.000000 0.975206 -0.035611 -0.958221
    24 11.692554 -0.000001 0.000000 0.000000 0.000000 -0.837190
    25 11.481701 0.000000 -0.000001 -0.348946 -0.588457 -0.206691
    26 3.859674 -0.132568 1.193108 0.287816 -0.342592 -0.661305
    27 1.312562 0.000000 0.000002 0.000000 0.000000 -1.114840
    28 0.729364 0.000000 -0.000001 0.000000 0.000000 -0.972653
    29 3.942296 0.050328 0.431040 -0.004960 -0.256036 -0.352620
    30 1.539098 0.000001 0.000001 0.000000 0.000000 -0.706513
    31 1.196322 0.000000 0.000000 0.000000 0.000000 -1.088518
    32 3.883659 -0.050328 -0.431046 -0.270983 -0.189874 -0.192733
    33 1.719577 0.000000 0.000000 0.000000 -0.000004 -0.883866
    34 1.209182 0.000000 -0.000001 0.000000 -0.000003 -0.739250
    35 3.859830 -0.148935 -1.331283 -0.524145 -0.148500 -0.016370
    36 1.719426 0.000002 0.000001 0.000000 -0.000010 -0.694703
    37 1.099666 -0.000001 -0.000001 0.000000 -0.000004 -0.565032
    38 0.806017 -0.359833 -1.318335 1.234213 0.479108 -1.009509
    39 1.789784 0.000001 -0.000001 0.000000 0.000000 0.342545
    40 1.206998 -0.000001 -0.000001 0.000000 0.000000 0.526219
    41 -44.062309 -47.230815 -23.058550 -0.000048 0.016331 -0.810754
    42 7.723854 -0.515411 0.043839 0.000000 0.000000 0.000000
    43 0.000000 0.000001 0.000000 0.000000 0.000000 0.000000
    44 0.260770 -9.563236 16.417289 0.000000 0.000000 0.000000
    45 -7.723807 -0.515392 0.043857 0.000000 0.000000 0.000000
    46 0.000000 0.000001 0.000000 0.000000 0.000000 0.000000
    47 -1.647020 -20.528147 4.909353 0.000000 0.000000 0.000000
    48 10.993219 -10.387913 5.384524 0.527010 -1.304289 3.039144
    49 11.481672 -0.000001 -0.000032 1.573183 -0.106613 0.044193
    50 0.000000 0.000000 -0.000001 0.030932 -0.104805 0.120440
    51 0.000000 0.000000 -0.000001 0.000000 0.000000 0.000000
    52 0.000000 0.000000 -0.000001 0.000000 0.000000 0.000000
    53 -11.515544 -11.515952 -1.082642 3.931275 -0.553631 4.933631
    54 11.481699 0.000001 0.000000 -1.564936 0.106606 0.044193
    55 0.000001 0.000000 0.000000 1.075966 0.204184 -0.710755
    56 0.000000 0.000000 0.000000 0.000000 0.000000 0.000000
    57 0.000000 0.000000 0.000000 0.000000 0.000000 0.000000
  time 9
    0 0.000000 0.000000 -67.998169 1.570796 0.000000 0.000000
    1 0.000000 59.000000 1.996216 0.000000 0.000000 0.000000
    2 1.937660 1.174958 0.010475 0.006897 -0.005535 -0.284229
    3 6.028143 -0.000002 0.000000 -1.299180 -0.422457 -0.986883
    4 11.692555 0.000000 0.000000 0.000000 0.000000 -1.177656
    5 11.481671 -0.000001 -0.000032 1.618413 -0.216520 -0.022794
    6 3.859704 -0.142405 -1.191976 -0.319953 0.094030 -1.042932
    7 1.312562 0.000000 0.000000 0.000000 0.000000 -1.494899
    8 0.729363 0.000001 -0.000002 0.000000 0.000000 -1.428325
    9 3.942325 0.046771 -0.431444 -0.120431 0.068511 -0.919744
    10 1.539093 0.000000 -0.000001 0.000000 0.000000 -1.191886
    11 1.196322 0.000001 -0.000001 0.000000 0.000000 -1.711911
    12 3.883687 -0.046771 0.431443 0.166007 0.072693 -0.591067
    13 1.719575 -0.000001 -0.000003 0.000000 0.000003 -1.314572
    14 1.209183 0.000002 0.000000 0.000000 0.000004 -1.213847
    15 3.859859 -0.137948 1.332463 0.263873 -0.198889 -0.341237
    16 1.719428 -0.000001 0.000000 0.000000 0.000000 -0.826631
    17 1.099666 0.000001 0.000001 0.000000 0.000000 -0.697327
    18 0.806046 -0.348922 1.321256 -1.209003 -0.877804 -0.755208
    19 1.789786 -0.000001 0.000001 0.000000 0.000000 0.482669
    20 1.206999 -0.000003 0.000001 0.000000 0.000000 0.726106
    21 1.085958 -11.442460 -66.779285 1.278926 0.000010 1.518250
    22 -1.937610 1.174966 0.010480 3.062865 -0.005537 -2.857366
    23 6.028143 -0.000001 0.000000 0.975206 -0.035611 -0.958221
    24 11.692554 -0.000001 0.000000 0.000000 0.000000 -0.837190
    25 11.481701 0.000000 -0.000001 -0.348946 -0.588457 -0.206691
    26 3.859674 -0.132568 1.193108 0.287816 -0.342592 -0.661305
    27 1.312562 0.000000 0.000002 0.000000 0.000000 -1.114840
    28 0.729364 0.000000 -0.000001 0.000000 0.000000 -0.972653
    29 3.942296 0.050328 0.431040 -0.004960 -0.256036 -0.352620
    30 1.539098 0.000001 0.000001 0.000000 0.000000 -0.706513
    31 1.196322 0.000000 0.000000 0.000000 0.000000 -1.088518
    32 3.883659 -0.050328 -0.431046 -0.270983 -0.189874 -0.192733
    33 1.719577 0.000000 0.000000 0.000000 -0.000004 -0.883866
    34 1.209182 0.000000 -0.000001 0.000000 -0.000003 -0.739250
    35 3.859830 -0.148935 -1.331283 -0.524145 -0.148500 -0.016370
    36 1.719426 0.000002 0.000001 0.000000 -0.000010 -0.694703
    37 1.099666 -0.000001 -0.000001 0.000000 -0.000004 -0.565032
    38 0.806017 -0.359833 -1.318335 1.234213 0.479108 -1.009509
    39 1.789784 0.000001 -0.000001 0.000000 0.000000 0.342545
    40 1.206998 -0.000001 -0.000001 0.000000 0.000000 0.526219
    41 -44.062309 -47.230815 -23.058550 -0.000048 0.016331 -0.810754
    42 7.723854 -0.515411 0.043839 0.000000 0.000000 0.000000
    43 0.000000 0.000001 0.000000 0.000000 0.000000 0.000000
    44 0.260770 -10.938278 15.866491 0.000000 0.000000 0.000000
    45 -7.723807 -0.515392 0.043857 0.000000 0.000000 0.000000
    46 0.000000 0.000001 0.000000 0.000000 0.000000 0.000000
    47 -1.647020 -20.528147 4.909353 0.000000 0.000000 0.000000
    48 10.836964 -10.731674 4.806382 0.157950 -1.311613 3.391229
    49 11.481672 -0.000001 -0.000032 1.573183 -0.106613 0.044193
    50 0.000000 0.000000 -0.000001 0.030824 -0.065148 0.110529
    51 0.000000 0.000000 -0.000001 0.000000 0.000000 0.000000
    52 0.000000 0.000000 -0.000001 0.000000 0.000000 0.000000
    53 -11.515544 -11.515952 -1.082642 3.931275 -0.553631 4.933631
    54 11.481699 0.000001 0.000000 -1.564936 0.106606 0.044193
    55 0.000001 0.000000 0.000000 1.075966 0.204184 -0.710755
    56 0.000000 0.000000 0.000000 0.000000 0.000000 0.000000
    57 0.000000 0.000000 0.000000 0.000000 0.000000 0.000000
  time 10
    0 0.000000 0.000000 -67.998169 1.570796 0.000000 0.000000
    1 0.000000 59.000000 1.996216 0.000000 0.000000 0.000000
    2 1.937660 1.174958 0.010475 0.006897 -0.005535 -0.284229
    3 6.028143 -0.000002 0.000000 -1.282090 -0.386701 -1.005482
    4 11.692555 0.000000 0.000000 0.000000 0.000000 -1.131455
    5 11.481671 -0.000001 -0.000032 1.610647 -0.208598 0.011530
    6 3.859704 -0.142405 -1.191976 -0.319953 0.094030 -1.042932
    7 1.312562 0.000000 0.000000 0.000000 0.000000 -1.494899
    8 0.729363 0.000001 -0.000002 0.000000 0.000000 -1.428325
    9 3.942325 0.046771 -0.431444 -0.120431 0.068511 -0.919744
    10 1.539093 0.000000 -0.000001 0.000000 0.000000 -1.191886
    11 1.196322 0.000001 -0.000001 0.000000 0.000000 -1.711911
    12 3.883687 -0.046771 0.431443 0.166007 0.072693 -0.591067
    13 1.719575 -0.000001 -0.000003 0.000000 0.000003 -1.314572
    14 1.209183 0.000002 0.000000 0.000000 0.000004 -1.213847
    15 3.859859 -0.137948 1.332463 0.263873 -0.198889 -0.341237
    16 1.719428 -0.000001 0.000000 0.000000 0.000000 -0.826631
    17 1.099666 0.000001 0.000001 0.000000 0.000000 -0.697327
    18 0.806046 -0.348922 1.321256 -1.209003 -0.877804 -0.755208
    19 1.789786 -0.000001 0.000001 0.000000 0.000000 0.482669
    20 1.206999 -0.000003 0.000001 0.000000 0.000000 0.726106
    21 1.085958 -11.442460 -66.779285 1.278926 0.000010 1.518250
    22 -1.937610 1.174966 0.010480 3.062865 -0.005537 -2.857366
    23 6.028143 -0.000001 0.000000 0.975206 -0.035611 -0.958221
    24 11.692554 -0.000001 0.000000 0.000000 0.000000 -0.837190
    25 11.481701 0.000000 -0.000001 -0.348946 -0.588457 -0.206691
    26 3.859674 -0.132568 1.193108 0.287816 -0.342592 -0.661305
    27 1.312562 0.000000 0.000002 0.000000 0.000000 -1.114840
    28 0.729364 0.000000 -0.000001 0.000000 0.000000 -0.972653
    29 3.942296 0.050328 0.431040 -0.004960 -0.256036 -0.352620
    30 1.539098 0.000001 0.000001 0.000000 0.000000 -0.706513
    31 1.196322 0.000000 0.000000 0.000000 0.000000 -1.088518
    32 3.883659 -0.050328 -0.431046 -0.270983 -0.189874 -0.192733
    33 1.719577 0.000000 0.000000 0.000000 -0.000004 -0.883866
    34 1.209182 0.000000 -0.000001 0.000000 -0.000003 -0.739250
    35 3.859830 -0.148935 -1.331283 -0.524145 -0.148500 -0.016370
    36 1.719426 0.000002 0.000001 0.000000 -0.000010 -0.694703
    37 1.099666 -0.000001 -0.000001 0.000000 -0.000004 -0.565032
    38 0.806017 -0.359833 -1.318335 1.234213 0.479108 -1.009509
    39 1.789784 0.000001 -0.000001 0.000000 0.000000 0.342545
    40 1.206998 -0.000001 -0.000001 0.000000 0.000000 0.526219
    41 -44.062309 -47.230815 -23.058550 -0.000048 0.016331 -0.810754
    42 7.723854 -0.515411 0.043839 0.000000 0.000000 0.000000
    43 0.000000 0.000001 0.000000 0.000000 0.000000 0.000000
    44 0.260770 -12.035968 15.421165 0.000000 0.000000 0.000000
    45 -7.723807 -0.515392 0.043857 0.000000 0.000000 0.000000
    46 0.000000 0.000001 0.000000 0.000000 0.000000 0.000000
    47 -1.647020 -20.528147 4.909353 0.000000 0.000000 0.000000
    48 10.692429 -10.942618 4.423558 -0.139257 -1.292555 3.678498
    49 11.481672 -0.000001 -0.000032 1.573183 -0.106613 0.044193
    50 0.000000 0.000000 -0.000001 0.030705 -0.031711 0.102176
    51 0.000000 0.000000 -0.000001 0.000000 0.000000 0.000000
    52 0.000000 0.000000 -0.000001 0.000000 0.000000 0.000000
    53 -11.515544 -11.515952 -1.082642 3.931275 -0.553631 4.933631
    54 11.481699 0.000001 0.000000 -1.564936 0.106606 0.044193
    55 0.000001 0.000000 0.000000 1.075966 0.204184 -0.710755
    56 0.000000 0.000000 0.000000 0.000000 0.000000 0.000000
    57 0.000000 0.000000 0.000000 0.000000 0.000000 0.000000
  time 11
    0 0.000000 0.000000 -67.998169 1.570796 0.000000 0.000000
    1 0.000000 59.000000 1.996216 0.000000 0.000000 0.000000
    2 1.937660 1.174958 0.010475 0.006897 -0.005535 -0.284229
    3 6.028143 -0.000002 0.000000 -1.271029 -0.367259 -1.017714
    4 11.692555 0.000000 0.000000 0.000000 0.000000 -1.093860
    5 11.481671 -0.000001 -0.000032 1.605577 -0.202977 0.035164
    6 3.859704 -0.142405 -1.191976 -0.319953 0.094030 -1.042932
    7 1.312562 0.000000 0.000000 0.000000 0.000000 -1.494899
    8 0.729363 0.000001 -0.000002 0.000000 0.000000 -1.428325
    9 3.942325 0.046771 -0.431444 -0.120431 0.068511 -0.919744
    10 1.539093 0.000000 -0.000001 0.000000 0.000000 -1.191886
    11 1.196322 0.000001 -0.000001 0.000000 0.000000 -1.711911
    12 3.883687 -0.046771 0.431443 0.166007 0.072693 -0.591067
    13 1.719575 -0.000001 -0.000003 0.000000 0.000003 -1.314601
    14 1.209183 0.000002 0.000000 0.000000 0.000004 -1.213847
    15 3.859859 -0.137948 1.332463 0.263873 -0.198889 -0.341237
    16 1.719428 -0.000001 0.000000 0.000000 0.000000 -0.826631
    17 1.099666 0.000001 0.000001 0.000000 0.000000 -0.697327
    18 0.806046 -0.348922 1.321256 -1.209003 -0.877804 -0.755208
    19 1.789786 -0.000001 0.000001 0.000000 0.000000 0.482669
    20 1.206999 -0.000003 0.000001 0.000000 0.000000 0.726106
    21 1.085958 -11.442460 -66.779285 1.278926 0.000010 1.518250
    22 -1.937610 1.174966 0.010480 3.062865 -0.005537 -2.857366
    23 6.028143 -0.000001 0.000000 0.975206 -0.035611 -0.958221
    24 11.692554 -0.000001 0.000000 0.000000 0.000000 -0.837190
    25 11.481701 0.000000 -0.000001 -0.348946 -0.588457 -0.206691
    26 3.859674 -0.132568 1.193108 0.287816 -0.342592 -0.661305
    27 1.312562 0.000000 0.000002 0.000000 0.000000 -1.114840
    28 0.729364 0.000000 -0.000001 0.000000 0.000000 -0.972653
    29 3.942296 0.050328 0.431040 -0.004960 -0.256036 -0.352620
    30 1.539098 0.000001 0.000001 0.000000 0.000000 -0.706513
    31 1.196322 0.000000 0.000000 0.000000 0.000000 -1.088518
    32 3.883659 -0.050328 -0.431046 -0.270983 -0.189874 -0.192733
    33 1.719577 0.000000 0.000000 0.000000 -0.000004 -0.883866
    34 1.209182 0.000000 -0.000001 0.000000 -0.000003 -0.739250
    35 3.859830 -0.148935 -1.331283 -0.524145 -0.148500 -0.016370
    36 1.719426 0.000002 0.000001 0.000000 -0.000010 -0.694703
    37 1.099666 -0.000001 -0.000001 0.000000 -0.000004 -0.565032
    38 0.806017 -0.359833 -1.318335 1.234213 0.479108 -1.009509
    39 1.789784 0.000001 -0.000001 0.000000 0.000000 0.342545
    40 1.206998 -0.000001 -0.000001 0.000000 0.000000 0.526219
    41 -44.062309 -47.230815 -23.058550 -0.000048 0.016331 -0.810754
    42 7.723854 -0.515411 0.043839 0.000000 0.000000 0.000000
    43 0.000000 0.000001 0.000000 0.000000 0.000000 0.000000
    44 0.260770 -12.766459 15.124281 0.000000 0.000000 0.000000
    45 -7.723807 -0.515392 0.043857 0.000000 0.000000 0.000000
    46 0.000000 0.000001 0.000000 0.000000 0.000000 0.000000
    47 -1.647020 -20.528147 4.909353 0.000000 0.000000 0.000000
    48 10.590863 -11.059809 4.212614 -0.313859 -1.267726 3.848214
    49 11.481672 -0.000001 -0.000032 1.573183 -0.106613 0.044193
    50 0.000000 0.000000 -0.000001 0.030585 -0.008617 0.096399
    51 0.000000 0.000000 -0.000001 0.000000 0.000000 0.000000
    52 0.000000 0.000000 -0.000001 0.000000 0.000000 0.000000
    53 -11.515544 -11.515952 -1.082642 3.931275 -0.553631 4.933631
    54 11.481699 0.000001 0.000000 -1.564936 0.106606 0.044193
    55 0.000001 0.000000 0.000000 1.075966 0.204184 -0.710755
    56 0.000000 0.000000 0.000000 0.000000 0.000000 0.000000
    57 0.000000 0.000000 0.000000 0.000000 0.000000 0.000000
  time 12
    0 0.000000 0.000000 -67.998169 1.570796 0.000000 0.000000
    1 0.000000 59.000000 1.996216 0.000000 0.000000 0.000000
    2 1.937660 1.174958 0.010475 0.006897 -0.005535 -0.284229
    3 6.028143 -0.000002 0.000000 -1.267062 -0.361118 -1.022187
    4 11.692555 0.000000 0.000000 0.000000 0.000000 -1.078795
    5 11.481671 -0.000001 -0.000032 1.603672 -0.200856 0.043973
    6 3.859704 -0.142405 -1.191976 -0.319953 0.094030 -1.042932
    7 1.312562 0.000000 0.000000 0.000000 0.000000 -1.494899
    8 0.729363 0.000001 -0.000002 0.000000 0.000000 -1.428325
    9 3.942325 0.046771 -0.431444 -0.120431 0.068511 -0.919744
    10 1.539093 0.000000 -0.000001 0.000000 0.000000 -1.191886
    11 1.196322 0.000001 -0.000001 0.000000 0.000000 -1.711911
    12 3.883687 -0.046771 0.431443 0.166007 0.072693 -0.591067
    13 1.719575 -0.000001 -0.000003 0.000000 0.000003 -1.314601
    14 1.209183 0.000002 0.000000 0.000000 0.000004 -1.213847
    15 3.859859 -0.137948 1.332463 0.263873 -0.198889 -0.341237
    16 1.719428 -0.000001 0.000000 0.000000 0.000000 -0.826631
    17 1.099666 0.000001 0.000001 0.000000 0.000000 -0.697327
    18 0.806046 -0.348922 1.321256 -1.209003 -0.877804 -0.755208
    19 1.789786 -0.000001 0.000001 0.000000 0.000000 0.482669
    20 1.206999 -0.000003 0.000001 0.000000 0.000000 0.726106
    21 1.085958 -11.442460 -66.779285 1.278926 0.000010 1.518250
    22 -1.937610 1.174966 0.010480 3.062865 -0.005537 -2.857366
    23 6.028143 -0.000001 0.000000 0.975206 -0.035611 -0.958221
    24 11.692554 -0.000001 0.000000 0.000000 0.000000 -0.837190
    25 11.481701 0.000000 -0.000001 -0.348946 -0.588457 -0.206691
    26 3.859674 -0.132568 1.193108 0.287816 -0.342592 -0.661305
    27 1.312562 0.000000 0.000002 0.000000 0.000000 -1.114840
    28 0.729364 0.000000 -0.000001 0.000000 0.000000 -0.972653
    29 3.942296 0.050328 0.431040 -0.004960 -0.256036 -0.352620
    30 1.539098 0.000001 0.000001 0.000000 0.000000 -0.706513
    31 1.196322 0.000000 0.000000 0.000000 0.000000 -1.088518
    32 3.883659 -0.050328 -0.431046 -0.270983 -0.189874 -0.192733
    33 1.719577 0.000000 0.000000 0.000000 -0.000004 -0.883866
    34 1.209182 0.000000 -0.000001 0.000000 -0.000003 -0.739250
    35 3.859830 -0.148935 -1.331283 -0.524145 -0.148500 -0.016370
    36 1.719426 0.000002 0.000001 0.000000 -0.000010 -0.694703
    37 1.099666 -0.000001 -0.000001 0.000000 -0.000004 -0.565032
    38 0.806017 -0.359833 -1.318335 1.234213 0.479108 -1.009509
    39 1.789784 0.000001 -0.000001 0.000000 0.000000 0.342545
    40 1.206998 -0.000001 -0.000001 0.000000 0.000000 0.526219
    41 -44.062309 -47.230815 -23.058550 -0.000048 0.016331 -0.810754
    42 7.723854 -0.515411 0.043839 0.000000 0.000000 0.000000
    43 0.000000 0.000001 0.000000 0.000000 0.000000 0.000000
    44 0.260770 -13.028185 15.018809 0.000000 0.000000 0.000000
    45 -7.723807 -0.515392 0.043857 0.000000 0.000000 0.000000
    46 0.000000 0.000001 0.000000 0.000000 0.000000 0.000000
    47 -1.647020 -20.528147 4.909353 0.000000 0.000000 0.000000
    48 10.551799 -11.094966 4.142299 -0.371021 -1.256575 3.903970
    49 11.481672 -0.000001 -0.000032 1.573183 -0.106613 0.044193
    50 0.000000 0.000000 -0.000001 0.030453 0.000000 0.094242
    51 0.000000 0.000000 -0.000001 0.000000 0.000000 0.000000
    52 0.000000 0.000000 -0.000001 0.000000 0.000000 0.000000
    53 -11.515544 -11.515952 -1.082642 3.931275 -0.553631 4.933631
    54 11.481699 0.000001 0.000000 -1.564936 0.106606 0.044193
    55 0.000001 0.000000 0.000000 1.075966 0.204184 -0.710755
    56 0.000000 0.000000 0.000000 0.000000 0.000000 0.000000
    57 0.000000 0.000000 0.000000 0.000000 0.000000 0.000000
end
