// Created by Crowbar 0.74
version 1
nodes
  0 "Scene_Root" -1
  1 "Rig_base" 0
  2 "ValveBiped.Bip01_L_Clavicle" 1
  3 "ValveBiped.Bip01_L_UpperArm" 2
  4 "ValveBiped.Bip01_L_Forearm" 3
  5 "ValveBiped.Bip01_L_Hand" 4
  6 "ValveBiped.Bip01_L_Finger4" 5
  7 "ValveBiped.Bip01_L_Finger41" 6
  8 "ValveBiped.Bip01_L_Finger42" 7
  9 "ValveBiped.Bip01_L_Finger3" 5
  10 "ValveBiped.Bip01_L_Finger31" 9
  11 "ValveBiped.Bip01_L_Finger32" 10
  12 "ValveBiped.Bip01_L_Finger2" 5
  13 "ValveBiped.Bip01_L_Finger21" 12
  14 "ValveBiped.Bip01_L_Finger22" 13
  15 "ValveBiped.Bip01_L_Finger1" 5
  16 "ValveBiped.Bip01_L_Finger11" 15
  17 "ValveBiped.Bip01_L_Finger12" 16
  18 "ValveBiped.Bip01_L_Finger0" 5
  19 "ValveBiped.Bip01_L_Finger01" 18
  20 "ValveBiped.Bip01_L_Finger02" 19
  21 "Detonator" 5
  22 "ValveBiped.Bip01_R_Clavicle" 1
  23 "ValveBiped.Bip01_R_UpperArm" 22
  24 "ValveBiped.Bip01_R_Forearm" 23
  25 "ValveBiped.Bip01_R_Hand" 24
  26 "ValveBiped.Bip01_R_Finger4" 25
  27 "ValveBiped.Bip01_R_Finger41" 26
  28 "ValveBiped.Bip01_R_Finger42" 27
  29 "ValveBiped.Bip01_R_Finger3" 25
  30 "ValveBiped.Bip01_R_Finger31" 29
  31 "ValveBiped.Bip01_R_Finger32" 30
  32 "ValveBiped.Bip01_R_Finger2" 25
  33 "ValveBiped.Bip01_R_Finger21" 32
  34 "ValveBiped.Bip01_R_Finger22" 33
  35 "ValveBiped.Bip01_R_Finger1" 25
  36 "ValveBiped.Bip01_R_Finger11" 35
  37 "ValveBiped.Bip01_R_Finger12" 36
  38 "ValveBiped.Bip01_R_Finger0" 25
  39 "ValveBiped.Bip01_R_Finger01" 38
  40 "ValveBiped.Bip01_R_Finger02" 39
  41 "Slam_base" 25
  42 "HandControlPosParentL" 1
  43 "UpperArmControlL" 42
  44 "HandControlPosL" 43
  45 "HandControlPosParentR" 1
  46 "UpperArmControlR" 45
  47 "HandControlPosR" 46
  48 "HandControlRotGrandmaL" 1
  49 "HandControlRotParentL" 48
  50 "HandControlRotL" 49
  51 "HandControlRotL1" 50
  52 "HandControlRotConstrainerL" 51
  53 "HandControlRotGrandmaR" 1
  54 "HandControlRotParentR" 53
  55 "HandControlRotR" 54
  56 "HandControlRotR1" 55
  57 "HandControlRotConstrainerR" 56
end
skeleton
  time 0
    0 0.000000 0.000000 -67.998169 1.570796 0.000000 0.000000
    1 0.000000 59.000000 1.996216 0.000000 0.000000 0.000000
    2 1.937660 1.174958 0.010475 0.006897 -0.005535 -0.284229
    3 6.028143 -0.000002 0.000000 -1.194135 -0.004235 -1.019104
    4 11.692555 0.000000 0.000000 0.000000 0.000000 -1.211117
    5 11.481671 -0.000001 -0.000032 1.604631 -0.200856 0.043973
    6 3.859704 -0.142405 -1.191976 -0.319953 0.094018 -1.042979
    7 1.312562 0.000000 0.000000 0.000000 0.000000 -1.494899
    8 0.729363 0.000001 -0.000002 0.000000 0.000000 -1.428325
    9 3.942325 0.046771 -0.431444 -0.120443 0.068499 -0.919804
    10 1.539093 0.000000 -0.000001 0.000000 0.000000 -1.191886
    11 1.196322 0.000001 -0.000001 0.000000 0.000000 -1.711911
    12 3.883687 -0.046771 0.431443 0.166007 0.072693 -0.591067
    13 1.719575 -0.000001 -0.000003 0.000000 0.000003 -1.314572
    14 1.209183 0.000002 0.000000 0.000000 0.000004 -1.213847
    15 3.859859 -0.137948 1.332463 0.263873 -0.198889 -0.341237
    16 1.719428 -0.000001 0.000000 0.000000 0.000000 -0.826631
    17 1.099666 0.000001 0.000001 0.000000 0.000000 -0.697327
    18 0.806046 -0.348922 1.321256 -1.209015 -0.877792 -0.755196
    19 1.789786 -0.000001 0.000001 0.000000 0.000000 0.482669
    20 1.206999 -0.000003 0.000001 0.000000 0.000000 0.726106
    21 1.085958 -11.442460 -66.779285 1.278926 0.000010 1.518250
    22 -1.937610 1.174966 0.010480 3.062865 -0.005537 -2.857366
    23 6.028143 -0.000001 0.000000 1.674882 1.164011 -0.349159
    24 11.692554 -0.000001 0.000000 0.000000 0.000000 -0.615182
    25 11.481701 0.000000 -0.000001 -0.570502 0.541005 -0.065283
    26 3.859674 -0.132568 1.193108 0.470138 -0.150011 -0.814073
    27 1.312562 0.000000 0.000002 0.000000 0.000000 0.000000
    28 0.729364 0.000000 -0.000001 0.000000 0.000000 -0.000009
    29 3.942296 0.050328 0.431040 0.149785 -0.073619 -0.733622
    30 1.539098 0.000001 0.000001 0.000000 0.000000 -0.012892
    31 1.196322 0.000000 0.000000 0.000000 0.000000 -0.000017
    32 3.883659 -0.050328 -0.431046 -0.087691 -0.023648 -0.520333
    33 1.719577 0.000000 0.000000 0.000000 -0.000004 -0.000001
    34 1.209182 0.000000 -0.000001 0.000000 -0.000003 -0.000010
    35 3.859830 -0.148935 -1.331283 -0.352442 0.040173 -0.463331
    36 1.719426 0.000002 0.000001 0.000000 -0.000010 -0.000005
    37 1.099666 -0.000001 -0.000001 0.000000 -0.000004 -0.000006
    38 0.806017 -0.359833 -1.318335 0.449109 0.600284 -1.719077
    39 1.789784 0.000001 -0.000001 0.000000 0.000000 0.000001
    40 1.206998 -0.000001 -0.000001 0.000000 0.000000 0.000011
    41 -22.026480 -30.449053 58.217368 -1.333915 0.016331 -0.810754
    42 7.723854 -0.515411 0.043839 0.000000 0.000000 0.000000
    43 0.000000 0.000001 0.000000 0.000000 0.000000 0.000000
    44 0.260770 -16.227502 9.983499 0.000000 0.000000 0.000000
    45 -7.723807 -0.515392 0.043857 0.000000 0.000000 0.000000
    46 0.000000 0.000001 0.000000 0.000000 0.000000 0.000000
    47 -1.647020 -2.422125 21.894246 0.000000 0.000000 0.000000
    48 10.813526 -11.790300 0.060143 -0.713370 -1.051028 4.193524
    49 11.481672 -0.000001 -0.000032 1.573183 -0.106613 0.044193
    50 0.000000 0.000000 -0.000001 0.031412 0.000000 0.094242
    51 0.000000 0.000000 -0.000001 0.000000 0.000000 0.000000
    52 0.000000 0.000000 -0.000001 0.000000 0.000000 0.000000
    53 -11.160064 -4.039161 10.652091 1.747900 -1.386536 0.554536
    54 11.481699 0.000001 0.000000 -1.564936 0.106606 0.044193
    55 0.000001 0.000000 0.000000 1.075966 0.204184 -0.710755
    56 0.000000 0.000000 0.000000 0.194845 0.933849 0.786606
    57 0.000000 0.000000 0.000000 0.000000 0.000000 0.000000
  time 1
    0 0.000000 0.000000 -67.998169 1.570796 0.000000 0.000000
    1 0.000000 59.000000 1.996216 0.000000 0.000000 0.000000
    2 1.937660 1.174958 0.010475 0.006897 -0.005535 -0.284229
    3 6.028143 -0.000002 0.000000 -1.202309 -0.029908 -1.019053
    4 11.692555 0.000000 0.000000 0.000000 0.000000 -1.220393
    5 11.481671 -0.000001 -0.000032 1.603372 -0.183550 0.044200
    6 3.859704 -0.142405 -1.191976 -0.319953 0.094006 -1.042979
    7 1.312562 0.000000 0.000000 0.000000 0.000000 -1.494899
    8 0.729363 0.000001 -0.000002 0.000000 0.000000 -1.428325
    9 3.942325 0.046771 -0.431444 -0.120443 0.068499 -0.919804
    10 1.539093 0.000000 -0.000001 0.000000 0.000000 -1.191886
    11 1.196322 0.000001 -0.000001 0.000000 0.000000 -1.711911
    12 3.883687 -0.046771 0.431443 0.166007 0.072693 -0.591067
    13 1.719575 -0.000001 -0.000003 0.000000 0.000003 -1.314572
    14 1.209183 0.000002 0.000000 0.000000 0.000004 -1.213847
    15 3.859859 -0.137948 1.332463 0.263873 -0.198889 -0.341237
    16 1.719428 -0.000001 0.000000 0.000000 0.000000 -0.826631
    17 1.099666 0.000001 0.000001 0.000000 0.000000 -0.697327
    18 0.806046 -0.348922 1.321256 -1.209015 -0.877792 -0.755196
    19 1.789786 -0.000001 0.000001 0.000000 0.000000 0.482669
    20 1.206999 -0.000003 0.000001 0.000000 0.000000 0.726106
    21 1.085958 -11.442460 -66.779285 1.278926 0.000010 1.518250
    22 -1.937610 1.174966 0.010480 3.051612 -0.504963 -2.814185
    23 6.028143 -0.000001 0.000000 1.880955 0.433182 -0.171476
    24 11.692554 -0.000001 0.000000 0.000000 0.000000 -0.988567
    25 11.481701 0.000000 -0.000001 -0.690929 0.579531 -0.148065
    26 3.859674 -0.132568 1.193108 0.470509 -0.154242 -0.817908
    27 1.312562 0.000000 0.000002 0.000000 0.000000 -0.040779
    28 0.729364 0.000000 -0.000001 0.000000 0.000000 -0.039338
    29 3.942296 0.050328 0.431040 0.150828 -0.072192 -0.748591
    30 1.539098 0.000001 0.000001 0.000000 0.000000 -0.050009
    31 1.196322 0.000000 0.000000 0.000000 0.000000 -0.063974
    32 3.883659 -0.050328 -0.431046 -0.087020 -0.025577 -0.546090
    33 1.719577 0.000000 0.000000 -0.000216 -0.000831 -0.061634
    34 1.209182 0.000000 -0.000001 -0.000096 -0.000470 -0.042760
    35 3.859830 -0.148935 -1.331283 -0.353113 0.032826 -0.490086
    36 1.719426 0.000002 0.000001 -0.000180 -0.000693 -0.061258
    37 1.099666 -0.000001 -0.000001 -0.000120 -0.000436 -0.054164
    38 0.806017 -0.359833 -1.318335 0.517327 0.576962 -1.687996
    39 1.789784 0.000001 -0.000001 0.000000 0.000000 0.033882
    40 1.206998 -0.000001 -0.000001 0.000000 0.000000 0.030680
    41 -22.046012 -30.433428 58.275964 -1.333915 0.016331 -0.810754
    42 7.723854 -0.515411 0.043839 0.000000 0.000000 0.000000
    43 0.000000 0.000001 0.000000 0.000000 0.000000 0.000000
    44 0.225613 -15.860303 10.448357 0.000000 0.000000 0.000000
    45 -6.934720 -0.519298 2.926757 0.000000 0.000000 0.000000
    46 0.000000 0.000001 0.000000 0.000000 0.000000 0.000000
    47 -3.147066 -1.785387 20.077785 0.000000 0.000000 0.000000
    48 10.809620 -11.786394 0.360934 -0.673927 -1.080640 4.155238
    49 11.481672 -0.000001 -0.000032 1.573183 -0.106613 0.044193
    50 0.000000 0.000000 -0.000001 0.030201 0.000180 0.076936
    51 0.000000 0.000000 -0.000001 0.000000 0.000000 0.000000
    52 0.000000 0.000000 -0.000001 0.000000 0.000000 0.000000
    53 -12.710893 -4.851686 12.120886 1.477393 -1.246249 0.769942
    54 11.481699 0.000001 0.000000 -1.564936 0.106606 0.044193
    55 0.000001 0.000000 0.000000 0.984588 0.167263 -0.674396
    56 0.000000 0.000000 0.000000 0.195001 0.933849 0.786606
    57 0.000000 0.000000 0.000000 0.000000 0.000000 0.000000
  time 2
    0 0.000000 0.000000 -67.998169 1.570796 0.000000 0.000000
    1 0.000000 59.000000 1.996216 0.000000 0.000000 0.000000
    2 1.937660 1.174958 0.010475 0.006897 -0.005535 -0.284229
    3 6.028143 -0.000002 0.000000 -1.222299 -0.105658 -1.020317
    4 11.692555 0.000000 0.000000 0.000000 0.000000 -1.240335
    5 11.481671 -0.000001 -0.000032 1.614638 -0.146494 0.043122
    6 3.859704 -0.142405 -1.191976 -0.319953 0.094006 -1.042979
    7 1.312562 0.000000 0.000000 0.000000 0.000000 -1.494934
    8 0.729363 0.000001 -0.000002 0.000000 0.000000 -1.428325
    9 3.942325 0.046771 -0.431444 -0.120443 0.068499 -0.919804
    10 1.539093 0.000000 -0.000001 0.000000 0.000000 -1.191886
    11 1.196322 0.000001 -0.000001 0.000000 0.000000 -1.711911
    12 3.883687 -0.046771 0.431443 0.166007 0.072693 -0.591067
    13 1.719575 -0.000001 -0.000003 0.000000 0.000003 -1.314572
    14 1.209183 0.000002 0.000000 0.000000 0.000004 -1.213847
    15 3.859859 -0.137948 1.332463 0.263873 -0.198889 -0.341237
    16 1.719428 -0.000001 0.000000 0.000000 0.000000 -0.826631
    17 1.099666 0.000001 0.000001 0.000000 0.000000 -0.697327
    18 0.806046 -0.348922 1.321256 -1.209015 -0.877792 -0.755196
    19 1.789786 -0.000001 0.000001 0.000000 0.000000 0.482669
    20 1.206999 -0.000003 0.000001 0.000000 0.000000 0.726106
    21 1.085958 -11.442460 -66.779285 1.278926 0.000010 1.518250
    22 -1.937610 1.174966 0.010480 3.054320 -0.445993 -2.820082
    23 6.028143 -0.000001 0.000000 1.922332 0.110336 -0.113653
    24 11.692554 -0.000001 0.000000 0.000000 0.000000 -1.424135
    25 11.481701 0.000000 -0.000001 -1.019610 0.637547 -0.381944
    26 3.859674 -0.132568 1.193108 0.469275 -0.166334 -0.825482
    27 1.312562 0.000000 0.000002 0.000000 0.000000 -0.191444
    28 0.729364 0.000000 -0.000001 0.000000 0.000000 -0.064196
    29 3.942296 0.050328 0.431040 0.153560 -0.067315 -0.794528
    30 1.539098 0.000001 0.000001 0.000000 0.000000 -0.092086
    31 1.196322 0.000000 0.000000 0.000000 0.000000 -0.279323
    32 3.883659 -0.050328 -0.431046 -0.085114 -0.030323 -0.610795
    33 1.719577 0.000000 0.000000 -0.000539 -0.002952 -0.216420
    34 1.209182 0.000000 -0.000001 -0.000264 -0.001657 -0.152387
    35 3.859830 -0.148935 -1.331283 -0.353928 0.014298 -0.557260
    36 1.719426 0.000002 0.000001 -0.000443 -0.002454 -0.215128
    37 1.099666 -0.000001 -0.000001 -0.000312 -0.001562 -0.193042
    38 0.806017 -0.359833 -1.318335 0.693178 0.513959 -1.605070
    39 1.789784 0.000001 -0.000001 0.000000 0.000000 0.099318
    40 1.206998 -0.000001 -0.000001 0.000000 0.000000 0.115866
    41 -22.088982 -30.394364 58.408780 -1.333915 0.016331 -0.810754
    42 7.723854 -0.515411 0.043839 0.000000 0.000000 0.000000
    43 0.000000 0.000001 0.000000 0.000000 0.000000 0.000000
    44 0.084983 -14.786052 11.706208 0.000000 0.000000 0.000000
    45 -7.098788 -0.542736 2.610342 0.000000 0.000000 0.000000
    46 0.000000 0.000001 0.000000 0.000000 0.000000 0.000000
    47 -6.127625 -0.515817 16.433142 0.000000 0.000000 0.000000
    48 10.774462 -11.735611 1.243773 -0.533960 -1.155229 4.018992
    49 11.481672 -0.000001 -0.000032 1.573183 -0.106613 0.044193
    50 0.000000 0.000000 -0.000001 0.041299 -0.000959 0.039892
    51 0.000000 0.000000 -0.000001 0.000000 0.000000 0.000000
    52 0.000000 0.000000 -0.000001 0.000000 0.000000 0.000000
    53 -16.050838 -5.027472 8.648124 1.152465 -1.132404 0.952670
    54 11.481699 0.000001 0.000000 -1.564936 0.106606 0.044193
    55 0.000001 0.000000 0.000000 0.752274 0.088459 -0.567151
    56 0.000000 0.000000 0.000000 0.195361 0.933849 0.786606
    57 0.000000 0.000000 0.000000 0.000000 0.000000 0.000000
  time 3
    0 0.000000 0.000000 -67.998169 1.570796 0.000000 0.000000
    1 0.000000 59.000000 1.996216 0.000000 0.000000 0.000000
    2 1.937660 1.174958 0.010475 0.006897 -0.005535 -0.284229
    3 6.028143 -0.000002 0.000000 -1.244986 -0.234317 -1.026432
    4 11.692555 0.000000 0.000000 0.000000 0.000000 -1.241198
    5 11.481671 -0.000001 -0.000032 1.644216 -0.105770 0.037788
    6 3.859704 -0.142405 -1.191976 -0.319953 0.094006 -1.042979
    7 1.312562 0.000000 0.000000 0.000000 0.000000 -1.494899
    8 0.729363 0.000001 -0.000002 0.000000 0.000000 -1.428325
    9 3.942325 0.046771 -0.431444 -0.120443 0.068499 -0.919804
    10 1.539093 0.000000 -0.000001 0.000000 0.000000 -1.191886
    11 1.196322 0.000001 -0.000001 0.000000 0.000000 -1.711946
    12 3.883687 -0.046771 0.431443 0.166007 0.072693 -0.591067
    13 1.719575 -0.000001 -0.000003 0.000000 0.000003 -1.314572
    14 1.209183 0.000002 0.000000 0.000000 0.000004 -1.213847
    15 3.859859 -0.137948 1.332463 0.263873 -0.198889 -0.341237
    16 1.719428 -0.000001 0.000000 0.000000 0.000000 -0.826631
    17 1.099666 0.000001 0.000001 0.000000 0.000000 -0.697327
    18 0.806046 -0.348922 1.321256 -1.209015 -0.877792 -0.755196
    19 1.789786 -0.000001 0.000001 0.000000 0.000000 0.482669
    20 1.206999 -0.000003 0.000001 0.000000 0.000000 0.726106
    21 1.085958 -11.442460 -66.779285 1.278926 0.000010 1.518250
    22 -1.937610 1.174966 0.010480 3.057389 -0.362575 -2.827884
    23 6.028143 -0.000001 0.000000 2.044356 -0.209279 -0.046064
    24 11.692554 -0.000001 0.000000 0.000000 0.000000 -1.676985
    25 11.481701 0.000000 -0.000001 -1.447282 0.625723 -0.687710
    26 3.859674 -0.132568 1.193108 0.464014 -0.181039 -0.834195
    27 1.312562 0.000000 0.000002 0.000000 0.000000 -0.360470
    28 0.729364 0.000000 -0.000001 0.000000 0.000000 -0.118713
    29 3.942296 0.050328 0.431040 0.155214 -0.063000 -0.839003
    30 1.539098 0.000001 0.000001 0.000000 0.000000 -0.170993
    31 1.196322 0.000000 0.000000 0.000000 0.000000 -0.522528
    32 3.883659 -0.050328 -0.431046 -0.082394 -0.035932 -0.689379
    33 1.719577 0.000000 0.000000 -0.000491 -0.005565 -0.404287
    34 1.209182 0.000000 -0.000001 -0.000264 -0.003107 -0.294806
    35 3.859830 -0.148935 -1.331283 -0.353233 -0.008209 -0.638812
    36 1.719426 0.000002 0.000001 -0.000407 -0.004612 -0.401884
    37 1.099666 -0.000001 -0.000001 -0.000324 -0.002941 -0.373518
    38 0.806017 -0.359833 -1.318335 0.903390 0.438133 -1.510657
    39 1.789784 0.000001 -0.000001 0.000000 0.000000 0.183617
    40 1.206998 -0.000001 -0.000001 0.000000 0.000000 0.215854
    41 -22.128045 -30.359207 58.545503 -1.333915 0.016331 -0.810754
    42 7.723854 -0.515411 0.043839 0.000000 0.000000 0.000000
    43 0.000000 0.000001 0.000000 0.000000 0.000000 0.000000
    44 -0.215807 -13.133657 13.522670 0.000000 0.000000 0.000000
    45 -7.301919 -0.562268 2.145484 0.000000 0.000000 0.000000
    46 0.000000 0.000001 0.000000 0.000000 0.000000 0.000000
    47 -9.670702 1.027199 12.061915 0.000000 0.000000 0.000000
    48 10.629927 -11.516854 2.724287 -0.247437 -1.235065 3.740703
    49 11.481672 -0.000001 -0.000032 1.573183 -0.106613 0.044193
    50 0.000000 0.000000 -0.000001 0.070362 -0.006376 -0.000832
    51 0.000000 0.000000 -0.000001 0.000000 0.000000 0.000000
    52 0.000000 0.000000 -0.000001 0.000000 0.000000 0.000000
    53 -18.191529 -4.433704 3.897979 0.593817 -1.115511 1.326892
    54 11.481699 0.000001 0.000000 -1.564936 0.106606 0.044193
    55 0.000001 0.000000 0.000000 0.459101 0.025693 -0.403937
    56 0.000000 0.000000 0.000000 0.196547 0.933849 0.786606
    57 0.000000 0.000000 0.000000 0.000000 0.000000 0.000000
  time 4
    0 0.000000 0.000000 -67.998169 1.570796 0.000000 0.000000
    1 0.000000 59.000000 1.996216 0.000000 0.000000 0.000000
    2 1.937660 1.174958 0.010475 0.006897 -0.005535 -0.284229
    3 6.028143 -0.000002 0.000000 -1.259092 -0.386678 -1.037602
    4 11.692555 0.000000 0.000000 0.000000 0.000000 -1.209103
    5 11.481671 -0.000001 -0.000032 1.659999 -0.066868 0.033953
    6 3.859704 -0.142405 -1.191976 -0.319953 0.094006 -1.042979
    7 1.312562 0.000000 0.000000 0.000000 0.000000 -1.494899
    8 0.729363 0.000001 -0.000002 0.000000 0.000000 -1.428325
    9 3.942325 0.046771 -0.431444 -0.120443 0.068499 -0.919804
    10 1.539093 0.000000 -0.000001 0.000000 0.000000 -1.191886
    11 1.196322 0.000001 -0.000001 0.000000 0.000000 -1.711911
    12 3.883687 -0.046771 0.431443 0.166007 0.072693 -0.591067
    13 1.719575 -0.000001 -0.000003 0.000000 0.000003 -1.314572
    14 1.209183 0.000002 0.000000 0.000000 0.000004 -1.213847
    15 3.859859 -0.137948 1.332463 0.263873 -0.198889 -0.341237
    16 1.719428 -0.000001 0.000000 0.000000 0.000000 -0.826631
    17 1.099666 0.000001 0.000001 0.000000 0.000000 -0.697327
    18 0.806046 -0.348922 1.321256 -1.209015 -0.877792 -0.755196
    19 1.789786 -0.000001 0.000001 0.000000 0.000000 0.482669
    20 1.206999 -0.000003 0.000001 0.000000 0.000000 0.726106
    21 1.085958 -11.442460 -66.779285 1.278926 0.000010 1.518250
    22 -1.937610 1.174966 0.010480 3.059977 -0.266887 -2.836237
    23 6.028143 -0.000001 0.000000 2.229133 -0.417187 -0.026151
    24 11.692554 -0.000001 0.000000 0.000000 0.000000 -1.688056
    25 11.481701 0.000000 -0.000001 -1.777448 0.565205 -0.903282
    26 3.859674 -0.132568 1.193108 0.457374 -0.191178 -0.840942
    27 1.312562 0.000000 0.000002 0.000000 0.000000 -0.486261
    28 0.729364 0.000000 -0.000001 0.000000 0.000000 -0.163672
    29 3.942296 0.050328 0.431040 0.155802 -0.059609 -0.872104
    30 1.539098 0.000001 0.000001 0.000000 0.000000 -0.233013
    31 1.196322 0.000000 0.000000 0.000000 0.000000 -0.706737
    32 3.883659 -0.050328 -0.431046 -0.080021 -0.040042 -0.749309
    33 1.719577 0.000000 0.000000 -0.000120 -0.007519 -0.547561
    34 1.209182 0.000000 -0.000001 -0.000096 -0.004209 -0.420470
    35 3.859830 -0.148935 -1.331283 -0.351471 -0.025287 -0.701041
    36 1.719426 0.000002 0.000001 -0.000108 -0.006230 -0.544297
    37 1.099666 -0.000001 -0.000001 -0.000120 -0.003971 -0.532829
    38 0.806017 -0.359833 -1.318335 1.059649 0.380858 -1.437223
    39 1.789784 0.000001 -0.000001 0.000000 0.000000 0.249401
    40 1.206998 -0.000001 -0.000001 0.000000 0.000000 0.292112
    41 -22.147577 -30.343581 58.604099 -1.333915 0.016331 -0.810754
    42 7.723854 -0.515411 0.043839 0.000000 0.000000 0.000000
    43 0.000000 0.000001 0.000000 0.000000 0.000000 0.000000
    44 -0.657227 -11.293757 15.346944 0.000000 0.000000 0.000000
    45 -7.485518 -0.570081 1.598592 0.000000 0.000000 0.000000
    46 0.000000 0.000001 0.000000 0.000000 0.000000 0.000000
    47 -12.963772 2.495993 7.925070 0.000000 0.000000 0.000000
    48 10.360387 -11.036371 4.419651 0.131150 -1.271553 3.373678
    49 11.481672 -0.000001 -0.000032 1.573183 -0.106613 0.044193
    50 0.000000 0.000000 -0.000001 0.086133 -0.010319 -0.039710
    51 0.000000 0.000000 -0.000001 0.000000 0.000000 0.000000
    52 0.000000 0.000000 -0.000001 0.000000 0.000000 0.000000
    53 -18.539195 -3.941502 -0.156833 -0.097047 -1.003398 1.885270
    54 11.481699 0.000001 0.000000 -1.564936 0.106606 0.044193
    55 0.000001 0.000000 0.000000 0.230793 0.005175 -0.243054
    56 0.000000 0.000000 0.000000 0.197806 0.933849 0.786606
    57 0.000000 0.000000 0.000000 0.000000 0.000000 0.000000
  time 5
    0 0.000000 0.000000 -67.998169 1.570796 0.000000 0.000000
    1 0.000000 59.000000 1.996216 0.000000 0.000000 0.000000
    2 1.937660 1.174958 0.010475 0.006897 -0.005535 -0.284229
    3 6.028143 -0.000002 0.000000 -1.269734 -0.465713 -1.033887
    4 11.692555 0.000000 0.000000 0.000000 0.000000 -1.189233
    5 11.481671 -0.000001 -0.000032 1.635371 -0.041892 0.037657
    6 3.859704 -0.142405 -1.191976 -0.319953 0.093982 -1.043039
    7 1.312562 0.000000 0.000000 0.000000 0.000000 -1.494899
    8 0.729363 0.000001 -0.000002 0.000000 0.000000 -1.428325
    9 3.942325 0.046771 -0.431444 -0.120443 0.068487 -0.919864
    10 1.539093 0.000000 -0.000001 0.000000 0.000000 -1.191886
    11 1.196322 0.000001 -0.000001 0.000000 0.000000 -1.711911
    12 3.883687 -0.046771 0.431443 0.166007 0.072693 -0.591067
    13 1.719575 -0.000001 -0.000003 0.000000 0.000003 -1.314572
    14 1.209183 0.000002 0.000000 0.000000 0.000004 -1.213847
    15 3.859859 -0.137948 1.332463 0.263873 -0.198889 -0.341237
    16 1.719428 -0.000001 0.000000 0.000000 0.000000 -0.826631
    17 1.099666 0.000001 0.000001 0.000000 0.000000 -0.697327
    18 0.806046 -0.348922 1.321256 -1.209015 -0.877780 -0.755196
    19 1.789786 -0.000001 0.000001 0.000000 0.000000 0.482669
    20 1.206999 -0.000003 0.000001 0.000000 0.000000 0.726106
    21 1.085958 -11.442460 -66.779285 1.278926 0.000010 1.518250
    22 -1.937610 1.174966 0.010480 3.061703 -0.171138 -2.844171
    23 6.028143 -0.000001 0.000000 2.288243 -0.384864 -0.021652
    24 11.692554 -0.000001 0.000000 0.000000 0.000000 -1.644770
    25 11.481701 0.000000 -0.000001 -1.896510 0.529538 -0.972624
    26 3.859674 -0.132568 1.193108 0.454977 -0.193923 -0.842788
    27 1.312562 0.000000 0.000002 0.000000 0.000000 -0.524292
    28 0.729364 0.000000 -0.000001 0.000000 0.000000 -0.176483
    29 3.942296 0.050328 0.431040 0.155909 -0.058506 -0.882123
    30 1.539098 0.000001 0.000001 0.000000 0.000000 -0.251230
    31 1.196322 0.000000 0.000000 0.000000 0.000000 -0.762008
    32 3.883659 -0.050328 -0.431046 -0.079266 -0.041253 -0.767231
    33 1.719577 0.000000 0.000000 0.000024 -0.008070 -0.590371
    34 1.209182 0.000000 -0.000001 0.000000 -0.004521 -0.472443
    35 3.859830 -0.148935 -1.331283 -0.350740 -0.030356 -0.719628
    36 1.719426 0.000002 0.000001 0.000024 -0.006697 -0.586866
    37 1.099666 -0.000001 -0.000001 0.000000 -0.004259 -0.598756
    38 0.806017 -0.359833 -1.318335 1.105242 0.363936 -1.413187
    39 1.789784 0.000001 -0.000001 0.000000 0.000000 0.268912
    40 1.206998 -0.000001 -0.000001 0.000000 0.000000 0.314942
    41 -22.120233 -30.367019 58.518159 -1.333915 0.016331 -0.810754
    42 7.723854 -0.515411 0.043839 0.000000 0.000000 0.000000
    43 0.000000 0.000001 0.000000 0.000000 0.000000 0.000000
    44 -0.750980 -10.258570 16.206346 0.000000 0.000000 0.000000
    45 -7.618335 -0.562268 1.036075 0.000000 0.000000 0.000000
    46 0.000000 0.000001 0.000000 0.000000 0.000000 0.000000
    47 -13.959896 2.937413 6.718002 0.000000 0.000000 0.000000
    48 10.297885 -10.657453 5.259521 0.340744 -1.276650 3.177513
    49 11.481672 -0.000001 -0.000032 1.573183 -0.106613 0.044193
    50 0.000000 0.000000 -0.000001 0.061912 -0.006687 -0.064698
    51 0.000000 0.000000 -0.000001 0.000000 0.000000 0.000000
    52 0.000000 0.000000 -0.000001 0.000000 0.000000 0.000000
    53 -18.570446 -3.800873 -1.445934 -0.259806 -0.929477 2.023603
    54 11.481699 0.000001 0.000000 -1.564936 0.106606 0.044193
    55 0.000001 0.000000 0.000000 0.144277 0.003783 -0.178632
    56 0.000000 0.000000 0.000000 0.197878 0.933849 0.786606
    57 0.000000 0.000000 0.000000 0.000000 0.000000 0.000000
end
