// Created by Crowbar 0.74
version 1
nodes
  0 "Scene_Root" -1
  1 "Rig_base" 0
  2 "ValveBiped.Bip01_L_Clavicle" 1
  3 "ValveBiped.Bip01_L_UpperArm" 2
  4 "ValveBiped.Bip01_L_Forearm" 3
  5 "ValveBiped.Bip01_L_Hand" 4
  6 "ValveBiped.Bip01_L_Finger4" 5
  7 "ValveBiped.Bip01_L_Finger41" 6
  8 "ValveBiped.Bip01_L_Finger42" 7
  9 "ValveBiped.Bip01_L_Finger3" 5
  10 "ValveBiped.Bip01_L_Finger31" 9
  11 "ValveBiped.Bip01_L_Finger32" 10
  12 "ValveBiped.Bip01_L_Finger2" 5
  13 "ValveBiped.Bip01_L_Finger21" 12
  14 "ValveBiped.Bip01_L_Finger22" 13
  15 "ValveBiped.Bip01_L_Finger1" 5
  16 "ValveBiped.Bip01_L_Finger11" 15
  17 "ValveBiped.Bip01_L_Finger12" 16
  18 "ValveBiped.Bip01_L_Finger0" 5
  19 "ValveBiped.Bip01_L_Finger01" 18
  20 "ValveBiped.Bip01_L_Finger02" 19
  21 "Detonator" 5
  22 "ValveBiped.Bip01_R_Clavicle" 1
  23 "ValveBiped.Bip01_R_UpperArm" 22
  24 "ValveBiped.Bip01_R_Forearm" 23
  25 "ValveBiped.Bip01_R_Hand" 24
  26 "ValveBiped.Bip01_R_Finger4" 25
  27 "ValveBiped.Bip01_R_Finger41" 26
  28 "ValveBiped.Bip01_R_Finger42" 27
  29 "ValveBiped.Bip01_R_Finger3" 25
  30 "ValveBiped.Bip01_R_Finger31" 29
  31 "ValveBiped.Bip01_R_Finger32" 30
  32 "ValveBiped.Bip01_R_Finger2" 25
  33 "ValveBiped.Bip01_R_Finger21" 32
  34 "ValveBiped.Bip01_R_Finger22" 33
  35 "ValveBiped.Bip01_R_Finger1" 25
  36 "ValveBiped.Bip01_R_Finger11" 35
  37 "ValveBiped.Bip01_R_Finger12" 36
  38 "ValveBiped.Bip01_R_Finger0" 25
  39 "ValveBiped.Bip01_R_Finger01" 38
  40 "ValveBiped.Bip01_R_Finger02" 39
  41 "Slam_base" 25
  42 "HandControlPosParentL" 1
  43 "UpperArmControlL" 42
  44 "HandControlPosL" 43
  45 "HandControlPosParentR" 1
  46 "UpperArmControlR" 45
  47 "HandControlPosR" 46
  48 "HandControlRotGrandmaL" 1
  49 "HandControlRotParentL" 48
  50 "HandControlRotL" 49
  51 "HandControlRotL1" 50
  52 "HandControlRotConstrainerL" 51
  53 "HandControlRotGrandmaR" 1
  54 "HandControlRotParentR" 53
  55 "HandControlRotR" 54
  56 "HandControlRotR1" 55
  57 "HandControlRotConstrainerR" 56
end
skeleton
  time 0
    0 0.000000 0.000000 -67.998169 1.570796 0.000000 0.000000
    1 0.000000 59.000000 1.996216 0.000000 0.000000 0.000000
    2 1.937660 1.174958 0.010475 0.006897 -0.005535 -0.284229
    3 6.028143 -0.000002 0.000000 -1.660012 -0.149164 -0.531294
    4 11.692555 0.000000 0.000000 0.000000 0.000000 -1.068980
    5 11.481671 -0.000001 -0.000032 1.348676 -0.082892 0.047868
    6 3.859704 -0.142405 -1.191976 -0.319953 0.094042 -1.042932
    7 1.312562 0.000000 0.000000 0.000000 0.000000 -1.494899
    8 0.729363 0.000001 -0.000002 0.000000 0.000000 -1.428325
    9 3.942325 0.046771 -0.431444 -0.120431 0.068511 -0.919744
    10 1.539093 0.000000 -0.000001 0.000000 0.000000 -1.191886
    11 1.196322 0.000001 -0.000001 0.000000 0.000000 -1.711911
    12 3.883687 -0.046771 0.431443 0.166007 0.072693 -0.591067
    13 1.719575 -0.000001 -0.000003 0.000000 0.000003 -1.314572
    14 1.209183 0.000002 0.000000 0.000000 0.000004 -1.213847
    15 3.859859 -0.137948 1.332463 0.263873 -0.198889 -0.341237
    16 1.719428 -0.000001 0.000000 0.000000 0.000000 -0.826631
    17 1.099666 0.000001 0.000001 0.000000 0.000000 -0.697327
    18 0.806046 -0.348922 1.321256 -1.209003 -0.877804 -0.755208
    19 1.789786 -0.000001 0.000001 0.000000 0.000000 0.482669
    20 1.206999 -0.000003 0.000001 0.000000 0.000000 0.726106
    21 1.085958 -11.442460 -66.779285 1.278926 0.000010 1.518250
    22 -1.937610 1.174966 0.010480 3.062865 -0.005537 -2.857366
    23 6.028143 -0.000001 0.000000 2.344518 -0.152850 0.069775
    24 11.692554 -0.000001 0.000000 0.000000 0.000000 -1.641107
    25 11.481701 0.000000 -0.000001 -2.112781 1.072830 -1.172702
    26 3.859674 -0.132568 1.193108 0.455445 -0.193408 -0.842441
    27 1.312562 0.000000 0.000002 0.000000 0.000000 -0.517214
    28 0.729364 0.000000 -0.000001 0.000000 0.000000 -0.174104
    29 3.942296 0.050328 0.431040 0.155885 -0.058710 -0.880254
    30 1.539098 0.000001 0.000001 0.000000 0.000000 -0.247838
    31 1.196322 0.000000 0.000000 0.000000 0.000000 -0.751734
    32 3.883659 -0.050328 -0.431046 -0.079409 -0.041025 -0.763903
    33 1.719577 0.000000 0.000000 0.000000 -0.007974 -0.582412
    34 1.209182 0.000000 -0.000001 0.000000 -0.004461 -0.471629
    35 3.859830 -0.148935 -1.331283 -0.350884 -0.029422 -0.716178
    36 1.719426 0.000002 0.000001 0.000000 -0.006613 -0.578944
    37 1.099666 -0.000001 -0.000001 0.000000 -0.004211 -0.597737
    38 0.806017 -0.359833 -1.318335 1.096836 0.367424 -1.417069
    39 1.789784 0.000001 -0.000001 0.000000 0.000000 0.265280
    40 1.206998 -0.000001 -0.000001 0.000000 0.000000 0.310700
    41 -128.373475 19.716540 5.832957 -1.333915 0.016331 -0.810754
    42 7.723854 -0.515411 0.043839 0.000000 0.000000 0.000000
    43 0.000000 0.000001 0.000000 0.000000 0.000000 0.000000
    44 11.210323 -10.754678 12.503108 0.000000 0.000000 0.000000
    45 -7.723807 -0.515392 0.043857 0.000000 0.000000 0.000000
    46 0.000000 0.000001 0.000000 0.000000 0.000000 0.000000
    47 -13.245030 4.761688 7.178954 0.000000 0.000000 0.000000
    48 15.633986 -8.942557 1.798478 4.484724 -1.211373 -0.615267
    49 11.481672 -0.000001 -0.000032 1.573183 -0.106613 0.044193
    50 0.000000 0.000000 -0.000001 -0.224208 0.003607 -0.023722
    51 0.000000 0.000000 -0.000001 0.000000 0.000000 0.000000
    52 0.000000 0.000000 -0.000001 0.000000 0.000000 0.000000
    53 -19.062649 -2.847718 -1.602189 -0.136618 -0.876594 1.833539
    54 11.481699 0.000001 0.000000 -1.564936 0.106606 0.044193
    55 0.000001 0.000000 0.000000 0.578207 0.023968 0.183285
    56 0.000000 0.000000 0.000000 0.159946 0.933849 0.786606
    57 0.000000 0.000000 0.000000 0.000000 0.000000 0.000000
  time 1
    0 0.000000 0.000000 -67.998169 1.570796 0.000000 0.000000
    1 0.000000 59.000000 1.996216 0.000000 0.000000 0.000000
    2 1.937660 1.174958 0.010475 0.006897 -0.005535 -0.284229
    3 6.028143 -0.000002 0.000000 -1.660216 -0.148212 -0.531142
    4 11.692555 0.000000 0.000000 0.000000 0.000000 -1.062951
    5 11.481671 -0.000001 -0.000032 1.487709 -0.147225 0.045746
    6 3.859704 -0.142405 -1.191976 -0.319953 0.094042 -1.042932
    7 1.312562 0.000000 0.000000 0.000000 0.000000 -1.494899
    8 0.729363 0.000001 -0.000002 0.000000 0.000000 -1.428325
    9 3.942325 0.046771 -0.431444 -0.120431 0.068511 -0.919744
    10 1.539093 0.000000 -0.000001 0.000000 0.000000 -1.191886
    11 1.196322 0.000001 -0.000001 0.000000 0.000000 -1.711911
    12 3.883687 -0.046771 0.431443 0.166007 0.072693 -0.591067
    13 1.719575 -0.000001 -0.000003 0.000000 0.000003 -1.314572
    14 1.209183 0.000002 0.000000 0.000000 0.000004 -1.213847
    15 3.859859 -0.137948 1.332463 0.263873 -0.198889 -0.341237
    16 1.719428 -0.000001 0.000000 0.000000 0.000000 -0.826631
    17 1.099666 0.000001 0.000001 0.000000 0.000000 -0.697327
    18 0.806046 -0.348922 1.321256 -1.209003 -0.877804 -0.755208
    19 1.789786 -0.000001 0.000001 0.000000 0.000000 0.482669
    20 1.206999 -0.000003 0.000001 0.000000 0.000000 0.726106
    21 1.085958 -11.442460 -66.779285 1.278926 0.000010 1.518250
    22 -1.937610 1.174966 0.010480 3.062865 -0.005537 -2.857366
    23 6.028143 -0.000001 0.000000 2.374558 0.110062 0.239512
    24 11.692554 -0.000001 0.000000 0.000000 0.000000 -1.535347
    25 11.481701 0.000000 -0.000001 -2.333683 1.040736 -1.360635
    26 3.859674 -0.132568 1.193108 0.455565 -0.192964 -0.843315
    27 1.312562 0.000000 0.000002 0.000000 0.000000 -0.517214
    28 0.729364 0.000000 -0.000001 0.000000 0.000000 -0.174104
    29 3.942296 0.050328 0.431040 0.155957 -0.058506 -0.881536
    30 1.539098 0.000001 0.000001 0.000000 0.000000 -0.247838
    31 1.196322 0.000000 0.000000 0.000000 0.000000 -0.751734
    32 3.883659 -0.050328 -0.431046 -0.079337 -0.041157 -0.765530
    33 1.719577 0.000000 0.000000 0.000000 -0.007974 -0.582412
    34 1.209182 0.000000 -0.000001 0.000000 -0.004461 -0.471629
    35 3.859830 -0.148935 -1.331283 -0.350848 -0.029589 -0.717029
    36 1.719426 0.000002 0.000001 0.000000 -0.006613 -0.579567
    37 1.099666 -0.000001 -0.000001 0.000000 -0.004211 -0.598744
    38 0.806017 -0.359833 -1.318335 1.096790 0.367244 -1.417521
    39 1.789784 0.000001 -0.000001 0.000000 0.000000 0.265280
    40 1.206998 -0.000001 -0.000001 0.000000 0.000000 0.310700
    41 -128.373475 19.716540 5.832957 -1.333915 0.016331 -0.810754
    42 7.723854 -0.515411 0.043839 0.000000 0.000000 0.000000
    43 0.000000 0.000001 0.000000 0.000000 0.000000 0.000000
    44 11.265012 -10.809368 12.464044 0.000000 0.000000 0.000000
    45 -7.723807 -0.515392 0.043857 0.000000 0.000000 0.000000
    46 0.000000 0.000001 0.000000 0.000000 0.000000 0.000000
    47 -11.241063 7.039101 10.104824 0.000000 0.000000 0.000000
    48 15.637892 -8.942557 1.786758 4.488285 -1.204512 -0.618940
    49 11.481672 -0.000001 -0.000032 1.573183 -0.106613 0.044193
    50 0.000000 0.000000 -0.000001 -0.085246 0.001642 0.040611
    51 0.000000 0.000000 -0.000001 0.000000 0.000000 0.000000
    52 0.000000 0.000000 -0.000001 0.000000 0.000000 0.000000
    53 -19.293125 -1.140635 1.604940 0.161057 -0.839188 1.528007
    54 11.481699 0.000001 0.000000 -1.564936 0.106606 0.044193
    55 0.000001 0.000000 0.000000 0.521400 0.039554 0.278099
    56 0.000000 0.000000 0.000000 0.159946 0.933849 0.786606
    57 0.000000 0.000000 0.000000 0.000000 0.000000 0.000000
  time 2
    0 0.000000 0.000000 -67.998169 1.570796 0.000000 0.000000
    1 0.000000 59.000000 1.996216 0.000000 0.000000 0.000000
    2 1.937660 1.174958 0.010475 0.006897 -0.005535 -0.284229
    3 6.028143 -0.000002 0.000000 -1.660048 -0.148983 -0.531243
    4 11.692555 0.000000 0.000000 0.000000 0.000000 -1.067865
    5 11.481671 -0.000001 -0.000032 1.602725 -0.200364 0.043985
    6 3.859704 -0.142405 -1.191976 -0.319953 0.094042 -1.042932
    7 1.312562 0.000000 0.000000 0.000000 0.000000 -1.494899
    8 0.729363 0.000001 -0.000002 0.000000 0.000000 -1.428325
    9 3.942325 0.046771 -0.431444 -0.120431 0.068511 -0.919744
    10 1.539093 0.000000 -0.000001 0.000000 0.000000 -1.191886
    11 1.196322 0.000001 -0.000001 0.000000 0.000000 -1.711911
    12 3.883687 -0.046771 0.431443 0.166007 0.072693 -0.591067
    13 1.719575 -0.000001 -0.000003 0.000000 0.000003 -1.314601
    14 1.209183 0.000002 0.000000 0.000000 0.000004 -1.213847
    15 3.859859 -0.137948 1.332463 0.263873 -0.198889 -0.341237
    16 1.719428 -0.000001 0.000000 0.000000 0.000000 -0.826631
    17 1.099666 0.000001 0.000001 0.000000 0.000000 -0.697327
    18 0.806046 -0.348922 1.321256 -1.209003 -0.877804 -0.755208
    19 1.789786 -0.000001 0.000001 0.000000 0.000000 0.482669
    20 1.206999 -0.000003 0.000001 0.000000 0.000000 0.726106
    21 1.085958 -11.442460 -66.779285 1.278926 0.000010 1.518250
    22 -1.937610 1.174966 0.010480 3.062865 -0.005537 -2.857366
    23 6.028143 -0.000001 0.000000 2.899579 0.805280 0.292357
    24 11.692554 -0.000001 0.000000 0.000000 0.000000 -1.211325
    25 11.481701 0.000000 -0.000001 -2.498291 0.829104 -1.419440
    26 3.859674 -0.132568 1.193108 0.423422 -0.279517 -0.663654
    27 1.312562 0.000000 0.000002 0.000000 0.000000 -0.517214
    28 0.729364 0.000000 -0.000001 0.000000 0.000000 -0.174104
    29 3.942296 0.050328 0.431040 0.137477 -0.098031 -0.620272
    30 1.539098 0.000001 0.000001 0.000000 0.000000 -0.247838
    31 1.196322 0.000000 0.000000 0.000000 0.000000 -0.751734
    32 3.883659 -0.050328 -0.431046 -0.089393 -0.012957 -0.434871
    33 1.719577 0.000000 0.000000 0.000000 -0.007974 -0.582412
    34 1.209182 0.000000 -0.000001 0.000000 -0.004461 -0.471629
    35 3.859830 -0.148935 -1.331283 -0.354491 0.006568 -0.545160
    36 1.719426 0.000002 0.000001 0.000000 -0.006613 -0.452734
    37 1.099666 -0.000001 -0.000001 0.000000 -0.004211 -0.393844
    38 0.806017 -0.359833 -1.318335 1.112271 0.401040 -1.326991
    39 1.789784 0.000001 -0.000001 0.000000 0.000000 0.265280
    40 1.206998 -0.000001 -0.000001 0.000000 0.000000 0.310700
    41 -128.373475 19.716540 5.832957 -1.333915 0.016331 -0.810754
    42 7.723854 -0.515411 0.043839 0.000000 0.000000 0.000000
    43 0.000000 0.000001 0.000000 0.000000 0.000000 0.000000
    44 11.218135 -10.766398 12.495295 0.000000 0.000000 0.000000
    45 -7.723807 -0.515392 0.043857 0.000000 0.000000 0.000000
    46 0.000000 0.000001 0.000000 0.000000 0.000000 0.000000
    47 -8.580825 9.500113 14.108853 0.000000 0.000000 0.000000
    48 15.637892 -8.942557 1.794571 4.485347 -1.210088 -0.616001
    49 11.481672 -0.000001 -0.000032 1.573183 -0.106613 0.044193
    50 0.000000 0.000000 -0.000001 0.029506 0.000012 0.093750
    51 0.000000 0.000000 -0.000001 0.000000 0.000000 0.000000
    52 0.000000 0.000000 -0.000001 0.000000 0.000000 0.000000
    53 -15.589887 -1.082040 8.675468 0.766027 -0.497338 1.641760
    54 11.481699 0.000001 0.000000 -1.564936 0.106606 0.044193
    55 0.000001 0.000000 0.000000 0.287825 0.061434 0.335125
    56 0.000000 0.000000 0.000000 0.159946 0.933849 0.786606
    57 0.000000 0.000000 0.000000 0.000000 0.000000 0.000000
  time 3
    0 0.000000 0.000000 -67.998169 1.570796 0.000000 0.000000
    1 0.000000 59.000000 1.996216 0.000000 0.000000 0.000000
    2 1.937660 1.174958 0.010475 0.006897 -0.005535 -0.284229
    3 6.028143 -0.000002 0.000000 -1.659605 -0.151249 -0.531572
    4 11.692555 0.000000 0.000000 0.000000 0.000000 -1.080713
    5 11.481671 -0.000001 -0.000032 1.603684 -0.200856 0.043973
    6 3.859704 -0.142405 -1.191976 -0.319953 0.094042 -1.042932
    7 1.312562 0.000000 0.000000 0.000000 0.000000 -1.494899
    8 0.729363 0.000001 -0.000002 0.000000 0.000000 -1.428325
    9 3.942325 0.046771 -0.431444 -0.120431 0.068511 -0.919744
    10 1.539093 0.000000 -0.000001 0.000000 0.000000 -1.191886
    11 1.196322 0.000001 -0.000001 0.000000 0.000000 -1.711911
    12 3.883687 -0.046771 0.431443 0.166007 0.072693 -0.591067
    13 1.719575 -0.000001 -0.000003 0.000000 0.000003 -1.314572
    14 1.209183 0.000002 0.000000 0.000000 0.000004 -1.213847
    15 3.859859 -0.137948 1.332463 0.263873 -0.198889 -0.341237
    16 1.719428 -0.000001 0.000000 0.000000 0.000000 -0.826631
    17 1.099666 0.000001 0.000001 0.000000 0.000000 -0.697327
    18 0.806046 -0.348922 1.321256 -1.209003 -0.877804 -0.755208
    19 1.789786 -0.000001 0.000001 0.000000 0.000000 0.482669
    20 1.206999 -0.000003 0.000001 0.000000 0.000000 0.726106
    21 1.085958 -11.442460 -66.779285 1.278926 0.000010 1.518250
    22 -1.937610 1.174966 0.010480 3.062865 -0.005537 -2.857366
    23 6.028143 -0.000001 0.000000 -1.036211 1.156451 -4.675012
    24 11.692554 -0.000001 0.000000 0.000000 0.000000 -0.544551
    25 11.481701 0.000000 -0.000001 -2.668006 0.601782 -1.275398
    26 3.859674 -0.132568 1.193108 0.373782 -0.359766 -0.473986
    27 1.312562 0.000000 0.000002 0.000000 0.000000 -0.517214
    28 0.729364 0.000000 -0.000001 0.000000 0.000000 -0.174104
    29 3.942296 0.050328 0.431040 0.108906 -0.131756 -0.354286
    30 1.539098 0.000001 0.000001 0.000000 0.000000 -0.247838
    31 1.196322 0.000000 0.000000 0.000000 0.000000 -0.751734
    32 3.883659 -0.050328 -0.431046 -0.089692 0.017328 -0.100794
    33 1.719577 0.000000 0.000000 0.000000 -0.007974 -0.582412
    34 1.209182 0.000000 -0.000001 0.000000 -0.004461 -0.471629
    35 3.859830 -0.148935 -1.331283 -0.336646 0.075815 -0.256541
    36 1.719426 0.000002 0.000001 0.000000 -0.006613 -0.324487
    37 1.099666 -0.000001 -0.000001 0.000000 -0.004211 -0.186678
    38 0.806017 -0.359833 -1.318335 1.167374 0.455882 -1.108601
    39 1.789784 0.000001 -0.000001 0.000000 0.000000 0.265280
    40 1.206998 -0.000001 -0.000001 0.000000 0.000000 0.310700
    41 -128.373475 19.716540 5.832957 -1.333915 0.016331 -0.810754
    42 7.723854 -0.515411 0.043839 0.000000 0.000000 0.000000
    43 0.000000 0.000001 0.000000 0.000000 0.000000 0.000000
    44 11.100944 -10.649207 12.581235 0.000000 0.000000 0.000000
    45 -7.723807 -0.515392 0.043857 0.000000 0.000000 0.000000
    46 0.000000 0.000001 0.000000 0.000000 0.000000 0.000000
    47 -5.697925 10.859530 18.651960 0.000000 0.000000 0.000000
    48 15.630079 -8.942557 1.821916 4.477334 -1.224901 -0.607675
    49 11.481672 -0.000001 -0.000032 1.573183 -0.106613 0.044193
    50 0.000000 0.000000 -0.000001 0.030465 0.000000 0.094254
    51 0.000000 0.000000 -0.000001 0.000000 0.000000 0.000000
    52 0.000000 0.000000 -0.000001 0.000000 0.000000 0.000000
    53 -8.574048 3.242311 11.085698 1.806963 -0.724556 2.170033
    54 11.481699 0.000001 0.000000 -1.564936 0.106606 0.044193
    55 0.000001 0.000000 0.000000 -0.048606 -0.049571 0.421455
    56 0.000000 0.000000 0.000000 0.159946 0.933849 0.786606
    57 0.000000 0.000000 0.000000 0.000000 0.000000 0.000000
  time 4
    0 0.000000 0.000000 -67.998169 1.570796 0.000000 0.000000
    1 0.000000 59.000000 1.996216 0.000000 0.000000 0.000000
    2 1.937660 1.174958 0.010475 0.006897 -0.005535 -0.284229
    3 6.028143 -0.000002 0.000000 -1.658982 -0.154874 -0.532001
    4 11.692555 0.000000 0.000000 0.000000 0.000000 -1.098282
    5 11.481671 -0.000001 -0.000032 1.603540 -0.200856 0.043973
    6 3.859704 -0.142405 -1.191976 -0.319953 0.094042 -1.042932
    7 1.312562 0.000000 0.000000 0.000000 0.000000 -1.494934
    8 0.729363 0.000001 -0.000002 0.000000 0.000000 -1.428325
    9 3.942325 0.046771 -0.431444 -0.120431 0.068511 -0.919744
    10 1.539093 0.000000 -0.000001 0.000000 0.000000 -1.191886
    11 1.196322 0.000001 -0.000001 0.000000 0.000000 -1.711911
    12 3.883687 -0.046771 0.431443 0.166007 0.072693 -0.591067
    13 1.719575 -0.000001 -0.000003 0.000000 0.000003 -1.314572
    14 1.209183 0.000002 0.000000 0.000000 0.000004 -1.213847
    15 3.859859 -0.137948 1.332463 0.263873 -0.198889 -0.341237
    16 1.719428 -0.000001 0.000000 0.000000 0.000000 -0.826631
    17 1.099666 0.000001 0.000001 0.000000 0.000000 -0.697327
    18 0.806046 -0.348922 1.321256 -1.209003 -0.877804 -0.755208
    19 1.789786 -0.000001 0.000001 0.000000 0.000000 0.482669
    20 1.206999 -0.000003 0.000001 0.000000 0.000000 0.726106
    21 1.085958 -11.442460 -66.779285 1.278926 0.000010 1.518250
    22 -1.937610 1.174966 0.010480 3.062865 -0.005537 -2.857366
    23 6.028143 -0.000001 0.000000 -1.052244 1.100077 -4.665917
    24 11.692554 -0.000001 0.000000 0.000000 0.000000 -0.209998
    25 11.481701 0.000000 -0.000001 -2.800191 0.433191 -0.965703
    26 3.859674 -0.132568 1.193108 0.373410 -0.360233 -0.472776
    27 1.312562 0.000000 0.000002 0.000000 0.000000 -0.517214
    28 0.729364 0.000000 -0.000001 0.000000 0.000000 -0.174104
    29 3.942296 0.050328 0.431040 0.108690 -0.131936 -0.352632
    30 1.539098 0.000001 0.000001 0.000000 0.000000 -0.247838
    31 1.196322 0.000000 0.000000 0.000000 0.000000 -0.751734
    32 3.883659 -0.050328 -0.431046 -0.089668 0.017508 -0.098735
    33 1.719577 0.000000 0.000000 0.000000 -0.007974 -0.582412
    34 1.209182 0.000000 -0.000001 0.000000 -0.004461 -0.471629
    35 3.859830 -0.148935 -1.331283 -0.288911 0.166862 0.037645
    36 1.719426 0.000002 0.000001 0.000000 -0.006613 -0.323696
    37 1.099666 -0.000001 -0.000001 0.000000 -0.004211 -0.185396
    38 0.806017 -0.359833 -1.318335 1.235408 0.481337 -0.872716
    39 1.789784 0.000001 -0.000001 0.000000 0.000000 0.265280
    40 1.206998 -0.000001 -0.000001 0.000000 0.000000 0.310700
    41 -128.373475 19.716540 5.832957 -1.333915 0.016331 -0.810754
    42 7.723854 -0.515411 0.043839 0.000000 0.000000 0.000000
    43 0.000000 0.000001 0.000000 0.000000 0.000000 0.000000
    44 10.936877 -10.477326 12.698426 0.000000 0.000000 0.000000
    45 -7.723807 -0.515392 0.043857 0.000000 0.000000 0.000000
    46 0.000000 0.000001 0.000000 0.000000 0.000000 0.000000
    47 -3.486920 10.148571 20.398107 0.000000 0.000000 0.000000
    48 15.622267 -8.942557 1.864886 4.464780 -1.245648 -0.594777
    49 11.481672 -0.000001 -0.000032 1.573183 -0.106613 0.044193
    50 0.000000 0.000000 -0.000001 0.030321 0.000000 0.094242
    51 0.000000 0.000000 -0.000001 0.000000 0.000000 0.000000
    52 0.000000 0.000000 -0.000001 0.000000 0.000000 0.000000
    53 -8.679520 3.851705 10.847409 1.938250 -0.988865 1.983684
    54 11.481699 0.000001 0.000000 -1.564936 0.106606 0.044193
    55 0.000001 0.000000 0.000000 -0.425189 -0.255117 0.521677
    56 0.000000 0.000000 0.000000 0.159946 0.933849 0.786606
    57 0.000000 0.000000 0.000000 0.000000 0.000000 0.000000
  time 5
    0 0.000000 0.000000 -67.998169 1.570796 0.000000 0.000000
    1 0.000000 59.000000 1.996216 0.000000 0.000000 0.000000
    2 1.937660 1.174958 0.010475 0.006897 -0.005535 -0.284229
    3 6.028143 -0.000002 0.000000 -1.658263 -0.159655 -0.532431
    4 11.692555 0.000000 0.000000 0.000000 0.000000 -1.117553
    5 11.481671 -0.000001 -0.000032 1.603408 -0.200856 0.043973
    6 3.859704 -0.142405 -1.191976 -0.319953 0.094042 -1.042932
    7 1.312562 0.000000 0.000000 0.000000 0.000000 -1.494934
    8 0.729363 0.000001 -0.000002 0.000000 0.000000 -1.428325
    9 3.942325 0.046771 -0.431444 -0.120431 0.068511 -0.919744
    10 1.539093 0.000000 -0.000001 0.000000 0.000000 -1.191886
    11 1.196322 0.000001 -0.000001 0.000000 0.000000 -1.711911
    12 3.883687 -0.046771 0.431443 0.166007 0.072693 -0.591067
    13 1.719575 -0.000001 -0.000003 0.000000 0.000003 -1.314572
    14 1.209183 0.000002 0.000000 0.000000 0.000004 -1.213847
    15 3.859859 -0.137948 1.332463 0.263873 -0.198889 -0.341237
    16 1.719428 -0.000001 0.000000 0.000000 0.000000 -0.826631
    17 1.099666 0.000001 0.000001 0.000000 0.000000 -0.697327
    18 0.806046 -0.348922 1.321256 -1.209003 -0.877804 -0.755208
    19 1.789786 -0.000001 0.000001 0.000000 0.000000 0.482669
    20 1.206999 -0.000003 0.000001 0.000000 0.000000 0.726106
    21 1.085958 -11.442460 -66.779285 1.278926 0.000010 1.518250
    22 -1.937610 1.174966 0.010480 3.062865 -0.005537 -2.857366
    23 6.028143 -0.000001 0.000000 -0.936616 1.349676 -4.310838
    24 11.692554 -0.000001 0.000000 0.000000 0.000000 -0.464221
    25 11.481701 0.000000 -0.000001 -2.846568 0.322844 -0.576530
    26 3.859674 -0.132568 1.193108 0.373422 -0.360221 -0.472800
    27 1.312562 0.000000 0.000002 0.000000 0.000000 -0.517214
    28 0.729364 0.000000 -0.000001 0.000000 0.000000 -0.174104
    29 3.942296 0.050328 0.431040 0.108702 -0.131936 -0.352656
    30 1.539098 0.000001 0.000001 0.000000 0.000000 -0.247838
    31 1.196322 0.000000 0.000000 0.000000 0.000000 -0.751734
    32 3.883659 -0.050328 -0.431046 -0.089668 0.017508 -0.098750
    33 1.719577 0.000000 0.000000 0.000000 -0.007974 -0.582412
    34 1.209182 0.000000 -0.000001 0.000000 -0.004461 -0.471629
    35 3.859830 -0.148935 -1.331283 -0.246426 0.220002 0.220465
    36 1.719426 0.000002 0.000001 0.000000 -0.006613 -0.323708
    37 1.099666 -0.000001 -0.000001 0.000000 -0.004211 -0.185408
    38 0.806017 -0.359833 -1.318335 1.266003 0.483291 -0.761899
    39 1.789784 0.000001 -0.000001 0.000000 0.000000 0.265280
    40 1.206998 -0.000001 -0.000001 0.000000 0.000000 0.310700
    41 -128.373475 19.716540 5.832957 -1.333915 0.016331 -0.810754
    42 7.723854 -0.515411 0.043839 0.000000 0.000000 0.000000
    43 0.000000 0.000001 0.000000 0.000000 0.000000 0.000000
    44 10.745465 -10.285914 12.839055 0.000000 0.000000 0.000000
    45 -7.723807 -0.515392 0.043857 0.000000 0.000000 0.000000
    46 0.000000 0.000001 0.000000 0.000000 0.000000 0.000000
    47 -1.412638 7.605524 21.183287 0.000000 0.000000 0.000000
    48 15.610548 -8.938650 1.919575 4.448397 -1.269102 -0.578123
    49 11.481672 -0.000001 -0.000032 1.573183 -0.106613 0.044193
    50 0.000000 0.000000 -0.000001 0.030189 0.000000 0.094242
    51 0.000000 0.000000 -0.000001 0.000000 0.000000 0.000000
    52 0.000000 0.000000 -0.000001 0.000000 0.000000 0.000000
    53 -7.105253 1.179748 11.593526 1.788906 -0.995056 1.901561
    54 11.481699 0.000001 0.000000 -1.564936 0.106606 0.044193
    55 0.000001 0.000000 0.000000 -0.791014 -0.505725 0.616989
    56 0.000000 0.000000 0.000000 0.159946 0.933849 0.786606
    57 0.000000 0.000000 0.000000 0.000000 0.000000 0.000000
  time 6
    0 0.000000 0.000000 -67.998169 1.570796 0.000000 0.000000
    1 0.000000 59.000000 1.996216 0.000000 0.000000 0.000000
    2 1.937660 1.174958 0.010475 0.006897 -0.005535 -0.284229
    3 6.028143 -0.000002 0.000000 -1.657556 -0.165093 -0.532835
    4 11.692555 0.000000 0.000000 0.000000 0.000000 -1.135914
    5 11.481671 -0.000001 -0.000032 1.603276 -0.200856 0.043973
    6 3.859704 -0.142405 -1.191976 -0.319953 0.094042 -1.042932
    7 1.312562 0.000000 0.000000 0.000000 0.000000 -1.494899
    8 0.729363 0.000001 -0.000002 0.000000 0.000000 -1.428325
    9 3.942325 0.046771 -0.431444 -0.120431 0.068511 -0.919744
    10 1.539093 0.000000 -0.000001 0.000000 0.000000 -1.191886
    11 1.196322 0.000001 -0.000001 0.000000 0.000000 -1.711911
    12 3.883687 -0.046771 0.431443 0.166007 0.072693 -0.591067
    13 1.719575 -0.000001 -0.000003 0.000000 0.000003 -1.314601
    14 1.209183 0.000002 0.000000 0.000000 0.000004 -1.213847
    15 3.859859 -0.137948 1.332463 0.263873 -0.198889 -0.341237
    16 1.719428 -0.000001 0.000000 0.000000 0.000000 -0.826631
    17 1.099666 0.000001 0.000001 0.000000 0.000000 -0.697327
    18 0.806046 -0.348922 1.321256 -1.209003 -0.877804 -0.755208
    19 1.789786 -0.000001 0.000001 0.000000 0.000000 0.482669
    20 1.206999 -0.000003 0.000001 0.000000 0.000000 0.726106
    21 1.085958 -11.442460 -66.779285 1.278926 0.000010 1.518250
    22 -1.937610 1.174966 0.010480 3.062865 -0.005537 -2.857366
    23 6.028143 -0.000001 0.000000 1.208890 1.390765 -1.924181
    24 11.692554 -0.000001 0.000000 0.000000 0.000000 -0.817628
    25 11.481701 0.000000 -0.000001 -2.806604 0.220130 -0.218791
    26 3.859674 -0.132568 1.193108 0.373422 -0.360221 -0.472800
    27 1.312562 0.000000 0.000002 0.000000 0.000000 -0.517214
    28 0.729364 0.000000 -0.000001 0.000000 0.000000 -0.174104
    29 3.942296 0.050328 0.431040 0.108702 -0.131936 -0.352656
    30 1.539098 0.000001 0.000001 0.000000 0.000000 -0.247838
    31 1.196322 0.000000 0.000000 0.000000 0.000000 -0.751734
    32 3.883659 -0.050328 -0.431046 -0.089668 0.017508 -0.098750
    33 1.719577 0.000000 0.000000 0.000000 -0.007974 -0.582412
    34 1.209182 0.000000 -0.000001 0.000000 -0.004461 -0.471629
    35 3.859830 -0.148935 -1.331283 -0.246090 0.220361 0.221776
    36 1.719426 0.000002 0.000001 0.000000 -0.006613 -0.323708
    37 1.099666 -0.000001 -0.000001 0.000000 -0.004211 -0.185408
    38 0.806017 -0.359833 -1.318335 1.266209 0.483291 -0.761102
    39 1.789784 0.000001 -0.000001 0.000000 0.000000 0.265280
    40 1.206998 -0.000001 -0.000001 0.000000 0.000000 0.310700
    41 -128.373475 19.716540 5.832957 -1.333915 0.016331 -0.810754
    42 7.723854 -0.515411 0.043839 0.000000 0.000000 0.000000
    43 0.000000 0.000001 0.000000 0.000000 0.000000 0.000000
    44 10.554053 -10.094502 12.975778 0.000000 0.000000 0.000000
    45 -7.723807 -0.515392 0.043857 0.000000 0.000000 0.000000
    46 0.000000 0.000001 0.000000 0.000000 0.000000 0.000000
    47 0.450700 3.605402 20.952811 0.000000 0.000000 0.000000
    48 15.602735 -8.934744 1.982077 4.429521 -1.292226 -0.558939
    49 11.481672 -0.000001 -0.000032 1.573183 -0.106613 0.044193
    50 0.000000 0.000000 -0.000001 0.030057 0.000000 0.094242
    51 0.000000 0.000000 -0.000001 0.000000 0.000000 0.000000
    52 0.000000 0.000000 -0.000001 0.000000 0.000000 0.000000
    53 -6.167724 -3.043037 11.351331 1.698119 -0.996945 1.749701
    54 11.481699 0.000001 0.000000 -1.564936 0.106606 0.044193
    55 0.000001 0.000000 0.000000 -1.094585 -0.753366 0.689086
    56 0.000000 0.000000 0.000000 0.159946 0.933849 0.786606
    57 0.000000 0.000000 0.000000 0.000000 0.000000 0.000000
  time 7
    0 0.000000 0.000000 -67.998169 1.570796 0.000000 0.000000
    1 0.000000 59.000000 1.996216 0.000000 0.000000 0.000000
    2 1.937660 1.174958 0.010475 0.006897 -0.005535 -0.284229
    3 6.028143 -0.000002 0.000000 -1.656932 -0.170350 -0.533164
    4 11.692555 0.000000 0.000000 0.000000 0.000000 -1.151218
    5 11.481671 -0.000001 -0.000032 1.603132 -0.200856 0.043973
    6 3.859704 -0.142405 -1.191976 -0.319953 0.094042 -1.042932
    7 1.312562 0.000000 0.000000 0.000000 0.000000 -1.494934
    8 0.729363 0.000001 -0.000002 0.000000 0.000000 -1.428325
    9 3.942325 0.046771 -0.431444 -0.120431 0.068511 -0.919744
    10 1.539093 0.000000 -0.000001 0.000000 0.000000 -1.191886
    11 1.196322 0.000001 -0.000001 0.000000 0.000000 -1.711911
    12 3.883687 -0.046771 0.431443 0.166007 0.072693 -0.591067
    13 1.719575 -0.000001 -0.000003 0.000000 0.000003 -1.314572
    14 1.209183 0.000002 0.000000 0.000000 0.000004 -1.213847
    15 3.859859 -0.137948 1.332463 0.263873 -0.198889 -0.341237
    16 1.719428 -0.000001 0.000000 0.000000 0.000000 -0.826631
    17 1.099666 0.000001 0.000001 0.000000 0.000000 -0.697327
    18 0.806046 -0.348922 1.321256 -1.209003 -0.877804 -0.755208
    19 1.789786 -0.000001 0.000001 0.000000 0.000000 0.482669
    20 1.206999 -0.000003 0.000001 0.000000 0.000000 0.726106
    21 1.085958 -11.442460 -66.779285 1.278926 0.000010 1.518250
    22 -1.937610 1.174966 0.010480 3.062865 -0.005537 -2.857366
    23 6.028143 -0.000001 0.000000 1.400307 1.046881 -1.568336
    24 11.692554 -0.000001 0.000000 0.000000 0.000000 -1.004050
    25 11.481701 0.000000 -0.000001 -2.745856 0.119787 0.004193
    26 3.859674 -0.132568 1.193108 0.373422 -0.360221 -0.472800
    27 1.312562 0.000000 0.000002 0.000000 0.000000 -0.517214
    28 0.729364 0.000000 -0.000001 0.000000 0.000000 -0.174104
    29 3.942296 0.050328 0.431040 0.108702 -0.131936 -0.352656
    30 1.539098 0.000001 0.000001 0.000000 0.000000 -0.247838
    31 1.196322 0.000000 0.000000 0.000000 0.000000 -0.751734
    32 3.883659 -0.050328 -0.431046 -0.089668 0.017508 -0.098750
    33 1.719577 0.000000 0.000000 0.000000 -0.007974 -0.582412
    34 1.209182 0.000000 -0.000001 0.000000 -0.004461 -0.471629
    35 3.859830 -0.148935 -1.331283 -0.246090 0.220349 0.221776
    36 1.719426 0.000002 0.000001 0.000000 -0.006613 -0.323708
    37 1.099666 -0.000001 -0.000001 0.000000 -0.004211 -0.185408
    38 0.806017 -0.359833 -1.318335 1.266209 0.483291 -0.761128
    39 1.789784 0.000001 -0.000001 0.000000 0.000000 0.265280
    40 1.206998 -0.000001 -0.000001 0.000000 0.000000 0.310700
    41 -128.373475 19.716540 5.832957 -1.333915 0.016331 -0.810754
    42 7.723854 -0.515411 0.043839 0.000000 0.000000 0.000000
    43 0.000000 0.000001 0.000000 0.000000 0.000000 0.000000
    44 10.386079 -9.926528 13.096876 0.000000 0.000000 0.000000
    45 -7.723807 -0.515392 0.043857 0.000000 0.000000 0.000000
    46 0.000000 0.000001 0.000000 0.000000 0.000000 0.000000
    47 2.317945 -1.679915 20.112942 0.000000 0.000000 0.000000
    48 15.591016 -8.930838 2.040672 4.410556 -1.312106 -0.539674
    49 11.481672 -0.000001 -0.000032 1.573183 -0.106613 0.044193
    50 0.000000 0.000000 -0.000001 0.029914 0.000000 0.094242
    51 0.000000 0.000000 -0.000001 0.000000 0.000000 0.000000
    52 0.000000 0.000000 -0.000001 0.000000 0.000000 0.000000
    53 -5.827870 -6.863466 9.679405 1.822741 -1.149980 1.480848
    54 11.481699 0.000001 0.000000 -1.564936 0.106606 0.044193
    55 0.000001 0.000000 0.000000 -1.280986 -0.932675 0.721437
    56 0.000000 0.000000 0.000000 0.159946 0.933849 0.786606
    57 0.000000 0.000000 0.000000 0.000000 0.000000 0.000000
  time 8
    0 0.000000 0.000000 -67.998169 1.570796 0.000000 0.000000
    1 0.000000 59.000000 1.996216 0.000000 0.000000 0.000000
    2 1.937660 1.174958 0.010475 0.006897 -0.005535 -0.284229
    3 6.028143 -0.000002 0.000000 -1.656489 -0.174361 -0.533391
    4 11.692555 0.000000 0.000000 0.000000 0.000000 -1.161680
    5 11.481671 -0.000001 -0.000032 1.603001 -0.200856 0.043973
    6 3.859704 -0.142405 -1.191976 -0.319953 0.094042 -1.042932
    7 1.312562 0.000000 0.000000 0.000000 0.000000 -1.494899
    8 0.729363 0.000001 -0.000002 0.000000 0.000000 -1.428325
    9 3.942325 0.046771 -0.431444 -0.120431 0.068511 -0.919744
    10 1.539093 0.000000 -0.000001 0.000000 0.000000 -1.191886
    11 1.196322 0.000001 -0.000001 0.000000 0.000000 -1.711911
    12 3.883687 -0.046771 0.431443 0.166007 0.072693 -0.591067
    13 1.719575 -0.000001 -0.000003 0.000000 0.000003 -1.314572
    14 1.209183 0.000002 0.000000 0.000000 0.000004 -1.213847
    15 3.859859 -0.137948 1.332463 0.263873 -0.198889 -0.341237
    16 1.719428 -0.000001 0.000000 0.000000 0.000000 -0.826631
    17 1.099666 0.000001 0.000001 0.000000 0.000000 -0.697327
    18 0.806046 -0.348922 1.321256 -1.209003 -0.877804 -0.755208
    19 1.789786 -0.000001 0.000001 0.000000 0.000000 0.482669
    20 1.206999 -0.000003 0.000001 0.000000 0.000000 0.726106
    21 1.085958 -11.442460 -66.779285 1.278926 0.000010 1.518250
    22 -1.937610 1.174966 0.010480 3.062865 -0.005537 -2.857366
    23 6.028143 -0.000001 0.000000 1.345651 0.830207 -1.524585
    24 11.692554 -0.000001 0.000000 0.000000 0.000000 -0.870196
    25 11.481701 0.000000 -0.000001 -2.733742 -0.005275 0.075723
    26 3.859674 -0.132568 1.193108 0.373422 -0.360221 -0.472800
    27 1.312562 0.000000 0.000002 0.000000 0.000000 -0.517214
    28 0.729364 0.000000 -0.000001 0.000000 0.000000 -0.174104
    29 3.942296 0.050328 0.431040 0.108702 -0.131936 -0.352656
    30 1.539098 0.000001 0.000001 0.000000 0.000000 -0.247838
    31 1.196322 0.000000 0.000000 0.000000 0.000000 -0.751734
    32 3.883659 -0.050328 -0.431046 -0.089668 0.017508 -0.098750
    33 1.719577 0.000000 0.000000 0.000000 -0.007974 -0.582412
    34 1.209182 0.000000 -0.000001 0.000000 -0.004461 -0.471629
    35 3.859830 -0.148935 -1.331283 -0.246090 0.220349 0.221776
    36 1.719426 0.000002 0.000001 0.000000 -0.006613 -0.323708
    37 1.099666 -0.000001 -0.000001 0.000000 -0.004211 -0.185408
    38 0.806017 -0.359833 -1.318335 1.266209 0.483291 -0.761128
    39 1.789784 0.000001 -0.000001 0.000000 0.000000 0.265280
    40 1.206998 -0.000001 -0.000001 0.000000 0.000000 0.310700
    41 -128.373475 19.716540 5.832957 -1.333915 0.016331 -0.810754
    42 7.723854 -0.515411 0.043839 0.000000 0.000000 0.000000
    43 0.000000 0.000001 0.000000 0.000000 0.000000 0.000000
    44 10.268888 -9.805431 13.182816 0.000000 0.000000 0.000000
    45 -7.723807 -0.515392 0.043857 0.000000 0.000000 0.000000
    46 0.000000 0.000001 0.000000 0.000000 0.000000 0.000000
    47 3.985964 -7.371495 19.273073 0.000000 0.000000 0.000000
    48 15.583203 -8.926931 2.087549 4.395241 -1.326038 -0.524327
    49 11.481672 -0.000001 -0.000032 1.573183 -0.106613 0.044193
    50 0.000000 0.000000 -0.000001 0.029782 0.000000 0.094242
    51 0.000000 0.000000 -0.000001 0.000000 0.000000 0.000000
    52 0.000000 0.000000 -0.000001 0.000000 0.000000 0.000000
    53 -5.640364 -8.797119 8.030917 2.783352 -1.386116 0.446595
    54 11.481699 0.000001 0.000000 -1.564936 0.106606 0.044193
    55 0.000001 0.000000 0.000000 -1.356113 -0.990991 0.658289
    56 0.000000 0.000000 0.000000 0.159946 0.933849 0.786606
    57 0.000000 0.000000 0.000000 0.000000 0.000000 0.000000
  time 9
    0 0.000000 0.000000 -67.998169 1.570796 0.000000 0.000000
    1 0.000000 59.000000 1.996216 0.000000 0.000000 0.000000
    2 1.937660 1.174958 0.010475 0.006897 -0.005535 -0.284229
    3 6.028143 -0.000002 0.000000 -1.656321 -0.175992 -0.533467
    4 11.692555 0.000000 0.000000 0.000000 0.000000 -1.165647
    5 11.481671 -0.000001 -0.000032 1.603001 -0.200856 0.043973
    6 3.859704 -0.142405 -1.191976 -0.319953 0.094042 -1.042932
    7 1.312562 0.000000 0.000000 0.000000 0.000000 -1.494899
    8 0.729363 0.000001 -0.000002 0.000000 0.000000 -1.428325
    9 3.942325 0.046771 -0.431444 -0.120431 0.068511 -0.919744
    10 1.539093 0.000000 -0.000001 0.000000 0.000000 -1.191886
    11 1.196322 0.000001 -0.000001 0.000000 0.000000 -1.711911
    12 3.883687 -0.046771 0.431443 0.166007 0.072693 -0.591067
    13 1.719575 -0.000001 -0.000003 0.000000 0.000003 -1.314572
    14 1.209183 0.000002 0.000000 0.000000 0.000004 -1.213847
    15 3.859859 -0.137948 1.332463 0.263873 -0.198889 -0.341237
    16 1.719428 -0.000001 0.000000 0.000000 0.000000 -0.826631
    17 1.099666 0.000001 0.000001 0.000000 0.000000 -0.697327
    18 0.806046 -0.348922 1.321256 -1.209003 -0.877804 -0.755208
    19 1.789786 -0.000001 0.000001 0.000000 0.000000 0.482669
    20 1.206999 -0.000003 0.000001 0.000000 0.000000 0.726106
    21 1.085958 -11.442460 -66.779285 1.278926 0.000010 1.518250
    22 -1.937610 1.174966 0.010480 3.062865 -0.005537 -2.857366
    23 6.028143 -0.000001 0.000000 1.299012 0.805664 -1.539807
    24 11.692554 -0.000001 0.000000 0.000000 0.000000 -0.674617
    25 11.481701 0.000000 -0.000001 -2.745737 -0.092397 0.084519
    26 3.859674 -0.132568 1.193108 0.373422 -0.360221 -0.472800
    27 1.312562 0.000000 0.000002 0.000000 0.000000 -0.517214
    28 0.729364 0.000000 -0.000001 0.000000 0.000000 -0.174104
    29 3.942296 0.050328 0.431040 0.108702 -0.131936 -0.352656
    30 1.539098 0.000001 0.000001 0.000000 0.000000 -0.247838
    31 1.196322 0.000000 0.000000 0.000000 0.000000 -0.751734
    32 3.883659 -0.050328 -0.431046 -0.089668 0.017508 -0.098750
    33 1.719577 0.000000 0.000000 0.000000 -0.007974 -0.582412
    34 1.209182 0.000000 -0.000001 0.000000 -0.004461 -0.471629
    35 3.859830 -0.148935 -1.331283 -0.246090 0.220349 0.221776
    36 1.719426 0.000002 0.000001 0.000000 -0.006613 -0.323708
    37 1.099666 -0.000001 -0.000001 0.000000 -0.004211 -0.185408
    38 0.806017 -0.359833 -1.318335 1.266209 0.483291 -0.761128
    39 1.789784 0.000001 -0.000001 0.000000 0.000000 0.265280
    40 1.206998 -0.000001 -0.000001 0.000000 0.000000 0.310700
    41 -128.373475 19.716540 5.832957 -1.333915 0.016331 -0.810754
    42 7.723854 -0.515411 0.043839 0.000000 0.000000 0.000000
    43 0.000000 0.000001 0.000000 0.000000 0.000000 0.000000
    44 10.222011 -9.758554 13.217973 0.000000 0.000000 0.000000
    45 -7.723807 -0.515392 0.043857 0.000000 0.000000 0.000000
    46 0.000000 0.000001 0.000000 0.000000 0.000000 0.000000
    47 4.724268 -9.973137 18.878529 0.000000 0.000000 0.000000
    48 15.579297 -8.926931 2.107081 4.388920 -1.331404 -0.517878
    49 11.481672 -0.000001 -0.000032 1.573183 -0.106613 0.044193
    50 0.000000 0.000000 -0.000001 0.029782 0.000000 0.094242
    51 0.000000 0.000000 -0.000001 0.000000 0.000000 0.000000
    52 0.000000 0.000000 -0.000001 0.000000 0.000000 0.000000
    53 -5.476297 -8.953374 7.816067 3.750206 -1.314189 -0.554409
    54 11.481699 0.000001 0.000000 -1.564936 0.106606 0.044193
    55 0.000001 0.000000 0.000000 -1.378665 -0.991657 0.589703
    56 0.000000 0.000000 0.000000 0.159946 0.933849 0.786606
    57 0.000000 0.000000 0.000000 0.000000 0.000000 0.000000
end
