// Created by Crowbar 0.74
version 1
nodes
  0 "ValveBiped.Bip01_Spine4" -1
  1 "ValveBiped.Bip01_L_Clavicle" 0
  2 "ValveBiped.Bip01_L_UpperArm" 1
  3 "ValveBiped.Bip01_L_Forearm" 2
  4 "ValveBiped.Bip01_L_Hand" 3
  5 "ValveBiped.Bip01_L_Finger4" 4
  6 "ValveBiped.Bip01_L_Finger41" 5
  7 "ValveBiped.Bip01_L_Finger42" 6
  8 "ValveBiped.Bip01_L_Finger3" 4
  9 "ValveBiped.Bip01_L_Finger31" 8
  10 "ValveBiped.Bip01_L_Finger32" 9
  11 "ValveBiped.Bip01_L_Finger2" 4
  12 "ValveBiped.Bip01_L_Finger21" 11
  13 "ValveBiped.Bip01_L_Finger22" 12
  14 "ValveBiped.Bip01_L_Finger1" 4
  15 "ValveBiped.Bip01_L_Finger11" 14
  16 "ValveBiped.Bip01_L_Finger12" 15
  17 "ValveBiped.Bip01_L_Finger0" 4
  18 "ValveBiped.Bip01_L_Finger01" 17
  19 "ValveBiped.Bip01_L_Finger02" 18
  20 "ValveBiped.Bip01_R_Clavicle" 0
  21 "ValveBiped.Bip01_R_UpperArm" 20
  22 "ValveBiped.Bip01_R_Forearm" 21
  23 "ValveBiped.Bip01_R_Hand" 22
  24 "ValveBiped.Bip01_R_Finger4" 23
  25 "ValveBiped.Bip01_R_Finger41" 24
  26 "ValveBiped.Bip01_R_Finger42" 25
  27 "ValveBiped.Bip01_R_Finger3" 23
  28 "ValveBiped.Bip01_R_Finger31" 27
  29 "ValveBiped.Bip01_R_Finger32" 28
  30 "ValveBiped.Bip01_R_Finger2" 23
  31 "ValveBiped.Bip01_R_Finger21" 30
  32 "ValveBiped.Bip01_R_Finger22" 31
  33 "ValveBiped.Bip01_R_Finger1" 23
  34 "ValveBiped.Bip01_R_Finger11" 33
  35 "ValveBiped.Bip01_R_Finger12" 34
  36 "ValveBiped.Bip01_R_Finger0" 23
  37 "ValveBiped.Bip01_R_Finger01" 36
  38 "ValveBiped.Bip01_R_Finger02" 37
  39 "ValveBiped.Grenade_body" 23
  40 "ValveBiped.Pin" 39
end
skeleton
  time 0
    0 -0.999512 -0.744141 -9.226563 -1.570781 -1.391896 -1.570809
    1 2.033349 1.000767 1.937660 1.596637 -1.286515 2.942961
    2 6.028141 0.000000 0.000000 -1.578055 0.031109 -1.286169
    3 11.692554 0.000001 0.000002 0.000000 0.000000 -1.194967
    4 14.462234 -8.039307 0.003874 1.573569 -0.028074 -0.424131
    5 3.859709 -0.142404 -1.191975 -0.476793 0.134331 -0.965122
    6 1.312555 -0.000002 0.000001 0.000000 0.000000 -0.279217
    7 0.729363 -0.000002 -0.000002 0.000000 0.000000 -0.096880
    8 3.942335 0.046767 -0.431443 -0.145073 0.087435 -0.741654
    9 1.539097 0.000000 0.000000 0.000000 0.000000 -0.309339
    10 1.196326 -0.000002 -0.000001 0.000000 0.000000 -0.521230
    11 3.883696 -0.046765 0.431443 0.085902 0.021830 -0.587867
    12 1.719570 -0.000004 -0.000001 0.000000 0.005516 -0.366478
    13 1.209171 -0.000002 0.000000 0.000000 0.003084 -0.216400
    14 3.859865 -0.137947 1.332466 0.354449 -0.042750 -0.531718
    15 1.719429 0.000002 -0.000001 0.000000 0.004074 -0.363009
    16 1.099665 0.000000 0.000000 0.000000 0.002596 -0.244331
    17 0.806053 -0.348925 1.321258 -1.166382 -0.626621 -0.921969
    18 1.789780 -0.000002 0.000002 0.000000 0.000000 0.189105
    19 1.207006 0.000000 0.000000 0.000000 0.000000 0.306015
    20 2.033356 1.000772 -1.937610 -1.668474 1.286518 2.942953
    21 6.028144 0.000000 0.000000 1.792697 1.386825 -0.781175
    22 11.692554 0.000001 0.000003 0.000000 0.000000 -0.670207
    23 11.481697 0.000001 0.000002 -1.839830 0.008434 0.043643
    24 3.859678 -0.132570 1.193109 0.455404 -0.193560 -0.842130
    25 1.312557 -0.000002 0.000001 0.000000 0.000000 -0.517222
    26 0.729365 0.000002 -0.000002 0.000000 0.000000 -0.174086
    27 3.942305 0.050327 0.431044 0.155828 -0.058920 -0.878931
    28 1.539099 -0.000002 0.000000 0.000000 0.000000 -0.247824
    29 1.196321 0.000008 0.000000 0.000000 0.000000 -0.751741
    30 3.883661 -0.050323 -0.431042 -0.079403 -0.041030 -0.763903
    31 1.719578 0.000004 0.000000 0.000000 -0.007973 -0.582418
    32 1.209185 0.000002 0.000000 0.000001 -0.004461 -0.471628
    33 3.859838 -0.148937 -1.331282 -0.350881 -0.029424 -0.716187
    34 1.719423 0.000002 0.000000 0.000001 -0.006611 -0.578953
    35 1.099667 0.000002 0.000000 0.000000 -0.004211 -0.597741
    36 0.806021 -0.359837 -1.318334 1.096823 0.367421 -1.417088
    37 1.789782 0.000000 -0.000004 0.000000 0.000000 0.265284
    38 1.206999 0.000003 0.000002 0.000000 0.000000 0.310702
    39 3.483999 -2.623365 0.559219 0.000000 0.000000 0.000000
    40 -29.453125 -11.093750 6.648438 0.000000 0.000000 0.000000
  time 1
    0 -0.999512 -0.744141 -9.226563 -1.570781 -1.391896 -1.570809
    1 2.033349 1.000767 1.937660 1.596637 -1.286515 2.942961
    2 6.028141 0.000000 0.000000 -1.578522 -0.349841 -1.282939
    3 11.692554 0.000001 0.000002 0.000000 0.000000 -1.248266
    4 11.481674 0.000001 -0.000032 1.573183 -0.028074 0.044379
    5 3.859709 -0.142404 -1.191975 -0.476793 0.134331 -0.965122
    6 1.312555 -0.000002 0.000001 0.000000 0.000000 -0.279217
    7 0.729363 -0.000002 -0.000002 0.000000 0.000000 -0.096880
    8 3.942335 0.046767 -0.431443 -0.145073 0.087435 -0.741654
    9 1.539097 0.000000 0.000000 0.000000 0.000000 -0.309339
    10 1.196326 -0.000002 -0.000001 0.000000 0.000000 -0.521230
    11 3.883696 -0.046765 0.431443 0.085902 0.021830 -0.587867
    12 1.719570 -0.000004 -0.000001 0.000000 0.005516 -0.366478
    13 1.209171 -0.000002 0.000000 0.000000 0.003084 -0.216400
    14 3.859865 -0.137947 1.332466 0.354449 -0.042750 -0.531718
    15 1.719429 0.000002 -0.000001 0.000000 0.004074 -0.363009
    16 1.099665 0.000000 0.000000 0.000000 0.002596 -0.244331
    17 0.806053 -0.348925 1.321258 -1.166382 -0.626621 -0.921969
    18 1.789780 -0.000002 0.000002 0.000000 0.000000 0.189105
    19 1.207006 0.000000 0.000000 0.000000 0.000000 0.306015
    20 2.033356 1.000772 -1.937610 -1.668474 1.286518 2.942953
    21 6.028144 0.000000 0.000000 1.672540 1.315052 -0.918046
    22 11.692554 0.000001 0.000003 0.000000 0.000000 -0.739315
    23 11.481697 0.000001 0.000002 -1.794486 0.013936 0.070547
    24 3.859678 -0.132570 1.193109 0.455404 -0.193560 -0.842130
    25 1.312557 -0.000002 0.000001 0.000000 0.000000 -0.517222
    26 0.729365 0.000002 -0.000002 0.000000 0.000000 -0.174086
    27 3.942305 0.050327 0.431044 0.155828 -0.058920 -0.878931
    28 1.539099 -0.000002 0.000000 0.000000 0.000000 -0.247837
    29 1.196321 0.000008 0.000000 0.000000 0.000000 -0.751741
    30 3.883661 -0.050323 -0.431042 -0.079403 -0.041030 -0.763903
    31 1.719578 0.000004 0.000000 0.000000 -0.007973 -0.582418
    32 1.209185 0.000002 0.000000 0.000001 -0.004461 -0.471628
    33 3.859838 -0.148937 -1.331282 -0.350881 -0.029424 -0.716187
    34 1.719423 0.000002 0.000000 0.000001 -0.006611 -0.578953
    35 1.099667 0.000002 0.000000 0.000000 -0.004211 -0.597741
    36 0.806021 -0.359837 -1.318334 1.096823 0.367421 -1.417088
    37 1.789782 0.000000 -0.000004 0.000000 0.000000 0.265284
    38 1.206999 0.000003 0.000002 0.000000 0.000000 0.310702
    39 3.491812 -2.623365 0.559219 0.000000 0.000000 0.000000
    40 -29.453125 -11.093750 6.648438 0.000000 0.000000 0.000000
  time 2
    0 -0.999512 -0.744141 -9.226563 -1.570781 -1.391896 -1.570809
    1 2.033349 1.000767 1.937660 1.596637 -1.286515 2.942961
    2 6.028141 0.000000 0.000000 -1.578235 -0.221007 -1.284094
    3 11.692554 0.000001 0.000002 0.000000 0.000000 -1.279894
    4 11.481674 0.000001 -0.000032 1.573183 -0.028074 0.044379
    5 3.859709 -0.142404 -1.191975 -0.476793 0.134331 -0.965122
    6 1.312555 -0.000002 0.000001 0.000000 0.000000 -0.279217
    7 0.729363 -0.000002 -0.000002 0.000000 0.000000 -0.096880
    8 3.942335 0.046767 -0.431443 -0.145073 0.087435 -0.741654
    9 1.539097 0.000000 0.000000 0.000000 0.000000 -0.309339
    10 1.196326 -0.000002 -0.000001 0.000000 0.000000 -0.521230
    11 3.883696 -0.046765 0.431443 0.085902 0.021830 -0.587867
    12 1.719570 -0.000004 -0.000001 0.000000 0.005516 -0.366478
    13 1.209171 -0.000002 0.000000 0.000000 0.003084 -0.216400
    14 3.859865 -0.137947 1.332466 0.354449 -0.042750 -0.531718
    15 1.719429 0.000002 -0.000001 0.000000 0.004074 -0.363009
    16 1.099665 0.000000 0.000000 0.000000 0.002596 -0.244331
    17 0.806053 -0.348925 1.321258 -1.166382 -0.626621 -0.921969
    18 1.789780 -0.000002 0.000002 0.000000 0.000000 0.189105
    19 1.207006 0.000000 0.000000 0.000000 0.000000 0.306015
    20 2.033356 1.000772 -1.937610 -1.668474 1.286518 2.942953
    21 6.028144 0.000000 0.000000 1.561224 1.159443 -1.059688
    22 11.692554 0.000001 0.000003 0.000000 0.000000 -0.848808
    23 11.481697 0.000001 0.000002 -1.671642 0.027260 0.140936
    24 3.859678 -0.132570 1.193109 0.455404 -0.193560 -0.842130
    25 1.312557 -0.000002 0.000001 0.000000 0.000000 -0.517222
    26 0.729365 0.000002 -0.000002 0.000000 0.000000 -0.174086
    27 3.942305 0.050327 0.431044 0.155828 -0.058920 -0.878931
    28 1.539099 -0.000002 0.000000 0.000000 0.000000 -0.247824
    29 1.196321 0.000008 0.000000 0.000000 0.000000 -0.751741
    30 3.883661 -0.050323 -0.431042 -0.079403 -0.041030 -0.763903
    31 1.719578 0.000004 0.000000 0.000000 -0.007973 -0.582418
    32 1.209185 0.000002 0.000000 0.000001 -0.004461 -0.471628
    33 3.859838 -0.148937 -1.331282 -0.350881 -0.029424 -0.716187
    34 1.719423 0.000002 0.000000 0.000001 -0.006611 -0.578953
    35 1.099667 0.000002 0.000000 0.000000 -0.004211 -0.597741
    36 0.806021 -0.359837 -1.318334 1.096823 0.367421 -1.417088
    37 1.789782 0.000000 -0.000004 0.000000 0.000000 0.265284
    38 1.206999 0.000003 0.000002 0.000000 0.000000 0.310702
    39 3.507437 -2.623365 0.551407 0.000000 0.000000 0.000000
    40 -29.453125 -11.093750 6.648438 0.000000 0.000000 0.000000
  time 3
    0 -0.999512 -0.744141 -9.226563 -1.570781 -1.391896 -1.570809
    1 2.033349 1.000767 1.937660 1.596637 -1.286515 2.942961
    2 6.028141 0.000000 0.000000 -1.578079 -0.088752 -1.285185
    3 11.692554 0.000001 0.000002 0.000000 0.000000 -1.271453
    4 11.481674 0.000001 -0.000032 1.573183 -0.028074 0.044379
    5 3.859709 -0.142404 -1.191975 -0.476793 0.134331 -0.965122
    6 1.312555 -0.000002 0.000001 0.000000 0.000000 -0.279217
    7 0.729363 -0.000002 -0.000002 0.000000 0.000000 -0.096880
    8 3.942335 0.046767 -0.431443 -0.145073 0.087435 -0.741654
    9 1.539097 0.000000 0.000000 0.000000 0.000000 -0.309339
    10 1.196326 -0.000002 -0.000001 0.000000 0.000000 -0.521230
    11 3.883696 -0.046765 0.431443 0.085902 0.021830 -0.587867
    12 1.719570 -0.000004 -0.000001 0.000000 0.005516 -0.366478
    13 1.209171 -0.000002 0.000000 0.000000 0.003084 -0.216400
    14 3.859865 -0.137947 1.332466 0.354449 -0.042750 -0.531718
    15 1.719429 0.000002 -0.000001 0.000000 0.004074 -0.363009
    16 1.099665 0.000000 0.000000 0.000000 0.002596 -0.244331
    17 0.806053 -0.348925 1.321258 -1.166382 -0.626621 -0.921969
    18 1.789780 -0.000002 0.000002 0.000000 0.000000 0.189105
    19 1.207006 0.000000 0.000000 0.000000 0.000000 0.306015
    20 2.033356 1.000772 -1.937610 -1.668474 1.286518 2.942953
    21 6.028144 0.000000 0.000000 1.511845 1.003537 -1.133100
    22 11.692554 0.000001 0.000003 0.000000 0.000000 -0.901284
    23 11.481697 0.000001 0.000002 -1.491243 0.043306 0.239328
    24 3.859678 -0.132570 1.193109 0.455404 -0.193560 -0.842130
    25 1.312557 -0.000002 0.000001 0.000000 0.000000 -0.517222
    26 0.729365 0.000002 -0.000002 0.000000 0.000000 -0.174086
    27 3.942305 0.050327 0.431044 0.155828 -0.058920 -0.878931
    28 1.539099 -0.000002 0.000000 0.000000 0.000000 -0.247824
    29 1.196321 0.000008 0.000000 0.000000 0.000000 -0.751741
    30 3.883661 -0.050323 -0.431042 -0.079403 -0.041030 -0.763903
    31 1.719578 0.000004 0.000000 0.000000 -0.007973 -0.582418
    32 1.209185 0.000002 0.000000 0.000001 -0.004461 -0.471628
    33 3.859838 -0.148937 -1.331282 -0.350881 -0.029424 -0.716187
    34 1.719423 0.000002 0.000000 0.000001 -0.006611 -0.578953
    35 1.099667 0.000002 0.000000 0.000000 -0.004211 -0.597741
    36 0.806021 -0.359837 -1.318334 1.096823 0.367421 -1.417088
    37 1.789782 0.000000 -0.000004 0.000000 0.000000 0.265284
    38 1.206999 0.000003 0.000002 0.000000 0.000000 0.310702
    39 3.519157 -2.619459 0.547500 0.000000 0.000000 0.000000
    40 -29.453125 -11.093750 6.648438 0.000000 0.000000 0.000000
  time 4
    0 -0.999512 -0.744141 -9.226563 -1.570781 -1.391896 -1.570809
    1 2.033349 1.000767 1.937660 1.596637 -1.286515 2.942961
    2 6.028141 0.000000 0.000000 -1.578055 0.000433 -1.285912
    3 11.692554 0.000001 0.000002 0.000000 0.000000 -1.225315
    4 11.481674 0.000001 -0.000032 1.573183 -0.028074 0.044379
    5 3.859709 -0.142404 -1.191975 -0.476793 0.134331 -0.965122
    6 1.312555 -0.000002 0.000001 0.000000 0.000000 -0.279217
    7 0.729363 -0.000002 -0.000002 0.000000 0.000000 -0.096880
    8 3.942335 0.046767 -0.431443 -0.145073 0.087435 -0.741654
    9 1.539097 0.000000 0.000000 0.000000 0.000000 -0.309339
    10 1.196326 -0.000002 -0.000001 0.000000 0.000000 -0.521230
    11 3.883696 -0.046765 0.431443 0.085902 0.021830 -0.587867
    12 1.719570 -0.000004 -0.000001 0.000000 0.005516 -0.366478
    13 1.209171 -0.000002 0.000000 0.000000 0.003084 -0.216400
    14 3.859865 -0.137947 1.332466 0.354449 -0.042750 -0.531718
    15 1.719429 0.000002 -0.000001 0.000000 0.004074 -0.363009
    16 1.099665 0.000000 0.000000 0.000000 0.002596 -0.244331
    17 0.806053 -0.348925 1.321258 -1.166382 -0.626621 -0.921969
    18 1.789780 -0.000002 0.000002 0.000000 0.000000 0.189105
    19 1.207006 0.000000 0.000000 0.000000 0.000000 0.306015
    20 2.033356 1.000772 -1.937610 -1.668474 1.286518 2.942953
    21 6.028144 0.000000 0.000000 1.489600 0.899287 -1.168909
    22 11.692554 0.000001 0.000003 0.000000 0.000000 -0.887759
    23 11.481697 0.000001 0.000002 -1.274971 0.056850 0.350180
    24 3.859678 -0.132570 1.193109 0.455404 -0.193560 -0.842130
    25 1.312557 -0.000002 0.000001 0.000000 0.000000 -0.517222
    26 0.729365 0.000002 -0.000002 0.000000 0.000000 -0.174086
    27 3.942305 0.050327 0.431044 0.155828 -0.058920 -0.878931
    28 1.539099 -0.000002 0.000000 0.000000 0.000000 -0.247824
    29 1.196321 0.000008 0.000000 0.000000 0.000000 -0.751741
    30 3.883661 -0.050323 -0.431042 -0.079403 -0.041030 -0.763903
    31 1.719578 0.000004 0.000000 0.000000 -0.007973 -0.582418
    32 1.209185 0.000002 0.000000 0.000001 -0.004461 -0.471628
    33 3.859838 -0.148937 -1.331282 -0.350881 -0.029424 -0.716187
    34 1.719423 0.000002 0.000000 0.000001 -0.006611 -0.578953
    35 1.099667 0.000002 0.000000 0.000000 -0.004211 -0.597741
    36 0.806021 -0.359837 -1.318334 1.096823 0.367421 -1.417088
    37 1.789782 0.000000 -0.000004 0.000000 0.000000 0.265284
    38 1.206999 0.000003 0.000002 0.000000 0.000000 0.310702
    39 3.515250 -2.619459 0.547500 0.000000 0.000000 0.000000
    40 -29.453125 -11.093750 6.648438 0.000000 0.000000 0.000000
  time 5
    0 -0.999512 -0.744141 -9.226563 -1.570781 -1.391896 -1.570809
    1 2.033349 1.000767 1.937660 1.596637 -1.286515 2.942961
    2 6.028141 0.000000 0.000000 -1.578055 0.031109 -1.286169
    3 11.692554 0.000001 0.000002 0.000000 0.000000 -1.194967
    4 11.481674 0.000001 -0.000032 1.573183 -0.028074 0.044379
    5 3.859709 -0.142404 -1.191975 -0.476793 0.134331 -0.965122
    6 1.312555 -0.000002 0.000001 0.000000 0.000000 -0.279217
    7 0.729363 -0.000002 -0.000002 0.000000 0.000000 -0.096880
    8 3.942335 0.046767 -0.431443 -0.145073 0.087435 -0.741654
    9 1.539097 0.000000 0.000000 0.000000 0.000000 -0.309339
    10 1.196326 -0.000002 -0.000001 0.000000 0.000000 -0.521230
    11 3.883696 -0.046765 0.431443 0.085902 0.021830 -0.587867
    12 1.719570 -0.000004 -0.000001 0.000000 0.005516 -0.366478
    13 1.209171 -0.000002 0.000000 0.000000 0.003084 -0.216400
    14 3.859865 -0.137947 1.332466 0.354449 -0.042750 -0.531718
    15 1.719429 0.000002 -0.000001 0.000000 0.004074 -0.363009
    16 1.099665 0.000000 0.000000 0.000000 0.002596 -0.244331
    17 0.806053 -0.348925 1.321258 -1.166382 -0.626621 -0.921969
    18 1.789780 -0.000002 0.000002 0.000000 0.000000 0.189105
    19 1.207006 0.000000 0.000000 0.000000 0.000000 0.306015
    20 2.033356 1.000772 -1.937610 -1.668474 1.286518 2.942953
    21 6.028144 0.000000 0.000000 1.482405 0.863656 -1.180656
    22 11.692554 0.000001 0.000003 0.000000 0.000000 -0.866396
    23 11.481697 0.000001 0.000002 -1.047614 0.063332 0.457703
    24 3.859678 -0.132570 1.193109 0.455404 -0.193560 -0.842130
    25 1.312557 -0.000002 0.000001 0.000000 0.000000 -0.517222
    26 0.729365 0.000002 -0.000002 0.000000 0.000000 -0.174086
    27 3.942305 0.050327 0.431044 0.155828 -0.058920 -0.878931
    28 1.539099 -0.000002 0.000000 0.000000 0.000000 -0.247824
    29 1.196321 0.000008 0.000000 0.000000 0.000000 -0.751741
    30 3.883661 -0.050323 -0.431042 -0.079403 -0.041030 -0.763903
    31 1.719578 0.000004 0.000000 0.000000 -0.007973 -0.582418
    32 1.209185 0.000002 0.000000 0.000001 -0.004461 -0.471628
    33 3.859838 -0.148937 -1.331282 -0.350881 -0.029424 -0.716187
    34 1.719423 0.000002 0.000000 0.000001 -0.006611 -0.578953
    35 1.099667 0.000002 0.000000 0.000000 -0.004211 -0.597741
    36 0.806021 -0.359837 -1.318334 1.096823 0.367421 -1.417088
    37 1.789782 0.000000 -0.000004 0.000000 0.000000 0.265284
    38 1.206999 0.000003 0.000002 0.000000 0.000000 0.310702
    39 3.483999 -2.623365 0.559219 0.000000 0.000000 0.000000
    40 -29.453125 -11.093750 6.648438 0.000000 0.000000 0.000000
end
