// Created by Crowbar 0.74
version 1
nodes
  0 "ValveBiped.Bip01_Spine4" -1
  1 "ValveBiped.Bip01_L_Clavicle" 0
  2 "ValveBiped.Bip01_L_UpperArm" 1
  3 "ValveBiped.Bip01_L_Forearm" 2
  4 "ValveBiped.Bip01_L_Hand" 3
  5 "ValveBiped.Bip01_L_Finger4" 4
  6 "ValveBiped.Bip01_L_Finger41" 5
  7 "ValveBiped.Bip01_L_Finger42" 6
  8 "ValveBiped.Bip01_L_Finger3" 4
  9 "ValveBiped.Bip01_L_Finger31" 8
  10 "ValveBiped.Bip01_L_Finger32" 9
  11 "ValveBiped.Bip01_L_Finger2" 4
  12 "ValveBiped.Bip01_L_Finger21" 11
  13 "ValveBiped.Bip01_L_Finger22" 12
  14 "ValveBiped.Bip01_L_Finger1" 4
  15 "ValveBiped.Bip01_L_Finger11" 14
  16 "ValveBiped.Bip01_L_Finger12" 15
  17 "ValveBiped.Bip01_L_Finger0" 4
  18 "ValveBiped.Bip01_L_Finger01" 17
  19 "ValveBiped.Bip01_L_Finger02" 18
  20 "ValveBiped.Bip01_R_Clavicle" 0
  21 "ValveBiped.Bip01_R_UpperArm" 20
  22 "ValveBiped.Bip01_R_Forearm" 21
  23 "ValveBiped.Bip01_R_Hand" 22
  24 "ValveBiped.Bip01_R_Finger4" 23
  25 "ValveBiped.Bip01_R_Finger41" 24
  26 "ValveBiped.Bip01_R_Finger42" 25
  27 "ValveBiped.Bip01_R_Finger3" 23
  28 "ValveBiped.Bip01_R_Finger31" 27
  29 "ValveBiped.Bip01_R_Finger32" 28
  30 "ValveBiped.Bip01_R_Finger2" 23
  31 "ValveBiped.Bip01_R_Finger21" 30
  32 "ValveBiped.Bip01_R_Finger22" 31
  33 "ValveBiped.Bip01_R_Finger1" 23
  34 "ValveBiped.Bip01_R_Finger11" 33
  35 "ValveBiped.Bip01_R_Finger12" 34
  36 "ValveBiped.Bip01_R_Finger0" 23
  37 "ValveBiped.Bip01_R_Finger01" 36
  38 "ValveBiped.Bip01_R_Finger02" 37
  39 "ValveBiped.Grenade_body" 23
  40 "ValveBiped.Pin" 39
end
skeleton
  time 0
    0 -0.999512 -0.744141 -9.226563 -1.570781 -1.391896 -1.570809
    1 2.033349 1.000767 1.937660 1.596637 -1.286515 2.942961
    2 6.028141 0.000000 0.000000 -1.578047 0.031083 -1.286165
    3 11.692554 0.000001 0.000002 0.000000 0.000000 -1.195006
    4 11.481674 0.000001 -0.000032 1.573168 -0.028074 0.044378
    5 3.859709 -0.142404 -1.191975 -0.476793 0.134331 -0.965122
    6 1.312555 -0.000002 0.000001 0.000000 0.000000 -0.279217
    7 0.729363 -0.000002 -0.000002 0.000000 0.000000 -0.096880
    8 3.942335 0.046767 -0.431443 -0.145073 0.087435 -0.741654
    9 1.539097 0.000000 0.000000 0.000000 0.000000 -0.309339
    10 1.196326 -0.000002 -0.000001 0.000000 0.000000 -0.521230
    11 3.883696 -0.046765 0.431443 0.085902 0.021830 -0.587867
    12 1.719570 -0.000004 -0.000001 0.000000 0.005516 -0.366478
    13 1.209171 -0.000002 0.000000 0.000000 0.003084 -0.216400
    14 3.859865 -0.137947 1.332466 0.354449 -0.042750 -0.531718
    15 1.719429 0.000002 -0.000001 0.000000 0.004074 -0.363009
    16 1.099665 0.000000 0.000000 0.000000 0.002596 -0.244331
    17 0.806053 -0.348925 1.321258 -1.166382 -0.626621 -0.921969
    18 1.789780 -0.000002 0.000002 0.000000 0.000000 0.189105
    19 1.207006 0.000000 0.000000 0.000000 0.000000 0.306015
    20 2.033356 1.000772 -1.937610 -1.668474 1.286518 2.942953
    21 6.028144 0.000000 0.000000 1.493551 0.920000 -1.162496
    22 11.692554 0.000001 0.000003 0.000000 0.000000 -0.893160
    23 11.481697 0.000001 0.000002 -0.836093 0.059811 0.546048
    24 3.859678 -0.132570 1.193109 0.455414 -0.193552 -0.842134
    25 1.312557 -0.000002 0.000001 0.000000 0.000000 -0.517213
    26 0.729365 0.000002 -0.000002 0.000000 0.000000 -0.174086
    27 3.942305 0.050327 0.431044 0.155819 -0.058925 -0.878922
    28 1.539099 -0.000002 0.000000 0.000000 0.000000 -0.247824
    29 1.196321 0.000008 0.000000 0.000000 0.000000 -0.751732
    30 3.883661 -0.050323 -0.431042 -0.079409 -0.041025 -0.763894
    31 1.719578 0.000004 0.000000 0.000000 -0.007974 -0.582411
    32 1.209185 0.000002 0.000000 0.000001 -0.004461 -0.471628
    33 3.859838 -0.148937 -1.331282 -0.350884 -0.029422 -0.716173
    34 1.719423 0.000002 0.000000 0.000000 -0.006613 -0.578944
    35 1.099667 0.000002 0.000000 0.000000 -0.004209 -0.597741
    36 0.806021 -0.359837 -1.318334 1.096827 0.367420 -1.417086
    37 1.789782 0.000000 -0.000004 0.000000 0.000000 0.265284
    38 1.206999 0.000003 0.000002 0.000000 0.000000 0.310702
    39 -26.977868 0.818146 21.009062 0.000000 0.000000 0.000000
    40 -29.453125 -11.093750 6.648438 0.000000 0.000000 0.000000
  time 1
    0 -0.999512 -0.744141 -9.226563 -1.570781 -1.391896 -1.570809
    1 2.033349 1.000767 1.937660 1.596637 -1.286515 2.942961
    2 6.028141 0.000000 0.000000 -1.578047 0.031083 -1.286165
    3 11.692554 0.000001 0.000002 0.000000 0.000000 -1.195006
    4 11.481674 0.000001 -0.000032 1.573168 -0.028074 0.044378
    5 3.859709 -0.142404 -1.191975 -0.476793 0.134331 -0.965122
    6 1.312555 -0.000002 0.000001 0.000000 0.000000 -0.279217
    7 0.729363 -0.000002 -0.000002 0.000000 0.000000 -0.096880
    8 3.942335 0.046767 -0.431443 -0.145073 0.087435 -0.741654
    9 1.539097 0.000000 0.000000 0.000000 0.000000 -0.309339
    10 1.196326 -0.000002 -0.000001 0.000000 0.000000 -0.521230
    11 3.883696 -0.046765 0.431443 0.085902 0.021830 -0.587867
    12 1.719570 -0.000004 -0.000001 0.000000 0.005516 -0.366478
    13 1.209171 -0.000002 0.000000 0.000000 0.003084 -0.216400
    14 3.859865 -0.137947 1.332466 0.354449 -0.042750 -0.531718
    15 1.719429 0.000002 -0.000001 0.000000 0.004074 -0.363009
    16 1.099665 0.000000 0.000000 0.000000 0.002596 -0.244331
    17 0.806053 -0.348925 1.321258 -1.166382 -0.626621 -0.921969
    18 1.789780 -0.000002 0.000002 0.000000 0.000000 0.189105
    19 1.207006 0.000000 0.000000 0.000000 0.000000 0.306015
    20 2.033356 1.000772 -1.937610 -1.668474 1.286518 2.942953
    21 6.028144 0.000000 0.000000 1.532396 1.085411 -1.101294
    22 11.692554 0.000001 0.000003 0.000000 0.000000 -0.874329
    23 11.481697 0.000001 0.000002 -0.667631 0.044346 0.599397
    24 3.859678 -0.132570 1.193109 0.462952 -0.176906 -0.846706
    25 1.312557 -0.000002 0.000001 0.000000 0.000000 -0.422690
    26 0.729365 0.000002 -0.000002 0.000000 0.000000 -0.174086
    27 3.942305 0.050327 0.431044 0.150797 -0.073342 -0.813333
    28 1.539099 -0.000002 0.000000 0.000000 0.000000 -0.279823
    29 1.196321 0.000008 0.000000 0.000000 0.000000 -0.624468
    30 3.883661 -0.050323 -0.431042 -0.083784 -0.032013 -0.653650
    31 1.719578 0.000004 0.000000 0.000000 -0.007974 -0.487876
    32 1.209185 0.000002 0.000000 0.000001 -0.004461 -0.471628
    33 3.859838 -0.148937 -1.331282 -0.355006 0.066299 -0.647736
    34 1.719423 0.000002 0.000000 0.000000 -0.006613 -0.458236
    35 1.099667 0.000002 0.000000 0.000000 -0.004209 -0.597741
    36 0.806021 -0.359837 -1.318334 1.096827 0.367420 -1.417086
    37 1.789782 0.000000 -0.000004 0.000000 0.000000 0.265284
    38 1.206999 0.000003 0.000002 0.000000 0.000000 0.310702
    39 -31.728013 0.607202 22.638018 0.000000 0.000000 0.000000
    40 -29.453125 -11.093750 6.648438 0.000000 0.000000 0.000000
  time 2
    0 -0.999512 -0.744141 -9.226563 -1.570781 -1.391896 -1.570809
    1 2.033349 1.000767 1.937660 1.596637 -1.286515 2.942961
    2 6.028141 0.000000 0.000000 -1.578047 0.031083 -1.286165
    3 11.692554 0.000001 0.000002 0.000000 0.000000 -1.195006
    4 11.481674 0.000001 -0.000032 1.573168 -0.028074 0.044378
    5 3.859709 -0.142404 -1.191975 -0.476793 0.134331 -0.965122
    6 1.312555 -0.000002 0.000001 0.000000 0.000000 -0.279217
    7 0.729363 -0.000002 -0.000002 0.000000 0.000000 -0.096880
    8 3.942335 0.046767 -0.431443 -0.145073 0.087435 -0.741654
    9 1.539097 0.000000 0.000000 0.000000 0.000000 -0.309339
    10 1.196326 -0.000002 -0.000001 0.000000 0.000000 -0.521230
    11 3.883696 -0.046765 0.431443 0.085902 0.021830 -0.587867
    12 1.719570 -0.000004 -0.000001 0.000000 0.005516 -0.366478
    13 1.209171 -0.000002 0.000000 0.000000 0.003084 -0.216400
    14 3.859865 -0.137947 1.332466 0.354449 -0.042750 -0.531718
    15 1.719429 0.000002 -0.000001 0.000000 0.004074 -0.363009
    16 1.099665 0.000000 0.000000 0.000000 0.002596 -0.244331
    17 0.806053 -0.348925 1.321258 -1.166382 -0.626621 -0.921969
    18 1.789780 -0.000002 0.000002 0.000000 0.000000 0.189105
    19 1.207006 0.000000 0.000000 0.000000 0.000000 0.306015
    20 2.033356 1.000772 -1.937610 -1.668474 1.286518 2.942953
    21 6.028144 0.000000 0.000000 1.626594 1.277929 -0.974272
    22 11.692554 0.000001 0.000003 0.000000 0.000000 -0.753701
    23 11.481697 0.000001 0.000002 -0.567108 0.014056 0.602451
    24 3.859678 -0.132570 1.193109 0.475272 -0.132635 -0.856731
    25 1.312557 -0.000002 0.000001 0.000000 0.000000 -0.249609
    26 0.729365 0.000002 -0.000002 0.000000 0.000000 -0.174086
    27 3.942305 0.050327 0.431044 0.140670 -0.096605 -0.686974
    28 1.539099 -0.000002 0.000000 0.000000 0.000000 -0.359828
    29 1.196321 0.000008 0.000000 0.000000 0.000000 -0.388144
    30 3.883661 -0.050323 -0.431042 -0.089321 -0.013341 -0.439162
    31 1.719578 0.000004 0.000000 0.000000 -0.007974 -0.314807
    32 1.209185 0.000002 0.000000 0.000001 -0.004461 -0.471628
    33 3.859838 -0.148937 -1.331282 -0.362425 0.246967 -0.514150
    34 1.719423 0.000002 0.000000 0.000000 -0.006613 -0.232806
    35 1.099667 0.000002 0.000000 0.000000 -0.004209 -0.597741
    36 0.806021 -0.359837 -1.318334 1.096827 0.367420 -1.417086
    37 1.789782 0.000000 -0.000004 0.000000 0.000000 0.265284
    38 1.206999 0.000003 0.000002 0.000000 0.000000 0.310702
    39 -31.669417 -0.424080 20.575455 0.000000 0.000000 0.000000
    40 -29.453125 -11.093750 6.648438 0.000000 0.000000 0.000000
  time 3
    0 -0.999512 -0.744141 -9.226563 -1.570781 -1.391896 -1.570809
    1 2.033349 1.000767 1.937660 1.596637 -1.286515 2.942961
    2 6.028141 0.000000 0.000000 -1.578047 0.031083 -1.286165
    3 11.692554 0.000001 0.000002 0.000000 0.000000 -1.195006
    4 11.481674 0.000001 -0.000032 1.573168 -0.028074 0.044378
    5 3.859709 -0.142404 -1.191975 -0.476793 0.134331 -0.965122
    6 1.312555 -0.000002 0.000001 0.000000 0.000000 -0.279217
    7 0.729363 -0.000002 -0.000002 0.000000 0.000000 -0.096880
    8 3.942335 0.046767 -0.431443 -0.145073 0.087435 -0.741654
    9 1.539097 0.000000 0.000000 0.000000 0.000000 -0.309339
    10 1.196326 -0.000002 -0.000001 0.000000 0.000000 -0.521230
    11 3.883696 -0.046765 0.431443 0.085902 0.021830 -0.587867
    12 1.719570 -0.000004 -0.000001 0.000000 0.005516 -0.366478
    13 1.209171 -0.000002 0.000000 0.000000 0.003084 -0.216400
    14 3.859865 -0.137947 1.332466 0.354449 -0.042750 -0.531718
    15 1.719429 0.000002 -0.000001 0.000000 0.004074 -0.363009
    16 1.099665 0.000000 0.000000 0.000000 0.002596 -0.244331
    17 0.806053 -0.348925 1.321258 -1.166382 -0.626621 -0.921969
    18 1.789780 -0.000002 0.000002 0.000000 0.000000 0.189105
    19 1.207006 0.000000 0.000000 0.000000 0.000000 0.306015
    20 2.033356 1.000772 -1.937610 -1.668474 1.286518 2.942953
    21 6.028144 0.000000 0.000000 1.747550 1.379196 -0.833810
    22 11.692554 0.000001 0.000003 0.000000 0.000000 -0.649560
    23 11.481697 0.000001 0.000002 -0.727500 -0.183847 0.294357
    24 3.859678 -0.132570 1.193109 0.484740 -0.073946 -0.869048
    25 1.312557 -0.000002 0.000001 0.000000 0.000000 -0.163799
    26 0.729365 0.000002 -0.000002 0.000000 0.000000 -0.174086
    27 3.942305 0.050327 0.431044 0.136272 -0.100008 -0.606262
    28 1.539099 -0.000002 0.000000 0.000000 0.000000 -0.463815
    29 1.196321 0.000008 0.000000 0.000000 0.000000 -0.260879
    30 3.883661 -0.050323 -0.431042 -0.090747 -0.000242 -0.294314
    31 1.719578 0.000004 0.000000 0.000000 -0.007974 -0.228997
    32 1.209185 0.000002 0.000000 0.000001 -0.004461 -0.471628
    33 3.859838 -0.148937 -1.331282 -0.364882 0.352252 -0.419372
    34 1.719423 0.000002 0.000000 0.000000 -0.006613 -0.107722
    35 1.099667 0.000002 0.000000 0.000000 -0.004209 -0.597741
    36 0.806021 -0.359837 -1.318334 1.096827 0.367420 -1.417086
    37 1.789782 0.000000 -0.000004 0.000000 0.000000 0.265284
    38 1.206999 0.000003 0.000002 0.000000 0.000000 0.310702
    39 -31.751451 -3.642928 15.864374 0.000000 0.000000 0.000000
    40 -29.453125 -11.093750 6.648438 0.000000 0.000000 0.000000
  time 4
    0 -0.999512 -0.744141 -9.226563 -1.570781 -1.391896 -1.570809
    1 2.033349 1.000767 1.937660 1.596637 -1.286515 2.942961
    2 6.028141 0.000000 0.000000 -1.578047 0.031083 -1.286165
    3 11.692554 0.000001 0.000002 0.000000 0.000000 -1.195006
    4 11.481674 0.000001 -0.000032 1.573168 -0.028074 0.044378
    5 3.859709 -0.142404 -1.191975 -0.476793 0.134331 -0.965122
    6 1.312555 -0.000002 0.000001 0.000000 0.000000 -0.279217
    7 0.729363 -0.000002 -0.000002 0.000000 0.000000 -0.096880
    8 3.942335 0.046767 -0.431443 -0.145073 0.087435 -0.741654
    9 1.539097 0.000000 0.000000 0.000000 0.000000 -0.309339
    10 1.196326 -0.000002 -0.000001 0.000000 0.000000 -0.521230
    11 3.883696 -0.046765 0.431443 0.085902 0.021830 -0.587867
    12 1.719570 -0.000004 -0.000001 0.000000 0.005516 -0.366478
    13 1.209171 -0.000002 0.000000 0.000000 0.003084 -0.216400
    14 3.859865 -0.137947 1.332466 0.354449 -0.042750 -0.531718
    15 1.719429 0.000002 -0.000001 0.000000 0.004074 -0.363009
    16 1.099665 0.000000 0.000000 0.000000 0.002596 -0.244331
    17 0.806053 -0.348925 1.321258 -1.166382 -0.626621 -0.921969
    18 1.789780 -0.000002 0.000002 0.000000 0.000000 0.189105
    19 1.207006 0.000000 0.000000 0.000000 0.000000 0.306015
    20 2.033356 1.000772 -1.937610 -1.668474 1.286518 2.942953
    21 6.028144 0.000000 0.000000 1.763869 1.379792 -0.814315
    22 11.692554 0.000001 0.000003 0.000000 0.000000 -0.664806
    23 11.481697 0.000001 0.000002 -0.814715 -0.461097 -0.267413
    24 3.859678 -0.132570 1.193109 0.501003 -0.016971 -0.881985
    25 1.312557 -0.000002 0.000001 0.000000 0.000000 -0.281607
    26 0.729365 0.000002 -0.000002 0.000000 0.000000 -0.174086
    27 3.942305 0.050327 0.431044 0.153805 -0.061442 -0.633255
    28 1.539099 -0.000002 0.000000 0.000000 0.000000 -0.567802
    29 1.196321 0.000008 0.000000 0.000000 0.000000 -0.260879
    30 3.883661 -0.050323 -0.431042 -0.090675 -0.001824 -0.311699
    31 1.719578 0.000004 0.000000 0.000000 -0.007974 -0.346806
    32 1.209185 0.000002 0.000000 0.000001 -0.004461 -0.471628
    33 3.859838 -0.148937 -1.331282 -0.358422 0.282861 -0.415577
    34 1.719423 0.000002 0.000000 0.000000 -0.006613 -0.216806
    35 1.099667 0.000002 0.000000 0.000000 -0.004209 -0.597741
    36 0.806021 -0.359837 -1.318334 1.096827 0.367420 -1.417086
    37 1.789782 0.000000 -0.000004 0.000000 0.000000 0.265284
    38 1.206999 0.000003 0.000002 0.000000 0.000000 0.310702
    39 -34.478097 -12.795551 5.817192 0.000000 0.000000 0.000000
    40 -29.453125 -11.093750 6.648438 0.000000 0.000000 0.000000
  time 5
    0 -0.999512 -0.744141 -9.226563 -1.570781 -1.391896 -1.570809
    1 2.033349 1.000767 1.937660 1.596637 -1.286515 2.942961
    2 6.028141 0.000000 0.000000 -1.578047 0.031083 -1.286165
    3 11.692554 0.000001 0.000002 0.000000 0.000000 -1.195006
    4 11.481674 0.000001 -0.000032 1.573168 -0.028074 0.044378
    5 3.859709 -0.142404 -1.191975 -0.476793 0.134331 -0.965122
    6 1.312555 -0.000002 0.000001 0.000000 0.000000 -0.279217
    7 0.729363 -0.000002 -0.000002 0.000000 0.000000 -0.096880
    8 3.942335 0.046767 -0.431443 -0.145073 0.087435 -0.741654
    9 1.539097 0.000000 0.000000 0.000000 0.000000 -0.309339
    10 1.196326 -0.000002 -0.000001 0.000000 0.000000 -0.521230
    11 3.883696 -0.046765 0.431443 0.085902 0.021830 -0.587867
    12 1.719570 -0.000004 -0.000001 0.000000 0.005516 -0.366478
    13 1.209171 -0.000002 0.000000 0.000000 0.003084 -0.216400
    14 3.859865 -0.137947 1.332466 0.354449 -0.042750 -0.531718
    15 1.719429 0.000002 -0.000001 0.000000 0.004074 -0.363009
    16 1.099665 0.000000 0.000000 0.000000 0.002596 -0.244331
    17 0.806053 -0.348925 1.321258 -1.166382 -0.626621 -0.921969
    18 1.789780 -0.000002 0.000002 0.000000 0.000000 0.189105
    19 1.207006 0.000000 0.000000 0.000000 0.000000 0.306015
    20 2.033356 1.000772 -1.937610 -1.668474 1.286518 2.942953
    21 6.028144 0.000000 0.000000 1.737251 1.340113 -0.840120
    22 11.692554 0.000001 0.000003 0.000000 0.000000 -0.758002
    23 11.481697 0.000001 0.000002 -0.837920 -0.541242 -0.610441
    24 3.859678 -0.132570 1.193109 0.525775 0.022194 -0.894377
    25 1.312557 -0.000002 0.000001 0.000000 0.000000 -0.486676
    26 0.729365 0.000002 -0.000002 0.000000 0.000000 -0.174086
    27 3.942305 0.050327 0.431044 0.184102 -0.007247 -0.706398
    28 1.539099 -0.000002 0.000000 0.000000 0.000000 -0.647807
    29 1.196321 0.000008 0.000000 0.000000 0.000000 -0.260879
    30 3.883661 -0.050323 -0.431042 -0.089908 -0.009697 -0.398604
    31 1.719578 0.000004 0.000000 0.000000 -0.007974 -0.551874
    32 1.209185 0.000002 0.000000 0.000001 -0.004461 -0.471628
    33 3.859838 -0.148937 -1.331282 -0.353424 0.138387 -0.452453
    34 1.719423 0.000002 0.000000 0.000000 -0.006613 -0.426237
    35 1.099667 0.000002 0.000000 0.000000 -0.004209 -0.597741
    36 0.806021 -0.359837 -1.318334 1.096827 0.367420 -1.417086
    37 1.789782 0.000000 -0.000004 0.000000 0.000000 0.265284
    38 1.206999 0.000003 0.000002 0.000000 0.000000 0.310702
    39 -36.005487 -23.073208 -7.398055 0.000000 0.000000 0.000000
    40 -29.453125 -11.093750 6.648438 0.000000 0.000000 0.000000
  time 6
    0 -0.999512 -0.744141 -9.226563 -1.570781 -1.391896 -1.570809
    1 2.033349 1.000767 1.937660 1.596637 -1.286515 2.942961
    2 6.028141 0.000000 0.000000 -1.578047 0.031083 -1.286165
    3 11.692554 0.000001 0.000002 0.000000 0.000000 -1.195006
    4 11.481674 0.000001 -0.000032 1.573168 -0.028074 0.044378
    5 3.859709 -0.142404 -1.191975 -0.476793 0.134331 -0.965122
    6 1.312555 -0.000002 0.000001 0.000000 0.000000 -0.279217
    7 0.729363 -0.000002 -0.000002 0.000000 0.000000 -0.096880
    8 3.942335 0.046767 -0.431443 -0.145073 0.087435 -0.741654
    9 1.539097 0.000000 0.000000 0.000000 0.000000 -0.309339
    10 1.196326 -0.000002 -0.000001 0.000000 0.000000 -0.521230
    11 3.883696 -0.046765 0.431443 0.085902 0.021830 -0.587867
    12 1.719570 -0.000004 -0.000001 0.000000 0.005516 -0.366478
    13 1.209171 -0.000002 0.000000 0.000000 0.003084 -0.216400
    14 3.859865 -0.137947 1.332466 0.354449 -0.042750 -0.531718
    15 1.719429 0.000002 -0.000001 0.000000 0.004074 -0.363009
    16 1.099665 0.000000 0.000000 0.000000 0.002596 -0.244331
    17 0.806053 -0.348925 1.321258 -1.166382 -0.626621 -0.921969
    18 1.789780 -0.000002 0.000002 0.000000 0.000000 0.189105
    19 1.207006 0.000000 0.000000 0.000000 0.000000 0.306015
    20 2.033356 1.000772 -1.937610 -1.668474 1.286518 2.942953
    21 6.028144 0.000000 0.000000 1.706024 1.284663 -0.872285
    22 11.692554 0.000001 0.000003 0.000000 0.000000 -0.878487
    23 11.481697 0.000001 0.000002 -0.837219 -0.548965 -0.851719
    24 3.859678 -0.132570 1.193109 0.539342 0.035114 -0.900957
    25 1.312557 -0.000002 0.000001 0.000000 0.000000 -0.595760
    26 0.729365 0.000002 -0.000002 0.000000 0.000000 -0.174086
    27 3.942305 0.050327 0.431044 0.200449 0.019814 -0.748024
    28 1.539099 -0.000002 0.000000 0.000000 0.000000 -0.679806
    29 1.196321 0.000008 0.000000 0.000000 0.000000 -0.260879
    30 3.883661 -0.050323 -0.431042 -0.089117 -0.014383 -0.450756
    31 1.719578 0.000004 0.000000 0.000000 -0.007974 -0.660958
    32 1.209185 0.000002 0.000000 0.000001 -0.004461 -0.471628
    33 3.859838 -0.148937 -1.331282 -0.353041 0.058965 -0.476699
    34 1.719423 0.000002 0.000000 0.000000 -0.006613 -0.539683
    35 1.099667 0.000002 0.000000 0.000000 -0.004209 -0.597741
    36 0.806021 -0.359837 -1.318334 1.096827 0.367420 -1.417086
    37 1.789782 0.000000 -0.000004 0.000000 0.000000 0.265284
    38 1.206999 0.000003 0.000002 0.000000 0.000000 0.310702
    39 -29.962334 -24.729509 -20.167976 0.000000 0.000000 0.000000
    40 -29.453125 -11.093750 6.648438 0.000000 0.000000 0.000000
  time 7
    0 -0.999512 -0.744141 -9.226563 -1.570781 -1.391896 -1.570809
    1 2.033349 1.000767 1.937660 1.596637 -1.286515 2.942961
    2 6.028141 0.000000 0.000000 -1.578047 0.031083 -1.286165
    3 11.692554 0.000001 0.000002 0.000000 0.000000 -1.195006
    4 11.481674 0.000001 -0.000032 1.573168 -0.028074 0.044378
    5 3.859709 -0.142404 -1.191975 -0.476793 0.134331 -0.965122
    6 1.312555 -0.000002 0.000001 0.000000 0.000000 -0.279217
    7 0.729363 -0.000002 -0.000002 0.000000 0.000000 -0.096880
    8 3.942335 0.046767 -0.431443 -0.145073 0.087435 -0.741654
    9 1.539097 0.000000 0.000000 0.000000 0.000000 -0.309339
    10 1.196326 -0.000002 -0.000001 0.000000 0.000000 -0.521230
    11 3.883696 -0.046765 0.431443 0.085902 0.021830 -0.587867
    12 1.719570 -0.000004 -0.000001 0.000000 0.005516 -0.366478
    13 1.209171 -0.000002 0.000000 0.000000 0.003084 -0.216400
    14 3.859865 -0.137947 1.332466 0.354449 -0.042750 -0.531718
    15 1.719429 0.000002 -0.000001 0.000000 0.004074 -0.363009
    16 1.099665 0.000000 0.000000 0.000000 0.002596 -0.244331
    17 0.806053 -0.348925 1.321258 -1.166382 -0.626621 -0.921969
    18 1.789780 -0.000002 0.000002 0.000000 0.000000 0.189105
    19 1.207006 0.000000 0.000000 0.000000 0.000000 0.306015
    20 2.033356 1.000772 -1.937610 -1.668474 1.286518 2.942953
    21 6.028144 0.000000 0.000000 1.672540 1.218857 -0.910094
    22 11.692554 0.000001 0.000003 0.000000 0.000000 -1.004039
    23 11.481697 0.000001 0.000002 -0.834996 -0.535140 -0.956463
    24 3.859678 -0.132570 1.193109 0.539342 0.035114 -0.900957
    25 1.312557 -0.000002 0.000001 0.000000 0.000000 -0.595760
    26 0.729365 0.000002 -0.000002 0.000000 0.000000 -0.174086
    27 3.942305 0.050327 0.431044 0.200449 0.019814 -0.748024
    28 1.539099 -0.000002 0.000000 0.000000 0.000000 -0.679793
    29 1.196321 0.000008 0.000000 0.000000 0.000000 -0.260879
    30 3.883661 -0.050323 -0.431042 -0.089117 -0.014383 -0.450756
    31 1.719578 0.000004 0.000000 0.000000 -0.007974 -0.660958
    32 1.209185 0.000002 0.000000 0.000001 -0.004461 -0.471628
    33 3.859838 -0.148937 -1.331282 -0.353041 0.058965 -0.476699
    34 1.719423 0.000002 0.000000 0.000000 -0.006613 -0.539683
    35 1.099667 0.000002 0.000000 0.000000 -0.004209 -0.597741
    36 0.806021 -0.359837 -1.318334 1.096827 0.367420 -1.417086
    37 1.789782 0.000000 -0.000004 0.000000 0.000000 0.265284
    38 1.206999 0.000003 0.000002 0.000000 0.000000 0.310702
    39 -29.962334 -24.729509 -20.167976 0.000000 0.000000 0.000000
    40 -29.453125 -11.093750 6.648438 0.000000 0.000000 0.000000
  time 8
    0 -0.999512 -0.744141 -9.226563 -1.570781 -1.391896 -1.570809
    1 2.033349 1.000767 1.937660 1.596637 -1.286515 2.942961
    2 6.028141 0.000000 0.000000 -1.578047 0.031083 -1.286165
    3 11.692554 0.000001 0.000002 0.000000 0.000000 -1.195006
    4 11.481674 0.000001 -0.000032 1.573168 -0.028074 0.044378
    5 3.859709 -0.142404 -1.191975 -0.476793 0.134331 -0.965122
    6 1.312555 -0.000002 0.000001 0.000000 0.000000 -0.279217
    7 0.729363 -0.000002 -0.000002 0.000000 0.000000 -0.096880
    8 3.942335 0.046767 -0.431443 -0.145073 0.087435 -0.741654
    9 1.539097 0.000000 0.000000 0.000000 0.000000 -0.309339
    10 1.196326 -0.000002 -0.000001 0.000000 0.000000 -0.521230
    11 3.883696 -0.046765 0.431443 0.085902 0.021830 -0.587867
    12 1.719570 -0.000004 -0.000001 0.000000 0.005516 -0.366478
    13 1.209171 -0.000002 0.000000 0.000000 0.003084 -0.216400
    14 3.859865 -0.137947 1.332466 0.354449 -0.042750 -0.531718
    15 1.719429 0.000002 -0.000001 0.000000 0.004074 -0.363009
    16 1.099665 0.000000 0.000000 0.000000 0.002596 -0.244331
    17 0.806053 -0.348925 1.321258 -1.166382 -0.626621 -0.921969
    18 1.789780 -0.000002 0.000002 0.000000 0.000000 0.189105
    19 1.207006 0.000000 0.000000 0.000000 0.000000 0.306015
    20 2.033356 1.000772 -1.937610 -1.668474 1.286518 2.942953
    21 6.028144 0.000000 0.000000 1.611592 1.111879 -0.988842
    22 11.692554 0.000001 0.000003 0.000000 0.000000 -1.128969
    23 11.481697 0.000001 0.000002 -0.938899 -0.533300 -0.853765
    24 3.859678 -0.132570 1.193109 0.539342 0.035114 -0.900957
    25 1.312557 -0.000002 0.000001 0.000000 0.000000 -0.595760
    26 0.729365 0.000002 -0.000002 0.000000 0.000000 -0.174086
    27 3.942305 0.050327 0.431044 0.200449 0.019814 -0.748024
    28 1.539099 -0.000002 0.000000 0.000000 0.000000 -0.679793
    29 1.196321 0.000008 0.000000 0.000000 0.000000 -0.260879
    30 3.883661 -0.050323 -0.431042 -0.089117 -0.014383 -0.450756
    31 1.719578 0.000004 0.000000 0.000000 -0.007974 -0.660958
    32 1.209185 0.000002 0.000000 0.000001 -0.004461 -0.471628
    33 3.859838 -0.148937 -1.331282 -0.353041 0.058965 -0.476699
    34 1.719423 0.000002 0.000000 0.000000 -0.006613 -0.539683
    35 1.099667 0.000002 0.000000 0.000000 -0.004209 -0.597741
    36 0.806021 -0.359837 -1.318334 1.096827 0.367420 -1.417086
    37 1.789782 0.000000 -0.000004 0.000000 0.000000 0.265284
    38 1.206999 0.000003 0.000002 0.000000 0.000000 0.310702
    39 -29.962334 -24.729509 -20.167976 0.000000 0.000000 0.000000
    40 -29.453125 -11.093750 6.648438 0.000000 0.000000 0.000000
  time 9
    0 -0.999512 -0.744141 -9.226563 -1.570781 -1.391896 -1.570809
    1 2.033349 1.000767 1.937660 1.596637 -1.286515 2.942961
    2 6.028141 0.000000 0.000000 -1.578047 0.031083 -1.286165
    3 11.692554 0.000001 0.000002 0.000000 0.000000 -1.195006
    4 11.481674 0.000001 -0.000032 1.573168 -0.028074 0.044378
    5 3.859709 -0.142404 -1.191975 -0.476793 0.134331 -0.965122
    6 1.312555 -0.000002 0.000001 0.000000 0.000000 -0.279217
    7 0.729363 -0.000002 -0.000002 0.000000 0.000000 -0.096880
    8 3.942335 0.046767 -0.431443 -0.145073 0.087435 -0.741654
    9 1.539097 0.000000 0.000000 0.000000 0.000000 -0.309339
    10 1.196326 -0.000002 -0.000001 0.000000 0.000000 -0.521230
    11 3.883696 -0.046765 0.431443 0.085902 0.021830 -0.587867
    12 1.719570 -0.000004 -0.000001 0.000000 0.005516 -0.366478
    13 1.209171 -0.000002 0.000000 0.000000 0.003084 -0.216400
    14 3.859865 -0.137947 1.332466 0.354449 -0.042750 -0.531718
    15 1.719429 0.000002 -0.000001 0.000000 0.004074 -0.363009
    16 1.099665 0.000000 0.000000 0.000000 0.002596 -0.244331
    17 0.806053 -0.348925 1.321258 -1.166382 -0.626621 -0.921969
    18 1.789780 -0.000002 0.000002 0.000000 0.000000 0.189105
    19 1.207006 0.000000 0.000000 0.000000 0.000000 0.306015
    20 2.033356 1.000772 -1.937610 -1.668474 1.286518 2.942953
    21 6.028144 0.000000 0.000000 1.551678 0.959339 -1.074925
    22 11.692554 0.000001 0.000003 0.000000 0.000000 -1.225892
    23 11.481697 0.000001 0.000002 -1.143569 -0.489846 -0.634963
    24 3.859678 -0.132570 1.193109 0.539342 0.035114 -0.900957
    25 1.312557 -0.000002 0.000001 0.000000 0.000000 -0.595760
    26 0.729365 0.000002 -0.000002 0.000000 0.000000 -0.174086
    27 3.942305 0.050327 0.431044 0.200449 0.019814 -0.748024
    28 1.539099 -0.000002 0.000000 0.000000 0.000000 -0.679793
    29 1.196321 0.000008 0.000000 0.000000 0.000000 -0.260879
    30 3.883661 -0.050323 -0.431042 -0.089117 -0.014383 -0.450756
    31 1.719578 0.000004 0.000000 0.000000 -0.007974 -0.660958
    32 1.209185 0.000002 0.000000 0.000001 -0.004461 -0.471628
    33 3.859838 -0.148937 -1.331282 -0.353041 0.058965 -0.476699
    34 1.719423 0.000002 0.000000 0.000000 -0.006613 -0.539683
    35 1.099667 0.000002 0.000000 0.000000 -0.004209 -0.597741
    36 0.806021 -0.359837 -1.318334 1.096827 0.367420 -1.417086
    37 1.789782 0.000000 -0.000004 0.000000 0.000000 0.265284
    38 1.206999 0.000003 0.000002 0.000000 0.000000 0.310702
    39 -29.962334 -24.729509 -20.167976 0.000000 0.000000 0.000000
    40 -29.453125 -11.093750 6.648438 0.000000 0.000000 0.000000
  time 10
    0 -0.999512 -0.744141 -9.226563 -1.570781 -1.391896 -1.570809
    1 2.033349 1.000767 1.937660 1.596637 -1.286515 2.942961
    2 6.028141 0.000000 0.000000 -1.578047 0.031083 -1.286165
    3 11.692554 0.000001 0.000002 0.000000 0.000000 -1.195006
    4 11.481674 0.000001 -0.000032 1.573168 -0.028074 0.044378
    5 3.859709 -0.142404 -1.191975 -0.476793 0.134331 -0.965122
    6 1.312555 -0.000002 0.000001 0.000000 0.000000 -0.279217
    7 0.729363 -0.000002 -0.000002 0.000000 0.000000 -0.096880
    8 3.942335 0.046767 -0.431443 -0.145073 0.087435 -0.741654
    9 1.539097 0.000000 0.000000 0.000000 0.000000 -0.309339
    10 1.196326 -0.000002 -0.000001 0.000000 0.000000 -0.521230
    11 3.883696 -0.046765 0.431443 0.085902 0.021830 -0.587867
    12 1.719570 -0.000004 -0.000001 0.000000 0.005516 -0.366478
    13 1.209171 -0.000002 0.000000 0.000000 0.003084 -0.216400
    14 3.859865 -0.137947 1.332466 0.354449 -0.042750 -0.531718
    15 1.719429 0.000002 -0.000001 0.000000 0.004074 -0.363009
    16 1.099665 0.000000 0.000000 0.000000 0.002596 -0.244331
    17 0.806053 -0.348925 1.321258 -1.166382 -0.626621 -0.921969
    18 1.789780 -0.000002 0.000002 0.000000 0.000000 0.189105
    19 1.207006 0.000000 0.000000 0.000000 0.000000 0.306015
    20 2.033356 1.000772 -1.937610 -1.668474 1.286518 2.942953
    21 6.028144 0.000000 0.000000 1.520498 0.841536 -1.123045
    22 11.692554 0.000001 0.000003 0.000000 0.000000 -1.244962
    23 11.481697 0.000001 0.000002 -1.335906 -0.376409 -0.393747
    24 3.859678 -0.132570 1.193109 0.539342 0.035114 -0.900957
    25 1.312557 -0.000002 0.000001 0.000000 0.000000 -0.595760
    26 0.729365 0.000002 -0.000002 0.000000 0.000000 -0.174086
    27 3.942305 0.050327 0.431044 0.200449 0.019814 -0.748024
    28 1.539099 -0.000002 0.000000 0.000000 0.000000 -0.679793
    29 1.196321 0.000008 0.000000 0.000000 0.000000 -0.260879
    30 3.883661 -0.050323 -0.431042 -0.089117 -0.014383 -0.450756
    31 1.719578 0.000004 0.000000 0.000000 -0.007974 -0.660958
    32 1.209185 0.000002 0.000000 0.000001 -0.004461 -0.471628
    33 3.859838 -0.148937 -1.331282 -0.353041 0.058965 -0.476699
    34 1.719423 0.000002 0.000000 0.000000 -0.006613 -0.539683
    35 1.099667 0.000002 0.000000 0.000000 -0.004209 -0.597741
    36 0.806021 -0.359837 -1.318334 1.096827 0.367420 -1.417086
    37 1.789782 0.000000 -0.000004 0.000000 0.000000 0.265284
    38 1.206999 0.000003 0.000002 0.000000 0.000000 0.310702
    39 -29.962334 -24.729509 -20.167976 0.000000 0.000000 0.000000
    40 -29.453125 -11.093750 6.648438 0.000000 0.000000 0.000000
  time 11
    0 -0.999512 -0.744141 -9.226563 -1.570781 -1.391896 -1.570809
    1 2.033349 1.000767 1.937660 1.596637 -1.286515 2.942961
    2 6.028141 0.000000 0.000000 -1.578047 0.031083 -1.286165
    3 11.692554 0.000001 0.000002 0.000000 0.000000 -1.195006
    4 11.481674 0.000001 -0.000032 1.573168 -0.028074 0.044378
    5 3.859709 -0.142404 -1.191975 -0.476793 0.134331 -0.965122
    6 1.312555 -0.000002 0.000001 0.000000 0.000000 -0.279217
    7 0.729363 -0.000002 -0.000002 0.000000 0.000000 -0.096880
    8 3.942335 0.046767 -0.431443 -0.145073 0.087435 -0.741654
    9 1.539097 0.000000 0.000000 0.000000 0.000000 -0.309339
    10 1.196326 -0.000002 -0.000001 0.000000 0.000000 -0.521230
    11 3.883696 -0.046765 0.431443 0.085902 0.021830 -0.587867
    12 1.719570 -0.000004 -0.000001 0.000000 0.005516 -0.366478
    13 1.209171 -0.000002 0.000000 0.000000 0.003084 -0.216400
    14 3.859865 -0.137947 1.332466 0.354449 -0.042750 -0.531718
    15 1.719429 0.000002 -0.000001 0.000000 0.004074 -0.363009
    16 1.099665 0.000000 0.000000 0.000000 0.002596 -0.244331
    17 0.806053 -0.348925 1.321258 -1.166382 -0.626621 -0.921969
    18 1.789780 -0.000002 0.000002 0.000000 0.000000 0.189105
    19 1.207006 0.000000 0.000000 0.000000 0.000000 0.306015
    20 2.033356 1.000772 -1.937610 -1.668474 1.286518 2.942953
    21 6.028144 0.000000 0.000000 1.503850 0.764478 -1.149106
    22 11.692554 0.000001 0.000003 0.000000 0.000000 -1.225462
    23 11.481697 0.000001 0.000002 -1.456192 -0.216838 -0.184473
    24 3.859678 -0.132570 1.193109 0.539342 0.035114 -0.900957
    25 1.312557 -0.000002 0.000001 0.000000 0.000000 -0.595760
    26 0.729365 0.000002 -0.000002 0.000000 0.000000 -0.174086
    27 3.942305 0.050327 0.431044 0.200449 0.019814 -0.748024
    28 1.539099 -0.000002 0.000000 0.000000 0.000000 -0.679806
    29 1.196321 0.000008 0.000000 0.000000 0.000000 -0.260879
    30 3.883661 -0.050323 -0.431042 -0.089117 -0.014383 -0.450756
    31 1.719578 0.000004 0.000000 0.000000 -0.007974 -0.660958
    32 1.209185 0.000002 0.000000 0.000001 -0.004461 -0.471628
    33 3.859838 -0.148937 -1.331282 -0.353041 0.058965 -0.476699
    34 1.719423 0.000002 0.000000 0.000000 -0.006613 -0.539683
    35 1.099667 0.000002 0.000000 0.000000 -0.004209 -0.597741
    36 0.806021 -0.359837 -1.318334 1.096827 0.367420 -1.417086
    37 1.789782 0.000000 -0.000004 0.000000 0.000000 0.265284
    38 1.206999 0.000003 0.000002 0.000000 0.000000 0.310702
    39 -29.962334 -24.729509 -20.167976 0.000000 0.000000 0.000000
    40 -29.453125 -11.093750 6.648438 0.000000 0.000000 0.000000
  time 12
    0 -0.999512 -0.744141 -9.226563 -1.570781 -1.391896 -1.570809
    1 2.033349 1.000767 1.937660 1.596637 -1.286515 2.942961
    2 6.028141 0.000000 0.000000 -1.578047 0.031083 -1.286165
    3 11.692554 0.000001 0.000002 0.000000 0.000000 -1.195006
    4 11.481674 0.000001 -0.000032 1.573168 -0.028074 0.044378
    5 3.859709 -0.142404 -1.191975 -0.476793 0.134331 -0.965122
    6 1.312555 -0.000002 0.000001 0.000000 0.000000 -0.279217
    7 0.729363 -0.000002 -0.000002 0.000000 0.000000 -0.096880
    8 3.942335 0.046767 -0.431443 -0.145073 0.087435 -0.741654
    9 1.539097 0.000000 0.000000 0.000000 0.000000 -0.309339
    10 1.196326 -0.000002 -0.000001 0.000000 0.000000 -0.521230
    11 3.883696 -0.046765 0.431443 0.085902 0.021830 -0.587867
    12 1.719570 -0.000004 -0.000001 0.000000 0.005516 -0.366478
    13 1.209171 -0.000002 0.000000 0.000000 0.003084 -0.216400
    14 3.859865 -0.137947 1.332466 0.354449 -0.042750 -0.531718
    15 1.719429 0.000002 -0.000001 0.000000 0.004074 -0.363009
    16 1.099665 0.000000 0.000000 0.000000 0.002596 -0.244331
    17 0.806053 -0.348925 1.321258 -1.166382 -0.626621 -0.921969
    18 1.789780 -0.000002 0.000002 0.000000 0.000000 0.189105
    19 1.207006 0.000000 0.000000 0.000000 0.000000 0.306015
    20 2.033356 1.000772 -1.937610 -1.668474 1.286518 2.942953
    21 6.028144 0.000000 0.000000 1.493410 0.713333 -1.165420
    22 11.692554 0.000001 0.000003 0.000000 0.000000 -1.190813
    23 11.481697 0.000001 0.000002 -1.501444 -0.065049 -0.027570
    24 3.859678 -0.132570 1.193109 0.539342 0.035114 -0.900957
    25 1.312557 -0.000002 0.000001 0.000000 0.000000 -0.595760
    26 0.729365 0.000002 -0.000002 0.000000 0.000000 -0.174086
    27 3.942305 0.050327 0.431044 0.200449 0.019814 -0.748024
    28 1.539099 -0.000002 0.000000 0.000000 0.000000 -0.679793
    29 1.196321 0.000008 0.000000 0.000000 0.000000 -0.260879
    30 3.883661 -0.050323 -0.431042 -0.089117 -0.014383 -0.450756
    31 1.719578 0.000004 0.000000 0.000000 -0.007974 -0.660958
    32 1.209185 0.000002 0.000000 0.000001 -0.004461 -0.471628
    33 3.859838 -0.148937 -1.331282 -0.353041 0.058965 -0.476699
    34 1.719423 0.000002 0.000000 0.000000 -0.006613 -0.539683
    35 1.099667 0.000002 0.000000 0.000000 -0.004209 -0.597741
    36 0.806021 -0.359837 -1.318334 1.096827 0.367420 -1.417086
    37 1.789782 0.000000 -0.000004 0.000000 0.000000 0.265284
    38 1.206999 0.000003 0.000002 0.000000 0.000000 0.310702
    39 -29.962334 -24.729509 -20.167976 0.000000 0.000000 0.000000
    40 -29.453125 -11.093750 6.648438 0.000000 0.000000 0.000000
  time 13
    0 -0.999512 -0.744141 -9.226563 -1.570781 -1.391896 -1.570809
    1 2.033349 1.000767 1.937660 1.596637 -1.286515 2.942961
    2 6.028141 0.000000 0.000000 -1.578047 0.031083 -1.286165
    3 11.692554 0.000001 0.000002 0.000000 0.000000 -1.195006
    4 11.481674 0.000001 -0.000032 1.573168 -0.028074 0.044378
    5 3.859709 -0.142404 -1.191975 -0.476793 0.134331 -0.965122
    6 1.312555 -0.000002 0.000001 0.000000 0.000000 -0.279217
    7 0.729363 -0.000002 -0.000002 0.000000 0.000000 -0.096880
    8 3.942335 0.046767 -0.431443 -0.145073 0.087435 -0.741654
    9 1.539097 0.000000 0.000000 0.000000 0.000000 -0.309339
    10 1.196326 -0.000002 -0.000001 0.000000 0.000000 -0.521230
    11 3.883696 -0.046765 0.431443 0.085902 0.021830 -0.587867
    12 1.719570 -0.000004 -0.000001 0.000000 0.005516 -0.366478
    13 1.209171 -0.000002 0.000000 0.000000 0.003084 -0.216400
    14 3.859865 -0.137947 1.332466 0.354449 -0.042750 -0.531718
    15 1.719429 0.000002 -0.000001 0.000000 0.004074 -0.363009
    16 1.099665 0.000000 0.000000 0.000000 0.002596 -0.244331
    17 0.806053 -0.348925 1.321258 -1.166382 -0.626621 -0.921969
    18 1.789780 -0.000002 0.000002 0.000000 0.000000 0.189105
    19 1.207006 0.000000 0.000000 0.000000 0.000000 0.306015
    20 2.033356 1.000772 -1.937610 -1.668474 1.286518 2.942953
    21 6.028144 0.000000 0.000000 1.488472 0.690360 -1.172961
    22 11.692554 0.000001 0.000003 0.000000 0.000000 -1.165387
    23 11.481697 0.000001 0.000002 -1.506073 0.008434 0.043643
    24 3.859678 -0.132570 1.193109 0.539342 0.035114 -0.900957
    25 1.312557 -0.000002 0.000001 0.000000 0.000000 -0.595760
    26 0.729365 0.000002 -0.000002 0.000000 0.000000 -0.174086
    27 3.942305 0.050327 0.431044 0.200449 0.019814 -0.748024
    28 1.539099 -0.000002 0.000000 0.000000 0.000000 -0.679793
    29 1.196321 0.000008 0.000000 0.000000 0.000000 -0.260879
    30 3.883661 -0.050323 -0.431042 -0.089117 -0.014383 -0.450756
    31 1.719578 0.000004 0.000000 0.000000 -0.007974 -0.660958
    32 1.209185 0.000002 0.000000 0.000001 -0.004461 -0.471628
    33 3.859838 -0.148937 -1.331282 -0.353041 0.058965 -0.476699
    34 1.719423 0.000002 0.000000 0.000000 -0.006613 -0.539683
    35 1.099667 0.000002 0.000000 0.000000 -0.004209 -0.597741
    36 0.806021 -0.359837 -1.318334 1.096827 0.367420 -1.417086
    37 1.789782 0.000000 -0.000004 0.000000 0.000000 0.265284
    38 1.206999 0.000003 0.000002 0.000000 0.000000 0.310702
    39 -29.962334 -24.729509 -20.167976 0.000000 0.000000 0.000000
    40 -29.453125 -11.093750 6.648438 0.000000 0.000000 0.000000
  time 14
    0 -0.999512 -0.744141 -9.226563 -1.570781 -1.391896 -1.570809
    1 2.033349 1.000767 1.937660 1.596637 -1.286515 2.942961
    2 6.028141 0.000000 0.000000 -1.578047 0.031083 -1.286165
    3 11.692554 0.000001 0.000002 0.000000 0.000000 -1.195006
    4 11.481674 0.000001 -0.000032 1.573168 -0.028074 0.044378
    5 3.859709 -0.142404 -1.191975 -0.476793 0.134331 -0.965122
    6 1.312555 -0.000002 0.000001 0.000000 0.000000 -0.279217
    7 0.729363 -0.000002 -0.000002 0.000000 0.000000 -0.096880
    8 3.942335 0.046767 -0.431443 -0.145073 0.087435 -0.741654
    9 1.539097 0.000000 0.000000 0.000000 0.000000 -0.309339
    10 1.196326 -0.000002 -0.000001 0.000000 0.000000 -0.521230
    11 3.883696 -0.046765 0.431443 0.085902 0.021830 -0.587867
    12 1.719570 -0.000004 -0.000001 0.000000 0.005516 -0.366478
    13 1.209171 -0.000002 0.000000 0.000000 0.003084 -0.216400
    14 3.859865 -0.137947 1.332466 0.354449 -0.042750 -0.531718
    15 1.719429 0.000002 -0.000001 0.000000 0.004074 -0.363009
    16 1.099665 0.000000 0.000000 0.000000 0.002596 -0.244331
    17 0.806053 -0.348925 1.321258 -1.166382 -0.626621 -0.921969
    18 1.789780 -0.000002 0.000002 0.000000 0.000000 0.189105
    19 1.207006 0.000000 0.000000 0.000000 0.000000 0.306015
    20 2.033356 1.000772 -1.937610 -1.668474 1.286518 2.942953
    21 6.028144 0.000000 0.000000 1.488472 0.690360 -1.172961
    22 11.692554 0.000001 0.000003 0.000000 0.000000 -1.165387
    23 11.481697 0.000001 0.000002 -1.506073 0.008434 0.043643
    24 3.859678 -0.132570 1.193109 0.539342 0.035114 -0.900957
    25 1.312557 -0.000002 0.000001 0.000000 0.000000 -0.595760
    26 0.729365 0.000002 -0.000002 0.000000 0.000000 -0.174086
    27 3.942305 0.050327 0.431044 0.200449 0.019814 -0.748024
    28 1.539099 -0.000002 0.000000 0.000000 0.000000 -0.679793
    29 1.196321 0.000008 0.000000 0.000000 0.000000 -0.260879
    30 3.883661 -0.050323 -0.431042 -0.089117 -0.014383 -0.450756
    31 1.719578 0.000004 0.000000 0.000000 -0.007974 -0.660958
    32 1.209185 0.000002 0.000000 0.000001 -0.004461 -0.471628
    33 3.859838 -0.148937 -1.331282 -0.353041 0.058965 -0.476699
    34 1.719423 0.000002 0.000000 0.000000 -0.006613 -0.539683
    35 1.099667 0.000002 0.000000 0.000000 -0.004209 -0.597741
    36 0.806021 -0.359837 -1.318334 1.096827 0.367420 -1.417086
    37 1.789782 0.000000 -0.000004 0.000000 0.000000 0.265284
    38 1.206999 0.000003 0.000002 0.000000 0.000000 0.310702
    39 -29.962334 -24.729509 -20.167976 0.000000 0.000000 0.000000
    40 -29.453125 -11.093750 6.648438 0.000000 0.000000 0.000000
end
