// Created by Crowbar 0.74
version 1
nodes
  0 "ValveBiped.Bip01_Spine4" -1
  1 "ValveBiped.Bip01_L_Clavicle" 0
  2 "ValveBiped.Bip01_L_UpperArm" 1
  3 "ValveBiped.Bip01_L_Forearm" 2
  4 "ValveBiped.Bip01_L_Hand" 3
  5 "ValveBiped.Bip01_L_Finger4" 4
  6 "ValveBiped.Bip01_L_Finger41" 5
  7 "ValveBiped.Bip01_L_Finger42" 6
  8 "ValveBiped.Bip01_L_Finger3" 4
  9 "ValveBiped.Bip01_L_Finger31" 8
  10 "ValveBiped.Bip01_L_Finger32" 9
  11 "ValveBiped.Bip01_L_Finger2" 4
  12 "ValveBiped.Bip01_L_Finger21" 11
  13 "ValveBiped.Bip01_L_Finger22" 12
  14 "ValveBiped.Bip01_L_Finger1" 4
  15 "ValveBiped.Bip01_L_Finger11" 14
  16 "ValveBiped.Bip01_L_Finger12" 15
  17 "ValveBiped.Bip01_L_Finger0" 4
  18 "ValveBiped.Bip01_L_Finger01" 17
  19 "ValveBiped.Bip01_L_Finger02" 18
  20 "ValveBiped.Bip01_R_Clavicle" 0
  21 "ValveBiped.Bip01_R_UpperArm" 20
  22 "ValveBiped.Bip01_R_Forearm" 21
  23 "ValveBiped.Bip01_R_Hand" 22
  24 "ValveBiped.Bip01_R_Finger4" 23
  25 "ValveBiped.Bip01_R_Finger41" 24
  26 "ValveBiped.Bip01_R_Finger42" 25
  27 "ValveBiped.Bip01_R_Finger3" 23
  28 "ValveBiped.Bip01_R_Finger31" 27
  29 "ValveBiped.Bip01_R_Finger32" 28
  30 "ValveBiped.Bip01_R_Finger2" 23
  31 "ValveBiped.Bip01_R_Finger21" 30
  32 "ValveBiped.Bip01_R_Finger22" 31
  33 "ValveBiped.Bip01_R_Finger1" 23
  34 "ValveBiped.Bip01_R_Finger11" 33
  35 "ValveBiped.Bip01_R_Finger12" 34
  36 "ValveBiped.Bip01_R_Finger0" 23
  37 "ValveBiped.Bip01_R_Finger01" 36
  38 "ValveBiped.Bip01_R_Finger02" 37
  39 "ValveBiped.Bip01" -1
  40 "ValveBiped.Gun" 39
  41 "ValveBiped.Pump" 40
  42 "ValveBiped.square" 40
end
skeleton
  time 0
    0 -4.996094 -5.242188 -9.640625 -1.570781 -1.391896 -1.570809
    1 2.033349 1.000767 1.937660 1.596637 -1.286515 2.942961
    2 6.028141 0.000000 0.000000 0.021883 -0.725295 -1.676612
    3 11.692554 0.000001 0.000002 0.000000 0.000000 -2.166972
    4 11.481674 0.000001 -0.000032 -0.714400 -0.427596 1.335390
    5 3.859709 -0.142404 -1.191975 -0.502768 -0.244863 -1.327695
    6 1.312555 -0.000002 0.000001 0.000000 0.000000 -0.275280
    7 0.729363 -0.000002 -0.000002 0.000000 0.000000 -0.093519
    8 3.942335 0.046767 -0.431443 -0.253491 -0.140129 -0.944416
    9 1.539097 0.000000 0.000000 0.000000 0.000000 -0.422801
    10 1.196326 -0.000002 -0.000001 0.000000 0.000000 -0.685721
    11 3.883696 -0.046765 0.431443 -0.048698 -0.149461 -0.571418
    12 1.719570 -0.000004 -0.000001 0.000000 0.000000 -0.789633
    13 1.209171 -0.000002 0.000000 0.000000 0.000000 -0.638622
    14 3.859865 -0.137947 1.332466 0.233309 -0.200803 -0.470680
    15 1.719429 0.000002 -0.000001 0.000000 0.000000 -0.851271
    16 1.099665 0.000000 0.000000 0.000000 0.000000 -0.722480
    17 0.806053 -0.348925 1.321258 -0.919606 -0.521597 -1.289995
    18 1.789780 -0.000002 0.000002 0.000000 0.000000 0.258466
    19 1.207006 0.000000 0.000000 0.000000 0.000000 0.084299
    20 2.033356 1.000772 -1.937610 -1.668474 1.286518 2.942953
    21 6.028144 0.000000 0.000000 0.917304 0.001542 -1.163826
    22 11.692554 0.000001 0.000003 0.000000 0.000000 -0.492918
    23 11.481697 0.000001 0.000002 -1.839856 0.008434 0.043618
    24 3.859678 -0.132570 1.193109 0.452686 -0.203570 -0.743635
    25 1.312557 -0.000002 0.000001 0.000000 0.000000 -0.429894
    26 0.729365 0.000002 -0.000002 0.000000 0.000000 -0.234753
    27 3.942305 0.050327 0.431044 0.136996 -0.098616 -0.615904
    28 1.539099 -0.000002 0.000000 0.000000 0.000000 -0.346350
    29 1.196321 0.000008 0.000000 0.000000 0.000000 -0.575157
    30 3.883661 -0.050323 -0.431042 -0.085905 -0.026404 -0.587695
    31 1.719578 0.000004 0.000000 0.000000 -0.007974 -0.366436
    32 1.209185 0.000002 0.000000 0.000000 -0.004461 -0.216376
    33 3.859838 -0.148937 -1.331282 -0.354419 0.038567 -0.532001
    34 1.719423 0.000002 0.000000 0.000000 -0.006613 -0.362970
    35 1.099667 0.000002 0.000000 0.000000 -0.004211 -0.244312
    36 0.806021 -0.359837 -1.318334 1.203301 0.616014 -0.845207
    37 1.789782 0.000000 -0.000004 0.000000 0.000000 0.181370
    38 1.206999 0.000003 0.000002 0.000000 0.000000 0.294827
    39 -4.996094 -9.109375 -29.421875 1.570792 0.000003 -0.000003
    40 -4.014893 24.046368 5.165372 -0.000001 0.000000 0.000000
    41 -0.004455 -0.545139 -2.136547 0.000000 0.000000 0.000000
    42 0.009659 -6.406696 -21.608532 0.000000 0.000000 0.000000
  time 1
    0 -4.996094 -5.242188 -9.640625 -1.570781 -1.391896 -1.570809
    1 2.033349 1.000767 1.937660 1.596637 -1.286515 2.942961
    2 6.028141 0.000000 0.000000 -0.351475 -0.775687 -1.522535
    3 11.692554 0.000001 0.000002 0.000000 0.000000 -1.964399
    4 11.481674 0.000001 -0.000032 -0.254183 -0.267638 0.724075
    5 3.859709 -0.142404 -1.191975 -0.502768 -0.244875 -1.327695
    6 1.312555 -0.000002 0.000001 0.000000 0.000000 -0.275280
    7 0.729363 -0.000002 -0.000002 0.000000 0.000000 -0.093519
    8 3.942335 0.046767 -0.431443 -0.253491 -0.140129 -0.944416
    9 1.539097 0.000000 0.000000 0.000000 0.000000 -0.422801
    10 1.196326 -0.000002 -0.000001 0.000000 0.000000 -0.685721
    11 3.883696 -0.046765 0.431443 -0.048698 -0.149461 -0.571418
    12 1.719570 -0.000004 -0.000001 0.000000 0.000000 -0.789633
    13 1.209171 -0.000002 0.000000 0.000000 0.000000 -0.638622
    14 3.859865 -0.137947 1.332466 0.233297 -0.200803 -0.470680
    15 1.719429 0.000002 -0.000001 0.000000 0.000000 -0.851271
    16 1.099665 0.000000 0.000000 0.000000 0.000000 -0.722480
    17 0.806053 -0.348925 1.321258 -0.919606 -0.521611 -1.289995
    18 1.789780 -0.000002 0.000002 0.000000 0.000000 0.258466
    19 1.207006 0.000000 0.000000 0.000000 0.000000 0.084299
    20 2.033356 1.000772 -1.937610 -1.668474 1.286518 2.942953
    21 6.028144 0.000000 0.000000 0.917304 0.001542 -1.163826
    22 11.692554 0.000001 0.000003 0.000000 0.000000 -0.492918
    23 11.481697 0.000001 0.000002 -1.839856 0.008434 0.043618
    24 3.859678 -0.132570 1.193109 0.452686 -0.203570 -0.743635
    25 1.312557 -0.000002 0.000001 0.000000 0.000000 -0.429894
    26 0.729365 0.000002 -0.000002 0.000000 0.000000 -0.234753
    27 3.942305 0.050327 0.431044 0.136996 -0.098616 -0.615904
    28 1.539099 -0.000002 0.000000 0.000000 0.000000 -0.346350
    29 1.196321 0.000008 0.000000 0.000000 0.000000 -0.575157
    30 3.883661 -0.050323 -0.431042 -0.085905 -0.026404 -0.587695
    31 1.719578 0.000004 0.000000 0.000000 -0.007974 -0.366436
    32 1.209185 0.000002 0.000000 0.000000 -0.004461 -0.216376
    33 3.859838 -0.148937 -1.331282 -0.354419 0.038567 -0.532001
    34 1.719423 0.000002 0.000000 0.000000 -0.006613 -0.362970
    35 1.099667 0.000002 0.000000 0.000000 -0.004211 -0.244312
    36 0.806021 -0.359837 -1.318334 1.203301 0.616014 -0.845207
    37 1.789782 0.000000 -0.000004 0.000000 0.000000 0.181370
    38 1.206999 0.000003 0.000002 0.000000 0.000000 0.294827
    39 -4.996094 -9.109375 -29.421875 1.570792 0.000003 -0.000003
    40 -4.014893 25.292500 7.552164 -0.396543 0.000000 0.000000
    41 -0.004455 -0.545139 -2.136547 0.000000 0.000000 0.000000
    42 0.009659 -6.406696 -21.608532 0.000000 0.000000 0.000000
  time 2
    0 -4.996094 -5.242188 -9.640625 -1.570781 -1.391896 -1.570809
    1 2.033349 1.000767 1.937660 1.596637 -1.286515 2.942961
    2 6.028141 0.000000 0.000000 -0.471268 -0.799131 -1.515896
    3 11.692554 0.000001 0.000002 0.000000 0.000000 -1.808372
    4 11.481674 0.000001 -0.000032 -0.221584 -0.153281 0.555297
    5 3.859709 -0.142404 -1.191975 -0.502768 -0.244863 -1.327695
    6 1.312555 -0.000002 0.000001 0.000000 0.000000 -0.275280
    7 0.729363 -0.000002 -0.000002 0.000000 0.000000 -0.093519
    8 3.942335 0.046767 -0.431443 -0.253491 -0.140129 -0.944416
    9 1.539097 0.000000 0.000000 0.000000 0.000000 -0.422801
    10 1.196326 -0.000002 -0.000001 0.000000 0.000000 -0.685721
    11 3.883696 -0.046765 0.431443 -0.048698 -0.149461 -0.571418
    12 1.719570 -0.000004 -0.000001 0.000000 0.000000 -0.789633
    13 1.209171 -0.000002 0.000000 0.000000 0.000000 -0.638622
    14 3.859865 -0.137947 1.332466 0.233309 -0.200803 -0.470680
    15 1.719429 0.000002 -0.000001 0.000000 0.000000 -0.851271
    16 1.099665 0.000000 0.000000 0.000000 0.000000 -0.722480
    17 0.806053 -0.348925 1.321258 -0.919606 -0.521597 -1.289995
    18 1.789780 -0.000002 0.000002 0.000000 0.000000 0.258466
    19 1.207006 0.000000 0.000000 0.000000 0.000000 0.084299
    20 2.033356 1.000772 -1.937610 -1.668474 1.286518 2.942953
    21 6.028144 0.000000 0.000000 0.917304 0.001542 -1.163826
    22 11.692554 0.000001 0.000003 0.000000 0.000000 -0.492918
    23 11.481697 0.000001 0.000002 -1.839856 0.008434 0.043618
    24 3.859678 -0.132570 1.193109 0.452686 -0.203570 -0.743635
    25 1.312557 -0.000002 0.000001 0.000000 0.000000 -0.429894
    26 0.729365 0.000002 -0.000002 0.000000 0.000000 -0.234753
    27 3.942305 0.050327 0.431044 0.136996 -0.098616 -0.615904
    28 1.539099 -0.000002 0.000000 0.000000 0.000000 -0.346350
    29 1.196321 0.000008 0.000000 0.000000 0.000000 -0.575157
    30 3.883661 -0.050323 -0.431042 -0.085905 -0.026404 -0.587695
    31 1.719578 0.000004 0.000000 0.000000 -0.007974 -0.366436
    32 1.209185 0.000002 0.000000 0.000000 -0.004461 -0.216376
    33 3.859838 -0.148937 -1.331282 -0.354419 0.038567 -0.532001
    34 1.719423 0.000002 0.000000 0.000000 -0.006613 -0.362970
    35 1.099667 0.000002 0.000000 0.000000 -0.004211 -0.244312
    36 0.806021 -0.359837 -1.318334 1.203301 0.616014 -0.845207
    37 1.789782 0.000000 -0.000004 0.000000 0.000000 0.181370
    38 1.206999 0.000003 0.000002 0.000000 0.000000 0.294827
    39 -4.996094 -9.109375 -29.421875 1.570792 0.000003 -0.000003
    40 -4.014893 25.269062 9.700667 -0.417241 0.000000 0.000000
    41 -0.004455 -0.545139 -2.136547 0.000000 0.000000 0.000000
    42 0.009659 -6.406696 -21.608532 0.000000 0.000000 0.000000
  time 3
    0 -4.996094 -5.242188 -9.640625 -1.570781 -1.391896 -1.570809
    1 2.033349 1.000767 1.937660 1.596637 -1.286515 2.942961
    2 6.028141 0.000000 0.000000 -0.533047 -0.825535 -1.535646
    3 11.692554 0.000001 0.000002 0.000000 0.000000 -1.662694
    4 11.481674 0.000001 -0.000032 -0.238043 -0.072709 0.456583
    5 3.859709 -0.142404 -1.191975 -0.502768 -0.244863 -1.327695
    6 1.312555 -0.000002 0.000001 0.000000 0.000000 -0.275280
    7 0.729363 -0.000002 -0.000002 0.000000 0.000000 -0.093519
    8 3.942335 0.046767 -0.431443 -0.253491 -0.140129 -0.944416
    9 1.539097 0.000000 0.000000 0.000000 0.000000 -0.422801
    10 1.196326 -0.000002 -0.000001 0.000000 0.000000 -0.685721
    11 3.883696 -0.046765 0.431443 -0.048698 -0.149461 -0.571418
    12 1.719570 -0.000004 -0.000001 0.000000 0.000000 -0.789633
    13 1.209171 -0.000002 0.000000 0.000000 0.000000 -0.638622
    14 3.859865 -0.137947 1.332466 0.233309 -0.200803 -0.470680
    15 1.719429 0.000002 -0.000001 0.000000 0.000000 -0.851271
    16 1.099665 0.000000 0.000000 0.000000 0.000000 -0.722480
    17 0.806053 -0.348925 1.321258 -0.919606 -0.521611 -1.289995
    18 1.789780 -0.000002 0.000002 0.000000 0.000000 0.258466
    19 1.207006 0.000000 0.000000 0.000000 0.000000 0.084299
    20 2.033356 1.000772 -1.937610 -1.668474 1.286518 2.942953
    21 6.028144 0.000000 0.000000 0.917304 0.001542 -1.163826
    22 11.692554 0.000001 0.000003 0.000000 0.000000 -0.492918
    23 11.481697 0.000001 0.000002 -1.839856 0.008434 0.043618
    24 3.859678 -0.132570 1.193109 0.452686 -0.203570 -0.743635
    25 1.312557 -0.000002 0.000001 0.000000 0.000000 -0.429894
    26 0.729365 0.000002 -0.000002 0.000000 0.000000 -0.234753
    27 3.942305 0.050327 0.431044 0.136996 -0.098616 -0.615904
    28 1.539099 -0.000002 0.000000 0.000000 0.000000 -0.346350
    29 1.196321 0.000008 0.000000 0.000000 0.000000 -0.575157
    30 3.883661 -0.050323 -0.431042 -0.085905 -0.026404 -0.587695
    31 1.719578 0.000004 0.000000 0.000000 -0.007974 -0.366436
    32 1.209185 0.000002 0.000000 0.000000 -0.004461 -0.216376
    33 3.859838 -0.148937 -1.331282 -0.354419 0.038567 -0.532001
    34 1.719423 0.000002 0.000000 0.000000 -0.006613 -0.362970
    35 1.099667 0.000002 0.000000 0.000000 -0.004211 -0.244312
    36 0.806021 -0.359837 -1.318334 1.203301 0.616014 -0.845207
    37 1.789782 0.000000 -0.000004 0.000000 0.000000 0.181370
    38 1.206999 0.000003 0.000002 0.000000 0.000000 0.294827
    39 -4.996094 -9.109375 -29.421875 1.570792 0.000003 -0.000003
    40 -4.014893 25.062024 11.669477 -0.383911 0.000000 0.000000
    41 -0.004455 -0.545139 -2.136547 0.000000 0.000000 0.000000
    42 0.009659 -6.406696 -21.608532 0.000000 0.000000 0.000000
  time 4
    0 -4.996094 -5.242188 -9.640625 -1.570781 -1.391896 -1.570809
    1 2.033349 1.000767 1.937660 1.596637 -1.286515 2.942961
    2 6.028141 0.000000 0.000000 -0.564962 -0.854014 -1.566295
    3 11.692554 0.000001 0.000002 0.000000 0.000000 -1.519524
    4 11.481674 0.000001 -0.000032 -0.269044 -0.010748 0.382893
    5 3.859709 -0.142404 -1.191975 -0.502768 -0.244863 -1.327695
    6 1.312555 -0.000002 0.000001 0.000000 0.000000 -0.275280
    7 0.729363 -0.000002 -0.000002 0.000000 0.000000 -0.093519
    8 3.942335 0.046767 -0.431443 -0.253491 -0.140129 -0.944416
    9 1.539097 0.000000 0.000000 0.000000 0.000000 -0.422801
    10 1.196326 -0.000002 -0.000001 0.000000 0.000000 -0.685721
    11 3.883696 -0.046765 0.431443 -0.048698 -0.149461 -0.571418
    12 1.719570 -0.000004 -0.000001 0.000000 0.000000 -0.789633
    13 1.209171 -0.000002 0.000000 0.000000 0.000000 -0.638622
    14 3.859865 -0.137947 1.332466 0.233309 -0.200803 -0.470680
    15 1.719429 0.000002 -0.000001 0.000000 0.000000 -0.851271
    16 1.099665 0.000000 0.000000 0.000000 0.000000 -0.722480
    17 0.806053 -0.348925 1.321258 -0.919606 -0.521597 -1.289995
    18 1.789780 -0.000002 0.000002 0.000000 0.000000 0.258466
    19 1.207006 0.000000 0.000000 0.000000 0.000000 0.084299
    20 2.033356 1.000772 -1.937610 -1.668474 1.286518 2.942953
    21 6.028144 0.000000 0.000000 0.917304 0.001542 -1.163826
    22 11.692554 0.000001 0.000003 0.000000 0.000000 -0.492918
    23 11.481697 0.000001 0.000002 -1.839856 0.008434 0.043618
    24 3.859678 -0.132570 1.193109 0.452686 -0.203570 -0.743635
    25 1.312557 -0.000002 0.000001 0.000000 0.000000 -0.429894
    26 0.729365 0.000002 -0.000002 0.000000 0.000000 -0.234753
    27 3.942305 0.050327 0.431044 0.136996 -0.098616 -0.615904
    28 1.539099 -0.000002 0.000000 0.000000 0.000000 -0.346350
    29 1.196321 0.000008 0.000000 0.000000 0.000000 -0.575157
    30 3.883661 -0.050323 -0.431042 -0.085905 -0.026404 -0.587695
    31 1.719578 0.000004 0.000000 0.000000 -0.007974 -0.366436
    32 1.209185 0.000002 0.000000 0.000000 -0.004461 -0.216376
    33 3.859838 -0.148937 -1.331282 -0.354419 0.038567 -0.532001
    34 1.719423 0.000002 0.000000 0.000000 -0.006613 -0.362970
    35 1.099667 0.000002 0.000000 0.000000 -0.004211 -0.244312
    36 0.806021 -0.359837 -1.318334 1.203301 0.616014 -0.845207
    37 1.789782 0.000000 -0.000004 0.000000 0.000000 0.181370
    38 1.206999 0.000003 0.000002 0.000000 0.000000 0.294827
    39 -4.996094 -9.109375 -29.421875 1.570792 0.000003 -0.000003
    40 -4.014893 24.706545 13.501564 -0.330035 0.000000 0.000000
    41 -0.004455 -0.545139 -2.136547 0.000000 0.000000 0.000000
    42 0.009659 -6.406696 -21.608532 0.000000 0.000000 0.000000
  time 5
    0 -4.996094 -5.242188 -9.640625 -1.570781 -1.391896 -1.570809
    1 2.033349 1.000767 1.937660 1.596637 -1.286515 2.942961
    2 6.028141 0.000000 0.000000 -0.575715 -0.885114 -1.607006
    3 11.692554 0.000001 0.000002 0.000000 0.000000 -1.375647
    4 11.481674 0.000001 -0.000032 -0.306037 0.041013 0.323113
    5 3.859709 -0.142404 -1.191975 -0.502768 -0.244863 -1.327695
    6 1.312555 -0.000002 0.000001 0.000000 0.000000 -0.275280
    7 0.729363 -0.000002 -0.000002 0.000000 0.000000 -0.093519
    8 3.942335 0.046767 -0.431443 -0.253491 -0.140129 -0.944416
    9 1.539097 0.000000 0.000000 0.000000 0.000000 -0.422801
    10 1.196326 -0.000002 -0.000001 0.000000 0.000000 -0.685721
    11 3.883696 -0.046765 0.431443 -0.048698 -0.149461 -0.571418
    12 1.719570 -0.000004 -0.000001 0.000000 0.000000 -0.789633
    13 1.209171 -0.000002 0.000000 0.000000 0.000000 -0.638622
    14 3.859865 -0.137947 1.332466 0.233309 -0.200803 -0.470680
    15 1.719429 0.000002 -0.000001 0.000000 0.000000 -0.851271
    16 1.099665 0.000000 0.000000 0.000000 0.000000 -0.722480
    17 0.806053 -0.348925 1.321258 -0.919606 -0.521611 -1.289995
    18 1.789780 -0.000002 0.000002 0.000000 0.000000 0.258466
    19 1.207006 0.000000 0.000000 0.000000 0.000000 0.084299
    20 2.033356 1.000772 -1.937610 -1.668474 1.286518 2.942953
    21 6.028144 0.000000 0.000000 0.917304 0.001542 -1.163826
    22 11.692554 0.000001 0.000003 0.000000 0.000000 -0.492918
    23 11.481697 0.000001 0.000002 -1.839856 0.008434 0.043618
    24 3.859678 -0.132570 1.193109 0.452686 -0.203570 -0.743635
    25 1.312557 -0.000002 0.000001 0.000000 0.000000 -0.429894
    26 0.729365 0.000002 -0.000002 0.000000 0.000000 -0.234753
    27 3.942305 0.050327 0.431044 0.136996 -0.098616 -0.615904
    28 1.539099 -0.000002 0.000000 0.000000 0.000000 -0.346350
    29 1.196321 0.000008 0.000000 0.000000 0.000000 -0.575157
    30 3.883661 -0.050323 -0.431042 -0.085905 -0.026404 -0.587695
    31 1.719578 0.000004 0.000000 0.000000 -0.007974 -0.366436
    32 1.209185 0.000002 0.000000 0.000000 -0.004461 -0.216376
    33 3.859838 -0.148937 -1.331282 -0.354419 0.038567 -0.532001
    34 1.719423 0.000002 0.000000 0.000000 -0.006613 -0.362970
    35 1.099667 0.000002 0.000000 0.000000 -0.004211 -0.244312
    36 0.806021 -0.359837 -1.318334 1.203301 0.616014 -0.845207
    37 1.789782 0.000000 -0.000004 0.000000 0.000000 0.181370
    38 1.206999 0.000003 0.000002 0.000000 0.000000 0.294827
    39 -4.996094 -9.109375 -29.421875 1.570792 0.000003 -0.000003
    40 -4.014893 24.257312 15.216460 -0.264863 0.000000 0.000000
    41 -0.004455 -0.545139 -2.136547 0.000000 0.000000 0.000000
    42 0.009659 -6.406696 -21.608532 0.000000 0.000000 0.000000
  time 6
    0 -4.996094 -5.242188 -9.640625 -1.570781 -1.391896 -1.570809
    1 2.033349 1.000767 1.937660 1.596637 -1.286515 2.942961
    2 6.028141 0.000000 0.000000 -0.567699 -0.920092 -1.660703
    3 11.692554 0.000001 0.000002 0.000000 0.000000 -1.228491
    4 11.481674 0.000001 -0.000032 -0.344708 0.087693 0.272515
    5 3.859709 -0.142404 -1.191975 -0.502768 -0.244863 -1.327695
    6 1.312555 -0.000002 0.000001 0.000000 0.000000 -0.275280
    7 0.729363 -0.000002 -0.000002 0.000000 0.000000 -0.093519
    8 3.942335 0.046767 -0.431443 -0.253491 -0.140129 -0.944416
    9 1.539097 0.000000 0.000000 0.000000 0.000000 -0.422801
    10 1.196326 -0.000002 -0.000001 0.000000 0.000000 -0.685721
    11 3.883696 -0.046765 0.431443 -0.048698 -0.149461 -0.571418
    12 1.719570 -0.000004 -0.000001 0.000000 0.000000 -0.789633
    13 1.209171 -0.000002 0.000000 0.000000 0.000000 -0.638622
    14 3.859865 -0.137947 1.332466 0.233309 -0.200803 -0.470680
    15 1.719429 0.000002 -0.000001 0.000000 0.000000 -0.851271
    16 1.099665 0.000000 0.000000 0.000000 0.000000 -0.722480
    17 0.806053 -0.348925 1.321258 -0.919606 -0.521611 -1.289995
    18 1.789780 -0.000002 0.000002 0.000000 0.000000 0.258466
    19 1.207006 0.000000 0.000000 0.000000 0.000000 0.084299
    20 2.033356 1.000772 -1.937610 -1.668474 1.286518 2.942953
    21 6.028144 0.000000 0.000000 0.917304 0.001542 -1.163826
    22 11.692554 0.000001 0.000003 0.000000 0.000000 -0.492918
    23 11.481697 0.000001 0.000002 -1.839856 0.008434 0.043618
    24 3.859678 -0.132570 1.193109 0.452686 -0.203570 -0.743635
    25 1.312557 -0.000002 0.000001 0.000000 0.000000 -0.429894
    26 0.729365 0.000002 -0.000002 0.000000 0.000000 -0.234753
    27 3.942305 0.050327 0.431044 0.136996 -0.098616 -0.615904
    28 1.539099 -0.000002 0.000000 0.000000 0.000000 -0.346350
    29 1.196321 0.000008 0.000000 0.000000 0.000000 -0.575157
    30 3.883661 -0.050323 -0.431042 -0.085905 -0.026404 -0.587695
    31 1.719578 0.000004 0.000000 0.000000 -0.007974 -0.366436
    32 1.209185 0.000002 0.000000 0.000000 -0.004461 -0.216376
    33 3.859838 -0.148937 -1.331282 -0.354419 0.038567 -0.532001
    34 1.719423 0.000002 0.000000 0.000000 -0.006613 -0.362970
    35 1.099667 0.000002 0.000000 0.000000 -0.004211 -0.244312
    36 0.806021 -0.359837 -1.318334 1.203301 0.616014 -0.845207
    37 1.789782 0.000000 -0.000004 0.000000 0.000000 0.181370
    38 1.206999 0.000003 0.000002 0.000000 0.000000 0.294827
    39 -4.996094 -9.109375 -29.421875 1.570792 0.000003 -0.000003
    40 -4.014893 23.772922 16.821978 -0.193518 0.000000 0.000000
    41 -0.004455 -0.545139 -2.136547 0.000000 0.000000 0.000000
    42 0.009659 -6.406696 -21.608532 0.000000 0.000000 0.000000
  time 7
    0 -4.996094 -5.242188 -9.640625 -1.570781 -1.391896 -1.570809
    1 2.033349 1.000767 1.937660 1.596637 -1.286515 2.942961
    2 6.028141 0.000000 0.000000 -0.539498 -0.959664 -1.732021
    3 11.692554 0.000001 0.000002 0.000000 0.000000 -1.076899
    4 11.481674 0.000001 -0.000032 -0.382101 0.131988 0.228655
    5 3.859709 -0.142404 -1.191975 -0.502768 -0.244863 -1.327695
    6 1.312555 -0.000002 0.000001 0.000000 0.000000 -0.275280
    7 0.729363 -0.000002 -0.000002 0.000000 0.000000 -0.093519
    8 3.942335 0.046767 -0.431443 -0.253491 -0.140129 -0.944416
    9 1.539097 0.000000 0.000000 0.000000 0.000000 -0.422801
    10 1.196326 -0.000002 -0.000001 0.000000 0.000000 -0.685721
    11 3.883696 -0.046765 0.431443 -0.048698 -0.149461 -0.571418
    12 1.719570 -0.000004 -0.000001 0.000000 0.000000 -0.789633
    13 1.209171 -0.000002 0.000000 0.000000 0.000000 -0.638622
    14 3.859865 -0.137947 1.332466 0.233309 -0.200803 -0.470680
    15 1.719429 0.000002 -0.000001 0.000000 0.000000 -0.851271
    16 1.099665 0.000000 0.000000 0.000000 0.000000 -0.722480
    17 0.806053 -0.348925 1.321258 -0.919606 -0.521611 -1.289995
    18 1.789780 -0.000002 0.000002 0.000000 0.000000 0.258466
    19 1.207006 0.000000 0.000000 0.000000 0.000000 0.084299
    20 2.033356 1.000772 -1.937610 -1.668474 1.286518 2.942953
    21 6.028144 0.000000 0.000000 0.917304 0.001542 -1.163826
    22 11.692554 0.000001 0.000003 0.000000 0.000000 -0.492918
    23 11.481697 0.000001 0.000002 -1.839856 0.008434 0.043618
    24 3.859678 -0.132570 1.193109 0.452686 -0.203570 -0.743635
    25 1.312557 -0.000002 0.000001 0.000000 0.000000 -0.429894
    26 0.729365 0.000002 -0.000002 0.000000 0.000000 -0.234753
    27 3.942305 0.050327 0.431044 0.136996 -0.098616 -0.615904
    28 1.539099 -0.000002 0.000000 0.000000 0.000000 -0.346350
    29 1.196321 0.000008 0.000000 0.000000 0.000000 -0.575157
    30 3.883661 -0.050323 -0.431042 -0.085905 -0.026404 -0.587695
    31 1.719578 0.000004 0.000000 0.000000 -0.007974 -0.366436
    32 1.209185 0.000002 0.000000 0.000000 -0.004461 -0.216376
    33 3.859838 -0.148937 -1.331282 -0.354419 0.038567 -0.532001
    34 1.719423 0.000002 0.000000 0.000000 -0.006613 -0.362970
    35 1.099667 0.000002 0.000000 0.000000 -0.004211 -0.244312
    36 0.806021 -0.359837 -1.318334 1.203301 0.616014 -0.845207
    37 1.789782 0.000000 -0.000004 0.000000 0.000000 0.181370
    38 1.206999 0.000003 0.000002 0.000000 0.000000 0.294827
    39 -4.996094 -9.109375 -29.421875 1.570792 0.000003 -0.000003
    40 -4.014893 23.323690 18.302492 -0.120040 0.000000 0.000000
    41 -0.004455 -0.545139 -2.136547 0.000000 0.000000 0.000000
    42 0.009659 -6.406696 -21.608532 0.000000 0.000000 0.000000
  time 8
    0 -4.996094 -5.242188 -9.640625 -1.570781 -1.391896 -1.570809
    1 2.033349 1.000767 1.937660 1.596637 -1.286515 2.942961
    2 6.028141 0.000000 0.000000 -0.491307 -1.000427 -1.819665
    3 11.692554 0.000001 0.000002 0.000000 0.000000 -0.930386
    4 11.481674 0.000001 -0.000032 -0.415578 0.172664 0.194056
    5 3.859709 -0.142404 -1.191975 -0.502768 -0.244863 -1.327695
    6 1.312555 -0.000002 0.000001 0.000000 0.000000 -0.275280
    7 0.729363 -0.000002 -0.000002 0.000000 0.000000 -0.093519
    8 3.942335 0.046767 -0.431443 -0.253491 -0.140129 -0.944416
    9 1.539097 0.000000 0.000000 0.000000 0.000000 -0.422801
    10 1.196326 -0.000002 -0.000001 0.000000 0.000000 -0.685721
    11 3.883696 -0.046765 0.431443 -0.048698 -0.149461 -0.571418
    12 1.719570 -0.000004 -0.000001 0.000000 0.000000 -0.789633
    13 1.209171 -0.000002 0.000000 0.000000 0.000000 -0.638622
    14 3.859865 -0.137947 1.332466 0.233309 -0.200803 -0.470680
    15 1.719429 0.000002 -0.000001 0.000000 0.000000 -0.851271
    16 1.099665 0.000000 0.000000 0.000000 0.000000 -0.722480
    17 0.806053 -0.348925 1.321258 -0.919606 -0.521611 -1.289995
    18 1.789780 -0.000002 0.000002 0.000000 0.000000 0.258466
    19 1.207006 0.000000 0.000000 0.000000 0.000000 0.084299
    20 2.033356 1.000772 -1.937610 -1.668474 1.286518 2.942953
    21 6.028144 0.000000 0.000000 0.917304 0.001542 -1.163826
    22 11.692554 0.000001 0.000003 0.000000 0.000000 -0.492918
    23 11.481697 0.000001 0.000002 -1.839856 0.008434 0.043618
    24 3.859678 -0.132570 1.193109 0.452686 -0.203570 -0.743635
    25 1.312557 -0.000002 0.000001 0.000000 0.000000 -0.429894
    26 0.729365 0.000002 -0.000002 0.000000 0.000000 -0.234753
    27 3.942305 0.050327 0.431044 0.136996 -0.098616 -0.615904
    28 1.539099 -0.000002 0.000000 0.000000 0.000000 -0.346350
    29 1.196321 0.000008 0.000000 0.000000 0.000000 -0.575157
    30 3.883661 -0.050323 -0.431042 -0.085905 -0.026404 -0.587695
    31 1.719578 0.000004 0.000000 0.000000 -0.007974 -0.366436
    32 1.209185 0.000002 0.000000 0.000000 -0.004461 -0.216376
    33 3.859838 -0.148937 -1.331282 -0.354419 0.038567 -0.532001
    34 1.719423 0.000002 0.000000 0.000000 -0.006613 -0.362970
    35 1.099667 0.000002 0.000000 0.000000 -0.004211 -0.244312
    36 0.806021 -0.359837 -1.318334 1.203301 0.616014 -0.845207
    37 1.789782 0.000000 -0.000004 0.000000 0.000000 0.181370
    38 1.206999 0.000003 0.000002 0.000000 0.000000 0.294827
    39 -4.996094 -9.109375 -29.421875 1.570792 0.000003 -0.000003
    40 -4.014893 22.983836 19.579875 -0.049476 0.000000 0.000000
    41 -0.004455 -0.545139 -2.136547 0.000000 0.000000 0.000000
    42 0.009659 -6.406696 -21.608532 0.000000 0.000000 0.000000
  time 9
    0 -4.996094 -5.242188 -9.640625 -1.570781 -1.391896 -1.570809
    1 2.033349 1.000767 1.937660 1.596637 -1.286515 2.942961
    2 6.028141 0.000000 0.000000 -0.458659 -1.022850 -1.873571
    3 11.692554 0.000001 0.000002 0.000000 0.000000 -0.867833
    4 11.481674 0.000001 -0.000032 -0.442184 0.199342 0.205760
    5 3.859709 -0.142404 -1.191975 -0.502768 -0.244863 -1.327695
    6 1.312555 -0.000002 0.000001 0.000000 0.000000 -0.275280
    7 0.729363 -0.000002 -0.000002 0.000000 0.000000 -0.093519
    8 3.942335 0.046767 -0.431443 -0.253491 -0.140129 -0.944416
    9 1.539097 0.000000 0.000000 0.000000 0.000000 -0.422801
    10 1.196326 -0.000002 -0.000001 0.000000 0.000000 -0.685721
    11 3.883696 -0.046765 0.431443 -0.048698 -0.149461 -0.571418
    12 1.719570 -0.000004 -0.000001 0.000000 0.000000 -0.789633
    13 1.209171 -0.000002 0.000000 0.000000 0.000000 -0.638622
    14 3.859865 -0.137947 1.332466 0.233309 -0.200803 -0.470680
    15 1.719429 0.000002 -0.000001 0.000000 0.000000 -0.851271
    16 1.099665 0.000000 0.000000 0.000000 0.000000 -0.722480
    17 0.806053 -0.348925 1.321258 -0.919606 -0.521611 -1.289995
    18 1.789780 -0.000002 0.000002 0.000000 0.000000 0.258466
    19 1.207006 0.000000 0.000000 0.000000 0.000000 0.084299
    20 2.033356 1.000772 -1.937610 -1.668474 1.286518 2.942953
    21 6.028144 0.000000 0.000000 0.917304 0.001542 -1.163826
    22 11.692554 0.000001 0.000003 0.000000 0.000000 -0.492918
    23 11.481697 0.000001 0.000002 -1.839856 0.008434 0.043618
    24 3.859678 -0.132570 1.193109 0.452686 -0.203570 -0.743635
    25 1.312557 -0.000002 0.000001 0.000000 0.000000 -0.429894
    26 0.729365 0.000002 -0.000002 0.000000 0.000000 -0.234753
    27 3.942305 0.050327 0.431044 0.136996 -0.098616 -0.615904
    28 1.539099 -0.000002 0.000000 0.000000 0.000000 -0.346350
    29 1.196321 0.000008 0.000000 0.000000 0.000000 -0.575157
    30 3.883661 -0.050323 -0.431042 -0.085905 -0.026404 -0.587695
    31 1.719578 0.000004 0.000000 0.000000 -0.007974 -0.366436
    32 1.209185 0.000002 0.000000 0.000000 -0.004461 -0.216376
    33 3.859838 -0.148937 -1.331282 -0.354419 0.038567 -0.532001
    34 1.719423 0.000002 0.000000 0.000000 -0.006613 -0.362970
    35 1.099667 0.000002 0.000000 0.000000 -0.004211 -0.244312
    36 0.806021 -0.359837 -1.318334 1.203301 0.616014 -0.845207
    37 1.789782 0.000000 -0.000004 0.000000 0.000000 0.181370
    38 1.206999 0.000003 0.000002 0.000000 0.000000 0.294827
    39 -4.996094 -9.109375 -29.421875 1.570792 0.000003 -0.000003
    40 -4.014893 22.913521 20.200987 0.005932 0.000000 0.000000
    41 -0.004455 -0.545139 -2.136547 0.000000 0.000000 0.000000
    42 0.009659 -6.406696 -21.608532 0.000000 0.000000 0.000000
  time 10
    0 -4.996094 -5.242188 -9.640625 -1.570781 -1.391896 -1.570809
    1 2.033349 1.000767 1.937660 1.596637 -1.286515 2.942961
    2 6.028141 0.000000 0.000000 -0.428160 -1.041564 -1.921965
    3 11.692554 0.000001 0.000002 0.000000 0.000000 -0.825210
    4 11.481674 0.000001 -0.000032 -0.449615 0.216432 0.209701
    5 3.859709 -0.142404 -1.191975 -0.502768 -0.244863 -1.327695
    6 1.312555 -0.000002 0.000001 0.000000 0.000000 -0.275280
    7 0.729363 -0.000002 -0.000002 0.000000 0.000000 -0.093519
    8 3.942335 0.046767 -0.431443 -0.253491 -0.140129 -0.944416
    9 1.539097 0.000000 0.000000 0.000000 0.000000 -0.422801
    10 1.196326 -0.000002 -0.000001 0.000000 0.000000 -0.685721
    11 3.883696 -0.046765 0.431443 -0.048698 -0.149461 -0.571418
    12 1.719570 -0.000004 -0.000001 0.000000 0.000000 -0.789633
    13 1.209171 -0.000002 0.000000 0.000000 0.000000 -0.638622
    14 3.859865 -0.137947 1.332466 0.233309 -0.200803 -0.470680
    15 1.719429 0.000002 -0.000001 0.000000 0.000000 -0.851271
    16 1.099665 0.000000 0.000000 0.000000 0.000000 -0.722480
    17 0.806053 -0.348925 1.321258 -0.919606 -0.521611 -1.289995
    18 1.789780 -0.000002 0.000002 0.000000 0.000000 0.258466
    19 1.207006 0.000000 0.000000 0.000000 0.000000 0.084299
    20 2.033356 1.000772 -1.937610 -1.668474 1.286518 2.942953
    21 6.028144 0.000000 0.000000 0.917304 0.001542 -1.163826
    22 11.692554 0.000001 0.000003 0.000000 0.000000 -0.492918
    23 11.481697 0.000001 0.000002 -1.839856 0.008434 0.043618
    24 3.859678 -0.132570 1.193109 0.452686 -0.203570 -0.743635
    25 1.312557 -0.000002 0.000001 0.000000 0.000000 -0.429894
    26 0.729365 0.000002 -0.000002 0.000000 0.000000 -0.234753
    27 3.942305 0.050327 0.431044 0.136996 -0.098616 -0.615904
    28 1.539099 -0.000002 0.000000 0.000000 0.000000 -0.346350
    29 1.196321 0.000008 0.000000 0.000000 0.000000 -0.575157
    30 3.883661 -0.050323 -0.431042 -0.085905 -0.026404 -0.587695
    31 1.719578 0.000004 0.000000 0.000000 -0.007974 -0.366436
    32 1.209185 0.000002 0.000000 0.000000 -0.004461 -0.216376
    33 3.859838 -0.148937 -1.331282 -0.354419 0.038567 -0.532001
    34 1.719423 0.000002 0.000000 0.000000 -0.006613 -0.362970
    35 1.099667 0.000002 0.000000 0.000000 -0.004211 -0.244312
    36 0.806021 -0.359837 -1.318334 1.203301 0.616014 -0.845207
    37 1.789782 0.000000 -0.000004 0.000000 0.000000 0.181370
    38 1.206999 0.000003 0.000002 0.000000 0.000000 0.294827
    39 -4.996094 -9.109375 -29.421875 1.570792 0.000003 -0.000003
    40 -4.014893 23.065869 20.536935 0.028207 0.000000 0.000000
    41 -0.004455 -0.545139 -2.136547 0.000000 0.000000 0.000000
    42 0.009659 -6.406696 -21.608532 0.000000 0.000000 0.000000
  time 11
    0 -4.996094 -5.242188 -9.640625 -1.570781 -1.391896 -1.570809
    1 2.033349 1.000767 1.937660 1.596637 -1.286515 2.942961
    2 6.028141 0.000000 0.000000 -0.406606 -1.052214 -1.953407
    3 11.692554 0.000001 0.000002 0.000000 0.000000 -0.791845
    4 11.481674 0.000001 -0.000032 -0.445301 0.221741 0.193741
    5 3.859709 -0.142404 -1.191975 -0.502768 -0.244863 -1.327695
    6 1.312555 -0.000002 0.000001 0.000000 0.000000 -0.275280
    7 0.729363 -0.000002 -0.000002 0.000000 0.000000 -0.093519
    8 3.942335 0.046767 -0.431443 -0.253491 -0.140129 -0.944416
    9 1.539097 0.000000 0.000000 0.000000 0.000000 -0.422801
    10 1.196326 -0.000002 -0.000001 0.000000 0.000000 -0.685721
    11 3.883696 -0.046765 0.431443 -0.048698 -0.149461 -0.571418
    12 1.719570 -0.000004 -0.000001 0.000000 0.000000 -0.789633
    13 1.209171 -0.000002 0.000000 0.000000 0.000000 -0.638622
    14 3.859865 -0.137947 1.332466 0.233309 -0.200803 -0.470680
    15 1.719429 0.000002 -0.000001 0.000000 0.000000 -0.851271
    16 1.099665 0.000000 0.000000 0.000000 0.000000 -0.722480
    17 0.806053 -0.348925 1.321258 -0.919606 -0.521611 -1.289995
    18 1.789780 -0.000002 0.000002 0.000000 0.000000 0.258466
    19 1.207006 0.000000 0.000000 0.000000 0.000000 0.084299
    20 2.033356 1.000772 -1.937610 -1.668474 1.286518 2.942953
    21 6.028144 0.000000 0.000000 0.917304 0.001542 -1.163826
    22 11.692554 0.000001 0.000003 0.000000 0.000000 -0.492918
    23 11.481697 0.000001 0.000002 -1.839856 0.008434 0.043618
    24 3.859678 -0.132570 1.193109 0.452686 -0.203570 -0.743635
    25 1.312557 -0.000002 0.000001 0.000000 0.000000 -0.429894
    26 0.729365 0.000002 -0.000002 0.000000 0.000000 -0.234753
    27 3.942305 0.050327 0.431044 0.136996 -0.098616 -0.615904
    28 1.539099 -0.000002 0.000000 0.000000 0.000000 -0.346350
    29 1.196321 0.000008 0.000000 0.000000 0.000000 -0.575157
    30 3.883661 -0.050323 -0.431042 -0.085905 -0.026404 -0.587695
    31 1.719578 0.000004 0.000000 0.000000 -0.007974 -0.366436
    32 1.209185 0.000002 0.000000 0.000000 -0.004461 -0.216376
    33 3.859838 -0.148937 -1.331282 -0.354419 0.038567 -0.532001
    34 1.719423 0.000002 0.000000 0.000000 -0.006613 -0.362970
    35 1.099667 0.000002 0.000000 0.000000 -0.004211 -0.244312
    36 0.806021 -0.359837 -1.318334 1.203301 0.616014 -0.845207
    37 1.789782 0.000000 -0.000004 0.000000 0.000000 0.181370
    38 1.206999 0.000003 0.000002 0.000000 0.000000 0.294827
    39 -4.996094 -9.109375 -29.421875 1.570792 0.000003 -0.000003
    40 -4.014893 23.155716 20.704909 0.025413 0.000000 0.000000
    41 -0.004455 -0.545139 -2.136547 0.000000 0.000000 0.000000
    42 0.009659 -6.406696 -21.608532 0.000000 0.000000 0.000000
  time 12
    0 -4.996094 -5.242188 -9.640625 -1.570781 -1.391896 -1.570809
    1 2.033349 1.000767 1.937660 1.596637 -1.286515 2.942961
    2 6.028141 0.000000 0.000000 -0.409099 -1.050002 -1.948438
    3 11.692554 0.000001 0.000002 0.000000 0.000000 -0.788694
    4 11.481674 0.000001 -0.000032 -0.436512 0.215665 0.175614
    5 3.859709 -0.142404 -1.191975 -0.502768 -0.244863 -1.327695
    6 1.312555 -0.000002 0.000001 0.000000 0.000000 -0.275280
    7 0.729363 -0.000002 -0.000002 0.000000 0.000000 -0.093519
    8 3.942335 0.046767 -0.431443 -0.253491 -0.140129 -0.944416
    9 1.539097 0.000000 0.000000 0.000000 0.000000 -0.422801
    10 1.196326 -0.000002 -0.000001 0.000000 0.000000 -0.685721
    11 3.883696 -0.046765 0.431443 -0.048698 -0.149461 -0.571418
    12 1.719570 -0.000004 -0.000001 0.000000 0.000000 -0.789633
    13 1.209171 -0.000002 0.000000 0.000000 0.000000 -0.638622
    14 3.859865 -0.137947 1.332466 0.233309 -0.200803 -0.470680
    15 1.719429 0.000002 -0.000001 0.000000 0.000000 -0.851271
    16 1.099665 0.000000 0.000000 0.000000 0.000000 -0.722480
    17 0.806053 -0.348925 1.321258 -0.919606 -0.521611 -1.289995
    18 1.789780 -0.000002 0.000002 0.000000 0.000000 0.258466
    19 1.207006 0.000000 0.000000 0.000000 0.000000 0.084299
    20 2.033356 1.000772 -1.937610 -1.668474 1.286518 2.942953
    21 6.028144 0.000000 0.000000 0.917304 0.001542 -1.163826
    22 11.692554 0.000001 0.000003 0.000000 0.000000 -0.492918
    23 11.481697 0.000001 0.000002 -1.839856 0.008434 0.043618
    24 3.859678 -0.132570 1.193109 0.452686 -0.203570 -0.743635
    25 1.312557 -0.000002 0.000001 0.000000 0.000000 -0.429894
    26 0.729365 0.000002 -0.000002 0.000000 0.000000 -0.234753
    27 3.942305 0.050327 0.431044 0.136996 -0.098616 -0.615904
    28 1.539099 -0.000002 0.000000 0.000000 0.000000 -0.346350
    29 1.196321 0.000008 0.000000 0.000000 0.000000 -0.575157
    30 3.883661 -0.050323 -0.431042 -0.085905 -0.026404 -0.587695
    31 1.719578 0.000004 0.000000 0.000000 -0.007974 -0.366436
    32 1.209185 0.000002 0.000000 0.000000 -0.004461 -0.216376
    33 3.859838 -0.148937 -1.331282 -0.354419 0.038567 -0.532001
    34 1.719423 0.000002 0.000000 0.000000 -0.006613 -0.362970
    35 1.099667 0.000002 0.000000 0.000000 -0.004211 -0.244312
    36 0.806021 -0.359837 -1.318334 1.203301 0.616014 -0.845207
    37 1.789782 0.000000 -0.000004 0.000000 0.000000 0.181370
    38 1.206999 0.000003 0.000002 0.000000 0.000000 0.294827
    39 -4.996094 -9.109375 -29.421875 1.570792 0.000003 -0.000003
    40 -4.014893 23.128371 20.642407 0.008275 0.000000 0.000000
    41 -0.004455 -0.545139 -2.136547 0.000000 0.000000 0.000000
    42 0.009659 -6.406696 -21.608532 0.000000 0.000000 0.000000
  time 13
    0 -4.996094 -5.242188 -9.640625 -1.570781 -1.391896 -1.570809
    1 2.033349 1.000767 1.937660 1.596637 -1.286515 2.942961
    2 6.028141 0.000000 0.000000 -0.419607 -1.044116 -1.932195
    3 11.692554 0.000001 0.000002 0.000000 0.000000 -0.800138
    4 11.481674 0.000001 -0.000032 -0.425725 0.206676 0.161979
    5 3.859709 -0.142404 -1.191975 -0.502768 -0.244863 -1.327695
    6 1.312555 -0.000002 0.000001 0.000000 0.000000 -0.275280
    7 0.729363 -0.000002 -0.000002 0.000000 0.000000 -0.093519
    8 3.942335 0.046767 -0.431443 -0.253491 -0.140129 -0.944416
    9 1.539097 0.000000 0.000000 0.000000 0.000000 -0.422801
    10 1.196326 -0.000002 -0.000001 0.000000 0.000000 -0.685721
    11 3.883696 -0.046765 0.431443 -0.048698 -0.149461 -0.571418
    12 1.719570 -0.000004 -0.000001 0.000000 0.000000 -0.789633
    13 1.209171 -0.000002 0.000000 0.000000 0.000000 -0.638622
    14 3.859865 -0.137947 1.332466 0.233309 -0.200803 -0.470680
    15 1.719429 0.000002 -0.000001 0.000000 0.000000 -0.851271
    16 1.099665 0.000000 0.000000 0.000000 0.000000 -0.722480
    17 0.806053 -0.348925 1.321258 -0.919606 -0.521611 -1.289995
    18 1.789780 -0.000002 0.000002 0.000000 0.000000 0.258466
    19 1.207006 0.000000 0.000000 0.000000 0.000000 0.084299
    20 2.033356 1.000772 -1.937610 -1.668474 1.286518 2.942953
    21 6.028144 0.000000 0.000000 0.917304 0.001542 -1.163826
    22 11.692554 0.000001 0.000003 0.000000 0.000000 -0.492918
    23 11.481697 0.000001 0.000002 -1.839856 0.008434 0.043618
    24 3.859678 -0.132570 1.193109 0.452686 -0.203570 -0.743635
    25 1.312557 -0.000002 0.000001 0.000000 0.000000 -0.429894
    26 0.729365 0.000002 -0.000002 0.000000 0.000000 -0.234753
    27 3.942305 0.050327 0.431044 0.136996 -0.098616 -0.615904
    28 1.539099 -0.000002 0.000000 0.000000 0.000000 -0.346350
    29 1.196321 0.000008 0.000000 0.000000 0.000000 -0.575157
    30 3.883661 -0.050323 -0.431042 -0.085905 -0.026404 -0.587695
    31 1.719578 0.000004 0.000000 0.000000 -0.007974 -0.366436
    32 1.209185 0.000002 0.000000 0.000000 -0.004461 -0.216376
    33 3.859838 -0.148937 -1.331282 -0.354419 0.038567 -0.532001
    34 1.719423 0.000002 0.000000 0.000000 -0.006613 -0.362970
    35 1.099667 0.000002 0.000000 0.000000 -0.004211 -0.244312
    36 0.806021 -0.359837 -1.318334 1.203301 0.616014 -0.845207
    37 1.789782 0.000000 -0.000004 0.000000 0.000000 0.181370
    38 1.206999 0.000003 0.000002 0.000000 0.000000 0.294827
    39 -4.996094 -9.109375 -29.421875 1.570792 0.000003 -0.000003
    40 -4.014893 23.120559 20.482246 -0.013729 0.000000 0.000000
    41 -0.004455 -0.545139 -2.136547 0.000000 0.000000 0.000000
    42 0.009659 -6.406696 -21.608532 0.000000 0.000000 0.000000
  time 14
    0 -4.996094 -5.242188 -9.640625 -1.570781 -1.391896 -1.570809
    1 2.033349 1.000767 1.937660 1.596637 -1.286515 2.942961
    2 6.028141 0.000000 0.000000 -0.436909 -1.036324 -1.908186
    3 11.692554 0.000001 0.000002 0.000000 0.000000 -0.835689
    4 11.481674 0.000001 -0.000032 -0.430519 0.204279 0.186687
    5 3.859709 -0.142404 -1.191975 -0.502768 -0.244863 -1.327695
    6 1.312555 -0.000002 0.000001 0.000000 0.000000 -0.275280
    7 0.729363 -0.000002 -0.000002 0.000000 0.000000 -0.093519
    8 3.942335 0.046767 -0.431443 -0.253491 -0.140129 -0.944416
    9 1.539097 0.000000 0.000000 0.000000 0.000000 -0.422801
    10 1.196326 -0.000002 -0.000001 0.000000 0.000000 -0.685721
    11 3.883696 -0.046765 0.431443 -0.048698 -0.149461 -0.571418
    12 1.719570 -0.000004 -0.000001 0.000000 0.000000 -0.789633
    13 1.209171 -0.000002 0.000000 0.000000 0.000000 -0.638622
    14 3.859865 -0.137947 1.332466 0.233309 -0.200803 -0.470680
    15 1.719429 0.000002 -0.000001 0.000000 0.000000 -0.851271
    16 1.099665 0.000000 0.000000 0.000000 0.000000 -0.722480
    17 0.806053 -0.348925 1.321258 -0.919606 -0.521611 -1.289995
    18 1.789780 -0.000002 0.000002 0.000000 0.000000 0.258466
    19 1.207006 0.000000 0.000000 0.000000 0.000000 0.084299
    20 2.033356 1.000772 -1.937610 -1.668474 1.286518 2.942953
    21 6.028144 0.000000 0.000000 0.917304 0.001542 -1.163826
    22 11.692554 0.000001 0.000003 0.000000 0.000000 -0.492918
    23 11.481697 0.000001 0.000002 -1.839856 0.008434 0.043618
    24 3.859678 -0.132570 1.193109 0.452686 -0.203570 -0.743635
    25 1.312557 -0.000002 0.000001 0.000000 0.000000 -0.429894
    26 0.729365 0.000002 -0.000002 0.000000 0.000000 -0.234753
    27 3.942305 0.050327 0.431044 0.136996 -0.098616 -0.615904
    28 1.539099 -0.000002 0.000000 0.000000 0.000000 -0.346350
    29 1.196321 0.000008 0.000000 0.000000 0.000000 -0.575157
    30 3.883661 -0.050323 -0.431042 -0.085905 -0.026404 -0.587695
    31 1.719578 0.000004 0.000000 0.000000 -0.007974 -0.366436
    32 1.209185 0.000002 0.000000 0.000000 -0.004461 -0.216376
    33 3.859838 -0.148937 -1.331282 -0.354419 0.038567 -0.532001
    34 1.719423 0.000002 0.000000 0.000000 -0.006613 -0.362970
    35 1.099667 0.000002 0.000000 0.000000 -0.004211 -0.244312
    36 0.806021 -0.359837 -1.318334 1.203301 0.616014 -0.845207
    37 1.789782 0.000000 -0.000004 0.000000 0.000000 0.181370
    38 1.206999 0.000003 0.000002 0.000000 0.000000 0.294827
    39 -4.996094 -9.109375 -29.421875 1.570792 0.000003 -0.000003
    40 -4.014893 23.140090 20.322085 -0.008142 0.000000 0.000000
    41 -0.004455 -0.545139 -2.136547 0.000000 0.000000 0.000000
    42 0.009659 -6.406696 -21.608532 0.000000 0.000000 0.000000
  time 15
    0 -4.996094 -5.242188 -9.640625 -1.570781 -1.391896 -1.570809
    1 2.033349 1.000767 1.937660 1.596637 -1.286515 2.942961
    2 6.028141 0.000000 0.000000 -0.445365 -1.032513 -1.896495
    3 11.692554 0.000001 0.000002 0.000000 0.000000 -0.856004
    4 11.481674 0.000001 -0.000032 -0.435872 0.204567 0.205366
    5 3.859709 -0.142404 -1.191975 -0.502768 -0.244863 -1.327695
    6 1.312555 -0.000002 0.000001 0.000000 0.000000 -0.275280
    7 0.729363 -0.000002 -0.000002 0.000000 0.000000 -0.093519
    8 3.942335 0.046767 -0.431443 -0.253491 -0.140129 -0.944416
    9 1.539097 0.000000 0.000000 0.000000 0.000000 -0.422801
    10 1.196326 -0.000002 -0.000001 0.000000 0.000000 -0.685721
    11 3.883696 -0.046765 0.431443 -0.048698 -0.149461 -0.571418
    12 1.719570 -0.000004 -0.000001 0.000000 0.000000 -0.789633
    13 1.209171 -0.000002 0.000000 0.000000 0.000000 -0.638622
    14 3.859865 -0.137947 1.332466 0.233309 -0.200803 -0.470680
    15 1.719429 0.000002 -0.000001 0.000000 0.000000 -0.851271
    16 1.099665 0.000000 0.000000 0.000000 0.000000 -0.722480
    17 0.806053 -0.348925 1.321258 -0.919606 -0.521611 -1.289995
    18 1.789780 -0.000002 0.000002 0.000000 0.000000 0.258466
    19 1.207006 0.000000 0.000000 0.000000 0.000000 0.084299
    20 2.033356 1.000772 -1.937610 -1.668474 1.286518 2.942953
    21 6.028144 0.000000 0.000000 0.917304 0.001542 -1.163826
    22 11.692554 0.000001 0.000003 0.000000 0.000000 -0.492918
    23 11.481697 0.000001 0.000002 -1.839856 0.008434 0.043618
    24 3.859678 -0.132570 1.193109 0.452686 -0.203570 -0.743635
    25 1.312557 -0.000002 0.000001 0.000000 0.000000 -0.429894
    26 0.729365 0.000002 -0.000002 0.000000 0.000000 -0.234753
    27 3.942305 0.050327 0.431044 0.136996 -0.098616 -0.615904
    28 1.539099 -0.000002 0.000000 0.000000 0.000000 -0.346350
    29 1.196321 0.000008 0.000000 0.000000 0.000000 -0.575157
    30 3.883661 -0.050323 -0.431042 -0.085905 -0.026404 -0.587695
    31 1.719578 0.000004 0.000000 0.000000 -0.007974 -0.366436
    32 1.209185 0.000002 0.000000 0.000000 -0.004461 -0.216376
    33 3.859838 -0.148937 -1.331282 -0.354419 0.038567 -0.532001
    34 1.719423 0.000002 0.000000 0.000000 -0.006613 -0.362970
    35 1.099667 0.000002 0.000000 0.000000 -0.004211 -0.244312
    36 0.806021 -0.359837 -1.318334 1.203301 0.616014 -0.845207
    37 1.789782 0.000000 -0.000004 0.000000 0.000000 0.181370
    38 1.206999 0.000003 0.000002 0.000000 0.000000 0.294827
    39 -4.996094 -9.109375 -29.421875 1.570792 0.000003 -0.000003
    40 -4.014893 23.155716 20.251770 -0.000001 0.000000 0.000000
    41 -0.004455 -0.545139 -2.136547 0.000000 0.000000 0.000000
    42 0.009659 -6.406696 -21.608532 0.000000 0.000000 0.000000
end
