// Created by Crowbar 0.74
version 1
nodes
  0 "ValveBiped.Bip01_Spine4" -1
  1 "ValveBiped.Bip01_L_Clavicle" 0
  2 "ValveBiped.Bip01_L_UpperArm" 1
  3 "ValveBiped.Bip01_L_Forearm" 2
  4 "ValveBiped.Bip01_L_Hand" 3
  5 "ValveBiped.Bip01_L_Finger4" 4
  6 "ValveBiped.Bip01_L_Finger41" 5
  7 "ValveBiped.Bip01_L_Finger42" 6
  8 "ValveBiped.Bip01_L_Finger3" 4
  9 "ValveBiped.Bip01_L_Finger31" 8
  10 "ValveBiped.Bip01_L_Finger32" 9
  11 "ValveBiped.Bip01_L_Finger2" 4
  12 "ValveBiped.Bip01_L_Finger21" 11
  13 "ValveBiped.Bip01_L_Finger22" 12
  14 "ValveBiped.Bip01_L_Finger1" 4
  15 "ValveBiped.Bip01_L_Finger11" 14
  16 "ValveBiped.Bip01_L_Finger12" 15
  17 "ValveBiped.Bip01_L_Finger0" 4
  18 "ValveBiped.Bip01_L_Finger01" 17
  19 "ValveBiped.Bip01_L_Finger02" 18
  20 "ValveBiped.Bip01_R_Clavicle" 0
  21 "ValveBiped.Bip01_R_UpperArm" 20
  22 "ValveBiped.Bip01_R_Forearm" 21
  23 "ValveBiped.Bip01_R_Hand" 22
  24 "ValveBiped.Bip01_R_Finger4" 23
  25 "ValveBiped.Bip01_R_Finger41" 24
  26 "ValveBiped.Bip01_R_Finger42" 25
  27 "ValveBiped.Bip01_R_Finger3" 23
  28 "ValveBiped.Bip01_R_Finger31" 27
  29 "ValveBiped.Bip01_R_Finger32" 28
  30 "ValveBiped.Bip01_R_Finger2" 23
  31 "ValveBiped.Bip01_R_Finger21" 30
  32 "ValveBiped.Bip01_R_Finger22" 31
  33 "ValveBiped.Bip01_R_Finger1" 23
  34 "ValveBiped.Bip01_R_Finger11" 33
  35 "ValveBiped.Bip01_R_Finger12" 34
  36 "ValveBiped.Bip01_R_Finger0" 23
  37 "ValveBiped.Bip01_R_Finger01" 36
  38 "ValveBiped.Bip01_R_Finger02" 37
  39 "ValveBiped.Bip01" -1
  40 "ValveBiped.Gun" 39
  41 "ValveBiped.Pump" 40
  42 "ValveBiped.square" 40
end
skeleton
  time 0
    0 -4.996094 -5.242188 -9.640625 -1.570781 -1.391896 -1.570809
    1 2.033349 1.000767 1.937660 1.596637 -1.286515 2.942961
    2 6.028141 0.000000 0.000000 -0.076356 -0.773135 -1.736364
    3 11.692554 0.000001 0.000002 0.000000 0.000000 -1.153145
    4 11.481674 0.000001 -0.000032 -1.044941 -0.095995 0.664689
    5 3.859709 -0.142404 -1.191975 -0.502776 -0.244875 -1.327706
    6 1.312555 -0.000002 0.000001 0.000000 0.000000 -0.275280
    7 0.729363 -0.000002 -0.000002 0.000000 0.000000 -0.093519
    8 3.942335 0.046767 -0.431443 -0.253491 -0.140129 -0.944416
    9 1.539097 0.000000 0.000000 0.000000 0.000000 -0.422801
    10 1.196326 -0.000002 -0.000001 0.000000 0.000000 -0.685721
    11 3.883696 -0.046765 0.431443 -0.048698 -0.149461 -0.571418
    12 1.719570 -0.000004 -0.000001 0.000000 0.000000 -0.789630
    13 1.209171 -0.000002 0.000000 0.000000 0.000000 -0.638622
    14 3.859865 -0.137947 1.332466 0.233295 -0.200810 -0.470677
    15 1.719429 0.000002 -0.000001 0.000000 0.000000 -0.851271
    16 1.099665 0.000000 0.000000 0.000000 0.000000 -0.722480
    17 0.806053 -0.348925 1.321258 -0.919606 -0.521611 -1.289995
    18 1.789780 -0.000002 0.000002 0.000000 0.000000 0.258466
    19 1.207006 0.000000 0.000000 0.000000 0.000000 0.084299
    20 2.033356 1.000772 -1.937610 -1.668474 1.286518 2.942953
    21 6.028144 0.000000 0.000000 0.917304 0.001542 -1.163826
    22 11.692554 0.000001 0.000003 0.000000 0.000000 -0.492918
    23 11.481697 0.000001 0.000002 -1.839856 0.008434 0.043618
    24 3.859678 -0.132570 1.193109 0.452686 -0.203570 -0.743635
    25 1.312557 -0.000002 0.000001 0.000000 0.000000 -0.429894
    26 0.729365 0.000002 -0.000002 0.000000 0.000000 -0.234753
    27 3.942305 0.050327 0.431044 0.136996 -0.098616 -0.615904
    28 1.539099 -0.000002 0.000000 0.000000 0.000000 -0.346350
    29 1.196321 0.000008 0.000000 0.000000 0.000000 -0.575157
    30 3.883661 -0.050323 -0.431042 -0.085905 -0.026404 -0.587695
    31 1.719578 0.000004 0.000000 0.000000 -0.007974 -0.366436
    32 1.209185 0.000002 0.000000 0.000000 -0.004461 -0.216376
    33 3.859838 -0.148937 -1.331282 -0.354419 0.038567 -0.532001
    34 1.719423 0.000002 0.000000 0.000000 -0.006613 -0.362970
    35 1.099667 0.000002 0.000000 0.000000 -0.004211 -0.244312
    36 0.806021 -0.359837 -1.318334 1.203301 0.616014 -0.845207
    37 1.789782 0.000000 -0.000004 0.000000 0.000000 0.181370
    38 1.206999 0.000003 0.000002 0.000000 0.000000 0.294827
    39 -4.996094 -9.109375 -29.421875 1.570792 0.000003 -0.000003
    40 -7.663442 16.042218 15.364902 0.492159 0.069247 0.037080
    41 -0.004455 -0.545139 -2.136547 0.000000 0.000000 0.000000
    42 0.009659 -6.406696 -21.608532 0.000000 0.000000 0.000000
  time 1
    0 -4.996094 -5.242188 -9.640625 -1.570781 -1.391896 -1.570809
    1 2.033349 1.000767 1.937660 1.596637 -1.286515 2.942961
    2 6.028141 0.000000 0.000000 -0.083052 -0.775279 -1.735361
    3 11.692554 0.000001 0.000002 0.000000 0.000000 -1.156166
    4 11.481674 0.000001 -0.000032 -1.035353 -0.094724 0.663349
    5 3.859709 -0.142404 -1.191975 -0.502776 -0.244875 -1.327706
    6 1.312555 -0.000002 0.000001 0.000000 0.000000 -0.275280
    7 0.729363 -0.000002 -0.000002 0.000000 0.000000 -0.093519
    8 3.942335 0.046767 -0.431443 -0.253491 -0.140129 -0.944416
    9 1.539097 0.000000 0.000000 0.000000 0.000000 -0.422801
    10 1.196326 -0.000002 -0.000001 0.000000 0.000000 -0.685721
    11 3.883696 -0.046765 0.431443 -0.048698 -0.149461 -0.571418
    12 1.719570 -0.000004 -0.000001 0.000000 0.000000 -0.789630
    13 1.209171 -0.000002 0.000000 0.000000 0.000000 -0.638622
    14 3.859865 -0.137947 1.332466 0.233295 -0.200810 -0.470677
    15 1.719429 0.000002 -0.000001 0.000000 0.000000 -0.851271
    16 1.099665 0.000000 0.000000 0.000000 0.000000 -0.722480
    17 0.806053 -0.348925 1.321258 -0.919606 -0.521611 -1.289995
    18 1.789780 -0.000002 0.000002 0.000000 0.000000 0.258466
    19 1.207006 0.000000 0.000000 0.000000 0.000000 0.084299
    20 2.033356 1.000772 -1.937610 -1.668474 1.286518 2.942953
    21 6.028144 0.000000 0.000000 0.917304 0.001542 -1.163826
    22 11.692554 0.000001 0.000003 0.000000 0.000000 -0.492918
    23 11.481697 0.000001 0.000002 -1.839856 0.008434 0.043618
    24 3.859678 -0.132570 1.193109 0.452686 -0.203570 -0.743635
    25 1.312557 -0.000002 0.000001 0.000000 0.000000 -0.429894
    26 0.729365 0.000002 -0.000002 0.000000 0.000000 -0.234753
    27 3.942305 0.050327 0.431044 0.136996 -0.098616 -0.615904
    28 1.539099 -0.000002 0.000000 0.000000 0.000000 -0.346350
    29 1.196321 0.000008 0.000000 0.000000 0.000000 -0.575157
    30 3.883661 -0.050323 -0.431042 -0.085905 -0.026404 -0.587695
    31 1.719578 0.000004 0.000000 0.000000 -0.007974 -0.366436
    32 1.209185 0.000002 0.000000 0.000000 -0.004461 -0.216376
    33 3.859838 -0.148937 -1.331282 -0.354419 0.038567 -0.532001
    34 1.719423 0.000002 0.000000 0.000000 -0.006613 -0.362970
    35 1.099667 0.000002 0.000000 0.000000 -0.004211 -0.244312
    36 0.806021 -0.359837 -1.318334 1.203301 0.616014 -0.845207
    37 1.789782 0.000000 -0.000004 0.000000 0.000000 0.181370
    38 1.206999 0.000003 0.000002 0.000000 0.000000 0.294827
    39 -4.996094 -9.109375 -29.421875 1.570792 0.000003 -0.000003
    40 -7.628285 16.159409 15.407872 0.485250 0.068540 0.036925
    41 -0.004455 -0.545139 -2.136547 0.000000 0.000000 0.000000
    42 0.009659 -6.406696 -21.608532 0.000000 0.000000 0.000000
  time 2
    0 -4.996094 -5.242188 -9.640625 -1.570781 -1.391896 -1.570809
    1 2.033349 1.000767 1.937660 1.596637 -1.286515 2.942961
    2 6.028141 0.000000 0.000000 -0.101576 -0.781097 -1.732731
    3 11.692554 0.000001 0.000002 0.000000 0.000000 -1.162724
    4 11.481674 0.000001 -0.000032 -1.006670 -0.092603 0.656650
    5 3.859709 -0.142404 -1.191975 -0.502776 -0.244875 -1.327706
    6 1.312555 -0.000002 0.000001 0.000000 0.000000 -0.275280
    7 0.729363 -0.000002 -0.000002 0.000000 0.000000 -0.093519
    8 3.942335 0.046767 -0.431443 -0.253491 -0.140129 -0.944416
    9 1.539097 0.000000 0.000000 0.000000 0.000000 -0.422801
    10 1.196326 -0.000002 -0.000001 0.000000 0.000000 -0.685721
    11 3.883696 -0.046765 0.431443 -0.048698 -0.149461 -0.571418
    12 1.719570 -0.000004 -0.000001 0.000000 0.000000 -0.789630
    13 1.209171 -0.000002 0.000000 0.000000 0.000000 -0.638622
    14 3.859865 -0.137947 1.332466 0.233295 -0.200810 -0.470677
    15 1.719429 0.000002 -0.000001 0.000000 0.000000 -0.851271
    16 1.099665 0.000000 0.000000 0.000000 0.000000 -0.722480
    17 0.806053 -0.348925 1.321258 -0.919606 -0.521597 -1.289995
    18 1.789780 -0.000002 0.000002 0.000000 0.000000 0.258466
    19 1.207006 0.000000 0.000000 0.000000 0.000000 0.084299
    20 2.033356 1.000772 -1.937610 -1.668474 1.286518 2.942953
    21 6.028144 0.000000 0.000000 0.917304 0.001542 -1.163826
    22 11.692554 0.000001 0.000003 0.000000 0.000000 -0.492918
    23 11.481697 0.000001 0.000002 -1.839856 0.008434 0.043618
    24 3.859678 -0.132570 1.193109 0.452686 -0.203570 -0.743635
    25 1.312557 -0.000002 0.000001 0.000000 0.000000 -0.429894
    26 0.729365 0.000002 -0.000002 0.000000 0.000000 -0.234753
    27 3.942305 0.050327 0.431044 0.136996 -0.098616 -0.615904
    28 1.539099 -0.000002 0.000000 0.000000 0.000000 -0.346350
    29 1.196321 0.000008 0.000000 0.000000 0.000000 -0.575157
    30 3.883661 -0.050323 -0.431042 -0.085905 -0.026404 -0.587695
    31 1.719578 0.000004 0.000000 0.000000 -0.007974 -0.366436
    32 1.209185 0.000002 0.000000 0.000000 -0.004461 -0.216376
    33 3.859838 -0.148937 -1.331282 -0.354419 0.038567 -0.532001
    34 1.719423 0.000002 0.000000 0.000000 -0.006613 -0.362970
    35 1.099667 0.000002 0.000000 0.000000 -0.004211 -0.244312
    36 0.806021 -0.359837 -1.318334 1.203301 0.616014 -0.845207
    37 1.789782 0.000000 -0.000004 0.000000 0.000000 0.181370
    38 1.206999 0.000003 0.000002 0.000000 0.000000 0.294827
    39 -4.996094 -9.109375 -29.421875 1.570792 0.000003 -0.000003
    40 -7.534532 16.487544 15.521157 0.463170 0.066550 0.036469
    41 -0.004455 -0.545139 -2.136547 0.000000 0.000000 0.000000
    42 0.009659 -6.406696 -21.608532 0.000000 0.000000 0.000000
  time 3
    0 -4.996094 -5.242188 -9.640625 -1.570781 -1.391896 -1.570809
    1 2.033349 1.000767 1.937660 1.596637 -1.286515 2.942961
    2 6.028141 0.000000 0.000000 -0.129484 -0.790012 -1.729307
    3 11.692554 0.000001 0.000002 0.000000 0.000000 -1.168831
    4 11.481674 0.000001 -0.000032 -0.959210 -0.091464 0.640060
    5 3.859709 -0.142404 -1.191975 -0.502776 -0.244875 -1.327706
    6 1.312555 -0.000002 0.000001 0.000000 0.000000 -0.275280
    7 0.729363 -0.000002 -0.000002 0.000000 0.000000 -0.093519
    8 3.942335 0.046767 -0.431443 -0.253491 -0.140129 -0.944416
    9 1.539097 0.000000 0.000000 0.000000 0.000000 -0.422801
    10 1.196326 -0.000002 -0.000001 0.000000 0.000000 -0.685721
    11 3.883696 -0.046765 0.431443 -0.048698 -0.149461 -0.571418
    12 1.719570 -0.000004 -0.000001 0.000000 0.000000 -0.789630
    13 1.209171 -0.000002 0.000000 0.000000 0.000000 -0.638622
    14 3.859865 -0.137947 1.332466 0.233295 -0.200810 -0.470677
    15 1.719429 0.000002 -0.000001 0.000000 0.000000 -0.851271
    16 1.099665 0.000000 0.000000 0.000000 0.000000 -0.722480
    17 0.806053 -0.348925 1.321258 -0.919606 -0.521611 -1.289995
    18 1.789780 -0.000002 0.000002 0.000000 0.000000 0.258466
    19 1.207006 0.000000 0.000000 0.000000 0.000000 0.084299
    20 2.033356 1.000772 -1.937610 -1.668474 1.286518 2.942953
    21 6.028144 0.000000 0.000000 0.917304 0.001542 -1.163826
    22 11.692554 0.000001 0.000003 0.000000 0.000000 -0.492918
    23 11.481697 0.000001 0.000002 -1.839856 0.008434 0.043618
    24 3.859678 -0.132570 1.193109 0.452686 -0.203570 -0.743635
    25 1.312557 -0.000002 0.000001 0.000000 0.000000 -0.429894
    26 0.729365 0.000002 -0.000002 0.000000 0.000000 -0.234753
    27 3.942305 0.050327 0.431044 0.136996 -0.098616 -0.615904
    28 1.539099 -0.000002 0.000000 0.000000 0.000000 -0.346350
    29 1.196321 0.000008 0.000000 0.000000 0.000000 -0.575157
    30 3.883661 -0.050323 -0.431042 -0.085905 -0.026404 -0.587695
    31 1.719578 0.000004 0.000000 0.000000 -0.007974 -0.366436
    32 1.209185 0.000002 0.000000 0.000000 -0.004461 -0.216376
    33 3.859838 -0.148937 -1.331282 -0.354419 0.038567 -0.532001
    34 1.719423 0.000002 0.000000 0.000000 -0.006613 -0.362970
    35 1.099667 0.000002 0.000000 0.000000 -0.004211 -0.244312
    36 0.806021 -0.359837 -1.318334 1.203301 0.616014 -0.845207
    37 1.789782 0.000000 -0.000004 0.000000 0.000000 0.181370
    38 1.206999 0.000003 0.000002 0.000000 0.000000 0.294827
    39 -4.996094 -9.109375 -29.421875 1.570792 0.000003 -0.000003
    40 -7.386090 16.995372 15.700850 0.423968 0.063482 0.035702
    41 -0.004455 -0.545139 -2.136547 0.000000 0.000000 0.000000
    42 0.009659 -6.406696 -21.608532 0.000000 0.000000 0.000000
  time 4
    0 -4.996094 -5.242188 -9.640625 -1.570781 -1.391896 -1.570809
    1 2.033349 1.000767 1.937660 1.596637 -1.286515 2.942961
    2 6.028141 0.000000 0.000000 -0.164283 -0.801581 -1.726509
    3 11.692554 0.000001 0.000002 0.000000 0.000000 -1.169924
    4 11.481674 0.000001 -0.000032 -0.893373 -0.091836 0.608535
    5 3.859709 -0.142404 -1.191975 -0.502776 -0.244875 -1.327706
    6 1.312555 -0.000002 0.000001 0.000000 0.000000 -0.275280
    7 0.729363 -0.000002 -0.000002 0.000000 0.000000 -0.093519
    8 3.942335 0.046767 -0.431443 -0.253491 -0.140129 -0.944416
    9 1.539097 0.000000 0.000000 0.000000 0.000000 -0.422801
    10 1.196326 -0.000002 -0.000001 0.000000 0.000000 -0.685721
    11 3.883696 -0.046765 0.431443 -0.048698 -0.149461 -0.571418
    12 1.719570 -0.000004 -0.000001 0.000000 0.000000 -0.789630
    13 1.209171 -0.000002 0.000000 0.000000 0.000000 -0.638622
    14 3.859865 -0.137947 1.332466 0.233295 -0.200810 -0.470677
    15 1.719429 0.000002 -0.000001 0.000000 0.000000 -0.851271
    16 1.099665 0.000000 0.000000 0.000000 0.000000 -0.722480
    17 0.806053 -0.348925 1.321258 -0.919606 -0.521611 -1.289995
    18 1.789780 -0.000002 0.000002 0.000000 0.000000 0.258466
    19 1.207006 0.000000 0.000000 0.000000 0.000000 0.084299
    20 2.033356 1.000772 -1.937610 -1.668474 1.286518 2.942953
    21 6.028144 0.000000 0.000000 0.917304 0.001542 -1.163826
    22 11.692554 0.000001 0.000003 0.000000 0.000000 -0.492918
    23 11.481697 0.000001 0.000002 -1.839856 0.008434 0.043618
    24 3.859678 -0.132570 1.193109 0.452686 -0.203570 -0.743635
    25 1.312557 -0.000002 0.000001 0.000000 0.000000 -0.429894
    26 0.729365 0.000002 -0.000002 0.000000 0.000000 -0.234753
    27 3.942305 0.050327 0.431044 0.136996 -0.098616 -0.615904
    28 1.539099 -0.000002 0.000000 0.000000 0.000000 -0.346350
    29 1.196321 0.000008 0.000000 0.000000 0.000000 -0.575157
    30 3.883661 -0.050323 -0.431042 -0.085905 -0.026404 -0.587695
    31 1.719578 0.000004 0.000000 0.000000 -0.007974 -0.366436
    32 1.209185 0.000002 0.000000 0.000000 -0.004461 -0.216376
    33 3.859838 -0.148937 -1.331282 -0.354419 0.038567 -0.532001
    34 1.719423 0.000002 0.000000 0.000000 -0.006613 -0.362970
    35 1.099667 0.000002 0.000000 0.000000 -0.004211 -0.244312
    36 0.806021 -0.359837 -1.318334 1.203301 0.616014 -0.845207
    37 1.789782 0.000000 -0.000004 0.000000 0.000000 0.181370
    38 1.206999 0.000003 0.000002 0.000000 0.000000 0.294827
    39 -4.996094 -9.109375 -29.421875 1.570792 0.000003 -0.000003
    40 -7.194678 17.639923 15.935232 0.366216 0.059527 0.034624
    41 -0.004455 -0.545139 -2.136547 0.000000 0.000000 0.000000
    42 0.009659 -6.406696 -21.608532 0.000000 0.000000 0.000000
  time 5
    0 -4.996094 -5.242188 -9.640625 -1.570781 -1.391896 -1.570809
    1 2.033349 1.000767 1.937660 1.596637 -1.286515 2.942961
    2 6.028141 0.000000 0.000000 -0.203432 -0.815871 -1.726468
    3 11.692554 0.000001 0.000002 0.000000 0.000000 -1.161502
    4 11.481674 0.000001 -0.000032 -0.810438 -0.092519 0.557622
    5 3.859709 -0.142404 -1.191975 -0.502776 -0.244875 -1.327706
    6 1.312555 -0.000002 0.000001 0.000000 0.000000 -0.275280
    7 0.729363 -0.000002 -0.000002 0.000000 0.000000 -0.093519
    8 3.942335 0.046767 -0.431443 -0.253491 -0.140129 -0.944416
    9 1.539097 0.000000 0.000000 0.000000 0.000000 -0.422801
    10 1.196326 -0.000002 -0.000001 0.000000 0.000000 -0.685721
    11 3.883696 -0.046765 0.431443 -0.048698 -0.149461 -0.571418
    12 1.719570 -0.000004 -0.000001 0.000000 0.000000 -0.789630
    13 1.209171 -0.000002 0.000000 0.000000 0.000000 -0.638622
    14 3.859865 -0.137947 1.332466 0.233295 -0.200810 -0.470677
    15 1.719429 0.000002 -0.000001 0.000000 0.000000 -0.851271
    16 1.099665 0.000000 0.000000 0.000000 0.000000 -0.722480
    17 0.806053 -0.348925 1.321258 -0.919606 -0.521611 -1.289995
    18 1.789780 -0.000002 0.000002 0.000000 0.000000 0.258466
    19 1.207006 0.000000 0.000000 0.000000 0.000000 0.084299
    20 2.033356 1.000772 -1.937610 -1.668474 1.286518 2.942953
    21 6.028144 0.000000 0.000000 0.917304 0.001542 -1.163826
    22 11.692554 0.000001 0.000003 0.000000 0.000000 -0.492918
    23 11.481697 0.000001 0.000002 -1.839856 0.008434 0.043618
    24 3.859678 -0.132570 1.193109 0.452686 -0.203570 -0.743635
    25 1.312557 -0.000002 0.000001 0.000000 0.000000 -0.429894
    26 0.729365 0.000002 -0.000002 0.000000 0.000000 -0.234753
    27 3.942305 0.050327 0.431044 0.136996 -0.098616 -0.615904
    28 1.539099 -0.000002 0.000000 0.000000 0.000000 -0.346350
    29 1.196321 0.000008 0.000000 0.000000 0.000000 -0.575157
    30 3.883661 -0.050323 -0.431042 -0.085905 -0.026404 -0.587695
    31 1.719578 0.000004 0.000000 0.000000 -0.007974 -0.366436
    32 1.209185 0.000002 0.000000 0.000000 -0.004461 -0.216376
    33 3.859838 -0.148937 -1.331282 -0.354419 0.038567 -0.532001
    34 1.719423 0.000002 0.000000 0.000000 -0.006613 -0.362970
    35 1.099667 0.000002 0.000000 0.000000 -0.004211 -0.244312
    36 0.806021 -0.359837 -1.318334 1.203301 0.616014 -0.845207
    37 1.789782 0.000000 -0.000004 0.000000 0.000000 0.181370
    38 1.206999 0.000003 0.000002 0.000000 0.000000 0.294827
    39 -4.996094 -9.109375 -29.421875 1.570792 0.000003 -0.000003
    40 -6.968108 18.386039 16.212584 0.289675 0.054877 0.033197
    41 -0.004455 -0.545139 -2.136547 0.000000 0.000000 0.000000
    42 0.009659 -6.406696 -21.608532 0.000000 0.000000 0.000000
  time 6
    0 -4.996094 -5.242188 -9.640625 -1.570781 -1.391896 -1.570809
    1 2.033349 1.000767 1.937660 1.596637 -1.286515 2.942961
    2 6.028141 0.000000 0.000000 -0.243852 -0.833429 -1.732146
    3 11.692554 0.000001 0.000002 0.000000 0.000000 -1.139259
    4 11.481674 0.000001 -0.000032 -0.713441 -0.090410 0.485074
    5 3.859709 -0.142404 -1.191975 -0.502776 -0.244875 -1.327706
    6 1.312555 -0.000002 0.000001 0.000000 0.000000 -0.275280
    7 0.729363 -0.000002 -0.000002 0.000000 0.000000 -0.093519
    8 3.942335 0.046767 -0.431443 -0.253491 -0.140129 -0.944416
    9 1.539097 0.000000 0.000000 0.000000 0.000000 -0.422801
    10 1.196326 -0.000002 -0.000001 0.000000 0.000000 -0.685721
    11 3.883696 -0.046765 0.431443 -0.048698 -0.149461 -0.571418
    12 1.719570 -0.000004 -0.000001 0.000000 0.000000 -0.789630
    13 1.209171 -0.000002 0.000000 0.000000 0.000000 -0.638622
    14 3.859865 -0.137947 1.332466 0.233295 -0.200810 -0.470677
    15 1.719429 0.000002 -0.000001 0.000000 0.000000 -0.851271
    16 1.099665 0.000000 0.000000 0.000000 0.000000 -0.722480
    17 0.806053 -0.348925 1.321258 -0.919606 -0.521611 -1.289995
    18 1.789780 -0.000002 0.000002 0.000000 0.000000 0.258466
    19 1.207006 0.000000 0.000000 0.000000 0.000000 0.084299
    20 2.033356 1.000772 -1.937610 -1.668474 1.286518 2.942953
    21 6.028144 0.000000 0.000000 0.917304 0.001542 -1.163826
    22 11.692554 0.000001 0.000003 0.000000 0.000000 -0.492918
    23 11.481697 0.000001 0.000002 -1.839856 0.008434 0.043618
    24 3.859678 -0.132570 1.193109 0.452686 -0.203570 -0.743635
    25 1.312557 -0.000002 0.000001 0.000000 0.000000 -0.429894
    26 0.729365 0.000002 -0.000002 0.000000 0.000000 -0.234753
    27 3.942305 0.050327 0.431044 0.136996 -0.098616 -0.615904
    28 1.539099 -0.000002 0.000000 0.000000 0.000000 -0.346350
    29 1.196321 0.000008 0.000000 0.000000 0.000000 -0.575157
    30 3.883661 -0.050323 -0.431042 -0.085905 -0.026404 -0.587695
    31 1.719578 0.000004 0.000000 0.000000 -0.007974 -0.366436
    32 1.209185 0.000002 0.000000 0.000000 -0.004461 -0.216376
    33 3.859838 -0.148937 -1.331282 -0.354419 0.038567 -0.532001
    34 1.719423 0.000002 0.000000 0.000000 -0.006613 -0.362970
    35 1.099667 0.000002 0.000000 0.000000 -0.004211 -0.244312
    36 0.806021 -0.359837 -1.318334 1.203301 0.616014 -0.845207
    37 1.789782 0.000000 -0.000004 0.000000 0.000000 0.181370
    38 1.206999 0.000003 0.000002 0.000000 0.000000 0.294827
    39 -4.996094 -9.109375 -29.421875 1.570792 0.000003 -0.000003
    40 -6.714194 19.202470 16.521187 0.196386 0.049748 0.031412
    41 -0.004455 -0.545139 -2.136547 0.000000 0.000000 0.000000
    42 0.009659 -6.406696 -21.608532 0.000000 0.000000 0.000000
  time 7
    0 -4.996094 -5.242188 -9.640625 -1.570781 -1.391896 -1.570809
    1 2.033349 1.000767 1.937660 1.596637 -1.286515 2.942961
    2 6.028141 0.000000 0.000000 -0.281632 -0.855205 -1.747053
    3 11.692554 0.000001 0.000002 0.000000 0.000000 -1.101136
    4 11.481674 0.000001 -0.000032 -0.609013 -0.081050 0.393966
    5 3.859709 -0.142404 -1.191975 -0.502776 -0.244875 -1.327706
    6 1.312555 -0.000002 0.000001 0.000000 0.000000 -0.275280
    7 0.729363 -0.000002 -0.000002 0.000000 0.000000 -0.093519
    8 3.942335 0.046767 -0.431443 -0.253491 -0.140129 -0.944416
    9 1.539097 0.000000 0.000000 0.000000 0.000000 -0.422801
    10 1.196326 -0.000002 -0.000001 0.000000 0.000000 -0.685721
    11 3.883696 -0.046765 0.431443 -0.048698 -0.149461 -0.571418
    12 1.719570 -0.000004 -0.000001 0.000000 0.000000 -0.789630
    13 1.209171 -0.000002 0.000000 0.000000 0.000000 -0.638622
    14 3.859865 -0.137947 1.332466 0.233295 -0.200810 -0.470677
    15 1.719429 0.000002 -0.000001 0.000000 0.000000 -0.851271
    16 1.099665 0.000000 0.000000 0.000000 0.000000 -0.722480
    17 0.806053 -0.348925 1.321258 -0.919606 -0.521611 -1.289995
    18 1.789780 -0.000002 0.000002 0.000000 0.000000 0.258466
    19 1.207006 0.000000 0.000000 0.000000 0.000000 0.084299
    20 2.033356 1.000772 -1.937610 -1.668474 1.286518 2.942953
    21 6.028144 0.000000 0.000000 0.917304 0.001542 -1.163826
    22 11.692554 0.000001 0.000003 0.000000 0.000000 -0.492918
    23 11.481697 0.000001 0.000002 -1.839856 0.008434 0.043618
    24 3.859678 -0.132570 1.193109 0.452686 -0.203570 -0.743635
    25 1.312557 -0.000002 0.000001 0.000000 0.000000 -0.429894
    26 0.729365 0.000002 -0.000002 0.000000 0.000000 -0.234753
    27 3.942305 0.050327 0.431044 0.136996 -0.098616 -0.615904
    28 1.539099 -0.000002 0.000000 0.000000 0.000000 -0.346350
    29 1.196321 0.000008 0.000000 0.000000 0.000000 -0.575157
    30 3.883661 -0.050323 -0.431042 -0.085905 -0.026404 -0.587695
    31 1.719578 0.000004 0.000000 0.000000 -0.007974 -0.366436
    32 1.209185 0.000002 0.000000 0.000000 -0.004461 -0.216376
    33 3.859838 -0.148937 -1.331282 -0.354419 0.038567 -0.532001
    34 1.719423 0.000002 0.000000 0.000000 -0.006613 -0.362970
    35 1.099667 0.000002 0.000000 0.000000 -0.004211 -0.244312
    36 0.806021 -0.359837 -1.318334 1.203301 0.616014 -0.845207
    37 1.789782 0.000000 -0.000004 0.000000 0.000000 0.181370
    38 1.206999 0.000003 0.000002 0.000000 0.000000 0.294827
    39 -4.996094 -9.109375 -29.421875 1.570792 0.000003 -0.000003
    40 -6.444655 20.050152 16.853229 0.092432 0.044343 0.029302
    41 -0.004455 -0.545139 -2.136547 0.000000 0.000000 0.000000
    42 0.009659 -6.406696 -21.608532 0.000000 0.000000 0.000000
  time 8
    0 -4.996094 -5.242188 -9.640625 -1.570781 -1.391896 -1.570809
    1 2.033349 1.000767 1.937660 1.596637 -1.286515 2.942961
    2 6.028141 0.000000 0.000000 -0.312228 -0.881779 -1.773651
    3 11.692554 0.000001 0.000002 0.000000 0.000000 -1.050091
    4 11.481674 0.000001 -0.000032 -0.509220 -0.060664 0.296750
    5 3.859709 -0.142404 -1.191975 -0.502776 -0.244875 -1.327706
    6 1.312555 -0.000002 0.000001 0.000000 0.000000 -0.275280
    7 0.729363 -0.000002 -0.000002 0.000000 0.000000 -0.093519
    8 3.942335 0.046767 -0.431443 -0.253491 -0.140129 -0.944416
    9 1.539097 0.000000 0.000000 0.000000 0.000000 -0.422801
    10 1.196326 -0.000002 -0.000001 0.000000 0.000000 -0.685721
    11 3.883696 -0.046765 0.431443 -0.048698 -0.149461 -0.571418
    12 1.719570 -0.000004 -0.000001 0.000000 0.000000 -0.789630
    13 1.209171 -0.000002 0.000000 0.000000 0.000000 -0.638622
    14 3.859865 -0.137947 1.332466 0.233295 -0.200810 -0.470677
    15 1.719429 0.000002 -0.000001 0.000000 0.000000 -0.851271
    16 1.099665 0.000000 0.000000 0.000000 0.000000 -0.722480
    17 0.806053 -0.348925 1.321258 -0.919606 -0.521597 -1.289995
    18 1.789780 -0.000002 0.000002 0.000000 0.000000 0.258466
    19 1.207006 0.000000 0.000000 0.000000 0.000000 0.084299
    20 2.033356 1.000772 -1.937610 -1.668474 1.286518 2.942953
    21 6.028144 0.000000 0.000000 0.917304 0.001542 -1.163826
    22 11.692554 0.000001 0.000003 0.000000 0.000000 -0.492918
    23 11.481697 0.000001 0.000002 -1.839856 0.008434 0.043618
    24 3.859678 -0.132570 1.193109 0.452686 -0.203570 -0.743635
    25 1.312557 -0.000002 0.000001 0.000000 0.000000 -0.429894
    26 0.729365 0.000002 -0.000002 0.000000 0.000000 -0.234753
    27 3.942305 0.050327 0.431044 0.136996 -0.098616 -0.615904
    28 1.539099 -0.000002 0.000000 0.000000 0.000000 -0.346350
    29 1.196321 0.000008 0.000000 0.000000 0.000000 -0.575157
    30 3.883661 -0.050323 -0.431042 -0.085905 -0.026404 -0.587695
    31 1.719578 0.000004 0.000000 0.000000 -0.007974 -0.366436
    32 1.209185 0.000002 0.000000 0.000000 -0.004461 -0.216376
    33 3.859838 -0.148937 -1.331282 -0.354419 0.038567 -0.532001
    34 1.719423 0.000002 0.000000 0.000000 -0.006613 -0.362970
    35 1.099667 0.000002 0.000000 0.000000 -0.004211 -0.244312
    36 0.806021 -0.359837 -1.318334 1.203301 0.616014 -0.845207
    37 1.789782 0.000000 -0.000004 0.000000 0.000000 0.181370
    38 1.206999 0.000003 0.000002 0.000000 0.000000 0.294827
    39 -4.996094 -9.109375 -29.421875 1.570792 0.000003 -0.000003
    40 -6.167302 20.890022 17.196989 -0.009869 0.038830 0.026881
    41 -0.004455 -0.545139 -2.136547 0.000000 0.000000 0.000000
    42 0.009659 -6.406696 -21.608532 0.000000 0.000000 0.000000
  time 9
    0 -4.996094 -5.242188 -9.640625 -1.570781 -1.391896 -1.570809
    1 2.033349 1.000767 1.937660 1.596637 -1.286515 2.942961
    2 6.028141 0.000000 0.000000 -0.333294 -0.911518 -1.809268
    3 11.692554 0.000001 0.000002 0.000000 0.000000 -0.998339
    4 11.481674 0.000001 -0.000032 -0.431158 -0.029061 0.217424
    5 3.859709 -0.142404 -1.191975 -0.502776 -0.244875 -1.327706
    6 1.312555 -0.000002 0.000001 0.000000 0.000000 -0.275280
    7 0.729363 -0.000002 -0.000002 0.000000 0.000000 -0.093519
    8 3.942335 0.046767 -0.431443 -0.253491 -0.140129 -0.944416
    9 1.539097 0.000000 0.000000 0.000000 0.000000 -0.422801
    10 1.196326 -0.000002 -0.000001 0.000000 0.000000 -0.685721
    11 3.883696 -0.046765 0.431443 -0.048698 -0.149461 -0.571418
    12 1.719570 -0.000004 -0.000001 0.000000 0.000000 -0.789630
    13 1.209171 -0.000002 0.000000 0.000000 0.000000 -0.638622
    14 3.859865 -0.137947 1.332466 0.233295 -0.200810 -0.470677
    15 1.719429 0.000002 -0.000001 0.000000 0.000000 -0.851271
    16 1.099665 0.000000 0.000000 0.000000 0.000000 -0.722480
    17 0.806053 -0.348925 1.321258 -0.919606 -0.521611 -1.289995
    18 1.789780 -0.000002 0.000002 0.000000 0.000000 0.258466
    19 1.207006 0.000000 0.000000 0.000000 0.000000 0.084299
    20 2.033356 1.000772 -1.937610 -1.668474 1.286518 2.942953
    21 6.028144 0.000000 0.000000 0.917304 0.001542 -1.163826
    22 11.692554 0.000001 0.000003 0.000000 0.000000 -0.492918
    23 11.481697 0.000001 0.000002 -1.839856 0.008434 0.043618
    24 3.859678 -0.132570 1.193109 0.452686 -0.203570 -0.743635
    25 1.312557 -0.000002 0.000001 0.000000 0.000000 -0.429894
    26 0.729365 0.000002 -0.000002 0.000000 0.000000 -0.234753
    27 3.942305 0.050327 0.431044 0.136996 -0.098616 -0.615904
    28 1.539099 -0.000002 0.000000 0.000000 0.000000 -0.346350
    29 1.196321 0.000008 0.000000 0.000000 0.000000 -0.575157
    30 3.883661 -0.050323 -0.431042 -0.085905 -0.026404 -0.587695
    31 1.719578 0.000004 0.000000 0.000000 -0.007974 -0.366436
    32 1.209185 0.000002 0.000000 0.000000 -0.004461 -0.216376
    33 3.859838 -0.148937 -1.331282 -0.354419 0.038567 -0.532001
    34 1.719423 0.000002 0.000000 0.000000 -0.006613 -0.362970
    35 1.099667 0.000002 0.000000 0.000000 -0.004211 -0.244312
    36 0.806021 -0.359837 -1.318334 1.203301 0.616014 -0.845207
    37 1.789782 0.000000 -0.000004 0.000000 0.000000 0.181370
    38 1.206999 0.000003 0.000002 0.000000 0.000000 0.294827
    39 -4.996094 -9.109375 -29.421875 1.570792 0.000003 -0.000003
    40 -5.886044 21.694734 17.544656 -0.090902 0.033401 0.024209
    41 -0.004455 -0.545139 -2.136547 0.000000 0.000000 0.000000
    42 0.009659 -6.406696 -21.608532 0.000000 0.000000 0.000000
  time 10
    0 -4.996094 -5.242188 -9.640625 -1.570781 -1.391896 -1.570809
    1 2.033349 1.000767 1.937660 1.596637 -1.286515 2.942961
    2 6.028141 0.000000 0.000000 -0.348005 -0.939793 -1.843674
    3 11.692554 0.000001 0.000002 0.000000 0.000000 -0.967223
    4 11.481674 0.000001 -0.000032 -0.391609 0.009853 0.186490
    5 3.859709 -0.142404 -1.191975 -0.502776 -0.244875 -1.327706
    6 1.312555 -0.000002 0.000001 0.000000 0.000000 -0.275280
    7 0.729363 -0.000002 -0.000002 0.000000 0.000000 -0.093519
    8 3.942335 0.046767 -0.431443 -0.253491 -0.140129 -0.944416
    9 1.539097 0.000000 0.000000 0.000000 0.000000 -0.422801
    10 1.196326 -0.000002 -0.000001 0.000000 0.000000 -0.685721
    11 3.883696 -0.046765 0.431443 -0.048698 -0.149461 -0.571418
    12 1.719570 -0.000004 -0.000001 0.000000 0.000000 -0.789630
    13 1.209171 -0.000002 0.000000 0.000000 0.000000 -0.638622
    14 3.859865 -0.137947 1.332466 0.233295 -0.200810 -0.470677
    15 1.719429 0.000002 -0.000001 0.000000 0.000000 -0.851271
    16 1.099665 0.000000 0.000000 0.000000 0.000000 -0.722480
    17 0.806053 -0.348925 1.321258 -0.919606 -0.521611 -1.289995
    18 1.789780 -0.000002 0.000002 0.000000 0.000000 0.258466
    19 1.207006 0.000000 0.000000 0.000000 0.000000 0.084299
    20 2.033356 1.000772 -1.937610 -1.668474 1.286518 2.942953
    21 6.028144 0.000000 0.000000 0.917304 0.001542 -1.163826
    22 11.692554 0.000001 0.000003 0.000000 0.000000 -0.492918
    23 11.481697 0.000001 0.000002 -1.839856 0.008434 0.043618
    24 3.859678 -0.132570 1.193109 0.452686 -0.203570 -0.743635
    25 1.312557 -0.000002 0.000001 0.000000 0.000000 -0.429894
    26 0.729365 0.000002 -0.000002 0.000000 0.000000 -0.234753
    27 3.942305 0.050327 0.431044 0.136996 -0.098616 -0.615904
    28 1.539099 -0.000002 0.000000 0.000000 0.000000 -0.346350
    29 1.196321 0.000008 0.000000 0.000000 0.000000 -0.575157
    30 3.883661 -0.050323 -0.431042 -0.085905 -0.026404 -0.587695
    31 1.719578 0.000004 0.000000 0.000000 -0.007974 -0.366436
    32 1.209185 0.000002 0.000000 0.000000 -0.004461 -0.216376
    33 3.859838 -0.148937 -1.331282 -0.354419 0.038567 -0.532001
    34 1.719423 0.000002 0.000000 0.000000 -0.006613 -0.362970
    35 1.099667 0.000002 0.000000 0.000000 -0.004211 -0.244312
    36 0.806021 -0.359837 -1.318334 1.203301 0.616014 -0.845207
    37 1.789782 0.000000 -0.000004 0.000000 0.000000 0.181370
    38 1.206999 0.000003 0.000002 0.000000 0.000000 0.294827
    39 -4.996094 -9.109375 -29.421875 1.570792 0.000003 -0.000003
    40 -5.620411 22.417412 17.880604 -0.127655 0.028223 0.021393
    41 -0.004455 -0.545139 -2.136547 0.000000 0.000000 0.000000
    42 0.009659 -6.406696 -21.608532 0.000000 0.000000 0.000000
  time 11
    0 -4.996094 -5.242188 -9.640625 -1.570781 -1.391896 -1.570809
    1 2.033349 1.000767 1.937660 1.596637 -1.286515 2.942961
    2 6.028141 0.000000 0.000000 -0.359393 -0.964121 -1.871734
    3 11.692554 0.000001 0.000002 0.000000 0.000000 -0.954558
    4 11.481674 0.000001 -0.000032 -0.380103 0.048504 0.192401
    5 3.859709 -0.142404 -1.191975 -0.502776 -0.244875 -1.327706
    6 1.312555 -0.000002 0.000001 0.000000 0.000000 -0.275280
    7 0.729363 -0.000002 -0.000002 0.000000 0.000000 -0.093519
    8 3.942335 0.046767 -0.431443 -0.253491 -0.140129 -0.944416
    9 1.539097 0.000000 0.000000 0.000000 0.000000 -0.422801
    10 1.196326 -0.000002 -0.000001 0.000000 0.000000 -0.685721
    11 3.883696 -0.046765 0.431443 -0.048698 -0.149461 -0.571418
    12 1.719570 -0.000004 -0.000001 0.000000 0.000000 -0.789630
    13 1.209171 -0.000002 0.000000 0.000000 0.000000 -0.638622
    14 3.859865 -0.137947 1.332466 0.233295 -0.200810 -0.470677
    15 1.719429 0.000002 -0.000001 0.000000 0.000000 -0.851271
    16 1.099665 0.000000 0.000000 0.000000 0.000000 -0.722480
    17 0.806053 -0.348925 1.321258 -0.919606 -0.521611 -1.289995
    18 1.789780 -0.000002 0.000002 0.000000 0.000000 0.258466
    19 1.207006 0.000000 0.000000 0.000000 0.000000 0.084299
    20 2.033356 1.000772 -1.937610 -1.668474 1.286518 2.942953
    21 6.028144 0.000000 0.000000 0.917304 0.001542 -1.163826
    22 11.692554 0.000001 0.000003 0.000000 0.000000 -0.492918
    23 11.481697 0.000001 0.000002 -1.839856 0.008434 0.043618
    24 3.859678 -0.132570 1.193109 0.452686 -0.203570 -0.743635
    25 1.312557 -0.000002 0.000001 0.000000 0.000000 -0.429894
    26 0.729365 0.000002 -0.000002 0.000000 0.000000 -0.234753
    27 3.942305 0.050327 0.431044 0.136996 -0.098616 -0.615904
    28 1.539099 -0.000002 0.000000 0.000000 0.000000 -0.346350
    29 1.196321 0.000008 0.000000 0.000000 0.000000 -0.575157
    30 3.883661 -0.050323 -0.431042 -0.085905 -0.026404 -0.587695
    31 1.719578 0.000004 0.000000 0.000000 -0.007974 -0.366436
    32 1.209185 0.000002 0.000000 0.000000 -0.004461 -0.216376
    33 3.859838 -0.148937 -1.331282 -0.354419 0.038567 -0.532001
    34 1.719423 0.000002 0.000000 0.000000 -0.006613 -0.362970
    35 1.099667 0.000002 0.000000 0.000000 -0.004211 -0.244312
    36 0.806021 -0.359837 -1.318334 1.203301 0.616014 -0.845207
    37 1.789782 0.000000 -0.000004 0.000000 0.000000 0.181370
    38 1.206999 0.000003 0.000002 0.000000 0.000000 0.294827
    39 -4.996094 -9.109375 -29.421875 1.570792 0.000003 -0.000003
    40 -5.370403 23.030712 18.197020 -0.130254 0.023430 0.018516
    41 -0.004455 -0.545139 -2.136547 0.000000 0.000000 0.000000
    42 0.009659 -6.406696 -21.608532 0.000000 0.000000 0.000000
  time 12
    0 -4.996094 -5.242188 -9.640625 -1.570781 -1.391896 -1.570809
    1 2.033349 1.000767 1.937660 1.596637 -1.286515 2.942961
    2 6.028141 0.000000 0.000000 -0.369119 -0.983380 -1.892027
    3 11.692554 0.000001 0.000002 0.000000 0.000000 -0.953144
    4 11.481674 0.000001 -0.000032 -0.385137 0.083079 0.217976
    5 3.859709 -0.142404 -1.191975 -0.502776 -0.244875 -1.327706
    6 1.312555 -0.000002 0.000001 0.000000 0.000000 -0.275280
    7 0.729363 -0.000002 -0.000002 0.000000 0.000000 -0.093519
    8 3.942335 0.046767 -0.431443 -0.253491 -0.140129 -0.944416
    9 1.539097 0.000000 0.000000 0.000000 0.000000 -0.422801
    10 1.196326 -0.000002 -0.000001 0.000000 0.000000 -0.685721
    11 3.883696 -0.046765 0.431443 -0.048698 -0.149461 -0.571418
    12 1.719570 -0.000004 -0.000001 0.000000 0.000000 -0.789630
    13 1.209171 -0.000002 0.000000 0.000000 0.000000 -0.638622
    14 3.859865 -0.137947 1.332466 0.233295 -0.200810 -0.470677
    15 1.719429 0.000002 -0.000001 0.000000 0.000000 -0.851271
    16 1.099665 0.000000 0.000000 0.000000 0.000000 -0.722480
    17 0.806053 -0.348925 1.321258 -0.919606 -0.521611 -1.289995
    18 1.789780 -0.000002 0.000002 0.000000 0.000000 0.258466
    19 1.207006 0.000000 0.000000 0.000000 0.000000 0.084299
    20 2.033356 1.000772 -1.937610 -1.668474 1.286518 2.942953
    21 6.028144 0.000000 0.000000 0.917304 0.001542 -1.163826
    22 11.692554 0.000001 0.000003 0.000000 0.000000 -0.492918
    23 11.481697 0.000001 0.000002 -1.839856 0.008434 0.043618
    24 3.859678 -0.132570 1.193109 0.452686 -0.203570 -0.743635
    25 1.312557 -0.000002 0.000001 0.000000 0.000000 -0.429894
    26 0.729365 0.000002 -0.000002 0.000000 0.000000 -0.234753
    27 3.942305 0.050327 0.431044 0.136996 -0.098616 -0.615904
    28 1.539099 -0.000002 0.000000 0.000000 0.000000 -0.346350
    29 1.196321 0.000008 0.000000 0.000000 0.000000 -0.575157
    30 3.883661 -0.050323 -0.431042 -0.085905 -0.026404 -0.587695
    31 1.719578 0.000004 0.000000 0.000000 -0.007974 -0.366436
    32 1.209185 0.000002 0.000000 0.000000 -0.004461 -0.216376
    33 3.859838 -0.148937 -1.331282 -0.354419 0.038567 -0.532001
    34 1.719423 0.000002 0.000000 0.000000 -0.006613 -0.362970
    35 1.099667 0.000002 0.000000 0.000000 -0.004211 -0.244312
    36 0.806021 -0.359837 -1.318334 1.203301 0.616014 -0.845207
    37 1.789782 0.000000 -0.000004 0.000000 0.000000 0.181370
    38 1.206999 0.000003 0.000002 0.000000 0.000000 0.294827
    39 -4.996094 -9.109375 -29.421875 1.570792 0.000003 -0.000003
    40 -5.147740 23.491664 18.486091 -0.112065 0.019163 0.015724
    41 -0.004455 -0.545139 -2.136547 0.000000 0.000000 0.000000
    42 0.009659 -6.406696 -21.608532 0.000000 0.000000 0.000000
  time 13
    0 -4.996094 -5.242188 -9.640625 -1.570781 -1.391896 -1.570809
    1 2.033349 1.000767 1.937660 1.596637 -1.286515 2.942961
    2 6.028141 0.000000 0.000000 -0.378894 -0.996854 -1.903009
    3 11.692554 0.000001 0.000002 0.000000 0.000000 -0.959509
    4 11.481674 0.000001 -0.000032 -0.400397 0.112178 0.253600
    5 3.859709 -0.142404 -1.191975 -0.502776 -0.244875 -1.327706
    6 1.312555 -0.000002 0.000001 0.000000 0.000000 -0.275280
    7 0.729363 -0.000002 -0.000002 0.000000 0.000000 -0.093519
    8 3.942335 0.046767 -0.431443 -0.253491 -0.140129 -0.944416
    9 1.539097 0.000000 0.000000 0.000000 0.000000 -0.422801
    10 1.196326 -0.000002 -0.000001 0.000000 0.000000 -0.685721
    11 3.883696 -0.046765 0.431443 -0.048698 -0.149461 -0.571418
    12 1.719570 -0.000004 -0.000001 0.000000 0.000000 -0.789630
    13 1.209171 -0.000002 0.000000 0.000000 0.000000 -0.638622
    14 3.859865 -0.137947 1.332466 0.233295 -0.200810 -0.470677
    15 1.719429 0.000002 -0.000001 0.000000 0.000000 -0.851271
    16 1.099665 0.000000 0.000000 0.000000 0.000000 -0.722480
    17 0.806053 -0.348925 1.321258 -0.919606 -0.521611 -1.289995
    18 1.789780 -0.000002 0.000002 0.000000 0.000000 0.258466
    19 1.207006 0.000000 0.000000 0.000000 0.000000 0.084299
    20 2.033356 1.000772 -1.937610 -1.668474 1.286518 2.942953
    21 6.028144 0.000000 0.000000 0.917304 0.001542 -1.163826
    22 11.692554 0.000001 0.000003 0.000000 0.000000 -0.492918
    23 11.481697 0.000001 0.000002 -1.839856 0.008434 0.043618
    24 3.859678 -0.132570 1.193109 0.452686 -0.203570 -0.743635
    25 1.312557 -0.000002 0.000001 0.000000 0.000000 -0.429894
    26 0.729365 0.000002 -0.000002 0.000000 0.000000 -0.234753
    27 3.942305 0.050327 0.431044 0.136996 -0.098616 -0.615904
    28 1.539099 -0.000002 0.000000 0.000000 0.000000 -0.346350
    29 1.196321 0.000008 0.000000 0.000000 0.000000 -0.575157
    30 3.883661 -0.050323 -0.431042 -0.085905 -0.026404 -0.587695
    31 1.719578 0.000004 0.000000 0.000000 -0.007974 -0.366436
    32 1.209185 0.000002 0.000000 0.000000 -0.004461 -0.216376
    33 3.859838 -0.148937 -1.331282 -0.354419 0.038567 -0.532001
    34 1.719423 0.000002 0.000000 0.000000 -0.006613 -0.362970
    35 1.099667 0.000002 0.000000 0.000000 -0.004211 -0.244312
    36 0.806021 -0.359837 -1.318334 1.203301 0.616014 -0.845207
    37 1.789782 0.000000 -0.000004 0.000000 0.000000 0.181370
    38 1.206999 0.000003 0.000002 0.000000 0.000000 0.294827
    39 -4.996094 -9.109375 -29.421875 1.570792 0.000003 -0.000003
    40 -4.960234 23.780735 18.732192 -0.080853 0.015520 0.013171
    41 -0.004455 -0.545139 -2.136547 0.000000 0.000000 0.000000
    42 0.009659 -6.406696 -21.608532 0.000000 0.000000 0.000000
  time 14
    0 -4.996094 -5.242188 -9.640625 -1.570781 -1.391896 -1.570809
    1 2.033349 1.000767 1.937660 1.596637 -1.286515 2.942961
    2 6.028141 0.000000 0.000000 -0.389305 -1.006415 -1.907602
    3 11.692554 0.000001 0.000002 0.000000 0.000000 -0.966387
    4 11.481674 0.000001 -0.000032 -0.418774 0.137118 0.288317
    5 3.859709 -0.142404 -1.191975 -0.502776 -0.244875 -1.327706
    6 1.312555 -0.000002 0.000001 0.000000 0.000000 -0.275280
    7 0.729363 -0.000002 -0.000002 0.000000 0.000000 -0.093519
    8 3.942335 0.046767 -0.431443 -0.253491 -0.140129 -0.944416
    9 1.539097 0.000000 0.000000 0.000000 0.000000 -0.422801
    10 1.196326 -0.000002 -0.000001 0.000000 0.000000 -0.685721
    11 3.883696 -0.046765 0.431443 -0.048698 -0.149461 -0.571418
    12 1.719570 -0.000004 -0.000001 0.000000 0.000000 -0.789630
    13 1.209171 -0.000002 0.000000 0.000000 0.000000 -0.638622
    14 3.859865 -0.137947 1.332466 0.233295 -0.200810 -0.470677
    15 1.719429 0.000002 -0.000001 0.000000 0.000000 -0.851271
    16 1.099665 0.000000 0.000000 0.000000 0.000000 -0.722480
    17 0.806053 -0.348925 1.321258 -0.919606 -0.521611 -1.289995
    18 1.789780 -0.000002 0.000002 0.000000 0.000000 0.258466
    19 1.207006 0.000000 0.000000 0.000000 0.000000 0.084299
    20 2.033356 1.000772 -1.937610 -1.668474 1.286518 2.942953
    21 6.028144 0.000000 0.000000 0.917304 0.001542 -1.163826
    22 11.692554 0.000001 0.000003 0.000000 0.000000 -0.492918
    23 11.481697 0.000001 0.000002 -1.839856 0.008434 0.043618
    24 3.859678 -0.132570 1.193109 0.452686 -0.203570 -0.743635
    25 1.312557 -0.000002 0.000001 0.000000 0.000000 -0.429894
    26 0.729365 0.000002 -0.000002 0.000000 0.000000 -0.234753
    27 3.942305 0.050327 0.431044 0.136996 -0.098616 -0.615904
    28 1.539099 -0.000002 0.000000 0.000000 0.000000 -0.346350
    29 1.196321 0.000008 0.000000 0.000000 0.000000 -0.575157
    30 3.883661 -0.050323 -0.431042 -0.085905 -0.026404 -0.587695
    31 1.719578 0.000004 0.000000 0.000000 -0.007974 -0.366436
    32 1.209185 0.000002 0.000000 0.000000 -0.004461 -0.216376
    33 3.859838 -0.148937 -1.331282 -0.354419 0.038567 -0.532001
    34 1.719423 0.000002 0.000000 0.000000 -0.006613 -0.362970
    35 1.099667 0.000002 0.000000 0.000000 -0.004211 -0.244312
    36 0.806021 -0.359837 -1.318334 1.203301 0.616014 -0.845207
    37 1.789782 0.000000 -0.000004 0.000000 0.000000 0.181370
    38 1.206999 0.000003 0.000002 0.000000 0.000000 0.294827
    39 -4.996094 -9.109375 -29.421875 1.570792 0.000003 -0.000003
    40 -4.796167 23.929177 18.962668 -0.045496 0.012500 0.010906
    41 -0.004455 -0.545139 -2.136547 0.000000 0.000000 0.000000
    42 0.009659 -6.406696 -21.608532 0.000000 0.000000 0.000000
  time 15
    0 -4.996094 -5.242188 -9.640625 -1.570781 -1.391896 -1.570809
    1 2.033349 1.000767 1.937660 1.596637 -1.286515 2.942961
    2 6.028141 0.000000 0.000000 -0.400693 -1.013833 -1.908270
    3 11.692554 0.000001 0.000002 0.000000 0.000000 -0.967545
    4 11.481674 0.000001 -0.000032 -0.434914 0.158798 0.312552
    5 3.859709 -0.142404 -1.191975 -0.502776 -0.244875 -1.327706
    6 1.312555 -0.000002 0.000001 0.000000 0.000000 -0.275280
    7 0.729363 -0.000002 -0.000002 0.000000 0.000000 -0.093519
    8 3.942335 0.046767 -0.431443 -0.253491 -0.140129 -0.944416
    9 1.539097 0.000000 0.000000 0.000000 0.000000 -0.422801
    10 1.196326 -0.000002 -0.000001 0.000000 0.000000 -0.685721
    11 3.883696 -0.046765 0.431443 -0.048698 -0.149461 -0.571418
    12 1.719570 -0.000004 -0.000001 0.000000 0.000000 -0.789630
    13 1.209171 -0.000002 0.000000 0.000000 0.000000 -0.638622
    14 3.859865 -0.137947 1.332466 0.233295 -0.200810 -0.470677
    15 1.719429 0.000002 -0.000001 0.000000 0.000000 -0.851271
    16 1.099665 0.000000 0.000000 0.000000 0.000000 -0.722480
    17 0.806053 -0.348925 1.321258 -0.919606 -0.521611 -1.289995
    18 1.789780 -0.000002 0.000002 0.000000 0.000000 0.258466
    19 1.207006 0.000000 0.000000 0.000000 0.000000 0.084299
    20 2.033356 1.000772 -1.937610 -1.668474 1.286518 2.942953
    21 6.028144 0.000000 0.000000 0.917304 0.001542 -1.163826
    22 11.692554 0.000001 0.000003 0.000000 0.000000 -0.492918
    23 11.481697 0.000001 0.000002 -1.839856 0.008434 0.043618
    24 3.859678 -0.132570 1.193109 0.452686 -0.203570 -0.743635
    25 1.312557 -0.000002 0.000001 0.000000 0.000000 -0.429894
    26 0.729365 0.000002 -0.000002 0.000000 0.000000 -0.234753
    27 3.942305 0.050327 0.431044 0.136996 -0.098616 -0.615904
    28 1.539099 -0.000002 0.000000 0.000000 0.000000 -0.346350
    29 1.196321 0.000008 0.000000 0.000000 0.000000 -0.575157
    30 3.883661 -0.050323 -0.431042 -0.085905 -0.026404 -0.587695
    31 1.719578 0.000004 0.000000 0.000000 -0.007974 -0.366436
    32 1.209185 0.000002 0.000000 0.000000 -0.004461 -0.216376
    33 3.859838 -0.148937 -1.331282 -0.354419 0.038567 -0.532001
    34 1.719423 0.000002 0.000000 0.000000 -0.006613 -0.362970
    35 1.099667 0.000002 0.000000 0.000000 -0.004211 -0.244312
    36 0.806021 -0.359837 -1.318334 1.203301 0.616014 -0.845207
    37 1.789782 0.000000 -0.000004 0.000000 0.000000 0.181370
    38 1.206999 0.000003 0.000002 0.000000 0.000000 0.294827
    39 -4.996094 -9.109375 -29.421875 1.570792 0.000003 -0.000003
    40 -4.639912 23.964334 19.197050 -0.013594 0.009947 0.008881
    41 -0.004455 -0.545139 -2.136547 0.000000 0.000000 0.000000
    42 0.009659 -6.406696 -21.608532 0.000000 0.000000 0.000000
  time 16
    0 -4.996094 -5.242188 -9.640625 -1.570781 -1.391896 -1.570809
    1 2.033349 1.000767 1.937660 1.596637 -1.286515 2.942961
    2 6.028141 0.000000 0.000000 -0.412325 -1.019481 -1.906265
    3 11.692554 0.000001 0.000002 0.000000 0.000000 -0.960923
    4 11.481674 0.000001 -0.000032 -0.445780 0.176151 0.321261
    5 3.859709 -0.142404 -1.191975 -0.502776 -0.244875 -1.327706
    6 1.312555 -0.000002 0.000001 0.000000 0.000000 -0.275280
    7 0.729363 -0.000002 -0.000002 0.000000 0.000000 -0.093519
    8 3.942335 0.046767 -0.431443 -0.253491 -0.140129 -0.944416
    9 1.539097 0.000000 0.000000 0.000000 0.000000 -0.422801
    10 1.196326 -0.000002 -0.000001 0.000000 0.000000 -0.685721
    11 3.883696 -0.046765 0.431443 -0.048698 -0.149461 -0.571418
    12 1.719570 -0.000004 -0.000001 0.000000 0.000000 -0.789630
    13 1.209171 -0.000002 0.000000 0.000000 0.000000 -0.638622
    14 3.859865 -0.137947 1.332466 0.233295 -0.200810 -0.470677
    15 1.719429 0.000002 -0.000001 0.000000 0.000000 -0.851271
    16 1.099665 0.000000 0.000000 0.000000 0.000000 -0.722480
    17 0.806053 -0.348925 1.321258 -0.919606 -0.521611 -1.289995
    18 1.789780 -0.000002 0.000002 0.000000 0.000000 0.258466
    19 1.207006 0.000000 0.000000 0.000000 0.000000 0.084299
    20 2.033356 1.000772 -1.937610 -1.668474 1.286518 2.942953
    21 6.028144 0.000000 0.000000 0.917304 0.001542 -1.163826
    22 11.692554 0.000001 0.000003 0.000000 0.000000 -0.492918
    23 11.481697 0.000001 0.000002 -1.839856 0.008434 0.043618
    24 3.859678 -0.132570 1.193109 0.452686 -0.203570 -0.743635
    25 1.312557 -0.000002 0.000001 0.000000 0.000000 -0.429894
    26 0.729365 0.000002 -0.000002 0.000000 0.000000 -0.234753
    27 3.942305 0.050327 0.431044 0.136996 -0.098616 -0.615904
    28 1.539099 -0.000002 0.000000 0.000000 0.000000 -0.346350
    29 1.196321 0.000008 0.000000 0.000000 0.000000 -0.575157
    30 3.883661 -0.050323 -0.431042 -0.085905 -0.026404 -0.587695
    31 1.719578 0.000004 0.000000 0.000000 -0.007974 -0.366436
    32 1.209185 0.000002 0.000000 0.000000 -0.004461 -0.216376
    33 3.859838 -0.148937 -1.331282 -0.354419 0.038567 -0.532001
    34 1.719423 0.000002 0.000000 0.000000 -0.006613 -0.362970
    35 1.099667 0.000002 0.000000 0.000000 -0.004211 -0.244312
    36 0.806021 -0.359837 -1.318334 1.203301 0.616014 -0.845207
    37 1.789782 0.000000 -0.000004 0.000000 0.000000 0.181370
    38 1.206999 0.000003 0.000002 0.000000 0.000000 0.294827
    39 -4.996094 -9.109375 -29.421875 1.570792 0.000003 -0.000003
    40 -4.491470 23.905739 19.427526 0.009237 0.007742 0.007059
    41 -0.004455 -0.545139 -2.136547 0.000000 0.000000 0.000000
    42 0.009659 -6.406696 -21.608532 0.000000 0.000000 0.000000
  time 17
    0 -4.996094 -5.242188 -9.640625 -1.570781 -1.391896 -1.570809
    1 2.033349 1.000767 1.937660 1.596637 -1.286515 2.942961
    2 6.028141 0.000000 0.000000 -0.423175 -1.023700 -1.903050
    3 11.692554 0.000001 0.000002 0.000000 0.000000 -0.945879
    4 11.481674 0.000001 -0.000032 -0.449855 0.188496 0.312513
    5 3.859709 -0.142404 -1.191975 -0.502776 -0.244875 -1.327706
    6 1.312555 -0.000002 0.000001 0.000000 0.000000 -0.275280
    7 0.729363 -0.000002 -0.000002 0.000000 0.000000 -0.093519
    8 3.942335 0.046767 -0.431443 -0.253491 -0.140129 -0.944416
    9 1.539097 0.000000 0.000000 0.000000 0.000000 -0.422801
    10 1.196326 -0.000002 -0.000001 0.000000 0.000000 -0.685721
    11 3.883696 -0.046765 0.431443 -0.048698 -0.149461 -0.571418
    12 1.719570 -0.000004 -0.000001 0.000000 0.000000 -0.789630
    13 1.209171 -0.000002 0.000000 0.000000 0.000000 -0.638622
    14 3.859865 -0.137947 1.332466 0.233295 -0.200810 -0.470677
    15 1.719429 0.000002 -0.000001 0.000000 0.000000 -0.851271
    16 1.099665 0.000000 0.000000 0.000000 0.000000 -0.722480
    17 0.806053 -0.348925 1.321258 -0.919606 -0.521611 -1.289995
    18 1.789780 -0.000002 0.000002 0.000000 0.000000 0.258466
    19 1.207006 0.000000 0.000000 0.000000 0.000000 0.084299
    20 2.033356 1.000772 -1.937610 -1.668474 1.286518 2.942953
    21 6.028144 0.000000 0.000000 0.917304 0.001542 -1.163826
    22 11.692554 0.000001 0.000003 0.000000 0.000000 -0.492918
    23 11.481697 0.000001 0.000002 -1.839856 0.008434 0.043618
    24 3.859678 -0.132570 1.193109 0.452686 -0.203570 -0.743635
    25 1.312557 -0.000002 0.000001 0.000000 0.000000 -0.429894
    26 0.729365 0.000002 -0.000002 0.000000 0.000000 -0.234753
    27 3.942305 0.050327 0.431044 0.136996 -0.098616 -0.615904
    28 1.539099 -0.000002 0.000000 0.000000 0.000000 -0.346350
    29 1.196321 0.000008 0.000000 0.000000 0.000000 -0.575157
    30 3.883661 -0.050323 -0.431042 -0.085905 -0.026404 -0.587695
    31 1.719578 0.000004 0.000000 0.000000 -0.007974 -0.366436
    32 1.209185 0.000002 0.000000 0.000000 -0.004461 -0.216376
    33 3.859838 -0.148937 -1.331282 -0.354419 0.038567 -0.532001
    34 1.719423 0.000002 0.000000 0.000000 -0.006613 -0.362970
    35 1.099667 0.000002 0.000000 0.000000 -0.004211 -0.244312
    36 0.806021 -0.359837 -1.318334 1.203301 0.616014 -0.845207
    37 1.789782 0.000000 -0.000004 0.000000 0.000000 0.181370
    38 1.206999 0.000003 0.000002 0.000000 0.000000 0.294827
    39 -4.996094 -9.109375 -29.421875 1.570792 0.000003 -0.000003
    40 -4.358654 23.784641 19.642376 0.020006 0.005824 0.005405
    41 -0.004455 -0.545139 -2.136547 0.000000 0.000000 0.000000
    42 0.009659 -6.406696 -21.608532 0.000000 0.000000 0.000000
  time 18
    0 -4.996094 -5.242188 -9.640625 -1.570781 -1.391896 -1.570809
    1 2.033349 1.000767 1.937660 1.596637 -1.286515 2.942961
    2 6.028141 0.000000 0.000000 -0.432266 -1.026899 -1.899793
    3 11.692554 0.000001 0.000002 0.000000 0.000000 -0.924857
    4 11.481674 0.000001 -0.000032 -0.448976 0.196441 0.290760
    5 3.859709 -0.142404 -1.191975 -0.502776 -0.244875 -1.327706
    6 1.312555 -0.000002 0.000001 0.000000 0.000000 -0.275280
    7 0.729363 -0.000002 -0.000002 0.000000 0.000000 -0.093519
    8 3.942335 0.046767 -0.431443 -0.253491 -0.140129 -0.944416
    9 1.539097 0.000000 0.000000 0.000000 0.000000 -0.422801
    10 1.196326 -0.000002 -0.000001 0.000000 0.000000 -0.685721
    11 3.883696 -0.046765 0.431443 -0.048698 -0.149461 -0.571418
    12 1.719570 -0.000004 -0.000001 0.000000 0.000000 -0.789630
    13 1.209171 -0.000002 0.000000 0.000000 0.000000 -0.638622
    14 3.859865 -0.137947 1.332466 0.233295 -0.200810 -0.470677
    15 1.719429 0.000002 -0.000001 0.000000 0.000000 -0.851271
    16 1.099665 0.000000 0.000000 0.000000 0.000000 -0.722480
    17 0.806053 -0.348925 1.321258 -0.919606 -0.521611 -1.289995
    18 1.789780 -0.000002 0.000002 0.000000 0.000000 0.258466
    19 1.207006 0.000000 0.000000 0.000000 0.000000 0.084299
    20 2.033356 1.000772 -1.937610 -1.668474 1.286518 2.942953
    21 6.028144 0.000000 0.000000 0.917304 0.001542 -1.163826
    22 11.692554 0.000001 0.000003 0.000000 0.000000 -0.492918
    23 11.481697 0.000001 0.000002 -1.839856 0.008434 0.043618
    24 3.859678 -0.132570 1.193109 0.452686 -0.203570 -0.743635
    25 1.312557 -0.000002 0.000001 0.000000 0.000000 -0.429894
    26 0.729365 0.000002 -0.000002 0.000000 0.000000 -0.234753
    27 3.942305 0.050327 0.431044 0.136996 -0.098616 -0.615904
    28 1.539099 -0.000002 0.000000 0.000000 0.000000 -0.346350
    29 1.196321 0.000008 0.000000 0.000000 0.000000 -0.575157
    30 3.883661 -0.050323 -0.431042 -0.085905 -0.026404 -0.587695
    31 1.719578 0.000004 0.000000 0.000000 -0.007974 -0.366436
    32 1.209185 0.000002 0.000000 0.000000 -0.004461 -0.216376
    33 3.859838 -0.148937 -1.331282 -0.354419 0.038567 -0.532001
    34 1.719423 0.000002 0.000000 0.000000 -0.006613 -0.362970
    35 1.099667 0.000002 0.000000 0.000000 -0.004211 -0.244312
    36 0.806021 -0.359837 -1.318334 1.203301 0.616014 -0.845207
    37 1.789782 0.000000 -0.000004 0.000000 0.000000 0.181370
    38 1.206999 0.000003 0.000002 0.000000 0.000000 0.294827
    39 -4.996094 -9.109375 -29.421875 1.570792 0.000003 -0.000003
    40 -4.245369 23.628387 19.841601 0.020982 0.004074 0.003859
    41 -0.004455 -0.545139 -2.136547 0.000000 0.000000 0.000000
    42 0.009659 -6.406696 -21.608532 0.000000 0.000000 0.000000
  time 19
    0 -4.996094 -5.242188 -9.640625 -1.570781 -1.391896 -1.570809
    1 2.033349 1.000767 1.937660 1.596637 -1.286515 2.942961
    2 6.028141 0.000000 0.000000 -0.438962 -1.029246 -1.897413
    3 11.692554 0.000001 0.000002 0.000000 0.000000 -0.901456
    4 11.481674 0.000001 -0.000032 -0.445460 0.201187 0.262978
    5 3.859709 -0.142404 -1.191975 -0.502776 -0.244875 -1.327706
    6 1.312555 -0.000002 0.000001 0.000000 0.000000 -0.275280
    7 0.729363 -0.000002 -0.000002 0.000000 0.000000 -0.093519
    8 3.942335 0.046767 -0.431443 -0.253491 -0.140129 -0.944416
    9 1.539097 0.000000 0.000000 0.000000 0.000000 -0.422801
    10 1.196326 -0.000002 -0.000001 0.000000 0.000000 -0.685721
    11 3.883696 -0.046765 0.431443 -0.048698 -0.149461 -0.571418
    12 1.719570 -0.000004 -0.000001 0.000000 0.000000 -0.789630
    13 1.209171 -0.000002 0.000000 0.000000 0.000000 -0.638622
    14 3.859865 -0.137947 1.332466 0.233295 -0.200810 -0.470677
    15 1.719429 0.000002 -0.000001 0.000000 0.000000 -0.851271
    16 1.099665 0.000000 0.000000 0.000000 0.000000 -0.722480
    17 0.806053 -0.348925 1.321258 -0.919606 -0.521611 -1.289995
    18 1.789780 -0.000002 0.000002 0.000000 0.000000 0.258466
    19 1.207006 0.000000 0.000000 0.000000 0.000000 0.084299
    20 2.033356 1.000772 -1.937610 -1.668474 1.286518 2.942953
    21 6.028144 0.000000 0.000000 0.917304 0.001542 -1.163826
    22 11.692554 0.000001 0.000003 0.000000 0.000000 -0.492918
    23 11.481697 0.000001 0.000002 -1.839856 0.008434 0.043618
    24 3.859678 -0.132570 1.193109 0.452686 -0.203570 -0.743635
    25 1.312557 -0.000002 0.000001 0.000000 0.000000 -0.429894
    26 0.729365 0.000002 -0.000002 0.000000 0.000000 -0.234753
    27 3.942305 0.050327 0.431044 0.136996 -0.098616 -0.615904
    28 1.539099 -0.000002 0.000000 0.000000 0.000000 -0.346350
    29 1.196321 0.000008 0.000000 0.000000 0.000000 -0.575157
    30 3.883661 -0.050323 -0.431042 -0.085905 -0.026404 -0.587695
    31 1.719578 0.000004 0.000000 0.000000 -0.007974 -0.366436
    32 1.209185 0.000002 0.000000 0.000000 -0.004461 -0.216376
    33 3.859838 -0.148937 -1.331282 -0.354419 0.038567 -0.532001
    34 1.719423 0.000002 0.000000 0.000000 -0.006613 -0.362970
    35 1.099667 0.000002 0.000000 0.000000 -0.004211 -0.244312
    36 0.806021 -0.359837 -1.318334 1.203301 0.616014 -0.845207
    37 1.789782 0.000000 -0.000004 0.000000 0.000000 0.181370
    38 1.206999 0.000003 0.000002 0.000000 0.000000 0.294827
    39 -4.996094 -9.109375 -29.421875 1.570792 0.000003 -0.000003
    40 -4.147710 23.460413 20.009575 0.016371 0.002492 0.002397
    41 -0.004455 -0.545139 -2.136547 0.000000 0.000000 0.000000
    42 0.009659 -6.406696 -21.608532 0.000000 0.000000 0.000000
  time 20
    0 -4.996094 -5.242188 -9.640625 -1.570781 -1.391896 -1.570809
    1 2.033349 1.000767 1.937660 1.596637 -1.286515 2.942961
    2 6.028141 0.000000 0.000000 -0.443067 -1.030982 -1.896369
    3 11.692554 0.000001 0.000002 0.000000 0.000000 -0.879341
    4 11.481674 0.000001 -0.000032 -0.441146 0.203584 0.235276
    5 3.859709 -0.142404 -1.191975 -0.502776 -0.244875 -1.327706
    6 1.312555 -0.000002 0.000001 0.000000 0.000000 -0.275280
    7 0.729363 -0.000002 -0.000002 0.000000 0.000000 -0.093519
    8 3.942335 0.046767 -0.431443 -0.253491 -0.140129 -0.944416
    9 1.539097 0.000000 0.000000 0.000000 0.000000 -0.422801
    10 1.196326 -0.000002 -0.000001 0.000000 0.000000 -0.685721
    11 3.883696 -0.046765 0.431443 -0.048698 -0.149461 -0.571418
    12 1.719570 -0.000004 -0.000001 0.000000 0.000000 -0.789630
    13 1.209171 -0.000002 0.000000 0.000000 0.000000 -0.638622
    14 3.859865 -0.137947 1.332466 0.233295 -0.200810 -0.470677
    15 1.719429 0.000002 -0.000001 0.000000 0.000000 -0.851271
    16 1.099665 0.000000 0.000000 0.000000 0.000000 -0.722480
    17 0.806053 -0.348925 1.321258 -0.919606 -0.521611 -1.289995
    18 1.789780 -0.000002 0.000002 0.000000 0.000000 0.258466
    19 1.207006 0.000000 0.000000 0.000000 0.000000 0.084299
    20 2.033356 1.000772 -1.937610 -1.668474 1.286518 2.942953
    21 6.028144 0.000000 0.000000 0.917304 0.001542 -1.163826
    22 11.692554 0.000001 0.000003 0.000000 0.000000 -0.492918
    23 11.481697 0.000001 0.000002 -1.839856 0.008434 0.043618
    24 3.859678 -0.132570 1.193109 0.452686 -0.203570 -0.743635
    25 1.312557 -0.000002 0.000001 0.000000 0.000000 -0.429894
    26 0.729365 0.000002 -0.000002 0.000000 0.000000 -0.234753
    27 3.942305 0.050327 0.431044 0.136996 -0.098616 -0.615904
    28 1.539099 -0.000002 0.000000 0.000000 0.000000 -0.346350
    29 1.196321 0.000008 0.000000 0.000000 0.000000 -0.575157
    30 3.883661 -0.050323 -0.431042 -0.085905 -0.026404 -0.587695
    31 1.719578 0.000004 0.000000 0.000000 -0.007974 -0.366436
    32 1.209185 0.000002 0.000000 0.000000 -0.004461 -0.216376
    33 3.859838 -0.148937 -1.331282 -0.354419 0.038567 -0.532001
    34 1.719423 0.000002 0.000000 0.000000 -0.006613 -0.362970
    35 1.099667 0.000002 0.000000 0.000000 -0.004211 -0.244312
    36 0.806021 -0.359837 -1.318334 1.203301 0.616014 -0.845207
    37 1.789782 0.000000 -0.000004 0.000000 0.000000 0.181370
    38 1.206999 0.000003 0.000002 0.000000 0.000000 0.294827
    39 -4.996094 -9.109375 -29.421875 1.570792 0.000003 -0.000003
    40 -4.073489 23.308064 20.138485 0.009297 0.001198 0.001163
    41 -0.004455 -0.545139 -2.136547 0.000000 0.000000 0.000000
    42 0.009659 -6.406696 -21.608532 0.000000 0.000000 0.000000
  time 21
    0 -4.996094 -5.242188 -9.640625 -1.570781 -1.391896 -1.570809
    1 2.033349 1.000767 1.937660 1.596637 -1.286515 2.942961
    2 6.028141 0.000000 0.000000 -0.444925 -1.032104 -1.896328
    3 11.692554 0.000001 0.000002 0.000000 0.000000 -0.862626
    4 11.481674 0.000001 -0.000032 -0.437470 0.204447 0.213917
    5 3.859709 -0.142404 -1.191975 -0.502776 -0.244875 -1.327706
    6 1.312555 -0.000002 0.000001 0.000000 0.000000 -0.275280
    7 0.729363 -0.000002 -0.000002 0.000000 0.000000 -0.093519
    8 3.942335 0.046767 -0.431443 -0.253491 -0.140129 -0.944416
    9 1.539097 0.000000 0.000000 0.000000 0.000000 -0.422801
    10 1.196326 -0.000002 -0.000001 0.000000 0.000000 -0.685721
    11 3.883696 -0.046765 0.431443 -0.048698 -0.149461 -0.571418
    12 1.719570 -0.000004 -0.000001 0.000000 0.000000 -0.789630
    13 1.209171 -0.000002 0.000000 0.000000 0.000000 -0.638622
    14 3.859865 -0.137947 1.332466 0.233295 -0.200810 -0.470677
    15 1.719429 0.000002 -0.000001 0.000000 0.000000 -0.851271
    16 1.099665 0.000000 0.000000 0.000000 0.000000 -0.722480
    17 0.806053 -0.348925 1.321258 -0.919606 -0.521611 -1.289995
    18 1.789780 -0.000002 0.000002 0.000000 0.000000 0.258466
    19 1.207006 0.000000 0.000000 0.000000 0.000000 0.084299
    20 2.033356 1.000772 -1.937610 -1.668474 1.286518 2.942953
    21 6.028144 0.000000 0.000000 0.917304 0.001542 -1.163826
    22 11.692554 0.000001 0.000003 0.000000 0.000000 -0.492918
    23 11.481697 0.000001 0.000002 -1.839856 0.008434 0.043618
    24 3.859678 -0.132570 1.193109 0.452686 -0.203570 -0.743635
    25 1.312557 -0.000002 0.000001 0.000000 0.000000 -0.429894
    26 0.729365 0.000002 -0.000002 0.000000 0.000000 -0.234753
    27 3.942305 0.050327 0.431044 0.136996 -0.098616 -0.615904
    28 1.539099 -0.000002 0.000000 0.000000 0.000000 -0.346350
    29 1.196321 0.000008 0.000000 0.000000 0.000000 -0.575157
    30 3.883661 -0.050323 -0.431042 -0.085905 -0.026404 -0.587695
    31 1.719578 0.000004 0.000000 0.000000 -0.007974 -0.366436
    32 1.209185 0.000002 0.000000 0.000000 -0.004461 -0.216376
    33 3.859838 -0.148937 -1.331282 -0.354419 0.038567 -0.532001
    34 1.719423 0.000002 0.000000 0.000000 -0.006613 -0.362970
    35 1.099667 0.000002 0.000000 0.000000 -0.004211 -0.244312
    36 0.806021 -0.359837 -1.318334 1.203301 0.616014 -0.845207
    37 1.789782 0.000000 -0.000004 0.000000 0.000000 0.181370
    38 1.206999 0.000003 0.000002 0.000000 0.000000 0.294827
    39 -4.996094 -9.109375 -29.421875 1.570792 0.000003 -0.000003
    40 -4.030519 23.194780 20.224425 0.002823 0.000311 0.000312
    41 -0.004455 -0.545139 -2.136547 0.000000 0.000000 0.000000
    42 0.009659 -6.406696 -21.608532 0.000000 0.000000 0.000000
  time 22
    0 -4.996094 -5.242188 -9.640625 -1.570781 -1.391896 -1.570809
    1 2.033349 1.000767 1.937660 1.596637 -1.286515 2.942961
    2 6.028141 0.000000 0.000000 -0.445365 -1.032513 -1.896495
    3 11.692554 0.000001 0.000002 0.000000 0.000000 -0.856004
    4 11.481674 0.000001 -0.000032 -0.435872 0.204567 0.205366
    5 3.859709 -0.142404 -1.191975 -0.502776 -0.244875 -1.327706
    6 1.312555 -0.000002 0.000001 0.000000 0.000000 -0.275280
    7 0.729363 -0.000002 -0.000002 0.000000 0.000000 -0.093519
    8 3.942335 0.046767 -0.431443 -0.253491 -0.140129 -0.944416
    9 1.539097 0.000000 0.000000 0.000000 0.000000 -0.422801
    10 1.196326 -0.000002 -0.000001 0.000000 0.000000 -0.685721
    11 3.883696 -0.046765 0.431443 -0.048698 -0.149461 -0.571418
    12 1.719570 -0.000004 -0.000001 0.000000 0.000000 -0.789630
    13 1.209171 -0.000002 0.000000 0.000000 0.000000 -0.638622
    14 3.859865 -0.137947 1.332466 0.233295 -0.200810 -0.470677
    15 1.719429 0.000002 -0.000001 0.000000 0.000000 -0.851271
    16 1.099665 0.000000 0.000000 0.000000 0.000000 -0.722480
    17 0.806053 -0.348925 1.321258 -0.919606 -0.521611 -1.289995
    18 1.789780 -0.000002 0.000002 0.000000 0.000000 0.258466
    19 1.207006 0.000000 0.000000 0.000000 0.000000 0.084299
    20 2.033356 1.000772 -1.937610 -1.668474 1.286518 2.942953
    21 6.028144 0.000000 0.000000 0.917304 0.001542 -1.163826
    22 11.692554 0.000001 0.000003 0.000000 0.000000 -0.492918
    23 11.481697 0.000001 0.000002 -1.839856 0.008434 0.043618
    24 3.859678 -0.132570 1.193109 0.452686 -0.203570 -0.743635
    25 1.312557 -0.000002 0.000001 0.000000 0.000000 -0.429894
    26 0.729365 0.000002 -0.000002 0.000000 0.000000 -0.234753
    27 3.942305 0.050327 0.431044 0.136996 -0.098616 -0.615904
    28 1.539099 -0.000002 0.000000 0.000000 0.000000 -0.346350
    29 1.196321 0.000008 0.000000 0.000000 0.000000 -0.575157
    30 3.883661 -0.050323 -0.431042 -0.085905 -0.026404 -0.587695
    31 1.719578 0.000004 0.000000 0.000000 -0.007974 -0.366436
    32 1.209185 0.000002 0.000000 0.000000 -0.004461 -0.216376
    33 3.859838 -0.148937 -1.331282 -0.354419 0.038567 -0.532001
    34 1.719423 0.000002 0.000000 0.000000 -0.006613 -0.362970
    35 1.099667 0.000002 0.000000 0.000000 -0.004211 -0.244312
    36 0.806021 -0.359837 -1.318334 1.203301 0.616014 -0.845207
    37 1.789782 0.000000 -0.000004 0.000000 0.000000 0.181370
    38 1.206999 0.000003 0.000002 0.000000 0.000000 0.294827
    39 -4.996094 -9.109375 -29.421875 1.570792 0.000003 -0.000003
    40 -4.014893 23.155716 20.251770 -0.000001 0.000000 0.000000
    41 -0.004455 -0.545139 -2.136547 0.000000 0.000000 0.000000
    42 0.009659 -6.406696 -21.608532 0.000000 0.000000 0.000000
end
