// Created by Crowbar 0.74
version 1
nodes
  0 "ValveBiped.Bip01_Spine4" -1
  1 "ValveBiped.Bip01_L_Clavicle" 0
  2 "ValveBiped.Bip01_L_UpperArm" 1
  3 "ValveBiped.Bip01_L_Forearm" 2
  4 "ValveBiped.Bip01_L_Hand" 3
  5 "ValveBiped.Bip01_L_Finger4" 4
  6 "ValveBiped.Bip01_L_Finger41" 5
  7 "ValveBiped.Bip01_L_Finger42" 6
  8 "ValveBiped.Bip01_L_Finger3" 4
  9 "ValveBiped.Bip01_L_Finger31" 8
  10 "ValveBiped.Bip01_L_Finger32" 9
  11 "ValveBiped.Bip01_L_Finger2" 4
  12 "ValveBiped.Bip01_L_Finger21" 11
  13 "ValveBiped.Bip01_L_Finger22" 12
  14 "ValveBiped.Bip01_L_Finger1" 4
  15 "ValveBiped.Bip01_L_Finger11" 14
  16 "ValveBiped.Bip01_L_Finger12" 15
  17 "ValveBiped.Bip01_L_Finger0" 4
  18 "ValveBiped.Bip01_L_Finger01" 17
  19 "ValveBiped.Bip01_L_Finger02" 18
  20 "ValveBiped.Bip01_R_Clavicle" 0
  21 "ValveBiped.Bip01_R_UpperArm" 20
  22 "ValveBiped.Bip01_R_Forearm" 21
  23 "ValveBiped.Bip01_R_Hand" 22
  24 "ValveBiped.Bip01_R_Finger4" 23
  25 "ValveBiped.Bip01_R_Finger41" 24
  26 "ValveBiped.Bip01_R_Finger42" 25
  27 "ValveBiped.Bip01_R_Finger3" 23
  28 "ValveBiped.Bip01_R_Finger31" 27
  29 "ValveBiped.Bip01_R_Finger32" 28
  30 "ValveBiped.Bip01_R_Finger2" 23
  31 "ValveBiped.Bip01_R_Finger21" 30
  32 "ValveBiped.Bip01_R_Finger22" 31
  33 "ValveBiped.Bip01_R_Finger1" 23
  34 "ValveBiped.Bip01_R_Finger11" 33
  35 "ValveBiped.Bip01_R_Finger12" 34
  36 "ValveBiped.Bip01_R_Finger0" 23
  37 "ValveBiped.Bip01_R_Finger01" 36
  38 "ValveBiped.Bip01_R_Finger02" 37
  39 "ValveBiped.Bip01" -1
  40 "ValveBiped.Gun" 39
  41 "ValveBiped.Pump" 40
  42 "ValveBiped.square" 40
end
skeleton
  time 0
    0 -4.996094 -5.242188 -9.640625 -1.570781 -1.391896 -1.570809
    1 2.033349 1.000767 1.937660 1.596637 -1.286515 2.942961
    2 6.028141 0.000000 0.000000 -0.445365 -1.032513 -1.896495
    3 11.692554 0.000001 0.000002 0.000000 0.000000 -0.856004
    4 11.481674 0.000001 -0.000032 -0.435872 0.204567 0.205366
    5 3.859709 -0.142404 -1.191975 -0.502776 -0.244875 -1.327706
    6 1.312555 -0.000002 0.000001 0.000000 0.000000 -0.275280
    7 0.729363 -0.000002 -0.000002 0.000000 0.000000 -0.093519
    8 3.942335 0.046767 -0.431443 -0.253491 -0.140129 -0.944416
    9 1.539097 0.000000 0.000000 0.000000 0.000000 -0.422801
    10 1.196326 -0.000002 -0.000001 0.000000 0.000000 -0.685721
    11 3.883696 -0.046765 0.431443 -0.048698 -0.149461 -0.571418
    12 1.719570 -0.000004 -0.000001 0.000000 0.000000 -0.789633
    13 1.209171 -0.000002 0.000000 0.000000 0.000000 -0.638622
    14 3.859865 -0.137947 1.332466 0.233295 -0.200810 -0.470677
    15 1.719429 0.000002 -0.000001 0.000000 0.000000 -0.851271
    16 1.099665 0.000000 0.000000 0.000000 0.000000 -0.722480
    17 0.806053 -0.348925 1.321258 -0.919606 -0.521611 -1.289995
    18 1.789780 -0.000002 0.000002 0.000000 0.000000 0.258466
    19 1.207006 0.000000 0.000000 0.000000 0.000000 0.084299
    20 2.033356 1.000772 -1.937610 -1.668474 1.286518 2.942953
    21 6.028144 0.000000 0.000000 0.917304 0.001542 -1.163826
    22 11.692554 0.000001 0.000003 0.000000 0.000000 -0.492918
    23 11.481697 0.000001 0.000002 -1.839856 0.008434 0.043618
    24 3.859678 -0.132570 1.193109 0.452686 -0.203570 -0.743635
    25 1.312557 -0.000002 0.000001 0.000000 0.000000 -0.429894
    26 0.729365 0.000002 -0.000002 0.000000 0.000000 -0.234753
    27 3.942305 0.050327 0.431044 0.136996 -0.098616 -0.615904
    28 1.539099 -0.000002 0.000000 0.000000 0.000000 -0.346350
    29 1.196321 0.000008 0.000000 0.000000 0.000000 -0.575157
    30 3.883661 -0.050323 -0.431042 -0.085905 -0.026404 -0.587695
    31 1.719578 0.000004 0.000000 0.000000 -0.007974 -0.366436
    32 1.209185 0.000002 0.000000 0.000000 -0.004461 -0.216376
    33 3.859838 -0.148937 -1.331282 -0.354419 0.038567 -0.532001
    34 1.719423 0.000002 0.000000 0.000000 -0.006613 -0.362970
    35 1.099667 0.000002 0.000000 0.000000 -0.004211 -0.244312
    36 0.806021 -0.359837 -1.318334 1.203301 0.616014 -0.845207
    37 1.789782 0.000000 -0.000004 0.000000 0.000000 0.181370
    38 1.206999 0.000003 0.000002 0.000000 0.000000 0.294827
    39 -4.996094 -9.109375 -29.421875 1.570792 0.000003 -0.000003
    40 -4.014893 23.155716 20.251770 -0.000001 0.000000 0.000000
    41 -0.004455 -0.545139 -2.136547 0.000000 0.000000 0.000000
    42 0.009659 -6.406696 -21.608532 0.000000 0.000000 0.000000
  time 1
    0 -4.996094 -5.242188 -9.640625 -1.570781 -1.391896 -1.570809
    1 2.033349 1.000767 1.937660 1.596637 -1.286515 2.942961
    2 6.028141 0.000000 0.000000 -0.450594 -1.029042 -1.887893
    3 11.692554 0.000001 0.000002 0.000000 0.000000 -0.862369
    4 11.481674 0.000001 -0.000032 -0.438429 0.202817 0.209583
    5 3.859709 -0.142404 -1.191975 -0.502776 -0.244875 -1.327706
    6 1.312555 -0.000002 0.000001 0.000000 0.000000 -0.275280
    7 0.729363 -0.000002 -0.000002 0.000000 0.000000 -0.093519
    8 3.942335 0.046767 -0.431443 -0.253491 -0.140129 -0.944416
    9 1.539097 0.000000 0.000000 0.000000 0.000000 -0.422801
    10 1.196326 -0.000002 -0.000001 0.000000 0.000000 -0.685721
    11 3.883696 -0.046765 0.431443 -0.048698 -0.149461 -0.571418
    12 1.719570 -0.000004 -0.000001 0.000000 0.000000 -0.789633
    13 1.209171 -0.000002 0.000000 0.000000 0.000000 -0.638622
    14 3.859865 -0.137947 1.332466 0.233295 -0.200810 -0.470677
    15 1.719429 0.000002 -0.000001 0.000000 0.000000 -0.851271
    16 1.099665 0.000000 0.000000 0.000000 0.000000 -0.722480
    17 0.806053 -0.348925 1.321258 -0.919606 -0.521611 -1.289995
    18 1.789780 -0.000002 0.000002 0.000000 0.000000 0.258466
    19 1.207006 0.000000 0.000000 0.000000 0.000000 0.084299
    20 2.033356 1.000772 -1.937610 -1.668474 1.286518 2.942953
    21 6.028144 0.000000 0.000000 0.917304 0.001542 -1.163826
    22 11.692554 0.000001 0.000003 0.000000 0.000000 -0.492918
    23 11.481697 0.000001 0.000002 -1.839856 0.008434 0.043618
    24 3.859678 -0.132570 1.193109 0.452686 -0.203570 -0.743635
    25 1.312557 -0.000002 0.000001 0.000000 0.000000 -0.429894
    26 0.729365 0.000002 -0.000002 0.000000 0.000000 -0.234753
    27 3.942305 0.050327 0.431044 0.136996 -0.098616 -0.615904
    28 1.539099 -0.000002 0.000000 0.000000 0.000000 -0.346350
    29 1.196321 0.000008 0.000000 0.000000 0.000000 -0.575157
    30 3.883661 -0.050323 -0.431042 -0.085905 -0.026404 -0.587695
    31 1.719578 0.000004 0.000000 0.000000 -0.007974 -0.366436
    32 1.209185 0.000002 0.000000 0.000000 -0.004461 -0.216376
    33 3.859838 -0.148937 -1.331282 -0.354419 0.038567 -0.532001
    34 1.719423 0.000002 0.000000 0.000000 -0.006613 -0.362970
    35 1.099667 0.000002 0.000000 0.000000 -0.004211 -0.244312
    36 0.806021 -0.359837 -1.318334 1.203301 0.616014 -0.845207
    37 1.789782 0.000000 -0.000004 0.000000 0.000000 0.181370
    38 1.206999 0.000003 0.000002 0.000000 0.000000 0.294827
    39 -4.996094 -9.109375 -29.421875 1.570792 0.000003 -0.000003
    40 -4.014893 23.077589 20.232238 0.004025 0.000755 0.000743
    41 -0.004455 -0.545139 -2.136547 0.000000 0.000000 0.000000
    42 0.009659 -6.406696 -21.608532 0.000000 0.000000 0.000000
  time 2
    0 -4.996094 -5.242188 -9.640625 -1.570781 -1.391896 -1.570809
    1 2.033349 1.000767 1.937660 1.596637 -1.286515 2.942961
    2 6.028141 0.000000 0.000000 -0.463888 -1.019685 -1.865429
    3 11.692554 0.000001 0.000002 0.000000 0.000000 -0.879470
    4 11.481674 0.000001 -0.000032 -0.446020 0.198359 0.221838
    5 3.859709 -0.142404 -1.191975 -0.502776 -0.244875 -1.327706
    6 1.312555 -0.000002 0.000001 0.000000 0.000000 -0.275280
    7 0.729363 -0.000002 -0.000002 0.000000 0.000000 -0.093519
    8 3.942335 0.046767 -0.431443 -0.253491 -0.140129 -0.944416
    9 1.539097 0.000000 0.000000 0.000000 0.000000 -0.422801
    10 1.196326 -0.000002 -0.000001 0.000000 0.000000 -0.685721
    11 3.883696 -0.046765 0.431443 -0.048698 -0.149461 -0.571418
    12 1.719570 -0.000004 -0.000001 0.000000 0.000000 -0.789633
    13 1.209171 -0.000002 0.000000 0.000000 0.000000 -0.638622
    14 3.859865 -0.137947 1.332466 0.233295 -0.200810 -0.470677
    15 1.719429 0.000002 -0.000001 0.000000 0.000000 -0.851271
    16 1.099665 0.000000 0.000000 0.000000 0.000000 -0.722480
    17 0.806053 -0.348925 1.321258 -0.919606 -0.521611 -1.289995
    18 1.789780 -0.000002 0.000002 0.000000 0.000000 0.258466
    19 1.207006 0.000000 0.000000 0.000000 0.000000 0.084299
    20 2.033356 1.000772 -1.937610 -1.668474 1.286518 2.942953
    21 6.028144 0.000000 0.000000 0.917304 0.001542 -1.163826
    22 11.692554 0.000001 0.000003 0.000000 0.000000 -0.492918
    23 11.481697 0.000001 0.000002 -1.839856 0.008434 0.043618
    24 3.859678 -0.132570 1.193109 0.452686 -0.203570 -0.743635
    25 1.312557 -0.000002 0.000001 0.000000 0.000000 -0.429894
    26 0.729365 0.000002 -0.000002 0.000000 0.000000 -0.234753
    27 3.942305 0.050327 0.431044 0.136996 -0.098616 -0.615904
    28 1.539099 -0.000002 0.000000 0.000000 0.000000 -0.346350
    29 1.196321 0.000008 0.000000 0.000000 0.000000 -0.575157
    30 3.883661 -0.050323 -0.431042 -0.085905 -0.026404 -0.587695
    31 1.719578 0.000004 0.000000 0.000000 -0.007974 -0.366436
    32 1.209185 0.000002 0.000000 0.000000 -0.004461 -0.216376
    33 3.859838 -0.148937 -1.331282 -0.354419 0.038567 -0.532001
    34 1.719423 0.000002 0.000000 0.000000 -0.006613 -0.362970
    35 1.099667 0.000002 0.000000 0.000000 -0.004211 -0.244312
    36 0.806021 -0.359837 -1.318334 1.203301 0.616014 -0.845207
    37 1.789782 0.000000 -0.000004 0.000000 0.000000 0.181370
    38 1.206999 0.000003 0.000002 0.000000 0.000000 0.294827
    39 -4.996094 -9.109375 -29.421875 1.570792 0.000003 -0.000003
    40 -4.014893 22.862738 20.177549 0.016041 0.002864 0.002816
    41 -0.004455 -0.545139 -2.136547 0.000000 0.000000 0.000000
    42 0.009659 -6.406696 -21.608532 0.000000 0.000000 0.000000
  time 3
    0 -4.996094 -5.242188 -9.640625 -1.570781 -1.391896 -1.570809
    1 2.033349 1.000767 1.937660 1.596637 -1.286515 2.942961
    2 6.028141 0.000000 0.000000 -0.481386 -1.005871 -1.834112
    3 11.692554 0.000001 0.000002 0.000000 0.000000 -0.903835
    4 11.481674 0.000001 -0.000032 -0.458324 0.191935 0.240556
    5 3.859709 -0.142404 -1.191975 -0.502776 -0.244875 -1.327706
    6 1.312555 -0.000002 0.000001 0.000000 0.000000 -0.275280
    7 0.729363 -0.000002 -0.000002 0.000000 0.000000 -0.093519
    8 3.942335 0.046767 -0.431443 -0.253491 -0.140129 -0.944416
    9 1.539097 0.000000 0.000000 0.000000 0.000000 -0.422801
    10 1.196326 -0.000002 -0.000001 0.000000 0.000000 -0.685721
    11 3.883696 -0.046765 0.431443 -0.048698 -0.149461 -0.571418
    12 1.719570 -0.000004 -0.000001 0.000000 0.000000 -0.789633
    13 1.209171 -0.000002 0.000000 0.000000 0.000000 -0.638622
    14 3.859865 -0.137947 1.332466 0.233295 -0.200810 -0.470677
    15 1.719429 0.000002 -0.000001 0.000000 0.000000 -0.851271
    16 1.099665 0.000000 0.000000 0.000000 0.000000 -0.722480
    17 0.806053 -0.348925 1.321258 -0.919606 -0.521611 -1.289995
    18 1.789780 -0.000002 0.000002 0.000000 0.000000 0.258466
    19 1.207006 0.000000 0.000000 0.000000 0.000000 0.084299
    20 2.033356 1.000772 -1.937610 -1.668474 1.286518 2.942953
    21 6.028144 0.000000 0.000000 0.917304 0.001542 -1.163826
    22 11.692554 0.000001 0.000003 0.000000 0.000000 -0.492918
    23 11.481697 0.000001 0.000002 -1.839856 0.008434 0.043618
    24 3.859678 -0.132570 1.193109 0.452686 -0.203570 -0.743635
    25 1.312557 -0.000002 0.000001 0.000000 0.000000 -0.429894
    26 0.729365 0.000002 -0.000002 0.000000 0.000000 -0.234753
    27 3.942305 0.050327 0.431044 0.136996 -0.098616 -0.615904
    28 1.539099 -0.000002 0.000000 0.000000 0.000000 -0.346350
    29 1.196321 0.000008 0.000000 0.000000 0.000000 -0.575157
    30 3.883661 -0.050323 -0.431042 -0.085905 -0.026404 -0.587695
    31 1.719578 0.000004 0.000000 0.000000 -0.007974 -0.366436
    32 1.209185 0.000002 0.000000 0.000000 -0.004461 -0.216376
    33 3.859838 -0.148937 -1.331282 -0.354419 0.038567 -0.532001
    34 1.719423 0.000002 0.000000 0.000000 -0.006613 -0.362970
    35 1.099667 0.000002 0.000000 0.000000 -0.004211 -0.244312
    36 0.806021 -0.359837 -1.318334 1.203301 0.616014 -0.845207
    37 1.789782 0.000000 -0.000004 0.000000 0.000000 0.181370
    38 1.206999 0.000003 0.000002 0.000000 0.000000 0.294827
    39 -4.996094 -9.109375 -29.421875 1.570792 0.000003 -0.000003
    40 -4.014893 22.542416 20.103328 0.035146 0.006112 0.006028
    41 -0.004455 -0.545139 -2.136547 0.000000 0.000000 0.000000
    42 0.009659 -6.406696 -21.608532 0.000000 0.000000 0.000000
  time 4
    0 -4.996094 -5.242188 -9.640625 -1.570781 -1.391896 -1.570809
    1 2.033349 1.000767 1.937660 1.596637 -1.286515 2.942961
    2 6.028141 0.000000 0.000000 -0.499763 -0.988892 -1.798328
    3 11.692554 0.000001 0.000002 0.000000 0.000000 -0.931800
    4 11.481674 0.000001 -0.000032 -0.474224 0.183953 0.263097
    5 3.859709 -0.142404 -1.191975 -0.502776 -0.244875 -1.327706
    6 1.312555 -0.000002 0.000001 0.000000 0.000000 -0.275280
    7 0.729363 -0.000002 -0.000002 0.000000 0.000000 -0.093519
    8 3.942335 0.046767 -0.431443 -0.253491 -0.140129 -0.944416
    9 1.539097 0.000000 0.000000 0.000000 0.000000 -0.422801
    10 1.196326 -0.000002 -0.000001 0.000000 0.000000 -0.685721
    11 3.883696 -0.046765 0.431443 -0.048698 -0.149461 -0.571418
    12 1.719570 -0.000004 -0.000001 0.000000 0.000000 -0.789633
    13 1.209171 -0.000002 0.000000 0.000000 0.000000 -0.638622
    14 3.859865 -0.137947 1.332466 0.233295 -0.200810 -0.470677
    15 1.719429 0.000002 -0.000001 0.000000 0.000000 -0.851271
    16 1.099665 0.000000 0.000000 0.000000 0.000000 -0.722480
    17 0.806053 -0.348925 1.321258 -0.919606 -0.521611 -1.289995
    18 1.789780 -0.000002 0.000002 0.000000 0.000000 0.258466
    19 1.207006 0.000000 0.000000 0.000000 0.000000 0.084299
    20 2.033356 1.000772 -1.937610 -1.668474 1.286518 2.942953
    21 6.028144 0.000000 0.000000 0.917304 0.001542 -1.163826
    22 11.692554 0.000001 0.000003 0.000000 0.000000 -0.492918
    23 11.481697 0.000001 0.000002 -1.839856 0.008434 0.043618
    24 3.859678 -0.132570 1.193109 0.452686 -0.203570 -0.743635
    25 1.312557 -0.000002 0.000001 0.000000 0.000000 -0.429894
    26 0.729365 0.000002 -0.000002 0.000000 0.000000 -0.234753
    27 3.942305 0.050327 0.431044 0.136996 -0.098616 -0.615904
    28 1.539099 -0.000002 0.000000 0.000000 0.000000 -0.346350
    29 1.196321 0.000008 0.000000 0.000000 0.000000 -0.575157
    30 3.883661 -0.050323 -0.431042 -0.085905 -0.026404 -0.587695
    31 1.719578 0.000004 0.000000 0.000000 -0.007974 -0.366436
    32 1.209185 0.000002 0.000000 0.000000 -0.004461 -0.216376
    33 3.859838 -0.148937 -1.331282 -0.354419 0.038567 -0.532001
    34 1.719423 0.000002 0.000000 0.000000 -0.006613 -0.362970
    35 1.099667 0.000002 0.000000 0.000000 -0.004211 -0.244312
    36 0.806021 -0.359837 -1.318334 1.203301 0.616014 -0.845207
    37 1.789782 0.000000 -0.000004 0.000000 0.000000 0.181370
    38 1.206999 0.000003 0.000002 0.000000 0.000000 0.294827
    39 -4.996094 -9.109375 -29.421875 1.570792 0.000003 -0.000003
    40 -4.018799 22.136154 20.013481 0.059523 0.010318 0.010223
    41 -0.004455 -0.545139 -2.136547 0.000000 0.000000 0.000000
    42 0.009659 -6.406696 -21.608532 0.000000 0.000000 0.000000
  time 5
    0 -4.996094 -5.242188 -9.640625 -1.570781 -1.391896 -1.570809
    1 2.033349 1.000767 1.937660 1.596637 -1.286515 2.942961
    2 6.028141 0.000000 0.000000 -0.516429 -0.970042 -1.761500
    3 11.692554 0.000001 0.000002 0.000000 0.000000 -0.960087
    4 11.481674 0.000001 -0.000032 -0.492681 0.174510 0.286307
    5 3.859709 -0.142404 -1.191975 -0.502776 -0.244875 -1.327706
    6 1.312555 -0.000002 0.000001 0.000000 0.000000 -0.275280
    7 0.729363 -0.000002 -0.000002 0.000000 0.000000 -0.093519
    8 3.942335 0.046767 -0.431443 -0.253491 -0.140129 -0.944416
    9 1.539097 0.000000 0.000000 0.000000 0.000000 -0.422801
    10 1.196326 -0.000002 -0.000001 0.000000 0.000000 -0.685721
    11 3.883696 -0.046765 0.431443 -0.048698 -0.149461 -0.571418
    12 1.719570 -0.000004 -0.000001 0.000000 0.000000 -0.789633
    13 1.209171 -0.000002 0.000000 0.000000 0.000000 -0.638622
    14 3.859865 -0.137947 1.332466 0.233295 -0.200810 -0.470677
    15 1.719429 0.000002 -0.000001 0.000000 0.000000 -0.851271
    16 1.099665 0.000000 0.000000 0.000000 0.000000 -0.722480
    17 0.806053 -0.348925 1.321258 -0.919606 -0.521611 -1.289995
    18 1.789780 -0.000002 0.000002 0.000000 0.000000 0.258466
    19 1.207006 0.000000 0.000000 0.000000 0.000000 0.084299
    20 2.033356 1.000772 -1.937610 -1.668474 1.286518 2.942953
    21 6.028144 0.000000 0.000000 0.917304 0.001542 -1.163826
    22 11.692554 0.000001 0.000003 0.000000 0.000000 -0.492918
    23 11.481697 0.000001 0.000002 -1.839856 0.008434 0.043618
    24 3.859678 -0.132570 1.193109 0.452686 -0.203570 -0.743635
    25 1.312557 -0.000002 0.000001 0.000000 0.000000 -0.429894
    26 0.729365 0.000002 -0.000002 0.000000 0.000000 -0.234753
    27 3.942305 0.050327 0.431044 0.136996 -0.098616 -0.615904
    28 1.539099 -0.000002 0.000000 0.000000 0.000000 -0.346350
    29 1.196321 0.000008 0.000000 0.000000 0.000000 -0.575157
    30 3.883661 -0.050323 -0.431042 -0.085905 -0.026404 -0.587695
    31 1.719578 0.000004 0.000000 0.000000 -0.007974 -0.366436
    32 1.209185 0.000002 0.000000 0.000000 -0.004461 -0.216376
    33 3.859838 -0.148937 -1.331282 -0.354419 0.038567 -0.532001
    34 1.719423 0.000002 0.000000 0.000000 -0.006613 -0.362970
    35 1.099667 0.000002 0.000000 0.000000 -0.004211 -0.244312
    36 0.806021 -0.359837 -1.318334 1.203301 0.616014 -0.845207
    37 1.789782 0.000000 -0.000004 0.000000 0.000000 0.181370
    38 1.206999 0.000003 0.000002 0.000000 0.000000 0.294827
    39 -4.996094 -9.109375 -29.421875 1.570792 0.000003 -0.000003
    40 -4.018799 21.667389 19.911916 0.086770 0.015340 0.015244
    41 -0.004455 -0.545139 -2.136547 0.000000 0.000000 0.000000
    42 0.009659 -6.406696 -21.608532 0.000000 0.000000 0.000000
  time 6
    0 -4.996094 -5.242188 -9.640625 -1.570781 -1.391896 -1.570809
    1 2.033349 1.000767 1.937660 1.596637 -1.286515 2.942961
    2 6.028141 0.000000 0.000000 -0.529772 -0.950375 -1.725925
    3 11.692554 0.000001 0.000002 0.000000 0.000000 -0.985931
    4 11.481674 0.000001 -0.000032 -0.512336 0.163628 0.307547
    5 3.859709 -0.142404 -1.191975 -0.502776 -0.244875 -1.327706
    6 1.312555 -0.000002 0.000001 0.000000 0.000000 -0.275280
    7 0.729363 -0.000002 -0.000002 0.000000 0.000000 -0.093519
    8 3.942335 0.046767 -0.431443 -0.253491 -0.140129 -0.944416
    9 1.539097 0.000000 0.000000 0.000000 0.000000 -0.422801
    10 1.196326 -0.000002 -0.000001 0.000000 0.000000 -0.685721
    11 3.883696 -0.046765 0.431443 -0.048698 -0.149461 -0.571418
    12 1.719570 -0.000004 -0.000001 0.000000 0.000000 -0.789633
    13 1.209171 -0.000002 0.000000 0.000000 0.000000 -0.638622
    14 3.859865 -0.137947 1.332466 0.233295 -0.200810 -0.470677
    15 1.719429 0.000002 -0.000001 0.000000 0.000000 -0.851271
    16 1.099665 0.000000 0.000000 0.000000 0.000000 -0.722480
    17 0.806053 -0.348925 1.321258 -0.919606 -0.521611 -1.289995
    18 1.789780 -0.000002 0.000002 0.000000 0.000000 0.258466
    19 1.207006 0.000000 0.000000 0.000000 0.000000 0.084299
    20 2.033356 1.000772 -1.937610 -1.668474 1.286518 2.942953
    21 6.028144 0.000000 0.000000 0.917304 0.001542 -1.163826
    22 11.692554 0.000001 0.000003 0.000000 0.000000 -0.492918
    23 11.481697 0.000001 0.000002 -1.839856 0.008434 0.043618
    24 3.859678 -0.132570 1.193109 0.452686 -0.203570 -0.743635
    25 1.312557 -0.000002 0.000001 0.000000 0.000000 -0.429894
    26 0.729365 0.000002 -0.000002 0.000000 0.000000 -0.234753
    27 3.942305 0.050327 0.431044 0.136996 -0.098616 -0.615904
    28 1.539099 -0.000002 0.000000 0.000000 0.000000 -0.346350
    29 1.196321 0.000008 0.000000 0.000000 0.000000 -0.575157
    30 3.883661 -0.050323 -0.431042 -0.085905 -0.026404 -0.587695
    31 1.719578 0.000004 0.000000 0.000000 -0.007974 -0.366436
    32 1.209185 0.000002 0.000000 0.000000 -0.004461 -0.216376
    33 3.859838 -0.148937 -1.331282 -0.354419 0.038567 -0.532001
    34 1.719423 0.000002 0.000000 0.000000 -0.006613 -0.362970
    35 1.099667 0.000002 0.000000 0.000000 -0.004211 -0.244312
    36 0.806021 -0.359837 -1.318334 1.203301 0.616014 -0.845207
    37 1.789782 0.000000 -0.000004 0.000000 0.000000 0.181370
    38 1.206999 0.000003 0.000002 0.000000 0.000000 0.294827
    39 -4.996094 -9.109375 -29.421875 1.570792 0.000003 -0.000003
    40 -4.022706 21.155655 19.802538 0.114557 0.021033 0.020985
    41 -0.004455 -0.545139 -2.136547 0.000000 0.000000 0.000000
    42 0.009659 -6.406696 -21.608532 0.000000 0.000000 0.000000
  time 7
    0 -4.996094 -5.242188 -9.640625 -1.570781 -1.391896 -1.570809
    1 2.033349 1.000767 1.937660 1.596637 -1.286515 2.942961
    2 6.028141 0.000000 0.000000 -0.539156 -0.930980 -1.693147
    3 11.692554 0.000001 0.000002 0.000000 0.000000 -1.007596
    4 11.481674 0.000001 -0.000032 -0.531991 0.151439 0.325201
    5 3.859709 -0.142404 -1.191975 -0.502776 -0.244875 -1.327706
    6 1.312555 -0.000002 0.000001 0.000000 0.000000 -0.275280
    7 0.729363 -0.000002 -0.000002 0.000000 0.000000 -0.093519
    8 3.942335 0.046767 -0.431443 -0.253491 -0.140129 -0.944416
    9 1.539097 0.000000 0.000000 0.000000 0.000000 -0.422801
    10 1.196326 -0.000002 -0.000001 0.000000 0.000000 -0.685721
    11 3.883696 -0.046765 0.431443 -0.048698 -0.149461 -0.571418
    12 1.719570 -0.000004 -0.000001 0.000000 0.000000 -0.789633
    13 1.209171 -0.000002 0.000000 0.000000 0.000000 -0.638622
    14 3.859865 -0.137947 1.332466 0.233295 -0.200810 -0.470677
    15 1.719429 0.000002 -0.000001 0.000000 0.000000 -0.851271
    16 1.099665 0.000000 0.000000 0.000000 0.000000 -0.722480
    17 0.806053 -0.348925 1.321258 -0.919606 -0.521611 -1.289995
    18 1.789780 -0.000002 0.000002 0.000000 0.000000 0.258466
    19 1.207006 0.000000 0.000000 0.000000 0.000000 0.084299
    20 2.033356 1.000772 -1.937610 -1.668474 1.286518 2.942953
    21 6.028144 0.000000 0.000000 0.917304 0.001542 -1.163826
    22 11.692554 0.000001 0.000003 0.000000 0.000000 -0.492918
    23 11.481697 0.000001 0.000002 -1.839856 0.008434 0.043618
    24 3.859678 -0.132570 1.193109 0.452686 -0.203570 -0.743635
    25 1.312557 -0.000002 0.000001 0.000000 0.000000 -0.429894
    26 0.729365 0.000002 -0.000002 0.000000 0.000000 -0.234753
    27 3.942305 0.050327 0.431044 0.136996 -0.098616 -0.615904
    28 1.539099 -0.000002 0.000000 0.000000 0.000000 -0.346350
    29 1.196321 0.000008 0.000000 0.000000 0.000000 -0.575157
    30 3.883661 -0.050323 -0.431042 -0.085905 -0.026404 -0.587695
    31 1.719578 0.000004 0.000000 0.000000 -0.007974 -0.366436
    32 1.209185 0.000002 0.000000 0.000000 -0.004461 -0.216376
    33 3.859838 -0.148937 -1.331282 -0.354419 0.038567 -0.532001
    34 1.719423 0.000002 0.000000 0.000000 -0.006613 -0.362970
    35 1.099667 0.000002 0.000000 0.000000 -0.004211 -0.244312
    36 0.806021 -0.359837 -1.318334 1.203301 0.616014 -0.845207
    37 1.789782 0.000000 -0.000004 0.000000 0.000000 0.181370
    38 1.206999 0.000003 0.000002 0.000000 0.000000 0.294827
    39 -4.996094 -9.109375 -29.421875 1.570792 0.000003 -0.000003
    40 -4.026612 20.624389 19.697066 0.141202 0.027301 0.027349
    41 -0.004455 -0.545139 -2.136547 0.000000 0.000000 0.000000
    42 0.009659 -6.406696 -21.608532 0.000000 0.000000 0.000000
  time 8
    0 -4.996094 -5.242188 -9.640625 -1.570781 -1.391896 -1.570809
    1 2.033349 1.000767 1.937660 1.596637 -1.286515 2.942961
    2 6.028141 0.000000 0.000000 -0.544435 -0.912811 -1.664336
    3 11.692554 0.000001 0.000002 0.000000 0.000000 -1.023990
    4 11.481674 0.000001 -0.000032 -0.551007 0.138424 0.338876
    5 3.859709 -0.142404 -1.191975 -0.502776 -0.244875 -1.327706
    6 1.312555 -0.000002 0.000001 0.000000 0.000000 -0.275280
    7 0.729363 -0.000002 -0.000002 0.000000 0.000000 -0.093519
    8 3.942335 0.046767 -0.431443 -0.253491 -0.140129 -0.944416
    9 1.539097 0.000000 0.000000 0.000000 0.000000 -0.422801
    10 1.196326 -0.000002 -0.000001 0.000000 0.000000 -0.685721
    11 3.883696 -0.046765 0.431443 -0.048698 -0.149461 -0.571418
    12 1.719570 -0.000004 -0.000001 0.000000 0.000000 -0.789633
    13 1.209171 -0.000002 0.000000 0.000000 0.000000 -0.638622
    14 3.859865 -0.137947 1.332466 0.233295 -0.200810 -0.470677
    15 1.719429 0.000002 -0.000001 0.000000 0.000000 -0.851271
    16 1.099665 0.000000 0.000000 0.000000 0.000000 -0.722480
    17 0.806053 -0.348925 1.321258 -0.919606 -0.521611 -1.289995
    18 1.789780 -0.000002 0.000002 0.000000 0.000000 0.258466
    19 1.207006 0.000000 0.000000 0.000000 0.000000 0.084299
    20 2.033356 1.000772 -1.937610 -1.668474 1.286518 2.942953
    21 6.028144 0.000000 0.000000 0.917304 0.001542 -1.163826
    22 11.692554 0.000001 0.000003 0.000000 0.000000 -0.492918
    23 11.481697 0.000001 0.000002 -1.839856 0.008434 0.043618
    24 3.859678 -0.132570 1.193109 0.452686 -0.203570 -0.743635
    25 1.312557 -0.000002 0.000001 0.000000 0.000000 -0.429894
    26 0.729365 0.000002 -0.000002 0.000000 0.000000 -0.234753
    27 3.942305 0.050327 0.431044 0.136996 -0.098616 -0.615904
    28 1.539099 -0.000002 0.000000 0.000000 0.000000 -0.346350
    29 1.196321 0.000008 0.000000 0.000000 0.000000 -0.575157
    30 3.883661 -0.050323 -0.431042 -0.085905 -0.026404 -0.587695
    31 1.719578 0.000004 0.000000 0.000000 -0.007974 -0.366436
    32 1.209185 0.000002 0.000000 0.000000 -0.004461 -0.216376
    33 3.859838 -0.148937 -1.331282 -0.354419 0.038567 -0.532001
    34 1.719423 0.000002 0.000000 0.000000 -0.006613 -0.362970
    35 1.099667 0.000002 0.000000 0.000000 -0.004211 -0.244312
    36 0.806021 -0.359837 -1.318334 1.203301 0.616014 -0.845207
    37 1.789782 0.000000 -0.000004 0.000000 0.000000 0.181370
    38 1.206999 0.000003 0.000002 0.000000 0.000000 0.294827
    39 -4.996094 -9.109375 -29.421875 1.570792 0.000003 -0.000003
    40 -4.030519 20.089216 19.599406 0.165760 0.033976 0.034228
    41 -0.004455 -0.545139 -2.136547 0.000000 0.000000 0.000000
    42 0.009659 -6.406696 -21.608532 0.000000 0.000000 0.000000
  time 9
    0 -4.996094 -5.242188 -9.640625 -1.570781 -1.391896 -1.570809
    1 2.033349 1.000767 1.937660 1.596637 -1.286515 2.942961
    2 6.028141 0.000000 0.000000 -0.545803 -0.897057 -1.640744
    3 11.692554 0.000001 0.000002 0.000000 0.000000 -1.034340
    4 11.481674 0.000001 -0.000032 -0.568504 0.125517 0.349003
    5 3.859709 -0.142404 -1.191975 -0.502776 -0.244875 -1.327706
    6 1.312555 -0.000002 0.000001 0.000000 0.000000 -0.275280
    7 0.729363 -0.000002 -0.000002 0.000000 0.000000 -0.093519
    8 3.942335 0.046767 -0.431443 -0.253491 -0.140129 -0.944416
    9 1.539097 0.000000 0.000000 0.000000 0.000000 -0.422801
    10 1.196326 -0.000002 -0.000001 0.000000 0.000000 -0.685721
    11 3.883696 -0.046765 0.431443 -0.048698 -0.149461 -0.571418
    12 1.719570 -0.000004 -0.000001 0.000000 0.000000 -0.789633
    13 1.209171 -0.000002 0.000000 0.000000 0.000000 -0.638622
    14 3.859865 -0.137947 1.332466 0.233295 -0.200810 -0.470677
    15 1.719429 0.000002 -0.000001 0.000000 0.000000 -0.851271
    16 1.099665 0.000000 0.000000 0.000000 0.000000 -0.722480
    17 0.806053 -0.348925 1.321258 -0.919606 -0.521597 -1.289995
    18 1.789780 -0.000002 0.000002 0.000000 0.000000 0.258466
    19 1.207006 0.000000 0.000000 0.000000 0.000000 0.084299
    20 2.033356 1.000772 -1.937610 -1.668474 1.286518 2.942953
    21 6.028144 0.000000 0.000000 0.917304 0.001542 -1.163826
    22 11.692554 0.000001 0.000003 0.000000 0.000000 -0.492918
    23 11.481697 0.000001 0.000002 -1.839856 0.008434 0.043618
    24 3.859678 -0.132570 1.193109 0.452686 -0.203570 -0.743635
    25 1.312557 -0.000002 0.000001 0.000000 0.000000 -0.429894
    26 0.729365 0.000002 -0.000002 0.000000 0.000000 -0.234753
    27 3.942305 0.050327 0.431044 0.136996 -0.098616 -0.615904
    28 1.539099 -0.000002 0.000000 0.000000 0.000000 -0.346350
    29 1.196321 0.000008 0.000000 0.000000 0.000000 -0.575157
    30 3.883661 -0.050323 -0.431042 -0.085905 -0.026404 -0.587695
    31 1.719578 0.000004 0.000000 0.000000 -0.007974 -0.366436
    32 1.209185 0.000002 0.000000 0.000000 -0.004461 -0.216376
    33 3.859838 -0.148937 -1.331282 -0.354419 0.038567 -0.532001
    34 1.719423 0.000002 0.000000 0.000000 -0.006613 -0.362970
    35 1.099667 0.000002 0.000000 0.000000 -0.004211 -0.244312
    36 0.806021 -0.359837 -1.318334 1.203301 0.616014 -0.845207
    37 1.789782 0.000000 -0.000004 0.000000 0.000000 0.181370
    38 1.206999 0.000003 0.000002 0.000000 0.000000 0.294827
    39 -4.996094 -9.109375 -29.421875 1.570792 0.000003 -0.000003
    40 -4.034425 19.581388 19.521279 0.187959 0.040951 0.041539
    41 -0.004455 -0.545139 -2.136547 0.000000 0.000000 0.000000
    42 0.009659 -6.406696 -21.608532 0.000000 0.000000 0.000000
  time 10
    0 -4.996094 -5.242188 -9.640625 -1.570781 -1.391896 -1.570809
    1 2.033349 1.000767 1.937660 1.596637 -1.286515 2.942961
    2 6.028141 0.000000 0.000000 -0.543604 -0.885522 -1.624961
    3 11.692554 0.000001 0.000002 0.000000 0.000000 -1.036204
    4 11.481674 0.000001 -0.000032 -0.583366 0.114659 0.355820
    5 3.859709 -0.142404 -1.191975 -0.502776 -0.244875 -1.327706
    6 1.312555 -0.000002 0.000001 0.000000 0.000000 -0.275280
    7 0.729363 -0.000002 -0.000002 0.000000 0.000000 -0.093519
    8 3.942335 0.046767 -0.431443 -0.253491 -0.140129 -0.944416
    9 1.539097 0.000000 0.000000 0.000000 0.000000 -0.422801
    10 1.196326 -0.000002 -0.000001 0.000000 0.000000 -0.685721
    11 3.883696 -0.046765 0.431443 -0.048698 -0.149461 -0.571418
    12 1.719570 -0.000004 -0.000001 0.000000 0.000000 -0.789633
    13 1.209171 -0.000002 0.000000 0.000000 0.000000 -0.638622
    14 3.859865 -0.137947 1.332466 0.233295 -0.200810 -0.470677
    15 1.719429 0.000002 -0.000001 0.000000 0.000000 -0.851271
    16 1.099665 0.000000 0.000000 0.000000 0.000000 -0.722480
    17 0.806053 -0.348925 1.321258 -0.919606 -0.521597 -1.289995
    18 1.789780 -0.000002 0.000002 0.000000 0.000000 0.258466
    19 1.207006 0.000000 0.000000 0.000000 0.000000 0.084299
    20 2.033356 1.000772 -1.937610 -1.668474 1.286518 2.942953
    21 6.028144 0.000000 0.000000 0.917304 0.001542 -1.163826
    22 11.692554 0.000001 0.000003 0.000000 0.000000 -0.492918
    23 11.481697 0.000001 0.000002 -1.839856 0.008434 0.043618
    24 3.859678 -0.132570 1.193109 0.452686 -0.203570 -0.743635
    25 1.312557 -0.000002 0.000001 0.000000 0.000000 -0.429894
    26 0.729365 0.000002 -0.000002 0.000000 0.000000 -0.234753
    27 3.942305 0.050327 0.431044 0.136996 -0.098616 -0.615904
    28 1.539099 -0.000002 0.000000 0.000000 0.000000 -0.346350
    29 1.196321 0.000008 0.000000 0.000000 0.000000 -0.575157
    30 3.883661 -0.050323 -0.431042 -0.085905 -0.026404 -0.587695
    31 1.719578 0.000004 0.000000 0.000000 -0.007974 -0.366436
    32 1.209185 0.000002 0.000000 0.000000 -0.004461 -0.216376
    33 3.859838 -0.148937 -1.331282 -0.354419 0.038567 -0.532001
    34 1.719423 0.000002 0.000000 0.000000 -0.006613 -0.362970
    35 1.099667 0.000002 0.000000 0.000000 -0.004211 -0.244312
    36 0.806021 -0.359837 -1.318334 1.203301 0.616014 -0.845207
    37 1.789782 0.000000 -0.000004 0.000000 0.000000 0.181370
    38 1.206999 0.000003 0.000002 0.000000 0.000000 0.294827
    39 -4.996094 -9.109375 -29.421875 1.570792 0.000003 -0.000003
    40 -4.038331 19.136062 19.490028 0.207966 0.048058 0.049185
    41 -0.004455 -0.545139 -2.136547 0.000000 0.000000 0.000000
    42 0.009659 -6.406696 -21.608532 0.000000 0.000000 0.000000
  time 11
    0 -4.996094 -5.242188 -9.640625 -1.570781 -1.391896 -1.570809
    1 2.033349 1.000767 1.937660 1.596637 -1.286515 2.942961
    2 6.028141 0.000000 0.000000 -0.539401 -0.881541 -1.621328
    3 11.692554 0.000001 0.000002 0.000000 0.000000 -1.029711
    4 11.481674 0.000001 -0.000032 -0.591755 0.109385 0.361850
    5 3.859709 -0.142404 -1.191975 -0.502776 -0.244875 -1.327706
    6 1.312555 -0.000002 0.000001 0.000000 0.000000 -0.275280
    7 0.729363 -0.000002 -0.000002 0.000000 0.000000 -0.093519
    8 3.942335 0.046767 -0.431443 -0.253491 -0.140129 -0.944416
    9 1.539097 0.000000 0.000000 0.000000 0.000000 -0.422801
    10 1.196326 -0.000002 -0.000001 0.000000 0.000000 -0.685721
    11 3.883696 -0.046765 0.431443 -0.048698 -0.149461 -0.571418
    12 1.719570 -0.000004 -0.000001 0.000000 0.000000 -0.789633
    13 1.209171 -0.000002 0.000000 0.000000 0.000000 -0.638622
    14 3.859865 -0.137947 1.332466 0.233295 -0.200810 -0.470677
    15 1.719429 0.000002 -0.000001 0.000000 0.000000 -0.851271
    16 1.099665 0.000000 0.000000 0.000000 0.000000 -0.722480
    17 0.806053 -0.348925 1.321258 -0.919606 -0.521597 -1.289995
    18 1.789780 -0.000002 0.000002 0.000000 0.000000 0.258466
    19 1.207006 0.000000 0.000000 0.000000 0.000000 0.084299
    20 2.033356 1.000772 -1.937610 -1.668474 1.286518 2.942953
    21 6.028144 0.000000 0.000000 0.917304 0.001542 -1.163826
    22 11.692554 0.000001 0.000003 0.000000 0.000000 -0.492918
    23 11.481697 0.000001 0.000002 -1.839856 0.008434 0.043618
    24 3.859678 -0.132570 1.193109 0.452686 -0.203570 -0.743635
    25 1.312557 -0.000002 0.000001 0.000000 0.000000 -0.429894
    26 0.729365 0.000002 -0.000002 0.000000 0.000000 -0.234753
    27 3.942305 0.050327 0.431044 0.136996 -0.098616 -0.615904
    28 1.539099 -0.000002 0.000000 0.000000 0.000000 -0.346350
    29 1.196321 0.000008 0.000000 0.000000 0.000000 -0.575157
    30 3.883661 -0.050323 -0.431042 -0.085905 -0.026404 -0.587695
    31 1.719578 0.000004 0.000000 0.000000 -0.007974 -0.366436
    32 1.209185 0.000002 0.000000 0.000000 -0.004461 -0.216376
    33 3.859838 -0.148937 -1.331282 -0.354419 0.038567 -0.532001
    34 1.719423 0.000002 0.000000 0.000000 -0.006613 -0.362970
    35 1.099667 0.000002 0.000000 0.000000 -0.004211 -0.244312
    36 0.806021 -0.359837 -1.318334 1.203301 0.616014 -0.845207
    37 1.789782 0.000000 -0.000004 0.000000 0.000000 0.181370
    38 1.206999 0.000003 0.000002 0.000000 0.000000 0.294827
    39 -4.996094 -9.109375 -29.421875 1.570792 0.000003 -0.000003
    40 -4.042238 18.862616 19.532998 0.223452 0.054685 0.056400
    41 -0.004455 -0.545139 -2.136547 0.000000 0.000000 0.000000
    42 0.009659 -6.406696 -21.608532 0.000000 0.000000 0.000000
  time 12
    0 -4.996094 -5.242188 -9.640625 -1.570781 -1.391896 -1.570809
    1 2.033349 1.000767 1.937660 1.596637 -1.286515 2.942961
    2 6.028141 0.000000 0.000000 -0.534806 -0.882528 -1.625420
    3 11.692554 0.000001 0.000002 0.000000 0.000000 -1.018011
    4 11.481674 0.000001 -0.000032 -0.595031 0.108139 0.366106
    5 3.859709 -0.142404 -1.191975 -0.502776 -0.244875 -1.327706
    6 1.312555 -0.000002 0.000001 0.000000 0.000000 -0.275280
    7 0.729363 -0.000002 -0.000002 0.000000 0.000000 -0.093519
    8 3.942335 0.046767 -0.431443 -0.253491 -0.140129 -0.944416
    9 1.539097 0.000000 0.000000 0.000000 0.000000 -0.422801
    10 1.196326 -0.000002 -0.000001 0.000000 0.000000 -0.685721
    11 3.883696 -0.046765 0.431443 -0.048698 -0.149461 -0.571418
    12 1.719570 -0.000004 -0.000001 0.000000 0.000000 -0.789633
    13 1.209171 -0.000002 0.000000 0.000000 0.000000 -0.638622
    14 3.859865 -0.137947 1.332466 0.233295 -0.200810 -0.470677
    15 1.719429 0.000002 -0.000001 0.000000 0.000000 -0.851271
    16 1.099665 0.000000 0.000000 0.000000 0.000000 -0.722480
    17 0.806053 -0.348925 1.321258 -0.919606 -0.521597 -1.289995
    18 1.789780 -0.000002 0.000002 0.000000 0.000000 0.258466
    19 1.207006 0.000000 0.000000 0.000000 0.000000 0.084299
    20 2.033356 1.000772 -1.937610 -1.668474 1.286518 2.942953
    21 6.028144 0.000000 0.000000 0.917304 0.001542 -1.163826
    22 11.692554 0.000001 0.000003 0.000000 0.000000 -0.492918
    23 11.481697 0.000001 0.000002 -1.839856 0.008434 0.043618
    24 3.859678 -0.132570 1.193109 0.452686 -0.203570 -0.743635
    25 1.312557 -0.000002 0.000001 0.000000 0.000000 -0.429894
    26 0.729365 0.000002 -0.000002 0.000000 0.000000 -0.234753
    27 3.942305 0.050327 0.431044 0.136996 -0.098616 -0.615904
    28 1.539099 -0.000002 0.000000 0.000000 0.000000 -0.346350
    29 1.196321 0.000008 0.000000 0.000000 0.000000 -0.575157
    30 3.883661 -0.050323 -0.431042 -0.085905 -0.026404 -0.587695
    31 1.719578 0.000004 0.000000 0.000000 -0.007974 -0.366436
    32 1.209185 0.000002 0.000000 0.000000 -0.004461 -0.216376
    33 3.859838 -0.148937 -1.331282 -0.354419 0.038567 -0.532001
    34 1.719423 0.000002 0.000000 0.000000 -0.006613 -0.362970
    35 1.099667 0.000002 0.000000 0.000000 -0.004211 -0.244312
    36 0.806021 -0.359837 -1.318334 1.203301 0.616014 -0.845207
    37 1.789782 0.000000 -0.000004 0.000000 0.000000 0.181370
    38 1.206999 0.000003 0.000002 0.000000 0.000000 0.294827
    39 -4.996094 -9.109375 -29.421875 1.570792 0.000003 -0.000003
    40 -4.046144 18.721987 19.622845 0.234747 0.060354 0.062643
    41 -0.004455 -0.545139 -2.136547 0.000000 0.000000 0.000000
    42 0.009659 -6.406696 -21.608532 0.000000 0.000000 0.000000
  time 13
    0 -4.996094 -5.242188 -9.640625 -1.570781 -1.391896 -1.570809
    1 2.033349 1.000767 1.937660 1.596637 -1.286515 2.942961
    2 6.028141 0.000000 0.000000 -0.529528 -0.886407 -1.634272
    3 11.692554 0.000001 0.000002 0.000000 0.000000 -1.001103
    4 11.481674 0.000001 -0.000032 -0.595350 0.109050 0.366775
    5 3.859709 -0.142404 -1.191975 -0.502776 -0.244875 -1.327706
    6 1.312555 -0.000002 0.000001 0.000000 0.000000 -0.275280
    7 0.729363 -0.000002 -0.000002 0.000000 0.000000 -0.093519
    8 3.942335 0.046767 -0.431443 -0.253491 -0.140129 -0.944416
    9 1.539097 0.000000 0.000000 0.000000 0.000000 -0.422801
    10 1.196326 -0.000002 -0.000001 0.000000 0.000000 -0.685721
    11 3.883696 -0.046765 0.431443 -0.048698 -0.149461 -0.571418
    12 1.719570 -0.000004 -0.000001 0.000000 0.000000 -0.789633
    13 1.209171 -0.000002 0.000000 0.000000 0.000000 -0.638622
    14 3.859865 -0.137947 1.332466 0.233295 -0.200810 -0.470677
    15 1.719429 0.000002 -0.000001 0.000000 0.000000 -0.851271
    16 1.099665 0.000000 0.000000 0.000000 0.000000 -0.722480
    17 0.806053 -0.348925 1.321258 -0.919606 -0.521597 -1.289995
    18 1.789780 -0.000002 0.000002 0.000000 0.000000 0.258466
    19 1.207006 0.000000 0.000000 0.000000 0.000000 0.084299
    20 2.033356 1.000772 -1.937610 -1.668474 1.286518 2.942953
    21 6.028144 0.000000 0.000000 0.917304 0.001542 -1.163826
    22 11.692554 0.000001 0.000003 0.000000 0.000000 -0.492918
    23 11.481697 0.000001 0.000002 -1.839856 0.008434 0.043618
    24 3.859678 -0.132570 1.193109 0.452686 -0.203570 -0.743635
    25 1.312557 -0.000002 0.000001 0.000000 0.000000 -0.429894
    26 0.729365 0.000002 -0.000002 0.000000 0.000000 -0.234753
    27 3.942305 0.050327 0.431044 0.136996 -0.098616 -0.615904
    28 1.539099 -0.000002 0.000000 0.000000 0.000000 -0.346350
    29 1.196321 0.000008 0.000000 0.000000 0.000000 -0.575157
    30 3.883661 -0.050323 -0.431042 -0.085905 -0.026404 -0.587695
    31 1.719578 0.000004 0.000000 0.000000 -0.007974 -0.366436
    32 1.209185 0.000002 0.000000 0.000000 -0.004461 -0.216376
    33 3.859838 -0.148937 -1.331282 -0.354419 0.038567 -0.532001
    34 1.719423 0.000002 0.000000 0.000000 -0.006613 -0.362970
    35 1.099667 0.000002 0.000000 0.000000 -0.004211 -0.244312
    36 0.806021 -0.359837 -1.318334 1.203301 0.616014 -0.845207
    37 1.789782 0.000000 -0.000004 0.000000 0.000000 0.181370
    38 1.206999 0.000003 0.000002 0.000000 0.000000 0.294827
    39 -4.996094 -9.109375 -29.421875 1.570792 0.000003 -0.000003
    40 -4.050050 18.636047 19.747848 0.243188 0.065196 0.068013
    41 -0.004455 -0.545139 -2.136547 0.000000 0.000000 0.000000
    42 0.009659 -6.406696 -21.608532 0.000000 0.000000 0.000000
  time 14
    0 -4.996094 -5.242188 -9.640625 -1.570781 -1.391896 -1.570809
    1 2.033349 1.000767 1.937660 1.596637 -1.286515 2.942961
    2 6.028141 0.000000 0.000000 -0.523565 -0.892157 -1.646339
    3 11.692554 0.000001 0.000002 0.000000 0.000000 -0.980338
    4 11.481674 0.000001 -0.000032 -0.593753 0.111279 0.364135
    5 3.859709 -0.142404 -1.191975 -0.502776 -0.244875 -1.327706
    6 1.312555 -0.000002 0.000001 0.000000 0.000000 -0.275280
    7 0.729363 -0.000002 -0.000002 0.000000 0.000000 -0.093519
    8 3.942335 0.046767 -0.431443 -0.253491 -0.140129 -0.944416
    9 1.539097 0.000000 0.000000 0.000000 0.000000 -0.422801
    10 1.196326 -0.000002 -0.000001 0.000000 0.000000 -0.685721
    11 3.883696 -0.046765 0.431443 -0.048698 -0.149461 -0.571418
    12 1.719570 -0.000004 -0.000001 0.000000 0.000000 -0.789633
    13 1.209171 -0.000002 0.000000 0.000000 0.000000 -0.638622
    14 3.859865 -0.137947 1.332466 0.233295 -0.200810 -0.470677
    15 1.719429 0.000002 -0.000001 0.000000 0.000000 -0.851271
    16 1.099665 0.000000 0.000000 0.000000 0.000000 -0.722480
    17 0.806053 -0.348925 1.321258 -0.919606 -0.521611 -1.289995
    18 1.789780 -0.000002 0.000002 0.000000 0.000000 0.258466
    19 1.207006 0.000000 0.000000 0.000000 0.000000 0.084299
    20 2.033356 1.000772 -1.937610 -1.668474 1.286518 2.942953
    21 6.028144 0.000000 0.000000 0.917304 0.001542 -1.163826
    22 11.692554 0.000001 0.000003 0.000000 0.000000 -0.492918
    23 11.481697 0.000001 0.000002 -1.839856 0.008434 0.043618
    24 3.859678 -0.132570 1.193109 0.452686 -0.203570 -0.743635
    25 1.312557 -0.000002 0.000001 0.000000 0.000000 -0.429894
    26 0.729365 0.000002 -0.000002 0.000000 0.000000 -0.234753
    27 3.942305 0.050327 0.431044 0.136996 -0.098616 -0.615904
    28 1.539099 -0.000002 0.000000 0.000000 0.000000 -0.346350
    29 1.196321 0.000008 0.000000 0.000000 0.000000 -0.575157
    30 3.883661 -0.050323 -0.431042 -0.085905 -0.026404 -0.587695
    31 1.719578 0.000004 0.000000 0.000000 -0.007974 -0.366436
    32 1.209185 0.000002 0.000000 0.000000 -0.004461 -0.216376
    33 3.859838 -0.148937 -1.331282 -0.354419 0.038567 -0.532001
    34 1.719423 0.000002 0.000000 0.000000 -0.006613 -0.362970
    35 1.099667 0.000002 0.000000 0.000000 -0.004211 -0.244312
    36 0.806021 -0.359837 -1.318334 1.203301 0.616014 -0.845207
    37 1.789782 0.000000 -0.000004 0.000000 0.000000 0.181370
    38 1.206999 0.000003 0.000002 0.000000 0.000000 0.294827
    39 -4.996094 -9.109375 -29.421875 1.570792 0.000003 -0.000003
    40 -4.050050 18.585264 19.896290 0.249436 0.069283 0.072555
    41 -0.004455 -0.545139 -2.136547 0.000000 0.000000 0.000000
    42 0.009659 -6.406696 -21.608532 0.000000 0.000000 0.000000
  time 15
    0 -4.996094 -5.242188 -9.640625 -1.570781 -1.391896 -1.570809
    1 2.033349 1.000767 1.937660 1.596637 -1.286515 2.942961
    2 6.028141 0.000000 0.000000 -0.517065 -0.898928 -1.660369
    3 11.692554 0.000001 0.000002 0.000000 0.000000 -0.957451
    4 11.481674 0.000001 -0.000032 -0.590956 0.114251 0.359052
    5 3.859709 -0.142404 -1.191975 -0.502776 -0.244875 -1.327706
    6 1.312555 -0.000002 0.000001 0.000000 0.000000 -0.275280
    7 0.729363 -0.000002 -0.000002 0.000000 0.000000 -0.093519
    8 3.942335 0.046767 -0.431443 -0.253491 -0.140129 -0.944416
    9 1.539097 0.000000 0.000000 0.000000 0.000000 -0.422801
    10 1.196326 -0.000002 -0.000001 0.000000 0.000000 -0.685721
    11 3.883696 -0.046765 0.431443 -0.048698 -0.149461 -0.571418
    12 1.719570 -0.000004 -0.000001 0.000000 0.000000 -0.789633
    13 1.209171 -0.000002 0.000000 0.000000 0.000000 -0.638622
    14 3.859865 -0.137947 1.332466 0.233295 -0.200810 -0.470677
    15 1.719429 0.000002 -0.000001 0.000000 0.000000 -0.851271
    16 1.099665 0.000000 0.000000 0.000000 0.000000 -0.722480
    17 0.806053 -0.348925 1.321258 -0.919606 -0.521611 -1.289995
    18 1.789780 -0.000002 0.000002 0.000000 0.000000 0.258466
    19 1.207006 0.000000 0.000000 0.000000 0.000000 0.084299
    20 2.033356 1.000772 -1.937610 -1.668474 1.286518 2.942953
    21 6.028144 0.000000 0.000000 0.917304 0.001542 -1.163826
    22 11.692554 0.000001 0.000003 0.000000 0.000000 -0.492918
    23 11.481697 0.000001 0.000002 -1.839856 0.008434 0.043618
    24 3.859678 -0.132570 1.193109 0.452686 -0.203570 -0.743635
    25 1.312557 -0.000002 0.000001 0.000000 0.000000 -0.429894
    26 0.729365 0.000002 -0.000002 0.000000 0.000000 -0.234753
    27 3.942305 0.050327 0.431044 0.136996 -0.098616 -0.615904
    28 1.539099 -0.000002 0.000000 0.000000 0.000000 -0.346350
    29 1.196321 0.000008 0.000000 0.000000 0.000000 -0.575157
    30 3.883661 -0.050323 -0.431042 -0.085905 -0.026404 -0.587695
    31 1.719578 0.000004 0.000000 0.000000 -0.007974 -0.366436
    32 1.209185 0.000002 0.000000 0.000000 -0.004461 -0.216376
    33 3.859838 -0.148937 -1.331282 -0.354419 0.038567 -0.532001
    34 1.719423 0.000002 0.000000 0.000000 -0.006613 -0.362970
    35 1.099667 0.000002 0.000000 0.000000 -0.004211 -0.244312
    36 0.806021 -0.359837 -1.318334 1.203301 0.616014 -0.845207
    37 1.789782 0.000000 -0.000004 0.000000 0.000000 0.181370
    38 1.206999 0.000003 0.000002 0.000000 0.000000 0.294827
    39 -4.996094 -9.109375 -29.421875 1.570792 0.000003 -0.000003
    40 -4.053957 18.557919 20.056452 0.253927 0.072614 0.076282
    41 -0.004455 -0.545139 -2.136547 0.000000 0.000000 0.000000
    42 0.009659 -6.406696 -21.608532 0.000000 0.000000 0.000000
  time 16
    0 -4.996094 -5.242188 -9.640625 -1.570781 -1.391896 -1.570809
    1 2.033349 1.000767 1.937660 1.596637 -1.286515 2.942961
    2 6.028141 0.000000 0.000000 -0.510515 -0.905869 -1.674733
    3 11.692554 0.000001 0.000002 0.000000 0.000000 -0.934822
    4 11.481674 0.000001 -0.000032 -0.587680 0.117415 0.352589
    5 3.859709 -0.142404 -1.191975 -0.502776 -0.244875 -1.327706
    6 1.312555 -0.000002 0.000001 0.000000 0.000000 -0.275280
    7 0.729363 -0.000002 -0.000002 0.000000 0.000000 -0.093519
    8 3.942335 0.046767 -0.431443 -0.253491 -0.140129 -0.944416
    9 1.539097 0.000000 0.000000 0.000000 0.000000 -0.422801
    10 1.196326 -0.000002 -0.000001 0.000000 0.000000 -0.685721
    11 3.883696 -0.046765 0.431443 -0.048698 -0.149461 -0.571418
    12 1.719570 -0.000004 -0.000001 0.000000 0.000000 -0.789633
    13 1.209171 -0.000002 0.000000 0.000000 0.000000 -0.638622
    14 3.859865 -0.137947 1.332466 0.233295 -0.200810 -0.470677
    15 1.719429 0.000002 -0.000001 0.000000 0.000000 -0.851271
    16 1.099665 0.000000 0.000000 0.000000 0.000000 -0.722480
    17 0.806053 -0.348925 1.321258 -0.919606 -0.521611 -1.289995
    18 1.789780 -0.000002 0.000002 0.000000 0.000000 0.258466
    19 1.207006 0.000000 0.000000 0.000000 0.000000 0.084299
    20 2.033356 1.000772 -1.937610 -1.668474 1.286518 2.942953
    21 6.028144 0.000000 0.000000 0.917304 0.001542 -1.163826
    22 11.692554 0.000001 0.000003 0.000000 0.000000 -0.492918
    23 11.481697 0.000001 0.000002 -1.839856 0.008434 0.043618
    24 3.859678 -0.132570 1.193109 0.452686 -0.203570 -0.743635
    25 1.312557 -0.000002 0.000001 0.000000 0.000000 -0.429894
    26 0.729365 0.000002 -0.000002 0.000000 0.000000 -0.234753
    27 3.942305 0.050327 0.431044 0.136996 -0.098616 -0.615904
    28 1.539099 -0.000002 0.000000 0.000000 0.000000 -0.346350
    29 1.196321 0.000008 0.000000 0.000000 0.000000 -0.575157
    30 3.883661 -0.050323 -0.431042 -0.085905 -0.026404 -0.587695
    31 1.719578 0.000004 0.000000 0.000000 -0.007974 -0.366436
    32 1.209185 0.000002 0.000000 0.000000 -0.004461 -0.216376
    33 3.859838 -0.148937 -1.331282 -0.354419 0.038567 -0.532001
    34 1.719423 0.000002 0.000000 0.000000 -0.006613 -0.362970
    35 1.099667 0.000002 0.000000 0.000000 -0.004211 -0.244312
    36 0.806021 -0.359837 -1.318334 1.203301 0.616014 -0.845207
    37 1.789782 0.000000 -0.000004 0.000000 0.000000 0.181370
    38 1.206999 0.000003 0.000002 0.000000 0.000000 0.294827
    39 -4.996094 -9.109375 -29.421875 1.570792 0.000003 -0.000003
    40 -4.053957 18.546200 20.208800 0.256931 0.075203 0.079158
    41 -0.004455 -0.545139 -2.136547 0.000000 0.000000 0.000000
    42 0.009659 -6.406696 -21.608532 0.000000 0.000000 0.000000
  time 17
    0 -4.996094 -5.242188 -9.640625 -1.570781 -1.391896 -1.570809
    1 2.033349 1.000767 1.937660 1.596637 -1.286515 2.942961
    2 6.028141 0.000000 0.000000 -0.504846 -0.911688 -1.686925
    3 11.692554 0.000001 0.000002 0.000000 0.000000 -0.916050
    4 11.481674 0.000001 -0.000032 -0.584724 0.120112 0.346442
    5 3.859709 -0.142404 -1.191975 -0.502776 -0.244875 -1.327706
    6 1.312555 -0.000002 0.000001 0.000000 0.000000 -0.275280
    7 0.729363 -0.000002 -0.000002 0.000000 0.000000 -0.093519
    8 3.942335 0.046767 -0.431443 -0.253491 -0.140129 -0.944416
    9 1.539097 0.000000 0.000000 0.000000 0.000000 -0.422801
    10 1.196326 -0.000002 -0.000001 0.000000 0.000000 -0.685721
    11 3.883696 -0.046765 0.431443 -0.048698 -0.149461 -0.571418
    12 1.719570 -0.000004 -0.000001 0.000000 0.000000 -0.789633
    13 1.209171 -0.000002 0.000000 0.000000 0.000000 -0.638622
    14 3.859865 -0.137947 1.332466 0.233295 -0.200810 -0.470677
    15 1.719429 0.000002 -0.000001 0.000000 0.000000 -0.851271
    16 1.099665 0.000000 0.000000 0.000000 0.000000 -0.722480
    17 0.806053 -0.348925 1.321258 -0.919606 -0.521611 -1.289995
    18 1.789780 -0.000002 0.000002 0.000000 0.000000 0.258466
    19 1.207006 0.000000 0.000000 0.000000 0.000000 0.084299
    20 2.033356 1.000772 -1.937610 -1.668474 1.286518 2.942953
    21 6.028144 0.000000 0.000000 0.917304 0.001542 -1.163826
    22 11.692554 0.000001 0.000003 0.000000 0.000000 -0.492918
    23 11.481697 0.000001 0.000002 -1.839856 0.008434 0.043618
    24 3.859678 -0.132570 1.193109 0.452686 -0.203570 -0.743635
    25 1.312557 -0.000002 0.000001 0.000000 0.000000 -0.429894
    26 0.729365 0.000002 -0.000002 0.000000 0.000000 -0.234753
    27 3.942305 0.050327 0.431044 0.136996 -0.098616 -0.615904
    28 1.539099 -0.000002 0.000000 0.000000 0.000000 -0.346350
    29 1.196321 0.000008 0.000000 0.000000 0.000000 -0.575157
    30 3.883661 -0.050323 -0.431042 -0.085905 -0.026404 -0.587695
    31 1.719578 0.000004 0.000000 0.000000 -0.007974 -0.366436
    32 1.209185 0.000002 0.000000 0.000000 -0.004461 -0.216376
    33 3.859838 -0.148937 -1.331282 -0.354419 0.038567 -0.532001
    34 1.719423 0.000002 0.000000 0.000000 -0.006613 -0.362970
    35 1.099667 0.000002 0.000000 0.000000 -0.004211 -0.244312
    36 0.806021 -0.359837 -1.318334 1.203301 0.616014 -0.845207
    37 1.789782 0.000000 -0.000004 0.000000 0.000000 0.181370
    38 1.206999 0.000003 0.000002 0.000000 0.000000 0.294827
    39 -4.996094 -9.109375 -29.421875 1.570792 0.000003 -0.000003
    40 -4.053957 18.546200 20.325991 0.258628 0.076929 0.081076
    41 -0.004455 -0.545139 -2.136547 0.000000 0.000000 0.000000
    42 0.009659 -6.406696 -21.608532 0.000000 0.000000 0.000000
  time 18
    0 -4.996094 -5.242188 -9.640625 -1.570781 -1.391896 -1.570809
    1 2.033349 1.000767 1.937660 1.596637 -1.286515 2.942961
    2 6.028141 0.000000 0.000000 -0.502060 -0.914478 -1.692771
    3 11.692554 0.000001 0.000002 0.000000 0.000000 -0.907306
    4 11.481674 0.000001 -0.000032 -0.583286 0.121382 0.343368
    5 3.859709 -0.142404 -1.191975 -0.502776 -0.244875 -1.327706
    6 1.312555 -0.000002 0.000001 0.000000 0.000000 -0.275280
    7 0.729363 -0.000002 -0.000002 0.000000 0.000000 -0.093519
    8 3.942335 0.046767 -0.431443 -0.253491 -0.140129 -0.944416
    9 1.539097 0.000000 0.000000 0.000000 0.000000 -0.422801
    10 1.196326 -0.000002 -0.000001 0.000000 0.000000 -0.685721
    11 3.883696 -0.046765 0.431443 -0.048698 -0.149461 -0.571418
    12 1.719570 -0.000004 -0.000001 0.000000 0.000000 -0.789633
    13 1.209171 -0.000002 0.000000 0.000000 0.000000 -0.638622
    14 3.859865 -0.137947 1.332466 0.233295 -0.200810 -0.470677
    15 1.719429 0.000002 -0.000001 0.000000 0.000000 -0.851271
    16 1.099665 0.000000 0.000000 0.000000 0.000000 -0.722480
    17 0.806053 -0.348925 1.321258 -0.919606 -0.521611 -1.289995
    18 1.789780 -0.000002 0.000002 0.000000 0.000000 0.258466
    19 1.207006 0.000000 0.000000 0.000000 0.000000 0.084299
    20 2.033356 1.000772 -1.937610 -1.668474 1.286518 2.942953
    21 6.028144 0.000000 0.000000 0.917304 0.001542 -1.163826
    22 11.692554 0.000001 0.000003 0.000000 0.000000 -0.492918
    23 11.481697 0.000001 0.000002 -1.839856 0.008434 0.043618
    24 3.859678 -0.132570 1.193109 0.452686 -0.203570 -0.743635
    25 1.312557 -0.000002 0.000001 0.000000 0.000000 -0.429894
    26 0.729365 0.000002 -0.000002 0.000000 0.000000 -0.234753
    27 3.942305 0.050327 0.431044 0.136996 -0.098616 -0.615904
    28 1.539099 -0.000002 0.000000 0.000000 0.000000 -0.346350
    29 1.196321 0.000008 0.000000 0.000000 0.000000 -0.575157
    30 3.883661 -0.050323 -0.431042 -0.085905 -0.026404 -0.587695
    31 1.719578 0.000004 0.000000 0.000000 -0.007974 -0.366436
    32 1.209185 0.000002 0.000000 0.000000 -0.004461 -0.216376
    33 3.859838 -0.148937 -1.331282 -0.354419 0.038567 -0.532001
    34 1.719423 0.000002 0.000000 0.000000 -0.006613 -0.362970
    35 1.099667 0.000002 0.000000 0.000000 -0.004211 -0.244312
    36 0.806021 -0.359837 -1.318334 1.203301 0.616014 -0.845207
    37 1.789782 0.000000 -0.000004 0.000000 0.000000 0.181370
    38 1.206999 0.000003 0.000002 0.000000 0.000000 0.294827
    39 -4.996094 -9.109375 -29.421875 1.570792 0.000003 -0.000003
    40 -4.053957 18.550107 20.380680 0.259139 0.077588 0.081819
    41 -0.004455 -0.545139 -2.136547 0.000000 0.000000 0.000000
    42 0.009659 -6.406696 -21.608532 0.000000 0.000000 0.000000
end
