// Created by Crowbar 0.74
version 1
nodes
  0 "ValveBiped.Bip01_Spine4" -1
  1 "ValveBiped.Bip01_L_Clavicle" 0
  2 "ValveBiped.Bip01_L_UpperArm" 1
  3 "ValveBiped.Bip01_L_Forearm" 2
  4 "ValveBiped.Bip01_L_Hand" 3
  5 "ValveBiped.Bip01_L_Finger4" 4
  6 "ValveBiped.Bip01_L_Finger41" 5
  7 "ValveBiped.Bip01_L_Finger42" 6
  8 "ValveBiped.Bip01_L_Finger3" 4
  9 "ValveBiped.Bip01_L_Finger31" 8
  10 "ValveBiped.Bip01_L_Finger32" 9
  11 "ValveBiped.Bip01_L_Finger2" 4
  12 "ValveBiped.Bip01_L_Finger21" 11
  13 "ValveBiped.Bip01_L_Finger22" 12
  14 "ValveBiped.Bip01_L_Finger1" 4
  15 "ValveBiped.Bip01_L_Finger11" 14
  16 "ValveBiped.Bip01_L_Finger12" 15
  17 "ValveBiped.Bip01_L_Finger0" 4
  18 "ValveBiped.Bip01_L_Finger01" 17
  19 "ValveBiped.Bip01_L_Finger02" 18
  20 "ValveBiped.Bip01_R_Clavicle" 0
  21 "ValveBiped.Bip01_R_UpperArm" 20
  22 "ValveBiped.Bip01_R_Forearm" 21
  23 "ValveBiped.Bip01_R_Hand" 22
  24 "ValveBiped.Bip01_R_Finger4" 23
  25 "ValveBiped.Bip01_R_Finger41" 24
  26 "ValveBiped.Bip01_R_Finger42" 25
  27 "ValveBiped.Bip01_R_Finger3" 23
  28 "ValveBiped.Bip01_R_Finger31" 27
  29 "ValveBiped.Bip01_R_Finger32" 28
  30 "ValveBiped.Bip01_R_Finger2" 23
  31 "ValveBiped.Bip01_R_Finger21" 30
  32 "ValveBiped.Bip01_R_Finger22" 31
  33 "ValveBiped.Bip01_R_Finger1" 23
  34 "ValveBiped.Bip01_R_Finger11" 33
  35 "ValveBiped.Bip01_R_Finger12" 34
  36 "ValveBiped.Bip01_R_Finger0" 23
  37 "ValveBiped.Bip01_R_Finger01" 36
  38 "ValveBiped.Bip01_R_Finger02" 37
  39 "ValveBiped.Bip01" -1
  40 "ValveBiped.Gun" 39
  41 "ValveBiped.Pump" 40
  42 "ValveBiped.square" 40
end
skeleton
  time 0
    0 -4.996094 -5.242188 -9.640625 -1.570781 -1.391896 -1.570809
    1 2.033349 1.000767 1.937660 1.596637 -1.286515 2.942961
    2 6.028141 0.000000 0.000000 -0.445365 -1.032513 -1.896495
    3 11.692554 0.000001 0.000002 0.000000 0.000000 -0.856004
    4 11.481674 0.000001 -0.000032 -0.435872 0.204567 0.205366
    5 3.859709 -0.142404 -1.191975 -0.502768 -0.244863 -1.327695
    6 1.312555 -0.000002 0.000001 0.000000 0.000000 -0.275291
    7 0.729363 -0.000002 -0.000002 0.000000 0.000000 -0.093525
    8 3.942335 0.046767 -0.431443 -0.253481 -0.140120 -0.944409
    9 1.539097 0.000000 0.000000 0.000000 0.000000 -0.422797
    10 1.196326 -0.000002 -0.000001 0.000000 0.000000 -0.685711
    11 3.883696 -0.046765 0.431443 -0.048697 -0.149454 -0.571424
    12 1.719570 -0.000004 -0.000001 0.000000 0.000003 -0.789601
    13 1.209171 -0.000002 0.000000 0.000000 0.000004 -0.638586
    14 3.859865 -0.137947 1.332466 0.233309 -0.200803 -0.470680
    15 1.719429 0.000002 -0.000001 0.000000 0.000011 -0.851253
    16 1.099665 0.000000 0.000000 0.000000 0.000007 -0.722476
    17 0.806053 -0.348925 1.321258 -0.919606 -0.521611 -1.289995
    18 1.789780 -0.000002 0.000002 0.000000 0.000000 0.258461
    19 1.207006 0.000000 0.000000 0.000000 0.000000 0.084303
    20 2.033356 1.000772 -1.937610 -1.668474 1.286518 2.942953
    21 6.028144 0.000000 0.000000 0.917304 0.001542 -1.163826
    22 11.692554 0.000001 0.000003 0.000000 0.000000 -0.492918
    23 11.481697 0.000001 0.000002 -1.839856 0.008434 0.043618
    24 3.859678 -0.132570 1.193109 0.452686 -0.203570 -0.743635
    25 1.312557 -0.000002 0.000001 0.000000 0.000000 -0.429894
    26 0.729365 0.000002 -0.000002 0.000000 0.000000 -0.234753
    27 3.942305 0.050327 0.431044 0.136996 -0.098616 -0.615904
    28 1.539099 -0.000002 0.000000 0.000000 0.000000 -0.346350
    29 1.196321 0.000008 0.000000 0.000000 0.000000 -0.575157
    30 3.883661 -0.050323 -0.431042 -0.085905 -0.026404 -0.587695
    31 1.719578 0.000004 0.000000 0.000000 -0.007974 -0.366436
    32 1.209185 0.000002 0.000000 0.000000 -0.004461 -0.216376
    33 3.859838 -0.148937 -1.331282 -0.354419 0.038567 -0.532001
    34 1.719423 0.000002 0.000000 0.000000 -0.006613 -0.362970
    35 1.099667 0.000002 0.000000 0.000000 -0.004211 -0.244312
    36 0.806021 -0.359837 -1.318334 1.203301 0.616014 -0.845207
    37 1.789782 0.000000 -0.000004 0.000000 0.000000 0.181370
    38 1.206999 0.000003 0.000002 0.000000 0.000000 0.294827
    39 -4.996094 -9.109375 -29.421875 1.570792 0.000003 -0.000003
    40 -4.014893 23.155716 20.251770 -0.000001 0.000000 0.000000
    41 -0.004455 -0.545139 -2.136547 0.000000 0.000000 0.000000
    42 0.009659 -6.406696 -21.608532 0.000000 0.000000 0.000000
  time 1
    0 -4.996094 -5.242188 -9.640625 -1.570781 -1.391896 -1.570809
    1 2.033349 1.000767 1.937660 1.596637 -1.286515 2.942961
    2 6.028141 0.000000 0.000000 -0.443947 -1.030165 -1.894616
    3 11.692554 0.000001 0.000002 0.000000 0.000000 -0.864555
    4 11.481674 0.000001 -0.000032 -0.423808 0.205885 0.207179
    5 3.859709 -0.142404 -1.191975 -0.500288 -0.237230 -1.341917
    6 1.312555 -0.000002 0.000001 0.000000 0.000000 -0.292085
    7 0.729363 -0.000002 -0.000002 0.000000 0.000000 -0.106670
    8 3.942335 0.046767 -0.431443 -0.253829 -0.141534 -0.953002
    9 1.539097 0.000000 0.000000 0.000000 0.000000 -0.430832
    10 1.196326 -0.000002 -0.000001 0.000000 0.000000 -0.683357
    11 3.883696 -0.046765 0.431443 -0.048949 -0.148699 -0.580113
    12 1.719570 -0.000004 -0.000001 0.000000 0.000003 -0.777266
    13 1.209171 -0.000002 0.000000 0.000000 0.000004 -0.621543
    14 3.859865 -0.137947 1.332466 0.233608 -0.197771 -0.478962
    15 1.719429 0.000002 -0.000001 0.000000 0.000011 -0.858418
    16 1.099665 0.000000 0.000000 0.000000 0.000007 -0.706069
    17 0.806053 -0.348925 1.321258 -0.916026 -0.530003 -1.295730
    18 1.789780 -0.000002 0.000002 0.000000 0.000000 0.260654
    19 1.207006 0.000000 0.000000 0.000000 0.000000 0.102770
    20 2.033356 1.000772 -1.937610 -1.668474 1.286518 2.942953
    21 6.028144 0.000000 0.000000 0.917304 0.001542 -1.163826
    22 11.692554 0.000001 0.000003 0.000000 0.000000 -0.492918
    23 11.481697 0.000001 0.000002 -1.839856 0.008434 0.043618
    24 3.859678 -0.132570 1.193109 0.452686 -0.203570 -0.743635
    25 1.312557 -0.000002 0.000001 0.000000 0.000000 -0.429894
    26 0.729365 0.000002 -0.000002 0.000000 0.000000 -0.234753
    27 3.942305 0.050327 0.431044 0.136996 -0.098616 -0.615904
    28 1.539099 -0.000002 0.000000 0.000000 0.000000 -0.346350
    29 1.196321 0.000008 0.000000 0.000000 0.000000 -0.575157
    30 3.883661 -0.050323 -0.431042 -0.085905 -0.026404 -0.587695
    31 1.719578 0.000004 0.000000 0.000000 -0.007974 -0.366436
    32 1.209185 0.000002 0.000000 0.000000 -0.004461 -0.216376
    33 3.859838 -0.148937 -1.331282 -0.354419 0.038567 -0.532001
    34 1.719423 0.000002 0.000000 0.000000 -0.006613 -0.362970
    35 1.099667 0.000002 0.000000 0.000000 -0.004211 -0.244312
    36 0.806021 -0.359837 -1.318334 1.203301 0.616014 -0.845207
    37 1.789782 0.000000 -0.000004 0.000000 0.000000 0.181370
    38 1.206999 0.000003 0.000002 0.000000 0.000000 0.294827
    39 -4.996094 -9.109375 -29.421875 1.570792 0.000003 -0.000003
    40 -4.065676 23.198686 20.240051 -0.005603 0.005812 0.005980
    41 -0.004455 -0.545139 -2.136547 0.000000 0.000000 0.000000
    42 0.009659 -6.406696 -21.608532 0.000000 0.000000 0.000000
  time 2
    0 -4.996094 -5.242188 -9.640625 -1.570781 -1.391896 -1.570809
    1 2.033349 1.000767 1.937660 1.596637 -1.286515 2.942961
    2 6.028141 0.000000 0.000000 -0.449568 -1.022952 -1.880878
    3 11.692554 0.000001 0.000002 0.000000 0.000000 -0.885320
    4 11.481674 0.000001 -0.000032 -0.391289 0.209073 0.211553
    5 3.859709 -0.142404 -1.191975 -0.493660 -0.216712 -1.379668
    6 1.312555 -0.000002 0.000001 0.000000 0.000000 -0.336922
    7 0.729363 -0.000002 -0.000002 0.000000 0.000000 -0.141763
    8 3.942335 0.046767 -0.431443 -0.254704 -0.145321 -0.975953
    9 1.539097 0.000000 0.000000 0.000000 0.000000 -0.453366
    10 1.196326 -0.000002 -0.000001 0.000000 0.000000 -0.676939
    11 3.883696 -0.046765 0.431443 -0.049644 -0.146697 -0.603291
    12 1.719570 -0.000004 -0.000001 0.000000 0.000003 -0.745136
    13 1.209171 -0.000002 0.000000 0.000000 0.000004 -0.576743
    14 3.859865 -0.137947 1.332466 0.234280 -0.189681 -0.501025
    15 1.719429 0.000002 -0.000001 0.000000 0.000011 -0.878427
    16 1.099665 0.000000 0.000000 0.000000 0.000007 -0.663094
    17 0.806053 -0.348925 1.321258 -0.905884 -0.547251 -1.308807
    18 1.789780 -0.000002 0.000002 0.000000 0.000000 0.266502
    19 1.207006 0.000000 0.000000 0.000000 0.000000 0.142812
    20 2.033356 1.000772 -1.937610 -1.668474 1.286518 2.942953
    21 6.028144 0.000000 0.000000 0.917304 0.001542 -1.163826
    22 11.692554 0.000001 0.000003 0.000000 0.000000 -0.492918
    23 11.481697 0.000001 0.000002 -1.839856 0.008434 0.043618
    24 3.859678 -0.132570 1.193109 0.452686 -0.203570 -0.743635
    25 1.312557 -0.000002 0.000001 0.000000 0.000000 -0.429894
    26 0.729365 0.000002 -0.000002 0.000000 0.000000 -0.234753
    27 3.942305 0.050327 0.431044 0.136996 -0.098616 -0.615904
    28 1.539099 -0.000002 0.000000 0.000000 0.000000 -0.346350
    29 1.196321 0.000008 0.000000 0.000000 0.000000 -0.575157
    30 3.883661 -0.050323 -0.431042 -0.085905 -0.026404 -0.587695
    31 1.719578 0.000004 0.000000 0.000000 -0.007974 -0.366436
    32 1.209185 0.000002 0.000000 0.000000 -0.004461 -0.216376
    33 3.859838 -0.148937 -1.331282 -0.354419 0.038567 -0.532001
    34 1.719423 0.000002 0.000000 0.000000 -0.006613 -0.362970
    35 1.099667 0.000002 0.000000 0.000000 -0.004211 -0.244312
    36 0.806021 -0.359837 -1.318334 1.203301 0.616014 -0.845207
    37 1.789782 0.000000 -0.000004 0.000000 0.000000 0.181370
    38 1.206999 0.000003 0.000002 0.000000 0.000000 0.294827
    39 -4.996094 -9.109375 -29.421875 1.570792 0.000003 -0.000003
    40 -4.206305 23.323690 20.208800 -0.020278 0.019942 0.022986
    41 -0.004455 -0.545139 -2.136547 0.000000 0.000000 0.000000
    42 0.009659 -6.406696 -21.608532 0.000000 0.000000 0.000000
  time 3
    0 -4.996094 -5.242188 -9.640625 -1.570781 -1.391896 -1.570809
    1 2.033349 1.000767 1.937660 1.596637 -1.286515 2.942961
    2 6.028141 0.000000 0.000000 -0.476449 -1.010158 -1.843424
    3 11.692554 0.000001 0.000002 0.000000 0.000000 -0.911421
    4 11.481674 0.000001 -0.000032 -0.343909 0.213004 0.216991
    5 3.859709 -0.142404 -1.191975 -0.484108 -0.186783 -1.433524
    6 1.312555 -0.000002 0.000001 0.000000 0.000000 -0.401445
    7 0.729363 -0.000002 -0.000002 0.000000 0.000000 -0.192250
    8 3.942335 0.046767 -0.431443 -0.255794 -0.150810 -1.008982
    9 1.539097 0.000000 0.000000 0.000000 0.000000 -0.488014
    10 1.196326 -0.000002 -0.000001 0.000000 0.000000 -0.667370
    11 3.883696 -0.046765 0.431443 -0.050746 -0.143845 -0.636656
    12 1.719570 -0.000004 -0.000001 0.000000 0.000003 -0.700671
    13 1.209171 -0.000002 0.000000 0.000000 0.000004 -0.513871
    14 3.859865 -0.137947 1.332466 0.234939 -0.178008 -0.532701
    15 1.719429 0.000002 -0.000001 0.000000 0.000011 -0.909229
    16 1.099665 0.000000 0.000000 0.000000 0.000007 -0.602849
    17 0.806053 -0.348925 1.321258 -0.890421 -0.561548 -1.322438
    18 1.789780 -0.000002 0.000002 0.000000 0.000000 0.274915
    19 1.207006 0.000000 0.000000 0.000000 0.000000 0.181371
    20 2.033356 1.000772 -1.937610 -1.668474 1.286518 2.942953
    21 6.028144 0.000000 0.000000 0.917304 0.001542 -1.163826
    22 11.692554 0.000001 0.000003 0.000000 0.000000 -0.492918
    23 11.481697 0.000001 0.000002 -1.839856 0.008434 0.043618
    24 3.859678 -0.132570 1.193109 0.452686 -0.203570 -0.743635
    25 1.312557 -0.000002 0.000001 0.000000 0.000000 -0.429894
    26 0.729365 0.000002 -0.000002 0.000000 0.000000 -0.234753
    27 3.942305 0.050327 0.431044 0.136996 -0.098616 -0.615904
    28 1.539099 -0.000002 0.000000 0.000000 0.000000 -0.346350
    29 1.196321 0.000008 0.000000 0.000000 0.000000 -0.575157
    30 3.883661 -0.050323 -0.431042 -0.085905 -0.026404 -0.587695
    31 1.719578 0.000004 0.000000 0.000000 -0.007974 -0.366436
    32 1.209185 0.000002 0.000000 0.000000 -0.004461 -0.216376
    33 3.859838 -0.148937 -1.331282 -0.354419 0.038567 -0.532001
    34 1.719423 0.000002 0.000000 0.000000 -0.006613 -0.362970
    35 1.099667 0.000002 0.000000 0.000000 -0.004211 -0.244312
    36 0.806021 -0.359837 -1.318334 1.203301 0.616014 -0.845207
    37 1.789782 0.000000 -0.000004 0.000000 0.000000 0.181370
    38 1.206999 0.000003 0.000002 0.000000 0.000000 0.294827
    39 -4.996094 -9.109375 -29.421875 1.570792 0.000003 -0.000003
    40 -4.409436 23.499476 20.165830 -0.040224 0.036565 0.049748
    41 -0.004455 -0.545139 -2.136547 0.000000 0.000000 0.000000
    42 0.009659 -6.406696 -21.608532 0.000000 0.000000 0.000000
  time 4
    0 -4.996094 -5.242188 -9.640625 -1.570781 -1.391896 -1.570809
    1 2.033349 1.000767 1.937660 1.596637 -1.286515 2.942961
    2 6.028141 0.000000 0.000000 -0.519802 -0.992601 -1.788766
    3 11.692554 0.000001 0.000002 0.000000 0.000000 -0.937329
    4 11.481674 0.000001 -0.000032 -0.287261 0.216552 0.221917
    5 3.859709 -0.142404 -1.191975 -0.472879 -0.150975 -1.496111
    6 1.312555 -0.000002 0.000001 0.000000 0.000000 -0.477245
    7 0.729363 -0.000002 -0.000002 0.000000 0.000000 -0.251577
    8 3.942335 0.046767 -0.431443 -0.256837 -0.157294 -1.047836
    9 1.539097 0.000000 0.000000 0.000000 0.000000 -0.532424
    10 1.196326 -0.000002 -0.000001 0.000000 0.000000 -0.655637
    11 3.883696 -0.046765 0.431443 -0.052149 -0.140537 -0.675870
    12 1.719570 -0.000004 -0.000001 0.000000 0.000003 -0.651328
    13 1.209171 -0.000002 0.000000 0.000000 0.000004 -0.442572
    14 3.859865 -0.137947 1.332466 0.235226 -0.164274 -0.569865
    15 1.719429 0.000002 -0.000001 0.000000 0.000011 -0.948712
    16 1.099665 0.000000 0.000000 0.000000 0.000007 -0.534672
    17 0.806053 -0.348925 1.321258 -0.871727 -0.561438 -1.328824
    18 1.789780 -0.000002 0.000002 0.000000 0.000000 0.284803
    19 1.207006 0.000000 0.000000 0.000000 0.000000 0.195385
    20 2.033356 1.000772 -1.937610 -1.668474 1.286518 2.942953
    21 6.028144 0.000000 0.000000 0.917304 0.001542 -1.163826
    22 11.692554 0.000001 0.000003 0.000000 0.000000 -0.492918
    23 11.481697 0.000001 0.000002 -1.839856 0.008434 0.043618
    24 3.859678 -0.132570 1.193109 0.452686 -0.203570 -0.743635
    25 1.312557 -0.000002 0.000001 0.000000 0.000000 -0.429894
    26 0.729365 0.000002 -0.000002 0.000000 0.000000 -0.234753
    27 3.942305 0.050327 0.431044 0.136996 -0.098616 -0.615904
    28 1.539099 -0.000002 0.000000 0.000000 0.000000 -0.346350
    29 1.196321 0.000008 0.000000 0.000000 0.000000 -0.575157
    30 3.883661 -0.050323 -0.431042 -0.085905 -0.026404 -0.587695
    31 1.719578 0.000004 0.000000 0.000000 -0.007974 -0.366436
    32 1.209185 0.000002 0.000000 0.000000 -0.004461 -0.216376
    33 3.859838 -0.148937 -1.331282 -0.354419 0.038567 -0.532001
    34 1.719423 0.000002 0.000000 0.000000 -0.006613 -0.362970
    35 1.099667 0.000002 0.000000 0.000000 -0.004211 -0.244312
    36 0.806021 -0.359837 -1.318334 1.203301 0.616014 -0.845207
    37 1.789782 0.000000 -0.000004 0.000000 0.000000 0.181370
    38 1.206999 0.000003 0.000002 0.000000 0.000000 0.294827
    39 -4.996094 -9.109375 -29.421875 1.570792 0.000003 -0.000003
    40 -4.636006 23.698701 20.115047 -0.061523 0.050227 0.083820
    41 -0.004455 -0.545139 -2.136547 0.000000 0.000000 0.000000
    42 0.009659 -6.406696 -21.608532 0.000000 0.000000 0.000000
  time 5
    0 -4.996094 -5.242188 -9.640625 -1.570781 -1.391896 -1.570809
    1 2.033349 1.000767 1.937660 1.596637 -1.286515 2.942961
    2 6.028141 0.000000 0.000000 -0.564571 -0.972389 -1.732146
    3 11.692554 0.000001 0.000002 0.000000 0.000000 -0.962016
    4 11.481674 0.000001 -0.000032 -0.227177 0.218601 0.224793
    5 3.859709 -0.142404 -1.191975 -0.461230 -0.112965 -1.560241
    6 1.312555 -0.000002 0.000001 0.000000 0.000000 -0.556071
    7 0.729363 -0.000002 -0.000002 0.000000 0.000000 -0.313266
    8 3.942335 0.046767 -0.431443 -0.257664 -0.164077 -1.088260
    9 1.539097 0.000000 0.000000 0.000000 0.000000 -0.584177
    10 1.196326 -0.000002 -0.000001 0.000000 0.000000 -0.642650
    11 3.883696 -0.046765 0.431443 -0.053742 -0.137158 -0.716593
    12 1.719570 -0.000004 -0.000001 0.000000 0.000003 -0.604565
    13 1.209171 -0.000002 0.000000 0.000000 0.000004 -0.372418
    14 3.859865 -0.137947 1.332466 0.234987 -0.150000 -0.608383
    15 1.719429 0.000002 -0.000001 0.000000 0.000011 -0.994706
    16 1.099665 0.000000 0.000000 0.000000 0.000007 -0.467880
    17 0.806053 -0.348925 1.321258 -0.830709 -0.525287 -1.321845
    18 1.789780 -0.000002 0.000002 0.000000 0.000000 0.295085
    19 1.207006 0.000000 0.000000 0.000000 0.000000 0.105428
    20 2.033356 1.000772 -1.937610 -1.668474 1.286518 2.942953
    21 6.028144 0.000000 0.000000 0.917304 0.001542 -1.163826
    22 11.692554 0.000001 0.000003 0.000000 0.000000 -0.492918
    23 11.481697 0.000001 0.000002 -1.839856 0.008434 0.043618
    24 3.859678 -0.132570 1.193109 0.452686 -0.203570 -0.743635
    25 1.312557 -0.000002 0.000001 0.000000 0.000000 -0.429894
    26 0.729365 0.000002 -0.000002 0.000000 0.000000 -0.234753
    27 3.942305 0.050327 0.431044 0.136996 -0.098616 -0.615904
    28 1.539099 -0.000002 0.000000 0.000000 0.000000 -0.346350
    29 1.196321 0.000008 0.000000 0.000000 0.000000 -0.575157
    30 3.883661 -0.050323 -0.431042 -0.085905 -0.026404 -0.587695
    31 1.719578 0.000004 0.000000 0.000000 -0.007974 -0.366436
    32 1.209185 0.000002 0.000000 0.000000 -0.004461 -0.216376
    33 3.859838 -0.148937 -1.331282 -0.354419 0.038567 -0.532001
    34 1.719423 0.000002 0.000000 0.000000 -0.006613 -0.362970
    35 1.099667 0.000002 0.000000 0.000000 -0.004211 -0.244312
    36 0.806021 -0.359837 -1.318334 1.203301 0.616014 -0.845207
    37 1.789782 0.000000 -0.000004 0.000000 0.000000 0.181370
    38 1.206999 0.000003 0.000002 0.000000 0.000000 0.294827
    39 -4.996094 -9.109375 -29.421875 1.570792 0.000003 -0.000003
    40 -4.866482 23.897926 20.060358 -0.080583 0.057454 0.120757
    41 -0.004455 -0.545139 -2.136547 0.000000 0.000000 0.000000
    42 0.009659 -6.406696 -21.608532 0.000000 0.000000 0.000000
  time 6
    0 -4.996094 -5.242188 -9.640625 -1.570781 -1.391896 -1.570809
    1 2.033349 1.000767 1.937660 1.596637 -1.286515 2.942961
    2 6.028141 0.000000 0.000000 -0.608168 -0.950035 -1.676278
    3 11.692554 0.000001 0.000002 0.000000 0.000000 -0.984260
    4 11.481674 0.000001 -0.000032 -0.169250 0.218038 0.224005
    5 3.859709 -0.142404 -1.191975 -0.450372 -0.076794 -1.619117
    6 1.312555 -0.000002 0.000001 0.000000 0.000000 -0.629513
    7 0.729363 -0.000002 -0.000002 0.000000 0.000000 -0.370725
    8 3.942335 0.046767 -0.431443 -0.258179 -0.170417 -1.125964
    9 1.539097 0.000000 0.000000 0.000000 0.000000 -0.640920
    10 1.196326 -0.000002 -0.000001 0.000000 0.000000 -0.629322
    11 3.883696 -0.046765 0.431443 -0.055360 -0.134078 -0.754536
    12 1.719570 -0.000004 -0.000001 0.000000 0.000003 -0.567760
    13 1.209171 -0.000002 0.000000 0.000000 0.000004 -0.313129
    14 3.859865 -0.137947 1.332466 0.234256 -0.136709 -0.644217
    15 1.719429 0.000002 -0.000001 0.000000 0.000011 -1.045160
    16 1.099665 0.000000 0.000000 0.000000 0.000007 -0.411792
    17 0.806053 -0.348925 1.321258 -0.801142 -0.455828 -1.295539
    18 1.789780 -0.000002 0.000002 0.000000 0.000000 0.304673
    19 1.207006 0.000000 0.000000 0.000000 0.000000 0.048713
    20 2.033356 1.000772 -1.937610 -1.668474 1.286518 2.942953
    21 6.028144 0.000000 0.000000 0.917304 0.001542 -1.163826
    22 11.692554 0.000001 0.000003 0.000000 0.000000 -0.492918
    23 11.481697 0.000001 0.000002 -1.839856 0.008434 0.043618
    24 3.859678 -0.132570 1.193109 0.452686 -0.203570 -0.743635
    25 1.312557 -0.000002 0.000001 0.000000 0.000000 -0.429894
    26 0.729365 0.000002 -0.000002 0.000000 0.000000 -0.234753
    27 3.942305 0.050327 0.431044 0.136996 -0.098616 -0.615904
    28 1.539099 -0.000002 0.000000 0.000000 0.000000 -0.346350
    29 1.196321 0.000008 0.000000 0.000000 0.000000 -0.575157
    30 3.883661 -0.050323 -0.431042 -0.085905 -0.026404 -0.587695
    31 1.719578 0.000004 0.000000 0.000000 -0.007974 -0.366436
    32 1.209185 0.000002 0.000000 0.000000 -0.004461 -0.216376
    33 3.859838 -0.148937 -1.331282 -0.354419 0.038567 -0.532001
    34 1.719423 0.000002 0.000000 0.000000 -0.006613 -0.362970
    35 1.099667 0.000002 0.000000 0.000000 -0.004211 -0.244312
    36 0.806021 -0.359837 -1.318334 1.203301 0.616014 -0.845207
    37 1.789782 0.000000 -0.000004 0.000000 0.000000 0.181370
    38 1.206999 0.000003 0.000002 0.000000 0.000000 0.294827
    39 -4.996094 -9.109375 -29.421875 1.570792 0.000003 -0.000003
    40 -5.065706 24.073713 20.017388 -0.094221 0.057849 0.154769
    41 -0.004455 -0.545139 -2.136547 0.000000 0.000000 0.000000
    42 0.009659 -6.406696 -21.608532 0.000000 0.000000 0.000000
  time 7
    0 -4.996094 -5.242188 -9.640625 -1.570781 -1.391896 -1.570809
    1 2.033349 1.000767 1.937660 1.596637 -1.286515 2.942961
    2 6.028141 0.000000 0.000000 -0.648783 -0.926251 -1.623207
    3 11.692554 0.000001 0.000002 0.000000 0.000000 -1.003353
    4 11.481674 0.000001 -0.000032 -0.119234 0.213747 0.218055
    5 3.859709 -0.142404 -1.191975 -0.441563 -0.046792 -1.666332
    6 1.312555 -0.000002 0.000001 0.000000 0.000000 -0.689242
    7 0.729363 -0.000002 -0.000002 0.000000 0.000000 -0.417478
    8 3.942335 0.046767 -0.431443 -0.258419 -0.175582 -1.156644
    9 1.539097 0.000000 0.000000 0.000000 0.000000 -0.700268
    10 1.196326 -0.000002 -0.000001 0.000000 0.000000 -0.616639
    11 3.883696 -0.046765 0.431443 -0.056763 -0.131609 -0.785385
    12 1.719570 -0.000004 -0.000001 0.000000 0.000003 -0.548450
    13 1.209171 -0.000002 0.000000 0.000000 0.000004 -0.274277
    14 3.859865 -0.137947 1.332466 0.233309 -0.125935 -0.673316
    15 1.719429 0.000002 -0.000001 0.000000 0.000011 -1.097903
    16 1.099665 0.000000 0.000000 0.000000 0.000007 -0.375745
    17 0.806053 -0.348925 1.321258 -0.834918 -0.334144 -1.234706
    18 1.789780 -0.000002 0.000002 0.000000 0.000000 0.312463
    19 1.207006 0.000000 0.000000 0.000000 0.000000 0.249907
    20 2.033356 1.000772 -1.937610 -1.668474 1.286518 2.942953
    21 6.028144 0.000000 0.000000 0.917304 0.001542 -1.163826
    22 11.692554 0.000001 0.000003 0.000000 0.000000 -0.492918
    23 11.481697 0.000001 0.000002 -1.839856 0.008434 0.043618
    24 3.859678 -0.132570 1.193109 0.452686 -0.203570 -0.743635
    25 1.312557 -0.000002 0.000001 0.000000 0.000000 -0.429894
    26 0.729365 0.000002 -0.000002 0.000000 0.000000 -0.234753
    27 3.942305 0.050327 0.431044 0.136996 -0.098616 -0.615904
    28 1.539099 -0.000002 0.000000 0.000000 0.000000 -0.346350
    29 1.196321 0.000008 0.000000 0.000000 0.000000 -0.575157
    30 3.883661 -0.050323 -0.431042 -0.085905 -0.026404 -0.587695
    31 1.719578 0.000004 0.000000 0.000000 -0.007974 -0.366436
    32 1.209185 0.000002 0.000000 0.000000 -0.004461 -0.216376
    33 3.859838 -0.148937 -1.331282 -0.354419 0.038567 -0.532001
    34 1.719423 0.000002 0.000000 0.000000 -0.006613 -0.362970
    35 1.099667 0.000002 0.000000 0.000000 -0.004211 -0.244312
    36 0.806021 -0.359837 -1.318334 1.203301 0.616014 -0.845207
    37 1.789782 0.000000 -0.000004 0.000000 0.000000 0.181370
    38 1.206999 0.000003 0.000002 0.000000 0.000000 0.294827
    39 -4.996094 -9.109375 -29.421875 1.570792 0.000003 -0.000003
    40 -5.206336 24.198717 19.986137 -0.099523 0.054074 0.179781
    41 -0.004455 -0.545139 -2.136547 0.000000 0.000000 0.000000
    42 0.009659 -6.406696 -21.608532 0.000000 0.000000 0.000000
  time 8
    0 -4.996094 -5.242188 -9.640625 -1.570781 -1.391896 -1.570809
    1 2.033349 1.000767 1.937660 1.596637 -1.286515 2.942961
    2 6.028141 0.000000 0.000000 -0.685293 -0.901820 -1.574270
    3 11.692554 0.000001 0.000002 0.000000 0.000000 -1.018782
    4 11.481674 0.000001 -0.000032 -0.082480 0.204567 0.205366
    5 3.859709 -0.142404 -1.191975 -0.436026 -0.027618 -1.695769
    6 1.312555 -0.000002 0.000001 0.000000 0.000000 -0.726874
    7 0.729363 -0.000002 -0.000002 0.000000 0.000000 -0.446932
    8 3.942335 0.046767 -0.431443 -0.258491 -0.178842 -1.175999
    9 1.539097 0.000000 0.000000 0.000000 0.000000 -0.759836
    10 1.196326 -0.000002 -0.000001 0.000000 0.000000 -0.605513
    11 3.883696 -0.046765 0.431443 -0.057673 -0.130087 -0.804824
    12 1.719570 -0.000004 -0.000001 0.000000 0.000003 -0.554013
    13 1.209171 -0.000002 0.000000 0.000000 0.000004 -0.265546
    14 3.859865 -0.137947 1.332466 0.232554 -0.119152 -0.691628
    15 1.719429 0.000002 -0.000001 0.000000 0.000011 -1.150854
    16 1.099665 0.000000 0.000000 0.000000 0.000007 -0.369038
    17 0.806053 -0.348925 1.321258 -0.867418 -0.241423 -1.196279
    18 1.789780 -0.000002 0.000002 0.000000 0.000000 0.317365
    19 1.207006 0.000000 0.000000 0.000000 0.000000 0.437719
    20 2.033356 1.000772 -1.937610 -1.668474 1.286518 2.942953
    21 6.028144 0.000000 0.000000 0.917304 0.001542 -1.163826
    22 11.692554 0.000001 0.000003 0.000000 0.000000 -0.492918
    23 11.481697 0.000001 0.000002 -1.839856 0.008434 0.043618
    24 3.859678 -0.132570 1.193109 0.452686 -0.203570 -0.743635
    25 1.312557 -0.000002 0.000001 0.000000 0.000000 -0.429894
    26 0.729365 0.000002 -0.000002 0.000000 0.000000 -0.234753
    27 3.942305 0.050327 0.431044 0.136996 -0.098616 -0.615904
    28 1.539099 -0.000002 0.000000 0.000000 0.000000 -0.346350
    29 1.196321 0.000008 0.000000 0.000000 0.000000 -0.575157
    30 3.883661 -0.050323 -0.431042 -0.085905 -0.026404 -0.587695
    31 1.719578 0.000004 0.000000 0.000000 -0.007974 -0.366436
    32 1.209185 0.000002 0.000000 0.000000 -0.004461 -0.216376
    33 3.859838 -0.148937 -1.331282 -0.354419 0.038567 -0.532001
    34 1.719423 0.000002 0.000000 0.000000 -0.006613 -0.362970
    35 1.099667 0.000002 0.000000 0.000000 -0.004211 -0.244312
    36 0.806021 -0.359837 -1.318334 1.203301 0.616014 -0.845207
    37 1.789782 0.000000 -0.000004 0.000000 0.000000 0.181370
    38 1.206999 0.000003 0.000002 0.000000 0.000000 0.294827
    39 -4.996094 -9.109375 -29.421875 1.570792 0.000003 -0.000003
    40 -5.261025 24.245593 19.974418 -0.094011 0.050515 0.190387
    41 -0.004455 -0.545139 -2.136547 0.000000 0.000000 0.000000
    42 0.009659 -6.406696 -21.608532 0.000000 0.000000 0.000000
  time 9
    0 -4.996094 -5.242188 -9.640625 -1.570781 -1.391896 -1.570809
    1 2.033349 1.000767 1.937660 1.596637 -1.286515 2.942961
    2 6.028141 0.000000 0.000000 -0.716964 -0.877526 -1.530302
    3 11.692554 0.000001 0.000002 0.000000 0.000000 -1.030547
    4 11.481674 0.000001 -0.000032 -0.053317 0.189622 0.185111
    5 3.859709 -0.142404 -1.191975 -0.434013 -0.019597 -1.713050
    6 1.312555 -0.000002 0.000001 0.000000 0.000000 -0.738070
    7 0.729363 -0.000002 -0.000002 0.000000 0.000000 -0.451809
    8 3.942335 0.046767 -0.431443 -0.258539 -0.181538 -1.184772
    9 1.539097 0.000000 0.000000 0.000000 0.000000 -0.817270
    10 1.196326 -0.000002 -0.000001 0.000000 0.000000 -0.596931
    11 3.883696 -0.046765 0.431443 -0.058093 -0.129404 -0.813465
    12 1.719570 -0.000004 -0.000001 0.000000 0.000003 -0.629237
    13 1.209171 -0.000002 0.000000 0.000000 0.000004 -0.334938
    14 3.859865 -0.137947 1.332466 0.232170 -0.116144 -0.699778
    15 1.719429 0.000002 -0.000001 0.000000 0.000011 -1.201932
    16 1.099665 0.000000 0.000000 0.000000 0.000007 -0.439284
    17 0.806053 -0.348925 1.321258 -0.872970 -0.231363 -1.191958
    18 1.789780 -0.000002 0.000002 0.000000 0.000000 0.319546
    19 1.207006 0.000000 0.000000 0.000000 0.000000 0.462676
    20 2.033356 1.000772 -1.937610 -1.668474 1.286518 2.942953
    21 6.028144 0.000000 0.000000 0.917304 0.001542 -1.163826
    22 11.692554 0.000001 0.000003 0.000000 0.000000 -0.492918
    23 11.481697 0.000001 0.000002 -1.839856 0.008434 0.043618
    24 3.859678 -0.132570 1.193109 0.452686 -0.203570 -0.743635
    25 1.312557 -0.000002 0.000001 0.000000 0.000000 -0.429894
    26 0.729365 0.000002 -0.000002 0.000000 0.000000 -0.234753
    27 3.942305 0.050327 0.431044 0.136996 -0.098616 -0.615904
    28 1.539099 -0.000002 0.000000 0.000000 0.000000 -0.346350
    29 1.196321 0.000008 0.000000 0.000000 0.000000 -0.575157
    30 3.883661 -0.050323 -0.431042 -0.085905 -0.026404 -0.587695
    31 1.719578 0.000004 0.000000 0.000000 -0.007974 -0.366436
    32 1.209185 0.000002 0.000000 0.000000 -0.004461 -0.216376
    33 3.859838 -0.148937 -1.331282 -0.354419 0.038567 -0.532001
    34 1.719423 0.000002 0.000000 0.000000 -0.006613 -0.362970
    35 1.099667 0.000002 0.000000 0.000000 -0.004211 -0.244312
    36 0.806021 -0.359837 -1.318334 1.203301 0.616014 -0.845207
    37 1.789782 0.000000 -0.000004 0.000000 0.000000 0.181370
    38 1.206999 0.000003 0.000002 0.000000 0.000000 0.294827
    39 -4.996094 -9.109375 -29.421875 1.570792 0.000003 -0.000003
    40 -5.261025 24.245593 19.974418 -0.088604 0.049592 0.191801
    41 -0.004455 -0.545139 -2.136547 0.000000 0.000000 0.000000
    42 0.009659 -6.406696 -21.608532 0.000000 0.000000 0.000000
  time 10
    0 -4.996094 -5.242188 -9.640625 -1.570781 -1.391896 -1.570809
    1 2.033349 1.000767 1.937660 1.596637 -1.286515 2.942961
    2 6.028141 0.000000 0.000000 -0.743504 -0.854184 -1.491678
    3 11.692554 0.000001 0.000002 0.000000 0.000000 -1.038969
    4 11.481674 0.000001 -0.000032 -0.022556 0.169548 0.158472
    5 3.859709 -0.142404 -1.191975 -0.434420 -0.018738 -1.726723
    6 1.312555 -0.000002 0.000001 0.000000 0.000000 -0.728910
    7 0.729363 -0.000002 -0.000002 0.000000 0.000000 -0.435234
    8 3.942335 0.046767 -0.431443 -0.258623 -0.184966 -1.187409
    9 1.539097 0.000000 0.000000 0.000000 0.000000 -0.870185
    10 1.196326 -0.000002 -0.000001 0.000000 0.000000 -0.591767
    11 3.883696 -0.046765 0.431443 -0.058201 -0.129236 -0.815694
    12 1.719570 -0.000004 -0.000001 0.000000 0.000003 -0.774323
    13 1.209171 -0.000002 0.000000 0.000000 0.000004 -0.481729
    14 3.859865 -0.137947 1.332466 0.232074 -0.115377 -0.701887
    15 1.719429 0.000002 -0.000001 0.000000 0.000011 -1.248937
    16 1.099665 0.000000 0.000000 0.000000 0.000007 -0.585820
    17 0.806053 -0.348925 1.321258 -0.874892 -0.232566 -1.191691
    18 1.789780 -0.000002 0.000002 0.000000 0.000000 0.320109
    19 1.207006 0.000000 0.000000 0.000000 0.000000 0.472058
    20 2.033356 1.000772 -1.937610 -1.668474 1.286518 2.942953
    21 6.028144 0.000000 0.000000 0.917304 0.001542 -1.163826
    22 11.692554 0.000001 0.000003 0.000000 0.000000 -0.492918
    23 11.481697 0.000001 0.000002 -1.839856 0.008434 0.043618
    24 3.859678 -0.132570 1.193109 0.452686 -0.203570 -0.743635
    25 1.312557 -0.000002 0.000001 0.000000 0.000000 -0.429894
    26 0.729365 0.000002 -0.000002 0.000000 0.000000 -0.234753
    27 3.942305 0.050327 0.431044 0.136996 -0.098616 -0.615904
    28 1.539099 -0.000002 0.000000 0.000000 0.000000 -0.346350
    29 1.196321 0.000008 0.000000 0.000000 0.000000 -0.575157
    30 3.883661 -0.050323 -0.431042 -0.085905 -0.026404 -0.587695
    31 1.719578 0.000004 0.000000 0.000000 -0.007974 -0.366436
    32 1.209185 0.000002 0.000000 0.000000 -0.004461 -0.216376
    33 3.859838 -0.148937 -1.331282 -0.354419 0.038567 -0.532001
    34 1.719423 0.000002 0.000000 0.000000 -0.006613 -0.362970
    35 1.099667 0.000002 0.000000 0.000000 -0.004211 -0.244312
    36 0.806021 -0.359837 -1.318334 1.203301 0.616014 -0.845207
    37 1.789782 0.000000 -0.000004 0.000000 0.000000 0.181370
    38 1.206999 0.000003 0.000002 0.000000 0.000000 0.294827
    39 -4.996094 -9.109375 -29.421875 1.570792 0.000003 -0.000003
    40 -5.264931 24.245593 19.970511 -0.086305 0.049172 0.192928
    41 -0.004455 -0.545139 -2.136547 0.000000 0.000000 0.000000
    42 0.009659 -6.406696 -21.608532 0.000000 0.000000 0.000000
  time 11
    0 -4.996094 -5.242188 -9.640625 -1.570781 -1.391896 -1.570809
    1 2.033349 1.000767 1.937660 1.596637 -1.286515 2.942961
    2 6.028141 0.000000 0.000000 -0.764813 -0.832442 -1.458525
    3 11.692554 0.000001 0.000002 0.000000 0.000000 -1.044691
    4 11.481674 0.000001 -0.000032 0.009643 0.145435 0.127144
    5 3.859709 -0.142404 -1.191975 -0.436494 -0.023275 -1.735220
    6 1.312555 -0.000002 0.000001 0.000000 0.000000 -0.706732
    7 0.729363 -0.000002 -0.000002 0.000000 0.000000 -0.406199
    8 3.942335 0.046767 -0.431443 -0.258742 -0.188238 -1.185048
    9 1.539097 0.000000 0.000000 0.000000 0.000000 -0.916194
    10 1.196326 -0.000002 -0.000001 0.000000 0.000000 -0.590970
    11 3.883696 -0.046765 0.431443 -0.058069 -0.129451 -0.812830
    12 1.719570 -0.000004 -0.000001 0.000000 0.000003 -0.929568
    13 1.209171 -0.000002 0.000000 0.000000 0.000004 -0.642246
    14 3.859865 -0.137947 1.332466 0.232206 -0.116371 -0.699179
    15 1.719429 0.000002 -0.000001 0.000000 0.000011 -1.289847
    16 1.099665 0.000000 0.000000 0.000000 0.000007 -0.745570
    17 0.806053 -0.348925 1.321258 -0.874693 -0.241764 -1.194195
    18 1.789780 -0.000002 0.000002 0.000000 0.000000 0.319390
    19 1.207006 0.000000 0.000000 0.000000 0.000000 0.469167
    20 2.033356 1.000772 -1.937610 -1.668474 1.286518 2.942953
    21 6.028144 0.000000 0.000000 0.917304 0.001542 -1.163826
    22 11.692554 0.000001 0.000003 0.000000 0.000000 -0.492918
    23 11.481697 0.000001 0.000002 -1.839856 0.008434 0.043618
    24 3.859678 -0.132570 1.193109 0.452686 -0.203570 -0.743635
    25 1.312557 -0.000002 0.000001 0.000000 0.000000 -0.429894
    26 0.729365 0.000002 -0.000002 0.000000 0.000000 -0.234753
    27 3.942305 0.050327 0.431044 0.136996 -0.098616 -0.615904
    28 1.539099 -0.000002 0.000000 0.000000 0.000000 -0.346350
    29 1.196321 0.000008 0.000000 0.000000 0.000000 -0.575157
    30 3.883661 -0.050323 -0.431042 -0.085905 -0.026404 -0.587695
    31 1.719578 0.000004 0.000000 0.000000 -0.007974 -0.366436
    32 1.209185 0.000002 0.000000 0.000000 -0.004461 -0.216376
    33 3.859838 -0.148937 -1.331282 -0.354419 0.038567 -0.532001
    34 1.719423 0.000002 0.000000 0.000000 -0.006613 -0.362970
    35 1.099667 0.000002 0.000000 0.000000 -0.004211 -0.244312
    36 0.806021 -0.359837 -1.318334 1.203301 0.616014 -0.845207
    37 1.789782 0.000000 -0.000004 0.000000 0.000000 0.181370
    38 1.206999 0.000003 0.000002 0.000000 0.000000 0.294827
    39 -4.996094 -9.109375 -29.421875 1.570792 0.000003 -0.000003
    40 -5.272744 24.245593 19.970511 -0.085059 0.048897 0.193887
    41 -0.004455 -0.545139 -2.136547 0.000000 0.000000 0.000000
    42 0.009659 -6.406696 -21.608532 0.000000 0.000000 0.000000
  time 12
    0 -4.996094 -5.242188 -9.640625 -1.570781 -1.391896 -1.570809
    1 2.033349 1.000767 1.937660 1.596637 -1.286515 2.942961
    2 6.028141 0.000000 0.000000 -0.780991 -0.812911 -1.430674
    3 11.692554 0.000001 0.000002 0.000000 0.000000 -1.048741
    4 11.481674 0.000001 -0.000032 0.042961 0.118422 0.092742
    5 3.859709 -0.142404 -1.191975 -0.439562 -0.031453 -1.736867
    6 1.312555 -0.000002 0.000001 0.000000 0.000000 -0.678823
    7 0.729363 -0.000002 -0.000002 0.000000 0.000000 -0.373850
    8 3.942335 0.046767 -0.431443 -0.258850 -0.190527 -1.178888
    9 1.539097 0.000000 0.000000 0.000000 0.000000 -0.952946
    10 1.196326 -0.000002 -0.000001 0.000000 0.000000 -0.595488
    11 3.883696 -0.046765 0.431443 -0.057745 -0.129979 -0.806190
    12 1.719570 -0.000004 -0.000001 0.000000 0.000003 -1.035348
    13 1.209171 -0.000002 0.000000 0.000000 0.000004 -0.752816
    14 3.859865 -0.137947 1.332466 0.232494 -0.118684 -0.692923
    15 1.719429 0.000002 -0.000001 0.000000 0.000011 -1.322491
    16 1.099665 0.000000 0.000000 0.000000 0.000007 -0.855477
    17 0.806053 -0.348925 1.321258 -0.873765 -0.255705 -1.198286
    18 1.789780 -0.000002 0.000002 0.000000 0.000000 0.317712
    19 1.207006 0.000000 0.000000 0.000000 0.000000 0.457360
    20 2.033356 1.000772 -1.937610 -1.668474 1.286518 2.942953
    21 6.028144 0.000000 0.000000 0.917304 0.001542 -1.163826
    22 11.692554 0.000001 0.000003 0.000000 0.000000 -0.492918
    23 11.481697 0.000001 0.000002 -1.839856 0.008434 0.043618
    24 3.859678 -0.132570 1.193109 0.452686 -0.203570 -0.743635
    25 1.312557 -0.000002 0.000001 0.000000 0.000000 -0.429894
    26 0.729365 0.000002 -0.000002 0.000000 0.000000 -0.234753
    27 3.942305 0.050327 0.431044 0.136996 -0.098616 -0.615904
    28 1.539099 -0.000002 0.000000 0.000000 0.000000 -0.346350
    29 1.196321 0.000008 0.000000 0.000000 0.000000 -0.575157
    30 3.883661 -0.050323 -0.431042 -0.085905 -0.026404 -0.587695
    31 1.719578 0.000004 0.000000 0.000000 -0.007974 -0.366436
    32 1.209185 0.000002 0.000000 0.000000 -0.004461 -0.216376
    33 3.859838 -0.148937 -1.331282 -0.354419 0.038567 -0.532001
    34 1.719423 0.000002 0.000000 0.000000 -0.006613 -0.362970
    35 1.099667 0.000002 0.000000 0.000000 -0.004211 -0.244312
    36 0.806021 -0.359837 -1.318334 1.203301 0.616014 -0.845207
    37 1.789782 0.000000 -0.000004 0.000000 0.000000 0.181370
    38 1.206999 0.000003 0.000002 0.000000 0.000000 0.294827
    39 -4.996094 -9.109375 -29.421875 1.570792 0.000003 -0.000003
    40 -5.280557 24.245593 19.970511 -0.084428 0.048681 0.194678
    41 -0.004455 -0.545139 -2.136547 0.000000 0.000000 0.000000
    42 0.009659 -6.406696 -21.608532 0.000000 0.000000 0.000000
  time 13
    0 -4.996094 -5.242188 -9.640625 -1.570781 -1.391896 -1.570809
    1 2.033349 1.000767 1.937660 1.596637 -1.286515 2.942961
    2 6.028141 0.000000 0.000000 -0.792135 -0.796000 -1.407959
    3 11.692554 0.000001 0.000002 0.000000 0.000000 -1.052277
    4 11.481674 0.000001 -0.000032 0.076838 0.089767 0.056882
    5 3.859709 -0.142404 -1.191975 -0.442953 -0.041481 -1.729965
    6 1.312555 -0.000002 0.000001 0.000000 0.000000 -0.652494
    7 0.729363 -0.000002 -0.000002 0.000000 0.000000 -0.347139
    8 3.942335 0.046767 -0.431443 -0.258886 -0.190970 -1.170103
    9 1.539097 0.000000 0.000000 0.000000 0.000000 -0.960886
    10 1.196326 -0.000002 -0.000001 0.000000 0.000000 -0.606311
    11 3.883696 -0.046765 0.431443 -0.057314 -0.130686 -0.797094
    12 1.719570 -0.000004 -0.000001 0.000000 0.000003 -1.072678
    13 1.209171 -0.000002 0.000000 0.000000 0.000004 -0.794146
    14 3.859865 -0.137947 1.332466 0.232865 -0.121848 -0.684354
    15 1.719429 0.000002 -0.000001 0.000000 0.000011 -1.337238
    16 1.099665 0.000000 0.000000 0.000000 0.000007 -0.896242
    17 0.806053 -0.348925 1.321258 -0.873600 -0.271095 -1.202741
    18 1.789780 -0.000002 0.000002 0.000000 0.000000 0.315411
    19 1.207006 0.000000 0.000000 0.000000 0.000000 0.439939
    20 2.033356 1.000772 -1.937610 -1.668474 1.286518 2.942953
    21 6.028144 0.000000 0.000000 0.917304 0.001542 -1.163826
    22 11.692554 0.000001 0.000003 0.000000 0.000000 -0.492918
    23 11.481697 0.000001 0.000002 -1.839856 0.008434 0.043618
    24 3.859678 -0.132570 1.193109 0.452686 -0.203570 -0.743635
    25 1.312557 -0.000002 0.000001 0.000000 0.000000 -0.429894
    26 0.729365 0.000002 -0.000002 0.000000 0.000000 -0.234753
    27 3.942305 0.050327 0.431044 0.136996 -0.098616 -0.615904
    28 1.539099 -0.000002 0.000000 0.000000 0.000000 -0.346350
    29 1.196321 0.000008 0.000000 0.000000 0.000000 -0.575157
    30 3.883661 -0.050323 -0.431042 -0.085905 -0.026404 -0.587695
    31 1.719578 0.000004 0.000000 0.000000 -0.007974 -0.366436
    32 1.209185 0.000002 0.000000 0.000000 -0.004461 -0.216376
    33 3.859838 -0.148937 -1.331282 -0.354419 0.038567 -0.532001
    34 1.719423 0.000002 0.000000 0.000000 -0.006613 -0.362970
    35 1.099667 0.000002 0.000000 0.000000 -0.004211 -0.244312
    36 0.806021 -0.359837 -1.318334 1.203301 0.616014 -0.845207
    37 1.789782 0.000000 -0.000004 0.000000 0.000000 0.181370
    38 1.206999 0.000003 0.000002 0.000000 0.000000 0.294827
    39 -4.996094 -9.109375 -29.421875 1.570792 0.000003 -0.000003
    40 -5.288369 24.249499 19.966605 -0.084248 0.048513 0.195349
    41 -0.004455 -0.545139 -2.136547 0.000000 0.000000 0.000000
    42 0.009659 -6.406696 -21.608532 0.000000 0.000000 0.000000
  time 14
    0 -4.996094 -5.242188 -9.640625 -1.570781 -1.391896 -1.570809
    1 2.033349 1.000767 1.937660 1.596637 -1.286515 2.942961
    2 6.028141 0.000000 0.000000 -0.798342 -0.782084 -1.390255
    3 11.692554 0.000001 0.000002 0.000000 0.000000 -1.056520
    4 11.481674 0.000001 -0.000032 0.110316 0.060812 0.021022
    5 3.859709 -0.142404 -1.191975 -0.445901 -0.051498 -1.712789
    6 1.312555 -0.000002 0.000001 0.000000 0.000000 -0.635084
    7 0.729363 -0.000002 -0.000002 0.000000 0.000000 -0.335175
    8 3.942335 0.046767 -0.431443 -0.258826 -0.188729 -1.159856
    9 1.539097 0.000000 0.000000 0.000000 0.000000 -0.940423
    10 1.196326 -0.000002 -0.000001 0.000000 0.000000 -0.624310
    11 3.883696 -0.046765 0.431443 -0.056822 -0.131489 -0.786883
    12 1.719570 -0.000004 -0.000001 0.000000 0.000003 -1.074331
    13 1.209171 -0.000002 0.000000 0.000000 0.000004 -0.801009
    14 3.859865 -0.137947 1.332466 0.233261 -0.125408 -0.674730
    15 1.719429 0.000002 -0.000001 0.000000 0.000011 -1.331768
    16 1.099665 0.000000 0.000000 0.000000 0.000007 -0.902367
    17 0.806053 -0.348925 1.321258 -0.875688 -0.284736 -1.206163
    18 1.789780 -0.000002 0.000002 0.000000 0.000000 0.312835
    19 1.207006 0.000000 0.000000 0.000000 0.000000 0.420221
    20 2.033356 1.000772 -1.937610 -1.668474 1.286518 2.942953
    21 6.028144 0.000000 0.000000 0.917304 0.001542 -1.163826
    22 11.692554 0.000001 0.000003 0.000000 0.000000 -0.492918
    23 11.481697 0.000001 0.000002 -1.839856 0.008434 0.043618
    24 3.859678 -0.132570 1.193109 0.452686 -0.203570 -0.743635
    25 1.312557 -0.000002 0.000001 0.000000 0.000000 -0.429894
    26 0.729365 0.000002 -0.000002 0.000000 0.000000 -0.234753
    27 3.942305 0.050327 0.431044 0.136996 -0.098616 -0.615904
    28 1.539099 -0.000002 0.000000 0.000000 0.000000 -0.346350
    29 1.196321 0.000008 0.000000 0.000000 0.000000 -0.575157
    30 3.883661 -0.050323 -0.431042 -0.085905 -0.026404 -0.587695
    31 1.719578 0.000004 0.000000 0.000000 -0.007974 -0.366436
    32 1.209185 0.000002 0.000000 0.000000 -0.004461 -0.216376
    33 3.859838 -0.148937 -1.331282 -0.354419 0.038567 -0.532001
    34 1.719423 0.000002 0.000000 0.000000 -0.006613 -0.362970
    35 1.099667 0.000002 0.000000 0.000000 -0.004211 -0.244312
    36 0.806021 -0.359837 -1.318334 1.203301 0.616014 -0.845207
    37 1.789782 0.000000 -0.000004 0.000000 0.000000 0.181370
    38 1.206999 0.000003 0.000002 0.000000 0.000000 0.294827
    39 -4.996094 -9.109375 -29.421875 1.570792 0.000003 -0.000003
    40 -5.296182 24.249499 19.966605 -0.084383 0.048358 0.195888
    41 -0.004455 -0.545139 -2.136547 0.000000 0.000000 0.000000
    42 0.009659 -6.406696 -21.608532 0.000000 0.000000 0.000000
  time 15
    0 -4.996094 -5.242188 -9.640625 -1.570781 -1.391896 -1.570809
    1 2.033349 1.000767 1.937660 1.596637 -1.286515 2.942961
    2 6.028141 0.000000 0.000000 -0.799759 -0.771468 -1.377436
    3 11.692554 0.000001 0.000002 0.000000 0.000000 -1.062884
    4 11.481674 0.000001 -0.000032 0.142115 0.032876 -0.013498
    5 3.859709 -0.142404 -1.191975 -0.447459 -0.059519 -1.683508
    6 1.312555 -0.000002 0.000001 0.000000 0.000000 -0.633933
    7 0.729363 -0.000002 -0.000002 0.000000 0.000000 -0.347025
    8 3.942335 0.046767 -0.431443 -0.258647 -0.182929 -1.149346
    9 1.539097 0.000000 0.000000 0.000000 0.000000 -0.918862
    10 1.196326 -0.000002 -0.000001 0.000000 0.000000 -0.650473
    11 3.883696 -0.046765 0.431443 -0.056367 -0.132292 -0.776876
    12 1.719570 -0.000004 -0.000001 0.000000 0.000003 -1.058528
    13 1.209171 -0.000002 0.000000 0.000000 0.000004 -0.790753
    14 3.859865 -0.137947 1.332466 0.233596 -0.128907 -0.665286
    15 1.719429 0.000002 -0.000001 0.000000 0.000011 -1.315148
    16 1.099665 0.000000 0.000000 0.000000 0.000007 -0.891302
    17 0.806053 -0.348925 1.321258 -0.881637 -0.293401 -1.207023
    18 1.789780 -0.000002 0.000002 0.000000 0.000000 0.310306
    19 1.207006 0.000000 0.000000 0.000000 0.000000 0.401535
    20 2.033356 1.000772 -1.937610 -1.668474 1.286518 2.942953
    21 6.028144 0.000000 0.000000 0.917304 0.001542 -1.163826
    22 11.692554 0.000001 0.000003 0.000000 0.000000 -0.492918
    23 11.481697 0.000001 0.000002 -1.839856 0.008434 0.043618
    24 3.859678 -0.132570 1.193109 0.452686 -0.203570 -0.743635
    25 1.312557 -0.000002 0.000001 0.000000 0.000000 -0.429894
    26 0.729365 0.000002 -0.000002 0.000000 0.000000 -0.234753
    27 3.942305 0.050327 0.431044 0.136996 -0.098616 -0.615904
    28 1.539099 -0.000002 0.000000 0.000000 0.000000 -0.346350
    29 1.196321 0.000008 0.000000 0.000000 0.000000 -0.575157
    30 3.883661 -0.050323 -0.431042 -0.085905 -0.026404 -0.587695
    31 1.719578 0.000004 0.000000 0.000000 -0.007974 -0.366436
    32 1.209185 0.000002 0.000000 0.000000 -0.004461 -0.216376
    33 3.859838 -0.148937 -1.331282 -0.354419 0.038567 -0.532001
    34 1.719423 0.000002 0.000000 0.000000 -0.006613 -0.362970
    35 1.099667 0.000002 0.000000 0.000000 -0.004211 -0.244312
    36 0.806021 -0.359837 -1.318334 1.203301 0.616014 -0.845207
    37 1.789782 0.000000 -0.000004 0.000000 0.000000 0.181370
    38 1.206999 0.000003 0.000002 0.000000 0.000000 0.294827
    39 -4.996094 -9.109375 -29.421875 1.570792 0.000003 -0.000003
    40 -5.307901 24.253406 19.962699 -0.084758 0.048238 0.196308
    41 -0.004455 -0.545139 -2.136547 0.000000 0.000000 0.000000
    42 0.009659 -6.406696 -21.608532 0.000000 0.000000 0.000000
end
