// Created by Crowbar 0.74
version 1
nodes
  0 "ValveBiped.Bip01_Spine4" -1
  1 "ValveBiped.Bip01_L_Clavicle" 0
  2 "ValveBiped.Bip01_L_UpperArm" 1
  3 "ValveBiped.Bip01_L_Forearm" 2
  4 "ValveBiped.Bip01_L_Hand" 3
  5 "ValveBiped.Bip01_L_Finger4" 4
  6 "ValveBiped.Bip01_L_Finger41" 5
  7 "ValveBiped.Bip01_L_Finger42" 6
  8 "ValveBiped.Bip01_L_Finger3" 4
  9 "ValveBiped.Bip01_L_Finger31" 8
  10 "ValveBiped.Bip01_L_Finger32" 9
  11 "ValveBiped.Bip01_L_Finger2" 4
  12 "ValveBiped.Bip01_L_Finger21" 11
  13 "ValveBiped.Bip01_L_Finger22" 12
  14 "ValveBiped.Bip01_L_Finger1" 4
  15 "ValveBiped.Bip01_L_Finger11" 14
  16 "ValveBiped.Bip01_L_Finger12" 15
  17 "ValveBiped.Bip01_L_Finger0" 4
  18 "ValveBiped.Bip01_L_Finger01" 17
  19 "ValveBiped.Bip01_L_Finger02" 18
  20 "ValveBiped.Bip01_R_Clavicle" 0
  21 "ValveBiped.Bip01_R_UpperArm" 20
  22 "ValveBiped.Bip01_R_Forearm" 21
  23 "ValveBiped.Bip01_R_Hand" 22
  24 "ValveBiped.Bip01_R_Finger4" 23
  25 "ValveBiped.Bip01_R_Finger41" 24
  26 "ValveBiped.Bip01_R_Finger42" 25
  27 "ValveBiped.Bip01_R_Finger3" 23
  28 "ValveBiped.Bip01_R_Finger31" 27
  29 "ValveBiped.Bip01_R_Finger32" 28
  30 "ValveBiped.Bip01_R_Finger2" 23
  31 "ValveBiped.Bip01_R_Finger21" 30
  32 "ValveBiped.Bip01_R_Finger22" 31
  33 "ValveBiped.Bip01_R_Finger1" 23
  34 "ValveBiped.Bip01_R_Finger11" 33
  35 "ValveBiped.Bip01_R_Finger12" 34
  36 "ValveBiped.Bip01_R_Finger0" 23
  37 "ValveBiped.Bip01_R_Finger01" 36
  38 "ValveBiped.Bip01_R_Finger02" 37
  39 "ValveBiped.Bip01" -1
  40 "ValveBiped.Gun" 39
  41 "ValveBiped.Pump" 40
  42 "ValveBiped.square" 40
end
skeleton
  time 0
    0 -4.996094 -5.242188 -9.640625 -1.570781 -1.391896 -1.570809
    1 2.033349 1.000767 1.937660 1.596637 -1.286515 2.942961
    2 6.028141 0.000000 0.000000 -0.787638 -0.773612 -1.382280
    3 11.692554 0.000001 0.000002 0.000000 0.000000 -1.080563
    4 11.481674 0.000001 -0.000032 0.220336 0.028118 -0.150673
    5 3.859709 -0.142404 -1.191975 -0.446417 -0.063402 -1.640371
    6 1.312555 -0.000002 0.000001 0.000000 0.000000 -0.656298
    7 0.729363 -0.000002 -0.000002 0.000000 0.000000 -0.391720
    8 3.942335 0.046767 -0.431443 -0.258311 -0.172730 -1.139722
    9 1.539097 0.000000 0.000000 0.000000 0.000000 -0.923570
    10 1.196326 -0.000002 -0.000001 0.000000 0.000000 -0.685711
    11 3.883696 -0.046765 0.431443 -0.055972 -0.132963 -0.768379
    12 1.719570 -0.000004 -0.000001 0.000000 0.000003 -1.043371
    13 1.209171 -0.000002 0.000000 0.000000 0.000004 -0.780725
    14 3.859865 -0.137947 1.332466 0.233872 -0.131867 -0.657268
    15 1.719429 0.000002 -0.000001 0.000000 0.000011 -1.296387
    16 1.099665 0.000000 0.000000 0.000000 0.000007 -0.880559
    17 0.806053 -0.348925 1.321258 -0.893007 -0.293852 -1.203716
    18 1.789780 -0.000002 0.000002 0.000000 0.000000 0.308161
    19 1.207006 0.000000 0.000000 0.000000 0.000000 0.387211
    20 2.033356 1.000772 -1.937610 -1.668474 1.286518 2.942953
    21 6.028144 0.000000 0.000000 0.917304 0.001542 -1.163826
    22 11.692554 0.000001 0.000003 0.000000 0.000000 -0.492918
    23 11.481697 0.000001 0.000002 -1.839856 0.008434 0.043618
    24 3.859678 -0.132570 1.193109 0.452686 -0.203570 -0.743635
    25 1.312557 -0.000002 0.000001 0.000000 0.000000 -0.429894
    26 0.729365 0.000002 -0.000002 0.000000 0.000000 -0.234753
    27 3.942305 0.050327 0.431044 0.136996 -0.098616 -0.615904
    28 1.539099 -0.000002 0.000000 0.000000 0.000000 -0.346350
    29 1.196321 0.000008 0.000000 0.000000 0.000000 -0.575157
    30 3.883661 -0.050323 -0.431042 -0.085905 -0.026404 -0.587695
    31 1.719578 0.000004 0.000000 0.000000 -0.007974 -0.366436
    32 1.209185 0.000002 0.000000 0.000000 -0.004461 -0.216376
    33 3.859838 -0.148937 -1.331282 -0.354419 0.038567 -0.532001
    34 1.719423 0.000002 0.000000 0.000000 -0.006613 -0.362970
    35 1.099667 0.000002 0.000000 0.000000 -0.004211 -0.244312
    36 0.806021 -0.359837 -1.318334 1.203301 0.616014 -0.845207
    37 1.789782 0.000000 -0.000004 0.000000 0.000000 0.181370
    38 1.206999 0.000003 0.000002 0.000000 0.000000 0.294827
    39 -4.996094 -9.109375 -29.421875 1.570792 0.000003 -0.000003
    40 -5.315714 24.253406 19.958792 -0.076272 0.048058 0.196679
    41 -0.004455 -0.545139 -2.136547 0.000000 0.000000 0.000000
    42 1.521424 -6.734831 -3.791582 -0.255221 -0.176713 0.137439
  time 1
    0 -4.996094 -5.242188 -9.640625 -1.570781 -1.391896 -1.570809
    1 2.033349 1.000767 1.937660 1.596637 -1.286515 2.942961
    2 6.028141 0.000000 0.000000 -0.751764 -0.797872 -1.420068
    3 11.692554 0.000001 0.000002 0.000000 0.000000 -1.098500
    4 11.481674 0.000001 -0.000032 0.267796 0.002651 -0.190631
    5 3.859709 -0.142404 -1.191975 -0.441048 -0.062724 -1.571274
    6 1.312555 -0.000002 0.000001 0.000000 0.000000 -0.710964
    7 0.729363 -0.000002 -0.000002 0.000000 0.000000 -0.484501
    8 3.942335 0.046767 -0.431443 -0.257748 -0.155112 -1.128912
    9 1.539097 0.000000 0.000000 0.000000 0.000000 -0.954170
    10 1.196326 -0.000002 -0.000001 0.000000 0.000000 -0.760555
    11 3.883696 -0.046765 0.431443 -0.101741 -0.116220 -0.711344
    12 1.719570 -0.000004 -0.000001 0.000000 0.000003 -1.221029
    13 1.209171 -0.000002 0.000000 0.000000 0.000004 -0.968922
    14 3.859865 -0.137947 1.332466 0.233381 -0.124089 -0.662937
    15 1.719429 0.000002 -0.000001 0.000000 0.000011 -1.289579
    16 1.099665 0.000000 0.000000 0.000000 0.000007 -0.882065
    17 0.806053 -0.348925 1.321258 -0.867915 -0.296736 -1.259464
    18 1.789780 -0.000002 0.000002 0.000000 0.000000 0.364752
    19 1.207006 0.000000 0.000000 0.000000 0.000000 0.497712
    20 2.033356 1.000772 -1.937610 -1.668474 1.286518 2.942953
    21 6.028144 0.000000 0.000000 0.917304 0.001542 -1.163826
    22 11.692554 0.000001 0.000003 0.000000 0.000000 -0.492918
    23 11.481697 0.000001 0.000002 -1.839856 0.008434 0.043618
    24 3.859678 -0.132570 1.193109 0.452686 -0.203570 -0.743635
    25 1.312557 -0.000002 0.000001 0.000000 0.000000 -0.429894
    26 0.729365 0.000002 -0.000002 0.000000 0.000000 -0.234753
    27 3.942305 0.050327 0.431044 0.136996 -0.098616 -0.615904
    28 1.539099 -0.000002 0.000000 0.000000 0.000000 -0.346350
    29 1.196321 0.000008 0.000000 0.000000 0.000000 -0.575157
    30 3.883661 -0.050323 -0.431042 -0.085905 -0.026404 -0.587695
    31 1.719578 0.000004 0.000000 0.000000 -0.007974 -0.366436
    32 1.209185 0.000002 0.000000 0.000000 -0.004461 -0.216376
    33 3.859838 -0.148937 -1.331282 -0.354419 0.038567 -0.532001
    34 1.719423 0.000002 0.000000 0.000000 -0.006613 -0.362970
    35 1.099667 0.000002 0.000000 0.000000 -0.004211 -0.244312
    36 0.806021 -0.359837 -1.318334 1.203301 0.616014 -0.845207
    37 1.789782 0.000000 -0.000004 0.000000 0.000000 0.181370
    38 1.206999 0.000003 0.000002 0.000000 0.000000 0.294827
    39 -4.996094 -9.109375 -29.421875 1.570792 0.000003 -0.000003
    40 -5.327433 24.257312 19.958792 -0.075281 0.047950 0.196883
    41 -0.004455 -0.545139 -2.136547 0.000000 0.000000 0.000000
    42 1.244071 -5.844179 -4.428320 -0.610672 -0.176713 0.235210
  time 2
    0 -4.996094 -5.242188 -9.640625 -1.570781 -1.391896 -1.570809
    1 2.033349 1.000767 1.937660 1.596637 -1.286515 2.942961
    2 6.028141 0.000000 0.000000 -0.705479 -0.825569 -1.469172
    3 11.692554 0.000001 0.000002 0.000000 0.000000 -1.122929
    4 11.481674 0.000001 -0.000032 0.305908 -0.022469 -0.228264
    5 3.859709 -0.142404 -1.191975 -0.430286 -0.057934 -1.480922
    6 1.312555 -0.000002 0.000001 0.000000 0.000000 -0.789523
    7 0.729363 -0.000002 -0.000002 0.000000 0.000000 -0.613747
    8 3.942335 0.046767 -0.431443 -0.257065 -0.131635 -1.116532
    9 1.539097 0.000000 0.000000 0.000000 0.000000 -0.998296
    10 1.196326 -0.000002 -0.000001 0.000000 0.000000 -0.870789
    11 3.883696 -0.046765 0.431443 -0.157984 -0.095859 -0.642828
    12 1.719570 -0.000004 -0.000001 0.000000 0.000003 -1.437388
    13 1.209171 -0.000002 0.000000 0.000000 0.000004 -1.196925
    14 3.859865 -0.137947 1.332466 0.232746 -0.114154 -0.671039
    15 1.719429 0.000002 -0.000001 0.000000 0.000011 -1.282592
    16 1.099665 0.000000 0.000000 0.000000 0.000007 -0.881643
    17 0.806053 -0.348925 1.321258 -0.840155 -0.290230 -1.323356
    18 1.789780 -0.000002 0.000002 0.000000 0.000000 0.434143
    19 1.207006 0.000000 0.000000 0.000000 0.000000 0.634564
    20 2.033356 1.000772 -1.937610 -1.668474 1.286518 2.942953
    21 6.028144 0.000000 0.000000 0.917304 0.001542 -1.163826
    22 11.692554 0.000001 0.000003 0.000000 0.000000 -0.492918
    23 11.481697 0.000001 0.000002 -1.839856 0.008434 0.043618
    24 3.859678 -0.132570 1.193109 0.452686 -0.203570 -0.743635
    25 1.312557 -0.000002 0.000001 0.000000 0.000000 -0.429894
    26 0.729365 0.000002 -0.000002 0.000000 0.000000 -0.234753
    27 3.942305 0.050327 0.431044 0.136996 -0.098616 -0.615904
    28 1.539099 -0.000002 0.000000 0.000000 0.000000 -0.346350
    29 1.196321 0.000008 0.000000 0.000000 0.000000 -0.575157
    30 3.883661 -0.050323 -0.431042 -0.085905 -0.026404 -0.587695
    31 1.719578 0.000004 0.000000 0.000000 -0.007974 -0.366436
    32 1.209185 0.000002 0.000000 0.000000 -0.004461 -0.216376
    33 3.859838 -0.148937 -1.331282 -0.354419 0.038567 -0.532001
    34 1.719423 0.000002 0.000000 0.000000 -0.006613 -0.362970
    35 1.099667 0.000002 0.000000 0.000000 -0.004211 -0.244312
    36 0.806021 -0.359837 -1.318334 1.203301 0.616014 -0.845207
    37 1.789782 0.000000 -0.000004 0.000000 0.000000 0.181370
    38 1.206999 0.000003 0.000002 0.000000 0.000000 0.294827
    39 -4.996094 -9.109375 -29.421875 1.570792 0.000003 -0.000003
    40 -5.335246 24.257312 19.954886 -0.074244 0.047854 0.196991
    41 -0.004455 -0.545139 -2.136547 0.000000 0.000000 0.000000
    42 0.798745 -4.305070 -5.389287 -1.084286 -0.176713 0.338697
  time 3
    0 -4.996094 -5.242188 -9.640625 -1.570781 -1.391896 -1.570809
    1 2.033349 1.000767 1.937660 1.596637 -1.286515 2.942961
    2 6.028141 0.000000 0.000000 -0.651032 -0.853640 -1.527128
    3 11.692554 0.000001 0.000002 0.000000 0.000000 -1.141959
    4 11.481674 0.000001 -0.000032 0.327720 -0.047421 -0.237052
    5 3.859709 -0.142404 -1.191975 -0.413088 -0.049345 -1.376191
    6 1.312555 -0.000002 0.000001 0.000000 0.000000 -0.883937
    7 0.729363 -0.000002 -0.000002 0.000000 0.000000 -0.767303
    8 3.942335 0.046767 -0.431443 -0.256346 -0.104214 -1.103037
    9 1.539097 0.000000 0.000000 0.000000 0.000000 -1.051117
    10 1.196326 -0.000002 -0.000001 0.000000 0.000000 -1.005211
    11 3.883696 -0.046765 0.431443 -0.205755 -0.078924 -0.582857
    12 1.719570 -0.000004 -0.000001 0.000000 0.000003 -1.617748
    13 1.209171 -0.000002 0.000000 0.000000 0.000004 -1.388096
    14 3.859865 -0.137947 1.332466 0.232266 -0.106436 -0.676072
    15 1.719429 0.000002 -0.000001 0.000000 0.000011 -1.272394
    16 1.099665 0.000000 0.000000 0.000000 0.000007 -0.879514
    17 0.806053 -0.348925 1.321258 -0.827725 -0.274362 -1.370348
    18 1.789780 -0.000002 0.000002 0.000000 0.000000 0.492340
    19 1.207006 0.000000 0.000000 0.000000 0.000000 0.747363
    20 2.033356 1.000772 -1.937610 -1.668474 1.286518 2.942953
    21 6.028144 0.000000 0.000000 0.917304 0.001542 -1.163826
    22 11.692554 0.000001 0.000003 0.000000 0.000000 -0.492918
    23 11.481697 0.000001 0.000002 -1.839856 0.008434 0.043618
    24 3.859678 -0.132570 1.193109 0.452686 -0.203570 -0.743635
    25 1.312557 -0.000002 0.000001 0.000000 0.000000 -0.429894
    26 0.729365 0.000002 -0.000002 0.000000 0.000000 -0.234753
    27 3.942305 0.050327 0.431044 0.136996 -0.098616 -0.615904
    28 1.539099 -0.000002 0.000000 0.000000 0.000000 -0.346350
    29 1.196321 0.000008 0.000000 0.000000 0.000000 -0.575157
    30 3.883661 -0.050323 -0.431042 -0.085905 -0.026404 -0.587695
    31 1.719578 0.000004 0.000000 0.000000 -0.007974 -0.366436
    32 1.209185 0.000002 0.000000 0.000000 -0.004461 -0.216376
    33 3.859838 -0.148937 -1.331282 -0.354419 0.038567 -0.532001
    34 1.719423 0.000002 0.000000 0.000000 -0.006613 -0.362970
    35 1.099667 0.000002 0.000000 0.000000 -0.004211 -0.244312
    36 0.806021 -0.359837 -1.318334 1.203301 0.616014 -0.845207
    37 1.789782 0.000000 -0.000004 0.000000 0.000000 0.181370
    38 1.206999 0.000003 0.000002 0.000000 0.000000 0.294827
    39 -4.996094 -9.109375 -29.421875 1.570792 0.000003 -0.000003
    40 -5.346965 24.261218 19.954886 -0.073118 0.047770 0.197003
    41 -0.004455 -0.545139 -2.136547 0.000000 0.000000 0.000000
    42 0.525300 -2.879245 -5.740860 -0.964269 -0.176713 0.171799
  time 4
    0 -4.996094 -5.242188 -9.640625 -1.570781 -1.391896 -1.570809
    1 2.033349 1.000767 1.937660 1.596637 -1.286515 2.942961
    2 6.028141 0.000000 0.000000 -0.595558 -0.876335 -1.584249
    3 11.692554 0.000001 0.000002 0.000000 0.000000 -1.153788
    4 11.481674 0.000001 -0.000032 0.323646 -0.073176 -0.190355
    5 3.859709 -0.142404 -1.191975 -0.389190 -0.038058 -1.264036
    6 1.312555 -0.000002 0.000001 0.000000 0.000000 -0.986173
    7 0.729363 -0.000002 -0.000002 0.000000 0.000000 -0.932976
    8 3.942335 0.046767 -0.431443 -0.255662 -0.074792 -1.088860
    9 1.539097 0.000000 0.000000 0.000000 0.000000 -1.107766
    10 1.196326 -0.000002 -0.000001 0.000000 0.000000 -1.152582
    11 3.883696 -0.046765 0.431443 -0.225817 -0.072345 -0.551518
    12 1.719570 -0.000004 -0.000001 0.000000 0.000003 -1.687449
    13 1.209171 -0.000002 0.000000 0.000000 0.000004 -1.465762
    14 3.859865 -0.137947 1.332466 0.232278 -0.105274 -0.672525
    15 1.719429 0.000002 -0.000001 0.000000 0.000011 -1.255953
    16 1.099665 0.000000 0.000000 0.000000 0.000007 -0.875799
    17 0.806053 -0.348925 1.321258 -0.848508 -0.252261 -1.377134
    18 1.789780 -0.000002 0.000002 0.000000 0.000000 0.515350
    19 1.207006 0.000000 0.000000 0.000000 0.000000 0.785702
    20 2.033356 1.000772 -1.937610 -1.668474 1.286518 2.942953
    21 6.028144 0.000000 0.000000 0.917304 0.001542 -1.163826
    22 11.692554 0.000001 0.000003 0.000000 0.000000 -0.492918
    23 11.481697 0.000001 0.000002 -1.839856 0.008434 0.043618
    24 3.859678 -0.132570 1.193109 0.452686 -0.203570 -0.743635
    25 1.312557 -0.000002 0.000001 0.000000 0.000000 -0.429894
    26 0.729365 0.000002 -0.000002 0.000000 0.000000 -0.234753
    27 3.942305 0.050327 0.431044 0.136996 -0.098616 -0.615904
    28 1.539099 -0.000002 0.000000 0.000000 0.000000 -0.346350
    29 1.196321 0.000008 0.000000 0.000000 0.000000 -0.575157
    30 3.883661 -0.050323 -0.431042 -0.085905 -0.026404 -0.587695
    31 1.719578 0.000004 0.000000 0.000000 -0.007974 -0.366436
    32 1.209185 0.000002 0.000000 0.000000 -0.004461 -0.216376
    33 3.859838 -0.148937 -1.331282 -0.354419 0.038567 -0.532001
    34 1.719423 0.000002 0.000000 0.000000 -0.006613 -0.362970
    35 1.099667 0.000002 0.000000 0.000000 -0.004211 -0.244312
    36 0.806021 -0.359837 -1.318334 1.203301 0.616014 -0.845207
    37 1.789782 0.000000 -0.000004 0.000000 0.000000 0.181370
    38 1.206999 0.000003 0.000002 0.000000 0.000000 0.294827
    39 -4.996094 -9.109375 -29.421875 1.570792 0.000003 -0.000003
    40 -5.354778 24.261218 19.950980 -0.071796 0.047722 0.196931
    41 -0.004455 -0.545139 -2.136547 0.000000 0.000000 0.000000
    42 0.130756 -2.551110 -5.721328 -0.569409 -0.176713 0.019631
  time 5
    0 -4.996094 -5.242188 -9.640625 -1.570781 -1.391896 -1.570809
    1 2.033349 1.000767 1.937660 1.596637 -1.286515 2.942961
    2 6.028141 0.000000 0.000000 -0.537837 -0.890081 -1.634982
    3 11.692554 0.000001 0.000002 0.000000 0.000000 -1.169731
    4 11.481674 0.000001 -0.000032 0.271871 -0.100501 -0.035960
    5 3.859709 -0.142404 -1.191975 -0.359576 -0.025827 -1.151488
    6 1.312555 -0.000002 0.000001 0.000000 0.000000 -1.088167
    7 0.729363 -0.000002 -0.000002 0.000000 0.000000 -1.098534
    8 3.942335 0.046767 -0.431443 -0.255063 -0.045322 -1.074466
    9 1.539097 0.000000 0.000000 0.000000 0.000000 -1.163411
    10 1.196326 -0.000002 -0.000001 0.000000 0.000000 -1.301700
    11 3.883696 -0.046765 0.431443 -0.224295 -0.073723 -0.542373
    12 1.719570 -0.000004 -0.000001 0.000000 0.000003 -1.671445
    13 1.209171 -0.000002 0.000000 0.000000 0.000004 -1.455582
    14 3.859865 -0.137947 1.332466 0.232650 -0.109193 -0.662338
    15 1.719429 0.000002 -0.000001 0.000000 0.000011 -1.234398
    16 1.099665 0.000000 0.000000 0.000000 0.000007 -0.870678
    17 0.806053 -0.348925 1.321258 -0.845575 -0.258658 -1.323050
    18 1.789780 -0.000002 0.000002 0.000000 0.000000 0.480475
    19 1.207006 0.000000 0.000000 0.000000 0.000000 0.677472
    20 2.033356 1.000772 -1.937610 -1.668474 1.286518 2.942953
    21 6.028144 0.000000 0.000000 0.917304 0.001542 -1.163826
    22 11.692554 0.000001 0.000003 0.000000 0.000000 -0.492918
    23 11.481697 0.000001 0.000002 -1.839856 0.008434 0.043618
    24 3.859678 -0.132570 1.193109 0.452686 -0.203570 -0.743635
    25 1.312557 -0.000002 0.000001 0.000000 0.000000 -0.429894
    26 0.729365 0.000002 -0.000002 0.000000 0.000000 -0.234753
    27 3.942305 0.050327 0.431044 0.136996 -0.098616 -0.615904
    28 1.539099 -0.000002 0.000000 0.000000 0.000000 -0.346350
    29 1.196321 0.000008 0.000000 0.000000 0.000000 -0.575157
    30 3.883661 -0.050323 -0.431042 -0.085905 -0.026404 -0.587695
    31 1.719578 0.000004 0.000000 0.000000 -0.007974 -0.366436
    32 1.209185 0.000002 0.000000 0.000000 -0.004461 -0.216376
    33 3.859838 -0.148937 -1.331282 -0.354419 0.038567 -0.532001
    34 1.719423 0.000002 0.000000 0.000000 -0.006613 -0.362970
    35 1.099667 0.000002 0.000000 0.000000 -0.004211 -0.244312
    36 0.806021 -0.359837 -1.318334 1.203301 0.616014 -0.845207
    37 1.789782 0.000000 -0.000004 0.000000 0.000000 0.181370
    38 1.206999 0.000003 0.000002 0.000000 0.000000 0.294827
    39 -4.996094 -9.109375 -29.421875 1.570792 0.000003 -0.000003
    40 -5.358684 24.261218 19.950980 -0.070204 0.047686 0.196763
    41 -0.004455 -0.545139 -2.136547 0.000000 0.000000 0.000000
    42 0.068254 -1.605769 -5.658826 -0.569409 -0.176713 0.019631
  time 6
    0 -4.996094 -5.242188 -9.640625 -1.570781 -1.391896 -1.570809
    1 2.033349 1.000767 1.937660 1.596637 -1.286515 2.942961
    2 6.028141 0.000000 0.000000 -0.477818 -0.898077 -1.683293
    3 11.692554 0.000001 0.000002 0.000000 0.000000 -1.188504
    4 11.481674 0.000001 -0.000032 0.174474 -0.124290 0.197918
    5 3.859709 -0.142404 -1.191975 -0.326703 -0.014722 -1.045476
    6 1.312555 -0.000002 0.000001 0.000000 0.000000 -1.181912
    7 0.729363 -0.000002 -0.000002 0.000000 0.000000 -1.251823
    8 3.942335 0.046767 -0.431443 -0.254560 -0.017721 -1.060312
    9 1.539097 0.000000 0.000000 0.000000 0.000000 -1.213281
    10 1.196326 -0.000002 -0.000001 0.000000 0.000000 -1.441439
    11 3.883696 -0.046765 0.431443 -0.220436 -0.075964 -0.535410
    12 1.719570 -0.000004 -0.000001 0.000000 0.000003 -1.645241
    13 1.209171 -0.000002 0.000000 0.000000 0.000004 -1.435108
    14 3.859865 -0.137947 1.332466 0.233021 -0.113747 -0.651228
    15 1.719429 0.000002 -0.000001 0.000000 0.000011 -1.211238
    16 1.099665 0.000000 0.000000 0.000000 0.000007 -0.864292
    17 0.806053 -0.348925 1.321258 -0.785282 -0.305005 -1.224612
    18 1.789780 -0.000002 0.000002 0.000000 0.000000 0.405787
    19 1.207006 0.000000 0.000000 0.000000 0.000000 0.455927
    20 2.033356 1.000772 -1.937610 -1.668474 1.286518 2.942953
    21 6.028144 0.000000 0.000000 0.917304 0.001542 -1.163826
    22 11.692554 0.000001 0.000003 0.000000 0.000000 -0.492918
    23 11.481697 0.000001 0.000002 -1.839856 0.008434 0.043618
    24 3.859678 -0.132570 1.193109 0.452686 -0.203570 -0.743635
    25 1.312557 -0.000002 0.000001 0.000000 0.000000 -0.429894
    26 0.729365 0.000002 -0.000002 0.000000 0.000000 -0.234753
    27 3.942305 0.050327 0.431044 0.136996 -0.098616 -0.615904
    28 1.539099 -0.000002 0.000000 0.000000 0.000000 -0.346350
    29 1.196321 0.000008 0.000000 0.000000 0.000000 -0.575157
    30 3.883661 -0.050323 -0.431042 -0.085905 -0.026404 -0.587695
    31 1.719578 0.000004 0.000000 0.000000 -0.007974 -0.366436
    32 1.209185 0.000002 0.000000 0.000000 -0.004461 -0.216376
    33 3.859838 -0.148937 -1.331282 -0.354419 0.038567 -0.532001
    34 1.719423 0.000002 0.000000 0.000000 -0.006613 -0.362970
    35 1.099667 0.000002 0.000000 0.000000 -0.004211 -0.244312
    36 0.806021 -0.359837 -1.318334 1.203301 0.616014 -0.845207
    37 1.789782 0.000000 -0.000004 0.000000 0.000000 0.181370
    38 1.206999 0.000003 0.000002 0.000000 0.000000 0.294827
    39 -4.996094 -9.109375 -29.421875 1.570792 0.000003 -0.000003
    40 -5.362590 24.261218 19.947073 -0.068537 0.047674 0.196511
    41 -0.004455 -0.545139 -2.136547 0.000000 0.000000 0.000000
    42 -0.080188 -1.140911 -4.643170 -0.569409 -0.176713 0.019631
  time 7
    0 -4.996094 -5.242188 -9.640625 -1.570781 -1.391896 -1.570809
    1 2.033349 1.000767 1.937660 1.596637 -1.286515 2.942961
    2 6.028141 0.000000 0.000000 -0.428307 -0.903930 -1.725382
    3 11.692554 0.000001 0.000002 0.000000 0.000000 -1.199047
    4 11.481674 0.000001 -0.000032 0.064054 -0.139403 0.416585
    5 3.859709 -0.142404 -1.191975 -0.294488 -0.006617 -0.952902
    6 1.312555 -0.000002 0.000001 0.000000 0.000000 -1.259319
    7 0.729363 -0.000002 -0.000002 0.000000 0.000000 -1.380650
    8 3.942335 0.046767 -0.431443 -0.254164 0.006056 -1.046854
    9 1.539097 0.000000 0.000000 0.000000 0.000000 -1.252480
    10 1.196326 -0.000002 -0.000001 0.000000 0.000000 -1.560520
    11 3.883696 -0.046765 0.431443 -0.214504 -0.078984 -0.530425
    12 1.719570 -0.000004 -0.000001 0.000000 0.000003 -1.610089
    13 1.209171 -0.000002 0.000000 0.000000 0.000004 -1.405482
    14 3.859865 -0.137947 1.332466 0.233381 -0.118828 -0.639340
    15 1.719429 0.000002 -0.000001 0.000000 0.000011 -1.186680
    16 1.099665 0.000000 0.000000 0.000000 0.000007 -0.856842
    17 0.806053 -0.348925 1.321258 -0.717034 -0.361179 -1.118182
    18 1.789780 -0.000002 0.000002 0.000000 0.000000 0.328463
    19 1.207006 0.000000 0.000000 0.000000 0.000000 0.228640
    20 2.033356 1.000772 -1.937610 -1.668474 1.286518 2.942953
    21 6.028144 0.000000 0.000000 0.917304 0.001542 -1.163826
    22 11.692554 0.000001 0.000003 0.000000 0.000000 -0.492918
    23 11.481697 0.000001 0.000002 -1.839856 0.008434 0.043618
    24 3.859678 -0.132570 1.193109 0.452686 -0.203570 -0.743635
    25 1.312557 -0.000002 0.000001 0.000000 0.000000 -0.429894
    26 0.729365 0.000002 -0.000002 0.000000 0.000000 -0.234753
    27 3.942305 0.050327 0.431044 0.136996 -0.098616 -0.615904
    28 1.539099 -0.000002 0.000000 0.000000 0.000000 -0.346350
    29 1.196321 0.000008 0.000000 0.000000 0.000000 -0.575157
    30 3.883661 -0.050323 -0.431042 -0.085905 -0.026404 -0.587695
    31 1.719578 0.000004 0.000000 0.000000 -0.007974 -0.366436
    32 1.209185 0.000002 0.000000 0.000000 -0.004461 -0.216376
    33 3.859838 -0.148937 -1.331282 -0.354419 0.038567 -0.532001
    34 1.719423 0.000002 0.000000 0.000000 -0.006613 -0.362970
    35 1.099667 0.000002 0.000000 0.000000 -0.004211 -0.244312
    36 0.806021 -0.359837 -1.318334 1.203301 0.616014 -0.845207
    37 1.789782 0.000000 -0.000004 0.000000 0.000000 0.181370
    38 1.206999 0.000003 0.000002 0.000000 0.000000 0.294827
    39 -4.996094 -9.109375 -29.421875 1.570792 0.000003 -0.000003
    40 -5.366497 24.312001 20.087703 -0.067380 0.047674 0.196176
    41 -0.004455 -0.545139 -2.136547 0.000000 0.000000 0.000000
    42 -0.177847 -0.945592 -3.928305 -0.569409 -0.176713 0.019631
  time 8
    0 -4.996094 -5.242188 -9.640625 -1.570781 -1.391896 -1.570809
    1 2.033349 1.000767 1.937660 1.596637 -1.286515 2.942961
    2 6.028141 0.000000 0.000000 -0.403185 -0.910803 -1.754360
    3 11.692554 0.000001 0.000002 0.000000 0.000000 -1.194032
    4 11.481674 0.000001 -0.000032 -0.018721 -0.152262 0.524323
    5 3.859709 -0.142404 -1.191975 -0.267846 -0.003011 -0.880615
    6 1.312555 -0.000002 0.000001 0.000000 0.000000 -1.312378
    7 0.729363 -0.000002 -0.000002 0.000000 0.000000 -1.472860
    8 3.942335 0.046767 -0.431443 -0.253841 0.024093 -1.034581
    9 1.539097 0.000000 0.000000 0.000000 0.000000 -1.276207
    10 1.196326 -0.000002 -0.000001 0.000000 0.000000 -1.647819
    11 3.883696 -0.046765 0.431443 -0.206750 -0.082676 -0.527249
    12 1.719570 -0.000004 -0.000001 0.000000 0.000003 -1.567155
    13 1.209171 -0.000002 0.000000 0.000000 0.000004 -1.367889
    14 3.859865 -0.137947 1.332466 0.233716 -0.124377 -0.626840
    15 1.719429 0.000002 -0.000001 0.000000 0.000011 -1.161111
    16 1.099665 0.000000 0.000000 0.000000 0.000007 -0.848468
    17 0.806053 -0.348925 1.321258 -0.680159 -0.400228 -1.045037
    18 1.789780 -0.000002 0.000002 0.000000 0.000000 0.285666
    19 1.207006 0.000000 0.000000 0.000000 0.000000 0.103170
    20 2.033356 1.000772 -1.937610 -1.668474 1.286518 2.942953
    21 6.028144 0.000000 0.000000 0.917304 0.001542 -1.163826
    22 11.692554 0.000001 0.000003 0.000000 0.000000 -0.492918
    23 11.481697 0.000001 0.000002 -1.839856 0.008434 0.043618
    24 3.859678 -0.132570 1.193109 0.452686 -0.203570 -0.743635
    25 1.312557 -0.000002 0.000001 0.000000 0.000000 -0.429894
    26 0.729365 0.000002 -0.000002 0.000000 0.000000 -0.234753
    27 3.942305 0.050327 0.431044 0.136996 -0.098616 -0.615904
    28 1.539099 -0.000002 0.000000 0.000000 0.000000 -0.346350
    29 1.196321 0.000008 0.000000 0.000000 0.000000 -0.575157
    30 3.883661 -0.050323 -0.431042 -0.085905 -0.026404 -0.587695
    31 1.719578 0.000004 0.000000 0.000000 -0.007974 -0.366436
    32 1.209185 0.000002 0.000000 0.000000 -0.004461 -0.216376
    33 3.859838 -0.148937 -1.331282 -0.354419 0.038567 -0.532001
    34 1.719423 0.000002 0.000000 0.000000 -0.006613 -0.362970
    35 1.099667 0.000002 0.000000 0.000000 -0.004211 -0.244312
    36 0.806021 -0.359837 -1.318334 1.203301 0.616014 -0.845207
    37 1.789782 0.000000 -0.000004 0.000000 0.000000 0.181370
    38 1.206999 0.000003 0.000002 0.000000 0.000000 0.294827
    39 -4.996094 -9.109375 -29.421875 1.570792 0.000003 -0.000003
    40 -5.366497 24.378410 20.236145 -0.067125 0.047686 0.195768
    41 -0.004455 -0.545139 -2.136547 0.000000 0.000000 0.000000
    42 -0.177847 -0.945592 -3.928305 -0.569409 -0.176713 0.019631
  time 9
    0 -4.996094 -5.242188 -9.640625 -1.570781 -1.391896 -1.570809
    1 2.033349 1.000767 1.937660 1.596637 -1.286515 2.942961
    2 6.028141 0.000000 0.000000 -0.486664 -0.888414 -1.662624
    3 11.692554 0.000001 0.000002 0.000000 0.000000 -1.207790
    4 11.481674 0.000001 -0.000032 0.054147 -0.174566 0.456425
    5 3.859709 -0.142404 -1.191975 -0.258235 -0.007367 -0.848040
    6 1.312555 -0.000002 0.000001 0.000000 0.000000 -1.317387
    7 0.729363 -0.000002 -0.000002 0.000000 0.000000 -1.492864
    8 3.942335 0.046767 -0.431443 -0.253577 0.030829 -1.024598
    9 1.539097 0.000000 0.000000 0.000000 0.000000 -1.268329
    10 1.196326 -0.000002 -0.000001 0.000000 0.000000 -1.675083
    11 3.883696 -0.046765 0.431443 -0.197438 -0.086930 -0.525691
    12 1.719570 -0.000004 -0.000001 0.000000 0.000003 -1.517571
    13 1.209171 -0.000002 0.000000 0.000000 0.000004 -1.323508
    14 3.859865 -0.137947 1.332466 0.233992 -0.130273 -0.613872
    15 1.719429 0.000002 -0.000001 0.000000 0.000011 -1.134739
    16 1.099665 0.000000 0.000000 0.000000 0.000007 -0.839331
    17 0.806053 -0.348925 1.321258 -0.679629 -0.418652 -1.021828
    18 1.789780 -0.000002 0.000002 0.000000 0.000000 0.273789
    19 1.207006 0.000000 0.000000 0.000000 0.000000 0.068947
    20 2.033356 1.000772 -1.937610 -1.668474 1.286518 2.942953
    21 6.028144 0.000000 0.000000 0.917304 0.001542 -1.163826
    22 11.692554 0.000001 0.000003 0.000000 0.000000 -0.492918
    23 11.481697 0.000001 0.000002 -1.839856 0.008434 0.043618
    24 3.859678 -0.132570 1.193109 0.452686 -0.203570 -0.743635
    25 1.312557 -0.000002 0.000001 0.000000 0.000000 -0.429894
    26 0.729365 0.000002 -0.000002 0.000000 0.000000 -0.234753
    27 3.942305 0.050327 0.431044 0.136996 -0.098616 -0.615904
    28 1.539099 -0.000002 0.000000 0.000000 0.000000 -0.346350
    29 1.196321 0.000008 0.000000 0.000000 0.000000 -0.575157
    30 3.883661 -0.050323 -0.431042 -0.085905 -0.026404 -0.587695
    31 1.719578 0.000004 0.000000 0.000000 -0.007974 -0.366436
    32 1.209185 0.000002 0.000000 0.000000 -0.004461 -0.216376
    33 3.859838 -0.148937 -1.331282 -0.354419 0.038567 -0.532001
    34 1.719423 0.000002 0.000000 0.000000 -0.006613 -0.362970
    35 1.099667 0.000002 0.000000 0.000000 -0.004211 -0.244312
    36 0.806021 -0.359837 -1.318334 1.203301 0.616014 -0.845207
    37 1.789782 0.000000 -0.000004 0.000000 0.000000 0.181370
    38 1.206999 0.000003 0.000002 0.000000 0.000000 0.294827
    39 -4.996094 -9.109375 -29.421875 1.570792 0.000003 -0.000003
    40 -5.358684 24.378410 20.208800 -0.068116 0.047746 0.195589
    41 -0.004455 -0.545139 -2.136547 0.000000 0.000000 0.000000
    42 -0.177847 -0.945592 -3.928305 -0.569409 -0.176713 0.019631
  time 10
    0 -4.996094 -5.242188 -9.640625 -1.570781 -1.391896 -1.570809
    1 2.033349 1.000767 1.937660 1.596637 -1.286515 2.942961
    2 6.028141 0.000000 0.000000 -0.643163 -0.820873 -1.484162
    3 11.692554 0.000001 0.000002 0.000000 0.000000 -1.217305
    4 11.481674 0.000001 -0.000032 0.289928 -0.199841 0.272909
    5 3.859709 -0.142404 -1.191975 -0.268386 -0.019960 -0.856825
    6 1.312555 -0.000002 0.000001 0.000000 0.000000 -1.271024
    7 0.729363 -0.000002 -0.000002 0.000000 0.000000 -1.436052
    8 3.942335 0.046767 -0.431443 -0.253349 0.025651 -1.016772
    9 1.539097 0.000000 0.000000 0.000000 0.000000 -1.225835
    10 1.196326 -0.000002 -0.000001 0.000000 0.000000 -1.640300
    11 3.883696 -0.046765 0.431443 -0.186831 -0.091652 -0.525571
    12 1.719570 -0.000004 -0.000001 0.000000 0.000003 -1.462584
    13 1.209171 -0.000002 0.000000 0.000000 0.000004 -1.273485
    14 3.859865 -0.137947 1.332466 0.234232 -0.136446 -0.600605
    15 1.719429 0.000002 -0.000001 0.000000 0.000011 -1.107952
    16 1.099665 0.000000 0.000000 0.000000 0.000007 -0.829611
    17 0.806053 -0.348925 1.321258 -0.694081 -0.431800 -1.026607
    18 1.789780 -0.000002 0.000002 0.000000 0.000000 0.264345
    19 1.207006 0.000000 0.000000 0.000000 0.000000 0.043112
    20 2.033356 1.000772 -1.937610 -1.668474 1.286518 2.942953
    21 6.028144 0.000000 0.000000 0.917304 0.001542 -1.163826
    22 11.692554 0.000001 0.000003 0.000000 0.000000 -0.492918
    23 11.481697 0.000001 0.000002 -1.839856 0.008434 0.043618
    24 3.859678 -0.132570 1.193109 0.452686 -0.203570 -0.743635
    25 1.312557 -0.000002 0.000001 0.000000 0.000000 -0.429894
    26 0.729365 0.000002 -0.000002 0.000000 0.000000 -0.234753
    27 3.942305 0.050327 0.431044 0.136996 -0.098616 -0.615904
    28 1.539099 -0.000002 0.000000 0.000000 0.000000 -0.346350
    29 1.196321 0.000008 0.000000 0.000000 0.000000 -0.575157
    30 3.883661 -0.050323 -0.431042 -0.085905 -0.026404 -0.587695
    31 1.719578 0.000004 0.000000 0.000000 -0.007974 -0.366436
    32 1.209185 0.000002 0.000000 0.000000 -0.004461 -0.216376
    33 3.859838 -0.148937 -1.331282 -0.354419 0.038567 -0.532001
    34 1.719423 0.000002 0.000000 0.000000 -0.006613 -0.362970
    35 1.099667 0.000002 0.000000 0.000000 -0.004211 -0.244312
    36 0.806021 -0.359837 -1.318334 1.203301 0.616014 -0.845207
    37 1.789782 0.000000 -0.000004 0.000000 0.000000 0.181370
    38 1.206999 0.000003 0.000002 0.000000 0.000000 0.294827
    39 -4.996094 -9.109375 -29.421875 1.570792 0.000003 -0.000003
    40 -5.343059 24.339346 20.126766 -0.070655 0.047854 0.195912
    41 -0.004455 -0.545139 -2.136547 0.000000 0.000000 0.000000
    42 -0.177847 -0.945592 -3.928305 -0.569409 -0.176713 0.019631
  time 11
    0 -4.996094 -5.242188 -9.640625 -1.570781 -1.391896 -1.570809
    1 2.033349 1.000767 1.937660 1.596637 -1.286515 2.942961
    2 6.028141 0.000000 0.000000 -0.747854 -0.766636 -1.381069
    3 11.692554 0.000001 0.000002 0.000000 0.000000 -1.171339
    4 11.481674 0.000001 -0.000032 0.497745 -0.213575 0.098535
    5 3.859709 -0.142404 -1.191975 -0.288987 -0.037429 -0.887412
    6 1.312555 -0.000002 0.000001 0.000000 0.000000 -1.195920
    7 0.729363 -0.000002 -0.000002 0.000000 0.000000 -1.336793
    8 3.942335 0.046767 -0.431443 -0.253170 0.014050 -1.009725
    9 1.539097 0.000000 0.000000 0.000000 0.000000 -1.163442
    10 1.196326 -0.000002 -0.000001 0.000000 0.000000 -1.571722
    11 3.883696 -0.046765 0.431443 -0.175182 -0.096746 -0.526697
    12 1.719570 -0.000004 -0.000001 0.000000 0.000003 -1.403364
    13 1.209171 -0.000002 0.000000 0.000000 0.000004 -1.219039
    14 3.859865 -0.137947 1.332466 0.234411 -0.142797 -0.587183
    15 1.719429 0.000002 -0.000001 0.000000 0.000011 -1.080986
    16 1.099665 0.000000 0.000000 0.000000 0.000007 -0.819450
    17 0.806053 -0.348925 1.321258 -0.715592 -0.442516 -1.046280
    18 1.789780 -0.000002 0.000002 0.000000 0.000000 0.257094
    19 1.207006 0.000000 0.000000 0.000000 0.000000 0.024801
    20 2.033356 1.000772 -1.937610 -1.668474 1.286518 2.942953
    21 6.028144 0.000000 0.000000 0.917304 0.001542 -1.163826
    22 11.692554 0.000001 0.000003 0.000000 0.000000 -0.492918
    23 11.481697 0.000001 0.000002 -1.839856 0.008434 0.043618
    24 3.859678 -0.132570 1.193109 0.452686 -0.203570 -0.743635
    25 1.312557 -0.000002 0.000001 0.000000 0.000000 -0.429894
    26 0.729365 0.000002 -0.000002 0.000000 0.000000 -0.234753
    27 3.942305 0.050327 0.431044 0.136996 -0.098616 -0.615904
    28 1.539099 -0.000002 0.000000 0.000000 0.000000 -0.346350
    29 1.196321 0.000008 0.000000 0.000000 0.000000 -0.575157
    30 3.883661 -0.050323 -0.431042 -0.085905 -0.026404 -0.587695
    31 1.719578 0.000004 0.000000 0.000000 -0.007974 -0.366436
    32 1.209185 0.000002 0.000000 0.000000 -0.004461 -0.216376
    33 3.859838 -0.148937 -1.331282 -0.354419 0.038567 -0.532001
    34 1.719423 0.000002 0.000000 0.000000 -0.006613 -0.362970
    35 1.099667 0.000002 0.000000 0.000000 -0.004211 -0.244312
    36 0.806021 -0.359837 -1.318334 1.203301 0.616014 -0.845207
    37 1.789782 0.000000 -0.000004 0.000000 0.000000 0.181370
    38 1.206999 0.000003 0.000002 0.000000 0.000000 0.294827
    39 -4.996094 -9.109375 -29.421875 1.570792 0.000003 -0.000003
    40 -5.323527 24.284657 20.021294 -0.074019 0.047986 0.196499
    41 -0.004455 -0.545139 -2.136547 0.000000 0.000000 0.000000
    42 -0.177847 -0.945592 -3.928305 -0.569409 -0.176713 0.019631
  time 12
    0 -4.996094 -5.242188 -9.640625 -1.570781 -1.391896 -1.570809
    1 2.033349 1.000767 1.937660 1.596637 -1.286515 2.942961
    2 6.028141 0.000000 0.000000 -0.788567 -0.760410 -1.366079
    3 11.692554 0.000001 0.000002 0.000000 0.000000 -1.114315
    4 11.481674 0.000001 -0.000032 0.549999 -0.210651 0.017199
    5 3.859709 -0.142404 -1.191975 -0.310739 -0.056470 -0.920510
    6 1.312555 -0.000002 0.000001 0.000000 0.000000 -1.114603
    7 0.729363 -0.000002 -0.000002 0.000000 0.000000 -1.229381
    8 3.942335 0.046767 -0.431443 -0.252990 0.001490 -1.002103
    9 1.539097 0.000000 0.000000 0.000000 0.000000 -1.095902
    10 1.196326 -0.000002 -0.000001 0.000000 0.000000 -1.497486
    11 3.883696 -0.046765 0.431443 -0.162754 -0.102091 -0.528903
    12 1.719570 -0.000004 -0.000001 0.000000 0.000003 -1.341121
    13 1.209171 -0.000002 0.000000 0.000000 0.000004 -1.161276
    14 3.859865 -0.137947 1.332466 0.234519 -0.149233 -0.573772
    15 1.719429 0.000002 -0.000001 0.000000 0.000011 -1.054138
    16 1.099665 0.000000 0.000000 0.000000 0.000007 -0.809028
    17 0.806053 -0.348925 1.321258 -0.736938 -0.453710 -1.067462
    18 1.789780 -0.000002 0.000002 0.000000 0.000000 0.251797
    19 1.207006 0.000000 0.000000 0.000000 0.000000 0.013174
    20 2.033356 1.000772 -1.937610 -1.668474 1.286518 2.942953
    21 6.028144 0.000000 0.000000 0.917304 0.001542 -1.163826
    22 11.692554 0.000001 0.000003 0.000000 0.000000 -0.492918
    23 11.481697 0.000001 0.000002 -1.839856 0.008434 0.043618
    24 3.859678 -0.132570 1.193109 0.452686 -0.203570 -0.743635
    25 1.312557 -0.000002 0.000001 0.000000 0.000000 -0.429894
    26 0.729365 0.000002 -0.000002 0.000000 0.000000 -0.234753
    27 3.942305 0.050327 0.431044 0.136996 -0.098616 -0.615904
    28 1.539099 -0.000002 0.000000 0.000000 0.000000 -0.346350
    29 1.196321 0.000008 0.000000 0.000000 0.000000 -0.575157
    30 3.883661 -0.050323 -0.431042 -0.085905 -0.026404 -0.587695
    31 1.719578 0.000004 0.000000 0.000000 -0.007974 -0.366436
    32 1.209185 0.000002 0.000000 0.000000 -0.004461 -0.216376
    33 3.859838 -0.148937 -1.331282 -0.354419 0.038567 -0.532001
    34 1.719423 0.000002 0.000000 0.000000 -0.006613 -0.362970
    35 1.099667 0.000002 0.000000 0.000000 -0.004211 -0.244312
    36 0.806021 -0.359837 -1.318334 1.203301 0.616014 -0.845207
    37 1.789782 0.000000 -0.000004 0.000000 0.000000 0.181370
    38 1.206999 0.000003 0.000002 0.000000 0.000000 0.294827
    39 -4.996094 -9.109375 -29.421875 1.570792 0.000003 -0.000003
    40 -5.315714 24.253406 19.958792 -0.076272 0.048058 0.196679
    41 -0.004455 -0.545139 -2.136547 0.000000 0.000000 0.000000
    42 -0.177847 -0.945592 -3.928305 -0.569409 -0.176713 0.019631
end
