// Created by Crowbar 0.74
version 1
nodes
  0 "ValveBiped.Bip01_Spine4" -1
  1 "ValveBiped.Bip01_L_Clavicle" 0
  2 "ValveBiped.Bip01_L_UpperArm" 1
  3 "ValveBiped.Bip01_L_Forearm" 2
  4 "ValveBiped.Bip01_L_Hand" 3
  5 "ValveBiped.Bip01_L_Finger4" 4
  6 "ValveBiped.Bip01_L_Finger41" 5
  7 "ValveBiped.Bip01_L_Finger42" 6
  8 "ValveBiped.Bip01_L_Finger3" 4
  9 "ValveBiped.Bip01_L_Finger31" 8
  10 "ValveBiped.Bip01_L_Finger32" 9
  11 "ValveBiped.Bip01_L_Finger2" 4
  12 "ValveBiped.Bip01_L_Finger21" 11
  13 "ValveBiped.Bip01_L_Finger22" 12
  14 "ValveBiped.Bip01_L_Finger1" 4
  15 "ValveBiped.Bip01_L_Finger11" 14
  16 "ValveBiped.Bip01_L_Finger12" 15
  17 "ValveBiped.Bip01_L_Finger0" 4
  18 "ValveBiped.Bip01_L_Finger01" 17
  19 "ValveBiped.Bip01_L_Finger02" 18
  20 "ValveBiped.Bip01_R_Clavicle" 0
  21 "ValveBiped.Bip01_R_UpperArm" 20
  22 "ValveBiped.Bip01_R_Forearm" 21
  23 "ValveBiped.Bip01_R_Hand" 22
  24 "ValveBiped.Bip01_R_Finger4" 23
  25 "ValveBiped.Bip01_R_Finger41" 24
  26 "ValveBiped.Bip01_R_Finger42" 25
  27 "ValveBiped.Bip01_R_Finger3" 23
  28 "ValveBiped.Bip01_R_Finger31" 27
  29 "ValveBiped.Bip01_R_Finger32" 28
  30 "ValveBiped.Bip01_R_Finger2" 23
  31 "ValveBiped.Bip01_R_Finger21" 30
  32 "ValveBiped.Bip01_R_Finger22" 31
  33 "ValveBiped.Bip01_R_Finger1" 23
  34 "ValveBiped.Bip01_R_Finger11" 33
  35 "ValveBiped.Bip01_R_Finger12" 34
  36 "ValveBiped.Bip01_R_Finger0" 23
  37 "ValveBiped.Bip01_R_Finger01" 36
  38 "ValveBiped.Bip01_R_Finger02" 37
  39 "ValveBiped.Bip01" -1
  40 "ValveBiped.Gun" 39
  41 "ValveBiped.Pump" 40
  42 "ValveBiped.square" 40
end
skeleton
  time 0
    0 -4.996094 -5.242188 -9.640625 -1.570781 -1.391896 -1.570809
    1 2.033349 1.000767 1.937660 1.596637 -1.286515 2.942961
    2 6.028141 0.000000 0.000000 -0.510320 -0.909782 -1.680662
    3 11.692554 0.000001 0.000002 0.000000 0.000000 -0.920678
    4 11.481674 0.000001 -0.000032 -0.584804 0.120507 0.348491
    5 3.859709 -0.142404 -1.191975 -0.502776 -0.244875 -1.327706
    6 1.312555 -0.000002 0.000001 0.000000 0.000000 -0.275280
    7 0.729363 -0.000002 -0.000002 0.000000 0.000000 -0.093519
    8 3.942335 0.046767 -0.431443 -0.253491 -0.140129 -0.944416
    9 1.539097 0.000000 0.000000 0.000000 0.000000 -0.422801
    10 1.196326 -0.000002 -0.000001 0.000000 0.000000 -0.685721
    11 3.883696 -0.046765 0.431443 -0.048698 -0.149461 -0.571418
    12 1.719570 -0.000004 -0.000001 0.000000 0.000000 -0.789633
    13 1.209171 -0.000002 0.000000 0.000000 0.000000 -0.638622
    14 3.859865 -0.137947 1.332466 0.233309 -0.200803 -0.470680
    15 1.719429 0.000002 -0.000001 0.000000 0.000000 -0.851271
    16 1.099665 0.000000 0.000000 0.000000 0.000000 -0.722480
    17 0.806053 -0.348925 1.321258 -0.919606 -0.521611 -1.289995
    18 1.789780 -0.000002 0.000002 0.000000 0.000000 0.258466
    19 1.207006 0.000000 0.000000 0.000000 0.000000 0.084299
    20 2.033356 1.000772 -1.937610 -1.668474 1.286518 2.942953
    21 6.028144 0.000000 0.000000 0.917304 0.001542 -1.163826
    22 11.692554 0.000001 0.000003 0.000000 0.000000 -0.492918
    23 11.481697 0.000001 0.000002 -1.839856 0.008434 0.043618
    24 3.859678 -0.132570 1.193109 0.452686 -0.203570 -0.743635
    25 1.312557 -0.000002 0.000001 0.000000 0.000000 -0.429894
    26 0.729365 0.000002 -0.000002 0.000000 0.000000 -0.234753
    27 3.942305 0.050327 0.431044 0.136996 -0.098616 -0.615904
    28 1.539099 -0.000002 0.000000 0.000000 0.000000 -0.346350
    29 1.196321 0.000008 0.000000 0.000000 0.000000 -0.575157
    30 3.883661 -0.050323 -0.431042 -0.085905 -0.026404 -0.587695
    31 1.719578 0.000004 0.000000 0.000000 -0.007974 -0.366436
    32 1.209185 0.000002 0.000000 0.000000 -0.004461 -0.216376
    33 3.859838 -0.148937 -1.331282 -0.354419 0.038567 -0.532001
    34 1.719423 0.000002 0.000000 0.000000 -0.006613 -0.362970
    35 1.099667 0.000002 0.000000 0.000000 -0.004211 -0.244312
    36 0.806021 -0.359837 -1.318334 1.203301 0.616014 -0.845207
    37 1.789782 0.000000 -0.000004 0.000000 0.000000 0.181370
    38 1.206999 0.000003 0.000002 0.000000 0.000000 0.294827
    39 -4.996094 -9.109375 -29.421875 1.570792 0.000003 -0.000003
    40 -4.014893 18.507137 20.322085 0.260145 0.077672 0.081735
    41 -0.004455 -0.545139 -2.136547 0.000000 0.000000 0.000000
    42 0.009659 -6.406696 -21.608532 0.000000 0.000000 0.000000
  time 1
    0 -4.996094 -5.242188 -9.640625 -1.570781 -1.391896 -1.570809
    1 2.033349 1.000767 1.937660 1.596637 -1.286515 2.942961
    2 6.028141 0.000000 0.000000 -0.508218 -0.912062 -1.685339
    3 11.692554 0.000001 0.000002 0.000000 0.000000 -0.925564
    4 11.481674 0.000001 -0.000032 -0.584484 0.122389 0.355939
    5 3.859709 -0.142404 -1.191975 -0.502776 -0.244875 -1.327706
    6 1.312555 -0.000002 0.000001 0.000000 0.000000 -0.275280
    7 0.729363 -0.000002 -0.000002 0.000000 0.000000 -0.093519
    8 3.942335 0.046767 -0.431443 -0.253491 -0.140129 -0.944416
    9 1.539097 0.000000 0.000000 0.000000 0.000000 -0.422801
    10 1.196326 -0.000002 -0.000001 0.000000 0.000000 -0.685721
    11 3.883696 -0.046765 0.431443 -0.048698 -0.149461 -0.571418
    12 1.719570 -0.000004 -0.000001 0.000000 0.000000 -0.789633
    13 1.209171 -0.000002 0.000000 0.000000 0.000000 -0.638622
    14 3.859865 -0.137947 1.332466 0.233309 -0.200803 -0.470680
    15 1.719429 0.000002 -0.000001 0.000000 0.000000 -0.851271
    16 1.099665 0.000000 0.000000 0.000000 0.000000 -0.722480
    17 0.806053 -0.348925 1.321258 -0.919606 -0.521611 -1.289995
    18 1.789780 -0.000002 0.000002 0.000000 0.000000 0.258466
    19 1.207006 0.000000 0.000000 0.000000 0.000000 0.084299
    20 2.033356 1.000772 -1.937610 -1.668474 1.286518 2.942953
    21 6.028144 0.000000 0.000000 0.917304 0.001542 -1.163826
    22 11.692554 0.000001 0.000003 0.000000 0.000000 -0.492918
    23 11.481697 0.000001 0.000002 -1.839856 0.008434 0.043618
    24 3.859678 -0.132570 1.193109 0.452686 -0.203570 -0.743635
    25 1.312557 -0.000002 0.000001 0.000000 0.000000 -0.429894
    26 0.729365 0.000002 -0.000002 0.000000 0.000000 -0.234753
    27 3.942305 0.050327 0.431044 0.136996 -0.098616 -0.615904
    28 1.539099 -0.000002 0.000000 0.000000 0.000000 -0.346350
    29 1.196321 0.000008 0.000000 0.000000 0.000000 -0.575157
    30 3.883661 -0.050323 -0.431042 -0.085905 -0.026404 -0.587695
    31 1.719578 0.000004 0.000000 0.000000 -0.007974 -0.366436
    32 1.209185 0.000002 0.000000 0.000000 -0.004461 -0.216376
    33 3.859838 -0.148937 -1.331282 -0.354419 0.038567 -0.532001
    34 1.719423 0.000002 0.000000 0.000000 -0.006613 -0.362970
    35 1.099667 0.000002 0.000000 0.000000 -0.004211 -0.244312
    36 0.806021 -0.359837 -1.318334 1.203301 0.616014 -0.845207
    37 1.789782 0.000000 -0.000004 0.000000 0.000000 0.181370
    38 1.206999 0.000003 0.000002 0.000000 0.000000 0.294827
    39 -4.996094 -9.109375 -29.421875 1.570792 0.000003 -0.000003
    40 -4.042238 18.636047 20.302553 0.259920 0.076821 0.080644
    41 -0.004455 -0.545139 -2.136547 0.000000 0.000000 0.000000
    42 0.009659 -6.406696 -21.608532 0.000000 0.000000 0.000000
  time 2
    0 -4.996094 -5.242188 -9.640625 -1.570781 -1.391896 -1.570809
    1 2.033349 1.000767 1.937660 1.596637 -1.286515 2.942961
    2 6.028141 0.000000 0.000000 -0.499225 -0.912062 -1.691017
    3 11.692554 0.000001 0.000002 0.000000 0.000000 -0.924536
    4 11.481674 0.000001 -0.000032 -0.589358 0.119968 0.354402
    5 3.859709 -0.142404 -1.191975 -0.502776 -0.244875 -1.327706
    6 1.312555 -0.000002 0.000001 0.000000 0.000000 -0.275280
    7 0.729363 -0.000002 -0.000002 0.000000 0.000000 -0.093519
    8 3.942335 0.046767 -0.431443 -0.253491 -0.140129 -0.944416
    9 1.539097 0.000000 0.000000 0.000000 0.000000 -0.422801
    10 1.196326 -0.000002 -0.000001 0.000000 0.000000 -0.685721
    11 3.883696 -0.046765 0.431443 -0.048698 -0.149461 -0.571418
    12 1.719570 -0.000004 -0.000001 0.000000 0.000000 -0.789633
    13 1.209171 -0.000002 0.000000 0.000000 0.000000 -0.638622
    14 3.859865 -0.137947 1.332466 0.233309 -0.200803 -0.470680
    15 1.719429 0.000002 -0.000001 0.000000 0.000000 -0.851271
    16 1.099665 0.000000 0.000000 0.000000 0.000000 -0.722480
    17 0.806053 -0.348925 1.321258 -0.919606 -0.521611 -1.289995
    18 1.789780 -0.000002 0.000002 0.000000 0.000000 0.258466
    19 1.207006 0.000000 0.000000 0.000000 0.000000 0.084299
    20 2.033356 1.000772 -1.937610 -1.668474 1.286518 2.942953
    21 6.028144 0.000000 0.000000 0.917304 0.001542 -1.163826
    22 11.692554 0.000001 0.000003 0.000000 0.000000 -0.492918
    23 11.481697 0.000001 0.000002 -1.839856 0.008434 0.043618
    24 3.859678 -0.132570 1.193109 0.452686 -0.203570 -0.743635
    25 1.312557 -0.000002 0.000001 0.000000 0.000000 -0.429894
    26 0.729365 0.000002 -0.000002 0.000000 0.000000 -0.234753
    27 3.942305 0.050327 0.431044 0.136996 -0.098616 -0.615904
    28 1.539099 -0.000002 0.000000 0.000000 0.000000 -0.346350
    29 1.196321 0.000008 0.000000 0.000000 0.000000 -0.575157
    30 3.883661 -0.050323 -0.431042 -0.085905 -0.026404 -0.587695
    31 1.719578 0.000004 0.000000 0.000000 -0.007974 -0.366436
    32 1.209185 0.000002 0.000000 0.000000 -0.004461 -0.216376
    33 3.859838 -0.148937 -1.331282 -0.354419 0.038567 -0.532001
    34 1.719423 0.000002 0.000000 0.000000 -0.006613 -0.362970
    35 1.099667 0.000002 0.000000 0.000000 -0.004211 -0.244312
    36 0.806021 -0.359837 -1.318334 1.203301 0.616014 -0.845207
    37 1.789782 0.000000 -0.000004 0.000000 0.000000 0.181370
    38 1.206999 0.000003 0.000002 0.000000 0.000000 0.294827
    39 -4.996094 -9.109375 -29.421875 1.570792 0.000003 -0.000003
    40 -4.128178 18.655579 20.259583 0.259304 0.074448 0.077600
    41 -0.004455 -0.545139 -2.136547 0.000000 0.000000 0.000000
    42 0.009659 -6.406696 -21.608532 0.000000 0.000000 0.000000
  time 3
    0 -4.996094 -5.242188 -9.640625 -1.570781 -1.391896 -1.570809
    1 2.033349 1.000767 1.937660 1.596637 -1.286515 2.942961
    2 6.028141 0.000000 0.000000 -0.484416 -0.909408 -1.696487
    3 11.692554 0.000001 0.000002 0.000000 0.000000 -0.916435
    4 11.481674 0.000001 -0.000032 -0.599106 0.113184 0.342265
    5 3.859709 -0.142404 -1.191975 -0.502776 -0.244875 -1.327706
    6 1.312555 -0.000002 0.000001 0.000000 0.000000 -0.275280
    7 0.729363 -0.000002 -0.000002 0.000000 0.000000 -0.093519
    8 3.942335 0.046767 -0.431443 -0.253491 -0.140129 -0.944416
    9 1.539097 0.000000 0.000000 0.000000 0.000000 -0.422801
    10 1.196326 -0.000002 -0.000001 0.000000 0.000000 -0.685721
    11 3.883696 -0.046765 0.431443 -0.048698 -0.149461 -0.571418
    12 1.719570 -0.000004 -0.000001 0.000000 0.000000 -0.789633
    13 1.209171 -0.000002 0.000000 0.000000 0.000000 -0.638622
    14 3.859865 -0.137947 1.332466 0.233309 -0.200803 -0.470680
    15 1.719429 0.000002 -0.000001 0.000000 0.000000 -0.851271
    16 1.099665 0.000000 0.000000 0.000000 0.000000 -0.722480
    17 0.806053 -0.348925 1.321258 -0.919606 -0.521611 -1.289995
    18 1.789780 -0.000002 0.000002 0.000000 0.000000 0.258466
    19 1.207006 0.000000 0.000000 0.000000 0.000000 0.084299
    20 2.033356 1.000772 -1.937610 -1.668474 1.286518 2.942953
    21 6.028144 0.000000 0.000000 0.917304 0.001542 -1.163826
    22 11.692554 0.000001 0.000003 0.000000 0.000000 -0.492918
    23 11.481697 0.000001 0.000002 -1.839856 0.008434 0.043618
    24 3.859678 -0.132570 1.193109 0.452686 -0.203570 -0.743635
    25 1.312557 -0.000002 0.000001 0.000000 0.000000 -0.429894
    26 0.729365 0.000002 -0.000002 0.000000 0.000000 -0.234753
    27 3.942305 0.050327 0.431044 0.136996 -0.098616 -0.615904
    28 1.539099 -0.000002 0.000000 0.000000 0.000000 -0.346350
    29 1.196321 0.000008 0.000000 0.000000 0.000000 -0.575157
    30 3.883661 -0.050323 -0.431042 -0.085905 -0.026404 -0.587695
    31 1.719578 0.000004 0.000000 0.000000 -0.007974 -0.366436
    32 1.209185 0.000002 0.000000 0.000000 -0.004461 -0.216376
    33 3.859838 -0.148937 -1.331282 -0.354419 0.038567 -0.532001
    34 1.719423 0.000002 0.000000 0.000000 -0.006613 -0.362970
    35 1.099667 0.000002 0.000000 0.000000 -0.004211 -0.244312
    36 0.806021 -0.359837 -1.318334 1.203301 0.616014 -0.845207
    37 1.789782 0.000000 -0.000004 0.000000 0.000000 0.181370
    38 1.206999 0.000003 0.000002 0.000000 0.000000 0.294827
    39 -4.996094 -9.109375 -29.421875 1.570792 0.000003 -0.000003
    40 -4.253182 18.538388 20.200987 0.258418 0.070805 0.073058
    41 -0.004455 -0.545139 -2.136547 0.000000 0.000000 0.000000
    42 0.009659 -6.406696 -21.608532 0.000000 0.000000 0.000000
  time 4
    0 -4.996094 -5.242188 -9.640625 -1.570781 -1.391896 -1.570809
    1 2.033349 1.000767 1.937660 1.596637 -1.286515 2.942961
    2 6.028141 0.000000 0.000000 -0.464524 -0.904270 -1.701498
    3 11.692554 0.000001 0.000002 0.000000 0.000000 -0.899913
    4 11.481674 0.000001 -0.000032 -0.612848 0.102254 0.318896
    5 3.859709 -0.142404 -1.191975 -0.502776 -0.244875 -1.327706
    6 1.312555 -0.000002 0.000001 0.000000 0.000000 -0.275280
    7 0.729363 -0.000002 -0.000002 0.000000 0.000000 -0.093519
    8 3.942335 0.046767 -0.431443 -0.253491 -0.140129 -0.944416
    9 1.539097 0.000000 0.000000 0.000000 0.000000 -0.422801
    10 1.196326 -0.000002 -0.000001 0.000000 0.000000 -0.685721
    11 3.883696 -0.046765 0.431443 -0.048698 -0.149461 -0.571418
    12 1.719570 -0.000004 -0.000001 0.000000 0.000000 -0.789633
    13 1.209171 -0.000002 0.000000 0.000000 0.000000 -0.638622
    14 3.859865 -0.137947 1.332466 0.233309 -0.200803 -0.470680
    15 1.719429 0.000002 -0.000001 0.000000 0.000000 -0.851271
    16 1.099665 0.000000 0.000000 0.000000 0.000000 -0.722480
    17 0.806053 -0.348925 1.321258 -0.919606 -0.521611 -1.289995
    18 1.789780 -0.000002 0.000002 0.000000 0.000000 0.258466
    19 1.207006 0.000000 0.000000 0.000000 0.000000 0.084299
    20 2.033356 1.000772 -1.937610 -1.668474 1.286518 2.942953
    21 6.028144 0.000000 0.000000 0.917304 0.001542 -1.163826
    22 11.692554 0.000001 0.000003 0.000000 0.000000 -0.492918
    23 11.481697 0.000001 0.000002 -1.839856 0.008434 0.043618
    24 3.859678 -0.132570 1.193109 0.452686 -0.203570 -0.743635
    25 1.312557 -0.000002 0.000001 0.000000 0.000000 -0.429894
    26 0.729365 0.000002 -0.000002 0.000000 0.000000 -0.234753
    27 3.942305 0.050327 0.431044 0.136996 -0.098616 -0.615904
    28 1.539099 -0.000002 0.000000 0.000000 0.000000 -0.346350
    29 1.196321 0.000008 0.000000 0.000000 0.000000 -0.575157
    30 3.883661 -0.050323 -0.431042 -0.085905 -0.026404 -0.587695
    31 1.719578 0.000004 0.000000 0.000000 -0.007974 -0.366436
    32 1.209185 0.000002 0.000000 0.000000 -0.004461 -0.216376
    33 3.859838 -0.148937 -1.331282 -0.354419 0.038567 -0.532001
    34 1.719423 0.000002 0.000000 0.000000 -0.006613 -0.362970
    35 1.099667 0.000002 0.000000 0.000000 -0.004211 -0.244312
    36 0.806021 -0.359837 -1.318334 1.203301 0.616014 -0.845207
    37 1.789782 0.000000 -0.000004 0.000000 0.000000 0.181370
    38 1.206999 0.000003 0.000002 0.000000 0.000000 0.294827
    39 -4.996094 -9.109375 -29.421875 1.570792 0.000003 -0.000003
    40 -4.401624 18.272754 20.134579 0.257337 0.066143 0.067401
    41 -0.004455 -0.545139 -2.136547 0.000000 0.000000 0.000000
    42 0.009659 -6.406696 -21.608532 0.000000 0.000000 0.000000
  time 5
    0 -4.996094 -5.242188 -9.640625 -1.570781 -1.391896 -1.570809
    1 2.033349 1.000767 1.937660 1.596637 -1.286515 2.942961
    2 6.028141 0.000000 0.000000 -0.440868 -0.898316 -1.707761
    3 11.692554 0.000001 0.000002 0.000000 0.000000 -0.876834
    4 11.481674 0.000001 -0.000032 -0.628588 0.089227 0.288593
    5 3.859709 -0.142404 -1.191975 -0.502776 -0.244875 -1.327706
    6 1.312555 -0.000002 0.000001 0.000000 0.000000 -0.275280
    7 0.729363 -0.000002 -0.000002 0.000000 0.000000 -0.093519
    8 3.942335 0.046767 -0.431443 -0.253491 -0.140129 -0.944416
    9 1.539097 0.000000 0.000000 0.000000 0.000000 -0.422801
    10 1.196326 -0.000002 -0.000001 0.000000 0.000000 -0.685721
    11 3.883696 -0.046765 0.431443 -0.048698 -0.149461 -0.571418
    12 1.719570 -0.000004 -0.000001 0.000000 0.000000 -0.789633
    13 1.209171 -0.000002 0.000000 0.000000 0.000000 -0.638622
    14 3.859865 -0.137947 1.332466 0.233309 -0.200803 -0.470680
    15 1.719429 0.000002 -0.000001 0.000000 0.000000 -0.851271
    16 1.099665 0.000000 0.000000 0.000000 0.000000 -0.722480
    17 0.806053 -0.348925 1.321258 -0.919606 -0.521611 -1.289995
    18 1.789780 -0.000002 0.000002 0.000000 0.000000 0.258466
    19 1.207006 0.000000 0.000000 0.000000 0.000000 0.084299
    20 2.033356 1.000772 -1.937610 -1.668474 1.286518 2.942953
    21 6.028144 0.000000 0.000000 0.917304 0.001542 -1.163826
    22 11.692554 0.000001 0.000003 0.000000 0.000000 -0.492918
    23 11.481697 0.000001 0.000002 -1.839856 0.008434 0.043618
    24 3.859678 -0.132570 1.193109 0.452686 -0.203570 -0.743635
    25 1.312557 -0.000002 0.000001 0.000000 0.000000 -0.429894
    26 0.729365 0.000002 -0.000002 0.000000 0.000000 -0.234753
    27 3.942305 0.050327 0.431044 0.136996 -0.098616 -0.615904
    28 1.539099 -0.000002 0.000000 0.000000 0.000000 -0.346350
    29 1.196321 0.000008 0.000000 0.000000 0.000000 -0.575157
    30 3.883661 -0.050323 -0.431042 -0.085905 -0.026404 -0.587695
    31 1.719578 0.000004 0.000000 0.000000 -0.007974 -0.366436
    32 1.209185 0.000002 0.000000 0.000000 -0.004461 -0.216376
    33 3.859838 -0.148937 -1.331282 -0.354419 0.038567 -0.532001
    34 1.719423 0.000002 0.000000 0.000000 -0.006613 -0.362970
    35 1.099667 0.000002 0.000000 0.000000 -0.004211 -0.244312
    36 0.806021 -0.359837 -1.318334 1.203301 0.616014 -0.845207
    37 1.789782 0.000000 -0.000004 0.000000 0.000000 0.181370
    38 1.206999 0.000003 0.000002 0.000000 0.000000 0.294827
    39 -4.996094 -9.109375 -29.421875 1.570792 0.000003 -0.000003
    40 -4.569597 17.932900 20.068171 0.256180 0.060738 0.061050
    41 -0.004455 -0.545139 -2.136547 0.000000 0.000000 0.000000
    42 0.009659 -6.406696 -21.608532 0.000000 0.000000 0.000000
  time 6
    0 -4.996094 -5.242188 -9.640625 -1.570781 -1.391896 -1.570809
    1 2.033349 1.000767 1.937660 1.596637 -1.286515 2.942961
    2 6.028141 0.000000 0.000000 -0.417897 -0.894981 -1.717950
    3 11.692554 0.000001 0.000002 0.000000 0.000000 -0.856776
    4 11.481674 0.000001 -0.000032 -0.642091 0.079568 0.264712
    5 3.859709 -0.142404 -1.191975 -0.502776 -0.244875 -1.327706
    6 1.312555 -0.000002 0.000001 0.000000 0.000000 -0.275280
    7 0.729363 -0.000002 -0.000002 0.000000 0.000000 -0.093519
    8 3.942335 0.046767 -0.431443 -0.253491 -0.140129 -0.944416
    9 1.539097 0.000000 0.000000 0.000000 0.000000 -0.422801
    10 1.196326 -0.000002 -0.000001 0.000000 0.000000 -0.685721
    11 3.883696 -0.046765 0.431443 -0.048698 -0.149461 -0.571418
    12 1.719570 -0.000004 -0.000001 0.000000 0.000000 -0.789633
    13 1.209171 -0.000002 0.000000 0.000000 0.000000 -0.638622
    14 3.859865 -0.137947 1.332466 0.233309 -0.200803 -0.470680
    15 1.719429 0.000002 -0.000001 0.000000 0.000000 -0.851271
    16 1.099665 0.000000 0.000000 0.000000 0.000000 -0.722480
    17 0.806053 -0.348925 1.321258 -0.919606 -0.521611 -1.289995
    18 1.789780 -0.000002 0.000002 0.000000 0.000000 0.258466
    19 1.207006 0.000000 0.000000 0.000000 0.000000 0.084299
    20 2.033356 1.000772 -1.937610 -1.668474 1.286518 2.942953
    21 6.028144 0.000000 0.000000 0.917304 0.001542 -1.163826
    22 11.692554 0.000001 0.000003 0.000000 0.000000 -0.492918
    23 11.481697 0.000001 0.000002 -1.839856 0.008434 0.043618
    24 3.859678 -0.132570 1.193109 0.452686 -0.203570 -0.743635
    25 1.312557 -0.000002 0.000001 0.000000 0.000000 -0.429894
    26 0.729365 0.000002 -0.000002 0.000000 0.000000 -0.234753
    27 3.942305 0.050327 0.431044 0.136996 -0.098616 -0.615904
    28 1.539099 -0.000002 0.000000 0.000000 0.000000 -0.346350
    29 1.196321 0.000008 0.000000 0.000000 0.000000 -0.575157
    30 3.883661 -0.050323 -0.431042 -0.085905 -0.026404 -0.587695
    31 1.719578 0.000004 0.000000 0.000000 -0.007974 -0.366436
    32 1.209185 0.000002 0.000000 0.000000 -0.004461 -0.216376
    33 3.859838 -0.148937 -1.331282 -0.354419 0.038567 -0.532001
    34 1.719423 0.000002 0.000000 0.000000 -0.006613 -0.362970
    35 1.099667 0.000002 0.000000 0.000000 -0.004211 -0.244312
    36 0.806021 -0.359837 -1.318334 1.203301 0.616014 -0.845207
    37 1.789782 0.000000 -0.000004 0.000000 0.000000 0.181370
    38 1.206999 0.000003 0.000002 0.000000 0.000000 0.294827
    39 -4.996094 -9.109375 -29.421875 1.570792 0.000003 -0.000003
    40 -4.733665 17.710237 20.009575 0.255039 0.054853 0.054398
    41 -0.004455 -0.545139 -2.136547 0.000000 0.000000 0.000000
    42 0.009659 -6.406696 -21.608532 0.000000 0.000000 0.000000
  time 7
    0 -4.996094 -5.242188 -9.640625 -1.570781 -1.391896 -1.570809
    1 2.033349 1.000767 1.937660 1.596637 -1.286515 2.942961
    2 6.028141 0.000000 0.000000 -0.400839 -0.896410 -1.732313
    3 11.692554 0.000001 0.000002 0.000000 0.000000 -0.849125
    4 11.481674 0.000001 -0.000032 -0.649762 0.077950 0.258013
    5 3.859709 -0.142404 -1.191975 -0.502776 -0.244875 -1.327706
    6 1.312555 -0.000002 0.000001 0.000000 0.000000 -0.275280
    7 0.729363 -0.000002 -0.000002 0.000000 0.000000 -0.093519
    8 3.942335 0.046767 -0.431443 -0.253491 -0.140129 -0.944416
    9 1.539097 0.000000 0.000000 0.000000 0.000000 -0.422801
    10 1.196326 -0.000002 -0.000001 0.000000 0.000000 -0.685721
    11 3.883696 -0.046765 0.431443 -0.048698 -0.149461 -0.571418
    12 1.719570 -0.000004 -0.000001 0.000000 0.000000 -0.789633
    13 1.209171 -0.000002 0.000000 0.000000 0.000000 -0.638622
    14 3.859865 -0.137947 1.332466 0.233309 -0.200803 -0.470680
    15 1.719429 0.000002 -0.000001 0.000000 0.000000 -0.851271
    16 1.099665 0.000000 0.000000 0.000000 0.000000 -0.722480
    17 0.806053 -0.348925 1.321258 -0.919606 -0.521611 -1.289995
    18 1.789780 -0.000002 0.000002 0.000000 0.000000 0.258466
    19 1.207006 0.000000 0.000000 0.000000 0.000000 0.084299
    20 2.033356 1.000772 -1.937610 -1.668474 1.286518 2.942953
    21 6.028144 0.000000 0.000000 0.917304 0.001542 -1.163826
    22 11.692554 0.000001 0.000003 0.000000 0.000000 -0.492918
    23 11.481697 0.000001 0.000002 -1.839856 0.008434 0.043618
    24 3.859678 -0.132570 1.193109 0.452686 -0.203570 -0.743635
    25 1.312557 -0.000002 0.000001 0.000000 0.000000 -0.429894
    26 0.729365 0.000002 -0.000002 0.000000 0.000000 -0.234753
    27 3.942305 0.050327 0.431044 0.136996 -0.098616 -0.615904
    28 1.539099 -0.000002 0.000000 0.000000 0.000000 -0.346350
    29 1.196321 0.000008 0.000000 0.000000 0.000000 -0.575157
    30 3.883661 -0.050323 -0.431042 -0.085905 -0.026404 -0.587695
    31 1.719578 0.000004 0.000000 0.000000 -0.007974 -0.366436
    32 1.209185 0.000002 0.000000 0.000000 -0.004461 -0.216376
    33 3.859838 -0.148937 -1.331282 -0.354419 0.038567 -0.532001
    34 1.719423 0.000002 0.000000 0.000000 -0.006613 -0.362970
    35 1.099667 0.000002 0.000000 0.000000 -0.004211 -0.244312
    36 0.806021 -0.359837 -1.318334 1.203301 0.616014 -0.845207
    37 1.789782 0.000000 -0.000004 0.000000 0.000000 0.181370
    38 1.206999 0.000003 0.000002 0.000000 0.000000 0.294827
    39 -4.996094 -9.109375 -29.421875 1.570792 0.000003 -0.000003
    40 -4.882107 17.757114 19.966605 0.253987 0.048813 0.047819
    41 -0.004455 -0.545139 -2.136547 0.000000 0.000000 0.000000
    42 0.009659 -6.406696 -21.608532 0.000000 0.000000 0.000000
  time 8
    0 -4.996094 -5.242188 -9.640625 -1.570781 -1.391896 -1.570809
    1 2.033349 1.000767 1.937660 1.596637 -1.286515 2.942961
    2 6.028141 0.000000 0.000000 -0.390184 -0.902092 -1.749600
    3 11.692554 0.000001 0.000002 0.000000 0.000000 -0.851633
    4 11.481674 0.000001 -0.000032 -0.651839 0.083918 0.265737
    5 3.859709 -0.142404 -1.191975 -0.502776 -0.244875 -1.327706
    6 1.312555 -0.000002 0.000001 0.000000 0.000000 -0.275280
    7 0.729363 -0.000002 -0.000002 0.000000 0.000000 -0.093519
    8 3.942335 0.046767 -0.431443 -0.253491 -0.140129 -0.944416
    9 1.539097 0.000000 0.000000 0.000000 0.000000 -0.422801
    10 1.196326 -0.000002 -0.000001 0.000000 0.000000 -0.685721
    11 3.883696 -0.046765 0.431443 -0.048698 -0.149461 -0.571418
    12 1.719570 -0.000004 -0.000001 0.000000 0.000000 -0.789633
    13 1.209171 -0.000002 0.000000 0.000000 0.000000 -0.638622
    14 3.859865 -0.137947 1.332466 0.233309 -0.200803 -0.470680
    15 1.719429 0.000002 -0.000001 0.000000 0.000000 -0.851271
    16 1.099665 0.000000 0.000000 0.000000 0.000000 -0.722480
    17 0.806053 -0.348925 1.321258 -0.919606 -0.521611 -1.289995
    18 1.789780 -0.000002 0.000002 0.000000 0.000000 0.258466
    19 1.207006 0.000000 0.000000 0.000000 0.000000 0.084299
    20 2.033356 1.000772 -1.937610 -1.668474 1.286518 2.942953
    21 6.028144 0.000000 0.000000 0.917304 0.001542 -1.163826
    22 11.692554 0.000001 0.000003 0.000000 0.000000 -0.492918
    23 11.481697 0.000001 0.000002 -1.839856 0.008434 0.043618
    24 3.859678 -0.132570 1.193109 0.452686 -0.203570 -0.743635
    25 1.312557 -0.000002 0.000001 0.000000 0.000000 -0.429894
    26 0.729365 0.000002 -0.000002 0.000000 0.000000 -0.234753
    27 3.942305 0.050327 0.431044 0.136996 -0.098616 -0.615904
    28 1.539099 -0.000002 0.000000 0.000000 0.000000 -0.346350
    29 1.196321 0.000008 0.000000 0.000000 0.000000 -0.575157
    30 3.883661 -0.050323 -0.431042 -0.085905 -0.026404 -0.587695
    31 1.719578 0.000004 0.000000 0.000000 -0.007974 -0.366436
    32 1.209185 0.000002 0.000000 0.000000 -0.004461 -0.216376
    33 3.859838 -0.148937 -1.331282 -0.354419 0.038567 -0.532001
    34 1.719423 0.000002 0.000000 0.000000 -0.006613 -0.362970
    35 1.099667 0.000002 0.000000 0.000000 -0.004211 -0.244312
    36 0.806021 -0.359837 -1.318334 1.203301 0.616014 -0.845207
    37 1.789782 0.000000 -0.000004 0.000000 0.000000 0.181370
    38 1.206999 0.000003 0.000002 0.000000 0.000000 0.294827
    39 -4.996094 -9.109375 -29.421875 1.570792 0.000003 -0.000003
    40 -5.007111 18.030560 19.947073 0.253131 0.042940 0.041634
    41 -0.004455 -0.545139 -2.136547 0.000000 0.000000 0.000000
    42 0.009659 -6.406696 -21.608532 0.000000 0.000000 0.000000
  time 9
    0 -4.996094 -5.242188 -9.640625 -1.570781 -1.391896 -1.570809
    1 2.033349 1.000767 1.937660 1.596637 -1.286515 2.942961
    2 6.028141 0.000000 0.000000 -0.383928 -0.909408 -1.766302
    3 11.692554 0.000001 0.000002 0.000000 0.000000 -0.856969
    4 11.481674 0.000001 -0.000032 -0.651200 0.093362 0.277480
    5 3.859709 -0.142404 -1.191975 -0.502776 -0.244875 -1.327706
    6 1.312555 -0.000002 0.000001 0.000000 0.000000 -0.275280
    7 0.729363 -0.000002 -0.000002 0.000000 0.000000 -0.093519
    8 3.942335 0.046767 -0.431443 -0.253491 -0.140129 -0.944416
    9 1.539097 0.000000 0.000000 0.000000 0.000000 -0.422801
    10 1.196326 -0.000002 -0.000001 0.000000 0.000000 -0.685721
    11 3.883696 -0.046765 0.431443 -0.048698 -0.149461 -0.571418
    12 1.719570 -0.000004 -0.000001 0.000000 0.000000 -0.789633
    13 1.209171 -0.000002 0.000000 0.000000 0.000000 -0.638622
    14 3.859865 -0.137947 1.332466 0.233309 -0.200803 -0.470680
    15 1.719429 0.000002 -0.000001 0.000000 0.000000 -0.851271
    16 1.099665 0.000000 0.000000 0.000000 0.000000 -0.722480
    17 0.806053 -0.348925 1.321258 -0.919606 -0.521611 -1.289995
    18 1.789780 -0.000002 0.000002 0.000000 0.000000 0.258466
    19 1.207006 0.000000 0.000000 0.000000 0.000000 0.084299
    20 2.033356 1.000772 -1.937610 -1.668474 1.286518 2.942953
    21 6.028144 0.000000 0.000000 0.917304 0.001542 -1.163826
    22 11.692554 0.000001 0.000003 0.000000 0.000000 -0.492918
    23 11.481697 0.000001 0.000002 -1.839856 0.008434 0.043618
    24 3.859678 -0.132570 1.193109 0.452686 -0.203570 -0.743635
    25 1.312557 -0.000002 0.000001 0.000000 0.000000 -0.429894
    26 0.729365 0.000002 -0.000002 0.000000 0.000000 -0.234753
    27 3.942305 0.050327 0.431044 0.136996 -0.098616 -0.615904
    28 1.539099 -0.000002 0.000000 0.000000 0.000000 -0.346350
    29 1.196321 0.000008 0.000000 0.000000 0.000000 -0.575157
    30 3.883661 -0.050323 -0.431042 -0.085905 -0.026404 -0.587695
    31 1.719578 0.000004 0.000000 0.000000 -0.007974 -0.366436
    32 1.209185 0.000002 0.000000 0.000000 -0.004461 -0.216376
    33 3.859838 -0.148937 -1.331282 -0.354419 0.038567 -0.532001
    34 1.719423 0.000002 0.000000 0.000000 -0.006613 -0.362970
    35 1.099667 0.000002 0.000000 0.000000 -0.004211 -0.244312
    36 0.806021 -0.359837 -1.318334 1.203301 0.616014 -0.845207
    37 1.789782 0.000000 -0.000004 0.000000 0.000000 0.181370
    38 1.206999 0.000003 0.000002 0.000000 0.000000 0.294827
    39 -4.996094 -9.109375 -29.421875 1.570792 0.000003 -0.000003
    40 -5.093051 18.370414 19.950980 0.252515 0.037595 0.036193
    41 -0.004455 -0.545139 -2.136547 0.000000 0.000000 0.000000
    42 0.009659 -6.406696 -21.608532 0.000000 0.000000 0.000000
  time 10
    0 -4.996094 -5.242188 -9.640625 -1.570781 -1.391896 -1.570809
    1 2.033349 1.000767 1.937660 1.596637 -1.286515 2.942961
    2 6.028141 0.000000 0.000000 -0.382511 -0.915226 -1.776950
    3 11.692554 0.000001 0.000002 0.000000 0.000000 -0.861469
    4 11.481674 0.000001 -0.000032 -0.649921 0.102494 0.285558
    5 3.859709 -0.142404 -1.191975 -0.502776 -0.244875 -1.327706
    6 1.312555 -0.000002 0.000001 0.000000 0.000000 -0.275280
    7 0.729363 -0.000002 -0.000002 0.000000 0.000000 -0.093519
    8 3.942335 0.046767 -0.431443 -0.253491 -0.140129 -0.944416
    9 1.539097 0.000000 0.000000 0.000000 0.000000 -0.422801
    10 1.196326 -0.000002 -0.000001 0.000000 0.000000 -0.685721
    11 3.883696 -0.046765 0.431443 -0.048698 -0.149461 -0.571418
    12 1.719570 -0.000004 -0.000001 0.000000 0.000000 -0.789633
    13 1.209171 -0.000002 0.000000 0.000000 0.000000 -0.638622
    14 3.859865 -0.137947 1.332466 0.233309 -0.200803 -0.470680
    15 1.719429 0.000002 -0.000001 0.000000 0.000000 -0.851271
    16 1.099665 0.000000 0.000000 0.000000 0.000000 -0.722480
    17 0.806053 -0.348925 1.321258 -0.919606 -0.521597 -1.289995
    18 1.789780 -0.000002 0.000002 0.000000 0.000000 0.258466
    19 1.207006 0.000000 0.000000 0.000000 0.000000 0.084299
    20 2.033356 1.000772 -1.937610 -1.668474 1.286518 2.942953
    21 6.028144 0.000000 0.000000 0.917304 0.001542 -1.163826
    22 11.692554 0.000001 0.000003 0.000000 0.000000 -0.492918
    23 11.481697 0.000001 0.000002 -1.839856 0.008434 0.043618
    24 3.859678 -0.132570 1.193109 0.452686 -0.203570 -0.743635
    25 1.312557 -0.000002 0.000001 0.000000 0.000000 -0.429894
    26 0.729365 0.000002 -0.000002 0.000000 0.000000 -0.234753
    27 3.942305 0.050327 0.431044 0.136996 -0.098616 -0.615904
    28 1.539099 -0.000002 0.000000 0.000000 0.000000 -0.346350
    29 1.196321 0.000008 0.000000 0.000000 0.000000 -0.575157
    30 3.883661 -0.050323 -0.431042 -0.085905 -0.026404 -0.587695
    31 1.719578 0.000004 0.000000 0.000000 -0.007974 -0.366436
    32 1.209185 0.000002 0.000000 0.000000 -0.004461 -0.216376
    33 3.859838 -0.148937 -1.331282 -0.354419 0.038567 -0.532001
    34 1.719423 0.000002 0.000000 0.000000 -0.006613 -0.362970
    35 1.099667 0.000002 0.000000 0.000000 -0.004211 -0.244312
    36 0.806021 -0.359837 -1.318334 1.203301 0.616014 -0.845207
    37 1.789782 0.000000 -0.000004 0.000000 0.000000 0.181370
    38 1.206999 0.000003 0.000002 0.000000 0.000000 0.294827
    39 -4.996094 -9.109375 -29.421875 1.570792 0.000003 -0.000003
    40 -5.124302 18.624328 19.966605 0.252215 0.033113 0.031795
    41 -0.004455 -0.545139 -2.136547 0.000000 0.000000 0.000000
    42 0.009659 -6.406696 -21.608532 0.000000 0.000000 0.000000
  time 11
    0 -4.996094 -5.242188 -9.640625 -1.570781 -1.391896 -1.570809
    1 2.033349 1.000767 1.937660 1.596637 -1.286515 2.942961
    2 6.028141 0.000000 0.000000 -0.387399 -0.918323 -1.778286
    3 11.692554 0.000001 0.000002 0.000000 0.000000 -0.865005
    4 11.481674 0.000001 -0.000032 -0.648563 0.110068 0.288002
    5 3.859709 -0.142404 -1.191975 -0.502776 -0.244875 -1.327706
    6 1.312555 -0.000002 0.000001 0.000000 0.000000 -0.275280
    7 0.729363 -0.000002 -0.000002 0.000000 0.000000 -0.093519
    8 3.942335 0.046767 -0.431443 -0.253491 -0.140129 -0.944416
    9 1.539097 0.000000 0.000000 0.000000 0.000000 -0.422801
    10 1.196326 -0.000002 -0.000001 0.000000 0.000000 -0.685721
    11 3.883696 -0.046765 0.431443 -0.048698 -0.149461 -0.571418
    12 1.719570 -0.000004 -0.000001 0.000000 0.000000 -0.789633
    13 1.209171 -0.000002 0.000000 0.000000 0.000000 -0.638622
    14 3.859865 -0.137947 1.332466 0.233309 -0.200803 -0.470680
    15 1.719429 0.000002 -0.000001 0.000000 0.000000 -0.851271
    16 1.099665 0.000000 0.000000 0.000000 0.000000 -0.722480
    17 0.806053 -0.348925 1.321258 -0.919606 -0.521611 -1.289995
    18 1.789780 -0.000002 0.000002 0.000000 0.000000 0.258466
    19 1.207006 0.000000 0.000000 0.000000 0.000000 0.084299
    20 2.033356 1.000772 -1.937610 -1.668474 1.286518 2.942953
    21 6.028144 0.000000 0.000000 0.917304 0.001542 -1.163826
    22 11.692554 0.000001 0.000003 0.000000 0.000000 -0.492918
    23 11.481697 0.000001 0.000002 -1.839856 0.008434 0.043618
    24 3.859678 -0.132570 1.193109 0.452686 -0.203570 -0.743635
    25 1.312557 -0.000002 0.000001 0.000000 0.000000 -0.429894
    26 0.729365 0.000002 -0.000002 0.000000 0.000000 -0.234753
    27 3.942305 0.050327 0.431044 0.136996 -0.098616 -0.615904
    28 1.539099 -0.000002 0.000000 0.000000 0.000000 -0.346350
    29 1.196321 0.000008 0.000000 0.000000 0.000000 -0.575157
    30 3.883661 -0.050323 -0.431042 -0.085905 -0.026404 -0.587695
    31 1.719578 0.000004 0.000000 0.000000 -0.007974 -0.366436
    32 1.209185 0.000002 0.000000 0.000000 -0.004461 -0.216376
    33 3.859838 -0.148937 -1.331282 -0.354419 0.038567 -0.532001
    34 1.719423 0.000002 0.000000 0.000000 -0.006613 -0.362970
    35 1.099667 0.000002 0.000000 0.000000 -0.004211 -0.244312
    36 0.806021 -0.359837 -1.318334 1.203301 0.616014 -0.845207
    37 1.789782 0.000000 -0.000004 0.000000 0.000000 0.181370
    38 1.206999 0.000003 0.000002 0.000000 0.000000 0.294827
    39 -4.996094 -9.109375 -29.421875 1.570792 0.000003 -0.000003
    40 -5.093051 18.745425 19.997856 0.252260 0.029877 0.028763
    41 -0.004455 -0.545139 -2.136547 0.000000 0.000000 0.000000
    42 0.009659 -6.406696 -21.608532 0.000000 0.000000 0.000000
  time 12
    0 -4.996094 -5.242188 -9.640625 -1.570781 -1.391896 -1.570809
    1 2.033349 1.000767 1.937660 1.596637 -1.286515 2.942961
    2 6.028141 0.000000 0.000000 -0.397809 -0.918459 -1.770728
    3 11.692554 0.000001 0.000002 0.000000 0.000000 -0.867190
    4 11.481674 0.000001 -0.000032 -0.647125 0.115330 0.284928
    5 3.859709 -0.142404 -1.191975 -0.502776 -0.244875 -1.327706
    6 1.312555 -0.000002 0.000001 0.000000 0.000000 -0.275280
    7 0.729363 -0.000002 -0.000002 0.000000 0.000000 -0.093519
    8 3.942335 0.046767 -0.431443 -0.253491 -0.140129 -0.944416
    9 1.539097 0.000000 0.000000 0.000000 0.000000 -0.422801
    10 1.196326 -0.000002 -0.000001 0.000000 0.000000 -0.685721
    11 3.883696 -0.046765 0.431443 -0.048698 -0.149461 -0.571418
    12 1.719570 -0.000004 -0.000001 0.000000 0.000000 -0.789633
    13 1.209171 -0.000002 0.000000 0.000000 0.000000 -0.638622
    14 3.859865 -0.137947 1.332466 0.233309 -0.200803 -0.470680
    15 1.719429 0.000002 -0.000001 0.000000 0.000000 -0.851271
    16 1.099665 0.000000 0.000000 0.000000 0.000000 -0.722480
    17 0.806053 -0.348925 1.321258 -0.919606 -0.521611 -1.289995
    18 1.789780 -0.000002 0.000002 0.000000 0.000000 0.258466
    19 1.207006 0.000000 0.000000 0.000000 0.000000 0.084299
    20 2.033356 1.000772 -1.937610 -1.668474 1.286518 2.942953
    21 6.028144 0.000000 0.000000 0.917304 0.001542 -1.163826
    22 11.692554 0.000001 0.000003 0.000000 0.000000 -0.492918
    23 11.481697 0.000001 0.000002 -1.839856 0.008434 0.043618
    24 3.859678 -0.132570 1.193109 0.452686 -0.203570 -0.743635
    25 1.312557 -0.000002 0.000001 0.000000 0.000000 -0.429894
    26 0.729365 0.000002 -0.000002 0.000000 0.000000 -0.234753
    27 3.942305 0.050327 0.431044 0.136996 -0.098616 -0.615904
    28 1.539099 -0.000002 0.000000 0.000000 0.000000 -0.346350
    29 1.196321 0.000008 0.000000 0.000000 0.000000 -0.575157
    30 3.883661 -0.050323 -0.431042 -0.085905 -0.026404 -0.587695
    31 1.719578 0.000004 0.000000 0.000000 -0.007974 -0.366436
    32 1.209185 0.000002 0.000000 0.000000 -0.004461 -0.216376
    33 3.859838 -0.148937 -1.331282 -0.354419 0.038567 -0.532001
    34 1.719423 0.000002 0.000000 0.000000 -0.006613 -0.362970
    35 1.099667 0.000002 0.000000 0.000000 -0.004211 -0.244312
    36 0.806021 -0.359837 -1.318334 1.203301 0.616014 -0.845207
    37 1.789782 0.000000 -0.000004 0.000000 0.000000 0.181370
    38 1.206999 0.000003 0.000002 0.000000 0.000000 0.294827
    39 -4.996094 -9.109375 -29.421875 1.570792 0.000003 -0.000003
    40 -5.007111 18.725893 20.036920 0.252620 0.028259 0.027385
    41 -0.004455 -0.545139 -2.136547 0.000000 0.000000 0.000000
    42 0.009659 -6.406696 -21.608532 0.000000 0.000000 0.000000
  time 13
    0 -4.996094 -5.242188 -9.640625 -1.570781 -1.391896 -1.570809
    1 2.033349 1.000767 1.937660 1.596637 -1.286515 2.942961
    2 6.028141 0.000000 0.000000 -0.412227 -0.916077 -1.756281
    3 11.692554 0.000001 0.000002 0.000000 0.000000 -0.868541
    4 11.481674 0.000001 -0.000032 -0.645287 0.118062 0.278386
    5 3.859709 -0.142404 -1.191975 -0.502776 -0.244875 -1.327706
    6 1.312555 -0.000002 0.000001 0.000000 0.000000 -0.275280
    7 0.729363 -0.000002 -0.000002 0.000000 0.000000 -0.093519
    8 3.942335 0.046767 -0.431443 -0.253491 -0.140129 -0.944416
    9 1.539097 0.000000 0.000000 0.000000 0.000000 -0.422801
    10 1.196326 -0.000002 -0.000001 0.000000 0.000000 -0.685721
    11 3.883696 -0.046765 0.431443 -0.048698 -0.149461 -0.571418
    12 1.719570 -0.000004 -0.000001 0.000000 0.000000 -0.789633
    13 1.209171 -0.000002 0.000000 0.000000 0.000000 -0.638622
    14 3.859865 -0.137947 1.332466 0.233309 -0.200803 -0.470680
    15 1.719429 0.000002 -0.000001 0.000000 0.000000 -0.851271
    16 1.099665 0.000000 0.000000 0.000000 0.000000 -0.722480
    17 0.806053 -0.348925 1.321258 -0.919606 -0.521611 -1.289995
    18 1.789780 -0.000002 0.000002 0.000000 0.000000 0.258466
    19 1.207006 0.000000 0.000000 0.000000 0.000000 0.084299
    20 2.033356 1.000772 -1.937610 -1.668474 1.286518 2.942953
    21 6.028144 0.000000 0.000000 0.917304 0.001542 -1.163826
    22 11.692554 0.000001 0.000003 0.000000 0.000000 -0.492918
    23 11.481697 0.000001 0.000002 -1.839856 0.008434 0.043618
    24 3.859678 -0.132570 1.193109 0.452686 -0.203570 -0.743635
    25 1.312557 -0.000002 0.000001 0.000000 0.000000 -0.429894
    26 0.729365 0.000002 -0.000002 0.000000 0.000000 -0.234753
    27 3.942305 0.050327 0.431044 0.136996 -0.098616 -0.615904
    28 1.539099 -0.000002 0.000000 0.000000 0.000000 -0.346350
    29 1.196321 0.000008 0.000000 0.000000 0.000000 -0.575157
    30 3.883661 -0.050323 -0.431042 -0.085905 -0.026404 -0.587695
    31 1.719578 0.000004 0.000000 0.000000 -0.007974 -0.366436
    32 1.209185 0.000002 0.000000 0.000000 -0.004461 -0.216376
    33 3.859838 -0.148937 -1.331282 -0.354419 0.038567 -0.532001
    34 1.719423 0.000002 0.000000 0.000000 -0.006613 -0.362970
    35 1.099667 0.000002 0.000000 0.000000 -0.004211 -0.244312
    36 0.806021 -0.359837 -1.318334 1.203301 0.616014 -0.845207
    37 1.789782 0.000000 -0.000004 0.000000 0.000000 0.181370
    38 1.206999 0.000003 0.000002 0.000000 0.000000 0.294827
    39 -4.996094 -9.109375 -29.421875 1.570792 0.000003 -0.000003
    40 -4.882107 18.593077 20.083796 0.253221 0.028595 0.027984
    41 -0.004455 -0.545139 -2.136547 0.000000 0.000000 0.000000
    42 0.009659 -6.406696 -21.608532 0.000000 0.000000 0.000000
  time 14
    0 -4.996094 -5.242188 -9.640625 -1.570781 -1.391896 -1.570809
    1 2.033349 1.000767 1.937660 1.596637 -1.286515 2.942961
    2 6.028141 0.000000 0.000000 -0.428551 -0.912062 -1.738243
    3 11.692554 0.000001 0.000002 0.000000 0.000000 -0.869826
    4 11.481674 0.000001 -0.000032 -0.641452 0.117763 0.273027
    5 3.859709 -0.142404 -1.191975 -0.502776 -0.244875 -1.327706
    6 1.312555 -0.000002 0.000001 0.000000 0.000000 -0.275280
    7 0.729363 -0.000002 -0.000002 0.000000 0.000000 -0.093519
    8 3.942335 0.046767 -0.431443 -0.253491 -0.140129 -0.944416
    9 1.539097 0.000000 0.000000 0.000000 0.000000 -0.422801
    10 1.196326 -0.000002 -0.000001 0.000000 0.000000 -0.685721
    11 3.883696 -0.046765 0.431443 -0.048698 -0.149461 -0.571418
    12 1.719570 -0.000004 -0.000001 0.000000 0.000000 -0.789633
    13 1.209171 -0.000002 0.000000 0.000000 0.000000 -0.638622
    14 3.859865 -0.137947 1.332466 0.233309 -0.200803 -0.470680
    15 1.719429 0.000002 -0.000001 0.000000 0.000000 -0.851271
    16 1.099665 0.000000 0.000000 0.000000 0.000000 -0.722480
    17 0.806053 -0.348925 1.321258 -0.919606 -0.521611 -1.289995
    18 1.789780 -0.000002 0.000002 0.000000 0.000000 0.258466
    19 1.207006 0.000000 0.000000 0.000000 0.000000 0.084299
    20 2.033356 1.000772 -1.937610 -1.668474 1.286518 2.942953
    21 6.028144 0.000000 0.000000 0.917304 0.001542 -1.163826
    22 11.692554 0.000001 0.000003 0.000000 0.000000 -0.492918
    23 11.481697 0.000001 0.000002 -1.839856 0.008434 0.043618
    24 3.859678 -0.132570 1.193109 0.452686 -0.203570 -0.743635
    25 1.312557 -0.000002 0.000001 0.000000 0.000000 -0.429894
    26 0.729365 0.000002 -0.000002 0.000000 0.000000 -0.234753
    27 3.942305 0.050327 0.431044 0.136996 -0.098616 -0.615904
    28 1.539099 -0.000002 0.000000 0.000000 0.000000 -0.346350
    29 1.196321 0.000008 0.000000 0.000000 0.000000 -0.575157
    30 3.883661 -0.050323 -0.431042 -0.085905 -0.026404 -0.587695
    31 1.719578 0.000004 0.000000 0.000000 -0.007974 -0.366436
    32 1.209185 0.000002 0.000000 0.000000 -0.004461 -0.216376
    33 3.859838 -0.148937 -1.331282 -0.354419 0.038567 -0.532001
    34 1.719423 0.000002 0.000000 0.000000 -0.006613 -0.362970
    35 1.099667 0.000002 0.000000 0.000000 -0.004211 -0.244312
    36 0.806021 -0.359837 -1.318334 1.203301 0.616014 -0.845207
    37 1.789782 0.000000 -0.000004 0.000000 0.000000 0.181370
    38 1.206999 0.000003 0.000002 0.000000 0.000000 0.294827
    39 -4.996094 -9.109375 -29.421875 1.570792 0.000003 -0.000003
    40 -4.733665 18.401665 20.130673 0.254062 0.032442 0.032143
    41 -0.004455 -0.545139 -2.136547 0.000000 0.000000 0.000000
    42 0.009659 -6.406696 -21.608532 0.000000 0.000000 0.000000
  time 15
    0 -4.996094 -5.242188 -9.640625 -1.570781 -1.391896 -1.570809
    1 2.033349 1.000767 1.937660 1.596637 -1.286515 2.942961
    2 6.028141 0.000000 0.000000 -0.444876 -0.907094 -1.719119
    3 11.692554 0.000001 0.000002 0.000000 0.000000 -0.870276
    4 11.481674 0.000001 -0.000032 -0.635380 0.114263 0.269953
    5 3.859709 -0.142404 -1.191975 -0.502776 -0.244875 -1.327706
    6 1.312555 -0.000002 0.000001 0.000000 0.000000 -0.275280
    7 0.729363 -0.000002 -0.000002 0.000000 0.000000 -0.093519
    8 3.942335 0.046767 -0.431443 -0.253491 -0.140129 -0.944416
    9 1.539097 0.000000 0.000000 0.000000 0.000000 -0.422801
    10 1.196326 -0.000002 -0.000001 0.000000 0.000000 -0.685721
    11 3.883696 -0.046765 0.431443 -0.048698 -0.149461 -0.571418
    12 1.719570 -0.000004 -0.000001 0.000000 0.000000 -0.789633
    13 1.209171 -0.000002 0.000000 0.000000 0.000000 -0.638622
    14 3.859865 -0.137947 1.332466 0.233297 -0.200803 -0.470680
    15 1.719429 0.000002 -0.000001 0.000000 0.000000 -0.851271
    16 1.099665 0.000000 0.000000 0.000000 0.000000 -0.722480
    17 0.806053 -0.348925 1.321258 -0.919606 -0.521611 -1.289995
    18 1.789780 -0.000002 0.000002 0.000000 0.000000 0.258466
    19 1.207006 0.000000 0.000000 0.000000 0.000000 0.084299
    20 2.033356 1.000772 -1.937610 -1.668474 1.286518 2.942953
    21 6.028144 0.000000 0.000000 0.917304 0.001542 -1.163826
    22 11.692554 0.000001 0.000003 0.000000 0.000000 -0.492918
    23 11.481697 0.000001 0.000002 -1.839856 0.008434 0.043618
    24 3.859678 -0.132570 1.193109 0.452686 -0.203570 -0.743635
    25 1.312557 -0.000002 0.000001 0.000000 0.000000 -0.429894
    26 0.729365 0.000002 -0.000002 0.000000 0.000000 -0.234753
    27 3.942305 0.050327 0.431044 0.136996 -0.098616 -0.615904
    28 1.539099 -0.000002 0.000000 0.000000 0.000000 -0.346350
    29 1.196321 0.000008 0.000000 0.000000 0.000000 -0.575157
    30 3.883661 -0.050323 -0.431042 -0.085905 -0.026404 -0.587695
    31 1.719578 0.000004 0.000000 0.000000 -0.007974 -0.366436
    32 1.209185 0.000002 0.000000 0.000000 -0.004461 -0.216376
    33 3.859838 -0.148937 -1.331282 -0.354419 0.038567 -0.532001
    34 1.719423 0.000002 0.000000 0.000000 -0.006613 -0.362970
    35 1.099667 0.000002 0.000000 0.000000 -0.004211 -0.244312
    36 0.806021 -0.359837 -1.318334 1.203301 0.616014 -0.845207
    37 1.789782 0.000000 -0.000004 0.000000 0.000000 0.181370
    38 1.206999 0.000003 0.000002 0.000000 0.000000 0.294827
    39 -4.996094 -9.109375 -29.421875 1.570792 0.000003 -0.000003
    40 -4.569597 18.171189 20.173643 0.255129 0.040004 0.040172
    41 -0.004455 -0.545139 -2.136547 0.000000 0.000000 0.000000
    42 0.009659 -6.406696 -21.608532 0.000000 0.000000 0.000000
  time 16
    0 -4.996094 -5.242188 -9.640625 -1.570781 -1.391896 -1.570809
    1 2.033349 1.000767 1.937660 1.596637 -1.286515 2.942961
    2 6.028141 0.000000 0.000000 -0.459636 -0.901650 -1.700621
    3 11.692554 0.000001 0.000002 0.000000 0.000000 -0.868669
    4 11.481674 0.000001 -0.000032 -0.628269 0.108522 0.267313
    5 3.859709 -0.142404 -1.191975 -0.502776 -0.244875 -1.327706
    6 1.312555 -0.000002 0.000001 0.000000 0.000000 -0.275280
    7 0.729363 -0.000002 -0.000002 0.000000 0.000000 -0.093519
    8 3.942335 0.046767 -0.431443 -0.253491 -0.140129 -0.944416
    9 1.539097 0.000000 0.000000 0.000000 0.000000 -0.422801
    10 1.196326 -0.000002 -0.000001 0.000000 0.000000 -0.685721
    11 3.883696 -0.046765 0.431443 -0.048698 -0.149461 -0.571418
    12 1.719570 -0.000004 -0.000001 0.000000 0.000000 -0.789633
    13 1.209171 -0.000002 0.000000 0.000000 0.000000 -0.638622
    14 3.859865 -0.137947 1.332466 0.233309 -0.200803 -0.470680
    15 1.719429 0.000002 -0.000001 0.000000 0.000000 -0.851271
    16 1.099665 0.000000 0.000000 0.000000 0.000000 -0.722480
    17 0.806053 -0.348925 1.321258 -0.919606 -0.521611 -1.289995
    18 1.789780 -0.000002 0.000002 0.000000 0.000000 0.258466
    19 1.207006 0.000000 0.000000 0.000000 0.000000 0.084299
    20 2.033356 1.000772 -1.937610 -1.668474 1.286518 2.942953
    21 6.028144 0.000000 0.000000 0.917304 0.001542 -1.163826
    22 11.692554 0.000001 0.000003 0.000000 0.000000 -0.492918
    23 11.481697 0.000001 0.000002 -1.839856 0.008434 0.043618
    24 3.859678 -0.132570 1.193109 0.452686 -0.203570 -0.743635
    25 1.312557 -0.000002 0.000001 0.000000 0.000000 -0.429894
    26 0.729365 0.000002 -0.000002 0.000000 0.000000 -0.234753
    27 3.942305 0.050327 0.431044 0.136996 -0.098616 -0.615904
    28 1.539099 -0.000002 0.000000 0.000000 0.000000 -0.346350
    29 1.196321 0.000008 0.000000 0.000000 0.000000 -0.575157
    30 3.883661 -0.050323 -0.431042 -0.085905 -0.026404 -0.587695
    31 1.719578 0.000004 0.000000 0.000000 -0.007974 -0.366436
    32 1.209185 0.000002 0.000000 0.000000 -0.004461 -0.216376
    33 3.859838 -0.148937 -1.331282 -0.354419 0.038567 -0.532001
    34 1.719423 0.000002 0.000000 0.000000 -0.006613 -0.362970
    35 1.099667 0.000002 0.000000 0.000000 -0.004211 -0.244312
    36 0.806021 -0.359837 -1.318334 1.203301 0.616014 -0.845207
    37 1.789782 0.000000 -0.000004 0.000000 0.000000 0.181370
    38 1.206999 0.000003 0.000002 0.000000 0.000000 0.294827
    39 -4.996094 -9.109375 -29.421875 1.570792 0.000003 -0.000003
    40 -4.401624 17.909462 20.220519 0.256360 0.049616 0.050515
    41 -0.004455 -0.545139 -2.136547 0.000000 0.000000 0.000000
    42 0.009659 -6.406696 -21.608532 0.000000 0.000000 0.000000
  time 17
    0 -4.996094 -5.242188 -9.640625 -1.570781 -1.391896 -1.570809
    1 2.033349 1.000767 1.937660 1.596637 -1.286515 2.942961
    2 6.028141 0.000000 0.000000 -0.473468 -0.897873 -1.685715
    3 11.692554 0.000001 0.000002 0.000000 0.000000 -0.869826
    4 11.481674 0.000001 -0.000032 -0.619560 0.104076 0.270742
    5 3.859709 -0.142404 -1.191975 -0.502776 -0.244875 -1.327706
    6 1.312555 -0.000002 0.000001 0.000000 0.000000 -0.275280
    7 0.729363 -0.000002 -0.000002 0.000000 0.000000 -0.093519
    8 3.942335 0.046767 -0.431443 -0.253491 -0.140129 -0.944416
    9 1.539097 0.000000 0.000000 0.000000 0.000000 -0.422801
    10 1.196326 -0.000002 -0.000001 0.000000 0.000000 -0.685721
    11 3.883696 -0.046765 0.431443 -0.048698 -0.149461 -0.571418
    12 1.719570 -0.000004 -0.000001 0.000000 0.000000 -0.789633
    13 1.209171 -0.000002 0.000000 0.000000 0.000000 -0.638622
    14 3.859865 -0.137947 1.332466 0.233309 -0.200803 -0.470680
    15 1.719429 0.000002 -0.000001 0.000000 0.000000 -0.851271
    16 1.099665 0.000000 0.000000 0.000000 0.000000 -0.722480
    17 0.806053 -0.348925 1.321258 -0.919606 -0.521611 -1.289995
    18 1.789780 -0.000002 0.000002 0.000000 0.000000 0.258466
    19 1.207006 0.000000 0.000000 0.000000 0.000000 0.084299
    20 2.033356 1.000772 -1.937610 -1.668474 1.286518 2.942953
    21 6.028144 0.000000 0.000000 0.917304 0.001542 -1.163826
    22 11.692554 0.000001 0.000003 0.000000 0.000000 -0.492918
    23 11.481697 0.000001 0.000002 -1.839856 0.008434 0.043618
    24 3.859678 -0.132570 1.193109 0.452686 -0.203570 -0.743635
    25 1.312557 -0.000002 0.000001 0.000000 0.000000 -0.429894
    26 0.729365 0.000002 -0.000002 0.000000 0.000000 -0.234753
    27 3.942305 0.050327 0.431044 0.136996 -0.098616 -0.615904
    28 1.539099 -0.000002 0.000000 0.000000 0.000000 -0.346350
    29 1.196321 0.000008 0.000000 0.000000 0.000000 -0.575157
    30 3.883661 -0.050323 -0.431042 -0.085905 -0.026404 -0.587695
    31 1.719578 0.000004 0.000000 0.000000 -0.007974 -0.366436
    32 1.209185 0.000002 0.000000 0.000000 -0.004461 -0.216376
    33 3.859838 -0.148937 -1.331282 -0.354419 0.038567 -0.532001
    34 1.719423 0.000002 0.000000 0.000000 -0.006613 -0.362970
    35 1.099667 0.000002 0.000000 0.000000 -0.004211 -0.244312
    36 0.806021 -0.359837 -1.318334 1.203301 0.616014 -0.845207
    37 1.789782 0.000000 -0.000004 0.000000 0.000000 0.181370
    38 1.206999 0.000003 0.000002 0.000000 0.000000 0.294827
    39 -4.996094 -9.109375 -29.421875 1.570792 0.000003 -0.000003
    40 -4.253182 17.741488 20.259583 0.257667 0.059695 0.061541
    41 -0.004455 -0.545139 -2.136547 0.000000 0.000000 0.000000
    42 0.009659 -6.406696 -21.608532 0.000000 0.000000 0.000000
  time 18
    0 -4.996094 -5.242188 -9.640625 -1.570781 -1.391896 -1.570809
    1 2.033349 1.000767 1.937660 1.596637 -1.286515 2.942961
    2 6.028141 0.000000 0.000000 -0.489255 -0.899064 -1.677614
    3 11.692554 0.000001 0.000002 0.000000 0.000000 -0.883970
    4 11.481674 0.000001 -0.000032 -0.606776 0.106425 0.292494
    5 3.859709 -0.142404 -1.191975 -0.502776 -0.244875 -1.327706
    6 1.312555 -0.000002 0.000001 0.000000 0.000000 -0.275280
    7 0.729363 -0.000002 -0.000002 0.000000 0.000000 -0.093519
    8 3.942335 0.046767 -0.431443 -0.253491 -0.140129 -0.944416
    9 1.539097 0.000000 0.000000 0.000000 0.000000 -0.422801
    10 1.196326 -0.000002 -0.000001 0.000000 0.000000 -0.685721
    11 3.883696 -0.046765 0.431443 -0.048698 -0.149461 -0.571418
    12 1.719570 -0.000004 -0.000001 0.000000 0.000000 -0.789633
    13 1.209171 -0.000002 0.000000 0.000000 0.000000 -0.638622
    14 3.859865 -0.137947 1.332466 0.233309 -0.200803 -0.470680
    15 1.719429 0.000002 -0.000001 0.000000 0.000000 -0.851271
    16 1.099665 0.000000 0.000000 0.000000 0.000000 -0.722480
    17 0.806053 -0.348925 1.321258 -0.919606 -0.521597 -1.289995
    18 1.789780 -0.000002 0.000002 0.000000 0.000000 0.258466
    19 1.207006 0.000000 0.000000 0.000000 0.000000 0.084299
    20 2.033356 1.000772 -1.937610 -1.668474 1.286518 2.942953
    21 6.028144 0.000000 0.000000 0.917304 0.001542 -1.163826
    22 11.692554 0.000001 0.000003 0.000000 0.000000 -0.492918
    23 11.481697 0.000001 0.000002 -1.839856 0.008434 0.043618
    24 3.859678 -0.132570 1.193109 0.452686 -0.203570 -0.743635
    25 1.312557 -0.000002 0.000001 0.000000 0.000000 -0.429894
    26 0.729365 0.000002 -0.000002 0.000000 0.000000 -0.234753
    27 3.942305 0.050327 0.431044 0.136996 -0.098616 -0.615904
    28 1.539099 -0.000002 0.000000 0.000000 0.000000 -0.346350
    29 1.196321 0.000008 0.000000 0.000000 0.000000 -0.575157
    30 3.883661 -0.050323 -0.431042 -0.085905 -0.026404 -0.587695
    31 1.719578 0.000004 0.000000 0.000000 -0.007974 -0.366436
    32 1.209185 0.000002 0.000000 0.000000 -0.004461 -0.216376
    33 3.859838 -0.148937 -1.331282 -0.354419 0.038567 -0.532001
    34 1.719423 0.000002 0.000000 0.000000 -0.006613 -0.362970
    35 1.099667 0.000002 0.000000 0.000000 -0.004211 -0.244312
    36 0.806021 -0.359837 -1.318334 1.203301 0.616014 -0.845207
    37 1.789782 0.000000 -0.000004 0.000000 0.000000 0.181370
    38 1.206999 0.000003 0.000002 0.000000 0.000000 0.294827
    39 -4.996094 -9.109375 -29.421875 1.570792 0.000003 -0.000003
    40 -4.128178 17.866492 20.294740 0.258869 0.068707 0.071596
    41 -0.004455 -0.545139 -2.136547 0.000000 0.000000 0.000000
    42 0.009659 -6.406696 -21.608532 0.000000 0.000000 0.000000
  time 19
    0 -4.996094 -5.242188 -9.640625 -1.570781 -1.391896 -1.570809
    1 2.033349 1.000767 1.937660 1.596637 -1.286515 2.942961
    2 6.028141 0.000000 0.000000 -0.504406 -0.905699 -1.678282
    3 11.692554 0.000001 0.000002 0.000000 0.000000 -0.908785
    4 11.481674 0.000001 -0.000032 -0.591835 0.115533 0.329733
    5 3.859709 -0.142404 -1.191975 -0.502776 -0.244875 -1.327706
    6 1.312555 -0.000002 0.000001 0.000000 0.000000 -0.275280
    7 0.729363 -0.000002 -0.000002 0.000000 0.000000 -0.093519
    8 3.942335 0.046767 -0.431443 -0.253491 -0.140129 -0.944416
    9 1.539097 0.000000 0.000000 0.000000 0.000000 -0.422801
    10 1.196326 -0.000002 -0.000001 0.000000 0.000000 -0.685721
    11 3.883696 -0.046765 0.431443 -0.048698 -0.149461 -0.571418
    12 1.719570 -0.000004 -0.000001 0.000000 0.000000 -0.789633
    13 1.209171 -0.000002 0.000000 0.000000 0.000000 -0.638622
    14 3.859865 -0.137947 1.332466 0.233309 -0.200803 -0.470680
    15 1.719429 0.000002 -0.000001 0.000000 0.000000 -0.851271
    16 1.099665 0.000000 0.000000 0.000000 0.000000 -0.722480
    17 0.806053 -0.348925 1.321258 -0.919606 -0.521611 -1.289995
    18 1.789780 -0.000002 0.000002 0.000000 0.000000 0.258466
    19 1.207006 0.000000 0.000000 0.000000 0.000000 0.084299
    20 2.033356 1.000772 -1.937610 -1.668474 1.286518 2.942953
    21 6.028144 0.000000 0.000000 0.917304 0.001542 -1.163826
    22 11.692554 0.000001 0.000003 0.000000 0.000000 -0.492918
    23 11.481697 0.000001 0.000002 -1.839856 0.008434 0.043618
    24 3.859678 -0.132570 1.193109 0.452686 -0.203570 -0.743635
    25 1.312557 -0.000002 0.000001 0.000000 0.000000 -0.429894
    26 0.729365 0.000002 -0.000002 0.000000 0.000000 -0.234753
    27 3.942305 0.050327 0.431044 0.136996 -0.098616 -0.615904
    28 1.539099 -0.000002 0.000000 0.000000 0.000000 -0.346350
    29 1.196321 0.000008 0.000000 0.000000 0.000000 -0.575157
    30 3.883661 -0.050323 -0.431042 -0.085905 -0.026404 -0.587695
    31 1.719578 0.000004 0.000000 0.000000 -0.007974 -0.366436
    32 1.209185 0.000002 0.000000 0.000000 -0.004461 -0.216376
    33 3.859838 -0.148937 -1.331282 -0.354419 0.038567 -0.532001
    34 1.719423 0.000002 0.000000 0.000000 -0.006613 -0.362970
    35 1.099667 0.000002 0.000000 0.000000 -0.004211 -0.244312
    36 0.806021 -0.359837 -1.318334 1.203301 0.616014 -0.845207
    37 1.789782 0.000000 -0.000004 0.000000 0.000000 0.181370
    38 1.206999 0.000003 0.000002 0.000000 0.000000 0.294827
    39 -4.996094 -9.109375 -29.421875 1.570792 0.000003 -0.000003
    40 -4.042238 18.280567 20.314272 0.259785 0.075191 0.078907
    41 -0.004455 -0.545139 -2.136547 0.000000 0.000000 0.000000
    42 0.009659 -6.406696 -21.608532 0.000000 0.000000 0.000000
  time 20
    0 -4.996094 -5.242188 -9.640625 -1.570781 -1.391896 -1.570809
    1 2.033349 1.000767 1.937660 1.596637 -1.286515 2.942961
    2 6.028141 0.000000 0.000000 -0.510320 -0.909782 -1.680662
    3 11.692554 0.000001 0.000002 0.000000 0.000000 -0.920678
    4 11.481674 0.000001 -0.000032 -0.584804 0.120507 0.348491
    5 3.859709 -0.142404 -1.191975 -0.502776 -0.244875 -1.327706
    6 1.312555 -0.000002 0.000001 0.000000 0.000000 -0.275280
    7 0.729363 -0.000002 -0.000002 0.000000 0.000000 -0.093519
    8 3.942335 0.046767 -0.431443 -0.253491 -0.140129 -0.944416
    9 1.539097 0.000000 0.000000 0.000000 0.000000 -0.422801
    10 1.196326 -0.000002 -0.000001 0.000000 0.000000 -0.685721
    11 3.883696 -0.046765 0.431443 -0.048698 -0.149461 -0.571418
    12 1.719570 -0.000004 -0.000001 0.000000 0.000000 -0.789633
    13 1.209171 -0.000002 0.000000 0.000000 0.000000 -0.638622
    14 3.859865 -0.137947 1.332466 0.233309 -0.200803 -0.470680
    15 1.719429 0.000002 -0.000001 0.000000 0.000000 -0.851271
    16 1.099665 0.000000 0.000000 0.000000 0.000000 -0.722480
    17 0.806053 -0.348925 1.321258 -0.919606 -0.521611 -1.289995
    18 1.789780 -0.000002 0.000002 0.000000 0.000000 0.258466
    19 1.207006 0.000000 0.000000 0.000000 0.000000 0.084299
    20 2.033356 1.000772 -1.937610 -1.668474 1.286518 2.942953
    21 6.028144 0.000000 0.000000 0.917304 0.001542 -1.163826
    22 11.692554 0.000001 0.000003 0.000000 0.000000 -0.492918
    23 11.481697 0.000001 0.000002 -1.839856 0.008434 0.043618
    24 3.859678 -0.132570 1.193109 0.452686 -0.203570 -0.743635
    25 1.312557 -0.000002 0.000001 0.000000 0.000000 -0.429894
    26 0.729365 0.000002 -0.000002 0.000000 0.000000 -0.234753
    27 3.942305 0.050327 0.431044 0.136996 -0.098616 -0.615904
    28 1.539099 -0.000002 0.000000 0.000000 0.000000 -0.346350
    29 1.196321 0.000008 0.000000 0.000000 0.000000 -0.575157
    30 3.883661 -0.050323 -0.431042 -0.085905 -0.026404 -0.587695
    31 1.719578 0.000004 0.000000 0.000000 -0.007974 -0.366436
    32 1.209185 0.000002 0.000000 0.000000 -0.004461 -0.216376
    33 3.859838 -0.148937 -1.331282 -0.354419 0.038567 -0.532001
    34 1.719423 0.000002 0.000000 0.000000 -0.006613 -0.362970
    35 1.099667 0.000002 0.000000 0.000000 -0.004211 -0.244312
    36 0.806021 -0.359837 -1.318334 1.203301 0.616014 -0.845207
    37 1.789782 0.000000 -0.000004 0.000000 0.000000 0.181370
    38 1.206999 0.000003 0.000002 0.000000 0.000000 0.294827
    39 -4.996094 -9.109375 -29.421875 1.570792 0.000003 -0.000003
    40 -4.014893 18.507137 20.322085 0.260145 0.077672 0.081735
    41 -0.004455 -0.545139 -2.136547 0.000000 0.000000 0.000000
    42 0.009659 -6.406696 -21.608532 0.000000 0.000000 0.000000
end
