version 1
nodes
0 "ValveBiped.Bip01_Spine4" -1
1 "ValveBiped.Bip01_R_Clavicle" 0
2 "ValveBiped.Bip01_R_UpperArm" 1
3 "ValveBiped.Bip01_R_Forearm" 2
4 "ValveBiped.Bip01_R_Hand" 3
5 "ValveBiped.Bip01_R_Finger4" 4
6 "ValveBiped.Bip01_R_Finger41" 5
7 "ValveBiped.Bip01_R_Finger42" 6
8 "ValveBiped.Bip01_R_Finger3" 4
9 "ValveBiped.Bip01_R_Finger31" 8
10 "ValveBiped.Bip01_R_Finger32" 9
11 "ValveBiped.Bip01_R_Finger2" 4
12 "ValveBiped.Bip01_R_Finger21" 11
13 "ValveBiped.Bip01_R_Finger22" 12
14 "ValveBiped.Bip01_R_Finger1" 4
15 "ValveBiped.Bip01_R_Finger11" 14
16 "ValveBiped.Bip01_R_Finger12" 15
17 "ValveBiped.Bip01_R_Finger0" 4
18 "ValveBiped.Bip01_R_Finger01" 17
19 "ValveBiped.Bip01_R_Finger02" 18
20 "ValveBiped.square" 4
21 "ValveBiped.clip" 4
22 "ik_target.Bip01_L_Hand" 4
23 "ik_target.Bip01_L_Finger1_tip" 22
24 "ik_target.Bip01_L_Finger2_tip" 22
25 "ik_target.Bip01_L_Finger3_tip" 22
26 "ik_target.Bip01_L_Finger4_tip" 22
27 "ik_target.Bip01_L_Finger0_tip" 22
28 "ik_chain.Bip01_Spine4" -1
29 "ik_chain.Bip01_L_Clavicle" 28
30 "ValveBiped.Bip01_L_Clavicle" 0
31 "ik_parent.Bip01_L_Clavicle" 29
32 "ik_chain.Bip01_L_UpperArm" 29
33 "ik_parent.Bip01_L_UpperArm" 32
34 "ValveBiped.Bip01_L_UpperArm" 30
35 "ik_chain.Bip01_L_Forearm" 32
36 "ik_parent.Bip01_L_Forearm" 35
37 "ValveBiped.Bip01_L_Forearm" 34
38 "ik_chain.Bip01_L_Hand" 35
39 "ik_parent.Bip01_L_Hand" 38
40 "ValveBiped.Bip01_L_Hand" 37
41 "ik_chain.Bip01_L_Finger1" 38
42 "ik_parent.Bip01_L_Finger1" 41
43 "ValveBiped.Bip01_L_Finger1" 40
44 "ik_chain.Bip01_L_Finger11" 41
45 "ik_parent.Bip01_L_Finger11" 44
46 "ValveBiped.Bip01_L_Finger11" 43
47 "ik_chain.Bip01_L_Finger12" 44
48 "ik_parent.Bip01_L_Finger12" 47
49 "ValveBiped.Bip01_L_Finger12" 46
50 "ik_chain.Bip01_L_Finger2" 38
51 "ik_parent.Bip01_L_Finger2" 50
52 "ValveBiped.Bip01_L_Finger2" 40
53 "ik_chain.Bip01_L_Finger21" 50
54 "ik_parent.Bip01_L_Finger21" 53
55 "ValveBiped.Bip01_L_Finger21" 52
56 "ik_chain.Bip01_L_Finger22" 53
57 "ik_parent.Bip01_L_Finger22" 56
58 "ValveBiped.Bip01_L_Finger22" 55
59 "ik_chain.Bip01_L_Finger3" 38
60 "ik_parent.Bip01_L_Finger3" 59
61 "ValveBiped.Bip01_L_Finger3" 40
62 "ik_chain.Bip01_L_Finger31" 59
63 "ik_parent.Bip01_L_Finger31" 62
64 "ValveBiped.Bip01_L_Finger31" 61
65 "ik_chain.Bip01_L_Finger32" 62
66 "ik_parent.Bip01_L_Finger32" 65
67 "ValveBiped.Bip01_L_Finger32" 64
68 "ik_chain.Bip01_L_Finger4" 38
69 "ik_parent.Bip01_L_Finger4" 68
70 "ValveBiped.Bip01_L_Finger4" 40
71 "ik_chain.Bip01_L_Finger41" 68
72 "ik_parent.Bip01_L_Finger41" 71
73 "ValveBiped.Bip01_L_Finger41" 70
74 "ik_chain.Bip01_L_Finger42" 71
75 "ik_parent.Bip01_L_Finger42" 74
76 "ValveBiped.Bip01_L_Finger42" 73
77 "ik_chain.Bip01_L_Finger0" 38
78 "ik_parent.Bip01_L_Finger0" 77
79 "ValveBiped.Bip01_L_Finger0" 40
80 "ik_chain.Bip01_L_Finger01" 77
81 "ik_parent.Bip01_L_Finger01" 80
82 "ValveBiped.Bip01_L_Finger01" 79
83 "ik_chain.Bip01_L_Finger02" 80
84 "ik_parent.Bip01_L_Finger02" 83
85 "ValveBiped.Bip01_L_Finger02" 82
86 "ik_enable" -1
end
skeleton
time 0
0  0.000000 5.672041 -8.644796  -1.570797 -1.391899 -1.570795
1  2.033355 1.000772 -1.937610  1.473118 1.855075 -0.198640
2  6.028144 0.000001 0.000000  1.635297 1.081359 -0.932303
3  11.692555 0.000002 0.000004  -0.000000 -0.000000 -1.256010
4  11.481698 0.000002 0.000003  -1.286801 0.004693 0.534476
5  3.859682 -0.132569 1.193110  0.432208 -0.155862 -0.861350
6  1.312557 -0.000001 0.000001  0.000000 -0.000000 -1.191994
7  0.729363 0.000003 -0.000002  -0.000000 -0.000000 -1.063394
8  3.942306 0.050327 0.431043  0.232421 0.000609 -0.853331
9  1.539098 -0.000001 -0.000000  -0.000000 0.000000 -0.973379
10  1.196322 0.000009 -0.000001  0.000000 0.000000 -1.451289
11  3.883663 -0.050325 -0.431043  0.066987 0.050243 -0.694792
12  1.719579 0.000004 0.000002  -0.000000 0.000000 -1.251039
13  1.209185 0.000005 -0.000001  -0.000000 -0.000003 -1.141145
14  3.859838 -0.148938 -1.331284  -0.248855 0.263129 -0.072121
15  1.719425 0.000002 -0.000001  -0.000000 0.000000 -0.676756
16  1.099668 0.000004 0.000001  0.000000 -0.000000 -1.021287
17  0.806021 -0.359838 -1.318336  1.349685 0.343493 -0.771450
18  1.789782 -0.000002 -0.000005  0.000000 0.000000 0.397500
19  1.207002 0.000003 -0.000002  0.000000 0.000000 0.989033
20  4.127899 -1.449150 -3.542005  -1.564198 -0.011689 -1.581440
21  3.820735 -1.409993 -0.589411  -1.564198 -0.011689 -1.581440
22  0.222822 -3.739063 1.509293  0.024887 2.851473 -1.494016
23  3.048727 6.125609 1.106840  1.596061 0.018247 -0.808184
24  3.527214 5.063568 0.216259  1.596061 0.018246 -0.808184
25  3.352950 5.114327 -0.401208  1.596061 0.018247 -0.808184
26  2.909482 4.772880 -1.012056  1.596061 0.018247 -0.808184
27  1.772478 4.476570 2.356867  1.596061 0.018247 -0.808184
28  0.000006 3.336140 -8.647861  -1.570799 -1.391898 -1.570795
29  2.033350 1.000764 1.937663  1.227517 0.585911 1.190966
30  2.445993 3.299937 1.937680  1.227515 0.585914 1.190966
31  0.000001 -0.000001 0.000004  1.583265 0.000007 1.570794
32  0.000000 6.028147 -0.000001  -0.724464 -0.344857 -0.587223
33  -0.000001 0.000009 -0.000006  -0.000002 0.000003 1.570792
34  0.000014 6.028144 -0.000012  -0.447264 0.673487 0.692853
35  -0.000001 11.692570 -0.000001  0.000003 -0.000003 -1.555264
36  0.000002 0.000002 -0.000001  0.000005 0.000000 1.570801
37  11.692575 0.000053 0.000041  0.000007 -0.000003 -1.555254
38  0.000002 11.481684 0.000000  0.780552 0.524050 1.425277
39  -0.000001 -0.000002 0.000000  0.000000 -0.000000 1.570789
40  11.481694 -0.000054 0.000008  0.682867 -0.655093 0.965176
41  0.137968 3.859855 1.332475  -1.466239 -1.619931 0.861562
42  0.000000 0.000000 0.000000  1.933714 0.000004 1.570794
43  3.859865 -0.137941 1.332475  0.357786 -0.048868 -0.604552
44  -0.000001 1.719429 0.000001  -0.422261 0.202310 0.066145
45  -0.000000 -0.000000 -0.000001  1.743430 0.000000 1.570799
46  1.719433 0.000006 -0.000009  0.000202 -0.009338 -0.439964
47  0.000000 1.099662 -0.000000  1.024137 1.908842 1.052216
48  0.000000 -0.000000 -0.000001  -0.000002 0.000003 1.570799
49  1.099664 0.000004 0.000001  -0.000123 0.002599 -0.292178
50  0.046788 3.883683 0.431451  -0.022899 -1.505144 -0.649232
51  0.000002 -0.000002 -0.000001  1.590082 0.000009 1.570787
52  3.883692 -0.046761 0.431451  0.084922 0.001493 -0.672081
53  0.000002 1.719574 -0.000000  -0.720598 0.051523 -0.006475
54  0.000000 0.000000 -0.000002  1.538381 -0.000002 1.570794
55  1.719578 0.000016 -0.000016  -0.003923 0.016407 -0.720127
56  0.000000 1.209183 -0.000000  -1.502716 1.085232 -1.507557
57  -0.000001 0.000000 0.000000  -0.000000 -0.000000 1.570805
58  1.209183 -0.000003 -0.000002  -0.000818 0.002970 -0.484506
59  -0.046751 3.942324 -0.431436  -0.323650 -1.473501 -0.662915
60  0.000000 0.000000 -0.000000  1.317660 0.000000 1.570797
61  3.942333 0.046779 -0.431436  -0.160861 0.030900 -0.985128
62  -0.000000 1.539091 -0.000002  -0.255955 -0.026494 -0.056799
63  0.000000 -0.000000 0.000000  1.337310 -0.000004 1.570800
64  1.539094 0.000000 0.000002  -0.000029 0.003732 -0.263482
65  0.000000 1.196323 0.000002  -1.014259 1.117433 -1.060843
66  0.000002 0.000000 0.000000  0.000000 -0.000001 1.570800
67  1.196324 -0.000002 0.000003  -0.000001 0.000003 -0.392250
68  0.142426 3.859701 -1.191966  -0.665984 -1.423825 -0.302388
69  -0.000001 -0.000001 0.000001  0.976757 -0.000005 1.570807
70  3.859710 -0.142400 -1.191966  -0.478153 0.090611 -0.963101
71  -0.000002 1.312564 -0.000000  -0.362256 -0.138964 -0.204711
72  -0.000001 0.000000 0.000001  1.078169 0.000003 1.570794
73  1.312571 -0.000014 0.000007  0.000005 -0.000920 -0.438028
74  -0.000000 0.729364 -0.000002  -0.405873 1.030067 -0.464647
75  0.000001 -0.000000 0.000000  -0.000001 -0.000001 1.570795
76  0.729366 -0.000000 -0.000001  0.000001 -0.000005 -0.232764
77  0.348928 0.806040 1.321260  -1.143671 -2.277575 0.650731
78  0.000001 0.000000 -0.000000  0.437032 0.000002 1.570790
79  0.806044 -0.348924 1.321262  -1.473778 -0.632360 -0.380733
80  0.000002 1.789783 -0.000001  0.105747 0.066298 0.344490
81  0.000000 0.000000 -0.000000  0.347279 0.000000 1.570806
82  1.789789 0.000007 -0.000002  0.002688 0.043954 0.350347
83  0.000000 1.206999 -0.000002  0.184498 0.295908 0.569299
84  0.000000 -0.000001 -0.000001  0.000001 -0.000001 1.570797
85  1.207006 -0.000012 0.000002  -0.000004 0.000002 0.541714
86  0.000000 0.000000 1.000000  1.570796 -0.000000 0.000000
time 1
0  0.000000 5.382971 -8.644796  -1.570797 -1.391899 -1.570795
1  2.033356 1.000771 -1.937610  1.473118 1.855075 -0.198640
2  6.028144 0.000000 0.000000  1.638799 1.121880 -0.928601
3  11.692555 0.000000 0.000004  0.000000 -0.000000 -1.160669
4  11.481697 -0.000000 0.000002  -1.287764 0.006236 0.358045
5  3.859680 -0.132569 1.193110  0.432208 -0.155862 -0.861350
6  1.312558 -0.000003 0.000002  0.000000 -0.000000 -1.191994
7  0.729359 0.000003 -0.000002  -0.000000 -0.000000 -1.063394
8  3.942306 0.050327 0.431044  0.232421 0.000609 -0.853331
9  1.539096 -0.000003 -0.000000  -0.000000 0.000000 -0.973379
10  1.196323 0.000004 -0.000001  0.000000 0.000000 -1.451289
11  3.883662 -0.050325 -0.431042  0.066987 0.050243 -0.694792
12  1.719580 0.000009 0.000002  -0.000000 0.000000 -1.251039
13  1.209184 0.000005 0.000000  -0.000000 -0.000003 -1.141173
14  3.859838 -0.148938 -1.331284  -0.248855 0.263129 -0.072121
15  1.719422 0.000004 0.000001  -0.000000 0.000000 -0.676756
16  1.099666 0.000001 0.000001  0.000000 -0.000000 -1.021287
17  0.806021 -0.359838 -1.318335  1.349685 0.343493 -0.771450
18  1.789783 0.000000 -0.000005  -0.000000 0.000000 0.397500
19  1.206999 0.000003 0.000002  -0.000000 0.000000 0.989033
20  4.127902 -1.449149 -3.542003  -1.564198 -0.011689 -1.581439
21  3.820737 -1.409993 -0.589409  -1.564198 -0.011689 -1.581440
22  0.222814 -3.739061 1.509301  0.024887 2.851473 -1.494016
23  3.048727 6.125610 1.106841  1.596061 0.018247 -0.808184
24  3.527214 5.063569 0.216258  1.596061 0.018246 -0.808183
25  3.352950 5.114327 -0.401207  1.596061 0.018247 -0.808184
26  2.909482 4.772881 -1.012057  1.596061 0.018247 -0.808184
27  1.772478 4.476572 2.356867  1.596061 0.018247 -0.808184
28  0.000006 3.336140 -8.647861  -1.570799 -1.391898 -1.570795
29  2.033350 1.000764 1.937663  1.227517 0.585911 1.190966
30  2.394556 3.015480 1.937680  1.227515 0.585914 1.190966
31  0.000001 -0.000001 0.000004  1.583265 0.000007 1.570794
32  0.000000 6.028147 -0.000001  -0.681219 -0.365033 -0.608435
33  -0.000001 0.000009 -0.000005  -0.000002 0.000003 1.570792
34  0.000015 6.028144 -0.000012  -0.457201 0.628890 0.680650
35  -0.000001 11.692569 0.000000  0.000003 -0.000004 -1.457340
36  0.000003 0.000000 -0.000002  0.000005 0.000000 1.570801
37  11.692575 0.000056 0.000041  0.000007 -0.000003 -1.457331
38  0.000002 11.481682 -0.000001  0.863544 0.529987 1.341230
39  -0.000001 0.000001 0.000001  0.000000 -0.000000 1.570789
40  11.481694 -0.000053 0.000006  0.733771 -0.715325 0.807138
41  0.137968 3.859854 1.332476  -1.467467 -1.620155 0.862170
42  -0.000000 0.000000 -0.000000  1.933714 0.000004 1.570794
43  3.859861 -0.137941 1.332475  0.357823 -0.049097 -0.605175
44  0.000000 1.719426 -0.000002  -0.421780 0.202310 0.066145
45  0.000001 -0.000001 0.000001  1.743430 0.000000 1.570798
46  1.719429 0.000003 -0.000004  0.000197 -0.009256 -0.439490
47  0.000002 1.099661 -0.000001  1.023410 1.908423 1.051447
48  -0.000001 0.000000 -0.000001  -0.000002 0.000003 1.570799
49  1.099663 0.000001 0.000005  -0.000122 0.002599 -0.291688
50  0.046788 3.883683 0.431452  -0.017932 -1.505143 -0.654740
51  0.000000 -0.000000 -0.000001  1.590082 0.000009 1.570787
52  3.883691 -0.046761 0.431451  0.084930 0.001168 -0.672633
53  0.000001 1.719574 -0.000000  -0.720183 0.051523 -0.006475
54  0.000000 0.000000 -0.000003  1.538381 -0.000002 1.570794
55  1.719580 0.000016 -0.000015  -0.003917 0.016395 -0.719712
56  0.000001 1.209182 -0.000004  -1.502660 1.085666 -1.507493
57  0.000000 -0.000000 0.000000  -0.000000 -0.000000 1.570805
58  1.209182 -0.000003 -0.000001  -0.000817 0.002971 -0.484071
59  -0.046751 3.942325 -0.431434  -0.320631 -1.473623 -0.666889
60  0.000001 0.000001 0.000000  1.317660 0.000000 1.570797
61  3.942330 0.046778 -0.431434  -0.160884 0.030583 -0.986100
62  0.000001 1.539091 -0.000002  -0.255104 -0.026494 -0.056799
63  -0.000001 0.000000 0.000001  1.337310 -0.000004 1.570800
64  1.539093 -0.000001 0.000001  -0.000027 0.003535 -0.262655
65  0.000001 1.196322 0.000001  -1.012944 1.118461 -1.059380
66  -0.000000 -0.000000 -0.000000  0.000000 -0.000001 1.570800
67  1.196324 -0.000007 0.000006  -0.000001 0.000003 -0.391039
68  0.142426 3.859702 -1.191966  -0.663737 -1.424242 -0.305840
69  -0.000001 0.000000 -0.000001  0.976757 -0.000005 1.570807
70  3.859710 -0.142400 -1.191968  -0.478282 0.090096 -0.964344
71  -0.000002 1.312567 -0.000002  -0.361117 -0.138964 -0.204711
72  0.000001 0.000001 0.000000  1.078169 0.000003 1.570794
73  1.312572 -0.000013 0.000007  0.000004 -0.001459 -0.437024
74  0.000002 0.729366 -0.000000  -0.403928 1.030567 -0.462379
75  0.000003 -0.000000 0.000000  -0.000001 -0.000001 1.570795
76  0.729366 0.000003 0.000001  0.000001 -0.000004 -0.231494
77  0.348928 0.806042 1.321261  -1.143949 -2.277542 0.650711
78  -0.000001 0.000000 -0.000000  0.437032 0.000002 1.570791
79  0.806046 -0.348924 1.321261  -1.473564 -0.632424 -0.381089
80  0.000000 1.789786 -0.000000  0.105734 0.066319 0.344292
81  0.000001 0.000001 0.000000  0.347279 0.000000 1.570806
82  1.789793 0.000010 -0.000001  0.002680 0.043887 0.350160
83  0.000001 1.207001 -0.000000  0.184422 0.295954 0.569040
84  -0.000000 -0.000002 0.000000  0.000001 -0.000001 1.570797
85  1.207006 -0.000011 0.000004  -0.000004 0.000002 0.541462
86  0.000000 0.000000 1.000000  1.570796 -0.000000 0.000000
time 2
0  0.000000 4.949364 -8.644796  -1.570797 -1.391899 -1.570795
1  2.033355 1.000772 -1.937610  1.473118 1.855075 -0.198640
2  6.028144 0.000001 0.000000  1.656456 1.230215 -0.909823
3  11.692557 -0.000001 0.000004  -0.000000 -0.000000 -0.918594
4  11.481698 0.000001 0.000002  -1.288817 0.007408 0.204100
5  3.859682 -0.132569 1.193111  0.432208 -0.155862 -0.861350
6  1.312559 -0.000004 0.000001  0.000000 -0.000000 -1.191994
7  0.729362 0.000001 -0.000002  -0.000000 -0.000000 -1.063394
8  3.942306 0.050327 0.431045  0.232421 0.000609 -0.853331
9  1.539099 -0.000004 -0.000000  -0.000000 0.000000 -0.973379
10  1.196323 0.000008 -0.000002  0.000000 0.000000 -1.451289
11  3.883662 -0.050325 -0.431041  0.066987 0.050243 -0.694792
12  1.719577 0.000004 0.000001  -0.000000 0.000000 -1.251039
13  1.209185 0.000006 -0.000002  -0.000000 -0.000003 -1.141145
14  3.859835 -0.148938 -1.331283  -0.248855 0.263129 -0.072121
15  1.719420 0.000004 -0.000000  -0.000000 0.000000 -0.676756
16  1.099665 0.000002 0.000001  0.000000 -0.000000 -1.021287
17  0.806022 -0.359838 -1.318333  1.349685 0.343493 -0.771450
18  1.789781 -0.000001 -0.000004  0.000000 0.000000 0.397500
19  1.206999 0.000004 0.000001  0.000000 0.000000 0.989033
20  4.448223 -1.453056 -3.538096  -1.564198 -0.011689 -1.581439
21  3.820734 -1.409993 -0.589408  -1.564198 -0.011689 -1.581440
22  0.222812 -3.739061 1.509297  0.024887 2.851473 -1.494016
23  3.048727 6.125610 1.106842  1.596061 0.018247 -0.808184
24  3.527214 5.063567 0.216260  1.596061 0.018246 -0.808184
25  3.352950 5.114326 -0.401206  1.596061 0.018247 -0.808184
26  2.909482 4.772882 -1.012056  1.596061 0.018247 -0.808184
27  1.772479 4.476569 2.356868  1.596061 0.018247 -0.808184
28  0.000006 3.336140 -8.647861  -1.570799 -1.391898 -1.570795
29  2.033350 1.000764 1.937663  1.227517 0.585911 1.190966
30  2.317397 2.588793 1.937680  1.227515 0.585914 1.190966
31  0.000001 -0.000001 0.000004  1.583265 0.000007 1.570794
32  0.000000 6.028147 -0.000001  -0.603206 -0.406222 -0.667780
33  -0.000001 0.000010 -0.000006  -0.000002 0.000003 1.570792
34  0.000015 6.028144 -0.000012  -0.481351 0.548162 0.637250
35  0.000000 11.692572 -0.000000  0.000002 -0.000004 -1.244542
36  0.000000 0.000000 -0.000004  0.000005 0.000000 1.570801
37  11.692573 0.000054 0.000042  0.000006 -0.000003 -1.244533
38  0.000001 11.481680 -0.000001  0.820172 0.526202 1.165611
39  -0.000001 -0.000001 -0.000001  0.000000 -0.000000 1.570789
40  11.481692 -0.000056 0.000009  0.705382 -0.684562 0.671667
41  0.137967 3.859857 1.332472  -1.467689 -1.619945 0.861518
42  0.000001 -0.000001 0.000001  1.933714 0.000004 1.570794
43  3.859865 -0.137940 1.332472  0.357855 -0.048890 -0.606051
44  0.000001 1.719429 0.000001  -0.420639 0.202310 0.066145
45  0.000001 -0.000000 -0.000002  1.743430 0.000000 1.570798
46  1.719432 0.000006 -0.000007  0.000187 -0.009060 -0.438365
47  0.000001 1.099663 -0.000002  1.021858 1.907532 1.049803
48  0.000001 0.000000 0.000001  -0.000002 0.000003 1.570799
49  1.099667 -0.000001 0.000001  -0.000119 0.002599 -0.290643
50  0.046788 3.883685 0.431448  -0.018848 -1.505149 -0.654241
51  -0.000001 -0.000000 0.000000  1.590082 0.000009 1.570787
52  3.883692 -0.046761 0.431448  0.084922 0.001228 -0.673046
53  -0.000000 1.719574 0.000003  -0.719591 0.051523 -0.006475
54  0.000000 0.000001 0.000000  1.538381 -0.000002 1.570794
55  1.719581 0.000019 -0.000015  -0.003907 0.016378 -0.719119
56  0.000001 1.209182 -0.000001  -1.502587 1.086230 -1.507411
57  0.000003 -0.000000 0.000001  -0.000000 -0.000000 1.570805
58  1.209183 -0.000002 -0.000003  -0.000815 0.002971 -0.483506
59  -0.046751 3.942324 -0.431437  -0.320939 -1.473664 -0.667490
60  0.000000 0.000001 -0.000001  1.317660 0.000000 1.570797
61  3.942332 0.046779 -0.431437  -0.160934 0.030598 -0.987008
62  0.000000 1.539091 -0.000002  -0.254009 -0.026494 -0.056799
63  0.000001 -0.000000 0.000000  1.337310 -0.000004 1.570800
64  1.539096 0.000001 0.000003  -0.000023 0.003282 -0.261589
65  -0.000001 1.196322 0.000002  -1.011316 1.119723 -1.057572
66  -0.000001 0.000000 -0.000001  0.000000 -0.000001 1.570800
67  1.196326 -0.000003 0.000004  0.000000 0.000004 -0.389548
68  0.142425 3.859705 -1.191969  -0.663523 -1.424419 -0.307098
69  0.000000 0.000001 -0.000000  0.976757 -0.000005 1.570807
70  3.859712 -0.142399 -1.191968  -0.478404 0.089962 -0.965400
71  -0.000000 1.312570 0.000002  -0.359805 -0.138963 -0.204711
72  0.000001 0.000000 0.000001  1.078169 0.000003 1.570794
73  1.312573 -0.000012 0.000009  0.000002 -0.002079 -0.435868
74  0.000001 0.729365 0.000001  -0.401704 1.031135 -0.459786
75  0.000000 0.000000 -0.000001  -0.000001 -0.000001 1.570795
76  0.729367 0.000002 0.000000  0.000001 -0.000005 -0.230045
77  0.348927 0.806043 1.321259  -1.143759 -2.276907 0.650446
78  -0.000001 0.000000 -0.000001  0.437032 0.000002 1.570791
79  0.806048 -0.348924 1.321259  -1.473291 -0.631816 -0.381372
80  -0.000002 1.789785 0.000000  0.105700 0.066374 0.343774
81  0.000000 0.000000 -0.000002  0.347279 0.000000 1.570806
82  1.789790 0.000013 -0.000001  0.002658 0.043711 0.349671
83  0.000000 1.207000 -0.000001  0.184180 0.296102 0.568209
84  -0.000000 -0.000000 0.000000  0.000001 -0.000001 1.570797
85  1.207006 -0.000011 0.000005  -0.000003 0.000001 0.540654
86  0.000000 0.000000 1.000000  1.570796 -0.000000 0.000000
time 3
0  0.000000 4.566540 -8.644795  -1.570797 -1.391899 -1.570795
1  2.033355 1.000772 -1.937610  1.473118 1.855075 -0.198640
2  6.028144 0.000001 0.000000  1.721455 1.376125 -0.842358
3  11.692556 0.000002 0.000003  -0.000000 -0.000000 -0.610163
4  11.481696 0.000001 0.000003  -1.288908 0.007490 0.192858
5  3.859680 -0.132568 1.193110  0.432208 -0.155862 -0.861350
6  1.312559 -0.000003 -0.000001  -0.000000 -0.000000 -1.191994
7  0.729361 0.000003 -0.000001  -0.000000 -0.000000 -1.063394
8  3.942306 0.050327 0.431044  0.232421 0.000609 -0.853331
9  1.539100 -0.000002 -0.000000  -0.000000 0.000000 -0.973401
10  1.196321 0.000007 -0.000001  0.000000 0.000000 -1.451289
11  3.883663 -0.050325 -0.431041  0.066987 0.050243 -0.694792
12  1.719581 0.000004 0.000001  -0.000000 0.000000 -1.251039
13  1.209186 0.000004 0.000001  -0.000000 -0.000003 -1.141145
14  3.859837 -0.148937 -1.331283  -0.248855 0.263129 -0.072121
15  1.719423 0.000003 0.000000  -0.000000 0.000000 -0.676756
16  1.099668 0.000003 -0.000001  0.000000 -0.000000 -1.021287
17  0.806021 -0.359838 -1.318334  1.349685 0.343493 -0.771450
18  1.789781 0.000000 -0.000004  -0.000000 0.000000 0.397500
19  1.207001 0.000003 -0.000001  -0.000000 0.000000 0.989033
20  6.104524 -1.468680 -3.530283  -1.564198 -0.011689 -1.581439
21  3.820735 -1.409993 -0.589409  -1.564198 -0.011689 -1.581440
22  0.222818 -3.739060 1.509298  0.024887 2.851473 -1.494016
23  3.048727 6.125612 1.106842  1.596061 0.018247 -0.808184
24  3.527214 5.063569 0.216260  1.596061 0.018246 -0.808184
25  3.352950 5.114326 -0.401206  1.596061 0.018247 -0.808184
26  2.909482 4.772882 -1.012056  1.596061 0.018247 -0.808184
27  1.772478 4.476571 2.356869  1.596061 0.018247 -0.808184
28  0.000006 3.336140 -8.647861  -1.570799 -1.391898 -1.570795
29  2.033350 1.000764 1.937663  1.227517 0.585911 1.190966
30  2.249274 2.212079 1.937679  1.227515 0.585914 1.190966
31  0.000001 -0.000001 0.000004  1.583265 0.000007 1.570794
32  0.000000 6.028147 -0.000001  -0.526453 -0.449205 -0.752253
33  -0.000000 0.000010 -0.000006  -0.000002 0.000003 1.570792
34  0.000016 6.028144 -0.000011  -0.508642 0.469702 0.571325
35  0.000000 11.692571 -0.000000  0.000001 -0.000005 -1.010587
36  0.000001 0.000000 -0.000002  0.000005 0.000000 1.570801
37  11.692573 0.000054 0.000043  0.000005 -0.000002 -1.010578
38  0.000001 11.481682 -0.000000  0.618508 0.508998 0.987248
39  -0.000000 0.000003 -0.000001  0.000000 -0.000000 1.570789
40  11.481688 -0.000055 0.000007  0.600540 -0.530905 0.653424
41  0.137968 3.859859 1.332471  -1.466033 -1.619520 0.860310
42  -0.000000 0.000000 0.000000  1.933714 0.000004 1.570794
43  3.859865 -0.137941 1.332471  0.357817 -0.048458 -0.605599
44  -0.000001 1.719429 0.000002  -0.420690 0.202310 0.066145
45  0.000000 0.000000 0.000000  1.743430 0.000000 1.570799
46  1.719431 0.000006 -0.000009  0.000188 -0.009067 -0.438415
47  0.000000 1.099660 -0.000003  1.022050 1.907642 1.050005
48  0.000003 0.000000 -0.000000  -0.000002 0.000003 1.570799
49  1.099664 -0.000004 0.000002  -0.000119 0.002599 -0.290772
50  0.046789 3.883691 0.431447  -0.026237 -1.505151 -0.646229
51  -0.000000 -0.000001 0.000000  1.590082 0.000009 1.570787
52  3.883693 -0.046762 0.431447  0.084908 0.001712 -0.672408
53  -0.000002 1.719572 0.000001  -0.719885 0.051523 -0.006475
54  0.000000 0.000000 -0.000001  1.538381 -0.000002 1.570794
55  1.719577 0.000015 -0.000018  -0.003911 0.016388 -0.719413
56  -0.000001 1.209183 0.000003  -1.502633 1.085881 -1.507461
57  0.000002 0.000000 0.000001  -0.000000 -0.000000 1.570805
58  1.209186 -0.000002 -0.000003  -0.000816 0.002971 -0.483856
59  -0.046751 3.942330 -0.431439  -0.325289 -1.473510 -0.662166
60  0.000000 0.000001 -0.000003  1.317660 0.000000 1.570797
61  3.942333 0.046778 -0.431439  -0.160922 0.031048 -0.986012
62  0.000000 1.539092 -0.000000  -0.254680 -0.026494 -0.056799
63  -0.000000 0.000000 -0.000002  1.337310 -0.000004 1.570800
64  1.539098 0.000002 0.000002  -0.000025 0.003438 -0.262242
65  -0.000000 1.196324 -0.000001  -1.012422 1.118866 -1.058800
66  -0.000002 -0.000000 -0.000000  0.000000 -0.000001 1.570800
67  1.196328 -0.000005 0.000004  0.000000 0.000003 -0.390559
68  0.142426 3.859708 -1.191970  -0.666515 -1.423913 -0.302822
69  -0.000000 0.000001 0.000002  0.976757 -0.000005 1.570807
70  3.859713 -0.142400 -1.191970  -0.478272 0.090619 -0.964074
71  -0.000000 1.312569 0.000002  -0.360786 -0.138963 -0.204711
72  -0.000001 -0.000001 0.000000  1.078169 0.000003 1.570794
73  1.312575 -0.000010 0.000008  0.000004 -0.001615 -0.436731
74  -0.000001 0.729363 0.000002  -0.403420 1.030697 -0.461788
75  -0.000000 -0.000001 -0.000001  -0.000001 -0.000001 1.570795
76  0.729367 0.000002 0.000001  0.000002 -0.000005 -0.231162
77  0.348927 0.806045 1.321257  -1.143196 -2.276554 0.650307
78  0.000000 0.000000 -0.000001  0.437032 0.000002 1.570790
79  0.806048 -0.348924 1.321257  -1.473456 -0.631326 -0.380984
80  -0.000002 1.789784 0.000002  0.105695 0.066382 0.343700
81  0.000000 -0.000001 0.000001  0.347279 0.000000 1.570806
82  1.789791 0.000013 0.000001  0.002655 0.043687 0.349601
83  -0.000000 1.206998 0.000000  0.184127 0.296134 0.568028
84  0.000000 0.000001 0.000000  0.000001 -0.000001 1.570797
85  1.207004 -0.000010 0.000005  -0.000003 0.000002 0.540478
86  0.000000 0.000000 1.000000  1.570796 -0.000000 0.000000
time 4
0  0.000000 4.254030 -8.644795  -1.570797 -1.391899 -1.570795
1  2.033355 1.000772 -1.937610  1.473118 1.855075 -0.198640
2  6.028144 0.000000 0.000000  1.865590 1.468897 -0.696465
3  11.692556 0.000001 0.000003  0.000000 -0.000000 -0.415947
4  11.481698 0.000001 0.000001  -1.288472 0.007058 0.251866
5  3.859680 -0.132569 1.193111  0.432208 -0.155862 -0.861350
6  1.312558 -0.000003 0.000001  0.000000 -0.000000 -1.191994
7  0.729363 0.000001 -0.000003  0.000000 -0.000000 -1.063394
8  3.942306 0.050327 0.431044  0.232421 0.000609 -0.853331
9  1.539097 -0.000004 -0.000000  -0.000000 0.000000 -0.973379
10  1.196322 0.000004 -0.000001  0.000000 -0.000000 -1.451289
11  3.883661 -0.050325 -0.431042  0.066987 0.050243 -0.694792
12  1.719579 0.000004 0.000002  -0.000000 0.000000 -1.251039
13  1.209187 0.000004 0.000001  -0.000000 -0.000003 -1.141145
14  3.859838 -0.148938 -1.331283  -0.248855 0.263129 -0.072121
15  1.719421 0.000004 -0.000001  -0.000000 0.000000 -0.676756
16  1.099668 0.000004 0.000000  0.000000 -0.000000 -1.021287
17  0.806023 -0.359838 -1.318334  1.349685 0.343493 -0.771450
18  1.789781 -0.000001 -0.000003  -0.000000 0.000000 0.397500
19  1.207001 0.000004 0.000000  0.000000 0.000000 0.989033
20  6.104525 -1.468681 -3.530283  -1.564198 -0.011689 -1.581439
21  3.820736 -1.409994 -0.589409  -1.564198 -0.011689 -1.581440
22  0.222811 -3.739062 1.509296  0.024887 2.851473 -1.494016
23  3.048727 6.125607 1.106842  1.596061 0.018247 -0.808184
24  3.527214 5.063566 0.216260  1.596061 0.018246 -0.808184
25  3.352950 5.114325 -0.401206  1.596061 0.018247 -0.808184
26  2.909482 4.772879 -1.012056  1.596061 0.018247 -0.808184
27  1.772479 4.476568 2.356869  1.596061 0.018247 -0.808184
28  0.000006 3.336140 -8.647861  -1.570799 -1.391898 -1.570795
29  2.033350 1.000764 1.937663  1.227517 0.585911 1.190966
30  2.193666 1.904556 1.937679  1.227515 0.585914 1.190966
31  0.000001 -0.000001 0.000004  1.583265 0.000007 1.570794
32  0.000000 6.028147 -0.000001  -0.482835 -0.473224 -0.809715
33  -0.000000 0.000010 -0.000006  -0.000002 0.000003 1.570792
34  0.000016 6.028145 -0.000011  -0.524176 0.426039 0.526550
35  0.000000 11.692572 0.000000  0.000000 -0.000005 -0.871892
36  0.000001 0.000002 -0.000003  0.000005 0.000000 1.570801
37  11.692572 0.000056 0.000042  0.000005 -0.000002 -0.871883
38  0.000001 11.481683 -0.000002  0.437401 0.493325 0.889372
39  -0.000001 0.000003 0.000001  0.000000 -0.000000 1.570789
40  11.481686 -0.000055 0.000008  0.535659 -0.382321 0.671440
41  0.137967 3.859857 1.332473  -1.465720 -1.619504 0.860277
42  0.000000 -0.000000 -0.000000  1.933714 0.000004 1.570794
43  3.859862 -0.137941 1.332472  0.357804 -0.048441 -0.605320
44  0.000001 1.719427 -0.000002  -0.420955 0.202310 0.066145
45  -0.000000 0.000000 -0.000001  1.743430 0.000000 1.570798
46  1.719430 0.000004 -0.000003  0.000190 -0.009113 -0.438676
47  -0.000000 1.099661 -0.000004  1.022432 1.907861 1.050411
48  0.000002 0.000000 -0.000001  -0.000002 0.000003 1.570799
49  1.099663 -0.000002 0.000004  -0.000120 0.002600 -0.291029
50  0.046787 3.883689 0.431450  -0.027116 -1.505150 -0.645142
51  -0.000001 0.000000 0.000001  1.590082 0.000009 1.570787
52  3.883694 -0.046761 0.431449  0.084908 0.001770 -0.672201
53  -0.000002 1.719576 0.000001  -0.720071 0.051523 -0.006475
54  -0.000000 -0.000000 -0.000000  1.538381 -0.000002 1.570794
55  1.719581 0.000016 -0.000017  -0.003914 0.016393 -0.719598
56  0.000001 1.209184 -0.000001  -1.502657 1.085691 -1.507490
57  0.000001 0.000001 0.000000  -0.000000 -0.000000 1.570805
58  1.209187 -0.000005 -0.000002  -0.000816 0.002971 -0.484046
59  -0.046751 3.942327 -0.431436  -0.325857 -1.473476 -0.661217
60  0.000000 -0.000000 -0.000003  1.317660 0.000000 1.570797
61  3.942331 0.046779 -0.431438  -0.160907 0.031111 -0.985632
62  0.000000 1.539089 -0.000004  -0.255041 -0.026494 -0.056799
63  0.000000 0.000001 0.000002  1.337310 -0.000004 1.570800
64  1.539093 -0.000004 0.000002  -0.000026 0.003521 -0.262593
65  -0.000000 1.196320 0.000000  -1.012978 1.118434 -1.059419
66  -0.000000 -0.000000 -0.000000  0.000000 -0.000001 1.570800
67  1.196322 -0.000008 0.000003  0.000000 0.000003 -0.391069
68  0.142425 3.859705 -1.191969  -0.667001 -1.423792 -0.301877
69  -0.000000 -0.000001 -0.000002  0.976757 -0.000005 1.570807
70  3.859711 -0.142399 -1.191970  -0.478221 0.090748 -0.963606
71  0.000000 1.312564 -0.000001  -0.361244 -0.138963 -0.204711
72  0.000001 0.000000 0.000002  1.078169 0.000003 1.570794
73  1.312569 -0.000013 0.000009  0.000004 -0.001398 -0.437135
74  -0.000000 0.729364 0.000001  -0.404212 1.030494 -0.462711
75  0.000000 0.000000 0.000001  -0.000001 -0.000001 1.570795
76  0.729367 0.000004 -0.000001  0.000002 -0.000005 -0.231679
77  0.348927 0.806045 1.321259  -1.143137 -2.276630 0.650340
78  0.000000 -0.000001 -0.000001  0.437031 0.000002 1.570790
79  0.806049 -0.348924 1.321258  -1.473546 -0.631372 -0.380854
80  -0.000000 1.789782 -0.000001  0.105701 0.066372 0.343789
81  0.000000 0.000000 0.000001  0.347279 0.000000 1.570806
82  1.789790 0.000010 -0.000001  0.002659 0.043717 0.349685
83  -0.000000 1.207000 0.000002  0.184167 0.296110 0.568165
84  -0.000000 0.000001 -0.000000  0.000001 -0.000001 1.570797
85  1.207000 -0.000010 0.000005  -0.000003 0.000002 0.540611
86  0.000000 0.000000 1.000000  1.570796 -0.000000 0.000000
time 5
0  0.000000 4.000115 -8.644796  -1.570797 -1.391899 -1.570795
1  2.033356 1.000772 -1.937610  1.473118 1.855075 -0.198640
2  6.028144 0.000000 0.000000  1.921464 1.484460 -0.640300
3  11.692555 0.000001 0.000004  -0.000000 -0.000000 -0.382487
4  11.481695 -0.000000 0.000002  -1.288127 0.006668 0.302887
5  3.859681 -0.132569 1.193111  0.432208 -0.155862 -0.861350
6  1.312557 0.000000 0.000001  0.000000 -0.000000 -1.191994
7  0.729363 0.000003 -0.000001  -0.000000 -0.000000 -1.063394
8  3.942306 0.050327 0.431045  0.232421 0.000609 -0.853331
9  1.539099 -0.000001 0.000000  -0.000000 0.000000 -0.973379
10  1.196323 0.000005 0.000000  0.000000 0.000000 -1.451289
11  3.883664 -0.050325 -0.431041  0.066987 0.050243 -0.694792
12  1.719579 0.000009 0.000001  -0.000000 0.000000 -1.251039
13  1.209186 0.000009 -0.000001  0.000000 -0.000003 -1.141173
14  3.859836 -0.148938 -1.331283  -0.248855 0.263129 -0.072121
15  1.719419 0.000003 0.000000  -0.000000 0.000000 -0.676756
16  1.099666 0.000004 -0.000001  0.000000 -0.000000 -1.021287
17  0.806023 -0.359839 -1.318334  1.349685 0.343493 -0.771450
18  1.789779 -0.000001 -0.000003  -0.000000 0.000000 0.397500
19  1.207000 0.000003 0.000002  0.000000 0.000000 0.989033
20  6.104525 -1.468681 -3.530283  -1.564198 -0.011689 -1.581439
21  3.820735 -1.409994 -0.589409  -1.564198 -0.011689 -1.581440
22  0.222825 -3.739061 1.509298  0.024887 2.851473 -1.494016
23  3.048727 6.125612 1.106840  1.596061 0.018247 -0.808184
24  3.527214 5.063568 0.216259  1.596061 0.018246 -0.808184
25  3.352950 5.114330 -0.401207  1.596061 0.018247 -0.808184
26  2.909482 4.772885 -1.012056  1.596061 0.018247 -0.808184
27  1.772479 4.476572 2.356867  1.596061 0.018247 -0.808184
28  0.000006 3.336140 -8.647861  -1.570799 -1.391898 -1.570795
29  2.033350 1.000764 1.937663  1.227517 0.585911 1.190966
30  2.148484 1.654694 1.937679  1.227515 0.585914 1.190966
31  0.000001 -0.000001 0.000004  1.583265 0.000007 1.570794
32  0.000000 6.028147 -0.000001  -0.465241 -0.482652 -0.834395
33  -0.000000 0.000009 -0.000006  -0.000002 0.000003 1.570791
34  0.000017 6.028144 -0.000011  -0.530289 0.408669 0.507485
35  0.000000 11.692571 0.000001  0.000000 -0.000005 -0.815366
36  -0.000001 0.000001 -0.000003  0.000005 0.000000 1.570801
37  11.692572 0.000054 0.000042  0.000005 -0.000002 -0.815357
38  -0.000002 11.481683 -0.000001  0.361805 0.486759 0.851968
39  -0.000001 0.000003 0.000000  0.000000 -0.000000 1.570789
40  11.481686 -0.000053 0.000009  0.514942 -0.318189 0.676742
41  0.137967 3.859864 1.332473  -1.465633 -1.619486 0.860226
42  -0.000000 -0.000001 -0.000000  1.933714 0.000004 1.570794
43  3.859864 -0.137940 1.332471  0.357801 -0.048422 -0.605284
44  -0.000000 1.719426 0.000000  -0.420954 0.202310 0.066145
45  0.000000 -0.000001 0.000002  1.743430 0.000000 1.570798
46  1.719431 0.000005 -0.000006  0.000190 -0.009113 -0.438675
47  0.000000 1.099661 0.000000  1.022442 1.907866 1.050419
48  -0.000000 -0.000000 0.000000  -0.000002 0.000003 1.570799
49  1.099665 -0.000001 0.000003  -0.000120 0.002600 -0.291035
50  0.046788 3.883688 0.431451  -0.027415 -1.505149 -0.644791
51  0.000001 0.000001 -0.000000  1.590082 0.000009 1.570787
52  3.883689 -0.046761 0.431448  0.084908 0.001789 -0.672146
53  0.000001 1.719579 -0.000001  -0.720093 0.051523 -0.006475
54  -0.000001 0.000000 -0.000002  1.538381 -0.000002 1.570794
55  1.719585 0.000018 -0.000016  -0.003914 0.016394 -0.719621
56  -0.000001 1.209184 -0.000000  -1.502661 1.085663 -1.507494
57  0.000002 -0.000001 -0.000000  -0.000000 -0.000000 1.570805
58  1.209188 -0.000002 -0.000002  -0.000816 0.002971 -0.484074
59  -0.046752 3.942328 -0.431435  -0.326026 -1.473468 -0.660971
60  0.000001 0.000002 0.000001  1.317660 0.000000 1.570797
61  3.942327 0.046779 -0.431438  -0.160905 0.031129 -0.985552
62  0.000001 1.539093 -0.000002  -0.255089 -0.026494 -0.056799
63  0.000000 0.000000 -0.000001  1.337310 -0.000004 1.570800
64  1.539096 0.000000 0.000003  -0.000026 0.003532 -0.262639
65  0.000002 1.196325 -0.000002  -1.013061 1.118369 -1.059510
66  0.000000 -0.000000 0.000000  0.000000 -0.000001 1.570800
67  1.196328 -0.000004 0.000005  0.000000 0.000003 -0.391145
68  0.142425 3.859707 -1.191968  -0.667115 -1.423765 -0.301663
69  0.000001 0.000001 -0.000000  0.976757 -0.000005 1.570807
70  3.859707 -0.142399 -1.191970  -0.478210 0.090778 -0.963503
71  0.000002 1.312568 -0.000001  -0.361309 -0.138963 -0.204711
72  -0.000000 0.000000 0.000001  1.078169 0.000003 1.570794
73  1.312571 -0.000017 0.000008  0.000004 -0.001367 -0.437192
74  -0.000000 0.729362 0.000001  -0.404335 1.030463 -0.462854
75  0.000001 -0.000000 0.000000  -0.000001 -0.000001 1.570795
76  0.729366 0.000007 0.000000  0.000002 -0.000004 -0.231759
77  0.348926 0.806045 1.321259  -1.143088 -2.276597 0.650326
78  0.000001 -0.000001 0.000000  0.437032 0.000002 1.570790
79  0.806046 -0.348923 1.321258  -1.473558 -0.631326 -0.380823
80  -0.000001 1.789785 0.000002  0.105699 0.066375 0.343763
81  0.000000 0.000002 -0.000000  0.347279 0.000000 1.570806
82  1.789791 0.000011 0.000001  0.002657 0.043707 0.349660
83  0.000000 1.207003 -0.000003  0.184155 0.296117 0.568125
84  0.000000 0.000001 -0.000000  0.000001 -0.000001 1.570797
85  1.207004 -0.000010 0.000002  -0.000004 0.000001 0.540573
86  0.000000 0.000000 1.000000  1.570796 -0.000000 0.000000
time 6
0  0.000000 3.800890 -8.644795  -1.570797 -1.391899 -1.570795
1  2.033355 1.000771 -1.937610  1.473118 1.855075 -0.198640
2  6.028144 0.000001 0.000000  1.971053 1.494602 -0.590500
3  11.692556 0.000001 0.000003  0.000000 -0.000000 -0.360268
4  11.481696 0.000001 0.000003  -1.288036 0.006565 0.316286
5  3.859681 -0.132570 1.193111  0.432208 -0.155862 -0.861350
6  1.312561 -0.000001 0.000001  -0.000000 -0.000000 -1.191994
7  0.729362 0.000003 -0.000001  -0.000000 -0.000000 -1.063394
8  3.942306 0.050327 0.431044  0.232421 0.000609 -0.853331
9  1.539099 -0.000001 0.000001  -0.000000 0.000000 -0.973379
10  1.196322 0.000006 0.000001  0.000000 0.000000 -1.451289
11  3.883662 -0.050325 -0.431042  0.066987 0.050243 -0.694792
12  1.719578 0.000005 0.000001  -0.000000 0.000000 -1.251039
13  1.209186 0.000003 -0.000001  -0.000000 -0.000003 -1.141173
14  3.859838 -0.148938 -1.331283  -0.248855 0.263129 -0.072121
15  1.719421 0.000004 -0.000002  -0.000000 0.000000 -0.676756
16  1.099667 0.000002 0.000001  0.000000 -0.000000 -1.021287
17  0.806021 -0.359839 -1.318336  1.349685 0.343493 -0.771450
18  1.789784 0.000000 -0.000004  0.000000 0.000000 0.397500
19  1.206996 0.000004 0.000001  -0.000000 0.000000 0.989033
20  6.104525 -1.468681 -3.530284  -1.564198 -0.011689 -1.581439
21  3.820736 -1.409994 -0.589410  -1.564198 -0.011689 -1.581440
22  0.222810 -3.739062 1.509297  0.024887 2.851473 -1.494016
23  3.048727 6.125610 1.106841  1.596061 0.018247 -0.808184
24  3.527214 5.063568 0.216259  1.596061 0.018246 -0.808184
25  3.352950 5.114326 -0.401207  1.596061 0.018247 -0.808184
26  2.909482 4.772882 -1.012056  1.596061 0.018247 -0.808184
27  1.772479 4.476569 2.356868  1.596061 0.018247 -0.808184
28  0.000006 3.336140 -8.647861  -1.570799 -1.391898 -1.570795
29  2.033350 1.000764 1.937663  1.227517 0.585911 1.190966
30  2.113031 1.458648 1.937679  1.227515 0.585914 1.190966
31  0.000001 -0.000001 0.000004  1.583265 0.000007 1.570794
32  0.000000 6.028147 -0.000001  -0.450260 -0.490194 -0.855603
33  -0.000000 0.000009 -0.000005  -0.000002 0.000003 1.570791
34  0.000017 6.028144 -0.000010  -0.535044 0.394071 0.491423
35  0.000000 11.692571 0.000001  -0.000000 -0.000005 -0.768502
36  -0.000000 0.000001 -0.000002  0.000005 0.000000 1.570801
37  11.692573 0.000054 0.000041  0.000005 -0.000002 -0.768493
38  -0.000001 11.481682 -0.000000  0.331170 0.483556 0.822097
39  -0.000000 -0.000001 0.000001  0.000000 -0.000000 1.570789
40  11.481686 -0.000054 0.000007  0.506911 -0.291997 0.663571
41  0.137968 3.859858 1.332474  -1.465587 -1.619484 0.860221
42  0.000000 -0.000001 0.000000  1.933714 0.000004 1.570794
43  3.859864 -0.137941 1.332474  0.357799 -0.048420 -0.605246
44  0.000002 1.719432 -0.000001  -0.420983 0.202310 0.066145
45  0.000000 0.000000 0.000002  1.743430 0.000000 1.570798
46  1.719438 0.000005 -0.000005  0.000191 -0.009118 -0.438704
47  0.000001 1.099664 0.000002  1.022487 1.907892 1.050467
48  -0.000000 -0.000001 0.000000  -0.000002 0.000003 1.570799
49  1.099667 0.000001 0.000004  -0.000120 0.002599 -0.291065
50  0.046788 3.883685 0.431450  -0.027523 -1.505149 -0.644644
51  0.000000 0.000003 -0.000001  1.590082 0.000009 1.570787
52  3.883690 -0.046762 0.431450  0.084907 0.001797 -0.672112
53  0.000000 1.719580 0.000001  -0.720119 0.051523 -0.006475
54  -0.000001 -0.000000 0.000003  1.538381 -0.000002 1.570794
55  1.719580 0.000018 -0.000017  -0.003915 0.016394 -0.719647
56  -0.000000 1.209182 0.000004  -1.502665 1.085635 -1.507498
57  0.000002 0.000000 -0.000001  -0.000000 -0.000000 1.570805
58  1.209185 -0.000001 -0.000002  -0.000816 0.002971 -0.484102
59  -0.046751 3.942327 -0.431435  -0.326099 -1.473463 -0.660837
60  -0.000001 -0.000001 0.000000  1.317660 0.000000 1.570797
61  3.942331 0.046778 -0.431436  -0.160903 0.031137 -0.985496
62  0.000000 1.539090 -0.000003  -0.255136 -0.026494 -0.056799
63  -0.000001 -0.000000 0.000001  1.337310 -0.000004 1.570800
64  1.539094 0.000000 0.000002  -0.000026 0.003543 -0.262685
65  -0.000002 1.196321 0.000001  -1.013134 1.118311 -1.059593
66  -0.000003 -0.000000 -0.000001  0.000000 -0.000001 1.570800
67  1.196325 -0.000005 0.000002  0.000000 0.000004 -0.391213
68  0.142426 3.859704 -1.191967  -0.667171 -1.423748 -0.301535
69  -0.000000 -0.000000 -0.000003  0.976757 -0.000005 1.570807
70  3.859709 -0.142400 -1.191967  -0.478202 0.090795 -0.963432
71  0.000002 1.312565 -0.000001  -0.361371 -0.138963 -0.204711
72  -0.000000 0.000000 -0.000000  1.078169 0.000003 1.570794
73  1.312570 -0.000016 0.000010  0.000004 -0.001338 -0.437247
74  0.000001 0.729363 0.000001  -0.404445 1.030434 -0.462982
75  -0.000002 -0.000000 0.000000  -0.000001 -0.000001 1.570795
76  0.729366 0.000005 0.000003  0.000002 -0.000004 -0.231830
77  0.348927 0.806041 1.321260  -1.143073 -2.276600 0.650327
78  -0.000001 0.000001 0.000000  0.437032 0.000002 1.570791
79  0.806047 -0.348924 1.321260  -1.473570 -0.631324 -0.380804
80  -0.000001 1.789785 0.000000  0.105700 0.066375 0.343767
81  -0.000000 0.000004 -0.000001  0.347279 0.000000 1.570806
82  1.789792 0.000010 -0.000002  0.002658 0.043708 0.349664
83  0.000001 1.207003 -0.000000  0.184158 0.296116 0.568132
84  -0.000000 -0.000001 -0.000000  0.000001 -0.000001 1.570797
85  1.207005 -0.000011 0.000006  -0.000004 0.000001 0.540580
86  0.000000 0.000000 1.000000  1.570796 -0.000000 0.000000
time 7
0  0.000000 3.644636 -8.644795  -1.570797 -1.391899 -1.570795
1  2.033355 1.000772 -1.937610  1.473118 1.855075 -0.198640
2  6.028144 0.000001 0.000000  2.017305 1.501986 -0.544136
3  11.692556 0.000001 0.000004  0.000000 -0.000000 -0.343764
4  11.481700 0.000000 0.000002  -1.288326 0.006894 0.272987
5  3.859682 -0.132569 1.193111  0.432208 -0.155862 -0.861350
6  1.312557 -0.000000 0.000001  0.000000 -0.000000 -1.191994
7  0.729363 0.000004 -0.000002  -0.000000 -0.000000 -1.063394
8  3.942307 0.050327 0.431046  0.232421 0.000609 -0.853331
9  1.539099 -0.000001 -0.000001  -0.000000 0.000000 -0.973379
10  1.196322 0.000006 0.000000  0.000000 -0.000000 -1.451289
11  3.883664 -0.050326 -0.431041  0.066987 0.050243 -0.694792
12  1.719580 0.000006 0.000002  -0.000000 0.000000 -1.251039
13  1.209186 0.000007 -0.000001  -0.000000 -0.000003 -1.141145
14  3.859838 -0.148939 -1.331282  -0.248855 0.263129 -0.072121
15  1.719421 0.000004 -0.000000  -0.000000 0.000000 -0.676756
16  1.099668 0.000005 -0.000001  0.000000 -0.000000 -1.021287
17  0.806022 -0.359839 -1.318333  1.349685 0.343493 -0.771450
18  1.789780 -0.000000 -0.000005  0.000000 0.000000 0.397500
19  1.207002 0.000004 -0.000001  -0.000000 0.000000 0.989033
20  6.104528 -1.468681 -3.530282  -1.564198 -0.011689 -1.581439
21  3.820736 -1.409994 -0.589408  -1.564198 -0.011689 -1.581440
22  0.222814 -3.739063 1.509297  0.024887 2.851473 -1.494016
23  3.048727 6.125609 1.106841  1.596061 0.018247 -0.808184
24  3.527214 5.063569 0.216259  1.596061 0.018246 -0.808184
25  3.352950 5.114327 -0.401207  1.596061 0.018247 -0.808184
26  2.909482 4.772883 -1.012056  1.596061 0.018247 -0.808184
27  1.772478 4.476569 2.356868  1.596061 0.018247 -0.808184
28  0.000006 3.336140 -8.647861  -1.570799 -1.391898 -1.570795
29  2.033350 1.000764 1.937663  1.227517 0.585911 1.190966
30  2.085227 1.304888 1.937679  1.227515 0.585914 1.190966
31  0.000001 -0.000001 0.000004  1.583265 0.000007 1.570794
32  0.000000 6.028147 -0.000001  -0.435902 -0.496834 -0.875744
33  0.000000 0.000009 -0.000005  -0.000002 0.000003 1.570792
34  0.000017 6.028144 -0.000010  -0.539046 0.380278 0.476573
35  0.000001 11.692571 0.000001  -0.000000 -0.000005 -0.725659
36  -0.000000 0.000001 -0.000001  0.000005 0.000000 1.570801
37  11.692573 0.000054 0.000044  0.000005 -0.000002 -0.725650
38  -0.000001 11.481683 -0.000000  0.360559 0.484840 0.795812
39  -0.000000 0.000001 -0.000000  0.000000 -0.000000 1.570789
40  11.481685 -0.000056 0.000008  0.512751 -0.317437 0.621852
41  0.137968 3.859859 1.332472  -1.465545 -1.619479 0.860210
42  0.000001 -0.000002 0.000000  1.933714 0.000004 1.570794
43  3.859863 -0.137942 1.332473  0.357798 -0.048415 -0.605210
44  0.000001 1.719426 0.000002  -0.421015 0.202310 0.066145
45  -0.000000 -0.000000 -0.000002  1.743430 0.000000 1.570798
46  1.719434 0.000006 -0.000006  0.000191 -0.009123 -0.438736
47  0.000001 1.099661 -0.000002  1.022534 1.907919 1.050517
48  0.000001 0.000001 -0.000000  -0.000002 0.000003 1.570799
49  1.099663 -0.000000 0.000002  -0.000120 0.002599 -0.291097
50  0.046789 3.883690 0.431449  -0.027670 -1.505149 -0.644470
51  0.000001 -0.000001 -0.000002  1.590082 0.000009 1.570787
52  3.883693 -0.046762 0.431449  0.084908 0.001806 -0.672082
53  0.000000 1.719577 -0.000001  -0.720142 0.051523 -0.006475
54  0.000001 0.000001 0.000001  1.538381 -0.000002 1.570794
55  1.719584 0.000019 -0.000016  -0.003915 0.016395 -0.719669
56  0.000001 1.209183 0.000002  -1.502668 1.085611 -1.507502
57  0.000001 -0.000000 -0.000000  -0.000000 -0.000000 1.570805
58  1.209186 -0.000003 -0.000002  -0.000816 0.002971 -0.484126
59  -0.046750 3.942327 -0.431437  -0.326187 -1.473458 -0.660701
60  0.000000 0.000000 -0.000000  1.317660 0.000000 1.570797
61  3.942330 0.046777 -0.431437  -0.160901 0.031147 -0.985443
62  0.000000 1.539089 -0.000001  -0.255183 -0.026494 -0.056799
63  -0.000000 -0.000002 -0.000000  1.337310 -0.000004 1.570800
64  1.539096 0.000001 0.000004  -0.000026 0.003554 -0.262731
65  -0.000001 1.196323 0.000002  -1.013209 1.118254 -1.059675
66  -0.000000 0.000001 -0.000000  0.000000 -0.000001 1.570800
67  1.196328 -0.000004 0.000004  0.000001 0.000003 -0.391280
68  0.142426 3.859706 -1.191969  -0.667244 -1.423731 -0.301399
69  0.000001 -0.000001 -0.000002  0.976757 -0.000005 1.570807
70  3.859711 -0.142401 -1.191969  -0.478195 0.090814 -0.963366
71  0.000002 1.312564 -0.000003  -0.361434 -0.138964 -0.204711
72  -0.000001 0.000000 0.000001  1.078169 0.000003 1.570794
73  1.312571 -0.000016 0.000007  0.000005 -0.001308 -0.437303
74  0.000000 0.729365 0.000003  -0.404554 1.030406 -0.463110
75  0.000003 -0.000000 0.000000  -0.000001 -0.000001 1.570795
76  0.729367 0.000007 0.000003  0.000001 -0.000004 -0.231902
77  0.348927 0.806046 1.321259  -1.143062 -2.276607 0.650331
78  -0.000001 -0.000001 -0.000002  0.437032 0.000002 1.570791
79  0.806051 -0.348924 1.321259  -1.473582 -0.631327 -0.380785
80  0.000002 1.789783 -0.000004  0.105700 0.066374 0.343777
81  0.000000 -0.000001 -0.000000  0.347279 0.000000 1.570806
82  1.789788 0.000006 -0.000002  0.002658 0.043712 0.349673
83  0.000000 1.206999 0.000001  0.184162 0.296113 0.568147
84  0.000001 0.000001 0.000000  0.000001 -0.000001 1.570797
85  1.207004 -0.000011 0.000006  -0.000004 0.000001 0.540594
86  0.000000 0.000000 1.000000  1.570796 -0.000000 0.000000
time 8
0  0.000000 3.523539 -8.644796  -1.570797 -1.391899 -1.570795
1  2.033355 1.000772 -1.937610  1.473118 1.855075 -0.198640
2  6.028144 0.000001 0.000000  2.058984 1.507408 -0.502369
3  11.692557 0.000001 0.000003  -0.000000 -0.000000 -0.331395
4  11.481696 0.000002 0.000001  -1.288617 0.007202 0.232438
5  3.859680 -0.132569 1.193111  0.432208 -0.155862 -0.861350
6  1.312558 0.000001 0.000002  0.000000 -0.000000 -1.191994
7  0.729363 -0.000001 -0.000001  0.000000 -0.000000 -1.063394
8  3.942306 0.050327 0.431044  0.232421 0.000609 -0.853331
9  1.539099 -0.000002 -0.000000  -0.000000 0.000000 -0.973379
10  1.196323 0.000005 -0.000001  0.000000 -0.000000 -1.451289
11  3.883663 -0.050326 -0.431042  0.066987 0.050243 -0.694792
12  1.719579 0.000004 0.000002  -0.000000 0.000000 -1.251039
13  1.209188 0.000002 -0.000000  -0.000000 -0.000003 -1.141145
14  3.859838 -0.148938 -1.331283  -0.248855 0.263129 -0.072121
15  1.719424 0.000003 -0.000001  -0.000000 0.000000 -0.676756
16  1.099665 0.000003 0.000001  0.000000 -0.000000 -1.021287
17  0.806023 -0.359838 -1.318335  1.349685 0.343493 -0.771450
18  1.789784 0.000000 -0.000002  -0.000000 0.000000 0.397500
19  1.207000 0.000003 -0.000001  0.000000 0.000000 0.989033
20  6.104526 -1.468681 -3.530283  -1.564198 -0.011689 -1.581439
21  3.820736 -1.409994 -0.589409  -1.564198 -0.011689 -1.581440
22  0.222813 -3.739061 1.509295  0.024887 2.851473 -1.494016
23  3.048727 6.125613 1.106841  1.596061 0.018247 -0.808184
24  3.527215 5.063568 0.216260  1.596061 0.018246 -0.808184
25  3.352951 5.114329 -0.401207  1.596061 0.018247 -0.808184
26  2.909482 4.772883 -1.012056  1.596061 0.018247 -0.808184
27  1.772479 4.476571 2.356869  1.596061 0.018247 -0.808184
28  0.000006 3.336140 -8.647861  -1.570799 -1.391898 -1.570795
29  2.033350 1.000764 1.937663  1.227517 0.585911 1.190966
30  2.063680 1.185723 1.937679  1.227515 0.585914 1.190966
31  0.000001 -0.000001 0.000004  1.583265 0.000007 1.570794
32  0.000000 6.028147 -0.000001  -0.424077 -0.502153 -0.892586
33  0.000000 0.000009 -0.000006  -0.000002 0.000003 1.570792
34  0.000017 6.028144 -0.000010  -0.542235 0.368998 0.464227
35  -0.000000 11.692573 -0.000000  -0.000000 -0.000005 -0.690484
36  -0.000001 0.000001 -0.000002  0.000005 0.000000 1.570801
37  11.692572 0.000055 0.000043  0.000005 -0.000002 -0.690475
38  -0.000000 11.481681 -0.000001  0.390545 0.486332 0.774622
39  -0.000001 -0.000003 0.000001  0.000000 -0.000000 1.570789
40  11.481686 -0.000054 0.000006  0.519377 -0.343248 0.584517
41  0.137967 3.859854 1.332474  -1.465505 -1.619461 0.860156
42  0.000001 -0.000001 0.000000  1.933714 0.000004 1.570794
43  3.859860 -0.137941 1.332473  0.357798 -0.048398 -0.605227
44  -0.000000 1.719428 0.000002  -0.420969 0.202310 0.066145
45  -0.000000 0.000001 -0.000001  1.743430 0.000000 1.570798
46  1.719433 0.000007 -0.000007  0.000190 -0.009115 -0.438691
47  -0.000000 1.099662 -0.000002  1.022476 1.907886 1.050456
48  -0.000001 0.000000 0.000001  -0.000002 0.000003 1.570799
49  1.099666 -0.000000 0.000001  -0.000120 0.002600 -0.291058
50  0.046789 3.883682 0.431451  -0.027858 -1.505149 -0.644269
51  -0.000001 -0.000000 0.000000  1.590082 0.000009 1.570787
52  3.883687 -0.046762 0.431450  0.084907 0.001819 -0.672072
53  0.000000 1.719572 0.000000  -0.720129 0.051523 -0.006475
54  -0.000000 0.000000 0.000004  1.538381 -0.000002 1.570794
55  1.719575 0.000014 -0.000016  -0.003915 0.016395 -0.719657
56  0.000002 1.209181 -0.000001  -1.502667 1.085620 -1.507500
57  0.000000 0.000001 0.000001  -0.000000 -0.000000 1.570805
58  1.209185 -0.000005 -0.000001  -0.000816 0.002971 -0.484117
59  -0.046751 3.942322 -0.431434  -0.326296 -1.473456 -0.660586
60  0.000000 0.000000 0.000001  1.317660 0.000000 1.570797
61  3.942324 0.046778 -0.431436  -0.160902 0.031158 -0.985440
62  0.000001 1.539092 0.000001  -0.255162 -0.026494 -0.056799
63  0.000000 0.000002 -0.000001  1.337310 -0.000004 1.570800
64  1.539097 0.000002 0.000003  -0.000026 0.003549 -0.262710
65  0.000002 1.196322 -0.000001  -1.013184 1.118273 -1.059648
66  -0.000001 0.000000 0.000000  0.000000 -0.000001 1.570800
67  1.196326 -0.000004 0.000004  0.000001 0.000003 -0.391258
68  0.142426 3.859700 -1.191966  -0.667298 -1.423724 -0.301335
69  -0.000000 -0.000001 0.000001  0.976757 -0.000005 1.570807
70  3.859706 -0.142400 -1.191968  -0.478194 0.090824 -0.963357
71  -0.000001 1.312569 0.000002  -0.361413 -0.138963 -0.204711
72  0.000000 0.000000 0.000000  1.078169 0.000003 1.570794
73  1.312575 -0.000013 0.000009  0.000004 -0.001318 -0.437283
74  0.000000 0.729365 0.000003  -0.404525 1.030414 -0.463075
75  -0.000001 -0.000000 -0.000002  -0.000001 -0.000001 1.570795
76  0.729368 0.000006 0.000000  0.000002 -0.000004 -0.231882
77  0.348927 0.806040 1.321260  -1.143028 -2.276561 0.650312
78  -0.000000 -0.000001 -0.000001  0.437032 0.000002 1.570791
79  0.806044 -0.348924 1.321259  -1.473576 -0.631276 -0.380781
80  -0.000002 1.789785 0.000001  0.105698 0.066378 0.343739
81  0.000001 0.000001 0.000001  0.347279 0.000000 1.570806
82  1.789791 0.000011 -0.000000  0.002657 0.043700 0.349637
83  0.000001 1.206998 0.000002  0.184145 0.296124 0.568089
84  -0.000000 0.000001 -0.000000  0.000001 -0.000001 1.570797
85  1.207002 -0.000011 0.000006  -0.000004 0.000001 0.540537
86  0.000000 0.000000 1.000000  1.570796 -0.000000 0.000000
time 9
0  0.000000 3.437599 -8.644796  -1.570797 -1.391899 -1.570795
1  2.033355 1.000772 -1.937610  1.473118 1.855075 -0.198640
2  6.028144 0.000001 0.000000  2.092978 1.511147 -0.468298
3  11.692556 0.000000 0.000003  -0.000000 -0.000000 -0.322636
4  11.481697 0.000002 0.000002  -1.288762 0.007346 0.210745
5  3.859676 -0.132569 1.193110  0.432208 -0.155862 -0.861350
6  1.312560 -0.000003 0.000002  0.000000 -0.000000 -1.191994
7  0.729365 0.000004 -0.000001  -0.000000 -0.000000 -1.063394
8  3.942303 0.050327 0.431043  0.232421 0.000609 -0.853331
9  1.539096 -0.000003 -0.000001  -0.000000 0.000000 -0.973379
10  1.196323 0.000008 0.000000  0.000000 0.000000 -1.451289
11  3.883658 -0.050326 -0.431042  0.066987 0.050243 -0.694792
12  1.719581 0.000007 0.000001  -0.000000 0.000000 -1.251039
13  1.209185 0.000003 -0.000001  -0.000000 -0.000003 -1.141145
14  3.859834 -0.148937 -1.331283  -0.248855 0.263129 -0.072121
15  1.719423 0.000004 0.000001  -0.000000 0.000000 -0.676756
16  1.099667 0.000004 -0.000001  0.000000 -0.000000 -1.021287
17  0.806018 -0.359838 -1.318335  1.349685 0.343493 -0.771450
18  1.789781 -0.000000 -0.000004  0.000000 0.000000 0.397500
19  1.207002 0.000004 0.000000  0.000000 0.000000 0.989033
20  6.104522 -1.468681 -3.530284  -1.564198 -0.011689 -1.581439
21  3.820734 -1.409994 -0.589410  -1.564198 -0.011689 -1.581440
22  0.222806 -3.739062 1.509296  0.024887 2.851473 -1.494016
23  3.048727 6.125612 1.106840  1.596061 0.018247 -0.808184
24  3.527214 5.063570 0.216259  1.596061 0.018246 -0.808184
25  3.352951 5.114327 -0.401207  1.596061 0.018247 -0.808184
26  2.909482 4.772883 -1.012058  1.596061 0.018247 -0.808184
27  1.772479 4.476573 2.356868  1.596061 0.018247 -0.808184
28  0.000006 3.336140 -8.647861  -1.570799 -1.391898 -1.570795
29  2.033350 1.000764 1.937663  1.227517 0.585911 1.190966
30  2.048387 1.101154 1.937679  1.227515 0.585914 1.190966
31  0.000001 -0.000001 0.000004  1.583265 0.000007 1.570794
32  0.000000 6.028147 -0.000001  -0.415735 -0.505928 -0.904780
33  -0.000001 0.000010 -0.000005  -0.000002 0.000003 1.570792
34  0.000017 6.028144 -0.000010  -0.544537 0.361062 0.455241
35  -0.000001 11.692570 -0.000001  -0.000001 -0.000005 -0.665195
36  -0.000000 0.000000 -0.000003  0.000005 0.000000 1.570801
37  11.692572 0.000056 0.000040  0.000004 -0.000001 -0.665186
38  -0.000001 11.481682 -0.000000  0.404957 0.486907 0.759490
39  -0.000001 -0.000001 0.000000  0.000000 -0.000000 1.570789
40  11.481688 -0.000053 0.000009  0.522591 -0.355638 0.561545
41  0.137968 3.859856 1.332474  -1.465477 -1.619447 0.860111
42  -0.000001 -0.000002 -0.000000  1.933714 0.000004 1.570794
43  3.859863 -0.137941 1.332474  0.357798 -0.048383 -0.605246
44  -0.000000 1.719429 -0.000002  -0.420929 0.202310 0.066145
45  -0.000001 0.000000 -0.000001  1.743430 0.000000 1.570798
46  1.719437 0.000005 -0.000005  0.000190 -0.009109 -0.438651
47  0.000000 1.099662 0.000001  1.022425 1.907857 1.050401
48  0.000003 -0.000000 0.000000  -0.000002 0.000003 1.570799
49  1.099665 0.000003 0.000003  -0.000119 0.002599 -0.291024
50  0.046788 3.883684 0.431450  -0.028009 -1.505149 -0.644119
51  0.000001 -0.000001 0.000001  1.590082 0.000009 1.570787
52  3.883691 -0.046762 0.431449  0.084907 0.001828 -0.672068
53  -0.000000 1.719575 0.000003  -0.720117 0.051523 -0.006475
54  -0.000000 0.000000 0.000001  1.538381 -0.000002 1.570794
55  1.719578 0.000018 -0.000018  -0.003915 0.016394 -0.719645
56  -0.000001 1.209184 0.000002  -1.502665 1.085629 -1.507499
57  -0.000000 -0.000000 -0.000001  -0.000000 -0.000000 1.570805
58  1.209187 0.000001 -0.000002  -0.000817 0.002971 -0.484108
59  -0.046751 3.942322 -0.431436  -0.326378 -1.473454 -0.660514
60  0.000001 -0.000000 0.000000  1.317660 0.000000 1.570797
61  3.942330 0.046778 -0.431437  -0.160903 0.031166 -0.985446
62  0.000001 1.539091 0.000003  -0.255141 -0.026494 -0.056799
63  0.000001 0.000000 -0.000001  1.337310 -0.000004 1.570800
64  1.539096 0.000002 0.000003  -0.000026 0.003544 -0.262690
65  0.000002 1.196323 0.000003  -1.013156 1.118295 -1.059616
66  -0.000000 0.000001 0.000000  0.000000 -0.000001 1.570800
67  1.196325 -0.000004 0.000004  0.000000 0.000003 -0.391232
68  0.142425 3.859703 -1.191967  -0.667343 -1.423720 -0.301294
69  -0.000000 0.000001 0.000001  0.976757 -0.000005 1.570807
70  3.859712 -0.142400 -1.191969  -0.478195 0.090832 -0.963358
71  0.000001 1.312566 -0.000002  -0.361392 -0.138963 -0.204711
72  0.000001 0.000000 -0.000001  1.078169 0.000003 1.570794
73  1.312570 -0.000015 0.000006  0.000004 -0.001328 -0.437266
74  0.000002 0.729364 0.000003  -0.404492 1.030422 -0.463038
75  0.000000 0.000000 -0.000000  -0.000001 -0.000001 1.570795
76  0.729367 0.000004 0.000002  0.000001 -0.000004 -0.231862
77  0.348927 0.806042 1.321260  -1.143004 -2.276526 0.650298
78  0.000001 -0.000001 -0.000000  0.437032 0.000002 1.570791
79  0.806048 -0.348924 1.321260  -1.473571 -0.631239 -0.380781
80  -0.000001 1.789782 -0.000000  0.105696 0.066381 0.343713
81  -0.000000 -0.000000 0.000002  0.347279 0.000000 1.570806
82  1.789790 0.000013 -0.000002  0.002655 0.043691 0.349613
83  -0.000001 1.207000 0.000002  0.184133 0.296131 0.568048
84  0.000000 0.000001 0.000000  0.000001 -0.000001 1.570797
85  1.207003 -0.000010 0.000005  -0.000003 0.000001 0.540497
86  0.000000 0.000000 1.000000  1.570796 -0.000000 0.000000
time 10
0  0.000000 3.379003 -8.644795  -1.570797 -1.391899 -1.570795
1  2.033355 1.000772 -1.937610  1.473118 1.855075 -0.198640
2  6.028144 0.000000 0.000000  2.114837 1.513297 -0.446374
3  11.692555 0.000001 0.000004  -0.000000 -0.000000 -0.317560
4  11.481696 0.000001 0.000002  -1.288835 0.007428 0.201108
5  3.859681 -0.132569 1.193111  0.432208 -0.155862 -0.861350
6  1.312556 -0.000003 0.000000  -0.000000 -0.000000 -1.191994
7  0.729361 0.000001 0.000000  0.000000 -0.000000 -1.063394
8  3.942306 0.050327 0.431045  0.232421 0.000609 -0.853331
9  1.539101 0.000001 -0.000000  -0.000000 0.000000 -0.973379
10  1.196322 0.000007 -0.000001  0.000000 -0.000000 -1.451289
11  3.883662 -0.050325 -0.431042  0.066987 0.050243 -0.694792
12  1.719580 0.000007 0.000000  -0.000000 0.000000 -1.251039
13  1.209186 0.000005 0.000000  -0.000000 -0.000003 -1.141145
14  3.859837 -0.148938 -1.331283  -0.248855 0.263129 -0.072121
15  1.719424 0.000003 0.000001  -0.000000 0.000000 -0.676756
16  1.099667 0.000004 -0.000000  0.000000 -0.000000 -1.021287
17  0.806021 -0.359838 -1.318334  1.349685 0.343493 -0.771450
18  1.789781 0.000000 -0.000004  0.000000 0.000000 0.397500
19  1.207000 0.000005 -0.000001  0.000000 0.000000 0.989033
20  6.104524 -1.468681 -3.530282  -1.564198 -0.011689 -1.581439
21  3.820735 -1.409994 -0.589408  -1.564198 -0.011689 -1.581440
22  0.222817 -3.739060 1.509297  0.024887 2.851473 -1.494016
23  3.048727 6.125610 1.106841  1.596061 0.018247 -0.808184
24  3.527214 5.063568 0.216259  1.596061 0.018246 -0.808184
25  3.352950 5.114326 -0.401207  1.596061 0.018247 -0.808184
26  2.909482 4.772881 -1.012056  1.596061 0.018247 -0.808184
27  1.772478 4.476572 2.356868  1.596061 0.018247 -0.808184
28  0.000006 3.336140 -8.647861  -1.570799 -1.391898 -1.570795
29  2.033350 1.000764 1.937663  1.227517 0.585911 1.190966
30  2.037959 1.043494 1.937679  1.227515 0.585914 1.190966
31  0.000001 -0.000001 0.000004  1.583265 0.000007 1.570794
32  0.000000 6.028147 -0.000001  -0.410215 -0.508419 -0.912960
33  0.000001 0.000010 -0.000007  -0.000002 0.000003 1.570792
34  0.000017 6.028144 -0.000010  -0.546066 0.355824 0.449206
35  0.000000 11.692572 -0.000001  -0.000001 -0.000005 -0.648320
36  0.000000 0.000000 -0.000002  0.000005 0.000000 1.570801
37  11.692572 0.000055 0.000040  0.000004 -0.000001 -0.648311
38  -0.000000 11.481682 -0.000000  0.410221 0.486965 0.749367
39  -0.000001 0.000002 0.000001  0.000000 -0.000000 1.570789
40  11.481688 -0.000054 0.000008  0.523635 -0.360187 0.548592
41  0.137968 3.859857 1.332474  -1.465464 -1.619436 0.860075
42  -0.000000 -0.000001 -0.000001  1.933714 0.000004 1.570794
43  3.859859 -0.137941 1.332472  0.357798 -0.048371 -0.605262
44  -0.000001 1.719428 -0.000001  -0.420895 0.202310 0.066145
45  0.000001 -0.000001 0.000000  1.743430 0.000000 1.570799
46  1.719433 0.000005 -0.000007  0.000190 -0.009103 -0.438617
47  0.000001 1.099661 0.000001  1.022382 1.907832 1.050355
48  -0.000000 0.000000 0.000000  -0.000002 0.000003 1.570799
49  1.099666 0.000002 0.000002  -0.000119 0.002599 -0.290994
50  0.046788 3.883688 0.431450  -0.028103 -1.505149 -0.644022
51  0.000000 -0.000001 0.000001  1.590082 0.000009 1.570787
52  3.883690 -0.046761 0.431448  0.084907 0.001835 -0.672065
53  -0.000001 1.719577 0.000003  -0.720107 0.051523 -0.006475
54  -0.000001 0.000001 -0.000000  1.538381 -0.000002 1.570794
55  1.719584 0.000017 -0.000018  -0.003915 0.016394 -0.719634
56  -0.000003 1.209185 0.000004  -1.502664 1.085637 -1.507498
57  0.000002 -0.000001 0.000000  -0.000000 -0.000000 1.570805
58  1.209188 0.000005 -0.000007  -0.000816 0.002971 -0.484100
59  -0.046751 3.942328 -0.431436  -0.326430 -1.473453 -0.660463
60  -0.000001 0.000002 -0.000000  1.317660 0.000000 1.570797
61  3.942331 0.046779 -0.431438  -0.160903 0.031171 -0.985449
62  -0.000001 1.539091 -0.000001  -0.255124 -0.026494 -0.056799
63  0.000000 -0.000000 0.000003  1.337310 -0.000004 1.570800
64  1.539096 -0.000002 0.000001  -0.000026 0.003540 -0.262673
65  0.000001 1.196322 0.000004  -1.013134 1.118311 -1.059593
66  -0.000002 0.000000 0.000001  0.000000 -0.000001 1.570800
67  1.196327 -0.000003 0.000005  0.000001 0.000003 -0.391212
68  0.142426 3.859702 -1.191967  -0.667368 -1.423717 -0.301268
69  -0.000001 0.000001 -0.000001  0.976757 -0.000005 1.570807
70  3.859706 -0.142400 -1.191969  -0.478195 0.090837 -0.963360
71  -0.000001 1.312566 -0.000003  -0.361374 -0.138963 -0.204711
72  -0.000000 0.000001 -0.000000  1.078169 0.000003 1.570794
73  1.312570 -0.000015 0.000008  0.000004 -0.001337 -0.437249
74  -0.000001 0.729364 0.000001  -0.404466 1.030429 -0.463007
75  0.000003 -0.000000 -0.000001  -0.000001 -0.000001 1.570795
76  0.729367 0.000003 -0.000001  0.000002 -0.000004 -0.231844
77  0.348928 0.806045 1.321259  -1.142987 -2.276501 0.650287
78  0.000001 0.000000 0.000001  0.437032 0.000002 1.570791
79  0.806047 -0.348924 1.321259  -1.473567 -0.631211 -0.380781
80  0.000000 1.789784 0.000001  0.105695 0.066383 0.343693
81  0.000000 0.000001 0.000000  0.347279 0.000000 1.570806
82  1.789788 0.000010 -0.000003  0.002655 0.043683 0.349594
83  0.000001 1.206998 -0.000001  0.184123 0.296137 0.568015
84  0.000000 -0.000000 0.000000  0.000001 -0.000001 1.570797
85  1.206998 -0.000012 0.000004  -0.000004 0.000001 0.540466
86  0.000000 0.000000 1.000000  1.570796 -0.000000 0.000000
time 11
0  0.000000 3.343846 -8.644796  -1.570797 -1.391899 -1.570795
1  2.033355 1.000772 -1.937610  1.473118 1.855075 -0.198640
2  6.028144 0.000001 0.000000  2.118875 1.513671 -0.442333
3  11.692556 -0.000000 0.000003  0.000000 -0.000000 -0.316658
4  11.481698 -0.000001 0.000001  -1.288835 0.007428 0.200690
5  3.859683 -0.132569 1.193112  0.432208 -0.155862 -0.861350
6  1.312557 -0.000002 0.000002  -0.000000 -0.000000 -1.191994
7  0.729363 0.000002 -0.000002  -0.000000 -0.000000 -1.063394
8  3.942307 0.050327 0.431045  0.232421 0.000609 -0.853331
9  1.539098 -0.000000 -0.000001  -0.000000 0.000000 -0.973379
10  1.196323 0.000010 -0.000001  0.000000 0.000000 -1.451289
11  3.883663 -0.050326 -0.431041  0.066987 0.050243 -0.694792
12  1.719578 0.000004 -0.000000  -0.000000 0.000000 -1.251039
13  1.209184 0.000008 0.000000  -0.000000 -0.000003 -1.141145
14  3.859838 -0.148938 -1.331283  -0.248855 0.263129 -0.072121
15  1.719425 0.000003 -0.000001  -0.000000 0.000000 -0.676756
16  1.099667 0.000002 0.000001  0.000000 -0.000000 -1.021287
17  0.806022 -0.359838 -1.318334  1.349685 0.343493 -0.771450
18  1.789783 0.000000 -0.000003  0.000000 -0.000000 0.397500
19  1.207001 0.000004 0.000000  0.000000 0.000000 0.989033
20  6.104528 -1.468681 -3.530283  -1.564198 -0.011689 -1.581439
21  3.820737 -1.409994 -0.589409  -1.564198 -0.011689 -1.581440
22  0.222822 -3.739061 1.509297  0.024887 2.851473 -1.494016
23  3.048727 6.125612 1.106840  1.596061 0.018247 -0.808184
24  3.527214 5.063569 0.216258  1.596061 0.018246 -0.808184
25  3.352951 5.114326 -0.401208  1.596061 0.018247 -0.808184
26  2.909482 4.772882 -1.012057  1.596061 0.018247 -0.808184
27  1.772478 4.476573 2.356867  1.596061 0.018247 -0.808184
28  0.000006 3.336140 -8.647861  -1.570799 -1.391898 -1.570795
29  2.033350 1.000764 1.937663  1.227517 0.585911 1.190966
30  2.031704 1.008898 1.937679  1.227515 0.585914 1.190966
31  0.000001 -0.000001 0.000004  1.583265 0.000007 1.570794
32  0.000000 6.028147 -0.000001  -0.407354 -0.509739 -0.917288
33  -0.000001 0.000009 -0.000005  -0.000002 0.000003 1.570792
34  0.000017 6.028144 -0.000010  -0.546892 0.353107 0.445986
35  0.000000 11.692570 0.000000  -0.000001 -0.000005 -0.639376
36  0.000001 0.000001 -0.000002  0.000005 0.000000 1.570801
37  11.692573 0.000055 0.000041  0.000004 -0.000002 -0.639368
38  0.000001 11.481680 -0.000000  0.409294 0.486753 0.743999
39  -0.000000 0.000000 0.000001  0.000000 -0.000000 1.570789
40  11.481685 -0.000057 0.000007  0.523240 -0.359426 0.543798
41  0.137968 3.859863 1.332473  -1.465454 -1.619431 0.860066
42  -0.000001 0.000002 -0.000001  1.933714 0.000004 1.570794
43  3.859867 -0.137941 1.332472  0.357798 -0.048367 -0.605268
44  -0.000000 1.719431 -0.000001  -0.420881 0.202310 0.066145
45  -0.000000 -0.000000 -0.000001  1.743430 0.000000 1.570799
46  1.719433 0.000008 -0.000007  0.000190 -0.009100 -0.438603
47  -0.000000 1.099662 -0.000003  1.022364 1.907822 1.050337
48  -0.000001 -0.000000 0.000000  -0.000002 0.000003 1.570799
49  1.099666 -0.000000 0.000003  -0.000119 0.002600 -0.290982
50  0.046789 3.883688 0.431451  -0.028160 -1.505149 -0.643962
51  0.000001 0.000001 0.000000  1.590082 0.000009 1.570787
52  3.883691 -0.046762 0.431449  0.084906 0.001838 -0.672064
53  -0.000000 1.719578 0.000001  -0.720102 0.051523 -0.006475
54  -0.000000 0.000000 -0.000002  1.538381 -0.000002 1.570794
55  1.719582 0.000016 -0.000017  -0.003915 0.016394 -0.719629
56  -0.000001 1.209185 -0.000002  -1.502664 1.085642 -1.507497
57  0.000001 -0.000000 0.000000  -0.000000 -0.000000 1.570805
58  1.209189 -0.000000 -0.000004  -0.000816 0.002971 -0.484095
59  -0.046751 3.942327 -0.431437  -0.326451 -1.473452 -0.660443
60  -0.000001 -0.000000 -0.000001  1.317660 0.000000 1.570797
61  3.942330 0.046779 -0.431438  -0.160904 0.031173 -0.985450
62  0.000000 1.539090 -0.000002  -0.255117 -0.026494 -0.056799
63  0.000000 -0.000001 0.000002  1.337310 -0.000004 1.570800
64  1.539099 -0.000003 0.000001  -0.000026 0.003539 -0.262666
65  0.000000 1.196323 0.000000  -1.013125 1.118319 -1.059582
66  0.000001 -0.000000 -0.000001  0.000000 -0.000001 1.570800
67  1.196330 -0.000010 0.000004  0.000001 0.000003 -0.391204
68  0.142426 3.859705 -1.191969  -0.667375 -1.423717 -0.301263
69  -0.000001 0.000001 -0.000002  0.976757 -0.000005 1.570807
70  3.859711 -0.142400 -1.191970  -0.478195 0.090838 -0.963361
71  0.000001 1.312567 -0.000002  -0.361364 -0.138963 -0.204711
72  -0.000000 0.000000 0.000002  1.078169 0.000003 1.570794
73  1.312573 -0.000017 0.000011  0.000005 -0.001342 -0.437240
74  -0.000000 0.729364 -0.000002  -0.404450 1.030433 -0.462989
75  -0.000000 -0.000000 0.000001  -0.000001 -0.000001 1.570795
76  0.729366 0.000002 -0.000001  0.000002 -0.000004 -0.231834
77  0.348928 0.806047 1.321259  -1.142980 -2.276491 0.650283
78  -0.000001 -0.000000 -0.000001  0.437032 0.000002 1.570791
79  0.806051 -0.348924 1.321258  -1.473565 -0.631199 -0.380780
80  -0.000000 1.789783 -0.000000  0.105694 0.066383 0.343684
81  0.000001 0.000001 -0.000001  0.347279 0.000000 1.570806
82  1.789790 0.000010 -0.000002  0.002654 0.043681 0.349585
83  -0.000000 1.207001 0.000002  0.184119 0.296139 0.568001
84  -0.000001 -0.000000 0.000000  0.000001 -0.000001 1.570797
85  1.207005 -0.000010 0.000007  -0.000004 0.000001 0.540452
86  0.000000 0.000000 1.000000  1.570796 -0.000000 0.000000
time 12
0  0.000000 3.336033 -8.644795  -1.570797 -1.391899 -1.570795
1  2.033355 1.000772 -1.937610  1.473118 1.855075 -0.198640
2  6.028144 0.000000 0.000000  2.118875 1.513671 -0.442333
3  11.692557 0.000001 0.000004  0.000000 -0.000000 -0.316658
4  11.481697 0.000001 0.000001  -1.288835 0.007428 0.200690
5  3.859679 -0.132569 1.193112  0.432208 -0.155862 -0.861350
6  1.312555 -0.000001 0.000001  -0.000000 -0.000000 -1.191994
7  0.729364 0.000002 -0.000003  -0.000000 -0.000000 -1.063394
8  3.942305 0.050326 0.431045  0.232421 0.000609 -0.853331
9  1.539097 -0.000002 -0.000001  -0.000000 0.000000 -0.973379
10  1.196322 0.000006 -0.000001  0.000000 0.000000 -1.451289
11  3.883661 -0.050326 -0.431041  0.066987 0.050243 -0.694792
12  1.719578 0.000006 0.000000  -0.000000 0.000000 -1.251039
13  1.209185 0.000006 0.000000  -0.000000 -0.000003 -1.141145
14  3.859836 -0.148939 -1.331283  -0.248855 0.263129 -0.072121
15  1.719424 0.000003 -0.000001  -0.000000 0.000000 -0.676756
16  1.099666 0.000002 -0.000000  0.000000 -0.000000 -1.021287
17  0.806020 -0.359839 -1.318334  1.349685 0.343493 -0.771450
18  1.789782 0.000000 -0.000004  0.000000 -0.000000 0.397500
19  1.207001 0.000004 0.000001  0.000000 0.000000 0.989033
20  6.104524 -1.468681 -3.530283  -1.564198 -0.011689 -1.581439
21  3.820735 -1.409994 -0.589409  -1.564198 -0.011689 -1.581440
22  0.222816 -3.739062 1.509297  0.024887 2.851473 -1.494016
23  3.048727 6.125614 1.106840  1.596061 0.018247 -0.808184
24  3.527214 5.063570 0.216258  1.596061 0.018246 -0.808184
25  3.352951 5.114328 -0.401208  1.596061 0.018247 -0.808184
26  2.909482 4.772884 -1.012057  1.596061 0.018247 -0.808184
27  1.772478 4.476574 2.356868  1.596061 0.018247 -0.808184
28  0.000006 3.336140 -8.647861  -1.570799 -1.391898 -1.570795
29  2.033350 1.000764 1.937663  1.227517 0.585911 1.190966
30  2.030313 1.001210 1.937679  1.227515 0.585914 1.190966
31  0.000001 -0.000001 0.000004  1.583265 0.000007 1.570794
32  0.000000 6.028147 -0.000001  -0.406741 -0.510019 -0.918214
33  0.000001 0.000009 -0.000005  -0.000002 0.000003 1.570792
34  0.000017 6.028144 -0.000010  -0.547068 0.352526 0.445297
35  0.000001 11.692572 0.000001  -0.000001 -0.000005 -0.637465
36  -0.000002 0.000000 -0.000002  0.000005 0.000000 1.570801
37  11.692573 0.000054 0.000042  0.000004 -0.000002 -0.637456
38  -0.000003 11.481682 0.000000  0.409107 0.486708 0.742854
39  -0.000001 0.000000 0.000000  0.000000 -0.000000 1.570789
40  11.481686 -0.000054 0.000007  0.523157 -0.359273 0.542769
41  0.137967 3.859861 1.332474  -1.465459 -1.619431 0.860063
42  0.000000 -0.000001 0.000001  1.933714 0.000004 1.570794
43  3.859863 -0.137940 1.332475  0.357799 -0.048366 -0.605270
44  0.000001 1.719428 0.000000  -0.420877 0.202310 0.066145
45  0.000000 -0.000001 -0.000000  1.743430 0.000000 1.570799
46  1.719432 0.000003 -0.000004  0.000189 -0.009100 -0.438600
47  -0.000000 1.099662 -0.000000  1.022358 1.907818 1.050332
48  -0.000001 0.000000 0.000000  -0.000002 0.000003 1.570799
49  1.099665 0.000001 0.000002  -0.000119 0.002600 -0.290978
50  0.046788 3.883686 0.431451  -0.028161 -1.505149 -0.643961
51  0.000000 0.000001 -0.000002  1.590082 0.000009 1.570787
52  3.883689 -0.046761 0.431452  0.084907 0.001838 -0.672063
53  0.000001 1.719573 -0.000002  -0.720101 0.051523 -0.006475
54  -0.000000 -0.000001 0.000002  1.538382 -0.000002 1.570794
55  1.719576 0.000013 -0.000016  -0.003915 0.016393 -0.719629
56  -0.000001 1.209182 0.000005  -1.502664 1.085642 -1.507497
57  0.000001 0.000000 -0.000001  -0.000000 -0.000000 1.570805
58  1.209186 0.000002 -0.000003  -0.000816 0.002971 -0.484095
59  -0.046751 3.942325 -0.431435  -0.326460 -1.473452 -0.660438
60  0.000002 -0.000001 0.000003  1.317660 0.000000 1.570797
61  3.942326 0.046779 -0.431435  -0.160904 0.031174 -0.985452
62  0.000001 1.539092 0.000005  -0.255113 -0.026494 -0.056799
63  0.000002 -0.000001 -0.000002  1.337310 -0.000004 1.570800
64  1.539098 0.000003 0.000002  -0.000026 0.003538 -0.262663
65  0.000000 1.196321 0.000001  -1.013119 1.118323 -1.059576
66  -0.000003 -0.000000 0.000000  0.000000 -0.000001 1.570800
67  1.196326 -0.000002 0.000002  0.000000 0.000004 -0.391199
68  0.142426 3.859701 -1.191967  -0.667372 -1.423717 -0.301269
69  -0.000000 -0.000000 0.000001  0.976757 -0.000005 1.570807
70  3.859705 -0.142400 -1.191967  -0.478195 0.090837 -0.963362
71  -0.000001 1.312565 -0.000003  -0.361361 -0.138964 -0.204711
72  0.000000 0.000000 0.000000  1.078169 0.000003 1.570794
73  1.312569 -0.000016 0.000006  0.000004 -0.001343 -0.437238
74  -0.000000 0.729364 0.000000  -0.404446 1.030434 -0.462984
75  -0.000002 0.000001 -0.000000  -0.000001 -0.000001 1.570795
76  0.729366 0.000002 0.000000  0.000001 -0.000004 -0.231831
77  0.348927 0.806045 1.321260  -1.142977 -2.276485 0.650281
78  -0.000000 0.000001 -0.000002  0.437031 0.000002 1.570790
79  0.806047 -0.348924 1.321262  -1.473564 -0.631194 -0.380781
80  -0.000003 1.789785 0.000000  0.105694 0.066384 0.343680
81  0.000000 -0.000002 -0.000001  0.347279 0.000000 1.570806
82  1.789789 0.000014 -0.000002  0.002654 0.043679 0.349581
83  0.000001 1.206998 -0.000000  0.184117 0.296140 0.567995
84  -0.000000 0.000000 0.000000  0.000001 -0.000001 1.570797
85  1.207006 -0.000011 0.000006  -0.000004 0.000002 0.540446
86  0.000000 0.000000 1.000000  1.570796 -0.000000 0.000000
end
