version 1
nodes
0 "ValveBiped.Bip01_Spine4" -1
1 "ValveBiped.Bip01_R_Clavicle" 0
2 "ValveBiped.Bip01_R_UpperArm" 1
3 "ValveBiped.Bip01_R_Forearm" 2
4 "ValveBiped.Bip01_R_Hand" 3
5 "ValveBiped.Bip01_R_Finger4" 4
6 "ValveBiped.Bip01_R_Finger41" 5
7 "ValveBiped.Bip01_R_Finger42" 6
8 "ValveBiped.Bip01_R_Finger3" 4
9 "ValveBiped.Bip01_R_Finger31" 8
10 "ValveBiped.Bip01_R_Finger32" 9
11 "ValveBiped.Bip01_R_Finger2" 4
12 "ValveBiped.Bip01_R_Finger21" 11
13 "ValveBiped.Bip01_R_Finger22" 12
14 "ValveBiped.Bip01_R_Finger1" 4
15 "ValveBiped.Bip01_R_Finger11" 14
16 "ValveBiped.Bip01_R_Finger12" 15
17 "ValveBiped.Bip01_R_Finger0" 4
18 "ValveBiped.Bip01_R_Finger01" 17
19 "ValveBiped.Bip01_R_Finger02" 18
20 "ValveBiped.square" 4
21 "ValveBiped.clip" 4
22 "ik_target.Bip01_L_Hand" 4
23 "ik_target.Bip01_L_Finger1_tip" 22
24 "ik_target.Bip01_L_Finger2_tip" 22
25 "ik_target.Bip01_L_Finger3_tip" 22
26 "ik_target.Bip01_L_Finger4_tip" 22
27 "ik_target.Bip01_L_Finger0_tip" 22
28 "ik_chain.Bip01_Spine4" -1
29 "ik_chain.Bip01_L_Clavicle" 28
30 "ValveBiped.Bip01_L_Clavicle" 0
31 "ik_parent.Bip01_L_Clavicle" 29
32 "ik_chain.Bip01_L_UpperArm" 29
33 "ik_parent.Bip01_L_UpperArm" 32
34 "ValveBiped.Bip01_L_UpperArm" 30
35 "ik_chain.Bip01_L_Forearm" 32
36 "ik_parent.Bip01_L_Forearm" 35
37 "ValveBiped.Bip01_L_Forearm" 34
38 "ik_chain.Bip01_L_Hand" 35
39 "ik_parent.Bip01_L_Hand" 38
40 "ValveBiped.Bip01_L_Hand" 37
41 "ik_chain.Bip01_L_Finger1" 38
42 "ik_parent.Bip01_L_Finger1" 41
43 "ValveBiped.Bip01_L_Finger1" 40
44 "ik_chain.Bip01_L_Finger11" 41
45 "ik_parent.Bip01_L_Finger11" 44
46 "ValveBiped.Bip01_L_Finger11" 43
47 "ik_chain.Bip01_L_Finger12" 44
48 "ik_parent.Bip01_L_Finger12" 47
49 "ValveBiped.Bip01_L_Finger12" 46
50 "ik_chain.Bip01_L_Finger2" 38
51 "ik_parent.Bip01_L_Finger2" 50
52 "ValveBiped.Bip01_L_Finger2" 40
53 "ik_chain.Bip01_L_Finger21" 50
54 "ik_parent.Bip01_L_Finger21" 53
55 "ValveBiped.Bip01_L_Finger21" 52
56 "ik_chain.Bip01_L_Finger22" 53
57 "ik_parent.Bip01_L_Finger22" 56
58 "ValveBiped.Bip01_L_Finger22" 55
59 "ik_chain.Bip01_L_Finger3" 38
60 "ik_parent.Bip01_L_Finger3" 59
61 "ValveBiped.Bip01_L_Finger3" 40
62 "ik_chain.Bip01_L_Finger31" 59
63 "ik_parent.Bip01_L_Finger31" 62
64 "ValveBiped.Bip01_L_Finger31" 61
65 "ik_chain.Bip01_L_Finger32" 62
66 "ik_parent.Bip01_L_Finger32" 65
67 "ValveBiped.Bip01_L_Finger32" 64
68 "ik_chain.Bip01_L_Finger4" 38
69 "ik_parent.Bip01_L_Finger4" 68
70 "ValveBiped.Bip01_L_Finger4" 40
71 "ik_chain.Bip01_L_Finger41" 68
72 "ik_parent.Bip01_L_Finger41" 71
73 "ValveBiped.Bip01_L_Finger41" 70
74 "ik_chain.Bip01_L_Finger42" 71
75 "ik_parent.Bip01_L_Finger42" 74
76 "ValveBiped.Bip01_L_Finger42" 73
77 "ik_chain.Bip01_L_Finger0" 38
78 "ik_parent.Bip01_L_Finger0" 77
79 "ValveBiped.Bip01_L_Finger0" 40
80 "ik_chain.Bip01_L_Finger01" 77
81 "ik_parent.Bip01_L_Finger01" 80
82 "ValveBiped.Bip01_L_Finger01" 79
83 "ik_chain.Bip01_L_Finger02" 80
84 "ik_parent.Bip01_L_Finger02" 83
85 "ValveBiped.Bip01_L_Finger02" 82
86 "ik_enable" -1
end
skeleton
time 0
0  0.000005 3.335938 -8.640624  -1.570780 -1.391896 -1.570809
1  2.033356 1.000772 -1.937610  1.473119 1.855075 -0.198639
2  6.028144 -0.000001 0.000000  1.641066 1.116599 -0.925673
3  11.692553 0.000001 0.000003  0.000000 -0.000000 -1.180669
4  11.481698 -0.000001 0.000001  -1.286801 0.004693 0.534476
5  3.859677 -0.132569 1.193111  0.432210 -0.155861 -0.861350
6  1.312558 -0.000000 0.000001  -0.000000 0.000000 -1.191973
7  0.729366 -0.000002 -0.000000  -0.000000 -0.000000 -1.063394
8  3.942302 0.050324 0.431044  0.232421 0.000609 -0.853331
9  1.539097 -0.000004 -0.000001  0.000000 -0.000000 -0.973399
10  1.196321 0.000008 -0.000002  -0.000000 -0.000000 -1.451290
11  3.883659 -0.050325 -0.431043  0.066987 0.050243 -0.694792
12  1.719575 -0.000000 0.000000  0.000000 -0.000000 -1.251039
13  1.209185 0.000001 -0.000001  0.000000 -0.000003 -1.141145
14  3.859836 -0.148939 -1.331281  -0.248855 0.263129 -0.072121
15  1.719424 0.000004 0.000000  0.000000 0.000000 -0.676757
16  1.099669 0.000000 0.000003  0.000000 0.000000 -1.021287
17  0.806020 -0.359838 -1.318334  1.349685 0.343493 -0.771450
18  1.789783 -0.000002 -0.000006  -0.000000 -0.000000 0.397500
19  1.206998 0.000003 0.000004  0.000001 0.000000 0.989033
20  4.127901 -1.449151 -3.542001  -1.564198 -0.011690 -1.581439
21  3.820738 -1.409993 -0.589407  -1.564198 -0.011689 -1.581440
22  0.222817 -3.739061 1.509297  0.024887 2.851473 -1.494016
23  3.048727 6.125609 1.106842  1.596061 0.018247 -0.808184
24  3.527214 5.063567 0.216260  1.596061 0.018246 -0.808184
25  3.352950 5.114326 -0.401206  1.596061 0.018247 -0.808184
26  2.909482 4.772883 -1.012056  1.596061 0.018247 -0.808184
27  1.772478 4.476571 2.356868  1.596061 0.018247 -0.808184
28  0.000006 3.336140 -8.647861  -1.570799 -1.391898 -1.570795
29  2.033350 1.000764 1.937663  1.227517 0.585911 1.190966
30  2.026190 1.001859 1.937675  1.227511 0.585916 1.190961
31  0.000001 -0.000001 0.000004  1.583265 0.000007 1.570794
32  0.000000 6.028147 -0.000001  -0.592292 -0.409979 -0.676576
33  -0.000001 0.000010 -0.000006  -0.000002 0.000003 1.570792
34  0.000015 6.028144 -0.000012  -0.482535 0.537512 0.632173
35  -0.000001 11.692570 -0.000001  0.000002 -0.000004 -1.242638
36  -0.000001 0.000001 -0.000003  0.000005 0.000000 1.570801
37  11.692572 0.000053 0.000040  0.000006 -0.000003 -1.242629
38  -0.000002 11.481682 -0.000001  0.625887 0.511434 1.159306
39  -0.000000 -0.000001 0.000000  0.000000 -0.000000 1.570789
40  11.481691 -0.000053 0.000006  0.605683 -0.536176 0.819263
41  0.137968 3.859860 1.332473  -1.467697 -1.619902 0.861386
42  -0.000000 0.000001 0.000002  1.933714 0.000004 1.570794
43  3.859866 -0.137941 1.332471  0.357859 -0.048847 -0.606194
44  0.000000 1.719427 0.000000  -0.420610 0.202310 0.066145
45  -0.000000 0.000000 -0.000003  1.743430 0.000000 1.570798
46  1.719433 0.000006 -0.000007  0.000187 -0.009054 -0.438337
47  0.000000 1.099663 -0.000004  1.021788 1.907492 1.049728
48  0.000001 0.000000 -0.000001  -0.000002 0.000003 1.570799
49  1.099667 -0.000000 0.000001  -0.000119 0.002599 -0.290596
50  0.046788 3.883687 0.431449  -0.019603 -1.505153 -0.653676
51  0.000001 -0.000001 0.000000  1.590082 0.000009 1.570787
52  3.883693 -0.046761 0.431447  0.084917 0.001277 -0.673238
53  0.000001 1.719574 -0.000000  -0.719501 0.051523 -0.006475
54  -0.000000 0.000000 0.000000  1.538381 -0.000002 1.570794
55  1.719581 0.000017 -0.000017  -0.003905 0.016376 -0.719029
56  -0.000001 1.209185 0.000002  -1.502573 1.086343 -1.507394
57  -0.000001 -0.000001 -0.000000  -0.000000 -0.000000 1.570805
58  1.209186 -0.000001 -0.000005  -0.000815 0.002972 -0.483392
59  -0.046750 3.942325 -0.431437  -0.321349 -1.473669 -0.667348
60  -0.000001 0.000001 0.000001  1.317660 0.000000 1.570797
61  3.942331 0.046778 -0.431439  -0.160951 0.030635 -0.987276
62  -0.000002 1.539093 0.000002  -0.253853 -0.026494 -0.056799
63  0.000000 -0.000001 0.000002  1.337310 -0.000004 1.570800
64  1.539096 0.000001 0.000001  -0.000022 0.003246 -0.261437
65  -0.000002 1.196321 0.000006  -1.011034 1.119942 -1.057257
66  -0.000000 -0.000000 -0.000000  0.000000 -0.000001 1.570800
67  1.196326 -0.000004 0.000002  -0.000000 0.000003 -0.389290
68  0.142426 3.859705 -1.191969  -0.663806 -1.424438 -0.307138
69  0.000000 0.000001 -0.000001  0.976757 -0.000005 1.570807
70  3.859711 -0.142400 -1.191970  -0.478445 0.089983 -0.965724
71  0.000000 1.312567 -0.000003  -0.359622 -0.138964 -0.204711
72  0.000000 -0.000000 -0.000005  1.078169 0.000003 1.570794
73  1.312571 -0.000016 0.000007  0.000002 -0.002165 -0.435707
74  -0.000000 0.729362 -0.000004  -0.401316 1.031234 -0.459335
75  0.000001 0.000000 0.000000  -0.000001 -0.000001 1.570794
76  0.729365 0.000001 -0.000001  0.000001 -0.000005 -0.229792
77  0.348928 0.806045 1.321258  -1.143896 -2.276990 0.650478
78  0.000000 0.000000 0.000002  0.437032 0.000002 1.570791
79  0.806049 -0.348924 1.321258  -1.473251 -0.631933 -0.381467
80  -0.000000 1.789782 -0.000000  0.105709 0.066359 0.343918
81  -0.000001 0.000001 0.000001  0.347279 0.000000 1.570806
82  1.789789 0.000010 -0.000003  0.002664 0.043760 0.349806
83  0.000000 1.206997 -0.000003  0.184234 0.296069 0.568393
84  -0.000001 0.000000 -0.000000  0.000001 -0.000001 1.570797
85  1.207000 -0.000014 -0.000000  -0.000004 0.000001 0.540833
86  0.000000 0.000000 1.000000  1.570796 -0.000000 0.000000
time 1
0  0.000005 3.335938 -8.640624  -1.570780 -1.391896 -1.570809
1  2.033356 1.000772 -1.937610  1.473119 1.855075 -0.198639
2  6.028144 -0.000001 0.000000  1.644692 1.153614 -0.921946
3  11.692553 0.000001 0.000001  0.000000 -0.000000 -1.093448
4  11.481699 0.000002 0.000001  -1.287764 0.006236 0.358045
5  3.859677 -0.132570 1.193110  0.432210 -0.155861 -0.861350
6  1.312558 0.000002 0.000002  -0.000000 0.000000 -1.191973
7  0.729367 0.000001 -0.000000  -0.000000 -0.000000 -1.063394
8  3.942302 0.050323 0.431043  0.232421 0.000609 -0.853331
9  1.539098 -0.000002 -0.000001  0.000000 0.000000 -0.973399
10  1.196322 0.000006 -0.000001  -0.000000 -0.000000 -1.451290
11  3.883659 -0.050326 -0.431043  0.066987 0.050243 -0.694792
12  1.719577 0.000001 -0.000001  0.000000 -0.000000 -1.251039
13  1.209186 -0.000001 0.000000  0.000000 -0.000003 -1.141145
14  3.859837 -0.148940 -1.331282  -0.248855 0.263129 -0.072121
15  1.719422 0.000004 -0.000001  0.000000 0.000000 -0.676757
16  1.099669 0.000000 0.000002  0.000000 0.000000 -1.021287
17  0.806018 -0.359839 -1.318335  1.349685 0.343493 -0.771450
18  1.789783 -0.000001 -0.000007  -0.000000 -0.000000 0.397500
19  1.206999 0.000001 0.000004  0.000000 0.000000 0.989033
20  4.127902 -1.449151 -3.542003  -1.564198 -0.011690 -1.581439
21  3.820739 -1.409994 -0.589408  -1.564198 -0.011689 -1.581440
22  0.222807 -3.739062 1.509298  0.024887 2.851473 -1.494016
23  3.048727 6.125614 1.106842  1.596061 0.018247 -0.808184
24  3.527214 5.063570 0.216260  1.596061 0.018246 -0.808184
25  3.352950 5.114329 -0.401206  1.596061 0.018247 -0.808184
26  2.909481 4.772883 -1.012055  1.596061 0.018247 -0.808184
27  1.772479 4.476572 2.356869  1.596061 0.018247 -0.808184
28  0.000006 3.336140 -8.647861  -1.570799 -1.391898 -1.570795
29  2.033350 1.000764 1.937663  1.227517 0.585911 1.190966
30  2.026190 1.001859 1.937675  1.227511 0.585916 1.190961
31  0.000001 -0.000001 0.000004  1.583265 0.000007 1.570794
32  0.000000 6.028147 -0.000001  -0.566158 -0.423504 -0.701642
33  -0.000001 0.000010 -0.000006  -0.000002 0.000003 1.570792
34  0.000016 6.028145 -0.000012  -0.490574 0.510949 0.613663
35  -0.000000 11.692570 0.000000  0.000002 -0.000004 -1.165776
36  0.000000 0.000001 -0.000004  0.000005 0.000000 1.570801
37  11.692571 0.000054 0.000042  0.000006 -0.000003 -1.165767
38  0.000000 11.481681 -0.000001  0.736228 0.517884 1.105590
39  -0.000001 0.000002 -0.000001  0.000000 -0.000000 1.570789
40  11.481689 -0.000053 0.000009  0.655483 -0.622957 0.683888
41  0.137967 3.859861 1.332474  -1.466872 -1.619747 0.860959
42  -0.000000 0.000003 -0.000000  1.933714 0.000004 1.570794
43  3.859865 -0.137940 1.332474  0.357835 -0.048689 -0.605788
44  0.000001 1.719431 -0.000000  -0.420738 0.202310 0.066145
45  -0.000002 0.000000 0.000000  1.743430 0.000000 1.570799
46  1.719436 0.000005 -0.000007  0.000188 -0.009076 -0.438463
47  -0.000002 1.099661 -0.000003  1.022050 1.907641 1.050005
48  -0.000001 0.000000 0.000000  -0.000002 0.000003 1.570799
49  1.099663 -0.000001 0.000003  -0.000119 0.002599 -0.290772
50  0.046788 3.883689 0.431452  -0.022478 -1.505151 -0.650302
51  -0.000001 0.000000 -0.000000  1.590082 0.000009 1.570787
52  3.883694 -0.046761 0.431451  0.084915 0.001466 -0.672730
53  -0.000001 1.719575 -0.000000  -0.719764 0.051523 -0.006475
54  0.000001 -0.000000 -0.000003  1.538381 -0.000002 1.570794
55  1.719579 0.000014 -0.000017  -0.003909 0.016383 -0.719292
56  0.000000 1.209184 -0.000003  -1.502613 1.086035 -1.507440
57  -0.000000 0.000001 -0.000001  -0.000000 -0.000000 1.570805
58  1.209185 -0.000004 -0.000003  -0.000815 0.002971 -0.483701
59  -0.046751 3.942328 -0.431434  -0.323089 -1.473587 -0.664834
60  -0.000001 0.000001 -0.000000  1.317660 0.000000 1.570797
61  3.942331 0.046779 -0.431434  -0.160926 0.030821 -0.986493
62  -0.000004 1.539092 0.000003  -0.254390 -0.026494 -0.056799
63  0.000000 -0.000000 -0.000001  1.337310 -0.000004 1.570800
64  1.539095 0.000002 -0.000000  -0.000024 0.003371 -0.261959
65  -0.000003 1.196324 0.000001  -1.011931 1.119248 -1.058254
66  0.000002 -0.000000 0.000001  0.000000 -0.000001 1.570800
67  1.196327 -0.000006 0.000002  -0.000000 0.000003 -0.390110
68  0.142425 3.859708 -1.191966  -0.665035 -1.424162 -0.304927
69  0.000001 0.000000 0.000002  0.976757 -0.000005 1.570807
70  3.859713 -0.142399 -1.191967  -0.478336 0.090294 -0.964721
71  0.000000 1.312565 0.000002  -0.360352 -0.138964 -0.204711
72  0.000001 -0.000000 0.000000  1.078169 0.000003 1.570794
73  1.312569 -0.000015 0.000008  0.000003 -0.001821 -0.436349
74  0.000000 0.729364 0.000000  -0.402648 1.030895 -0.460887
75  0.000001 -0.000000 0.000000  -0.000001 -0.000001 1.570795
76  0.729367 0.000006 0.000000  0.000001 -0.000005 -0.230659
77  0.348927 0.806044 1.321261  -1.143514 -2.276788 0.650400
78  0.000001 -0.000002 0.000001  0.437032 0.000002 1.570791
79  0.806049 -0.348923 1.321261  -1.473385 -0.631632 -0.381176
80  0.000000 1.789783 0.000002  0.105701 0.066372 0.343791
81  0.000001 0.000000 0.000001  0.347279 0.000000 1.570806
82  1.789792 0.000012 -0.000002  0.002659 0.043717 0.349686
83  -0.000001 1.207000 0.000003  0.184177 0.296104 0.568199
84  -0.000001 0.000002 -0.000001  0.000001 -0.000001 1.570797
85  1.207005 -0.000010 0.000006  -0.000003 0.000002 0.540644
86  0.000000 0.000000 1.000000  1.570796 -0.000000 0.000000
time 2
0  0.000005 3.335938 -8.640624  -1.570780 -1.391896 -1.570809
1  2.033356 1.000772 -1.937610  1.473119 1.855075 -0.198639
2  6.028144 -0.000001 0.000000  1.662987 1.252461 -0.902805
3  11.692553 0.000002 0.000003  0.000000 -0.000000 -0.872164
4  11.481698 -0.000003 0.000001  -1.288817 0.007408 0.204100
5  3.859676 -0.132569 1.193109  0.432210 -0.155861 -0.861350
6  1.312555 -0.000005 0.000002  -0.000000 0.000000 -1.191973
7  0.729369 0.000003 0.000001  -0.000000 -0.000000 -1.063394
8  3.942301 0.050325 0.431044  0.232421 0.000609 -0.853331
9  1.539097 -0.000001 -0.000002  0.000000 -0.000000 -0.973399
10  1.196321 0.000006 -0.000000  -0.000000 -0.000000 -1.451290
11  3.883658 -0.050325 -0.431043  0.066987 0.050243 -0.694792
12  1.719575 -0.000000 -0.000001  0.000000 -0.000000 -1.251039
13  1.209184 0.000002 -0.000001  0.000001 -0.000003 -1.141173
14  3.859833 -0.148939 -1.331282  -0.248855 0.263129 -0.072121
15  1.719425 0.000004 -0.000002  0.000000 0.000000 -0.676757
16  1.099667 -0.000000 0.000000  0.000000 0.000000 -1.021287
17  0.806018 -0.359838 -1.318334  1.349685 0.343493 -0.771450
18  1.789784 -0.000002 -0.000008  -0.000000 -0.000000 0.397500
19  1.207000 0.000001 0.000003  0.000000 0.000000 0.989033
20  4.448222 -1.453058 -3.538097  -1.564198 -0.011690 -1.581439
21  3.820738 -1.409993 -0.589408  -1.564198 -0.011689 -1.581440
22  0.222810 -3.739062 1.509300  0.024887 2.851473 -1.494016
23  3.048727 6.125612 1.106840  1.596061 0.018247 -0.808184
24  3.527214 5.063568 0.216259  1.596061 0.018246 -0.808184
25  3.352951 5.114326 -0.401206  1.596061 0.018247 -0.808184
26  2.909482 4.772882 -1.012055  1.596061 0.018247 -0.808184
27  1.772478 4.476569 2.356868  1.596061 0.018247 -0.808184
28  0.000006 3.336140 -8.647861  -1.570799 -1.391898 -1.570795
29  2.033350 1.000764 1.937663  1.227517 0.585911 1.190966
30  2.026190 1.001859 1.937675  1.227511 0.585916 1.190961
31  0.000001 -0.000001 0.000004  1.583265 0.000007 1.570794
32  0.000000 6.028147 -0.000001  -0.511188 -0.454059 -0.766401
33  -0.000000 0.000010 -0.000006  -0.000002 0.000003 1.570792
34  0.000016 6.028144 -0.000011  -0.510194 0.455202 0.563147
35  -0.000000 11.692571 -0.000001  0.000001 -0.000005 -0.985952
36  -0.000000 0.000001 -0.000001  0.000005 0.000000 1.570801
37  11.692572 0.000057 0.000041  0.000005 -0.000002 -0.985943
38  0.000000 11.481682 -0.000000  0.737184 0.515534 0.977736
39  -0.000001 -0.000002 0.000001  0.000000 -0.000000 1.570789
40  11.481688 -0.000054 0.000006  0.653259 -0.624677 0.556861
41  0.137967 3.859854 1.332474  -1.465992 -1.619516 0.860298
42  0.000001 -0.000001 0.000000  1.933714 0.000004 1.570794
43  3.859863 -0.137941 1.332471  0.357816 -0.048454 -0.605573
44  0.000001 1.719429 0.000000  -0.420691 0.202310 0.066145
45  0.000001 0.000003 -0.000001  1.743430 0.000000 1.570798
46  1.719434 0.000006 -0.000007  0.000188 -0.009068 -0.438417
47  -0.000003 1.099667 -0.000000  1.022059 1.907647 1.050014
48  -0.000000 0.000001 0.000001  -0.000002 0.000003 1.570799
49  1.099667 0.000002 0.000000  -0.000119 0.002600 -0.290778
50  0.046788 3.883688 0.431451  -0.026323 -1.505151 -0.646109
51  0.000000 -0.000000 -0.000000  1.590082 0.000009 1.570787
52  3.883694 -0.046762 0.431448  0.084908 0.001718 -0.672371
53  0.000001 1.719574 0.000001  -0.719900 0.051523 -0.006475
54  -0.000002 -0.000000 -0.000002  1.538382 -0.000002 1.570794
55  1.719579 0.000016 -0.000014  -0.003911 0.016388 -0.719428
56  -0.000002 1.209183 0.000000  -1.502635 1.085861 -1.507465
57  -0.000002 -0.000001 0.000001  -0.000000 -0.000000 1.570805
58  1.209186 0.000001 -0.000004  -0.000816 0.002971 -0.483875
59  -0.046751 3.942325 -0.431434  -0.325332 -1.473506 -0.662071
60  0.000001 -0.000001 0.000000  1.317660 0.000000 1.570797
61  3.942332 0.046778 -0.431438  -0.160920 0.031053 -0.985961
62  -0.000001 1.539091 0.000002  -0.254708 -0.026494 -0.056799
63  -0.000002 0.000001 0.000002  1.337310 -0.000004 1.570800
64  1.539097 0.000001 0.000000  -0.000025 0.003444 -0.262269
65  -0.000002 1.196324 0.000003  -1.012472 1.118827 -1.058857
66  0.000002 0.000000 -0.000001  0.000000 -0.000001 1.570800
67  1.196326 -0.000006 0.000004  0.000001 0.000003 -0.390605
68  0.142426 3.859701 -1.191966  -0.666548 -1.423899 -0.302723
69  0.000002 -0.000000 0.000002  0.976757 -0.000005 1.570807
70  3.859709 -0.142401 -1.191970  -0.478265 0.090630 -0.964007
71  0.000000 1.312568 0.000004  -0.360822 -0.138964 -0.204711
72  0.000000 0.000000 0.000000  1.078169 0.000003 1.570794
73  1.312572 -0.000013 0.000007  0.000004 -0.001598 -0.436763
74  0.000001 0.729365 0.000001  -0.403494 1.030678 -0.461873
75  -0.000000 0.000000 -0.000000  -0.000001 -0.000001 1.570795
76  0.729367 0.000004 0.000000  0.000002 -0.000004 -0.231210
77  0.348927 0.806041 1.321260  -1.143165 -2.276534 0.650298
78  -0.000001 -0.000001 0.000001  0.437032 0.000002 1.570791
79  0.806047 -0.348924 1.321258  -1.473465 -0.631298 -0.380965
80  0.000000 1.789782 0.000001  0.105694 0.066384 0.343680
81  -0.000000 0.000001 -0.000001  0.347279 0.000000 1.570806
82  1.789789 0.000008 -0.000002  0.002654 0.043679 0.349582
83  -0.000000 1.207002 -0.000000  0.184119 0.296139 0.567999
84  -0.000000 -0.000001 -0.000000  0.000001 -0.000001 1.570797
85  1.207006 -0.000010 0.000004  -0.000004 0.000002 0.540450
86  0.000000 0.000000 1.000000  1.570796 -0.000000 0.000000
time 3
0  0.000005 3.335938 -8.640624  -1.570780 -1.391896 -1.570809
1  2.033356 1.000772 -1.937610  1.473119 1.855075 -0.198639
2  6.028144 -0.000001 0.000000  1.728913 1.385005 -0.834735
3  11.692552 0.000000 0.000001  -0.000000 -0.000000 -0.591817
4  11.481698 -0.000000 0.000000  -1.288908 0.007490 0.192858
5  3.859678 -0.132569 1.193109  0.432210 -0.155861 -0.861350
6  1.312558 -0.000002 0.000001  -0.000000 0.000000 -1.191996
7  0.729367 -0.000002 0.000000  -0.000000 -0.000000 -1.063394
8  3.942306 0.050324 0.431044  0.232421 0.000609 -0.853331
9  1.539099 -0.000004 -0.000001  0.000000 0.000000 -0.973399
10  1.196320 0.000007 -0.000000  -0.000000 -0.000000 -1.451290
11  3.883662 -0.050325 -0.431044  0.066987 0.050243 -0.694792
12  1.719575 -0.000001 -0.000001  0.000000 -0.000000 -1.251039
13  1.209184 0.000005 -0.000001  0.000000 -0.000003 -1.141145
14  3.859837 -0.148939 -1.331282  -0.248855 0.263129 -0.072121
15  1.719424 0.000004 0.000000  0.000000 0.000000 -0.676757
16  1.099668 0.000003 0.000002  0.000000 0.000000 -1.021287
17  0.806021 -0.359838 -1.318335  1.349685 0.343493 -0.771450
18  1.789783 -0.000002 -0.000007  -0.000000 -0.000000 0.397500
19  1.206999 0.000002 0.000003  0.000000 0.000000 0.989033
20  6.104525 -1.468681 -3.530285  -1.564198 -0.011690 -1.581439
21  3.820741 -1.409993 -0.589409  -1.564198 -0.011689 -1.581440
22  0.222814 -3.739063 1.509298  0.024887 2.851473 -1.494016
23  3.048727 6.125613 1.106839  1.596061 0.018247 -0.808184
24  3.527214 5.063570 0.216258  1.596061 0.018246 -0.808184
25  3.352950 5.114329 -0.401208  1.596061 0.018247 -0.808184
26  2.909482 4.772885 -1.012057  1.596061 0.018247 -0.808184
27  1.772479 4.476570 2.356867  1.596061 0.018247 -0.808184
28  0.000006 3.336140 -8.647861  -1.570799 -1.391898 -1.570795
29  2.033350 1.000764 1.937663  1.227517 0.585911 1.190966
30  2.026190 1.001859 1.937675  1.227511 0.585916 1.190961
31  0.000001 -0.000001 0.000004  1.583265 0.000007 1.570794
32  0.000000 6.028147 -0.000001  -0.451300 -0.487137 -0.850027
33  0.000001 0.000010 -0.000006  -0.000002 0.000003 1.570792
34  0.000017 6.028144 -0.000011  -0.532036 0.395644 0.497668
35  0.000002 11.692571 0.000000  0.000000 -0.000005 -0.785412
36  0.000000 0.000001 -0.000002  0.000005 0.000000 1.570801
37  11.692572 0.000055 0.000040  0.000005 -0.000002 -0.785403
38  0.000000 11.481684 -0.000000  0.573457 0.501266 0.839260
39  -0.000001 0.000002 0.000001  0.000000 -0.000000 1.570789
40  11.481687 -0.000054 0.000008  0.577985 -0.495862 0.538320
41  0.137967 3.859859 1.332476  -1.465546 -1.619457 0.860139
42  -0.000001 0.000002 0.000000  1.933714 0.000004 1.570794
43  3.859859 -0.137941 1.332474  0.357800 -0.048393 -0.605289
44  -0.000001 1.719429 -0.000000  -0.420920 0.202310 0.066145
45  -0.000001 0.000000 -0.000001  1.743430 0.000000 1.570798
46  1.719433 0.000005 -0.000007  0.000190 -0.009107 -0.438642
47  0.000000 1.099664 -0.000000  1.022403 1.907844 1.050379
48  0.000002 0.000001 0.000002  -0.000002 0.000003 1.570799
49  1.099666 0.000000 0.000002  -0.000120 0.002599 -0.291009
50  0.046788 3.883685 0.431453  -0.027841 -1.505150 -0.644334
51  0.000000 0.000000 0.000001  1.590082 0.000009 1.570787
52  3.883685 -0.046762 0.431451  0.084906 0.001817 -0.672125
53  -0.000001 1.719576 0.000002  -0.720089 0.051523 -0.006475
54  0.000000 0.000000 -0.000001  1.538382 -0.000002 1.570794
55  1.719582 0.000013 -0.000017  -0.003915 0.016393 -0.719617
56  0.000001 1.209184 0.000001  -1.502661 1.085663 -1.507493
57  0.000002 -0.000001 -0.000001  -0.000000 -0.000000 1.570805
58  1.209186 -0.000000 -0.000003  -0.000817 0.002971 -0.484074
59  -0.046751 3.942324 -0.431433  -0.326266 -1.473461 -0.660704
60  -0.000001 0.000000 0.000001  1.317660 0.000000 1.570797
61  3.942324 0.046779 -0.431436  -0.160906 0.031153 -0.985531
62  -0.000001 1.539091 0.000002  -0.255088 -0.026494 -0.056799
63  -0.000000 0.000000 -0.000001  1.337310 -0.000004 1.570800
64  1.539095 0.000001 0.000000  -0.000026 0.003532 -0.262638
65  0.000000 1.196323 0.000002  -1.013064 1.118366 -1.059515
66  0.000000 0.000000 0.000001  0.000000 -0.000001 1.570800
67  1.196327 -0.000004 0.000005  0.000000 0.000003 -0.391148
68  0.142425 3.859703 -1.191966  -0.667261 -1.423744 -0.301478
69  0.000001 -0.000002 0.000002  0.976757 -0.000005 1.570807
70  3.859705 -0.142400 -1.191968  -0.478207 0.090808 -0.963466
71  0.000000 1.312562 0.000001  -0.361320 -0.138963 -0.204711
72  0.000000 0.000000 0.000000  1.078169 0.000003 1.570794
73  1.312570 -0.000017 0.000007  0.000004 -0.001362 -0.437202
74  -0.000000 0.729364 0.000003  -0.404357 1.030457 -0.462880
75  0.000002 -0.000000 0.000001  -0.000001 -0.000001 1.570795
76  0.729368 0.000005 0.000002  0.000002 -0.000004 -0.231773
77  0.348927 0.806044 1.321262  -1.143055 -2.276562 0.650312
78  -0.000001 0.000000 0.000000  0.437032 0.000002 1.570791
79  0.806046 -0.348924 1.321260  -1.473559 -0.631286 -0.380812
80  0.000000 1.789781 -0.000001  0.105698 0.066377 0.343747
81  -0.000000 -0.000001 0.000000  0.347279 0.000000 1.570806
82  1.789786 0.000010 -0.000003  0.002657 0.043702 0.349645
83  -0.000001 1.206997 0.000001  0.184147 0.296122 0.568095
84  -0.000001 0.000001 0.000001  0.000001 -0.000001 1.570797
85  1.207002 -0.000011 0.000004  -0.000004 0.000001 0.540544
86  0.000000 0.000000 1.000000  1.570796 -0.000000 0.000000
time 4
0  0.000005 3.335938 -8.640624  -1.570780 -1.391896 -1.570809
1  2.033356 1.000772 -1.937610  1.473119 1.855075 -0.198639
2  6.028144 -0.000001 0.000000  1.865590 1.468897 -0.696465
3  11.692552 0.000000 0.000002  0.000000 -0.000000 -0.415947
4  11.481696 -0.000000 0.000001  -1.288472 0.007058 0.251866
5  3.859679 -0.132569 1.193108  0.432210 -0.155861 -0.861350
6  1.312557 -0.000002 0.000001  -0.000000 0.000000 -1.191973
7  0.729368 0.000007 0.000000  -0.000000 -0.000000 -1.063394
8  3.942302 0.050324 0.431043  0.232421 0.000609 -0.853331
9  1.539097 -0.000005 -0.000000  0.000000 0.000000 -0.973398
10  1.196322 0.000006 -0.000000  -0.000000 -0.000000 -1.451290
11  3.883660 -0.050325 -0.431044  0.066987 0.050243 -0.694792
12  1.719576 0.000001 0.000001  0.000000 -0.000000 -1.251039
13  1.209185 0.000004 -0.000001  0.000001 -0.000003 -1.141145
14  3.859837 -0.148939 -1.331282  -0.248855 0.263129 -0.072121
15  1.719426 0.000004 0.000000  0.000000 0.000000 -0.676757
16  1.099668 0.000000 0.000001  0.000000 -0.000000 -1.021287
17  0.806020 -0.359838 -1.318335  1.349685 0.343493 -0.771450
18  1.789781 -0.000003 -0.000004  -0.000000 -0.000000 0.397500
19  1.206999 0.000001 0.000005  0.000000 0.000000 0.989033
20  6.104524 -1.468681 -3.530285  -1.564198 -0.011690 -1.581439
21  3.820740 -1.409992 -0.589408  -1.564198 -0.011689 -1.581440
22  0.222814 -3.739061 1.509296  0.024887 2.851473 -1.494016
23  3.048727 6.125610 1.106842  1.596061 0.018247 -0.808184
24  3.527214 5.063566 0.216260  1.596061 0.018246 -0.808184
25  3.352950 5.114326 -0.401206  1.596061 0.018247 -0.808184
26  2.909482 4.772882 -1.012055  1.596061 0.018247 -0.808184
27  1.772479 4.476569 2.356868  1.596061 0.018247 -0.808184
28  0.000006 3.336140 -8.647861  -1.570799 -1.391898 -1.570795
29  2.033350 1.000764 1.937663  1.227517 0.585911 1.190966
30  2.026190 1.001859 1.937675  1.227511 0.585916 1.190961
31  0.000001 -0.000001 0.000004  1.583265 0.000007 1.570794
32  0.000000 6.028147 -0.000001  -0.422516 -0.502513 -0.894285
33  -0.000001 0.000010 -0.000006  -0.000002 0.000003 1.570792
34  0.000017 6.028144 -0.000011  -0.542301 0.367585 0.463257
35  -0.000001 11.692572 0.000000  -0.000000 -0.000005 -0.687700
36  -0.000001 0.000000 -0.000003  0.000005 0.000000 1.570801
37  11.692571 0.000054 0.000043  0.000005 -0.000002 -0.687691
38  -0.000001 11.481682 -0.000000  0.413660 0.488056 0.773980
39  -0.000000 -0.000001 0.000000  0.000000 -0.000000 1.570789
40  11.481684 -0.000053 0.000008  0.525429 -0.362945 0.570961
41  0.137967 3.859857 1.332473  -1.465498 -1.619455 0.860138
42  0.000000 -0.000001 0.000001  1.933714 0.000004 1.570794
43  3.859861 -0.137940 1.332473  0.357798 -0.048391 -0.605236
44  -0.000001 1.719432 0.000003  -0.420955 0.202310 0.066145
45  -0.000000 -0.000001 0.000001  1.743430 0.000000 1.570799
46  1.719437 0.000008 -0.000008  0.000190 -0.009113 -0.438676
47  -0.000000 1.099660 0.000001  1.022456 1.907875 1.050436
48  -0.000001 -0.000000 -0.000001  -0.000002 0.000003 1.570799
49  1.099661 -0.000002 0.000001  -0.000120 0.002600 -0.291045
50  0.046788 3.883684 0.431449  -0.027927 -1.505149 -0.644208
51  0.000000 -0.000001 0.000000  1.590082 0.000009 1.570787
52  3.883689 -0.046761 0.431449  0.084907 0.001823 -0.672073
53  0.000000 1.719573 -0.000001  -0.720126 0.051523 -0.006475
54  -0.000001 -0.000001 0.000003  1.538381 -0.000002 1.570794
55  1.719577 0.000014 -0.000016  -0.003915 0.016395 -0.719653
56  -0.000002 1.209180 -0.000000  -1.502666 1.085623 -1.507500
57  0.000003 -0.000000 0.000000  -0.000000 -0.000000 1.570805
58  1.209184 -0.000005 -0.000004  -0.000816 0.002971 -0.484114
59  -0.046751 3.942326 -0.431437  -0.326329 -1.473455 -0.660561
60  -0.000001 -0.000000 0.000000  1.317660 0.000000 1.570797
61  3.942328 0.046779 -0.431437  -0.160902 0.031161 -0.985445
62  -0.000002 1.539090 0.000001  -0.255157 -0.026494 -0.056799
63  -0.000001 0.000002 0.000003  1.337310 -0.000004 1.570800
64  1.539096 0.000002 0.000000  -0.000026 0.003548 -0.262705
65  -0.000001 1.196323 0.000000  -1.013176 1.118279 -1.059639
66  0.000002 -0.000000 0.000000  0.000000 -0.000001 1.570800
67  1.196325 -0.000009 0.000003  0.000000 0.000003 -0.391251
68  0.142425 3.859704 -1.191968  -0.667318 -1.423723 -0.301321
69  0.000001 0.000000 0.000001  0.976757 -0.000005 1.570807
70  3.859707 -0.142399 -1.191969  -0.478195 0.090828 -0.963361
71  0.000001 1.312569 0.000003  -0.361405 -0.138963 -0.204711
72  0.000000 0.000000 -0.000001  1.078169 0.000003 1.570794
73  1.312573 -0.000013 0.000010  0.000005 -0.001322 -0.437277
74  -0.000001 0.729363 0.000001  -0.404512 1.030417 -0.463061
75  -0.000001 0.000000 -0.000002  -0.000001 -0.000001 1.570795
76  0.729367 0.000007 0.000001  0.000002 -0.000004 -0.231874
77  0.348927 0.806042 1.321259  -1.143025 -2.276555 0.650310
78  -0.000000 0.000000 -0.000001  0.437032 0.000002 1.570791
79  0.806046 -0.348924 1.321259  -1.473574 -0.631270 -0.380782
80  -0.000001 1.789785 -0.000001  0.105697 0.066378 0.343738
81  0.000001 0.000002 0.000001  0.347279 0.000000 1.570806
82  1.789791 0.000010 -0.000001  0.002656 0.043699 0.349636
83  0.000000 1.207003 0.000003  0.184144 0.296124 0.568085
84  0.000000 0.000000 0.000000  0.000001 -0.000001 1.570797
85  1.207004 -0.000010 0.000005  -0.000003 0.000001 0.540534
86  0.000000 0.000000 1.000000  1.570796 -0.000000 0.000000
time 5
0  0.000005 3.335938 -8.640624  -1.570780 -1.391896 -1.570809
1  2.033356 1.000772 -1.937610  1.473119 1.855075 -0.198639
2  6.028144 -0.000001 0.000000  1.921464 1.484460 -0.640300
3  11.692554 0.000002 0.000002  -0.000000 -0.000000 -0.382487
4  11.481697 -0.000001 0.000001  -1.288127 0.006668 0.302887
5  3.859680 -0.132569 1.193111  0.432210 -0.155861 -0.861350
6  1.312558 -0.000001 0.000001  -0.000000 0.000000 -1.191973
7  0.729366 -0.000002 0.000001  -0.000000 0.000000 -1.063394
8  3.942306 0.050325 0.431044  0.232421 0.000609 -0.853331
9  1.539098 -0.000002 0.000000  0.000000 0.000000 -0.973399
10  1.196320 0.000007 -0.000001  -0.000000 -0.000000 -1.451290
11  3.883663 -0.050325 -0.431043  0.066987 0.050243 -0.694792
12  1.719577 0.000002 -0.000001  0.000000 -0.000000 -1.251039
13  1.209185 0.000005 -0.000000  0.000001 -0.000003 -1.141173
14  3.859839 -0.148939 -1.331281  -0.248855 0.263129 -0.072121
15  1.719423 0.000004 0.000001  0.000000 0.000000 -0.676757
16  1.099669 0.000000 0.000001  0.000000 -0.000000 -1.021287
17  0.806023 -0.359838 -1.318334  1.349685 0.343493 -0.771450
18  1.789783 -0.000001 -0.000004  -0.000000 -0.000000 0.397500
19  1.206999 0.000002 0.000005  0.000000 0.000000 0.989033
20  6.104527 -1.468680 -3.530284  -1.564198 -0.011690 -1.581439
21  3.820741 -1.409992 -0.589407  -1.564198 -0.011689 -1.581440
22  0.222821 -3.739061 1.509297  0.024887 2.851473 -1.494016
23  3.048727 6.125611 1.106840  1.596061 0.018247 -0.808184
24  3.527214 5.063567 0.216258  1.596061 0.018246 -0.808183
25  3.352950 5.114326 -0.401207  1.596061 0.018247 -0.808184
26  2.909482 4.772882 -1.012058  1.596061 0.018247 -0.808184
27  1.772479 4.476570 2.356867  1.596061 0.018247 -0.808184
28  0.000006 3.336140 -8.647861  -1.570799 -1.391898 -1.570795
29  2.033350 1.000764 1.937663  1.227517 0.585911 1.190966
30  2.026190 1.001859 1.937675  1.227511 0.585916 1.190961
31  0.000001 -0.000001 0.000004  1.583265 0.000007 1.570794
32  0.000000 6.028147 -0.000001  -0.419758 -0.504388 -0.899337
33  0.000000 0.000009 -0.000006  -0.000002 0.000003 1.570792
34  0.000017 6.028144 -0.000011  -0.543718 0.364827 0.459027
35  0.000001 11.692570 -0.000000  -0.000001 -0.000005 -0.676103
36  0.000000 0.000001 -0.000001  0.000005 0.000000 1.570801
37  11.692571 0.000055 0.000042  0.000005 -0.000002 -0.676094
38  0.000000 11.481683 0.000001  0.344877 0.482844 0.765809
39  -0.000001 -0.000000 0.000001  0.000000 -0.000000 1.570789
40  11.481686 -0.000052 0.000008  0.508224 -0.304091 0.600529
41  0.137968 3.859854 1.332473  -1.465508 -1.619460 0.860151
42  0.000000 0.000001 -0.000000  1.933714 0.000004 1.570794
43  3.859856 -0.137942 1.332475  0.357798 -0.048396 -0.605234
44  0.000001 1.719429 0.000000  -0.420952 0.202310 0.066145
45  -0.000001 0.000001 0.000002  1.743430 0.000000 1.570798
46  1.719434 0.000007 -0.000005  0.000190 -0.009113 -0.438674
47  -0.000002 1.099665 0.000000  1.022454 1.907873 1.050434
48  -0.000000 0.000001 -0.000001  -0.000002 0.000003 1.570799
49  1.099666 -0.000004 0.000001  -0.000120 0.002600 -0.291043
50  0.046788 3.883682 0.431449  -0.027835 -1.505149 -0.644294
51  0.000001 0.000001 0.000000  1.590082 0.000009 1.570787
52  3.883684 -0.046762 0.431451  0.084907 0.001817 -0.672069
53  0.000001 1.719575 -0.000003  -0.720125 0.051523 -0.006475
54  -0.000002 -0.000001 0.000000  1.538381 -0.000002 1.570794
55  1.719577 0.000014 -0.000016  -0.003915 0.016394 -0.719652
56  -0.000002 1.209185 0.000001  -1.502666 1.085623 -1.507500
57  -0.000001 -0.000000 -0.000000  -0.000000 -0.000000 1.570805
58  1.209189 -0.000002 -0.000003  -0.000816 0.002971 -0.484114
59  -0.046750 3.942323 -0.431436  -0.326270 -1.473456 -0.660617
60  -0.000001 0.000001 -0.000002  1.317660 0.000000 1.570797
61  3.942324 0.046778 -0.431436  -0.160902 0.031155 -0.985442
62  -0.000001 1.539092 -0.000003  -0.255155 -0.026494 -0.056799
63  0.000001 -0.000000 0.000000  1.337310 -0.000004 1.570800
64  1.539096 -0.000003 0.000002  -0.000026 0.003548 -0.262704
65  0.000000 1.196326 0.000002  -1.013175 1.118280 -1.059638
66  -0.000003 -0.000000 0.000000  0.000000 -0.000001 1.570800
67  1.196329 -0.000001 0.000003  0.000001 0.000004 -0.391250
68  0.142426 3.859699 -1.191968  -0.667283 -1.423726 -0.301352
69  0.000001 0.000000 0.000002  0.976757 -0.000005 1.570807
70  3.859703 -0.142400 -1.191966  -0.478194 0.090822 -0.963359
71  0.000001 1.312569 0.000002  -0.361402 -0.138964 -0.204711
72  -0.000000 -0.000001 -0.000000  1.078169 0.000003 1.570794
73  1.312573 -0.000014 0.000008  0.000004 -0.001323 -0.437274
74  -0.000000 0.729364 0.000001  -0.404510 1.030418 -0.463058
75  -0.000002 0.000000 0.000000  -0.000001 -0.000001 1.570795
76  0.729369 0.000001 0.000001  0.000001 -0.000004 -0.231872
77  0.348928 0.806041 1.321259  -1.143020 -2.276547 0.650306
78  0.000001 0.000001 -0.000000  0.437032 0.000002 1.570790
79  0.806042 -0.348924 1.321261  -1.473574 -0.631262 -0.380782
80  -0.000000 1.789785 0.000001  0.105697 0.066379 0.343726
81  0.000000 0.000002 -0.000000  0.347279 0.000000 1.570806
82  1.789788 0.000010 -0.000002  0.002656 0.043695 0.349624
83  -0.000001 1.207001 -0.000001  0.184139 0.296127 0.568069
84  -0.000000 0.000002 -0.000000  0.000001 -0.000001 1.570797
85  1.207002 -0.000011 0.000003  -0.000004 0.000001 0.540518
86  0.000000 0.000000 1.000000  1.570796 -0.000000 0.000000
time 6
0  0.000005 3.335938 -8.640624  -1.570780 -1.391896 -1.570809
1  2.033356 1.000772 -1.937610  1.473119 1.855075 -0.198639
2  6.028144 -0.000001 0.000000  1.971053 1.494602 -0.590500
3  11.692553 0.000002 0.000001  -0.000000 -0.000000 -0.360268
4  11.481696 -0.000001 -0.000000  -1.288036 0.006565 0.316286
5  3.859679 -0.132570 1.193109  0.432210 -0.155861 -0.861350
6  1.312558 -0.000001 0.000001  -0.000000 0.000000 -1.191973
7  0.729367 0.000003 0.000000  -0.000000 -0.000000 -1.063394
8  3.942303 0.050323 0.431043  0.232421 0.000609 -0.853331
9  1.539100 -0.000004 -0.000000  0.000000 0.000000 -0.973398
10  1.196320 0.000005 -0.000001  -0.000000 0.000000 -1.451290
11  3.883661 -0.050326 -0.431043  0.066987 0.050243 -0.694792
12  1.719577 -0.000000 -0.000001  0.000000 -0.000000 -1.251039
13  1.209184 0.000003 -0.000001  0.000001 -0.000003 -1.141173
14  3.859838 -0.148940 -1.331282  -0.248855 0.263129 -0.072121
15  1.719423 0.000003 0.000000  0.000000 0.000000 -0.676757
16  1.099665 0.000003 0.000001  0.000000 -0.000000 -1.021287
17  0.806022 -0.359839 -1.318335  1.349685 0.343493 -0.771450
18  1.789783 -0.000002 -0.000005  -0.000000 -0.000000 0.397500
19  1.206998 0.000002 0.000005  0.000001 0.000000 0.989033
20  6.104524 -1.468681 -3.530285  -1.564198 -0.011690 -1.581439
21  3.820739 -1.409994 -0.589409  -1.564198 -0.011689 -1.581440
22  0.222811 -3.739060 1.509297  0.024887 2.851473 -1.494016
23  3.048727 6.125610 1.106841  1.596061 0.018247 -0.808184
24  3.527214 5.063567 0.216259  1.596061 0.018246 -0.808184
25  3.352950 5.114327 -0.401207  1.596061 0.018247 -0.808184
26  2.909481 4.772882 -1.012056  1.596061 0.018247 -0.808184
27  1.772479 4.476569 2.356868  1.596061 0.018247 -0.808184
28  0.000006 3.336140 -8.647861  -1.570799 -1.391898 -1.570795
29  2.033350 1.000764 1.937663  1.227517 0.585911 1.190966
30  2.026190 1.001859 1.937675  1.227511 0.585916 1.190961
31  0.000001 -0.000001 0.000004  1.583265 0.000007 1.570794
32  0.000000 6.028147 -0.000001  -0.417256 -0.505755 -0.903392
33  -0.000000 0.000010 -0.000006  -0.000002 0.000003 1.570791
34  0.000017 6.028144 -0.000011  -0.544654 0.362399 0.455851
35  0.000000 11.692571 -0.000001  -0.000001 -0.000005 -0.667287
36  0.000003 0.000003 -0.000001  0.000005 0.000000 1.570801
37  11.692570 0.000057 0.000042  0.000005 -0.000001 -0.667278
38  0.000003 11.481684 0.000001  0.319429 0.480782 0.760078
39  -0.000000 -0.000000 0.000001  0.000000 -0.000000 1.570789
40  11.481684 -0.000055 0.000008  0.502378 -0.282148 0.608280
41  0.137968 3.859856 1.332475  -1.465516 -1.619461 0.860153
42  -0.000001 -0.000002 0.000002  1.933714 0.000004 1.570794
43  3.859859 -0.137941 1.332472  0.357798 -0.048397 -0.605237
44  -0.000000 1.719425 0.000002  -0.420944 0.202310 0.066145
45  0.000000 0.000001 0.000000  1.743430 0.000000 1.570798
46  1.719431 0.000005 -0.000006  0.000190 -0.009111 -0.438666
47  -0.000001 1.099664 0.000000  1.022445 1.907868 1.050422
48  0.000002 0.000000 -0.000001  -0.000002 0.000003 1.570799
49  1.099665 -0.000002 0.000002  -0.000120 0.002600 -0.291037
50  0.046788 3.883687 0.431451  -0.027794 -1.505149 -0.644332
51  0.000000 0.000001 0.000001  1.590082 0.000009 1.570787
52  3.883690 -0.046761 0.431448  0.084907 0.001814 -0.672068
53  -0.000002 1.719578 0.000005  -0.720124 0.051523 -0.006475
54  0.000001 0.000001 0.000000  1.538382 -0.000002 1.570794
55  1.719580 0.000017 -0.000020  -0.003915 0.016395 -0.719651
56  0.000000 1.209182 -0.000005  -1.502666 1.085623 -1.507500
57  -0.000003 -0.000000 -0.000002  -0.000000 -0.000000 1.570805
58  1.209184 -0.000006 -0.000003  -0.000817 0.002971 -0.484114
59  -0.046750 3.942325 -0.431434  -0.326264 -1.473456 -0.660621
60  -0.000000 0.000000 0.000001  1.317660 0.000000 1.570797
61  3.942327 0.046778 -0.431437  -0.160901 0.031155 -0.985441
62  0.000001 1.539091 0.000000  -0.255152 -0.026494 -0.056799
63  0.000000 0.000001 -0.000002  1.337310 -0.000004 1.570800
64  1.539095 -0.000002 0.000003  -0.000026 0.003547 -0.262701
65  0.000003 1.196323 0.000000  -1.013172 1.118283 -1.059635
66  0.000002 0.000001 -0.000000  0.000000 -0.000001 1.570800
67  1.196326 -0.000004 0.000006  0.000001 0.000004 -0.391247
68  0.142425 3.859703 -1.191966  -0.667262 -1.423728 -0.301372
69  -0.000001 -0.000000 -0.000001  0.976757 -0.000005 1.570807
70  3.859706 -0.142399 -1.191969  -0.478194 0.090818 -0.963358
71  0.000001 1.312567 0.000001  -0.361395 -0.138964 -0.204711
72  -0.000001 0.000001 0.000001  1.078169 0.000003 1.570794
73  1.312571 -0.000013 0.000009  0.000005 -0.001326 -0.437268
74  -0.000001 0.729365 -0.000002  -0.404501 1.030420 -0.463049
75  -0.000002 -0.000000 0.000000  -0.000001 -0.000001 1.570795
76  0.729367 -0.000000 -0.000001  0.000002 -0.000005 -0.231867
77  0.348928 0.806040 1.321260  -1.143014 -2.276540 0.650303
78  -0.000001 -0.000000 0.000000  0.437031 0.000002 1.570791
79  0.806044 -0.348924 1.321258  -1.473573 -0.631253 -0.380781
80  -0.000002 1.789783 0.000000  0.105696 0.066380 0.343716
81  0.000000 0.000000 0.000001  0.347279 0.000000 1.570806
82  1.789787 0.000010 -0.000002  0.002656 0.043691 0.349616
83  0.000001 1.207002 -0.000000  0.184135 0.296129 0.568055
84  -0.000001 -0.000002 -0.000001  0.000001 -0.000001 1.570797
85  1.207005 -0.000013 0.000003  -0.000004 0.000001 0.540505
86  0.000000 0.000000 1.000000  1.570796 -0.000000 0.000000
time 7
0  0.000005 3.335938 -8.640624  -1.570780 -1.391896 -1.570809
1  2.033356 1.000772 -1.937610  1.473119 1.855075 -0.198639
2  6.028144 -0.000001 0.000000  2.017305 1.501986 -0.544136
3  11.692554 0.000003 0.000002  -0.000000 -0.000000 -0.343764
4  11.481697 -0.000001 0.000001  -1.288326 0.006894 0.272987
5  3.859678 -0.132569 1.193109  0.432210 -0.155861 -0.861350
6  1.312556 0.000001 0.000000  -0.000000 0.000000 -1.191973
7  0.729365 0.000004 0.000001  -0.000000 -0.000000 -1.063394
8  3.942303 0.050324 0.431042  0.232421 0.000609 -0.853331
9  1.539099 -0.000001 0.000000  0.000000 0.000000 -0.973398
10  1.196321 0.000007 -0.000000  -0.000000 -0.000000 -1.451290
11  3.883661 -0.050325 -0.431044  0.066987 0.050243 -0.694792
12  1.719576 0.000002 -0.000000  0.000000 -0.000000 -1.251039
13  1.209184 0.000002 -0.000002  0.000001 -0.000003 -1.141145
14  3.859838 -0.148939 -1.331282  -0.248855 0.263129 -0.072121
15  1.719422 0.000003 -0.000001  0.000000 0.000000 -0.676757
16  1.099667 -0.000003 -0.000000  0.000000 -0.000000 -1.021287
17  0.806022 -0.359838 -1.318335  1.349685 0.343493 -0.771450
18  1.789783 -0.000001 -0.000005  -0.000000 -0.000000 0.397500
19  1.206997 0.000002 0.000003  0.000000 0.000000 0.989033
20  6.104524 -1.468681 -3.530285  -1.564198 -0.011690 -1.581439
21  3.820738 -1.409993 -0.589408  -1.564198 -0.011689 -1.581440
22  0.222817 -3.739063 1.509297  0.024887 2.851473 -1.494016
23  3.048727 6.125609 1.106841  1.596061 0.018247 -0.808184
24  3.527214 5.063566 0.216259  1.596061 0.018246 -0.808184
25  3.352950 5.114324 -0.401206  1.596061 0.018247 -0.808184
26  2.909482 4.772880 -1.012056  1.596061 0.018247 -0.808184
27  1.772479 4.476567 2.356868  1.596061 0.018247 -0.808184
28  0.000006 3.336140 -8.647861  -1.570799 -1.391898 -1.570795
29  2.033350 1.000764 1.937663  1.227517 0.585911 1.190966
30  2.026190 1.001859 1.937675  1.227511 0.585916 1.190961
31  0.000001 -0.000001 0.000004  1.583265 0.000007 1.570794
32  0.000000 6.028147 -0.000001  -0.413160 -0.507398 -0.909097
33  -0.000000 0.000009 -0.000005  -0.000002 0.000003 1.570792
34  0.000017 6.028144 -0.000011  -0.545571 0.358553 0.451810
35  0.000001 11.692570 0.000001  -0.000001 -0.000005 -0.655870
36  0.000001 0.000000 -0.000002  0.000005 0.000000 1.570801
37  11.692572 0.000054 0.000043  0.000004 -0.000001 -0.655861
38  0.000001 11.481681 0.000000  0.352802 0.482993 0.753410
39  -0.000001 -0.000001 0.000000  0.000000 -0.000000 1.570789
40  11.481686 -0.000051 0.000008  0.509604 -0.310987 0.584032
41  0.137968 3.859851 1.332474  -1.465492 -1.619449 0.860121
42  0.000000 -0.000001 0.000000  1.933714 0.000004 1.570794
43  3.859853 -0.137942 1.332472  0.357798 -0.048385 -0.605251
44  0.000001 1.719429 0.000002  -0.420917 0.202310 0.066145
45  -0.000001 0.000000 -0.000000  1.743430 0.000000 1.570798
46  1.719432 0.000008 -0.000004  0.000190 -0.009106 -0.438639
47  -0.000001 1.099663 -0.000000  1.022409 1.907848 1.050386
48  0.000001 0.000000 0.000000  -0.000002 0.000003 1.570799
49  1.099665 0.000001 0.000003  -0.000120 0.002600 -0.291012
50  0.046788 3.883682 0.431451  -0.027944 -1.505149 -0.644178
51  -0.000000 -0.000004 0.000000  1.590082 0.000009 1.570787
52  3.883683 -0.046762 0.431449  0.084907 0.001824 -0.672066
53  -0.000001 1.719569 -0.000001  -0.720115 0.051523 -0.006475
54  0.000001 0.000000 0.000002  1.538381 -0.000002 1.570794
55  1.719577 0.000016 -0.000017  -0.003915 0.016394 -0.719642
56  0.000003 1.209180 -0.000003  -1.502665 1.085631 -1.507499
57  0.000001 -0.000001 -0.000001  -0.000000 -0.000000 1.570805
58  1.209183 -0.000009 -0.000001  -0.000816 0.002971 -0.484106
59  -0.046751 3.942321 -0.431434  -0.326331 -1.473455 -0.660558
60  -0.000001 -0.000000 0.000000  1.317660 0.000000 1.570797
61  3.942322 0.046778 -0.431437  -0.160902 0.031161 -0.985446
62  0.000001 1.539089 -0.000001  -0.255137 -0.026494 -0.056799
63  -0.000001 -0.000001 -0.000000  1.337310 -0.000004 1.570800
64  1.539096 0.000000 0.000003  -0.000026 0.003543 -0.262686
65  -0.000001 1.196322 0.000000  -1.013151 1.118299 -1.059612
66  0.000000 -0.000001 0.000000  0.000000 -0.000001 1.570800
67  1.196326 -0.000009 0.000004  0.000000 0.000003 -0.391228
68  0.142426 3.859703 -1.191966  -0.667302 -1.423724 -0.301335
69  0.000000 -0.000003 -0.000003  0.976757 -0.000005 1.570807
70  3.859704 -0.142400 -1.191970  -0.478195 0.090825 -0.963361
71  0.000001 1.312563 -0.000002  -0.361381 -0.138964 -0.204711
72  -0.000000 -0.000001 0.000002  1.078169 0.000003 1.570794
73  1.312571 -0.000012 0.000007  0.000005 -0.001333 -0.437255
74  -0.000000 0.729365 0.000001  -0.404478 1.030426 -0.463022
75  -0.000001 -0.000001 -0.000000  -0.000001 -0.000001 1.570795
76  0.729369 0.000000 -0.000002  0.000002 -0.000004 -0.231852
77  0.348927 0.806041 1.321260  -1.143000 -2.276520 0.650295
78  -0.000001 0.000001 0.000000  0.437032 0.000002 1.570791
79  0.806041 -0.348924 1.321259  -1.473569 -0.631231 -0.380782
80  -0.000002 1.789784 0.000000  0.105695 0.066382 0.343703
81  0.000001 -0.000002 0.000000  0.347279 0.000000 1.570806
82  1.789787 0.000014 -0.000002  0.002655 0.043687 0.349603
83  0.000001 1.206995 -0.000002  0.184129 0.296133 0.568033
84  0.000001 0.000001 -0.000000  0.000001 -0.000001 1.570797
85  1.207002 -0.000012 0.000003  -0.000003 0.000001 0.540483
86  0.000000 0.000000 1.000000  1.570796 -0.000000 0.000000
time 8
0  0.000005 3.335938 -8.640624  -1.570780 -1.391896 -1.570809
1  2.033356 1.000772 -1.937610  1.473119 1.855075 -0.198639
2  6.028144 -0.000001 0.000000  2.058984 1.507408 -0.502369
3  11.692554 0.000002 0.000002  0.000000 0.000000 -0.331395
4  11.481698 -0.000002 0.000000  -1.288617 0.007202 0.232438
5  3.859678 -0.132570 1.193110  0.432210 -0.155861 -0.861350
6  1.312557 -0.000002 0.000002  -0.000000 0.000000 -1.191973
7  0.729366 0.000001 0.000001  -0.000000 -0.000000 -1.063394
8  3.942304 0.050324 0.431044  0.232421 0.000609 -0.853331
9  1.539097 -0.000006 0.000000  0.000000 0.000000 -0.973399
10  1.196321 0.000007 -0.000000  -0.000000 -0.000000 -1.451290
11  3.883660 -0.050326 -0.431043  0.066987 0.050243 -0.694792
12  1.719578 0.000001 -0.000000  0.000000 -0.000000 -1.251039
13  1.209185 0.000001 -0.000001  0.000000 -0.000003 -1.141145
14  3.859837 -0.148939 -1.331281  -0.248855 0.263129 -0.072121
15  1.719426 0.000004 0.000000  0.000000 0.000000 -0.676757
16  1.099665 0.000000 0.000000  0.000000 0.000000 -1.021287
17  0.806019 -0.359839 -1.318334  1.349685 0.343493 -0.771450
18  1.789783 -0.000002 -0.000006  -0.000000 -0.000000 0.397500
19  1.206998 0.000001 0.000004  0.000000 0.000000 0.989033
20  6.104525 -1.468681 -3.530284  -1.564198 -0.011690 -1.581439
21  3.820738 -1.409993 -0.589408  -1.564198 -0.011689 -1.581440
22  0.222815 -3.739062 1.509297  0.024887 2.851473 -1.494016
23  3.048727 6.125616 1.106839  1.596061 0.018247 -0.808184
24  3.527214 5.063571 0.216258  1.596061 0.018246 -0.808184
25  3.352950 5.114331 -0.401208  1.596061 0.018247 -0.808184
26  2.909482 4.772886 -1.012058  1.596061 0.018247 -0.808184
27  1.772478 4.476574 2.356866  1.596061 0.018247 -0.808184
28  0.000006 3.336140 -8.647861  -1.570799 -1.391898 -1.570795
29  2.033350 1.000764 1.937663  1.227517 0.585911 1.190966
30  2.026190 1.001859 1.937675  1.227511 0.585916 1.190961
31  0.000001 -0.000001 0.000004  1.583265 0.000007 1.570794
32  0.000000 6.028147 -0.000001  -0.409760 -0.508691 -0.913755
33  -0.000001 0.000010 -0.000006  -0.000002 0.000003 1.570791
34  0.000017 6.028144 -0.000011  -0.546263 0.355379 0.448564
35  -0.000000 11.692571 0.000000  -0.000001 -0.000005 -0.646698
36  -0.000001 0.000000 -0.000001  0.000005 0.000000 1.570801
37  11.692570 0.000053 0.000042  0.000004 -0.000001 -0.646689
38  -0.000001 11.481680 0.000000  0.385805 0.485195 0.748210
39  -0.000001 -0.000002 0.000000  0.000000 -0.000000 1.570789
40  11.481683 -0.000053 0.000007  0.517357 -0.339345 0.560994
41  0.137967 3.859856 1.332474  -1.465470 -1.619439 0.860088
42  0.000001 -0.000001 -0.000001  1.933714 0.000004 1.570794
43  3.859858 -0.137941 1.332475  0.357798 -0.048375 -0.605261
44  0.000001 1.719428 -0.000001  -0.420895 0.202310 0.066145
45  -0.000000 0.000000 -0.000000  1.743430 0.000000 1.570798
46  1.719435 0.000008 -0.000005  0.000190 -0.009103 -0.438617
47  -0.000001 1.099663 0.000003  1.022380 1.907832 1.050357
48  -0.000002 -0.000000 0.000001  -0.000002 0.000003 1.570799
49  1.099665 0.000000 0.000001  -0.000120 0.002600 -0.290993
50  0.046789 3.883682 0.431450  -0.028052 -1.505149 -0.644068
51  0.000001 0.000001 -0.000001  1.590082 0.000009 1.570787
52  3.883685 -0.046762 0.431450  0.084906 0.001831 -0.672065
53  0.000002 1.719574 -0.000001  -0.720107 0.051523 -0.006475
54  -0.000001 -0.000000 0.000001  1.538381 -0.000002 1.570794
55  1.719574 0.000013 -0.000015  -0.003915 0.016394 -0.719635
56  -0.000000 1.209181 -0.000001  -1.502665 1.085637 -1.507498
57  -0.000001 -0.000000 0.000000  -0.000000 -0.000000 1.570805
58  1.209185 -0.000005 -0.000002  -0.000816 0.002971 -0.484100
59  -0.046751 3.942324 -0.431434  -0.326397 -1.473454 -0.660495
60  -0.000000 0.000000 -0.000001  1.317660 0.000000 1.570797
61  3.942324 0.046778 -0.431434  -0.160903 0.031168 -0.985449
62  0.000001 1.539089 -0.000001  -0.255124 -0.026494 -0.056799
63  0.000001 0.000000 -0.000000  1.337310 -0.000004 1.570800
64  1.539094 -0.000001 0.000002  -0.000026 0.003540 -0.262673
65  0.000000 1.196322 -0.000000  -1.013134 1.118312 -1.059593
66  -0.000001 0.000000 0.000000  0.000000 -0.000001 1.570800
67  1.196328 -0.000008 0.000003  0.000001 0.000004 -0.391212
68  0.142426 3.859704 -1.191968  -0.667341 -1.423720 -0.301296
69  -0.000001 -0.000000 0.000002  0.976757 -0.000005 1.570807
70  3.859705 -0.142400 -1.191967  -0.478195 0.090832 -0.963361
71  -0.000002 1.312565 0.000001  -0.361372 -0.138964 -0.204711
72  0.000000 -0.000001 -0.000002  1.078169 0.000003 1.570794
73  1.312570 -0.000015 0.000008  0.000005 -0.001338 -0.437248
74  -0.000001 0.729363 0.000001  -0.404464 1.030430 -0.463004
75  -0.000002 0.000001 -0.000001  -0.000001 -0.000001 1.570795
76  0.729366 0.000005 0.000000  0.000001 -0.000004 -0.231843
77  0.348927 0.806042 1.321259  -1.142989 -2.276503 0.650288
78  -0.000001 0.000001 -0.000001  0.437032 0.000002 1.570791
79  0.806044 -0.348924 1.321260  -1.473567 -0.631213 -0.380781
80  0.000000 1.789782 -0.000002  0.105694 0.066383 0.343692
81  0.000001 0.000000 0.000001  0.347279 0.000000 1.570806
82  1.789787 0.000007 -0.000001  0.002655 0.043683 0.349593
83  0.000000 1.206998 0.000001  0.184124 0.296137 0.568015
84  -0.000000 -0.000000 -0.000001  0.000001 -0.000001 1.570797
85  1.207003 -0.000010 0.000004  -0.000004 0.000001 0.540466
86  0.000000 0.000000 1.000000  1.570796 -0.000000 0.000000
time 9
0  0.000005 3.335938 -8.640624  -1.570780 -1.391896 -1.570809
1  2.033356 1.000772 -1.937610  1.473119 1.855075 -0.198639
2  6.028144 -0.000001 0.000000  2.092978 1.511147 -0.468298
3  11.692552 -0.000000 0.000002  0.000000 -0.000000 -0.322636
4  11.481695 -0.000001 0.000001  -1.288762 0.007346 0.210745
5  3.859679 -0.132569 1.193110  0.432210 -0.155861 -0.861350
6  1.312558 0.000000 0.000001  -0.000000 0.000000 -1.191973
7  0.729366 0.000000 0.000001  -0.000000 -0.000000 -1.063394
8  3.942304 0.050325 0.431044  0.232421 0.000609 -0.853331
9  1.539093 -0.000003 -0.000001  0.000000 0.000000 -0.973399
10  1.196320 0.000004 -0.000001  -0.000000 -0.000000 -1.451290
11  3.883661 -0.050325 -0.431043  0.066987 0.050243 -0.694792
12  1.719574 0.000001 -0.000001  0.000000 -0.000000 -1.251039
13  1.209184 0.000004 -0.000001  0.000001 -0.000003 -1.141145
14  3.859837 -0.148939 -1.331281  -0.248855 0.263129 -0.072121
15  1.719422 0.000004 0.000000  0.000000 0.000000 -0.676757
16  1.099664 0.000002 0.000002  0.000000 0.000000 -1.021287
17  0.806021 -0.359838 -1.318334  1.349685 0.343493 -0.771450
18  1.789781 -0.000003 -0.000007  -0.000000 -0.000000 0.397500
19  1.206998 0.000001 0.000002  0.000000 0.000000 0.989033
20  6.104524 -1.468681 -3.530284  -1.564198 -0.011690 -1.581439
21  3.820738 -1.409992 -0.589407  -1.564198 -0.011689 -1.581440
22  0.222805 -3.739060 1.509297  0.024887 2.851473 -1.494016
23  3.048727 6.125611 1.106841  1.596061 0.018247 -0.808184
24  3.527214 5.063568 0.216259  1.596061 0.018246 -0.808184
25  3.352950 5.114327 -0.401207  1.596061 0.018247 -0.808184
26  2.909482 4.772882 -1.012057  1.596061 0.018247 -0.808184
27  1.772479 4.476569 2.356868  1.596061 0.018247 -0.808184
28  0.000006 3.336140 -8.647861  -1.570799 -1.391898 -1.570795
29  2.033350 1.000764 1.937663  1.227517 0.585911 1.190966
30  2.026190 1.001859 1.937675  1.227511 0.585916 1.190961
31  0.000001 -0.000001 0.000004  1.583265 0.000007 1.570794
32  0.000000 6.028147 -0.000001  -0.407710 -0.509515 -0.916654
33  -0.000000 0.000010 -0.000006  -0.000002 0.000003 1.570792
34  0.000017 6.028144 -0.000011  -0.546727 0.353457 0.446503
35  0.000001 11.692571 -0.000001  -0.000001 -0.000005 -0.640936
36  -0.000001 0.000001 -0.000003  0.000005 0.000000 1.570801
37  11.692571 0.000054 0.000043  0.000005 -0.000001 -0.640927
38  -0.000001 11.481680 -0.000001  0.402324 0.486270 0.744948
39  -0.000001 -0.000000 0.000000  0.000000 -0.000000 1.570789
40  11.481683 -0.000056 0.000006  0.521439 -0.353481 0.548634
41  0.137968 3.859857 1.332474  -1.465460 -1.619434 0.860070
42  0.000001 -0.000001 0.000000  1.933714 0.000004 1.570794
43  3.859861 -0.137941 1.332474  0.357798 -0.048370 -0.605267
44  -0.000000 1.719426 0.000002  -0.420885 0.202310 0.066145
45  0.000001 0.000002 -0.000001  1.743430 0.000000 1.570798
46  1.719433 0.000006 -0.000006  0.000190 -0.009101 -0.438608
47  -0.000000 1.099661 -0.000004  1.022369 1.907825 1.050343
48  0.000003 0.000000 -0.000001  -0.000002 0.000003 1.570799
49  1.099664 -0.000001 0.000002  -0.000120 0.002600 -0.290986
50  0.046788 3.883686 0.431450  -0.028123 -1.505149 -0.643996
51  0.000001 0.000003 0.000000  1.590082 0.000009 1.570787
52  3.883689 -0.046761 0.431450  0.084906 0.001836 -0.672064
53  0.000001 1.719580 0.000000  -0.720103 0.051523 -0.006475
54  0.000001 0.000000 0.000002  1.538381 -0.000002 1.570794
55  1.719580 0.000015 -0.000016  -0.003915 0.016394 -0.719631
56  0.000001 1.209180 0.000001  -1.502664 1.085641 -1.507497
57  -0.000000 0.000000 -0.000001  -0.000000 -0.000000 1.570805
58  1.209184 -0.000002 -0.000004  -0.000816 0.002971 -0.484097
59  -0.046751 3.942322 -0.431435  -0.326434 -1.473453 -0.660460
60  -0.000000 -0.000000 0.000000  1.317660 0.000000 1.570797
61  3.942325 0.046779 -0.431436  -0.160904 0.031171 -0.985452
62  0.000000 1.539091 -0.000000  -0.255116 -0.026494 -0.056799
63  0.000001 0.000002 -0.000000  1.337310 -0.000004 1.570800
64  1.539095 0.000002 0.000003  -0.000026 0.003538 -0.262665
65  0.000002 1.196324 0.000000  -1.013122 1.118320 -1.059580
66  -0.000001 -0.000000 0.000000  0.000000 -0.000001 1.570800
67  1.196328 -0.000004 0.000005  0.000001 0.000003 -0.391201
68  0.142426 3.859704 -1.191967  -0.667364 -1.423718 -0.301276
69  -0.000001 0.000001 -0.000000  0.976757 -0.000005 1.570807
70  3.859707 -0.142400 -1.191968  -0.478196 0.090836 -0.963364
71  -0.000001 1.312567 -0.000002  -0.361362 -0.138963 -0.204711
72  0.000001 -0.000001 0.000003  1.078169 0.000003 1.570794
73  1.312571 -0.000017 0.000008  0.000004 -0.001342 -0.437239
74  -0.000001 0.729361 0.000002  -0.404447 1.030434 -0.462985
75  0.000001 -0.000000 -0.000000  -0.000001 -0.000001 1.570795
76  0.729366 0.000005 -0.000001  0.000001 -0.000004 -0.231832
77  0.348927 0.806043 1.321260  -1.142980 -2.276489 0.650282
78  -0.000000 -0.000001 0.000000  0.437032 0.000002 1.570791
79  0.806047 -0.348924 1.321260  -1.473564 -0.631199 -0.380782
80  -0.000001 1.789782 0.000001  0.105694 0.066384 0.343682
81  0.000000 -0.000001 -0.000001  0.347279 0.000000 1.570806
82  1.789787 0.000012 -0.000001  0.002654 0.043680 0.349584
83  0.000001 1.207000 -0.000002  0.184119 0.296140 0.567999
84  -0.000000 -0.000001 0.000001  0.000001 -0.000001 1.570797
85  1.207005 -0.000012 0.000004  -0.000004 0.000001 0.540450
86  0.000000 0.000000 1.000000  1.570796 -0.000000 0.000000
time 10
0  0.000005 3.335938 -8.640624  -1.570780 -1.391896 -1.570809
1  2.033356 1.000772 -1.937610  1.473119 1.855075 -0.198639
2  6.028144 -0.000001 0.000000  2.114837 1.513297 -0.446374
3  11.692554 0.000001 0.000002  -0.000000 -0.000000 -0.317560
4  11.481698 -0.000001 0.000001  -1.288835 0.007428 0.201108
5  3.859676 -0.132569 1.193110  0.432210 -0.155861 -0.861350
6  1.312554 -0.000003 0.000001  -0.000000 0.000000 -1.191973
7  0.729364 0.000005 0.000001  -0.000000 0.000000 -1.063394
8  3.942303 0.050324 0.431043  0.232421 0.000609 -0.853331
9  1.539097 -0.000005 -0.000000  0.000000 -0.000000 -0.973399
10  1.196321 0.000007 -0.000000  -0.000000 0.000000 -1.451290
11  3.883659 -0.050326 -0.431044  0.066987 0.050243 -0.694792
12  1.719574 -0.000003 0.000000  0.000000 -0.000000 -1.251039
13  1.209184 0.000002 -0.000000  0.000001 -0.000003 -1.141145
14  3.859836 -0.148939 -1.331281  -0.248855 0.263129 -0.072121
15  1.719425 0.000002 -0.000002  0.000000 0.000000 -0.676757
16  1.099669 0.000001 0.000001  0.000000 0.000000 -1.021287
17  0.806020 -0.359838 -1.318334  1.349685 0.343493 -0.771450
18  1.789784 -0.000001 -0.000005  -0.000000 -0.000000 0.397500
19  1.207001 0.000001 0.000004  0.000000 0.000000 0.989033
20  6.104523 -1.468682 -3.530284  -1.564198 -0.011690 -1.581439
21  3.820738 -1.409993 -0.589408  -1.564198 -0.011689 -1.581440
22  0.222830 -3.739061 1.509297  0.024887 2.851473 -1.494016
23  3.048727 6.125610 1.106842  1.596061 0.018247 -0.808184
24  3.527215 5.063569 0.216260  1.596061 0.018246 -0.808184
25  3.352950 5.114326 -0.401205  1.596061 0.018247 -0.808184
26  2.909482 4.772883 -1.012056  1.596061 0.018247 -0.808184
27  1.772478 4.476572 2.356868  1.596061 0.018247 -0.808184
28  0.000006 3.336140 -8.647861  -1.570799 -1.391898 -1.570795
29  2.033350 1.000764 1.937663  1.227517 0.585911 1.190966
30  2.026190 1.001859 1.937675  1.227511 0.585916 1.190961
31  0.000001 -0.000001 0.000004  1.583265 0.000007 1.570794
32  0.000000 6.028147 -0.000001  -0.406640 -0.509944 -0.918170
33  -0.000001 0.000009 -0.000006  -0.000002 0.000003 1.570792
34  0.000017 6.028144 -0.000011  -0.546970 0.352455 0.445424
35  0.000000 11.692572 -0.000001  -0.000001 -0.000005 -0.637917
36  0.000001 0.000001 -0.000001  0.000005 0.000000 1.570801
37  11.692571 0.000055 0.000042  0.000004 -0.000001 -0.637908
38  0.000002 11.481682 -0.000000  0.409009 0.486668 0.743182
39  -0.000001 0.000001 -0.000000  0.000000 -0.000000 1.570789
40  11.481684 -0.000056 0.000007  0.523097 -0.359196 0.543164
41  0.137967 3.859857 1.332474  -1.465452 -1.619431 0.860061
42  0.000000 0.000000 0.000001  1.933714 0.000004 1.570794
43  3.859859 -0.137940 1.332474  0.357798 -0.048367 -0.605269
44  -0.000000 1.719432 0.000002  -0.420878 0.202310 0.066145
45  0.000001 -0.000001 -0.000000  1.743430 0.000000 1.570799
46  1.719435 0.000008 -0.000006  0.000189 -0.009100 -0.438601
47  -0.000001 1.099661 0.000001  1.022360 1.907819 1.050334
48  0.000000 0.000000 0.000000  -0.000002 0.000003 1.570799
49  1.099664 0.000004 0.000001  -0.000119 0.002600 -0.290980
50  0.046788 3.883685 0.431452  -0.028163 -1.505149 -0.643957
51  0.000000 -0.000001 0.000000  1.590082 0.000009 1.570787
52  3.883685 -0.046761 0.431451  0.084906 0.001839 -0.672064
53  -0.000001 1.719573 0.000001  -0.720100 0.051524 -0.006475
54  -0.000001 0.000000 0.000003  1.538381 -0.000002 1.570794
55  1.719578 0.000017 -0.000017  -0.003915 0.016393 -0.719628
56  -0.000000 1.209185 0.000004  -1.502664 1.085643 -1.507497
57  -0.000003 -0.000000 -0.000001  -0.000000 -0.000000 1.570805
58  1.209188 0.000001 -0.000001  -0.000816 0.002971 -0.484094
59  -0.046751 3.942325 -0.431435  -0.326452 -1.473452 -0.660441
60  0.000001 -0.000001 0.000000  1.317660 0.000000 1.570797
61  3.942326 0.046779 -0.431436  -0.160904 0.031173 -0.985452
62  0.000002 1.539090 -0.000001  -0.255115 -0.026494 -0.056799
63  -0.000001 0.000000 0.000000  1.337310 -0.000004 1.570800
64  1.539096 -0.000003 0.000002  -0.000026 0.003538 -0.262664
65  0.000000 1.196322 0.000001  -1.013120 1.118322 -1.059578
66  -0.000001 0.000001 0.000002  0.000000 -0.000001 1.570800
67  1.196327 -0.000005 0.000005  0.000001 0.000004 -0.391199
68  0.142426 3.859704 -1.191967  -0.667375 -1.423717 -0.301265
69  0.000000 -0.000002 0.000001  0.976757 -0.000005 1.570807
70  3.859706 -0.142399 -1.191968  -0.478196 0.090838 -0.963364
71  0.000000 1.312564 0.000003  -0.361360 -0.138963 -0.204711
72  0.000001 0.000000 -0.000003  1.078169 0.000003 1.570794
73  1.312572 -0.000011 0.000009  0.000005 -0.001343 -0.437237
74  -0.000001 0.729364 0.000002  -0.404444 1.030435 -0.462982
75  -0.000002 -0.000000 -0.000001  -0.000001 -0.000001 1.570795
76  0.729366 0.000006 -0.000001  0.000002 -0.000004 -0.231829
77  0.348927 0.806042 1.321260  -1.142977 -2.276486 0.650280
78  -0.000000 -0.000002 0.000001  0.437032 0.000002 1.570790
79  0.806044 -0.348924 1.321260  -1.473564 -0.631194 -0.380781
80  -0.000001 1.789782 0.000001  0.105693 0.066384 0.343680
81  0.000000 -0.000002 0.000002  0.347279 0.000000 1.570806
82  1.789790 0.000011 -0.000002  0.002654 0.043679 0.349581
83  0.000000 1.206998 0.000002  0.184118 0.296140 0.567995
84  0.000000 -0.000000 0.000000  0.000001 -0.000001 1.570797
85  1.207001 -0.000011 0.000005  -0.000003 0.000001 0.540446
86  0.000000 0.000000 1.000000  1.570796 -0.000000 0.000000
time 11
0  0.000005 3.335938 -8.640624  -1.570780 -1.391896 -1.570809
1  2.033356 1.000772 -1.937610  1.473119 1.855075 -0.198639
2  6.028144 -0.000001 0.000000  2.118874 1.513671 -0.442333
3  11.692553 0.000001 0.000003  0.000000 0.000000 -0.316658
4  11.481697 -0.000001 0.000001  -1.288835 0.007428 0.200690
5  3.859678 -0.132570 1.193109  0.432210 -0.155861 -0.861350
6  1.312556 0.000000 0.000002  -0.000000 0.000000 -1.191973
7  0.729366 0.000002 -0.000000  -0.000000 -0.000000 -1.063394
8  3.942302 0.050324 0.431043  0.232421 0.000609 -0.853331
9  1.539101 -0.000004 0.000000  0.000000 0.000000 -0.973399
10  1.196321 0.000009 0.000000  -0.000000 0.000000 -1.451290
11  3.883660 -0.050325 -0.431044  0.066987 0.050243 -0.694792
12  1.719576 -0.000000 0.000000  0.000000 -0.000000 -1.251039
13  1.209184 0.000004 -0.000000  0.000000 -0.000003 -1.141145
14  3.859836 -0.148939 -1.331282  -0.248855 0.263129 -0.072121
15  1.719425 0.000003 -0.000001  0.000000 0.000000 -0.676757
16  1.099666 0.000001 -0.000000  0.000000 0.000000 -1.021287
17  0.806021 -0.359838 -1.318334  1.349685 0.343493 -0.771450
18  1.789782 -0.000003 -0.000007  -0.000000 -0.000000 0.397500
19  1.206998 0.000001 0.000004  0.000000 0.000000 0.989033
20  6.104525 -1.468681 -3.530285  -1.564198 -0.011690 -1.581439
21  3.820739 -1.409993 -0.589408  -1.564198 -0.011689 -1.581440
22  0.222811 -3.739062 1.509297  0.024887 2.851473 -1.494016
23  3.048727 6.125612 1.106841  1.596061 0.018247 -0.808184
24  3.527213 5.063571 0.216259  1.596061 0.018246 -0.808184
25  3.352950 5.114329 -0.401207  1.596061 0.018247 -0.808184
26  2.909481 4.772883 -1.012056  1.596061 0.018247 -0.808184
27  1.772479 4.476570 2.356867  1.596061 0.018247 -0.808184
28  0.000006 3.336140 -8.647861  -1.570799 -1.391898 -1.570795
29  2.033350 1.000764 1.937663  1.227517 0.585911 1.190966
30  2.026190 1.001859 1.937675  1.227511 0.585916 1.190961
31  0.000001 -0.000001 0.000004  1.583265 0.000007 1.570794
32  0.000000 6.028147 -0.000001  -0.406515 -0.510007 -0.918370
33  -0.000000 0.000010 -0.000005  -0.000002 0.000003 1.570791
34  0.000017 6.028144 -0.000011  -0.547012 0.352335 0.445272
35  0.000001 11.692570 0.000000  -0.000001 -0.000005 -0.637504
36  -0.000001 0.000002 -0.000002  0.000005 0.000000 1.570801
37  11.692571 0.000053 0.000042  0.000005 -0.000001 -0.637496
38  -0.000002 11.481681 -0.000001  0.408930 0.486661 0.742935
39  -0.000001 0.000001 -0.000000  0.000000 -0.000000 1.570789
40  11.481685 -0.000053 0.000008  0.523074 -0.359129 0.542962
41  0.137967 3.859858 1.332473  -1.465457 -1.619429 0.860057
42  0.000000 -0.000001 0.000000  1.933714 0.000004 1.570794
43  3.859858 -0.137941 1.332473  0.357799 -0.048365 -0.605273
44  -0.000000 1.719426 -0.000001  -0.420872 0.202310 0.066145
45  0.000000 0.000001 0.000003  1.743430 0.000000 1.570798
46  1.719432 0.000005 -0.000008  0.000190 -0.009099 -0.438595
47  0.000001 1.099661 0.000003  1.022351 1.907815 1.050325
48  0.000001 0.000001 -0.000001  -0.000002 0.000003 1.570799
49  1.099665 0.000000 0.000002  -0.000120 0.002600 -0.290974
50  0.046788 3.883687 0.431449  -0.028163 -1.505149 -0.643961
51  0.000001 -0.000002 0.000000  1.590082 0.000009 1.570787
52  3.883689 -0.046762 0.431449  0.084907 0.001839 -0.672064
53  0.000003 1.719572 -0.000001  -0.720100 0.051523 -0.006475
54  0.000000 0.000001 0.000001  1.538381 -0.000002 1.570794
55  1.719579 0.000015 -0.000014  -0.003915 0.016393 -0.719628
56  0.000001 1.209182 0.000003  -1.502663 1.085643 -1.507497
57  -0.000001 0.000000 0.000000  -0.000000 -0.000000 1.570805
58  1.209184 -0.000002 -0.000002  -0.000816 0.002971 -0.484094
59  -0.046751 3.942327 -0.431436  -0.326461 -1.473453 -0.660439
60  0.000001 0.000000 -0.000000  1.317660 0.000000 1.570797
61  3.942326 0.046778 -0.431436  -0.160904 0.031174 -0.985454
62  0.000000 1.539092 0.000002  -0.255109 -0.026494 -0.056799
63  -0.000001 -0.000000 -0.000000  1.337310 -0.000004 1.570800
64  1.539096 0.000002 0.000002  -0.000026 0.003536 -0.262659
65  -0.000002 1.196322 -0.000001  -1.013114 1.118327 -1.059570
66  -0.000001 0.000001 0.000000  0.000000 -0.000001 1.570800
67  1.196327 -0.000006 0.000003  0.000000 0.000003 -0.391194
68  0.142425 3.859704 -1.191968  -0.667373 -1.423718 -0.301271
69  0.000000 0.000001 0.000002  0.976757 -0.000005 1.570807
70  3.859705 -0.142400 -1.191968  -0.478196 0.090837 -0.963367
71  -0.000001 1.312568 0.000002  -0.361356 -0.138963 -0.204711
72  -0.000001 0.000000 -0.000000  1.078169 0.000003 1.570794
73  1.312571 -0.000011 0.000007  0.000005 -0.001345 -0.437233
74  -0.000000 0.729363 -0.000002  -0.404438 1.030436 -0.462973
75  0.000001 -0.000000 0.000001  -0.000001 -0.000001 1.570795
76  0.729366 -0.000001 0.000001  0.000001 -0.000005 -0.231826
77  0.348927 0.806043 1.321258  -1.142978 -2.276485 0.650281
78  -0.000001 -0.000001 -0.000000  0.437032 0.000002 1.570790
79  0.806045 -0.348924 1.321259  -1.473563 -0.631194 -0.380782
80  -0.000002 1.789781 0.000000  0.105694 0.066384 0.343680
81  0.000000 0.000002 0.000001  0.347279 0.000000 1.570806
82  1.789786 0.000012 -0.000001  0.002654 0.043679 0.349582
83  0.000000 1.207001 -0.000001  0.184117 0.296140 0.567995
84  0.000000 -0.000001 -0.000000  0.000001 -0.000001 1.570797
85  1.207005 -0.000012 0.000002  -0.000003 0.000001 0.540446
86  0.000000 0.000000 1.000000  1.570796 -0.000000 0.000000
time 12
0  0.000005 3.335938 -8.640624  -1.570780 -1.391896 -1.570809
1  2.033356 1.000772 -1.937610  1.473119 1.855075 -0.198639
2  6.028144 -0.000001 0.000000  2.118874 1.513671 -0.442333
3  11.692553 0.000001 0.000003  0.000000 0.000000 -0.316658
4  11.481697 -0.000001 0.000001  -1.288835 0.007428 0.200690
5  3.859678 -0.132570 1.193109  0.432210 -0.155861 -0.861350
6  1.312556 0.000000 0.000002  -0.000000 0.000000 -1.191973
7  0.729366 0.000002 -0.000000  -0.000000 -0.000000 -1.063394
8  3.942302 0.050324 0.431043  0.232421 0.000609 -0.853331
9  1.539101 -0.000004 0.000000  0.000000 0.000000 -0.973399
10  1.196321 0.000009 0.000000  -0.000000 0.000000 -1.451290
11  3.883660 -0.050325 -0.431044  0.066987 0.050243 -0.694792
12  1.719576 -0.000000 0.000000  0.000000 -0.000000 -1.251039
13  1.209184 0.000004 -0.000000  0.000000 -0.000003 -1.141145
14  3.859836 -0.148939 -1.331282  -0.248855 0.263129 -0.072121
15  1.719425 0.000003 -0.000001  0.000000 0.000000 -0.676757
16  1.099666 0.000001 -0.000000  0.000000 0.000000 -1.021287
17  0.806021 -0.359838 -1.318334  1.349685 0.343493 -0.771450
18  1.789782 -0.000003 -0.000007  -0.000000 -0.000000 0.397500
19  1.206998 0.000001 0.000004  0.000000 0.000000 0.989033
20  6.104525 -1.468681 -3.530285  -1.564198 -0.011690 -1.581439
21  3.820739 -1.409993 -0.589408  -1.564198 -0.011689 -1.581440
22  0.222811 -3.739062 1.509297  0.024887 2.851473 -1.494016
23  3.048727 6.125612 1.106841  1.596061 0.018247 -0.808184
24  3.527213 5.063571 0.216259  1.596061 0.018246 -0.808184
25  3.352950 5.114329 -0.401207  1.596061 0.018247 -0.808184
26  2.909481 4.772883 -1.012056  1.596061 0.018247 -0.808184
27  1.772479 4.476570 2.356867  1.596061 0.018247 -0.808184
28  0.000006 3.336140 -8.647861  -1.570799 -1.391898 -1.570795
29  2.033350 1.000764 1.937663  1.227517 0.585911 1.190966
30  2.026190 1.001859 1.937675  1.227511 0.585916 1.190961
31  0.000001 -0.000001 0.000004  1.583265 0.000007 1.570794
32  0.000000 6.028147 -0.000001  -0.406515 -0.510007 -0.918370
33  -0.000000 0.000010 -0.000005  -0.000002 0.000003 1.570791
34  0.000017 6.028144 -0.000011  -0.547012 0.352335 0.445272
35  0.000001 11.692570 0.000000  -0.000001 -0.000005 -0.637504
36  -0.000001 0.000002 -0.000002  0.000005 0.000000 1.570801
37  11.692571 0.000053 0.000042  0.000005 -0.000001 -0.637496
38  -0.000002 11.481681 -0.000001  0.408930 0.486661 0.742935
39  -0.000001 0.000001 -0.000000  0.000000 -0.000000 1.570789
40  11.481685 -0.000053 0.000008  0.523074 -0.359129 0.542962
41  0.137967 3.859858 1.332473  -1.465457 -1.619429 0.860057
42  0.000000 -0.000001 0.000000  1.933714 0.000004 1.570794
43  3.859858 -0.137941 1.332473  0.357799 -0.048365 -0.605273
44  -0.000000 1.719426 -0.000001  -0.420872 0.202310 0.066145
45  0.000000 0.000001 0.000003  1.743430 0.000000 1.570798
46  1.719432 0.000005 -0.000008  0.000190 -0.009099 -0.438595
47  0.000001 1.099661 0.000003  1.022351 1.907815 1.050325
48  0.000001 0.000001 -0.000001  -0.000002 0.000003 1.570799
49  1.099665 0.000000 0.000002  -0.000120 0.002600 -0.290974
50  0.046788 3.883687 0.431449  -0.028163 -1.505149 -0.643961
51  0.000001 -0.000002 0.000000  1.590082 0.000009 1.570787
52  3.883689 -0.046762 0.431449  0.084907 0.001839 -0.672064
53  0.000003 1.719572 -0.000001  -0.720100 0.051523 -0.006475
54  0.000000 0.000001 0.000001  1.538381 -0.000002 1.570794
55  1.719579 0.000015 -0.000014  -0.003915 0.016393 -0.719628
56  0.000001 1.209182 0.000003  -1.502663 1.085643 -1.507497
57  -0.000001 0.000000 0.000000  -0.000000 -0.000000 1.570805
58  1.209184 -0.000002 -0.000002  -0.000816 0.002971 -0.484094
59  -0.046751 3.942327 -0.431436  -0.326461 -1.473453 -0.660439
60  0.000001 0.000000 -0.000000  1.317660 0.000000 1.570797
61  3.942326 0.046778 -0.431436  -0.160904 0.031174 -0.985454
62  0.000000 1.539092 0.000002  -0.255109 -0.026494 -0.056799
63  -0.000001 -0.000000 -0.000000  1.337310 -0.000004 1.570800
64  1.539096 0.000002 0.000002  -0.000026 0.003536 -0.262659
65  -0.000002 1.196322 -0.000001  -1.013114 1.118327 -1.059570
66  -0.000001 0.000001 0.000000  0.000000 -0.000001 1.570800
67  1.196327 -0.000006 0.000003  0.000000 0.000003 -0.391194
68  0.142425 3.859704 -1.191968  -0.667373 -1.423718 -0.301271
69  0.000000 0.000001 0.000002  0.976757 -0.000005 1.570807
70  3.859705 -0.142400 -1.191968  -0.478196 0.090837 -0.963367
71  -0.000001 1.312568 0.000002  -0.361356 -0.138963 -0.204711
72  -0.000001 0.000000 -0.000000  1.078169 0.000003 1.570794
73  1.312571 -0.000011 0.000007  0.000005 -0.001345 -0.437233
74  -0.000000 0.729363 -0.000002  -0.404438 1.030436 -0.462973
75  0.000001 -0.000000 0.000001  -0.000001 -0.000001 1.570795
76  0.729366 -0.000001 0.000001  0.000001 -0.000005 -0.231826
77  0.348927 0.806043 1.321258  -1.142978 -2.276485 0.650281
78  -0.000001 -0.000001 -0.000000  0.437032 0.000002 1.570790
79  0.806045 -0.348924 1.321259  -1.473563 -0.631194 -0.380782
80  -0.000002 1.789781 0.000000  0.105694 0.066384 0.343680
81  0.000000 0.000002 0.000001  0.347279 0.000000 1.570806
82  1.789786 0.000012 -0.000001  0.002654 0.043679 0.349582
83  0.000000 1.207001 -0.000001  0.184117 0.296140 0.567995
84  0.000000 -0.000001 -0.000000  0.000001 -0.000001 1.570797
85  1.207005 -0.000012 0.000002  -0.000003 0.000001 0.540446
86  0.000000 0.000000 1.000000  1.570796 -0.000000 0.000000
end
