version 1
nodes
0 "ValveBiped.Bip01_Spine4" -1
1 "ValveBiped.Bip01_R_Clavicle" 0
2 "ValveBiped.Bip01_R_UpperArm" 1
3 "ValveBiped.Bip01_R_Forearm" 2
4 "ValveBiped.Bip01_R_Hand" 3
5 "ValveBiped.Bip01_R_Finger4" 4
6 "ValveBiped.Bip01_R_Finger41" 5
7 "ValveBiped.Bip01_R_Finger42" 6
8 "ValveBiped.Bip01_R_Finger3" 4
9 "ValveBiped.Bip01_R_Finger31" 8
10 "ValveBiped.Bip01_R_Finger32" 9
11 "ValveBiped.Bip01_R_Finger2" 4
12 "ValveBiped.Bip01_R_Finger21" 11
13 "ValveBiped.Bip01_R_Finger22" 12
14 "ValveBiped.Bip01_R_Finger1" 4
15 "ValveBiped.Bip01_R_Finger11" 14
16 "ValveBiped.Bip01_R_Finger12" 15
17 "ValveBiped.Bip01_R_Finger0" 4
18 "ValveBiped.Bip01_R_Finger01" 17
19 "ValveBiped.Bip01_R_Finger02" 18
20 "ValveBiped.square" 4
21 "ValveBiped.clip" 4
22 "ik_target.Bip01_L_Hand" 4
23 "ik_target.Bip01_L_Finger1_tip" 22
24 "ik_target.Bip01_L_Finger2_tip" 22
25 "ik_target.Bip01_L_Finger3_tip" 22
26 "ik_target.Bip01_L_Finger4_tip" 22
27 "ik_target.Bip01_L_Finger0_tip" 22
28 "ik_chain.Bip01_Spine4" -1
29 "ik_chain.Bip01_L_Clavicle" 28
30 "ValveBiped.Bip01_L_Clavicle" 0
31 "ik_parent.Bip01_L_Clavicle" 29
32 "ik_chain.Bip01_L_UpperArm" 29
33 "ik_parent.Bip01_L_UpperArm" 32
34 "ValveBiped.Bip01_L_UpperArm" 30
35 "ik_chain.Bip01_L_Forearm" 32
36 "ik_parent.Bip01_L_Forearm" 35
37 "ValveBiped.Bip01_L_Forearm" 34
38 "ik_chain.Bip01_L_Hand" 35
39 "ik_parent.Bip01_L_Hand" 38
40 "ValveBiped.Bip01_L_Hand" 37
41 "ik_chain.Bip01_L_Finger1" 38
42 "ik_parent.Bip01_L_Finger1" 41
43 "ValveBiped.Bip01_L_Finger1" 40
44 "ik_chain.Bip01_L_Finger11" 41
45 "ik_parent.Bip01_L_Finger11" 44
46 "ValveBiped.Bip01_L_Finger11" 43
47 "ik_chain.Bip01_L_Finger12" 44
48 "ik_parent.Bip01_L_Finger12" 47
49 "ValveBiped.Bip01_L_Finger12" 46
50 "ik_chain.Bip01_L_Finger2" 38
51 "ik_parent.Bip01_L_Finger2" 50
52 "ValveBiped.Bip01_L_Finger2" 40
53 "ik_chain.Bip01_L_Finger21" 50
54 "ik_parent.Bip01_L_Finger21" 53
55 "ValveBiped.Bip01_L_Finger21" 52
56 "ik_chain.Bip01_L_Finger22" 53
57 "ik_parent.Bip01_L_Finger22" 56
58 "ValveBiped.Bip01_L_Finger22" 55
59 "ik_chain.Bip01_L_Finger3" 38
60 "ik_parent.Bip01_L_Finger3" 59
61 "ValveBiped.Bip01_L_Finger3" 40
62 "ik_chain.Bip01_L_Finger31" 59
63 "ik_parent.Bip01_L_Finger31" 62
64 "ValveBiped.Bip01_L_Finger31" 61
65 "ik_chain.Bip01_L_Finger32" 62
66 "ik_parent.Bip01_L_Finger32" 65
67 "ValveBiped.Bip01_L_Finger32" 64
68 "ik_chain.Bip01_L_Finger4" 38
69 "ik_parent.Bip01_L_Finger4" 68
70 "ValveBiped.Bip01_L_Finger4" 40
71 "ik_chain.Bip01_L_Finger41" 68
72 "ik_parent.Bip01_L_Finger41" 71
73 "ValveBiped.Bip01_L_Finger41" 70
74 "ik_chain.Bip01_L_Finger42" 71
75 "ik_parent.Bip01_L_Finger42" 74
76 "ValveBiped.Bip01_L_Finger42" 73
77 "ik_chain.Bip01_L_Finger0" 38
78 "ik_parent.Bip01_L_Finger0" 77
79 "ValveBiped.Bip01_L_Finger0" 40
80 "ik_chain.Bip01_L_Finger01" 77
81 "ik_parent.Bip01_L_Finger01" 80
82 "ValveBiped.Bip01_L_Finger01" 79
83 "ik_chain.Bip01_L_Finger02" 80
84 "ik_parent.Bip01_L_Finger02" 83
85 "ValveBiped.Bip01_L_Finger02" 82
86 "ik_enable" -1
end
skeleton
time 0
0  0.000005 3.335938 -8.640624  -1.570780 -1.391896 -1.570809
1  2.033356 1.000772 -1.937610  1.473119 1.855075 -0.198639
2  6.028145 -0.000002 0.000000  2.118875 1.513671 -0.442333
3  11.692554 0.000001 0.000004  0.000000 0.000000 -0.316658
4  11.481697 0.000000 0.000001  -1.288831 0.007417 0.200699
5  3.859677 -0.132569 1.193110  0.432210 -0.155861 -0.861350
6  1.312554 -0.000005 0.000000  -0.000000 0.000000 -1.191994
7  0.729363 0.000004 -0.000004  -0.000000 -0.000000 -1.063394
8  3.942306 0.050328 0.431045  0.232421 0.000609 -0.853331
9  1.539100 -0.000004 -0.000001  -0.000000 -0.000000 -0.973379
10  1.196319 0.000007 -0.000000  0.000000 0.000000 -1.451289
11  3.883663 -0.050320 -0.431042  0.066987 0.050243 -0.694792
12  1.719577 0.000004 -0.000000  -0.000000 0.000000 -1.251039
13  1.209185 0.000003 0.000000  -0.000000 -0.000003 -1.141145
14  3.859836 -0.148937 -1.331281  -0.248855 0.263129 -0.072121
15  1.719424 0.000000 -0.000002  -0.000000 0.000000 -0.676756
16  1.099668 0.000004 -0.000002  -0.000000 0.000000 -1.021287
17  0.806022 -0.359837 -1.318334  1.349685 0.343493 -0.771450
18  1.789785 0.000002 -0.000006  0.000000 -0.000000 0.397500
19  1.206999 0.000006 -0.000002  -0.000000 0.000000 0.989033
20  6.104522 -1.468680 -3.530283  -1.564198 -0.011689 -1.581440
21  3.820740 -1.409994 -0.589410  -1.564198 -0.011689 -1.581440
22  0.222818 -3.739061 1.509297  0.024887 2.851473 -1.494016
23  3.048727 6.125608 1.106842  1.596061 0.018247 -0.808184
24  3.527214 5.063566 0.216260  1.596061 0.018246 -0.808184
25  3.352950 5.114326 -0.401206  1.596061 0.018247 -0.808184
26  2.909482 4.772881 -1.012056  1.596061 0.018247 -0.808184
27  1.772479 4.476567 2.356869  1.596061 0.018247 -0.808184
28  0.000006 3.336140 -8.647861  -1.570799 -1.391898 -1.570795
29  2.033350 1.000764 1.937663  1.227517 0.585911 1.190966
30  2.026190 1.001859 1.937675  1.227511 0.585916 1.190961
31  0.000001 -0.000001 0.000004  1.583265 0.000007 1.570794
32  0.000000 6.028147 -0.000001  -0.406517 -0.510005 -0.918365
33  -0.000001 0.000010 -0.000006  -0.000002 0.000003 1.570791
34  0.000017 6.028144 -0.000011  -0.547011 0.352337 0.445276
35  -0.000001 11.692572 -0.000001  -0.000001 -0.000005 -0.637515
36  -0.000003 0.000001 -0.000003  0.000005 0.000000 1.570801
37  11.692578 0.000055 0.000041  0.000004 -0.000001 -0.637506
38  -0.000003 11.481682 0.000000  0.408927 0.486660 0.742954
39  -0.000000 0.000001 0.000001  0.000000 -0.000000 1.570789
40  11.481679 -0.000056 0.000008  0.523073 -0.359126 0.542984
41  0.137968 3.859858 1.332474  -1.465452 -1.619429 0.860061
42  0.000001 -0.000001 -0.000001  1.933714 0.000004 1.570794
43  3.859859 -0.137942 1.332473  0.357799 -0.048365 -0.605273
44  0.000001 1.719427 0.000001  -0.420873 0.202310 0.066145
45  0.000001 0.000001 -0.000001  1.743430 0.000000 1.570798
46  1.719434 0.000008 -0.000006  0.000189 -0.009099 -0.438596
47  0.000000 1.099664 -0.000001  1.022353 1.907815 1.050326
48  -0.000001 0.000000 -0.000001  -0.000002 0.000003 1.570799
49  1.099667 0.000003 0.000002  -0.000119 0.002600 -0.290975
50  0.046789 3.883687 0.431451  -0.028156 -1.505149 -0.643967
51  -0.000001 0.000001 -0.000001  1.590082 0.000009 1.570787
52  3.883688 -0.046762 0.431449  0.084906 0.001838 -0.672065
53  0.000000 1.719580 0.000002  -0.720099 0.051523 -0.006475
54  0.000001 -0.000001 0.000001  1.538381 -0.000002 1.570794
55  1.719582 0.000016 -0.000015  -0.003915 0.016394 -0.719626
56  0.000002 1.209181 -0.000004  -1.502663 1.085644 -1.507497
57  -0.000000 0.000000 0.000000  -0.000000 -0.000000 1.570805
58  1.209186 -0.000005 -0.000001  -0.000816 0.002971 -0.484093
59  -0.046751 3.942325 -0.431435  -0.326451 -1.473453 -0.660450
60  -0.000000 0.000000 -0.000002  1.317660 0.000000 1.570797
61  3.942324 0.046778 -0.431438  -0.160904 0.031173 -0.985456
62  -0.000001 1.539088 -0.000002  -0.255110 -0.026494 -0.056799
63  0.000000 0.000000 0.000001  1.337310 -0.000004 1.570800
64  1.539094 -0.000003 0.000001  -0.000026 0.003537 -0.262660
65  0.000000 1.196323 -0.000000  -1.013115 1.118327 -1.059571
66  -0.000001 0.000000 -0.000000  0.000000 -0.000001 1.570800
67  1.196326 -0.000004 0.000004  0.000001 0.000003 -0.391194
68  0.142425 3.859704 -1.191967  -0.667375 -1.423717 -0.301270
69  -0.000000 0.000000 -0.000001  0.976757 -0.000005 1.570807
70  3.859705 -0.142400 -1.191970  -0.478197 0.090838 -0.963367
71  -0.000001 1.312566 -0.000000  -0.361354 -0.138964 -0.204711
72  -0.000000 -0.000001 0.000001  1.078169 0.000003 1.570794
73  1.312568 -0.000014 0.000007  0.000004 -0.001346 -0.437232
74  -0.000000 0.729361 -0.000002  -0.404434 1.030437 -0.462970
75  0.000001 -0.000001 0.000000  -0.000001 -0.000001 1.570794
76  0.729366 -0.000002 -0.000001  0.000002 -0.000004 -0.231824
77  0.348928 0.806045 1.321259  -1.142978 -2.276487 0.650281
78  -0.000000 0.000001 -0.000000  0.437032 0.000002 1.570790
79  0.806047 -0.348924 1.321260  -1.473563 -0.631197 -0.380782
80  -0.000001 1.789784 -0.000000  0.105694 0.066384 0.343681
81  -0.000000 0.000001 0.000002  0.347279 0.000000 1.570806
82  1.789789 0.000012 -0.000003  0.002654 0.043680 0.349583
83  -0.000001 1.206999 0.000002  0.184118 0.296140 0.567997
84  -0.000000 0.000001 0.000000  0.000001 -0.000001 1.570797
85  1.207003 -0.000010 0.000005  -0.000004 0.000001 0.540448
86  0.000000 0.000000 1.000000  1.570796 -0.000000 0.000000
time 1
0  0.000005 3.335938 -8.640624  -1.570780 -1.391896 -1.570809
1  2.033356 1.000772 -1.937610  1.473119 1.855075 -0.198639
2  6.028145 -0.000002 0.000000  2.118875 1.513671 -0.442333
3  11.692554 0.000001 0.000004  0.000000 0.000000 -0.316658
4  11.481697 0.000000 0.000001  -1.288831 0.007417 0.200699
5  3.859677 -0.132569 1.193110  0.432210 -0.155861 -0.861350
6  1.312554 -0.000005 0.000000  -0.000000 0.000000 -1.191994
7  0.729363 0.000004 -0.000004  -0.000000 -0.000000 -1.063394
8  3.942306 0.050328 0.431045  0.232421 0.000609 -0.853331
9  1.539100 -0.000004 -0.000001  -0.000000 -0.000000 -0.973379
10  1.196319 0.000007 -0.000000  0.000000 0.000000 -1.451289
11  3.883663 -0.050320 -0.431042  0.066987 0.050243 -0.694792
12  1.719577 0.000004 -0.000000  -0.000000 0.000000 -1.251039
13  1.209185 0.000003 0.000000  -0.000000 -0.000003 -1.141145
14  3.859836 -0.148937 -1.331281  -0.248855 0.263129 -0.072121
15  1.719424 0.000000 -0.000002  -0.000000 0.000000 -0.676756
16  1.099668 0.000004 -0.000002  -0.000000 0.000000 -1.021287
17  0.806022 -0.359837 -1.318334  1.349685 0.343493 -0.771450
18  1.789785 0.000002 -0.000006  0.000000 -0.000000 0.397500
19  1.206999 0.000006 -0.000002  -0.000000 0.000000 0.989033
20  6.104522 -1.468680 -3.530283  -1.564198 -0.011689 -1.581440
21  3.820740 -1.409994 -0.589410  -1.564198 -0.011689 -1.581440
22  0.222818 -3.739061 1.509297  0.024887 2.851473 -1.494016
23  3.048727 6.125608 1.106842  1.596061 0.018247 -0.808184
24  3.527214 5.063566 0.216260  1.596061 0.018246 -0.808184
25  3.352950 5.114326 -0.401206  1.596061 0.018247 -0.808184
26  2.909482 4.772881 -1.012056  1.596061 0.018247 -0.808184
27  1.772479 4.476567 2.356869  1.596061 0.018247 -0.808184
28  0.000006 3.336140 -8.647861  -1.570799 -1.391898 -1.570795
29  2.033350 1.000764 1.937663  1.227517 0.585911 1.190966
30  2.026190 1.001859 1.937675  1.227511 0.585916 1.190961
31  0.000001 -0.000001 0.000004  1.583265 0.000007 1.570794
32  0.000000 6.028147 -0.000001  -0.406517 -0.510005 -0.918365
33  -0.000001 0.000010 -0.000006  -0.000002 0.000003 1.570791
34  0.000017 6.028144 -0.000011  -0.547011 0.352337 0.445276
35  -0.000001 11.692572 -0.000001  -0.000001 -0.000005 -0.637515
36  -0.000003 0.000001 -0.000003  0.000005 0.000000 1.570801
37  11.692578 0.000055 0.000041  0.000004 -0.000001 -0.637506
38  -0.000003 11.481682 0.000000  0.408927 0.486660 0.742954
39  -0.000000 0.000001 0.000001  0.000000 -0.000000 1.570789
40  11.481679 -0.000056 0.000008  0.523073 -0.359126 0.542984
41  0.137968 3.859858 1.332474  -1.465452 -1.619429 0.860061
42  0.000001 -0.000001 -0.000001  1.933714 0.000004 1.570794
43  3.859859 -0.137942 1.332473  0.357799 -0.048365 -0.605273
44  0.000001 1.719427 0.000001  -0.420873 0.202310 0.066145
45  0.000001 0.000001 -0.000001  1.743430 0.000000 1.570798
46  1.719434 0.000008 -0.000006  0.000189 -0.009099 -0.438596
47  0.000000 1.099664 -0.000001  1.022353 1.907815 1.050326
48  -0.000001 0.000000 -0.000001  -0.000002 0.000003 1.570799
49  1.099667 0.000003 0.000002  -0.000119 0.002600 -0.290975
50  0.046789 3.883687 0.431451  -0.028156 -1.505149 -0.643967
51  -0.000001 0.000001 -0.000001  1.590082 0.000009 1.570787
52  3.883688 -0.046762 0.431449  0.084906 0.001838 -0.672065
53  0.000000 1.719580 0.000002  -0.720099 0.051523 -0.006475
54  0.000001 -0.000001 0.000001  1.538381 -0.000002 1.570794
55  1.719582 0.000016 -0.000015  -0.003915 0.016394 -0.719626
56  0.000002 1.209181 -0.000004  -1.502663 1.085644 -1.507497
57  -0.000000 0.000000 0.000000  -0.000000 -0.000000 1.570805
58  1.209186 -0.000005 -0.000001  -0.000816 0.002971 -0.484093
59  -0.046751 3.942325 -0.431435  -0.326451 -1.473453 -0.660450
60  -0.000000 0.000000 -0.000002  1.317660 0.000000 1.570797
61  3.942324 0.046778 -0.431438  -0.160904 0.031173 -0.985456
62  -0.000001 1.539088 -0.000002  -0.255110 -0.026494 -0.056799
63  0.000000 0.000000 0.000001  1.337310 -0.000004 1.570800
64  1.539094 -0.000003 0.000001  -0.000026 0.003537 -0.262660
65  0.000000 1.196323 -0.000000  -1.013115 1.118327 -1.059571
66  -0.000001 0.000000 -0.000000  0.000000 -0.000001 1.570800
67  1.196326 -0.000004 0.000004  0.000001 0.000003 -0.391194
68  0.142425 3.859704 -1.191967  -0.667375 -1.423717 -0.301270
69  -0.000000 0.000000 -0.000001  0.976757 -0.000005 1.570807
70  3.859705 -0.142400 -1.191970  -0.478197 0.090838 -0.963367
71  -0.000001 1.312566 -0.000000  -0.361354 -0.138964 -0.204711
72  -0.000000 -0.000001 0.000001  1.078169 0.000003 1.570794
73  1.312568 -0.000014 0.000007  0.000004 -0.001346 -0.437232
74  -0.000000 0.729361 -0.000002  -0.404434 1.030437 -0.462970
75  0.000001 -0.000001 0.000000  -0.000001 -0.000001 1.570794
76  0.729366 -0.000002 -0.000001  0.000002 -0.000004 -0.231824
77  0.348928 0.806045 1.321259  -1.142978 -2.276487 0.650281
78  -0.000000 0.000001 -0.000000  0.437032 0.000002 1.570790
79  0.806047 -0.348924 1.321260  -1.473563 -0.631197 -0.380782
80  -0.000001 1.789784 -0.000000  0.105694 0.066384 0.343681
81  -0.000000 0.000001 0.000002  0.347279 0.000000 1.570806
82  1.789789 0.000012 -0.000003  0.002654 0.043680 0.349583
83  -0.000001 1.206999 0.000002  0.184118 0.296140 0.567997
84  -0.000000 0.000001 0.000000  0.000001 -0.000001 1.570797
85  1.207003 -0.000010 0.000005  -0.000004 0.000001 0.540448
86  0.000000 0.000000 1.000000  1.570796 -0.000000 0.000000
time 2
0  0.000005 3.335938 -8.640624  -1.570780 -1.391896 -1.570809
1  2.033356 1.000772 -1.937610  1.473119 1.855075 -0.198639
2  6.028145 -0.000002 0.000000  1.853764 1.483572 -0.711928
3  11.692554 0.000001 0.000003  0.000000 0.000000 -0.355118
4  11.481697 -0.000001 0.000002  -1.288831 0.007417 0.200699
5  3.859674 -0.132570 1.193110  0.432210 -0.155861 -0.861350
6  1.312555 -0.000008 0.000001  -0.000000 0.000000 -1.191993
7  0.729364 0.000005 -0.000003  -0.000000 -0.000000 -1.063394
8  3.942303 0.050327 0.431045  0.232421 0.000609 -0.853331
9  1.539099 -0.000003 -0.000002  -0.000000 -0.000000 -0.973379
10  1.196320 0.000009 -0.000000  0.000000 0.000000 -1.451289
11  3.883661 -0.050320 -0.431041  0.066987 0.050243 -0.694792
12  1.719579 0.000002 0.000000  -0.000000 0.000000 -1.251039
13  1.209183 0.000003 0.000001  -0.000000 -0.000003 -1.141173
14  3.859836 -0.148938 -1.331281  -0.248855 0.263129 -0.072121
15  1.719424 0.000001 -0.000002  0.000000 -0.000000 -0.676756
16  1.099666 0.000002 -0.000000  -0.000000 -0.000000 -1.021287
17  0.806021 -0.359838 -1.318334  1.349685 0.343493 -0.771450
18  1.789779 0.000000 -0.000005  0.000000 -0.000000 0.397500
19  1.207001 0.000005 -0.000000  -0.000000 0.000000 0.989033
20  6.104523 -1.468680 -3.530283  -1.564198 -0.011689 -1.581440
21  3.820736 -1.409994 -0.589409  -1.564198 -0.011689 -1.581440
22  0.222820 -3.739063 1.509297  0.024887 2.851473 -1.494016
23  3.048727 6.125609 1.106840  1.596061 0.018247 -0.808184
24  3.527215 5.063565 0.216260  1.596061 0.018246 -0.808184
25  3.352951 5.114326 -0.401207  1.596061 0.018247 -0.808184
26  2.909482 4.772881 -1.012057  1.596061 0.018247 -0.808184
27  1.772478 4.476570 2.356868  1.596061 0.018247 -0.808184
28  0.000006 3.336140 -8.647861  -1.570799 -1.391898 -1.570795
29  2.033350 1.000764 1.937663  1.227517 0.585911 1.190966
30  2.026190 1.001859 1.937675  1.227511 0.585916 1.190961
31  0.000001 -0.000001 0.000004  1.583265 0.000007 1.570794
32  0.000000 6.028147 -0.000001  -0.432585 -0.507598 -0.894743
33  -0.000002 0.000009 -0.000005  -0.000002 0.000003 1.570792
34  0.000017 6.028144 -0.000011  -0.549666 0.375095 0.455254
35  -0.000001 11.692570 0.000001  -0.000001 -0.000005 -0.652967
36  -0.000001 0.000001 -0.000002  0.000005 0.000000 1.570801
37  11.692579 0.000052 0.000039  0.000004 -0.000001 -0.652958
38  -0.000001 11.481683 -0.000001  0.432608 0.493659 0.754147
39  0.000000 0.000000 -0.000001  0.000000 -0.000000 1.570789
40  11.481685 -0.000051 0.000008  0.535032 -0.378127 0.538719
41  0.137968 3.859861 1.332473  -1.465414 -1.619464 0.860165
42  0.000000 0.000002 -0.000001  1.933714 0.000004 1.570794
43  3.859860 -0.137940 1.332474  0.357793 -0.048399 -0.605119
44  -0.000000 1.719427 -0.000002  -0.421089 0.202310 0.066145
45  -0.000001 -0.000000 0.000002  1.743430 0.000000 1.570799
46  1.719429 0.000004 -0.000005  0.000191 -0.009136 -0.438808
47  -0.000001 1.099663 0.000002  1.022643 1.907982 1.050633
48  0.000002 0.000000 0.000000  -0.000002 0.000003 1.570799
49  1.099665 0.000002 0.000002  -0.000120 0.002600 -0.291170
50  0.046789 3.883687 0.431449  -0.028105 -1.505149 -0.643958
51  -0.000000 0.000001 -0.000001  1.590082 0.000009 1.570787
52  3.883686 -0.046761 0.431449  0.084907 0.001835 -0.672004
53  0.000003 1.719574 -0.000002  -0.720203 0.051523 -0.006475
54  -0.000000 -0.000000 0.000001  1.538382 -0.000002 1.570794
55  1.719579 0.000017 -0.000014  -0.003916 0.016397 -0.719731
56  -0.000001 1.209183 0.000003  -1.502676 1.085548 -1.507511
57  0.000000 -0.000001 0.000001  -0.000000 -0.000000 1.570805
58  1.209185 -0.000001 -0.000005  -0.000817 0.002971 -0.484190
59  -0.046750 3.942324 -0.431437  -0.326466 -1.473445 -0.660287
60  0.000001 -0.000000 -0.000000  1.317660 0.000000 1.570797
61  3.942324 0.046778 -0.431437  -0.160897 0.031177 -0.985308
62  0.000000 1.539091 -0.000001  -0.255301 -0.026494 -0.056799
63  0.000001 0.000001 -0.000000  1.337310 -0.000004 1.570800
64  1.539095 0.000004 0.000002  -0.000027 0.003582 -0.262845
65  -0.000000 1.196324 0.000002  -1.013394 1.118109 -1.059881
66  0.000000 -0.000000 -0.000000  0.000000 -0.000001 1.570800
67  1.196327 -0.000002 0.000004  0.000001 0.000004 -0.391451
68  0.142427 3.859705 -1.191969  -0.667458 -1.423684 -0.301017
69  0.000001 -0.000000 0.000000  0.976757 -0.000005 1.570807
70  3.859705 -0.142400 -1.191970  -0.478177 0.090868 -0.963196
71  0.000000 1.312562 -0.000001  -0.361588 -0.138964 -0.204711
72  0.000001 -0.000000 0.000000  1.078169 0.000003 1.570794
73  1.312568 -0.000016 0.000006  0.000004 -0.001235 -0.437438
74  0.000001 0.729363 -0.000000  -0.404822 1.030337 -0.463423
75  -0.000002 -0.000000 -0.000001  -0.000001 -0.000001 1.570795
76  0.729366 -0.000000 -0.000001  0.000002 -0.000005 -0.232077
77  0.348928 0.806044 1.321259  -1.143026 -2.276614 0.650334
78  0.000000 -0.000000 0.000003  0.437032 0.000002 1.570791
79  0.806045 -0.348923 1.321260  -1.473611 -0.631321 -0.380736
80  0.000000 1.789784 0.000003  0.105701 0.066372 0.343794
81  0.000001 0.000001 0.000001  0.347279 0.000000 1.570806
82  1.789790 0.000012 -0.000001  0.002659 0.043718 0.349689
83  0.000000 1.207000 -0.000001  0.184169 0.296109 0.568172
84  -0.000000 0.000000 0.000000  0.000001 -0.000001 1.570797
85  1.207005 -0.000011 0.000003  -0.000004 0.000001 0.540619
86  0.000000 0.000000 1.000000  1.570796 -0.000000 0.000000
time 3
0  0.000005 3.335938 -8.640624  -1.570780 -1.391896 -1.570809
1  2.033356 1.000772 -1.937610  1.473119 1.855075 -0.198639
2  6.028145 -0.000002 0.000000  1.624212 1.370237 -0.952170
3  11.692554 0.000000 0.000004  0.000000 0.000000 -0.506250
4  11.481697 -0.000002 0.000002  -1.288831 0.007417 0.200699
5  3.859678 -0.132569 1.193109  0.432210 -0.155861 -0.861350
6  1.312555 -0.000003 -0.000000  -0.000000 0.000000 -1.191994
7  0.729365 0.000003 -0.000003  0.000000 -0.000000 -1.063394
8  3.942306 0.050327 0.431045  0.232421 0.000609 -0.853331
9  1.539098 -0.000005 -0.000002  -0.000000 -0.000000 -0.973379
10  1.196321 0.000006 -0.000001  0.000000 0.000000 -1.451289
11  3.883665 -0.050320 -0.431041  0.066987 0.050243 -0.694792
12  1.719579 0.000004 0.000001  -0.000000 -0.000000 -1.251039
13  1.209185 0.000001 0.000001  -0.000000 -0.000003 -1.141173
14  3.859838 -0.148937 -1.331280  -0.248855 0.263129 -0.072121
15  1.719423 0.000001 -0.000000  0.000000 0.000000 -0.676756
16  1.099665 -0.000001 -0.000001  -0.000000 0.000000 -1.021287
17  0.806023 -0.359838 -1.318334  1.349685 0.343493 -0.771450
18  1.789783 0.000001 -0.000003  0.000000 -0.000000 0.397500
19  1.207003 0.000004 -0.000001  0.000000 0.000000 0.989033
20  6.104524 -1.468680 -3.530283  -1.564198 -0.011689 -1.581440
21  3.820741 -1.409994 -0.589409  -1.564198 -0.011689 -1.581440
22  0.222821 -3.739062 1.509299  0.024887 2.851473 -1.494016
23  3.048726 6.125613 1.106840  1.596061 0.018247 -0.808184
24  3.527214 5.063568 0.216259  1.596061 0.018246 -0.808184
25  3.352950 5.114328 -0.401206  1.596061 0.018247 -0.808184
26  2.909482 4.772882 -1.012056  1.596061 0.018247 -0.808184
27  1.772479 4.476570 2.356868  1.596061 0.018247 -0.808184
28  0.000006 3.336140 -8.647861  -1.570799 -1.391898 -1.570795
29  2.033350 1.000764 1.937663  1.227517 0.585911 1.190966
30  2.026190 1.001859 1.937675  1.227511 0.585916 1.190961
31  0.000001 -0.000001 0.000004  1.583265 0.000007 1.570794
32  0.000000 6.028147 -0.000001  -0.511156 -0.491813 -0.817917
33  0.000001 0.000010 -0.000006  -0.000002 0.000003 1.570792
34  0.000016 6.028143 -0.000012  -0.550820 0.445829 0.493955
35  0.000002 11.692572 -0.000001  -0.000000 -0.000005 -0.728406
36  0.000001 0.000001 -0.000002  0.000005 0.000000 1.570801
37  11.692579 0.000054 0.000039  0.000005 -0.000001 -0.728397
38  0.000001 11.481681 -0.000000  0.524980 0.513728 0.806259
39  -0.000000 -0.000001 -0.000001  0.000000 -0.000000 1.570789
40  11.481682 -0.000053 0.000008  0.577832 -0.451701 0.528952
41  0.137968 3.859855 1.332473  -1.465378 -1.619500 0.860283
42  0.000000 0.000000 0.000001  1.933714 0.000004 1.570794
43  3.859859 -0.137941 1.332475  0.357788 -0.048435 -0.604978
44  0.000002 1.719425 -0.000000  -0.421295 0.202310 0.066145
45  0.000001 -0.000002 0.000001  1.743430 0.000000 1.570798
46  1.719430 0.000005 -0.000005  0.000193 -0.009172 -0.439012
47  0.000002 1.099659 -0.000001  1.022919 1.908140 1.050926
48  -0.000001 0.000000 0.000001  -0.000002 0.000003 1.570799
49  1.099661 -0.000001 0.000004  -0.000121 0.002599 -0.291356
50  0.046789 3.883687 0.431449  -0.027978 -1.505148 -0.644036
51  0.000000 0.000004 0.000001  1.590082 0.000009 1.570787
52  3.883689 -0.046761 0.431450  0.084908 0.001826 -0.671957
53  -0.000000 1.719578 -0.000001  -0.720299 0.051523 -0.006475
54  0.000002 -0.000001 0.000002  1.538381 -0.000002 1.570794
55  1.719576 0.000014 -0.000017  -0.003918 0.016400 -0.719827
56  0.000003 1.209183 0.000002  -1.502687 1.085460 -1.507524
57  0.000004 -0.000001 -0.000002  -0.000000 -0.000000 1.570805
58  1.209185 0.000000 -0.000001  -0.000817 0.002971 -0.484277
59  -0.046750 3.942326 -0.431436  -0.326432 -1.473438 -0.660195
60  -0.000001 0.000001 -0.000002  1.317660 0.000000 1.570797
61  3.942328 0.046779 -0.431436  -0.160890 0.031176 -0.985180
62  0.000000 1.539092 -0.000001  -0.255482 -0.026494 -0.056799
63  0.000000 -0.000001 0.000001  1.337310 -0.000004 1.570800
64  1.539096 0.000001 0.000003  -0.000028 0.003623 -0.263021
65  -0.000000 1.196322 0.000003  -1.013652 1.117908 -1.060168
66  0.000001 0.000000 0.000001  0.000000 -0.000001 1.570800
67  1.196325 -0.000003 0.000003  0.000000 0.000003 -0.391688
68  0.142427 3.859704 -1.191969  -0.667510 -1.423657 -0.300825
69  0.000000 0.000001 -0.000001  0.976757 -0.000005 1.570807
70  3.859705 -0.142400 -1.191970  -0.478160 0.090891 -0.963051
71  -0.000000 1.312569 -0.000002  -0.361799 -0.138963 -0.204711
72  0.000000 0.000002 -0.000001  1.078169 0.000003 1.570794
73  1.312571 -0.000015 0.000008  0.000005 -0.001136 -0.437624
74  -0.000002 0.729366 -0.000003  -0.405169 1.030248 -0.463827
75  0.000001 -0.000000 0.000001  -0.000001 -0.000001 1.570795
76  0.729367 0.000003 -0.000005  0.000001 -0.000004 -0.232304
77  0.348928 0.806043 1.321258  -1.143083 -2.276747 0.650390
78  -0.000000 0.000002 0.000000  0.437032 0.000002 1.570791
79  0.806047 -0.348924 1.321261  -1.473657 -0.631455 -0.380698
80  0.000000 1.789784 0.000002  0.105709 0.066360 0.343911
81  0.000001 -0.000004 -0.000000  0.347279 0.000000 1.570806
82  1.789789 0.000010 0.000001  0.002664 0.043758 0.349800
83  0.000000 1.206995 0.000000  0.184222 0.296076 0.568355
84  -0.000001 0.000001 -0.000001  0.000001 -0.000001 1.570797
85  1.206999 -0.000010 0.000004  -0.000003 0.000001 0.540796
86  0.000000 0.000000 1.000000  1.570796 -0.000000 0.000000
time 4
0  0.000005 3.335938 -8.640624  -1.570780 -1.391896 -1.570809
1  2.033356 1.000772 -1.937610  1.473119 1.855075 -0.198639
2  6.028145 -0.000002 0.000000  1.540382 1.211193 -1.049521
3  11.692555 0.000002 0.000005  0.000000 0.000000 -0.683022
4  11.481697 -0.000002 0.000001  -1.288831 0.007417 0.200699
5  3.859678 -0.132569 1.193110  0.432210 -0.155861 -0.861350
6  1.312555 -0.000005 0.000002  -0.000000 0.000000 -1.191994
7  0.729363 0.000003 -0.000003  -0.000000 -0.000000 -1.063394
8  3.942307 0.050328 0.431046  0.232421 0.000609 -0.853331
9  1.539101 -0.000002 -0.000001  0.000000 -0.000000 -0.973401
10  1.196320 0.000008 0.000000  0.000000 0.000000 -1.451289
11  3.883664 -0.050320 -0.431042  0.066987 0.050243 -0.694792
12  1.719580 0.000004 0.000002  0.000000 0.000000 -1.251039
13  1.209185 0.000001 -0.000001  -0.000000 -0.000003 -1.141145
14  3.859837 -0.148936 -1.331280  -0.248855 0.263129 -0.072121
15  1.719420 0.000000 -0.000002  0.000000 0.000000 -0.676756
16  1.099668 0.000002 -0.000001  -0.000000 0.000000 -1.021287
17  0.806023 -0.359837 -1.318334  1.349685 0.343493 -0.771450
18  1.789784 0.000001 -0.000005  0.000000 -0.000000 0.397500
19  1.207003 0.000004 0.000000  -0.000000 0.000000 0.989033
20  6.104525 -1.468679 -3.530283  -1.564198 -0.011689 -1.581440
21  3.820741 -1.409993 -0.589409  -1.564198 -0.011689 -1.581440
22  0.222818 -3.739060 1.509298  0.024887 2.851473 -1.494016
23  3.048727 6.125609 1.106840  1.596061 0.018247 -0.808184
24  3.527215 5.063567 0.216259  1.596061 0.018246 -0.808184
25  3.352950 5.114326 -0.401207  1.596061 0.018247 -0.808184
26  2.909482 4.772882 -1.012058  1.596061 0.018247 -0.808184
27  1.772479 4.476569 2.356868  1.596061 0.018247 -0.808184
28  0.000006 3.336140 -8.647861  -1.570799 -1.391898 -1.570795
29  2.033350 1.000764 1.937663  1.227517 0.585911 1.190966
30  2.026190 1.001859 1.937675  1.227511 0.585916 1.190961
31  0.000001 -0.000001 0.000004  1.583265 0.000007 1.570794
32  0.000000 6.028147 -0.000001  -0.635726 -0.456537 -0.703991
33  -0.000000 0.000010 -0.000006  -0.000002 0.000003 1.570791
34  0.000016 6.028143 -0.000012  -0.548026 0.562084 0.552285
35  0.000000 11.692572 0.000001  0.000000 -0.000005 -0.833827
36  -0.000001 0.000000 -0.000001  0.000005 0.000000 1.570801
37  11.692582 0.000054 0.000040  0.000005 -0.000002 -0.833819
38  -0.000000 11.481680 0.000000  0.642453 0.540939 0.881801
39  -0.000001 0.000002 -0.000001  0.000000 -0.000000 1.570789
40  11.481685 -0.000054 0.000008  0.643687 -0.539389 0.513969
41  0.137967 3.859859 1.332473  -1.465378 -1.619524 0.860357
42  0.000001 0.000000 -0.000003  1.933714 0.000004 1.570794
43  3.859860 -0.137941 1.332474  0.357786 -0.048459 -0.604896
44  -0.000001 1.719431 -0.000001  -0.421421 0.202310 0.066145
45  0.000002 -0.000001 0.000000  1.743430 0.000000 1.570798
46  1.719434 0.000008 -0.000008  0.000194 -0.009193 -0.439136
47  0.000000 1.099661 0.000004  1.023086 1.908236 1.051102
48  -0.000003 -0.000001 -0.000000  -0.000002 0.000003 1.570799
49  1.099664 0.000001 0.000001  -0.000121 0.002600 -0.291469
50  0.046789 3.883690 0.431449  -0.027866 -1.505147 -0.644126
51  0.000000 0.000000 0.000001  1.590082 0.000009 1.570787
52  3.883691 -0.046762 0.431451  0.084909 0.001819 -0.671933
53  -0.000000 1.719577 0.000001  -0.720354 0.051523 -0.006475
54  0.000000 -0.000000 0.000001  1.538381 -0.000002 1.570794
55  1.719582 0.000016 -0.000017  -0.003919 0.016401 -0.719882
56  -0.000000 1.209181 0.000002  -1.502694 1.085411 -1.507531
57  0.000000 0.000000 0.000000  -0.000000 -0.000000 1.570805
58  1.209183 -0.000001 -0.000004  -0.000817 0.002971 -0.484327
59  -0.046751 3.942328 -0.431436  -0.326385 -1.473436 -0.660174
60  -0.000000 0.000000 -0.000001  1.317660 0.000000 1.570797
61  3.942330 0.046778 -0.431437  -0.160886 0.031172 -0.985112
62  -0.000000 1.539089 -0.000001  -0.255582 -0.026494 -0.056799
63  0.000000 -0.000002 0.000001  1.337310 -0.000004 1.570800
64  1.539093 -0.000000 0.000002  -0.000028 0.003646 -0.263119
65  0.000001 1.196320 0.000001  -1.013797 1.117796 -1.060328
66  0.000000 -0.000000 -0.000001  0.000000 -0.000001 1.570800
67  1.196324 -0.000003 0.000004  0.000000 0.000003 -0.391822
68  0.142426 3.859707 -1.191968  -0.667523 -1.423645 -0.300739
69  0.000001 0.000001 0.000002  0.976757 -0.000005 1.570807
70  3.859707 -0.142400 -1.191970  -0.478152 0.090900 -0.962977
71  0.000000 1.312570 0.000002  -0.361914 -0.138963 -0.204711
72  -0.000001 0.000000 0.000002  1.078169 0.000003 1.570794
73  1.312572 -0.000011 0.000007  0.000005 -0.001081 -0.437726
74  0.000001 0.729363 -0.000000  -0.405359 1.030200 -0.464048
75  0.000000 -0.000001 -0.000001  -0.000001 -0.000001 1.570795
76  0.729366 0.000002 0.000000  0.000001 -0.000005 -0.232427
77  0.348927 0.806045 1.321257  -1.143122 -2.276828 0.650424
78  0.000000 -0.000002 0.000001  0.437032 0.000002 1.570791
79  0.806046 -0.348924 1.321260  -1.473682 -0.631537 -0.380678
80  0.000000 1.789782 0.000001  0.105714 0.066352 0.343982
81  0.000000 0.000001 -0.000000  0.347279 0.000000 1.570806
82  1.789791 0.000011 -0.000001  0.002666 0.043782 0.349867
83  0.000000 1.207001 0.000000  0.184255 0.296056 0.568465
84  -0.000001 -0.000001 0.000000  0.000001 -0.000001 1.570797
85  1.207004 -0.000010 0.000004  -0.000004 0.000001 0.540903
86  0.000000 0.000000 1.000000  1.570796 -0.000000 0.000000
time 5
0  0.000005 3.335938 -8.640624  -1.570780 -1.391896 -1.570809
1  2.033356 1.000772 -1.937610  1.473119 1.855075 -0.198639
2  6.028145 -0.000002 0.000000  1.494418 0.992046 -1.109121
3  11.692554 0.000001 0.000003  0.000000 0.000000 -0.881525
4  11.481696 -0.000001 0.000002  -1.288831 0.007417 0.200699
5  3.859677 -0.132571 1.193110  0.432210 -0.155861 -0.861350
6  1.312556 -0.000006 0.000001  -0.000000 0.000000 -1.191994
7  0.729363 0.000003 -0.000004  -0.000000 -0.000000 -1.063394
8  3.942306 0.050327 0.431045  0.232421 0.000609 -0.853331
9  1.539099 -0.000003 -0.000001  -0.000000 -0.000000 -0.973379
10  1.196318 0.000007 0.000001  0.000000 0.000000 -1.451289
11  3.883665 -0.050321 -0.431041  0.066987 0.050243 -0.694792
12  1.719578 0.000006 0.000000  0.000000 0.000000 -1.251039
13  1.209182 0.000003 -0.000001  -0.000000 -0.000003 -1.141145
14  3.859838 -0.148938 -1.331280  -0.248855 0.263129 -0.072121
15  1.719421 0.000001 0.000001  -0.000000 0.000000 -0.676756
16  1.099668 0.000004 -0.000001  -0.000000 -0.000000 -1.021287
17  0.806023 -0.359838 -1.318333  1.349685 0.343493 -0.771450
18  1.789784 0.000000 -0.000004  0.000000 -0.000000 0.397500
19  1.206999 0.000004 0.000002  0.000000 0.000000 0.989033
20  6.104523 -1.468681 -3.530282  -1.564198 -0.011689 -1.581440
21  3.820739 -1.409995 -0.589408  -1.564198 -0.011689 -1.581440
22  0.222815 -3.739062 1.509296  0.024887 2.851473 -1.494016
23  3.048727 6.125613 1.106841  1.596061 0.018247 -0.808184
24  3.527215 5.063570 0.216260  1.596061 0.018246 -0.808184
25  3.352950 5.114330 -0.401207  1.596061 0.018247 -0.808184
26  2.909483 4.772884 -1.012056  1.596061 0.018247 -0.808184
27  1.772480 4.476572 2.356868  1.596061 0.018247 -0.808184
28  0.000006 3.336140 -8.647861  -1.570799 -1.391898 -1.570795
29  2.033350 1.000764 1.937663  1.227517 0.585911 1.190966
30  2.026190 1.001859 1.937675  1.227511 0.585916 1.190961
31  0.000001 -0.000001 0.000004  1.583265 0.000007 1.570794
32  0.000000 6.028147 -0.000001  -0.816416 -0.381993 -0.555180
33  -0.000001 0.000010 -0.000006  -0.000002 0.000003 1.570791
34  0.000014 6.028143 -0.000013  -0.530511 0.742557 0.637995
35  -0.000000 11.692570 0.000001  0.000001 -0.000005 -0.959186
36  -0.000000 0.000000 -0.000001  0.000005 0.000000 1.570801
37  11.692586 0.000051 0.000040  0.000005 -0.000003 -0.959177
38  0.000000 11.481680 -0.000001  0.787858 0.572796 0.976346
39  -0.000001 0.000003 -0.000000  0.000000 -0.000000 1.570789
40  11.481688 -0.000053 0.000007  0.740660 -0.638138 0.477610
41  0.137967 3.859860 1.332471  -1.465410 -1.619583 0.860539
42  -0.000001 0.000002 -0.000000  1.933714 0.000004 1.570794
43  3.859863 -0.137941 1.332472  0.357781 -0.048517 -0.604741
44  -0.000003 1.719431 0.000002  -0.421652 0.202310 0.066145
45  0.000000 0.000001 -0.000000  1.743430 0.000000 1.570798
46  1.719435 0.000006 -0.000009  0.000197 -0.009233 -0.439364
47  0.000001 1.099663 -0.000004  1.023393 1.908413 1.051427
48  0.000002 0.000000 0.000000  -0.000002 0.000003 1.570799
49  1.099664 -0.000002 0.000004  -0.000121 0.002599 -0.291675
50  0.046788 3.883688 0.431447  -0.027446 -1.505147 -0.644501
51  0.000000 -0.000001 0.000000  1.590082 0.000009 1.570787
52  3.883690 -0.046761 0.431447  0.084912 0.001792 -0.671884
53  -0.000001 1.719577 0.000001  -0.720459 0.051523 -0.006475
54  -0.000003 0.000000 0.000001  1.538381 -0.000002 1.570794
55  1.719584 0.000016 -0.000015  -0.003921 0.016404 -0.719986
56  -0.000003 1.209181 0.000002  -1.502706 1.085315 -1.507545
57  0.000000 -0.000000 0.000000  -0.000000 -0.000000 1.570805
58  1.209181 -0.000003 -0.000003  -0.000818 0.002971 -0.484422
59  -0.046751 3.942330 -0.431438  -0.326174 -1.473434 -0.660259
60  -0.000001 0.000001 0.000000  1.317660 0.000000 1.570797
61  3.942331 0.046778 -0.431440  -0.160877 0.031154 -0.984982
62  -0.000001 1.539089 0.000002  -0.255769 -0.026494 -0.056799
63  0.000001 0.000000 0.000000  1.337310 -0.000004 1.570800
64  1.539093 0.000000 0.000002  -0.000028 0.003689 -0.263301
65  0.000000 1.196323 -0.000001  -1.014065 1.117586 -1.060626
66  0.000000 0.000001 -0.000001  0.000000 -0.000001 1.570800
67  1.196326 -0.000006 0.000001  -0.000000 0.000003 -0.392070
68  0.142426 3.859705 -1.191969  -0.667475 -1.423629 -0.300646
69  -0.000000 0.000001 0.000000  0.976757 -0.000005 1.570807
70  3.859708 -0.142399 -1.191972  -0.478134 0.090904 -0.962833
71  -0.000000 1.312567 -0.000000  -0.362132 -0.138963 -0.204711
72  -0.000001 0.000000 0.000001  1.078169 0.000003 1.570794
73  1.312572 -0.000013 0.000009  0.000006 -0.000978 -0.437918
74  -0.000001 0.729364 0.000001  -0.405719 1.030107 -0.464468
75  -0.000002 -0.000001 0.000001  -0.000001 -0.000001 1.570795
76  0.729365 0.000001 -0.000001  0.000001 -0.000005 -0.232663
77  0.348927 0.806045 1.321257  -1.143192 -2.276980 0.650488
78  -0.000001 0.000000 0.000001  0.437032 0.000002 1.570791
79  0.806046 -0.348923 1.321258  -1.473729 -0.631691 -0.380640
80  -0.000002 1.789784 0.000001  0.105722 0.066339 0.344102
81  0.000001 -0.000001 -0.000000  0.347279 0.000000 1.570806
82  1.789792 0.000010 -0.000003  0.002671 0.043823 0.349981
83  -0.000001 1.206998 0.000000  0.184311 0.296022 0.568657
84  -0.000000 -0.000000 -0.000000  0.000001 -0.000001 1.570797
85  1.207004 -0.000010 0.000003  -0.000003 0.000002 0.541090
86  0.000000 0.000000 1.000000  1.570796 -0.000000 0.000000
time 6
0  0.000005 3.335938 -8.640624  -1.570780 -1.391896 -1.570809
1  2.033356 1.000772 -1.937610  1.473119 1.855075 -0.198639
2  6.028145 -0.000002 0.000000  1.461742 0.677137 -1.147307
3  11.692554 -0.000000 0.000004  0.000000 0.000000 -1.121081
4  11.481697 -0.000002 0.000002  -1.288831 0.007417 0.200699
5  3.859676 -0.132569 1.193108  0.432210 -0.155861 -0.861350
6  1.312555 -0.000001 0.000002  -0.000000 0.000000 -1.191994
7  0.729364 0.000005 -0.000003  -0.000000 -0.000000 -1.063394
8  3.942304 0.050328 0.431045  0.232421 0.000609 -0.853331
9  1.539100 -0.000003 -0.000001  -0.000000 -0.000000 -0.973379
10  1.196319 0.000009 0.000000  0.000000 0.000000 -1.451289
11  3.883663 -0.050320 -0.431043  0.066987 0.050243 -0.694792
12  1.719577 0.000005 -0.000000  -0.000000 0.000000 -1.251039
13  1.209184 0.000001 0.000000  -0.000000 -0.000003 -1.141145
14  3.859836 -0.148937 -1.331281  -0.248855 0.263129 -0.072121
15  1.719423 -0.000001 -0.000000  -0.000000 0.000000 -0.676756
16  1.099667 0.000003 -0.000002  -0.000000 0.000000 -1.021287
17  0.806022 -0.359837 -1.318335  1.349685 0.343493 -0.771450
18  1.789782 -0.000001 -0.000005  0.000000 -0.000000 0.397500
19  1.207001 0.000004 0.000002  0.000000 0.000000 0.989033
20  6.104522 -1.468680 -3.530283  -1.564198 -0.011689 -1.581440
21  3.820739 -1.409994 -0.589411  -1.564198 -0.011689 -1.581440
22  0.222818 -3.739061 1.509297  0.024887 2.851473 -1.494016
23  3.048727 6.125611 1.106843  1.596061 0.018247 -0.808184
24  3.527214 5.063568 0.216260  1.596061 0.018246 -0.808184
25  3.352950 5.114329 -0.401206  1.596061 0.018247 -0.808184
26  2.909482 4.772882 -1.012055  1.596061 0.018247 -0.808184
27  1.772478 4.476572 2.356868  1.596061 0.018247 -0.808184
28  0.000006 3.336140 -8.647861  -1.570799 -1.391898 -1.570795
29  2.033350 1.000764 1.937663  1.227517 0.585911 1.190966
30  2.026190 1.001859 1.937675  1.227511 0.585916 1.190961
31  0.000001 -0.000001 0.000004  1.583265 0.000007 1.570794
32  0.000000 6.028147 -0.000001  -1.061195 -0.229667 -0.384413
33  -0.000001 0.000009 -0.000005  -0.000002 0.000003 1.570792
34  0.000011 6.028142 -0.000013  -0.446917 1.016019 0.799524
35  -0.000001 11.692572 0.000000  0.000001 -0.000004 -1.104493
36  0.000002 -0.000000 -0.000001  0.000005 0.000000 1.570801
37  11.692591 0.000053 0.000039  0.000005 -0.000004 -1.104485
38  0.000002 11.481681 -0.000001  0.978232 0.601876 1.090515
39  -0.000000 -0.000001 0.000001  0.000000 -0.000000 1.570789
40  11.481697 -0.000053 0.000006  0.888134 -0.752878 0.391297
41  0.137968 3.859858 1.332471  -1.465641 -1.619863 0.861391
42  -0.000000 0.000001 0.000000  1.933714 0.000004 1.570794
43  3.859869 -0.137941 1.332473  0.357763 -0.048797 -0.604120
44  -0.000001 1.719429 0.000002  -0.422566 0.202310 0.066145
45  0.000001 0.000001 0.000000  1.743430 0.000000 1.570798
46  1.719435 0.000006 -0.000010  0.000205 -0.009390 -0.440264
47  -0.000001 1.099664 0.000002  1.024604 1.909113 1.052713
48  -0.000002 -0.000000 0.000001  -0.000002 0.000003 1.570799
49  1.099665 0.000001 -0.000001  -0.000124 0.002600 -0.292495
50  0.046789 3.883689 0.431448  -0.024750 -1.505141 -0.646984
51  -0.000000 0.000002 -0.000001  1.590082 0.000009 1.570787
52  3.883699 -0.046761 0.431446  0.084921 0.001615 -0.671674
53  0.000002 1.719574 -0.000000  -0.720881 0.051523 -0.006475
54  -0.000001 0.000001 0.000003  1.538381 -0.000002 1.570794
55  1.719579 0.000015 -0.000016  -0.003927 0.016415 -0.720409
56  -0.000000 1.209183 0.000003  -1.502756 1.084926 -1.507602
57  -0.000001 0.000000 0.000001  -0.000000 -0.000000 1.570805
58  1.209183 -0.000005 0.000000  -0.000819 0.002970 -0.484813
59  -0.046750 3.942326 -0.431437  -0.324815 -1.473438 -0.661083
60  -0.000001 0.000001 -0.000001  1.317660 0.000000 1.570797
61  3.942335 0.046778 -0.431437  -0.160838 0.031027 -0.984451
62  -0.000004 1.539092 0.000000  -0.256508 -0.026494 -0.056799
63  -0.000001 -0.000001 -0.000001  1.337310 -0.000004 1.570800
64  1.539094 0.000003 -0.000001  -0.000031 0.003861 -0.264020
65  -0.000003 1.196320 -0.000002  -1.015135 1.116746 -1.061818
66  0.000000 -0.000000 -0.000000  0.000000 -0.000001 1.570800
67  1.196324 -0.000008 0.000000  0.000000 0.000003 -0.393059
68  0.142427 3.859707 -1.191970  -0.666873 -1.423606 -0.300668
69  -0.000000 -0.000000 -0.000001  0.976757 -0.000005 1.570807
70  3.859717 -0.142400 -1.191972  -0.478061 0.090849 -0.962251
71  -0.000003 1.312568 0.000001  -0.362977 -0.138963 -0.204711
72  -0.000002 0.000000 0.000001  1.078169 0.000003 1.570794
73  1.312574 -0.000012 0.000008  0.000006 -0.000578 -0.438663
74  -0.000003 0.729366 0.000005  -0.407148 1.029737 -0.466135
75  0.000001 0.000000 -0.000001  -0.000001 -0.000001 1.570795
76  0.729367 0.000006 0.000002  0.000001 -0.000005 -0.233598
77  0.348928 0.806048 1.321257  -1.143458 -2.277563 0.650731
78  0.000001 0.000000 0.000000  0.437032 0.000002 1.570791
79  0.806053 -0.348924 1.321259  -1.473918 -0.632279 -0.380488
80  0.000003 1.789783 0.000000  0.105749 0.066296 0.344512
81  -0.000000 0.000000 -0.000000  0.347279 0.000000 1.570806
82  1.789791 0.000007 -0.000001  0.002688 0.043961 0.350368
83  -0.000002 1.206999 0.000001  0.184509 0.295901 0.569337
84  0.000001 -0.000002 -0.000000  0.000001 -0.000001 1.570797
85  1.207004 -0.000011 0.000005  -0.000004 0.000001 0.541752
86  0.000000 0.000000 1.000000  1.570796 -0.000000 0.000000
time 7
0  0.000005 3.335938 -8.640624  -1.570780 -1.391896 -1.570809
1  2.033356 1.000772 -1.937610  1.473119 1.855075 -0.198639
2  6.028145 -0.000002 0.000000  1.429932 0.367041 -1.166254
3  11.692555 0.000003 0.000003  0.000000 0.000000 -1.260709
4  11.481699 -0.000003 0.000002  -1.288831 0.007417 0.200699
5  3.859677 -0.132569 1.193108  0.432210 -0.155861 -0.861350
6  1.312554 -0.000004 0.000003  0.000000 0.000000 -1.191994
7  0.729364 0.000004 -0.000003  -0.000000 -0.000000 -1.063394
8  3.942306 0.050328 0.431042  0.232421 0.000609 -0.853331
9  1.539100 -0.000002 -0.000000  -0.000000 -0.000000 -0.973379
10  1.196319 0.000009 -0.000001  0.000000 0.000000 -1.451289
11  3.883664 -0.050320 -0.431046  0.066987 0.050243 -0.694792
12  1.719577 0.000004 0.000001  0.000000 0.000000 -1.251039
13  1.209184 0.000001 -0.000000  -0.000000 -0.000003 -1.141145
14  3.859837 -0.148937 -1.331280  -0.248855 0.263129 -0.072121
15  1.719424 0.000001 -0.000002  0.000000 0.000000 -0.676756
16  1.099668 0.000004 -0.000001  -0.000000 -0.000000 -1.021287
17  0.806021 -0.359838 -1.318336  1.349685 0.343493 -0.771450
18  1.789782 0.000001 -0.000004  0.000000 -0.000000 0.397500
19  1.206999 0.000005 -0.000000  -0.000000 0.000000 0.989033
20  6.104523 -1.468680 -3.530286  -1.564198 -0.011689 -1.581440
21  3.820740 -1.409994 -0.589411  -1.564198 -0.011689 -1.581440
22  0.222812 -3.739060 1.509294  0.024887 2.851473 -1.494016
23  3.048727 6.125613 1.106839  1.596061 0.018247 -0.808184
24  3.527215 5.063569 0.216260  1.596061 0.018246 -0.808184
25  3.352950 5.114328 -0.401208  1.596061 0.018247 -0.808184
26  2.909482 4.772882 -1.012056  1.596061 0.018247 -0.808184
27  1.772479 4.476570 2.356868  1.596061 0.018247 -0.808184
28  0.000006 3.336140 -8.647861  -1.570799 -1.391898 -1.570795
29  2.033350 1.000764 1.937663  1.227517 0.585911 1.190966
30  2.026190 1.001859 1.937675  1.227511 0.585916 1.190961
31  0.000001 -0.000001 0.000004  1.583265 0.000007 1.570794
32  0.000000 6.028147 -0.000001  -1.291556 -0.053742 -0.265275
33  -0.000001 0.000010 -0.000006  -0.000002 0.000003 1.570792
34  0.000009 6.028141 -0.000013  -0.192762 1.286568 1.120305
35  -0.000000 11.692570 -0.000000  0.000002 -0.000004 -1.142842
36  -0.000001 0.000000 -0.000001  0.000005 0.000000 1.570801
37  11.692595 0.000054 0.000041  0.000003 -0.000007 -1.142833
38  0.000000 11.481682 0.000001  1.098573 0.614652 1.120797
39  -0.000000 0.000001 -0.000000  0.000000 -0.000000 1.570789
40  11.481706 -0.000055 0.000008  0.998355 -0.814760 0.274863
41  0.137968 3.859863 1.332471  -1.465440 -1.619780 0.861149
42  -0.000001 0.000002 0.000001  1.933714 0.000004 1.570794
43  3.859872 -0.137940 1.332472  0.357761 -0.048714 -0.604168
44  0.000001 1.719430 0.000001  -0.422380 0.202310 0.066145
45  0.000002 -0.000000 0.000001  1.743430 0.000000 1.570798
46  1.719433 0.000006 -0.000003  0.000204 -0.009358 -0.440082
47  0.000001 1.099664 0.000005  1.024379 1.908983 1.052475
48  0.000000 -0.000001 0.000001  -0.000002 0.000003 1.570799
49  1.099664 0.000004 0.000002  -0.000123 0.002600 -0.292343
50  0.046789 3.883691 0.431451  -0.025727 -1.505141 -0.645932
51  0.000001 -0.000000 0.000000  1.590082 0.000009 1.570787
52  3.883700 -0.046761 0.431452  0.084918 0.001679 -0.671600
53  0.000000 1.719579 0.000000  -0.720843 0.051523 -0.006475
54  -0.000000 0.000000 -0.000000  1.538382 -0.000002 1.570794
55  1.719580 0.000015 -0.000016  -0.003926 0.016415 -0.720372
56  0.000000 1.209183 0.000001  -1.502753 1.084943 -1.507599
57  -0.000001 -0.000000 0.000001  -0.000000 -0.000000 1.570805
58  1.209181 -0.000001 -0.000001  -0.000818 0.002971 -0.484795
59  -0.046750 3.942331 -0.431435  -0.325349 -1.473422 -0.660493
60  0.000001 -0.000002 -0.000001  1.317660 0.000000 1.570797
61  3.942339 0.046779 -0.431436  -0.160840 0.031082 -0.984393
62  0.000001 1.539088 0.000000  -0.256452 -0.026494 -0.056799
63  -0.000001 0.000000 0.000001  1.337310 -0.000004 1.570800
64  1.539092 0.000002 0.000002  -0.000030 0.003847 -0.263966
65  -0.000002 1.196320 -0.000000  -1.015083 1.116788 -1.061759
66  -0.000001 -0.000000 -0.000002  0.000000 -0.000001 1.570800
67  1.196321 -0.000009 0.000003  -0.000000 0.000003 -0.393012
68  0.142426 3.859708 -1.191971  -0.667161 -1.423562 -0.300292
69  0.000002 -0.000000 0.000001  0.976757 -0.000005 1.570807
70  3.859716 -0.142399 -1.191974  -0.478054 0.090909 -0.962157
71  0.000002 1.312568 0.000003  -0.362935 -0.138964 -0.204711
72  -0.000001 0.000001 0.000001  1.078169 0.000003 1.570794
73  1.312570 -0.000012 0.000011  0.000007 -0.000598 -0.438627
74  -0.000004 0.729364 0.000002  -0.407108 1.029748 -0.466087
75  -0.000001 0.000001 -0.000002  -0.000001 -0.000001 1.570795
76  0.729364 0.000004 0.000002  0.000001 -0.000004 -0.233572
77  0.348928 0.806049 1.321257  -1.143310 -2.277386 0.650660
78  0.000001 0.000001 0.000001  0.437032 0.000002 1.570791
79  0.806053 -0.348923 1.321258  -1.473908 -0.632077 -0.380454
80  -0.000001 1.789785 0.000002  0.105740 0.066310 0.344377
81  -0.000000 0.000001 -0.000000  0.347279 0.000000 1.570806
82  1.789795 0.000011 -0.000001  0.002683 0.043915 0.350241
83  -0.000002 1.207000 -0.000001  0.184448 0.295939 0.569125
84  -0.000001 0.000000 0.000000  0.000001 -0.000001 1.570797
85  1.207007 -0.000011 0.000003  -0.000004 0.000001 0.541545
86  0.000000 0.000000 1.000000  1.570796 -0.000000 0.000000
time 8
0  0.000005 3.335938 -8.640624  -1.570780 -1.391896 -1.570809
1  2.033356 1.000772 -1.937610  1.473119 1.855075 -0.198639
2  6.028145 -0.000002 0.000000  1.395031 0.148502 -1.175570
3  11.692557 0.000002 0.000004  0.000000 0.000000 -1.236460
4  11.481699 -0.000001 0.000002  -1.288831 0.007417 0.200699
5  3.859676 -0.132569 1.193107  0.432210 -0.155861 -0.861350
6  1.312558 -0.000004 0.000000  -0.000000 0.000000 -1.191994
7  0.729366 0.000005 -0.000003  -0.000000 -0.000000 -1.063394
8  3.942305 0.050327 0.431041  0.232421 0.000609 -0.853331
9  1.539100 -0.000004 -0.000000  -0.000000 -0.000000 -0.973379
10  1.196321 0.000009 0.000000  0.000000 0.000000 -1.451289
11  3.883664 -0.050321 -0.431045  0.066987 0.050243 -0.694792
12  1.719577 0.000002 0.000001  -0.000000 0.000000 -1.251039
13  1.209186 0.000002 -0.000002  -0.000000 -0.000003 -1.141145
14  3.859837 -0.148938 -1.331283  -0.248855 0.263129 -0.072121
15  1.719421 0.000001 -0.000002  -0.000000 0.000000 -0.676756
16  1.099667 0.000003 0.000001  -0.000000 -0.000000 -1.021287
17  0.806021 -0.359838 -1.318337  1.349685 0.343493 -0.771450
18  1.789783 0.000000 -0.000003  0.000000 -0.000000 0.397500
19  1.207000 0.000004 0.000001  0.000000 0.000000 0.989033
20  6.104523 -1.468680 -3.530287  -1.564198 -0.011689 -1.581440
21  3.820740 -1.409994 -0.589411  -1.564198 -0.011689 -1.581440
22  0.222813 -3.739063 1.509298  0.024887 2.851473 -1.494016
23  3.048727 6.125609 1.106840  1.596061 0.018247 -0.808184
24  3.527214 5.063567 0.216258  1.596061 0.018246 -0.808184
25  3.352949 5.114327 -0.401208  1.596061 0.018247 -0.808184
26  2.909481 4.772882 -1.012058  1.596061 0.018247 -0.808184
27  1.772478 4.476570 2.356864  1.596061 0.018247 -0.808184
28  0.000006 3.336140 -8.647861  -1.570799 -1.391898 -1.570795
29  2.033350 1.000764 1.937663  1.227517 0.585911 1.190966
30  2.026190 1.001859 1.937675  1.227511 0.585916 1.190961
31  0.000001 -0.000001 0.000004  1.583265 0.000007 1.570794
32  0.000000 6.028147 -0.000001  -1.460420 0.056818 -0.193490
33  -0.000000 0.000009 -0.000006  -0.000002 0.000003 1.570792
34  0.000008 6.028139 -0.000012  0.476637 1.446713 1.850804
35  0.000000 11.692571 -0.000000  0.000001 -0.000005 -1.012558
36  -0.000001 0.000000 -0.000001  0.000005 0.000000 1.570801
37  11.692599 0.000054 0.000041  0.000003 -0.000005 -1.012549
38  -0.000002 11.481682 0.000000  1.084332 0.620113 1.019423
39  -0.000000 0.000001 -0.000001  0.000000 -0.000000 1.570789
40  11.481709 -0.000053 0.000006  0.991124 -0.802939 0.186965
41  0.137967 3.859859 1.332471  -1.465428 -1.619698 0.860897
42  -0.000002 0.000001 -0.000001  1.933714 0.000004 1.570794
43  3.859871 -0.137940 1.332472  0.357767 -0.048631 -0.604401
44  -0.000003 1.719429 -0.000001  -0.422056 0.202310 0.066145
45  0.000001 0.000000 0.000001  1.743430 0.000000 1.570798
46  1.719432 0.000004 -0.000008  0.000201 -0.009301 -0.439762
47  0.000004 1.099663 0.000000  1.023946 1.908732 1.052016
48  0.000001 0.000000 0.000003  -0.000002 0.000003 1.570799
49  1.099664 -0.000001 0.000005  -0.000122 0.002600 -0.292050
50  0.046788 3.883687 0.431447  -0.026521 -1.505143 -0.645239
51  -0.000002 0.000000 -0.000001  1.590082 0.000009 1.570787
52  3.883698 -0.046761 0.431448  0.084914 0.001731 -0.671692
53  -0.000003 1.719576 0.000000  -0.720680 0.051523 -0.006475
54  0.000000 0.000001 -0.000003  1.538382 -0.000002 1.570794
55  1.719579 0.000016 -0.000018  -0.003923 0.016412 -0.720208
56  0.000004 1.209182 -0.000005  -1.502734 1.085094 -1.507577
57  0.000001 -0.000000 -0.000000  -0.000000 -0.000000 1.570805
58  1.209177 -0.000004 -0.000000  -0.000817 0.002970 -0.484644
59  -0.046752 3.942328 -0.431439  -0.325714 -1.473425 -0.660353
60  -0.000002 -0.000000 0.000000  1.317660 0.000000 1.570797
61  3.942338 0.046779 -0.431440  -0.160856 0.031114 -0.984613
62  -0.000003 1.539093 0.000003  -0.256161 -0.026494 -0.056799
63  -0.000001 0.000001 0.000001  1.337310 -0.000004 1.570800
64  1.539095 0.000003 0.000001  -0.000029 0.003781 -0.263683
65  -0.000003 1.196322 -0.000001  -1.014660 1.117120 -1.061287
66  -0.000003 0.000000 0.000005  0.000001 -0.000001 1.570800
67  1.196320 -0.000005 -0.000002  0.000000 0.000003 -0.392621
68  0.142426 3.859708 -1.191972  -0.667300 -1.423584 -0.300400
69  0.000001 -0.000001 0.000001  0.976757 -0.000005 1.570807
70  3.859719 -0.142399 -1.191973  -0.478085 0.090912 -0.962403
71  0.000001 1.312566 0.000003  -0.362591 -0.138963 -0.204711
72  0.000002 -0.000001 0.000001  1.078169 0.000003 1.570794
73  1.312571 -0.000012 0.000007  0.000007 -0.000759 -0.438324
74  -0.000002 0.729362 0.000002  -0.406529 1.029898 -0.465411
75  -0.000001 0.000001 -0.000001  -0.000001 -0.000001 1.570795
76  0.729364 0.000006 -0.000001  0.000001 -0.000004 -0.233194
77  0.348927 0.806044 1.321256  -1.143238 -2.277196 0.650581
78  0.000000 0.000000 -0.000002  0.437032 0.000002 1.570791
79  0.806050 -0.348923 1.321258  -1.473838 -0.631890 -0.380518
80  0.000000 1.789783 -0.000003  0.105731 0.066324 0.344245
81  0.000002 0.000000 0.000000  0.347279 0.000000 1.570806
82  1.789794 0.000011 -0.000001  0.002678 0.043870 0.350116
83  0.000003 1.206999 0.000002  0.184383 0.295978 0.568904
84  -0.000000 -0.000000 -0.000000  0.000001 -0.000001 1.570797
85  1.207007 -0.000012 0.000006  -0.000004 0.000000 0.541330
86  0.000000 0.000000 1.000000  1.570796 -0.000000 0.000000
end
