version 1
nodes
0 "ValveBiped.Bip01_Spine4" -1
1 "ValveBiped.Bip01_R_Clavicle" 0
2 "ValveBiped.Bip01_R_UpperArm" 1
3 "ValveBiped.Bip01_R_Forearm" 2
4 "ValveBiped.Bip01_R_Hand" 3
5 "ValveBiped.Bip01_R_Finger4" 4
6 "ValveBiped.Bip01_R_Finger41" 5
7 "ValveBiped.Bip01_R_Finger42" 6
8 "ValveBiped.Bip01_R_Finger3" 4
9 "ValveBiped.Bip01_R_Finger31" 8
10 "ValveBiped.Bip01_R_Finger32" 9
11 "ValveBiped.Bip01_R_Finger2" 4
12 "ValveBiped.Bip01_R_Finger21" 11
13 "ValveBiped.Bip01_R_Finger22" 12
14 "ValveBiped.Bip01_R_Finger1" 4
15 "ValveBiped.Bip01_R_Finger11" 14
16 "ValveBiped.Bip01_R_Finger12" 15
17 "ValveBiped.Bip01_R_Finger0" 4
18 "ValveBiped.Bip01_R_Finger01" 17
19 "ValveBiped.Bip01_R_Finger02" 18
20 "ValveBiped.square" 4
21 "ValveBiped.clip" 4
22 "ik_target.Bip01_L_Hand" 4
23 "ik_target.Bip01_L_Finger1_tip" 22
24 "ik_target.Bip01_L_Finger2_tip" 22
25 "ik_target.Bip01_L_Finger3_tip" 22
26 "ik_target.Bip01_L_Finger4_tip" 22
27 "ik_target.Bip01_L_Finger0_tip" 22
28 "ik_chain.Bip01_Spine4" -1
29 "ik_chain.Bip01_L_Clavicle" 28
30 "ValveBiped.Bip01_L_Clavicle" 0
31 "ik_parent.Bip01_L_Clavicle" 29
32 "ik_chain.Bip01_L_UpperArm" 29
33 "ik_parent.Bip01_L_UpperArm" 32
34 "ValveBiped.Bip01_L_UpperArm" 30
35 "ik_chain.Bip01_L_Forearm" 32
36 "ik_parent.Bip01_L_Forearm" 35
37 "ValveBiped.Bip01_L_Forearm" 34
38 "ik_chain.Bip01_L_Hand" 35
39 "ik_parent.Bip01_L_Hand" 38
40 "ValveBiped.Bip01_L_Hand" 37
41 "ik_chain.Bip01_L_Finger1" 38
42 "ik_parent.Bip01_L_Finger1" 41
43 "ValveBiped.Bip01_L_Finger1" 40
44 "ik_chain.Bip01_L_Finger11" 41
45 "ik_parent.Bip01_L_Finger11" 44
46 "ValveBiped.Bip01_L_Finger11" 43
47 "ik_chain.Bip01_L_Finger12" 44
48 "ik_parent.Bip01_L_Finger12" 47
49 "ValveBiped.Bip01_L_Finger12" 46
50 "ik_chain.Bip01_L_Finger2" 38
51 "ik_parent.Bip01_L_Finger2" 50
52 "ValveBiped.Bip01_L_Finger2" 40
53 "ik_chain.Bip01_L_Finger21" 50
54 "ik_parent.Bip01_L_Finger21" 53
55 "ValveBiped.Bip01_L_Finger21" 52
56 "ik_chain.Bip01_L_Finger22" 53
57 "ik_parent.Bip01_L_Finger22" 56
58 "ValveBiped.Bip01_L_Finger22" 55
59 "ik_chain.Bip01_L_Finger3" 38
60 "ik_parent.Bip01_L_Finger3" 59
61 "ValveBiped.Bip01_L_Finger3" 40
62 "ik_chain.Bip01_L_Finger31" 59
63 "ik_parent.Bip01_L_Finger31" 62
64 "ValveBiped.Bip01_L_Finger31" 61
65 "ik_chain.Bip01_L_Finger32" 62
66 "ik_parent.Bip01_L_Finger32" 65
67 "ValveBiped.Bip01_L_Finger32" 64
68 "ik_chain.Bip01_L_Finger4" 38
69 "ik_parent.Bip01_L_Finger4" 68
70 "ValveBiped.Bip01_L_Finger4" 40
71 "ik_chain.Bip01_L_Finger41" 68
72 "ik_parent.Bip01_L_Finger41" 71
73 "ValveBiped.Bip01_L_Finger41" 70
74 "ik_chain.Bip01_L_Finger42" 71
75 "ik_parent.Bip01_L_Finger42" 74
76 "ValveBiped.Bip01_L_Finger42" 73
77 "ik_chain.Bip01_L_Finger0" 38
78 "ik_parent.Bip01_L_Finger0" 77
79 "ValveBiped.Bip01_L_Finger0" 40
80 "ik_chain.Bip01_L_Finger01" 77
81 "ik_parent.Bip01_L_Finger01" 80
82 "ValveBiped.Bip01_L_Finger01" 79
83 "ik_chain.Bip01_L_Finger02" 80
84 "ik_parent.Bip01_L_Finger02" 83
85 "ValveBiped.Bip01_L_Finger02" 82
86 "ik_enable" -1
end
skeleton
time 0
0  0.000005 3.335938 -8.640624  -1.570780 -1.391896 -1.570809
1  2.033356 1.000772 -1.937610  1.473119 1.855075 -0.198639
2  6.028144 -0.000001 0.000000  2.118874 1.513671 -0.442333
3  11.692555 0.000002 0.000004  0.000000 -0.000000 -0.316658
4  11.481699 0.000003 0.000001  -1.288835 0.007428 0.200690
5  3.859676 -0.132571 1.193110  0.432210 -0.155861 -0.861350
6  1.312557 -0.000001 0.000000  0.000000 -0.000000 -1.191973
7  0.729363 -0.000001 -0.000001  0.000000 -0.000000 -1.063394
8  3.942305 0.050328 0.431045  0.232421 0.000609 -0.853331
9  1.539098 -0.000000 0.000001  0.000000 0.000000 -0.973379
10  1.196321 0.000006 -0.000000  0.000000 0.000000 -1.451289
11  3.883661 -0.050323 -0.431040  0.066987 0.050243 -0.694792
12  1.719581 0.000006 0.000000  -0.000000 0.000000 -1.251039
13  1.209184 0.000002 0.000001  -0.000000 -0.000003 -1.141145
14  3.859839 -0.148937 -1.331281  -0.248855 0.263129 -0.072121
15  1.719419 0.000001 -0.000003  -0.000000 -0.000000 -0.676756
16  1.099669 0.000005 0.000001  0.000000 0.000000 -1.021287
17  0.806018 -0.359838 -1.318333  1.349685 0.343493 -0.771450
18  1.789783 0.000001 -0.000003  0.000000 0.000000 0.397500
19  1.207000 0.000004 0.000002  -0.000000 -0.000000 0.989033
20  6.104524 -1.468679 -3.530283  -1.564198 -0.011689 -1.581440
21  3.820734 -1.409993 -0.589407  -1.564198 -0.011689 -1.581440
22  0.222816 -3.739061 1.509298  0.024887 2.851473 -1.494016
23  3.048727 6.125611 1.106841  1.596061 0.018247 -0.808184
24  3.527214 5.063570 0.216259  1.596061 0.018246 -0.808184
25  3.352950 5.114328 -0.401208  1.596061 0.018247 -0.808184
26  2.909482 4.772882 -1.012056  1.596061 0.018247 -0.808184
27  1.772479 4.476569 2.356867  1.596061 0.018247 -0.808184
28  0.000006 3.336140 -8.647861  -1.570799 -1.391898 -1.570795
29  2.033350 1.000764 1.937663  1.227517 0.585911 1.190966
30  2.026190 1.001859 1.937675  1.227511 0.585916 1.190961
31  0.000001 -0.000001 0.000004  1.583265 0.000007 1.570794
32  0.000000 6.028147 -0.000001  -0.406514 -0.510007 -0.918371
33  -0.000001 0.000010 -0.000006  -0.000002 0.000003 1.570792
34  0.000017 6.028144 -0.000011  -0.547012 0.352334 0.445271
35  -0.000000 11.692572 -0.000001  -0.000001 -0.000005 -0.637501
36  0.000001 0.000001 -0.000002  0.000005 0.000000 1.570801
37  11.692578 0.000054 0.000040  0.000004 -0.000001 -0.637492
38  0.000002 11.481681 -0.000001  0.408929 0.486661 0.742933
39  -0.000000 0.000004 0.000001  0.000000 -0.000000 1.570789
40  11.481681 -0.000057 0.000007  0.523074 -0.359128 0.542961
41  0.137968 3.859862 1.332475  -1.465450 -1.619430 0.860059
42  -0.000001 -0.000002 0.000000  1.933714 0.000004 1.570794
43  3.859858 -0.137942 1.332476  0.357798 -0.048366 -0.605273
44  -0.000000 1.719428 0.000001  -0.420874 0.202310 0.066145
45  -0.000000 0.000001 0.000001  1.743430 0.000000 1.570798
46  1.719435 0.000005 -0.000006  0.000189 -0.009099 -0.438597
47  -0.000001 1.099662 0.000002  1.022354 1.907816 1.050327
48  0.000000 -0.000001 0.000001  -0.000002 0.000003 1.570799
49  1.099664 0.000001 0.000003  -0.000119 0.002600 -0.290975
50  0.046789 3.883691 0.431450  -0.028144 -1.505149 -0.643977
51  -0.000000 0.000000 0.000001  1.590082 0.000009 1.570787
52  3.883688 -0.046762 0.431450  0.084906 0.001837 -0.672064
53  -0.000001 1.719578 0.000002  -0.720100 0.051523 -0.006475
54  -0.000000 -0.000000 0.000000  1.538381 -0.000002 1.570794
55  1.719579 0.000015 -0.000017  -0.003915 0.016394 -0.719627
56  0.000000 1.209182 -0.000003  -1.502664 1.085643 -1.507497
57  -0.000001 0.000000 0.000000  -0.000000 -0.000000 1.570805
58  1.209185 -0.000008 -0.000003  -0.000816 0.002971 -0.484094
59  -0.046750 3.942328 -0.431436  -0.326450 -1.473453 -0.660448
60  0.000001 0.000000 0.000001  1.317660 0.000000 1.570797
61  3.942323 0.046778 -0.431437  -0.160904 0.031173 -0.985455
62  0.000001 1.539091 0.000000  -0.255109 -0.026494 -0.056799
63  0.000000 -0.000001 0.000000  1.337310 -0.000004 1.570800
64  1.539095 -0.000002 0.000002  -0.000026 0.003537 -0.262659
65  -0.000000 1.196318 0.000000  -1.013115 1.118327 -1.059570
66  0.000001 0.000000 0.000000  0.000000 -0.000001 1.570800
67  1.196323 -0.000007 0.000004  0.000000 0.000003 -0.391194
68  0.142426 3.859707 -1.191966  -0.667369 -1.423718 -0.301277
69  0.000001 -0.000000 0.000002  0.976757 -0.000005 1.570807
70  3.859705 -0.142400 -1.191968  -0.478196 0.090836 -0.963368
71  -0.000001 1.312569 0.000003  -0.361356 -0.138963 -0.204711
72  -0.000000 0.000001 0.000002  1.078169 0.000003 1.570794
73  1.312573 -0.000013 0.000007  0.000004 -0.001345 -0.437234
74  0.000001 0.729364 0.000002  -0.404437 1.030436 -0.462974
75  0.000001 -0.000000 0.000001  -0.000001 -0.000001 1.570795
76  0.729364 0.000002 0.000001  0.000002 -0.000005 -0.231825
77  0.348928 0.806046 1.321260  -1.142976 -2.276484 0.650280
78  0.000001 0.000000 0.000000  0.437032 0.000002 1.570790
79  0.806045 -0.348924 1.321262  -1.473563 -0.631194 -0.380782
80  -0.000001 1.789785 0.000001  0.105694 0.066384 0.343679
81  -0.000001 0.000003 -0.000000  0.347279 0.000000 1.570806
82  1.789789 0.000012 -0.000002  0.002654 0.043679 0.349581
83  0.000000 1.207001 -0.000000  0.184117 0.296140 0.567994
84  0.000001 0.000001 0.000000  0.000001 -0.000001 1.570797
85  1.207001 -0.000011 0.000005  -0.000004 0.000001 0.540445
86  0.000000 0.000000 1.000000  1.570796 -0.000000 0.000000
time 1
0  0.000005 3.335938 -8.640624  -1.570780 -1.391896 -1.570809
1  2.033356 1.000772 -1.937610  1.473119 1.855075 -0.198639
2  6.028144 -0.000001 0.000000  2.090300 1.512222 -0.471468
3  11.692556 0.000003 0.000002  -0.000000 -0.000000 -0.316696
4  11.481699 0.000001 0.000002  -1.289180 0.004406 0.206785
5  3.859679 -0.132572 1.193110  0.432210 -0.155861 -0.861350
6  1.312556 -0.000003 -0.000000  0.000000 -0.000000 -1.191973
7  0.729366 0.000004 -0.000002  0.000000 -0.000000 -1.063394
8  3.942307 0.050327 0.431044  0.232421 0.000609 -0.853331
9  1.539097 0.000000 0.000001  0.000000 0.000000 -0.973379
10  1.196321 0.000010 0.000000  0.000000 0.000000 -1.451289
11  3.883662 -0.050323 -0.431041  0.066987 0.050243 -0.694792
12  1.719577 0.000006 0.000000  -0.000000 0.000000 -1.251039
13  1.209185 -0.000001 0.000000  -0.000000 -0.000003 -1.141145
14  3.859842 -0.148938 -1.331282  -0.248855 0.263129 -0.072121
15  1.719419 0.000001 -0.000002  -0.000000 -0.000000 -0.676756
16  1.099669 0.000002 0.000000  0.000000 0.000000 -1.021287
17  0.806020 -0.359839 -1.318334  1.349685 0.343493 -0.771450
18  1.789783 0.000001 -0.000001  0.000000 -0.000000 0.397500
19  1.206998 0.000004 -0.000001  -0.000000 -0.000000 0.989033
20  6.104526 -1.468680 -3.530283  -1.564198 -0.011689 -1.581440
21  3.820737 -1.409994 -0.589408  -1.564198 -0.011689 -1.581440
22  0.222829 -3.739063 1.509296  0.024887 2.851473 -1.494016
23  3.048727 6.125612 1.106842  1.596061 0.018247 -0.808184
24  3.527215 5.063569 0.216260  1.596061 0.018246 -0.808184
25  3.352951 5.114330 -0.401206  1.596061 0.018247 -0.808184
26  2.909482 4.772883 -1.012056  1.596061 0.018247 -0.808184
27  1.772479 4.476571 2.356869  1.596061 0.018247 -0.808184
28  0.000006 3.336140 -8.647861  -1.570799 -1.391898 -1.570795
29  2.033350 1.000764 1.937663  1.227517 0.585911 1.190966
30  2.026190 1.001859 1.937675  1.227511 0.585916 1.190961
31  0.000001 -0.000001 0.000004  1.583265 0.000007 1.570794
32  0.000000 6.028147 -0.000001  -0.410528 -0.509567 -0.914559
33  -0.000001 0.000010 -0.000007  -0.000002 0.000003 1.570792
34  0.000017 6.028144 -0.000011  -0.547324 0.355854 0.447016
35  -0.000001 11.692571 -0.000000  -0.000001 -0.000005 -0.640824
36  0.000001 0.000001 -0.000002  0.000005 0.000000 1.570801
37  11.692578 0.000055 0.000040  0.000004 -0.000001 -0.640815
38  0.000001 11.481683 0.000001  0.405075 0.485501 0.747927
39  -0.000000 0.000001 0.000000  0.000000 -0.000000 1.570789
40  11.481681 -0.000054 0.000009  0.521142 -0.356017 0.550432
41  0.137968 3.859857 1.332474  -1.465460 -1.619436 0.860077
42  -0.000000 -0.000003 -0.000001  1.933714 0.000004 1.570794
43  3.859859 -0.137941 1.332473  0.357798 -0.048371 -0.605253
44  -0.000002 1.719429 0.000002  -0.420904 0.202310 0.066145
45  -0.000001 -0.000002 -0.000001  1.743430 0.000000 1.570798
46  1.719436 0.000008 -0.000011  0.000190 -0.009104 -0.438626
47  -0.000002 1.099661 -0.000002  1.022394 1.907839 1.050370
48  -0.000001 -0.000000 -0.000000  -0.000002 0.000003 1.570799
49  1.099664 -0.000001 0.000002  -0.000119 0.002600 -0.291002
50  0.046789 3.883688 0.431452  -0.028135 -1.505149 -0.643983
51  0.000000 -0.000002 -0.000000  1.590082 0.000009 1.570787
52  3.883689 -0.046762 0.431450  0.084907 0.001837 -0.672059
53  -0.000002 1.719573 -0.000001  -0.720113 0.051523 -0.006475
54  -0.000001 0.000000 0.000001  1.538382 -0.000002 1.570794
55  1.719578 0.000017 -0.000017  -0.003915 0.016394 -0.719640
56  -0.000001 1.209182 0.000004  -1.502665 1.085631 -1.507498
57  -0.000003 0.000001 0.000001  -0.000000 -0.000000 1.570805
58  1.209185 -0.000002 -0.000003  -0.000816 0.002971 -0.484105
59  -0.046750 3.942328 -0.431435  -0.326436 -1.473452 -0.660446
60  0.000000 0.000002 0.000003  1.317660 0.000000 1.570797
61  3.942328 0.046778 -0.431437  -0.160903 0.031172 -0.985438
62  0.000001 1.539092 0.000004  -0.255137 -0.026494 -0.056799
63  -0.000000 -0.000001 -0.000001  1.337310 -0.000004 1.570800
64  1.539097 0.000003 0.000004  -0.000026 0.003543 -0.262686
65  -0.000000 1.196321 0.000001  -1.013154 1.118297 -1.059614
66  0.000000 -0.000000 -0.000001  0.000000 -0.000001 1.570800
67  1.196327 -0.000003 0.000004  0.000001 0.000003 -0.391230
68  0.142427 3.859704 -1.191967  -0.667380 -1.423714 -0.301243
69  -0.000000 0.000000 0.000001  0.976757 -0.000005 1.570807
70  3.859705 -0.142400 -1.191970  -0.478194 0.090841 -0.963346
71  0.000000 1.312569 0.000003  -0.361387 -0.138963 -0.204711
72  0.000000 0.000000 0.000000  1.078169 0.000003 1.570794
73  1.312572 -0.000013 0.000009  0.000005 -0.001331 -0.437261
74  0.000001 0.729364 0.000001  -0.404488 1.030423 -0.463033
75  0.000000 0.000000 0.000002  -0.000001 -0.000001 1.570795
76  0.729367 0.000002 0.000001  0.000002 -0.000005 -0.231858
77  0.348928 0.806042 1.321261  -1.142988 -2.276506 0.650289
78  0.000001 0.000000 -0.000002  0.437032 0.000002 1.570790
79  0.806044 -0.348924 1.321260  -1.473569 -0.631216 -0.380777
80  0.000001 1.789783 -0.000001  0.105695 0.066382 0.343698
81  0.000001 0.000001 -0.000001  0.347279 0.000000 1.570806
82  1.789788 0.000013 0.000000  0.002655 0.043685 0.349599
83  -0.000000 1.207002 0.000001  0.184126 0.296135 0.568023
84  -0.000001 -0.000003 -0.000001  0.000001 -0.000001 1.570797
85  1.207007 -0.000010 0.000006  -0.000004 0.000002 0.540474
86  0.000000 0.000000 1.000000  1.570796 -0.000000 0.000000
time 2
0  0.000005 3.335938 -8.640624  -1.570780 -1.391896 -1.570809
1  2.033356 1.000772 -1.937610  1.473119 1.855075 -0.198639
2  6.028144 -0.000001 0.000000  2.001977 1.507034 -0.561704
3  11.692554 0.000001 0.000003  0.000000 -0.000000 -0.316432
4  11.481698 0.000003 0.000001  -1.290687 -0.006164 0.228324
5  3.859674 -0.132571 1.193110  0.432210 -0.155861 -0.861350
6  1.312555 -0.000001 0.000001  0.000000 -0.000000 -1.191973
7  0.729364 0.000005 -0.000002  0.000000 0.000000 -1.063394
8  3.942304 0.050327 0.431045  0.232421 0.000609 -0.853331
9  1.539098 0.000001 0.000001  0.000000 0.000000 -0.973379
10  1.196321 0.000009 0.000001  0.000000 0.000000 -1.451289
11  3.883661 -0.050323 -0.431041  0.066987 0.050243 -0.694792
12  1.719579 0.000006 -0.000000  -0.000000 0.000000 -1.251039
13  1.209183 0.000002 0.000000  -0.000000 -0.000003 -1.141145
14  3.859839 -0.148938 -1.331282  -0.248855 0.263129 -0.072121
15  1.719423 0.000001 -0.000003  -0.000000 -0.000000 -0.676756
16  1.099667 0.000005 0.000001  0.000000 0.000000 -1.021288
17  0.806017 -0.359838 -1.318333  1.349685 0.343493 -0.771450
18  1.789783 0.000001 -0.000002  0.000000 -0.000000 0.397500
19  1.207000 0.000002 -0.000002  0.000000 -0.000000 0.989033
20  6.104525 -1.468679 -3.530283  -1.564198 -0.011689 -1.581440
21  3.820735 -1.409994 -0.589408  -1.564198 -0.011689 -1.581440
22  0.222819 -3.739060 1.509297  0.024887 2.851473 -1.494016
23  3.048727 6.125612 1.106840  1.596061 0.018247 -0.808184
24  3.527214 5.063567 0.216257  1.596061 0.018246 -0.808184
25  3.352950 5.114326 -0.401208  1.596061 0.018247 -0.808184
26  2.909482 4.772882 -1.012058  1.596061 0.018247 -0.808184
27  1.772479 4.476569 2.356867  1.596061 0.018247 -0.808184
28  0.000006 3.336140 -8.647861  -1.570799 -1.391898 -1.570795
29  2.033350 1.000764 1.937663  1.227517 0.585911 1.190966
30  2.026190 1.001859 1.937675  1.227511 0.585916 1.190961
31  0.000001 -0.000001 0.000004  1.583265 0.000007 1.570794
32  0.000000 6.028147 -0.000001  -0.424488 -0.507884 -0.901279
33  0.000000 0.000010 -0.000005  -0.000002 0.000003 1.570791
34  0.000017 6.028144 -0.000011  -0.548319 0.368126 0.453144
35  0.000000 11.692572 -0.000000  -0.000001 -0.000005 -0.652388
36  -0.000000 0.000000 -0.000002  0.000005 0.000000 1.570801
37  11.692579 0.000055 0.000042  0.000005 -0.000001 -0.652378
38  -0.000001 11.481682 -0.000000  0.391188 0.481250 0.765362
39  -0.000000 0.000001 -0.000000  0.000000 -0.000000 1.570789
40  11.481686 -0.000058 0.000006  0.514189 -0.344764 0.576708
41  0.137967 3.859857 1.332472  -1.465449 -1.619459 0.860150
42  -0.000000 -0.000001 0.000000  1.933714 0.000004 1.570794
43  3.859862 -0.137941 1.332474  0.357795 -0.048394 -0.605174
44  -0.000000 1.719428 -0.000002  -0.421020 0.202310 0.066145
45  -0.000000 0.000002 0.000000  1.743430 0.000000 1.570799
46  1.719433 0.000005 -0.000006  0.000191 -0.009124 -0.438741
47  -0.000001 1.099663 0.000001  1.022549 1.907928 1.050534
48  0.000000 -0.000000 -0.000001  -0.000002 0.000003 1.570799
49  1.099664 0.000003 0.000002  -0.000120 0.002599 -0.291107
50  0.046788 3.883688 0.431450  -0.028031 -1.505149 -0.644061
51  -0.000000 0.000000 0.000000  1.590082 0.000009 1.570787
52  3.883693 -0.046762 0.431451  0.084907 0.001830 -0.672032
53  0.000001 1.719575 -0.000003  -0.720167 0.051523 -0.006475
54  -0.000000 0.000000 -0.000002  1.538381 -0.000002 1.570794
55  1.719578 0.000012 -0.000014  -0.003916 0.016396 -0.719694
56  0.000002 1.209181 -0.000002  -1.502671 1.085582 -1.507506
57  0.000001 -0.000001 -0.000001  -0.000000 -0.000000 1.570805
58  1.209184 -0.000005 -0.000002  -0.000816 0.002971 -0.484155
59  -0.046751 3.942328 -0.431437  -0.326404 -1.473449 -0.660408
60  -0.000001 -0.000001 0.000000  1.317660 0.000000 1.570797
61  3.942332 0.046778 -0.431436  -0.160899 0.031170 -0.985367
62  -0.000002 1.539090 0.000002  -0.255235 -0.026494 -0.056799
63  0.000000 0.000001 0.000000  1.337310 -0.000004 1.570800
64  1.539098 -0.000001 0.000002  -0.000027 0.003566 -0.262782
65  0.000000 1.196324 0.000001  -1.013295 1.118186 -1.059771
66  0.000002 -0.000000 0.000000  0.000000 -0.000001 1.570800
67  1.196327 -0.000005 0.000004  0.000000 0.000004 -0.391360
68  0.142426 3.859704 -1.191967  -0.667398 -1.423700 -0.301147
69  0.000000 -0.000000 0.000000  0.976757 -0.000005 1.570807
70  3.859706 -0.142401 -1.191968  -0.478185 0.090851 -0.963267
71  0.000001 1.312566 -0.000001  -0.361503 -0.138963 -0.204711
72  -0.000001 0.000000 0.000002  1.078169 0.000003 1.570794
73  1.312570 -0.000018 0.000008  0.000005 -0.001276 -0.437363
74  0.000000 0.729364 0.000001  -0.404680 1.030374 -0.463257
75  -0.000001 -0.000001 0.000001  -0.000001 -0.000001 1.570795
76  0.729367 0.000001 0.000002  0.000002 -0.000005 -0.231984
77  0.348927 0.806044 1.321258  -1.143018 -2.276577 0.650318
78  0.000001 -0.000002 -0.000001  0.437032 0.000002 1.570791
79  0.806047 -0.348924 1.321261  -1.473594 -0.631287 -0.380757
80  0.000001 1.789782 -0.000001  0.105699 0.066376 0.343758
81  0.000001 0.000000 0.000001  0.347279 0.000000 1.570806
82  1.789787 0.000010 -0.000002  0.002657 0.043706 0.349656
83  0.000002 1.207000 0.000002  0.184153 0.296118 0.568117
84  0.000001 0.000001 0.000001  0.000001 -0.000001 1.570797
85  1.207003 -0.000010 0.000005  -0.000003 0.000001 0.540566
86  0.000000 0.000000 1.000000  1.570796 -0.000000 0.000000
time 3
0  0.000005 3.335938 -8.640624  -1.570780 -1.391896 -1.570809
1  2.033356 1.000772 -1.937610  1.473119 1.855075 -0.198639
2  6.028144 -0.000001 0.000000  1.872635 1.496705 -0.694602
3  11.692557 0.000002 0.000003  -0.000000 -0.000000 -0.313763
4  11.481701 0.000000 0.000001  -1.294899 -0.026542 0.270391
5  3.859675 -0.132570 1.193110  0.432210 -0.155861 -0.861350
6  1.312560 0.000002 0.000001  0.000000 -0.000000 -1.191973
7  0.729365 0.000003 -0.000002  0.000000 0.000000 -1.063394
8  3.942302 0.050328 0.431045  0.232421 0.000609 -0.853331
9  1.539102 0.000001 0.000001  0.000000 0.000000 -0.973379
10  1.196322 0.000007 -0.000003  0.000000 0.000000 -1.451289
11  3.883660 -0.050323 -0.431040  0.066987 0.050243 -0.694792
12  1.719580 0.000003 0.000000  -0.000000 0.000000 -1.251039
13  1.209183 0.000002 -0.000000  -0.000000 -0.000003 -1.141145
14  3.859839 -0.148937 -1.331282  -0.248855 0.263129 -0.072121
15  1.719421 0.000001 -0.000003  -0.000000 -0.000000 -0.676756
16  1.099669 0.000004 0.000003  0.000000 0.000000 -1.021287
17  0.806018 -0.359838 -1.318334  1.349685 0.343493 -0.771450
18  1.789784 0.000001 -0.000006  0.000000 0.000000 0.397500
19  1.206999 0.000003 -0.000001  -0.000000 -0.000000 0.989033
20  6.104526 -1.468679 -3.530283  -1.564198 -0.011689 -1.581440
21  3.820735 -1.409993 -0.589409  -1.564198 -0.011689 -1.581440
22  0.222814 -3.739061 1.509297  0.024887 2.851473 -1.494016
23  3.048726 6.125612 1.106842  1.596061 0.018247 -0.808184
24  3.527214 5.063568 0.216260  1.596061 0.018246 -0.808184
25  3.352950 5.114327 -0.401205  1.596061 0.018247 -0.808184
26  2.909482 4.772882 -1.012055  1.596061 0.018247 -0.808184
27  1.772479 4.476572 2.356869  1.596061 0.018247 -0.808184
28  0.000006 3.336140 -8.647861  -1.570799 -1.391898 -1.570795
29  2.033350 1.000764 1.937663  1.227517 0.585911 1.190966
30  2.026190 1.001859 1.937675  1.227511 0.585916 1.190961
31  0.000001 -0.000001 0.000004  1.583265 0.000007 1.570794
32  0.000000 6.028147 -0.000001  -0.451188 -0.504437 -0.876474
33  -0.000000 0.000009 -0.000005  -0.000002 0.000003 1.570792
34  0.000017 6.028143 -0.000011  -0.550265 0.391661 0.464282
35  -0.000000 11.692571 0.000000  -0.000001 -0.000005 -0.673121
36  -0.000001 0.000001 -0.000002  0.000005 0.000000 1.570801
37  11.692580 0.000051 0.000039  0.000004 -0.000001 -0.673112
38  -0.000002 11.481683 -0.000000  0.362923 0.472484 0.798234
39  -0.000000 -0.000001 0.000000  0.000000 -0.000000 1.570789
40  11.481684 -0.000055 0.000008  0.500308 -0.321625 0.627095
41  0.137968 3.859858 1.332474  -1.465429 -1.619494 0.860263
42  0.000000 0.000001 -0.000002  1.933714 0.000004 1.570794
43  3.859858 -0.137941 1.332476  0.357791 -0.048430 -0.605039
44  -0.000000 1.719431 -0.000001  -0.421215 0.202310 0.066145
45  0.000001 0.000000 -0.000001  1.743430 0.000000 1.570798
46  1.719434 0.000007 -0.000007  0.000193 -0.009158 -0.438933
47  0.000001 1.099662 0.000001  1.022810 1.908078 1.050810
48  0.000001 0.000000 0.000001  -0.000002 0.000003 1.570799
49  1.099664 0.000004 0.000002  -0.000120 0.002600 -0.291283
50  0.046788 3.883690 0.431451  -0.027891 -1.505148 -0.644156
51  0.000001 -0.000002 -0.000001  1.590082 0.000009 1.570787
52  3.883689 -0.046761 0.431452  0.084908 0.001821 -0.671985
53  0.000001 1.719573 -0.000002  -0.720256 0.051523 -0.006475
54  -0.000001 0.000000 0.000000  1.538381 -0.000002 1.570794
55  1.719577 0.000017 -0.000016  -0.003917 0.016398 -0.719783
56  -0.000002 1.209181 -0.000004  -1.502682 1.085500 -1.507517
57  -0.000001 0.000001 0.000002  -0.000000 -0.000000 1.570805
58  1.209183 -0.000003 -0.000003  -0.000817 0.002971 -0.484237
59  -0.046750 3.942328 -0.431434  -0.326360 -1.473444 -0.660336
60  -0.000000 0.000000 -0.000003  1.317660 0.000000 1.570797
61  3.942327 0.046779 -0.431435  -0.160892 0.031168 -0.985247
62  -0.000002 1.539091 -0.000002  -0.255398 -0.026494 -0.056799
63  0.000001 -0.000001 0.000001  1.337310 -0.000004 1.570800
64  1.539095 -0.000001 0.000000  -0.000027 0.003604 -0.262940
65  0.000002 1.196321 -0.000002  -1.013531 1.118003 -1.060033
66  -0.000001 0.000000 0.000000  0.000000 -0.000001 1.570800
67  1.196325 -0.000009 0.000003  0.000001 0.000004 -0.391576
68  0.142426 3.859706 -1.191967  -0.667437 -1.423676 -0.300975
69  0.000001 0.000000 0.000002  0.976757 -0.000005 1.570807
70  3.859706 -0.142400 -1.191967  -0.478169 0.090870 -0.963129
71  0.000001 1.312564 -0.000002  -0.361696 -0.138964 -0.204711
72  -0.000001 -0.000001 -0.000001  1.078169 0.000003 1.570794
73  1.312571 -0.000018 0.000005  0.000005 -0.001184 -0.437534
74  -0.000001 0.729361 -0.000002  -0.405001 1.030292 -0.463630
75  -0.000002 -0.000000 0.000001  -0.000001 -0.000001 1.570795
76  0.729365 0.000001 -0.000001  0.000001 -0.000004 -0.232193
77  0.348928 0.806044 1.321259  -1.143069 -2.276698 0.650369
78  -0.000001 0.000000 0.000002  0.437032 0.000002 1.570791
79  0.806045 -0.348924 1.321261  -1.473635 -0.631408 -0.380720
80  -0.000001 1.789780 0.000002  0.105706 0.066365 0.343863
81  0.000000 0.000001 -0.000001  0.347279 0.000000 1.570806
82  1.789788 0.000013 -0.000002  0.002661 0.043741 0.349755
83  0.000001 1.207000 -0.000001  0.184201 0.296089 0.568282
84  0.000001 -0.000002 0.000000  0.000001 -0.000001 1.570797
85  1.207004 -0.000011 0.000004  -0.000004 0.000001 0.540726
86  0.000000 0.000000 1.000000  1.570796 -0.000000 0.000000
time 4
0  0.000005 3.335938 -8.640624  -1.570780 -1.391896 -1.570809
1  2.033356 1.000772 -1.937610  1.473119 1.855075 -0.198639
2  6.028144 -0.000001 0.000000  1.747826 1.482544 -0.824354
3  11.692555 0.000002 0.000003  0.000000 -0.000000 -0.304816
4  11.481700 0.000002 0.000001  -1.304033 -0.055270 0.331665
5  3.859676 -0.132571 1.193109  0.432210 -0.155861 -0.861350
6  1.312556 0.000001 -0.000001  0.000000 -0.000000 -1.191973
7  0.729362 0.000003 -0.000002  0.000000 -0.000000 -1.063394
8  3.942306 0.050328 0.431045  0.232421 0.000609 -0.853331
9  1.539097 -0.000003 0.000001  -0.000000 0.000000 -0.973379
10  1.196321 0.000010 -0.000000  0.000000 0.000000 -1.451289
11  3.883663 -0.050323 -0.431041  0.066987 0.050243 -0.694792
12  1.719581 0.000007 -0.000001  -0.000000 0.000000 -1.251039
13  1.209185 0.000003 0.000000  -0.000000 -0.000003 -1.141145
14  3.859843 -0.148938 -1.331282  -0.248855 0.263129 -0.072121
15  1.719418 0.000001 -0.000003  0.000000 -0.000000 -0.676756
16  1.099672 0.000006 0.000002  0.000000 0.000000 -1.021287
17  0.806020 -0.359838 -1.318334  1.349685 0.343493 -0.771450
18  1.789783 0.000001 -0.000004  0.000000 0.000000 0.397500
19  1.206999 0.000003 0.000002  -0.000000 -0.000000 0.989033
20  6.104527 -1.468679 -3.530283  -1.564198 -0.011689 -1.581440
21  3.820735 -1.409993 -0.589409  -1.564198 -0.011689 -1.581440
22  0.222825 -3.739063 1.509296  0.024887 2.851473 -1.494016
23  3.048727 6.125611 1.106841  1.596061 0.018247 -0.808184
24  3.527214 5.063568 0.216258  1.596061 0.018246 -0.808184
25  3.352950 5.114329 -0.401206  1.596061 0.018247 -0.808184
26  2.909482 4.772883 -1.012056  1.596061 0.018247 -0.808184
27  1.772478 4.476572 2.356867  1.596061 0.018247 -0.808184
28  0.000006 3.336140 -8.647861  -1.570799 -1.391898 -1.570795
29  2.033350 1.000764 1.937663  1.227517 0.585911 1.190966
30  2.026190 1.001859 1.937675  1.227511 0.585916 1.190961
31  0.000001 -0.000001 0.000004  1.583265 0.000007 1.570794
32  0.000000 6.028147 -0.000001  -0.488581 -0.498994 -0.842849
33  -0.000002 0.000010 -0.000006  -0.000002 0.000003 1.570792
34  0.000016 6.028144 -0.000012  -0.552980 0.424800 0.478844
35  -0.000001 11.692570 -0.000000  -0.000000 -0.000005 -0.699557
36  -0.000001 0.000001 -0.000002  0.000005 0.000000 1.570801
37  11.692579 0.000050 0.000039  0.000005 -0.000001 -0.699548
38  -0.000001 11.481683 -0.000000  0.318982 0.458828 0.843639
39  -0.000000 0.000000 0.000000  0.000000 -0.000000 1.570789
40  11.481684 -0.000054 0.000007  0.479701 -0.285002 0.698389
41  0.137968 3.859857 1.332474  -1.465431 -1.619513 0.860319
42  0.000000 0.000004 -0.000001  1.933714 0.000004 1.570794
43  3.859859 -0.137941 1.332475  0.357789 -0.048449 -0.604989
44  0.000001 1.719433 -0.000001  -0.421296 0.202310 0.066145
45  -0.000001 0.000001 -0.000003  1.743430 0.000000 1.570799
46  1.719434 0.000006 -0.000005  0.000193 -0.009172 -0.439013
47  -0.000001 1.099664 -0.000000  1.022916 1.908139 1.050923
48  -0.000001 0.000001 -0.000001  -0.000002 0.000003 1.570799
49  1.099663 -0.000004 0.000001  -0.000121 0.002600 -0.291355
50  0.046789 3.883688 0.431453  -0.027767 -1.505148 -0.644259
51  0.000000 0.000000 -0.000001  1.590082 0.000009 1.570787
52  3.883689 -0.046762 0.431452  0.084909 0.001813 -0.671972
53  -0.000001 1.719575 -0.000001  -0.720292 0.051523 -0.006475
54  -0.000000 -0.000000 -0.000002  1.538381 -0.000002 1.570794
55  1.719577 0.000016 -0.000018  -0.003918 0.016399 -0.719820
56  0.000002 1.209180 -0.000001  -1.502686 1.085469 -1.507523
57  -0.000003 -0.000001 0.000001  -0.000000 -0.000000 1.570805
58  1.209183 0.000000 -0.000001  -0.000817 0.002971 -0.484268
59  -0.046751 3.942326 -0.431435  -0.326305 -1.473443 -0.660342
60  0.000000 0.000001 -0.000003  1.317660 0.000000 1.570797
61  3.942326 0.046778 -0.431436  -0.160890 0.031163 -0.985206
62  -0.000000 1.539091 -0.000001  -0.255462 -0.026494 -0.056799
63  -0.000000 0.000001 -0.000002  1.337310 -0.000004 1.570800
64  1.539096 0.000001 0.000003  -0.000027 0.003619 -0.263002
65  0.000001 1.196321 -0.000001  -1.013621 1.117932 -1.060133
66  0.000003 -0.000001 0.000000  0.000000 -0.000001 1.570800
67  1.196324 -0.000007 0.000003  0.000000 0.000004 -0.391660
68  0.142426 3.859701 -1.191967  -0.667431 -1.423670 -0.300933
69  0.000002 0.000001 0.000002  0.976757 -0.000005 1.570807
70  3.859702 -0.142400 -1.191968  -0.478164 0.090873 -0.963084
71  0.000001 1.312568 0.000001  -0.361771 -0.138963 -0.204711
72  -0.000000 0.000000 0.000001  1.078169 0.000003 1.570794
73  1.312571 -0.000015 0.000008  0.000005 -0.001149 -0.437599
74  0.000000 0.729363 -0.000002  -0.405122 1.030260 -0.463772
75  -0.000001 -0.000000 0.000000  -0.000001 -0.000001 1.570795
76  0.729366 -0.000002 0.000000  0.000001 -0.000004 -0.232272
77  0.348928 0.806041 1.321260  -1.143097 -2.276754 0.650392
78  -0.000001 0.000001 -0.000000  0.437032 0.000002 1.570791
79  0.806045 -0.348924 1.321261  -1.473652 -0.631466 -0.380709
80  -0.000000 1.789785 -0.000000  0.105709 0.066359 0.343911
81  0.000001 -0.000001 0.000000  0.347279 0.000000 1.570806
82  1.789789 0.000009 -0.000001  0.002664 0.043758 0.349800
83  0.000002 1.206998 -0.000001  0.184223 0.296076 0.568356
84  0.000001 0.000000 0.000000  0.000001 -0.000001 1.570797
85  1.207002 -0.000012 0.000004  -0.000003 0.000001 0.540798
86  0.000000 0.000000 1.000000  1.570796 -0.000000 0.000000
time 5
0  0.000005 3.335938 -8.640624  -1.570780 -1.391896 -1.570809
1  2.033356 1.000772 -1.937610  1.473119 1.855075 -0.198639
2  6.028144 -0.000001 0.000000  1.663666 1.470580 -0.913138
3  11.692554 0.000003 0.000003  -0.000000 -0.000000 -0.289364
4  11.481702 0.000003 0.000001  -1.316688 -0.082742 0.393358
5  3.859676 -0.132571 1.193109  0.432210 -0.155861 -0.861350
6  1.312557 -0.000001 0.000001  0.000000 -0.000000 -1.191973
7  0.729366 0.000000 -0.000002  0.000000 0.000000 -1.063394
8  3.942303 0.050327 0.431044  0.232421 0.000609 -0.853331
9  1.539098 -0.000001 0.000000  -0.000000 0.000000 -0.973379
10  1.196320 0.000008 -0.000002  0.000000 0.000000 -1.451289
11  3.883657 -0.050323 -0.431042  0.066987 0.050243 -0.694792
12  1.719581 0.000008 0.000000  -0.000000 0.000000 -1.251039
13  1.209184 0.000002 -0.000000  -0.000000 -0.000003 -1.141173
14  3.859839 -0.148938 -1.331284  -0.248855 0.263129 -0.072121
15  1.719416 0.000001 -0.000002  -0.000000 -0.000000 -0.676756
16  1.099672 0.000006 0.000002  0.000000 0.000000 -1.021287
17  0.806014 -0.359838 -1.318335  1.349685 0.343493 -0.771450
18  1.789783 -0.000000 -0.000003  -0.000000 -0.000000 0.397500
19  1.207001 0.000003 0.000002  -0.000000 -0.000000 0.989033
20  6.104525 -1.468680 -3.530284  -1.564198 -0.011689 -1.581440
21  3.820733 -1.409994 -0.589409  -1.564198 -0.011689 -1.581440
22  0.222829 -3.739060 1.509290  0.024887 2.851473 -1.494016
23  3.048727 6.125612 1.106841  1.596061 0.018247 -0.808184
24  3.527214 5.063570 0.216260  1.596061 0.018246 -0.808184
25  3.352950 5.114328 -0.401206  1.596061 0.018247 -0.808184
26  2.909482 4.772882 -1.012056  1.596061 0.018247 -0.808184
27  1.772478 4.476570 2.356869  1.596061 0.018247 -0.808184
28  0.000006 3.336140 -8.647861  -1.570799 -1.391898 -1.570795
29  2.033350 1.000764 1.937663  1.227517 0.585911 1.190966
30  2.026190 1.001859 1.937675  1.227511 0.585916 1.190961
31  0.000001 -0.000001 0.000004  1.583265 0.000007 1.570794
32  0.000000 6.028147 -0.000001  -0.524401 -0.493122 -0.811754
33  -0.000000 0.000010 -0.000006  -0.000002 0.000003 1.570792
34  0.000016 6.028143 -0.000012  -0.555597 0.456758 0.491772
35  0.000001 11.692571 -0.000000  -0.000000 -0.000005 -0.722263
36  0.000000 0.000001 -0.000001  0.000005 0.000000 1.570801
37  11.692580 0.000052 0.000039  0.000005 -0.000002 -0.722254
38  0.000000 11.481682 -0.000000  0.271275 0.444181 0.886805
39  -0.000000 0.000003 0.000000  0.000000 -0.000000 1.570789
40  11.481686 -0.000054 0.000007  0.458804 -0.244377 0.767842
41  0.137967 3.859865 1.332472  -1.465450 -1.619531 0.860376
42  -0.000000 0.000001 -0.000000  1.933714 0.000004 1.570794
43  3.859865 -0.137940 1.332473  0.357788 -0.048466 -0.604952
44  -0.000001 1.719429 -0.000002  -0.421357 0.202310 0.066145
45  -0.000000 0.000000 -0.000001  1.743430 0.000000 1.570798
46  1.719432 0.000006 -0.000007  0.000194 -0.009182 -0.439073
47  0.000000 1.099661 0.000003  1.022996 1.908185 1.051008
48  0.000001 -0.000001 -0.000000  -0.000002 0.000003 1.570799
49  1.099664 0.000004 0.000003  -0.000121 0.002599 -0.291408
50  0.046788 3.883690 0.431449  -0.027633 -1.505148 -0.644393
51  0.000000 0.000001 -0.000000  1.590082 0.000009 1.570787
52  3.883689 -0.046761 0.431449  0.084909 0.001804 -0.671966
53  -0.000001 1.719578 0.000003  -0.720315 0.051524 -0.006475
54  -0.000001 -0.000000 0.000003  1.538382 -0.000002 1.570794
55  1.719584 0.000017 -0.000019  -0.003918 0.016400 -0.719843
56  -0.000001 1.209180 0.000005  -1.502689 1.085448 -1.507525
57  0.000000 -0.000001 -0.000001  -0.000000 -0.000000 1.570805
58  1.209183 -0.000001 -0.000003  -0.000817 0.002971 -0.484290
59  -0.046751 3.942332 -0.431437  -0.326234 -1.473443 -0.660395
60  -0.000000 -0.000001 0.000000  1.317660 0.000000 1.570797
61  3.942328 0.046779 -0.431439  -0.160888 0.031156 -0.985183
62  0.000000 1.539088 0.000001  -0.255503 -0.026494 -0.056799
63  0.000000 -0.000001 0.000002  1.337310 -0.000004 1.570800
64  1.539093 -0.000001 0.000000  -0.000027 0.003628 -0.263042
65  0.000001 1.196324 0.000003  -1.013679 1.117887 -1.060197
66  -0.000002 -0.000000 0.000001  0.000001 -0.000001 1.570800
67  1.196327 -0.000005 0.000005  -0.000000 0.000003 -0.391714
68  0.142426 3.859710 -1.191969  -0.667404 -1.423669 -0.300938
69  -0.000001 -0.000000 0.000000  0.976757 -0.000005 1.570807
70  3.859708 -0.142399 -1.191971  -0.478161 0.090871 -0.963059
71  -0.000002 1.312568 0.000002  -0.361817 -0.138963 -0.204711
72  0.000001 0.000000 0.000004  1.078169 0.000003 1.570794
73  1.312574 -0.000010 0.000008  0.000005 -0.001127 -0.437640
74  -0.000001 0.729364 0.000002  -0.405198 1.030241 -0.463861
75  -0.000001 0.000000 0.000000  -0.000001 -0.000001 1.570795
76  0.729365 0.000003 -0.000001  0.000002 -0.000005 -0.232322
77  0.348928 0.806048 1.321259  -1.143126 -2.276804 0.650414
78  -0.000001 0.000002 0.000001  0.437032 0.000002 1.570791
79  0.806046 -0.348924 1.321260  -1.473664 -0.631519 -0.380702
80  -0.000000 1.789786 -0.000001  0.105712 0.066355 0.343954
81  0.000000 -0.000002 -0.000001  0.347279 0.000000 1.570806
82  1.789790 0.000008 -0.000004  0.002665 0.043772 0.349840
83  0.000002 1.206999 -0.000003  0.184242 0.296064 0.568423
84  0.000001 -0.000000 0.000000  0.000001 -0.000001 1.570797
85  1.207005 -0.000013 0.000003  -0.000003 0.000001 0.540863
86  0.000000 0.000000 1.000000  1.570796 -0.000000 0.000000
time 6
0  0.000005 3.335938 -8.640624  -1.570780 -1.391896 -1.570809
1  2.033356 1.000772 -1.937610  1.473119 1.855075 -0.198639
2  6.028144 -0.000001 0.000000  1.618835 1.464130 -0.961027
3  11.692555 0.000003 0.000003  0.000000 -0.000000 -0.274326
4  11.481697 0.000002 0.000001  -1.327401 -0.100797 0.436195
5  3.859679 -0.132571 1.193109  0.432210 -0.155861 -0.861350
6  1.312556 0.000000 0.000001  0.000000 -0.000000 -1.191996
7  0.729363 0.000000 -0.000004  0.000000 0.000000 -1.063394
8  3.942306 0.050327 0.431044  0.232421 0.000609 -0.853331
9  1.539100 -0.000001 0.000003  0.000000 0.000000 -0.973379
10  1.196321 0.000007 -0.000000  0.000000 -0.000000 -1.451289
11  3.883663 -0.050323 -0.431041  0.066987 0.050243 -0.694792
12  1.719578 0.000004 -0.000002  -0.000000 0.000000 -1.251039
13  1.209185 0.000004 0.000000  -0.000000 -0.000003 -1.141145
14  3.859843 -0.148938 -1.331281  -0.248855 0.263129 -0.072121
15  1.719419 0.000001 -0.000003  -0.000000 -0.000000 -0.676756
16  1.099671 0.000005 0.000002  0.000000 0.000000 -1.021287
17  0.806020 -0.359838 -1.318334  1.349685 0.343493 -0.771450
18  1.789781 0.000000 -0.000003  0.000000 -0.000000 0.397500
19  1.206996 0.000003 0.000001  -0.000000 -0.000000 0.989033
20  6.104528 -1.468679 -3.530283  -1.564198 -0.011689 -1.581440
21  3.820737 -1.409993 -0.589408  -1.564198 -0.011689 -1.581440
22  0.222829 -3.739061 1.509292  0.024887 2.851473 -1.494016
23  3.048727 6.125609 1.106841  1.596061 0.018247 -0.808184
24  3.527214 5.063566 0.216258  1.596061 0.018246 -0.808184
25  3.352950 5.114328 -0.401207  1.596061 0.018247 -0.808184
26  2.909482 4.772879 -1.012057  1.596061 0.018247 -0.808184
27  1.772478 4.476567 2.356869  1.596061 0.018247 -0.808184
28  0.000006 3.336140 -8.647861  -1.570799 -1.391898 -1.570795
29  2.033350 1.000764 1.937663  1.227517 0.585911 1.190966
30  2.026190 1.001859 1.937675  1.227511 0.585916 1.190961
31  0.000001 -0.000001 0.000004  1.583265 0.000007 1.570794
32  0.000000 6.028147 -0.000001  -0.548214 -0.488904 -0.791691
33  -0.000000 0.000009 -0.000007  -0.000002 0.000003 1.570792
34  0.000016 6.028143 -0.000012  -0.557396 0.478116 0.499796
35  -0.000001 11.692571 -0.000000  -0.000000 -0.000005 -0.735929
36  0.000000 0.000001 -0.000002  0.000005 0.000000 1.570801
37  11.692580 0.000052 0.000039  0.000005 -0.000002 -0.735920
38  -0.000000 11.481683 0.000000  0.235887 0.433704 0.915532
39  -0.000000 0.000003 -0.000000  0.000000 -0.000000 1.570789
40  11.481686 -0.000056 0.000007  0.444508 -0.213684 0.814856
41  0.137967 3.859861 1.332474  -1.465466 -1.619543 0.860407
42  -0.000000 -0.000000 0.000001  1.933714 0.000004 1.570794
43  3.859859 -0.137941 1.332475  0.357787 -0.048479 -0.604927
44  -0.000001 1.719427 -0.000001  -0.421398 0.202310 0.066145
45  0.000001 -0.000001 0.000000  1.743430 0.000000 1.570798
46  1.719431 0.000005 -0.000007  0.000194 -0.009189 -0.439114
47  0.000001 1.099661 0.000001  1.023051 1.908216 1.051066
48  0.000000 0.000001 -0.000000  -0.000002 0.000003 1.570799
49  1.099665 -0.000001 0.000002  -0.000121 0.002599 -0.291445
50  0.046788 3.883691 0.431450  -0.027522 -1.505148 -0.644496
51  0.000000 -0.000002 -0.000001  1.590082 0.000009 1.570787
52  3.883690 -0.046762 0.431449  0.084909 0.001797 -0.671960
53  0.000002 1.719571 -0.000000  -0.720332 0.051523 -0.006475
54  0.000002 0.000000 0.000002  1.538382 -0.000002 1.570794
55  1.719577 0.000014 -0.000014  -0.003918 0.016401 -0.719859
56  0.000001 1.209183 0.000004  -1.502691 1.085433 -1.507527
57  -0.000000 0.000001 -0.000002  -0.000000 -0.000000 1.570805
58  1.209185 -0.000000 -0.000002  -0.000817 0.002971 -0.484304
59  -0.046750 3.942329 -0.431437  -0.326183 -1.473444 -0.660426
60  0.000000 0.000001 -0.000001  1.317660 0.000000 1.570797
61  3.942327 0.046778 -0.431436  -0.160887 0.031151 -0.985165
62  -0.000001 1.539093 -0.000002  -0.255532 -0.026494 -0.056799
63  0.000000 0.000001 -0.000001  1.337310 -0.000004 1.570800
64  1.539095 0.000000 0.000001  -0.000027 0.003635 -0.263071
65  0.000001 1.196325 -0.000000  -1.013720 1.117854 -1.060244
66  0.000001 -0.000001 0.000000  0.000000 -0.000001 1.570800
67  1.196325 -0.000004 0.000005  -0.000000 0.000003 -0.391752
68  0.142426 3.859708 -1.191967  -0.667383 -1.423669 -0.300939
69  -0.000001 0.000000 -0.000001  0.976757 -0.000005 1.570807
70  3.859707 -0.142400 -1.191968  -0.478159 0.090869 -0.963040
71  -0.000001 1.312570 0.000001  -0.361850 -0.138964 -0.204711
72  0.000000 -0.000001 0.000001  1.078169 0.000003 1.570794
73  1.312573 -0.000012 0.000010  0.000005 -0.001111 -0.437669
74  -0.000002 0.729364 0.000003  -0.405251 1.030227 -0.463923
75  -0.000001 0.000000 -0.000002  -0.000001 -0.000001 1.570795
76  0.729367 0.000003 -0.000000  0.000001 -0.000004 -0.232357
77  0.348928 0.806048 1.321260  -1.143142 -2.276835 0.650426
78  0.000000 -0.000001 0.000002  0.437032 0.000002 1.570791
79  0.806048 -0.348924 1.321261  -1.473673 -0.631550 -0.380697
80  -0.000001 1.789785 0.000002  0.105713 0.066353 0.343978
81  0.000000 -0.000002 0.000001  0.347279 0.000000 1.570806
82  1.789790 0.000012 -0.000002  0.002666 0.043780 0.349863
83  0.000001 1.206996 -0.000001  0.184254 0.296057 0.568461
84  -0.000001 0.000001 0.000000  0.000001 -0.000001 1.570797
85  1.207002 -0.000011 0.000002  -0.000004 0.000001 0.540900
86  0.000000 0.000000 1.000000  1.570796 -0.000000 0.000000
time 7
0  0.000005 3.335938 -8.640624  -1.570780 -1.391896 -1.570809
1  2.033356 1.000772 -1.937610  1.473119 1.855075 -0.198639
2  6.028144 -0.000001 0.000000  1.598438 1.461560 -0.982926
3  11.692554 0.000001 0.000002  -0.000000 -0.000000 -0.265040
4  11.481701 0.000001 0.000000  -1.333520 -0.109722 0.458262
5  3.859673 -0.132572 1.193111  0.432210 -0.155861 -0.861350
6  1.312557 -0.000003 0.000001  0.000000 -0.000000 -1.191973
7  0.729365 0.000000 -0.000002  0.000000 0.000000 -1.063394
8  3.942303 0.050326 0.431046  0.232421 0.000609 -0.853331
9  1.539099 -0.000002 0.000002  -0.000000 0.000000 -0.973379
10  1.196322 0.000007 -0.000000  0.000000 0.000000 -1.451289
11  3.883658 -0.050325 -0.431040  0.066987 0.050243 -0.694792
12  1.719579 0.000006 -0.000000  -0.000000 0.000000 -1.251039
13  1.209183 0.000008 0.000001  -0.000000 -0.000003 -1.141145
14  3.859839 -0.148939 -1.331281  -0.248855 0.263129 -0.072121
15  1.719420 0.000001 -0.000002  0.000000 -0.000000 -0.676756
16  1.099671 0.000004 0.000003  0.000000 0.000000 -1.021288
17  0.806015 -0.359839 -1.318332  1.349685 0.343493 -0.771450
18  1.789782 0.000003 -0.000002  0.000000 0.000000 0.397500
19  1.206999 0.000003 0.000001  -0.000000 -0.000000 0.989033
20  6.104524 -1.468681 -3.530281  -1.564198 -0.011689 -1.581440
21  3.820733 -1.409995 -0.589407  -1.564198 -0.011689 -1.581440
22  0.222812 -3.739060 1.509299  0.024887 2.851473 -1.494016
23  3.048726 6.125608 1.106840  1.596061 0.018247 -0.808184
24  3.527213 5.063567 0.216261  1.596061 0.018246 -0.808184
25  3.352949 5.114326 -0.401206  1.596061 0.018247 -0.808184
26  2.909480 4.772882 -1.012056  1.596061 0.018247 -0.808184
27  1.772478 4.476569 2.356867  1.596061 0.018247 -0.808184
28  0.000006 3.336140 -8.647861  -1.570799 -1.391898 -1.570795
29  2.033350 1.000764 1.937663  1.227517 0.585911 1.190966
30  2.026190 1.001859 1.937675  1.227511 0.585916 1.190961
31  0.000001 -0.000001 0.000004  1.583265 0.000007 1.570794
32  0.000000 6.028147 -0.000001  -0.560106 -0.486683 -0.781814
33  0.000000 0.000009 -0.000006  -0.000002 0.000003 1.570792
34  0.000016 6.028143 -0.000012  -0.558293 0.488824 0.503681
35  0.000000 11.692572 0.000001  -0.000000 -0.000005 -0.742419
36  0.000001 0.000002 -0.000001  0.000005 0.000000 1.570801
37  11.692579 0.000053 0.000041  0.000005 -0.000002 -0.742410
38  0.000000 11.481682 0.000002  0.216847 0.428210 0.930003
39  -0.000000 -0.000000 0.000000  0.000000 -0.000000 1.570789
40  11.481682 -0.000055 0.000007  0.437230 -0.196991 0.838765
41  0.137968 3.859856 1.332473  -1.465475 -1.619551 0.860434
42  0.000001 -0.000003 -0.000000  1.933714 0.000004 1.570794
43  3.859859 -0.137941 1.332474  0.357787 -0.048487 -0.604915
44  0.000001 1.719423 -0.000002  -0.421419 0.202310 0.066145
45  0.000000 -0.000002 0.000004  1.743430 0.000000 1.570799
46  1.719433 0.000006 -0.000007  0.000195 -0.009193 -0.439134
47  0.000001 1.099658 0.000004  1.023078 1.908232 1.051095
48  -0.000002 0.000000 0.000000  -0.000002 0.000003 1.570799
49  1.099661 0.000002 0.000003  -0.000121 0.002599 -0.291463
50  0.046788 3.883685 0.431448  -0.027453 -1.505147 -0.644560
51  0.000001 -0.000001 -0.000002  1.590082 0.000009 1.570787
52  3.883687 -0.046761 0.431448  0.084910 0.001792 -0.671959
53  0.000000 1.719575 -0.000002  -0.720341 0.051523 -0.006475
54  0.000000 0.000000 -0.000002  1.538381 -0.000002 1.570794
55  1.719579 0.000016 -0.000017  -0.003918 0.016401 -0.719868
56  -0.000001 1.209185 0.000000  -1.502692 1.085426 -1.507529
57  -0.000002 0.000001 0.000000  -0.000000 -0.000000 1.570805
58  1.209187 0.000002 -0.000004  -0.000817 0.002971 -0.484312
59  -0.046750 3.942324 -0.431437  -0.326155 -1.473444 -0.660443
60  -0.000000 -0.000000 -0.000001  1.317660 0.000000 1.570797
61  3.942324 0.046778 -0.431439  -0.160886 0.031149 -0.985155
62  -0.000002 1.539088 -0.000000  -0.255547 -0.026494 -0.056799
63  -0.000001 0.000001 -0.000002  1.337310 -0.000004 1.570800
64  1.539094 0.000000 0.000000  -0.000028 0.003638 -0.263084
65  -0.000002 1.196321 -0.000004  -1.013741 1.117838 -1.060267
66  -0.000001 -0.000000 0.000001  0.000001 -0.000001 1.570800
67  1.196323 -0.000004 0.000001  0.000000 0.000004 -0.391770
68  0.142426 3.859704 -1.191967  -0.667368 -1.423669 -0.300944
69  -0.000000 0.000000 -0.000000  0.976757 -0.000005 1.570807
70  3.859705 -0.142400 -1.191970  -0.478157 0.090867 -0.963030
71  0.000001 1.312567 -0.000001  -0.361863 -0.138963 -0.204711
72  -0.000002 0.000000 0.000001  1.078169 0.000003 1.570794
73  1.312570 -0.000016 0.000009  0.000005 -0.001106 -0.437681
74  -0.000001 0.729362 0.000002  -0.405275 1.030221 -0.463950
75  0.000000 0.000000 0.000002  -0.000001 -0.000001 1.570795
76  0.729364 0.000002 -0.000001  0.000001 -0.000004 -0.232372
77  0.348928 0.806041 1.321259  -1.143150 -2.276848 0.650431
78  0.000000 -0.000000 -0.000000  0.437032 0.000002 1.570791
79  0.806044 -0.348924 1.321260  -1.473675 -0.631564 -0.380696
80  -0.000000 1.789782 -0.000000  0.105714 0.066351 0.343988
81  0.000000 -0.000003 0.000002  0.347279 0.000000 1.570806
82  1.789787 0.000010 -0.000002  0.002666 0.043784 0.349873
83  -0.000001 1.206998 0.000003  0.184258 0.296054 0.568477
84  -0.000000 0.000003 -0.000000  0.000001 -0.000001 1.570797
85  1.207001 -0.000009 0.000007  -0.000004 0.000001 0.540916
86  0.000000 0.000000 1.000000  1.570796 -0.000000 0.000000
time 8
0  0.000005 3.335938 -8.640624  -1.570780 -1.391896 -1.570809
1  2.033356 1.000772 -1.937610  1.473119 1.855075 -0.198639
2  6.028144 -0.000001 0.000000  1.592917 1.460905 -0.988903
3  11.692556 0.000002 0.000003  -0.000000 -0.000000 -0.262183
4  11.481701 0.000000 0.000001  -1.335318 -0.112210 0.464555
5  3.859677 -0.132570 1.193110  0.432210 -0.155861 -0.861350
6  1.312557 -0.000001 0.000000  0.000000 -0.000000 -1.191973
7  0.729363 0.000004 -0.000001  0.000000 0.000000 -1.063394
8  3.942304 0.050328 0.431047  0.232421 0.000609 -0.853331
9  1.539101 0.000002 -0.000000  0.000000 0.000000 -0.973401
10  1.196321 0.000010 0.000000  0.000000 0.000000 -1.451289
11  3.883662 -0.050323 -0.431039  0.066987 0.050243 -0.694792
12  1.719580 0.000007 -0.000001  -0.000000 0.000000 -1.251039
13  1.209184 0.000002 -0.000001  -0.000000 -0.000003 -1.141145
14  3.859842 -0.148937 -1.331281  -0.248855 0.263129 -0.072121
15  1.719418 0.000001 -0.000000  0.000000 -0.000000 -0.676756
16  1.099669 0.000007 0.000003  0.000000 0.000000 -1.021287
17  0.806018 -0.359838 -1.318333  1.349685 0.343493 -0.771450
18  1.789783 0.000001 -0.000003  0.000000 0.000000 0.397500
19  1.206999 0.000003 -0.000001  -0.000000 -0.000000 0.989033
20  6.104527 -1.468679 -3.530282  -1.564198 -0.011689 -1.581440
21  3.820733 -1.409993 -0.589407  -1.564198 -0.011689 -1.581440
22  0.222825 -3.739059 1.509293  0.024887 2.851473 -1.494016
23  3.048727 6.125613 1.106841  1.596061 0.018247 -0.808184
24  3.527215 5.063569 0.216259  1.596061 0.018246 -0.808184
25  3.352950 5.114329 -0.401207  1.596061 0.018247 -0.808184
26  2.909482 4.772883 -1.012058  1.596061 0.018247 -0.808184
27  1.772479 4.476572 2.356867  1.596061 0.018247 -0.808184
28  0.000006 3.336140 -8.647861  -1.570799 -1.391898 -1.570795
29  2.033350 1.000764 1.937663  1.227517 0.585911 1.190966
30  2.026190 1.001859 1.937675  1.227511 0.585916 1.190961
31  0.000001 -0.000001 0.000004  1.583265 0.000007 1.570794
32  0.000000 6.028147 -0.000001  -0.563462 -0.486059 -0.779066
33  -0.000000 0.000010 -0.000005  -0.000002 0.000003 1.570792
34  0.000016 6.028143 -0.000012  -0.558563 0.491847 0.504734
35  0.000000 11.692571 0.000000  -0.000000 -0.000005 -0.744156
36  0.000001 0.000002 -0.000001  0.000005 0.000000 1.570801
37  11.692580 0.000052 0.000039  0.000005 -0.000001 -0.744147
38  0.000001 11.481683 0.000001  0.211307 0.426694 0.934083
39  0.000000 -0.000003 0.000000  0.000000 -0.000000 1.570789
40  11.481682 -0.000053 0.000009  0.435229 -0.192106 0.845529
41  0.137967 3.859856 1.332473  -1.465479 -1.619553 0.860442
42  0.000000 -0.000003 -0.000001  1.933714 0.000004 1.570794
43  3.859859 -0.137940 1.332475  0.357787 -0.048489 -0.604910
44  0.000000 1.719427 -0.000000  -0.421426 0.202310 0.066145
45  0.000000 -0.000000 -0.000002  1.743430 0.000000 1.570798
46  1.719431 0.000008 -0.000007  0.000194 -0.009194 -0.439141
47  0.000000 1.099660 -0.000000  1.023086 1.908237 1.051103
48  0.000003 -0.000000 0.000001  -0.000002 0.000003 1.570799
49  1.099662 0.000002 0.000002  -0.000121 0.002600 -0.291469
50  0.046788 3.883685 0.431450  -0.027448 -1.505147 -0.644568
51  0.000000 -0.000002 0.000000  1.590082 0.000009 1.570787
52  3.883687 -0.046761 0.431450  0.084910 0.001792 -0.671956
53  -0.000000 1.719573 0.000000  -0.720343 0.051523 -0.006475
54  0.000000 -0.000001 0.000001  1.538381 -0.000002 1.570794
55  1.719579 0.000014 -0.000016  -0.003919 0.016401 -0.719871
56  0.000001 1.209182 0.000002  -1.502692 1.085423 -1.507529
57  0.000001 -0.000001 0.000000  -0.000000 -0.000000 1.570805
58  1.209186 -0.000002 -0.000001  -0.000817 0.002971 -0.484315
59  -0.046751 3.942321 -0.431435  -0.326144 -1.473444 -0.660450
60  0.000000 0.000001 -0.000001  1.317660 0.000000 1.570797
61  3.942324 0.046778 -0.431436  -0.160886 0.031148 -0.985150
62  0.000000 1.539091 -0.000000  -0.255552 -0.026494 -0.056799
63  0.000001 0.000000 -0.000003  1.337310 -0.000004 1.570800
64  1.539096 -0.000002 0.000003  -0.000027 0.003639 -0.263090
65  -0.000001 1.196322 -0.000004  -1.013749 1.117832 -1.060276
66  0.000002 -0.000000 0.000001  0.000000 -0.000001 1.570800
67  1.196326 -0.000005 0.000002  0.000000 0.000004 -0.391778
68  0.142426 3.859702 -1.191966  -0.667365 -1.423668 -0.300943
69  -0.000001 0.000000 -0.000001  0.976757 -0.000005 1.570807
70  3.859705 -0.142399 -1.191968  -0.478156 0.090867 -0.963026
71  0.000000 1.312567 -0.000002  -0.361869 -0.138963 -0.204711
72  0.000000 -0.000001 0.000002  1.078169 0.000003 1.570794
73  1.312569 -0.000015 0.000007  0.000005 -0.001103 -0.437686
74  -0.000001 0.729363 0.000005  -0.405285 1.030218 -0.463962
75  0.000002 -0.000000 -0.000000  -0.000001 -0.000001 1.570795
76  0.729367 0.000003 -0.000001  0.000001 -0.000004 -0.232379
77  0.348927 0.806039 1.321260  -1.143152 -2.276854 0.650434
78  0.000000 -0.000001 -0.000000  0.437032 0.000002 1.570791
79  0.806044 -0.348923 1.321261  -1.473677 -0.631569 -0.380694
80  0.000000 1.789781 -0.000001  0.105714 0.066351 0.343993
81  0.000001 -0.000001 -0.000000  0.347279 0.000000 1.570806
82  1.789788 0.000011 -0.000001  0.002667 0.043785 0.349877
83  0.000000 1.207001 0.000002  0.184261 0.296053 0.568485
84  0.000000 -0.000000 -0.000001  0.000001 -0.000001 1.570797
85  1.207006 -0.000008 0.000005  -0.000004 0.000001 0.540923
86  0.000000 0.000000 1.000000  1.570796 -0.000000 0.000000
end
