// Created by Crowbar 0.74
version 1
nodes
  0 "ValveBiped.Bip01_Spine4" -1
  1 "ValveBiped.Bip01_L_Clavicle" 0
  2 "ValveBiped.Bip01_L_UpperArm" 1
  3 "ValveBiped.Bip01_L_Forearm" 2
  4 "ValveBiped.Bip01_L_Hand" 3
  5 "ValveBiped.Bip01_L_Finger4" 4
  6 "ValveBiped.Bip01_L_Finger41" 5
  7 "ValveBiped.Bip01_L_Finger42" 6
  8 "ValveBiped.Bip01_L_Finger3" 4
  9 "ValveBiped.Bip01_L_Finger31" 8
  10 "ValveBiped.Bip01_L_Finger32" 9
  11 "ValveBiped.Bip01_L_Finger2" 4
  12 "ValveBiped.Bip01_L_Finger21" 11
  13 "ValveBiped.Bip01_L_Finger22" 12
  14 "ValveBiped.Bip01_L_Finger1" 4
  15 "ValveBiped.Bip01_L_Finger11" 14
  16 "ValveBiped.Bip01_L_Finger12" 15
  17 "ValveBiped.Bip01_L_Finger0" 4
  18 "ValveBiped.Bip01_L_Finger01" 17
  19 "ValveBiped.Bip01_L_Finger02" 18
  20 "ValveBiped.Bip01_R_Clavicle" 0
  21 "ValveBiped.Bip01_R_UpperArm" 20
  22 "ValveBiped.Bip01_R_Forearm" 21
  23 "ValveBiped.Bip01_R_Hand" 22
  24 "ValveBiped.Bip01_R_Finger4" 23
  25 "ValveBiped.Bip01_R_Finger41" 24
  26 "ValveBiped.Bip01_R_Finger42" 25
  27 "ValveBiped.Bip01_R_Finger3" 23
  28 "ValveBiped.Bip01_R_Finger31" 27
  29 "ValveBiped.Bip01_R_Finger32" 28
  30 "ValveBiped.Bip01_R_Finger2" 23
  31 "ValveBiped.Bip01_R_Finger21" 30
  32 "ValveBiped.Bip01_R_Finger22" 31
  33 "ValveBiped.Bip01_R_Finger1" 23
  34 "ValveBiped.Bip01_R_Finger11" 33
  35 "ValveBiped.Bip01_R_Finger12" 34
  36 "ValveBiped.Bip01_R_Finger0" 23
  37 "ValveBiped.Bip01_R_Finger01" 36
  38 "ValveBiped.Bip01_R_Finger02" 37
  39 "ValveBiped.Grenade_body" 23
  40 "ValveBiped.Pin" 39
end
skeleton
  time 0
    0 -0.999512 -0.744141 -9.226563 -1.570781 -1.391896 -1.570809
    1 2.033349 1.000767 1.937660 1.596637 -1.286515 2.942961
    2 6.028141 0.000000 0.000000 -1.578696 -0.408157 -1.282402
    3 11.692554 0.000001 0.000002 0.000000 0.000000 -1.224249
    4 11.481674 0.000001 -0.000032 1.573168 -0.028074 0.044378
    5 3.859709 -0.142404 -1.191975 -0.476793 0.134331 -0.965122
    6 1.312555 -0.000002 0.000001 0.000000 0.000000 -0.279217
    7 0.729363 -0.000002 -0.000002 0.000000 0.000000 -0.096880
    8 3.942335 0.046767 -0.431443 -0.145075 0.087431 -0.741676
    9 1.539097 0.000000 0.000000 0.000000 0.000000 -0.309316
    10 1.196326 -0.000002 -0.000001 0.000000 0.000000 -0.521199
    11 3.883696 -0.046765 0.431443 0.085902 0.021830 -0.587867
    12 1.719570 -0.000004 -0.000001 0.000000 0.005516 -0.366478
    13 1.209171 -0.000002 0.000000 0.000000 0.003084 -0.216400
    14 3.859865 -0.137947 1.332466 0.354449 -0.042750 -0.531718
    15 1.719429 0.000002 -0.000001 0.000000 0.004074 -0.363009
    16 1.099665 0.000000 0.000000 0.000000 0.002596 -0.244331
    17 0.806053 -0.348925 1.321258 -1.166382 -0.626621 -0.921969
    18 1.789780 -0.000002 0.000002 0.000000 0.000000 0.189105
    19 1.207006 0.000000 0.000000 0.000000 0.000000 0.306015
    20 2.033356 1.000772 -1.937610 -1.668474 1.286518 2.942953
    21 6.028144 0.000000 0.000000 2.267165 0.039713 0.320517
    22 11.692554 0.000001 0.000003 0.000000 0.000000 -1.533438
    23 11.481697 0.000001 0.000002 -1.060678 0.385396 0.003059
    24 3.859678 -0.132570 1.193109 0.455450 -0.193397 -0.842456
    25 1.312557 -0.000002 0.000001 0.000000 0.000000 -0.517222
    26 0.729365 0.000002 -0.000002 0.000000 0.000000 -0.174086
    27 3.942305 0.050327 0.431044 0.155890 -0.058709 -0.880262
    28 1.539099 -0.000002 0.000000 0.000000 0.000000 -0.247837
    29 1.196321 0.000008 0.000000 0.000000 0.000000 -0.751741
    30 3.883661 -0.050323 -0.431042 -0.079409 -0.041025 -0.763894
    31 1.719578 0.000004 0.000000 0.000000 -0.007973 -0.582418
    32 1.209185 0.000002 0.000000 0.000001 -0.004461 -0.471628
    33 3.859838 -0.148937 -1.331282 -0.350884 -0.029422 -0.716173
    34 1.719423 0.000002 0.000000 0.000000 -0.006613 -0.578944
    35 1.099667 0.000002 0.000000 0.000000 -0.004211 -0.597738
    36 0.806021 -0.359837 -1.318334 1.096830 0.367429 -1.417071
    37 1.789782 0.000000 -0.000004 0.000000 0.000000 0.265284
    38 1.206999 0.000003 0.000002 0.000000 0.000000 0.310702
    39 -23.813709 8.349626 -1.804134 0.000000 0.000000 0.000000
    40 -29.453125 -11.093750 6.648438 0.000000 0.000000 0.000000
  time 1
    0 -0.999512 -0.744141 -9.226563 -1.570781 -1.391896 -1.570809
    1 2.033349 1.000767 1.937660 1.596637 -1.286515 2.942961
    2 6.028141 0.000000 0.000000 -1.578696 -0.408157 -1.282402
    3 11.692554 0.000001 0.000002 0.000000 0.000000 -1.224249
    4 11.481674 0.000001 -0.000032 1.573168 -0.028074 0.044378
    5 3.859709 -0.142404 -1.191975 -0.476793 0.134331 -0.965122
    6 1.312555 -0.000002 0.000001 0.000000 0.000000 -0.279217
    7 0.729363 -0.000002 -0.000002 0.000000 0.000000 -0.096880
    8 3.942335 0.046767 -0.431443 -0.145075 0.087431 -0.741676
    9 1.539097 0.000000 0.000000 0.000000 0.000000 -0.309316
    10 1.196326 -0.000002 -0.000001 0.000000 0.000000 -0.521199
    11 3.883696 -0.046765 0.431443 0.085902 0.021830 -0.587867
    12 1.719570 -0.000004 -0.000001 0.000000 0.005516 -0.366478
    13 1.209171 -0.000002 0.000000 0.000000 0.003084 -0.216400
    14 3.859865 -0.137947 1.332466 0.354449 -0.042750 -0.531718
    15 1.719429 0.000002 -0.000001 0.000000 0.004074 -0.363009
    16 1.099665 0.000000 0.000000 0.000000 0.002596 -0.244331
    17 0.806053 -0.348925 1.321258 -1.166382 -0.626621 -0.921969
    18 1.789780 -0.000002 0.000002 0.000000 0.000000 0.189105
    19 1.207006 0.000000 0.000000 0.000000 0.000000 0.306015
    20 2.033356 1.000772 -1.937610 -1.668474 1.286518 2.942953
    21 6.028144 0.000000 0.000000 2.328960 0.387199 0.588206
    22 11.692554 0.000001 0.000003 0.000000 0.000000 -1.206536
    23 11.481697 0.000001 0.000002 -1.308529 0.442034 -0.021127
    24 3.859678 -0.132570 1.193109 0.422972 -0.280441 -0.661612
    25 1.312557 -0.000002 0.000001 0.000000 0.000000 -0.517222
    26 0.729365 0.000002 -0.000002 0.000000 0.000000 -0.174086
    27 3.942305 0.050327 0.431044 0.137219 -0.098438 -0.617364
    28 1.539099 -0.000002 0.000000 0.000000 0.000000 -0.247837
    29 1.196321 0.000008 0.000000 0.000000 0.000000 -0.751741
    30 3.883661 -0.050323 -0.431042 -0.089440 -0.012622 -0.431194
    31 1.719578 0.000004 0.000000 0.000000 -0.007973 -0.582418
    32 1.209185 0.000002 0.000000 0.000001 -0.004461 -0.471628
    33 3.859838 -0.148937 -1.331282 -0.354467 0.007167 -0.542606
    34 1.719423 0.000002 0.000000 0.000000 -0.006613 -0.451321
    35 1.099667 0.000002 0.000000 0.000000 -0.004211 -0.391567
    36 0.806021 -0.359837 -1.318334 1.112614 0.401585 -1.325332
    37 1.789782 0.000000 -0.000004 0.000000 0.000000 0.265284
    38 1.206999 0.000003 0.000002 0.000000 0.000000 0.310702
    39 -33.837452 10.330155 -2.761194 0.000000 0.000000 0.000000
    40 -29.453125 -11.093750 6.648438 0.000000 0.000000 0.000000
  time 2
    0 -0.999512 -0.744141 -9.226563 -1.570781 -1.391896 -1.570809
    1 2.033349 1.000767 1.937660 1.596637 -1.286515 2.942961
    2 6.028141 0.000000 0.000000 -1.578696 -0.408157 -1.282402
    3 11.692554 0.000001 0.000002 0.000000 0.000000 -1.224249
    4 11.481674 0.000001 -0.000032 1.573168 -0.028074 0.044378
    5 3.859709 -0.142404 -1.191975 -0.476793 0.134331 -0.965122
    6 1.312555 -0.000002 0.000001 0.000000 0.000000 -0.279217
    7 0.729363 -0.000002 -0.000002 0.000000 0.000000 -0.096880
    8 3.942335 0.046767 -0.431443 -0.145075 0.087431 -0.741676
    9 1.539097 0.000000 0.000000 0.000000 0.000000 -0.309316
    10 1.196326 -0.000002 -0.000001 0.000000 0.000000 -0.521199
    11 3.883696 -0.046765 0.431443 0.085902 0.021830 -0.587867
    12 1.719570 -0.000004 -0.000001 0.000000 0.005516 -0.366478
    13 1.209171 -0.000002 0.000000 0.000000 0.003084 -0.216400
    14 3.859865 -0.137947 1.332466 0.354449 -0.042750 -0.531718
    15 1.719429 0.000002 -0.000001 0.000000 0.004074 -0.363009
    16 1.099665 0.000000 0.000000 0.000000 0.002596 -0.244331
    17 0.806053 -0.348925 1.321258 -1.166382 -0.626621 -0.921969
    18 1.789780 -0.000002 0.000002 0.000000 0.000000 0.189105
    19 1.207006 0.000000 0.000000 0.000000 0.000000 0.306015
    20 2.033356 1.000772 -1.937610 -1.668474 1.286518 2.942953
    21 6.028144 0.000000 0.000000 2.667752 0.825596 0.992921
    22 11.692554 0.000001 0.000003 0.000000 0.000000 -0.539398
    23 11.481697 0.000001 0.000002 -1.636774 0.395759 -0.050077
    24 3.859678 -0.132570 1.193109 0.373415 -0.360222 -0.472801
    25 1.312557 -0.000002 0.000001 0.000000 0.000000 -0.517222
    26 0.729365 0.000002 -0.000002 0.000000 0.000000 -0.174086
    27 3.942305 0.050327 0.431044 0.108695 -0.131935 -0.352664
    28 1.539099 -0.000002 0.000000 0.000000 0.000000 -0.247824
    29 1.196321 0.000008 0.000000 0.000000 0.000000 -0.751741
    30 3.883661 -0.050323 -0.431042 -0.089668 0.017508 -0.098762
    31 1.719578 0.000004 0.000000 0.000000 -0.007973 -0.582418
    32 1.209185 0.000002 0.000000 0.000001 -0.004461 -0.471628
    33 3.859838 -0.148937 -1.331282 -0.336238 0.076798 -0.253052
    34 1.719423 0.000002 0.000000 0.000000 -0.006613 -0.323709
    35 1.099667 0.000002 0.000000 0.000000 -0.004211 -0.185408
    36 0.806021 -0.359837 -1.318334 1.168139 0.456366 -1.105845
    37 1.789782 0.000000 -0.000004 0.000000 0.000000 0.265284
    38 1.206999 0.000003 0.000002 0.000000 0.000000 0.310702
    39 -34.997644 5.826111 2.133486 0.000000 0.000000 0.000000
    40 -29.453125 -11.093750 6.648438 0.000000 0.000000 0.000000
  time 3
    0 -0.999512 -0.744141 -9.226563 -1.570781 -1.391896 -1.570809
    1 2.033349 1.000767 1.937660 1.596637 -1.286515 2.942961
    2 6.028141 0.000000 0.000000 -1.578696 -0.408157 -1.282402
    3 11.692554 0.000001 0.000002 0.000000 0.000000 -1.224249
    4 11.481674 0.000001 -0.000032 1.573168 -0.028074 0.044378
    5 3.859709 -0.142404 -1.191975 -0.476793 0.134331 -0.965122
    6 1.312555 -0.000002 0.000001 0.000000 0.000000 -0.279217
    7 0.729363 -0.000002 -0.000002 0.000000 0.000000 -0.096880
    8 3.942335 0.046767 -0.431443 -0.145075 0.087431 -0.741676
    9 1.539097 0.000000 0.000000 0.000000 0.000000 -0.309316
    10 1.196326 -0.000002 -0.000001 0.000000 0.000000 -0.521199
    11 3.883696 -0.046765 0.431443 0.085902 0.021830 -0.587867
    12 1.719570 -0.000004 -0.000001 0.000000 0.005516 -0.366478
    13 1.209171 -0.000002 0.000000 0.000000 0.003084 -0.216400
    14 3.859865 -0.137947 1.332466 0.354449 -0.042750 -0.531718
    15 1.719429 0.000002 -0.000001 0.000000 0.004074 -0.363009
    16 1.099665 0.000000 0.000000 0.000000 0.002596 -0.244331
    17 0.806053 -0.348925 1.321258 -1.166382 -0.626621 -0.921969
    18 1.789780 -0.000002 0.000002 0.000000 0.000000 0.189105
    19 1.207006 0.000000 0.000000 0.000000 0.000000 0.306015
    20 2.033356 1.000772 -1.937610 -1.668474 1.286518 2.942953
    21 6.028144 0.000000 0.000000 3.053666 1.078976 1.094138
    22 11.692554 0.000001 0.000003 0.000000 0.000000 -0.393105
    23 11.481697 0.000001 0.000002 -1.911727 0.251553 -0.109808
    24 3.859678 -0.132570 1.193109 0.373415 -0.360222 -0.472801
    25 1.312557 -0.000002 0.000001 0.000000 0.000000 -0.517222
    26 0.729365 0.000002 -0.000002 0.000000 0.000000 -0.174086
    27 3.942305 0.050327 0.431044 0.108695 -0.131935 -0.352664
    28 1.539099 -0.000002 0.000000 0.000000 0.000000 -0.247837
    29 1.196321 0.000008 0.000000 0.000000 0.000000 -0.751741
    30 3.883661 -0.050323 -0.431042 -0.089668 0.017508 -0.098762
    31 1.719578 0.000004 0.000000 0.000000 -0.007973 -0.582418
    32 1.209185 0.000002 0.000000 0.000001 -0.004461 -0.471628
    33 3.859838 -0.148937 -1.331282 -0.288252 0.167785 0.040759
    34 1.719423 0.000002 0.000000 0.000000 -0.006613 -0.323709
    35 1.099667 0.000002 0.000000 0.000000 -0.004211 -0.185408
    36 0.806021 -0.359837 -1.318334 1.236067 0.481438 -0.870435
    37 1.789782 0.000000 -0.000004 0.000000 0.000000 0.265284
    38 1.206999 0.000003 0.000002 0.000000 0.000000 0.310702
    39 -34.173400 5.388598 4.371836 0.000000 0.000000 0.000000
    40 -29.453125 -11.093750 6.648438 0.000000 0.000000 0.000000
  time 4
    0 -0.999512 -0.744141 -9.226563 -1.570781 -1.391896 -1.570809
    1 2.033349 1.000767 1.937660 1.596637 -1.286515 2.942961
    2 6.028141 0.000000 0.000000 -1.578696 -0.408157 -1.282402
    3 11.692554 0.000001 0.000002 0.000000 0.000000 -1.224249
    4 11.481674 0.000001 -0.000032 1.573168 -0.028074 0.044378
    5 3.859709 -0.142404 -1.191975 -0.476793 0.134331 -0.965122
    6 1.312555 -0.000002 0.000001 0.000000 0.000000 -0.279217
    7 0.729363 -0.000002 -0.000002 0.000000 0.000000 -0.096880
    8 3.942335 0.046767 -0.431443 -0.145075 0.087431 -0.741676
    9 1.539097 0.000000 0.000000 0.000000 0.000000 -0.309316
    10 1.196326 -0.000002 -0.000001 0.000000 0.000000 -0.521199
    11 3.883696 -0.046765 0.431443 0.085902 0.021830 -0.587867
    12 1.719570 -0.000004 -0.000001 0.000000 0.005516 -0.366478
    13 1.209171 -0.000002 0.000000 0.000000 0.003084 -0.216400
    14 3.859865 -0.137947 1.332466 0.354449 -0.042750 -0.531718
    15 1.719429 0.000002 -0.000001 0.000000 0.004074 -0.363009
    16 1.099665 0.000000 0.000000 0.000000 0.002596 -0.244331
    17 0.806053 -0.348925 1.321258 -1.166382 -0.626621 -0.921969
    18 1.789780 -0.000002 0.000002 0.000000 0.000000 0.189105
    19 1.207006 0.000000 0.000000 0.000000 0.000000 0.306015
    20 2.033356 1.000772 -1.937610 -1.668474 1.286518 2.942953
    21 6.028144 0.000000 0.000000 3.180454 1.278568 0.922330
    22 11.692554 0.000001 0.000003 0.000000 0.000000 -0.492083
    23 11.481697 0.000001 0.000002 -2.097121 0.104065 -0.069315
    24 3.859678 -0.132570 1.193109 0.373415 -0.360222 -0.472801
    25 1.312557 -0.000002 0.000001 0.000000 0.000000 -0.517222
    26 0.729365 0.000002 -0.000002 0.000000 0.000000 -0.174086
    27 3.942305 0.050327 0.431044 0.108695 -0.131935 -0.352664
    28 1.539099 -0.000002 0.000000 0.000000 0.000000 -0.247837
    29 1.196321 0.000008 0.000000 0.000000 0.000000 -0.751741
    30 3.883661 -0.050323 -0.431042 -0.089668 0.017508 -0.098762
    31 1.719578 0.000004 0.000000 0.000000 -0.007973 -0.582418
    32 1.209185 0.000002 0.000000 0.000001 -0.004461 -0.471628
    33 3.859838 -0.148937 -1.331282 -0.246090 0.220349 0.221756
    34 1.719423 0.000002 0.000000 0.000000 -0.006613 -0.323709
    35 1.099667 0.000002 0.000000 0.000000 -0.004211 -0.185408
    36 0.806021 -0.359837 -1.318334 1.266208 0.483284 -0.761111
    37 1.789782 0.000000 -0.000004 0.000000 0.000000 0.265284
    38 1.206999 0.000003 0.000002 0.000000 0.000000 0.310702
    39 -35.474221 6.947239 3.059296 0.000000 0.000000 0.000000
    40 -29.453125 -11.093750 6.648438 0.000000 0.000000 0.000000
  time 5
    0 -0.999512 -0.744141 -9.226563 -1.570781 -1.391896 -1.570809
    1 2.033349 1.000767 1.937660 1.596637 -1.286515 2.942961
    2 6.028141 0.000000 0.000000 -1.578696 -0.408157 -1.282402
    3 11.692554 0.000001 0.000002 0.000000 0.000000 -1.224249
    4 11.481674 0.000001 -0.000032 1.573168 -0.028074 0.044378
    5 3.859709 -0.142404 -1.191975 -0.476793 0.134331 -0.965122
    6 1.312555 -0.000002 0.000001 0.000000 0.000000 -0.279217
    7 0.729363 -0.000002 -0.000002 0.000000 0.000000 -0.096880
    8 3.942335 0.046767 -0.431443 -0.145075 0.087431 -0.741676
    9 1.539097 0.000000 0.000000 0.000000 0.000000 -0.309316
    10 1.196326 -0.000002 -0.000001 0.000000 0.000000 -0.521199
    11 3.883696 -0.046765 0.431443 0.085902 0.021830 -0.587867
    12 1.719570 -0.000004 -0.000001 0.000000 0.005516 -0.366478
    13 1.209171 -0.000002 0.000000 0.000000 0.003084 -0.216400
    14 3.859865 -0.137947 1.332466 0.354449 -0.042750 -0.531718
    15 1.719429 0.000002 -0.000001 0.000000 0.004074 -0.363009
    16 1.099665 0.000000 0.000000 0.000000 0.002596 -0.244331
    17 0.806053 -0.348925 1.321258 -1.166382 -0.626621 -0.921969
    18 1.789780 -0.000002 0.000002 0.000000 0.000000 0.189105
    19 1.207006 0.000000 0.000000 0.000000 0.000000 0.306015
    20 2.033356 1.000772 -1.937610 -1.668474 1.286518 2.942953
    21 6.028144 0.000000 0.000000 2.019091 1.369990 -0.504867
    22 11.692554 0.000001 0.000003 0.000000 0.000000 -0.822092
    23 11.481697 0.000001 0.000002 -2.218199 0.018878 0.279027
    24 3.859678 -0.132570 1.193109 0.373415 -0.360222 -0.472801
    25 1.312557 -0.000002 0.000001 0.000000 0.000000 -0.517222
    26 0.729365 0.000002 -0.000002 0.000000 0.000000 -0.174086
    27 3.942305 0.050327 0.431044 0.108695 -0.131935 -0.352664
    28 1.539099 -0.000002 0.000000 0.000000 0.000000 -0.247824
    29 1.196321 0.000008 0.000000 0.000000 0.000000 -0.751741
    30 3.883661 -0.050323 -0.431042 -0.089668 0.017508 -0.098762
    31 1.719578 0.000004 0.000000 0.000000 -0.007973 -0.582418
    32 1.209185 0.000002 0.000000 0.000001 -0.004461 -0.471628
    33 3.859838 -0.148937 -1.331282 -0.246090 0.220349 0.221756
    34 1.719423 0.000002 0.000000 0.000000 -0.006613 -0.323709
    35 1.099667 0.000002 0.000000 0.000000 -0.004211 -0.185408
    36 0.806021 -0.359837 -1.318334 1.266208 0.483284 -0.761111
    37 1.789782 0.000000 -0.000004 0.000000 0.000000 0.265284
    38 1.206999 0.000003 0.000002 0.000000 0.000000 0.310702
    39 -35.474221 6.947239 3.059296 0.000000 0.000000 0.000000
    40 -29.453125 -11.093750 6.648438 0.000000 0.000000 0.000000
  time 6
    0 -0.999512 -0.744141 -9.226563 -1.570781 -1.391896 -1.570809
    1 2.033349 1.000767 1.937660 1.596637 -1.286515 2.942961
    2 6.028141 0.000000 0.000000 -1.578696 -0.408157 -1.282402
    3 11.692554 0.000001 0.000002 0.000000 0.000000 -1.224249
    4 11.481674 0.000001 -0.000032 1.573168 -0.028074 0.044378
    5 3.859709 -0.142404 -1.191975 -0.476793 0.134331 -0.965122
    6 1.312555 -0.000002 0.000001 0.000000 0.000000 -0.279217
    7 0.729363 -0.000002 -0.000002 0.000000 0.000000 -0.096880
    8 3.942335 0.046767 -0.431443 -0.145075 0.087431 -0.741676
    9 1.539097 0.000000 0.000000 0.000000 0.000000 -0.309316
    10 1.196326 -0.000002 -0.000001 0.000000 0.000000 -0.521199
    11 3.883696 -0.046765 0.431443 0.085902 0.021830 -0.587867
    12 1.719570 -0.000004 -0.000001 0.000000 0.005516 -0.366478
    13 1.209171 -0.000002 0.000000 0.000000 0.003084 -0.216400
    14 3.859865 -0.137947 1.332466 0.354449 -0.042750 -0.531718
    15 1.719429 0.000002 -0.000001 0.000000 0.004074 -0.363009
    16 1.099665 0.000000 0.000000 0.000000 0.002596 -0.244331
    17 0.806053 -0.348925 1.321258 -1.166382 -0.626621 -0.921969
    18 1.789780 -0.000002 0.000002 0.000000 0.000000 0.189105
    19 1.207006 0.000000 0.000000 0.000000 0.000000 0.306015
    20 2.033356 1.000772 -1.937610 -1.668474 1.286518 2.942953
    21 6.028144 0.000000 0.000000 1.382658 1.176620 -1.304446
    22 11.692554 0.000001 0.000003 0.000000 0.000000 -1.009535
    23 11.481697 0.000001 0.000002 -2.273196 -0.004010 0.544246
    24 3.859678 -0.132570 1.193109 0.373415 -0.360222 -0.472801
    25 1.312557 -0.000002 0.000001 0.000000 0.000000 -0.517222
    26 0.729365 0.000002 -0.000002 0.000000 0.000000 -0.174086
    27 3.942305 0.050327 0.431044 0.108695 -0.131935 -0.352664
    28 1.539099 -0.000002 0.000000 0.000000 0.000000 -0.247824
    29 1.196321 0.000008 0.000000 0.000000 0.000000 -0.751741
    30 3.883661 -0.050323 -0.431042 -0.089668 0.017508 -0.098762
    31 1.719578 0.000004 0.000000 0.000000 -0.007973 -0.582418
    32 1.209185 0.000002 0.000000 0.000001 -0.004461 -0.471628
    33 3.859838 -0.148937 -1.331282 -0.246090 0.220349 0.221779
    34 1.719423 0.000002 0.000000 0.000000 -0.006613 -0.323709
    35 1.099667 0.000002 0.000000 0.000000 -0.004211 -0.185408
    36 0.806021 -0.359837 -1.318334 1.266208 0.483284 -0.761111
    37 1.789782 0.000000 -0.000004 0.000000 0.000000 0.265284
    38 1.206999 0.000003 0.000002 0.000000 0.000000 0.310702
    39 -35.474221 6.947239 3.059296 0.000000 0.000000 0.000000
    40 -29.453125 -11.093750 6.648438 0.000000 0.000000 0.000000
  time 7
    0 -0.999512 -0.744141 -9.226563 -1.570781 -1.391896 -1.570809
    1 2.033349 1.000767 1.937660 1.596637 -1.286515 2.942961
    2 6.028141 0.000000 0.000000 -1.578696 -0.408157 -1.282402
    3 11.692554 0.000001 0.000002 0.000000 0.000000 -1.224249
    4 11.481674 0.000001 -0.000032 1.573168 -0.028074 0.044378
    5 3.859709 -0.142404 -1.191975 -0.476793 0.134331 -0.965122
    6 1.312555 -0.000002 0.000001 0.000000 0.000000 -0.279217
    7 0.729363 -0.000002 -0.000002 0.000000 0.000000 -0.096880
    8 3.942335 0.046767 -0.431443 -0.145075 0.087431 -0.741676
    9 1.539097 0.000000 0.000000 0.000000 0.000000 -0.309316
    10 1.196326 -0.000002 -0.000001 0.000000 0.000000 -0.521199
    11 3.883696 -0.046765 0.431443 0.085902 0.021830 -0.587867
    12 1.719570 -0.000004 -0.000001 0.000000 0.005516 -0.366478
    13 1.209171 -0.000002 0.000000 0.000000 0.003084 -0.216400
    14 3.859865 -0.137947 1.332466 0.354449 -0.042750 -0.531718
    15 1.719429 0.000002 -0.000001 0.000000 0.004074 -0.363009
    16 1.099665 0.000000 0.000000 0.000000 0.002596 -0.244331
    17 0.806053 -0.348925 1.321258 -1.166382 -0.626621 -0.921969
    18 1.789780 -0.000002 0.000002 0.000000 0.000000 0.189105
    19 1.207006 0.000000 0.000000 0.000000 0.000000 0.306015
    20 2.033356 1.000772 -1.937610 -1.668474 1.286518 2.942953
    21 6.028144 0.000000 0.000000 1.253754 0.986915 -1.518167
    22 11.692554 0.000001 0.000003 0.000000 0.000000 -1.091356
    23 11.481697 0.000001 0.000002 -2.273196 -0.004010 0.544246
    24 3.859678 -0.132570 1.193109 0.373415 -0.360222 -0.472801
    25 1.312557 -0.000002 0.000001 0.000000 0.000000 -0.517222
    26 0.729365 0.000002 -0.000002 0.000000 0.000000 -0.174086
    27 3.942305 0.050327 0.431044 0.108695 -0.131935 -0.352664
    28 1.539099 -0.000002 0.000000 0.000000 0.000000 -0.247824
    29 1.196321 0.000008 0.000000 0.000000 0.000000 -0.751741
    30 3.883661 -0.050323 -0.431042 -0.089668 0.017508 -0.098762
    31 1.719578 0.000004 0.000000 0.000000 -0.007973 -0.582418
    32 1.209185 0.000002 0.000000 0.000001 -0.004461 -0.471628
    33 3.859838 -0.148937 -1.331282 -0.246090 0.220349 0.221756
    34 1.719423 0.000002 0.000000 0.000000 -0.006613 -0.323709
    35 1.099667 0.000002 0.000000 0.000000 -0.004211 -0.185408
    36 0.806021 -0.359837 -1.318334 1.266208 0.483284 -0.761111
    37 1.789782 0.000000 -0.000004 0.000000 0.000000 0.265284
    38 1.206999 0.000003 0.000002 0.000000 0.000000 0.310702
    39 -35.474221 6.947239 3.059296 0.000000 0.000000 0.000000
    40 -29.453125 -11.093750 6.648438 0.000000 0.000000 0.000000
  time 8
    0 -0.999512 -0.744141 -9.226563 -1.570781 -1.391896 -1.570809
    1 2.033349 1.000767 1.937660 1.596637 -1.286515 2.942961
    2 6.028141 0.000000 0.000000 -1.578696 -0.408157 -1.282402
    3 11.692554 0.000001 0.000002 0.000000 0.000000 -1.224249
    4 11.481674 0.000001 -0.000032 1.573168 -0.028074 0.044378
    5 3.859709 -0.142404 -1.191975 -0.476793 0.134331 -0.965122
    6 1.312555 -0.000002 0.000001 0.000000 0.000000 -0.279217
    7 0.729363 -0.000002 -0.000002 0.000000 0.000000 -0.096880
    8 3.942335 0.046767 -0.431443 -0.145075 0.087431 -0.741676
    9 1.539097 0.000000 0.000000 0.000000 0.000000 -0.309316
    10 1.196326 -0.000002 -0.000001 0.000000 0.000000 -0.521199
    11 3.883696 -0.046765 0.431443 0.085902 0.021830 -0.587867
    12 1.719570 -0.000004 -0.000001 0.000000 0.005516 -0.366478
    13 1.209171 -0.000002 0.000000 0.000000 0.003084 -0.216400
    14 3.859865 -0.137947 1.332466 0.354449 -0.042750 -0.531718
    15 1.719429 0.000002 -0.000001 0.000000 0.004074 -0.363009
    16 1.099665 0.000000 0.000000 0.000000 0.002596 -0.244331
    17 0.806053 -0.348925 1.321258 -1.166382 -0.626621 -0.921969
    18 1.789780 -0.000002 0.000002 0.000000 0.000000 0.189105
    19 1.207006 0.000000 0.000000 0.000000 0.000000 0.306015
    20 2.033356 1.000772 -1.937610 -1.668474 1.286518 2.942953
    21 6.028144 0.000000 0.000000 1.220740 0.901290 -1.581677
    22 11.692554 0.000001 0.000003 0.000000 0.000000 -1.107414
    23 11.481697 0.000001 0.000002 -2.273196 -0.004010 0.544246
    24 3.859678 -0.132570 1.193109 0.373415 -0.360222 -0.472789
    25 1.312557 -0.000002 0.000001 0.000000 0.000000 -0.517222
    26 0.729365 0.000002 -0.000002 0.000000 0.000000 -0.174086
    27 3.942305 0.050327 0.431044 0.108695 -0.131935 -0.352650
    28 1.539099 -0.000002 0.000000 0.000000 0.000000 -0.247824
    29 1.196321 0.000008 0.000000 0.000000 0.000000 -0.751741
    30 3.883661 -0.050323 -0.431042 -0.089668 0.017508 -0.098747
    31 1.719578 0.000004 0.000000 0.000000 -0.007973 -0.582418
    32 1.209185 0.000002 0.000000 0.000001 -0.004461 -0.471628
    33 3.859838 -0.148937 -1.331282 -0.246090 0.220349 0.221756
    34 1.719423 0.000002 0.000000 0.000000 -0.006613 -0.323709
    35 1.099667 0.000002 0.000000 0.000000 -0.004211 -0.185408
    36 0.806021 -0.359837 -1.318334 1.266208 0.483284 -0.761111
    37 1.789782 0.000000 -0.000004 0.000000 0.000000 0.265284
    38 1.206999 0.000003 0.000002 0.000000 0.000000 0.310702
    39 -35.474221 6.947239 3.059296 0.000000 0.000000 0.000000
    40 -29.453125 -11.093750 6.648438 0.000000 0.000000 0.000000
  time 9
    0 -0.999512 -0.744141 -9.226563 -1.570781 -1.391896 -1.570809
    1 2.033349 1.000767 1.937660 1.596637 -1.286515 2.942961
    2 6.028141 0.000000 0.000000 -1.578696 -0.408157 -1.282402
    3 11.692554 0.000001 0.000002 0.000000 0.000000 -1.224249
    4 11.481674 0.000001 -0.000032 1.573168 -0.028074 0.044378
    5 3.859709 -0.142404 -1.191975 -0.476793 0.134331 -0.965122
    6 1.312555 -0.000002 0.000001 0.000000 0.000000 -0.279217
    7 0.729363 -0.000002 -0.000002 0.000000 0.000000 -0.096880
    8 3.942335 0.046767 -0.431443 -0.145075 0.087431 -0.741676
    9 1.539097 0.000000 0.000000 0.000000 0.000000 -0.309316
    10 1.196326 -0.000002 -0.000001 0.000000 0.000000 -0.521199
    11 3.883696 -0.046765 0.431443 0.085902 0.021830 -0.587867
    12 1.719570 -0.000004 -0.000001 0.000000 0.005516 -0.366478
    13 1.209171 -0.000002 0.000000 0.000000 0.003084 -0.216400
    14 3.859865 -0.137947 1.332466 0.354449 -0.042750 -0.531718
    15 1.719429 0.000002 -0.000001 0.000000 0.004074 -0.363009
    16 1.099665 0.000000 0.000000 0.000000 0.002596 -0.244331
    17 0.806053 -0.348925 1.321258 -1.166382 -0.626621 -0.921969
    18 1.789780 -0.000002 0.000002 0.000000 0.000000 0.189105
    19 1.207006 0.000000 0.000000 0.000000 0.000000 0.306015
    20 2.033356 1.000772 -1.937610 -1.668474 1.286518 2.942953
    21 6.028144 0.000000 0.000000 1.220740 0.901290 -1.581677
    22 11.692554 0.000001 0.000003 0.000000 0.000000 -1.107414
    23 11.481697 0.000001 0.000002 -2.273196 -0.004010 0.544246
    24 3.859678 -0.132570 1.193109 0.373415 -0.360222 -0.472789
    25 1.312557 -0.000002 0.000001 0.000000 0.000000 -0.517222
    26 0.729365 0.000002 -0.000002 0.000000 0.000000 -0.174086
    27 3.942305 0.050327 0.431044 0.108695 -0.131935 -0.352650
    28 1.539099 -0.000002 0.000000 0.000000 0.000000 -0.247824
    29 1.196321 0.000008 0.000000 0.000000 0.000000 -0.751741
    30 3.883661 -0.050323 -0.431042 -0.089668 0.017508 -0.098747
    31 1.719578 0.000004 0.000000 0.000000 -0.007973 -0.582418
    32 1.209185 0.000002 0.000000 0.000001 -0.004461 -0.471628
    33 3.859838 -0.148937 -1.331282 -0.246090 0.220349 0.221756
    34 1.719423 0.000002 0.000000 0.000000 -0.006613 -0.323709
    35 1.099667 0.000002 0.000000 0.000000 -0.004211 -0.185408
    36 0.806021 -0.359837 -1.318334 1.266208 0.483284 -0.761111
    37 1.789782 0.000000 -0.000004 0.000000 0.000000 0.265284
    38 1.206999 0.000003 0.000002 0.000000 0.000000 0.310702
    39 -35.474221 6.947239 3.059296 0.000000 0.000000 0.000000
    40 -29.453125 -11.093750 6.648438 0.000000 0.000000 0.000000
  time 10
    0 -0.999512 -0.744141 -9.226563 -1.570781 -1.391896 -1.570809
    1 2.033349 1.000767 1.937660 1.596637 -1.286515 2.942961
    2 6.028141 0.000000 0.000000 -1.578696 -0.408157 -1.282402
    3 11.692554 0.000001 0.000002 0.000000 0.000000 -1.224249
    4 11.481674 0.000001 -0.000032 1.573168 -0.028074 0.044378
    5 3.859709 -0.142404 -1.191975 -0.476793 0.134331 -0.965122
    6 1.312555 -0.000002 0.000001 0.000000 0.000000 -0.279217
    7 0.729363 -0.000002 -0.000002 0.000000 0.000000 -0.096880
    8 3.942335 0.046767 -0.431443 -0.145075 0.087431 -0.741676
    9 1.539097 0.000000 0.000000 0.000000 0.000000 -0.309316
    10 1.196326 -0.000002 -0.000001 0.000000 0.000000 -0.521199
    11 3.883696 -0.046765 0.431443 0.085902 0.021830 -0.587867
    12 1.719570 -0.000004 -0.000001 0.000000 0.005516 -0.366478
    13 1.209171 -0.000002 0.000000 0.000000 0.003084 -0.216400
    14 3.859865 -0.137947 1.332466 0.354449 -0.042750 -0.531718
    15 1.719429 0.000002 -0.000001 0.000000 0.004074 -0.363009
    16 1.099665 0.000000 0.000000 0.000000 0.002596 -0.244331
    17 0.806053 -0.348925 1.321258 -1.166382 -0.626621 -0.921969
    18 1.789780 -0.000002 0.000002 0.000000 0.000000 0.189105
    19 1.207006 0.000000 0.000000 0.000000 0.000000 0.306015
    20 2.033356 1.000772 -1.937610 -1.668474 1.286518 2.942953
    21 6.028144 0.000000 0.000000 1.220740 0.901290 -1.581677
    22 11.692554 0.000001 0.000003 0.000000 0.000000 -1.107414
    23 11.481697 0.000001 0.000002 -2.273196 -0.004010 0.544246
    24 3.859678 -0.132570 1.193109 0.373415 -0.360222 -0.472789
    25 1.312557 -0.000002 0.000001 0.000000 0.000000 -0.517222
    26 0.729365 0.000002 -0.000002 0.000000 0.000000 -0.174086
    27 3.942305 0.050327 0.431044 0.108695 -0.131935 -0.352650
    28 1.539099 -0.000002 0.000000 0.000000 0.000000 -0.247824
    29 1.196321 0.000008 0.000000 0.000000 0.000000 -0.751741
    30 3.883661 -0.050323 -0.431042 -0.089668 0.017508 -0.098747
    31 1.719578 0.000004 0.000000 0.000000 -0.007973 -0.582418
    32 1.209185 0.000002 0.000000 0.000001 -0.004461 -0.471628
    33 3.859838 -0.148937 -1.331282 -0.246090 0.220349 0.221756
    34 1.719423 0.000002 0.000000 0.000000 -0.006613 -0.323709
    35 1.099667 0.000002 0.000000 0.000000 -0.004211 -0.185408
    36 0.806021 -0.359837 -1.318334 1.266208 0.483284 -0.761111
    37 1.789782 0.000000 -0.000004 0.000000 0.000000 0.265284
    38 1.206999 0.000003 0.000002 0.000000 0.000000 0.310702
    39 -35.474221 6.947239 3.059296 0.000000 0.000000 0.000000
    40 -29.453125 -11.093750 6.648438 0.000000 0.000000 0.000000
  time 11
    0 -0.999512 -0.744141 -9.226563 -1.570781 -1.391896 -1.570809
    1 2.033349 1.000767 1.937660 1.596637 -1.286515 2.942961
    2 6.028141 0.000000 0.000000 -1.578696 -0.408157 -1.282402
    3 11.692554 0.000001 0.000002 0.000000 0.000000 -1.224249
    4 11.481674 0.000001 -0.000032 1.573168 -0.028074 0.044378
    5 3.859709 -0.142404 -1.191975 -0.476793 0.134331 -0.965122
    6 1.312555 -0.000002 0.000001 0.000000 0.000000 -0.279217
    7 0.729363 -0.000002 -0.000002 0.000000 0.000000 -0.096880
    8 3.942335 0.046767 -0.431443 -0.145075 0.087431 -0.741676
    9 1.539097 0.000000 0.000000 0.000000 0.000000 -0.309316
    10 1.196326 -0.000002 -0.000001 0.000000 0.000000 -0.521199
    11 3.883696 -0.046765 0.431443 0.085902 0.021830 -0.587867
    12 1.719570 -0.000004 -0.000001 0.000000 0.005516 -0.366478
    13 1.209171 -0.000002 0.000000 0.000000 0.003084 -0.216400
    14 3.859865 -0.137947 1.332466 0.354449 -0.042750 -0.531718
    15 1.719429 0.000002 -0.000001 0.000000 0.004074 -0.363009
    16 1.099665 0.000000 0.000000 0.000000 0.002596 -0.244331
    17 0.806053 -0.348925 1.321258 -1.166382 -0.626621 -0.921969
    18 1.789780 -0.000002 0.000002 0.000000 0.000000 0.189105
    19 1.207006 0.000000 0.000000 0.000000 0.000000 0.306015
    20 2.033356 1.000772 -1.937610 -1.668474 1.286518 2.942953
    21 6.028144 0.000000 0.000000 1.220740 0.901290 -1.581677
    22 11.692554 0.000001 0.000003 0.000000 0.000000 -1.107414
    23 11.481697 0.000001 0.000002 -2.273196 -0.004010 0.544246
    24 3.859678 -0.132570 1.193109 0.373415 -0.360222 -0.472789
    25 1.312557 -0.000002 0.000001 0.000000 0.000000 -0.517222
    26 0.729365 0.000002 -0.000002 0.000000 0.000000 -0.174086
    27 3.942305 0.050327 0.431044 0.108695 -0.131935 -0.352650
    28 1.539099 -0.000002 0.000000 0.000000 0.000000 -0.247824
    29 1.196321 0.000008 0.000000 0.000000 0.000000 -0.751741
    30 3.883661 -0.050323 -0.431042 -0.089668 0.017508 -0.098747
    31 1.719578 0.000004 0.000000 0.000000 -0.007973 -0.582418
    32 1.209185 0.000002 0.000000 0.000001 -0.004461 -0.471628
    33 3.859838 -0.148937 -1.331282 -0.246090 0.220349 0.221756
    34 1.719423 0.000002 0.000000 0.000000 -0.006613 -0.323709
    35 1.099667 0.000002 0.000000 0.000000 -0.004211 -0.185408
    36 0.806021 -0.359837 -1.318334 1.266208 0.483284 -0.761111
    37 1.789782 0.000000 -0.000004 0.000000 0.000000 0.265284
    38 1.206999 0.000003 0.000002 0.000000 0.000000 0.310702
    39 -35.474221 6.947239 3.059296 0.000000 0.000000 0.000000
    40 -29.453125 -11.093750 6.648438 0.000000 0.000000 0.000000
end
