// Created by Crowbar 0.74
version 1
nodes
  0 "ValveBiped" -1
  1 "ValveBiped.Bip01_L_Hand" 0
  2 "ValveBiped.Weapon_bone1" 1
end
skeleton
  time 0
    0 0.000000 0.000000 0.000000 1.570796 0.000000 0.000000
    1 22.676542 40.797947 -2.351880 -0.009927 0.022629 -0.830255
    2 5.000001 -1.500000 5.000000 0.000000 0.000000 0.000000
end
triangles
  phy
    0 22.855586 -1.121791 38.808821 0.115487 -0.696976 0.707734 0 0
    0 21.680171 -1.199813 38.875499 -0.003710 -0.732723 -0.680517 0 0
    0 22.835544 -1.538968 38.731204 0.418822 -0.738183 0.528842 0 0
  phy
    0 22.810132 -0.442419 38.940630 0.069074 -0.723607 0.686747 0 0
    0 21.680171 -1.199813 38.875499 -0.003710 -0.732723 -0.680517 0 0
    0 22.855586 -1.121791 38.808821 0.115487 -0.696976 0.707734 0 0
  phy
    0 22.855586 -1.121791 38.808821 0.115487 -0.696976 0.707734 0 0
    0 29.199170 -1.369782 31.475598 0.072827 -0.621279 0.780198 0 0
    0 22.810132 -0.442419 38.940630 0.069074 -0.723607 0.686747 0 0
  phy
    0 25.161540 -1.829576 36.024104 0.323720 -0.633010 0.703209 0 0
    0 29.199170 -1.369782 31.475598 0.072827 -0.621279 0.780198 0 0
    0 22.855586 -1.121791 38.808821 0.115487 -0.696976 0.707734 0 0
  phy
    0 22.835544 -1.538968 38.731204 0.418822 -0.738183 0.528842 0 0
    0 25.161540 -1.829576 36.024104 0.323720 -0.633010 0.703209 0 0
    0 22.855586 -1.121791 38.808821 0.115487 -0.696976 0.707734 0 0
  phy
    0 22.835544 -1.538968 38.731204 0.418822 -0.738183 0.528842 0 0
    0 22.568754 -2.047701 38.488979 0.893662 -0.376341 0.244409 0 0
    0 25.161540 -1.829576 36.024104 0.323720 -0.633010 0.703209 0 0
  phy
    0 21.680171 -1.199813 38.875499 -0.003710 -0.732723 -0.680517 0 0
    0 22.568754 -2.047701 38.488979 0.893662 -0.376341 0.244409 0 0
    0 22.835544 -1.538968 38.731204 0.418822 -0.738183 0.528842 0 0
  phy
    0 28.135802 -2.412268 30.661033 0.684099 0.496308 -0.534497 0 0
    0 28.107025 -2.041945 30.518446 0.065561 0.746303 -0.662369 0 0
    0 29.125066 -2.168211 31.406842 0.247058 -0.290097 0.924557 0 0
  phy
    0 28.107025 -2.041945 30.518446 0.065561 0.746303 -0.662369 0 0
    0 28.141645 -1.238626 30.552745 -0.107379 0.685826 -0.719800 0 0
    0 29.125066 -2.168211 31.406842 0.247058 -0.290097 0.924557 0 0
  phy
    0 28.107025 -2.041945 30.518446 0.065561 0.746303 -0.662369 0 0
    0 28.135802 -2.412268 30.661033 0.684099 0.496308 -0.534497 0 0
    0 21.810093 -1.402589 37.831868 0.124912 0.616438 -0.777432 0 0
  phy
    0 28.141645 -1.238626 30.552745 -0.107379 0.685826 -0.719800 0 0
    0 28.107025 -2.041945 30.518446 0.065561 0.746303 -0.662369 0 0
    0 21.810093 -1.402589 37.831868 0.124912 0.616438 -0.777432 0 0
  phy
    0 28.929143 -2.510686 31.353350 0.819842 -0.372837 0.434571 0 0
    0 29.125066 -2.168211 31.406842 0.247058 -0.290097 0.924557 0 0
    0 25.161540 -1.829576 36.024104 0.323720 -0.633010 0.703209 0 0
  phy
    0 25.161540 -1.829576 36.024104 0.323720 -0.633010 0.703209 0 0
    0 22.568754 -2.047701 38.488979 0.893662 -0.376341 0.244409 0 0
    0 28.929143 -2.510686 31.353350 0.819842 -0.372837 0.434571 0 0
  phy
    0 22.568754 -2.047701 38.488979 0.893662 -0.376341 0.244409 0 0
    0 27.145924 -2.589297 32.686070 0.994632 0.025072 -0.100389 0 0
    0 28.929143 -2.510686 31.353350 0.819842 -0.372837 0.434571 0 0
  phy
    0 28.929143 -2.510686 31.353350 0.819842 -0.372837 0.434571 0 0
    0 28.135802 -2.412268 30.661033 0.684099 0.496308 -0.534497 0 0
    0 29.125066 -2.168211 31.406842 0.247058 -0.290097 0.924557 0 0
  phy
    0 28.929143 -2.510686 31.353350 0.819842 -0.372837 0.434571 0 0
    0 27.145924 -2.589297 32.686070 0.994632 0.025072 -0.100389 0 0
    0 28.135802 -2.412268 30.661033 0.684099 0.496308 -0.534497 0 0
  phy
    0 21.680171 -1.199813 38.875499 -0.003710 -0.732723 -0.680517 0 0
    0 23.052040 4.132441 38.828411 -0.155212 -0.957557 -0.242888 0 0
    0 22.477841 4.203663 38.309897 -0.198802 -0.276118 -0.940339 0 0
  phy
    0 22.477841 4.203663 38.309897 -0.198802 -0.276118 -0.940339 0 0
    0 23.052040 4.132441 38.828411 -0.155212 -0.957557 -0.242888 0 0
    0 22.580617 4.456794 37.869323 -0.199264 0.628191 -0.752111 0 0
  phy
    0 21.680171 -1.199813 38.875499 -0.003710 -0.732723 -0.680517 0 0
    0 22.477841 4.203663 38.309897 -0.198802 -0.276118 -0.940339 0 0
    0 21.762548 -0.743399 37.947515 -0.108353 0.596387 -0.795350 0 0
  phy
    0 21.762548 -0.743399 37.947515 -0.108353 0.596387 -0.795350 0 0
    0 22.477841 4.203663 38.309897 -0.198802 -0.276118 -0.940339 0 0
    0 22.580617 4.456794 37.869323 -0.199264 0.628191 -0.752111 0 0
  phy
    0 29.199170 -1.369782 31.475598 0.072827 -0.621279 0.780198 0 0
    0 23.521023 4.310195 38.678043 0.021419 -0.670299 0.741782 0 0
    0 22.810132 -0.442419 38.940630 0.069074 -0.723607 0.686747 0 0
  phy
    0 22.810132 -0.442419 38.940630 0.069074 -0.723607 0.686747 0 0
    0 23.052040 4.132441 38.828411 -0.155212 -0.957557 -0.242888 0 0
    0 21.680171 -1.199813 38.875499 -0.003710 -0.732723 -0.680517 0 0
  phy
    0 22.810132 -0.442419 38.940630 0.069074 -0.723607 0.686747 0 0
    0 23.521023 4.310195 38.678043 0.021419 -0.670299 0.741782 0 0
    0 23.052040 4.132441 38.828411 -0.155212 -0.957557 -0.242888 0 0
  phy
    0 25.161540 -1.829576 36.024104 0.323720 -0.633010 0.703209 0 0
    0 29.125066 -2.168211 31.406842 0.247058 -0.290097 0.924557 0 0
    0 29.199170 -1.369782 31.475598 0.072827 -0.621279 0.780198 0 0
  phy
    0 28.133702 -0.523775 30.728872 -0.770170 0.589074 0.244603 0 0
    0 29.199170 -1.369782 31.475598 0.072827 -0.621279 0.780198 0 0
    0 28.141645 -1.238626 30.552745 -0.107379 0.685826 -0.719800 0 0
  phy
    0 29.199170 -1.369782 31.475598 0.072827 -0.621279 0.780198 0 0
    0 28.133702 -0.523775 30.728872 -0.770170 0.589074 0.244603 0 0
    0 29.126960 -0.646960 31.595643 -0.688030 0.133470 0.713302 0 0
  phy
    0 24.778594 4.243157 36.785117 -0.819701 0.377333 0.430941 0 0
    0 28.133702 -0.523775 30.728872 -0.770170 0.589074 0.244603 0 0
    0 23.852732 4.349783 36.426792 -0.587701 0.698243 -0.408734 0 0
  phy
    0 28.133702 -0.523775 30.728872 -0.770170 0.589074 0.244603 0 0
    0 24.778594 4.243157 36.785117 -0.819701 0.377333 0.430941 0 0
    0 29.126960 -0.646960 31.595643 -0.688030 0.133470 0.713302 0 0
  phy
    0 28.133702 -0.523775 30.728872 -0.770170 0.589074 0.244603 0 0
    0 28.141645 -1.238626 30.552745 -0.107379 0.685826 -0.719800 0 0
    0 23.852732 4.349783 36.426792 -0.587701 0.698243 -0.408734 0 0
  phy
    0 28.135802 -2.412268 30.661033 0.684099 0.496308 -0.534497 0 0
    0 22.040528 -1.982160 37.968501 0.829780 0.272142 -0.487241 0 0
    0 21.810093 -1.402589 37.831868 0.124912 0.616438 -0.777432 0 0
  phy
    0 28.135802 -2.412268 30.661033 0.684099 0.496308 -0.534497 0 0
    0 27.145924 -2.589297 32.686070 0.994632 0.025072 -0.100389 0 0
    0 22.040528 -1.982160 37.968501 0.829780 0.272142 -0.487241 0 0
  phy
    0 21.680171 -1.199813 38.875499 -0.003710 -0.732723 -0.680517 0 0
    0 21.762548 -0.743399 37.947515 -0.108353 0.596387 -0.795350 0 0
    0 21.810093 -1.402589 37.831868 0.124912 0.616438 -0.777432 0 0
  phy
    0 22.040528 -1.982160 37.968501 0.829780 0.272142 -0.487241 0 0
    0 21.680171 -1.199813 38.875499 -0.003710 -0.732723 -0.680517 0 0
    0 21.810093 -1.402589 37.831868 0.124912 0.616438 -0.777432 0 0
  phy
    0 22.040528 -1.982160 37.968501 0.829780 0.272142 -0.487241 0 0
    0 22.568754 -2.047701 38.488979 0.893662 -0.376341 0.244409 0 0
    0 21.680171 -1.199813 38.875499 -0.003710 -0.732723 -0.680517 0 0
  phy
    0 28.141645 -1.238626 30.552745 -0.107379 0.685826 -0.719800 0 0
    0 29.199170 -1.369782 31.475598 0.072827 -0.621279 0.780198 0 0
    0 29.125066 -2.168211 31.406842 0.247058 -0.290097 0.924557 0 0
  phy
    0 29.199170 -1.369782 31.475598 0.072827 -0.621279 0.780198 0 0
    0 24.753954 4.238014 37.213245 -0.339266 -0.537235 0.772190 0 0
    0 23.521023 4.310195 38.678043 0.021419 -0.670299 0.741782 0 0
  phy
    0 29.126960 -0.646960 31.595643 -0.688030 0.133470 0.713302 0 0
    0 24.753954 4.238014 37.213245 -0.339266 -0.537235 0.772190 0 0
    0 29.199170 -1.369782 31.475598 0.072827 -0.621279 0.780198 0 0
  phy
    0 28.141645 -1.238626 30.552745 -0.107379 0.685826 -0.719800 0 0
    0 21.762548 -0.743399 37.947515 -0.108353 0.596387 -0.795350 0 0
    0 22.580617 4.456794 37.869323 -0.199264 0.628191 -0.752111 0 0
  phy
    0 23.852732 4.349783 36.426792 -0.587701 0.698243 -0.408734 0 0
    0 28.141645 -1.238626 30.552745 -0.107379 0.685826 -0.719800 0 0
    0 22.580617 4.456794 37.869323 -0.199264 0.628191 -0.752111 0 0
  phy
    0 21.762548 -0.743399 37.947515 -0.108353 0.596387 -0.795350 0 0
    0 28.141645 -1.238626 30.552745 -0.107379 0.685826 -0.719800 0 0
    0 21.810093 -1.402589 37.831868 0.124912 0.616438 -0.777432 0 0
  phy
    0 24.778594 4.243157 36.785117 -0.819701 0.377333 0.430941 0 0
    0 23.852732 4.349783 36.426792 -0.587701 0.698243 -0.408734 0 0
    0 24.753954 4.238014 37.213245 -0.339266 -0.537235 0.772190 0 0
  phy
    0 24.778594 4.243157 36.785117 -0.819701 0.377333 0.430941 0 0
    0 24.753954 4.238014 37.213245 -0.339266 -0.537235 0.772190 0 0
    0 29.126960 -0.646960 31.595643 -0.688030 0.133470 0.713302 0 0
  phy
    0 23.052040 4.132441 38.828411 -0.155212 -0.957557 -0.242888 0 0
    0 23.521023 4.310195 38.678043 0.021419 -0.670299 0.741782 0 0
    0 22.580617 4.456794 37.869323 -0.199264 0.628191 -0.752111 0 0
  phy
    0 22.040528 -1.982160 37.968501 0.829780 0.272142 -0.487241 0 0
    0 27.145924 -2.589297 32.686070 0.994632 0.025072 -0.100389 0 0
    0 22.568754 -2.047701 38.488979 0.893662 -0.376341 0.244409 0 0
  phy
    0 24.753954 4.238014 37.213245 -0.339266 -0.537235 0.772190 0 0
    0 23.852732 4.349783 36.426792 -0.587701 0.698243 -0.408734 0 0
    0 22.580617 4.456794 37.869323 -0.199264 0.628191 -0.752111 0 0
  phy
    0 23.521023 4.310195 38.678043 0.021419 -0.670299 0.741782 0 0
    0 24.753954 4.238014 37.213245 -0.339266 -0.537235 0.772190 0 0
    0 22.580617 4.456794 37.869323 -0.199264 0.628191 -0.752111 0 0
end
