// Created by Crowbar 0.74
version 1
nodes
  0 "ValveBiped" -1
  1 "ValveBiped.Bip01_L_Hand" 0
  2 "ValveBiped.Weapon_bone1" 1
  3 "ValveBiped.Bip01_R_Hand" 0
  4 "ValveBiped.Weapon_bone" 3
end
skeleton
  time 0
    0 0.000000 0.000000 0.000000 1.570796 0.000000 0.000000
    1 22.676542 40.797947 -2.351880 -0.009927 0.022629 -0.830255
    2 5.000002 -1.499996 5.000000 0.000000 0.000000 0.000000
    3 -22.676542 40.797947 -2.351880 -3.131666 0.022629 -2.311337
    4 5.000001 -1.500000 -5.000000 0.000000 0.000000 0.000000
end
triangles
pistol
  2 22.080933 0.223574 38.378277 0.560428 -0.026003 0.827795 0.843177 0.951747 1 2 1.000000
  2 21.770781 -0.275136 38.044800 0.560384 -0.026464 0.827810 0.799668 0.977268 1 2 1.000000
  2 22.782509 -0.386678 38.934563 0.560428 -0.026003 0.827795 0.798157 0.878427 1 2 1.000000
pistol
  2 22.782509 -0.386678 38.934563 0.560428 -0.026003 0.827795 0.798157 0.878427 1 2 1.000000
  2 22.498966 0.177308 38.728432 0.560483 -0.025541 0.827772 0.842794 0.901167 1 2 1.000000
  2 22.080933 0.223574 38.378277 0.560428 -0.026003 0.827795 0.843177 0.951747 1 2 1.000000
pistol
  2 23.513227 4.349594 38.626110 0.575172 -0.027592 0.817567 0.948380 0.127540 1 2 1.000000
  2 23.642067 0.134323 37.924858 0.610598 0.101828 0.785367 0.857226 0.562158 1 2 1.000000
  2 24.743114 4.230605 37.203091 0.927584 -0.137353 0.347452 0.769713 0.119207 1 2 1.000000
pistol
  2 24.709805 0.901149 36.361820 0.942426 0.044940 0.331381 0.686603 0.466432 1 2 1.000000
  2 24.787430 4.236069 36.717754 0.592948 -0.024886 0.804856 0.740311 0.136989 1 2 1.000000
  2 24.743114 4.230605 37.203091 0.927584 -0.137353 0.347452 0.769713 0.119207 1 2 1.000000
pistol
  2 24.743114 4.230605 37.203091 0.927584 -0.137353 0.347452 0.769713 0.119207 1 2 1.000000
  2 24.762732 -0.616024 36.461800 0.864402 -0.040542 0.501164 0.677907 0.625970 1 2 1.000000
  2 24.709805 0.901149 36.361820 0.942426 0.044940 0.331381 0.686603 0.466432 1 2 1.000000
pistol
  2 24.743114 4.230605 37.203091 0.927584 -0.137353 0.347452 0.769713 0.119207 1 2 1.000000
  2 23.642067 0.134323 37.924858 0.610598 0.101828 0.785367 0.857226 0.562158 1 2 1.000000
  2 24.762732 -0.616024 36.461800 0.864402 -0.040542 0.501164 0.677907 0.625970 1 2 1.000000
pistol
  2 24.762732 -0.616024 36.461800 0.864402 -0.040542 0.501164 0.677907 0.625970 1 2 1.000000
  2 23.642067 0.134323 37.924858 0.610598 0.101828 0.785367 0.857226 0.562158 1 2 1.000000
  2 22.790808 -0.405995 38.967327 0.761024 0.008898 0.648663 0.968915 0.695361 1 2 1.000000
pistol
  2 22.485054 0.161030 38.764580 0.490892 0.570761 0.658223 0.986284 0.572290 1 2 1.000000
  2 22.790808 -0.405995 38.967327 0.761024 0.008898 0.648663 0.968915 0.695361 1 2 1.000000
  2 23.642067 0.134323 37.924858 0.610598 0.101828 0.785367 0.857226 0.562158 1 2 1.000000
pistol
  2 23.642067 0.134323 37.924858 0.610598 0.101828 0.785367 0.857226 0.562158 1 2 1.000000
  2 23.142595 0.348548 37.999966 0.189798 -0.230254 0.954442 0.893218 0.544073 1 2 1.000000
  2 22.485054 0.161030 38.764580 0.490892 0.570761 0.658223 0.986284 0.572290 1 2 1.000000
pistol
  2 23.642067 0.134323 37.924858 0.610598 0.101828 0.785367 0.857226 0.562158 1 2 1.000000
  2 23.513227 4.349594 38.626110 0.575172 -0.027592 0.817567 0.948380 0.127540 1 2 1.000000
  2 23.142595 0.348548 37.999966 0.189798 -0.230254 0.954442 0.893218 0.544073 1 2 1.000000
pistol
  2 23.513227 4.349594 38.626110 0.575172 -0.027592 0.817567 0.948380 0.127540 1 2 1.000000
  2 23.058540 4.139609 38.759933 0.574159 -0.028253 0.818256 0.986187 0.150970 1 2 1.000000
  2 23.142595 0.348548 37.999966 0.189798 -0.230254 0.954442 0.893218 0.544073 1 2 1.000000
pistol
  2 22.665945 -1.678990 38.523479 0.333925 -0.855301 0.396174 0.939295 0.817038 1 2 1.000000
  2 27.835558 -2.377864 32.383808 0.578854 -0.044760 0.814202 0.270289 0.822429 1 2 1.000000
  2 22.859819 -1.549432 38.753052 0.746970 -0.100194 0.657265 0.944260 0.798087 1 2 1.000000
pistol
  2 28.047005 -2.201574 32.563915 0.525870 -0.671238 0.522398 0.270439 0.801456 1 2 1.000000
  2 22.859819 -1.549432 38.753052 0.746970 -0.100194 0.657265 0.944260 0.798087 1 2 1.000000
  2 27.835558 -2.377864 32.383808 0.578854 -0.044760 0.814202 0.270289 0.822429 1 2 1.000000
pistol
  2 28.205664 -1.073915 32.551090 0.767091 0.013875 0.641388 0.270305 0.695341 1 2 1.000000
  2 22.859819 -1.549432 38.753052 0.746970 -0.100194 0.657265 0.944260 0.798087 1 2 1.000000
  2 28.047005 -2.201574 32.563915 0.525870 -0.671238 0.522398 0.270439 0.801456 1 2 1.000000
pistol
  2 22.859819 -1.549432 38.753052 0.746970 -0.100194 0.657265 0.944260 0.798087 1 2 1.000000
  2 28.205664 -1.073915 32.551090 0.767091 0.013875 0.641388 0.270305 0.695341 1 2 1.000000
  2 22.790808 -0.405995 38.967327 0.761024 0.008898 0.648663 0.968915 0.695361 1 2 1.000000
pistol
  2 24.779661 -0.615544 36.434513 0.581729 -0.002883 0.813378 0.614369 0.724368 1 2 1.000000
  2 22.790808 -0.405995 38.967327 0.761024 0.008898 0.648663 0.968915 0.695361 1 2 1.000000
  2 28.205664 -1.073915 32.551090 0.767091 0.013875 0.641388 0.270305 0.695341 1 2 1.000000
pistol
  2 28.205664 -1.073915 32.551090 0.767091 0.013875 0.641388 0.270305 0.695341 1 2 1.000000
  2 28.105448 -1.067476 32.469307 0.581384 -0.002315 0.813626 0.270118 0.724484 1 2 1.000000
  2 24.779661 -0.615544 36.434513 0.581729 -0.002883 0.813378 0.614369 0.724368 1 2 1.000000
pistol
  4 -22.760923 0.243323 37.120598 0.596244 -0.017179 0.802620 0.857226 0.562158 1 4 1.000000
  4 -23.861851 4.334864 36.372231 0.595136 -0.022528 0.803310 0.769713 0.119207 1 4 1.000000
  4 -22.582790 4.422101 37.796085 0.596274 -0.024568 0.802405 0.948380 0.127540 1 4 1.000000
pistol
  4 -22.582790 4.422101 37.796085 0.596274 -0.024568 0.802405 0.948380 0.127540 1 4 1.000000
  4 -22.775597 0.389908 37.662136 0.993127 -0.100735 -0.059593 0.893218 0.544073 1 4 1.000000
  4 -22.760923 0.243323 37.120598 0.596244 -0.017179 0.802620 0.857226 0.562158 1 4 1.000000
pistol
  4 -22.775597 0.389908 37.662136 0.993127 -0.100735 -0.059593 0.893218 0.544073 1 4 1.000000
  4 -22.080925 0.223581 38.378269 0.590822 -0.007223 0.806770 0.986284 0.572290 1 4 1.000000
  4 -22.760923 0.243323 37.120598 0.596244 -0.017179 0.802620 0.857226 0.562158 1 4 1.000000
pistol
  4 -21.770777 -0.275130 38.044792 0.595715 -0.015226 0.803052 0.978139 0.629281 1 4 1.000000
  4 -22.760923 0.243323 37.120598 0.596244 -0.017179 0.802620 0.857226 0.562158 1 4 1.000000
  4 -22.080925 0.223581 38.378269 0.590822 -0.007223 0.806770 0.986284 0.572290 1 4 1.000000
pistol
  4 -22.760923 0.243323 37.120598 0.596244 -0.017179 0.802620 0.857226 0.562158 1 4 1.000000
  4 -21.770777 -0.275130 38.044792 0.595715 -0.015226 0.803052 0.978139 0.629281 1 4 1.000000
  4 -23.965725 -0.525626 35.736183 0.595770 -0.022117 0.802851 0.677907 0.625970 1 4 1.000000
pistol
  4 -22.760923 0.243323 37.120598 0.596244 -0.017179 0.802620 0.857226 0.562158 1 4 1.000000
  4 -23.965725 -0.525626 35.736183 0.595770 -0.022117 0.802851 0.677907 0.625970 1 4 1.000000
  4 -23.861851 4.334864 36.372231 0.595136 -0.022528 0.803310 0.769713 0.119207 1 4 1.000000
pistol
  4 -23.965725 -0.525626 35.736183 0.595770 -0.022117 0.802851 0.677907 0.625970 1 4 1.000000
  4 -24.265699 0.952484 35.935730 0.590826 -0.022343 0.806490 0.686603 0.466432 1 4 1.000000
  4 -23.861851 4.334864 36.372231 0.595136 -0.022528 0.803310 0.769713 0.119207 1 4 1.000000
pistol
  4 -24.280458 4.292145 36.289379 0.592209 -0.022622 0.805467 0.740311 0.136989 1 4 1.000000
  4 -23.861851 4.334864 36.372231 0.595136 -0.022528 0.803310 0.769713 0.119207 1 4 1.000000
  4 -24.265699 0.952484 35.935730 0.590826 -0.022343 0.806490 0.686603 0.466432 1 4 1.000000
pistol
  4 -22.468586 4.204833 38.258583 0.595899 -0.025299 0.802660 0.986187 0.150970 1 4 1.000000
  4 -22.775597 0.389908 37.662136 0.993127 -0.100735 -0.059593 0.893218 0.544073 1 4 1.000000
  4 -22.582790 4.422101 37.796085 0.596274 -0.024568 0.802405 0.948380 0.127540 1 4 1.000000
pistol
  4 -22.782501 -0.386672 38.934551 0.580416 -0.025567 0.813919 0.798157 0.878427 1 4 1.000000
  4 -21.770777 -0.275130 38.044792 0.580654 -0.026015 0.813735 0.799668 0.977268 1 4 1.000000
  4 -22.082954 0.206354 38.396107 0.677757 -0.047906 0.733723 0.842794 0.901167 1 4 1.000000
pistol
  4 -22.082954 0.206354 38.396107 0.677757 -0.047906 0.733723 0.842794 0.901167 1 4 1.000000
  4 -22.485050 0.161029 38.764572 0.676441 -0.050861 0.734738 0.843177 0.951747 1 4 1.000000
  4 -22.782501 -0.386672 38.934551 0.580416 -0.025567 0.813919 0.798157 0.878427 1 4 1.000000
pistol
  2 21.999947 -1.350289 38.542770 0.574717 -0.023748 0.818008 0.578597 0.670622 1 2 1.000000
  2 22.377728 -0.709748 38.193504 0.574786 -0.023692 0.817961 0.539614 0.590946 1 2 1.000000
  2 22.420059 -0.966270 38.113213 0.574268 -0.023285 0.818336 0.526954 0.622125 1 2 1.000000
pistol
  2 22.377728 -0.709748 38.193504 0.574786 -0.023692 0.817961 0.539614 0.590946 1 2 1.000000
  2 21.999947 -1.350289 38.542770 0.574717 -0.023748 0.818008 0.578597 0.670622 1 2 1.000000
  2 21.695709 -1.196111 38.865772 0.575047 -0.023897 0.817771 0.643961 0.653922 1 2 1.000000
pistol
  2 21.695709 -1.196111 38.865772 0.575047 -0.023897 0.817771 0.643961 0.653922 1 2 1.000000
  2 21.711136 -0.962741 38.873329 0.574926 -0.023581 0.817866 0.638028 0.632739 1 2 1.000000
  2 22.377728 -0.709748 38.193504 0.574786 -0.023692 0.817961 0.539614 0.590946 1 2 1.000000
pistol
  4 -26.452301 -0.088915 34.229641 0.569097 -0.004999 0.822255 0.422151 0.546499 1 4 1.000000
  4 -28.384315 -0.425774 32.258987 0.562575 -0.012949 0.826645 0.161641 0.556641 1 4 1.000000
  4 -26.101908 -0.127419 34.891670 0.561120 -0.016623 0.827567 0.490300 0.556498 1 4 1.000000
pistol
  4 -28.384315 -0.425774 32.258987 0.562575 -0.012949 0.826645 0.161641 0.556641 1 4 1.000000
  4 -28.504721 -1.300492 32.172031 0.559922 -0.023699 0.828207 0.141135 0.647216 1 4 1.000000
  4 -26.101908 -0.127419 34.891670 0.561120 -0.016623 0.827567 0.490300 0.556498 1 4 1.000000
pistol
  4 -28.504721 -1.300492 32.172031 0.559922 -0.023699 0.828207 0.141135 0.647216 1 4 1.000000
  4 -26.096363 -0.985675 34.949989 0.559922 -0.023699 0.828207 0.487930 0.647065 1 4 1.000000
  4 -26.101908 -0.127419 34.891670 0.561120 -0.016623 0.827567 0.490300 0.556498 1 4 1.000000
pistol
  4 -23.142591 0.348547 37.999958 -0.189797 -0.230254 0.954442 0.893218 0.544073 1 4 1.000000
  4 -23.058529 4.139616 38.759926 0.563327 -0.028511 0.825742 0.986187 0.150970 1 4 1.000000
  4 -23.513218 4.349600 38.626102 0.562679 -0.027884 0.826205 0.948380 0.127540 1 4 1.000000
pistol
  4 -24.760876 4.235744 37.162876 0.560440 -0.025932 0.827789 0.769713 0.119207 1 4 1.000000
  4 -23.650642 0.145234 37.903061 0.560937 -0.020796 0.827598 0.857226 0.562158 1 4 1.000000
  4 -23.513218 4.349600 38.626102 0.562679 -0.027884 0.826205 0.948380 0.127540 1 4 1.000000
pistol
  4 -23.142591 0.348547 37.999958 -0.189797 -0.230254 0.954442 0.893218 0.544073 1 4 1.000000
  4 -23.513218 4.349600 38.626102 0.562679 -0.027884 0.826205 0.948380 0.127540 1 4 1.000000
  4 -23.650642 0.145234 37.903061 0.560937 -0.020796 0.827598 0.857226 0.562158 1 4 1.000000
pistol
  4 -22.498959 0.177315 38.728424 0.565108 -0.009885 0.824958 0.986284 0.572290 1 4 1.000000
  4 -23.142591 0.348547 37.999958 -0.189797 -0.230254 0.954442 0.893218 0.544073 1 4 1.000000
  4 -23.650642 0.145234 37.903061 0.560937 -0.020796 0.827598 0.857226 0.562158 1 4 1.000000
pistol
  4 -23.650642 0.145234 37.903061 0.560937 -0.020796 0.827598 0.857226 0.562158 1 4 1.000000
  4 -22.782501 -0.386672 38.934551 0.560763 -0.019078 0.827757 0.978139 0.629281 1 4 1.000000
  4 -22.498959 0.177315 38.728424 0.565108 -0.009885 0.824958 0.986284 0.572290 1 4 1.000000
pistol
  4 -22.782501 -0.386672 38.934551 0.560763 -0.019078 0.827757 0.978139 0.629281 1 4 1.000000
  4 -23.650642 0.145234 37.903061 0.560937 -0.020796 0.827598 0.857226 0.562158 1 4 1.000000
  4 -24.779657 -0.615536 36.434509 0.560076 -0.025778 0.828040 0.677907 0.625970 1 4 1.000000
pistol
  4 -24.779657 -0.615536 36.434509 0.560076 -0.025778 0.828040 0.677907 0.625970 1 4 1.000000
  4 -23.650642 0.145234 37.903061 0.560937 -0.020796 0.827598 0.857226 0.562158 1 4 1.000000
  4 -24.760876 4.235744 37.162876 0.560440 -0.025932 0.827789 0.769713 0.119207 1 4 1.000000
pistol
  4 -24.724676 0.901883 36.339375 0.563575 -0.025001 0.825687 0.686603 0.466432 1 4 1.000000
  4 -24.779657 -0.615536 36.434509 0.560076 -0.025778 0.828040 0.677907 0.625970 1 4 1.000000
  4 -24.760876 4.235744 37.162876 0.560440 -0.025932 0.827789 0.769713 0.119207 1 4 1.000000
pistol
  4 -24.760876 4.235744 37.162876 0.560440 -0.025932 0.827789 0.769713 0.119207 1 4 1.000000
  4 -24.787420 4.236076 36.717747 0.562444 -0.025553 0.826440 0.740311 0.136989 1 4 1.000000
  4 -24.724676 0.901883 36.339375 0.563575 -0.025001 0.825687 0.686603 0.466432 1 4 1.000000
pistol
  2 28.275036 -0.337910 32.535995 0.580737 -0.001847 0.814089 0.004954 0.402569 1 2 1.000000
  2 28.984961 -0.430687 31.717117 0.580737 -0.001847 0.814089 0.099948 0.402569 1 2 1.000000
  2 27.438583 -0.245692 31.800381 0.580737 -0.001847 0.814089 0.004954 0.512384 1 2 1.000000
pistol
  2 28.148510 -0.338468 30.981506 0.580737 -0.001847 0.814089 0.099450 0.512384 1 2 1.000000
  2 27.438583 -0.245692 31.800381 0.580737 -0.001847 0.814089 0.004954 0.512384 1 2 1.000000
  2 28.984961 -0.430687 31.717117 0.580737 -0.001847 0.814089 0.099948 0.402569 1 2 1.000000
pistol
  2 28.148510 -0.338468 30.981506 0.580737 -0.001847 0.814089 0.099450 0.512384 1 2 1.000000
  2 28.984961 -0.430687 31.717117 0.580737 -0.001847 0.814089 0.099948 0.402569 1 2 1.000000
  2 29.256121 -1.415380 31.507160 0.596763 -0.021872 0.802119 0.192213 0.389704 1 2 1.000000
pistol
  2 28.148510 -0.338468 30.981506 0.580737 -0.001847 0.814089 0.099450 0.512384 1 2 1.000000
  2 29.256121 -1.415380 31.507160 0.596763 -0.021872 0.802119 0.192213 0.389704 1 2 1.000000
  2 28.201166 -1.299070 30.579391 0.596763 -0.021872 0.802119 0.192213 0.528205 1 2 1.000000
pistol
  2 28.200710 -2.471557 30.701031 0.576257 -0.047500 0.815887 0.293873 0.510869 1 2 1.000000
  2 28.201166 -1.299070 30.579391 0.596763 -0.021872 0.802119 0.192213 0.528205 1 2 1.000000
  2 29.256121 -1.415380 31.507160 0.596763 -0.021872 0.802119 0.192213 0.389704 1 2 1.000000
pistol
  2 28.200710 -2.471557 30.701031 0.576257 -0.047500 0.815887 0.293873 0.510869 1 2 1.000000
  2 29.256121 -1.415380 31.507160 0.596763 -0.021872 0.802119 0.192213 0.389704 1 2 1.000000
  2 28.992128 -2.558785 31.397034 0.576257 -0.047500 0.815887 0.293872 0.406967 1 2 1.000000
pistol
  2 27.212383 -2.342362 31.841034 0.576257 -0.047500 0.815887 0.426398 0.510869 1 2 1.000000
  2 28.200710 -2.471557 30.701031 0.576257 -0.047500 0.815887 0.293873 0.510869 1 2 1.000000
  2 28.992128 -2.558785 31.397034 0.576257 -0.047500 0.815887 0.293872 0.406967 1 2 1.000000
pistol
  2 28.992128 -2.558785 31.397034 0.576257 -0.047500 0.815887 0.293872 0.406967 1 2 1.000000
  2 28.003799 -2.429590 32.537041 0.576257 -0.047500 0.815887 0.426398 0.406967 1 2 1.000000
  2 27.212383 -2.342362 31.841034 0.576257 -0.047500 0.815887 0.426398 0.510869 1 2 1.000000
pistol
  2 27.212383 -2.342362 31.841034 0.560505 -0.022579 0.827843 0.239864 0.859546 1 2 1.000000
  2 27.975838 -2.403673 32.525597 0.649460 -0.456996 0.607747 0.133638 0.857665 1 2 1.000000
  2 28.244156 -1.261125 32.635338 0.753700 -0.055670 0.654856 0.133637 0.748235 1 2 1.000000
pistol
  2 29.223715 -1.381890 31.497658 0.750381 -0.086575 0.655311 0.008365 0.748236 1 2 1.000000
  2 28.244156 -1.261125 32.635338 0.753700 -0.055670 0.654856 0.133637 0.748235 1 2 1.000000
  2 27.975838 -2.403673 32.525597 0.649460 -0.456996 0.607747 0.133638 0.857665 1 2 1.000000
pistol
  2 28.244156 -1.261125 32.635338 0.753700 -0.055670 0.654856 0.133637 0.748235 1 2 1.000000
  2 29.223715 -1.381890 31.497658 0.750381 -0.086575 0.655311 0.008365 0.748236 1 2 1.000000
  2 28.951595 -0.398794 31.713768 0.734160 0.321580 0.597993 0.043220 0.660403 1 2 1.000000
pistol
  2 28.244156 -0.311603 32.535397 0.734153 0.321598 0.597991 0.133691 0.660405 1 2 1.000000
  2 28.244156 -1.261125 32.635338 0.753700 -0.055670 0.654856 0.133637 0.748235 1 2 1.000000
  2 28.951595 -0.398794 31.713768 0.734160 0.321580 0.597993 0.043220 0.660403 1 2 1.000000
pistol
  2 27.212383 -2.342362 31.841034 0.560505 -0.022579 0.827843 0.239864 0.859546 1 2 1.000000
  2 28.244156 -1.261125 32.635338 0.753700 -0.055670 0.654856 0.133637 0.748235 1 2 1.000000
  2 28.244156 -0.311603 32.535397 0.734153 0.321598 0.597991 0.133691 0.660405 1 2 1.000000
pistol
  2 28.244156 -0.311603 32.535397 0.734153 0.321598 0.597991 0.133691 0.660405 1 2 1.000000
  2 27.218166 -1.170572 31.713249 0.560504 -0.022582 0.827844 0.254540 0.750492 1 2 1.000000
  2 27.212383 -2.342362 31.841034 0.560505 -0.022579 0.827843 0.239864 0.859546 1 2 1.000000
pistol
  2 27.438583 -0.245692 31.800381 0.560504 -0.022590 0.827844 0.242398 0.662204 1 2 1.000000
  2 27.218166 -1.170572 31.713249 0.560504 -0.022582 0.827844 0.254540 0.750492 1 2 1.000000
  2 28.244156 -0.311603 32.535397 0.734153 0.321598 0.597991 0.133691 0.660405 1 2 1.000000
pistol
  2 27.975838 -2.403673 32.525597 0.649460 -0.456996 0.607747 0.133638 0.857665 1 2 1.000000
  2 28.960705 -2.525093 31.381748 0.649429 -0.457114 0.607691 0.007687 0.857666 1 2 1.000000
  2 29.223715 -1.381890 31.497658 0.750381 -0.086575 0.655311 0.008365 0.748236 1 2 1.000000
pistol
  2 27.389610 -2.320752 32.339001 0.574272 -0.023241 0.818335 0.292195 0.826486 1 2 1.000000
  2 27.016953 -2.272023 32.768875 0.574272 -0.023241 0.818335 0.339688 0.826484 1 2 1.000000
  2 27.098780 -2.619077 32.631355 0.574272 -0.023241 0.818335 0.324172 0.857158 1 2 1.000000
pistol
  2 27.389610 -2.320752 32.339001 0.574272 -0.023241 0.818335 0.292195 0.826486 1 2 1.000000
  2 27.098780 -2.619077 32.631355 0.574272 -0.023241 0.818335 0.324172 0.857158 1 2 1.000000
  2 27.016953 -2.272023 32.768875 0.574272 -0.023241 0.818335 0.339688 0.826484 1 2 1.000000
pistol
  2 27.098780 -2.619077 32.631355 0.574272 -0.023241 0.818335 0.324172 0.857158 1 2 1.000000
  2 27.352093 -2.636940 32.342785 0.582777 -0.025935 0.812218 0.292225 0.855745 1 2 1.000000
  2 27.389610 -2.320752 32.339001 0.574272 -0.023241 0.818335 0.292195 0.826486 1 2 1.000000
pistol
  2 27.098780 -2.619077 32.631355 0.574272 -0.023241 0.818335 0.324172 0.857158 1 2 1.000000
  2 27.389610 -2.320752 32.339001 0.574272 -0.023241 0.818335 0.292195 0.826486 1 2 1.000000
  2 27.352093 -2.636940 32.342785 0.582777 -0.025935 0.812218 0.292225 0.855745 1 2 1.000000
pistol
  2 22.093576 -1.692552 37.962143 0.596703 -0.026758 0.802016 0.918038 0.896573 1 2 1.000000
  2 22.659153 -1.770840 38.477467 0.751016 -0.081238 0.655267 0.895006 0.850964 1 2 1.000000
  2 22.057802 -1.986211 37.964409 0.596703 -0.026758 0.802016 0.942574 0.896672 1 2 1.000000
pistol
  2 22.625456 -2.064744 38.479652 0.751023 -0.081238 0.655259 0.895006 0.878645 1 2 1.000000
  2 22.057802 -1.986211 37.964409 0.596703 -0.026758 0.802016 0.942574 0.896672 1 2 1.000000
  2 22.659153 -1.770840 38.477467 0.751016 -0.081238 0.655267 0.895006 0.850964 1 2 1.000000
pistol
  2 22.057802 -1.986211 37.964409 0.560506 -0.022574 0.827843 0.942574 0.896672 1 2 1.000000
  2 22.625456 -2.064744 38.479652 0.751023 -0.081238 0.655259 0.895006 0.878645 1 2 1.000000
  2 22.659153 -1.770840 38.477467 0.751016 -0.081238 0.655267 0.895006 0.850964 1 2 1.000000
pistol
  2 22.659153 -1.770840 38.477467 0.751016 -0.081238 0.655267 0.895006 0.850964 1 2 1.000000
  2 22.093576 -1.692552 37.962143 0.560506 -0.022574 0.827843 0.971049 0.896573 1 2 1.000000
  2 22.057802 -1.986211 37.964409 0.560506 -0.022574 0.827843 0.942574 0.896672 1 2 1.000000
pistol
  2 22.134462 -1.365120 38.661072 0.571933 -0.046279 0.818994 0.765861 0.655692 1 2 1.000000
  2 21.695709 -1.196111 38.865772 0.571933 -0.046279 0.818994 0.815988 0.684249 1 2 1.000000
  2 21.999947 -1.350289 38.542770 0.571933 -0.046279 0.818994 0.765861 0.680752 1 2 1.000000
pistol
  2 21.871864 -1.215531 39.020687 0.571933 -0.046279 0.818994 0.815988 0.652195 1 2 1.000000
  2 21.695709 -1.196111 38.865772 0.571933 -0.046279 0.818994 0.815988 0.684249 1 2 1.000000
  2 22.134462 -1.365120 38.661072 0.571933 -0.046279 0.818994 0.765861 0.655692 1 2 1.000000
pistol
  2 23.965733 -0.525632 35.736183 0.574251 -0.017458 0.818493 0.684821 0.443612 1 2 1.000000
  2 25.485003 -0.146448 34.148041 0.574251 -0.017458 0.818493 0.517081 0.390084 1 2 1.000000
  2 25.373747 -0.739874 34.109722 0.574547 -0.020998 0.818202 0.515101 0.445088 1 2 1.000000
pistol
  2 25.485003 -0.146448 34.148041 0.574251 -0.017458 0.818493 0.517081 0.390084 1 2 1.000000
  2 23.965733 -0.525632 35.736183 0.574251 -0.017458 0.818493 0.684821 0.443612 1 2 1.000000
  2 24.185461 0.009398 35.919315 0.574060 -0.014109 0.818692 0.688157 0.391642 1 2 1.000000
pistol
  4 -24.779657 -0.615536 36.434509 0.560304 -0.020522 0.828032 0.684821 0.443612 1 4 1.000000
  4 -24.621462 -0.038663 36.302757 0.561218 -0.016902 0.827495 0.688157 0.391642 1 4 1.000000
  4 -26.190962 -0.224273 34.768898 0.560304 -0.020522 0.828032 0.517081 0.390084 1 4 1.000000
pistol
  4 -26.190962 -0.224273 34.768898 0.560304 -0.020522 0.828032 0.517081 0.390084 1 4 1.000000
  4 -26.168785 -0.827522 34.808918 0.559890 -0.024260 0.828212 0.515101 0.445088 1 4 1.000000
  4 -24.779657 -0.615536 36.434509 0.560304 -0.020522 0.828032 0.684821 0.443612 1 4 1.000000
pistol
  4 -24.621462 -0.038663 36.302757 0.577138 -0.001839 0.816644 0.688157 0.365284 1 4 1.000000
  4 -24.185453 0.009406 35.919315 0.577138 -0.001839 0.816644 0.688157 0.311112 1 4 1.000000
  4 -25.486925 -0.146653 34.149734 0.577138 -0.001839 0.816644 0.517081 0.294179 1 4 1.000000
pistol
  4 -25.486925 -0.146653 34.149734 0.577138 -0.001839 0.816644 0.517081 0.294179 1 4 1.000000
  4 -26.190962 -0.224273 34.768898 0.577138 -0.001839 0.816644 0.517081 0.382161 1 4 1.000000
  4 -24.621462 -0.038663 36.302757 0.577138 -0.001839 0.816644 0.688157 0.365284 1 4 1.000000
pistol
  4 -27.098776 -2.619070 32.631351 0.559959 -0.026529 0.828096 0.324172 0.857158 1 4 1.000000
  4 -27.012394 -2.251572 32.781437 0.624536 -0.414797 0.661739 0.273006 0.870857 1 4 1.000000
  4 -27.389606 -2.320745 32.338997 0.559959 -0.026529 0.828096 0.292195 0.826486 1 4 1.000000
pistol
  4 -27.389606 -2.320745 32.338997 0.559959 -0.026529 0.828096 0.292195 0.826486 1 4 1.000000
  4 -27.352091 -2.636932 32.342781 0.559960 -0.026442 0.828097 0.292225 0.855745 1 4 1.000000
  4 -27.098776 -2.619070 32.631351 0.559959 -0.026529 0.828096 0.324172 0.857158 1 4 1.000000
pistol
  4 -27.012394 -2.251572 32.781437 0.624536 -0.414797 0.661739 0.273006 0.870857 1 4 1.000000
  4 -27.098776 -2.619070 32.631351 0.597133 -0.022772 0.801819 0.324172 0.857158 1 4 1.000000
  4 -27.389606 -2.320745 32.338997 0.597133 -0.022772 0.801819 0.292195 0.826486 1 4 1.000000
pistol
  4 -27.352091 -2.636932 32.342781 0.597134 -0.022858 0.801815 0.292225 0.855745 1 4 1.000000
  4 -27.389606 -2.320745 32.338997 0.597133 -0.022772 0.801819 0.292195 0.826486 1 4 1.000000
  4 -27.098776 -2.619070 32.631351 0.597133 -0.022772 0.801819 0.324172 0.857158 1 4 1.000000
pistol
  4 -21.999941 -1.350283 38.542763 0.578501 -0.044453 0.814470 0.745167 0.680752 1 4 1.000000
  4 -22.554565 -0.981094 38.231506 0.578501 -0.044453 0.814470 0.662631 0.655692 1 4 1.000000
  4 -22.420052 -0.966264 38.113205 0.578501 -0.044453 0.814470 0.662631 0.680752 1 4 1.000000
pistol
  4 -22.554565 -0.981094 38.231506 0.578501 -0.044453 0.814470 0.662631 0.655692 1 4 1.000000
  4 -21.999941 -1.350283 38.542763 0.578501 -0.044453 0.814470 0.745167 0.680752 1 4 1.000000
  4 -22.134455 -1.365113 38.661064 0.578501 -0.044453 0.814470 0.745167 0.655692 1 4 1.000000
pistol
  2 25.188410 0.599677 35.179058 0.582826 -0.025977 0.812182 0.520118 0.476968 1 2 1.000000
  2 24.215162 -0.321856 36.170189 0.582826 -0.025977 0.812182 0.640064 0.583723 1 2 1.000000
  2 25.036846 -0.389037 35.227451 0.582826 -0.025977 0.812182 0.525689 0.579362 1 2 1.000000
pistol
  2 25.188410 0.599677 35.179058 0.582826 -0.025977 0.812182 0.520118 0.476968 1 2 1.000000
  2 24.224335 0.613437 36.277012 0.582826 -0.025977 0.812182 0.652971 0.488708 1 2 1.000000
  2 24.215162 -0.321856 36.170189 0.582826 -0.025977 0.812182 0.640064 0.583723 1 2 1.000000
pistol
  2 25.188410 0.599677 35.179058 0.582826 -0.025977 0.812182 0.520118 0.476968 1 2 1.000000
  2 24.215162 -0.321856 36.170189 0.582826 -0.025977 0.812182 0.640064 0.583723 1 2 1.000000
  2 24.224335 0.613437 36.277012 0.582826 -0.025977 0.812182 0.652971 0.488708 1 2 1.000000
pistol
  2 25.188410 0.599677 35.179058 0.582826 -0.025977 0.812182 0.520118 0.476968 1 2 1.000000
  2 25.036846 -0.389037 35.227451 0.582826 -0.025977 0.812182 0.525689 0.579362 1 2 1.000000
  2 24.215162 -0.321856 36.170189 0.582826 -0.025977 0.812182 0.640064 0.583723 1 2 1.000000
pistol
  4 -24.265699 0.952484 35.935730 0.577389 -0.001817 0.816467 0.712921 0.189217 1 4 1.000000
  4 -25.413099 0.975252 35.512234 0.577201 -0.001790 0.816600 0.612787 0.249870 1 4 1.000000
  4 -24.724676 0.901883 36.339375 0.577422 -0.001812 0.816444 0.712953 0.253597 1 4 1.000000
pistol
  4 -25.413099 0.975252 35.512234 0.577201 -0.001790 0.816600 0.612787 0.249870 1 4 1.000000
  4 -24.265699 0.952484 35.935730 0.577389 -0.001817 0.816467 0.712921 0.189217 1 4 1.000000
  4 -24.994678 1.021558 35.161736 0.577185 -0.001791 0.816612 0.612787 0.192658 1 4 1.000000
pistol
  4 -24.994678 1.021558 35.161736 0.577185 -0.001791 0.816612 0.612787 0.192658 1 4 1.000000
  4 -25.911266 0.802732 34.088657 0.577031 -0.002042 0.816719 0.478845 0.192420 1 4 1.000000
  4 -25.413099 0.975252 35.512234 0.577201 -0.001790 0.816600 0.612787 0.249870 1 4 1.000000
pistol
  4 -25.413099 0.975252 35.512234 0.577201 -0.001790 0.816600 0.612787 0.249870 1 4 1.000000
  4 -25.911266 0.802732 34.088657 0.577031 -0.002042 0.816719 0.478845 0.192420 1 4 1.000000
  4 -26.333046 0.756054 34.442112 0.576807 -0.018842 0.816663 0.478845 0.250108 1 4 1.000000
pistol
  4 -26.333046 0.756054 34.442112 0.576807 -0.018842 0.816663 0.478845 0.250108 1 4 1.000000
  4 -25.911266 0.802732 34.088657 0.577031 -0.002042 0.816719 0.478845 0.192420 1 4 1.000000
  4 -26.452301 -0.088915 34.229641 0.577067 -0.001927 0.816694 0.394974 0.252821 1 4 1.000000
pistol
  4 -26.005562 -0.039663 33.836761 0.577067 -0.001927 0.816694 0.394974 0.189699 1 4 1.000000
  4 -26.452301 -0.088915 34.229641 0.577067 -0.001927 0.816694 0.394974 0.252821 1 4 1.000000
  4 -25.911266 0.802732 34.088657 0.577031 -0.002042 0.816719 0.478845 0.192420 1 4 1.000000
pistol
  4 -28.384315 -0.425774 32.258987 0.577067 -0.001927 0.816694 0.133562 0.271501 1 4 1.000000
  4 -26.452301 -0.088915 34.229641 0.577067 -0.001927 0.816694 0.394974 0.252821 1 4 1.000000
  4 -26.005562 -0.039663 33.836761 0.577067 -0.001927 0.816694 0.394974 0.189699 1 4 1.000000
pistol
  4 -26.005562 -0.039663 33.836761 0.577067 -0.001927 0.816694 0.394974 0.189699 1 4 1.000000
  4 -27.675716 -0.347651 31.635813 0.577067 -0.001927 0.816694 0.133562 0.171383 1 4 1.000000
  4 -28.384315 -0.425774 32.258987 0.577067 -0.001927 0.816694 0.133562 0.271501 1 4 1.000000
pistol
  4 -22.057796 -1.986204 37.964405 0.580451 -0.022197 0.813992 0.942574 0.896672 1 4 1.000000
  4 -22.648399 -1.753715 38.450081 0.576763 -0.027240 0.816458 0.918038 0.827200 1 4 1.000000
  4 -22.093569 -1.692547 37.962139 0.576763 -0.027240 0.816458 0.918038 0.896573 1 4 1.000000
pistol
  4 -22.648399 -1.753715 38.450081 0.576763 -0.027240 0.816458 0.918038 0.827200 1 4 1.000000
  4 -22.057796 -1.986204 37.964405 0.580451 -0.022197 0.813992 0.942574 0.896672 1 4 1.000000
  4 -22.613895 -2.047514 38.453465 0.580451 -0.022197 0.813992 0.942574 0.827140 1 4 1.000000
pistol
  4 -22.648399 -1.753715 38.450081 0.580451 -0.022197 0.813992 0.971049 0.827200 1 4 1.000000
  4 -22.613895 -2.047514 38.453465 0.580451 -0.022197 0.813992 0.942574 0.827140 1 4 1.000000
  4 -22.057796 -1.986204 37.964405 0.580451 -0.022197 0.813992 0.942574 0.896672 1 4 1.000000
pistol
  4 -22.057796 -1.986204 37.964405 0.580451 -0.022197 0.813992 0.942574 0.896672 1 4 1.000000
  4 -22.093569 -1.692547 37.962139 0.580451 -0.022197 0.813992 0.971049 0.896573 1 4 1.000000
  4 -22.648399 -1.753715 38.450081 0.580451 -0.022197 0.813992 0.971049 0.827200 1 4 1.000000
pistol
  2 26.091322 -0.118877 34.910519 0.680825 0.532421 0.502997 0.490300 0.556498 1 2 1.000000
  2 28.364483 -0.399134 32.267868 0.640372 0.593168 0.487930 0.161641 0.556641 1 2 1.000000
  2 26.440825 -0.076383 34.248730 0.683241 0.545944 0.484899 0.422151 0.546499 1 2 1.000000
pistol
  2 26.091322 -0.118877 34.910519 0.680825 0.532421 0.502997 0.490300 0.556498 1 2 1.000000
  2 28.492941 -1.274022 32.167587 0.733833 -0.183523 0.654071 0.141135 0.647216 1 2 1.000000
  2 28.364483 -0.399134 32.267868 0.640372 0.593168 0.487930 0.161641 0.556641 1 2 1.000000
pistol
  2 26.091322 -0.118877 34.910519 0.680825 0.532421 0.502997 0.490300 0.556498 1 2 1.000000
  2 26.075563 -0.976058 34.963367 0.732445 -0.195011 0.652300 0.487930 0.647065 1 2 1.000000
  2 28.492941 -1.274022 32.167587 0.733833 -0.183523 0.654071 0.141135 0.647216 1 2 1.000000
pistol
  2 21.879045 -1.236512 39.049503 0.813821 -0.097364 0.572901 0.643961 0.653922 1 2 1.000000
  2 22.516323 -0.740690 38.341213 0.750610 -0.084775 0.655285 0.539614 0.590946 1 2 1.000000
  2 21.898216 -1.003625 39.061852 0.807854 -0.105540 0.579856 0.638028 0.632739 1 2 1.000000
pistol
  2 22.516323 -0.740690 38.341213 0.750610 -0.084775 0.655285 0.539614 0.590946 1 2 1.000000
  2 21.879045 -1.236512 39.049503 0.813821 -0.097364 0.572901 0.643961 0.653922 1 2 1.000000
  2 22.140734 -1.383729 38.688248 0.750610 -0.084777 0.655284 0.578597 0.670622 1 2 1.000000
pistol
  2 22.140734 -1.383729 38.688248 0.750610 -0.084777 0.655284 0.578597 0.670622 1 2 1.000000
  2 22.558823 -0.996706 38.259411 0.750610 -0.084776 0.655285 0.526954 0.622125 1 2 1.000000
  2 22.516323 -0.740690 38.341213 0.750610 -0.084775 0.655285 0.539614 0.590946 1 2 1.000000
pistol
  2 25.392065 -0.049165 34.267395 0.575610 -0.013592 0.817611 0.490300 0.556498 1 2 1.000000
  2 27.646051 -1.205976 31.402588 0.574548 -0.020570 0.818212 0.141135 0.647216 1 2 1.000000
  2 25.231802 -0.890268 34.199123 0.574510 -0.020695 0.818236 0.487930 0.647065 1 2 1.000000
pistol
  2 25.392065 -0.049165 34.267395 0.575610 -0.013592 0.817611 0.490300 0.556498 1 2 1.000000
  2 27.675722 -0.347658 31.635815 0.576364 -0.010094 0.817131 0.161641 0.556641 1 2 1.000000
  2 27.646051 -1.205976 31.402588 0.574548 -0.020570 0.818212 0.141135 0.647216 1 2 1.000000
pistol
  2 25.392065 -0.049165 34.267395 0.575610 -0.013592 0.817611 0.490300 0.556498 1 2 1.000000
  2 26.005568 -0.039670 33.836765 0.578640 -0.003402 0.815576 0.422151 0.546499 1 2 1.000000
  2 27.675722 -0.347658 31.635815 0.576364 -0.010094 0.817131 0.161641 0.556641 1 2 1.000000
pistol
  4 -28.244154 -0.311605 32.535393 0.650697 0.077459 0.755376 0.242398 0.662204 1 4 1.000000
  4 -27.218163 -1.170564 31.713245 0.580456 -0.022205 0.813989 0.254540 0.750492 1 4 1.000000
  4 -27.405188 -0.216848 31.802975 0.650729 0.078561 0.755235 0.149433 0.662204 1 4 1.000000
pistol
  4 -27.182045 -2.313994 31.832607 0.650381 0.080181 0.755364 0.151904 0.859544 1 4 1.000000
  4 -27.218163 -1.170564 31.713245 0.580456 -0.022205 0.813989 0.254540 0.750492 1 4 1.000000
  4 -28.244154 -0.311605 32.535393 0.650697 0.077459 0.755376 0.242398 0.662204 1 4 1.000000
pistol
  4 -28.244154 -0.311605 32.535393 0.650697 0.077459 0.755376 0.242398 0.662204 1 4 1.000000
  4 -28.273117 -1.286871 32.641018 0.580446 -0.022204 0.813996 0.137290 0.750492 1 4 1.000000
  4 -27.182045 -2.313994 31.832607 0.650381 0.080181 0.755364 0.151904 0.859544 1 4 1.000000
pistol
  4 -28.273117 -1.286871 32.641018 0.580446 -0.022204 0.813996 0.137290 0.750492 1 4 1.000000
  4 -27.975836 -2.403675 32.525597 0.650380 0.080176 0.755365 0.239864 0.859546 1 4 1.000000
  4 -27.182045 -2.313994 31.832607 0.650381 0.080181 0.755364 0.151904 0.859544 1 4 1.000000
pistol
  4 -27.186031 -1.141615 31.711590 0.650382 0.080184 0.755364 0.137290 0.750492 1 4 1.000000
  4 -28.148506 -0.338460 30.981506 0.596713 -0.019348 0.802221 0.043220 0.660403 1 4 1.000000
  4 -27.405188 -0.216848 31.802975 0.650729 0.078561 0.755235 0.149433 0.662204 1 4 1.000000
pistol
  4 -28.201162 -1.299062 30.579390 0.597179 -0.023942 0.801750 0.008365 0.748236 1 4 1.000000
  4 -28.148506 -0.338460 30.981506 0.596713 -0.019348 0.802221 0.043220 0.660403 1 4 1.000000
  4 -27.186031 -1.141615 31.711590 0.650382 0.080184 0.755364 0.137290 0.750492 1 4 1.000000
pistol
  4 -27.186031 -1.141615 31.711590 0.650382 0.080184 0.755364 0.137290 0.750492 1 4 1.000000
  4 -27.182045 -2.313994 31.832607 0.650381 0.080181 0.755364 0.151904 0.859544 1 4 1.000000
  4 -28.201162 -1.299062 30.579390 0.597179 -0.023942 0.801750 0.008365 0.748236 1 4 1.000000
pistol
  4 -28.200706 -2.471550 30.701031 0.597125 -0.026249 0.801718 0.007687 0.857666 1 4 1.000000
  4 -28.201162 -1.299062 30.579390 0.597179 -0.023942 0.801750 0.008365 0.748236 1 4 1.000000
  4 -27.182045 -2.313994 31.832607 0.650381 0.080181 0.755364 0.151904 0.859544 1 4 1.000000
pistol
  4 -27.438580 -0.245685 31.800377 0.577124 -0.001853 0.816654 0.004954 0.512384 1 4 1.000000
  4 -28.984959 -0.430678 31.717117 0.577124 -0.001853 0.816654 0.099948 0.402569 1 4 1.000000
  4 -28.275030 -0.337902 32.535992 0.577124 -0.001853 0.816654 0.004954 0.402569 1 4 1.000000
pistol
  4 -28.984959 -0.430678 31.717117 0.577124 -0.001853 0.816654 0.099948 0.402569 1 4 1.000000
  4 -27.438580 -0.245685 31.800377 0.577124 -0.001853 0.816654 0.004954 0.512384 1 4 1.000000
  4 -28.148506 -0.338460 30.981506 0.577124 -0.001853 0.816654 0.099450 0.512384 1 4 1.000000
pistol
  4 -29.256115 -1.415371 31.507162 0.576508 -0.022272 0.816788 0.192213 0.389704 1 4 1.000000
  4 -28.984959 -0.430678 31.717117 0.577124 -0.001853 0.816654 0.099948 0.402569 1 4 1.000000
  4 -28.148506 -0.338460 30.981506 0.577124 -0.001853 0.816654 0.099450 0.512384 1 4 1.000000
pistol
  4 -28.201162 -1.299062 30.579390 0.576508 -0.022272 0.816788 0.192213 0.528205 1 4 1.000000
  4 -29.256115 -1.415371 31.507162 0.576508 -0.022272 0.816788 0.192213 0.389704 1 4 1.000000
  4 -28.148506 -0.338460 30.981506 0.577124 -0.001853 0.816654 0.099450 0.512384 1 4 1.000000
pistol
  4 -29.256115 -1.415371 31.507162 0.576508 -0.022272 0.816788 0.192213 0.389704 1 4 1.000000
  4 -28.201162 -1.299062 30.579390 0.576508 -0.022272 0.816788 0.192213 0.528205 1 4 1.000000
  4 -28.200706 -2.471550 30.701031 0.579872 -0.047351 0.813331 0.293873 0.510869 1 4 1.000000
pistol
  4 -28.992126 -2.558776 31.397032 0.579872 -0.047351 0.813331 0.293872 0.406967 1 4 1.000000
  4 -29.256115 -1.415371 31.507162 0.576508 -0.022272 0.816788 0.192213 0.389704 1 4 1.000000
  4 -28.200706 -2.471550 30.701031 0.579872 -0.047351 0.813331 0.293873 0.510869 1 4 1.000000
pistol
  4 -28.992126 -2.558776 31.397032 0.579872 -0.047351 0.813331 0.293872 0.406967 1 4 1.000000
  4 -28.200706 -2.471550 30.701031 0.579872 -0.047351 0.813331 0.293873 0.510869 1 4 1.000000
  4 -27.212378 -2.342355 31.841034 0.579872 -0.047351 0.813331 0.426398 0.510869 1 4 1.000000
pistol
  4 -27.212378 -2.342355 31.841034 0.579872 -0.047351 0.813331 0.426398 0.510869 1 4 1.000000
  4 -28.003798 -2.429582 32.537037 0.579872 -0.047351 0.813331 0.426398 0.406967 1 4 1.000000
  4 -28.992126 -2.558776 31.397032 0.579872 -0.047351 0.813331 0.293872 0.406967 1 4 1.000000
pistol
  2 22.582798 4.422097 37.796093 0.567212 -0.025204 0.823186 0.948380 0.127540 1 2 1.000000
  2 23.861858 4.334857 36.372238 0.581690 -0.022803 0.813091 0.769713 0.119207 1 2 1.000000
  2 22.760929 0.243318 37.120602 0.571436 -0.017561 0.820459 0.857226 0.562158 1 2 1.000000
pistol
  2 22.582798 4.422097 37.796093 0.567212 -0.025204 0.823186 0.948380 0.127540 1 2 1.000000
  2 22.776234 0.402033 37.645561 0.564316 -0.026059 0.825147 0.893218 0.544073 1 2 1.000000
  2 22.468596 4.204826 38.258587 0.566371 -0.025964 0.823741 0.986187 0.150970 1 2 1.000000
pistol
  2 22.760929 0.243318 37.120602 0.571436 -0.017561 0.820459 0.857226 0.562158 1 2 1.000000
  2 22.776234 0.402033 37.645561 0.564316 -0.026059 0.825147 0.893218 0.544073 1 2 1.000000
  2 22.582798 4.422097 37.796093 0.567212 -0.025204 0.823186 0.948380 0.127540 1 2 1.000000
pistol
  2 22.760929 0.243318 37.120602 0.571436 -0.017561 0.820459 0.857226 0.562158 1 2 1.000000
  2 22.080933 0.223574 38.378277 0.573149 -0.007336 0.819418 0.986284 0.572290 1 2 1.000000
  2 22.776234 0.402033 37.645561 0.564316 -0.026059 0.825147 0.893218 0.544073 1 2 1.000000
pistol
  2 22.080933 0.223574 38.378277 0.573149 -0.007336 0.819418 0.986284 0.572290 1 2 1.000000
  2 22.760929 0.243318 37.120602 0.571436 -0.017561 0.820459 0.857226 0.562158 1 2 1.000000
  2 21.770781 -0.275136 38.044800 0.573476 -0.015530 0.819075 0.978139 0.629281 1 2 1.000000
pistol
  2 23.965733 -0.525632 35.736183 0.580086 -0.022431 0.814246 0.677907 0.625970 1 2 1.000000
  2 21.770781 -0.275136 38.044800 0.573476 -0.015530 0.819075 0.978139 0.629281 1 2 1.000000
  2 22.760929 0.243318 37.120602 0.571436 -0.017561 0.820459 0.857226 0.562158 1 2 1.000000
pistol
  2 23.861858 4.334857 36.372238 0.581690 -0.022803 0.813091 0.769713 0.119207 1 2 1.000000
  2 23.965733 -0.525632 35.736183 0.580086 -0.022431 0.814246 0.677907 0.625970 1 2 1.000000
  2 22.760929 0.243318 37.120602 0.571436 -0.017561 0.820459 0.857226 0.562158 1 2 1.000000
pistol
  2 23.861858 4.334857 36.372238 0.581690 -0.022803 0.813091 0.769713 0.119207 1 2 1.000000
  2 24.265707 0.952478 35.935734 0.588299 -0.022394 0.808333 0.686603 0.466432 1 2 1.000000
  2 23.965733 -0.525632 35.736183 0.580086 -0.022431 0.814246 0.677907 0.625970 1 2 1.000000
pistol
  2 24.265707 0.952478 35.935734 0.588299 -0.022394 0.808333 0.686603 0.466432 1 2 1.000000
  2 23.861858 4.334857 36.372238 0.581690 -0.022803 0.813091 0.769713 0.119207 1 2 1.000000
  2 24.280466 4.292138 36.289383 0.586623 -0.022736 0.809541 0.740311 0.136989 1 2 1.000000
pistol
  4 -28.984959 -0.430678 31.717117 0.559957 -0.022994 0.828203 0.043220 0.660403 1 4 1.000000
  4 -28.273117 -1.286871 32.641018 0.559907 -0.025285 0.828170 0.133637 0.748235 1 4 1.000000
  4 -28.275030 -0.337902 32.535992 0.559957 -0.022994 0.828203 0.133691 0.660405 1 4 1.000000
pistol
  4 -28.984959 -0.430678 31.717117 0.559957 -0.022994 0.828203 0.043220 0.660403 1 4 1.000000
  4 -29.256115 -1.415371 31.507162 0.560048 -0.027593 0.828001 0.008365 0.748236 1 4 1.000000
  4 -28.273117 -1.286871 32.641018 0.559907 -0.025285 0.828170 0.133637 0.748235 1 4 1.000000
pistol
  4 -28.003798 -2.429582 32.537037 0.560374 -0.029847 0.827702 0.133638 0.857665 1 4 1.000000
  4 -28.273117 -1.286871 32.641018 0.559907 -0.025285 0.828170 0.133637 0.748235 1 4 1.000000
  4 -29.256115 -1.415371 31.507162 0.560048 -0.027593 0.828001 0.008365 0.748236 1 4 1.000000
pistol
  4 -29.256115 -1.415371 31.507162 0.560048 -0.027593 0.828001 0.008365 0.748236 1 4 1.000000
  4 -28.992126 -2.558776 31.397032 0.560374 -0.029847 0.827702 0.007687 0.857666 1 4 1.000000
  4 -28.003798 -2.429582 32.537037 0.560374 -0.029847 0.827702 0.133638 0.857665 1 4 1.000000
pistol
  2 26.005568 -0.039670 33.836765 0.578582 -0.001775 0.815622 0.120938 0.346235 1 2 1.000000
  2 26.101915 -0.127427 34.891674 0.578582 -0.001775 0.815622 0.083746 0.269317 1 2 1.000000
  2 26.452305 -0.088923 34.229645 0.578582 -0.001775 0.815622 0.121037 0.286634 1 2 1.000000
pistol
  2 26.101915 -0.127427 34.891674 0.578582 -0.001775 0.815622 0.083746 0.269317 1 2 1.000000
  2 26.005568 -0.039670 33.836765 0.578582 -0.001775 0.815622 0.120938 0.346235 1 2 1.000000
  2 25.392065 -0.049165 34.267395 0.560461 -0.023068 0.827860 0.083590 0.363311 1 2 1.000000
pistol
  2 25.231802 -0.890268 34.199123 0.560469 -0.023159 0.827852 0.008306 0.372237 1 2 1.000000
  2 26.101915 -0.127427 34.891674 0.578582 -0.001775 0.815622 0.083746 0.269317 1 2 1.000000
  2 25.392065 -0.049165 34.267395 0.560461 -0.023068 0.827860 0.083590 0.363311 1 2 1.000000
pistol
  2 26.101915 -0.127427 34.891674 0.578582 -0.001775 0.815622 0.083746 0.269317 1 2 1.000000
  2 25.231802 -0.890268 34.199123 0.560469 -0.023159 0.827852 0.008306 0.372237 1 2 1.000000
  2 26.096371 -0.985682 34.949989 0.560477 -0.023250 0.827844 0.008356 0.258126 1 2 1.000000
pistol
  2 22.507013 -0.723769 38.317852 0.574295 -0.002542 0.818644 0.975095 0.655692 1 2 1.000000
  2 22.377728 -0.709748 38.193504 0.574360 -0.002544 0.818599 0.975361 0.680752 1 2 1.000000
  2 21.891386 -0.982614 39.031849 0.574360 -0.002544 0.818599 0.856174 0.651431 1 2 1.000000
pistol
  2 21.711136 -0.962741 38.873329 0.574426 -0.002548 0.818553 0.856174 0.685012 1 2 1.000000
  2 21.891386 -0.982614 39.031849 0.574360 -0.002544 0.818599 0.856174 0.651431 1 2 1.000000
  2 22.377728 -0.709748 38.193504 0.574360 -0.002544 0.818599 0.975361 0.680752 1 2 1.000000
pistol
  2 21.891386 -0.982614 39.031849 0.574360 -0.002544 0.818599 0.856174 0.651431 1 2 1.000000
  2 21.711136 -0.962741 38.873329 0.574426 -0.002548 0.818553 0.856174 0.685012 1 2 1.000000
  2 21.871864 -1.215531 39.020687 0.560396 -0.024086 0.827875 0.836386 0.651431 1 2 1.000000
pistol
  2 21.695709 -1.196111 38.865772 0.560396 -0.024086 0.827875 0.836386 0.685012 1 2 1.000000
  2 21.871864 -1.215531 39.020687 0.560396 -0.024086 0.827875 0.836386 0.651431 1 2 1.000000
  2 21.711136 -0.962741 38.873329 0.574426 -0.002548 0.818553 0.856174 0.685012 1 2 1.000000
pistol
  4 -23.286448 -1.748061 37.493176 0.560397 -0.029673 0.827692 0.874794 0.907140 1 4 1.000000
  4 -22.491716 -1.858900 38.349949 0.651049 0.071737 0.755638 0.969303 0.981001 1 4 1.000000
  4 -22.523994 -1.647157 38.357849 0.651417 0.071119 0.755380 0.980110 0.982073 1 4 1.000000
pistol
  4 -22.491716 -1.858900 38.349949 0.651049 0.071737 0.755638 0.969303 0.981001 1 4 1.000000
  4 -23.286448 -1.748061 37.493176 0.560397 -0.029673 0.827692 0.874794 0.907140 1 4 1.000000
  4 -23.129463 -1.926412 37.589058 0.560584 -0.030720 0.827527 0.888120 0.924349 1 4 1.000000
pistol
  4 -22.966440 -1.712782 37.211746 0.597173 -0.025656 0.801702 0.874794 0.907140 1 4 1.000000
  4 -22.238998 -1.829996 38.129639 0.650683 0.072355 0.755895 0.969325 0.949513 1 4 1.000000
  4 -22.868780 -1.897672 37.359802 0.597035 -0.027332 0.801750 0.888120 0.924349 1 4 1.000000
pistol
  4 -22.238998 -1.829996 38.129639 0.650683 0.072355 0.755895 0.969325 0.949513 1 4 1.000000
  4 -22.966440 -1.712782 37.211746 0.597173 -0.025656 0.801702 0.874794 0.907140 1 4 1.000000
  4 -22.247149 -1.615889 38.116158 0.651049 0.071737 0.755638 0.980110 0.947561 1 4 1.000000
pistol
  4 -22.523994 -1.647157 38.357849 0.651417 0.071119 0.755380 0.980110 0.982073 1 4 1.000000
  4 -22.238998 -1.829996 38.129639 0.650683 0.072355 0.755895 0.969325 0.949513 1 4 1.000000
  4 -22.247149 -1.615889 38.116158 0.651049 0.071737 0.755638 0.980110 0.947561 1 4 1.000000
pistol
  4 -22.238998 -1.829996 38.129639 0.650683 0.072355 0.755895 0.969325 0.949513 1 4 1.000000
  4 -22.523994 -1.647157 38.357849 0.651417 0.071119 0.755380 0.980110 0.982073 1 4 1.000000
  4 -22.491716 -1.858900 38.349949 0.651049 0.071737 0.755638 0.969303 0.981001 1 4 1.000000
pistol
  4 -22.491716 -1.858900 38.349949 0.651049 0.071737 0.755638 0.969303 0.981001 1 4 1.000000
  4 -22.868780 -1.897672 37.359802 0.579293 -0.047281 0.813747 0.887591 0.981107 1 4 1.000000
  4 -22.238998 -1.829996 38.129639 0.650683 0.072355 0.755895 0.969325 0.949513 1 4 1.000000
pistol
  4 -22.868780 -1.897672 37.359802 0.579293 -0.047281 0.813747 0.887591 0.981107 1 4 1.000000
  4 -22.491716 -1.858900 38.349949 0.651049 0.071737 0.755638 0.969303 0.981001 1 4 1.000000
  4 -23.129463 -1.926412 37.589058 0.578621 -0.045054 0.814352 0.887591 0.948512 1 4 1.000000
pistol
  4 -22.868780 -1.897672 37.359802 0.579293 -0.047281 0.813747 0.887591 0.981107 1 4 1.000000
  4 -23.129463 -1.926412 37.589058 0.578621 -0.045054 0.814352 0.887591 0.948512 1 4 1.000000
  4 -22.966440 -1.712782 37.211746 0.577997 -0.041213 0.814998 0.867080 0.984813 1 4 1.000000
pistol
  4 -23.129463 -1.926412 37.589058 0.578621 -0.045054 0.814352 0.887591 0.948512 1 4 1.000000
  4 -23.286448 -1.748061 37.493176 0.577997 -0.041213 0.814998 0.867080 0.944801 1 4 1.000000
  4 -22.966440 -1.712782 37.211746 0.577997 -0.041213 0.814998 0.867080 0.984813 1 4 1.000000
pistol
  4 -27.410812 -0.986063 31.865646 0.580328 -0.001875 0.814381 0.270118 0.724484 1 4 1.000000
  4 -23.965725 -0.525626 35.736183 0.581447 -0.002038 0.813581 0.614369 0.724368 1 4 1.000000
  4 -27.329880 -1.000243 31.759464 0.581447 -0.002038 0.813581 0.270305 0.695341 1 4 1.000000
pistol
  4 -21.770777 -0.275130 38.044792 0.582557 -0.002284 0.812787 0.968915 0.695361 1 4 1.000000
  4 -27.329880 -1.000243 31.759464 0.581447 -0.002038 0.813581 0.270305 0.695341 1 4 1.000000
  4 -23.965725 -0.525626 35.736183 0.581447 -0.002038 0.813581 0.614369 0.724368 1 4 1.000000
pistol
  4 -27.329880 -1.000243 31.759464 0.581447 -0.002038 0.813581 0.270305 0.695341 1 4 1.000000
  4 -21.770777 -0.275130 38.044792 0.582557 -0.002284 0.812787 0.968915 0.695361 1 4 1.000000
  4 -21.826090 -1.418441 37.825916 0.595309 -0.034420 0.802760 0.944260 0.798087 1 4 1.000000
pistol
  4 -21.826090 -1.418441 37.825916 0.595309 -0.034420 0.802760 0.944260 0.798087 1 4 1.000000
  4 -27.191872 -2.130042 31.797684 0.595436 -0.034089 0.802680 0.270439 0.801456 1 4 1.000000
  4 -27.329880 -1.000243 31.759464 0.581447 -0.002038 0.813581 0.270305 0.695341 1 4 1.000000
pistol
  4 -21.826090 -1.418441 37.825916 0.595309 -0.034420 0.802760 0.944260 0.798087 1 4 1.000000
  4 -27.372766 -2.325436 31.976656 0.589067 -0.043352 0.806920 0.270289 0.822429 1 4 1.000000
  4 -27.191872 -2.130042 31.797684 0.595436 -0.034089 0.802680 0.270439 0.801456 1 4 1.000000
pistol
  4 -27.372766 -2.325436 31.976656 0.589067 -0.043352 0.806920 0.270289 0.822429 1 4 1.000000
  4 -21.826090 -1.418441 37.825916 0.595309 -0.034420 0.802760 0.944260 0.798087 1 4 1.000000
  4 -22.059267 -1.595931 37.971527 0.588371 -0.043910 0.807398 0.939295 0.817038 1 4 1.000000
pistol
  4 -21.898212 -1.003626 39.061844 0.656684 0.014076 0.754034 0.856174 0.685012 1 4 1.000000
  4 -22.377724 -0.709741 38.193497 0.578006 -0.002536 0.816028 0.975361 0.680752 1 4 1.000000
  4 -22.507008 -0.723763 38.317841 0.578158 -0.002533 0.815921 0.975095 0.655692 1 4 1.000000
pistol
  4 -22.377724 -0.709741 38.193497 0.578006 -0.002536 0.816028 0.975361 0.680752 1 4 1.000000
  4 -21.898212 -1.003626 39.061844 0.656684 0.014076 0.754034 0.856174 0.685012 1 4 1.000000
  4 -21.717419 -0.983207 38.904011 0.656681 0.014072 0.754037 0.856174 0.651431 1 4 1.000000
pistol
  4 -21.879042 -1.236513 39.049496 0.656687 0.014080 0.754032 0.836386 0.685012 1 4 1.000000
  4 -21.717419 -0.983207 38.904011 0.656681 0.014072 0.754037 0.856174 0.651431 1 4 1.000000
  4 -21.898212 -1.003626 39.061844 0.656684 0.014076 0.754034 0.856174 0.685012 1 4 1.000000
pistol
  4 -21.717419 -0.983207 38.904011 0.656681 0.014072 0.754037 0.856174 0.651431 1 4 1.000000
  4 -21.879042 -1.236513 39.049496 0.656687 0.014080 0.754032 0.836386 0.685012 1 4 1.000000
  4 -21.702360 -1.216558 38.895252 0.656684 0.014076 0.754034 0.836386 0.651431 1 4 1.000000
pistol
  4 -22.134455 -1.365113 38.661064 0.580284 -0.045947 0.813117 0.765861 0.655692 1 4 1.000000
  4 -21.702360 -1.216558 38.895252 0.656684 0.014076 0.754034 0.836386 0.651431 1 4 1.000000
  4 -21.879042 -1.236513 39.049496 0.656687 0.014080 0.754032 0.836386 0.685012 1 4 1.000000
pistol
  4 -21.999941 -1.350283 38.542763 0.580284 -0.045947 0.813117 0.765861 0.680752 1 4 1.000000
  4 -21.702360 -1.216558 38.895252 0.656684 0.014076 0.754034 0.836386 0.651431 1 4 1.000000
  4 -22.134455 -1.365113 38.661064 0.580284 -0.045947 0.813117 0.765861 0.655692 1 4 1.000000
pistol
  4 -22.420052 -0.966264 38.113205 0.597136 -0.022815 0.801815 0.526954 0.622125 1 4 1.000000
  4 -22.377724 -0.709741 38.193497 0.597105 -0.023225 0.801827 0.539614 0.590946 1 4 1.000000
  4 -21.999941 -1.350283 38.542763 0.597114 -0.023278 0.801819 0.578597 0.670622 1 4 1.000000
pistol
  4 -21.695705 -1.196104 38.865765 0.597081 -0.023431 0.801838 0.643961 0.653922 1 4 1.000000
  4 -21.999941 -1.350283 38.542763 0.597114 -0.023278 0.801819 0.578597 0.670622 1 4 1.000000
  4 -22.377724 -0.709741 38.193497 0.597105 -0.023225 0.801827 0.539614 0.590946 1 4 1.000000
pistol
  4 -22.377724 -0.709741 38.193497 0.597105 -0.023225 0.801827 0.539614 0.590946 1 4 1.000000
  4 -21.711130 -0.962734 38.873322 0.597085 -0.023119 0.801845 0.638028 0.632739 1 4 1.000000
  4 -21.695705 -1.196104 38.865765 0.597081 -0.023431 0.801838 0.643961 0.653922 1 4 1.000000
pistol
  2 24.265707 0.952478 35.935734 0.596787 -0.023064 0.802068 0.014458 0.047362 1 2 1.000000
  2 24.787430 4.236069 36.717754 0.596787 -0.023064 0.802068 0.308008 0.109828 1 2 1.000000
  2 24.724682 0.901875 36.339378 0.596827 -0.023120 0.802037 0.014436 0.107754 1 2 1.000000
pistol
  2 24.265707 0.952478 35.935734 0.596787 -0.023064 0.802068 0.014458 0.047362 1 2 1.000000
  2 24.280466 4.292138 36.289383 0.596746 -0.023008 0.802100 0.308008 0.044424 1 2 1.000000
  2 24.787430 4.236069 36.717754 0.596787 -0.023064 0.802068 0.308008 0.109828 1 2 1.000000
pistol
  2 24.760885 4.235735 37.162884 0.580204 -0.001791 0.814469 0.339219 0.136918 1 2 1.000000
  2 24.787430 4.236069 36.717754 0.596787 -0.023064 0.802068 0.308008 0.109828 1 2 1.000000
  2 24.280466 4.292138 36.289383 0.596746 -0.023008 0.802100 0.308008 0.044424 1 2 1.000000
pistol
  2 24.760885 4.235735 37.162884 0.580204 -0.001791 0.814469 0.339219 0.136918 1 2 1.000000
  2 24.280466 4.292138 36.289383 0.596746 -0.023008 0.802100 0.308008 0.044424 1 2 1.000000
  2 23.861858 4.334857 36.372238 0.580153 -0.001796 0.814506 0.339219 0.017423 1 2 1.000000
pistol
  2 22.582798 4.422097 37.796093 0.577034 -0.001882 0.816718 0.506825 0.015703 1 2 1.000000
  2 24.760885 4.235735 37.162884 0.580204 -0.001791 0.814469 0.339219 0.136918 1 2 1.000000
  2 23.861858 4.334857 36.372238 0.580153 -0.001796 0.814506 0.339219 0.017423 1 2 1.000000
pistol
  2 22.582798 4.422097 37.796093 0.577034 -0.001882 0.816718 0.506825 0.015703 1 2 1.000000
  2 23.513227 4.349594 38.626110 0.573582 -0.002811 0.819143 0.506825 0.138637 1 2 1.000000
  2 24.760885 4.235735 37.162884 0.580204 -0.001791 0.814469 0.339219 0.136918 1 2 1.000000
pistol
  2 23.513227 4.349594 38.626110 0.573582 -0.002811 0.819143 0.506825 0.138637 1 2 1.000000
  2 22.582798 4.422097 37.796093 0.577034 -0.001882 0.816718 0.506825 0.015703 1 2 1.000000
  2 22.468596 4.204826 38.258587 0.560628 -0.028468 0.827578 0.543509 0.039196 1 2 1.000000
pistol
  2 23.513227 4.349594 38.626110 0.573582 -0.002811 0.819143 0.506825 0.138637 1 2 1.000000
  2 22.468596 4.204826 38.258587 0.560628 -0.028468 0.827578 0.543509 0.039196 1 2 1.000000
  2 23.058540 4.139609 38.759933 0.570017 -0.004862 0.821619 0.543509 0.115598 1 2 1.000000
pistol
  2 22.468596 4.204826 38.258587 0.560628 -0.028468 0.827578 0.543509 0.039196 1 2 1.000000
  2 23.159269 0.359627 37.964943 0.560628 -0.028468 0.827578 0.881339 0.102111 1 2 1.000000
  2 23.058540 4.139609 38.759933 0.570017 -0.004862 0.821619 0.543509 0.115598 1 2 1.000000
pistol
  2 22.468596 4.204826 38.258587 0.560628 -0.028468 0.827578 0.543509 0.039196 1 2 1.000000
  2 22.776234 0.402033 37.645561 0.560649 -0.028456 0.827565 0.881339 0.053132 1 2 1.000000
  2 23.159269 0.359627 37.964943 0.560628 -0.028468 0.827578 0.881339 0.102111 1 2 1.000000
pistol
  2 22.776234 0.402033 37.645561 0.560649 -0.028456 0.827565 0.881339 0.053132 1 2 1.000000
  2 22.080933 0.223574 38.378277 0.575990 -0.002132 0.817454 0.970961 0.050813 1 2 1.000000
  2 23.159269 0.359627 37.964943 0.560628 -0.028468 0.827578 0.881339 0.102111 1 2 1.000000
pistol
  2 22.080933 0.223574 38.378277 0.575990 -0.002132 0.817454 0.970961 0.050813 1 2 1.000000
  2 22.498966 0.177308 38.728432 0.575992 -0.002131 0.817453 0.970960 0.104430 1 2 1.000000
  2 23.159269 0.359627 37.964943 0.560628 -0.028468 0.827578 0.881339 0.102111 1 2 1.000000
pistol
  2 21.770781 -0.275136 38.044800 0.560527 -0.028459 0.827647 0.798896 0.988740 1 2 1.000000
  2 22.849087 -1.531231 38.725586 0.560683 -0.029669 0.827499 0.701104 0.864376 1 2 1.000000
  2 22.782509 -0.386678 38.934563 0.560527 -0.028459 0.827647 0.797966 0.865927 1 2 1.000000
pistol
  2 21.770781 -0.275136 38.044800 0.560527 -0.028459 0.827647 0.798896 0.988740 1 2 1.000000
  2 21.827295 -1.418578 37.826981 0.560683 -0.029669 0.827499 0.702071 0.992131 1 2 1.000000
  2 22.849087 -1.531231 38.725586 0.560683 -0.029669 0.827499 0.701104 0.864376 1 2 1.000000
pistol
  2 21.827295 -1.418578 37.826981 0.560683 -0.029669 0.827499 0.702071 0.992131 1 2 1.000000
  2 22.059273 -1.595935 37.971535 0.560891 -0.030864 0.827314 0.687941 0.965739 1 2 1.000000
  2 22.849087 -1.531231 38.725586 0.560683 -0.029669 0.827499 0.701104 0.864376 1 2 1.000000
pistol
  2 22.849087 -1.531231 38.725586 0.560683 -0.029669 0.827499 0.701104 0.864376 1 2 1.000000
  2 22.059273 -1.595935 37.971535 0.560891 -0.030864 0.827314 0.687941 0.965739 1 2 1.000000
  2 22.656933 -1.661829 38.497143 0.560891 -0.030864 0.827314 0.687658 0.891013 1 2 1.000000
pistol
  2 27.835558 -2.377864 32.383808 0.576169 -0.047489 0.815950 0.007270 0.899465 1 2 1.000000
  2 22.656933 -1.661829 38.497143 0.560891 -0.030864 0.827314 0.687658 0.891013 1 2 1.000000
  2 22.059273 -1.595935 37.971535 0.560891 -0.030864 0.827314 0.687941 0.965739 1 2 1.000000
pistol
  2 27.835558 -2.377864 32.383808 0.576169 -0.047489 0.815950 0.007270 0.899465 1 2 1.000000
  2 22.059273 -1.595935 37.971535 0.560891 -0.030864 0.827314 0.687941 0.965739 1 2 1.000000
  2 27.372772 -2.325442 31.976656 0.576166 -0.047488 0.815952 0.007270 0.957347 1 2 1.000000
pistol
  4 -24.779657 -0.615536 36.434509 0.576801 -0.025853 0.816476 0.507482 0.262047 1 4 1.000000
  4 -24.265699 0.952484 35.935730 0.579613 -0.047546 0.813504 0.387956 0.345649 1 4 1.000000
  4 -23.965725 -0.525626 35.736183 0.576922 -0.025922 0.816388 0.507306 0.368035 1 4 1.000000
pistol
  4 -24.779657 -0.615536 36.434509 0.576801 -0.025853 0.816476 0.507482 0.262047 1 4 1.000000
  4 -24.724676 0.901883 36.339375 0.579581 -0.047549 0.813527 0.388035 0.285696 1 4 1.000000
  4 -24.265699 0.952484 35.935730 0.579613 -0.047546 0.813504 0.387956 0.345649 1 4 1.000000
pistol
  4 -25.413099 0.975252 35.512234 0.579736 -0.047518 0.813418 0.308672 0.289591 1 4 1.000000
  4 -24.265699 0.952484 35.935730 0.579613 -0.047546 0.813504 0.387956 0.345649 1 4 1.000000
  4 -24.724676 0.901883 36.339375 0.579581 -0.047549 0.813527 0.388035 0.285696 1 4 1.000000
pistol
  4 -24.994678 1.021558 35.161736 0.579865 -0.047366 0.813335 0.308582 0.343195 1 4 1.000000
  4 -24.265699 0.952484 35.935730 0.579613 -0.047546 0.813504 0.387956 0.345649 1 4 1.000000
  4 -25.413099 0.975252 35.512234 0.579736 -0.047518 0.813418 0.308672 0.289591 1 4 1.000000
pistol
  4 -25.413099 0.975252 35.512234 0.579736 -0.047518 0.813418 0.308672 0.289591 1 4 1.000000
  4 -26.333046 0.756054 34.442112 0.580605 -0.030377 0.813619 0.187994 0.289403 1 4 1.000000
  4 -24.994678 1.021558 35.161736 0.579865 -0.047366 0.813335 0.308582 0.343195 1 4 1.000000
pistol
  4 -24.994678 1.021558 35.161736 0.579865 -0.047366 0.813335 0.308582 0.343195 1 4 1.000000
  4 -26.333046 0.756054 34.442112 0.580605 -0.030377 0.813619 0.187994 0.289403 1 4 1.000000
  4 -25.911266 0.802732 34.088657 0.580406 -0.030554 0.813754 0.187904 0.343459 1 4 1.000000
pistol
  4 -25.911266 0.802732 34.088657 0.580406 -0.030554 0.813754 0.187904 0.343459 1 4 1.000000
  4 -26.333046 0.756054 34.442112 0.580605 -0.030377 0.813619 0.187994 0.289403 1 4 1.000000
  4 -26.005562 -0.039663 33.836761 0.577354 -0.001777 0.816492 0.120938 0.346235 1 4 1.000000
pistol
  4 -26.333046 0.756054 34.442112 0.580605 -0.030377 0.813619 0.187994 0.289403 1 4 1.000000
  4 -26.452301 -0.088915 34.229641 0.577354 -0.001777 0.816492 0.121037 0.286634 1 4 1.000000
  4 -26.005562 -0.039663 33.836761 0.577354 -0.001777 0.816492 0.120938 0.346235 1 4 1.000000
pistol
  4 -26.452301 -0.088915 34.229641 0.577354 -0.001777 0.816492 0.121037 0.286634 1 4 1.000000
  4 -26.091318 -0.118879 34.910515 0.687079 0.057288 0.724320 0.083590 0.363311 1 4 1.000000
  4 -26.005562 -0.039663 33.836761 0.577354 -0.001777 0.816492 0.120938 0.346235 1 4 1.000000
pistol
  4 -25.379333 -0.038464 34.288948 0.621333 0.044175 0.782301 0.083746 0.269317 1 4 1.000000
  4 -26.005562 -0.039663 33.836761 0.577354 -0.001777 0.816492 0.120938 0.346235 1 4 1.000000
  4 -26.091318 -0.118879 34.910515 0.687079 0.057288 0.724320 0.083590 0.363311 1 4 1.000000
pistol
  4 -25.379333 -0.038464 34.288948 0.621333 0.044175 0.782301 0.083746 0.269317 1 4 1.000000
  4 -26.091318 -0.118879 34.910515 0.687079 0.057288 0.724320 0.083590 0.363311 1 4 1.000000
  4 -25.231796 -0.890261 34.199120 0.580429 -0.022771 0.813993 0.008306 0.372237 1 4 1.000000
pistol
  4 -26.096363 -0.985675 34.949989 0.580377 -0.022862 0.814027 0.008356 0.258126 1 4 1.000000
  4 -25.231796 -0.890261 34.199120 0.580429 -0.022771 0.813993 0.008306 0.372237 1 4 1.000000
  4 -26.091318 -0.118879 34.910515 0.687079 0.057288 0.724320 0.083590 0.363311 1 4 1.000000
pistol
  2 22.523998 -1.647156 38.357853 0.725866 -0.135806 0.674296 0.970738 0.907140 1 2 1.000000
  2 22.491720 -1.858899 38.349953 0.721031 -0.207641 0.661059 0.969855 0.924349 1 2 1.000000
  2 23.287903 -1.758282 37.513145 0.721031 -0.207641 0.661059 0.874794 0.907140 1 2 1.000000
pistol
  2 23.131561 -1.937411 37.608608 0.712333 -0.278364 0.644279 0.888120 0.924349 1 2 1.000000
  2 23.287903 -1.758282 37.513145 0.721031 -0.207641 0.661059 0.874794 0.907140 1 2 1.000000
  2 22.491720 -1.858899 38.349953 0.721031 -0.207641 0.661059 0.969855 0.924349 1 2 1.000000
pistol
  2 22.966446 -1.712788 37.211750 0.591211 -0.040732 0.805488 0.867080 0.984813 1 2 1.000000
  2 23.287903 -1.758282 37.513145 0.721031 -0.207641 0.661059 0.874794 0.907140 1 2 1.000000
  2 23.131561 -1.937411 37.608608 0.712333 -0.278364 0.644279 0.888120 0.924349 1 2 1.000000
pistol
  2 22.966446 -1.712788 37.211750 0.591211 -0.040732 0.805488 0.867080 0.984813 1 2 1.000000
  2 23.131561 -1.937411 37.608608 0.712333 -0.278364 0.644279 0.888120 0.924349 1 2 1.000000
  2 22.868784 -1.897678 37.359806 0.581488 -0.047191 0.812185 0.887591 0.981107 1 2 1.000000
pistol
  2 23.131561 -1.937411 37.608608 0.712333 -0.278364 0.644279 0.888120 0.924349 1 2 1.000000
  2 22.491720 -1.858899 38.349953 0.721031 -0.207641 0.661059 0.969855 0.924349 1 2 1.000000
  2 22.868784 -1.897678 37.359806 0.581488 -0.047191 0.812185 0.887591 0.981107 1 2 1.000000
pistol
  2 22.228397 -1.814311 38.100147 0.560485 -0.022766 0.827852 0.969303 0.981001 1 2 1.000000
  2 22.868784 -1.897678 37.359806 0.581488 -0.047191 0.812185 0.887591 0.981107 1 2 1.000000
  2 22.491720 -1.858899 38.349953 0.721031 -0.207641 0.661059 0.969855 0.924349 1 2 1.000000
pistol
  2 22.491720 -1.858899 38.349953 0.721031 -0.207641 0.661059 0.969855 0.924349 1 2 1.000000
  2 22.523998 -1.647156 38.357853 0.725866 -0.135806 0.674296 0.970738 0.907140 1 2 1.000000
  2 22.228397 -1.814311 38.100147 0.560485 -0.022766 0.827852 0.969303 0.981001 1 2 1.000000
pistol
  2 22.243864 -1.600693 38.091942 0.560486 -0.022781 0.827851 0.980110 0.982073 1 2 1.000000
  2 22.228397 -1.814311 38.100147 0.560485 -0.022766 0.827852 0.969303 0.981001 1 2 1.000000
  2 22.523998 -1.647156 38.357853 0.725866 -0.135806 0.674296 0.970738 0.907140 1 2 1.000000
pistol
  4 -25.373741 -0.739867 34.109718 0.596912 -0.020584 0.802042 0.515101 0.445088 1 4 1.000000
  4 -25.484997 -0.146441 34.148037 0.596262 -0.017119 0.802608 0.517081 0.390084 1 4 1.000000
  4 -23.965725 -0.525626 35.736183 0.596262 -0.017119 0.802608 0.684821 0.443612 1 4 1.000000
pistol
  4 -24.185453 0.009406 35.919315 0.595171 -0.013847 0.803480 0.688157 0.391642 1 4 1.000000
  4 -23.965725 -0.525626 35.736183 0.596262 -0.017119 0.802608 0.684821 0.443612 1 4 1.000000
  4 -25.484997 -0.146441 34.148037 0.596262 -0.017119 0.802608 0.517081 0.390084 1 4 1.000000
pistol
  4 -25.036840 -0.389030 35.227448 0.559956 -0.026486 0.828099 0.525689 0.579362 1 4 1.000000
  4 -24.215158 -0.321849 36.170189 0.559956 -0.026486 0.828099 0.640064 0.583723 1 4 1.000000
  4 -25.188404 0.599684 35.179058 0.559956 -0.026486 0.828099 0.520118 0.476968 1 4 1.000000
pistol
  4 -24.215158 -0.321849 36.170189 0.559956 -0.026486 0.828099 0.640064 0.583723 1 4 1.000000
  4 -24.224329 0.613445 36.277008 0.559956 -0.026486 0.828099 0.652971 0.488708 1 4 1.000000
  4 -25.188404 0.599684 35.179058 0.559956 -0.026486 0.828099 0.520118 0.476968 1 4 1.000000
pistol
  4 -22.849079 -1.531225 38.725582 0.563064 -0.037500 0.825562 0.944260 0.798087 1 4 1.000000
  4 -27.835554 -2.377858 32.383804 0.570207 -0.045094 0.820263 0.270289 0.822429 1 4 1.000000
  4 -22.656927 -1.661822 38.497139 0.571033 -0.045551 0.819663 0.939295 0.817038 1 4 1.000000
pistol
  4 -27.835554 -2.377858 32.383804 0.570207 -0.045094 0.820263 0.270289 0.822429 1 4 1.000000
  4 -22.849079 -1.531225 38.725582 0.563064 -0.037500 0.825562 0.944260 0.798087 1 4 1.000000
  4 -28.054993 -2.225201 32.556751 0.562871 -0.037155 0.825710 0.270439 0.801456 1 4 1.000000
pistol
  4 -28.054993 -2.225201 32.556751 0.562871 -0.037155 0.825710 0.270439 0.801456 1 4 1.000000
  4 -22.849079 -1.531225 38.725582 0.563064 -0.037500 0.825562 0.944260 0.798087 1 4 1.000000
  4 -28.215588 -1.097892 32.538395 0.572882 -0.002905 0.819633 0.270305 0.695341 1 4 1.000000
pistol
  4 -22.782501 -0.386672 38.934551 0.571203 -0.003683 0.820801 0.968915 0.695361 1 4 1.000000
  4 -28.215588 -1.097892 32.538395 0.572882 -0.002905 0.819633 0.270305 0.695341 1 4 1.000000
  4 -22.849079 -1.531225 38.725582 0.563064 -0.037500 0.825562 0.944260 0.798087 1 4 1.000000
pistol
  4 -28.215588 -1.097892 32.538395 0.572882 -0.002905 0.819633 0.270305 0.695341 1 4 1.000000
  4 -22.782501 -0.386672 38.934551 0.571203 -0.003683 0.820801 0.968915 0.695361 1 4 1.000000
  4 -24.779657 -0.615536 36.434509 0.572882 -0.002905 0.819633 0.614369 0.724368 1 4 1.000000
pistol
  4 -24.779657 -0.615536 36.434509 0.572882 -0.002905 0.819633 0.614369 0.724368 1 4 1.000000
  4 -28.105442 -1.067469 32.469303 0.574613 -0.002328 0.818422 0.270118 0.724484 1 4 1.000000
  4 -28.215588 -1.097892 32.538395 0.572882 -0.002905 0.819633 0.270305 0.695341 1 4 1.000000
pistol
  4 -24.724676 0.901883 36.339375 0.576566 -0.023543 0.816712 0.014436 0.107754 1 4 1.000000
  4 -24.787420 4.236076 36.717747 0.576750 -0.023481 0.816583 0.308008 0.109828 1 4 1.000000
  4 -24.265699 0.952484 35.935730 0.576750 -0.023481 0.816583 0.014458 0.047362 1 4 1.000000
pistol
  4 -24.787420 4.236076 36.717747 0.576750 -0.023481 0.816583 0.308008 0.109828 1 4 1.000000
  4 -24.280458 4.292145 36.289379 0.576934 -0.023420 0.816455 0.308008 0.044424 1 4 1.000000
  4 -24.265699 0.952484 35.935730 0.576750 -0.023481 0.816583 0.014458 0.047362 1 4 1.000000
pistol
  4 -24.280458 4.292145 36.289379 0.576934 -0.023420 0.816455 0.308008 0.044424 1 4 1.000000
  4 -24.787420 4.236076 36.717747 0.576750 -0.023481 0.816583 0.308008 0.109828 1 4 1.000000
  4 -24.760876 4.235744 37.162876 0.577287 -0.001795 0.816540 0.339219 0.136918 1 4 1.000000
pistol
  4 -23.861851 4.334864 36.372231 0.577185 -0.001800 0.816612 0.339219 0.017423 1 4 1.000000
  4 -24.280458 4.292145 36.289379 0.576934 -0.023420 0.816455 0.308008 0.044424 1 4 1.000000
  4 -24.760876 4.235744 37.162876 0.577287 -0.001795 0.816540 0.339219 0.136918 1 4 1.000000
pistol
  4 -23.861851 4.334864 36.372231 0.577185 -0.001800 0.816612 0.339219 0.017423 1 4 1.000000
  4 -24.760876 4.235744 37.162876 0.577287 -0.001795 0.816540 0.339219 0.136918 1 4 1.000000
  4 -22.582790 4.422101 37.796085 0.577836 -0.001881 0.816151 0.506825 0.015703 1 4 1.000000
pistol
  4 -24.760876 4.235744 37.162876 0.577287 -0.001795 0.816540 0.339219 0.136918 1 4 1.000000
  4 -23.513218 4.349600 38.626102 0.578208 -0.002800 0.815885 0.506825 0.138637 1 4 1.000000
  4 -22.582790 4.422101 37.796085 0.577836 -0.001881 0.816151 0.506825 0.015703 1 4 1.000000
pistol
  4 -22.467031 4.188451 38.299541 0.673183 -0.093988 0.733478 0.543509 0.115598 1 4 1.000000
  4 -22.582790 4.422101 37.796085 0.577836 -0.001881 0.816151 0.506825 0.015703 1 4 1.000000
  4 -23.513218 4.349600 38.626102 0.578208 -0.002800 0.815885 0.506825 0.138637 1 4 1.000000
pistol
  4 -23.058529 4.139616 38.759926 0.578295 -0.004828 0.815814 0.543509 0.115598 1 4 1.000000
  4 -22.467031 4.188451 38.299541 0.673183 -0.093988 0.733478 0.543509 0.115598 1 4 1.000000
  4 -23.513218 4.349600 38.626102 0.578208 -0.002800 0.815885 0.506825 0.138637 1 4 1.000000
pistol
  4 -23.058529 4.139616 38.759926 0.578295 -0.004828 0.815814 0.543509 0.115598 1 4 1.000000
  4 -23.142591 0.348547 37.999958 0.673004 -0.230011 0.702966 0.881339 0.053132 1 4 1.000000
  4 -22.467031 4.188451 38.299541 0.673183 -0.093988 0.733478 0.543509 0.115598 1 4 1.000000
pistol
  4 -23.142591 0.348547 37.999958 0.673004 -0.230011 0.702966 0.881339 0.053132 1 4 1.000000
  4 -22.775597 0.389908 37.662136 0.669698 -0.231583 0.705602 0.881339 0.102111 1 4 1.000000
  4 -22.467031 4.188451 38.299541 0.673183 -0.093988 0.733478 0.543509 0.115598 1 4 1.000000
pistol
  4 -23.142591 0.348547 37.999958 0.673004 -0.230011 0.702966 0.881339 0.053132 1 4 1.000000
  4 -22.080925 0.223581 38.378269 0.577540 -0.002129 0.816360 0.970961 0.050813 1 4 1.000000
  4 -22.775597 0.389908 37.662136 0.669698 -0.231583 0.705602 0.881339 0.102111 1 4 1.000000
pistol
  4 -23.142591 0.348547 37.999958 0.673004 -0.230011 0.702966 0.881339 0.053132 1 4 1.000000
  4 -22.498959 0.177315 38.728424 0.577544 -0.002128 0.816357 0.970960 0.104430 1 4 1.000000
  4 -22.080925 0.223581 38.378269 0.577540 -0.002129 0.816360 0.970961 0.050813 1 4 1.000000
pistol
  4 -22.782501 -0.386672 38.934551 0.580734 -0.027977 0.813613 0.797966 0.865927 1 4 1.000000
  4 -22.849079 -1.531225 38.725582 0.580773 -0.029168 0.813543 0.701104 0.864376 1 4 1.000000
  4 -21.770777 -0.275130 38.044792 0.580734 -0.027977 0.813613 0.798896 0.988740 1 4 1.000000
pistol
  4 -22.849079 -1.531225 38.725582 0.580773 -0.029168 0.813543 0.701104 0.864376 1 4 1.000000
  4 -21.827293 -1.418573 37.826973 0.580773 -0.029168 0.813543 0.702071 0.992131 1 4 1.000000
  4 -21.770777 -0.275130 38.044792 0.580734 -0.027977 0.813613 0.798896 0.988740 1 4 1.000000
pistol
  4 -22.849079 -1.531225 38.725582 0.580773 -0.029168 0.813543 0.701104 0.864376 1 4 1.000000
  4 -22.066484 -1.611286 38.000149 0.648899 -0.281538 0.706871 0.687658 0.891013 1 4 1.000000
  4 -21.827293 -1.418573 37.826973 0.580773 -0.029168 0.813543 0.702071 0.992131 1 4 1.000000
pistol
  4 -22.665941 -1.678991 38.523476 0.648899 -0.281535 0.706872 0.687941 0.965739 1 4 1.000000
  4 -22.066484 -1.611286 38.000149 0.648899 -0.281538 0.706871 0.687658 0.891013 1 4 1.000000
  4 -22.849079 -1.531225 38.725582 0.580773 -0.029168 0.813543 0.701104 0.864376 1 4 1.000000
pistol
  4 -22.066484 -1.611286 38.000149 0.648899 -0.281538 0.706871 0.687658 0.891013 1 4 1.000000
  4 -22.665941 -1.678991 38.523476 0.648899 -0.281535 0.706872 0.687941 0.965739 1 4 1.000000
  4 -27.835554 -2.377858 32.383804 0.579901 -0.047335 0.813311 0.007270 0.899465 1 4 1.000000
pistol
  4 -27.372766 -2.325436 31.976656 0.579921 -0.047333 0.813296 0.007270 0.957347 1 4 1.000000
  4 -22.066484 -1.611286 38.000149 0.648899 -0.281538 0.706871 0.687658 0.891013 1 4 1.000000
  4 -27.835554 -2.377858 32.383804 0.579901 -0.047335 0.813311 0.007270 0.899465 1 4 1.000000
pistol
  4 -24.224329 0.613445 36.277008 0.597136 -0.022815 0.801815 0.652971 0.488708 1 4 1.000000
  4 -24.215158 -0.321849 36.170189 0.597136 -0.022815 0.801815 0.640064 0.583723 1 4 1.000000
  4 -25.188404 0.599684 35.179058 0.597136 -0.022815 0.801815 0.520118 0.476968 1 4 1.000000
pistol
  4 -24.215158 -0.321849 36.170189 0.597136 -0.022815 0.801815 0.640064 0.583723 1 4 1.000000
  4 -25.036840 -0.389030 35.227448 0.597136 -0.022815 0.801815 0.525689 0.579362 1 4 1.000000
  4 -25.188404 0.599684 35.179058 0.597136 -0.022815 0.801815 0.520118 0.476968 1 4 1.000000
pistol
  4 -25.231796 -0.890261 34.199120 0.596875 -0.020286 0.802078 0.487930 0.647065 1 4 1.000000
  4 -27.646048 -1.205967 31.402584 0.596855 -0.020165 0.802096 0.141135 0.647216 1 4 1.000000
  4 -25.392059 -0.049158 34.267395 0.594833 -0.013362 0.803739 0.490300 0.556498 1 4 1.000000
pistol
  4 -27.646048 -1.205967 31.402584 0.596855 -0.020165 0.802096 0.141135 0.647216 1 4 1.000000
  4 -27.675716 -0.347651 31.635813 0.592916 -0.009947 0.805203 0.161641 0.556641 1 4 1.000000
  4 -25.392059 -0.049158 34.267395 0.594833 -0.013362 0.803739 0.490300 0.556498 1 4 1.000000
pistol
  4 -27.675716 -0.347651 31.635813 0.592916 -0.009947 0.805203 0.161641 0.556641 1 4 1.000000
  4 -26.005562 -0.039663 33.836761 0.585530 -0.003381 0.810643 0.422151 0.546499 1 4 1.000000
  4 -25.392059 -0.049158 34.267395 0.594833 -0.013362 0.803739 0.490300 0.556498 1 4 1.000000
pistol
  2 25.486931 -0.146660 34.149734 0.580601 -0.001833 0.814186 0.517081 0.294179 1 2 1.000000
  2 24.185461 0.009398 35.919315 0.580601 -0.001833 0.814186 0.688157 0.311112 1 2 1.000000
  2 24.620636 -0.040783 36.331486 0.682839 0.317706 0.657871 0.688157 0.391642 1 2 1.000000
pistol
  2 24.620636 -0.040783 36.331486 0.682839 0.317706 0.657871 0.688157 0.391642 1 2 1.000000
  2 26.185501 -0.215528 34.791622 0.730284 0.167543 0.662280 0.517081 0.390084 1 2 1.000000
  2 25.486931 -0.146660 34.149734 0.580601 -0.001833 0.814186 0.517081 0.294179 1 2 1.000000
pistol
  2 26.185501 -0.215528 34.791622 0.730284 0.167543 0.662280 0.517081 0.390084 1 2 1.000000
  2 24.620636 -0.040783 36.331486 0.682839 0.317706 0.657871 0.688157 0.391642 1 2 1.000000
  2 24.762732 -0.616024 36.461800 0.730284 0.167543 0.662280 0.684821 0.443612 1 2 1.000000
pistol
  2 24.762732 -0.616024 36.461800 0.730284 0.167543 0.662280 0.684821 0.443612 1 2 1.000000
  2 26.164457 -0.819018 34.828476 0.759604 0.013221 0.650252 0.515101 0.445088 1 2 1.000000
  2 26.185501 -0.215528 34.791622 0.730284 0.167543 0.662280 0.517081 0.390084 1 2 1.000000
pistol
  2 24.724682 0.901875 36.339378 0.577987 -0.001811 0.816044 0.712953 0.253597 1 2 1.000000
  2 25.413107 0.975245 35.512238 0.579981 -0.001785 0.814628 0.612787 0.249870 1 2 1.000000
  2 24.265707 0.952478 35.935734 0.577977 -0.001816 0.816051 0.712921 0.189217 1 2 1.000000
pistol
  2 24.994686 1.021552 35.161739 0.579976 -0.001786 0.814632 0.612787 0.192658 1 2 1.000000
  2 24.265707 0.952478 35.935734 0.577977 -0.001816 0.816051 0.712921 0.189217 1 2 1.000000
  2 25.413107 0.975245 35.512238 0.579981 -0.001785 0.814628 0.612787 0.249870 1 2 1.000000
pistol
  2 25.413107 0.975245 35.512238 0.579981 -0.001785 0.814628 0.612787 0.249870 1 2 1.000000
  2 25.911272 0.802725 34.088661 0.581970 -0.002034 0.813208 0.478845 0.192420 1 2 1.000000
  2 24.994686 1.021552 35.161739 0.579976 -0.001786 0.814632 0.612787 0.192658 1 2 1.000000
pistol
  2 26.333054 0.756047 34.442116 0.596229 -0.018518 0.802601 0.478845 0.250108 1 2 1.000000
  2 25.911272 0.802725 34.088661 0.581970 -0.002034 0.813208 0.478845 0.192420 1 2 1.000000
  2 25.413107 0.975245 35.512238 0.579981 -0.001785 0.814628 0.612787 0.249870 1 2 1.000000
pistol
  2 26.452305 -0.088923 34.229645 0.581300 -0.001920 0.813687 0.394974 0.252821 1 2 1.000000
  2 25.911272 0.802725 34.088661 0.581970 -0.002034 0.813208 0.478845 0.192420 1 2 1.000000
  2 26.333054 0.756047 34.442116 0.596229 -0.018518 0.802601 0.478845 0.250108 1 2 1.000000
pistol
  2 25.911272 0.802725 34.088661 0.581970 -0.002034 0.813208 0.478845 0.192420 1 2 1.000000
  2 26.452305 -0.088923 34.229645 0.581300 -0.001920 0.813687 0.394974 0.252821 1 2 1.000000
  2 26.005568 -0.039670 33.836765 0.581300 -0.001920 0.813687 0.394974 0.189699 1 2 1.000000
pistol
  2 26.005568 -0.039670 33.836765 0.581300 -0.001920 0.813687 0.394974 0.189699 1 2 1.000000
  2 26.452305 -0.088923 34.229645 0.581300 -0.001920 0.813687 0.394974 0.252821 1 2 1.000000
  2 28.384321 -0.425782 32.258991 0.581300 -0.001920 0.813687 0.133562 0.271501 1 2 1.000000
pistol
  2 28.384321 -0.425782 32.258991 0.581300 -0.001920 0.813687 0.133562 0.271501 1 2 1.000000
  2 27.675722 -0.347658 31.635815 0.581300 -0.001920 0.813687 0.133562 0.171383 1 2 1.000000
  2 26.005568 -0.039670 33.836765 0.581300 -0.001920 0.813687 0.394974 0.189699 1 2 1.000000
pistol
  2 27.329885 -1.000250 31.759464 0.579770 -0.002041 0.814778 0.270305 0.695341 1 2 1.000000
  2 23.965733 -0.525632 35.736183 0.579770 -0.002041 0.814778 0.614369 0.724368 1 2 1.000000
  2 27.410818 -0.986070 31.865648 0.580060 -0.001876 0.814572 0.270118 0.724484 1 2 1.000000
pistol
  2 23.965733 -0.525632 35.736183 0.579770 -0.002041 0.814778 0.614369 0.724368 1 2 1.000000
  2 27.329885 -1.000250 31.759464 0.579770 -0.002041 0.814778 0.270305 0.695341 1 2 1.000000
  2 21.770781 -0.275136 38.044800 0.579475 -0.002290 0.814987 0.968915 0.695361 1 2 1.000000
pistol
  2 21.826096 -1.418446 37.825924 0.573851 -0.035083 0.818208 0.944260 0.798087 1 2 1.000000
  2 21.770781 -0.275136 38.044800 0.579475 -0.002290 0.814987 0.968915 0.695361 1 2 1.000000
  2 27.329885 -1.000250 31.759464 0.579770 -0.002041 0.814778 0.270305 0.695341 1 2 1.000000
pistol
  2 27.329885 -1.000250 31.759464 0.579770 -0.002041 0.814778 0.270305 0.695341 1 2 1.000000
  2 27.191875 -2.130050 31.797684 0.573888 -0.034748 0.818196 0.270439 0.801456 1 2 1.000000
  2 21.826096 -1.418446 37.825924 0.573851 -0.035083 0.818208 0.944260 0.798087 1 2 1.000000
pistol
  2 27.191875 -2.130050 31.797684 0.573888 -0.034748 0.818196 0.270439 0.801456 1 2 1.000000
  2 27.372772 -2.325442 31.976656 0.574460 -0.043913 0.817354 0.270289 0.822429 1 2 1.000000
  2 21.826096 -1.418446 37.825924 0.573851 -0.035083 0.818208 0.944260 0.798087 1 2 1.000000
pistol
  2 22.059273 -1.595935 37.971535 0.574536 -0.044447 0.817272 0.939295 0.817038 1 2 1.000000
  2 21.826096 -1.418446 37.825924 0.573851 -0.035083 0.818208 0.944260 0.798087 1 2 1.000000
  2 27.372772 -2.325442 31.976656 0.574460 -0.043913 0.817354 0.270289 0.822429 1 2 1.000000
pistol
  2 23.965733 -0.525632 35.736183 0.596751 -0.025466 0.802022 0.507306 0.368035 1 2 1.000000
  2 24.265707 0.952478 35.935734 0.579024 -0.047570 0.813922 0.387956 0.345649 1 2 1.000000
  2 24.779661 -0.615544 36.434513 0.596780 -0.025395 0.802003 0.507482 0.262047 1 2 1.000000
pistol
  2 24.265707 0.952478 35.935734 0.579024 -0.047570 0.813922 0.387956 0.345649 1 2 1.000000
  2 24.724682 0.901875 36.339378 0.579013 -0.047573 0.813929 0.388035 0.285696 1 2 1.000000
  2 24.779661 -0.615544 36.434513 0.596780 -0.025395 0.802003 0.507482 0.262047 1 2 1.000000
pistol
  2 24.724682 0.901875 36.339378 0.579013 -0.047573 0.813929 0.388035 0.285696 1 2 1.000000
  2 24.265707 0.952478 35.935734 0.579024 -0.047570 0.813922 0.387956 0.345649 1 2 1.000000
  2 25.413107 0.975245 35.512238 0.577685 -0.047603 0.814871 0.308672 0.289591 1 2 1.000000
pistol
  2 25.413107 0.975245 35.512238 0.577685 -0.047603 0.814871 0.308672 0.289591 1 2 1.000000
  2 24.265707 0.952478 35.935734 0.579024 -0.047570 0.813922 0.387956 0.345649 1 2 1.000000
  2 24.994686 1.021552 35.161739 0.576348 -0.047511 0.815822 0.308582 0.343195 1 2 1.000000
pistol
  2 24.994686 1.021552 35.161739 0.576348 -0.047511 0.815822 0.308582 0.343195 1 2 1.000000
  2 26.333054 0.756047 34.442116 0.560947 -0.030887 0.827275 0.187994 0.289403 1 2 1.000000
  2 25.413107 0.975245 35.512238 0.577685 -0.047603 0.814871 0.308672 0.289591 1 2 1.000000
pistol
  2 25.911272 0.802725 34.088661 0.561034 -0.031060 0.827210 0.187904 0.343459 1 2 1.000000
  2 26.333054 0.756047 34.442116 0.560947 -0.030887 0.827275 0.187994 0.289403 1 2 1.000000
  2 24.994686 1.021552 35.161739 0.576348 -0.047511 0.815822 0.308582 0.343195 1 2 1.000000
pistol
  2 26.005568 -0.039670 33.836765 0.560947 -0.030887 0.827275 0.120938 0.346235 1 2 1.000000
  2 26.333054 0.756047 34.442116 0.560947 -0.030887 0.827275 0.187994 0.289403 1 2 1.000000
  2 25.911272 0.802725 34.088661 0.561034 -0.031060 0.827210 0.187904 0.343459 1 2 1.000000
pistol
  2 26.005568 -0.039670 33.836765 0.560947 -0.030887 0.827275 0.120938 0.346235 1 2 1.000000
  2 26.452305 -0.088923 34.229645 0.560862 -0.030714 0.827339 0.121037 0.286634 1 2 1.000000
  2 26.333054 0.756047 34.442116 0.560947 -0.030887 0.827275 0.187994 0.289403 1 2 1.000000
pistol
  2 27.438583 -0.245692 31.800381 0.574667 -0.019732 0.818150 0.133691 0.660405 1 2 1.000000
  2 28.148510 -0.338468 30.981506 0.574667 -0.019732 0.818150 0.043220 0.660403 1 2 1.000000
  2 27.218166 -1.170572 31.713249 0.574394 -0.022059 0.818282 0.133637 0.748235 1 2 1.000000
pistol
  2 27.218166 -1.170572 31.713249 0.574394 -0.022059 0.818282 0.133637 0.748235 1 2 1.000000
  2 28.148510 -0.338468 30.981506 0.574667 -0.019732 0.818150 0.043220 0.660403 1 2 1.000000
  2 28.201166 -1.299070 30.579391 0.574161 -0.024439 0.818378 0.008365 0.748236 1 2 1.000000
pistol
  2 28.201166 -1.299070 30.579391 0.574161 -0.024439 0.818378 0.008365 0.748236 1 2 1.000000
  2 27.212383 -2.342362 31.841034 0.573973 -0.026796 0.818436 0.133638 0.857665 1 2 1.000000
  2 27.218166 -1.170572 31.713249 0.574394 -0.022059 0.818282 0.133637 0.748235 1 2 1.000000
pistol
  2 27.212383 -2.342362 31.841034 0.573973 -0.026796 0.818436 0.133638 0.857665 1 2 1.000000
  2 28.201166 -1.299070 30.579391 0.574161 -0.024439 0.818378 0.008365 0.748236 1 2 1.000000
  2 28.200710 -2.471557 30.701031 0.573973 -0.026796 0.818436 0.007687 0.857666 1 2 1.000000
pistol
  2 22.868784 -1.897678 37.359806 0.573881 -0.027902 0.818463 0.888120 0.924349 1 2 1.000000
  2 22.228397 -1.814311 38.100147 0.573760 -0.026197 0.818604 0.969855 0.924349 1 2 1.000000
  2 22.966446 -1.712788 37.211750 0.573760 -0.026197 0.818604 0.874794 0.907140 1 2 1.000000
pistol
  2 22.243864 -1.600693 38.091942 0.573664 -0.024484 0.818725 0.970738 0.907140 1 2 1.000000
  2 22.966446 -1.712788 37.211750 0.573760 -0.026197 0.818604 0.874794 0.907140 1 2 1.000000
  2 22.228397 -1.814311 38.100147 0.573760 -0.026197 0.818604 0.969855 0.924349 1 2 1.000000
pistol
  2 22.420059 -0.966270 38.113213 0.587813 -0.044089 0.807795 0.662631 0.680752 1 2 1.000000
  2 22.554573 -0.981101 38.231510 0.587813 -0.044089 0.807795 0.662631 0.655692 1 2 1.000000
  2 21.999947 -1.350289 38.542770 0.587813 -0.044089 0.807795 0.745167 0.680752 1 2 1.000000
pistol
  2 22.134462 -1.365120 38.661072 0.587813 -0.044089 0.807795 0.745167 0.655692 1 2 1.000000
  2 21.999947 -1.350289 38.542770 0.587813 -0.044089 0.807795 0.745167 0.680752 1 2 1.000000
  2 22.554573 -0.981101 38.231510 0.587813 -0.044089 0.807795 0.662631 0.655692 1 2 1.000000
pistol
  4 -21.891378 -0.982608 39.031841 0.559898 -0.026789 0.828128 0.638028 0.632739 1 4 1.000000
  4 -22.507008 -0.723763 38.317841 0.559918 -0.026890 0.828111 0.539614 0.590946 1 4 1.000000
  4 -21.871859 -1.215525 39.020679 0.559907 -0.027092 0.828112 0.643961 0.653922 1 4 1.000000
pistol
  4 -22.134455 -1.365113 38.661064 0.559929 -0.026941 0.828102 0.578597 0.670622 1 4 1.000000
  4 -21.871859 -1.215525 39.020679 0.559907 -0.027092 0.828112 0.643961 0.653922 1 4 1.000000
  4 -22.507008 -0.723763 38.317841 0.559918 -0.026890 0.828111 0.539614 0.590946 1 4 1.000000
pistol
  4 -22.507008 -0.723763 38.317841 0.559918 -0.026890 0.828111 0.539614 0.590946 1 4 1.000000
  4 -22.554565 -0.981094 38.231506 0.559956 -0.026486 0.828099 0.526954 0.622125 1 4 1.000000
  4 -22.134455 -1.365113 38.661064 0.559929 -0.026941 0.828102 0.578597 0.670622 1 4 1.000000
end
