// Created by Crowbar 0.74
version 1
nodes
  0 "ValveBiped" -1
  1 "ValveBiped.Bip01_L_Hand" 0
  2 "ValveBiped.Weapon_bone1" 1
end
skeleton
  time 0
    0 0.000000 0.000000 0.000000 1.570796 0.000000 0.000000
    1 22.676542 40.797947 -2.351880 -0.001633 0.022629 -0.830255
    2 5.000001 -1.500000 5.000000 0.000000 0.000000 0.000000
  time 1
    0 0.000000 0.000000 0.000000 1.570796 0.000000 0.000000
    1 22.676542 40.797947 -2.351880 -0.001633 0.022629 -0.830255
    2 5.000001 -1.500000 5.000000 0.000000 0.000000 0.000000
end
