// Created by Crowbar 0.74
version 1
nodes
  0 "ValveBiped.Bip01_Spine4" -1
  1 "ValveBiped.Bip01_L_Clavicle" 0
  2 "ValveBiped.Bip01_L_UpperArm" 1
  3 "ValveBiped.Bip01_L_Forearm" 2
  4 "ValveBiped.Bip01_L_Hand" 3
  5 "ValveBiped.Bip01_L_Finger4" 4
  6 "ValveBiped.Bip01_L_Finger41" 5
  7 "ValveBiped.Bip01_L_Finger42" 6
  8 "ValveBiped.Bip01_L_Finger3" 4
  9 "ValveBiped.Bip01_L_Finger31" 8
  10 "ValveBiped.Bip01_L_Finger32" 9
  11 "ValveBiped.Bip01_L_Finger2" 4
  12 "ValveBiped.Bip01_L_Finger21" 11
  13 "ValveBiped.Bip01_L_Finger22" 12
  14 "ValveBiped.Bip01_L_Finger1" 4
  15 "ValveBiped.Bip01_L_Finger11" 14
  16 "ValveBiped.Bip01_L_Finger12" 15
  17 "ValveBiped.Bip01_L_Finger0" 4
  18 "ValveBiped.Bip01_L_Finger01" 17
  19 "ValveBiped.Bip01_L_Finger02" 18
  20 "ValveBiped.Bip01_R_Clavicle" 0
  21 "ValveBiped.Bip01_R_UpperArm" 20
  22 "ValveBiped.Bip01_R_Forearm" 21
  23 "ValveBiped.Bip01_R_Hand" 22
  24 "ValveBiped.Bip01_R_Finger4" 23
  25 "ValveBiped.Bip01_R_Finger41" 24
  26 "ValveBiped.Bip01_R_Finger42" 25
  27 "ValveBiped.Bip01_R_Finger3" 23
  28 "ValveBiped.Bip01_R_Finger31" 27
  29 "ValveBiped.Bip01_R_Finger32" 28
  30 "ValveBiped.Bip01_R_Finger2" 23
  31 "ValveBiped.Bip01_R_Finger21" 30
  32 "ValveBiped.Bip01_R_Finger22" 31
  33 "ValveBiped.Bip01_R_Finger1" 23
  34 "ValveBiped.Bip01_R_Finger11" 33
  35 "ValveBiped.Bip01_R_Finger12" 34
  36 "ValveBiped.Bip01_R_Finger0" 23
  37 "ValveBiped.Bip01_R_Finger01" 36
  38 "ValveBiped.Bip01_R_Finger02" 37
  39 "ValveBiped.Bip01" -1
  40 "ValveBiped.base" 39
end
skeleton
  time 0
    0 1.293008 0.160155 -12.488662 -1.570798 -1.473874 -1.570794
    1 2.033349 1.000767 1.937660 2.856279 -0.086961 1.424556
    2 6.028141 0.000000 0.000000 -2.309948 -0.860664 -1.598487
    3 11.692554 0.000001 0.000002 0.000000 0.000000 -1.973375
    4 11.481674 0.000001 -0.000032 2.759607 -0.720674 0.262850
    5 3.859709 -0.142404 -1.191975 -0.372602 0.151269 -0.938029
    6 1.312555 -0.000002 0.000001 0.000000 0.000000 -1.267558
    7 0.729363 -0.000002 -0.000002 0.000000 0.000000 -1.156022
    8 3.942335 0.046767 -0.431443 -0.282547 -0.012816 -0.829988
    9 1.539097 0.000000 0.000000 0.000000 0.000000 -1.277093
    10 1.196326 -0.000002 -0.000001 0.000000 0.000000 -1.795954
    11 3.883696 -0.046765 0.431443 -0.051699 -0.018864 -0.672085
    12 1.719570 -0.000004 -0.000001 0.000000 0.000000 -1.477147
    13 1.209171 -0.000002 0.000000 0.000000 0.000004 -1.391274
    14 3.859865 -0.137947 1.332466 0.160078 -0.013795 -0.792663
    15 1.719429 0.000002 -0.000001 0.000000 0.000000 -1.578974
    16 1.099665 0.000000 0.000000 0.000000 0.000007 -1.439580
    17 0.806053 -0.348925 1.321258 -1.297464 -0.379014 -0.751547
    18 1.789780 -0.000002 0.000002 0.000000 0.000000 0.288883
    19 1.207006 0.000000 0.000000 0.000000 0.000000 0.449501
    20 2.611499 4.059459 -1.937610 -0.104168 -0.097914 4.727179
    21 6.028144 0.000000 0.000000 0.374548 0.718633 -2.240826
    22 11.692554 0.000001 0.000003 0.000000 0.000000 -2.177695
    23 11.481697 0.000001 0.000002 -1.128820 -0.561276 0.977555
    24 3.859678 -0.132570 1.193109 0.121614 -0.096285 -0.922066
    25 1.312557 -0.000002 0.000001 0.000000 0.000000 -0.614204
    26 0.729365 0.000002 -0.000002 0.000000 0.000000 -1.378700
    27 3.942305 0.050327 0.431044 0.052416 -0.034069 -0.893750
    28 1.539099 -0.000002 0.000000 0.000000 0.000000 -1.033145
    29 1.196321 0.000008 0.000000 0.000000 0.000000 -1.390664
    30 3.883661 -0.050323 -0.431042 0.015688 -0.124349 -0.775366
    31 1.719578 0.000004 0.000000 0.000000 -0.007974 -1.588129
    32 1.209185 0.000002 0.000000 0.000000 -0.004460 -0.914507
    33 3.859838 -0.148937 -1.331282 0.137062 0.112673 -0.145626
    34 1.719423 0.000002 0.000000 0.000000 -0.006613 -0.973817
    35 1.099667 0.000002 0.000000 0.000000 -0.004210 -1.029708
    36 0.806021 -0.359837 -1.318334 1.307341 0.325294 -0.670080
    37 1.789782 0.000000 -0.000004 0.019720 0.080233 0.520342
    38 1.206999 0.000003 0.000002 0.000000 0.000000 0.467624
    39 1.292485 -5.312657 -31.888358 1.488821 0.000000 0.000000
    40 -7.775457 28.848749 7.881937 -0.001439 0.000000 0.000000
  time 1
    0 1.293008 -0.621119 -12.363659 -1.570798 -1.450336 -1.570842
    1 2.033349 1.000767 1.937660 2.856279 -0.086961 1.424556
    2 6.028141 0.000000 0.000000 -2.372035 -0.566150 -1.086188
    3 11.692554 0.000001 0.000002 0.000000 0.000000 -1.899466
    4 11.481674 0.000001 -0.000032 2.035473 -0.902665 0.773796
    5 3.859709 -0.142404 -1.191975 -0.372602 0.151269 -0.938029
    6 1.312555 -0.000002 0.000001 0.000000 0.000000 -1.267558
    7 0.729363 -0.000002 -0.000002 0.000000 0.000000 -1.156022
    8 3.942335 0.046767 -0.431443 -0.282547 -0.012816 -0.829988
    9 1.539097 0.000000 0.000000 0.000000 0.000000 -1.277093
    10 1.196326 -0.000002 -0.000001 0.000000 0.000000 -1.795954
    11 3.883696 -0.046765 0.431443 -0.051699 -0.018864 -0.672085
    12 1.719570 -0.000004 -0.000001 0.000000 0.000000 -1.477147
    13 1.209171 -0.000002 0.000000 0.000000 0.000004 -1.391274
    14 3.859865 -0.137947 1.332466 0.160078 -0.013795 -0.792663
    15 1.719429 0.000002 -0.000001 0.000000 0.000000 -1.578974
    16 1.099665 0.000000 0.000000 0.000000 0.000007 -1.439580
    17 0.806053 -0.348925 1.321258 -1.297464 -0.379014 -0.751547
    18 1.789780 -0.000002 0.000002 0.000000 0.000000 0.288883
    19 1.207006 0.000000 0.000000 0.000000 0.000000 0.449501
    20 2.486495 3.231309 -1.937610 -0.104168 -0.097914 4.703601
    21 6.028144 0.000000 0.000000 0.210034 0.678691 -2.341327
    22 11.692554 0.000001 0.000003 0.000000 0.000000 -2.033926
    23 11.481697 0.000001 0.000002 -1.132120 -0.443304 0.888540
    24 3.859678 -0.132570 1.193109 0.121614 -0.096285 -0.922066
    25 1.312557 -0.000002 0.000001 0.000000 0.000000 -0.614204
    26 0.729365 0.000002 -0.000002 0.000000 0.000000 -1.378700
    27 3.942305 0.050327 0.431044 0.052416 -0.034069 -0.893750
    28 1.539099 -0.000002 0.000000 0.000000 0.000000 -1.033145
    29 1.196321 0.000008 0.000000 0.000000 0.000000 -1.390664
    30 3.883661 -0.050323 -0.431042 0.015688 -0.124349 -0.775366
    31 1.719578 0.000004 0.000000 0.000000 -0.007974 -1.588166
    32 1.209185 0.000002 0.000000 0.000000 -0.004460 -0.914507
    33 3.859838 -0.148937 -1.331282 0.137062 0.112673 -0.145626
    34 1.719423 0.000002 0.000000 0.000000 -0.006613 -0.973817
    35 1.099667 0.000002 0.000000 0.000000 -0.004210 -1.029708
    36 0.806021 -0.359837 -1.318334 1.307341 0.325294 -0.670080
    37 1.789782 0.000000 -0.000004 0.019720 0.080233 0.520342
    38 1.206999 0.000003 0.000002 0.000000 0.000000 0.467624
    39 1.292485 -5.640792 -31.888358 1.512359 0.000000 0.000000
    40 -7.775457 28.915157 8.760870 -0.040485 0.004985 0.004806
  time 2
    0 1.293008 -1.175823 -12.289438 -1.570798 -1.434804 -1.570842
    1 2.033349 1.000767 1.937660 2.856279 -0.086961 1.424556
    2 6.028141 0.000000 0.000000 -2.154042 -0.156303 -0.489117
    3 11.692554 0.000001 0.000002 0.000000 0.000000 -1.727945
    4 11.481674 0.000001 -0.000032 0.997067 -0.657381 1.377912
    5 3.859709 -0.142404 -1.191975 -0.372602 0.151269 -0.938029
    6 1.312555 -0.000002 0.000001 0.000000 0.000000 -1.267558
    7 0.729363 -0.000002 -0.000002 0.000000 0.000000 -1.156022
    8 3.942335 0.046767 -0.431443 -0.282547 -0.012816 -0.829988
    9 1.539097 0.000000 0.000000 0.000000 0.000000 -1.277093
    10 1.196326 -0.000002 -0.000001 0.000000 0.000000 -1.795954
    11 3.883696 -0.046765 0.431443 -0.051699 -0.018864 -0.672085
    12 1.719570 -0.000004 -0.000001 0.000000 0.000000 -1.477147
    13 1.209171 -0.000002 0.000000 0.000000 0.000004 -1.391274
    14 3.859865 -0.137947 1.332466 0.160078 -0.013795 -0.792663
    15 1.719429 0.000002 -0.000001 0.000000 0.000000 -1.578974
    16 1.099665 0.000000 0.000000 0.000000 0.000007 -1.439580
    17 0.806053 -0.348925 1.321258 -1.297464 -0.379014 -0.751547
    18 1.789780 -0.000002 0.000002 0.000000 0.000000 0.288883
    19 1.207006 0.000000 0.000000 0.000000 0.000000 0.449501
    20 2.388836 2.653166 -1.937610 -0.104168 -0.097914 4.688082
    21 6.028144 0.000000 0.000000 0.022701 0.615573 -2.479829
    22 11.692554 0.000001 0.000003 0.000000 0.000000 -1.791423
    23 11.481697 0.000001 0.000002 -1.117150 -0.300079 0.702961
    24 3.859678 -0.132570 1.193109 0.121614 -0.096285 -0.922066
    25 1.312557 -0.000002 0.000001 0.000000 0.000000 -0.614204
    26 0.729365 0.000002 -0.000002 0.000000 0.000000 -1.378700
    27 3.942305 0.050327 0.431044 0.052416 -0.034057 -0.893750
    28 1.539099 -0.000002 0.000000 0.000000 0.000000 -1.033169
    29 1.196321 0.000008 0.000000 0.000000 0.000000 -1.390664
    30 3.883661 -0.050323 -0.431042 0.015688 -0.124349 -0.775366
    31 1.719578 0.000004 0.000000 0.000000 -0.007974 -1.588129
    32 1.209185 0.000002 0.000000 0.000000 -0.004460 -0.914507
    33 3.859838 -0.148937 -1.331282 0.137062 0.112673 -0.145626
    34 1.719423 0.000002 0.000000 0.000000 -0.006613 -0.973817
    35 1.099667 0.000002 0.000000 0.000000 -0.004210 -1.029708
    36 0.806021 -0.359837 -1.318334 1.307341 0.325294 -0.670080
    37 1.789782 0.000000 -0.000004 0.019720 0.080233 0.520342
    38 1.206999 0.000003 0.000002 0.000000 0.000000 0.467624
    39 1.292485 -5.890800 -31.888358 1.527891 0.000000 0.000000
    40 -7.775457 28.958127 10.647646 -0.111254 0.014525 0.013195
  time 3
    0 1.293008 -1.589898 -12.238655 -1.570798 -1.423634 -1.570842
    1 2.033349 1.000767 1.937660 2.856279 -0.086961 1.424556
    2 6.028141 0.000000 0.000000 -2.069879 -0.083583 -0.340886
    3 11.692554 0.000001 0.000002 0.000000 0.000000 -1.587190
    4 11.481674 0.000001 -0.000032 0.836942 -0.554855 1.321253
    5 3.859709 -0.142404 -1.191975 -0.372602 0.151269 -0.938029
    6 1.312555 -0.000002 0.000001 0.000000 0.000000 -1.267558
    7 0.729363 -0.000002 -0.000002 0.000000 0.000000 -1.156022
    8 3.942335 0.046767 -0.431443 -0.282547 -0.012816 -0.829988
    9 1.539097 0.000000 0.000000 0.000000 0.000000 -1.277093
    10 1.196326 -0.000002 -0.000001 0.000000 0.000000 -1.795954
    11 3.883696 -0.046765 0.431443 -0.051699 -0.018864 -0.672085
    12 1.719570 -0.000004 -0.000001 0.000000 0.000000 -1.477147
    13 1.209171 -0.000002 0.000000 0.000000 0.000004 -1.391274
    14 3.859865 -0.137947 1.332466 0.160078 -0.013795 -0.792663
    15 1.719429 0.000002 -0.000001 0.000000 0.000000 -1.578974
    16 1.099665 0.000000 0.000000 0.000000 0.000007 -1.439580
    17 0.806053 -0.348925 1.321258 -1.297464 -0.379014 -0.751547
    18 1.789780 -0.000002 0.000002 0.000000 0.000000 0.288883
    19 1.207006 0.000000 0.000000 0.000000 0.000000 0.449501
    20 2.306802 2.223465 -1.937610 -0.104168 -0.097914 4.676865
    21 6.028144 0.000000 0.000000 -0.089292 0.563256 -2.582595
    22 11.692554 0.000001 0.000003 0.000000 0.000395 -1.581811
    23 11.481697 0.000001 0.000002 -1.118390 -0.222158 0.563215
    24 3.859678 -0.132570 1.193109 0.121614 -0.096285 -0.922066
    25 1.312557 -0.000002 0.000001 0.000000 0.000000 -0.614204
    26 0.729365 0.000002 -0.000002 0.000000 0.000000 -1.378700
    27 3.942305 0.050327 0.431044 0.052416 -0.034069 -0.893750
    28 1.539099 -0.000002 0.000000 0.000000 0.000000 -1.033145
    29 1.196321 0.000008 0.000000 0.000000 0.000000 -1.390664
    30 3.883661 -0.050323 -0.431042 0.015688 -0.124349 -0.775366
    31 1.719578 0.000004 0.000000 0.000000 -0.007974 -1.588129
    32 1.209185 0.000002 0.000000 0.000000 -0.004460 -0.914507
    33 3.859838 -0.148937 -1.331282 0.137062 0.112673 -0.145626
    34 1.719423 0.000002 0.000000 0.000000 -0.006613 -0.973817
    35 1.099667 0.000002 0.000000 0.000000 -0.004210 -1.029708
    36 0.806021 -0.359837 -1.318334 1.307341 0.325294 -0.670080
    37 1.789782 0.000000 -0.000004 0.019720 0.080233 0.520342
    38 1.206999 0.000003 0.000002 0.000000 0.000000 0.467624
    39 1.292485 -6.086118 -31.888358 1.539061 0.000000 0.000000
    40 -7.775457 28.805779 12.135973 -0.144978 0.019319 0.017042
  time 4
    0 1.293008 -1.910221 -12.199591 -1.570798 -1.415245 -1.570842
    1 2.033349 1.000767 1.937660 2.856279 -0.086961 1.424556
    2 6.028141 0.000000 0.000000 -2.071076 -0.081393 -0.338603
    3 11.692554 0.000001 0.000002 0.000000 0.000000 -1.504932
    4 11.481674 0.000001 -0.000032 0.829916 -0.541323 1.246604
    5 3.859709 -0.142404 -1.191975 -0.372602 0.151269 -0.938029
    6 1.312555 -0.000002 0.000001 0.000000 0.000000 -1.267558
    7 0.729363 -0.000002 -0.000002 0.000000 0.000000 -1.156022
    8 3.942335 0.046767 -0.431443 -0.282547 -0.012816 -0.829988
    9 1.539097 0.000000 0.000000 0.000000 0.000000 -1.277093
    10 1.196326 -0.000002 -0.000001 0.000000 0.000000 -1.795954
    11 3.883696 -0.046765 0.431443 -0.051699 -0.018864 -0.672085
    12 1.719570 -0.000004 -0.000001 0.000000 0.000000 -1.477147
    13 1.209171 -0.000002 0.000000 0.000000 0.000004 -1.391310
    14 3.859865 -0.137947 1.332466 0.160078 -0.013795 -0.792663
    15 1.719429 0.000002 -0.000001 0.000000 0.000000 -1.578974
    16 1.099665 0.000000 0.000000 0.000000 0.000007 -1.439580
    17 0.806053 -0.348925 1.321258 -1.297464 -0.379014 -0.751547
    18 1.789780 -0.000002 0.000002 0.000000 0.000000 0.288883
    19 1.207006 0.000000 0.000000 0.000000 0.000000 0.449501
    20 2.236487 1.895330 -1.937610 -0.104168 -0.097914 4.668480
    21 6.028144 0.000000 0.000000 -0.147296 0.529923 -2.645764
    22 11.692554 0.000001 0.000003 0.000000 0.000000 -1.445342
    23 11.481697 0.000001 0.000002 -1.139206 -0.191238 0.505049
    24 3.859678 -0.132570 1.193109 0.121614 -0.096285 -0.922066
    25 1.312557 -0.000002 0.000001 0.000000 0.000000 -0.614204
    26 0.729365 0.000002 -0.000002 0.000000 0.000000 -1.378700
    27 3.942305 0.050327 0.431044 0.052416 -0.034069 -0.893750
    28 1.539099 -0.000002 0.000000 0.000000 0.000000 -1.033145
    29 1.196321 0.000008 0.000000 0.000000 0.000000 -1.390664
    30 3.883661 -0.050323 -0.431042 0.015688 -0.124349 -0.775366
    31 1.719578 0.000004 0.000000 0.000000 -0.007974 -1.588129
    32 1.209185 0.000002 0.000000 0.000000 -0.004460 -0.914507
    33 3.859838 -0.148937 -1.331282 0.137062 0.112673 -0.145626
    34 1.719423 0.000002 0.000000 0.000000 -0.006613 -0.973817
    35 1.099667 0.000002 0.000000 0.000000 -0.004210 -1.029708
    36 0.806021 -0.359837 -1.318334 1.307341 0.325294 -0.670080
    37 1.789782 0.000000 -0.000004 0.019720 0.080233 0.520342
    38 1.206999 0.000003 0.000002 0.000000 0.000000 0.467624
    39 1.292485 -6.238467 -31.888358 1.547450 0.000000 0.000000
    40 -7.775457 28.555771 13.069595 -0.133341 0.015196 0.013459
  time 5
    0 1.293008 -2.152415 -12.172246 -1.570798 -1.408821 -1.570842
    1 2.033349 1.000767 1.937660 2.856279 -0.086961 1.424556
    2 6.028141 0.000000 0.000000 -2.087340 -0.088601 -0.364450
    3 11.692554 0.000001 0.000002 0.000000 0.000000 -1.459979
    4 11.481674 0.000001 -0.000032 0.843967 -0.540473 1.198737
    5 3.859709 -0.142404 -1.191975 -0.372602 0.151269 -0.938029
    6 1.312555 -0.000002 0.000001 0.000000 0.000000 -1.267558
    7 0.729363 -0.000002 -0.000002 0.000000 0.000000 -1.156022
    8 3.942335 0.046767 -0.431443 -0.282547 -0.012816 -0.829988
    9 1.539097 0.000000 0.000000 0.000000 0.000000 -1.277093
    10 1.196326 -0.000002 -0.000001 0.000000 0.000000 -1.795954
    11 3.883696 -0.046765 0.431443 -0.051699 -0.018864 -0.672085
    12 1.719570 -0.000004 -0.000001 0.000000 0.000000 -1.477147
    13 1.209171 -0.000002 0.000000 0.000000 0.000004 -1.391310
    14 3.859865 -0.137947 1.332466 0.160078 -0.013795 -0.792663
    15 1.719429 0.000002 -0.000001 0.000000 0.000000 -1.578974
    16 1.099665 0.000000 0.000000 0.000000 0.000007 -1.439580
    17 0.806053 -0.348925 1.321258 -1.297464 -0.379014 -0.751547
    18 1.789780 -0.000002 0.000002 0.000000 0.000000 0.288883
    19 1.207006 0.000000 0.000000 0.000000 0.000000 0.449501
    20 2.181798 1.645323 -1.937610 -0.104168 -0.097914 4.662054
    21 6.028144 0.000000 0.000000 -0.178528 0.509120 -2.682676
    22 11.692554 0.000001 0.000003 0.000000 0.000000 -1.360308
    23 11.481697 0.000001 0.000002 -1.162325 -0.178581 0.485480
    24 3.859678 -0.132570 1.193109 0.121614 -0.096285 -0.922066
    25 1.312557 -0.000002 0.000001 0.000000 0.000000 -0.614204
    26 0.729365 0.000002 -0.000002 0.000000 0.000000 -1.378700
    27 3.942305 0.050327 0.431044 0.052416 -0.034057 -0.893750
    28 1.539099 -0.000002 0.000000 0.000000 0.000000 -1.033145
    29 1.196321 0.000008 0.000000 0.000000 0.000000 -1.390664
    30 3.883661 -0.050323 -0.431042 0.015688 -0.124349 -0.775366
    31 1.719578 0.000004 0.000000 0.000000 -0.007974 -1.588129
    32 1.209185 0.000002 0.000000 0.000000 -0.004460 -0.914507
    33 3.859838 -0.148937 -1.331282 0.137062 0.112673 -0.145626
    34 1.719423 0.000002 0.000000 0.000000 -0.006613 -0.973835
    35 1.099667 0.000002 0.000000 0.000000 -0.004210 -1.029708
    36 0.806021 -0.359837 -1.318334 1.307341 0.325294 -0.670080
    37 1.789782 0.000000 -0.000004 0.019720 0.080233 0.520342
    38 1.206999 0.000003 0.000002 0.000000 0.000000 0.467624
    39 1.292485 -6.359564 -31.888358 1.553874 0.000000 0.000000
    40 -7.775457 28.305764 13.632112 -0.108845 0.007143 0.006388
  time 6
    0 1.293008 -2.343828 -12.152715 -1.570798 -1.403884 -1.570842
    1 2.033349 1.000767 1.937660 2.856279 -0.086961 1.424556
    2 6.028141 0.000000 0.000000 -2.104053 -0.095837 -0.394347
    3 11.692554 0.000001 0.000002 0.000000 0.000000 -1.442057
    4 11.481674 0.000001 -0.000032 0.857681 -0.538319 1.180420
    5 3.859709 -0.142404 -1.191975 -0.372602 0.151269 -0.938029
    6 1.312555 -0.000002 0.000001 0.000000 0.000000 -1.267558
    7 0.729363 -0.000002 -0.000002 0.000000 0.000000 -1.156022
    8 3.942335 0.046767 -0.431443 -0.282547 -0.012816 -0.829988
    9 1.539097 0.000000 0.000000 0.000000 0.000000 -1.277093
    10 1.196326 -0.000002 -0.000001 0.000000 0.000000 -1.795954
    11 3.883696 -0.046765 0.431443 -0.051699 -0.018864 -0.672085
    12 1.719570 -0.000004 -0.000001 0.000000 0.000000 -1.477147
    13 1.209171 -0.000002 0.000000 0.000000 0.000004 -1.391274
    14 3.859865 -0.137947 1.332466 0.160078 -0.013795 -0.792663
    15 1.719429 0.000002 -0.000001 0.000000 0.000000 -1.578974
    16 1.099665 0.000000 0.000000 0.000000 0.000007 -1.439580
    17 0.806053 -0.348925 1.321258 -1.297464 -0.379014 -0.751547
    18 1.789780 -0.000002 0.000002 0.000000 0.000000 0.288883
    19 1.207006 0.000000 0.000000 0.000000 0.000000 0.449501
    20 2.138828 1.450004 -1.937610 -0.104168 -0.097914 4.657099
    21 6.028144 0.000000 0.000000 -0.194910 0.498098 -2.704739
    22 11.692554 0.000001 0.000003 0.000000 0.000000 -1.315013
    23 11.481697 0.000001 0.000002 -1.185223 -0.177134 0.495820
    24 3.859678 -0.132570 1.193109 0.121614 -0.096285 -0.922066
    25 1.312557 -0.000002 0.000001 0.000000 0.000000 -0.614204
    26 0.729365 0.000002 -0.000002 0.000000 0.000000 -1.378700
    27 3.942305 0.050327 0.431044 0.052416 -0.034069 -0.893750
    28 1.539099 -0.000002 0.000000 0.000000 0.000000 -1.033145
    29 1.196321 0.000008 0.000000 0.000000 0.000000 -1.390664
    30 3.883661 -0.050323 -0.431042 0.015688 -0.124349 -0.775366
    31 1.719578 0.000004 0.000000 0.000000 -0.007974 -1.588129
    32 1.209185 0.000002 0.000000 0.000000 -0.004460 -0.914507
    33 3.859838 -0.148937 -1.331282 0.137062 0.112673 -0.145626
    34 1.719423 0.000002 0.000000 0.000000 -0.006613 -0.973817
    35 1.099667 0.000002 0.000000 0.000000 -0.004210 -1.029708
    36 0.806021 -0.359837 -1.318334 1.307341 0.325294 -0.670080
    37 1.789782 0.000000 -0.000004 0.019720 0.080233 0.520342
    38 1.206999 0.000003 0.000002 0.000000 0.000000 0.467624
    39 1.292485 -6.449411 -31.888358 1.558811 0.000000 0.000000
    40 -7.775457 28.133883 13.932902 -0.077649 -0.001199 -0.001091
  time 7
    0 1.293008 -2.488363 -12.137089 -1.570798 -1.400096 -1.570842
    1 2.033349 1.000767 1.937660 2.856279 -0.086961 1.424556
    2 6.028141 0.000000 0.000000 -2.115627 -0.100190 -0.416818
    3 11.692554 0.000001 0.000002 0.000000 0.000000 -1.439430
    4 11.481674 0.000001 -0.000032 0.866127 -0.534374 1.181804
    5 3.859709 -0.142404 -1.191975 -0.372602 0.151269 -0.938029
    6 1.312555 -0.000002 0.000001 0.000000 0.000000 -1.267558
    7 0.729363 -0.000002 -0.000002 0.000000 0.000000 -1.156022
    8 3.942335 0.046767 -0.431443 -0.282547 -0.012816 -0.829988
    9 1.539097 0.000000 0.000000 0.000000 0.000000 -1.277093
    10 1.196326 -0.000002 -0.000001 0.000000 0.000000 -1.795954
    11 3.883696 -0.046765 0.431443 -0.051699 -0.018864 -0.672085
    12 1.719570 -0.000004 -0.000001 0.000000 0.000000 -1.477147
    13 1.209171 -0.000002 0.000000 0.000000 0.000004 -1.391274
    14 3.859865 -0.137947 1.332466 0.160078 -0.013795 -0.792663
    15 1.719429 0.000002 -0.000001 0.000000 0.000000 -1.578974
    16 1.099665 0.000000 0.000000 0.000000 0.000007 -1.439580
    17 0.806053 -0.348925 1.321258 -1.297464 -0.379014 -0.751547
    18 1.789780 -0.000002 0.000002 0.000000 0.000000 0.288883
    19 1.207006 0.000000 0.000000 0.000000 0.000000 0.449501
    20 2.103671 1.301562 -1.937610 -0.104168 -0.097914 4.653342
    21 6.028144 0.000000 0.000000 -0.203833 0.492819 -2.719336
    22 11.692554 0.000001 0.000003 0.000000 0.000000 -1.292462
    23 11.481697 0.000001 0.000002 -1.201610 -0.182046 0.517183
    24 3.859678 -0.132570 1.193109 0.121614 -0.096285 -0.922066
    25 1.312557 -0.000002 0.000001 0.000000 0.000000 -0.614204
    26 0.729365 0.000002 -0.000002 0.000000 0.000000 -1.378700
    27 3.942305 0.050327 0.431044 0.052416 -0.034069 -0.893750
    28 1.539099 -0.000002 0.000000 0.000000 0.000000 -1.033145
    29 1.196321 0.000008 0.000000 0.000000 0.000000 -1.390664
    30 3.883661 -0.050323 -0.431042 0.015688 -0.124349 -0.775366
    31 1.719578 0.000004 0.000000 0.000000 -0.007974 -1.588129
    32 1.209185 0.000002 0.000000 0.000000 -0.004460 -0.914507
    33 3.859838 -0.148937 -1.331282 0.137062 0.112673 -0.145626
    34 1.719423 0.000002 0.000000 0.000000 -0.006613 -0.973817
    35 1.099667 0.000002 0.000000 0.000000 -0.004210 -1.029708
    36 0.806021 -0.359837 -1.318334 1.307341 0.325294 -0.670080
    37 1.789782 0.000000 -0.000004 0.019720 0.080233 0.520342
    38 1.206999 0.000003 0.000002 0.000000 0.000000 0.467624
    39 1.292485 -6.519725 -31.888358 1.562599 0.000000 0.000000
    40 -7.775457 28.055756 14.069625 -0.049557 -0.006280 -0.005825
  time 8
    0 1.293008 -2.593835 -12.125370 -1.570798 -1.397268 -1.570842
    1 2.033349 1.000767 1.937660 2.856279 -0.086961 1.424556
    2 6.028141 0.000000 0.000000 -2.122038 -0.100855 -0.430705
    3 11.692554 0.000001 0.000002 0.000000 0.000000 -1.443516
    4 11.481674 0.000001 -0.000032 0.872255 -0.533343 1.188561
    5 3.859709 -0.142404 -1.191975 -0.372602 0.151269 -0.938029
    6 1.312555 -0.000002 0.000001 0.000000 0.000000 -1.267558
    7 0.729363 -0.000002 -0.000002 0.000000 0.000000 -1.156022
    8 3.942335 0.046767 -0.431443 -0.282547 -0.012816 -0.829988
    9 1.539097 0.000000 0.000000 0.000000 0.000000 -1.277093
    10 1.196326 -0.000002 -0.000001 0.000000 0.000000 -1.795954
    11 3.883696 -0.046765 0.431443 -0.051699 -0.018864 -0.672085
    12 1.719570 -0.000004 -0.000001 0.000000 0.000000 -1.477147
    13 1.209171 -0.000002 0.000000 0.000000 0.000004 -1.391274
    14 3.859865 -0.137947 1.332466 0.160078 -0.013795 -0.792663
    15 1.719429 0.000002 -0.000001 0.000000 0.000000 -1.578974
    16 1.099665 0.000000 0.000000 0.000000 0.000007 -1.439580
    17 0.806053 -0.348925 1.321258 -1.297464 -0.379014 -0.751547
    18 1.789780 -0.000002 0.000002 0.000000 0.000000 0.288883
    19 1.207006 0.000000 0.000000 0.000000 0.000000 0.449501
    20 2.080232 1.192184 -1.937610 -0.104168 -0.097914 4.650510
    21 6.028144 0.000000 0.000000 -0.208614 0.490003 -2.727389
    22 11.692554 0.000001 0.000003 0.000000 0.000000 -1.279991
    23 11.481697 0.000001 0.000002 -1.209515 -0.187529 0.530885
    24 3.859678 -0.132570 1.193109 0.121614 -0.096285 -0.922066
    25 1.312557 -0.000002 0.000001 0.000000 0.000000 -0.614204
    26 0.729365 0.000002 -0.000002 0.000000 0.000000 -1.378700
    27 3.942305 0.050327 0.431044 0.052416 -0.034069 -0.893750
    28 1.539099 -0.000002 0.000000 0.000000 0.000000 -1.033169
    29 1.196321 0.000008 0.000000 0.000000 0.000000 -1.390664
    30 3.883661 -0.050323 -0.431042 0.015688 -0.124349 -0.775366
    31 1.719578 0.000004 0.000000 0.000000 -0.007974 -1.588129
    32 1.209185 0.000002 0.000000 0.000000 -0.004460 -0.914507
    33 3.859838 -0.148937 -1.331282 0.137062 0.112673 -0.145626
    34 1.719423 0.000002 0.000000 0.000000 -0.006613 -0.973817
    35 1.099667 0.000002 0.000000 0.000000 -0.004210 -1.029708
    36 0.806021 -0.359837 -1.318334 1.307341 0.325294 -0.670080
    37 1.789782 0.000000 -0.000004 0.019720 0.080233 0.520342
    38 1.206999 0.000003 0.000002 0.000000 0.000000 0.467624
    39 1.292485 -6.570508 -31.888358 1.565427 0.000000 0.000000
    40 -7.775457 28.012786 14.112595 -0.032251 -0.006711 -0.006328
  time 9
    0 1.293008 -2.671963 -12.117557 -1.570798 -1.395159 -1.570842
    1 2.033349 1.000767 1.937660 2.856279 -0.086961 1.424556
    2 6.028141 0.000000 0.000000 -2.126129 -0.099607 -0.441089
    3 11.692554 0.000001 0.000002 0.000000 0.000000 -1.451806
    4 11.481674 0.000001 -0.000032 0.877524 -0.533676 1.199347
    5 3.859709 -0.142404 -1.191975 -0.372602 0.151269 -0.938029
    6 1.312555 -0.000002 0.000001 0.000000 0.000000 -1.267558
    7 0.729363 -0.000002 -0.000002 0.000000 0.000000 -1.156022
    8 3.942335 0.046767 -0.431443 -0.282547 -0.012816 -0.829988
    9 1.539097 0.000000 0.000000 0.000000 0.000000 -1.277093
    10 1.196326 -0.000002 -0.000001 0.000000 0.000000 -1.795954
    11 3.883696 -0.046765 0.431443 -0.051699 -0.018864 -0.672085
    12 1.719570 -0.000004 -0.000001 0.000000 0.000000 -1.477147
    13 1.209171 -0.000002 0.000000 0.000000 0.000004 -1.391310
    14 3.859865 -0.137947 1.332466 0.160078 -0.013795 -0.792663
    15 1.719429 0.000002 -0.000001 0.000000 0.000000 -1.578974
    16 1.099665 0.000000 0.000000 0.000000 0.000007 -1.439580
    17 0.806053 -0.348925 1.321258 -1.297464 -0.379014 -0.751547
    18 1.789780 -0.000002 0.000002 0.000000 0.000000 0.288883
    19 1.207006 0.000000 0.000000 0.000000 0.000000 0.449501
    20 2.060701 1.114057 -1.937610 -0.104168 -0.097914 4.648441
    21 6.028144 0.000000 0.000000 -0.210590 0.489182 -2.731500
    22 11.692554 0.000001 0.000003 0.000000 0.000000 -1.275339
    23 11.481697 0.000001 0.000002 -1.212593 -0.194988 0.543731
    24 3.859678 -0.132570 1.193109 0.121614 -0.096285 -0.922066
    25 1.312557 -0.000002 0.000001 0.000000 0.000000 -0.614204
    26 0.729365 0.000002 -0.000002 0.000000 0.000000 -1.378735
    27 3.942305 0.050327 0.431044 0.052416 -0.034069 -0.893750
    28 1.539099 -0.000002 0.000000 0.000000 0.000000 -1.033169
    29 1.196321 0.000008 0.000000 0.000000 0.000000 -1.390664
    30 3.883661 -0.050323 -0.431042 0.015688 -0.124349 -0.775366
    31 1.719578 0.000004 0.000000 0.000000 -0.007974 -1.588129
    32 1.209185 0.000002 0.000000 0.000000 -0.004460 -0.914507
    33 3.859838 -0.148937 -1.331282 0.137062 0.112673 -0.145626
    34 1.719423 0.000002 0.000000 0.000000 -0.006613 -0.973817
    35 1.099667 0.000002 0.000000 0.000000 -0.004210 -1.029708
    36 0.806021 -0.359837 -1.318334 1.307341 0.325294 -0.670080
    37 1.789782 0.000000 -0.000004 0.019720 0.080233 0.520342
    38 1.206999 0.000003 0.000002 0.000000 0.000000 0.467624
    39 1.292485 -6.609572 -31.888358 1.567536 0.000000 0.000000
    40 -7.775457 27.989348 14.112595 -0.019116 -0.004602 -0.004410
  time 10
    0 1.293008 -2.726652 -12.109745 -1.570798 -1.393673 -1.570842
    1 2.033349 1.000767 1.937660 2.856279 -0.086961 1.424556
    2 6.028141 0.000000 0.000000 -2.128674 -0.097805 -0.448322
    3 11.692554 0.000001 0.000002 0.000000 0.000000 -1.460972
    4 11.481674 0.000001 -0.000032 0.881597 -0.534374 1.210866
    5 3.859709 -0.142404 -1.191975 -0.372602 0.151269 -0.938029
    6 1.312555 -0.000002 0.000001 0.000000 0.000000 -1.267558
    7 0.729363 -0.000002 -0.000002 0.000000 0.000000 -1.156022
    8 3.942335 0.046767 -0.431443 -0.282547 -0.012816 -0.829988
    9 1.539097 0.000000 0.000000 0.000000 0.000000 -1.277093
    10 1.196326 -0.000002 -0.000001 0.000000 0.000000 -1.795954
    11 3.883696 -0.046765 0.431443 -0.051699 -0.018864 -0.672085
    12 1.719570 -0.000004 -0.000001 0.000000 0.000000 -1.477147
    13 1.209171 -0.000002 0.000000 0.000000 0.000004 -1.391274
    14 3.859865 -0.137947 1.332466 0.160078 -0.013795 -0.792663
    15 1.719429 0.000002 -0.000001 0.000000 0.000000 -1.578974
    16 1.099665 0.000000 0.000000 0.000000 0.000007 -1.439580
    17 0.806053 -0.348925 1.321258 -1.297464 -0.379014 -0.751547
    18 1.789780 -0.000002 0.000002 0.000000 0.000000 0.288883
    19 1.207006 0.000000 0.000000 0.000000 0.000000 0.449501
    20 2.045075 1.055461 -1.937610 -0.104168 -0.097914 4.646971
    21 6.028144 0.000000 0.000000 -0.211036 0.489448 -2.733430
    22 11.692554 0.000001 0.000003 0.000000 0.000000 -1.274951
    23 11.481697 0.000001 0.000002 -1.213413 -0.202387 0.554840
    24 3.859678 -0.132570 1.193109 0.121614 -0.096285 -0.922066
    25 1.312557 -0.000002 0.000001 0.000000 0.000000 -0.614204
    26 0.729365 0.000002 -0.000002 0.000000 0.000000 -1.378700
    27 3.942305 0.050327 0.431044 0.052416 -0.034069 -0.893750
    28 1.539099 -0.000002 0.000000 0.000000 0.000000 -1.033145
    29 1.196321 0.000008 0.000000 0.000000 0.000000 -1.390664
    30 3.883661 -0.050323 -0.431042 0.015688 -0.124349 -0.775366
    31 1.719578 0.000004 0.000000 0.000000 -0.007974 -1.588166
    32 1.209185 0.000002 0.000000 0.000000 -0.004460 -0.914507
    33 3.859838 -0.148937 -1.331282 0.137062 0.112673 -0.145626
    34 1.719423 0.000002 0.000000 0.000000 -0.006613 -0.973817
    35 1.099667 0.000002 0.000000 0.000000 -0.004210 -1.029708
    36 0.806021 -0.359837 -1.318334 1.307341 0.325294 -0.670080
    37 1.789782 0.000000 -0.000004 0.019720 0.080233 0.520342
    38 1.206999 0.000003 0.000002 0.000000 0.000000 0.467624
    39 1.292485 -6.633010 -31.888358 1.569022 0.000000 0.000000
    40 -7.775457 27.981535 14.085251 -0.009493 -0.001774 -0.001726
  time 11
    0 1.293008 -2.761809 -12.105838 -1.570798 -1.392714 -1.570842
    1 2.033349 1.000767 1.937660 2.856279 -0.086961 1.424556
    2 6.028141 0.000000 0.000000 -2.130295 -0.096863 -0.452887
    3 11.692554 0.000001 0.000002 0.000000 0.000000 -1.468328
    4 11.481674 0.000001 -0.000032 0.884288 -0.534951 1.219780
    5 3.859709 -0.142404 -1.191975 -0.372602 0.151269 -0.938029
    6 1.312555 -0.000002 0.000001 0.000000 0.000000 -1.267558
    7 0.729363 -0.000002 -0.000002 0.000000 0.000000 -1.156022
    8 3.942335 0.046767 -0.431443 -0.282547 -0.012816 -0.829988
    9 1.539097 0.000000 0.000000 0.000000 0.000000 -1.277093
    10 1.196326 -0.000002 -0.000001 0.000000 0.000000 -1.795954
    11 3.883696 -0.046765 0.431443 -0.051699 -0.018864 -0.672085
    12 1.719570 -0.000004 -0.000001 0.000000 0.000000 -1.477147
    13 1.209171 -0.000002 0.000000 0.000000 0.000004 -1.391274
    14 3.859865 -0.137947 1.332466 0.160078 -0.013795 -0.792663
    15 1.719429 0.000002 -0.000001 0.000000 0.000000 -1.578974
    16 1.099665 0.000000 0.000000 0.000000 0.000007 -1.439580
    17 0.806053 -0.348925 1.321258 -1.297464 -0.379014 -0.751547
    18 1.789780 -0.000002 0.000002 0.000000 0.000000 0.288883
    19 1.207006 0.000000 0.000000 0.000000 0.000000 0.449501
    20 2.037262 1.020304 -1.937610 -0.104168 -0.097914 4.645991
    21 6.028144 0.000000 0.000000 -0.210845 0.490114 -2.734268
    22 11.692554 0.000001 0.000003 0.000000 0.000000 -1.276631
    23 11.481697 0.000001 0.000002 -1.213900 -0.207544 0.563300
    24 3.859678 -0.132570 1.193109 0.121614 -0.096285 -0.922066
    25 1.312557 -0.000002 0.000001 0.000000 0.000000 -0.614204
    26 0.729365 0.000002 -0.000002 0.000000 0.000000 -1.378700
    27 3.942305 0.050327 0.431044 0.052416 -0.034069 -0.893750
    28 1.539099 -0.000002 0.000000 0.000000 0.000000 -1.033145
    29 1.196321 0.000008 0.000000 0.000000 0.000000 -1.390664
    30 3.883661 -0.050323 -0.431042 0.015688 -0.124349 -0.775366
    31 1.719578 0.000004 0.000000 0.000000 -0.007974 -1.588129
    32 1.209185 0.000002 0.000000 0.000000 -0.004460 -0.914507
    33 3.859838 -0.148937 -1.331282 0.137062 0.112673 -0.145626
    34 1.719423 0.000002 0.000000 0.000000 -0.006613 -0.973817
    35 1.099667 0.000002 0.000000 0.000000 -0.004210 -1.029708
    36 0.806021 -0.359837 -1.318334 1.307341 0.325294 -0.670080
    37 1.789782 0.000000 -0.000004 0.019720 0.080233 0.520342
    38 1.206999 0.000003 0.000002 0.000000 0.000000 0.467624
    39 1.292485 -6.648635 -31.888358 1.569981 0.000000 0.000000
    40 -7.775457 27.989348 14.054000 -0.003452 0.000000 0.000000
  time 12
    0 1.293008 -2.781341 -12.105838 -1.570798 -1.392139 -1.570842
    1 2.033349 1.000767 1.937660 2.856279 -0.086961 1.424556
    2 6.028141 0.000000 0.000000 -2.131218 -0.096918 -0.454977
    3 11.692554 0.000001 0.000002 0.000000 0.000000 -1.472823
    4 11.481674 0.000001 -0.000032 0.885484 -0.535224 1.224950
    5 3.859709 -0.142404 -1.191975 -0.372602 0.151269 -0.938029
    6 1.312555 -0.000002 0.000001 0.000000 0.000000 -1.267558
    7 0.729363 -0.000002 -0.000002 0.000000 0.000000 -1.156022
    8 3.942335 0.046767 -0.431443 -0.282547 -0.012816 -0.829988
    9 1.539097 0.000000 0.000000 0.000000 0.000000 -1.277093
    10 1.196326 -0.000002 -0.000001 0.000000 0.000000 -1.795954
    11 3.883696 -0.046765 0.431443 -0.051699 -0.018864 -0.672085
    12 1.719570 -0.000004 -0.000001 0.000000 0.000000 -1.477147
    13 1.209171 -0.000002 0.000000 0.000000 0.000004 -1.391310
    14 3.859865 -0.137947 1.332466 0.160078 -0.013795 -0.792663
    15 1.719429 0.000002 -0.000001 0.000000 0.000000 -1.578974
    16 1.099665 0.000000 0.000000 0.000000 0.000007 -1.439580
    17 0.806053 -0.348925 1.321258 -1.297464 -0.379014 -0.751547
    18 1.789780 -0.000002 0.000002 0.000000 0.000000 0.288883
    19 1.207006 0.000000 0.000000 0.000000 0.000000 0.449501
    20 2.033356 1.000772 -1.937610 -0.104168 -0.097914 4.645392
    21 6.028144 0.000000 0.000000 -0.210399 0.490779 -2.734436
    22 11.692554 0.000001 0.000003 0.000000 0.000000 -1.278828
    23 11.481697 0.000001 0.000002 -1.214520 -0.209969 0.568428
    24 3.859678 -0.132570 1.193109 0.121614 -0.096285 -0.922066
    25 1.312557 -0.000002 0.000001 0.000000 0.000000 -0.614204
    26 0.729365 0.000002 -0.000002 0.000000 0.000000 -1.378735
    27 3.942305 0.050327 0.431044 0.052416 -0.034069 -0.893750
    28 1.539099 -0.000002 0.000000 0.000000 0.000000 -1.033145
    29 1.196321 0.000008 0.000000 0.000000 0.000000 -1.390693
    30 3.883661 -0.050323 -0.431042 0.015688 -0.124349 -0.775366
    31 1.719578 0.000004 0.000000 0.000000 -0.007974 -1.588166
    32 1.209185 0.000002 0.000000 0.000000 -0.004460 -0.914507
    33 3.859838 -0.148937 -1.331282 0.137062 0.112673 -0.145626
    34 1.719423 0.000002 0.000000 0.000000 -0.006613 -0.973817
    35 1.099667 0.000002 0.000000 0.000000 -0.004210 -1.029708
    36 0.806021 -0.359837 -1.318334 1.307341 0.325294 -0.670080
    37 1.789782 0.000000 -0.000004 0.019720 0.080233 0.520342
    38 1.206999 0.000003 0.000002 0.000000 0.000000 0.467624
    39 1.292485 -6.656448 -31.888358 1.570556 0.000000 0.000000
    40 -7.775457 28.001067 14.022749 -0.000840 0.000431 0.000419
  time 13
    0 1.293008 -2.789154 -12.105838 -1.570798 -1.391899 -1.570842
    1 2.033349 1.000767 1.937660 2.856279 -0.086961 1.424556
    2 6.028141 0.000000 0.000000 -2.131318 -0.097168 -0.454912
    3 11.692554 0.000001 0.000002 0.000000 0.000000 -1.475217
    4 11.481674 0.000001 -0.000032 0.885558 -0.535102 1.227921
    5 3.859709 -0.142404 -1.191975 -0.372602 0.151269 -0.938029
    6 1.312555 -0.000002 0.000001 0.000000 0.000000 -1.267558
    7 0.729363 -0.000002 -0.000002 0.000000 0.000000 -1.156022
    8 3.942335 0.046767 -0.431443 -0.282547 -0.012816 -0.829988
    9 1.539097 0.000000 0.000000 0.000000 0.000000 -1.277093
    10 1.196326 -0.000002 -0.000001 0.000000 0.000000 -1.795954
    11 3.883696 -0.046765 0.431443 -0.051699 -0.018864 -0.672085
    12 1.719570 -0.000004 -0.000001 0.000000 0.000000 -1.477147
    13 1.209171 -0.000002 0.000000 0.000000 0.000004 -1.391274
    14 3.859865 -0.137947 1.332466 0.160078 -0.013795 -0.792663
    15 1.719429 0.000002 -0.000001 0.000000 0.000000 -1.578974
    16 1.099665 0.000000 0.000000 0.000000 0.000007 -1.439616
    17 0.806053 -0.348925 1.321258 -1.297464 -0.379014 -0.751547
    18 1.789780 -0.000002 0.000002 0.000000 0.000000 0.288883
    19 1.207006 0.000000 0.000000 0.000000 0.000000 0.449501
    20 2.033356 0.996866 -1.937610 -0.104168 -0.097914 4.645120
    21 6.028144 0.000000 0.000000 -0.210016 0.491311 -2.734436
    22 11.692554 0.000001 0.000003 0.000000 0.000000 -1.280767
    23 11.481697 0.000001 0.000002 -1.214653 -0.210927 0.570792
    24 3.859678 -0.132570 1.193109 0.121614 -0.096285 -0.922066
    25 1.312557 -0.000002 0.000001 0.000000 0.000000 -0.614204
    26 0.729365 0.000002 -0.000002 0.000000 0.000000 -1.378700
    27 3.942305 0.050327 0.431044 0.052416 -0.034069 -0.893750
    28 1.539099 -0.000002 0.000000 0.000000 0.000000 -1.033169
    29 1.196321 0.000008 0.000000 0.000000 0.000000 -1.390664
    30 3.883661 -0.050323 -0.431042 0.015688 -0.124349 -0.775366
    31 1.719578 0.000004 0.000000 0.000000 -0.007974 -1.588129
    32 1.209185 0.000002 0.000000 0.000000 -0.004460 -0.914507
    33 3.859838 -0.148937 -1.331282 0.137062 0.112673 -0.145626
    34 1.719423 0.000002 0.000000 0.000000 -0.006613 -0.973817
    35 1.099667 0.000002 0.000000 0.000000 -0.004210 -1.029708
    36 0.806021 -0.359837 -1.318334 1.307341 0.325294 -0.670080
    37 1.789782 0.000000 -0.000004 0.019720 0.080233 0.520342
    38 1.206999 0.000003 0.000002 0.000000 0.000000 0.467624
    39 1.292485 -6.660355 -31.888358 1.570796 0.000000 0.000000
    40 -7.775457 28.020599 13.999311 -0.000480 0.000479 0.000479
  time 14
    0 1.293008 -2.789154 -12.105838 -1.570798 -1.391851 -1.570842
    1 2.033349 1.000767 1.937660 2.856279 -0.086961 1.424556
    2 6.028141 0.000000 0.000000 -2.130993 -0.097500 -0.453691
    3 11.692554 0.000001 0.000002 0.000000 0.000000 -1.475976
    4 11.481674 0.000001 -0.000032 0.884848 -0.534556 1.229427
    5 3.859709 -0.142404 -1.191975 -0.372602 0.151269 -0.938029
    6 1.312555 -0.000002 0.000001 0.000000 0.000000 -1.267558
    7 0.729363 -0.000002 -0.000002 0.000000 0.000000 -1.156022
    8 3.942335 0.046767 -0.431443 -0.282547 -0.012816 -0.829988
    9 1.539097 0.000000 0.000000 0.000000 0.000000 -1.277093
    10 1.196326 -0.000002 -0.000001 0.000000 0.000000 -1.795954
    11 3.883696 -0.046765 0.431443 -0.051699 -0.018864 -0.672085
    12 1.719570 -0.000004 -0.000001 0.000000 0.000000 -1.477147
    13 1.209171 -0.000002 0.000000 0.000000 0.000004 -1.391274
    14 3.859865 -0.137947 1.332466 0.160078 -0.013795 -0.792663
    15 1.719429 0.000002 -0.000001 0.000000 0.000000 -1.578974
    16 1.099665 0.000000 0.000000 0.000000 0.000007 -1.439580
    17 0.806053 -0.348925 1.321258 -1.297464 -0.379014 -0.751547
    18 1.789780 -0.000002 0.000002 0.000000 0.000000 0.288883
    19 1.207006 0.000000 0.000000 0.000000 0.000000 0.449501
    20 2.033356 0.996866 -1.937610 -0.104168 -0.097914 4.645065
    21 6.028144 0.000000 0.000000 -0.209825 0.491710 -2.734604
    22 11.692554 0.000001 0.000003 0.000000 0.000000 -1.282123
    23 11.481697 0.000001 0.000002 -1.214631 -0.211111 0.571817
    24 3.859678 -0.132570 1.193109 0.121614 -0.096285 -0.922066
    25 1.312557 -0.000002 0.000001 0.000000 0.000000 -0.614204
    26 0.729365 0.000002 -0.000002 0.000000 0.000000 -1.378700
    27 3.942305 0.050327 0.431044 0.052416 -0.034069 -0.893750
    28 1.539099 -0.000002 0.000000 0.000000 0.000000 -1.033169
    29 1.196321 0.000008 0.000000 0.000000 0.000000 -1.390664
    30 3.883661 -0.050323 -0.431042 0.015688 -0.124349 -0.775366
    31 1.719578 0.000004 0.000000 0.000000 -0.007974 -1.588129
    32 1.209185 0.000002 0.000000 0.000000 -0.004460 -0.914507
    33 3.859838 -0.148937 -1.331282 0.137062 0.112673 -0.145626
    34 1.719423 0.000002 0.000000 0.000000 -0.006613 -0.973817
    35 1.099667 0.000002 0.000000 0.000000 -0.004210 -1.029708
    36 0.806021 -0.359837 -1.318334 1.307341 0.325294 -0.670080
    37 1.789782 0.000000 -0.000004 0.019720 0.080233 0.520342
    38 1.206999 0.000003 0.000002 0.000000 0.000000 0.467624
    39 1.292485 -6.656448 -31.888358 1.570844 0.000000 0.000000
    40 -7.775457 28.040131 13.983685 -0.000983 0.000288 0.000324
  time 15
    0 1.293008 -2.785247 -12.105838 -1.570798 -1.391899 -1.570842
    1 2.033349 1.000767 1.937660 2.856279 -0.086961 1.424556
    2 6.028141 0.000000 0.000000 -2.130544 -0.097750 -0.452340
    3 11.692554 0.000001 0.000002 0.000000 0.000000 -1.475684
    4 11.481674 0.000001 -0.000032 0.883802 -0.533646 1.230241
    5 3.859709 -0.142404 -1.191975 -0.372602 0.151269 -0.938029
    6 1.312555 -0.000002 0.000001 0.000000 0.000000 -1.267558
    7 0.729363 -0.000002 -0.000002 0.000000 0.000000 -1.156050
    8 3.942335 0.046767 -0.431443 -0.282547 -0.012816 -0.829988
    9 1.539097 0.000000 0.000000 0.000000 0.000000 -1.277093
    10 1.196326 -0.000002 -0.000001 0.000000 0.000000 -1.795954
    11 3.883696 -0.046765 0.431443 -0.051699 -0.018864 -0.672085
    12 1.719570 -0.000004 -0.000001 0.000000 0.000000 -1.477147
    13 1.209171 -0.000002 0.000000 0.000000 0.000004 -1.391274
    14 3.859865 -0.137947 1.332466 0.160078 -0.013795 -0.792663
    15 1.719429 0.000002 -0.000001 0.000000 0.000000 -1.578974
    16 1.099665 0.000000 0.000000 0.000000 0.000007 -1.439580
    17 0.806053 -0.348925 1.321258 -1.297464 -0.379014 -0.751547
    18 1.789780 -0.000002 0.000002 0.000000 0.000000 0.288883
    19 1.207006 0.000000 0.000000 0.000000 0.000000 0.449501
    20 2.033356 1.000772 -1.937610 -0.104168 -0.097914 4.645065
    21 6.028144 0.000000 0.000000 -0.209889 0.491888 -2.735191
    22 11.692554 0.000001 0.000003 0.000000 0.000000 -1.282834
    23 11.481697 0.000001 0.000002 -1.214764 -0.211172 0.572843
    24 3.859678 -0.132570 1.193109 0.121614 -0.096285 -0.922066
    25 1.312557 -0.000002 0.000001 0.000000 0.000000 -0.614204
    26 0.729365 0.000002 -0.000002 0.000000 0.000000 -1.378700
    27 3.942305 0.050327 0.431044 0.052416 -0.034069 -0.893750
    28 1.539099 -0.000002 0.000000 0.000000 0.000000 -1.033145
    29 1.196321 0.000008 0.000000 0.000000 0.000000 -1.390693
    30 3.883661 -0.050323 -0.431042 0.015688 -0.124349 -0.775366
    31 1.719578 0.000004 0.000000 0.000000 -0.007974 -1.588129
    32 1.209185 0.000002 0.000000 0.000000 -0.004460 -0.914507
    33 3.859838 -0.148937 -1.331282 0.137062 0.112673 -0.145626
    34 1.719423 0.000002 0.000000 0.000000 -0.006613 -0.973817
    35 1.099667 0.000002 0.000000 0.000000 -0.004210 -1.029708
    36 0.806021 -0.359837 -1.318334 1.307341 0.325294 -0.670080
    37 1.789782 0.000000 -0.000004 0.019720 0.080233 0.520342
    38 1.206999 0.000003 0.000002 0.000000 0.000000 0.467624
    39 1.292485 -6.656448 -31.888358 1.570796 0.000000 0.000000
    40 -7.775457 28.055756 13.979779 -0.001175 0.000096 0.000108
  time 16
    0 1.293008 -2.785247 -12.105838 -1.570798 -1.391899 -1.570842
    1 2.033349 1.000767 1.937660 2.856279 -0.086961 1.424556
    2 6.028141 0.000000 0.000000 -2.130370 -0.097778 -0.451826
    3 11.692554 0.000001 0.000002 0.000000 0.000000 -1.474983
    4 11.481674 0.000001 -0.000032 0.882943 -0.532523 1.231014
    5 3.859709 -0.142404 -1.191975 -0.372602 0.151269 -0.938029
    6 1.312555 -0.000002 0.000001 0.000000 0.000000 -1.267558
    7 0.729363 -0.000002 -0.000002 0.000000 0.000000 -1.156022
    8 3.942335 0.046767 -0.431443 -0.282547 -0.012816 -0.829988
    9 1.539097 0.000000 0.000000 0.000000 0.000000 -1.277093
    10 1.196326 -0.000002 -0.000001 0.000000 0.000000 -1.795954
    11 3.883696 -0.046765 0.431443 -0.051699 -0.018864 -0.672085
    12 1.719570 -0.000004 -0.000001 0.000000 0.000000 -1.477147
    13 1.209171 -0.000002 0.000000 0.000000 0.000004 -1.391274
    14 3.859865 -0.137947 1.332466 0.160078 -0.013795 -0.792663
    15 1.719429 0.000002 -0.000001 0.000000 0.000000 -1.578974
    16 1.099665 0.000000 0.000000 0.000000 0.000007 -1.439580
    17 0.806053 -0.348925 1.321258 -1.297464 -0.379014 -0.751547
    18 1.789780 -0.000002 0.000002 0.000000 0.000000 0.288883
    19 1.207006 0.000000 0.000000 0.000000 0.000000 0.449501
    20 2.033356 1.000772 -1.937610 -0.104168 -0.097914 4.645120
    21 6.028144 0.000000 0.000000 -0.210335 0.491799 -2.736282
    22 11.692554 0.000001 0.000003 0.000000 0.000000 -1.282059
    23 11.481697 0.000001 0.000002 -1.215273 -0.211641 0.574096
    24 3.859678 -0.132570 1.193109 0.121614 -0.096285 -0.922066
    25 1.312557 -0.000002 0.000001 0.000000 0.000000 -0.614204
    26 0.729365 0.000002 -0.000002 0.000000 0.000000 -1.378700
    27 3.942305 0.050327 0.431044 0.052416 -0.034069 -0.893750
    28 1.539099 -0.000002 0.000000 0.000000 0.000000 -1.033145
    29 1.196321 0.000008 0.000000 0.000000 0.000000 -1.390664
    30 3.883661 -0.050323 -0.431042 0.015688 -0.124349 -0.775366
    31 1.719578 0.000004 0.000000 0.000000 -0.007974 -1.588129
    32 1.209185 0.000002 0.000000 0.000000 -0.004460 -0.914507
    33 3.859838 -0.148937 -1.331282 0.137062 0.112673 -0.145626
    34 1.719423 0.000002 0.000000 0.000000 -0.006613 -0.973817
    35 1.099667 0.000002 0.000000 0.000000 -0.004210 -1.029708
    36 0.806021 -0.359837 -1.318334 1.307341 0.325294 -0.670080
    37 1.789782 0.000000 -0.000004 0.019720 0.080233 0.520342
    38 1.206999 0.000003 0.000002 0.000000 0.000000 0.467624
    39 1.292485 -6.652542 -31.888358 1.570796 0.000000 0.000000
    40 -7.775457 28.059662 13.991498 -0.000001 0.000000 0.000000
end
