// Created by Crowbar 0.74
version 1
nodes
  0 "ValveBiped.Bip01_Spine4" -1
  1 "ValveBiped.Bip01_L_Clavicle" 0
  2 "ValveBiped.Bip01_L_UpperArm" 1
  3 "ValveBiped.Bip01_L_Forearm" 2
  4 "ValveBiped.Bip01_L_Hand" 3
  5 "ValveBiped.Bip01_L_Finger4" 4
  6 "ValveBiped.Bip01_L_Finger41" 5
  7 "ValveBiped.Bip01_L_Finger42" 6
  8 "ValveBiped.Bip01_L_Finger3" 4
  9 "ValveBiped.Bip01_L_Finger31" 8
  10 "ValveBiped.Bip01_L_Finger32" 9
  11 "ValveBiped.Bip01_L_Finger2" 4
  12 "ValveBiped.Bip01_L_Finger21" 11
  13 "ValveBiped.Bip01_L_Finger22" 12
  14 "ValveBiped.Bip01_L_Finger1" 4
  15 "ValveBiped.Bip01_L_Finger11" 14
  16 "ValveBiped.Bip01_L_Finger12" 15
  17 "ValveBiped.Bip01_L_Finger0" 4
  18 "ValveBiped.Bip01_L_Finger01" 17
  19 "ValveBiped.Bip01_L_Finger02" 18
  20 "ValveBiped.Bip01_R_Clavicle" 0
  21 "ValveBiped.Bip01_R_UpperArm" 20
  22 "ValveBiped.Bip01_R_Forearm" 21
  23 "ValveBiped.Bip01_R_Hand" 22
  24 "ValveBiped.Bip01_R_Finger4" 23
  25 "ValveBiped.Bip01_R_Finger41" 24
  26 "ValveBiped.Bip01_R_Finger42" 25
  27 "ValveBiped.Bip01_R_Finger3" 23
  28 "ValveBiped.Bip01_R_Finger31" 27
  29 "ValveBiped.Bip01_R_Finger32" 28
  30 "ValveBiped.Bip01_R_Finger2" 23
  31 "ValveBiped.Bip01_R_Finger21" 30
  32 "ValveBiped.Bip01_R_Finger22" 31
  33 "ValveBiped.Bip01_R_Finger1" 23
  34 "ValveBiped.Bip01_R_Finger11" 33
  35 "ValveBiped.Bip01_R_Finger12" 34
  36 "ValveBiped.Bip01_R_Finger0" 23
  37 "ValveBiped.Bip01_R_Finger01" 36
  38 "ValveBiped.Bip01_R_Finger02" 37
  39 "ValveBiped.Bip01" -1
  40 "ValveBiped.base" 39
end
skeleton
  time 0
    0 1.292969 -2.785156 -12.101563 -1.570781 -1.391896 -1.570809
    1 2.033349 1.000767 1.937660 2.856279 -0.086961 1.424556
    2 6.028141 0.000000 0.000000 -2.225235 -0.080700 -1.366834
    3 11.692554 0.000001 0.000002 0.000000 0.000000 -1.427520
    4 11.481674 0.000001 -0.000032 1.720454 -1.100859 0.355694
    5 3.859709 -0.142404 -1.191975 -0.372602 0.151269 -0.938029
    6 1.312555 -0.000002 0.000001 0.000000 0.000000 -1.267535
    7 0.729363 -0.000002 -0.000002 0.000000 0.000000 -1.156049
    8 3.942335 0.046767 -0.431443 -0.282547 -0.012816 -0.829988
    9 1.539097 0.000000 0.000000 0.000000 0.000000 -1.277064
    10 1.196326 -0.000002 -0.000001 0.000000 0.000000 -1.795954
    11 3.883696 -0.046765 0.431443 -0.051699 -0.018864 -0.672085
    12 1.719570 -0.000004 -0.000001 0.000000 0.000003 -1.477115
    13 1.209171 -0.000002 0.000000 0.000000 0.000004 -1.391274
    14 3.859865 -0.137947 1.332466 0.160078 -0.013795 -0.792663
    15 1.719429 0.000002 -0.000001 0.000000 0.000000 -1.578974
    16 1.099665 0.000000 0.000000 0.000000 0.000000 -1.439614
    17 0.806053 -0.348925 1.321258 -1.297467 -0.379020 -0.751559
    18 1.789780 -0.000002 0.000002 0.000000 0.000000 0.288883
    19 1.207006 0.000000 0.000000 0.000000 0.000000 0.449503
    20 2.033356 1.000772 -1.937610 -0.104119 -0.097955 -1.638025
    21 6.028144 0.000000 0.000000 0.179630 0.590423 -2.117759
    22 11.692554 0.000001 0.000003 0.000000 0.000000 -1.215505
    23 11.481697 0.000001 0.000002 -1.089292 -0.547599 0.190292
    24 3.859678 -0.132570 1.193109 0.121614 -0.096285 -0.922066
    25 1.312557 -0.000002 0.000001 0.000000 0.000000 -0.614204
    26 0.729365 0.000002 -0.000002 0.000000 0.000000 -1.378700
    27 3.942305 0.050327 0.431044 0.052416 -0.034057 -0.893750
    28 1.539099 -0.000002 0.000000 0.000000 0.000000 -1.033145
    29 1.196321 0.000008 0.000000 0.000000 0.000000 -1.390664
    30 3.883661 -0.050323 -0.431042 0.015688 -0.124349 -0.775366
    31 1.719578 0.000004 0.000000 0.000000 -0.007974 -1.588129
    32 1.209185 0.000002 0.000000 0.000000 -0.004460 -0.914507
    33 3.859838 -0.148937 -1.331282 0.137047 0.112668 -0.145630
    34 1.719423 0.000002 0.000000 0.000000 -0.006613 -0.973817
    35 1.099667 0.000002 0.000000 0.000000 -0.004210 -1.029708
    36 0.806021 -0.359837 -1.318334 1.307341 0.325294 -0.670080
    37 1.789782 0.000000 -0.000004 0.019720 0.080233 0.520342
    38 1.206999 0.000003 0.000002 0.000000 0.000000 0.467622
    39 1.292969 -6.652344 -31.890625 1.570792 0.000003 -0.000003
    40 -11.759954 17.614031 11.178912 0.267423 0.112128 0.229780
  time 1
    0 1.292969 -2.785156 -12.101563 -1.570781 -1.391896 -1.570809
    1 2.033349 1.000767 1.937660 2.856279 -0.086961 1.424556
    2 6.028141 0.000000 0.000000 -2.227829 -0.086078 -1.343913
    3 11.692554 0.000001 0.000002 0.000000 0.000000 -1.463657
    4 11.481674 0.000001 -0.000032 1.684841 -1.086174 0.431565
    5 3.859709 -0.142404 -1.191975 -0.372602 0.151269 -0.938029
    6 1.312555 -0.000002 0.000001 0.000000 0.000000 -1.267535
    7 0.729363 -0.000002 -0.000002 0.000000 0.000000 -1.156049
    8 3.942335 0.046767 -0.431443 -0.282547 -0.012816 -0.829988
    9 1.539097 0.000000 0.000000 0.000000 0.000000 -1.277064
    10 1.196326 -0.000002 -0.000001 0.000000 0.000000 -1.795954
    11 3.883696 -0.046765 0.431443 -0.051699 -0.018864 -0.672085
    12 1.719570 -0.000004 -0.000001 0.000000 0.000003 -1.477115
    13 1.209171 -0.000002 0.000000 0.000000 0.000004 -1.391274
    14 3.859865 -0.137947 1.332466 0.160078 -0.013795 -0.792663
    15 1.719429 0.000002 -0.000001 0.000000 0.000000 -1.578974
    16 1.099665 0.000000 0.000000 0.000000 0.000000 -1.439614
    17 0.806053 -0.348925 1.321258 -1.297467 -0.379020 -0.751559
    18 1.789780 -0.000002 0.000002 0.000000 0.000000 0.288883
    19 1.207006 0.000000 0.000000 0.000000 0.000000 0.449503
    20 2.033356 1.000772 -1.937610 -0.104119 -0.097955 -1.638025
    21 6.028144 0.000000 0.000000 0.167455 0.591200 -2.139654
    22 11.692554 0.000001 0.000003 0.000000 0.000000 -1.251819
    23 11.481697 0.000001 0.000002 -1.099944 -0.538448 0.243815
    24 3.859678 -0.132570 1.193109 0.121614 -0.096285 -0.922066
    25 1.312557 -0.000002 0.000001 0.000000 0.000000 -0.614204
    26 0.729365 0.000002 -0.000002 0.000000 0.000000 -1.378700
    27 3.942305 0.050327 0.431044 0.052416 -0.034069 -0.893750
    28 1.539099 -0.000002 0.000000 0.000000 0.000000 -1.033145
    29 1.196321 0.000008 0.000000 0.000000 0.000000 -1.390664
    30 3.883661 -0.050323 -0.431042 0.015688 -0.124349 -0.775366
    31 1.719578 0.000004 0.000000 0.000000 -0.007974 -1.588129
    32 1.209185 0.000002 0.000000 0.000000 -0.004460 -0.914507
    33 3.859838 -0.148937 -1.331282 0.137047 0.112668 -0.145630
    34 1.719423 0.000002 0.000000 0.000000 -0.006613 -0.973817
    35 1.099667 0.000002 0.000000 0.000000 -0.004210 -1.029708
    36 0.806021 -0.359837 -1.318334 1.307341 0.325294 -0.670080
    37 1.789782 0.000000 -0.000004 0.019720 0.080233 0.520342
    38 1.206999 0.000003 0.000002 0.000000 0.000000 0.467622
    39 1.292969 -6.652344 -31.890625 1.570792 0.000003 -0.000003
    40 -11.545104 18.293739 11.354699 0.262378 0.107717 0.218359
  time 2
    0 1.292969 -2.785156 -12.101563 -1.570781 -1.391896 -1.570809
    1 2.033349 1.000767 1.937660 2.856279 -0.086961 1.424556
    2 6.028141 0.000000 0.000000 -2.231771 -0.103378 -1.305883
    3 11.692554 0.000001 0.000002 0.000000 0.000000 -1.510829
    4 11.481674 0.000001 -0.000032 1.640036 -1.063083 0.534340
    5 3.859709 -0.142404 -1.191975 -0.372602 0.151269 -0.938029
    6 1.312555 -0.000002 0.000001 0.000000 0.000000 -1.267535
    7 0.729363 -0.000002 -0.000002 0.000000 0.000000 -1.156049
    8 3.942335 0.046767 -0.431443 -0.282547 -0.012816 -0.829988
    9 1.539097 0.000000 0.000000 0.000000 0.000000 -1.277064
    10 1.196326 -0.000002 -0.000001 0.000000 0.000000 -1.795954
    11 3.883696 -0.046765 0.431443 -0.051699 -0.018864 -0.672085
    12 1.719570 -0.000004 -0.000001 0.000000 0.000003 -1.477115
    13 1.209171 -0.000002 0.000000 0.000000 0.000004 -1.391274
    14 3.859865 -0.137947 1.332466 0.160078 -0.013795 -0.792663
    15 1.719429 0.000002 -0.000001 0.000000 0.000000 -1.578974
    16 1.099665 0.000000 0.000000 0.000000 0.000000 -1.439614
    17 0.806053 -0.348925 1.321258 -1.297467 -0.379020 -0.751559
    18 1.789780 -0.000002 0.000002 0.000000 0.000000 0.288883
    19 1.207006 0.000000 0.000000 0.000000 0.000000 0.449503
    20 2.033356 1.000772 -1.937610 -0.104119 -0.097955 -1.638025
    21 6.028144 0.000000 0.000000 0.148716 0.594881 -2.178496
    22 11.692554 0.000001 0.000003 0.000000 -0.000036 -1.300927
    23 11.481697 0.000001 0.000002 -1.117349 -0.524201 0.319926
    24 3.859678 -0.132570 1.193109 0.121614 -0.096285 -0.922066
    25 1.312557 -0.000002 0.000001 0.000000 0.000000 -0.614204
    26 0.729365 0.000002 -0.000002 0.000000 0.000000 -1.378700
    27 3.942305 0.050327 0.431044 0.052416 -0.034069 -0.893750
    28 1.539099 -0.000002 0.000000 0.000000 0.000000 -1.033145
    29 1.196321 0.000008 0.000000 0.000000 0.000000 -1.390664
    30 3.883661 -0.050323 -0.431042 0.015688 -0.124349 -0.775366
    31 1.719578 0.000004 0.000000 0.000000 -0.007974 -1.588129
    32 1.209185 0.000002 0.000000 0.000000 -0.004460 -0.914507
    33 3.859838 -0.148937 -1.331282 0.137047 0.112668 -0.145630
    34 1.719423 0.000002 0.000000 0.000000 -0.006613 -0.973817
    35 1.099667 0.000002 0.000000 0.000000 -0.004210 -1.029708
    36 0.806021 -0.359837 -1.318334 1.307341 0.325294 -0.670080
    37 1.789782 0.000000 -0.000004 0.019720 0.080233 0.520342
    38 1.206999 0.000003 0.000002 0.000000 0.000000 0.467622
    39 1.292969 -6.652344 -31.890625 1.570792 0.000003 -0.000003
    40 -11.263845 19.383616 11.569549 0.250645 0.099760 0.196943
  time 3
    0 1.292969 -2.785156 -12.101563 -1.570781 -1.391896 -1.570809
    1 2.033349 1.000767 1.937660 2.856279 -0.086961 1.424556
    2 6.028141 0.000000 0.000000 -2.236809 -0.126389 -1.256665
    3 11.692554 0.000001 0.000002 0.000000 0.000000 -1.550118
    4 11.481674 0.000001 -0.000032 1.591008 -1.035624 0.639842
    5 3.859709 -0.142404 -1.191975 -0.372602 0.151269 -0.938029
    6 1.312555 -0.000002 0.000001 0.000000 0.000000 -1.267535
    7 0.729363 -0.000002 -0.000002 0.000000 0.000000 -1.156049
    8 3.942335 0.046767 -0.431443 -0.282547 -0.012816 -0.829988
    9 1.539097 0.000000 0.000000 0.000000 0.000000 -1.277064
    10 1.196326 -0.000002 -0.000001 0.000000 0.000000 -1.795954
    11 3.883696 -0.046765 0.431443 -0.051699 -0.018864 -0.672085
    12 1.719570 -0.000004 -0.000001 0.000000 0.000003 -1.477115
    13 1.209171 -0.000002 0.000000 0.000000 0.000004 -1.391274
    14 3.859865 -0.137947 1.332466 0.160078 -0.013795 -0.792663
    15 1.719429 0.000002 -0.000001 0.000000 0.000000 -1.578974
    16 1.099665 0.000000 0.000000 0.000000 0.000000 -1.439614
    17 0.806053 -0.348925 1.321258 -1.297467 -0.379020 -0.751559
    18 1.789780 -0.000002 0.000002 0.000000 0.000000 0.288883
    19 1.207006 0.000000 0.000000 0.000000 0.000000 0.449503
    20 2.033356 1.000772 -1.937610 -0.104119 -0.097955 -1.638025
    21 6.028144 0.000000 0.000000 0.122901 0.598629 -2.229333
    22 11.692554 0.000001 0.000003 0.000000 0.000000 -1.342410
    23 11.481697 0.000001 0.000002 -1.136372 -0.506753 0.395439
    24 3.859678 -0.132570 1.193109 0.121614 -0.096285 -0.922066
    25 1.312557 -0.000002 0.000001 0.000000 0.000000 -0.614204
    26 0.729365 0.000002 -0.000002 0.000000 0.000000 -1.378700
    27 3.942305 0.050327 0.431044 0.052416 -0.034057 -0.893750
    28 1.539099 -0.000002 0.000000 0.000000 0.000000 -1.033169
    29 1.196321 0.000008 0.000000 0.000000 0.000000 -1.390664
    30 3.883661 -0.050323 -0.431042 0.015688 -0.124349 -0.775366
    31 1.719578 0.000004 0.000000 0.000000 -0.007974 -1.588166
    32 1.209185 0.000002 0.000000 0.000000 -0.004460 -0.914507
    33 3.859838 -0.148937 -1.331282 0.137062 0.112668 -0.145630
    34 1.719423 0.000002 0.000000 0.000000 -0.006613 -0.973817
    35 1.099667 0.000002 0.000000 0.000000 -0.004210 -1.029708
    36 0.806021 -0.359837 -1.318334 1.307341 0.325294 -0.670080
    37 1.789782 0.000000 -0.000004 0.019720 0.080233 0.520342
    38 1.206999 0.000003 0.000002 0.000000 0.000000 0.467622
    39 1.292969 -6.652344 -31.890625 1.570792 0.000003 -0.000003
    40 -10.963055 20.551621 11.796118 0.235808 0.090651 0.173057
  time 4
    0 1.292969 -2.785156 -12.101563 -1.570781 -1.391896 -1.570809
    1 2.033349 1.000767 1.937660 2.856279 -0.086961 1.424556
    2 6.028141 0.000000 0.000000 -2.242646 -0.151147 -1.197675
    3 11.692554 0.000001 0.000002 0.000000 0.000000 -1.577382
    4 11.481674 0.000001 -0.000032 1.537869 -1.004372 0.741682
    5 3.859709 -0.142404 -1.191975 -0.372602 0.151269 -0.938029
    6 1.312555 -0.000002 0.000001 0.000000 0.000000 -1.267535
    7 0.729363 -0.000002 -0.000002 0.000000 0.000000 -1.156049
    8 3.942335 0.046767 -0.431443 -0.282547 -0.012816 -0.829988
    9 1.539097 0.000000 0.000000 0.000000 0.000000 -1.277064
    10 1.196326 -0.000002 -0.000001 0.000000 0.000000 -1.795954
    11 3.883696 -0.046765 0.431443 -0.051699 -0.018864 -0.672085
    12 1.719570 -0.000004 -0.000001 0.000000 0.000003 -1.477115
    13 1.209171 -0.000002 0.000000 0.000000 0.000004 -1.391274
    14 3.859865 -0.137947 1.332466 0.160078 -0.013795 -0.792663
    15 1.719429 0.000002 -0.000001 0.000000 0.000000 -1.578974
    16 1.099665 0.000000 0.000000 0.000000 0.000000 -1.439614
    17 0.806053 -0.348925 1.321258 -1.297467 -0.379020 -0.751559
    18 1.789780 -0.000002 0.000002 0.000000 0.000000 0.288883
    19 1.207006 0.000000 0.000000 0.000000 0.000000 0.449503
    20 2.033356 1.000772 -1.937610 -0.104119 -0.097955 -1.638025
    21 6.028144 0.000000 0.000000 0.091030 0.600780 -2.288560
    22 11.692554 0.000001 0.000003 0.000000 0.000000 -1.371034
    23 11.481697 0.000001 0.000002 -1.153954 -0.486677 0.462208
    24 3.859678 -0.132570 1.193109 0.121614 -0.096285 -0.922066
    25 1.312557 -0.000002 0.000001 0.000000 0.000000 -0.614204
    26 0.729365 0.000002 -0.000002 0.000000 0.000000 -1.378735
    27 3.942305 0.050327 0.431044 0.052416 -0.034069 -0.893750
    28 1.539099 -0.000002 0.000000 0.000000 0.000000 -1.033169
    29 1.196321 0.000008 0.000000 0.000000 0.000000 -1.390664
    30 3.883661 -0.050323 -0.431042 0.015688 -0.124349 -0.775366
    31 1.719578 0.000004 0.000000 0.000000 -0.007974 -1.588166
    32 1.209185 0.000002 0.000000 0.000000 -0.004460 -0.914507
    33 3.859838 -0.148937 -1.331282 0.137047 0.112668 -0.145630
    34 1.719423 0.000002 0.000000 0.000000 -0.006613 -0.973817
    35 1.099667 0.000002 0.000000 0.000000 -0.004210 -1.029708
    36 0.806021 -0.359837 -1.318334 1.307341 0.325294 -0.670080
    37 1.789782 0.000000 -0.000004 0.019720 0.080233 0.520342
    38 1.206999 0.000003 0.000002 0.000000 0.000000 0.467622
    39 1.292969 -6.652344 -31.890625 1.570792 0.000003 -0.000003
    40 -10.654451 21.704000 12.026594 0.218922 0.081016 0.148944
  time 5
    0 1.292969 -2.785156 -12.101563 -1.570781 -1.391896 -1.570809
    1 2.033349 1.000767 1.937660 2.856279 -0.086961 1.424556
    2 6.028141 0.000000 0.000000 -2.248509 -0.174075 -1.130101
    3 11.692554 0.000001 0.000002 0.000000 0.000000 -1.592386
    4 11.481674 0.000001 -0.000032 1.479910 -0.969145 0.837049
    5 3.859709 -0.142404 -1.191975 -0.372602 0.151269 -0.938029
    6 1.312555 -0.000002 0.000001 0.000000 0.000000 -1.267535
    7 0.729363 -0.000002 -0.000002 0.000000 0.000000 -1.156049
    8 3.942335 0.046767 -0.431443 -0.282547 -0.012816 -0.829988
    9 1.539097 0.000000 0.000000 0.000000 0.000000 -1.277064
    10 1.196326 -0.000002 -0.000001 0.000000 0.000000 -1.795954
    11 3.883696 -0.046765 0.431443 -0.051699 -0.018864 -0.672085
    12 1.719570 -0.000004 -0.000001 0.000000 0.000003 -1.477115
    13 1.209171 -0.000002 0.000000 0.000000 0.000004 -1.391274
    14 3.859865 -0.137947 1.332466 0.160078 -0.013795 -0.792663
    15 1.719429 0.000002 -0.000001 0.000000 0.000000 -1.578974
    16 1.099665 0.000000 0.000000 0.000000 0.000000 -1.439614
    17 0.806053 -0.348925 1.321258 -1.297467 -0.379020 -0.751559
    18 1.789780 -0.000002 0.000002 0.000000 0.000000 0.288883
    19 1.207006 0.000000 0.000000 0.000000 0.000000 0.449503
    20 2.033356 1.000772 -1.937610 -0.104119 -0.097955 -1.638025
    21 6.028144 0.000000 0.000000 0.054698 0.600226 -2.352484
    22 11.692554 0.000001 0.000003 0.000000 0.000000 -1.387124
    23 11.481697 0.000001 0.000002 -1.169721 -0.464073 0.517810
    24 3.859678 -0.132570 1.193109 0.121614 -0.096285 -0.922066
    25 1.312557 -0.000002 0.000001 0.000000 0.000000 -0.614204
    26 0.729365 0.000002 -0.000002 0.000000 0.000000 -1.378700
    27 3.942305 0.050327 0.431044 0.052416 -0.034069 -0.893750
    28 1.539099 -0.000002 0.000000 0.000000 0.000000 -1.033169
    29 1.196321 0.000008 0.000000 0.000000 0.000000 -1.390664
    30 3.883661 -0.050323 -0.431042 0.015688 -0.124349 -0.775366
    31 1.719578 0.000004 0.000000 0.000000 -0.007974 -1.588129
    32 1.209185 0.000002 0.000000 0.000000 -0.004460 -0.914507
    33 3.859838 -0.148937 -1.331282 0.137047 0.112668 -0.145630
    34 1.719423 0.000002 0.000000 0.000000 -0.006613 -0.973817
    35 1.099667 0.000002 0.000000 0.000000 -0.004210 -1.029708
    36 0.806021 -0.359837 -1.318334 1.307341 0.325294 -0.670080
    37 1.789782 0.000000 -0.000004 0.019720 0.080233 0.520342
    38 1.206999 0.000003 0.000002 0.000000 0.000000 0.467622
    39 1.292969 -6.652344 -31.890625 1.570792 0.000003 -0.000003
    40 -10.341942 22.789970 12.260976 0.200430 0.071236 0.125670
  time 6
    0 1.292969 -2.785156 -12.101563 -1.570781 -1.391896 -1.570809
    1 2.033349 1.000767 1.937660 2.856279 -0.086961 1.424556
    2 6.028141 0.000000 0.000000 -2.253098 -0.191957 -1.055263
    3 11.692554 0.000001 0.000002 0.000000 0.000000 -1.596122
    4 11.481674 0.000001 -0.000032 1.416794 -0.929518 0.924154
    5 3.859709 -0.142404 -1.191975 -0.372602 0.151269 -0.938029
    6 1.312555 -0.000002 0.000001 0.000000 0.000000 -1.267535
    7 0.729363 -0.000002 -0.000002 0.000000 0.000000 -1.156049
    8 3.942335 0.046767 -0.431443 -0.282547 -0.012816 -0.829988
    9 1.539097 0.000000 0.000000 0.000000 0.000000 -1.277064
    10 1.196326 -0.000002 -0.000001 0.000000 0.000000 -1.795954
    11 3.883696 -0.046765 0.431443 -0.051699 -0.018864 -0.672085
    12 1.719570 -0.000004 -0.000001 0.000000 0.000003 -1.477115
    13 1.209171 -0.000002 0.000000 0.000000 0.000004 -1.391274
    14 3.859865 -0.137947 1.332466 0.160078 -0.013795 -0.792663
    15 1.719429 0.000002 -0.000001 0.000000 0.000000 -1.578974
    16 1.099665 0.000000 0.000000 0.000000 0.000000 -1.439614
    17 0.806053 -0.348925 1.321258 -1.297467 -0.379020 -0.751559
    18 1.789780 -0.000002 0.000002 0.000000 0.000000 0.288883
    19 1.207006 0.000000 0.000000 0.000000 0.000000 0.449503
    20 2.033356 1.000772 -1.937610 -0.104119 -0.097955 -1.638025
    21 6.028144 0.000000 0.000000 0.016008 0.596367 -2.417499
    22 11.692554 0.000001 0.000003 0.000000 0.000000 -1.391970
    23 11.481697 0.000001 0.000002 -1.183075 -0.439187 0.561022
    24 3.859678 -0.132570 1.193109 0.121614 -0.096285 -0.922066
    25 1.312557 -0.000002 0.000001 0.000000 0.000000 -0.614204
    26 0.729365 0.000002 -0.000002 0.000000 0.000000 -1.378700
    27 3.942305 0.050327 0.431044 0.052416 -0.034069 -0.893750
    28 1.539099 -0.000002 0.000000 0.000000 0.000000 -1.033169
    29 1.196321 0.000008 0.000000 0.000000 0.000000 -1.390664
    30 3.883661 -0.050323 -0.431042 0.015688 -0.124349 -0.775366
    31 1.719578 0.000004 0.000000 0.000000 -0.007974 -1.588166
    32 1.209185 0.000002 0.000000 0.000000 -0.004460 -0.914507
    33 3.859838 -0.148937 -1.331282 0.137047 0.112668 -0.145630
    34 1.719423 0.000002 0.000000 0.000000 -0.006613 -0.973817
    35 1.099667 0.000002 0.000000 0.000000 -0.004210 -1.029708
    36 0.806021 -0.359837 -1.318334 1.307341 0.325294 -0.670080
    37 1.789782 0.000000 -0.000004 0.019720 0.080233 0.520342
    38 1.206999 0.000003 0.000002 0.000000 0.000000 0.467622
    39 1.292969 -6.652344 -31.890625 1.570792 0.000003 -0.000003
    40 -10.029432 23.790001 12.499265 0.180547 0.061553 0.103870
  time 7
    0 1.292969 -2.785156 -12.101563 -1.570781 -1.391896 -1.570809
    1 2.033349 1.000767 1.937660 2.856279 -0.086961 1.424556
    2 6.028141 0.000000 0.000000 -2.254720 -0.202215 -0.974798
    3 11.692554 0.000001 0.000002 0.000000 0.000000 -1.590401
    4 11.481674 0.000001 -0.000032 1.348596 -0.885097 1.001530
    5 3.859709 -0.142404 -1.191975 -0.372602 0.151269 -0.938029
    6 1.312555 -0.000002 0.000001 0.000000 0.000000 -1.267535
    7 0.729363 -0.000002 -0.000002 0.000000 0.000000 -1.156049
    8 3.942335 0.046767 -0.431443 -0.282547 -0.012816 -0.829988
    9 1.539097 0.000000 0.000000 0.000000 0.000000 -1.277064
    10 1.196326 -0.000002 -0.000001 0.000000 0.000000 -1.795954
    11 3.883696 -0.046765 0.431443 -0.051699 -0.018864 -0.672085
    12 1.719570 -0.000004 -0.000001 0.000000 0.000003 -1.477115
    13 1.209171 -0.000002 0.000000 0.000000 0.000004 -1.391274
    14 3.859865 -0.137947 1.332466 0.160078 -0.013795 -0.792663
    15 1.719429 0.000002 -0.000001 0.000000 0.000000 -1.578974
    16 1.099665 0.000000 0.000000 0.000000 0.000000 -1.439614
    17 0.806053 -0.348925 1.321258 -1.297467 -0.379020 -0.751559
    18 1.789780 -0.000002 0.000002 0.000000 0.000000 0.288883
    19 1.207006 0.000000 0.000000 0.000000 0.000000 0.449503
    20 2.033356 1.000772 -1.937610 -0.104119 -0.097955 -1.638025
    21 6.028144 0.000000 0.000000 -0.023001 0.589004 -2.480249
    22 11.692554 0.000001 0.000003 0.000000 0.000000 -1.387511
    23 11.481697 0.000001 0.000002 -1.193660 -0.412303 0.591386
    24 3.859678 -0.132570 1.193109 0.121614 -0.096285 -0.922066
    25 1.312557 -0.000002 0.000001 0.000000 0.000000 -0.614204
    26 0.729365 0.000002 -0.000002 0.000000 0.000000 -1.378735
    27 3.942305 0.050327 0.431044 0.052416 -0.034069 -0.893750
    28 1.539099 -0.000002 0.000000 0.000000 0.000000 -1.033169
    29 1.196321 0.000008 0.000000 0.000000 0.000000 -1.390664
    30 3.883661 -0.050323 -0.431042 0.015688 -0.124349 -0.775366
    31 1.719578 0.000004 0.000000 0.000000 -0.007974 -1.588129
    32 1.209185 0.000002 0.000000 0.000000 -0.004460 -0.914507
    33 3.859838 -0.148937 -1.331282 0.137047 0.112668 -0.145630
    34 1.719423 0.000002 0.000000 0.000000 -0.006613 -0.973817
    35 1.099667 0.000002 0.000000 0.000000 -0.004210 -1.029708
    36 0.806021 -0.359837 -1.318334 1.307341 0.325294 -0.670080
    37 1.789782 0.000000 -0.000004 0.019720 0.080233 0.520342
    38 1.206999 0.000003 0.000002 0.000000 0.000000 0.467622
    39 1.292969 -6.652344 -31.890625 1.570792 0.000003 -0.000003
    40 -9.716923 24.684559 12.741460 0.159382 0.052109 0.083988
  time 8
    0 1.292969 -2.785156 -12.101563 -1.570781 -1.391896 -1.570809
    1 2.033349 1.000767 1.937660 2.856279 -0.086961 1.424556
    2 6.028141 0.000000 0.000000 -2.251552 -0.203434 -0.890829
    3 11.692554 0.000001 0.000002 0.000000 0.000000 -1.577324
    4 11.481674 0.000001 -0.000032 1.276549 -0.836065 1.067347
    5 3.859709 -0.142404 -1.191975 -0.372602 0.151269 -0.938029
    6 1.312555 -0.000002 0.000001 0.000000 0.000000 -1.267535
    7 0.729363 -0.000002 -0.000002 0.000000 0.000000 -1.156049
    8 3.942335 0.046767 -0.431443 -0.282547 -0.012816 -0.829988
    9 1.539097 0.000000 0.000000 0.000000 0.000000 -1.277064
    10 1.196326 -0.000002 -0.000001 0.000000 0.000000 -1.795954
    11 3.883696 -0.046765 0.431443 -0.051699 -0.018864 -0.672085
    12 1.719570 -0.000004 -0.000001 0.000000 0.000003 -1.477115
    13 1.209171 -0.000002 0.000000 0.000000 0.000004 -1.391274
    14 3.859865 -0.137947 1.332466 0.160078 -0.013795 -0.792663
    15 1.719429 0.000002 -0.000001 0.000000 0.000000 -1.578974
    16 1.099665 0.000000 0.000000 0.000000 0.000000 -1.439614
    17 0.806053 -0.348925 1.321258 -1.297467 -0.379020 -0.751559
    18 1.789780 -0.000002 0.000002 0.000000 0.000000 0.288883
    19 1.207006 0.000000 0.000000 0.000000 0.000000 0.449503
    20 2.033356 1.000772 -1.937610 -0.104119 -0.097955 -1.638025
    21 6.028144 0.000000 0.000000 -0.060545 0.578381 -2.538049
    22 11.692554 0.000001 0.000003 0.000000 0.000000 -1.375622
    23 11.481697 0.000001 0.000002 -1.201632 -0.383747 0.609189
    24 3.859678 -0.132570 1.193109 0.121614 -0.096285 -0.922066
    25 1.312557 -0.000002 0.000001 0.000000 0.000000 -0.614204
    26 0.729365 0.000002 -0.000002 0.000000 0.000000 -1.378700
    27 3.942305 0.050327 0.431044 0.052416 -0.034069 -0.893750
    28 1.539099 -0.000002 0.000000 0.000000 0.000000 -1.033145
    29 1.196321 0.000008 0.000000 0.000000 0.000000 -1.390664
    30 3.883661 -0.050323 -0.431042 0.015688 -0.124349 -0.775366
    31 1.719578 0.000004 0.000000 0.000000 -0.007974 -1.588129
    32 1.209185 0.000002 0.000000 0.000000 -0.004460 -0.914507
    33 3.859838 -0.148937 -1.331282 0.137047 0.112668 -0.145630
    34 1.719423 0.000002 0.000000 0.000000 -0.006613 -0.973817
    35 1.099667 0.000002 0.000000 0.000000 -0.004210 -1.029708
    36 0.806021 -0.359837 -1.318334 1.307341 0.325294 -0.670080
    37 1.789782 0.000000 -0.000004 0.019720 0.080233 0.520342
    38 1.206999 0.000003 0.000002 0.000000 0.000000 0.467622
    39 1.292969 -6.652344 -31.890625 1.570792 0.000003 -0.000003
    40 -9.416132 25.461927 12.979748 0.136911 0.043240 0.066347
  time 9
    0 1.292969 -2.785156 -12.101563 -1.570781 -1.391896 -1.570809
    1 2.033349 1.000767 1.937660 2.856279 -0.086961 1.424556
    2 6.028141 0.000000 0.000000 -2.242297 -0.195533 -0.806218
    3 11.692554 0.000001 0.000002 0.000000 0.000000 -1.558992
    4 11.481674 0.000001 -0.000032 1.203082 -0.783573 1.119569
    5 3.859709 -0.142404 -1.191975 -0.372602 0.151269 -0.938029
    6 1.312555 -0.000002 0.000001 0.000000 0.000000 -1.267535
    7 0.729363 -0.000002 -0.000002 0.000000 0.000000 -1.156049
    8 3.942335 0.046767 -0.431443 -0.282547 -0.012816 -0.829988
    9 1.539097 0.000000 0.000000 0.000000 0.000000 -1.277095
    10 1.196326 -0.000002 -0.000001 0.000000 0.000000 -1.795954
    11 3.883696 -0.046765 0.431443 -0.051699 -0.018864 -0.672085
    12 1.719570 -0.000004 -0.000001 0.000000 0.000003 -1.477149
    13 1.209171 -0.000002 0.000000 0.000000 0.000004 -1.391274
    14 3.859865 -0.137947 1.332466 0.160078 -0.013795 -0.792663
    15 1.719429 0.000002 -0.000001 0.000000 0.000000 -1.578974
    16 1.099665 0.000000 0.000000 0.000000 0.000000 -1.439614
    17 0.806053 -0.348925 1.321258 -1.297467 -0.379020 -0.751559
    18 1.789780 -0.000002 0.000002 0.000000 0.000000 0.288883
    19 1.207006 0.000000 0.000000 0.000000 0.000000 0.449503
    20 2.033356 1.000772 -1.937610 -0.104119 -0.097955 -1.638025
    21 6.028144 0.000000 0.000000 -0.095219 0.565074 -2.588719
    22 11.692554 0.000001 0.000003 0.000000 0.000000 -1.357918
    23 11.481697 0.000001 0.000002 -1.205507 -0.354091 0.613804
    24 3.859678 -0.132570 1.193109 0.121614 -0.096285 -0.922066
    25 1.312557 -0.000002 0.000001 0.000000 0.000000 -0.614204
    26 0.729365 0.000002 -0.000002 0.000000 0.000000 -1.378700
    27 3.942305 0.050327 0.431044 0.052416 -0.034069 -0.893750
    28 1.539099 -0.000002 0.000000 0.000000 0.000000 -1.033169
    29 1.196321 0.000008 0.000000 0.000000 0.000000 -1.390664
    30 3.883661 -0.050323 -0.431042 0.015688 -0.124349 -0.775366
    31 1.719578 0.000004 0.000000 0.000000 -0.007974 -1.588166
    32 1.209185 0.000002 0.000000 0.000000 -0.004460 -0.914507
    33 3.859838 -0.148937 -1.331282 0.137047 0.112668 -0.145630
    34 1.719423 0.000002 0.000000 0.000000 -0.006613 -0.973817
    35 1.099667 0.000002 0.000000 0.000000 -0.004210 -1.029708
    36 0.806021 -0.359837 -1.318334 1.307341 0.325294 -0.670080
    37 1.789782 0.000000 -0.000004 0.019720 0.080233 0.520342
    38 1.206999 0.000003 0.000002 0.000000 0.000000 0.467622
    39 1.292969 -6.652344 -31.890625 1.570792 0.000003 -0.000003
    40 -9.119248 26.110384 13.214131 0.113122 0.035091 0.051222
  time 10
    0 1.292969 -2.785156 -12.101563 -1.570781 -1.391896 -1.570809
    1 2.033349 1.000767 1.937660 2.856279 -0.086961 1.424556
    2 6.028141 0.000000 0.000000 -2.226906 -0.180035 -0.724789
    3 11.692554 0.000001 0.000002 0.000000 0.000000 -1.537683
    4 11.481674 0.000001 -0.000032 1.132081 -0.730535 1.156080
    5 3.859709 -0.142404 -1.191975 -0.372602 0.151269 -0.938029
    6 1.312555 -0.000002 0.000001 0.000000 0.000000 -1.267535
    7 0.729363 -0.000002 -0.000002 0.000000 0.000000 -1.156049
    8 3.942335 0.046767 -0.431443 -0.282547 -0.012816 -0.829988
    9 1.539097 0.000000 0.000000 0.000000 0.000000 -1.277064
    10 1.196326 -0.000002 -0.000001 0.000000 0.000000 -1.795954
    11 3.883696 -0.046765 0.431443 -0.051699 -0.018864 -0.672085
    12 1.719570 -0.000004 -0.000001 0.000000 0.000003 -1.477115
    13 1.209171 -0.000002 0.000000 0.000000 0.000004 -1.391274
    14 3.859865 -0.137947 1.332466 0.160078 -0.013795 -0.792663
    15 1.719429 0.000002 -0.000001 0.000000 0.000000 -1.578974
    16 1.099665 0.000000 0.000000 0.000000 0.000000 -1.439614
    17 0.806053 -0.348925 1.321258 -1.297467 -0.379020 -0.751559
    18 1.789780 -0.000002 0.000002 0.000000 0.000000 0.288883
    19 1.207006 0.000000 0.000000 0.000000 0.000000 0.449503
    20 2.033356 1.000772 -1.937610 -0.104119 -0.097955 -1.638025
    21 6.028144 0.000000 0.000000 -0.125879 0.549838 -2.630412
    22 11.692554 0.000001 0.000003 0.000000 0.000000 -1.337305
    23 11.481697 0.000001 0.000002 -1.207412 -0.323090 0.607195
    24 3.859678 -0.132570 1.193109 0.121614 -0.096285 -0.922066
    25 1.312557 -0.000002 0.000001 0.000000 0.000000 -0.614204
    26 0.729365 0.000002 -0.000002 0.000000 0.000000 -1.378700
    27 3.942305 0.050327 0.431044 0.052416 -0.034069 -0.893750
    28 1.539099 -0.000002 0.000000 0.000000 0.000000 -1.033145
    29 1.196321 0.000008 0.000000 0.000000 0.000000 -1.390664
    30 3.883661 -0.050323 -0.431042 0.015688 -0.124349 -0.775366
    31 1.719578 0.000004 0.000000 0.000000 -0.007974 -1.588129
    32 1.209185 0.000002 0.000000 0.000000 -0.004460 -0.914507
    33 3.859838 -0.148937 -1.331282 0.137047 0.112668 -0.145630
    34 1.719423 0.000002 0.000000 0.000000 -0.006613 -0.973817
    35 1.099667 0.000002 0.000000 0.000000 -0.004210 -1.029708
    36 0.806021 -0.359837 -1.318334 1.307341 0.325294 -0.670080
    37 1.789782 0.000000 -0.000004 0.019720 0.080233 0.520342
    38 1.206999 0.000003 0.000002 0.000000 0.000000 0.467622
    39 1.292969 -6.652344 -31.890625 1.570792 0.000003 -0.000003
    40 -8.837990 26.622119 13.440700 0.087930 0.028044 0.038830
  time 11
    0 1.292969 -2.785156 -12.101563 -1.570781 -1.391896 -1.570809
    1 2.033349 1.000767 1.937660 2.856279 -0.086961 1.424556
    2 6.028141 0.000000 0.000000 -2.207050 -0.160379 -0.650207
    3 11.692554 0.000001 0.000002 0.000000 0.000000 -1.516316
    4 11.481674 0.000001 -0.000032 1.067806 -0.681169 1.177653
    5 3.859709 -0.142404 -1.191975 -0.372602 0.151269 -0.938029
    6 1.312555 -0.000002 0.000001 0.000000 0.000000 -1.267535
    7 0.729363 -0.000002 -0.000002 0.000000 0.000000 -1.156049
    8 3.942335 0.046767 -0.431443 -0.282547 -0.012816 -0.829988
    9 1.539097 0.000000 0.000000 0.000000 0.000000 -1.277064
    10 1.196326 -0.000002 -0.000001 0.000000 0.000000 -1.795954
    11 3.883696 -0.046765 0.431443 -0.051699 -0.018864 -0.672085
    12 1.719570 -0.000004 -0.000001 0.000000 0.000003 -1.477115
    13 1.209171 -0.000002 0.000000 0.000000 0.000004 -1.391310
    14 3.859865 -0.137947 1.332466 0.160078 -0.013795 -0.792663
    15 1.719429 0.000002 -0.000001 0.000000 0.000000 -1.578974
    16 1.099665 0.000000 0.000000 0.000000 0.000000 -1.439614
    17 0.806053 -0.348925 1.321258 -1.297467 -0.379020 -0.751559
    18 1.789780 -0.000002 0.000002 0.000000 0.000000 0.288883
    19 1.207006 0.000000 0.000000 0.000000 0.000000 0.449503
    20 2.033356 1.000772 -1.937610 -0.104119 -0.097955 -1.638025
    21 6.028144 0.000000 0.000000 -0.151694 0.534070 -2.662626
    22 11.692554 0.000001 0.000003 0.000000 0.000000 -1.315659
    23 11.481697 0.000001 0.000002 -1.205839 -0.292823 0.590931
    24 3.859678 -0.132570 1.193109 0.121614 -0.096285 -0.922066
    25 1.312557 -0.000002 0.000001 0.000000 0.000000 -0.614204
    26 0.729365 0.000002 -0.000002 0.000000 0.000000 -1.378700
    27 3.942305 0.050327 0.431044 0.052416 -0.034069 -0.893750
    28 1.539099 -0.000002 0.000000 0.000000 0.000000 -1.033145
    29 1.196321 0.000008 0.000000 0.000000 0.000000 -1.390664
    30 3.883661 -0.050323 -0.431042 0.015688 -0.124349 -0.775366
    31 1.719578 0.000004 0.000000 0.000000 -0.007974 -1.588129
    32 1.209185 0.000002 0.000000 0.000000 -0.004460 -0.914507
    33 3.859838 -0.148937 -1.331282 0.137047 0.112668 -0.145630
    34 1.719423 0.000002 0.000000 0.000000 -0.006613 -0.973835
    35 1.099667 0.000002 0.000000 0.000000 -0.004210 -1.029708
    36 0.806021 -0.359837 -1.318334 1.307341 0.325294 -0.670080
    37 1.789782 0.000000 -0.000004 0.019720 0.080233 0.520342
    38 1.206999 0.000003 0.000002 0.000000 0.000000 0.467622
    39 1.292969 -6.652344 -31.890625 1.570792 0.000003 -0.000003
    40 -8.576263 27.008849 13.643831 0.061384 0.022387 0.029302
  time 12
    0 1.292969 -2.785156 -12.101563 -1.570781 -1.391896 -1.570809
    1 2.033349 1.000767 1.937660 2.856279 -0.086961 1.424556
    2 6.028141 0.000000 0.000000 -2.185174 -0.141415 -0.583180
    3 11.692554 0.000001 0.000002 0.000000 0.000000 -1.495942
    4 11.481674 0.000001 -0.000032 1.010445 -0.636809 1.190433
    5 3.859709 -0.142404 -1.191975 -0.372602 0.151269 -0.938029
    6 1.312555 -0.000002 0.000001 0.000000 0.000000 -1.267535
    7 0.729363 -0.000002 -0.000002 0.000000 0.000000 -1.156049
    8 3.942335 0.046767 -0.431443 -0.282547 -0.012816 -0.829988
    9 1.539097 0.000000 0.000000 0.000000 0.000000 -1.277064
    10 1.196326 -0.000002 -0.000001 0.000000 0.000000 -1.795954
    11 3.883696 -0.046765 0.431443 -0.051699 -0.018864 -0.672085
    12 1.719570 -0.000004 -0.000001 0.000000 0.000003 -1.477115
    13 1.209171 -0.000002 0.000000 0.000000 0.000004 -1.391274
    14 3.859865 -0.137947 1.332466 0.160078 -0.013795 -0.792663
    15 1.719429 0.000002 -0.000001 0.000000 0.000000 -1.578974
    16 1.099665 0.000000 0.000000 0.000000 0.000000 -1.439614
    17 0.806053 -0.348925 1.321258 -1.297467 -0.379020 -0.751559
    18 1.789780 -0.000002 0.000002 0.000000 0.000000 0.288883
    19 1.207006 0.000000 0.000000 0.000000 0.000000 0.449503
    20 2.033356 1.000772 -1.937610 -0.104119 -0.097955 -1.638025
    21 6.028144 0.000000 0.000000 -0.173238 0.519433 -2.689219
    22 11.692554 0.000001 0.000003 0.000000 0.000000 -1.295111
    23 11.481697 0.000001 0.000002 -1.204356 -0.264838 0.572245
    24 3.859678 -0.132570 1.193109 0.121614 -0.096285 -0.922066
    25 1.312557 -0.000002 0.000001 0.000000 0.000000 -0.614204
    26 0.729365 0.000002 -0.000002 0.000000 0.000000 -1.378700
    27 3.942305 0.050327 0.431044 0.052416 -0.034069 -0.893750
    28 1.539099 -0.000002 0.000000 0.000000 0.000000 -1.033169
    29 1.196321 0.000008 0.000000 0.000000 0.000000 -1.390664
    30 3.883661 -0.050323 -0.431042 0.015688 -0.124349 -0.775366
    31 1.719578 0.000004 0.000000 0.000000 -0.007974 -1.588129
    32 1.209185 0.000002 0.000000 0.000000 -0.004460 -0.914507
    33 3.859838 -0.148937 -1.331282 0.137047 0.112668 -0.145630
    34 1.719423 0.000002 0.000000 0.000000 -0.006613 -0.973817
    35 1.099667 0.000002 0.000000 0.000000 -0.004210 -1.029708
    36 0.806021 -0.359837 -1.318334 1.307341 0.325294 -0.670080
    37 1.789782 0.000000 -0.000004 0.019720 0.080233 0.520342
    38 1.206999 0.000003 0.000002 0.000000 0.000000 0.467622
    39 1.292969 -6.652344 -31.890625 1.570792 0.000003 -0.000003
    40 -8.345787 27.333078 13.811805 0.035965 0.017354 0.021428
  time 13
    0 1.292969 -2.785156 -12.101563 -1.570781 -1.391896 -1.570809
    1 2.033349 1.000767 1.937660 2.856279 -0.086961 1.424556
    2 6.028141 0.000000 0.000000 -2.165318 -0.126638 -0.529687
    3 11.692554 0.000001 0.000002 0.000000 0.000000 -1.475041
    4 11.481674 0.000001 -0.000032 0.965490 -0.602704 1.190433
    5 3.859709 -0.142404 -1.191975 -0.372602 0.151269 -0.938029
    6 1.312555 -0.000002 0.000001 0.000000 0.000000 -1.267535
    7 0.729363 -0.000002 -0.000002 0.000000 0.000000 -1.156049
    8 3.942335 0.046767 -0.431443 -0.282547 -0.012816 -0.829988
    9 1.539097 0.000000 0.000000 0.000000 0.000000 -1.277064
    10 1.196326 -0.000002 -0.000001 0.000000 0.000000 -1.795954
    11 3.883696 -0.046765 0.431443 -0.051699 -0.018864 -0.672085
    12 1.719570 -0.000004 -0.000001 0.000000 0.000003 -1.477115
    13 1.209171 -0.000002 0.000000 0.000000 0.000004 -1.391274
    14 3.859865 -0.137947 1.332466 0.160078 -0.013795 -0.792663
    15 1.719429 0.000002 -0.000001 0.000000 0.000000 -1.578974
    16 1.099665 0.000000 0.000000 0.000000 0.000000 -1.439614
    17 0.806053 -0.348925 1.321258 -1.297467 -0.379020 -0.751559
    18 1.789780 -0.000002 0.000002 0.000000 0.000000 0.288883
    19 1.207006 0.000000 0.000000 0.000000 0.000000 0.449503
    20 2.033356 1.000772 -1.937610 -0.104119 -0.097955 -1.638025
    21 6.028144 0.000000 0.000000 -0.190193 0.506614 -2.709185
    22 11.692554 0.000001 0.000003 0.000000 0.000000 -1.273982
    23 11.481697 0.000001 0.000002 -1.202562 -0.239992 0.549257
    24 3.859678 -0.132570 1.193109 0.121614 -0.096285 -0.922066
    25 1.312557 -0.000002 0.000001 0.000000 0.000000 -0.614204
    26 0.729365 0.000002 -0.000002 0.000000 0.000000 -1.378700
    27 3.942305 0.050327 0.431044 0.052416 -0.034069 -0.893750
    28 1.539099 -0.000002 0.000000 0.000000 0.000000 -1.033169
    29 1.196321 0.000008 0.000000 0.000000 0.000000 -1.390664
    30 3.883661 -0.050323 -0.431042 0.015688 -0.124349 -0.775366
    31 1.719578 0.000004 0.000000 0.000000 -0.007974 -1.588129
    32 1.209185 0.000002 0.000000 0.000000 -0.004460 -0.914507
    33 3.859838 -0.148937 -1.331282 0.137047 0.112668 -0.145630
    34 1.719423 0.000002 0.000000 0.000000 -0.006613 -0.973817
    35 1.099667 0.000002 0.000000 0.000000 -0.004210 -1.029708
    36 0.806021 -0.359837 -1.318334 1.307341 0.325294 -0.670080
    37 1.789782 0.000000 -0.000004 0.019720 0.080233 0.520342
    38 1.206999 0.000003 0.000002 0.000000 0.000000 0.467622
    39 1.292969 -6.652344 -31.890625 1.570792 0.000003 -0.000003
    40 -8.170001 27.555741 13.960247 0.012367 0.012656 0.014765
  time 14
    0 1.292969 -2.785156 -12.101563 -1.570781 -1.391896 -1.570809
    1 2.033349 1.000767 1.937660 2.856279 -0.086961 1.424556
    2 6.028141 0.000000 0.000000 -2.152072 -0.118238 -0.496254
    3 11.692554 0.000001 0.000002 0.000000 0.000000 -1.460797
    4 11.481674 0.000001 -0.000032 0.937352 -0.582133 1.185956
    5 3.859709 -0.142404 -1.191975 -0.372602 0.151269 -0.938029
    6 1.312555 -0.000002 0.000001 0.000000 0.000000 -1.267535
    7 0.729363 -0.000002 -0.000002 0.000000 0.000000 -1.156049
    8 3.942335 0.046767 -0.431443 -0.282547 -0.012816 -0.829988
    9 1.539097 0.000000 0.000000 0.000000 0.000000 -1.277064
    10 1.196326 -0.000002 -0.000001 0.000000 0.000000 -1.795954
    11 3.883696 -0.046765 0.431443 -0.051699 -0.018864 -0.672085
    12 1.719570 -0.000004 -0.000001 0.000000 0.000003 -1.477115
    13 1.209171 -0.000002 0.000000 0.000000 0.000004 -1.391310
    14 3.859865 -0.137947 1.332466 0.160078 -0.013795 -0.792663
    15 1.719429 0.000002 -0.000001 0.000000 0.000000 -1.578974
    16 1.099665 0.000000 0.000000 0.000000 0.000000 -1.439614
    17 0.806053 -0.348925 1.321258 -1.297467 -0.379020 -0.751559
    18 1.789780 -0.000002 0.000002 0.000000 0.000000 0.288883
    19 1.207006 0.000000 0.000000 0.000000 0.000000 0.449503
    20 2.033356 1.000772 -1.937610 -0.104119 -0.097955 -1.638025
    21 6.028144 0.000000 0.000000 -0.200264 0.498275 -2.720510
    22 11.692554 0.000001 0.000003 0.000000 0.000000 -1.260671
    23 11.481697 0.000001 0.000002 -1.202518 -0.221954 0.531995
    24 3.859678 -0.132570 1.193109 0.121614 -0.096285 -0.922066
    25 1.312557 -0.000002 0.000001 0.000000 0.000000 -0.614204
    26 0.729365 0.000002 -0.000002 0.000000 0.000000 -1.378700
    27 3.942305 0.050327 0.431044 0.052416 -0.034069 -0.893750
    28 1.539099 -0.000002 0.000000 0.000000 0.000000 -1.033145
    29 1.196321 0.000008 0.000000 0.000000 0.000000 -1.390693
    30 3.883661 -0.050323 -0.431042 0.015688 -0.124349 -0.775366
    31 1.719578 0.000004 0.000000 0.000000 -0.007974 -1.588129
    32 1.209185 0.000002 0.000000 0.000000 -0.004460 -0.914507
    33 3.859838 -0.148937 -1.331282 0.137047 0.112668 -0.145630
    34 1.719423 0.000002 0.000000 0.000000 -0.006613 -0.973817
    35 1.099667 0.000002 0.000000 0.000000 -0.004210 -1.029708
    36 0.806021 -0.359837 -1.318334 1.307341 0.325294 -0.670080
    37 1.789782 0.000000 -0.000004 0.019720 0.080233 0.520342
    38 1.206999 0.000003 0.000002 0.000000 0.000000 0.467622
    39 1.292969 -6.652344 -31.890625 1.570792 0.000003 -0.000003
    40 -8.052810 27.684651 14.046187 -0.004795 0.008437 0.009384
  time 15
    0 1.292969 -2.785156 -12.101563 -1.570781 -1.391896 -1.570809
    1 2.033349 1.000767 1.937660 2.856279 -0.086961 1.424556
    2 6.028141 0.000000 0.000000 -2.143341 -0.112638 -0.475712
    3 11.692554 0.000001 0.000002 0.000000 0.000000 -1.452974
    4 11.481674 0.000001 -0.000032 0.918854 -0.568721 1.182944
    5 3.859709 -0.142404 -1.191975 -0.372602 0.151269 -0.938029
    6 1.312555 -0.000002 0.000001 0.000000 0.000000 -1.267535
    7 0.729363 -0.000002 -0.000002 0.000000 0.000000 -1.156049
    8 3.942335 0.046767 -0.431443 -0.282547 -0.012816 -0.829988
    9 1.539097 0.000000 0.000000 0.000000 0.000000 -1.277064
    10 1.196326 -0.000002 -0.000001 0.000000 0.000000 -1.795954
    11 3.883696 -0.046765 0.431443 -0.051699 -0.018864 -0.672085
    12 1.719570 -0.000004 -0.000001 0.000000 0.000003 -1.477115
    13 1.209171 -0.000002 0.000000 0.000000 0.000004 -1.391274
    14 3.859865 -0.137947 1.332466 0.160078 -0.013795 -0.792663
    15 1.719429 0.000002 -0.000001 0.000000 0.000000 -1.578974
    16 1.099665 0.000000 0.000000 0.000000 0.000000 -1.439614
    17 0.806053 -0.348925 1.321258 -1.297467 -0.379020 -0.751559
    18 1.789780 -0.000002 0.000002 0.000000 0.000000 0.288883
    19 1.207006 0.000000 0.000000 0.000000 0.000000 0.449503
    20 2.033356 1.000772 -1.937610 -0.104119 -0.097955 -1.638025
    21 6.028144 0.000000 0.000000 -0.206256 0.492864 -2.726634
    22 11.692554 0.000001 0.000003 0.000000 0.000000 -1.254080
    23 11.481697 0.000001 0.000002 -1.204245 -0.209174 0.522339
    24 3.859678 -0.132570 1.193109 0.121614 -0.096285 -0.922066
    25 1.312557 -0.000002 0.000001 0.000000 0.000000 -0.614204
    26 0.729365 0.000002 -0.000002 0.000000 0.000000 -1.378700
    27 3.942305 0.050327 0.431044 0.052416 -0.034069 -0.893750
    28 1.539099 -0.000002 0.000000 0.000000 0.000000 -1.033169
    29 1.196321 0.000008 0.000000 0.000000 0.000000 -1.390664
    30 3.883661 -0.050323 -0.431042 0.015688 -0.124349 -0.775366
    31 1.719578 0.000004 0.000000 0.000000 -0.007974 -1.588166
    32 1.209185 0.000002 0.000000 0.000000 -0.004460 -0.914507
    33 3.859838 -0.148937 -1.331282 0.137047 0.112668 -0.145630
    34 1.719423 0.000002 0.000000 0.000000 -0.006613 -0.973817
    35 1.099667 0.000002 0.000000 0.000000 -0.004210 -1.029708
    36 0.806021 -0.359837 -1.318334 1.307341 0.325294 -0.670080
    37 1.789782 0.000000 -0.000004 0.019720 0.080233 0.520342
    38 1.206999 0.000003 0.000002 0.000000 0.000000 0.467622
    39 1.292969 -6.652344 -31.890625 1.570792 0.000003 -0.000003
    40 -7.970776 27.766685 14.089157 -0.015557 0.004890 0.005189
  time 16
    0 1.292969 -2.785156 -12.101563 -1.570781 -1.391896 -1.570809
    1 2.033349 1.000767 1.937660 2.856279 -0.086961 1.424556
    2 6.028141 0.000000 0.000000 -2.137629 -0.108341 -0.463206
    3 11.692554 0.000001 0.000002 0.000000 0.000000 -1.449763
    4 11.481674 0.000001 -0.000032 0.906149 -0.559012 1.182944
    5 3.859709 -0.142404 -1.191975 -0.372602 0.151269 -0.938029
    6 1.312555 -0.000002 0.000001 0.000000 0.000000 -1.267535
    7 0.729363 -0.000002 -0.000002 0.000000 0.000000 -1.156049
    8 3.942335 0.046767 -0.431443 -0.282547 -0.012816 -0.829988
    9 1.539097 0.000000 0.000000 0.000000 0.000000 -1.277064
    10 1.196326 -0.000002 -0.000001 0.000000 0.000000 -1.795954
    11 3.883696 -0.046765 0.431443 -0.051699 -0.018864 -0.672085
    12 1.719570 -0.000004 -0.000001 0.000000 0.000003 -1.477115
    13 1.209171 -0.000002 0.000000 0.000000 0.000004 -1.391274
    14 3.859865 -0.137947 1.332466 0.160078 -0.013795 -0.792663
    15 1.719429 0.000002 -0.000001 0.000000 0.000000 -1.578974
    16 1.099665 0.000000 0.000000 0.000000 0.000000 -1.439614
    17 0.806053 -0.348925 1.321258 -1.297467 -0.379020 -0.751559
    18 1.789780 -0.000002 0.000002 0.000000 0.000000 0.288883
    19 1.207006 0.000000 0.000000 0.000000 0.000000 0.449503
    20 2.033356 1.000772 -1.937610 -0.104119 -0.097955 -1.638025
    21 6.028144 0.000000 0.000000 -0.209889 0.489426 -2.730158
    22 11.692554 0.000001 0.000003 0.000000 0.000000 -1.252142
    23 11.481697 0.000001 0.000002 -1.205817 -0.201490 0.519719
    24 3.859678 -0.132570 1.193109 0.121614 -0.096285 -0.922066
    25 1.312557 -0.000002 0.000001 0.000000 0.000000 -0.614204
    26 0.729365 0.000002 -0.000002 0.000000 0.000000 -1.378700
    27 3.942305 0.050327 0.431044 0.052416 -0.034069 -0.893750
    28 1.539099 -0.000002 0.000000 0.000000 0.000000 -1.033145
    29 1.196321 0.000008 0.000000 0.000000 0.000000 -1.390664
    30 3.883661 -0.050323 -0.431042 0.015688 -0.124349 -0.775366
    31 1.719578 0.000004 0.000000 0.000000 -0.007974 -1.588129
    32 1.209185 0.000002 0.000000 0.000000 -0.004460 -0.914507
    33 3.859838 -0.148937 -1.331282 0.137047 0.112668 -0.145630
    34 1.719423 0.000002 0.000000 0.000000 -0.006613 -0.973817
    35 1.099667 0.000002 0.000000 0.000000 -0.004210 -1.029708
    36 0.806021 -0.359837 -1.318334 1.307341 0.325294 -0.670080
    37 1.789782 0.000000 -0.000004 0.019720 0.080233 0.520342
    38 1.206999 0.000003 0.000002 0.000000 0.000000 0.467622
    39 1.292969 -6.652344 -31.890625 1.570792 0.000003 -0.000003
    40 -7.908274 27.821374 14.108689 -0.020830 0.002013 0.002109
  time 17
    0 1.292969 -2.785156 -12.101563 -1.570781 -1.391896 -1.570809
    1 2.033349 1.000767 1.937660 2.856279 -0.086961 1.424556
    2 6.028141 0.000000 0.000000 -2.134037 -0.104820 -0.456166
    3 11.692554 0.000001 0.000002 0.000000 0.000000 -1.450055
    4 11.481674 0.000001 -0.000032 0.897292 -0.551335 1.186282
    5 3.859709 -0.142404 -1.191975 -0.372602 0.151269 -0.938029
    6 1.312555 -0.000002 0.000001 0.000000 0.000000 -1.267535
    7 0.729363 -0.000002 -0.000002 0.000000 0.000000 -1.156049
    8 3.942335 0.046767 -0.431443 -0.282547 -0.012816 -0.829988
    9 1.539097 0.000000 0.000000 0.000000 0.000000 -1.277064
    10 1.196326 -0.000002 -0.000001 0.000000 0.000000 -1.795954
    11 3.883696 -0.046765 0.431443 -0.051699 -0.018864 -0.672085
    12 1.719570 -0.000004 -0.000001 0.000000 0.000003 -1.477115
    13 1.209171 -0.000002 0.000000 0.000000 0.000004 -1.391274
    14 3.859865 -0.137947 1.332466 0.160078 -0.013795 -0.792663
    15 1.719429 0.000002 -0.000001 0.000000 0.000000 -1.578974
    16 1.099665 0.000000 0.000000 0.000000 0.000000 -1.439614
    17 0.806053 -0.348925 1.321258 -1.297467 -0.379020 -0.751559
    18 1.789780 -0.000002 0.000002 0.000000 0.000000 0.288883
    19 1.207006 0.000000 0.000000 0.000000 0.000000 0.449503
    20 2.033356 1.000772 -1.937610 -0.104119 -0.097955 -1.638025
    21 6.028144 0.000000 0.000000 -0.212247 0.487142 -2.732171
    22 11.692554 0.000001 0.000003 0.000000 0.000000 -1.252206
    23 11.481697 0.000001 0.000002 -1.207279 -0.196211 0.519434
    24 3.859678 -0.132570 1.193109 0.121614 -0.096285 -0.922066
    25 1.312557 -0.000002 0.000001 0.000000 0.000000 -0.614204
    26 0.729365 0.000002 -0.000002 0.000000 0.000000 -1.378700
    27 3.942305 0.050327 0.431044 0.052416 -0.034069 -0.893750
    28 1.539099 -0.000002 0.000000 0.000000 0.000000 -1.033145
    29 1.196321 0.000008 0.000000 0.000000 0.000000 -1.390664
    30 3.883661 -0.050323 -0.431042 0.015688 -0.124349 -0.775366
    31 1.719578 0.000004 0.000000 0.000000 -0.007974 -1.588129
    32 1.209185 0.000002 0.000000 0.000000 -0.004460 -0.914507
    33 3.859838 -0.148937 -1.331282 0.137047 0.112668 -0.145630
    34 1.719423 0.000002 0.000000 0.000000 -0.006613 -0.973817
    35 1.099667 0.000002 0.000000 0.000000 -0.004210 -1.029708
    36 0.806021 -0.359837 -1.318334 1.307341 0.325294 -0.670080
    37 1.789782 0.000000 -0.000004 0.019720 0.080233 0.520342
    38 1.206999 0.000003 0.000002 0.000000 0.000000 0.467622
    39 1.292969 -6.652344 -31.890625 1.570792 0.000003 -0.000003
    40 -7.857491 27.864344 14.116502 -0.021477 0.000000 0.000024
  time 18
    0 1.292969 -2.785156 -12.101563 -1.570781 -1.391896 -1.570809
    1 2.033349 1.000767 1.937660 2.856279 -0.086961 1.424556
    2 6.028141 0.000000 0.000000 -2.131966 -0.101770 -0.452983
    3 11.692554 0.000001 0.000002 0.000000 0.000000 -1.452915
    4 11.481674 0.000001 -0.000032 0.891164 -0.545055 1.192631
    5 3.859709 -0.142404 -1.191975 -0.372602 0.151269 -0.938029
    6 1.312555 -0.000002 0.000001 0.000000 0.000000 -1.267535
    7 0.729363 -0.000002 -0.000002 0.000000 0.000000 -1.156049
    8 3.942335 0.046767 -0.431443 -0.282547 -0.012816 -0.829988
    9 1.539097 0.000000 0.000000 0.000000 0.000000 -1.277064
    10 1.196326 -0.000002 -0.000001 0.000000 0.000000 -1.795954
    11 3.883696 -0.046765 0.431443 -0.051699 -0.018864 -0.672085
    12 1.719570 -0.000004 -0.000001 0.000000 0.000003 -1.477115
    13 1.209171 -0.000002 0.000000 0.000000 0.000004 -1.391274
    14 3.859865 -0.137947 1.332466 0.160078 -0.013795 -0.792663
    15 1.719429 0.000002 -0.000001 0.000000 0.000000 -1.578974
    16 1.099665 0.000000 0.000000 0.000000 0.000000 -1.439614
    17 0.806053 -0.348925 1.321258 -1.297467 -0.379020 -0.751559
    18 1.789780 -0.000002 0.000002 0.000000 0.000000 0.288883
    19 1.207006 0.000000 0.000000 0.000000 0.000000 0.449503
    20 2.033356 1.000772 -1.937610 -0.104119 -0.097955 -1.638025
    21 6.028144 0.000000 0.000000 -0.213076 0.486676 -2.733681
    22 11.692554 0.000001 0.000003 0.000000 0.000000 -1.257117
    23 11.481697 0.000001 0.000002 -1.210933 -0.196864 0.531198
    24 3.859678 -0.132570 1.193109 0.121614 -0.096285 -0.922066
    25 1.312557 -0.000002 0.000001 0.000000 0.000000 -0.614204
    26 0.729365 0.000002 -0.000002 0.000000 0.000000 -1.378735
    27 3.942305 0.050327 0.431044 0.052416 -0.034069 -0.893750
    28 1.539099 -0.000002 0.000000 0.000000 0.000000 -1.033169
    29 1.196321 0.000008 0.000000 0.000000 0.000000 -1.390664
    30 3.883661 -0.050323 -0.431042 0.015688 -0.124349 -0.775366
    31 1.719578 0.000004 0.000000 0.000000 -0.007974 -1.588129
    32 1.209185 0.000002 0.000000 0.000000 -0.004460 -0.914507
    33 3.859838 -0.148937 -1.331282 0.137047 0.112668 -0.145630
    34 1.719423 0.000002 0.000000 0.000000 -0.006613 -0.973817
    35 1.099667 0.000002 0.000000 0.000000 -0.004210 -1.029708
    36 0.806021 -0.359837 -1.318334 1.307341 0.325294 -0.670080
    37 1.789782 0.000000 -0.000004 0.019720 0.080233 0.520342
    38 1.206999 0.000003 0.000002 0.000000 0.000000 0.467622
    39 1.292969 -6.652344 -31.890625 1.570792 0.000003 -0.000003
    40 -7.818427 27.895595 14.112595 -0.018421 -0.001151 -0.001175
  time 19
    0 1.292969 -2.785156 -12.101563 -1.570781 -1.391896 -1.570809
    1 2.033349 1.000767 1.937660 2.856279 -0.086961 1.424556
    2 6.028141 0.000000 0.000000 -2.131018 -0.099192 -0.452437
    3 11.692554 0.000001 0.000002 0.000000 0.000000 -1.457527
    4 11.481674 0.000001 -0.000032 0.887128 -0.539805 1.201220
    5 3.859709 -0.142404 -1.191975 -0.372602 0.151269 -0.938029
    6 1.312555 -0.000002 0.000001 0.000000 0.000000 -1.267535
    7 0.729363 -0.000002 -0.000002 0.000000 0.000000 -1.156049
    8 3.942335 0.046767 -0.431443 -0.282547 -0.012816 -0.829988
    9 1.539097 0.000000 0.000000 0.000000 0.000000 -1.277064
    10 1.196326 -0.000002 -0.000001 0.000000 0.000000 -1.795954
    11 3.883696 -0.046765 0.431443 -0.051699 -0.018864 -0.672085
    12 1.719570 -0.000004 -0.000001 0.000000 0.000003 -1.477115
    13 1.209171 -0.000002 0.000000 0.000000 0.000004 -1.391274
    14 3.859865 -0.137947 1.332466 0.160078 -0.013795 -0.792663
    15 1.719429 0.000002 -0.000001 0.000000 0.000000 -1.578974
    16 1.099665 0.000000 0.000000 0.000000 0.000000 -1.439614
    17 0.806053 -0.348925 1.321258 -1.297467 -0.379020 -0.751559
    18 1.789780 -0.000002 0.000002 0.000000 0.000000 0.288883
    19 1.207006 0.000000 0.000000 0.000000 0.000000 0.449503
    20 2.033356 1.000772 -1.937610 -0.104119 -0.097955 -1.638025
    21 6.028144 0.000000 0.000000 -0.213394 0.486698 -2.734688
    22 11.692554 0.000001 0.000003 0.000000 0.000000 -1.262222
    23 11.481697 0.000001 0.000002 -1.213103 -0.198881 0.542364
    24 3.859678 -0.132570 1.193109 0.121614 -0.096285 -0.922066
    25 1.312557 -0.000002 0.000001 0.000000 0.000000 -0.614204
    26 0.729365 0.000002 -0.000002 0.000000 0.000000 -1.378700
    27 3.942305 0.050327 0.431044 0.052416 -0.034069 -0.893750
    28 1.539099 -0.000002 0.000000 0.000000 0.000000 -1.033145
    29 1.196321 0.000008 0.000000 0.000000 0.000000 -1.390664
    30 3.883661 -0.050323 -0.431042 0.015688 -0.124349 -0.775366
    31 1.719578 0.000004 0.000000 0.000000 -0.007974 -1.588166
    32 1.209185 0.000002 0.000000 0.000000 -0.004460 -0.914507
    33 3.859838 -0.148937 -1.331282 0.137047 0.112668 -0.145630
    34 1.719423 0.000002 0.000000 0.000000 -0.006613 -0.973817
    35 1.099667 0.000002 0.000000 0.000000 -0.004210 -1.029708
    36 0.806021 -0.359837 -1.318334 1.307341 0.325294 -0.670080
    37 1.789782 0.000000 -0.000004 0.019720 0.080233 0.520342
    38 1.206999 0.000003 0.000002 0.000000 0.000000 0.467622
    39 1.292969 -6.652344 -31.890625 1.570792 0.000003 -0.000003
    40 -7.791083 27.922940 14.104783 -0.012764 -0.001678 -0.001666
  time 20
    0 1.292969 -2.785156 -12.101563 -1.570781 -1.391896 -1.570809
    1 2.033349 1.000767 1.937660 2.856279 -0.086961 1.424556
    2 6.028141 0.000000 0.000000 -2.130694 -0.097085 -0.453273
    3 11.692554 0.000001 0.000002 0.000000 0.000000 -1.462898
    4 11.481674 0.000001 -0.000032 0.884550 -0.535618 1.210622
    5 3.859709 -0.142404 -1.191975 -0.372602 0.151269 -0.938029
    6 1.312555 -0.000002 0.000001 0.000000 0.000000 -1.267535
    7 0.729363 -0.000002 -0.000002 0.000000 0.000000 -1.156049
    8 3.942335 0.046767 -0.431443 -0.282547 -0.012816 -0.829988
    9 1.539097 0.000000 0.000000 0.000000 0.000000 -1.277095
    10 1.196326 -0.000002 -0.000001 0.000000 0.000000 -1.795954
    11 3.883696 -0.046765 0.431443 -0.051699 -0.018864 -0.672085
    12 1.719570 -0.000004 -0.000001 0.000000 0.000003 -1.477115
    13 1.209171 -0.000002 0.000000 0.000000 0.000004 -1.391274
    14 3.859865 -0.137947 1.332466 0.160078 -0.013795 -0.792663
    15 1.719429 0.000002 -0.000001 0.000000 0.000000 -1.578974
    16 1.099665 0.000000 0.000000 0.000000 0.000000 -1.439614
    17 0.806053 -0.348925 1.321258 -1.297467 -0.379020 -0.751559
    18 1.789780 -0.000002 0.000002 0.000000 0.000000 0.288883
    19 1.207006 0.000000 0.000000 0.000000 0.000000 0.449503
    20 2.033356 1.000772 -1.937610 -0.104119 -0.097955 -1.638025
    21 6.028144 0.000000 0.000000 -0.213267 0.487297 -2.735443
    22 11.692554 0.000001 0.000003 0.000000 0.000000 -1.267779
    23 11.481697 0.000001 0.000002 -1.215561 -0.202102 0.554584
    24 3.859678 -0.132570 1.193109 0.121614 -0.096285 -0.922066
    25 1.312557 -0.000002 0.000001 0.000000 0.000000 -0.614204
    26 0.729365 0.000002 -0.000002 0.000000 0.000000 -1.378700
    27 3.942305 0.050327 0.431044 0.052416 -0.034069 -0.893750
    28 1.539099 -0.000002 0.000000 0.000000 0.000000 -1.033169
    29 1.196321 0.000008 0.000000 0.000000 0.000000 -1.390664
    30 3.883661 -0.050323 -0.431042 0.015688 -0.124349 -0.775366
    31 1.719578 0.000004 0.000000 0.000000 -0.007974 -1.588129
    32 1.209185 0.000002 0.000000 0.000000 -0.004460 -0.914507
    33 3.859838 -0.148937 -1.331282 0.137047 0.112668 -0.145630
    34 1.719423 0.000002 0.000000 0.000000 -0.006613 -0.973817
    35 1.099667 0.000002 0.000000 0.000000 -0.004210 -1.029708
    36 0.806021 -0.359837 -1.318334 1.307341 0.325294 -0.670080
    37 1.789782 0.000000 -0.000004 0.019720 0.080233 0.520342
    38 1.206999 0.000003 0.000002 0.000000 0.000000 0.467622
    39 1.292969 -6.652344 -31.890625 1.570792 0.000003 -0.000003
    40 -7.771551 27.950284 14.093064 -0.006245 -0.001630 -0.001594
  time 21
    0 1.292969 -2.785156 -12.101563 -1.570781 -1.391896 -1.570809
    1 2.033349 1.000767 1.937660 2.856279 -0.086961 1.424556
    2 6.028141 0.000000 0.000000 -2.130170 -0.095532 -0.453080
    3 11.692554 0.000001 0.000002 0.000000 0.000000 -1.467043
    4 11.481674 0.000001 -0.000032 0.882718 -0.532948 1.217623
    5 3.859709 -0.142404 -1.191975 -0.372602 0.151269 -0.938029
    6 1.312555 -0.000002 0.000001 0.000000 0.000000 -1.267535
    7 0.729363 -0.000002 -0.000002 0.000000 0.000000 -1.156049
    8 3.942335 0.046767 -0.431443 -0.282547 -0.012816 -0.829988
    9 1.539097 0.000000 0.000000 0.000000 0.000000 -1.277064
    10 1.196326 -0.000002 -0.000001 0.000000 0.000000 -1.795954
    11 3.883696 -0.046765 0.431443 -0.051699 -0.018864 -0.672085
    12 1.719570 -0.000004 -0.000001 0.000000 0.000003 -1.477115
    13 1.209171 -0.000002 0.000000 0.000000 0.000004 -1.391274
    14 3.859865 -0.137947 1.332466 0.160078 -0.013795 -0.792663
    15 1.719429 0.000002 -0.000001 0.000000 0.000000 -1.578974
    16 1.099665 0.000000 0.000000 0.000000 0.000000 -1.439614
    17 0.806053 -0.348925 1.321258 -1.297467 -0.379020 -0.751559
    18 1.789780 -0.000002 0.000002 0.000000 0.000000 0.288883
    19 1.207006 0.000000 0.000000 0.000000 0.000000 0.449503
    20 2.033356 1.000772 -1.937610 -0.104119 -0.097955 -1.638025
    21 6.028144 0.000000 0.000000 -0.213012 0.487874 -2.735862
    22 11.692554 0.000001 0.000003 0.000000 0.000000 -1.272237
    23 11.481697 0.000001 0.000002 -1.216424 -0.204507 0.562531
    24 3.859678 -0.132570 1.193109 0.121614 -0.096285 -0.922066
    25 1.312557 -0.000002 0.000001 0.000000 0.000000 -0.614204
    26 0.729365 0.000002 -0.000002 0.000000 0.000000 -1.378700
    27 3.942305 0.050327 0.431044 0.052416 -0.034069 -0.893750
    28 1.539099 -0.000002 0.000000 0.000000 0.000000 -1.033169
    29 1.196321 0.000008 0.000000 0.000000 0.000000 -1.390664
    30 3.883661 -0.050323 -0.431042 0.015688 -0.124349 -0.775366
    31 1.719578 0.000004 0.000000 0.000000 -0.007974 -1.588166
    32 1.209185 0.000002 0.000000 0.000000 -0.004460 -0.914507
    33 3.859838 -0.148937 -1.331282 0.137047 0.112668 -0.145630
    34 1.719423 0.000002 0.000000 0.000000 -0.006613 -0.973817
    35 1.099667 0.000002 0.000000 0.000000 -0.004210 -1.029708
    36 0.806021 -0.359837 -1.318334 1.307341 0.325294 -0.670080
    37 1.789782 0.000000 -0.000004 0.019720 0.080233 0.520342
    38 1.206999 0.000003 0.000002 0.000000 0.000000 0.467622
    39 1.292969 -6.652344 -31.890625 1.570792 0.000003 -0.000003
    40 -7.755926 27.973722 14.077438 -0.002565 -0.001199 -0.001187
  time 22
    0 1.292969 -2.785156 -12.101563 -1.570781 -1.391896 -1.570809
    1 2.033349 1.000767 1.937660 2.856279 -0.086961 1.424556
    2 6.028141 0.000000 0.000000 -2.129447 -0.094700 -0.451794
    3 11.692554 0.000001 0.000002 0.000000 0.000000 -1.469670
    4 11.481674 0.000001 -0.000032 0.881523 -0.531643 1.222019
    5 3.859709 -0.142404 -1.191975 -0.372602 0.151269 -0.938029
    6 1.312555 -0.000002 0.000001 0.000000 0.000000 -1.267535
    7 0.729363 -0.000002 -0.000002 0.000000 0.000000 -1.156049
    8 3.942335 0.046767 -0.431443 -0.282547 -0.012816 -0.829988
    9 1.539097 0.000000 0.000000 0.000000 0.000000 -1.277064
    10 1.196326 -0.000002 -0.000001 0.000000 0.000000 -1.795954
    11 3.883696 -0.046765 0.431443 -0.051699 -0.018864 -0.672085
    12 1.719570 -0.000004 -0.000001 0.000000 0.000003 -1.477115
    13 1.209171 -0.000002 0.000000 0.000000 0.000004 -1.391274
    14 3.859865 -0.137947 1.332466 0.160078 -0.013795 -0.792663
    15 1.719429 0.000002 -0.000001 0.000000 0.000000 -1.578974
    16 1.099665 0.000000 0.000000 0.000000 0.000000 -1.439614
    17 0.806053 -0.348925 1.321258 -1.297454 -0.379020 -0.751559
    18 1.789780 -0.000002 0.000002 0.000000 0.000000 0.288883
    19 1.207006 0.000000 0.000000 0.000000 0.000000 0.449503
    20 2.033356 1.000772 -1.937610 -0.104119 -0.097955 -1.638025
    21 6.028144 0.000000 0.000000 -0.212630 0.488450 -2.736030
    22 11.692554 0.000001 0.000003 0.000000 0.000000 -1.274757
    23 11.481697 0.000001 0.000002 -1.215694 -0.206362 0.565978
    24 3.859678 -0.132570 1.193109 0.121614 -0.096285 -0.922066
    25 1.312557 -0.000002 0.000001 0.000000 0.000000 -0.614204
    26 0.729365 0.000002 -0.000002 0.000000 0.000000 -1.378700
    27 3.942305 0.050327 0.431044 0.052416 -0.034069 -0.893750
    28 1.539099 -0.000002 0.000000 0.000000 0.000000 -1.033169
    29 1.196321 0.000008 0.000000 0.000000 0.000000 -1.390664
    30 3.883661 -0.050323 -0.431042 0.015688 -0.124349 -0.775366
    31 1.719578 0.000004 0.000000 0.000000 -0.007974 -1.588129
    32 1.209185 0.000002 0.000000 0.000000 -0.004460 -0.914507
    33 3.859838 -0.148937 -1.331282 0.137047 0.112668 -0.145630
    34 1.719423 0.000002 0.000000 0.000000 -0.006613 -0.973817
    35 1.099667 0.000002 0.000000 0.000000 -0.004210 -1.029708
    36 0.806021 -0.359837 -1.318334 1.307341 0.325294 -0.670080
    37 1.789782 0.000000 -0.000004 0.019720 0.080233 0.520342
    38 1.206999 0.000003 0.000002 0.000000 0.000000 0.467622
    39 1.292969 -6.652344 -31.890625 1.570792 0.000003 -0.000003
    40 -7.752019 27.993254 14.061813 -0.001715 -0.000623 -0.000623
  time 23
    0 1.292969 -2.785156 -12.101563 -1.570781 -1.391896 -1.570809
    1 2.033349 1.000767 1.937660 2.856279 -0.086961 1.424556
    2 6.028141 0.000000 0.000000 -2.129123 -0.094673 -0.450894
    3 11.692554 0.000001 0.000002 0.000000 0.000000 -1.471831
    4 11.481674 0.000001 -0.000032 0.881112 -0.531219 1.225520
    5 3.859709 -0.142404 -1.191975 -0.372602 0.151269 -0.938029
    6 1.312555 -0.000002 0.000001 0.000000 0.000000 -1.267535
    7 0.729363 -0.000002 -0.000002 0.000000 0.000000 -1.156049
    8 3.942335 0.046767 -0.431443 -0.282547 -0.012816 -0.829988
    9 1.539097 0.000000 0.000000 0.000000 0.000000 -1.277064
    10 1.196326 -0.000002 -0.000001 0.000000 0.000000 -1.795954
    11 3.883696 -0.046765 0.431443 -0.051699 -0.018864 -0.672085
    12 1.719570 -0.000004 -0.000001 0.000000 0.000003 -1.477115
    13 1.209171 -0.000002 0.000000 0.000000 0.000004 -1.391274
    14 3.859865 -0.137947 1.332466 0.160078 -0.013795 -0.792663
    15 1.719429 0.000002 -0.000001 0.000000 0.000000 -1.578974
    16 1.099665 0.000000 0.000000 0.000000 0.000000 -1.439614
    17 0.806053 -0.348925 1.321258 -1.297467 -0.379020 -0.751559
    18 1.789780 -0.000002 0.000002 0.000000 0.000000 0.288883
    19 1.207006 0.000000 0.000000 0.000000 0.000000 0.449503
    20 2.033356 1.000772 -1.937610 -0.104119 -0.097955 -1.638025
    21 6.028144 0.000000 0.000000 -0.212056 0.489360 -2.736198
    22 11.692554 0.000001 0.000003 0.000000 0.000000 -1.277665
    23 11.481697 0.000001 0.000002 -1.215472 -0.208379 0.569738
    24 3.859678 -0.132570 1.193109 0.121614 -0.096285 -0.922066
    25 1.312557 -0.000002 0.000001 0.000000 0.000000 -0.614204
    26 0.729365 0.000002 -0.000002 0.000000 0.000000 -1.378700
    27 3.942305 0.050327 0.431044 0.052416 -0.034069 -0.893750
    28 1.539099 -0.000002 0.000000 0.000000 0.000000 -1.033145
    29 1.196321 0.000008 0.000000 0.000000 0.000000 -1.390693
    30 3.883661 -0.050323 -0.431042 0.015688 -0.124349 -0.775366
    31 1.719578 0.000004 0.000000 0.000000 -0.007974 -1.588129
    32 1.209185 0.000002 0.000000 0.000000 -0.004460 -0.914507
    33 3.859838 -0.148937 -1.331282 0.137047 0.112668 -0.145630
    34 1.719423 0.000002 0.000000 0.000000 -0.006613 -0.973835
    35 1.099667 0.000002 0.000000 0.000000 -0.004210 -1.029708
    36 0.806021 -0.359837 -1.318334 1.307341 0.325294 -0.670080
    37 1.789782 0.000000 -0.000004 0.019720 0.080233 0.520342
    38 1.206999 0.000003 0.000002 0.000000 0.000000 0.467622
    39 1.292969 -6.652344 -31.890625 1.570792 0.000003 -0.000003
    40 -7.752019 28.016692 14.038374 -0.001379 -0.000096 -0.000120
  time 24
    0 1.292969 -2.785156 -12.101563 -1.570781 -1.391896 -1.570809
    1 2.033349 1.000767 1.937660 2.856279 -0.086961 1.424556
    2 6.028141 0.000000 0.000000 -2.129447 -0.095671 -0.451022
    3 11.692554 0.000001 0.000002 0.000000 0.000000 -1.473699
    4 11.481674 0.000001 -0.000032 0.881635 -0.531492 1.228735
    5 3.859709 -0.142404 -1.191975 -0.372602 0.151269 -0.938029
    6 1.312555 -0.000002 0.000001 0.000000 0.000000 -1.267560
    7 0.729363 -0.000002 -0.000002 0.000000 0.000000 -1.156049
    8 3.942335 0.046767 -0.431443 -0.282547 -0.012816 -0.829988
    9 1.539097 0.000000 0.000000 0.000000 0.000000 -1.277095
    10 1.196326 -0.000002 -0.000001 0.000000 0.000000 -1.795954
    11 3.883696 -0.046765 0.431443 -0.051699 -0.018864 -0.672085
    12 1.719570 -0.000004 -0.000001 0.000000 0.000003 -1.477115
    13 1.209171 -0.000002 0.000000 0.000000 0.000004 -1.391274
    14 3.859865 -0.137947 1.332466 0.160078 -0.013795 -0.792663
    15 1.719429 0.000002 -0.000001 0.000000 0.000000 -1.578974
    16 1.099665 0.000000 0.000000 0.000000 0.000000 -1.439614
    17 0.806053 -0.348925 1.321258 -1.297467 -0.379020 -0.751559
    18 1.789780 -0.000002 0.000002 0.000000 0.000000 0.288883
    19 1.207006 0.000000 0.000000 0.000000 0.000000 0.449503
    20 2.033356 1.000772 -1.937610 -0.104119 -0.097955 -1.638025
    21 6.028144 0.000000 0.000000 -0.211291 0.490358 -2.736114
    22 11.692554 0.000001 0.000003 0.000000 0.000000 -1.279733
    23 11.481697 0.000001 0.000002 -1.215295 -0.209480 0.571333
    24 3.859678 -0.132570 1.193109 0.121614 -0.096285 -0.922066
    25 1.312557 -0.000002 0.000001 0.000000 0.000000 -0.614204
    26 0.729365 0.000002 -0.000002 0.000000 0.000000 -1.378735
    27 3.942305 0.050327 0.431044 0.052416 -0.034069 -0.893750
    28 1.539099 -0.000002 0.000000 0.000000 0.000000 -1.033145
    29 1.196321 0.000008 0.000000 0.000000 0.000000 -1.390664
    30 3.883661 -0.050323 -0.431042 0.015688 -0.124349 -0.775366
    31 1.719578 0.000004 0.000000 0.000000 -0.007974 -1.588129
    32 1.209185 0.000002 0.000000 0.000000 -0.004460 -0.914507
    33 3.859838 -0.148937 -1.331282 0.137047 0.112668 -0.145630
    34 1.719423 0.000002 0.000000 0.000000 -0.006613 -0.973817
    35 1.099667 0.000002 0.000000 0.000000 -0.004210 -1.029708
    36 0.806021 -0.359837 -1.318334 1.307341 0.325294 -0.670080
    37 1.789782 0.000000 -0.000004 0.019720 0.080233 0.520342
    38 1.206999 0.000003 0.000002 0.000000 0.000000 0.467622
    39 1.292969 -6.652344 -31.890625 1.570792 0.000003 -0.000003
    40 -7.759832 28.040131 14.014936 -0.000600 0.000096 0.000132
  time 25
    0 1.292969 -2.785156 -12.101563 -1.570781 -1.391896 -1.570809
    1 2.033349 1.000767 1.937660 2.856279 -0.086961 1.424556
    2 6.028141 0.000000 0.000000 -2.130370 -0.097778 -0.451826
    3 11.692554 0.000001 0.000002 0.000000 0.000000 -1.474983
    4 11.481674 0.000001 -0.000032 0.882943 -0.532523 1.231014
    5 3.859709 -0.142404 -1.191975 -0.372602 0.151269 -0.938029
    6 1.312555 -0.000002 0.000001 0.000000 0.000000 -1.267535
    7 0.729363 -0.000002 -0.000002 0.000000 0.000000 -1.156049
    8 3.942335 0.046767 -0.431443 -0.282547 -0.012816 -0.829988
    9 1.539097 0.000000 0.000000 0.000000 0.000000 -1.277064
    10 1.196326 -0.000002 -0.000001 0.000000 0.000000 -1.795954
    11 3.883696 -0.046765 0.431443 -0.051699 -0.018864 -0.672085
    12 1.719570 -0.000004 -0.000001 0.000000 0.000003 -1.477115
    13 1.209171 -0.000002 0.000000 0.000000 0.000004 -1.391274
    14 3.859865 -0.137947 1.332466 0.160078 -0.013795 -0.792663
    15 1.719429 0.000002 -0.000001 0.000000 0.000000 -1.578974
    16 1.099665 0.000000 0.000000 0.000000 0.000000 -1.439614
    17 0.806053 -0.348925 1.321258 -1.297467 -0.379020 -0.751559
    18 1.789780 -0.000002 0.000002 0.000000 0.000000 0.288883
    19 1.207006 0.000000 0.000000 0.000000 0.000000 0.449503
    20 2.033356 1.000772 -1.937610 -0.104119 -0.097955 -1.638025
    21 6.028144 0.000000 0.000000 -0.210271 0.491799 -2.736282
    22 11.692554 0.000001 0.000003 0.000000 0.000000 -1.282059
    23 11.481697 0.000001 0.000002 -1.215273 -0.211641 0.574096
    24 3.859678 -0.132570 1.193109 0.121614 -0.096285 -0.922066
    25 1.312557 -0.000002 0.000001 0.000000 0.000000 -0.614204
    26 0.729365 0.000002 -0.000002 0.000000 0.000000 -1.378700
    27 3.942305 0.050327 0.431044 0.052416 -0.034069 -0.893750
    28 1.539099 -0.000002 0.000000 0.000000 0.000000 -1.033145
    29 1.196321 0.000008 0.000000 0.000000 0.000000 -1.390664
    30 3.883661 -0.050323 -0.431042 0.015688 -0.124349 -0.775366
    31 1.719578 0.000004 0.000000 0.000000 -0.007974 -1.588129
    32 1.209185 0.000002 0.000000 0.000000 -0.004460 -0.914507
    33 3.859838 -0.148937 -1.331282 0.137047 0.112668 -0.145630
    34 1.719423 0.000002 0.000000 0.000000 -0.006613 -0.973817
    35 1.099667 0.000002 0.000000 0.000000 -0.004210 -1.029708
    36 0.806021 -0.359837 -1.318334 1.307341 0.325294 -0.670080
    37 1.789782 0.000000 -0.000004 0.019720 0.080233 0.520342
    38 1.206999 0.000003 0.000002 0.000000 0.000000 0.467622
    39 1.292969 -6.652344 -31.890625 1.570792 0.000003 -0.000003
    40 -7.775457 28.059662 13.991498 -0.000001 0.000000 0.000000
end
