// Created by Crowbar 0.74
version 1
nodes
  0 "ValveBiped.Bip01_Spine4" -1
  1 "ValveBiped.Bip01_L_Clavicle" 0
  2 "ValveBiped.Bip01_L_UpperArm" 1
  3 "ValveBiped.Bip01_L_Forearm" 2
  4 "ValveBiped.Bip01_L_Hand" 3
  5 "ValveBiped.Bip01_L_Finger4" 4
  6 "ValveBiped.Bip01_L_Finger41" 5
  7 "ValveBiped.Bip01_L_Finger42" 6
  8 "ValveBiped.Bip01_L_Finger3" 4
  9 "ValveBiped.Bip01_L_Finger31" 8
  10 "ValveBiped.Bip01_L_Finger32" 9
  11 "ValveBiped.Bip01_L_Finger2" 4
  12 "ValveBiped.Bip01_L_Finger21" 11
  13 "ValveBiped.Bip01_L_Finger22" 12
  14 "ValveBiped.Bip01_L_Finger1" 4
  15 "ValveBiped.Bip01_L_Finger11" 14
  16 "ValveBiped.Bip01_L_Finger12" 15
  17 "ValveBiped.Bip01_L_Finger0" 4
  18 "ValveBiped.Bip01_L_Finger01" 17
  19 "ValveBiped.Bip01_L_Finger02" 18
  20 "ValveBiped.Bip01_R_Clavicle" 0
  21 "ValveBiped.Bip01_R_UpperArm" 20
  22 "ValveBiped.Bip01_R_Forearm" 21
  23 "ValveBiped.Bip01_R_Hand" 22
  24 "ValveBiped.Bip01_R_Finger4" 23
  25 "ValveBiped.Bip01_R_Finger41" 24
  26 "ValveBiped.Bip01_R_Finger42" 25
  27 "ValveBiped.Bip01_R_Finger3" 23
  28 "ValveBiped.Bip01_R_Finger31" 27
  29 "ValveBiped.Bip01_R_Finger32" 28
  30 "ValveBiped.Bip01_R_Finger2" 23
  31 "ValveBiped.Bip01_R_Finger21" 30
  32 "ValveBiped.Bip01_R_Finger22" 31
  33 "ValveBiped.Bip01_R_Finger1" 23
  34 "ValveBiped.Bip01_R_Finger11" 33
  35 "ValveBiped.Bip01_R_Finger12" 34
  36 "ValveBiped.Bip01_R_Finger0" 23
  37 "ValveBiped.Bip01_R_Finger01" 36
  38 "ValveBiped.Bip01_R_Finger02" 37
  39 "ValveBiped.Bip01" -1
  40 "ValveBiped.base" 39
end
skeleton
  time 0
    0 1.292969 -54.375000 -69.250000 -1.570795 0.178895 -1.570796
    1 2.033349 1.000767 1.937660 2.856279 -0.086961 1.424556
    2 6.028141 0.000000 0.000000 -2.130370 -0.097778 -0.451826
    3 11.692554 0.000001 0.000002 0.000000 0.000000 -1.474983
    4 11.481674 0.000001 -0.000032 0.882943 -0.532523 1.231014
    5 3.859709 -0.142404 -1.191975 -0.372602 0.151269 -0.938029
    6 1.312555 -0.000002 0.000001 0.000000 0.000000 -1.267558
    7 0.729363 -0.000002 -0.000002 0.000000 0.000000 -1.156049
    8 3.942335 0.046767 -0.431443 -0.282547 -0.012816 -0.829988
    9 1.539097 0.000000 0.000000 0.000000 0.000000 -1.277093
    10 1.196326 -0.000002 -0.000001 0.000000 0.000000 -1.795954
    11 3.883696 -0.046765 0.431443 -0.051699 -0.018864 -0.672085
    12 1.719570 -0.000004 -0.000001 0.000000 0.000000 -1.477147
    13 1.209171 -0.000002 0.000000 0.000000 0.000004 -1.391274
    14 3.859865 -0.137947 1.332466 0.160078 -0.013795 -0.792663
    15 1.719429 0.000002 -0.000001 0.000000 0.000000 -1.578974
    16 1.099665 0.000000 0.000000 0.000000 0.000000 -1.439614
    17 0.806053 -0.348925 1.321258 -1.297464 -0.379014 -0.751547
    18 1.789780 -0.000002 0.000002 0.000000 0.000000 0.288883
    19 1.207006 0.000000 0.000000 0.000000 0.000000 0.449501
    20 -59.937500 -49.093750 -1.937500 -0.104116 -0.097959 3.074282
    21 6.028144 0.000000 0.000000 -0.210335 0.491799 -2.736282
    22 11.692554 0.000001 0.000003 0.000000 0.000000 -1.282059
    23 11.481697 0.000001 0.000002 -1.215450 -0.211743 0.574409
    24 3.859678 -0.132570 1.193109 0.121614 -0.096285 -0.922066
    25 1.312557 -0.000002 0.000001 0.000000 0.000000 -0.614204
    26 0.729365 0.000002 -0.000002 0.000000 0.000000 -1.378732
    27 3.942305 0.050327 0.431044 0.052412 -0.034057 -0.893759
    28 1.539099 -0.000002 0.000000 0.000000 0.000000 -1.033169
    29 1.196321 0.000008 0.000000 0.000000 0.000000 -1.390690
    30 3.883661 -0.050323 -0.431042 0.015688 -0.124349 -0.775366
    31 1.719578 0.000004 0.000000 0.000000 -0.007974 -1.588166
    32 1.209185 0.000002 0.000000 0.000000 -0.004460 -0.914507
    33 3.859838 -0.148937 -1.331282 0.137062 0.112673 -0.145626
    34 1.719423 0.000002 0.000000 0.000000 -0.006612 -0.973834
    35 1.099667 0.000002 0.000000 0.000000 -0.004210 -1.029708
    36 0.806021 -0.359837 -1.318334 1.307340 0.325303 -0.670093
    37 1.789782 0.000000 -0.000004 0.019720 0.080233 0.520342
    38 1.206999 0.000003 0.000002 0.000000 0.000000 0.467622
    39 1.292969 -34.593750 -73.125000 3.139864 0.001728 -0.000001
    40 -7.775457 28.059662 13.991498 -0.000001 0.000000 0.000000
  time 1
    0 1.292969 -54.375000 -69.250000 -1.570795 0.178895 -1.570796
    1 2.033349 1.000767 1.937660 2.856279 -0.086961 1.424556
    2 6.028141 0.000000 0.000000 -2.130894 -0.098720 -0.452469
    3 11.692554 0.000001 0.000002 0.000000 0.000000 -1.474224
    4 11.481674 0.000001 -0.000032 0.882943 -0.532432 1.229671
    5 3.859709 -0.142404 -1.191975 -0.372602 0.151269 -0.938029
    6 1.312555 -0.000002 0.000001 0.000000 0.000000 -1.267558
    7 0.729363 -0.000002 -0.000002 0.000000 0.000000 -1.156049
    8 3.942335 0.046767 -0.431443 -0.282547 -0.012816 -0.829988
    9 1.539097 0.000000 0.000000 0.000000 0.000000 -1.277093
    10 1.196326 -0.000002 -0.000001 0.000000 0.000000 -1.795954
    11 3.883696 -0.046765 0.431443 -0.051699 -0.018864 -0.672085
    12 1.719570 -0.000004 -0.000001 0.000000 0.000000 -1.477147
    13 1.209171 -0.000002 0.000000 0.000000 0.000004 -1.391274
    14 3.859865 -0.137947 1.332466 0.160078 -0.013795 -0.792663
    15 1.719429 0.000002 -0.000001 0.000000 0.000000 -1.578974
    16 1.099665 0.000000 0.000000 0.000000 0.000000 -1.439614
    17 0.806053 -0.348925 1.321258 -1.297464 -0.379014 -0.751547
    18 1.789780 -0.000002 0.000002 0.000000 0.000000 0.288883
    19 1.207006 0.000000 0.000000 0.000000 0.000000 0.449501
    20 -59.937500 -49.093750 -1.937500 -0.104116 -0.097959 3.074282
    21 6.028144 0.000000 0.000000 -0.210335 0.491733 -2.736198
    22 11.692554 0.000001 0.000003 0.000000 0.000000 -1.282447
    23 11.481697 0.000001 0.000002 -1.216624 -0.210520 0.574751
    24 3.859678 -0.132570 1.193109 0.121614 -0.096285 -0.922066
    25 1.312557 -0.000002 0.000001 0.000000 0.000000 -0.614204
    26 0.729365 0.000002 -0.000002 0.000000 0.000000 -1.378732
    27 3.942305 0.050327 0.431044 0.052412 -0.034057 -0.893759
    28 1.539099 -0.000002 0.000000 0.000000 0.000000 -1.033145
    29 1.196321 0.000008 0.000000 0.000000 0.000000 -1.390690
    30 3.883661 -0.050323 -0.431042 0.015688 -0.124349 -0.775366
    31 1.719578 0.000004 0.000000 0.000000 -0.007974 -1.588166
    32 1.209185 0.000002 0.000000 0.000000 -0.004460 -0.914507
    33 3.859838 -0.148937 -1.331282 0.137062 0.112673 -0.145626
    34 1.719423 0.000002 0.000000 0.000000 -0.006612 -0.973834
    35 1.099667 0.000002 0.000000 0.000000 -0.004210 -1.029708
    36 0.806021 -0.359837 -1.318334 1.307340 0.325303 -0.670093
    37 1.789782 0.000000 -0.000004 0.019720 0.080233 0.520342
    38 1.206999 0.000003 0.000002 0.000000 0.000000 0.467622
    39 1.292969 -34.593750 -73.125000 3.139864 0.001728 -0.000001
    40 -7.775457 28.059662 13.991498 -0.000001 -0.001151 -0.001163
  time 2
    0 1.292969 -54.375000 -69.250000 -1.570795 0.178895 -1.570796
    1 2.033349 1.000767 1.937660 2.856279 -0.086961 1.424556
    2 6.028141 0.000000 0.000000 -2.130395 -0.097833 -0.451858
    3 11.692554 0.000001 0.000002 0.000000 0.000000 -1.474925
    4 11.481674 0.000001 -0.000032 0.882943 -0.532523 1.230933
    5 3.859709 -0.142404 -1.191975 -0.372602 0.151269 -0.938029
    6 1.312555 -0.000002 0.000001 0.000000 0.000000 -1.267558
    7 0.729363 -0.000002 -0.000002 0.000000 0.000000 -1.156049
    8 3.942335 0.046767 -0.431443 -0.282547 -0.012816 -0.829988
    9 1.539097 0.000000 0.000000 0.000000 0.000000 -1.277093
    10 1.196326 -0.000002 -0.000001 0.000000 0.000000 -1.795954
    11 3.883696 -0.046765 0.431443 -0.051699 -0.018864 -0.672085
    12 1.719570 -0.000004 -0.000001 0.000000 0.000000 -1.477147
    13 1.209171 -0.000002 0.000000 0.000000 0.000004 -1.391310
    14 3.859865 -0.137947 1.332466 0.160078 -0.013795 -0.792663
    15 1.719429 0.000002 -0.000001 0.000000 0.000000 -1.578974
    16 1.099665 0.000000 0.000000 0.000000 0.000000 -1.439614
    17 0.806053 -0.348925 1.321258 -1.297464 -0.379014 -0.751547
    18 1.789780 -0.000002 0.000002 0.000000 0.000000 0.288883
    19 1.207006 0.000000 0.000000 0.000000 0.000000 0.449501
    20 -59.937500 -49.093750 -1.937500 -0.104116 -0.097959 3.074282
    21 6.028144 0.000000 0.000000 -0.210399 0.491644 -2.736198
    22 11.692554 0.000001 0.000003 0.000000 0.000000 -1.281800
    23 11.481697 0.000001 0.000002 -1.215561 -0.210968 0.573242
    24 3.859678 -0.132570 1.193109 0.121614 -0.096285 -0.922066
    25 1.312557 -0.000002 0.000001 0.000000 0.000000 -0.614204
    26 0.729365 0.000002 -0.000002 0.000000 0.000000 -1.378732
    27 3.942305 0.050327 0.431044 0.052412 -0.034057 -0.893759
    28 1.539099 -0.000002 0.000000 0.000000 0.000000 -1.033145
    29 1.196321 0.000008 0.000000 0.000000 0.000000 -1.390690
    30 3.883661 -0.050323 -0.431042 0.015688 -0.124349 -0.775366
    31 1.719578 0.000004 0.000000 0.000000 -0.007974 -1.588129
    32 1.209185 0.000002 0.000000 0.000000 -0.004460 -0.914507
    33 3.859838 -0.148937 -1.331282 0.137062 0.112673 -0.145626
    34 1.719423 0.000002 0.000000 0.000000 -0.006612 -0.973834
    35 1.099667 0.000002 0.000000 0.000000 -0.004210 -1.029708
    36 0.806021 -0.359837 -1.318334 1.307340 0.325303 -0.670093
    37 1.789782 0.000000 -0.000004 0.019720 0.080233 0.520342
    38 1.206999 0.000003 0.000002 0.000000 0.000000 0.467622
    39 1.292969 -34.593750 -73.125000 3.139864 0.001728 -0.000001
    40 -7.775457 28.059662 13.991498 -0.000001 -0.000048 -0.000048
  time 3
    0 1.292969 -54.375000 -69.250000 -1.570795 0.178895 -1.570796
    1 2.033349 1.000767 1.937660 2.856279 -0.086961 1.424556
    2 6.028141 0.000000 0.000000 -2.130320 -0.097694 -0.451794
    3 11.692554 0.000001 0.000002 0.000000 0.000000 -1.474983
    4 11.481674 0.000001 -0.000032 0.882943 -0.532523 1.231096
    5 3.859709 -0.142404 -1.191975 -0.372602 0.151269 -0.938029
    6 1.312555 -0.000002 0.000001 0.000000 0.000000 -1.267558
    7 0.729363 -0.000002 -0.000002 0.000000 0.000000 -1.156049
    8 3.942335 0.046767 -0.431443 -0.282547 -0.012816 -0.829988
    9 1.539097 0.000000 0.000000 0.000000 0.000000 -1.277093
    10 1.196326 -0.000002 -0.000001 0.000000 0.000000 -1.795954
    11 3.883696 -0.046765 0.431443 -0.051699 -0.018864 -0.672085
    12 1.719570 -0.000004 -0.000001 0.000000 0.000000 -1.477147
    13 1.209171 -0.000002 0.000000 0.000000 0.000004 -1.391310
    14 3.859865 -0.137947 1.332466 0.160078 -0.013795 -0.792663
    15 1.719429 0.000002 -0.000001 0.000000 0.000000 -1.578974
    16 1.099665 0.000000 0.000000 0.000000 0.000000 -1.439614
    17 0.806053 -0.348925 1.321258 -1.297464 -0.379014 -0.751547
    18 1.789780 -0.000002 0.000002 0.000000 0.000000 0.288883
    19 1.207006 0.000000 0.000000 0.000000 0.000000 0.449501
    20 -59.937500 -49.093750 -1.937500 -0.104116 -0.097959 3.074282
    21 6.028144 0.000000 0.000000 -0.210271 0.491799 -2.736282
    22 11.692554 0.000001 0.000003 0.000000 0.000000 -1.282059
    23 11.481697 0.000001 0.000002 -1.215051 -0.211457 0.573498
    24 3.859678 -0.132570 1.193109 0.121614 -0.096285 -0.922066
    25 1.312557 -0.000002 0.000001 0.000000 0.000000 -0.614204
    26 0.729365 0.000002 -0.000002 0.000000 0.000000 -1.378732
    27 3.942305 0.050327 0.431044 0.052412 -0.034057 -0.893759
    28 1.539099 -0.000002 0.000000 0.000000 0.000000 -1.033169
    29 1.196321 0.000008 0.000000 0.000000 0.000000 -1.390690
    30 3.883661 -0.050323 -0.431042 0.015688 -0.124349 -0.775366
    31 1.719578 0.000004 0.000000 0.000000 -0.007974 -1.588129
    32 1.209185 0.000002 0.000000 0.000000 -0.004460 -0.914507
    33 3.859838 -0.148937 -1.331282 0.137062 0.112673 -0.145626
    34 1.719423 0.000002 0.000000 0.000000 -0.006612 -0.973834
    35 1.099667 0.000002 0.000000 0.000000 -0.004210 -1.029708
    36 0.806021 -0.359837 -1.318334 1.307340 0.325303 -0.670093
    37 1.789782 0.000000 -0.000004 0.019720 0.080233 0.520342
    38 1.206999 0.000003 0.000002 0.000000 0.000000 0.467622
    39 1.292969 -34.593750 -73.125000 3.139864 0.001728 -0.000001
    40 -7.775457 28.059662 13.991498 -0.000001 0.000048 0.000084
  time 4
    0 1.292969 -54.375000 -69.250000 -1.570795 0.178895 -1.570796
    1 2.033349 1.000767 1.937660 2.856279 -0.086961 1.424556
    2 6.028141 0.000000 0.000000 -2.130320 -0.097694 -0.451794
    3 11.692554 0.000001 0.000002 0.000000 0.000000 -1.474983
    4 11.481674 0.000001 -0.000032 0.882943 -0.532523 1.231096
    5 3.859709 -0.142404 -1.191975 -0.372602 0.151269 -0.938029
    6 1.312555 -0.000002 0.000001 0.000000 0.000000 -1.267558
    7 0.729363 -0.000002 -0.000002 0.000000 0.000000 -1.156049
    8 3.942335 0.046767 -0.431443 -0.282547 -0.012816 -0.829988
    9 1.539097 0.000000 0.000000 0.000000 0.000000 -1.277093
    10 1.196326 -0.000002 -0.000001 0.000000 0.000000 -1.795954
    11 3.883696 -0.046765 0.431443 -0.051699 -0.018864 -0.672085
    12 1.719570 -0.000004 -0.000001 0.000000 0.000000 -1.477147
    13 1.209171 -0.000002 0.000000 0.000000 0.000004 -1.391274
    14 3.859865 -0.137947 1.332466 0.160078 -0.013795 -0.792663
    15 1.719429 0.000002 -0.000001 0.000000 0.000000 -1.578974
    16 1.099665 0.000000 0.000000 0.000000 0.000000 -1.439614
    17 0.806053 -0.348925 1.321258 -1.297464 -0.379014 -0.751547
    18 1.789780 -0.000002 0.000002 0.000000 0.000000 0.288883
    19 1.207006 0.000000 0.000000 0.000000 0.000000 0.449501
    20 -59.937500 -49.093750 -1.937500 -0.104116 -0.097959 3.074282
    21 6.028144 0.000000 0.000000 -0.210271 0.491799 -2.736198
    22 11.692554 0.000001 0.000003 0.000000 0.000000 -1.282059
    23 11.481697 0.000001 0.000002 -1.215007 -0.211559 0.573697
    24 3.859678 -0.132570 1.193109 0.121614 -0.096285 -0.922066
    25 1.312557 -0.000002 0.000001 0.000000 0.000000 -0.614204
    26 0.729365 0.000002 -0.000002 0.000000 0.000000 -1.378732
    27 3.942305 0.050327 0.431044 0.052412 -0.034057 -0.893759
    28 1.539099 -0.000002 0.000000 0.000000 0.000000 -1.033145
    29 1.196321 0.000008 0.000000 0.000000 0.000000 -1.390690
    30 3.883661 -0.050323 -0.431042 0.015688 -0.124349 -0.775366
    31 1.719578 0.000004 0.000000 0.000000 -0.007974 -1.588129
    32 1.209185 0.000002 0.000000 0.000000 -0.004460 -0.914507
    33 3.859838 -0.148937 -1.331282 0.137062 0.112673 -0.145626
    34 1.719423 0.000002 0.000000 0.000000 -0.006612 -0.973834
    35 1.099667 0.000002 0.000000 0.000000 -0.004210 -1.029708
    36 0.806021 -0.359837 -1.318334 1.307340 0.325303 -0.670093
    37 1.789782 0.000000 -0.000004 0.019720 0.080233 0.520342
    38 1.206999 0.000003 0.000002 0.000000 0.000000 0.467622
    39 1.292969 -34.593750 -73.125000 3.139864 0.001728 -0.000001
    40 -7.775457 28.059662 13.991498 -0.000001 0.000048 0.000084
  time 5
    0 1.292969 -54.375000 -69.250000 -1.570795 0.178895 -1.570796
    1 2.033349 1.000767 1.937660 2.856279 -0.086961 1.424556
    2 6.028141 0.000000 0.000000 -2.130345 -0.097750 -0.451794
    3 11.692554 0.000001 0.000002 0.000000 0.000000 -1.474983
    4 11.481674 0.000001 -0.000032 0.882943 -0.532523 1.231055
    5 3.859709 -0.142404 -1.191975 -0.372602 0.151269 -0.938029
    6 1.312555 -0.000002 0.000001 0.000000 0.000000 -1.267558
    7 0.729363 -0.000002 -0.000002 0.000000 0.000000 -1.156049
    8 3.942335 0.046767 -0.431443 -0.282547 -0.012816 -0.829988
    9 1.539097 0.000000 0.000000 0.000000 0.000000 -1.277093
    10 1.196326 -0.000002 -0.000001 0.000000 0.000000 -1.795954
    11 3.883696 -0.046765 0.431443 -0.051699 -0.018864 -0.672085
    12 1.719570 -0.000004 -0.000001 0.000000 0.000000 -1.477147
    13 1.209171 -0.000002 0.000000 0.000000 0.000004 -1.391274
    14 3.859865 -0.137947 1.332466 0.160078 -0.013795 -0.792663
    15 1.719429 0.000002 -0.000001 0.000000 0.000000 -1.578974
    16 1.099665 0.000000 0.000000 0.000000 0.000000 -1.439614
    17 0.806053 -0.348925 1.321258 -1.297464 -0.379014 -0.751547
    18 1.789780 -0.000002 0.000002 0.000000 0.000000 0.288883
    19 1.207006 0.000000 0.000000 0.000000 0.000000 0.449501
    20 -59.937500 -49.093750 -1.937500 -0.104116 -0.097959 3.074282
    21 6.028144 0.000000 0.000000 -0.210335 0.491799 -2.736282
    22 11.692554 0.000001 0.000003 0.000000 0.000168 -1.282317
    23 11.481697 0.000001 0.000002 -1.215583 -0.212089 0.575065
    24 3.859678 -0.132570 1.193109 0.121614 -0.096285 -0.922066
    25 1.312557 -0.000002 0.000001 0.000000 0.000000 -0.614204
    26 0.729365 0.000002 -0.000002 0.000000 0.000000 -1.378732
    27 3.942305 0.050327 0.431044 0.052412 -0.034057 -0.893759
    28 1.539099 -0.000002 0.000000 0.000000 0.000000 -1.033169
    29 1.196321 0.000008 0.000000 0.000000 0.000000 -1.390690
    30 3.883661 -0.050323 -0.431042 0.015688 -0.124349 -0.775366
    31 1.719578 0.000004 0.000000 0.000000 -0.007974 -1.588166
    32 1.209185 0.000002 0.000000 0.000000 -0.004460 -0.914507
    33 3.859838 -0.148937 -1.331282 0.137062 0.112673 -0.145626
    34 1.719423 0.000002 0.000000 0.000000 -0.006612 -0.973834
    35 1.099667 0.000002 0.000000 0.000000 -0.004210 -1.029708
    36 0.806021 -0.359837 -1.318334 1.307340 0.325303 -0.670081
    37 1.789782 0.000000 -0.000004 0.019720 0.080233 0.520342
    38 1.206999 0.000003 0.000002 0.000000 0.000000 0.467622
    39 1.292969 -34.593750 -73.125000 3.139864 0.001728 -0.000001
    40 -7.775457 28.059662 13.991498 -0.000001 0.000000 0.000024
  time 6
    0 1.292969 -54.375000 -69.250000 -1.570795 0.178895 -1.570796
    1 2.033349 1.000767 1.937660 2.856279 -0.086961 1.424556
    2 6.028141 0.000000 0.000000 -2.130370 -0.097778 -0.451826
    3 11.692554 0.000001 0.000002 0.000000 0.000000 -1.474983
    4 11.481674 0.000001 -0.000032 0.882943 -0.532523 1.231014
    5 3.859709 -0.142404 -1.191975 -0.372602 0.151269 -0.938029
    6 1.312555 -0.000002 0.000001 0.000000 0.000000 -1.267558
    7 0.729363 -0.000002 -0.000002 0.000000 0.000000 -1.156049
    8 3.942335 0.046767 -0.431443 -0.282547 -0.012816 -0.829988
    9 1.539097 0.000000 0.000000 0.000000 0.000000 -1.277093
    10 1.196326 -0.000002 -0.000001 0.000000 0.000000 -1.795954
    11 3.883696 -0.046765 0.431443 -0.051699 -0.018864 -0.672085
    12 1.719570 -0.000004 -0.000001 0.000000 0.000000 -1.477147
    13 1.209171 -0.000002 0.000000 0.000000 0.000004 -1.391274
    14 3.859865 -0.137947 1.332466 0.160078 -0.013795 -0.792663
    15 1.719429 0.000002 -0.000001 0.000000 0.000000 -1.578974
    16 1.099665 0.000000 0.000000 0.000000 0.000000 -1.439614
    17 0.806053 -0.348925 1.321258 -1.297464 -0.379014 -0.751547
    18 1.789780 -0.000002 0.000002 0.000000 0.000000 0.288883
    19 1.207006 0.000000 0.000000 0.000000 0.000000 0.449501
    20 -59.937500 -49.093750 -1.937500 -0.104116 -0.097959 3.074282
    21 6.028144 0.000000 0.000000 -0.210271 0.491799 -2.736282
    22 11.692554 0.000001 0.000003 0.000000 0.000000 -1.282059
    23 11.481697 0.000001 0.000002 -1.215273 -0.211641 0.574096
    24 3.859678 -0.132570 1.193109 0.121614 -0.096285 -0.922066
    25 1.312557 -0.000002 0.000001 0.000000 0.000000 -0.614204
    26 0.729365 0.000002 -0.000002 0.000000 0.000000 -1.378732
    27 3.942305 0.050327 0.431044 0.052412 -0.034057 -0.893759
    28 1.539099 -0.000002 0.000000 0.000000 0.000000 -1.033169
    29 1.196321 0.000008 0.000000 0.000000 0.000000 -1.390690
    30 3.883661 -0.050323 -0.431042 0.015688 -0.124349 -0.775366
    31 1.719578 0.000004 0.000000 0.000000 -0.007974 -1.588129
    32 1.209185 0.000002 0.000000 0.000000 -0.004460 -0.914507
    33 3.859838 -0.148937 -1.331282 0.137062 0.112673 -0.145626
    34 1.719423 0.000002 0.000000 0.000000 -0.006612 -0.973834
    35 1.099667 0.000002 0.000000 0.000000 -0.004210 -1.029708
    36 0.806021 -0.359837 -1.318334 1.307340 0.325303 -0.670093
    37 1.789782 0.000000 -0.000004 0.019720 0.080233 0.520342
    38 1.206999 0.000003 0.000002 0.000000 0.000000 0.467622
    39 1.292969 -34.593750 -73.125000 3.139864 0.001728 -0.000001
    40 -7.775457 28.059662 13.991498 -0.000001 0.000000 0.000000
end
