// Created by Crowbar 0.74
version 1
nodes
  0 "ValveBiped.Bip01_Spine4" -1
  1 "ValveBiped.Bip01_L_Clavicle" 0
  2 "ValveBiped.Bip01_L_UpperArm" 1
  3 "ValveBiped.Bip01_L_Forearm" 2
  4 "ValveBiped.Bip01_L_Hand" 3
  5 "ValveBiped.Bip01_L_Finger4" 4
  6 "ValveBiped.Bip01_L_Finger41" 5
  7 "ValveBiped.Bip01_L_Finger42" 6
  8 "ValveBiped.Bip01_L_Finger3" 4
  9 "ValveBiped.Bip01_L_Finger31" 8
  10 "ValveBiped.Bip01_L_Finger32" 9
  11 "ValveBiped.Bip01_L_Finger2" 4
  12 "ValveBiped.Bip01_L_Finger21" 11
  13 "ValveBiped.Bip01_L_Finger22" 12
  14 "ValveBiped.Bip01_L_Finger1" 4
  15 "ValveBiped.Bip01_L_Finger11" 14
  16 "ValveBiped.Bip01_L_Finger12" 15
  17 "ValveBiped.Bip01_L_Finger0" 4
  18 "ValveBiped.Bip01_L_Finger01" 17
  19 "ValveBiped.Bip01_L_Finger02" 18
  20 "ValveBiped.Bip01_R_Clavicle" 0
  21 "ValveBiped.Bip01_R_UpperArm" 20
  22 "ValveBiped.Bip01_R_Forearm" 21
  23 "ValveBiped.Bip01_R_Hand" 22
  24 "ValveBiped.Bip01_R_Finger4" 23
  25 "ValveBiped.Bip01_R_Finger41" 24
  26 "ValveBiped.Bip01_R_Finger42" 25
  27 "ValveBiped.Bip01_R_Finger3" 23
  28 "ValveBiped.Bip01_R_Finger31" 27
  29 "ValveBiped.Bip01_R_Finger32" 28
  30 "ValveBiped.Bip01_R_Finger2" 23
  31 "ValveBiped.Bip01_R_Finger21" 30
  32 "ValveBiped.Bip01_R_Finger22" 31
  33 "ValveBiped.Bip01_R_Finger1" 23
  34 "ValveBiped.Bip01_R_Finger11" 33
  35 "ValveBiped.Bip01_R_Finger12" 34
  36 "ValveBiped.Bip01_R_Finger0" 23
  37 "ValveBiped.Bip01_R_Finger01" 36
  38 "ValveBiped.Bip01_R_Finger02" 37
  39 "ValveBiped.Bip01" -1
  40 "ValveBiped.base" 39
end
skeleton
  time 0
    0 1.293008 -0.972692 -12.105838 -1.570798 -1.391899 -1.570842
    1 2.033349 1.000767 1.937660 2.856300 -0.087016 1.424559
    2 6.028141 0.000000 0.000000 -2.189190 -0.141277 -0.598546
    3 11.692554 0.000001 0.000002 0.000000 0.000000 -1.667171
    4 11.481674 0.000001 -0.000032 1.023001 -0.648369 1.300047
    5 3.859709 -0.142404 -1.191975 -0.372602 0.151269 -0.938029
    6 1.312555 -0.000002 0.000001 0.000000 0.000000 -1.267558
    7 0.729363 -0.000002 -0.000002 0.000000 0.000000 -1.156049
    8 3.942335 0.046767 -0.431443 -0.282547 -0.012816 -0.829988
    9 1.539097 0.000000 0.000000 0.000000 0.000000 -1.277093
    10 1.196326 -0.000002 -0.000001 0.000000 0.000000 -1.795915
    11 3.883696 -0.046765 0.431443 -0.051699 -0.018864 -0.672085
    12 1.719570 -0.000004 -0.000001 0.000000 0.000000 -1.477147
    13 1.209171 -0.000002 0.000000 0.000000 0.000004 -1.391274
    14 3.859865 -0.137947 1.332466 0.160083 -0.013795 -0.792652
    15 1.719429 0.000002 -0.000001 0.000000 0.000011 -1.578940
    16 1.099665 0.000000 0.000000 0.000000 0.000007 -1.439616
    17 0.806053 -0.348925 1.321258 -1.297464 -0.379014 -0.751547
    18 1.789780 -0.000002 0.000002 0.000000 0.000000 0.288883
    19 1.207006 0.000000 0.000000 0.000000 0.000000 0.449501
    20 1.451307 0.375753 -0.461002 -0.104168 -0.097914 4.645120
    21 6.028144 0.000000 0.000000 -0.134866 0.580421 -2.713128
    22 11.692554 0.000001 0.000003 0.000000 0.000000 -1.340277
    23 11.481697 0.000001 0.000002 -1.206792 -0.316588 0.595232
    24 3.859678 -0.132570 1.193109 0.121619 -0.096285 -0.922066
    25 1.312557 -0.000002 0.000001 0.000000 0.000000 -0.614204
    26 0.729365 0.000002 -0.000002 0.000000 0.000000 -1.378700
    27 3.942305 0.050327 0.431044 0.052412 -0.034057 -0.893759
    28 1.539099 -0.000002 0.000000 0.000000 0.000000 -1.033169
    29 1.196321 0.000008 0.000000 0.000000 0.000000 -1.390664
    30 3.883661 -0.050323 -0.431042 0.015688 -0.124349 -0.775366
    31 1.719578 0.000004 0.000000 0.000000 -0.007974 -1.588129
    32 1.209185 0.000002 0.000000 0.000000 -0.004460 -0.914507
    33 3.859838 -0.148937 -1.331282 0.137062 0.112673 -0.145626
    34 1.719423 0.000002 0.000000 0.000000 -0.006613 -0.973817
    35 1.099667 0.000002 0.000000 0.000000 -0.004210 -1.029708
    36 0.806021 -0.359837 -1.318334 1.307341 0.325294 -0.670080
    37 1.789782 0.000000 -0.000004 0.019720 0.080233 0.520342
    38 1.206999 0.000003 0.000002 0.000000 0.000000 0.467622
    39 -9.614098 0.000005 38.566917 1.570796 0.000000 -1.570796
    40 16.885451 -42.387800 -3.130118 -0.000001 1.570796 0.000000
  time 1
    0 1.293008 -1.402393 -12.105838 -1.570798 -1.391899 -1.570842
    1 2.033349 1.000767 1.937660 2.856300 -0.087016 1.424559
    2 6.028141 0.000000 0.000000 -2.158607 -0.113359 -0.520750
    3 11.692554 0.000001 0.000002 0.000000 0.000000 -1.581410
    4 11.481674 0.000001 -0.000032 0.952636 -0.597243 1.261175
    5 3.859709 -0.142404 -1.191975 -0.372602 0.151269 -0.938029
    6 1.312555 -0.000002 0.000001 0.000000 0.000000 -1.267558
    7 0.729363 -0.000002 -0.000002 0.000000 0.000000 -1.156049
    8 3.942335 0.046767 -0.431443 -0.282547 -0.012816 -0.829988
    9 1.539097 0.000000 0.000000 0.000000 0.000000 -1.277093
    10 1.196326 -0.000002 -0.000001 0.000000 0.000000 -1.795915
    11 3.883696 -0.046765 0.431443 -0.051699 -0.018864 -0.672085
    12 1.719570 -0.000004 -0.000001 0.000000 0.000000 -1.477147
    13 1.209171 -0.000002 0.000000 0.000000 0.000004 -1.391274
    14 3.859865 -0.137947 1.332466 0.160083 -0.013795 -0.792652
    15 1.719429 0.000002 -0.000001 0.000000 0.000011 -1.578940
    16 1.099665 0.000000 0.000000 0.000000 0.000007 -1.439580
    17 0.806053 -0.348925 1.321258 -1.297464 -0.379014 -0.751547
    18 1.789780 -0.000002 0.000002 0.000000 0.000000 0.288883
    19 1.207006 0.000000 0.000000 0.000000 0.000000 0.449501
    20 1.752097 0.758577 -1.015707 -0.104168 -0.097914 4.645120
    21 6.028144 0.000000 0.000000 -0.159151 0.546334 -2.707507
    22 11.692554 0.000001 0.000003 0.000000 0.000000 -1.323801
    23 11.481697 0.000001 0.000002 -1.201875 -0.265348 0.561449
    24 3.859678 -0.132570 1.193109 0.121619 -0.096285 -0.922066
    25 1.312557 -0.000002 0.000001 0.000000 0.000000 -0.614204
    26 0.729365 0.000002 -0.000002 0.000000 0.000000 -1.378735
    27 3.942305 0.050327 0.431044 0.052412 -0.034057 -0.893759
    28 1.539099 -0.000002 0.000000 0.000000 0.000000 -1.033145
    29 1.196321 0.000008 0.000000 0.000000 0.000000 -1.390664
    30 3.883661 -0.050323 -0.431042 0.015688 -0.124349 -0.775366
    31 1.719578 0.000004 0.000000 0.000000 -0.007974 -1.588129
    32 1.209185 0.000002 0.000000 0.000000 -0.004460 -0.914507
    33 3.859838 -0.148937 -1.331282 0.137062 0.112673 -0.145626
    34 1.719423 0.000002 0.000000 0.000000 -0.006613 -0.973817
    35 1.099667 0.000002 0.000000 0.000000 -0.004210 -1.029708
    36 0.806021 -0.359837 -1.318334 1.307341 0.325294 -0.670080
    37 1.789782 0.000000 -0.000004 0.019720 0.080233 0.520342
    38 1.206999 0.000003 0.000002 0.000000 0.000000 0.467622
    39 -9.614098 0.000005 38.566917 1.570796 0.000000 -1.570796
    40 18.139396 -42.430770 -3.130118 -0.000001 1.570796 0.019631
  time 2
    0 1.293008 -1.804749 -12.105838 -1.570798 -1.391899 -1.570842
    1 2.033349 1.000767 1.937660 2.856300 -0.087016 1.424559
    2 6.028141 0.000000 0.000000 -2.128723 -0.098304 -0.446972
    3 11.692554 0.000001 0.000002 0.000000 0.000000 -1.477085
    4 11.481674 0.000001 -0.000032 0.893144 -0.552640 1.201505
    5 3.859709 -0.142404 -1.191975 -0.372602 0.151269 -0.938029
    6 1.312555 -0.000002 0.000001 0.000000 0.000000 -1.267558
    7 0.729363 -0.000002 -0.000002 0.000000 0.000000 -1.156049
    8 3.942335 0.046767 -0.431443 -0.282547 -0.012816 -0.829988
    9 1.539097 0.000000 0.000000 0.000000 0.000000 -1.277093
    10 1.196326 -0.000002 -0.000001 0.000000 0.000000 -1.795915
    11 3.883696 -0.046765 0.431443 -0.051699 -0.018864 -0.672085
    12 1.719570 -0.000004 -0.000001 0.000000 0.000000 -1.477147
    13 1.209171 -0.000002 0.000000 0.000000 0.000004 -1.391274
    14 3.859865 -0.137947 1.332466 0.160083 -0.013795 -0.792652
    15 1.719429 0.000002 -0.000001 0.000000 0.000011 -1.578940
    16 1.099665 0.000000 0.000000 0.000000 0.000007 -1.439580
    17 0.806053 -0.348925 1.321258 -1.297464 -0.379014 -0.751547
    18 1.789780 -0.000002 0.000002 0.000000 0.000000 0.288883
    19 1.207006 0.000000 0.000000 0.000000 0.000000 0.449501
    20 2.025543 1.317188 -1.546973 -0.104168 -0.097914 4.645120
    21 6.028144 0.000000 0.000000 -0.182480 0.514731 -2.705159
    22 11.692554 0.000001 0.000003 0.000000 0.000000 -1.305837
    23 11.481697 0.000001 0.000002 -1.198576 -0.218224 0.529574
    24 3.859678 -0.132570 1.193109 0.121619 -0.096285 -0.922066
    25 1.312557 -0.000002 0.000001 0.000000 0.000000 -0.614204
    26 0.729365 0.000002 -0.000002 0.000000 0.000000 -1.378700
    27 3.942305 0.050327 0.431044 0.052412 -0.034057 -0.893759
    28 1.539099 -0.000002 0.000000 0.000000 0.000000 -1.033145
    29 1.196321 0.000008 0.000000 0.000000 0.000000 -1.390664
    30 3.883661 -0.050323 -0.431042 0.015688 -0.124349 -0.775366
    31 1.719578 0.000004 0.000000 0.000000 -0.007974 -1.588129
    32 1.209185 0.000002 0.000000 0.000000 -0.004460 -0.914507
    33 3.859838 -0.148937 -1.331282 0.137062 0.112673 -0.145626
    34 1.719423 0.000002 0.000000 0.000000 -0.006613 -0.973835
    35 1.099667 0.000002 0.000000 0.000000 -0.004210 -1.029708
    36 0.806021 -0.359837 -1.318334 1.307341 0.325294 -0.670080
    37 1.789782 0.000000 -0.000004 0.019720 0.080233 0.520342
    38 1.206999 0.000003 0.000002 0.000000 0.000000 0.467622
    39 -9.614098 0.000005 38.566917 1.570796 0.000000 -1.570796
    40 19.483187 -42.473740 -3.130118 -0.000001 1.570796 0.039261
  time 3
    0 1.293008 -2.168041 -12.105838 -1.570798 -1.391899 -1.570842
    1 2.033349 1.000767 1.937660 2.856300 -0.087016 1.424559
    2 6.028141 0.000000 0.000000 -2.124383 -0.097195 -0.436331
    3 11.692554 0.000001 0.000002 0.000000 0.000000 -1.458286
    4 11.481674 0.000001 -0.000032 0.882569 -0.542324 1.196010
    5 3.859709 -0.142404 -1.191975 -0.372602 0.151269 -0.938029
    6 1.312555 -0.000002 0.000001 0.000000 0.000000 -1.267558
    7 0.729363 -0.000002 -0.000002 0.000000 0.000000 -1.156049
    8 3.942335 0.046767 -0.431443 -0.282547 -0.012816 -0.829988
    9 1.539097 0.000000 0.000000 0.000000 0.000000 -1.277093
    10 1.196326 -0.000002 -0.000001 0.000000 0.000000 -1.795915
    11 3.883696 -0.046765 0.431443 -0.051699 -0.018864 -0.672085
    12 1.719570 -0.000004 -0.000001 0.000000 0.000000 -1.477147
    13 1.209171 -0.000002 0.000000 0.000000 0.000004 -1.391310
    14 3.859865 -0.137947 1.332466 0.160083 -0.013795 -0.792652
    15 1.719429 0.000002 -0.000001 0.000000 -0.000001 -1.578940
    16 1.099665 0.000000 0.000000 0.000000 0.000007 -1.439580
    17 0.806053 -0.348925 1.321258 -1.297464 -0.379014 -0.751547
    18 1.789780 -0.000002 0.000002 0.000000 0.000000 0.288883
    19 1.207006 0.000000 0.000000 0.000000 0.000000 0.449501
    20 2.072420 1.344532 -1.730572 -0.104168 -0.097914 4.645120
    21 6.028144 0.000000 0.000000 -0.192424 0.504219 -2.710779
    22 11.692554 0.000001 0.000003 0.000000 0.000000 -1.298859
    23 11.481697 0.000001 0.000002 -1.201565 -0.208074 0.533591
    24 3.859678 -0.132570 1.193109 0.121619 -0.096285 -0.922066
    25 1.312557 -0.000002 0.000001 0.000000 0.000000 -0.614204
    26 0.729365 0.000002 -0.000002 0.000000 0.000000 -1.378700
    27 3.942305 0.050327 0.431044 0.052412 -0.034057 -0.893759
    28 1.539099 -0.000002 0.000000 0.000000 0.000000 -1.033169
    29 1.196321 0.000008 0.000000 0.000000 0.000000 -1.390664
    30 3.883661 -0.050323 -0.431042 0.015688 -0.124349 -0.775366
    31 1.719578 0.000004 0.000000 0.000000 -0.007974 -1.588166
    32 1.209185 0.000002 0.000000 0.000000 -0.004460 -0.914507
    33 3.859838 -0.148937 -1.331282 0.137062 0.112673 -0.145626
    34 1.719423 0.000002 0.000000 0.000000 -0.006613 -0.973817
    35 1.099667 0.000002 0.000000 0.000000 -0.004210 -1.029708
    36 0.806021 -0.359837 -1.318334 1.307341 0.325294 -0.670080
    37 1.789782 0.000000 -0.000004 0.019720 0.080233 0.520342
    38 1.206999 0.000003 0.000002 0.000000 0.000000 0.467622
    39 -9.614098 0.000005 38.566917 1.570796 0.000000 -1.570796
    40 20.041798 -42.462021 -3.130118 -0.000001 1.570796 0.035031
  time 4
    0 1.293008 -2.500082 -12.105838 -1.570798 -1.391899 -1.570842
    1 2.033349 1.000767 1.937660 2.856300 -0.087016 1.424559
    2 6.028141 0.000000 0.000000 -2.123236 -0.096863 -0.433534
    3 11.692554 0.000001 0.000002 0.000000 0.000000 -1.451748
    4 11.481674 0.000001 -0.000032 0.876702 -0.534040 1.201342
    5 3.859709 -0.142404 -1.191975 -0.372602 0.151269 -0.938029
    6 1.312555 -0.000002 0.000001 0.000000 0.000000 -1.267558
    7 0.729363 -0.000002 -0.000002 0.000000 0.000000 -1.156049
    8 3.942335 0.046767 -0.431443 -0.282547 -0.012816 -0.829988
    9 1.539097 0.000000 0.000000 0.000000 0.000000 -1.277093
    10 1.196326 -0.000002 -0.000001 0.000000 0.000000 -1.795956
    11 3.883696 -0.046765 0.431443 -0.051699 -0.018864 -0.672085
    12 1.719570 -0.000004 -0.000001 0.000000 0.000000 -1.477147
    13 1.209171 -0.000002 0.000000 0.000000 0.000004 -1.391310
    14 3.859865 -0.137947 1.332466 0.160083 -0.013807 -0.792652
    15 1.719429 0.000002 -0.000001 0.000000 -0.000001 -1.578940
    16 1.099665 0.000000 0.000000 0.000000 0.000007 -1.439616
    17 0.806053 -0.348925 1.321258 -1.297464 -0.379014 -0.751547
    18 1.789780 -0.000002 0.000002 0.000000 0.000000 0.288883
    19 1.207006 0.000000 0.000000 0.000000 0.000000 0.449501
    20 2.088045 1.309375 -1.863389 -0.104168 -0.097914 4.645120
    21 6.028144 0.000000 0.000000 -0.200391 0.497210 -2.718665
    22 11.692554 0.000001 0.000003 0.000000 0.000000 -1.293754
    23 11.481697 0.000001 0.000002 -1.206083 -0.205098 0.546380
    24 3.859678 -0.132570 1.193109 0.121619 -0.096285 -0.922066
    25 1.312557 -0.000002 0.000001 0.000000 0.000000 -0.614204
    26 0.729365 0.000002 -0.000002 0.000000 0.000000 -1.378700
    27 3.942305 0.050327 0.431044 0.052412 -0.034057 -0.893759
    28 1.539099 -0.000002 0.000000 0.000000 0.000000 -1.033169
    29 1.196321 0.000008 0.000000 0.000000 0.000000 -1.390664
    30 3.883661 -0.050323 -0.431042 0.015688 -0.124349 -0.775366
    31 1.719578 0.000004 0.000000 0.000000 -0.007974 -1.588129
    32 1.209185 0.000002 0.000000 0.000000 -0.004460 -0.914507
    33 3.859838 -0.148937 -1.331282 0.137062 0.112673 -0.145626
    34 1.719423 0.000002 0.000000 0.000000 -0.006613 -0.973817
    35 1.099667 0.000002 0.000000 0.000000 -0.004210 -1.029708
    36 0.806021 -0.359837 -1.318334 1.307341 0.325294 -0.670080
    37 1.789782 0.000000 -0.000004 0.019720 0.080233 0.520342
    38 1.206999 0.000003 0.000002 0.000000 0.000000 0.467622
    39 -9.614098 0.000005 38.566917 1.570796 0.000000 -1.570796
    40 20.475405 -42.434676 -3.130118 -0.000001 1.570796 0.024712
  time 5
    0 1.293008 -2.789154 -12.105838 -1.570798 -1.391899 -1.570842
    1 2.033349 1.000767 1.937660 2.856300 -0.087016 1.424559
    2 6.028141 0.000000 0.000000 -2.124258 -0.096835 -0.436235
    3 11.692554 0.000001 0.000002 0.000000 0.000000 -1.453441
    4 11.481674 0.000001 -0.000032 0.874497 -0.528184 1.212291
    5 3.859709 -0.142404 -1.191975 -0.372602 0.151269 -0.938029
    6 1.312555 -0.000002 0.000001 0.000000 0.000000 -1.267558
    7 0.729363 -0.000002 -0.000002 0.000000 0.000000 -1.156049
    8 3.942335 0.046767 -0.431443 -0.282547 -0.012816 -0.829988
    9 1.539097 0.000000 0.000000 0.000000 0.000000 -1.277093
    10 1.196326 -0.000002 -0.000001 0.000000 0.000000 -1.795915
    11 3.883696 -0.046765 0.431443 -0.051699 -0.018864 -0.672085
    12 1.719570 -0.000004 -0.000001 0.000000 0.000000 -1.477147
    13 1.209171 -0.000002 0.000000 0.000000 0.000004 -1.391274
    14 3.859865 -0.137947 1.332466 0.160083 -0.013807 -0.792652
    15 1.719429 0.000002 -0.000001 0.000000 -0.000001 -1.578940
    16 1.099665 0.000000 0.000000 0.000000 0.000007 -1.439580
    17 0.806053 -0.348925 1.321258 -1.297464 -0.379014 -0.751547
    18 1.789780 -0.000002 0.000002 0.000000 0.000000 0.288883
    19 1.207006 0.000000 0.000000 0.000000 0.000000 0.449501
    20 2.088045 1.235154 -1.949329 -0.104168 -0.097914 4.645120
    21 6.028144 0.000000 0.000000 -0.206574 0.492509 -2.726718
    22 11.692554 0.000001 0.000003 0.000000 0.000000 -1.290071
    23 11.481697 0.000001 0.000002 -1.211065 -0.205995 0.562702
    24 3.859678 -0.132570 1.193109 0.121619 -0.096285 -0.922066
    25 1.312557 -0.000002 0.000001 0.000000 0.000000 -0.614204
    26 0.729365 0.000002 -0.000002 0.000000 0.000000 -1.378700
    27 3.942305 0.050327 0.431044 0.052412 -0.034057 -0.893759
    28 1.539099 -0.000002 0.000000 0.000000 0.000000 -1.033169
    29 1.196321 0.000008 0.000000 0.000000 0.000000 -1.390664
    30 3.883661 -0.050323 -0.431042 0.015688 -0.124349 -0.775366
    31 1.719578 0.000004 0.000000 0.000000 -0.007974 -1.588129
    32 1.209185 0.000002 0.000000 0.000000 -0.004460 -0.914507
    33 3.859838 -0.148937 -1.331282 0.137062 0.112673 -0.145626
    34 1.719423 0.000002 0.000000 0.000000 -0.006613 -0.973817
    35 1.099667 0.000002 0.000000 0.000000 -0.004210 -1.029708
    36 0.806021 -0.359837 -1.318334 1.307341 0.325294 -0.670080
    37 1.789782 0.000000 -0.000004 0.019720 0.080233 0.520342
    38 1.206999 0.000003 0.000002 0.000000 0.000000 0.467622
    39 -9.614098 0.000005 38.566917 1.570796 0.000000 -1.570796
    40 20.799633 -42.407332 -3.130118 -0.000001 1.570796 0.011841
  time 6
    0 1.293008 -2.910251 -12.105838 -1.570798 -1.391899 -1.570842
    1 2.033349 1.000767 1.937660 2.856300 -0.086979 1.424559
    2 6.028141 0.000000 0.000000 -2.126753 -0.096946 -0.442761
    3 11.692554 0.000001 0.000002 0.000000 0.000000 -1.459921
    4 11.481674 0.000001 -0.000032 0.875656 -0.525727 1.223729
    5 3.859709 -0.142404 -1.191975 -0.372602 0.151269 -0.938029
    6 1.312555 -0.000002 0.000001 0.000000 0.000000 -1.267558
    7 0.729363 -0.000002 -0.000002 0.000000 0.000000 -1.156049
    8 3.942335 0.046767 -0.431443 -0.282547 -0.012816 -0.829988
    9 1.539097 0.000000 0.000000 0.000000 0.000000 -1.277093
    10 1.196326 -0.000002 -0.000001 0.000000 0.000000 -1.795915
    11 3.883696 -0.046765 0.431443 -0.051699 -0.018864 -0.672085
    12 1.719570 -0.000004 -0.000001 0.000000 0.000000 -1.477147
    13 1.209171 -0.000002 0.000000 0.000000 0.000004 -1.391310
    14 3.859865 -0.137947 1.332466 0.160083 -0.013795 -0.792652
    15 1.719429 0.000002 -0.000001 0.000000 0.000011 -1.578940
    16 1.099665 0.000000 0.000000 0.000000 0.000007 -1.439616
    17 0.806053 -0.348925 1.321258 -1.297464 -0.379014 -0.751547
    18 1.789780 -0.000002 0.000002 0.000000 0.000000 0.288883
    19 1.207006 0.000000 0.000000 0.000000 0.000000 0.449501
    20 2.080232 1.168746 -1.972767 -0.104120 -0.097914 4.645120
    21 6.028144 0.000000 0.000000 -0.208933 0.491688 -2.731920
    22 11.692554 0.000001 0.000003 0.000000 -0.000024 -1.289167
    23 11.481697 0.000001 0.000002 -1.215339 -0.210499 0.577486
    24 3.859678 -0.132570 1.193109 0.121619 -0.096285 -0.922066
    25 1.312557 -0.000002 0.000001 0.000000 0.000000 -0.614204
    26 0.729365 0.000002 -0.000002 0.000000 0.000000 -1.378700
    27 3.942305 0.050327 0.431044 0.052412 -0.034057 -0.893759
    28 1.539099 -0.000002 0.000000 0.000000 0.000000 -1.033169
    29 1.196321 0.000008 0.000000 0.000000 0.000000 -1.390664
    30 3.883661 -0.050323 -0.431042 0.015688 -0.124349 -0.775366
    31 1.719578 0.000004 0.000000 0.000000 -0.007974 -1.588129
    32 1.209185 0.000002 0.000000 0.000000 -0.004460 -0.914507
    33 3.859838 -0.148937 -1.331282 0.137062 0.112673 -0.145626
    34 1.719423 0.000002 0.000000 0.000000 -0.006613 -0.973817
    35 1.099667 0.000002 0.000000 0.000000 -0.004210 -1.029708
    36 0.806021 -0.359837 -1.318334 1.307341 0.325294 -0.670080
    37 1.789782 0.000000 -0.000004 0.019720 0.080233 0.520342
    38 1.206999 0.000003 0.000002 0.000000 0.000000 0.467622
    39 -9.614098 0.000005 38.566917 1.570796 0.000000 -1.570796
    40 20.909012 -42.391706 -3.130118 -0.000001 1.570796 0.000000
  time 7
    0 1.293008 -2.925877 -12.105838 -1.570798 -1.391899 -1.570842
    1 2.033349 1.000767 1.937660 2.856300 -0.087016 1.424559
    2 6.028141 0.000000 0.000000 -2.128798 -0.097168 -0.448097
    3 11.692554 0.000001 0.000002 0.000000 0.000000 -1.466401
    4 11.481674 0.000001 -0.000032 0.878309 -0.526910 1.229631
    5 3.859709 -0.142404 -1.191975 -0.372602 0.151269 -0.938029
    6 1.312555 -0.000002 0.000001 0.000000 0.000000 -1.267558
    7 0.729363 -0.000002 -0.000002 0.000000 0.000000 -1.156049
    8 3.942335 0.046767 -0.431443 -0.282547 -0.012816 -0.829988
    9 1.539097 0.000000 0.000000 0.000000 0.000000 -1.277093
    10 1.196326 -0.000002 -0.000001 0.000000 0.000000 -1.795915
    11 3.883696 -0.046765 0.431443 -0.051699 -0.018864 -0.672085
    12 1.719570 -0.000004 -0.000001 0.000000 0.000000 -1.477147
    13 1.209171 -0.000002 0.000000 0.000000 0.000004 -1.391310
    14 3.859865 -0.137947 1.332466 0.160083 -0.013795 -0.792652
    15 1.719429 0.000002 -0.000001 0.000000 0.000011 -1.578940
    16 1.099665 0.000000 0.000000 0.000000 0.000007 -1.439580
    17 0.806053 -0.348925 1.321258 -1.297464 -0.379014 -0.751547
    18 1.789780 -0.000002 0.000002 0.000000 0.000000 0.288883
    19 1.207006 0.000000 0.000000 0.000000 0.000000 0.449501
    20 2.072420 1.125776 -1.961048 -0.104168 -0.097914 4.645120
    21 6.028144 0.000000 0.000000 -0.208741 0.492487 -2.733094
    22 11.692554 0.000001 0.000003 0.000000 0.000000 -1.289619
    23 11.481697 0.000001 0.000002 -1.216934 -0.213393 0.582983
    24 3.859678 -0.132570 1.193109 0.121619 -0.096285 -0.922066
    25 1.312557 -0.000002 0.000001 0.000000 0.000000 -0.614204
    26 0.729365 0.000002 -0.000002 0.000000 0.000000 -1.378700
    27 3.942305 0.050327 0.431044 0.052412 -0.034057 -0.893759
    28 1.539099 -0.000002 0.000000 0.000000 0.000000 -1.033145
    29 1.196321 0.000008 0.000000 0.000000 0.000000 -1.390664
    30 3.883661 -0.050323 -0.431042 0.015688 -0.124349 -0.775366
    31 1.719578 0.000004 0.000000 0.000000 -0.007974 -1.588166
    32 1.209185 0.000002 0.000000 0.000000 -0.004460 -0.914507
    33 3.859838 -0.148937 -1.331282 0.137062 0.112673 -0.145626
    34 1.719423 0.000002 0.000000 0.000000 -0.006613 -0.973817
    35 1.099667 0.000002 0.000000 0.000000 -0.004210 -1.029708
    36 0.806021 -0.359837 -1.318334 1.307341 0.325294 -0.670080
    37 1.789782 0.000000 -0.000004 0.019720 0.080233 0.520342
    38 1.206999 0.000003 0.000002 0.000000 0.000000 0.467622
    39 -9.614098 0.000005 38.566917 1.570796 0.000000 -1.570796
    40 20.885574 -42.391706 -3.130118 -0.000001 1.570796 -0.004518
  time 8
    0 1.293008 -2.910251 -12.105838 -1.570798 -1.391899 -1.570842
    1 2.033349 1.000767 1.937660 2.856300 -0.087016 1.424559
    2 6.028141 0.000000 0.000000 -2.130395 -0.097528 -0.452083
    3 11.692554 0.000001 0.000002 0.000000 0.000000 -1.472648
    4 11.481674 0.000001 -0.000032 0.881336 -0.529580 1.232968
    5 3.859709 -0.142404 -1.191975 -0.372602 0.151269 -0.938029
    6 1.312555 -0.000002 0.000001 0.000000 0.000000 -1.267558
    7 0.729363 -0.000002 -0.000002 0.000000 0.000000 -1.156049
    8 3.942335 0.046767 -0.431443 -0.282547 -0.012816 -0.829988
    9 1.539097 0.000000 0.000000 0.000000 0.000000 -1.277093
    10 1.196326 -0.000002 -0.000001 0.000000 0.000000 -1.795915
    11 3.883696 -0.046765 0.431443 -0.051699 -0.018864 -0.672085
    12 1.719570 -0.000004 -0.000001 0.000000 0.000000 -1.477147
    13 1.209171 -0.000002 0.000000 0.000000 0.000004 -1.391274
    14 3.859865 -0.137947 1.332466 0.160083 -0.013795 -0.792652
    15 1.719429 0.000002 -0.000001 0.000000 0.000011 -1.578940
    16 1.099665 0.000000 0.000000 0.000000 0.000007 -1.439580
    17 0.806053 -0.348925 1.321258 -1.297464 -0.379014 -0.751547
    18 1.789780 -0.000002 0.000002 0.000000 0.000000 0.288883
    19 1.207006 0.000000 0.000000 0.000000 0.000000 0.449501
    20 2.060701 1.086712 -1.937610 -0.104168 -0.097914 4.645120
    21 6.028144 0.000000 0.000000 -0.207594 0.493839 -2.732591
    22 11.692554 0.000001 0.000003 0.000000 -0.000012 -1.290911
    23 11.481697 0.000001 0.000002 -1.217000 -0.215126 0.584094
    24 3.859678 -0.132570 1.193109 0.121619 -0.096285 -0.922066
    25 1.312557 -0.000002 0.000001 0.000000 0.000000 -0.614204
    26 0.729365 0.000002 -0.000002 0.000000 0.000000 -1.378700
    27 3.942305 0.050327 0.431044 0.052412 -0.034057 -0.893759
    28 1.539099 -0.000002 0.000000 0.000000 0.000000 -1.033145
    29 1.196321 0.000008 0.000000 0.000000 0.000000 -1.390664
    30 3.883661 -0.050323 -0.431042 0.015688 -0.124349 -0.775366
    31 1.719578 0.000004 0.000000 0.000000 -0.007974 -1.588129
    32 1.209185 0.000002 0.000000 0.000000 -0.004460 -0.914507
    33 3.859838 -0.148937 -1.331282 0.137062 0.112673 -0.145626
    34 1.719423 0.000002 0.000000 0.000000 -0.006613 -0.973817
    35 1.099667 0.000002 0.000000 0.000000 -0.004210 -1.029708
    36 0.806021 -0.359837 -1.318334 1.307341 0.325294 -0.670080
    37 1.789782 0.000000 -0.000004 0.019720 0.080233 0.520342
    38 1.206999 0.000003 0.000002 0.000000 0.000000 0.467622
    39 -9.614098 0.000005 38.566917 1.570796 0.000000 -1.570796
    40 20.815259 -42.395613 -3.130118 -0.000001 1.570796 -0.005046
  time 9
    0 1.293008 -2.879000 -12.105838 -1.570798 -1.391899 -1.570842
    1 2.033349 1.000767 1.937660 2.856300 -0.087016 1.424559
    2 6.028141 0.000000 0.000000 -2.131717 -0.097944 -0.455427
    3 11.692554 0.000001 0.000002 0.000000 0.000000 -1.478544
    4 11.481674 0.000001 -0.000032 0.884325 -0.532614 1.235288
    5 3.859709 -0.142404 -1.191975 -0.372602 0.151269 -0.938029
    6 1.312555 -0.000002 0.000001 0.000000 0.000000 -1.267558
    7 0.729363 -0.000002 -0.000002 0.000000 0.000000 -1.156049
    8 3.942335 0.046767 -0.431443 -0.282547 -0.012816 -0.829988
    9 1.539097 0.000000 0.000000 0.000000 0.000000 -1.277093
    10 1.196326 -0.000002 -0.000001 0.000000 0.000000 -1.795915
    11 3.883696 -0.046765 0.431443 -0.051699 -0.018864 -0.672085
    12 1.719570 -0.000004 -0.000001 0.000000 0.000000 -1.477147
    13 1.209171 -0.000002 0.000000 0.000000 0.000004 -1.391274
    14 3.859865 -0.137947 1.332466 0.160083 -0.013795 -0.792652
    15 1.719429 0.000002 -0.000001 0.000000 -0.000001 -1.578940
    16 1.099665 0.000000 0.000000 0.000000 0.000007 -1.439580
    17 0.806053 -0.348925 1.321258 -1.297464 -0.379014 -0.751547
    18 1.789780 -0.000002 0.000002 0.000000 0.000000 0.288883
    19 1.207006 0.000000 0.000000 0.000000 0.000000 0.449501
    20 2.048981 1.051555 -1.914172 -0.104168 -0.097914 4.645120
    21 6.028144 0.000000 0.000000 -0.206128 0.495392 -2.731584
    22 11.692554 0.000001 0.000003 0.000000 0.000024 -1.291751
    23 11.481697 0.000001 0.000002 -1.216602 -0.216512 0.582869
    24 3.859678 -0.132570 1.193109 0.121619 -0.096285 -0.922066
    25 1.312557 -0.000002 0.000001 0.000000 0.000000 -0.614204
    26 0.729365 0.000002 -0.000002 0.000000 0.000000 -1.378700
    27 3.942305 0.050327 0.431044 0.052412 -0.034057 -0.893759
    28 1.539099 -0.000002 0.000000 0.000000 0.000000 -1.033145
    29 1.196321 0.000008 0.000000 0.000000 0.000000 -1.390693
    30 3.883661 -0.050323 -0.431042 0.015688 -0.124349 -0.775366
    31 1.719578 0.000004 0.000000 0.000000 -0.007974 -1.588166
    32 1.209185 0.000002 0.000000 0.000000 -0.004460 -0.914507
    33 3.859838 -0.148937 -1.331282 0.137062 0.112673 -0.145626
    34 1.719423 0.000002 0.000000 0.000000 -0.006613 -0.973817
    35 1.099667 0.000002 0.000000 0.000000 -0.004210 -1.029708
    36 0.806021 -0.359837 -1.318334 1.307341 0.325294 -0.670080
    37 1.789782 0.000000 -0.000004 0.019720 0.080233 0.520342
    38 1.206999 0.000003 0.000002 0.000000 0.000000 0.467622
    39 -9.614098 0.000005 38.566917 1.570796 0.000000 -1.570796
    40 20.725412 -42.395613 -3.130118 -0.000001 1.570796 -0.004207
  time 10
    0 1.293008 -2.839936 -12.105838 -1.570798 -1.391899 -1.570842
    1 2.033349 1.000767 1.937660 2.856300 -0.087016 1.424559
    2 6.028141 0.000000 0.000000 -2.132565 -0.098249 -0.457452
    3 11.692554 0.000001 0.000002 0.000000 0.000000 -1.482631
    4 11.481674 0.000001 -0.000032 0.886530 -0.535072 1.236306
    5 3.859709 -0.142404 -1.191975 -0.372602 0.151269 -0.938029
    6 1.312555 -0.000002 0.000001 0.000000 0.000000 -1.267558
    7 0.729363 -0.000002 -0.000002 0.000000 0.000000 -1.156049
    8 3.942335 0.046767 -0.431443 -0.282547 -0.012816 -0.829988
    9 1.539097 0.000000 0.000000 0.000000 0.000000 -1.277093
    10 1.196326 -0.000002 -0.000001 0.000000 0.000000 -1.795915
    11 3.883696 -0.046765 0.431443 -0.051699 -0.018864 -0.672085
    12 1.719570 -0.000004 -0.000001 0.000000 0.000000 -1.477147
    13 1.209171 -0.000002 0.000000 0.000000 0.000004 -1.391274
    14 3.859865 -0.137947 1.332466 0.160083 -0.013795 -0.792652
    15 1.719429 0.000002 -0.000001 0.000000 -0.000001 -1.578940
    16 1.099665 0.000000 0.000000 0.000000 0.000007 -1.439580
    17 0.806053 -0.348925 1.321258 -1.297464 -0.379014 -0.751547
    18 1.789780 -0.000002 0.000002 0.000000 0.000000 0.288883
    19 1.207006 0.000000 0.000000 0.000000 0.000000 0.449501
    20 2.041169 1.032023 -1.886827 -0.104168 -0.097914 4.645120
    21 6.028144 0.000000 0.000000 -0.204662 0.496811 -2.730410
    22 11.692554 0.000001 0.000003 0.000000 0.000000 -1.292785
    23 11.481697 0.000001 0.000002 -1.215915 -0.217429 0.581189
    24 3.859678 -0.132570 1.193109 0.121619 -0.096285 -0.922066
    25 1.312557 -0.000002 0.000001 0.000000 0.000000 -0.614204
    26 0.729365 0.000002 -0.000002 0.000000 0.000000 -1.378700
    27 3.942305 0.050327 0.431044 0.052412 -0.034057 -0.893759
    28 1.539099 -0.000002 0.000000 0.000000 0.000000 -1.033169
    29 1.196321 0.000008 0.000000 0.000000 0.000000 -1.390664
    30 3.883661 -0.050323 -0.431042 0.015688 -0.124349 -0.775366
    31 1.719578 0.000004 0.000000 0.000000 -0.007974 -1.588129
    32 1.209185 0.000002 0.000000 0.000000 -0.004460 -0.914507
    33 3.859838 -0.148937 -1.331282 0.137062 0.112673 -0.145626
    34 1.719423 0.000002 0.000000 0.000000 -0.006613 -0.973817
    35 1.099667 0.000002 0.000000 0.000000 -0.004210 -1.029708
    36 0.806021 -0.359837 -1.318334 1.307341 0.325294 -0.670080
    37 1.789782 0.000000 -0.000004 0.019720 0.080233 0.520342
    38 1.206999 0.000003 0.000002 0.000000 0.000000 0.467622
    39 -9.614098 0.000005 38.566917 1.570796 0.000000 -1.570796
    40 20.639472 -42.395613 -3.130118 -0.000001 1.570796 -0.002709
  time 11
    0 1.293008 -2.800873 -12.105838 -1.570798 -1.391899 -1.570842
    1 2.033349 1.000767 1.937660 2.856300 -0.087016 1.424559
    2 6.028141 0.000000 0.000000 -2.132390 -0.098304 -0.456938
    3 11.692554 0.000001 0.000002 0.000000 0.000000 -1.482689
    4 11.481674 0.000001 -0.000032 0.886717 -0.535709 1.235329
    5 3.859709 -0.142404 -1.191975 -0.372602 0.151269 -0.938029
    6 1.312555 -0.000002 0.000001 0.000000 0.000000 -1.267558
    7 0.729363 -0.000002 -0.000002 0.000000 0.000000 -1.156049
    8 3.942335 0.046767 -0.431443 -0.282547 -0.012816 -0.829988
    9 1.539097 0.000000 0.000000 0.000000 0.000000 -1.277093
    10 1.196326 -0.000002 -0.000001 0.000000 0.000000 -1.795915
    11 3.883696 -0.046765 0.431443 -0.051699 -0.018864 -0.672085
    12 1.719570 -0.000004 -0.000001 0.000000 0.000000 -1.477147
    13 1.209171 -0.000002 0.000000 0.000000 0.000004 -1.391274
    14 3.859865 -0.137947 1.332466 0.160083 -0.013807 -0.792652
    15 1.719429 0.000002 -0.000001 0.000000 -0.000001 -1.578940
    16 1.099665 0.000000 0.000000 0.000000 0.000007 -1.439580
    17 0.806053 -0.348925 1.321258 -1.297464 -0.379014 -0.751547
    18 1.789780 -0.000002 0.000002 0.000000 0.000000 0.288883
    19 1.207006 0.000000 0.000000 0.000000 0.000000 0.449501
    20 2.041169 1.039836 -1.875108 -0.104168 -0.097914 4.645120
    21 6.028144 0.000000 0.000000 -0.203897 0.497521 -2.729571
    22 11.692554 0.000001 0.000003 0.000000 0.000000 -1.293302
    23 11.481697 0.000001 0.000002 -1.215251 -0.217470 0.579280
    24 3.859678 -0.132570 1.193109 0.121619 -0.096297 -0.922066
    25 1.312557 -0.000002 0.000001 0.000000 0.000000 -0.614204
    26 0.729365 0.000002 -0.000002 0.000000 0.000000 -1.378700
    27 3.942305 0.050327 0.431044 0.052412 -0.034057 -0.893759
    28 1.539099 -0.000002 0.000000 0.000000 0.000000 -1.033145
    29 1.196321 0.000008 0.000000 0.000000 0.000000 -1.390664
    30 3.883661 -0.050323 -0.431042 0.015688 -0.124349 -0.775366
    31 1.719578 0.000004 0.000000 0.000000 -0.007974 -1.588129
    32 1.209185 0.000002 0.000000 0.000000 -0.004460 -0.914507
    33 3.859838 -0.148937 -1.331282 0.137062 0.112673 -0.145626
    34 1.719423 0.000002 0.000000 0.000000 -0.006613 -0.973817
    35 1.099667 0.000002 0.000000 0.000000 -0.004210 -1.029708
    36 0.806021 -0.359837 -1.318334 1.307341 0.325294 -0.670080
    37 1.789782 0.000000 -0.000004 0.019720 0.080233 0.520342
    38 1.206999 0.000003 0.000002 0.000000 0.000000 0.467622
    39 -9.614098 0.000005 38.566917 1.570796 0.000000 -1.570796
    40 20.592596 -42.395613 -3.130118 -0.000001 1.570796 -0.001055
  time 12
    0 1.293008 -2.785247 -12.105838 -1.570798 -1.391899 -1.570842
    1 2.033349 1.000767 1.937660 2.856300 -0.087016 1.424559
    2 6.028141 0.000000 0.000000 -2.130370 -0.097778 -0.451826
    3 11.692554 0.000001 0.000002 0.000000 0.000000 -1.474983
    4 11.481674 0.000001 -0.000032 0.882943 -0.532523 1.231014
    5 3.859709 -0.142404 -1.191975 -0.372602 0.151269 -0.938029
    6 1.312555 -0.000002 0.000001 0.000000 0.000000 -1.267558
    7 0.729363 -0.000002 -0.000002 0.000000 0.000000 -1.156049
    8 3.942335 0.046767 -0.431443 -0.282547 -0.012816 -0.829988
    9 1.539097 0.000000 0.000000 0.000000 0.000000 -1.277093
    10 1.196326 -0.000002 -0.000001 0.000000 0.000000 -1.795915
    11 3.883696 -0.046765 0.431443 -0.051699 -0.018864 -0.672085
    12 1.719570 -0.000004 -0.000001 0.000000 0.000000 -1.477147
    13 1.209171 -0.000002 0.000000 0.000000 0.000004 -1.391274
    14 3.859865 -0.137947 1.332466 0.160083 -0.013807 -0.792652
    15 1.719429 0.000002 -0.000001 0.000000 0.000011 -1.578940
    16 1.099665 0.000000 0.000000 0.000000 0.000007 -1.439580
    17 0.806053 -0.348925 1.321258 -1.297464 -0.379014 -0.751547
    18 1.789780 -0.000002 0.000002 0.000000 0.000000 0.288883
    19 1.207006 0.000000 0.000000 0.000000 0.000000 0.449501
    20 2.056794 1.094525 -1.890734 -0.104120 -0.097914 4.645120
    21 6.028144 0.000000 0.000000 -0.204662 0.496523 -2.729654
    22 11.692554 0.000001 0.000003 0.000000 -0.000012 -1.292591
    23 11.481697 0.000001 0.000002 -1.214941 -0.215880 0.577913
    24 3.859678 -0.132570 1.193109 0.121619 -0.096297 -0.922066
    25 1.312557 -0.000002 0.000001 0.000000 0.000000 -0.614204
    26 0.729365 0.000002 -0.000002 0.000000 0.000000 -1.378700
    27 3.942305 0.050327 0.431044 0.052412 -0.034057 -0.893759
    28 1.539099 -0.000002 0.000000 0.000000 0.000000 -1.033169
    29 1.196321 0.000008 0.000000 0.000000 0.000000 -1.390664
    30 3.883661 -0.050323 -0.431042 0.015688 -0.124349 -0.775366
    31 1.719578 0.000004 0.000000 0.000000 -0.007974 -1.588129
    32 1.209185 0.000002 0.000000 0.000000 -0.004460 -0.914507
    33 3.859838 -0.148937 -1.331282 0.137062 0.112673 -0.145626
    34 1.719423 0.000002 0.000000 0.000000 -0.006613 -0.973817
    35 1.099667 0.000002 0.000000 0.000000 -0.004210 -1.029708
    36 0.806021 -0.359837 -1.318334 1.307341 0.325294 -0.670080
    37 1.789782 0.000000 -0.000004 0.019720 0.080233 0.520342
    38 1.206999 0.000003 0.000002 0.000000 0.000000 0.467622
    39 -9.614098 0.000005 38.566917 1.570796 0.000000 -1.570796
    40 20.643379 -42.395613 -3.130118 -0.000001 1.570796 0.000000
end
