// Created by Crowbar 0.74
version 1
nodes
  0 "ValveBiped.Bip01_Spine4" -1
  1 "ValveBiped.Bip01_L_Clavicle" 0
  2 "ValveBiped.Bip01_L_UpperArm" 1
  3 "ValveBiped.Bip01_L_Forearm" 2
  4 "ValveBiped.Bip01_L_Hand" 3
  5 "ValveBiped.Bip01_L_Finger4" 4
  6 "ValveBiped.Bip01_L_Finger41" 5
  7 "ValveBiped.Bip01_L_Finger42" 6
  8 "ValveBiped.Bip01_L_Finger3" 4
  9 "ValveBiped.Bip01_L_Finger31" 8
  10 "ValveBiped.Bip01_L_Finger32" 9
  11 "ValveBiped.Bip01_L_Finger2" 4
  12 "ValveBiped.Bip01_L_Finger21" 11
  13 "ValveBiped.Bip01_L_Finger22" 12
  14 "ValveBiped.Bip01_L_Finger1" 4
  15 "ValveBiped.Bip01_L_Finger11" 14
  16 "ValveBiped.Bip01_L_Finger12" 15
  17 "ValveBiped.Bip01_L_Finger0" 4
  18 "ValveBiped.Bip01_L_Finger01" 17
  19 "ValveBiped.Bip01_L_Finger02" 18
  20 "ValveBiped.Bip01_R_Clavicle" 0
  21 "ValveBiped.Bip01_R_UpperArm" 20
  22 "ValveBiped.Bip01_R_Forearm" 21
  23 "ValveBiped.Bip01_R_Hand" 22
  24 "ValveBiped.Bip01_R_Finger4" 23
  25 "ValveBiped.Bip01_R_Finger41" 24
  26 "ValveBiped.Bip01_R_Finger42" 25
  27 "ValveBiped.Bip01_R_Finger3" 23
  28 "ValveBiped.Bip01_R_Finger31" 27
  29 "ValveBiped.Bip01_R_Finger32" 28
  30 "ValveBiped.Bip01_R_Finger2" 23
  31 "ValveBiped.Bip01_R_Finger21" 30
  32 "ValveBiped.Bip01_R_Finger22" 31
  33 "ValveBiped.Bip01_R_Finger1" 23
  34 "ValveBiped.Bip01_R_Finger11" 33
  35 "ValveBiped.Bip01_R_Finger12" 34
  36 "ValveBiped.Bip01_R_Finger0" 23
  37 "ValveBiped.Bip01_R_Finger01" 36
  38 "ValveBiped.Bip01_R_Finger02" 37
  39 "ValveBiped.Bip01" -1
  40 "ValveBiped.base" 39
end
skeleton
  time 0
    0 1.292969 -2.785156 -12.101563 -1.570781 -1.391896 -1.570809
    1 2.033349 1.000767 1.937660 2.856279 -0.086961 1.424556
    2 6.028141 0.000000 0.000000 -2.130370 -0.097778 -0.451826
    3 11.692554 0.000001 0.000002 0.000000 0.000000 -1.474983
    4 11.481674 0.000001 -0.000032 0.882943 -0.532523 1.231014
    5 3.859709 -0.142404 -1.191975 -0.372602 0.151269 -0.938029
    6 1.312555 -0.000002 0.000001 0.000000 0.000000 -1.267535
    7 0.729363 -0.000002 -0.000002 0.000000 0.000000 -1.156049
    8 3.942335 0.046767 -0.431443 -0.282547 -0.012816 -0.829988
    9 1.539097 0.000000 0.000000 0.000000 0.000000 -1.277064
    10 1.196326 -0.000002 -0.000001 0.000000 0.000000 -1.795954
    11 3.883696 -0.046765 0.431443 -0.051699 -0.018864 -0.672085
    12 1.719570 -0.000004 -0.000001 0.000000 0.000000 -1.477147
    13 1.209171 -0.000002 0.000000 0.000000 0.000000 -1.391309
    14 3.859865 -0.137947 1.332466 0.160078 -0.013795 -0.792663
    15 1.719429 0.000002 -0.000001 0.000000 0.000000 -1.578974
    16 1.099665 0.000000 0.000000 0.000000 0.000000 -1.439614
    17 0.806053 -0.348925 1.321258 -1.297464 -0.379014 -0.751547
    18 1.789780 -0.000002 0.000002 0.000000 0.000000 0.288883
    19 1.207006 0.000000 0.000000 0.000000 0.000000 0.449503
    20 2.033356 1.000772 -1.937610 -0.104119 -0.097955 -1.638025
    21 6.028144 0.000000 0.000000 -0.210271 0.491799 -2.736282
    22 11.692554 0.000001 0.000003 0.000000 0.000000 -1.282059
    23 11.481697 0.000001 0.000002 -1.215406 -0.211763 0.574409
    24 3.859678 -0.132570 1.193109 0.121614 -0.096285 -0.922066
    25 1.312557 -0.000002 0.000001 0.000000 0.000000 -0.614204
    26 0.729365 0.000002 -0.000002 0.000000 0.000000 -1.378735
    27 3.942305 0.050327 0.431044 0.052412 -0.034057 -0.893759
    28 1.539099 -0.000002 0.000000 0.000000 0.000000 -1.033169
    29 1.196321 0.000008 0.000000 0.000000 0.000000 -1.390664
    30 3.883661 -0.050323 -0.431042 0.015688 -0.124349 -0.775366
    31 1.719578 0.000004 0.000000 0.000000 -0.007974 -1.588166
    32 1.209185 0.000002 0.000000 0.000000 -0.004460 -0.914507
    33 3.859838 -0.148937 -1.331282 0.137062 0.112673 -0.145626
    34 1.719423 0.000002 0.000000 0.000000 -0.006613 -0.973817
    35 1.099667 0.000002 0.000000 0.000000 -0.004210 -1.029708
    36 0.806021 -0.359837 -1.318334 1.307340 0.325303 -0.670081
    37 1.789782 0.000000 -0.000004 0.019720 0.080233 0.520342
    38 1.206999 0.000003 0.000002 0.000000 0.000000 0.467622
    39 1.292969 -6.652344 -31.890625 1.570792 0.000003 -0.000003
    40 -7.775457 28.059662 13.991498 -0.000001 0.000000 0.000000
  time 1
    0 1.292969 -2.785156 -12.101563 -1.570781 -1.391896 -1.570809
    1 2.033349 1.000767 1.937660 2.856279 -0.086961 1.424556
    2 6.028141 0.000000 0.000000 -2.134236 -0.095920 -0.463913
    3 11.692554 0.000001 0.000002 0.000000 0.000000 -1.481463
    4 11.481674 0.000001 -0.000032 0.890230 -0.537317 1.233294
    5 3.859709 -0.142404 -1.191975 -0.372602 0.151269 -0.938029
    6 1.312555 -0.000002 0.000001 0.000000 0.000000 -1.267535
    7 0.729363 -0.000002 -0.000002 0.000000 0.000000 -1.156049
    8 3.942335 0.046767 -0.431443 -0.282547 -0.012816 -0.829988
    9 1.539097 0.000000 0.000000 0.000000 0.000000 -1.277064
    10 1.196326 -0.000002 -0.000001 0.000000 0.000000 -1.795954
    11 3.883696 -0.046765 0.431443 -0.051699 -0.018864 -0.672085
    12 1.719570 -0.000004 -0.000001 0.000000 0.000000 -1.477147
    13 1.209171 -0.000002 0.000000 0.000000 0.000000 -1.391309
    14 3.859865 -0.137947 1.332466 0.160078 -0.013795 -0.792663
    15 1.719429 0.000002 -0.000001 0.000000 0.000000 -1.578974
    16 1.099665 0.000000 0.000000 0.000000 0.000000 -1.439614
    17 0.806053 -0.348925 1.321258 -1.297464 -0.379014 -0.751547
    18 1.789780 -0.000002 0.000002 0.000000 0.000000 0.288883
    19 1.207006 0.000000 0.000000 0.000000 0.000000 0.449503
    20 2.033356 1.000772 -1.937610 -0.104119 -0.097955 -1.638025
    21 6.028144 0.000000 0.000000 -0.208040 0.492686 -2.731416
    22 11.692554 0.000001 0.000003 0.000000 0.000000 -1.286259
    23 11.481697 0.000001 0.000002 -1.215893 -0.216165 0.580676
    24 3.859678 -0.132570 1.193109 0.121614 -0.096285 -0.922066
    25 1.312557 -0.000002 0.000001 0.000000 0.000000 -0.614204
    26 0.729365 0.000002 -0.000002 0.000000 0.000000 -1.378700
    27 3.942305 0.050327 0.431044 0.052412 -0.034057 -0.893759
    28 1.539099 -0.000002 0.000000 0.000000 0.000000 -1.033145
    29 1.196321 0.000008 0.000000 0.000000 0.000000 -1.390664
    30 3.883661 -0.050323 -0.431042 0.015688 -0.124349 -0.775366
    31 1.719578 0.000004 0.000000 0.000000 -0.007974 -1.588129
    32 1.209185 0.000002 0.000000 0.000000 -0.004460 -0.914507
    33 3.859838 -0.148937 -1.331282 0.137062 0.112673 -0.145626
    34 1.719423 0.000002 0.000000 0.000000 -0.006613 -0.973835
    35 1.099667 0.000002 0.000000 0.000000 -0.004210 -1.029708
    36 0.806021 -0.359837 -1.318334 1.307340 0.325303 -0.670093
    37 1.789782 0.000000 -0.000004 0.019720 0.080233 0.520342
    38 1.206999 0.000003 0.000002 0.000000 0.000000 0.467622
    39 1.292969 -6.652344 -31.890625 1.570792 0.000003 -0.000003
    40 -7.775457 27.977629 13.991498 0.007538 0.001917 0.001941
  time 2
    0 1.292969 -2.785156 -12.101563 -1.570781 -1.391896 -1.570809
    1 2.033349 1.000767 1.937660 2.856279 -0.086961 1.424556
    2 6.028141 0.000000 0.000000 -2.143865 -0.090625 -0.495675
    3 11.692554 0.000001 0.000002 0.000000 0.000000 -1.498452
    4 11.481674 0.000001 -0.000032 0.908802 -0.549970 1.238911
    5 3.859709 -0.142404 -1.191975 -0.372602 0.151269 -0.938029
    6 1.312555 -0.000002 0.000001 0.000000 0.000000 -1.267560
    7 0.729363 -0.000002 -0.000002 0.000000 0.000000 -1.156049
    8 3.942335 0.046767 -0.431443 -0.282547 -0.012816 -0.829988
    9 1.539097 0.000000 0.000000 0.000000 0.000000 -1.277095
    10 1.196326 -0.000002 -0.000001 0.000000 0.000000 -1.795954
    11 3.883696 -0.046765 0.431443 -0.051699 -0.018864 -0.672085
    12 1.719570 -0.000004 -0.000001 0.000000 0.000000 -1.477147
    13 1.209171 -0.000002 0.000000 0.000000 0.000000 -1.391309
    14 3.859865 -0.137947 1.332466 0.160078 -0.013795 -0.792663
    15 1.719429 0.000002 -0.000001 0.000000 0.000000 -1.578974
    16 1.099665 0.000000 0.000000 0.000000 0.000000 -1.439614
    17 0.806053 -0.348925 1.321258 -1.297464 -0.379014 -0.751547
    18 1.789780 -0.000002 0.000002 0.000000 0.000000 0.288883
    19 1.207006 0.000000 0.000000 0.000000 0.000000 0.449503
    20 2.033356 1.000772 -1.937610 -0.104119 -0.097955 -1.638025
    21 6.028144 0.000000 0.000000 -0.201985 0.494904 -2.718413
    22 11.692554 0.000001 0.000003 0.000000 0.000000 -1.296985
    23 11.481697 0.000001 0.000002 -1.217421 -0.227906 0.597425
    24 3.859678 -0.132570 1.193109 0.121614 -0.096285 -0.922066
    25 1.312557 -0.000002 0.000001 0.000000 0.000000 -0.614204
    26 0.729365 0.000002 -0.000002 0.000000 0.000000 -1.378700
    27 3.942305 0.050327 0.431044 0.052412 -0.034057 -0.893759
    28 1.539099 -0.000002 0.000000 0.000000 0.000000 -1.033145
    29 1.196321 0.000008 0.000000 0.000000 0.000000 -1.390664
    30 3.883661 -0.050323 -0.431042 0.015688 -0.124349 -0.775366
    31 1.719578 0.000004 0.000000 0.000000 -0.007974 -1.588129
    32 1.209185 0.000002 0.000000 0.000000 -0.004460 -0.914507
    33 3.859838 -0.148937 -1.331282 0.137062 0.112673 -0.145626
    34 1.719423 0.000002 0.000000 0.000000 -0.006613 -0.973817
    35 1.099667 0.000002 0.000000 0.000000 -0.004210 -1.029708
    36 0.806021 -0.359837 -1.318334 1.307340 0.325303 -0.670093
    37 1.789782 0.000000 -0.000004 0.019720 0.080233 0.520342
    38 1.206999 0.000003 0.000002 0.000000 0.000000 0.467622
    39 1.292969 -6.652344 -31.890625 1.570792 0.000003 -0.000003
    40 -7.775457 27.754966 13.991498 0.027348 0.007047 0.007370
  time 3
    0 1.292969 -2.785156 -12.101563 -1.570781 -1.391896 -1.570809
    1 2.033349 1.000767 1.937660 2.856279 -0.086961 1.424556
    2 6.028141 0.000000 0.000000 -2.156113 -0.082224 -0.540006
    3 11.692554 0.000001 0.000002 0.000000 0.000000 -1.521746
    4 11.481674 0.000001 -0.000032 0.933353 -0.567447 1.246156
    5 3.859709 -0.142404 -1.191975 -0.372602 0.151269 -0.938029
    6 1.312555 -0.000002 0.000001 0.000000 0.000000 -1.267535
    7 0.729363 -0.000002 -0.000002 0.000000 0.000000 -1.156049
    8 3.942335 0.046767 -0.431443 -0.282547 -0.012816 -0.829988
    9 1.539097 0.000000 0.000000 0.000000 0.000000 -1.277064
    10 1.196326 -0.000002 -0.000001 0.000000 0.000000 -1.795954
    11 3.883696 -0.046765 0.431443 -0.051699 -0.018864 -0.672085
    12 1.719570 -0.000004 -0.000001 0.000000 0.000000 -1.477147
    13 1.209171 -0.000002 0.000000 0.000000 0.000000 -1.391309
    14 3.859865 -0.137947 1.332466 0.160078 -0.013795 -0.792663
    15 1.719429 0.000002 -0.000001 0.000000 0.000000 -1.578974
    16 1.099665 0.000000 0.000000 0.000000 0.000000 -1.439614
    17 0.806053 -0.348925 1.321258 -1.297464 -0.379014 -0.751547
    18 1.789780 -0.000002 0.000002 0.000000 0.000000 0.288883
    19 1.207006 0.000000 0.000000 0.000000 0.000000 0.449503
    20 2.033356 1.000772 -1.937610 -0.104119 -0.097955 -1.638025
    21 6.028144 0.000000 0.000000 -0.193316 0.497765 -2.699454
    22 11.692554 0.000001 0.000003 0.000000 0.000000 -1.311459
    23 11.481697 0.000001 0.000002 -1.219392 -0.244191 0.620071
    24 3.859678 -0.132570 1.193109 0.121614 -0.096285 -0.922066
    25 1.312557 -0.000002 0.000001 0.000000 0.000000 -0.614204
    26 0.729365 0.000002 -0.000002 0.000000 0.000000 -1.378700
    27 3.942305 0.050327 0.431044 0.052412 -0.034057 -0.893759
    28 1.539099 -0.000002 0.000000 0.000000 0.000000 -1.033145
    29 1.196321 0.000008 0.000000 0.000000 0.000000 -1.390664
    30 3.883661 -0.050323 -0.431042 0.015688 -0.124349 -0.775366
    31 1.719578 0.000004 0.000000 0.000000 -0.007974 -1.588129
    32 1.209185 0.000002 0.000000 0.000000 -0.004460 -0.914507
    33 3.859838 -0.148937 -1.331282 0.137062 0.112673 -0.145626
    34 1.719423 0.000002 0.000000 0.000000 -0.006613 -0.973817
    35 1.099667 0.000002 0.000000 0.000000 -0.004210 -1.029708
    36 0.806021 -0.359837 -1.318334 1.307340 0.325303 -0.670093
    37 1.789782 0.000000 -0.000004 0.019720 0.080233 0.520342
    38 1.206999 0.000003 0.000002 0.000000 0.000000 0.467622
    39 1.292969 -6.652344 -31.890625 1.570792 0.000003 -0.000003
    40 -7.775457 27.422924 13.991498 0.055236 0.014190 0.015748
  time 4
    0 1.292969 -2.785156 -12.101563 -1.570781 -1.391896 -1.570809
    1 2.033349 1.000767 1.937660 2.856279 -0.086961 1.424556
    2 6.028141 0.000000 0.000000 -2.168336 -0.071135 -0.590188
    3 11.692554 0.000001 0.000002 0.000000 0.000000 -1.547375
    4 11.481674 0.000001 -0.000032 0.959287 -0.587109 1.253157
    5 3.859709 -0.142404 -1.191975 -0.372602 0.151269 -0.938029
    6 1.312555 -0.000002 0.000001 0.000000 0.000000 -1.267535
    7 0.729363 -0.000002 -0.000002 0.000000 0.000000 -1.156049
    8 3.942335 0.046767 -0.431443 -0.282547 -0.012816 -0.829988
    9 1.539097 0.000000 0.000000 0.000000 0.000000 -1.277064
    10 1.196326 -0.000002 -0.000001 0.000000 0.000000 -1.795954
    11 3.883696 -0.046765 0.431443 -0.051699 -0.018864 -0.672085
    12 1.719570 -0.000004 -0.000001 0.000000 0.000000 -1.477147
    13 1.209171 -0.000002 0.000000 0.000000 0.000000 -1.391309
    14 3.859865 -0.137947 1.332466 0.160078 -0.013795 -0.792663
    15 1.719429 0.000002 -0.000001 0.000000 0.000000 -1.578974
    16 1.099665 0.000000 0.000000 0.000000 0.000000 -1.439614
    17 0.806053 -0.348925 1.321258 -1.297464 -0.379014 -0.751547
    18 1.789780 -0.000002 0.000002 0.000000 0.000000 0.288883
    19 1.207006 0.000000 0.000000 0.000000 0.000000 0.449503
    20 2.033356 1.000772 -1.937610 -0.104119 -0.097955 -1.638025
    21 6.028144 0.000000 0.000000 -0.183245 0.500581 -2.676888
    22 11.692554 0.000001 0.000003 0.000000 0.000000 -1.326902
    23 11.481697 0.000001 0.000002 -1.221230 -0.262351 0.644226
    24 3.859678 -0.132570 1.193109 0.121614 -0.096285 -0.922066
    25 1.312557 -0.000002 0.000001 0.000000 0.000000 -0.614204
    26 0.729365 0.000002 -0.000002 0.000000 0.000000 -1.378735
    27 3.942305 0.050327 0.431044 0.052412 -0.034057 -0.893759
    28 1.539099 -0.000002 0.000000 0.000000 0.000000 -1.033145
    29 1.196321 0.000008 0.000000 0.000000 0.000000 -1.390664
    30 3.883661 -0.050323 -0.431042 0.015688 -0.124349 -0.775366
    31 1.719578 0.000004 0.000000 0.000000 -0.007974 -1.588129
    32 1.209185 0.000002 0.000000 0.000000 -0.004460 -0.914507
    33 3.859838 -0.148937 -1.331282 0.137062 0.112673 -0.145626
    34 1.719423 0.000002 0.000000 0.000000 -0.006613 -0.973817
    35 1.099667 0.000002 0.000000 0.000000 -0.004210 -1.029708
    36 0.806021 -0.359837 -1.318334 1.307340 0.325303 -0.670093
    37 1.789782 0.000000 -0.000004 0.019720 0.080233 0.520342
    38 1.206999 0.000003 0.000002 0.000000 0.000000 0.467622
    39 1.292969 -6.652344 -31.890625 1.570792 0.000003 -0.000003
    40 -7.775457 27.020568 13.991498 0.086995 0.022195 0.026438
  time 5
    0 1.292969 -2.785156 -12.101563 -1.570781 -1.391896 -1.570809
    1 2.033349 1.000767 1.937660 2.856279 -0.086961 1.424556
    2 6.028141 0.000000 0.000000 -2.178912 -0.058021 -0.640370
    3 11.692554 0.000001 0.000002 0.000000 0.000000 -1.571719
    4 11.481674 0.000001 -0.000032 0.983540 -0.606831 1.257838
    5 3.859709 -0.142404 -1.191975 -0.372602 0.151269 -0.938029
    6 1.312555 -0.000002 0.000001 0.000000 0.000000 -1.267535
    7 0.729363 -0.000002 -0.000002 0.000000 0.000000 -1.156049
    8 3.942335 0.046767 -0.431443 -0.282547 -0.012816 -0.829988
    9 1.539097 0.000000 0.000000 0.000000 0.000000 -1.277064
    10 1.196326 -0.000002 -0.000001 0.000000 0.000000 -1.795954
    11 3.883696 -0.046765 0.431443 -0.051699 -0.018864 -0.672085
    12 1.719570 -0.000004 -0.000001 0.000000 0.000000 -1.477147
    13 1.209171 -0.000002 0.000000 0.000000 0.000000 -1.391309
    14 3.859865 -0.137947 1.332466 0.160078 -0.013795 -0.792663
    15 1.719429 0.000002 -0.000001 0.000000 0.000000 -1.578974
    16 1.099665 0.000000 0.000000 0.000000 0.000000 -1.439614
    17 0.806053 -0.348925 1.321258 -1.297464 -0.379014 -0.751547
    18 1.789780 -0.000002 0.000002 0.000000 0.000000 0.288883
    19 1.207006 0.000000 0.000000 0.000000 0.000000 0.449503
    20 2.033356 1.000772 -1.937610 -0.104119 -0.097955 -1.638025
    21 6.028144 0.000000 0.000000 -0.172792 0.502821 -2.652559
    22 11.692554 0.000001 0.000003 0.000000 0.000000 -1.341117
    23 11.481697 0.000001 0.000002 -1.222381 -0.280002 0.665817
    24 3.859678 -0.132570 1.193109 0.121614 -0.096285 -0.922066
    25 1.312557 -0.000002 0.000001 0.000000 0.000000 -0.614204
    26 0.729365 0.000002 -0.000002 0.000000 0.000000 -1.378700
    27 3.942305 0.050327 0.431044 0.052412 -0.034057 -0.893759
    28 1.539099 -0.000002 0.000000 0.000000 0.000000 -1.033145
    29 1.196321 0.000008 0.000000 0.000000 0.000000 -1.390664
    30 3.883661 -0.050323 -0.431042 0.015688 -0.124349 -0.775366
    31 1.719578 0.000004 0.000000 0.000000 -0.007974 -1.588129
    32 1.209185 0.000002 0.000000 0.000000 -0.004460 -0.914507
    33 3.859838 -0.148937 -1.331282 0.137062 0.112673 -0.145626
    34 1.719423 0.000002 0.000000 0.000000 -0.006613 -0.973817
    35 1.099667 0.000002 0.000000 0.000000 -0.004210 -1.029708
    36 0.806021 -0.359837 -1.318334 1.307340 0.325303 -0.670093
    37 1.789782 0.000000 -0.000004 0.019720 0.080233 0.520342
    38 1.206999 0.000003 0.000002 0.000000 0.000000 0.467622
    39 1.292969 -6.652344 -31.890625 1.570792 0.000003 -0.000003
    40 -7.775457 26.586961 13.991498 0.118383 0.030249 0.038626
  time 6
    0 1.292969 -2.785156 -12.101563 -1.570781 -1.391896 -1.570809
    1 2.033349 1.000767 1.937660 2.856279 -0.086961 1.424556
    2 6.028141 0.000000 0.000000 -2.187244 -0.043993 -0.685955
    3 11.692554 0.000001 0.000002 0.000000 0.000000 -1.592386
    4 11.481674 0.000001 -0.000032 1.004653 -0.625309 1.258693
    5 3.859709 -0.142404 -1.191975 -0.372602 0.151269 -0.938029
    6 1.312555 -0.000002 0.000001 0.000000 0.000000 -1.267535
    7 0.729363 -0.000002 -0.000002 0.000000 0.000000 -1.156049
    8 3.942335 0.046767 -0.431443 -0.282547 -0.012816 -0.829988
    9 1.539097 0.000000 0.000000 0.000000 0.000000 -1.277064
    10 1.196326 -0.000002 -0.000001 0.000000 0.000000 -1.795954
    11 3.883696 -0.046765 0.431443 -0.051699 -0.018864 -0.672085
    12 1.719570 -0.000004 -0.000001 0.000000 0.000000 -1.477147
    13 1.209171 -0.000002 0.000000 0.000000 0.000000 -1.391309
    14 3.859865 -0.137947 1.332466 0.160078 -0.013795 -0.792663
    15 1.719429 0.000002 -0.000001 0.000000 0.000000 -1.578974
    16 1.099665 0.000000 0.000000 0.000000 0.000000 -1.439614
    17 0.806053 -0.348925 1.321258 -1.297464 -0.379014 -0.751547
    18 1.789780 -0.000002 0.000002 0.000000 0.000000 0.288883
    19 1.207006 0.000000 0.000000 0.000000 0.000000 0.449503
    20 2.033356 1.000772 -1.937610 -0.104119 -0.097955 -1.638025
    21 6.028144 0.000000 0.000000 -0.162848 0.504174 -2.628231
    22 11.692554 0.000001 0.000003 0.000000 0.000000 -1.352554
    23 11.481697 0.000001 0.000002 -1.221628 -0.294922 0.680515
    24 3.859678 -0.132570 1.193109 0.121614 -0.096285 -0.922066
    25 1.312557 -0.000002 0.000001 0.000000 0.000000 -0.614204
    26 0.729365 0.000002 -0.000002 0.000000 0.000000 -1.378700
    27 3.942305 0.050327 0.431044 0.052412 -0.034057 -0.893759
    28 1.539099 -0.000002 0.000000 0.000000 0.000000 -1.033169
    29 1.196321 0.000008 0.000000 0.000000 0.000000 -1.390664
    30 3.883661 -0.050323 -0.431042 0.015688 -0.124349 -0.775366
    31 1.719578 0.000004 0.000000 0.000000 -0.007974 -1.588129
    32 1.209185 0.000002 0.000000 0.000000 -0.004460 -0.914507
    33 3.859838 -0.148937 -1.331282 0.137062 0.112673 -0.145626
    34 1.719423 0.000002 0.000000 0.000000 -0.006613 -0.973817
    35 1.099667 0.000002 0.000000 0.000000 -0.004210 -1.029708
    36 0.806021 -0.359837 -1.318334 1.307340 0.325303 -0.670093
    37 1.789782 0.000000 -0.000004 0.019720 0.080233 0.520342
    38 1.206999 0.000003 0.000002 0.000000 0.000000 0.467622
    39 1.292969 -6.652344 -31.890625 1.570792 0.000003 -0.000003
    40 -7.775457 26.149448 13.991498 0.145792 0.037727 0.051222
  time 7
    0 1.292969 -2.785156 -12.101563 -1.570781 -1.391896 -1.570809
    1 2.033349 1.000767 1.937660 2.856279 -0.086961 1.424556
    2 6.028141 0.000000 0.000000 -2.193430 -0.030491 -0.724435
    3 11.692554 0.000001 0.000002 0.000000 0.000000 -1.608382
    4 11.481674 0.000001 -0.000032 1.021917 -0.641269 1.256454
    5 3.859709 -0.142404 -1.191975 -0.372602 0.151269 -0.938029
    6 1.312555 -0.000002 0.000001 0.000000 0.000000 -1.267535
    7 0.729363 -0.000002 -0.000002 0.000000 0.000000 -1.156049
    8 3.942335 0.046767 -0.431443 -0.282547 -0.012816 -0.829988
    9 1.539097 0.000000 0.000000 0.000000 0.000000 -1.277064
    10 1.196326 -0.000002 -0.000001 0.000000 0.000000 -1.795954
    11 3.883696 -0.046765 0.431443 -0.051699 -0.018864 -0.672085
    12 1.719570 -0.000004 -0.000001 0.000000 0.000000 -1.477147
    13 1.209171 -0.000002 0.000000 0.000000 0.000000 -1.391309
    14 3.859865 -0.137947 1.332466 0.160078 -0.013795 -0.792663
    15 1.719429 0.000002 -0.000001 0.000000 0.000000 -1.578974
    16 1.099665 0.000000 0.000000 0.000000 0.000000 -1.439614
    17 0.806053 -0.348925 1.321258 -1.297464 -0.379014 -0.751547
    18 1.789780 -0.000002 0.000002 0.000000 0.000000 0.288883
    19 1.207006 0.000000 0.000000 0.000000 0.000000 0.449503
    20 2.033356 1.000772 -1.937610 -0.104119 -0.097955 -1.638025
    21 6.028144 0.000000 0.000000 -0.154116 0.504751 -2.606000
    22 11.692554 0.000001 0.000003 0.000000 0.000000 -1.361019
    23 11.481697 0.000001 0.000002 -1.220322 -0.306662 0.689545
    24 3.859678 -0.132570 1.193109 0.121614 -0.096285 -0.922066
    25 1.312557 -0.000002 0.000001 0.000000 0.000000 -0.614204
    26 0.729365 0.000002 -0.000002 0.000000 0.000000 -1.378735
    27 3.942305 0.050327 0.431044 0.052412 -0.034057 -0.893759
    28 1.539099 -0.000002 0.000000 0.000000 0.000000 -1.033145
    29 1.196321 0.000008 0.000000 0.000000 0.000000 -1.390664
    30 3.883661 -0.050323 -0.431042 0.015688 -0.124349 -0.775366
    31 1.719578 0.000004 0.000000 0.000000 -0.007974 -1.588129
    32 1.209185 0.000002 0.000000 0.000000 -0.004460 -0.914507
    33 3.859838 -0.148937 -1.331282 0.137062 0.112673 -0.145626
    34 1.719423 0.000002 0.000000 0.000000 -0.006613 -0.973817
    35 1.099667 0.000002 0.000000 0.000000 -0.004210 -1.029708
    36 0.806021 -0.359837 -1.318334 1.307340 0.325303 -0.670093
    37 1.789782 0.000000 -0.000004 0.019720 0.080233 0.520342
    38 1.206999 0.000003 0.000002 0.000000 0.000000 0.467622
    39 1.292969 -6.652344 -31.890625 1.570792 0.000003 -0.000003
    40 -7.775457 25.747092 13.991498 0.168047 0.044103 0.063087
  time 8
    0 1.292969 -2.785156 -12.101563 -1.570781 -1.391896 -1.570809
    1 2.033349 1.000767 1.937660 2.856279 -0.086961 1.424556
    2 6.028141 0.000000 0.000000 -2.197771 -0.018986 -0.754043
    3 11.692554 0.000001 0.000002 0.000000 0.000000 -1.619649
    4 11.481674 0.000001 -0.000032 1.034959 -0.653770 1.252709
    5 3.859709 -0.142404 -1.191975 -0.372602 0.151269 -0.938029
    6 1.312555 -0.000002 0.000001 0.000000 0.000000 -1.267535
    7 0.729363 -0.000002 -0.000002 0.000000 0.000000 -1.156049
    8 3.942335 0.046767 -0.431443 -0.282547 -0.012816 -0.829988
    9 1.539097 0.000000 0.000000 0.000000 0.000000 -1.277064
    10 1.196326 -0.000002 -0.000001 0.000000 0.000000 -1.795954
    11 3.883696 -0.046765 0.431443 -0.051699 -0.018864 -0.672085
    12 1.719570 -0.000004 -0.000001 0.000000 0.000000 -1.477147
    13 1.209171 -0.000002 0.000000 0.000000 0.000000 -1.391309
    14 3.859865 -0.137947 1.332466 0.160078 -0.013795 -0.792663
    15 1.719429 0.000002 -0.000001 0.000000 0.000000 -1.578974
    16 1.099665 0.000000 0.000000 0.000000 0.000000 -1.439614
    17 0.806053 -0.348925 1.321258 -1.297464 -0.379014 -0.751547
    18 1.789780 -0.000002 0.000002 0.000000 0.000000 0.288883
    19 1.207006 0.000000 0.000000 0.000000 0.000000 0.449503
    20 2.033356 1.000772 -1.937610 -0.104119 -0.097955 -1.638025
    21 6.028144 0.000000 0.000000 -0.147232 0.504817 -2.587712
    22 11.692554 0.000001 0.000003 0.000000 0.000000 -1.366576
    23 11.481697 0.000001 0.000002 -1.217775 -0.315651 0.694245
    24 3.859678 -0.132570 1.193109 0.121614 -0.096285 -0.922066
    25 1.312557 -0.000002 0.000001 0.000000 0.000000 -0.614204
    26 0.729365 0.000002 -0.000002 0.000000 0.000000 -1.378700
    27 3.942305 0.050327 0.431044 0.052412 -0.034057 -0.893759
    28 1.539099 -0.000002 0.000000 0.000000 0.000000 -1.033145
    29 1.196321 0.000008 0.000000 0.000000 0.000000 -1.390664
    30 3.883661 -0.050323 -0.431042 0.015688 -0.124349 -0.775366
    31 1.719578 0.000004 0.000000 0.000000 -0.007974 -1.588129
    32 1.209185 0.000002 0.000000 0.000000 -0.004460 -0.914507
    33 3.859838 -0.148937 -1.331282 0.137062 0.112673 -0.145626
    34 1.719423 0.000002 0.000000 0.000000 -0.006613 -0.973817
    35 1.099667 0.000002 0.000000 0.000000 -0.004210 -1.029708
    36 0.806021 -0.359837 -1.318334 1.307340 0.325303 -0.670093
    37 1.789782 0.000000 -0.000004 0.019720 0.080233 0.520342
    38 1.206999 0.000003 0.000002 0.000000 0.000000 0.467622
    39 1.292969 -6.652344 -31.890625 1.570792 0.000003 -0.000003
    40 -7.775457 25.418957 13.991498 0.184622 0.049041 0.073022
  time 9
    0 1.292969 -2.785156 -12.101563 -1.570781 -1.391896 -1.570809
    1 2.033349 1.000767 1.937660 2.856279 -0.086961 1.424556
    2 6.028141 0.000000 0.000000 -2.200365 -0.011029 -0.773138
    3 11.692554 0.000001 0.000002 0.000000 0.000000 -1.626363
    4 11.481674 0.000001 -0.000032 1.043330 -0.661993 1.249168
    5 3.859709 -0.142404 -1.191975 -0.372602 0.151269 -0.938029
    6 1.312555 -0.000002 0.000001 0.000000 0.000000 -1.267535
    7 0.729363 -0.000002 -0.000002 0.000000 0.000000 -1.156049
    8 3.942335 0.046767 -0.431443 -0.282547 -0.012816 -0.829988
    9 1.539097 0.000000 0.000000 0.000000 0.000000 -1.277064
    10 1.196326 -0.000002 -0.000001 0.000000 0.000000 -1.795954
    11 3.883696 -0.046765 0.431443 -0.051699 -0.018864 -0.672085
    12 1.719570 -0.000004 -0.000001 0.000000 0.000000 -1.477147
    13 1.209171 -0.000002 0.000000 0.000000 0.000000 -1.391309
    14 3.859865 -0.137947 1.332466 0.160078 -0.013795 -0.792663
    15 1.719429 0.000002 -0.000001 0.000000 0.000000 -1.578974
    16 1.099665 0.000000 0.000000 0.000000 0.000000 -1.439614
    17 0.806053 -0.348925 1.321258 -1.297464 -0.379014 -0.751547
    18 1.789780 -0.000002 0.000002 0.000000 0.000000 0.288883
    19 1.207006 0.000000 0.000000 0.000000 0.000000 0.449503
    20 2.033356 1.000772 -1.937610 -0.104119 -0.097955 -1.638025
    21 6.028144 0.000000 0.000000 -0.142706 0.504640 -2.575380
    22 11.692554 0.000001 0.000003 0.000000 0.000000 -1.369678
    23 11.481697 0.000001 0.000002 -1.216181 -0.320868 0.695755
    24 3.859678 -0.132570 1.193109 0.121614 -0.096285 -0.922066
    25 1.312557 -0.000002 0.000001 0.000000 0.000000 -0.614204
    26 0.729365 0.000002 -0.000002 0.000000 0.000000 -1.378700
    27 3.942305 0.050327 0.431044 0.052412 -0.034057 -0.893759
    28 1.539099 -0.000002 0.000000 0.000000 0.000000 -1.033169
    29 1.196321 0.000008 0.000000 0.000000 0.000000 -1.390664
    30 3.883661 -0.050323 -0.431042 0.015688 -0.124349 -0.775366
    31 1.719578 0.000004 0.000000 0.000000 -0.007974 -1.588129
    32 1.209185 0.000002 0.000000 0.000000 -0.004460 -0.914507
    33 3.859838 -0.148937 -1.331282 0.137062 0.112673 -0.145626
    34 1.719423 0.000002 0.000000 0.000000 -0.006613 -0.973817
    35 1.099667 0.000002 0.000000 0.000000 -0.004210 -1.029708
    36 0.806021 -0.359837 -1.318334 1.307340 0.325303 -0.670093
    37 1.789782 0.000000 -0.000004 0.019720 0.080233 0.520342
    38 1.206999 0.000003 0.000002 0.000000 0.000000 0.467622
    39 1.292969 -6.652344 -31.890625 1.570792 0.000003 -0.000003
    40 -7.775457 25.192387 13.991498 0.194977 0.052301 0.079829
  time 10
    0 1.292969 -2.785156 -12.101563 -1.570781 -1.391896 -1.570809
    1 2.033349 1.000767 1.937660 2.856279 -0.086961 1.424556
    2 6.028141 0.000000 0.000000 -2.201263 -0.008090 -0.779921
    3 11.692554 0.000001 0.000002 0.000000 0.000000 -1.628640
    4 11.481674 0.000001 -0.000032 1.046357 -0.664966 1.247581
    5 3.859709 -0.142404 -1.191975 -0.372602 0.151269 -0.938029
    6 1.312555 -0.000002 0.000001 0.000000 0.000000 -1.267535
    7 0.729363 -0.000002 -0.000002 0.000000 0.000000 -1.156049
    8 3.942335 0.046767 -0.431443 -0.282547 -0.012816 -0.829988
    9 1.539097 0.000000 0.000000 0.000000 0.000000 -1.277064
    10 1.196326 -0.000002 -0.000001 0.000000 0.000000 -1.795954
    11 3.883696 -0.046765 0.431443 -0.051699 -0.018864 -0.672085
    12 1.719570 -0.000004 -0.000001 0.000000 0.000000 -1.477147
    13 1.209171 -0.000002 0.000000 0.000000 0.000000 -1.391309
    14 3.859865 -0.137947 1.332466 0.160078 -0.013795 -0.792663
    15 1.719429 0.000002 -0.000001 0.000000 0.000000 -1.578974
    16 1.099665 0.000000 0.000000 0.000000 0.000000 -1.439614
    17 0.806053 -0.348925 1.321258 -1.297464 -0.379014 -0.751547
    18 1.789780 -0.000002 0.000002 0.000000 0.000000 0.288883
    19 1.207006 0.000000 0.000000 0.000000 0.000000 0.449503
    20 2.033356 1.000772 -1.937610 -0.104119 -0.097955 -1.638025
    21 6.028144 0.000000 0.000000 -0.141049 0.504529 -2.570850
    22 11.692554 0.000001 0.000003 0.000000 0.000000 -1.370647
    23 11.481697 0.000001 0.000002 -1.215140 -0.322907 0.696040
    24 3.859678 -0.132570 1.193109 0.121614 -0.096285 -0.922066
    25 1.312557 -0.000002 0.000001 0.000000 0.000000 -0.614204
    26 0.729365 0.000002 -0.000002 0.000000 0.000000 -1.378700
    27 3.942305 0.050327 0.431044 0.052412 -0.034057 -0.893759
    28 1.539099 -0.000002 0.000000 0.000000 0.000000 -1.033145
    29 1.196321 0.000008 0.000000 0.000000 0.000000 -1.390693
    30 3.883661 -0.050323 -0.431042 0.015688 -0.124349 -0.775366
    31 1.719578 0.000004 0.000000 0.000000 -0.007974 -1.588129
    32 1.209185 0.000002 0.000000 0.000000 -0.004460 -0.914507
    33 3.859838 -0.148937 -1.331282 0.137062 0.112673 -0.145626
    34 1.719423 0.000002 0.000000 0.000000 -0.006613 -0.973817
    35 1.099667 0.000002 0.000000 0.000000 -0.004210 -1.029708
    36 0.806021 -0.359837 -1.318334 1.307340 0.325303 -0.670093
    37 1.789782 0.000000 -0.000004 0.019720 0.080233 0.520342
    38 1.206999 0.000003 0.000002 0.000000 0.000000 0.467622
    39 1.292969 -6.652344 -31.890625 1.570792 0.000003 -0.000003
    40 -7.775457 25.110354 13.991498 0.198548 0.053451 0.082346
end
