// Created by Crowbar 0.74
version 1
nodes
  0 "ValveBiped.Bip01_Spine4" -1
  1 "ValveBiped.Bip01_L_Clavicle" 0
  2 "ValveBiped.Bip01_L_UpperArm" 1
  3 "ValveBiped.Bip01_L_Forearm" 2
  4 "ValveBiped.Bip01_L_Hand" 3
  5 "ValveBiped.Bip01_L_Finger4" 4
  6 "ValveBiped.Bip01_L_Finger41" 5
  7 "ValveBiped.Bip01_L_Finger42" 6
  8 "ValveBiped.Bip01_L_Finger3" 4
  9 "ValveBiped.Bip01_L_Finger31" 8
  10 "ValveBiped.Bip01_L_Finger32" 9
  11 "ValveBiped.Bip01_L_Finger2" 4
  12 "ValveBiped.Bip01_L_Finger21" 11
  13 "ValveBiped.Bip01_L_Finger22" 12
  14 "ValveBiped.Bip01_L_Finger1" 4
  15 "ValveBiped.Bip01_L_Finger11" 14
  16 "ValveBiped.Bip01_L_Finger12" 15
  17 "ValveBiped.Bip01_L_Finger0" 4
  18 "ValveBiped.Bip01_L_Finger01" 17
  19 "ValveBiped.Bip01_L_Finger02" 18
  20 "ValveBiped.Bip01_R_Clavicle" 0
  21 "ValveBiped.Bip01_R_UpperArm" 20
  22 "ValveBiped.Bip01_R_Forearm" 21
  23 "ValveBiped.Bip01_R_Hand" 22
  24 "ValveBiped.Bip01_R_Finger4" 23
  25 "ValveBiped.Bip01_R_Finger41" 24
  26 "ValveBiped.Bip01_R_Finger42" 25
  27 "ValveBiped.Bip01_R_Finger3" 23
  28 "ValveBiped.Bip01_R_Finger31" 27
  29 "ValveBiped.Bip01_R_Finger32" 28
  30 "ValveBiped.Bip01_R_Finger2" 23
  31 "ValveBiped.Bip01_R_Finger21" 30
  32 "ValveBiped.Bip01_R_Finger22" 31
  33 "ValveBiped.Bip01_R_Finger1" 23
  34 "ValveBiped.Bip01_R_Finger11" 33
  35 "ValveBiped.Bip01_R_Finger12" 34
  36 "ValveBiped.Bip01_R_Finger0" 23
  37 "ValveBiped.Bip01_R_Finger01" 36
  38 "ValveBiped.Bip01_R_Finger02" 37
  39 "ValveBiped.Bip01" -1
  40 "ValveBiped.base" 39
end
skeleton
  time 0
    0 1.292969 -2.785156 -12.101563 -1.570781 -1.391896 -1.570809
    1 2.033349 1.000767 1.937660 2.856279 -0.086961 1.424556
    2 6.028141 0.000000 0.000000 -2.201263 -0.008090 -0.779921
    3 11.692554 0.000001 0.000002 0.000000 0.000000 -1.628640
    4 11.481674 0.000001 -0.000032 1.046357 -0.664966 1.247581
    5 3.859709 -0.142404 -1.191975 -0.372602 0.151269 -0.938029
    6 1.312555 -0.000002 0.000001 0.000000 0.000000 -1.267558
    7 0.729363 -0.000002 -0.000002 0.000000 0.000000 -1.156049
    8 3.942335 0.046767 -0.431443 -0.282547 -0.012816 -0.829988
    9 1.539097 0.000000 0.000000 0.000000 0.000000 -1.277064
    10 1.196326 -0.000002 -0.000001 0.000000 0.000000 -1.795954
    11 3.883696 -0.046765 0.431443 -0.051699 -0.018864 -0.672085
    12 1.719570 -0.000004 -0.000001 0.000000 0.000000 -1.477147
    13 1.209171 -0.000002 0.000000 0.000000 0.000000 -1.391309
    14 3.859865 -0.137947 1.332466 0.160078 -0.013795 -0.792663
    15 1.719429 0.000002 -0.000001 0.000000 0.000000 -1.578974
    16 1.099665 0.000000 0.000000 0.000000 0.000000 -1.439614
    17 0.806053 -0.348925 1.321258 -1.297464 -0.379014 -0.751547
    18 1.789780 -0.000002 0.000002 0.000000 0.000000 0.288883
    19 1.207006 0.000000 0.000000 0.000000 0.000000 0.449503
    20 2.033356 1.000772 -1.937610 -0.104119 -0.097955 -1.638025
    21 6.028144 0.000000 0.000000 -0.141049 0.504529 -2.570850
    22 11.692554 0.000001 0.000003 0.000000 0.000000 -1.370647
    23 11.481697 0.000001 0.000002 -1.215140 -0.322907 0.696040
    24 3.859678 -0.132570 1.193109 0.121614 -0.096285 -0.922066
    25 1.312557 -0.000002 0.000001 0.000000 0.000000 -0.614204
    26 0.729365 0.000002 -0.000002 0.000000 0.000000 -1.378700
    27 3.942305 0.050327 0.431044 0.052412 -0.034057 -0.893759
    28 1.539099 -0.000002 0.000000 0.000000 0.000000 -1.033145
    29 1.196321 0.000008 0.000000 0.000000 0.000000 -1.390693
    30 3.883661 -0.050323 -0.431042 0.015688 -0.124349 -0.775366
    31 1.719578 0.000004 0.000000 0.000000 -0.007972 -1.588163
    32 1.209185 0.000002 0.000000 0.000000 -0.004460 -0.914507
    33 3.859838 -0.148937 -1.331282 0.137062 0.112673 -0.145626
    34 1.719423 0.000002 0.000000 0.000000 -0.006612 -0.973834
    35 1.099667 0.000002 0.000000 0.000000 -0.004210 -1.029708
    36 0.806021 -0.359837 -1.318334 1.307340 0.325303 -0.670093
    37 1.789782 0.000000 -0.000004 0.019720 0.080233 0.520342
    38 1.206999 0.000003 0.000002 0.000000 0.000000 0.467622
    39 1.292969 -6.652344 -31.890625 1.570792 0.000003 -0.000003
    40 -7.775457 25.110354 13.991498 0.198548 0.053451 0.082346
  time 1
    0 1.292969 -2.785156 -12.101563 -1.570781 -1.391896 -1.570809
    1 2.033349 1.000767 1.937660 2.856279 -0.086961 1.424556
    2 6.028141 0.000000 0.000000 -2.198868 -0.011777 -0.765101
    3 11.692554 0.000001 0.000002 0.000000 0.000000 -1.624320
    4 11.481674 0.000001 -0.000032 1.042358 -0.661143 1.248557
    5 3.859709 -0.142404 -1.191975 -0.372602 0.151269 -0.938029
    6 1.312555 -0.000002 0.000001 0.000000 0.000000 -1.267558
    7 0.729363 -0.000002 -0.000002 0.000000 0.000000 -1.156049
    8 3.942335 0.046767 -0.431443 -0.282547 -0.012816 -0.829988
    9 1.539097 0.000000 0.000000 0.000000 0.000000 -1.277095
    10 1.196326 -0.000002 -0.000001 0.000000 0.000000 -1.795954
    11 3.883696 -0.046765 0.431443 -0.051699 -0.018864 -0.672085
    12 1.719570 -0.000004 -0.000001 0.000000 0.000000 -1.477147
    13 1.209171 -0.000002 0.000000 0.000000 0.000000 -1.391309
    14 3.859865 -0.137947 1.332466 0.160078 -0.013795 -0.792663
    15 1.719429 0.000002 -0.000001 0.000000 0.000000 -1.578974
    16 1.099665 0.000000 0.000000 0.000000 0.000000 -1.439614
    17 0.806053 -0.348925 1.321258 -1.297464 -0.379014 -0.751547
    18 1.789780 -0.000002 0.000002 0.000000 0.000000 0.288883
    19 1.207006 0.000000 0.000000 0.000000 0.000000 0.449503
    20 2.033356 1.000772 -1.937610 -0.104119 -0.097955 -1.638025
    21 6.028144 0.000000 0.000000 -0.144045 0.504307 -2.578149
    22 11.692554 0.000001 0.000003 0.000000 0.000000 -1.367093
    23 11.481697 0.000001 0.000002 -1.212173 -0.319788 0.688861
    24 3.859678 -0.132570 1.193109 0.121614 -0.096285 -0.922066
    25 1.312557 -0.000002 0.000001 0.000000 0.000000 -0.614204
    26 0.729365 0.000002 -0.000002 0.000000 0.000000 -1.378700
    27 3.942305 0.050327 0.431044 0.052412 -0.034057 -0.893759
    28 1.539099 -0.000002 0.000000 0.000000 0.000000 -1.033145
    29 1.196321 0.000008 0.000000 0.000000 0.000000 -1.390664
    30 3.883661 -0.050323 -0.431042 0.015688 -0.124349 -0.775366
    31 1.719578 0.000004 0.000000 0.000000 -0.007972 -1.588163
    32 1.209185 0.000002 0.000000 0.000000 -0.004460 -0.914507
    33 3.859838 -0.148937 -1.331282 0.137062 0.112673 -0.145626
    34 1.719423 0.000002 0.000000 0.000000 -0.006612 -0.973834
    35 1.099667 0.000002 0.000000 0.000000 -0.004210 -1.029708
    36 0.806021 -0.359837 -1.318334 1.307340 0.325303 -0.670093
    37 1.789782 0.000000 -0.000004 0.019720 0.080233 0.520342
    38 1.206999 0.000003 0.000002 0.000000 0.000000 0.467622
    39 1.292969 -6.652344 -31.890625 1.570792 0.000003 -0.000003
    40 -7.775457 25.254889 13.991498 0.188349 0.053499 0.080417
  time 2
    0 1.292969 -2.785156 -12.101563 -1.570781 -1.391896 -1.570809
    1 2.033349 1.000767 1.937660 2.856279 -0.086961 1.424556
    2 6.028141 0.000000 0.000000 -2.193530 -0.019762 -0.733404
    3 11.692554 0.000001 0.000002 0.000000 0.000000 -1.614453
    4 11.481674 0.000001 -0.000032 1.032418 -0.652010 1.251162
    5 3.859709 -0.142404 -1.191975 -0.372602 0.151269 -0.938029
    6 1.312555 -0.000002 0.000001 0.000000 0.000000 -1.267558
    7 0.729363 -0.000002 -0.000002 0.000000 0.000000 -1.156049
    8 3.942335 0.046767 -0.431443 -0.282547 -0.012816 -0.829988
    9 1.539097 0.000000 0.000000 0.000000 0.000000 -1.277064
    10 1.196326 -0.000002 -0.000001 0.000000 0.000000 -1.795954
    11 3.883696 -0.046765 0.431443 -0.051699 -0.018864 -0.672085
    12 1.719570 -0.000004 -0.000001 0.000000 0.000000 -1.477147
    13 1.209171 -0.000002 0.000000 0.000000 0.000000 -1.391309
    14 3.859865 -0.137947 1.332466 0.160078 -0.013795 -0.792663
    15 1.719429 0.000002 -0.000001 0.000000 0.000000 -1.578974
    16 1.099665 0.000000 0.000000 0.000000 0.000000 -1.439614
    17 0.806053 -0.348925 1.321258 -1.297464 -0.379014 -0.751547
    18 1.789780 -0.000002 0.000002 0.000000 0.000000 0.288883
    19 1.207006 0.000000 0.000000 0.000000 0.000000 0.449503
    20 2.033356 1.000772 -1.937610 -0.104119 -0.097955 -1.638025
    21 6.028144 0.000000 0.000000 -0.150483 0.503797 -2.594172
    22 11.692554 0.000001 0.000003 0.000000 0.000000 -1.359468
    23 11.481697 0.000001 0.000002 -1.207057 -0.312940 0.675189
    24 3.859678 -0.132570 1.193109 0.121614 -0.096285 -0.922066
    25 1.312557 -0.000002 0.000001 0.000000 0.000000 -0.614204
    26 0.729365 0.000002 -0.000002 0.000000 0.000000 -1.378700
    27 3.942305 0.050327 0.431044 0.052412 -0.034057 -0.893759
    28 1.539099 -0.000002 0.000000 0.000000 0.000000 -1.033169
    29 1.196321 0.000008 0.000000 0.000000 0.000000 -1.390664
    30 3.883661 -0.050323 -0.431042 0.015688 -0.124349 -0.775366
    31 1.719578 0.000004 0.000000 0.000000 -0.007972 -1.588163
    32 1.209185 0.000002 0.000000 0.000000 -0.004460 -0.914507
    33 3.859838 -0.148937 -1.331282 0.137062 0.112673 -0.145626
    34 1.719423 0.000002 0.000000 0.000000 -0.006612 -0.973834
    35 1.099667 0.000002 0.000000 0.000000 -0.004210 -1.029708
    36 0.806021 -0.359837 -1.318334 1.307340 0.325303 -0.670093
    37 1.789782 0.000000 -0.000004 0.019720 0.080233 0.520342
    38 1.206999 0.000003 0.000002 0.000000 0.000000 0.467622
    39 1.292969 -6.652344 -31.890625 1.570792 0.000003 -0.000003
    40 -7.775457 25.559586 13.991498 0.167604 0.052876 0.075707
  time 3
    0 1.292969 -2.785156 -12.101563 -1.570781 -1.391896 -1.570809
    1 2.033349 1.000767 1.937660 2.856279 -0.086961 1.424556
    2 6.028141 0.000000 0.000000 -2.186246 -0.029687 -0.693445
    3 11.692554 0.000001 0.000002 0.000000 0.000000 -1.600617
    4 11.481674 0.000001 -0.000032 1.017807 -0.639115 1.253971
    5 3.859709 -0.142404 -1.191975 -0.372602 0.151269 -0.938029
    6 1.312555 -0.000002 0.000001 0.000000 0.000000 -1.267558
    7 0.729363 -0.000002 -0.000002 0.000000 0.000000 -1.156049
    8 3.942335 0.046767 -0.431443 -0.282547 -0.012816 -0.829988
    9 1.539097 0.000000 0.000000 0.000000 0.000000 -1.277064
    10 1.196326 -0.000002 -0.000001 0.000000 0.000000 -1.795954
    11 3.883696 -0.046765 0.431443 -0.051699 -0.018864 -0.672085
    12 1.719570 -0.000004 -0.000001 0.000000 0.000000 -1.477147
    13 1.209171 -0.000002 0.000000 0.000000 0.000000 -1.391309
    14 3.859865 -0.137947 1.332466 0.160078 -0.013795 -0.792663
    15 1.719429 0.000002 -0.000001 0.000000 0.000000 -1.578974
    16 1.099665 0.000000 0.000000 0.000000 0.000000 -1.439614
    17 0.806053 -0.348925 1.321258 -1.297464 -0.379014 -0.751547
    18 1.789780 -0.000002 0.000002 0.000000 0.000000 0.288883
    19 1.207006 0.000000 0.000000 0.000000 0.000000 0.449503
    20 2.033356 1.000772 -1.937610 -0.104119 -0.097955 -1.638025
    21 6.028144 0.000000 0.000000 -0.158769 0.502954 -2.614473
    22 11.692554 0.000001 0.000003 0.000000 0.000000 -1.349647
    23 11.481697 0.000001 0.000002 -1.202163 -0.303503 0.659123
    24 3.859678 -0.132570 1.193109 0.121614 -0.096285 -0.922066
    25 1.312557 -0.000002 0.000001 0.000000 0.000000 -0.614204
    26 0.729365 0.000002 -0.000002 0.000000 0.000000 -1.378700
    27 3.942305 0.050327 0.431044 0.052412 -0.034057 -0.893759
    28 1.539099 -0.000002 0.000000 0.000000 0.000000 -1.033169
    29 1.196321 0.000008 0.000000 0.000000 0.000000 -1.390664
    30 3.883661 -0.050323 -0.431042 0.015688 -0.124349 -0.775366
    31 1.719578 0.000004 0.000000 0.000000 -0.007972 -1.588163
    32 1.209185 0.000002 0.000000 0.000000 -0.004460 -0.914507
    33 3.859838 -0.148937 -1.331282 0.137062 0.112673 -0.145626
    34 1.719423 0.000002 0.000000 0.000000 -0.006612 -0.973834
    35 1.099667 0.000002 0.000000 0.000000 -0.004210 -1.029708
    36 0.806021 -0.359837 -1.318334 1.307340 0.325303 -0.670093
    37 1.789782 0.000000 -0.000004 0.019720 0.080233 0.520342
    38 1.206999 0.000003 0.000002 0.000000 0.000000 0.467622
    39 1.292969 -6.652344 -31.890625 1.570792 0.000003 -0.000003
    40 -7.775457 25.938504 13.991498 0.142436 0.051006 0.068899
  time 4
    0 1.292969 -2.785156 -12.101563 -1.570781 -1.391896 -1.570809
    1 2.033349 1.000767 1.937660 2.856279 -0.086961 1.424556
    2 6.028141 0.000000 0.000000 -2.177466 -0.040583 -0.649210
    3 11.692554 0.000001 0.000002 0.000000 0.000000 -1.583337
    4 11.481674 0.000001 -0.000032 0.999085 -0.623337 1.255721
    5 3.859709 -0.142404 -1.191975 -0.372602 0.151269 -0.938029
    6 1.312555 -0.000002 0.000001 0.000000 0.000000 -1.267558
    7 0.729363 -0.000002 -0.000002 0.000000 0.000000 -1.156049
    8 3.942335 0.046767 -0.431443 -0.282547 -0.012816 -0.829988
    9 1.539097 0.000000 0.000000 0.000000 0.000000 -1.277064
    10 1.196326 -0.000002 -0.000001 0.000000 0.000000 -1.795954
    11 3.883696 -0.046765 0.431443 -0.051699 -0.018864 -0.672085
    12 1.719570 -0.000004 -0.000001 0.000000 0.000000 -1.477147
    13 1.209171 -0.000002 0.000000 0.000000 0.000000 -1.391309
    14 3.859865 -0.137947 1.332466 0.160078 -0.013795 -0.792663
    15 1.719429 0.000002 -0.000001 0.000000 0.000000 -1.578974
    16 1.099665 0.000000 0.000000 0.000000 0.000000 -1.439614
    17 0.806053 -0.348925 1.321258 -1.297464 -0.379014 -0.751547
    18 1.789780 -0.000002 0.000002 0.000000 0.000000 0.288883
    19 1.207006 0.000000 0.000000 0.000000 0.000000 0.449503
    20 2.033356 1.000772 -1.937610 -0.104119 -0.097955 -1.638025
    21 6.028144 0.000000 0.000000 -0.167947 0.501735 -2.636872
    22 11.692554 0.000001 0.000003 0.000000 0.000000 -1.338210
    23 11.481697 0.000001 0.000002 -1.198664 -0.291722 0.642146
    24 3.859678 -0.132570 1.193109 0.121614 -0.096285 -0.922066
    25 1.312557 -0.000002 0.000001 0.000000 0.000000 -0.614204
    26 0.729365 0.000002 -0.000002 0.000000 0.000000 -1.378700
    27 3.942305 0.050327 0.431044 0.052412 -0.034057 -0.893759
    28 1.539099 -0.000002 0.000000 0.000000 0.000000 -1.033145
    29 1.196321 0.000008 0.000000 0.000000 0.000000 -1.390664
    30 3.883661 -0.050323 -0.431042 0.015688 -0.124349 -0.775366
    31 1.719578 0.000004 0.000000 0.000000 -0.007972 -1.588163
    32 1.209185 0.000002 0.000000 0.000000 -0.004460 -0.914507
    33 3.859838 -0.148937 -1.331282 0.137062 0.112673 -0.145626
    34 1.719423 0.000002 0.000000 0.000000 -0.006612 -0.973834
    35 1.099667 0.000002 0.000000 0.000000 -0.004210 -1.029708
    36 0.806021 -0.359837 -1.318334 1.307340 0.325303 -0.670093
    37 1.789782 0.000000 -0.000004 0.019720 0.080233 0.520342
    38 1.206999 0.000003 0.000002 0.000000 0.000000 0.467622
    39 1.292969 -6.652344 -31.890625 1.570792 0.000003 -0.000003
    40 -7.775457 26.344766 13.991498 0.115375 0.047363 0.060211
  time 5
    0 1.292969 -2.785156 -12.101563 -1.570781 -1.391896 -1.570809
    1 2.033349 1.000767 1.937660 2.856279 -0.086961 1.424556
    2 6.028141 0.000000 0.000000 -2.167637 -0.052088 -0.603497
    3 11.692554 0.000001 0.000002 0.000000 0.000000 -1.563137
    4 11.481674 0.000001 -0.000032 0.977000 -0.605344 1.255192
    5 3.859709 -0.142404 -1.191975 -0.372602 0.151269 -0.938029
    6 1.312555 -0.000002 0.000001 0.000000 0.000000 -1.267558
    7 0.729363 -0.000002 -0.000002 0.000000 0.000000 -1.156049
    8 3.942335 0.046767 -0.431443 -0.282547 -0.012816 -0.829988
    9 1.539097 0.000000 0.000000 0.000000 0.000000 -1.277064
    10 1.196326 -0.000002 -0.000001 0.000000 0.000000 -1.795954
    11 3.883696 -0.046765 0.431443 -0.051699 -0.018864 -0.672085
    12 1.719570 -0.000004 -0.000001 0.000000 0.000000 -1.477147
    13 1.209171 -0.000002 0.000000 0.000000 0.000000 -1.391309
    14 3.859865 -0.137947 1.332466 0.160078 -0.013795 -0.792663
    15 1.719429 0.000002 -0.000001 0.000000 0.000000 -1.578974
    16 1.099665 0.000000 0.000000 0.000000 0.000000 -1.439614
    17 0.806053 -0.348925 1.321258 -1.297464 -0.379014 -0.751547
    18 1.789780 -0.000002 0.000002 0.000000 0.000000 0.288883
    19 1.207006 0.000000 0.000000 0.000000 0.000000 0.449503
    20 2.033356 1.000772 -1.937610 -0.104119 -0.097955 -1.638025
    21 6.028144 0.000000 0.000000 -0.177509 0.500094 -2.659774
    22 11.692554 0.000001 0.000003 0.000000 0.000000 -1.325610
    23 11.481697 0.000001 0.000002 -1.197026 -0.277883 0.624941
    24 3.859678 -0.132570 1.193109 0.121614 -0.096285 -0.922066
    25 1.312557 -0.000002 0.000001 0.000000 0.000000 -0.614204
    26 0.729365 0.000002 -0.000002 0.000000 0.000000 -1.378735
    27 3.942305 0.050327 0.431044 0.052412 -0.034057 -0.893759
    28 1.539099 -0.000002 0.000000 0.000000 0.000000 -1.033169
    29 1.196321 0.000008 0.000000 0.000000 0.000000 -1.390664
    30 3.883661 -0.050323 -0.431042 0.015688 -0.124349 -0.775366
    31 1.719578 0.000004 0.000000 0.000000 -0.007972 -1.588163
    32 1.209185 0.000002 0.000000 0.000000 -0.004460 -0.914507
    33 3.859838 -0.148937 -1.331282 0.137062 0.112673 -0.145626
    34 1.719423 0.000002 0.000000 0.000000 -0.006612 -0.973834
    35 1.099667 0.000002 0.000000 0.000000 -0.004210 -1.029708
    36 0.806021 -0.359837 -1.318334 1.307340 0.325303 -0.670093
    37 1.789782 0.000000 -0.000004 0.019720 0.080233 0.520342
    38 1.206999 0.000003 0.000002 0.000000 0.000000 0.467622
    39 1.292969 -6.652344 -31.890625 1.570792 0.000003 -0.000003
    40 -7.775457 26.754935 13.991498 0.087954 0.041562 0.049664
  time 6
    0 1.292969 -2.785156 -12.101563 -1.570781 -1.391896 -1.570809
    1 2.033349 1.000767 1.937660 2.856279 -0.086961 1.424556
    2 6.028141 0.000000 0.000000 -2.157485 -0.064342 -0.559166
    3 11.692554 0.000001 0.000002 0.000000 0.000000 -1.540369
    4 11.481674 0.000001 -0.000032 0.952710 -0.586107 1.251203
    5 3.859709 -0.142404 -1.191975 -0.372602 0.151269 -0.938029
    6 1.312555 -0.000002 0.000001 0.000000 0.000000 -1.267558
    7 0.729363 -0.000002 -0.000002 0.000000 0.000000 -1.156049
    8 3.942335 0.046767 -0.431443 -0.282547 -0.012816 -0.829988
    9 1.539097 0.000000 0.000000 0.000000 0.000000 -1.277064
    10 1.196326 -0.000002 -0.000001 0.000000 0.000000 -1.795954
    11 3.883696 -0.046765 0.431443 -0.051699 -0.018864 -0.672085
    12 1.719570 -0.000004 -0.000001 0.000000 0.000000 -1.477147
    13 1.209171 -0.000002 0.000000 0.000000 0.000000 -1.391309
    14 3.859865 -0.137947 1.332466 0.160078 -0.013795 -0.792663
    15 1.719429 0.000002 -0.000001 0.000000 0.000000 -1.578974
    16 1.099665 0.000000 0.000000 0.000000 0.000000 -1.439614
    17 0.806053 -0.348925 1.321258 -1.297464 -0.379014 -0.751547
    18 1.789780 -0.000002 0.000002 0.000000 0.000000 0.288883
    19 1.207006 0.000000 0.000000 0.000000 0.000000 0.449503
    20 2.033356 1.000772 -1.937610 -0.104119 -0.097955 -1.638025
    21 6.028144 0.000000 0.000000 -0.187006 0.498098 -2.682089
    22 11.692554 0.000001 0.000003 0.000000 0.000000 -1.313527
    23 11.481697 0.000001 0.000002 -1.199307 -0.260965 0.608933
    24 3.859678 -0.132570 1.193109 0.121614 -0.096285 -0.922066
    25 1.312557 -0.000002 0.000001 0.000000 0.000000 -0.614204
    26 0.729365 0.000002 -0.000002 0.000000 0.000000 -1.378700
    27 3.942305 0.050327 0.431044 0.052412 -0.034057 -0.893759
    28 1.539099 -0.000002 0.000000 0.000000 0.000000 -1.033169
    29 1.196321 0.000008 0.000000 0.000000 0.000000 -1.390664
    30 3.883661 -0.050323 -0.431042 0.015688 -0.124349 -0.775366
    31 1.719578 0.000004 0.000000 0.000000 -0.007972 -1.588163
    32 1.209185 0.000002 0.000000 0.000000 -0.004460 -0.914507
    33 3.859838 -0.148937 -1.331282 0.137062 0.112673 -0.145626
    34 1.719423 0.000002 0.000000 0.000000 -0.006612 -0.973834
    35 1.099667 0.000002 0.000000 0.000000 -0.004210 -1.029708
    36 0.806021 -0.359837 -1.318334 1.307340 0.325303 -0.670093
    37 1.789782 0.000000 -0.000004 0.019720 0.080233 0.520342
    38 1.206999 0.000003 0.000002 0.000000 0.000000 0.467622
    39 1.292969 -6.652344 -31.890625 1.570792 0.000003 -0.000003
    40 -7.775457 27.141666 13.991498 0.061360 0.032838 0.037008
  time 7
    0 1.292969 -2.785156 -12.101563 -1.570781 -1.391896 -1.570809
    1 2.033349 1.000767 1.937660 2.856279 -0.086961 1.424556
    2 6.028141 0.000000 0.000000 -2.147756 -0.076569 -0.518692
    3 11.692554 0.000001 0.000002 0.000000 0.000000 -1.517017
    4 11.481674 0.000001 -0.000032 0.928196 -0.567083 1.244569
    5 3.859709 -0.142404 -1.191975 -0.372602 0.151269 -0.938029
    6 1.312555 -0.000002 0.000001 0.000000 0.000000 -1.267558
    7 0.729363 -0.000002 -0.000002 0.000000 0.000000 -1.156049
    8 3.942335 0.046767 -0.431443 -0.282547 -0.012816 -0.829988
    9 1.539097 0.000000 0.000000 0.000000 0.000000 -1.277064
    10 1.196326 -0.000002 -0.000001 0.000000 0.000000 -1.795954
    11 3.883696 -0.046765 0.431443 -0.051699 -0.018864 -0.672085
    12 1.719570 -0.000004 -0.000001 0.000000 0.000000 -1.477147
    13 1.209171 -0.000002 0.000000 0.000000 0.000000 -1.391309
    14 3.859865 -0.137947 1.332466 0.160078 -0.013795 -0.792663
    15 1.719429 0.000002 -0.000001 0.000000 0.000000 -1.578974
    16 1.099665 0.000000 0.000000 0.000000 0.000000 -1.439614
    17 0.806053 -0.348925 1.321258 -1.297464 -0.379014 -0.751547
    18 1.789780 -0.000002 0.000002 0.000000 0.000000 0.288883
    19 1.207006 0.000000 0.000000 0.000000 0.000000 0.449503
    20 2.033356 1.000772 -1.937610 -0.104119 -0.097955 -1.638025
    21 6.028144 0.000000 0.000000 -0.195738 0.495902 -2.702390
    22 11.692554 0.000001 0.000003 0.000000 0.000000 -1.301767
    23 11.481697 0.000001 0.000002 -1.203758 -0.243294 0.594634
    24 3.859678 -0.132570 1.193109 0.121614 -0.096285 -0.922066
    25 1.312557 -0.000002 0.000001 0.000000 0.000000 -0.614204
    26 0.729365 0.000002 -0.000002 0.000000 0.000000 -1.378700
    27 3.942305 0.050327 0.431044 0.052412 -0.034057 -0.893759
    28 1.539099 -0.000002 0.000000 0.000000 0.000000 -1.033169
    29 1.196321 0.000008 0.000000 0.000000 0.000000 -1.390664
    30 3.883661 -0.050323 -0.431042 0.015688 -0.124349 -0.775366
    31 1.719578 0.000004 0.000000 0.000000 -0.007972 -1.588163
    32 1.209185 0.000002 0.000000 0.000000 -0.004460 -0.914507
    33 3.859838 -0.148937 -1.331282 0.137062 0.112673 -0.145626
    34 1.719423 0.000002 0.000000 0.000000 -0.006612 -0.973834
    35 1.099667 0.000002 0.000000 0.000000 -0.004210 -1.029708
    36 0.806021 -0.359837 -1.318334 1.307340 0.325303 -0.670093
    37 1.789782 0.000000 -0.000004 0.019720 0.080233 0.520342
    38 1.206999 0.000003 0.000002 0.000000 0.000000 0.467622
    39 1.292969 -6.652344 -31.890625 1.570792 0.000003 -0.000003
    40 -7.775457 27.493239 13.991498 0.037283 0.022099 0.023634
  time 8
    0 1.292969 -2.785156 -12.101563 -1.570781 -1.391896 -1.570809
    1 2.033349 1.000767 1.937660 2.856279 -0.086961 1.424556
    2 6.028141 0.000000 0.000000 -2.139200 -0.087270 -0.484809
    3 11.692554 0.000001 0.000002 0.000000 0.000000 -1.496058
    4 11.481674 0.000001 -0.000032 0.905999 -0.550122 1.237730
    5 3.859709 -0.142404 -1.191975 -0.372602 0.151269 -0.938029
    6 1.312555 -0.000002 0.000001 0.000000 0.000000 -1.267558
    7 0.729363 -0.000002 -0.000002 0.000000 0.000000 -1.156049
    8 3.942335 0.046767 -0.431443 -0.282547 -0.012816 -0.829988
    9 1.539097 0.000000 0.000000 0.000000 0.000000 -1.277064
    10 1.196326 -0.000002 -0.000001 0.000000 0.000000 -1.795954
    11 3.883696 -0.046765 0.431443 -0.051699 -0.018864 -0.672085
    12 1.719570 -0.000004 -0.000001 0.000000 0.000000 -1.477147
    13 1.209171 -0.000002 0.000000 0.000000 0.000000 -1.391309
    14 3.859865 -0.137947 1.332466 0.160078 -0.013795 -0.792663
    15 1.719429 0.000002 -0.000001 0.000000 0.000000 -1.578974
    16 1.099665 0.000000 0.000000 0.000000 0.000000 -1.439614
    17 0.806053 -0.348925 1.321258 -1.297464 -0.379014 -0.751547
    18 1.789780 -0.000002 0.000002 0.000000 0.000000 0.288883
    19 1.207006 0.000000 0.000000 0.000000 0.000000 0.449503
    20 2.033356 1.000772 -1.937610 -0.104119 -0.097955 -1.638025
    21 6.028144 0.000000 0.000000 -0.203068 0.493862 -2.719420
    22 11.692554 0.000001 0.000003 0.000000 0.000000 -1.291751
    23 11.481697 0.000001 0.000002 -1.209050 -0.227355 0.583468
    24 3.859678 -0.132570 1.193109 0.121614 -0.096285 -0.922066
    25 1.312557 -0.000002 0.000001 0.000000 0.000000 -0.614204
    26 0.729365 0.000002 -0.000002 0.000000 0.000000 -1.378700
    27 3.942305 0.050327 0.431044 0.052412 -0.034057 -0.893759
    28 1.539099 -0.000002 0.000000 0.000000 0.000000 -1.033145
    29 1.196321 0.000008 0.000000 0.000000 0.000000 -1.390664
    30 3.883661 -0.050323 -0.431042 0.015688 -0.124349 -0.775366
    31 1.719578 0.000004 0.000000 0.000000 -0.007972 -1.588163
    32 1.209185 0.000002 0.000000 0.000000 -0.004460 -0.914507
    33 3.859838 -0.148937 -1.331282 0.137062 0.112673 -0.145626
    34 1.719423 0.000002 0.000000 0.000000 -0.006612 -0.973834
    35 1.099667 0.000002 0.000000 0.000000 -0.004210 -1.029708
    36 0.806021 -0.359837 -1.318334 1.307340 0.325303 -0.670081
    37 1.789782 0.000000 -0.000004 0.019720 0.080233 0.520342
    38 1.206999 0.000003 0.000002 0.000000 0.000000 0.467622
    39 1.292969 -6.652344 -31.890625 1.570792 0.000003 -0.000003
    40 -7.775457 27.782310 13.991498 0.017772 0.011409 0.011709
  time 9
    0 1.292969 -2.785156 -12.101563 -1.570781 -1.391896 -1.570809
    1 2.033349 1.000767 1.937660 2.856279 -0.086961 1.424556
    2 6.028141 0.000000 0.000000 -2.132889 -0.094867 -0.461020
    3 11.692554 0.000001 0.000002 0.000000 0.000000 -1.480821
    4 11.481674 0.000001 -0.000032 0.889520 -0.537560 1.232724
    5 3.859709 -0.142404 -1.191975 -0.372602 0.151269 -0.938029
    6 1.312555 -0.000002 0.000001 0.000000 0.000000 -1.267558
    7 0.729363 -0.000002 -0.000002 0.000000 0.000000 -1.156049
    8 3.942335 0.046767 -0.431443 -0.282547 -0.012816 -0.829988
    9 1.539097 0.000000 0.000000 0.000000 0.000000 -1.277064
    10 1.196326 -0.000002 -0.000001 0.000000 0.000000 -1.795954
    11 3.883696 -0.046765 0.431443 -0.051699 -0.018864 -0.672085
    12 1.719570 -0.000004 -0.000001 0.000000 0.000000 -1.477147
    13 1.209171 -0.000002 0.000000 0.000000 0.000000 -1.391309
    14 3.859865 -0.137947 1.332466 0.160078 -0.013795 -0.792663
    15 1.719429 0.000002 -0.000001 0.000000 0.000000 -1.578974
    16 1.099665 0.000000 0.000000 0.000000 0.000000 -1.439614
    17 0.806053 -0.348925 1.321258 -1.297464 -0.379014 -0.751547
    18 1.789780 -0.000002 0.000002 0.000000 0.000000 0.288883
    19 1.207006 0.000000 0.000000 0.000000 0.000000 0.449503
    20 2.033356 1.000772 -1.937610 -0.104119 -0.097955 -1.638025
    21 6.028144 0.000000 0.000000 -0.208295 0.492376 -2.731500
    22 11.692554 0.000001 0.000003 0.000000 0.000000 -1.284643
    23 11.481697 0.000001 0.000002 -1.213435 -0.215921 0.576346
    24 3.859678 -0.132570 1.193109 0.121614 -0.096285 -0.922066
    25 1.312557 -0.000002 0.000001 0.000000 0.000000 -0.614204
    26 0.729365 0.000002 -0.000002 0.000000 0.000000 -1.378700
    27 3.942305 0.050327 0.431044 0.052412 -0.034057 -0.893759
    28 1.539099 -0.000002 0.000000 0.000000 0.000000 -1.033145
    29 1.196321 0.000008 0.000000 0.000000 0.000000 -1.390693
    30 3.883661 -0.050323 -0.431042 0.015688 -0.124349 -0.775366
    31 1.719578 0.000004 0.000000 0.000000 -0.007972 -1.588163
    32 1.209185 0.000002 0.000000 0.000000 -0.004460 -0.914507
    33 3.859838 -0.148937 -1.331282 0.137062 0.112673 -0.145626
    34 1.719423 0.000002 0.000000 0.000000 -0.006612 -0.973834
    35 1.099667 0.000002 0.000000 0.000000 -0.004210 -1.029708
    36 0.806021 -0.359837 -1.318334 1.307340 0.325303 -0.670093
    37 1.789782 0.000000 -0.000004 0.019720 0.080233 0.520342
    38 1.206999 0.000003 0.000002 0.000000 0.000000 0.467622
    39 1.292969 -6.652344 -31.890625 1.570792 0.000003 -0.000003
    40 -7.775457 27.981535 13.991498 0.004733 0.003212 0.003224
  time 10
    0 1.292969 -2.785156 -12.101563 -1.570781 -1.391896 -1.570809
    1 2.033349 1.000767 1.937660 2.856279 -0.086961 1.424556
    2 6.028141 0.000000 0.000000 -2.130370 -0.097778 -0.451826
    3 11.692554 0.000001 0.000002 0.000000 0.000000 -1.474983
    4 11.481674 0.000001 -0.000032 0.882943 -0.532523 1.231014
    5 3.859709 -0.142404 -1.191975 -0.372602 0.151269 -0.938029
    6 1.312555 -0.000002 0.000001 0.000000 0.000000 -1.267558
    7 0.729363 -0.000002 -0.000002 0.000000 0.000000 -1.156049
    8 3.942335 0.046767 -0.431443 -0.282547 -0.012816 -0.829988
    9 1.539097 0.000000 0.000000 0.000000 0.000000 -1.277064
    10 1.196326 -0.000002 -0.000001 0.000000 0.000000 -1.795954
    11 3.883696 -0.046765 0.431443 -0.051699 -0.018864 -0.672085
    12 1.719570 -0.000004 -0.000001 0.000000 0.000000 -1.477147
    13 1.209171 -0.000002 0.000000 0.000000 0.000000 -1.391309
    14 3.859865 -0.137947 1.332466 0.160078 -0.013795 -0.792663
    15 1.719429 0.000002 -0.000001 0.000000 0.000000 -1.578974
    16 1.099665 0.000000 0.000000 0.000000 0.000000 -1.439614
    17 0.806053 -0.348925 1.321258 -1.297464 -0.379014 -0.751547
    18 1.789780 -0.000002 0.000002 0.000000 0.000000 0.288883
    19 1.207006 0.000000 0.000000 0.000000 0.000000 0.449503
    20 2.033356 1.000772 -1.937610 -0.104119 -0.097955 -1.638025
    21 6.028144 0.000000 0.000000 -0.210271 0.491799 -2.736282
    22 11.692554 0.000001 0.000003 0.000000 0.000000 -1.282059
    23 11.481697 0.000001 0.000002 -1.215273 -0.211641 0.574096
    24 3.859678 -0.132570 1.193109 0.121614 -0.096285 -0.922066
    25 1.312557 -0.000002 0.000001 0.000000 0.000000 -0.614204
    26 0.729365 0.000002 -0.000002 0.000000 0.000000 -1.378700
    27 3.942305 0.050327 0.431044 0.052412 -0.034057 -0.893759
    28 1.539099 -0.000002 0.000000 0.000000 0.000000 -1.033145
    29 1.196321 0.000008 0.000000 0.000000 0.000000 -1.390664
    30 3.883661 -0.050323 -0.431042 0.015688 -0.124349 -0.775366
    31 1.719578 0.000004 0.000000 0.000000 -0.007972 -1.588163
    32 1.209185 0.000002 0.000000 0.000000 -0.004460 -0.914507
    33 3.859838 -0.148937 -1.331282 0.137062 0.112673 -0.145626
    34 1.719423 0.000002 0.000000 0.000000 -0.006612 -0.973834
    35 1.099667 0.000002 0.000000 0.000000 -0.004210 -1.029708
    36 0.806021 -0.359837 -1.318334 1.307340 0.325303 -0.670093
    37 1.789782 0.000000 -0.000004 0.019720 0.080233 0.520342
    38 1.206999 0.000003 0.000002 0.000000 0.000000 0.467622
    39 1.292969 -6.652344 -31.890625 1.570792 0.000003 -0.000003
    40 -7.775457 28.059662 13.991498 -0.000001 0.000000 0.000000
end
