// Created by Crowbar 0.74
version 1
nodes
  0 "Base" -1
  1 "Leftright" 0
  2 "Gun" 1
  3 "Barrel" 2
  4 "cover" 2
end
skeleton
  time 0
    0 0.748472 0.238418 17.889942 1.570796 0.000000 0.000000
    1 0.332457 15.529396 -0.220379 0.000000 0.000000 0.000000
    2 2.006938 17.841654 7.452806 0.000000 0.000000 0.000000
    3 1.671227 1.473717 3.726596 0.000000 0.000000 0.000000
    4 2.516212 0.478182 -0.870788 0.000000 0.000000 0.000000
end
triangles
  phy
    0 0.811030 19.333845 -0.368380 0.488867 0.339435 0.803612 0 0
    0 -0.332687 19.333845 -0.368380 0.823468 0.479390 -0.303458 0 0
    0 0.811030 20.977320 -0.027627 -0.617364 -0.220896 0.755027 0 0
  phy
    0 0.811030 20.977320 -0.027627 -0.617364 -0.220896 0.755027 0 0
    0 -0.332687 19.333845 -0.368380 0.823468 0.479390 -0.303458 0 0
    0 -0.332687 20.977320 -0.027627 -0.199873 -0.049433 -0.978574 0 0
  phy
    0 0.811030 19.333845 -0.368380 0.488867 0.339435 0.803612 0 0
    0 2.485240 2.874979 30.007726 0.608657 0.230957 0.759075 0 0
    0 -0.332687 19.333845 -0.368380 0.823468 0.479390 -0.303458 0 0
  phy
    0 -0.332687 19.333845 -0.368380 0.823468 0.479390 -0.303458 0 0
    0 2.485240 2.874979 30.007726 0.608657 0.230957 0.759075 0 0
    0 -1.369101 2.874982 30.007721 0.487456 0.214379 -0.846421 0 0
  phy
    0 -0.332687 20.977320 -0.027627 -0.199873 -0.049433 -0.978574 0 0
    0 -0.332687 19.333845 -0.368380 0.823468 0.479390 -0.303458 0 0
    0 -1.369101 2.874982 30.007721 0.487456 0.214379 -0.846421 0 0
  phy
    0 0.811030 20.977320 -0.027627 -0.617364 -0.220896 0.755027 0 0
    0 -0.332687 20.977320 -0.027627 -0.199873 -0.049433 -0.978574 0 0
    0 -1.369101 5.426529 35.346179 -0.581559 -0.390293 -0.713765 0 0
  phy
    0 0.811030 20.977320 -0.027627 -0.617364 -0.220896 0.755027 0 0
    0 -1.369101 5.426529 35.346179 -0.581559 -0.390293 -0.713765 0 0
    0 2.485240 5.426529 35.346179 -0.558444 -0.293322 0.775952 0 0
  phy
    0 -0.332687 20.977320 -0.027627 -0.199873 -0.049433 -0.978574 0 0
    0 -1.369101 2.874982 30.007721 0.487456 0.214379 -0.846421 0 0
    0 -1.369101 5.426529 35.346179 -0.581559 -0.390293 -0.713765 0 0
  phy
    0 0.811030 19.333845 -0.368380 0.488867 0.339435 0.803612 0 0
    0 0.811030 20.977320 -0.027627 -0.617364 -0.220896 0.755027 0 0
    0 2.485240 2.874979 30.007726 0.608657 0.230957 0.759075 0 0
  phy
    0 -1.369101 5.426529 35.346179 -0.581559 -0.390293 -0.713765 0 0
    0 2.485240 2.874979 30.007726 0.608657 0.230957 0.759075 0 0
    0 2.485240 5.426529 35.346179 -0.558444 -0.293322 0.775952 0 0
  phy
    0 2.485240 2.874979 30.007726 0.608657 0.230957 0.759075 0 0
    0 0.811030 20.977320 -0.027627 -0.617364 -0.220896 0.755027 0 0
    0 2.485240 5.426529 35.346179 -0.558444 -0.293322 0.775952 0 0
  phy
    0 -1.369101 2.874982 30.007721 0.487456 0.214379 -0.846421 0 0
    0 2.485240 2.874979 30.007726 0.608657 0.230957 0.759075 0 0
    0 -1.369101 5.426529 35.346179 -0.581559 -0.390293 -0.713765 0 0
  phy
    0 5.036415 -0.702977 21.857880 -0.722661 0.471312 0.505594 0 0
    0 9.979317 -21.815722 -0.254798 -0.696552 0.712811 0.081950 0 0
    0 -3.760827 -0.475958 21.857955 -0.764747 0.618340 -0.181158 0 0
  phy
    0 9.979317 -21.815722 -0.254798 -0.696552 0.712811 0.081950 0 0
    0 -7.826761 -21.702215 -0.141213 -0.634241 0.765547 -0.108056 0 0
    0 -3.760827 -0.475958 21.857955 -0.764747 0.618340 -0.181158 0 0
  phy
    0 5.036415 -0.702977 21.857880 -0.722661 0.471312 0.505594 0 0
    0 9.979317 -24.140254 0.313124 0.764747 -0.618340 0.181158 0 0
    0 9.979317 -21.815722 -0.254798 -0.696552 0.712811 0.081950 0 0
  phy
    0 -7.826761 -21.702215 -0.141213 -0.634241 0.765547 -0.108056 0 0
    0 9.979317 -21.815722 -0.254798 -0.696552 0.712811 0.081950 0 0
    0 9.979317 -24.140254 0.313124 0.764747 -0.618340 0.181158 0 0
  phy
    0 5.036415 -0.702977 21.857880 -0.722661 0.471312 0.505594 0 0
    0 -3.760827 -0.475958 21.857955 -0.764747 0.618340 -0.181158 0 0
    0 5.036415 -3.935582 21.858330 0.576616 -0.782720 0.234230 0 0
  phy
    0 5.036415 -3.935582 21.858330 0.576616 -0.782720 0.234230 0 0
    0 -3.760827 -0.475958 21.857955 -0.764747 0.618340 -0.181158 0 0
    0 -3.760741 -4.275691 21.858485 0.698757 -0.709569 -0.090832 0 0
  phy
    0 5.036415 -3.935582 21.858330 0.576616 -0.782720 0.234230 0 0
    0 9.979317 -24.140254 0.313124 0.764747 -0.618340 0.181158 0 0
    0 5.036415 -0.702977 21.857880 -0.722661 0.471312 0.505594 0 0
  phy
    0 -3.760741 -4.275691 21.858485 0.698757 -0.709569 -0.090832 0 0
    0 9.979317 -24.140254 0.313124 0.764747 -0.618340 0.181158 0 0
    0 5.036415 -3.935582 21.858330 0.576616 -0.782720 0.234230 0 0
  phy
    0 -7.826761 -24.026745 0.426708 0.729359 -0.627932 -0.271546 0 0
    0 -7.826761 -21.702215 -0.141213 -0.634241 0.765547 -0.108056 0 0
    0 9.979317 -24.140254 0.313124 0.764747 -0.618340 0.181158 0 0
  phy
    0 -7.826761 -24.026745 0.426708 0.729359 -0.627932 -0.271546 0 0
    0 9.979317 -24.140254 0.313124 0.764747 -0.618340 0.181158 0 0
    0 -3.760741 -4.275691 21.858485 0.698757 -0.709569 -0.090832 0 0
  phy
    0 -7.826761 -21.702215 -0.141213 -0.634241 0.765547 -0.108056 0 0
    0 -7.826761 -24.026745 0.426708 0.729359 -0.627932 -0.271546 0 0
    0 -3.760827 -0.475958 21.857955 -0.764747 0.618340 -0.181158 0 0
  phy
    0 -7.826761 -24.026745 0.426708 0.729359 -0.627932 -0.271546 0 0
    0 -3.760741 -4.275691 21.858485 0.698757 -0.709569 -0.090832 0 0
    0 -3.760827 -0.475958 21.857955 -0.764747 0.618340 -0.181158 0 0
  phy
    0 2.246067 -3.708563 18.259439 0.812177 0.161030 0.560748 0 0
    0 -0.571859 -3.822073 28.644709 0.565758 -0.210898 -0.797145 0 0
    0 -0.571859 -3.708563 18.259439 0.541855 0.405447 -0.736210 0 0
  phy
    0 2.246067 -3.708563 18.259439 0.812177 0.161030 0.560748 0 0
    0 2.246067 -3.822073 28.644709 0.331863 -0.123709 0.935181 0 0
    0 -0.571859 -3.822073 28.644709 0.565758 -0.210898 -0.797145 0 0
  phy
    0 -0.571859 -3.708563 18.259439 0.541855 0.405447 -0.736210 0 0
    0 -0.571859 0.205098 18.145855 -0.331863 0.123709 -0.935181 0 0
    0 2.246067 0.205098 18.145855 -0.565758 0.210898 0.797145 0 0
  phy
    0 -0.571859 -3.708563 18.259439 0.541855 0.405447 -0.736210 0 0
    0 2.246067 0.205098 18.145855 -0.565758 0.210898 0.797145 0 0
    0 2.246067 -3.708563 18.259439 0.812177 0.161030 0.560748 0 0
  phy
    0 -0.571859 0.205098 18.145855 -0.331863 0.123709 -0.935181 0 0
    0 -0.571859 -3.708563 18.259439 0.541855 0.405447 -0.736210 0 0
    0 -0.571859 -3.822073 28.644709 0.565758 -0.210898 -0.797145 0 0
  phy
    0 -0.571859 0.205098 18.145855 -0.331863 0.123709 -0.935181 0 0
    0 -0.571859 -3.822073 28.644709 0.565758 -0.210898 -0.797145 0 0
    0 -0.571859 0.205098 28.758293 -0.802573 -0.153098 -0.576574 0 0
  phy
    0 -0.571859 0.205098 18.145855 -0.331863 0.123709 -0.935181 0 0
    0 -0.571859 0.205098 28.758293 -0.802573 -0.153098 -0.576574 0 0
    0 2.246067 0.205098 18.145855 -0.565758 0.210898 0.797145 0 0
  phy
    0 2.246067 0.205098 18.145855 -0.565758 0.210898 0.797145 0 0
    0 -0.571859 0.205098 28.758293 -0.802573 -0.153098 -0.576574 0 0
    0 2.246067 0.205098 28.758293 -0.517488 -0.401340 0.755733 0 0
  phy
    0 -0.571859 -3.822073 28.644709 0.565758 -0.210898 -0.797145 0 0
    0 2.246067 0.205098 28.758293 -0.517488 -0.401340 0.755733 0 0
    0 -0.571859 0.205098 28.758293 -0.802573 -0.153098 -0.576574 0 0
  phy
    0 -0.571859 -3.822073 28.644709 0.565758 -0.210898 -0.797145 0 0
    0 2.246067 -3.822073 28.644709 0.331863 -0.123709 0.935181 0 0
    0 2.246067 0.205098 28.758293 -0.517488 -0.401340 0.755733 0 0
  phy
    0 2.246067 0.205098 18.145855 -0.565758 0.210898 0.797145 0 0
    0 2.246067 -3.822073 28.644709 0.331863 -0.123709 0.935181 0 0
    0 2.246067 -3.708563 18.259439 0.812177 0.161030 0.560748 0 0
  phy
    0 2.246067 0.205098 18.145855 -0.565758 0.210898 0.797145 0 0
    0 2.246067 0.205098 28.758293 -0.517488 -0.401340 0.755733 0 0
    0 2.246067 -3.822073 28.644709 0.331863 -0.123709 0.935181 0 0
  phy
    0 10.068715 -2.222413 26.855422 0.275002 0.256447 0.926612 0 0
    0 3.558489 3.716436 26.855422 -0.920898 0.034858 0.388241 0 0
    0 9.768172 -2.287987 60.236980 -0.264348 -0.297381 0.917434 0 0
  phy
    0 9.768172 -2.287987 60.236980 -0.264348 -0.297381 0.917434 0 0
    0 3.558489 3.716436 26.855422 -0.920898 0.034858 0.388241 0 0
    0 3.568872 3.367225 60.236980 -0.918618 -0.093830 0.383846 0 0
  phy
    0 3.568872 3.367225 60.236980 -0.918618 -0.093830 0.383846 0 0
    0 3.558489 3.716436 26.855422 -0.920898 0.034858 0.388241 0 0
    0 -4.737552 3.773252 60.236980 -0.682748 -0.318453 -0.657603 0 0
  phy
    0 -4.737552 3.773252 60.236980 -0.682748 -0.318453 -0.657603 0 0
    0 3.558489 3.716436 26.855422 -0.920898 0.034858 0.388241 0 0
    0 -4.866312 4.128250 26.855422 -0.593101 0.560762 -0.577735 0 0
  phy
    0 3.568872 3.367225 60.236980 -0.918618 -0.093830 0.383846 0 0
    0 -4.737552 3.773252 60.236980 -0.682748 -0.318453 -0.657603 0 0
    0 9.768172 -2.287987 60.236980 -0.264348 -0.297381 0.917434 0 0
  phy
    0 -4.737552 3.773252 60.236980 -0.682748 -0.318453 -0.657603 0 0
    0 3.015640 -11.367979 60.236980 0.925168 -0.247398 0.287852 0 0
    0 9.768172 -2.287987 60.236980 -0.264348 -0.297381 0.917434 0 0
  phy
    0 -4.737552 3.773252 60.236980 -0.682748 -0.318453 -0.657603 0 0
    0 -8.214407 -7.850353 60.236980 0.440937 -0.253123 -0.861106 0 0
    0 3.015640 -11.367979 60.236980 0.925168 -0.247398 0.287852 0 0
  phy
    0 -4.866312 4.128250 26.855422 -0.593101 0.560762 -0.577735 0 0
    0 3.558489 3.716436 26.855422 -0.920898 0.034858 0.388241 0 0
    0 10.068715 -2.222413 26.855422 0.275002 0.256447 0.926612 0 0
  phy
    0 -4.866312 4.128250 26.855422 -0.593101 0.560762 -0.577735 0 0
    0 10.068715 -2.222413 26.855422 0.275002 0.256447 0.926612 0 0
    0 3.054478 -11.654313 26.855422 0.848969 0.456825 0.265636 0 0
  phy
    0 -4.866312 4.128250 26.855422 -0.593101 0.560762 -0.577735 0 0
    0 3.054478 -11.654313 26.855422 0.848969 0.456825 0.265636 0 0
    0 -8.504211 -8.033746 26.855422 0.448740 0.121710 -0.885336 0 0
  phy
    0 10.068715 -2.222413 26.855422 0.275002 0.256447 0.926612 0 0
    0 3.015640 -11.367979 60.236980 0.925168 -0.247398 0.287852 0 0
    0 3.054478 -11.654313 26.855422 0.848969 0.456825 0.265636 0 0
  phy
    0 10.068715 -2.222413 26.855422 0.275002 0.256447 0.926612 0 0
    0 9.768172 -2.287987 60.236980 -0.264348 -0.297381 0.917434 0 0
    0 3.015640 -11.367979 60.236980 0.925168 -0.247398 0.287852 0 0
  phy
    0 3.015640 -11.367979 60.236980 0.925168 -0.247398 0.287852 0 0
    0 -8.214407 -7.850353 60.236980 0.440937 -0.253123 -0.861106 0 0
    0 -8.504211 -8.033746 26.855422 0.448740 0.121710 -0.885336 0 0
  phy
    0 -8.504211 -8.033746 26.855422 0.448740 0.121710 -0.885336 0 0
    0 3.054478 -11.654313 26.855422 0.848969 0.456825 0.265636 0 0
    0 3.015640 -11.367979 60.236980 0.925168 -0.247398 0.287852 0 0
  phy
    0 -8.504211 -8.033746 26.855422 0.448740 0.121710 -0.885336 0 0
    0 -8.214407 -7.850353 60.236980 0.440937 -0.253123 -0.861106 0 0
    0 -4.737552 3.773252 60.236980 -0.682748 -0.318453 -0.657603 0 0
  phy
    0 -8.504211 -8.033746 26.855422 0.448740 0.121710 -0.885336 0 0
    0 -4.737552 3.773252 60.236980 -0.682748 -0.318453 -0.657603 0 0
    0 -4.866312 4.128250 26.855422 -0.593101 0.560762 -0.577735 0 0
end
