version 1
nodes
0 "ValveBiped" -1
1 "ValveBiped.Bip01" 0
2 "ValveBiped.Bip01_Spine" 1
3 "ValveBiped.Bip01_Spine1" 2
4 "ValveBiped.Bip01_Spine2" 3
5 "ValveBiped.Bip01_Spine4" 4
6 "ValveBiped.Bip01_L_Clavicle" 5
7 "ValveBiped.Bip01_L_UpperArm" 6
8 "ValveBiped.Bip01_L_Forearm" 7
9 "ValveBiped.Bip01_L_Hand" 8
10 "ValveBiped.Bip01_L_Finger4" 9
11 "ValveBiped.Bip01_L_Finger41" 10
12 "ValveBiped.Bip01_L_Finger42" 11
13 "ValveBiped.Bip01_L_Finger3" 9
14 "ValveBiped.Bip01_L_Finger31" 13
15 "ValveBiped.Bip01_L_Finger32" 14
16 "ValveBiped.Bip01_L_Finger2" 9
17 "ValveBiped.Bip01_L_Finger21" 16
18 "ValveBiped.Bip01_L_Finger22" 17
19 "ValveBiped.Bip01_L_Finger1" 9
20 "ValveBiped.Bip01_L_Finger11" 19
21 "ValveBiped.Bip01_L_Finger12" 20
22 "ValveBiped.Bip01_L_Finger0" 9
23 "ValveBiped.Bip01_L_Finger01" 22
24 "ValveBiped.Bip01_L_Finger02" 23
25 "ValveBiped.Bip01_R_Clavicle" 5
26 "ValveBiped.Bip01_R_UpperArm" 25
27 "ValveBiped.Bip01_R_Forearm" 26
28 "ValveBiped.Bip01_R_Hand" 27
29 "ValveBiped.Bip01_R_Finger4" 28
30 "ValveBiped.Bip01_R_Finger41" 29
31 "ValveBiped.Bip01_R_Finger42" 30
32 "ValveBiped.Bip01_R_Finger3" 28
33 "ValveBiped.Bip01_R_Finger31" 32
34 "ValveBiped.Bip01_R_Finger32" 33
35 "ValveBiped.Bip01_R_Finger2" 28
36 "ValveBiped.Bip01_R_Finger21" 35
37 "ValveBiped.Bip01_R_Finger22" 36
38 "ValveBiped.Bip01_R_Finger1" 28
39 "ValveBiped.Bip01_R_Finger11" 38
40 "ValveBiped.Bip01_R_Finger12" 39
41 "ValveBiped.Bip01_R_Finger0" 28
42 "ValveBiped.Bip01_R_Finger01" 41
43 "ValveBiped.Bip01_R_Finger02" 42
44 "ValveBiped.UpperBodyParent" 0
45 "ValveBiped.UpperBody" 44
46 "ValveBiped.SpineControlParent" 45
47 "ValveBiped.SpineControl" 46
48 "ValveBiped.SpineControl1" 47
49 "ValveBiped.SpineControl2" 48
50 "ValveBiped.SpineControl3" 49
51 "ValveBiped.Bip01_R_Hand1" 50
end
skeleton
time 0
0  0.000000 0.000000 0.000000  1.570796 -0.000000 0.000000
1  -0.000005 38.566914 0.533613  0.000000 -0.000000 0.000000
2  0.000005 3.345128 -2.981901  1.570796 0.304429 1.570796
3  4.018332 -0.000030 -0.000000  -0.000000 0.000000 -0.029247
4  3.518567 -0.000011 -0.000000  0.000000 -0.000000 0.100332
5  8.942638 0.000009 -0.000001  0.000000 0.000000 0.194090
6  2.033340 1.000780 1.937660  -1.544952 -1.855079 -0.198630
7  6.028145 0.000003 -0.000010  -1.581695 -0.623670 -0.658762
8  11.692558 0.000039 -0.000020  -0.000005 -0.000001 -0.959394
9  11.481668 0.000053 -0.000093  0.840048 -0.038003 -0.018216
10  3.859713 -0.142373 -1.191954  -0.362407 0.353798 -0.423434
11  1.312558 -0.000000 0.000019  0.003196 0.009103 -0.101896
12  0.729363 0.000001 0.000000  0.001356 0.004803 0.029670
13  3.942331 0.046805 -0.431427  -0.118507 0.124065 -0.444421
14  1.539093 0.000006 0.000023  0.001254 0.004267 0.038763
15  1.196321 -0.000001 -0.000003  0.002743 0.006829 -0.048763
16  3.883687 -0.046737 0.431459  0.088352 -0.006845 -0.262669
17  1.719573 -0.000004 -0.000022  0.001337 0.005381 -0.124754
18  1.209184 0.000000 0.000013  0.000712 0.002975 0.022346
19  3.859861 -0.137913 1.332485  0.345264 -0.092284 -0.395903
20  1.719424 -0.000006 -0.000017  0.001500 0.003809 0.010683
21  1.099666 -0.000002 0.000008  0.000389 0.002572 -0.095080
22  0.806050 -0.348913 1.321266  -1.409826 -0.742965 -0.479937
23  1.789784 -0.000014 0.000011  -0.000000 0.007382 0.228520
24  1.206997 -0.000000 0.000002  0.000001 0.011261 0.362848
25  2.033350 1.000784 -1.937610  1.473125 1.855072 -0.198624
26  6.028144 -0.000022 -0.000016  1.652589 0.672707 -0.646378
27  11.692548 -0.000033 -0.000014  0.000005 0.000009 -0.959943
28  11.481693 -0.000039 0.000063  -0.981532 -0.043320 -0.038264
29  3.859661 -0.132577 1.193143  0.285047 -0.419968 -0.226479
30  1.312562 -0.000002 -0.000010  -0.002954 -0.011555 -0.189329
31  0.729366 -0.000002 -0.000006  -0.001618 -0.005896 0.024516
32  3.942289 0.050313 0.431075  0.086030 -0.151392 -0.228108
33  1.539098 0.000001 0.000016  -0.001549 -0.005672 0.017020
34  1.196323 -0.000004 -0.000012  -0.002546 -0.009323 -0.164264
35  3.883655 -0.050352 -0.431006  -0.089821 0.003086 -0.255708
36  1.719573 0.000001 -0.000014  -0.002018 -0.007693 -0.109285
37  1.209180 -0.000007 0.000011  -0.002125 -0.003922 0.279918
38  3.859839 -0.148966 -1.331246  -0.328805 0.140148 -0.247161
39  1.719424 0.000009 -0.000019  -0.002670 -0.006027 0.054926
40  1.099669 -0.000002 0.000005  -0.000008 -0.004223 -0.244311
41  0.806029 -0.359848 -1.318325  1.475199 0.827492 -0.381829
42  1.789790 -0.000009 -0.000001  0.000000 -0.006294 0.228552
43  1.206996 0.000001 0.000007  -0.000004 -0.009620 0.362901
44  0.000156 39.987259 -0.385905  0.000000 -0.000000 0.000000
45  -0.000161 -1.420346 0.919518  0.000000 -0.000000 0.000000
46  0.000005 3.345128 -2.981901  1.570796 0.083189 1.570796
47  -0.000000 0.000000 -0.000000  -0.000000 0.000000 -0.218151
48  4.018313 -0.012445 -0.000001  0.000000 0.000000 -0.000000
49  3.516728 -0.113767 -0.000000  0.000000 -0.000000 -0.000000
50  8.921973 0.607603 -0.000001  -0.000000 -0.000000 -0.000000
51  -7.419104 16.536924 -13.613755  -1.573851 -0.002516 1.617930
end
triangles
itemcrate_sheet.001
0  -8.092021 -13.205813 65.343086  -0.002510 0.967859 -0.251480  0.195210 0.321830 1 51 1.000000
0  8.425437 -13.178361 65.283913  -0.002510 0.967859 -0.251480  0.195210 0.491980 1 51 1.000000
0  -8.093196 -13.302747 64.970039  -0.002510 0.967859 -0.251480  0.191230 0.321830 1 51 1.000000
itemcrate_sheet.001
0  8.425437 -13.178361 65.283913  -0.002509 0.967858 -0.251485  0.195210 0.491980 1 51 1.000000
0  8.424262 -13.275296 64.910866  -0.002509 0.967858 -0.251485  0.191230 0.491980 1 51 1.000000
0  -8.093196 -13.302747 64.970039  -0.002509 0.967858 -0.251485  0.191230 0.321830 1 51 1.000000
itemcrate_sheet.001
0  -8.083798 -16.377285 66.167145  -0.999992 -0.001662 0.003581  0.172220 0.443760 1 51 1.000000
0  -8.092021 -13.205813 65.343086  -0.999992 -0.001662 0.003581  0.172220 0.477520 1 51 1.000000
0  -8.084973 -16.474220 65.794098  -0.999992 -0.001662 0.003581  0.168240 0.443760 1 51 1.000000
itemcrate_sheet.001
0  -8.092021 -13.205813 65.343086  -0.999992 -0.001662 0.003581  0.172220 0.477520 1 51 1.000000
0  -8.093196 -13.302747 64.970039  -0.999992 -0.001662 0.003581  0.168240 0.477520 1 51 1.000000
0  -8.084973 -16.474220 65.794098  -0.999992 -0.001662 0.003581  0.168240 0.443760 1 51 1.000000
itemcrate_sheet.001
0  8.433661 -16.349834 66.107979  0.002509 -0.967862 0.251471  0.206860 0.491980 1 51 1.000000
0  -8.083798 -16.377285 66.167145  0.002509 -0.967862 0.251471  0.206860 0.321830 1 51 1.000000
0  8.432485 -16.446770 65.734924  0.002509 -0.967862 0.251471  0.210830 0.491980 1 51 1.000000
itemcrate_sheet.001
0  -8.083798 -16.377285 66.167145  0.002509 -0.967856 0.251494  0.206860 0.321830 1 51 1.000000
0  -8.084973 -16.474220 65.794098  0.002509 -0.967856 0.251494  0.210830 0.321830 1 51 1.000000
0  8.432485 -16.446770 65.734924  0.002509 -0.967856 0.251494  0.210830 0.491980 1 51 1.000000
itemcrate_sheet.001
0  -10.546840 -31.326319 52.310375  -0.999992 -0.001662 0.003582  0.556930 0.319320 1 51 1.000000
0  -10.607066 -8.097729 46.274769  -0.999992 -0.001662 0.003582  0.556930 0.646770 1 51 1.000000
0  -10.549127 -31.514936 51.584484  -0.999992 -0.001662 0.003582  0.546700 0.319320 1 51 1.000000
itemcrate_sheet.001
0  -10.607066 -8.097729 46.274769  -0.999992 -0.001662 0.003582  0.556930 0.646770 1 51 1.000000
0  -10.609353 -8.286345 45.548878  -0.999992 -0.001662 0.003582  0.546700 0.646770 1 51 1.000000
0  -10.549127 -31.514936 51.584484  -0.999992 -0.001662 0.003582  0.546700 0.319320 1 51 1.000000
itemcrate_sheet.001
0  -10.607066 -8.097729 46.274769  -0.002511 0.967859 -0.251481  0.149210 0.576070 1 51 1.000000
0  -7.142724 -8.091969 46.262360  -0.002511 0.967859 -0.251481  0.149210 0.650080 1 51 1.000000
0  -10.609353 -8.286345 45.548878  -0.002511 0.967859 -0.251481  0.133190 0.576070 1 51 1.000000
itemcrate_sheet.001
0  -7.142724 -8.091969 46.262360  -0.002508 0.967858 -0.251486  0.149210 0.650080 1 51 1.000000
0  -7.145010 -8.280589 45.536469  -0.002508 0.967858 -0.251486  0.133190 0.650080 1 51 1.000000
0  -10.609353 -8.286345 45.548878  -0.002508 0.967858 -0.251486  0.133190 0.576070 1 51 1.000000
itemcrate_sheet.001
0  -7.082497 -31.320562 52.297966  0.002509 -0.967857 0.251490  0.002150 0.650080 1 51 1.000000
0  -10.546840 -31.326319 52.310375  0.002509 -0.967857 0.251490  0.002150 0.576070 1 51 1.000000
0  -7.084784 -31.509182 51.572075  0.002509 -0.967857 0.251490  0.018170 0.650080 1 51 1.000000
itemcrate_sheet.001
0  -10.546840 -31.326319 52.310375  0.002509 -0.967859 0.251479  0.002150 0.576070 1 51 1.000000
0  -10.549127 -31.514936 51.584484  0.002509 -0.967859 0.251479  0.018170 0.576070 1 51 1.000000
0  -7.084784 -31.509182 51.572075  0.002509 -0.967859 0.251479  0.018170 0.650080 1 51 1.000000
itemcrate_sheet.001
0  -10.609353 -8.286345 45.548878  -0.003045 -0.251491 -0.967855  0.994500 0.361060 1 51 1.000000
0  -7.145010 -8.280589 45.536469  -0.003046 -0.251491 -0.967855  0.994500 0.404670 1 51 1.000000
0  -10.549127 -31.514936 51.584484  -0.003052 -0.251491 -0.967855  0.692410 0.361060 1 51 1.000000
itemcrate_sheet.001
0  -7.145010 -8.280589 45.536469  -0.003046 -0.251491 -0.967855  0.994500 0.404670 1 51 1.000000
0  -7.084784 -31.509182 51.572075  -0.003053 -0.251491 -0.967855  0.692410 0.404670 1 51 1.000000
0  -10.549127 -31.514936 51.584484  -0.003052 -0.251491 -0.967855  0.692410 0.361060 1 51 1.000000
itemcrate_sheet.001
0  -7.142724 -8.091969 46.262360  0.999992 0.001663 -0.003581  0.528710 0.646770 1 51 1.000000
0  -7.082497 -31.320562 52.297966  0.999992 0.001663 -0.003581  0.528710 0.319320 1 51 1.000000
0  -7.145010 -8.280589 45.536469  0.999992 0.001663 -0.003581  0.538940 0.646770 1 51 1.000000
itemcrate_sheet.001
0  -7.082497 -31.320562 52.297966  0.999992 0.001662 -0.003582  0.528710 0.319320 1 51 1.000000
0  -7.084784 -31.509182 51.572075  0.999992 0.001662 -0.003582  0.538940 0.319320 1 51 1.000000
0  -7.145010 -8.280589 45.536469  0.999992 0.001662 -0.003582  0.538940 0.646770 1 51 1.000000
itemcrate_sheet.001
0  -4.546886 -31.316347 52.288883  -0.999992 -0.001662 0.003582  0.518240 0.319320 1 51 1.000000
0  -4.607112 -8.087757 46.253277  -0.999992 -0.001662 0.003582  0.518240 0.646770 1 51 1.000000
0  -4.549173 -31.504965 51.562992  -0.999992 -0.001662 0.003582  0.508010 0.319320 1 51 1.000000
itemcrate_sheet.001
0  -4.607112 -8.087757 46.253277  -0.999992 -0.001662 0.003582  0.518240 0.646770 1 51 1.000000
0  -4.609399 -8.276375 45.527386  -0.999992 -0.001662 0.003582  0.508010 0.646770 1 51 1.000000
0  -4.549173 -31.504965 51.562992  -0.999992 -0.001662 0.003582  0.508010 0.319320 1 51 1.000000
itemcrate_sheet.001
0  -4.607112 -8.087757 46.253277  -0.002510 0.967858 -0.251483  0.037070 0.576070 1 51 1.000000
0  -1.142769 -8.082000 46.240864  -0.002510 0.967858 -0.251483  0.037070 0.650080 1 51 1.000000
0  -4.609399 -8.276375 45.527386  -0.002510 0.967858 -0.251483  0.021050 0.576070 1 51 1.000000
itemcrate_sheet.001
0  -1.142769 -8.082000 46.240864  -0.002510 0.967859 -0.251481  0.037070 0.650080 1 51 1.000000
0  -1.145057 -8.270617 45.514973  -0.002510 0.967859 -0.251481  0.021050 0.650080 1 51 1.000000
0  -4.609399 -8.276375 45.527386  -0.002510 0.967859 -0.251481  0.021050 0.576070 1 51 1.000000
itemcrate_sheet.001
0  -1.082543 -31.310591 52.276474  0.002508 -0.967860 0.251478  0.039950 0.650080 1 51 1.000000
0  -4.546886 -31.316347 52.288883  0.002508 -0.967860 0.251478  0.039950 0.576070 1 51 1.000000
0  -1.084830 -31.499208 51.550579  0.002508 -0.967860 0.251478  0.055970 0.650080 1 51 1.000000
itemcrate_sheet.001
0  -4.546886 -31.316347 52.288883  0.002509 -0.967858 0.251485  0.039950 0.576070 1 51 1.000000
0  -4.549173 -31.504965 51.562992  0.002509 -0.967858 0.251485  0.055970 0.576070 1 51 1.000000
0  -1.084830 -31.499208 51.550579  0.002509 -0.967858 0.251485  0.055970 0.650080 1 51 1.000000
itemcrate_sheet.001
0  -4.609399 -8.276375 45.527386  -0.003048 -0.251491 -0.967855  0.994500 0.436590 1 51 1.000000
0  -1.145057 -8.270617 45.514973  -0.003048 -0.251491 -0.967855  0.994500 0.480190 1 51 1.000000
0  -4.549173 -31.504965 51.562992  -0.003050 -0.251491 -0.967855  0.692410 0.436590 1 51 1.000000
itemcrate_sheet.001
0  -1.145057 -8.270617 45.514973  -0.003048 -0.251491 -0.967855  0.994500 0.480190 1 51 1.000000
0  -1.084830 -31.499208 51.550579  -0.003050 -0.251491 -0.967855  0.692410 0.480190 1 51 1.000000
0  -4.549173 -31.504965 51.562992  -0.003050 -0.251491 -0.967855  0.692410 0.436590 1 51 1.000000
itemcrate_sheet.001
0  -1.142769 -8.082000 46.240864  0.999992 0.001661 -0.003584  0.668840 0.646770 1 51 1.000000
0  -1.082543 -31.310591 52.276474  0.999992 0.001661 -0.003584  0.668840 0.319320 1 51 1.000000
0  -1.145057 -8.270617 45.514973  0.999992 0.001661 -0.003584  0.679070 0.646770 1 51 1.000000
itemcrate_sheet.001
0  -1.082543 -31.310591 52.276474  0.999992 0.001662 -0.003582  0.668840 0.319320 1 51 1.000000
0  -1.084830 -31.499208 51.550579  0.999992 0.001662 -0.003582  0.679070 0.319320 1 51 1.000000
0  -1.145057 -8.270617 45.514973  0.999992 0.001662 -0.003582  0.679070 0.646770 1 51 1.000000
itemcrate_sheet.001
0  1.453059 -31.306376 52.267387  -0.999992 -0.001662 0.003582  0.638810 0.006810 1 51 1.000000
0  1.392833 -8.077785 46.231781  -0.999992 -0.001662 0.003582  0.638810 0.310050 1 51 1.000000
0  1.450772 -31.494993 51.541496  -0.999992 -0.001662 0.003582  0.629330 0.006810 1 51 1.000000
itemcrate_sheet.001
0  1.392833 -8.077785 46.231781  -0.999992 -0.001662 0.003584  0.638810 0.310050 1 51 1.000000
0  1.390545 -8.266403 45.505890  -0.999992 -0.001662 0.003584  0.629330 0.310050 1 51 1.000000
0  1.450772 -31.494993 51.541496  -0.999992 -0.001662 0.003584  0.629330 0.006810 1 51 1.000000
itemcrate_sheet.001
0  1.392833 -8.077785 46.231781  -0.002509 0.967858 -0.251486  0.074880 0.576070 1 51 1.000000
0  4.857175 -8.072028 46.219372  -0.002509 0.967858 -0.251486  0.074880 0.650080 1 51 1.000000
0  1.390545 -8.266403 45.505890  -0.002509 0.967858 -0.251486  0.058860 0.576070 1 51 1.000000
itemcrate_sheet.001
0  4.857175 -8.072028 46.219372  -0.002509 0.967858 -0.251483  0.074880 0.650080 1 51 1.000000
0  4.854888 -8.260646 45.493481  -0.002509 0.967858 -0.251483  0.058860 0.650080 1 51 1.000000
0  1.390545 -8.266403 45.505890  -0.002509 0.967858 -0.251483  0.058860 0.576070 1 51 1.000000
itemcrate_sheet.001
0  4.917402 -31.300621 52.254978  0.002509 -0.967860 0.251479  0.078400 0.650080 1 51 1.000000
0  1.453059 -31.306376 52.267387  0.002509 -0.967860 0.251479  0.078400 0.576070 1 51 1.000000
0  4.915113 -31.489237 51.529087  0.002509 -0.967860 0.251479  0.094420 0.650080 1 51 1.000000
itemcrate_sheet.001
0  1.453059 -31.306376 52.267387  0.002509 -0.967857 0.251490  0.078400 0.576070 1 51 1.000000
0  1.450772 -31.494993 51.541496  0.002509 -0.967857 0.251490  0.094420 0.576070 1 51 1.000000
0  4.915113 -31.489237 51.529087  0.002509 -0.967857 0.251490  0.094420 0.650080 1 51 1.000000
itemcrate_sheet.001
0  1.390545 -8.266403 45.505890  -0.003048 -0.251491 -0.967855  0.994500 0.512110 1 51 1.000000
0  4.854888 -8.260646 45.493481  -0.003048 -0.251491 -0.967855  0.994500 0.555720 1 51 1.000000
0  1.450772 -31.494993 51.541496  -0.003047 -0.251491 -0.967855  0.692410 0.512110 1 51 1.000000
itemcrate_sheet.001
0  4.854888 -8.260646 45.493481  -0.003048 -0.251491 -0.967855  0.994500 0.555720 1 51 1.000000
0  4.915113 -31.489237 51.529087  -0.003047 -0.251491 -0.967855  0.692410 0.555720 1 51 1.000000
0  1.450772 -31.494993 51.541496  -0.003047 -0.251491 -0.967855  0.692410 0.512110 1 51 1.000000
itemcrate_sheet.001
0  4.857175 -8.072028 46.219372  0.999992 0.001662 -0.003582  0.667660 0.310050 1 51 1.000000
0  4.917402 -31.300621 52.254978  0.999992 0.001662 -0.003582  0.667660 0.006810 1 51 1.000000
0  4.854888 -8.260646 45.493481  0.999992 0.001662 -0.003582  0.677140 0.310050 1 51 1.000000
itemcrate_sheet.001
0  4.917402 -31.300621 52.254978  0.999992 0.001661 -0.003585  0.667660 0.006810 1 51 1.000000
0  4.915113 -31.489237 51.529087  0.999992 0.001661 -0.003585  0.677140 0.006810 1 51 1.000000
0  4.854888 -8.260646 45.493481  0.999992 0.001661 -0.003585  0.677140 0.310050 1 51 1.000000
itemcrate_sheet.001
0  7.453012 -31.296404 52.245895  -0.999992 -0.001662 0.003582  0.657970 0.006810 1 51 1.000000
0  7.392786 -8.067814 46.210289  -0.999992 -0.001662 0.003582  0.657970 0.310050 1 51 1.000000
0  7.450725 -31.485023 51.520004  -0.999992 -0.001662 0.003582  0.648500 0.006810 1 51 1.000000
itemcrate_sheet.001
0  7.392786 -8.067814 46.210289  -0.999992 -0.001662 0.003582  0.657970 0.310050 1 51 1.000000
0  7.390499 -8.256432 45.484398  -0.999992 -0.001662 0.003582  0.648500 0.310050 1 51 1.000000
0  7.450725 -31.485023 51.520004  -0.999992 -0.001662 0.003582  0.648500 0.006810 1 51 1.000000
itemcrate_sheet.001
0  7.392786 -8.067814 46.210289  -0.002510 0.967858 -0.251483  0.112040 0.576070 1 51 1.000000
0  10.857128 -8.062057 46.197876  -0.002510 0.967858 -0.251483  0.112040 0.650080 1 51 1.000000
0  7.390499 -8.256432 45.484398  -0.002510 0.967858 -0.251483  0.096020 0.576070 1 51 1.000000
itemcrate_sheet.001
0  10.857128 -8.062057 46.197876  -0.002509 0.967859 -0.251482  0.112040 0.650080 1 51 1.000000
0  10.854841 -8.250674 45.471985  -0.002509 0.967859 -0.251482  0.096020 0.650080 1 51 1.000000
0  7.390499 -8.256432 45.484398  -0.002509 0.967859 -0.251482  0.096020 0.576070 1 51 1.000000
itemcrate_sheet.001
0  10.917356 -31.290648 52.233486  0.002510 -0.967857 0.251490  0.114920 0.650080 1 51 1.000000
0  7.453012 -31.296404 52.245895  0.002510 -0.967857 0.251490  0.114920 0.576070 1 51 1.000000
0  10.915069 -31.479267 51.507595  0.002510 -0.967857 0.251490  0.130950 0.650080 1 51 1.000000
itemcrate_sheet.001
0  7.453012 -31.296404 52.245895  0.002509 -0.967858 0.251485  0.114920 0.576070 1 51 1.000000
0  7.450725 -31.485023 51.520004  0.002509 -0.967858 0.251485  0.130950 0.576070 1 51 1.000000
0  10.915069 -31.479267 51.507595  0.002509 -0.967858 0.251485  0.130950 0.650080 1 51 1.000000
itemcrate_sheet.001
0  7.390499 -8.256432 45.484398  -0.003051 -0.251491 -0.967855  0.994500 0.587630 1 51 1.000000
0  10.854841 -8.250674 45.471985  -0.003051 -0.251491 -0.967855  0.994500 0.631240 1 51 1.000000
0  7.450725 -31.485023 51.520004  -0.003048 -0.251491 -0.967855  0.692410 0.587630 1 51 1.000000
itemcrate_sheet.001
0  10.854841 -8.250674 45.471985  -0.003051 -0.251491 -0.967855  0.994500 0.631240 1 51 1.000000
0  10.915069 -31.479267 51.507595  -0.003047 -0.251491 -0.967855  0.692410 0.631240 1 51 1.000000
0  7.450725 -31.485023 51.520004  -0.003048 -0.251491 -0.967855  0.692410 0.587630 1 51 1.000000
itemcrate_sheet.001
0  10.857128 -8.062057 46.197876  0.999992 0.001662 -0.003582  0.650170 0.646770 1 51 1.000000
0  10.917356 -31.290648 52.233486  0.999992 0.001662 -0.003582  0.650170 0.319320 1 51 1.000000
0  10.854841 -8.250674 45.471985  0.999992 0.001662 -0.003582  0.660400 0.646770 1 51 1.000000
itemcrate_sheet.001
0  10.917356 -31.290648 52.233486  0.999992 0.001661 -0.003582  0.650170 0.319320 1 51 1.000000
0  10.915069 -31.479267 51.507595  0.999992 0.001661 -0.003582  0.660400 0.319320 1 51 1.000000
0  10.854841 -8.250674 45.471985  0.999992 0.001661 -0.003582  0.660400 0.646770 1 51 1.000000
itemcrate_sheet.001
0  -8.113371 -3.755457 62.961521  0.999992 0.001661 -0.003582  0.608780 0.646770 1 51 1.000000
0  -8.053145 -26.984049 68.997131  0.999992 0.001663 -0.003581  0.608780 0.319320 1 51 1.000000
0  -8.115658 -3.944075 62.235630  0.999992 0.001661 -0.003582  0.619020 0.646770 1 51 1.000000
itemcrate_sheet.001
0  -8.053145 -26.984049 68.997131  0.999992 0.001663 -0.003581  0.608780 0.319320 1 51 1.000000
0  -8.055431 -27.172667 68.271240  0.999992 0.001663 -0.003581  0.619020 0.319320 1 51 1.000000
0  -8.115658 -3.944075 62.235630  0.999992 0.001661 -0.003582  0.619020 0.646770 1 51 1.000000
itemcrate_sheet.001
0  -11.802501 -26.990280 69.010559  -0.999992 -0.001712 0.003595  0.956450 0.007840 1 51 1.000000
0  -11.863956 -3.761690 62.974957  -0.999992 -0.001711 0.003595  0.956450 0.332250 1 51 1.000000
0  -11.804788 -27.178898 68.284668  -0.999992 -0.001712 0.003595  0.946310 0.007840 1 51 1.000000
itemcrate_sheet.001
0  -11.863956 -3.761690 62.974957  -0.999992 -0.001711 0.003595  0.956450 0.332250 1 51 1.000000
0  -11.866243 -3.950308 62.249065  -0.999992 -0.001711 0.003595  0.946310 0.332250 1 51 1.000000
0  -11.804788 -27.178898 68.284668  -0.999992 -0.001712 0.003595  0.946310 0.007840 1 51 1.000000
itemcrate_sheet.001
0  -11.863956 -3.761690 62.974957  -0.002509 0.967858 -0.251483  0.188690 0.486900 1 51 1.000000
0  -8.113371 -3.755457 62.961521  -0.002509 0.967858 -0.251484  0.188690 0.525390 1 51 1.000000
0  -11.866243 -3.950308 62.249065  -0.002509 0.967858 -0.251483  0.180960 0.486900 1 51 1.000000
itemcrate_sheet.001
0  -8.113371 -3.755457 62.961521  -0.002509 0.967858 -0.251484  0.188690 0.525390 1 51 1.000000
0  -8.115658 -3.944075 62.235630  -0.002509 0.967858 -0.251485  0.180960 0.525390 1 51 1.000000
0  -11.866243 -3.950308 62.249065  -0.002509 0.967858 -0.251483  0.180960 0.486900 1 51 1.000000
itemcrate_sheet.001
0  -8.053145 -26.984049 68.997131  0.002509 -0.967857 0.251490  0.196590 0.525390 1 51 1.000000
0  -11.802501 -26.990280 69.010559  0.002509 -0.967860 0.251476  0.196590 0.486900 1 51 1.000000
0  -8.055431 -27.172667 68.271240  0.002509 -0.967857 0.251488  0.204310 0.525390 1 51 1.000000
itemcrate_sheet.001
0  -11.802501 -26.990280 69.010559  0.002509 -0.967860 0.251476  0.196590 0.486900 1 51 1.000000
0  -11.804788 -27.178898 68.284668  0.002510 -0.967861 0.251474  0.204310 0.486900 1 51 1.000000
0  -8.055431 -27.172667 68.271240  0.002509 -0.967857 0.251488  0.204310 0.525390 1 51 1.000000
itemcrate_sheet.001
0  -11.866243 -3.950308 62.249065  -0.003051 -0.251491 -0.967855  0.795460 0.332850 1 51 1.000000
0  -8.115658 -3.944075 62.235630  -0.003051 -0.251491 -0.967855  0.744830 0.332640 1 51 1.000000
0  -11.804788 -27.178898 68.284668  -0.003049 -0.251491 -0.967855  0.795460 0.007600 1 51 1.000000
itemcrate_sheet.001
0  -8.115658 -3.944075 62.235630  -0.003051 -0.251491 -0.967855  0.744830 0.332640 1 51 1.000000
0  -8.055431 -27.172667 68.271240  -0.003049 -0.251491 -0.967855  0.744830 0.007400 1 51 1.000000
0  -11.804788 -27.178898 68.284668  -0.003049 -0.251491 -0.967855  0.795460 0.007600 1 51 1.000000
itemcrate_sheet.001
0  12.186837 -24.220959 67.440483  0.999992 0.001661 -0.003582  0.196630 0.001130 1 51 1.000000
0  12.194403 -27.139015 68.198692  0.999992 0.001661 -0.003582  0.255740 0.001130 1 51 1.000000
0  12.138811 -28.181934 52.196766  0.999992 0.001661 -0.003582  0.196630 0.311440 1 51 1.000000
itemcrate_sheet.001
0  12.194403 -27.139015 68.198692  0.999992 0.001663 -0.003582  0.255740 0.001130 1 51 1.000000
0  12.146379 -31.099991 52.954983  0.999992 0.001663 -0.003582  0.255740 0.311440 1 51 1.000000
0  12.138811 -28.181934 52.196766  0.999992 0.001663 -0.003582  0.196630 0.311440 1 51 1.000000
itemcrate_sheet.001
0  9.208248 -27.143978 68.209396  -0.999992 -0.001662 0.003582  0.511630 0.307780 1 51 1.000000
0  9.200683 -24.225922 67.451180  -0.999992 -0.001662 0.003582  0.465590 0.307780 1 51 1.000000
0  9.160224 -31.104954 52.965679  -0.999992 -0.001662 0.003582  0.511630 0.085100 1 51 1.000000
itemcrate_sheet.001
0  9.200683 -24.225922 67.451180  -0.999992 -0.001662 0.003582  0.465590 0.307780 1 51 1.000000
0  9.152658 -28.186897 52.207466  -0.999992 -0.001662 0.003582  0.465590 0.085100 1 51 1.000000
0  9.160224 -31.104954 52.965679  -0.999992 -0.001662 0.003582  0.511630 0.085100 1 51 1.000000
itemcrate_sheet.001
0  9.200683 -24.225922 67.451180  -0.002510 0.967858 -0.251483  0.188660 0.304660 1 51 1.000000
0  12.186837 -24.220959 67.440483  -0.002510 0.967858 -0.251483  0.134170 0.304660 1 51 1.000000
0  9.152658 -28.186897 52.207466  -0.002510 0.967858 -0.251483  0.188660 0.018580 1 51 1.000000
itemcrate_sheet.001
0  12.186837 -24.220959 67.440483  -0.002509 0.967858 -0.251484  0.134170 0.304660 1 51 1.000000
0  12.138811 -28.181934 52.196766  -0.002509 0.967858 -0.251484  0.134170 0.018580 1 51 1.000000
0  9.152658 -28.186897 52.207466  -0.002509 0.967858 -0.251484  0.188660 0.018580 1 51 1.000000
itemcrate_sheet.001
0  12.194403 -27.139015 68.198692  0.002510 -0.967858 0.251484  0.003040 0.002710 1 51 1.000000
0  9.208248 -27.143978 68.209396  0.002510 -0.967858 0.251484  0.062150 0.002710 1 51 1.000000
0  12.146379 -31.099991 52.954983  0.002510 -0.967858 0.251484  0.003040 0.313030 1 51 1.000000
itemcrate_sheet.001
0  9.208248 -27.143978 68.209396  0.002509 -0.967858 0.251483  0.062150 0.002710 1 51 1.000000
0  9.160224 -31.104954 52.965679  0.002509 -0.967858 0.251483  0.062150 0.313030 1 51 1.000000
0  12.146379 -31.099991 52.954983  0.002509 -0.967858 0.251483  0.003040 0.313030 1 51 1.000000
itemcrate_sheet.001
0  12.134175 -3.910421 62.163090  0.999992 0.001662 -0.003582  0.066170 0.002710 1 51 1.000000
0  12.141665 -6.799514 62.913776  0.999992 0.001662 -0.003582  0.125270 0.002710 1 51 1.000000
0  12.086151 -7.871399 46.919373  0.999992 0.001662 -0.003582  0.066170 0.313030 1 51 1.000000
itemcrate_sheet.001
0  12.141665 -6.799514 62.913776  0.999992 0.001663 -0.003582  0.125270 0.002710 1 51 1.000000
0  12.093643 -10.760492 47.670063  0.999992 0.001663 -0.003582  0.125270 0.313030 1 51 1.000000
0  12.086151 -7.871399 46.919373  0.999992 0.001663 -0.003582  0.066170 0.313030 1 51 1.000000
itemcrate_sheet.001
0  9.155514 -6.804477 62.924473  -0.999992 -0.001661 0.003582  0.380920 0.289400 1 51 1.000000
0  9.148023 -3.915384 62.173786  -0.999992 -0.001661 0.003582  0.327270 0.289400 1 51 1.000000
0  9.107488 -10.765455 47.680759  -0.999992 -0.001661 0.003582  0.380920 0.007720 1 51 1.000000
itemcrate_sheet.001
0  9.148023 -3.915384 62.173786  -0.999992 -0.001662 0.003582  0.327270 0.289400 1 51 1.000000
0  9.099998 -7.876362 46.930073  -0.999992 -0.001662 0.003582  0.327270 0.007720 1 51 1.000000
0  9.107488 -10.765455 47.680759  -0.999992 -0.001662 0.003582  0.380920 0.007720 1 51 1.000000
itemcrate_sheet.001
0  9.148023 -3.915384 62.173786  -0.002509 0.967858 -0.251484  0.191980 0.313030 1 51 1.000000
0  12.134175 -3.910421 62.163090  -0.002509 0.967858 -0.251484  0.132870 0.313030 1 51 1.000000
0  9.099998 -7.876362 46.930073  -0.002509 0.967858 -0.251484  0.191980 0.002710 1 51 1.000000
itemcrate_sheet.001
0  12.134175 -3.910421 62.163090  -0.002510 0.967858 -0.251484  0.132870 0.313030 1 51 1.000000
0  12.086151 -7.871399 46.919373  -0.002510 0.967858 -0.251484  0.132870 0.002710 1 51 1.000000
0  9.099998 -7.876362 46.930073  -0.002510 0.967858 -0.251484  0.191980 0.002710 1 51 1.000000
itemcrate_sheet.001
0  12.141665 -6.799514 62.913776  0.002509 -0.967858 0.251484  0.006350 0.030450 1 51 1.000000
0  9.155514 -6.804477 62.924473  0.002509 -0.967858 0.251484  0.056740 0.030450 1 51 1.000000
0  12.093643 -10.760492 47.670063  0.002509 -0.967858 0.251484  0.006350 0.302270 1 51 1.000000
itemcrate_sheet.001
0  9.155514 -6.804477 62.924473  0.002510 -0.967858 0.251484  0.056740 0.030450 1 51 1.000000
0  9.107488 -10.765455 47.680759  0.002510 -0.967858 0.251484  0.056740 0.302270 1 51 1.000000
0  12.093643 -10.760492 47.670063  0.002510 -0.967858 0.251484  0.006350 0.302270 1 51 1.000000
itemcrate_sheet.001
0  -8.851837 -3.945298 62.238266  0.999992 0.001662 -0.003582  0.200130 0.024690 1 51 1.000000
0  -8.844346 -6.834392 62.988956  0.999992 0.001662 -0.003582  0.251880 0.024690 1 51 1.000000
0  -8.899862 -7.906277 46.994553  0.999992 0.001662 -0.003582  0.200130 0.296370 1 51 1.000000
itemcrate_sheet.001
0  -8.844346 -6.834392 62.988956  0.999992 0.001662 -0.003582  0.251880 0.024690 1 51 1.000000
0  -8.892371 -10.795370 47.745239  0.999992 0.001662 -0.003582  0.251880 0.296370 1 51 1.000000
0  -8.899862 -7.906277 46.994553  0.999992 0.001662 -0.003582  0.200130 0.296370 1 51 1.000000
itemcrate_sheet.001
0  -11.858138 -6.839401 62.999752  -0.999992 -0.001662 0.003582  0.320160 0.311370 1 51 1.000000
0  -11.865628 -3.950307 62.249065  -0.999992 -0.001662 0.003582  0.261050 0.311370 1 51 1.000000
0  -11.906163 -10.800379 47.756039  -0.999992 -0.001662 0.003582  0.320160 0.001060 1 51 1.000000
itemcrate_sheet.001
0  -11.865628 -3.950307 62.249065  -0.999992 -0.001662 0.003582  0.261050 0.311370 1 51 1.000000
0  -11.913653 -7.911285 47.005348  -0.999992 -0.001662 0.003582  0.261050 0.001060 1 51 1.000000
0  -11.906163 -10.800379 47.756039  -0.999992 -0.001662 0.003582  0.320160 0.001060 1 51 1.000000
itemcrate_sheet.001
0  -11.865628 -3.950307 62.249065  -0.002509 0.967858 -0.251484  0.383290 0.311370 1 51 1.000000
0  -8.851837 -3.945298 62.238266  -0.002509 0.967858 -0.251484  0.324180 0.311370 1 51 1.000000
0  -11.913653 -7.911285 47.005348  -0.002509 0.967858 -0.251484  0.383290 0.001060 1 51 1.000000
itemcrate_sheet.001
0  -8.851837 -3.945298 62.238266  -0.002509 0.967858 -0.251484  0.324180 0.311370 1 51 1.000000
0  -8.899862 -7.906277 46.994553  -0.002509 0.967858 -0.251484  0.324180 0.001060 1 51 1.000000
0  -11.913653 -7.911285 47.005348  -0.002509 0.967858 -0.251484  0.383290 0.001060 1 51 1.000000
itemcrate_sheet.001
0  -8.844346 -6.834392 62.988956  0.002510 -0.967858 0.251484  0.068190 0.020120 1 51 1.000000
0  -11.858138 -6.839401 62.999752  0.002510 -0.967858 0.251484  0.122810 0.020120 1 51 1.000000
0  -8.892371 -10.795370 47.745239  0.002510 -0.967858 0.251484  0.068190 0.306860 1 51 1.000000
itemcrate_sheet.001
0  -11.858138 -6.839401 62.999752  0.002510 -0.967858 0.251484  0.122810 0.020120 1 51 1.000000
0  -11.906163 -10.800379 47.756039  0.002510 -0.967858 0.251484  0.122810 0.306860 1 51 1.000000
0  -8.892371 -10.795370 47.745239  0.002510 -0.967858 0.251484  0.068190 0.306860 1 51 1.000000
itemcrate_sheet.001
0  -8.799176 -24.255836 67.515663  0.999992 0.001662 -0.003582  0.203150 0.044320 1 51 1.000000
0  -8.791611 -27.173891 68.273872  0.999992 0.001662 -0.003582  0.249070 0.044320 1 51 1.000000
0  -8.847201 -28.216812 52.271946  0.999992 0.001662 -0.003582  0.203150 0.285360 1 51 1.000000
itemcrate_sheet.001
0  -8.791611 -27.173891 68.273872  0.999992 0.001662 -0.003582  0.249070 0.044320 1 51 1.000000
0  -8.839636 -31.134869 53.030159  0.999992 0.001662 -0.003582  0.249070 0.285360 1 51 1.000000
0  -8.847201 -28.216812 52.271946  0.999992 0.001662 -0.003582  0.203150 0.285360 1 51 1.000000
itemcrate_sheet.001
0  -11.804255 -27.178900 68.284668  -0.999992 -0.001662 0.003582  0.448870 0.311370 1 51 1.000000
0  -11.811821 -24.260843 67.526451  -0.999992 -0.001662 0.003582  0.389770 0.311370 1 51 1.000000
0  -11.852280 -31.139875 53.040951  -0.999992 -0.001662 0.003582  0.448870 0.001060 1 51 1.000000
itemcrate_sheet.001
0  -11.811821 -24.260843 67.526451  -0.999992 -0.001662 0.003582  0.389770 0.311370 1 51 1.000000
0  -11.859846 -28.221819 52.282738  -0.999992 -0.001662 0.003582  0.389770 0.001060 1 51 1.000000
0  -11.852280 -31.139875 53.040951  -0.999992 -0.001662 0.003582  0.448870 0.001060 1 51 1.000000
itemcrate_sheet.001
0  -11.811821 -24.260843 67.526451  -0.002509 0.967858 -0.251484  0.445340 0.288190 1 51 1.000000
0  -8.799176 -24.255836 67.515663  -0.002509 0.967858 -0.251484  0.393930 0.288190 1 51 1.000000
0  -11.859846 -28.221819 52.282738  -0.002509 0.967858 -0.251484  0.445340 0.018320 1 51 1.000000
itemcrate_sheet.001
0  -8.799176 -24.255836 67.515663  -0.002509 0.967858 -0.251483  0.393930 0.288190 1 51 1.000000
0  -8.847201 -28.216812 52.271946  -0.002509 0.967858 -0.251483  0.393930 0.018320 1 51 1.000000
0  -11.859846 -28.221819 52.282738  -0.002509 0.967858 -0.251483  0.445340 0.018320 1 51 1.000000
itemcrate_sheet.001
0  -8.791611 -27.173891 68.273872  0.002510 -0.967858 0.251484  0.457860 0.001060 1 51 1.000000
0  -11.804255 -27.178900 68.284668  0.002510 -0.967858 0.251484  0.516970 0.001060 1 51 1.000000
0  -8.839636 -31.134869 53.030159  0.002510 -0.967858 0.251484  0.457860 0.311370 1 51 1.000000
itemcrate_sheet.001
0  -11.804255 -27.178900 68.284668  0.002510 -0.967858 0.251484  0.516970 0.001060 1 51 1.000000
0  -11.852280 -31.139875 53.040951  0.002510 -0.967858 0.251484  0.516970 0.311370 1 51 1.000000
0  -8.839636 -31.134869 53.030159  0.002510 -0.967858 0.251484  0.457860 0.311370 1 51 1.000000
itemcrate_sheet.001
0  -8.100777 -4.355373 62.342457  -0.003049 -0.251491 -0.967855  0.243910 0.646830 1 51 1.000000
0  8.399095 -4.327951 62.283348  -0.003049 -0.251491 -0.967855  0.162460 0.646830 1 51 1.000000
0  -8.042647 -26.775232 68.167923  -0.003049 -0.251491 -0.967855  0.243910 0.532480 1 51 1.000000
itemcrate_sheet.001
0  8.399095 -4.327951 62.283348  -0.003049 -0.251491 -0.967855  0.162460 0.646830 1 51 1.000000
0  8.457224 -26.747812 68.108818  -0.003048 -0.251491 -0.967855  0.162460 0.532480 1 51 1.000000
0  -8.042647 -26.775232 68.167923  -0.003049 -0.251491 -0.967855  0.243910 0.532480 1 51 1.000000
itemcrate_sheet.001
0  8.400270 -4.231019 62.656391  0.999992 0.001662 -0.003584  0.248650 0.646620 1 51 1.000000
0  8.458400 -26.650877 68.481865  0.999992 0.001662 -0.003584  0.248650 0.322940 1 51 1.000000
0  8.399095 -4.327951 62.283348  0.999992 0.001662 -0.003584  0.254040 0.646620 1 51 1.000000
itemcrate_sheet.001
0  8.458400 -26.650877 68.481865  0.999992 0.001662 -0.003584  0.248650 0.322940 1 51 1.000000
0  8.457224 -26.747812 68.108818  0.999992 0.001662 -0.003584  0.254040 0.322940 1 51 1.000000
0  8.399095 -4.327951 62.283348  0.999992 0.001662 -0.003584  0.254040 0.646620 1 51 1.000000
itemcrate_sheet.001
0  -8.041471 -26.678299 68.540970  -0.999992 -0.001661 0.003586  0.160250 0.322940 1 51 1.000000
0  -8.099601 -4.258441 62.715500  -0.999992 -0.001661 0.003584  0.160250 0.646620 1 51 1.000000
0  -8.042647 -26.775232 68.167923  -0.999992 -0.001661 0.003586  0.154870 0.322940 1 51 1.000000
itemcrate_sheet.001
0  -8.099601 -4.258441 62.715500  -0.999992 -0.001661 0.003584  0.160250 0.646620 1 51 1.000000
0  -8.100777 -4.355373 62.342457  -0.999992 -0.001661 0.003584  0.154870 0.646620 1 51 1.000000
0  -8.042647 -26.775232 68.167923  -0.999992 -0.001661 0.003586  0.154870 0.322940 1 51 1.000000
itemcrate_sheet.001
0  -8.099601 -4.258441 62.715500  -0.002509 0.967859 -0.251482  0.223060 0.320420 1 51 1.000000
0  8.400270 -4.231019 62.656391  -0.002509 0.967859 -0.251482  0.223060 0.490400 1 51 1.000000
0  -8.100777 -4.355373 62.342457  -0.002509 0.967859 -0.251482  0.219090 0.320420 1 51 1.000000
itemcrate_sheet.001
0  8.400270 -4.231019 62.656391  -0.002509 0.967859 -0.251482  0.223060 0.490400 1 51 1.000000
0  8.399095 -4.327951 62.283348  -0.002509 0.967859 -0.251482  0.219090 0.490400 1 51 1.000000
0  -8.100777 -4.355373 62.342457  -0.002509 0.967859 -0.251482  0.219090 0.320420 1 51 1.000000
itemcrate_sheet.001
0  8.458400 -26.650877 68.481865  0.002509 -0.967856 0.251493  0.234710 0.490400 1 51 1.000000
0  -8.041471 -26.678299 68.540970  0.002509 -0.967863 0.251467  0.234710 0.320420 1 51 1.000000
0  8.457224 -26.747812 68.108818  0.002509 -0.967856 0.251493  0.238690 0.490400 1 51 1.000000
itemcrate_sheet.001
0  -8.041471 -26.678299 68.540970  0.002509 -0.967863 0.251467  0.234710 0.320420 1 51 1.000000
0  -8.042647 -26.775232 68.167923  0.002509 -0.967863 0.251466  0.238690 0.320420 1 51 1.000000
0  8.457224 -26.747812 68.108818  0.002509 -0.967856 0.251493  0.238690 0.490400 1 51 1.000000
itemcrate_sheet.001
0  12.136462 -3.721803 62.888981  0.999992 0.001662 -0.003582  0.629480 0.646770 1 51 1.000000
0  12.196690 -26.950396 68.924583  0.999992 0.001662 -0.003582  0.629480 0.319320 1 51 1.000000
0  12.134175 -3.910421 62.163090  0.999992 0.001662 -0.003582  0.639710 0.646770 1 51 1.000000
itemcrate_sheet.001
0  12.196690 -26.950396 68.924583  0.999992 0.001662 -0.003582  0.629480 0.319320 1 51 1.000000
0  12.194403 -27.139015 68.198692  0.999992 0.001662 -0.003582  0.639710 0.319320 1 51 1.000000
0  12.134175 -3.910421 62.163090  0.999992 0.001662 -0.003582  0.639710 0.646770 1 51 1.000000
itemcrate_sheet.001
0  8.460542 -26.956606 68.937973  -0.999992 -0.001662 0.003582  0.935950 0.007840 1 51 1.000000
0  8.400315 -3.728012 62.902363  -0.999992 -0.001662 0.003582  0.935950 0.332250 1 51 1.000000
0  8.458255 -27.145222 68.212082  -0.999992 -0.001662 0.003582  0.925810 0.007840 1 51 1.000000
itemcrate_sheet.001
0  8.400315 -3.728012 62.902363  -0.999992 -0.001662 0.003582  0.935950 0.332250 1 51 1.000000
0  8.398028 -3.916630 62.176472  -0.999992 -0.001662 0.003582  0.925810 0.332250 1 51 1.000000
0  8.458255 -27.145222 68.212082  -0.999992 -0.001662 0.003582  0.925810 0.007840 1 51 1.000000
itemcrate_sheet.001
0  8.400315 -3.728012 62.902363  -0.002510 0.967858 -0.251484  0.173060 0.486900 1 51 1.000000
0  12.136462 -3.721803 62.888981  -0.002509 0.967858 -0.251484  0.173060 0.525390 1 51 1.000000
0  8.398028 -3.916630 62.176472  -0.002510 0.967858 -0.251484  0.165340 0.486900 1 51 1.000000
itemcrate_sheet.001
0  12.136462 -3.721803 62.888981  -0.002509 0.967858 -0.251484  0.173060 0.525390 1 51 1.000000
0  12.134175 -3.910421 62.163090  -0.002509 0.967858 -0.251484  0.165340 0.525390 1 51 1.000000
0  8.398028 -3.916630 62.176472  -0.002510 0.967858 -0.251484  0.165340 0.486900 1 51 1.000000
itemcrate_sheet.001
0  12.196690 -26.950396 68.924583  0.002509 -0.967858 0.251486  0.169250 0.431380 1 51 1.000000
0  8.460542 -26.956606 68.937973  0.002510 -0.967859 0.251481  0.169250 0.392890 1 51 1.000000
0  12.194403 -27.139015 68.198692  0.002509 -0.967858 0.251485  0.176980 0.431380 1 51 1.000000
itemcrate_sheet.001
0  8.460542 -26.956606 68.937973  0.002510 -0.967859 0.251481  0.169250 0.392890 1 51 1.000000
0  8.458255 -27.145222 68.212082  0.002510 -0.967859 0.251481  0.176980 0.392890 1 51 1.000000
0  12.194403 -27.139015 68.198692  0.002509 -0.967858 0.251485  0.176980 0.431380 1 51 1.000000
itemcrate_sheet.001
0  8.398028 -3.916630 62.176472  -0.003049 -0.251491 -0.967855  0.857130 0.332850 1 51 1.000000
0  12.134175 -3.910421 62.163090  -0.003049 -0.251491 -0.967855  0.806500 0.332640 1 51 1.000000
0  8.458255 -27.145222 68.212082  -0.003047 -0.251491 -0.967855  0.857130 0.007600 1 51 1.000000
itemcrate_sheet.001
0  12.134175 -3.910421 62.163090  -0.003049 -0.251491 -0.967855  0.806500 0.332640 1 51 1.000000
0  12.194403 -27.139015 68.198692  -0.003047 -0.251491 -0.967855  0.806500 0.007400 1 51 1.000000
0  8.458255 -27.145222 68.212082  -0.003047 -0.251491 -0.967855  0.857130 0.007600 1 51 1.000000
itemcrate_sheet.001
0  12.086151 -7.871399 46.919373  0.999992 0.001662 -0.003582  0.588090 0.646770 1 51 1.000000
0  12.146379 -31.099991 52.954983  0.999992 0.001661 -0.003583  0.588090 0.319320 1 51 1.000000
0  12.083864 -8.060018 46.193481  0.999992 0.001662 -0.003582  0.598320 0.646770 1 51 1.000000
itemcrate_sheet.001
0  12.146379 -31.099991 52.954983  0.999992 0.001661 -0.003583  0.588090 0.319320 1 51 1.000000
0  12.144092 -31.288609 52.229092  0.999992 0.001661 -0.003584  0.598320 0.319320 1 51 1.000000
0  12.083864 -8.060018 46.193481  0.999992 0.001662 -0.003582  0.598320 0.646770 1 51 1.000000
itemcrate_sheet.001
0  -11.853427 -31.139877 53.040955  -0.999992 -0.001662 0.003582  0.577630 0.319320 1 51 1.000000
0  -11.913653 -7.911285 47.005348  -0.999992 -0.001662 0.003582  0.577630 0.646770 1 51 1.000000
0  -11.855714 -31.328495 52.315063  -0.999992 -0.001662 0.003582  0.567390 0.319320 1 51 1.000000
itemcrate_sheet.001
0  -11.913653 -7.911285 47.005348  -0.999992 -0.001662 0.003582  0.577630 0.646770 1 51 1.000000
0  -11.915940 -8.099904 46.279457  -0.999992 -0.001662 0.003582  0.567390 0.646770 1 51 1.000000
0  -11.855714 -31.328495 52.315063  -0.999992 -0.001662 0.003582  0.567390 0.319320 1 51 1.000000
itemcrate_sheet.001
0  -11.913653 -7.911285 47.005348  -0.002509 0.967858 -0.251484  0.976950 0.007840 1 51 1.000000
0  12.086151 -7.871399 46.919373  -0.002509 0.967858 -0.251485  0.976950 0.332250 1 51 1.000000
0  -11.915940 -8.099904 46.279457  -0.002509 0.967858 -0.251484  0.966820 0.007840 1 51 1.000000
itemcrate_sheet.001
0  12.086151 -7.871399 46.919373  -0.002509 0.967858 -0.251485  0.976950 0.332250 1 51 1.000000
0  12.083864 -8.060018 46.193481  -0.002509 0.967858 -0.251485  0.966820 0.332250 1 51 1.000000
0  -11.915940 -8.099904 46.279457  -0.002509 0.967858 -0.251484  0.966820 0.007840 1 51 1.000000
itemcrate_sheet.001
0  12.146379 -31.099991 52.954983  0.002509 -0.967858 0.251485  0.987320 0.332250 1 51 1.000000
0  -11.853427 -31.139877 53.040955  0.002509 -0.967858 0.251485  0.987320 0.007840 1 51 1.000000
0  12.144092 -31.288609 52.229092  0.002509 -0.967858 0.251485  0.997460 0.332250 1 51 1.000000
itemcrate_sheet.001
0  -11.853427 -31.139877 53.040955  0.002509 -0.967858 0.251485  0.987320 0.007840 1 51 1.000000
0  -11.855714 -31.328495 52.315063  0.002509 -0.967858 0.251485  0.997460 0.007840 1 51 1.000000
0  12.144092 -31.288609 52.229092  0.002509 -0.967858 0.251485  0.997460 0.332250 1 51 1.000000
itemcrate_sheet.001
0  -11.915940 -8.099904 46.279457  -0.003049 -0.251491 -0.967855  0.994500 0.344590 1 51 1.000000
0  12.083864 -8.060018 46.193481  -0.003049 -0.251491 -0.967855  0.994500 0.646680 1 51 1.000000
0  -11.855714 -31.328495 52.315063  -0.003049 -0.251491 -0.967855  0.692410 0.344590 1 51 1.000000
itemcrate_sheet.001
0  12.083864 -8.060018 46.193481  -0.003049 -0.251491 -0.967855  0.994500 0.646680 1 51 1.000000
0  12.144092 -31.288609 52.229092  -0.003049 -0.251491 -0.967855  0.692410 0.646680 1 51 1.000000
0  -11.855714 -31.328495 52.315063  -0.003049 -0.251491 -0.967855  0.692410 0.344590 1 51 1.000000
itemcrate_sheet.001
0  12.086151 -7.871399 46.919373  0.003049 0.251491 0.967855  0.004160 0.570660 1 51 1.000000
0  -11.913653 -7.911285 47.005348  0.003049 0.251491 0.967855  0.004160 0.424980 1 51 1.000000
0  12.146379 -31.099991 52.954983  0.003049 0.251491 0.967855  0.149850 0.570660 1 51 1.000000
itemcrate_sheet.001
0  -11.913653 -7.911285 47.005348  0.003049 0.251491 0.967855  0.004160 0.424980 1 51 1.000000
0  -11.853427 -31.139877 53.040955  0.003049 0.251491 0.967855  0.149850 0.424980 1 51 1.000000
0  12.146379 -31.099991 52.954983  0.003049 0.251491 0.967855  0.149850 0.570660 1 51 1.000000
itemcrate_sheet.001
0  11.399849 -4.623057 62.350574  0.999992 0.001662 -0.003582  0.504060 0.996240 1 51 1.000000
0  11.456312 -26.399860 68.008957  0.999992 0.001662 -0.003582  0.504060 0.653730 1 51 1.000000
0  11.351823 -8.584035 47.106861  0.999992 0.001662 -0.003582  0.743820 0.996240 1 51 1.000000
itemcrate_sheet.001
0  11.456312 -26.399860 68.008957  0.999992 0.001662 -0.003582  0.504060 0.653730 1 51 1.000000
0  11.408286 -30.360838 52.765244  0.999992 0.001662 -0.003582  0.743820 0.653730 1 51 1.000000
0  11.351823 -8.584035 47.106861  0.999992 0.001662 -0.003582  0.743820 0.996240 1 51 1.000000
itemcrate_sheet.001
0  -11.043512 -26.437256 68.089561  -0.999992 -0.001662 0.003582  0.997790 0.653730 1 51 1.000000
0  -11.099975 -4.660451 62.431175  -0.999992 -0.001662 0.003582  0.997790 0.996240 1 51 1.000000
0  -11.091537 -30.398232 52.845844  -0.999992 -0.001662 0.003582  0.758040 0.653730 1 51 1.000000
itemcrate_sheet.001
0  -11.099975 -4.660451 62.431175  -0.999992 -0.001662 0.003582  0.997790 0.996240 1 51 1.000000
0  -11.148000 -8.621428 47.187462  -0.999992 -0.001662 0.003582  0.758040 0.996240 1 51 1.000000
0  -11.091537 -30.398232 52.845844  -0.999992 -0.001662 0.003582  0.758040 0.653730 1 51 1.000000
itemcrate_sheet.001
0  -11.099975 -4.660451 62.431175  -0.002509 0.967858 -0.251483  0.240660 0.655270 1 51 1.000000
0  11.399849 -4.623057 62.350574  -0.002509 0.967858 -0.251483  0.240660 0.997020 1 51 1.000000
0  -11.148000 -8.621428 47.187462  -0.002509 0.967858 -0.251483  0.001440 0.655270 1 51 1.000000
itemcrate_sheet.001
0  11.399849 -4.623057 62.350574  -0.002509 0.967858 -0.251484  0.240660 0.997020 1 51 1.000000
0  11.351823 -8.584035 47.106861  -0.002509 0.967858 -0.251484  0.001440 0.997020 1 51 1.000000
0  -11.148000 -8.621428 47.187462  -0.002509 0.967858 -0.251484  0.001440 0.655270 1 51 1.000000
itemcrate_sheet.001
0  11.456312 -26.399860 68.008957  0.002510 -0.967858 0.251484  0.254850 0.997020 1 51 1.000000
0  -11.043512 -26.437256 68.089561  0.002510 -0.967858 0.251484  0.254850 0.655270 1 51 1.000000
0  11.408286 -30.360838 52.765244  0.002510 -0.967858 0.251484  0.494080 0.997020 1 51 1.000000
itemcrate_sheet.001
0  -11.043512 -26.437256 68.089561  0.002509 -0.967858 0.251484  0.254850 0.655270 1 51 1.000000
0  -11.091537 -30.398232 52.845844  0.002509 -0.967858 0.251484  0.494080 0.655270 1 51 1.000000
0  11.408286 -30.360838 52.765244  0.002509 -0.967858 0.251484  0.494080 0.997020 1 51 1.000000
itemcrate_sheet.001
0  8.425437 -13.178361 65.283913  0.999992 0.001661 -0.003582  0.183870 0.477520 1 51 1.000000
0  8.433661 -16.349834 66.107979  0.999992 0.001661 -0.003582  0.183870 0.443760 1 51 1.000000
0  8.424262 -13.275296 64.910866  0.999992 0.001661 -0.003582  0.187840 0.477520 1 51 1.000000
itemcrate_sheet.001
0  8.433661 -16.349834 66.107979  0.999992 0.001662 -0.003586  0.183870 0.443760 1 51 1.000000
0  8.432485 -16.446770 65.734924  0.999992 0.001662 -0.003586  0.187840 0.443760 1 51 1.000000
0  8.424262 -13.275296 64.910866  0.999992 0.001662 -0.003586  0.187840 0.477520 1 51 1.000000
itemcrate_sheet.001
0  8.433661 -16.349834 66.107979  0.003049 0.251492 0.967855  0.584775 0.304434 1 51 1.000000
0  8.425437 -13.178361 65.283913  0.003049 0.251492 0.967854  0.524424 0.304434 1 51 1.000000
0  -8.083798 -16.377285 66.167145  0.003049 0.251491 0.967855  0.584775 0.004049 1 51 1.000000
itemcrate_sheet.001
0  8.425437 -13.178361 65.283913  0.003049 0.251492 0.967854  0.524424 0.304434 1 51 1.000000
0  -8.092021 -13.205813 65.343086  0.003049 0.251490 0.967855  0.524424 0.004049 1 51 1.000000
0  -8.083798 -16.377285 66.167145  0.003049 0.251491 0.967855  0.584775 0.004049 1 51 1.000000
itemcrate_sheet.001
0  -8.113371 -3.755457 62.961521  0.003051 0.251491 0.967855  0.732546 0.335203 1 51 1.000000
0  -11.863956 -3.761690 62.974957  0.003051 0.251491 0.967855  0.683397 0.335203 1 51 1.000000
0  -8.053145 -26.984049 68.997131  0.003046 0.251491 0.967855  0.732546 0.006892 1 51 1.000000
itemcrate_sheet.001
0  -11.863956 -3.761690 62.974957  0.003051 0.251491 0.967855  0.683397 0.335203 1 51 1.000000
0  -11.802501 -26.990280 69.010559  0.003046 0.251491 0.967855  0.683397 0.006892 1 51 1.000000
0  -8.053145 -26.984049 68.997131  0.003046 0.251491 0.967855  0.732546 0.006892 1 51 1.000000
itemcrate_sheet.001
0  8.400270 -4.231019 62.656391  0.003049 0.251491 0.967855  0.254809 0.314771 1 51 1.000000
0  -8.099601 -4.258441 62.715500  0.003049 0.251491 0.967855  0.496126 0.314771 1 51 1.000000
0  8.458400 -26.650877 68.481865  0.003049 0.251491 0.967855  0.254809 0.650999 1 51 1.000000
itemcrate_sheet.001
0  -8.099601 -4.258441 62.715500  0.003049 0.251491 0.967855  0.496126 0.314771 1 51 1.000000
0  -8.041471 -26.678299 68.540970  0.003048 0.251491 0.967855  0.496126 0.650999 1 51 1.000000
0  8.458400 -26.650877 68.481865  0.003049 0.251491 0.967855  0.254809 0.650999 1 51 1.000000
itemcrate_sheet.001
0  12.136462 -3.721803 62.888981  0.003049 0.251491 0.967855  0.919190 0.334938 1 51 1.000000
0  8.400315 -3.728012 62.902363  0.003049 0.251491 0.967855  0.867691 0.334938 1 51 1.000000
0  12.196690 -26.950396 68.924583  0.003050 0.251491 0.967855  0.919190 0.006966 1 51 1.000000
itemcrate_sheet.001
0  8.400315 -3.728012 62.902363  0.003049 0.251491 0.967855  0.867691 0.334938 1 51 1.000000
0  8.460542 -26.956606 68.937973  0.003050 0.251491 0.967855  0.867691 0.006966 1 51 1.000000
0  12.196690 -26.950396 68.924583  0.003050 0.251491 0.967855  0.919190 0.006966 1 51 1.000000
end
