// Created by Crowbar 0.74
version 1
nodes
  0 "ValveBiped" -1
  1 "ValveBiped.Bip01_R_Hand" 0
  2 "ValveBiped.bone" 1
end
skeleton
  time 0
    0 0.000000 0.000000 0.000000 1.570796 0.000000 0.000000
    1 -2.297683 3.432066 -2.858664 0.338609 -1.271342 1.288249
    2 1.047174 -1.639375 -1.296265 -1.389234 0.182913 -1.141213
end
triangles
manhack_sheet
  2 4.304875 -0.184523 -0.348956 0.014117 -0.199252 -0.979846 0.996389 0.368652 1 2 1.000000
  2 1.413496 0.045620 1.549281 -0.828176 -0.155018 -0.538603 0.996388 0.428379 1 2 1.000000
  2 4.186071 1.931309 0.359239 -0.039054 0.747697 -0.662891 0.961936 0.368652 1 2 1.000000
manhack_sheet
  2 2.978839 0.139340 2.658138 -0.404294 0.238839 0.882894 0.884417 0.368652 1 2 1.000000
  2 1.409452 0.095635 1.951310 -0.514683 0.601985 0.610505 0.886571 0.428379 1 2 1.000000
  2 2.834874 -1.026254 2.903220 0.078210 0.822241 0.563741 0.858578 0.399963 1 2 1.000000
manhack_sheet
  2 2.945602 0.753514 2.474487 -0.472708 0.567957 0.673775 0.910257 0.368652 1 2 1.000000
  2 1.409452 0.095635 1.951310 -0.514683 0.601985 0.610505 0.886571 0.428379 1 2 1.000000
  2 2.978839 0.139340 2.658138 -0.404294 0.238839 0.882894 0.884417 0.368652 1 2 1.000000
manhack_sheet
  2 2.933361 1.010040 1.886196 -0.511747 0.836094 0.197642 0.936097 0.368652 1 2 1.000000
  2 1.409452 0.095635 1.951310 -0.514683 0.601985 0.610505 0.886571 0.428379 1 2 1.000000
  2 2.945602 0.753514 2.474487 -0.472708 0.567957 0.673775 0.910257 0.368652 1 2 1.000000
manhack_sheet
  2 4.186071 1.931309 0.359239 -0.039054 0.747697 -0.662891 0.961936 0.368652 1 2 1.000000
  2 1.409452 0.095635 1.951310 -0.514683 0.601985 0.610505 0.886571 0.428379 1 2 1.000000
  2 2.933361 1.010040 1.886196 -0.511747 0.836094 0.197642 0.936097 0.368652 1 2 1.000000
manhack_sheet
  2 4.186071 1.931309 0.359239 -0.039054 0.747697 -0.662891 0.961936 0.368652 1 2 1.000000
  2 1.413496 0.045620 1.549281 -0.540006 0.841191 0.028117 0.996388 0.428379 1 2 1.000000
  2 1.409452 0.095635 1.951310 -0.514683 0.601985 0.610505 0.886571 0.428379 1 2 1.000000
manhack_sheet
  2 5.164248 -1.789838 0.562726 0.856635 -0.077598 -0.510053 0.541928 0.407924 1 2 1.000000
  2 6.220436 1.924742 3.016069 0.970033 -0.149116 -0.191834 0.439241 0.308095 1 2 1.000000
  2 6.036000 -0.655359 4.089002 0.970033 -0.149116 -0.191834 0.564699 0.312912 1 2 1.000000
manhack_sheet
  2 5.164248 -1.789838 0.562726 0.856635 -0.077598 -0.510053 0.541928 0.407924 1 2 1.000000
  2 5.947087 1.516690 1.951036 0.970033 -0.149116 -0.191834 0.435014 0.337545 1 2 1.000000
  2 6.220436 1.924742 3.016069 0.970033 -0.149116 -0.191834 0.439241 0.308095 1 2 1.000000
manhack_sheet
  2 5.164248 -1.789838 0.562726 0.856635 -0.077598 -0.510053 0.541928 0.407924 1 2 1.000000
  2 5.494124 0.859792 0.171184 0.970033 -0.149116 -0.191834 0.426935 0.386474 1 2 1.000000
  2 5.947087 1.516690 1.951036 0.970033 -0.149116 -0.191834 0.435014 0.337545 1 2 1.000000
manhack_sheet
  2 2.443404 -1.678953 -2.387729 0.183581 -0.262855 -0.947209 0.484733 0.565793 1 2 1.000000
  2 5.494124 0.859792 0.171184 0.970033 -0.149116 -0.191834 0.426935 0.386474 1 2 1.000000
  2 5.164248 -1.789838 0.562726 0.856635 -0.077598 -0.510053 0.541928 0.407924 1 2 1.000000
manhack_sheet
  2 2.443404 -1.678953 -2.387729 0.183581 -0.262855 -0.947209 0.484733 0.565793 1 2 1.000000
  2 1.094033 0.051902 -2.829722 0.641095 0.003171 -0.767455 0.409397 0.620362 1 2 1.000000
  2 5.494124 0.859792 0.171184 0.970033 -0.149116 -0.191834 0.426935 0.386474 1 2 1.000000
manhack_sheet
  2 2.443404 -1.678953 -2.387729 0.183581 -0.262855 -0.947209 0.484733 0.565793 1 2 1.000000
  2 -0.673023 0.094016 -2.127846 -0.228945 -0.687635 -0.689016 0.425644 0.683982 1 2 1.000000
  2 1.094033 0.051902 -2.829722 -0.179682 -0.899439 -0.398402 0.409397 0.620362 1 2 1.000000
manhack_sheet
  2 2.443404 -1.678953 -2.387729 0.183581 -0.262855 -0.947209 0.484733 0.565793 1 2 1.000000
  2 -0.674262 -1.688864 -1.449976 -0.265585 -0.299690 -0.916324 0.510788 0.682952 1 2 1.000000
  2 -0.673023 0.094016 -2.127846 -0.228945 -0.687635 -0.689016 0.425644 0.683982 1 2 1.000000
manhack_sheet
  2 1.024927 -0.430331 4.675945 -0.233303 0.392706 0.889579 0.539701 0.103187 1 2 1.000000
  2 3.363197 2.563739 3.967449 -0.219672 0.388127 0.895043 0.653167 0.024569 1 2 1.000000
  2 1.224333 2.467679 3.455420 -0.233303 0.392706 0.889579 0.652252 0.103195 1 2 1.000000
manhack_sheet
  2 1.024927 -0.430331 4.675945 -0.233303 0.392706 0.889579 0.539701 0.103187 1 2 1.000000
  2 3.770056 -0.426317 5.334075 -0.205988 0.383457 0.900294 0.536937 0.002388 1 2 1.000000
  2 3.363197 2.563739 3.967449 -0.219672 0.388127 0.895043 0.653167 0.024569 1 2 1.000000
manhack_sheet
  2 0.532025 3.244300 -1.971762 -0.042836 0.891438 -0.451113 0.319616 0.745371 1 2 1.000000
  2 1.232365 4.978065 5.954636 -0.011569 0.999622 0.024941 0.117754 0.754727 1 2 1.000000
  2 3.892486 4.527160 6.335197 0.450755 0.879648 -0.151785 0.103393 0.690628 1 2 1.000000
manhack_sheet
  2 0.532025 3.244300 -1.971762 -0.042836 0.891438 -0.451113 0.319616 0.745371 1 2 1.000000
  2 3.892486 4.527160 6.335197 0.450755 0.879648 -0.151785 0.103393 0.690628 1 2 1.000000
  2 3.812264 3.312697 -2.090440 0.463939 0.811910 -0.354348 0.314518 0.672868 1 2 1.000000
manhack_sheet
  2 3.812264 3.312697 -2.090440 0.463939 0.811910 -0.354348 0.314518 0.672868 1 2 1.000000
  2 2.011314 0.541735 -5.120330 0.055495 0.385270 -0.921134 0.402339 0.679782 1 2 1.000000
  2 0.532025 3.244300 -1.971762 -0.042836 0.891438 -0.451113 0.319616 0.745371 1 2 1.000000
manhack_sheet
  2 3.812264 3.312697 -2.090440 0.463939 0.811910 -0.354348 0.314518 0.672868 1 2 1.000000
  2 4.774494 0.225354 -4.933451 0.392068 0.707657 -0.587797 0.385806 0.612392 1 2 1.000000
  2 2.011314 0.541735 -5.120330 0.055495 0.385270 -0.921134 0.402339 0.679782 1 2 1.000000
manhack_sheet
  2 4.431928 2.575555 -2.108769 0.963320 0.268339 0.002757 0.315955 0.650731 1 2 1.000000
  2 4.774494 0.225354 -4.933451 0.392068 0.707657 -0.587797 0.385806 0.612392 1 2 1.000000
  2 3.812264 3.312697 -2.090440 0.463939 0.811910 -0.354348 0.314518 0.672868 1 2 1.000000
manhack_sheet
  2 3.892486 4.527160 6.335197 0.450755 0.879648 -0.151785 0.103393 0.690628 1 2 1.000000
  2 4.431928 2.575555 -2.108769 0.963320 0.268339 0.002757 0.315955 0.650731 1 2 1.000000
  2 3.812264 3.312697 -2.090440 0.463939 0.811910 -0.354348 0.314518 0.672868 1 2 1.000000
manhack_sheet
  2 2.087384 -1.143319 1.393466 -0.002758 0.930320 -0.366739 0.546278 0.872873 1 2 1.000000
  2 5.931614 -0.236360 3.665268 -0.002758 0.930320 -0.366739 0.613490 0.889578 1 2 1.000000
  2 5.324854 -1.146558 1.298126 -0.002758 0.930320 -0.366739 0.557565 0.889464 1 2 1.000000
manhack_sheet
  2 2.087384 -1.143319 1.393466 -0.002758 0.930320 -0.366739 0.546278 0.872873 1 2 1.000000
  2 1.416264 -0.031240 4.156783 -0.002758 0.930320 -0.366739 0.611752 0.873902 1 2 1.000000
  2 5.931614 -0.236360 3.665268 -0.002758 0.930320 -0.366739 0.613490 0.889578 1 2 1.000000
manhack_sheet
  2 1.540002 0.384302 -1.022717 0.034551 0.938730 -0.342917 0.111773 0.533596 1 2 1.000000
  2 1.152329 1.230821 1.726551 -0.010420 0.963262 -0.268362 0.156846 0.504460 1 2 1.000000
  2 2.773560 0.765004 0.143736 0.015349 0.947628 -0.319006 0.115283 0.499795 1 2 1.000000
manhack_sheet
  2 1.540002 0.384302 -1.022717 0.034551 0.938730 -0.342917 0.111773 0.533596 1 2 1.000000
  2 -0.494450 0.961003 0.822008 -0.010420 0.963262 -0.268362 0.162906 0.540972 1 2 1.000000
  2 1.152329 1.230821 1.726551 -0.010420 0.963262 -0.268362 0.156846 0.504460 1 2 1.000000
manhack_sheet
  2 1.895931 1.248424 0.449005 0.038784 0.943195 -0.329967 0.320075 0.620570 1 2 1.000000
  2 4.180688 0.874101 -0.238403 0.067565 0.926349 -0.370557 0.362268 0.548897 1 2 1.000000
  2 2.160179 0.821087 -0.739173 0.067565 0.926349 -0.370557 0.364498 0.620570 1 2 1.000000
manhack_sheet
  2 1.895931 1.248424 0.449005 0.038784 0.943195 -0.329967 0.320075 0.620570 1 2 1.000000
  2 4.281306 1.211051 0.622440 0.048397 0.937865 -0.343609 0.331815 0.539047 1 2 1.000000
  2 4.180688 0.874101 -0.238403 0.067565 0.926349 -0.370557 0.362268 0.548897 1 2 1.000000
manhack_sheet
  2 2.731168 0.029705 -3.319875 -0.383300 -0.844069 0.375004 0.343999 0.144281 1 2 1.000000
  2 4.768087 1.732544 2.122262 -0.383300 -0.844069 0.375004 0.495434 0.129391 1 2 1.000000
  2 1.496862 1.996570 2.233065 -0.065433 -0.945085 0.320207 0.482368 0.203438 1 2 1.000000
manhack_sheet
  2 4.227327 -0.960973 -3.297364 -0.657376 -0.646622 0.386958 0.346003 0.099181 1 2 1.000000
  2 4.768087 1.732544 2.122262 -0.383300 -0.844069 0.375004 0.495434 0.129391 1 2 1.000000
  2 2.731168 0.029705 -3.319875 -0.383300 -0.844069 0.375004 0.343999 0.144281 1 2 1.000000
manhack_sheet
  2 4.227327 -0.960973 -3.297364 -0.657376 -0.646622 0.386958 0.346003 0.099181 1 2 1.000000
  2 6.027987 -0.162905 1.958999 -0.657376 -0.646622 0.386958 0.485845 0.077270 1 2 1.000000
  2 4.768087 1.732544 2.122262 -0.383300 -0.844069 0.375004 0.495434 0.129391 1 2 1.000000
manhack_sheet
  2 1.024927 -0.430331 4.675945 -0.977515 -0.021102 -0.209808 0.792863 0.543303 1 2 1.000000
  2 1.224333 2.467679 3.455420 -0.977515 -0.021102 -0.209808 0.792695 0.500818 1 2 1.000000
  2 1.895931 1.248424 0.449005 -0.977515 -0.021102 -0.209808 0.844391 0.499511 1 2 1.000000
manhack_sheet
  2 1.024927 -0.430331 4.675945 -0.977515 -0.021102 -0.209808 0.792863 0.543303 1 2 1.000000
  2 1.895931 1.248424 0.449005 -0.977515 -0.021102 -0.209808 0.844391 0.499511 1 2 1.000000
  2 2.160179 0.821087 -0.739173 -0.977515 -0.021102 -0.209808 0.864482 0.498320 1 2 1.000000
manhack_sheet
  2 2.160179 0.821087 -0.739173 -0.977515 -0.021102 -0.209808 0.864482 0.498320 1 2 1.000000
  2 1.958886 -2.102232 0.492685 -0.977515 -0.021102 -0.209808 0.864641 0.541179 1 2 1.000000
  2 1.024927 -0.430331 4.675945 -0.977515 -0.021102 -0.209808 0.792863 0.543303 1 2 1.000000
manhack_sheet
  2 4.818623 1.894383 3.569403 0.147613 0.451526 0.879963 0.571986 0.179174 1 2 1.000000
  2 3.784049 0.665086 4.399346 0.153651 0.486878 0.859849 0.520845 0.212133 1 2 1.000000
  2 5.711578 1.584396 3.576938 0.140954 0.469740 0.871479 0.564064 0.148421 1 2 1.000000
manhack_sheet
  2 4.818623 1.894383 3.569403 0.147613 0.451526 0.879963 0.571986 0.179174 1 2 1.000000
  2 3.203673 1.300511 4.135590 0.156215 0.480648 0.862887 0.542909 0.232697 1 2 1.000000
  2 3.784049 0.665086 4.399346 0.153651 0.486878 0.859849 0.520845 0.212133 1 2 1.000000
manhack_sheet
  2 3.203673 1.300511 4.135590 0.156215 0.480648 0.862887 0.542909 0.232697 1 2 1.000000
  2 3.138433 0.273563 4.758619 0.168052 0.515727 0.840109 0.502612 0.233537 1 2 1.000000
  2 3.784049 0.665086 4.399346 0.153651 0.486878 0.859849 0.520845 0.212133 1 2 1.000000
manhack_sheet
  2 2.494708 -1.627685 -2.051491 0.256423 -0.434686 -0.863305 0.512163 0.653116 1 2 1.000000
  2 5.576454 -1.544974 -1.461393 -0.022621 -0.451359 -0.892055 0.513513 0.571535 1 2 1.000000
  2 2.487447 -1.717040 -2.008675 0.256423 -0.434686 -0.863305 0.509125 0.653085 1 2 1.000000
manhack_sheet
  2 3.622368 2.129108 5.853117 0.977515 0.021101 0.209808 0.994894 0.494480 1 2 1.000000
  2 1.925135 3.696020 6.850838 0.594129 0.776707 -0.209134 0.934769 0.432221 1 2 1.000000
  2 3.249764 2.861717 7.515439 0.833390 0.166044 0.527153 0.994894 0.432221 1 2 1.000000
manhack_sheet
  2 3.622368 2.129108 5.853117 0.977515 0.021101 0.209808 0.994894 0.494480 1 2 1.000000
  2 2.297740 2.963412 5.188517 0.594129 0.776707 -0.209134 0.934769 0.494480 1 2 1.000000
  2 1.925135 3.696020 6.850838 0.594129 0.776707 -0.209134 0.934769 0.432221 1 2 1.000000
manhack_sheet
  2 1.999397 -0.568901 0.149724 0.033891 0.912122 -0.408516 0.109806 0.309153 1 2 1.000000
  2 5.576454 -1.544974 -1.461393 0.033695 0.893574 -0.447649 0.032649 0.214099 1 2 1.000000
  2 2.494708 -1.627685 -2.051491 0.074414 0.888780 -0.452253 0.034409 0.309078 1 2 1.000000
manhack_sheet
  2 1.999397 -0.568901 0.149724 0.033891 0.912122 -0.408516 0.109806 0.309153 1 2 1.000000
  2 5.088626 -0.381526 0.824302 0.042081 0.903282 -0.426978 0.111520 0.213392 1 2 1.000000
  2 5.576454 -1.544974 -1.461393 0.033695 0.893574 -0.447649 0.032649 0.214099 1 2 1.000000
manhack_sheet
  2 5.088626 -0.381526 0.824302 0.042081 0.903282 -0.426978 0.111520 0.213392 1 2 1.000000
  2 5.968572 -0.416915 0.819893 0.034070 0.901002 -0.432475 0.105613 0.187416 1 2 1.000000
  2 5.576454 -1.544974 -1.461393 0.033695 0.893574 -0.447649 0.032649 0.214099 1 2 1.000000
manhack_sheet
  2 1.766594 1.457365 5.733198 0.280584 -0.853525 0.439053 0.866055 0.494480 1 2 1.000000
  2 3.249764 2.861717 7.515439 0.280584 -0.853525 0.439053 0.788752 0.432221 1 2 1.000000
  2 1.393990 2.189973 7.395518 0.280584 -0.853525 0.439053 0.866055 0.432221 1 2 1.000000
manhack_sheet
  2 1.766594 1.457365 5.733198 0.280584 -0.853525 0.439053 0.866055 0.494480 1 2 1.000000
  2 3.622368 2.129108 5.853117 0.280584 -0.853525 0.439053 0.788752 0.494480 1 2 1.000000
  2 3.249764 2.861717 7.515439 0.280584 -0.853525 0.439053 0.788752 0.432221 1 2 1.000000
manhack_sheet
  2 5.968572 -0.416915 0.819893 0.034070 0.901002 -0.432475 0.983353 0.292091 1 2 1.000000
  2 4.812492 0.032080 1.701906 0.035191 0.908225 -0.416999 0.964563 0.306317 1 2 1.000000
  2 6.219347 0.004182 1.757300 0.034435 0.908173 -0.417177 0.968287 0.286774 1 2 1.000000
manhack_sheet
  2 5.968572 -0.416915 0.819893 0.034070 0.901002 -0.432475 0.983353 0.292091 1 2 1.000000
  2 5.088626 -0.381526 0.824302 0.042081 0.903282 -0.426978 0.980361 0.304237 1 2 1.000000
  2 4.812492 0.032080 1.701906 0.035191 0.908225 -0.416999 0.964563 0.306317 1 2 1.000000
manhack_sheet
  2 2.297740 2.963412 5.188517 -0.927650 0.217320 -0.303706 0.934769 0.494480 1 2 1.000000
  2 1.393990 2.189973 7.395518 -0.979586 -0.086817 -0.181310 0.866055 0.432221 1 2 1.000000
  2 1.925135 3.696020 6.850838 -0.927650 0.217320 -0.303706 0.934769 0.432221 1 2 1.000000
manhack_sheet
  2 2.297740 2.963412 5.188517 -0.927650 0.217320 -0.303706 0.934769 0.494480 1 2 1.000000
  2 1.766594 1.457365 5.733198 -0.979586 -0.086817 -0.181310 0.866055 0.494480 1 2 1.000000
  2 1.393990 2.189973 7.395518 -0.979586 -0.086817 -0.181310 0.866055 0.432221 1 2 1.000000
manhack_sheet
  2 4.186071 1.931309 0.359239 0.594169 -0.587125 0.549770 0.855737 0.117291 1 2 1.000000
  2 3.017942 -0.496318 1.381999 0.998482 0.054992 0.003202 0.942032 0.098954 1 2 1.000000
  2 4.304875 -0.184523 -0.348956 0.550216 0.195655 0.811777 0.922072 0.155590 1 2 1.000000
manhack_sheet
  2 4.186071 1.931309 0.359239 0.594169 -0.587125 0.549770 0.855737 0.117291 1 2 1.000000
  2 2.933361 1.010040 1.886196 0.998482 0.054992 0.003202 0.894805 0.071687 1 2 1.000000
  2 3.017942 -0.496318 1.381999 0.998482 0.054992 0.003202 0.942032 0.098954 1 2 1.000000
manhack_sheet
  2 3.017942 -0.496318 1.381999 0.998482 0.054992 0.003202 0.942032 0.098954 1 2 1.000000
  2 2.933361 1.010040 1.886196 0.998482 0.054992 0.003202 0.894805 0.071687 1 2 1.000000
  2 2.945602 0.753514 2.474487 0.998482 0.054992 0.003202 0.907460 0.053684 1 2 1.000000
manhack_sheet
  2 3.017942 -0.496318 1.381999 0.998482 0.054992 0.003202 0.942032 0.098954 1 2 1.000000
  2 2.945602 0.753514 2.474487 0.998482 0.054992 0.003202 0.907460 0.053684 1 2 1.000000
  2 2.978839 0.139340 2.658138 0.998482 0.054992 0.003202 0.929378 0.051727 1 2 1.000000
manhack_sheet
  2 3.017942 -0.496318 1.381999 0.998482 0.054992 0.003202 0.942032 0.098954 1 2 1.000000
  2 2.978839 0.139340 2.658138 0.998482 0.054992 0.003202 0.929378 0.051727 1 2 1.000000
  2 3.018062 -0.546356 2.203909 0.998482 0.054992 0.003202 0.949338 0.071687 1 2 1.000000
manhack_sheet
  2 3.017942 -0.496318 1.381999 0.998482 0.054992 0.003202 0.942032 0.098954 1 2 1.000000
  2 3.018062 -0.546356 2.203909 0.982762 -0.151694 0.105673 0.949338 0.071687 1 2 1.000000
  2 2.857732 -1.397832 2.157244 0.930430 0.076485 0.358399 0.998669 0.078993 1 2 1.000000
manhack_sheet
  2 2.857732 -1.397832 2.157244 0.930430 0.076485 0.358399 0.998669 0.078993 1 2 1.000000
  2 3.018062 -0.546356 2.203909 0.982762 -0.151694 0.105673 0.949338 0.071687 1 2 1.000000
  2 2.834874 -1.026254 2.903220 0.948484 -0.217015 -0.230828 0.988406 0.040695 1 2 1.000000
manhack_sheet
  2 2.834874 -1.026254 2.903220 0.948484 -0.217015 -0.230828 0.988406 0.040695 1 2 1.000000
  2 3.018062 -0.546356 2.203909 0.982762 -0.151694 0.105673 0.949338 0.071687 1 2 1.000000
  2 2.978839 0.139340 2.658138 0.998482 0.054992 0.003202 0.929378 0.051727 1 2 1.000000
manhack_sheet
  2 0.525965 2.486044 4.403831 -0.970893 0.075901 0.227169 0.601451 0.996859 1 2 1.000000
  2 -0.050599 -0.161930 2.824401 -0.982158 0.062535 0.177355 0.660139 0.914820 1 2 1.000000
  2 0.556078 1.153287 4.890353 -0.970893 0.075901 0.227169 0.646093 0.995474 1 2 1.000000
manhack_sheet
  2 0.525965 2.486044 4.403831 -0.970893 0.075901 0.227169 0.601451 0.996859 1 2 1.000000
  2 -0.049359 1.620950 2.146532 -0.982158 0.062535 0.177355 0.599771 0.916206 1 2 1.000000
  2 -0.050599 -0.161930 2.824401 -0.982158 0.062535 0.177355 0.660139 0.914820 1 2 1.000000
manhack_sheet
  2 2.160179 0.821087 -0.739173 0.233539 -0.392818 -0.889468 0.805030 0.359806 1 2 1.000000
  2 4.549102 -2.234406 1.171809 0.207546 -0.383635 -0.899860 0.891058 0.306305 1 2 1.000000
  2 1.958886 -2.102232 0.492685 0.233539 -0.392818 -0.889468 0.885417 0.362673 1 2 1.000000
manhack_sheet
  2 2.160179 0.821087 -0.739173 0.233539 -0.392818 -0.889468 0.805030 0.359806 1 2 1.000000
  2 4.180688 0.874101 -0.238403 0.220567 -0.388269 -0.894761 0.805572 0.315256 1 2 1.000000
  2 4.549102 -2.234406 1.171809 0.207546 -0.383635 -0.899860 0.891058 0.306305 1 2 1.000000
manhack_sheet
  2 6.007805 1.815179 2.026041 0.126923 0.955089 -0.267761 0.553273 0.634557 1 2 1.000000
  2 0.884837 2.428499 2.544533 0.079066 0.940295 -0.331050 0.570953 0.820347 1 2 1.000000
  2 1.580091 2.772949 4.105183 0.089769 0.963392 -0.252621 0.509397 0.808986 1 2 1.000000
manhack_sheet
  2 6.007805 1.815179 2.026041 0.126923 0.955089 -0.267761 0.553273 0.634557 1 2 1.000000
  2 -1.839701 1.152538 -0.763061 0.057548 0.922724 -0.381142 0.718385 0.886374 1 2 1.000000
  2 0.884837 2.428499 2.544533 0.079066 0.940295 -0.331050 0.570953 0.820347 1 2 1.000000
manhack_sheet
  2 4.594484 -0.225485 -3.534346 0.047217 0.933786 -0.354702 0.772579 0.634263 1 2 1.000000
  2 -1.839701 1.152538 -0.763061 0.057548 0.922724 -0.381142 0.718385 0.886374 1 2 1.000000
  2 6.007805 1.815179 2.026041 0.126923 0.955089 -0.267761 0.553273 0.634557 1 2 1.000000
manhack_sheet
  2 3.770056 -0.426317 5.334075 0.970229 0.158862 0.182806 0.500495 0.704276 1 2 1.000000
  2 4.281306 1.211051 0.622440 0.978394 0.206327 -0.013181 0.371660 0.849145 1 2 1.000000
  2 3.363197 2.563739 3.967449 0.947866 0.289079 0.134103 0.371170 0.706101 1 2 1.000000
manhack_sheet
  2 3.770056 -0.426317 5.334075 0.970229 0.158862 0.182806 0.500495 0.704276 1 2 1.000000
  2 4.549102 -2.234406 1.171809 0.993289 0.031654 -0.111244 0.503619 0.883180 1 2 1.000000
  2 4.281306 1.211051 0.622440 0.978394 0.206327 -0.013181 0.371660 0.849145 1 2 1.000000
manhack_sheet
  2 4.549102 -2.234406 1.171809 0.993289 0.031654 -0.111244 0.503619 0.883180 1 2 1.000000
  2 4.180688 0.874101 -0.238403 0.980087 0.117494 -0.160075 0.373648 0.882504 1 2 1.000000
  2 4.281306 1.211051 0.622440 0.978394 0.206327 -0.013181 0.371660 0.849145 1 2 1.000000
manhack_sheet
  2 3.017942 -0.496318 1.381999 -0.395413 -0.779679 -0.485540 0.815512 0.368652 1 2 1.000000
  2 1.413496 0.045620 1.549281 -0.828176 -0.155018 -0.538603 0.789671 0.428379 1 2 1.000000
  2 4.304875 -0.184523 -0.348956 0.014117 -0.199252 -0.979846 0.789672 0.368652 1 2 1.000000
manhack_sheet
  2 2.857732 -1.397832 2.157244 -0.389037 -0.902588 0.184349 0.841351 0.399963 1 2 1.000000
  2 1.413496 0.045620 1.549281 -0.828176 -0.155018 -0.538603 0.789671 0.428379 1 2 1.000000
  2 3.017942 -0.496318 1.381999 -0.395413 -0.779679 -0.485540 0.815512 0.368652 1 2 1.000000
manhack_sheet
  2 2.857732 -1.397832 2.157244 -0.389037 -0.902588 0.184349 0.841351 0.399963 1 2 1.000000
  2 1.409452 0.095635 1.951310 -0.648672 -0.746542 -0.147986 0.886571 0.428379 1 2 1.000000
  2 1.413496 0.045620 1.549281 -0.828176 -0.155018 -0.538603 0.789671 0.428379 1 2 1.000000
manhack_sheet
  2 2.834874 -1.026254 2.903220 -0.401466 -0.700546 0.589967 0.858578 0.399963 1 2 1.000000
  2 1.409452 0.095635 1.951310 -0.648672 -0.746542 -0.147986 0.886571 0.428379 1 2 1.000000
  2 2.857732 -1.397832 2.157244 -0.389037 -0.902588 0.184349 0.841351 0.399963 1 2 1.000000
manhack_sheet
  2 6.242475 -0.857677 1.016203 -0.926856 0.342564 -0.153583 0.212018 0.089449 1 2 1.000000
  2 3.896909 -2.701732 2.434252 -0.598307 0.754344 -0.270174 0.204654 0.161581 1 2 1.000000
  2 5.034541 2.232768 7.110447 -0.821124 0.407674 -0.399445 0.058884 0.114830 1 2 1.000000
manhack_sheet
  2 6.242475 -0.857677 1.016203 -0.926856 0.342564 -0.153583 0.212018 0.089449 1 2 1.000000
  2 3.753550 -2.727011 -0.281758 -0.529537 0.847689 -0.031838 0.254854 0.137236 1 2 1.000000
  2 3.896909 -2.701732 2.434252 -0.598307 0.754344 -0.270174 0.204654 0.161581 1 2 1.000000
manhack_sheet
  2 6.242475 -0.857677 1.016203 -0.926856 0.342564 -0.153583 0.212018 0.089449 1 2 1.000000
  2 6.129509 -1.399044 -1.321367 -0.578573 0.813283 -0.061845 0.263034 0.069932 1 2 1.000000
  2 3.753550 -2.727011 -0.281758 -0.529537 0.847689 -0.031838 0.254854 0.137236 1 2 1.000000
manhack_sheet
  2 6.029427 1.756253 2.892991 -0.125205 -0.336697 -0.933252 0.997101 0.885124 1 2 1.000000
  2 1.416264 -0.031240 4.156783 -0.125205 -0.336697 -0.933252 0.921744 0.861976 1 2 1.000000
  2 1.916860 2.143621 3.345242 -0.125205 -0.336697 -0.933252 0.994882 0.850599 1 2 1.000000
manhack_sheet
  2 6.029427 1.756253 2.892991 -0.125205 -0.336697 -0.933252 0.997101 0.885124 1 2 1.000000
  2 5.931614 -0.236360 3.665268 -0.125205 -0.336697 -0.933252 0.930461 0.883438 1 2 1.000000
  2 1.416264 -0.031240 4.156783 -0.125205 -0.336697 -0.933252 0.921744 0.861976 1 2 1.000000
manhack_sheet
  2 5.422665 0.846055 0.525848 -0.049876 -0.929390 0.365713 0.543229 0.919932 1 2 1.000000
  2 1.916860 2.143621 3.345242 -0.049876 -0.929390 0.365713 0.592330 0.898380 1 2 1.000000
  2 2.587978 1.031543 0.581926 -0.049876 -0.929390 0.365713 0.532237 0.897435 1 2 1.000000
manhack_sheet
  2 5.422665 0.846055 0.525848 -0.049876 -0.929390 0.365713 0.543229 0.919932 1 2 1.000000
  2 6.029427 1.756253 2.892991 -0.049876 -0.929390 0.365713 0.594558 0.920036 1 2 1.000000
  2 1.916860 2.143621 3.345242 -0.049876 -0.929390 0.365713 0.592330 0.898380 1 2 1.000000
manhack_sheet
  2 2.587978 1.031543 0.581926 0.034238 0.350745 0.935845 0.998012 0.848953 1 2 1.000000
  2 5.324854 -1.146558 1.298126 0.034238 0.350745 0.935845 0.932002 0.883399 1 2 1.000000
  2 5.422665 0.846055 0.525848 0.034238 0.350745 0.935845 0.998641 0.885085 1 2 1.000000
manhack_sheet
  2 2.587978 1.031543 0.581926 0.034238 0.350745 0.935845 0.998012 0.848953 1 2 1.000000
  2 2.087384 -1.143319 1.393466 0.034238 0.350745 0.935845 0.924874 0.860330 1 2 1.000000
  2 5.324854 -1.146558 1.298126 0.034238 0.350745 0.935845 0.932002 0.883399 1 2 1.000000
manhack_sheet
  2 6.508568 -0.556048 -3.096302 0.034551 0.938730 -0.342917 0.702668 0.395505 1 2 1.000000
  2 4.614878 -1.424853 -5.127135 0.126024 0.864148 -0.487202 0.658051 0.325177 1 2 1.000000
  2 4.719092 -0.849245 -4.079225 0.034551 0.938730 -0.342917 0.691065 0.337990 1 2 1.000000
manhack_sheet
  2 6.508568 -0.556048 -3.096302 0.034551 0.938730 -0.342917 0.702668 0.395505 1 2 1.000000
  2 6.404353 -1.131656 -4.144211 0.126024 0.864148 -0.487202 0.669653 0.382693 1 2 1.000000
  2 4.614878 -1.424853 -5.127135 0.126024 0.864148 -0.487202 0.658051 0.325177 1 2 1.000000
manhack_sheet
  2 4.623219 -1.817635 -3.615819 0.113921 -0.989603 0.087790 0.538651 0.165802 1 2 1.000000
  2 6.404353 -1.131656 -4.144211 0.285167 -0.927276 -0.242567 0.495350 0.197019 1 2 1.000000
  2 6.412695 -1.524437 -2.632896 0.113921 -0.989603 0.087790 0.495136 0.165619 1 2 1.000000
manhack_sheet
  2 4.623219 -1.817635 -3.615819 0.113921 -0.989603 0.087790 0.538651 0.165802 1 2 1.000000
  2 4.614878 -1.424853 -5.127135 0.285167 -0.927276 -0.242567 0.538865 0.197202 1 2 1.000000
  2 6.404353 -1.131656 -4.144211 0.285167 -0.927276 -0.242567 0.495350 0.197019 1 2 1.000000
manhack_sheet
  2 2.773560 0.765004 0.143736 0.015349 0.947628 -0.319006 0.673792 0.412869 1 2 1.000000
  2 4.719092 -0.849245 -4.079225 0.034551 0.938730 -0.342917 0.612527 0.349097 1 2 1.000000
  2 1.540002 0.384302 -1.022717 0.034551 0.938730 -0.342917 0.639656 0.434136 1 2 1.000000
manhack_sheet
  2 2.773560 0.765004 0.143736 0.015349 0.947628 -0.319006 0.673792 0.412869 1 2 1.000000
  2 6.508568 -0.556048 -3.096302 0.034551 0.938730 -0.342917 0.646663 0.327831 1 2 1.000000
  2 4.719092 -0.849245 -4.079225 0.034551 0.938730 -0.342917 0.612527 0.349097 1 2 1.000000
manhack_sheet
  2 -0.050599 -0.161930 2.824401 -0.982158 0.062535 0.177355 0.280128 0.263220 1 2 1.000000
  2 -0.673023 0.094016 -2.127846 -0.990686 0.048994 0.127046 0.306877 0.259349 1 2 1.000000
  2 -0.674262 -1.688864 -1.449976 -0.990686 0.048994 0.127046 0.282975 0.257657 1 2 1.000000
manhack_sheet
  2 -0.050599 -0.161930 2.824401 -0.982158 0.062535 0.177355 0.280128 0.263220 1 2 1.000000
  2 -0.049359 1.620950 2.146532 -0.982158 0.062535 0.177355 0.304030 0.264911 1 2 1.000000
  2 -0.673023 0.094016 -2.127846 -0.990686 0.048994 0.127046 0.306877 0.259349 1 2 1.000000
manhack_sheet
  2 2.487447 -1.717040 -2.008675 -0.058408 -0.915444 0.398184 0.034586 0.309012 1 2 1.000000
  2 5.969193 -0.505830 0.864867 -0.034070 -0.901002 0.432475 0.105806 0.187103 1 2 1.000000
  2 1.992049 -0.658314 0.192955 -0.039979 -0.900584 0.432839 0.109994 0.309088 1 2 1.000000
manhack_sheet
  2 2.487447 -1.717040 -2.008675 -0.058408 -0.915444 0.398184 0.034586 0.309012 1 2 1.000000
  2 5.577075 -1.633889 -1.416421 -0.033695 -0.893574 0.447649 0.032842 0.213786 1 2 1.000000
  2 5.969193 -0.505830 0.864867 -0.034070 -0.901002 0.432475 0.105806 0.187103 1 2 1.000000
manhack_sheet
  2 1.224333 2.467679 3.455420 0.048150 0.925843 -0.374829 0.142757 0.221401 1 2 1.000000
  2 4.281306 1.211051 0.622440 0.048397 0.937865 -0.343609 0.234248 0.165326 1 2 1.000000
  2 1.895931 1.248424 0.449005 0.038784 0.943195 -0.329967 0.225793 0.222660 1 2 1.000000
manhack_sheet
  2 1.224333 2.467679 3.455420 0.048150 0.925843 -0.374829 0.142757 0.221401 1 2 1.000000
  2 3.363197 2.563739 3.967449 0.044643 0.928014 -0.369860 0.141050 0.167906 1 2 1.000000
  2 4.281306 1.211051 0.622440 0.048397 0.937865 -0.343609 0.234248 0.165326 1 2 1.000000
manhack_sheet
  2 1.798476 -0.150597 1.043766 0.035947 0.908278 -0.416820 0.843658 0.302154 1 2 1.000000
  2 5.088626 -0.381526 0.824302 0.042081 0.903282 -0.426978 0.841394 0.234434 1 2 1.000000
  2 1.999397 -0.568901 0.149724 0.033891 0.912122 -0.408516 0.863204 0.295591 1 2 1.000000
manhack_sheet
  2 1.798476 -0.150597 1.043766 0.035947 0.908278 -0.416820 0.843658 0.302154 1 2 1.000000
  2 4.812492 0.032080 1.701906 0.035191 0.908225 -0.416999 0.822379 0.242484 1 2 1.000000
  2 5.088626 -0.381526 0.824302 0.042081 0.903282 -0.426978 0.841394 0.234434 1 2 1.000000
manhack_sheet
  2 1.958886 -2.102232 0.492685 -0.345573 -0.874690 0.339849 0.121636 0.315234 1 2 1.000000
  2 3.770056 -0.426317 5.334075 0.067316 -0.919324 0.387700 0.262173 0.229692 1 2 1.000000
  2 1.024927 -0.430331 4.675945 -0.316617 -0.906151 0.280434 0.260932 0.315169 1 2 1.000000
manhack_sheet
  2 1.958886 -2.102232 0.492685 -0.345573 -0.874690 0.339849 0.121636 0.315234 1 2 1.000000
  2 4.549102 -2.234406 1.171809 0.021441 -0.901846 0.431524 0.122817 0.234200 1 2 1.000000
  2 3.770056 -0.426317 5.334075 0.067316 -0.919324 0.387700 0.262173 0.229692 1 2 1.000000
manhack_sheet
  2 -0.809849 0.948252 2.264594 -0.001919 -0.883228 0.468939 0.573017 0.828680 1 2 1.000000
  2 0.605181 -2.010727 -3.021073 0.118493 -0.877950 0.463857 0.669573 0.869063 1 2 1.000000
  2 1.924180 -1.468214 -3.387042 0.146249 -0.882048 0.447886 0.668324 0.894951 1 2 1.000000
manhack_sheet
  2 -0.809849 0.948252 2.264594 -0.001919 -0.883228 0.468939 0.573017 0.828680 1 2 1.000000
  2 1.924180 -1.468214 -3.387042 0.146249 -0.882048 0.447886 0.668324 0.894951 1 2 1.000000
  2 0.723614 0.809279 2.493856 -0.001919 -0.883228 0.468939 0.561311 0.855936 1 2 1.000000
manhack_sheet
  2 0.723614 0.809279 2.493856 -0.001919 -0.883228 0.468939 0.561311 0.855936 1 2 1.000000
  2 4.518047 1.723879 5.330466 -0.150045 -0.864625 0.479489 0.511546 0.887239 1 2 1.000000
  2 -0.809849 0.948252 2.264594 -0.001919 -0.883228 0.468939 0.573017 0.828680 1 2 1.000000
manhack_sheet
  2 0.328527 -4.353197 0.536675 0.925844 0.340560 -0.163805 0.696553 0.296320 1 2 1.000000
  2 -1.404266 0.161321 -1.616852 0.932423 0.361298 0.007146 0.787465 0.291719 1 2 1.000000
  2 -1.952889 1.557650 -0.629451 0.985307 0.089465 0.145483 0.795749 0.314339 1 2 1.000000
manhack_sheet
  2 0.280380 2.929673 7.243820 0.786907 0.109734 -0.607236 0.758313 0.438533 1 2 1.000000
  2 0.328527 -4.353197 0.536675 0.925844 0.340560 -0.163805 0.696553 0.296320 1 2 1.000000
  2 -1.952889 1.557650 -0.629451 0.985307 0.089465 0.145483 0.795749 0.314339 1 2 1.000000
manhack_sheet
  2 0.280380 2.929673 7.243820 0.786907 0.109734 -0.607236 0.758313 0.438533 1 2 1.000000
  2 1.274728 0.135474 6.760334 0.768550 0.347877 -0.536947 0.719197 0.415459 1 2 1.000000
  2 0.328527 -4.353197 0.536675 0.925844 0.340560 -0.163805 0.696553 0.296320 1 2 1.000000
manhack_sheet
  2 0.280380 2.929673 7.243820 -0.714840 0.027032 0.698766 0.289083 0.492754 1 2 1.000000
  2 -1.952889 1.557650 -0.629451 -0.955026 0.173417 -0.240522 0.280960 0.322570 1 2 1.000000
  2 -1.404266 0.161321 -1.616852 -0.859915 -0.407754 0.307054 0.307255 0.298314 1 2 1.000000
manhack_sheet
  2 0.328527 -4.353197 0.536675 -0.915989 -0.275048 0.292082 0.412106 0.327096 1 2 1.000000
  2 0.280380 2.929673 7.243820 -0.714840 0.027032 0.698766 0.289083 0.492754 1 2 1.000000
  2 -1.404266 0.161321 -1.616852 -0.859915 -0.407754 0.307054 0.307255 0.298314 1 2 1.000000
manhack_sheet
  2 0.328527 -4.353197 0.536675 -0.915989 -0.275048 0.292082 0.412106 0.327096 1 2 1.000000
  2 1.274728 0.135474 6.760334 -0.702986 -0.374302 0.604738 0.348243 0.473108 1 2 1.000000
  2 0.280380 2.929673 7.243820 -0.714840 0.027032 0.698766 0.289083 0.492754 1 2 1.000000
manhack_sheet
  2 3.896909 -2.701732 2.434252 0.543918 -0.787392 0.290116 0.415442 0.988571 1 2 1.000000
  2 3.753550 -2.727011 -0.281758 0.313019 -0.880190 -0.356770 0.358816 0.953203 1 2 1.000000
  2 6.129509 -1.399044 -1.321367 0.830632 -0.556576 -0.016563 0.355608 0.883817 1 2 1.000000
manhack_sheet
  2 3.896909 -2.701732 2.434252 0.543918 -0.787392 0.290116 0.415442 0.988571 1 2 1.000000
  2 6.129509 -1.399044 -1.321367 0.830632 -0.556576 -0.016563 0.355608 0.883817 1 2 1.000000
  2 6.188213 -1.374881 1.518237 0.866457 -0.473889 0.157101 0.414767 0.921716 1 2 1.000000
manhack_sheet
  2 6.188213 -1.374881 1.518237 0.866457 -0.473889 0.157101 0.414767 0.921716 1 2 1.000000
  2 5.034541 2.232768 7.110447 0.856971 -0.337812 0.389210 0.591825 0.946437 1 2 1.000000
  2 3.896909 -2.701732 2.434252 0.543918 -0.787392 0.290116 0.415442 0.988571 1 2 1.000000
manhack_sheet
  2 6.188213 -1.374881 1.518237 0.866457 -0.473889 0.157101 0.414767 0.921716 1 2 1.000000
  2 6.242475 -0.857677 1.016203 0.916287 0.391873 -0.082790 0.412714 0.904417 1 2 1.000000
  2 5.034541 2.232768 7.110447 0.856971 -0.337812 0.389210 0.591825 0.946437 1 2 1.000000
manhack_sheet
  2 6.188213 -1.374881 1.518237 0.866457 -0.473889 0.157101 0.414767 0.921716 1 2 1.000000
  2 6.129509 -1.399044 -1.321367 0.830632 -0.556576 -0.016563 0.355608 0.883817 1 2 1.000000
  2 6.242475 -0.857677 1.016203 0.916287 0.391873 -0.082790 0.412714 0.904417 1 2 1.000000
manhack_sheet
  2 -0.049359 1.620950 2.146532 -0.107152 0.939234 -0.326125 0.717437 0.518489 1 2 1.000000
  2 1.094033 0.051902 -2.829722 0.009601 0.935257 -0.353839 0.777901 0.489385 1 2 1.000000
  2 -0.673023 0.094016 -2.127846 -0.105037 0.941263 -0.320921 0.774793 0.512901 1 2 1.000000
manhack_sheet
  2 -0.049359 1.620950 2.146532 -0.107152 0.939234 -0.326125 0.717437 0.518489 1 2 1.000000
  2 1.717696 1.578835 1.444655 -0.009224 0.939005 -0.343779 0.720544 0.494973 1 2 1.000000
  2 1.094033 0.051902 -2.829722 0.009601 0.935257 -0.353839 0.777901 0.489385 1 2 1.000000
manhack_sheet
  2 0.525965 2.486044 4.403831 -0.109264 0.937171 -0.331317 0.686187 0.518507 1 2 1.000000
  2 1.717696 1.578835 1.444655 -0.009224 0.939005 -0.343779 0.720544 0.494973 1 2 1.000000
  2 -0.049359 1.620950 2.146532 -0.107152 0.939234 -0.326125 0.717437 0.518489 1 2 1.000000
manhack_sheet
  2 5.947087 1.516690 1.951036 0.057267 0.929548 -0.364226 0.702648 0.444490 1 2 1.000000
  2 1.717696 1.578835 1.444655 -0.009224 0.939005 -0.343779 0.720544 0.494973 1 2 1.000000
  2 0.525965 2.486044 4.403831 -0.109264 0.937171 -0.331317 0.686187 0.518507 1 2 1.000000
manhack_sheet
  2 5.947087 1.516690 1.951036 0.057267 0.929548 -0.364226 0.702648 0.444490 1 2 1.000000
  2 0.525965 2.486044 4.403831 -0.109264 0.937171 -0.331317 0.686187 0.518507 1 2 1.000000
  2 6.220436 1.924742 3.016069 0.057935 0.927182 -0.370104 0.687899 0.444476 1 2 1.000000
manhack_sheet
  2 1.094033 0.051902 -2.829722 0.009601 0.935257 -0.353839 0.777901 0.489385 1 2 1.000000
  2 1.717696 1.578835 1.444655 -0.009224 0.939005 -0.343779 0.720544 0.494973 1 2 1.000000
  2 5.494124 0.859792 0.171184 0.055206 0.936832 -0.345395 0.727182 0.444500 1 2 1.000000
manhack_sheet
  2 3.772988 1.025486 2.845228 -0.106652 0.945296 -0.308288 0.597242 0.325237 1 2 1.000000
  2 1.302832 2.246351 6.235545 0.148049 0.959960 -0.237818 0.656051 0.314998 1 2 1.000000
  2 4.632103 1.029302 3.395458 -0.018499 0.961232 -0.275119 0.594073 0.312257 1 2 1.000000
manhack_sheet
  2 4.632103 1.029302 3.395458 -0.018499 0.961232 -0.275119 0.594073 0.312257 1 2 1.000000
  2 2.766471 -0.687033 -0.742760 -0.540787 0.840065 -0.042900 0.568187 0.373284 1 2 1.000000
  2 3.772988 1.025486 2.845228 -0.106652 0.945296 -0.308288 0.597242 0.325237 1 2 1.000000
manhack_sheet
  2 4.632103 1.029302 3.395458 -0.018499 0.961232 -0.275119 0.594073 0.312257 1 2 1.000000
  2 3.755784 -0.198390 -0.901558 -0.098757 0.960010 -0.261969 0.559098 0.363081 1 2 1.000000
  2 2.766471 -0.687033 -0.742760 -0.540787 0.840065 -0.042900 0.568187 0.373284 1 2 1.000000
manhack_sheet
  2 3.755784 -0.198390 -0.901558 -0.098757 0.960010 -0.261969 0.559098 0.363081 1 2 1.000000
  2 -0.197225 -1.488130 -3.134920 -0.376577 0.916127 0.137481 0.571874 0.426019 1 2 1.000000
  2 2.766471 -0.687033 -0.742760 -0.540787 0.840065 -0.042900 0.568187 0.373284 1 2 1.000000
manhack_sheet
  2 3.755784 -0.198390 -0.901558 -0.098757 0.960010 -0.261969 0.559098 0.363081 1 2 1.000000
  2 0.638467 -1.122259 -3.671414 -0.090623 0.972397 -0.215015 0.560481 0.421114 1 2 1.000000
  2 -0.197225 -1.488130 -3.134920 -0.376577 0.916127 0.137481 0.571874 0.426019 1 2 1.000000
manhack_sheet
  2 2.101970 1.377048 8.263713 -0.197618 -0.456322 0.867593 0.341321 0.909310 1 2 1.000000
  2 0.827657 -4.106463 0.639428 -0.816353 -0.532574 0.223457 0.108653 0.974554 1 2 1.000000
  2 1.603448 -4.421199 1.115649 -0.116405 -0.952608 0.281047 0.111500 0.952249 1 2 1.000000
manhack_sheet
  2 0.827657 -4.106463 0.639428 -0.816353 -0.532574 0.223457 0.108653 0.974554 1 2 1.000000
  2 1.081948 -4.545831 -2.440536 0.008257 -0.970938 -0.239190 0.036491 0.984046 1 2 1.000000
  2 1.603448 -4.421199 1.115649 -0.116405 -0.952608 0.281047 0.111500 0.952249 1 2 1.000000
manhack_sheet
  2 1.603448 -4.421199 1.115649 -0.116405 -0.952608 0.281047 0.111500 0.952249 1 2 1.000000
  2 1.081948 -4.545831 -2.440536 0.008257 -0.970938 -0.239190 0.036491 0.984046 1 2 1.000000
  2 4.721835 -3.426738 0.859847 0.317346 -0.907066 0.276626 0.108446 0.876547 1 2 1.000000
manhack_sheet
  2 4.721835 -3.426738 0.859847 0.317346 -0.907066 0.276626 0.108446 0.876547 1 2 1.000000
  2 2.101970 1.377048 8.263713 -0.197618 -0.456322 0.867593 0.341321 0.909310 1 2 1.000000
  2 1.603448 -4.421199 1.115649 -0.116405 -0.952608 0.281047 0.111500 0.952249 1 2 1.000000
manhack_sheet
  2 4.721835 -3.426738 0.859847 0.317346 -0.907066 0.276626 0.108446 0.876547 1 2 1.000000
  2 4.460917 1.190164 7.641459 0.255218 -0.641836 0.723125 0.316298 0.853417 1 2 1.000000
  2 2.101970 1.377048 8.263713 -0.197618 -0.456322 0.867593 0.341321 0.909310 1 2 1.000000
manhack_sheet
  2 -0.809849 0.948252 2.264594 -0.957210 -0.269527 -0.105371 0.328320 0.254614 1 2 1.000000
  2 0.358043 -0.975275 -3.424603 -0.965436 -0.189971 -0.178447 0.323345 0.218340 1 2 1.000000
  2 0.605181 -2.010727 -3.021073 -0.965436 -0.189971 -0.178447 0.309673 0.221004 1 2 1.000000
manhack_sheet
  2 3.658992 0.706003 3.490608 0.066280 -0.889691 0.451726 0.881512 0.608407 1 2 1.000000
  2 4.632103 1.029302 3.395458 0.147399 -0.834070 0.531602 0.854384 0.597357 1 2 1.000000
  2 1.302832 2.246351 6.235545 0.296431 -0.701497 0.648098 0.975997 0.544165 1 2 1.000000
manhack_sheet
  2 3.658992 0.706003 3.490608 0.066280 -0.889691 0.451726 0.881512 0.608407 1 2 1.000000
  2 3.766958 -0.992319 -0.556185 0.047278 -0.939616 0.338948 0.835152 0.727950 1 2 1.000000
  2 4.632103 1.029302 3.395458 0.147399 -0.834070 0.531602 0.854384 0.597357 1 2 1.000000
manhack_sheet
  2 3.658992 0.706003 3.490608 0.066280 -0.889691 0.451726 0.881512 0.608407 1 2 1.000000
  2 2.766471 -0.687033 -0.742760 -0.166435 -0.839577 0.517117 0.862231 0.738973 1 2 1.000000
  2 3.766958 -0.992319 -0.556185 0.047278 -0.939616 0.338948 0.835152 0.727950 1 2 1.000000
manhack_sheet
  2 2.766471 -0.687033 -0.742760 -0.166435 -0.839577 0.517117 0.862231 0.738973 1 2 1.000000
  2 0.638497 -1.968628 -3.295658 0.038161 -0.956478 0.289298 0.892543 0.838096 1 2 1.000000
  2 3.766958 -0.992319 -0.556185 0.047278 -0.939616 0.338948 0.835152 0.727950 1 2 1.000000
manhack_sheet
  2 2.766471 -0.687033 -0.742760 -0.166435 -0.839577 0.517117 0.862231 0.738973 1 2 1.000000
  2 -0.197225 -1.488130 -3.134920 -0.315309 -0.716342 0.622442 0.919049 0.836770 1 2 1.000000
  2 0.638497 -1.968628 -3.295658 0.038161 -0.956478 0.289298 0.892543 0.838096 1 2 1.000000
manhack_sheet
  2 0.723614 0.809279 2.493856 0.978376 -0.016611 0.206165 0.688456 0.223679 1 2 1.000000
  2 1.924180 -1.468214 -3.387042 0.978376 -0.016611 0.206165 0.699745 0.013212 1 2 1.000000
  2 0.779365 1.318805 2.270340 0.978376 -0.016611 0.206165 0.707008 0.223450 1 2 1.000000
manhack_sheet
  2 2.105444 0.025221 0.778299 0.602389 0.295972 0.741301 0.750037 0.218356 1 2 1.000000
  2 2.773560 0.765004 0.143736 0.683031 0.079217 0.726080 0.781158 0.200363 1 2 1.000000
  2 1.152329 1.230821 1.726551 0.798053 0.178145 0.575653 0.775952 0.269698 1 2 1.000000
manhack_sheet
  2 2.105444 0.025221 0.778299 0.602389 0.295972 0.741301 0.750037 0.218356 1 2 1.000000
  2 6.508568 -0.556048 -3.096302 0.939047 0.045169 0.340808 0.780954 0.049908 1 2 1.000000
  2 2.773560 0.765004 0.143736 0.683031 0.079217 0.726080 0.781158 0.200363 1 2 1.000000
manhack_sheet
  2 2.105444 0.025221 0.778299 0.602389 0.295972 0.741301 0.750037 0.218356 1 2 1.000000
  2 6.412695 -1.524437 -2.632896 0.939047 0.045169 0.340808 0.745432 0.054133 1 2 1.000000
  2 6.508568 -0.556048 -3.096302 0.939047 0.045169 0.340808 0.780954 0.049908 1 2 1.000000
manhack_sheet
  2 6.412695 -1.524437 -2.632896 0.939047 0.045169 0.340808 0.745432 0.054133 1 2 1.000000
  2 6.404353 -1.131656 -4.144211 0.992706 -0.115235 -0.035428 0.774208 0.014013 1 2 1.000000
  2 6.508568 -0.556048 -3.096302 0.939047 0.045169 0.340808 0.780954 0.049908 1 2 1.000000
manhack_sheet
  2 3.892486 4.527160 6.335197 -0.172058 -0.960671 0.217962 0.473544 0.023933 1 2 1.000000
  2 1.232365 4.978065 5.954636 -0.080515 -0.995293 0.053928 0.471535 0.072264 1 2 1.000000
  2 0.532025 3.244300 -1.971762 -0.065451 -0.895261 0.440708 0.325787 0.091567 1 2 1.000000
manhack_sheet
  2 3.892486 4.527160 6.335197 -0.172058 -0.960671 0.217962 0.473544 0.023933 1 2 1.000000
  2 0.532025 3.244300 -1.971762 -0.065451 -0.895261 0.440708 0.325787 0.091567 1 2 1.000000
  2 4.431928 2.575555 -2.108769 -0.560450 -0.768897 0.307722 0.316550 0.021984 1 2 1.000000
manhack_sheet
  2 0.532025 3.244300 -1.971762 -0.065451 -0.895261 0.440708 0.325787 0.091567 1 2 1.000000
  2 4.774494 0.225354 -4.933451 -0.119321 -0.775675 0.619750 0.257630 0.008330 1 2 1.000000
  2 4.431928 2.575555 -2.108769 -0.560450 -0.768897 0.307722 0.316550 0.021984 1 2 1.000000
manhack_sheet
  2 0.532025 3.244300 -1.971762 -0.065451 -0.895261 0.440708 0.325787 0.091567 1 2 1.000000
  2 2.011314 0.541735 -5.120330 -0.044797 -0.767794 0.639129 0.258091 0.056572 1 2 1.000000
  2 4.774494 0.225354 -4.933451 -0.119321 -0.775675 0.619750 0.257630 0.008330 1 2 1.000000
manhack_sheet
  2 2.185143 4.142723 6.056703 0.136728 0.967156 0.214277 0.031927 0.772109 1 2 1.000000
  2 0.726059 2.013223 -2.864394 0.343565 0.771074 -0.536104 0.316301 0.755096 1 2 1.000000
  2 -0.149536 2.538418 -2.672365 -0.223320 0.807675 -0.545700 0.311918 0.781110 1 2 1.000000
manhack_sheet
  2 0.726059 2.013223 -2.864394 0.343565 0.771074 -0.536104 0.316301 0.755096 1 2 1.000000
  2 0.065015 0.975874 -3.851305 -0.244956 0.562290 -0.789827 0.361208 0.796173 1 2 1.000000
  2 -0.149536 2.538418 -2.672365 -0.223320 0.807675 -0.545700 0.311918 0.781110 1 2 1.000000
manhack_sheet
  2 -0.149536 2.538418 -2.672365 -0.223320 0.807675 -0.545700 0.311918 0.781110 1 2 1.000000
  2 0.065015 0.975874 -3.851305 -0.244956 0.562290 -0.789827 0.361208 0.796173 1 2 1.000000
  2 -1.776689 1.071774 -1.998532 -0.657384 0.653843 -0.374613 0.317536 0.836942 1 2 1.000000
manhack_sheet
  2 -1.776689 1.071774 -1.998532 -0.657384 0.653843 -0.374613 0.317536 0.836942 1 2 1.000000
  2 2.185143 4.142723 6.056703 0.136728 0.967156 0.214277 0.031927 0.772109 1 2 1.000000
  2 -0.149536 2.538418 -2.672365 -0.223320 0.807675 -0.545700 0.311918 0.781110 1 2 1.000000
manhack_sheet
  2 -1.776689 1.071774 -1.998532 -0.657384 0.653843 -0.374613 0.317536 0.836942 1 2 1.000000
  2 -0.293475 3.396954 5.678790 -0.472048 0.872314 0.127434 0.067085 0.845193 1 2 1.000000
  2 2.185143 4.142723 6.056703 0.136728 0.967156 0.214277 0.031927 0.772109 1 2 1.000000
manhack_sheet
  2 1.924180 -1.468214 -3.387042 -0.098064 -0.381595 -0.919113 0.377642 0.504541 1 2 1.000000
  2 0.605181 -2.010727 -3.021073 -0.096442 -0.406366 -0.908606 0.393661 0.472890 1 2 1.000000
  2 0.358043 -0.975275 -3.424603 -0.096442 -0.406366 -0.908606 0.362193 0.472894 1 2 1.000000
manhack_sheet
  2 5.968017 1.423675 2.129164 -0.126927 -0.955088 0.267762 0.783168 0.524142 1 2 1.000000
  2 1.580091 2.772949 4.105183 -0.163870 -0.945416 0.281664 0.788505 0.545390 1 2 1.000000
  2 0.884837 2.428499 2.544533 -0.119102 -0.937724 0.326326 0.781023 0.546808 1 2 1.000000
manhack_sheet
  2 5.968017 1.423675 2.129164 -0.126927 -0.955088 0.267762 0.783168 0.524142 1 2 1.000000
  2 0.884837 2.428499 2.544533 -0.119102 -0.937724 0.326326 0.781023 0.546808 1 2 1.000000
  2 4.594484 -0.225485 -3.534346 -0.096475 -0.932436 0.348219 0.733382 0.519813 1 2 1.000000
manhack_sheet
  2 0.884837 2.428499 2.544533 -0.119102 -0.937724 0.326326 0.781023 0.546808 1 2 1.000000
  2 -1.839701 1.152538 -0.763061 -0.032719 -0.923140 0.383068 0.763121 0.554794 1 2 1.000000
  2 4.594484 -0.225485 -3.534346 -0.096475 -0.932436 0.348219 0.733382 0.519813 1 2 1.000000
manhack_sheet
  2 4.518047 1.723879 5.330466 0.611542 -0.373008 -0.697769 0.687949 0.275558 1 2 1.000000
  2 0.723614 0.809279 2.493856 0.611542 -0.373008 -0.697769 0.688456 0.223679 1 2 1.000000
  2 0.779365 1.318805 2.270340 0.611542 -0.373008 -0.697769 0.707008 0.223450 1 2 1.000000
manhack_sheet
  2 3.311874 0.212897 -3.347541 0.430191 0.800837 -0.416648 0.970098 0.973400 1 2 1.000000
  2 6.027987 -0.162905 1.958999 0.758390 0.550368 -0.349200 0.804228 0.801080 1 2 1.000000
  2 4.227327 -0.960973 -3.297364 0.758390 0.550368 -0.349200 0.994914 0.929896 1 2 1.000000
manhack_sheet
  2 3.311874 0.212897 -3.347541 0.430191 0.800837 -0.416648 0.970098 0.973400 1 2 1.000000
  2 4.768087 1.732544 2.122262 0.424196 0.831048 -0.359745 0.754664 0.862867 1 2 1.000000
  2 6.027987 -0.162905 1.958999 0.758390 0.550368 -0.349200 0.804228 0.801080 1 2 1.000000
manhack_sheet
  2 1.496862 1.996570 2.233065 0.009160 0.953349 -0.301730 0.719144 0.989500 1 2 1.000000
  2 4.768087 1.732544 2.122262 0.424196 0.831048 -0.359745 0.754664 0.862867 1 2 1.000000
  2 3.311874 0.212897 -3.347541 0.430191 0.800837 -0.416648 0.970098 0.973400 1 2 1.000000
manhack_sheet
  2 1.496862 1.996570 2.233065 0.009160 0.953349 -0.301730 0.719144 0.989500 1 2 1.000000
  2 3.311874 0.212897 -3.347541 0.430191 0.800837 -0.416648 0.970098 0.973400 1 2 1.000000
  2 2.731168 0.029705 -3.319875 0.009160 0.953349 -0.301730 0.966041 0.995871 1 2 1.000000
manhack_sheet
  2 1.302832 2.246351 6.235545 -0.775498 -0.500555 -0.384770 0.033124 0.361751 1 2 1.000000
  2 3.772988 1.025486 2.845228 -0.996728 -0.079300 -0.015611 0.041918 0.405127 1 2 1.000000
  2 3.658992 0.706003 3.490608 -0.971178 -0.204273 -0.122825 0.028009 0.397262 1 2 1.000000
manhack_sheet
  2 3.772988 1.025486 2.845228 -0.368650 0.909374 -0.192706 0.041918 0.405127 1 2 1.000000
  2 2.766471 -0.687033 -0.742760 -0.540787 0.840065 -0.042900 0.035804 0.495511 1 2 1.000000
  2 3.658992 0.706003 3.490608 -0.971178 -0.204273 -0.122825 0.028009 0.397262 1 2 1.000000
manhack_sheet
  2 -0.197225 -1.488130 -3.134920 -0.378633 -0.375570 -0.845922 0.377642 0.504541 1 2 1.000000
  2 0.638467 -1.122259 -3.671414 -0.377823 -0.383656 -0.842649 0.362193 0.472894 1 2 1.000000
  2 0.638497 -1.968628 -3.295658 -0.377823 -0.383656 -0.842649 0.393661 0.472890 1 2 1.000000
manhack_sheet
  2 0.779365 1.318805 2.270340 -0.096277 0.988155 -0.119502 0.619040 0.586850 1 2 1.000000
  2 -0.809849 0.948252 2.264594 -0.096277 0.988155 -0.119502 0.591178 0.608510 1 2 1.000000
  2 4.518047 1.723879 5.330466 -0.225097 0.963103 0.147523 0.698713 0.614748 1 2 1.000000
manhack_sheet
  2 0.779365 1.318805 2.270340 -0.096277 0.988155 -0.119502 0.619040 0.586850 1 2 1.000000
  2 0.358043 -0.975275 -3.424603 0.019161 0.929806 -0.367550 0.536949 0.453505 1 2 1.000000
  2 -0.809849 0.948252 2.264594 -0.096277 0.988155 -0.119502 0.591178 0.608510 1 2 1.000000
manhack_sheet
  2 0.779365 1.318805 2.270340 -0.096277 0.988155 -0.119502 0.619040 0.586850 1 2 1.000000
  2 1.924180 -1.468214 -3.387042 0.041066 0.925730 -0.375948 0.567145 0.431753 1 2 1.000000
  2 0.358043 -0.975275 -3.424603 0.019161 0.929806 -0.367550 0.536949 0.453505 1 2 1.000000
manhack_sheet
  2 0.770560 1.589335 2.976588 -0.006977 -0.978875 0.204341 0.631018 0.595352 1 2 1.000000
  2 0.455004 1.077324 1.416778 -0.021415 -0.934697 0.354800 0.604106 0.567995 1 2 1.000000
  2 2.316300 1.354040 2.354063 -0.017568 -0.948916 0.315038 0.655501 0.562959 1 2 1.000000
manhack_sheet
  2 2.101970 1.377048 8.263713 0.128518 0.597466 -0.791528 0.289214 0.196815 1 2 1.000000
  2 4.460917 1.190164 7.641459 -0.174512 0.713372 -0.678709 0.301728 0.167211 1 2 1.000000
  2 4.721835 -3.426738 0.859847 -0.217877 0.931007 -0.292841 0.411144 0.178757 1 2 1.000000
manhack_sheet
  2 2.101970 1.377048 8.263713 0.128518 0.597466 -0.791528 0.289214 0.196815 1 2 1.000000
  2 4.721835 -3.426738 0.859847 -0.217877 0.931007 -0.292841 0.411144 0.178757 1 2 1.000000
  2 0.827657 -4.106463 0.639428 0.180177 0.928149 -0.325693 0.411402 0.231201 1 2 1.000000
manhack_sheet
  2 4.721835 -3.426738 0.859847 -0.217877 0.931007 -0.292841 0.411144 0.178757 1 2 1.000000
  2 1.081948 -4.545831 -2.440536 -0.161561 0.975020 -0.152429 0.451023 0.193679 1 2 1.000000
  2 0.827657 -4.106463 0.639428 0.180177 0.928149 -0.325693 0.411402 0.231201 1 2 1.000000
manhack_sheet
  2 2.316300 1.354040 2.354063 0.017568 0.948916 -0.315038 0.145473 0.548560 1 2 1.000000
  2 0.455004 1.077324 1.416778 0.021415 0.934697 -0.354800 0.127890 0.576906 1 2 1.000000
  2 0.770560 1.589335 2.976588 0.006977 0.978875 -0.204341 0.152487 0.573832 1 2 1.000000
manhack_sheet
  2 2.494708 -1.627685 -2.051491 -0.977515 -0.021102 -0.209808 0.512163 0.653116 1 2 1.000000
  2 1.798476 -0.150597 1.043766 -0.977515 -0.021102 -0.209808 0.512611 0.598402 1 2 1.000000
  2 1.999397 -0.568901 0.149724 -0.977515 -0.021102 -0.209808 0.512713 0.614151 1 2 1.000000
manhack_sheet
  2 2.494708 -1.627685 -2.051491 -0.977515 -0.021102 -0.209808 0.512163 0.653116 1 2 1.000000
  2 1.791127 -0.240010 1.086997 -0.977515 -0.021102 -0.209808 0.509566 0.598365 1 2 1.000000
  2 1.798476 -0.150597 1.043766 -0.977515 -0.021102 -0.209808 0.512611 0.598402 1 2 1.000000
manhack_sheet
  2 2.494708 -1.627685 -2.051491 -0.977515 -0.021102 -0.209808 0.512163 0.653116 1 2 1.000000
  2 1.992049 -0.658314 0.192955 -0.977515 -0.021102 -0.209808 0.509668 0.614114 1 2 1.000000
  2 1.791127 -0.240010 1.086997 -0.977515 -0.021102 -0.209808 0.509566 0.598365 1 2 1.000000
manhack_sheet
  2 2.494708 -1.627685 -2.051491 -0.977515 -0.021102 -0.209808 0.512163 0.653116 1 2 1.000000
  2 2.487447 -1.717040 -2.008675 -0.977515 -0.021102 -0.209808 0.509125 0.653085 1 2 1.000000
  2 1.992049 -0.658314 0.192955 -0.977515 -0.021102 -0.209808 0.509668 0.614114 1 2 1.000000
manhack_sheet
  2 4.851555 3.435483 6.619879 -0.791839 -0.608464 0.052566 0.244030 0.033855 1 2 1.000000
  2 3.906097 2.779821 -0.176187 -0.573447 -0.712867 0.403707 0.096593 0.093254 1 2 1.000000
  2 6.352571 0.648606 0.444926 -0.912219 -0.382158 0.147686 0.083515 0.019098 1 2 1.000000
manhack_sheet
  2 3.906097 2.779821 -0.176187 -0.573447 -0.712867 0.403707 0.096593 0.093254 1 2 1.000000
  2 6.368050 -0.825926 -1.442274 -0.645243 -0.604567 0.467075 0.029196 0.003154 1 2 1.000000
  2 6.352571 0.648606 0.444926 -0.912219 -0.382158 0.147686 0.083515 0.019098 1 2 1.000000
manhack_sheet
  2 3.906097 2.779821 -0.176187 0.517362 0.746369 -0.418653 0.253435 0.650713 1 2 1.000000
  2 4.851555 3.435483 6.619879 0.829179 0.558974 -0.003302 0.039628 0.624256 1 2 1.000000
  2 6.263219 1.359527 0.349590 0.850906 0.463840 -0.246599 0.245526 0.571664 1 2 1.000000
manhack_sheet
  2 4.851555 3.435483 6.619879 0.829179 0.558974 -0.003302 0.039628 0.624256 1 2 1.000000
  2 6.352571 0.648606 0.444926 0.924990 -0.260371 0.276768 0.245633 0.550958 1 2 1.000000
  2 6.263219 1.359527 0.349590 0.850906 0.463840 -0.246599 0.245526 0.571664 1 2 1.000000
manhack_sheet
  2 6.352571 0.648606 0.444926 0.924990 -0.260371 0.276768 0.245633 0.550958 1 2 1.000000
  2 6.368050 -0.825926 -1.442274 0.826493 0.380106 -0.415245 0.310512 0.519664 1 2 1.000000
  2 6.263219 1.359527 0.349590 0.850906 0.463840 -0.246599 0.245526 0.571664 1 2 1.000000
manhack_sheet
  2 6.263219 1.359527 0.349590 0.850906 0.463840 -0.246599 0.245526 0.571664 1 2 1.000000
  2 6.368050 -0.825926 -1.442274 0.826493 0.380106 -0.415245 0.310512 0.519664 1 2 1.000000
  2 3.906097 2.779821 -0.176187 0.517362 0.746369 -0.418653 0.253435 0.650713 1 2 1.000000
manhack_sheet
  2 0.877910 -0.407545 -0.383588 -0.150879 -0.853077 0.499494 0.638119 0.445751 1 2 1.000000
  2 1.152329 1.230821 1.726551 -0.479274 -0.016621 0.877508 0.683823 0.464628 1 2 1.000000
  2 -0.494450 0.961003 0.822008 -0.479274 -0.016621 0.877508 0.652409 0.484199 1 2 1.000000
manhack_sheet
  2 0.877910 -0.407545 -0.383588 -0.150879 -0.853077 0.499494 0.638119 0.445751 1 2 1.000000
  2 2.105444 0.025221 0.778299 -0.116099 -0.881869 0.456977 0.670662 0.436017 1 2 1.000000
  2 1.152329 1.230821 1.726551 -0.479274 -0.016621 0.877508 0.683823 0.464628 1 2 1.000000
manhack_sheet
  2 0.877910 -0.407545 -0.383588 -0.150879 -0.853077 0.499494 0.638119 0.445751 1 2 1.000000
  2 6.412695 -1.524437 -2.632896 0.113921 -0.989603 0.087790 0.646663 0.327831 1 2 1.000000
  2 2.105444 0.025221 0.778299 -0.116099 -0.881869 0.456977 0.670662 0.436017 1 2 1.000000
manhack_sheet
  2 0.877910 -0.407545 -0.383588 -0.150879 -0.853077 0.499494 0.638119 0.445751 1 2 1.000000
  2 4.623219 -1.817635 -3.615819 0.113921 -0.989603 0.087790 0.612527 0.349097 1 2 1.000000
  2 6.412695 -1.524437 -2.632896 0.113921 -0.989603 0.087790 0.646663 0.327831 1 2 1.000000
manhack_sheet
  2 6.036000 -0.655359 4.089002 -0.333113 -0.860284 0.385936 0.259428 0.325197 1 2 1.000000
  2 0.556078 1.153287 4.890353 0.130820 -0.899126 0.417682 0.262054 0.499616 1 2 1.000000
  2 5.164248 -1.789838 0.562726 -0.287465 -0.906178 0.310171 0.144394 0.325349 1 2 1.000000
manhack_sheet
  2 0.556078 1.153287 4.890353 0.130820 -0.899126 0.417682 0.262054 0.499616 1 2 1.000000
  2 2.443404 -1.678953 -2.387729 -0.042241 -0.986148 0.160396 0.045438 0.389306 1 2 1.000000
  2 5.164248 -1.789838 0.562726 -0.287465 -0.906178 0.310171 0.144394 0.325349 1 2 1.000000
manhack_sheet
  2 -0.674262 -1.688864 -1.449976 0.152484 -0.926964 0.342762 0.048996 0.485891 1 2 1.000000
  2 2.443404 -1.678953 -2.387729 -0.042241 -0.986148 0.160396 0.045438 0.389306 1 2 1.000000
  2 0.556078 1.153287 4.890353 0.130820 -0.899126 0.417682 0.262054 0.499616 1 2 1.000000
manhack_sheet
  2 -0.674262 -1.688864 -1.449976 0.152484 -0.926964 0.342762 0.048996 0.485891 1 2 1.000000
  2 0.556078 1.153287 4.890353 0.130820 -0.899126 0.417682 0.262054 0.499616 1 2 1.000000
  2 -0.050599 -0.161930 2.824401 0.141773 -0.913829 0.380549 0.187000 0.499184 1 2 1.000000
manhack_sheet
  2 4.719092 -0.849245 -4.079225 -0.939047 -0.045169 -0.340808 0.275776 0.166541 1 2 1.000000
  2 4.614878 -1.424853 -5.127135 -0.992706 0.115235 0.035428 0.269910 0.155505 1 2 1.000000
  2 4.623219 -1.817635 -3.615819 -0.939047 -0.045169 -0.340808 0.263366 0.171966 1 2 1.000000
manhack_sheet
  2 1.540002 0.384302 -1.022717 -0.554493 -0.324821 -0.766178 0.292356 0.219795 1 2 1.000000
  2 4.719092 -0.849245 -4.079225 -0.939047 -0.045169 -0.340808 0.275776 0.166541 1 2 1.000000
  2 4.623219 -1.817635 -3.615819 -0.939047 -0.045169 -0.340808 0.263366 0.171966 1 2 1.000000
manhack_sheet
  2 1.540002 0.384302 -1.022717 -0.554493 -0.324821 -0.766178 0.292356 0.219795 1 2 1.000000
  2 4.623219 -1.817635 -3.615819 -0.939047 -0.045169 -0.340808 0.263366 0.171966 1 2 1.000000
  2 0.877910 -0.407545 -0.383588 -0.686550 -0.085960 -0.721983 0.282764 0.230641 1 2 1.000000
manhack_sheet
  2 0.877910 -0.407545 -0.383588 -0.686550 -0.085960 -0.721983 0.282764 0.230641 1 2 1.000000
  2 -0.494450 0.961003 0.822008 -0.855153 -0.149492 -0.496351 0.300442 0.252596 1 2 1.000000
  2 1.540002 0.384302 -1.022717 -0.554493 -0.324821 -0.766178 0.292356 0.219795 1 2 1.000000
manhack_sheet
  2 3.766958 -0.992319 -0.556185 0.859231 -0.183456 -0.477562 0.543105 0.570742 1 2 1.000000
  2 3.755784 -0.198390 -0.901558 0.859231 -0.183456 -0.477562 0.530266 0.571802 1 2 1.000000
  2 4.632103 1.029302 3.395458 0.981231 -0.065145 -0.181497 0.536179 0.503654 1 2 1.000000
manhack_sheet
  2 3.766958 -0.992319 -0.556185 0.859231 -0.183456 -0.477562 0.543105 0.570742 1 2 1.000000
  2 0.638467 -1.122259 -3.671414 0.681157 -0.290750 -0.671930 0.519980 0.617384 1 2 1.000000
  2 3.755784 -0.198390 -0.901558 0.859231 -0.183456 -0.477562 0.530266 0.571802 1 2 1.000000
manhack_sheet
  2 3.766958 -0.992319 -0.556185 0.859231 -0.183456 -0.477562 0.543105 0.570742 1 2 1.000000
  2 0.638497 -1.968628 -3.295658 0.681157 -0.290750 -0.671930 0.533665 0.616150 1 2 1.000000
  2 0.638467 -1.122259 -3.671414 0.681157 -0.290750 -0.671930 0.519980 0.617384 1 2 1.000000
manhack_sheet
  2 6.007805 1.815179 2.026041 0.970033 -0.149116 -0.191834 0.406704 0.615118 1 2 1.000000
  2 5.968017 1.423675 2.129164 0.970033 -0.149116 -0.191834 0.396499 0.615112 1 2 1.000000
  2 4.594484 -0.225485 -3.534346 0.970033 -0.149116 -0.191834 0.401644 0.468875 1 2 1.000000
manhack_sheet
  2 2.185143 4.142723 6.056703 -0.032681 -0.995567 -0.088197 0.584569 0.257163 1 2 1.000000
  2 -0.293475 3.396954 5.678790 0.400233 -0.916181 -0.020627 0.561874 0.306007 1 2 1.000000
  2 -1.776689 1.071774 -1.998532 0.559197 -0.714715 0.420097 0.390776 0.299965 1 2 1.000000
manhack_sheet
  2 2.185143 4.142723 6.056703 -0.032681 -0.995567 -0.088197 0.584569 0.257163 1 2 1.000000
  2 -1.776689 1.071774 -1.998532 0.559197 -0.714715 0.420097 0.390776 0.299965 1 2 1.000000
  2 0.726059 2.013223 -2.864394 -0.015826 -0.841504 0.540019 0.391440 0.242856 1 2 1.000000
manhack_sheet
  2 -1.776689 1.071774 -1.998532 0.559197 -0.714715 0.420097 0.390776 0.299965 1 2 1.000000
  2 0.065015 0.975874 -3.851305 0.449976 -0.749175 0.486065 0.361873 0.253536 1 2 1.000000
  2 0.726059 2.013223 -2.864394 -0.015826 -0.841504 0.540019 0.391440 0.242856 1 2 1.000000
manhack_sheet
  2 1.393990 2.189973 7.395518 -0.200928 0.395061 0.896412 0.882539 0.271579 1 2 1.000000
  2 3.249764 2.861717 7.515439 -0.200928 0.395061 0.896412 0.925009 0.157308 1 2 1.000000
  2 1.925135 3.696020 6.850838 -0.200928 0.395061 0.896412 0.983025 0.244654 1 2 1.000000
manhack_sheet
  2 6.219968 -0.084733 1.802272 -0.034435 -0.908173 0.417177 0.818030 0.213945 1 2 1.000000
  2 4.813114 -0.056835 1.746879 -0.035189 -0.908225 0.416999 0.822379 0.242484 1 2 1.000000
  2 5.969193 -0.505830 0.864867 -0.034070 -0.901002 0.432475 0.839528 0.216460 1 2 1.000000
manhack_sheet
  2 1.992049 -0.658314 0.192955 -0.039979 -0.900584 0.432839 0.863204 0.295591 1 2 1.000000
  2 5.969193 -0.505830 0.864867 -0.034070 -0.901002 0.432475 0.839528 0.216460 1 2 1.000000
  2 4.813114 -0.056835 1.746879 -0.035189 -0.908225 0.416999 0.822379 0.242484 1 2 1.000000
manhack_sheet
  2 1.992049 -0.658314 0.192955 -0.039979 -0.900584 0.432839 0.863204 0.295591 1 2 1.000000
  2 4.813114 -0.056835 1.746879 -0.035189 -0.908225 0.416999 0.822379 0.242484 1 2 1.000000
  2 1.791127 -0.240010 1.086997 -0.035943 -0.908278 0.416821 0.843658 0.302154 1 2 1.000000
manhack_sheet
  2 2.731168 0.029705 -3.319875 -0.027347 -0.063968 -0.997577 0.795345 0.796674 1 2 1.000000
  2 3.311874 0.212897 -3.347541 -0.108619 -0.248284 -0.962578 0.752899 0.833999 1 2 1.000000
  2 4.227327 -0.960973 -3.297364 -0.027347 -0.063968 -0.997577 0.739200 0.849078 1 2 1.000000
manhack_sheet
  2 1.791127 -0.240010 1.086997 -0.216978 0.439354 0.871716 0.509566 0.598365 1 2 1.000000
  2 4.812492 0.032080 1.701906 -0.122145 0.447272 0.886018 0.515735 0.516322 1 2 1.000000
  2 1.798476 -0.150597 1.043766 -0.216978 0.439354 0.871716 0.512611 0.598402 1 2 1.000000
manhack_sheet
  2 6.220436 1.924742 3.016069 0.207101 0.370413 0.905485 0.653569 0.105685 1 2 1.000000
  2 0.525965 2.486044 4.403831 0.356073 0.326871 0.875424 0.640237 0.302983 1 2 1.000000
  2 6.036000 -0.655359 4.089002 0.184560 0.338136 0.922823 0.559513 0.105926 1 2 1.000000
manhack_sheet
  2 0.525965 2.486044 4.403831 0.356073 0.326871 0.875424 0.640237 0.302983 1 2 1.000000
  2 0.556078 1.153287 4.890353 0.356073 0.326871 0.875424 0.592865 0.298625 1 2 1.000000
  2 6.036000 -0.655359 4.089002 0.184560 0.338136 0.922823 0.559513 0.105926 1 2 1.000000
manhack_sheet
  2 6.007805 1.815179 2.026041 0.450186 0.184621 0.873640 0.674738 0.126577 1 2 1.000000
  2 1.580091 2.772949 4.105183 0.450155 0.184388 0.873705 0.670399 0.291516 1 2 1.000000
  2 5.968017 1.423675 2.129164 0.450186 0.184621 0.873640 0.661276 0.126401 1 2 1.000000
manhack_sheet
  2 5.494124 0.859792 0.171184 0.055206 0.936832 -0.345395 0.090434 0.340631 1 2 1.000000
  2 1.717696 1.578835 1.444655 -0.009224 0.939005 -0.343779 0.047199 0.349309 1 2 1.000000
  2 5.947087 1.516690 1.951036 0.057267 0.929548 -0.364226 0.083550 0.320484 1 2 1.000000
manhack_sheet
  2 5.595278 0.221636 3.721207 -0.576611 -0.774611 0.259802 0.003653 0.991188 1 2 1.000000
  2 5.995026 0.389827 5.109880 -0.575832 -0.765919 0.285983 0.004276 0.821514 1 2 1.000000
  2 5.886323 0.517115 5.248139 -0.575832 -0.765919 0.285983 0.002523 0.831700 1 2 1.000000
manhack_sheet
  2 2.313245 -3.651141 1.765665 -0.146150 0.954186 0.261091 0.002534 0.110351 1 2 1.000000
  2 2.541598 -3.609015 1.739532 -0.327196 0.937466 0.118744 0.008501 0.113423 1 2 1.000000
  2 2.561845 -2.678474 0.728464 -0.058323 0.735130 0.675412 0.004477 0.010584 1 2 1.000000
manhack_sheet
  2 2.679310 -3.030344 4.212503 -0.314023 0.747727 -0.585059 0.001756 0.303151 1 2 1.000000
  2 2.541598 -3.609015 1.739532 -0.327196 0.937466 0.118744 0.008501 0.113423 1 2 1.000000
  2 2.313245 -3.651141 1.765665 -0.146150 0.954186 0.261091 0.002534 0.110351 1 2 1.000000
manhack_sheet
  2 2.679310 -3.030344 4.212503 -0.314023 0.747727 -0.585059 0.001756 0.303151 1 2 1.000000
  2 3.047780 -2.728273 4.304039 -0.473239 0.689399 -0.548429 0.007221 0.334262 1 2 1.000000
  2 2.541598 -3.609015 1.739532 -0.327196 0.937466 0.118744 0.008501 0.113423 1 2 1.000000
manhack_sheet
  2 5.886323 0.517115 5.248139 -0.687280 0.211459 -0.694932 0.002523 0.831700 1 2 1.000000
  2 3.047780 -2.728273 4.304039 -0.473239 0.689399 -0.548429 0.007221 0.334262 1 2 1.000000
  2 2.679310 -3.030344 4.212503 -0.314023 0.747727 -0.585059 0.001756 0.303151 1 2 1.000000
manhack_sheet
  2 5.886323 0.517115 5.248139 -0.687280 0.211459 -0.694932 0.002523 0.831700 1 2 1.000000
  2 5.995026 0.389827 5.109880 -0.687280 0.211459 -0.694932 0.004276 0.821514 1 2 1.000000
  2 3.047780 -2.728273 4.304039 -0.473239 0.689399 -0.548429 0.007221 0.334262 1 2 1.000000
manhack_sheet
  2 5.400645 0.019802 3.626555 0.774227 -0.315444 -0.548696 0.017746 0.991088 1 2 1.000000
  2 2.677363 -3.848728 2.007928 0.774227 -0.315444 -0.548696 0.016597 0.236513 1 2 1.000000
  2 1.872700 -3.167043 0.480626 0.774227 -0.315444 -0.548696 0.016218 0.009458 1 2 1.000000
manhack_sheet
  2 2.473719 -3.782137 1.686382 0.335049 -0.932787 -0.132857 0.004631 0.104741 1 2 1.000000
  2 2.313245 -3.651141 1.765665 -0.672953 -0.718828 -0.174413 0.002534 0.110351 1 2 1.000000
  2 2.561845 -2.678474 0.728464 -0.665307 -0.458357 -0.589301 0.004477 0.010584 1 2 1.000000
manhack_sheet
  2 2.679310 -3.030344 4.212503 -0.488044 -0.486993 0.724327 0.001756 0.303151 1 2 1.000000
  2 2.313245 -3.651141 1.765665 -0.672953 -0.718828 -0.174413 0.002534 0.110351 1 2 1.000000
  2 2.473719 -3.782137 1.686382 0.335049 -0.932787 -0.132857 0.004631 0.104741 1 2 1.000000
manhack_sheet
  2 3.034233 -2.848997 4.453777 0.739858 -0.659908 -0.130887 0.003013 0.340840 1 2 1.000000
  2 2.679310 -3.030344 4.212503 -0.488044 -0.486993 0.724327 0.001756 0.303151 1 2 1.000000
  2 2.473719 -3.782137 1.686382 0.335049 -0.932787 -0.132857 0.004631 0.104741 1 2 1.000000
manhack_sheet
  2 3.047780 -2.728273 4.304039 0.858663 -0.446594 -0.251498 0.007221 0.334262 1 2 1.000000
  2 3.034233 -2.848997 4.453777 0.739858 -0.659908 -0.130887 0.003013 0.340840 1 2 1.000000
  2 2.473719 -3.782137 1.686382 0.335049 -0.932787 -0.132857 0.004631 0.104741 1 2 1.000000
manhack_sheet
  2 5.995026 0.389827 5.109880 0.735178 -0.652294 -0.184460 0.004276 0.821514 1 2 1.000000
  2 3.034233 -2.848997 4.453777 0.739858 -0.659908 -0.130887 0.003013 0.340840 1 2 1.000000
  2 3.047780 -2.728273 4.304039 0.858663 -0.446594 -0.251498 0.007221 0.334262 1 2 1.000000
manhack_sheet
  2 5.995026 0.389827 5.109880 0.735178 -0.652294 -0.184460 0.004276 0.821514 1 2 1.000000
  2 6.113412 0.482170 5.233268 0.735178 -0.652294 -0.184460 0.006971 0.833641 1 2 1.000000
  2 3.034233 -2.848997 4.453777 0.739858 -0.659908 -0.130887 0.003013 0.340840 1 2 1.000000
manhack_sheet
  2 5.595278 0.221636 3.721207 0.678632 -0.726591 -0.107351 0.003653 0.991188 1 2 1.000000
  2 6.113412 0.482170 5.233268 0.735178 -0.652294 -0.184460 0.006971 0.833641 1 2 1.000000
  2 5.995026 0.389827 5.109880 0.735178 -0.652294 -0.184460 0.004276 0.821514 1 2 1.000000
manhack_sheet
  2 3.047780 -2.728273 4.304039 0.858663 -0.446594 -0.251498 0.007221 0.334262 1 2 1.000000
  2 2.473719 -3.782137 1.686382 0.335049 -0.932787 -0.132857 0.004631 0.104741 1 2 1.000000
  2 2.541598 -3.609015 1.739532 0.941604 -0.291357 -0.168799 0.008501 0.113423 1 2 1.000000
manhack_sheet
  2 2.541598 -3.609015 1.739532 0.941604 -0.291357 -0.168799 0.008501 0.113423 1 2 1.000000
  2 2.473719 -3.782137 1.686382 0.335049 -0.932787 -0.132857 0.004631 0.104741 1 2 1.000000
  2 2.561845 -2.678474 0.728464 0.925675 -0.287424 -0.245995 0.004477 0.010584 1 2 1.000000
manhack_sheet
  2 6.113412 0.482170 5.233268 0.106130 0.341061 0.934031 0.006971 0.833641 1 2 1.000000
  2 5.886323 0.517115 5.248139 0.106130 0.341061 0.934031 0.002523 0.831700 1 2 1.000000
  2 3.034233 -2.848997 4.453777 -0.356073 0.082029 0.930851 0.003013 0.340840 1 2 1.000000
manhack_sheet
  2 5.886323 0.517115 5.248139 0.106130 0.341061 0.934031 0.002523 0.831700 1 2 1.000000
  2 2.679310 -3.030344 4.212503 -0.488044 -0.486993 0.724327 0.001756 0.303151 1 2 1.000000
  2 3.034233 -2.848997 4.453777 -0.356073 0.082029 0.930851 0.003013 0.340840 1 2 1.000000
manhack_sheet
  2 5.400645 0.019802 3.626555 -0.774227 0.315444 0.548696 0.017746 0.991088 1 2 1.000000
  2 1.872700 -3.167043 0.480626 -0.774227 0.315444 0.548696 0.016218 0.009458 1 2 1.000000
  2 2.677363 -3.848728 2.007928 -0.774227 0.315444 0.548696 0.016597 0.236513 1 2 1.000000
manhack_sheet
  2 5.595278 0.221636 3.721207 0.134963 0.967689 -0.212984 0.003653 0.991188 1 2 1.000000
  2 5.886323 0.517115 5.248139 0.025932 0.986031 -0.164528 0.002523 0.831700 1 2 1.000000
  2 6.113412 0.482170 5.233268 0.025932 0.986031 -0.164528 0.006971 0.833641 1 2 1.000000
end
