// Created by Crowbar 0.74
version 1
nodes
  0 "ValveBiped.Bip01_R_Hand" -1
end
skeleton
  time 0
    0 -13.000000 6.000000 9.000000 -3.141592 0.000000 -1.570796
end
triangles
itemcrate_sheet
  0 -7.516697 1.516267 17.928400 0.000000 1.000000 0.000000 0.195210 0.321830 1 0 1.000000
  0 9.000891 1.516267 17.928394 0.000000 1.000000 0.000000 0.195210 0.491980 1 0 1.000000
  0 -7.516697 1.516267 17.542959 0.000000 1.000000 0.000000 0.191230 0.321830 1 0 1.000000
itemcrate_sheet
  0 9.000891 1.516267 17.928394 0.000000 1.000000 0.000000 0.195210 0.491980 1 0 1.000000
  0 9.000891 1.516267 17.542955 0.000000 1.000000 0.000000 0.191230 0.491980 1 0 1.000000
  0 -7.516697 1.516267 17.542959 0.000000 1.000000 0.000000 0.191230 0.321830 1 0 1.000000
itemcrate_sheet
  0 9.000892 -1.760528 17.928394 0.000000 0.000000 1.000000 0.584700 0.305740 1 0 1.000000
  0 9.000891 1.516267 17.928394 0.000000 0.000000 1.000000 0.524890 0.305740 1 0 1.000000
  0 -7.516697 -1.760528 17.928400 0.000000 0.000000 1.000000 0.584700 0.004240 1 0 1.000000
itemcrate_sheet
  0 9.000891 1.516267 17.928394 0.000000 0.000000 1.000000 0.524890 0.305740 1 0 1.000000
  0 -7.516697 1.516267 17.928400 0.000000 0.000000 1.000000 0.524890 0.004240 1 0 1.000000
  0 -7.516697 -1.760528 17.928400 0.000000 0.000000 1.000000 0.584700 0.004240 1 0 1.000000
itemcrate_sheet
  0 9.000892 -1.760528 17.928394 0.000000 -1.000000 0.000000 0.206860 0.491980 1 0 1.000000
  0 -7.516697 -1.760528 17.928400 0.000000 -1.000000 0.000000 0.206860 0.321830 1 0 1.000000
  0 9.000890 -1.760528 17.542955 0.000000 -1.000000 0.000000 0.210830 0.491980 1 0 1.000000
itemcrate_sheet
  0 -7.516697 -1.760528 17.928400 0.000000 -1.000000 0.000000 0.206860 0.321830 1 0 1.000000
  0 -7.516697 -1.760528 17.542959 0.000000 -1.000000 0.000000 0.210830 0.321830 1 0 1.000000
  0 9.000890 -1.760528 17.542955 0.000000 -1.000000 0.000000 0.210830 0.491980 1 0 1.000000
itemcrate_sheet
  0 -9.954930 -12.738143 0.750003 -1.000000 0.000000 0.000000 0.556930 0.319320 1 0 1.000000
  0 -9.954930 11.261850 0.750004 -1.000000 0.000000 0.000000 0.556930 0.646770 1 0 1.000000
  0 -9.954930 -12.738143 0.000003 -1.000000 0.000000 0.000000 0.546700 0.319320 1 0 1.000000
itemcrate_sheet
  0 -9.954930 11.261850 0.750004 -1.000000 0.000000 0.000000 0.556930 0.646770 1 0 1.000000
  0 -9.954930 11.261850 0.000004 -1.000000 0.000000 0.000000 0.546700 0.646770 1 0 1.000000
  0 -9.954930 -12.738143 0.000003 -1.000000 0.000000 0.000000 0.546700 0.319320 1 0 1.000000
itemcrate_sheet
  0 -9.954930 11.261850 0.750004 0.000000 1.000000 0.000000 0.149210 0.576070 1 0 1.000000
  0 -6.490560 11.261850 0.750003 0.000000 1.000000 0.000000 0.149210 0.650080 1 0 1.000000
  0 -9.954930 11.261850 0.000004 0.000000 1.000000 0.000000 0.133190 0.576070 1 0 1.000000
itemcrate_sheet
  0 -6.490560 11.261850 0.750003 0.000000 1.000000 0.000000 0.149210 0.650080 1 0 1.000000
  0 -6.490560 11.261850 0.000003 0.000000 1.000000 0.000000 0.133190 0.650080 1 0 1.000000
  0 -9.954930 11.261850 0.000004 0.000000 1.000000 0.000000 0.133190 0.576070 1 0 1.000000
itemcrate_sheet
  0 -6.490560 -12.738142 0.750002 0.000000 -1.000000 0.000000 0.002150 0.650080 1 0 1.000000
  0 -9.954930 -12.738143 0.750003 0.000000 -1.000000 0.000000 0.002150 0.576070 1 0 1.000000
  0 -6.490561 -12.738142 0.000002 0.000000 -1.000000 0.000000 0.018170 0.650080 1 0 1.000000
itemcrate_sheet
  0 -9.954930 -12.738143 0.750003 0.000000 -1.000000 0.000000 0.002150 0.576070 1 0 1.000000
  0 -9.954930 -12.738143 0.000003 0.000000 -1.000000 0.000000 0.018170 0.576070 1 0 1.000000
  0 -6.490561 -12.738142 0.000002 0.000000 -1.000000 0.000000 0.018170 0.650080 1 0 1.000000
itemcrate_sheet
  0 -9.954930 11.261850 0.000004 0.000000 0.000000 -1.000000 0.994500 0.361060 1 0 1.000000
  0 -6.490560 11.261850 0.000003 0.000000 0.000000 -1.000000 0.994500 0.404670 1 0 1.000000
  0 -9.954930 -12.738143 0.000003 0.000000 0.000000 -1.000000 0.692410 0.361060 1 0 1.000000
itemcrate_sheet
  0 -6.490560 11.261850 0.000003 0.000000 0.000000 -1.000000 0.994500 0.404670 1 0 1.000000
  0 -6.490561 -12.738142 0.000002 0.000000 0.000000 -1.000000 0.692410 0.404670 1 0 1.000000
  0 -9.954930 -12.738143 0.000003 0.000000 0.000000 -1.000000 0.692410 0.361060 1 0 1.000000
itemcrate_sheet
  0 -6.490560 11.261850 0.750003 1.000000 0.000000 -0.000001 0.528710 0.646770 1 0 1.000000
  0 -6.490560 -12.738142 0.750002 1.000000 0.000000 -0.000001 0.528710 0.319320 1 0 1.000000
  0 -6.490560 11.261850 0.000003 1.000000 0.000000 -0.000001 0.538940 0.646770 1 0 1.000000
itemcrate_sheet
  0 -6.490560 -12.738142 0.750002 1.000000 0.000000 -0.000001 0.528710 0.319320 1 0 1.000000
  0 -6.490561 -12.738142 0.000002 1.000000 0.000000 -0.000001 0.538940 0.319320 1 0 1.000000
  0 -6.490560 11.261850 0.000003 1.000000 0.000000 -0.000001 0.538940 0.646770 1 0 1.000000
itemcrate_sheet
  0 -3.954930 -12.738141 0.750001 -1.000000 0.000000 0.000000 0.518240 0.319320 1 0 1.000000
  0 -3.954930 11.261850 0.750002 -1.000000 0.000000 0.000000 0.518240 0.646770 1 0 1.000000
  0 -3.954931 -12.738141 0.000001 -1.000000 0.000000 0.000000 0.508010 0.319320 1 0 1.000000
itemcrate_sheet
  0 -3.954930 11.261850 0.750002 -1.000000 0.000000 0.000000 0.518240 0.646770 1 0 1.000000
  0 -3.954930 11.261850 0.000002 -1.000000 0.000000 0.000000 0.508010 0.646770 1 0 1.000000
  0 -3.954931 -12.738141 0.000001 -1.000000 0.000000 0.000000 0.508010 0.319320 1 0 1.000000
itemcrate_sheet
  0 -3.954930 11.261850 0.750002 0.000000 1.000000 0.000000 0.037070 0.576070 1 0 1.000000
  0 -0.490560 11.261850 0.750001 0.000000 1.000000 0.000000 0.037070 0.650080 1 0 1.000000
  0 -3.954930 11.261850 0.000002 0.000000 1.000000 0.000000 0.021050 0.576070 1 0 1.000000
itemcrate_sheet
  0 -0.490560 11.261850 0.750001 0.000000 1.000000 0.000000 0.037070 0.650080 1 0 1.000000
  0 -0.490560 11.261850 0.000001 0.000000 1.000000 0.000000 0.021050 0.650080 1 0 1.000000
  0 -3.954930 11.261850 0.000002 0.000000 1.000000 0.000000 0.021050 0.576070 1 0 1.000000
itemcrate_sheet
  0 -0.490560 -12.738142 0.750000 0.000000 -1.000000 0.000000 0.039950 0.650080 1 0 1.000000
  0 -3.954930 -12.738141 0.750001 0.000000 -1.000000 0.000000 0.039950 0.576070 1 0 1.000000
  0 -0.490560 -12.738142 0.000000 0.000000 -1.000000 0.000000 0.055970 0.650080 1 0 1.000000
itemcrate_sheet
  0 -3.954930 -12.738141 0.750001 0.000000 -1.000000 0.000000 0.039950 0.576070 1 0 1.000000
  0 -3.954931 -12.738141 0.000001 0.000000 -1.000000 0.000000 0.055970 0.576070 1 0 1.000000
  0 -0.490560 -12.738142 0.000000 0.000000 -1.000000 0.000000 0.055970 0.650080 1 0 1.000000
itemcrate_sheet
  0 -3.954930 11.261850 0.000002 0.000000 0.000000 -1.000000 0.994500 0.436590 1 0 1.000000
  0 -0.490560 11.261850 0.000001 0.000000 0.000000 -1.000000 0.994500 0.480190 1 0 1.000000
  0 -3.954931 -12.738141 0.000001 0.000000 0.000000 -1.000000 0.692410 0.436590 1 0 1.000000
itemcrate_sheet
  0 -0.490560 11.261850 0.000001 0.000000 0.000000 -1.000000 0.994500 0.480190 1 0 1.000000
  0 -0.490560 -12.738142 0.000000 0.000000 0.000000 -1.000000 0.692410 0.480190 1 0 1.000000
  0 -3.954931 -12.738141 0.000001 0.000000 0.000000 -1.000000 0.692410 0.436590 1 0 1.000000
itemcrate_sheet
  0 -0.490560 11.261850 0.750001 1.000000 0.000000 0.000000 0.668840 0.646770 1 0 1.000000
  0 -0.490560 -12.738142 0.750000 1.000000 0.000000 0.000000 0.668840 0.319320 1 0 1.000000
  0 -0.490560 11.261850 0.000001 1.000000 0.000000 0.000000 0.679070 0.646770 1 0 1.000000
itemcrate_sheet
  0 -0.490560 -12.738142 0.750000 1.000000 0.000000 0.000000 0.668840 0.319320 1 0 1.000000
  0 -0.490560 -12.738142 0.000000 1.000000 0.000000 0.000000 0.679070 0.319320 1 0 1.000000
  0 -0.490560 11.261850 0.000001 1.000000 0.000000 0.000000 0.679070 0.646770 1 0 1.000000
itemcrate_sheet
  0 2.045063 -12.738141 0.749999 -1.000000 0.000000 0.000000 0.638810 0.006810 1 0 1.000000
  0 2.045063 11.261850 0.750000 -1.000000 0.000000 0.000000 0.638810 0.310050 1 0 1.000000
  0 2.045062 -12.738141 -0.000001 -1.000000 0.000000 0.000000 0.629330 0.006810 1 0 1.000000
itemcrate_sheet
  0 2.045063 11.261850 0.750000 -1.000000 0.000000 0.000000 0.638810 0.310050 1 0 1.000000
  0 2.045063 11.261850 0.000000 -1.000000 0.000000 0.000000 0.629330 0.310050 1 0 1.000000
  0 2.045062 -12.738141 -0.000001 -1.000000 0.000000 0.000000 0.629330 0.006810 1 0 1.000000
itemcrate_sheet
  0 2.045063 11.261850 0.750000 0.000000 1.000000 0.000000 0.074880 0.576070 1 0 1.000000
  0 5.509433 11.261850 0.749999 0.000000 1.000000 0.000000 0.074880 0.650080 1 0 1.000000
  0 2.045063 11.261850 0.000000 0.000000 1.000000 0.000000 0.058860 0.576070 1 0 1.000000
itemcrate_sheet
  0 5.509433 11.261850 0.749999 0.000000 1.000000 0.000000 0.074880 0.650080 1 0 1.000000
  0 5.509434 11.261850 -0.000001 0.000000 1.000000 0.000000 0.058860 0.650080 1 0 1.000000
  0 2.045063 11.261850 0.000000 0.000000 1.000000 0.000000 0.058860 0.576070 1 0 1.000000
itemcrate_sheet
  0 5.509433 -12.738142 0.749998 0.000000 -1.000000 0.000000 0.078400 0.650080 1 0 1.000000
  0 2.045063 -12.738141 0.749999 0.000000 -1.000000 0.000000 0.078400 0.576070 1 0 1.000000
  0 5.509432 -12.738142 -0.000002 0.000000 -1.000000 0.000000 0.094420 0.650080 1 0 1.000000
itemcrate_sheet
  0 2.045063 -12.738141 0.749999 0.000000 -1.000000 0.000000 0.078400 0.576070 1 0 1.000000
  0 2.045062 -12.738141 -0.000001 0.000000 -1.000000 0.000000 0.094420 0.576070 1 0 1.000000
  0 5.509432 -12.738142 -0.000002 0.000000 -1.000000 0.000000 0.094420 0.650080 1 0 1.000000
itemcrate_sheet
  0 2.045063 11.261850 0.000000 0.000000 0.000000 -1.000000 0.994500 0.512110 1 0 1.000000
  0 5.509434 11.261850 -0.000001 0.000000 0.000000 -1.000000 0.994500 0.555720 1 0 1.000000
  0 2.045062 -12.738141 -0.000001 0.000000 0.000000 -1.000000 0.692410 0.512110 1 0 1.000000
itemcrate_sheet
  0 5.509434 11.261850 -0.000001 0.000000 0.000000 -1.000000 0.994500 0.555720 1 0 1.000000
  0 5.509432 -12.738142 -0.000002 0.000000 0.000000 -1.000000 0.692410 0.555720 1 0 1.000000
  0 2.045062 -12.738141 -0.000001 0.000000 0.000000 -1.000000 0.692410 0.512110 1 0 1.000000
itemcrate_sheet
  0 5.509433 11.261850 0.749999 1.000000 0.000000 0.000000 0.667660 0.310050 1 0 1.000000
  0 5.509433 -12.738142 0.749998 1.000000 0.000000 0.000000 0.667660 0.006810 1 0 1.000000
  0 5.509434 11.261850 -0.000001 1.000000 0.000000 0.000000 0.677140 0.310050 1 0 1.000000
itemcrate_sheet
  0 5.509433 -12.738142 0.749998 1.000000 0.000000 0.000000 0.667660 0.006810 1 0 1.000000
  0 5.509432 -12.738142 -0.000002 1.000000 0.000000 0.000000 0.677140 0.006810 1 0 1.000000
  0 5.509434 11.261850 -0.000001 1.000000 0.000000 0.000000 0.677140 0.310050 1 0 1.000000
itemcrate_sheet
  0 8.045063 -12.738141 0.749997 -1.000000 0.000000 0.000000 0.657970 0.006810 1 0 1.000000
  0 8.045063 11.261850 0.749998 -1.000000 0.000000 0.000000 0.657970 0.310050 1 0 1.000000
  0 8.045063 -12.738141 -0.000003 -1.000000 0.000000 0.000000 0.648500 0.006810 1 0 1.000000
itemcrate_sheet
  0 8.045063 11.261850 0.749998 -1.000000 0.000000 0.000000 0.657970 0.310050 1 0 1.000000
  0 8.045063 11.261850 -0.000002 -1.000000 0.000000 0.000000 0.648500 0.310050 1 0 1.000000
  0 8.045063 -12.738141 -0.000003 -1.000000 0.000000 0.000000 0.648500 0.006810 1 0 1.000000
itemcrate_sheet
  0 8.045063 11.261850 0.749998 0.000000 1.000000 0.000000 0.112040 0.576070 1 0 1.000000
  0 11.509434 11.261850 0.749997 0.000000 1.000000 0.000000 0.112040 0.650080 1 0 1.000000
  0 8.045063 11.261850 -0.000002 0.000000 1.000000 0.000000 0.096020 0.576070 1 0 1.000000
itemcrate_sheet
  0 11.509434 11.261850 0.749997 0.000000 1.000000 0.000000 0.112040 0.650080 1 0 1.000000
  0 11.509434 11.261850 -0.000003 0.000000 1.000000 0.000000 0.096020 0.650080 1 0 1.000000
  0 8.045063 11.261850 -0.000002 0.000000 1.000000 0.000000 0.096020 0.576070 1 0 1.000000
itemcrate_sheet
  0 11.509434 -12.738142 0.749996 0.000000 -1.000000 0.000000 0.114920 0.650080 1 0 1.000000
  0 8.045063 -12.738141 0.749997 0.000000 -1.000000 0.000000 0.114920 0.576070 1 0 1.000000
  0 11.509434 -12.738142 -0.000004 0.000000 -1.000000 0.000000 0.130950 0.650080 1 0 1.000000
itemcrate_sheet
  0 8.045063 -12.738141 0.749997 0.000000 -1.000000 0.000000 0.114920 0.576070 1 0 1.000000
  0 8.045063 -12.738141 -0.000003 0.000000 -1.000000 0.000000 0.130950 0.576070 1 0 1.000000
  0 11.509434 -12.738142 -0.000004 0.000000 -1.000000 0.000000 0.130950 0.650080 1 0 1.000000
itemcrate_sheet
  0 8.045063 11.261850 -0.000002 0.000000 0.000000 -1.000000 0.994500 0.587630 1 0 1.000000
  0 11.509434 11.261850 -0.000003 0.000000 0.000000 -1.000000 0.994500 0.631240 1 0 1.000000
  0 8.045063 -12.738141 -0.000003 0.000000 0.000000 -1.000000 0.692410 0.587630 1 0 1.000000
itemcrate_sheet
  0 11.509434 11.261850 -0.000003 0.000000 0.000000 -1.000000 0.994500 0.631240 1 0 1.000000
  0 11.509434 -12.738142 -0.000004 0.000000 0.000000 -1.000000 0.692410 0.631240 1 0 1.000000
  0 8.045063 -12.738141 -0.000003 0.000000 0.000000 -1.000000 0.692410 0.587630 1 0 1.000000
itemcrate_sheet
  0 11.509434 11.261850 0.749997 1.000000 0.000000 0.000000 0.650170 0.646770 1 0 1.000000
  0 11.509434 -12.738142 0.749996 1.000000 0.000000 0.000000 0.650170 0.319320 1 0 1.000000
  0 11.509434 11.261850 -0.000003 1.000000 0.000000 0.000000 0.660400 0.646770 1 0 1.000000
itemcrate_sheet
  0 11.509434 -12.738142 0.749996 1.000000 0.000000 0.000000 0.650170 0.319320 1 0 1.000000
  0 11.509434 -12.738142 -0.000004 1.000000 0.000000 0.000000 0.660400 0.319320 1 0 1.000000
  0 11.509434 11.261850 -0.000003 1.000000 0.000000 0.000000 0.660400 0.646770 1 0 1.000000
itemcrate_sheet
  0 -7.513810 11.261849 18.000002 1.000000 0.000000 0.000000 0.608780 0.646770 1 0 1.000000
  0 -7.513810 -12.738142 18.000002 1.000000 0.000000 0.000000 0.608780 0.319320 1 0 1.000000
  0 -7.513810 11.261849 17.250002 1.000000 0.000000 0.000000 0.619020 0.646770 1 0 1.000000
itemcrate_sheet
  0 -7.513810 -12.738142 18.000002 1.000000 0.000000 0.000000 0.608780 0.319320 1 0 1.000000
  0 -7.513810 -12.738142 17.250002 1.000000 0.000000 0.000000 0.619020 0.319320 1 0 1.000000
  0 -7.513810 11.261849 17.250002 1.000000 0.000000 0.000000 0.619020 0.646770 1 0 1.000000
itemcrate_sheet
  0 -11.263194 -12.738143 18.000004 -1.000000 -0.000051 0.000000 0.956450 0.007840 1 0 1.000000
  0 -11.264424 11.261849 18.000004 -1.000000 -0.000051 0.000000 0.956450 0.332250 1 0 1.000000
  0 -11.263194 -12.738143 17.250004 -1.000000 -0.000051 0.000000 0.946310 0.007840 1 0 1.000000
itemcrate_sheet
  0 -11.264424 11.261849 18.000004 -1.000000 -0.000051 0.000000 0.956450 0.332250 1 0 1.000000
  0 -11.264424 11.261849 17.250004 -1.000000 -0.000051 0.000001 0.946310 0.332250 1 0 1.000000
  0 -11.263194 -12.738143 17.250004 -1.000000 -0.000051 0.000000 0.946310 0.007840 1 0 1.000000
itemcrate_sheet
  0 -11.264424 11.261849 18.000004 0.000000 1.000000 0.000000 0.188690 0.486900 1 0 1.000000
  0 -7.513810 11.261849 18.000002 0.000000 1.000000 0.000000 0.188690 0.525390 1 0 1.000000
  0 -11.264424 11.261849 17.250004 0.000000 1.000000 0.000000 0.180960 0.486900 1 0 1.000000
itemcrate_sheet
  0 -7.513810 11.261849 18.000002 0.000000 1.000000 0.000000 0.188690 0.525390 1 0 1.000000
  0 -7.513810 11.261849 17.250002 0.000000 1.000000 0.000000 0.180960 0.525390 1 0 1.000000
  0 -11.264424 11.261849 17.250004 0.000000 1.000000 0.000000 0.180960 0.486900 1 0 1.000000
itemcrate_sheet
  0 -7.513810 -12.738142 18.000002 0.000000 -1.000000 0.000000 0.196590 0.525390 1 0 1.000000
  0 -11.263194 -12.738143 18.000004 0.000000 -1.000000 0.000000 0.196590 0.486900 1 0 1.000000
  0 -7.513810 -12.738142 17.250002 0.000000 -1.000000 0.000000 0.204310 0.525390 1 0 1.000000
itemcrate_sheet
  0 -11.263194 -12.738143 18.000004 0.000000 -1.000000 0.000000 0.196590 0.486900 1 0 1.000000
  0 -11.263194 -12.738143 17.250004 0.000000 -1.000000 0.000000 0.204310 0.486900 1 0 1.000000
  0 -7.513810 -12.738142 17.250002 0.000000 -1.000000 0.000000 0.204310 0.525390 1 0 1.000000
itemcrate_sheet
  0 -11.264424 11.261849 17.250004 0.000000 0.000000 -1.000000 0.795460 0.332850 1 0 1.000000
  0 -7.513810 11.261849 17.250002 0.000000 0.000000 -1.000000 0.744830 0.332640 1 0 1.000000
  0 -11.263194 -12.738143 17.250004 0.000000 0.000000 -1.000000 0.795460 0.007600 1 0 1.000000
itemcrate_sheet
  0 -7.513810 11.261849 17.250002 0.000000 0.000000 -1.000000 0.744830 0.332640 1 0 1.000000
  0 -7.513810 -12.738142 17.250002 0.000000 0.000000 -1.000000 0.744830 0.007400 1 0 1.000000
  0 -11.263194 -12.738143 17.250004 0.000000 0.000000 -1.000000 0.795460 0.007600 1 0 1.000000
itemcrate_sheet
  0 -7.513810 11.261849 18.000002 0.000000 0.000000 1.000000 0.733800 0.332640 1 0 1.000000
  0 -11.264424 11.261849 18.000004 0.000000 0.000000 1.000000 0.683170 0.332850 1 0 1.000000
  0 -7.513810 -12.738142 18.000002 0.000000 0.000000 1.000000 0.733800 0.007400 1 0 1.000000
itemcrate_sheet
  0 -11.264424 11.261849 18.000004 0.000000 0.000000 1.000000 0.683170 0.332850 1 0 1.000000
  0 -11.263194 -12.738143 18.000004 0.000000 0.000000 1.000000 0.683170 0.007600 1 0 1.000000
  0 -7.513810 -12.738142 18.000002 0.000000 0.000000 1.000000 0.733800 0.007400 1 0 1.000000
itemcrate_sheet
  0 12.736183 -9.723181 17.249996 1.000000 0.000000 0.000000 0.196630 0.001130 1 0 1.000000
  0 12.736182 -12.738144 17.249996 1.000000 0.000000 0.000000 0.255740 0.001130 1 0 1.000000
  0 12.736177 -9.723180 1.499995 1.000000 0.000000 0.000000 0.196630 0.311440 1 0 1.000000
itemcrate_sheet
  0 12.736182 -12.738144 17.249996 1.000000 0.000000 0.000000 0.255740 0.001130 1 0 1.000000
  0 12.736178 -12.738142 1.499995 1.000000 0.000000 0.000000 0.255740 0.311440 1 0 1.000000
  0 12.736177 -9.723180 1.499995 1.000000 0.000000 0.000000 0.196630 0.311440 1 0 1.000000
itemcrate_sheet
  0 9.750007 -12.738143 17.249998 -1.000000 0.000000 0.000000 0.511630 0.307780 1 0 1.000000
  0 9.750006 -9.723181 17.249998 -1.000000 0.000000 0.000000 0.465590 0.307780 1 0 1.000000
  0 9.750001 -12.738143 1.499996 -1.000000 0.000000 0.000000 0.511630 0.085100 1 0 1.000000
itemcrate_sheet
  0 9.750006 -9.723181 17.249998 -1.000000 0.000000 0.000000 0.465590 0.307780 1 0 1.000000
  0 9.750000 -9.723180 1.499996 -1.000000 0.000000 0.000000 0.465590 0.085100 1 0 1.000000
  0 9.750001 -12.738143 1.499996 -1.000000 0.000000 0.000000 0.511630 0.085100 1 0 1.000000
itemcrate_sheet
  0 9.750006 -9.723181 17.249998 0.000000 1.000000 0.000000 0.188660 0.304660 1 0 1.000000
  0 12.736183 -9.723181 17.249996 0.000000 1.000000 0.000000 0.134170 0.304660 1 0 1.000000
  0 9.750000 -9.723180 1.499996 0.000000 1.000000 0.000000 0.188660 0.018580 1 0 1.000000
itemcrate_sheet
  0 12.736183 -9.723181 17.249996 0.000000 1.000000 0.000000 0.134170 0.304660 1 0 1.000000
  0 12.736177 -9.723180 1.499995 0.000000 1.000000 0.000000 0.134170 0.018580 1 0 1.000000
  0 9.750000 -9.723180 1.499996 0.000000 1.000000 0.000000 0.188660 0.018580 1 0 1.000000
itemcrate_sheet
  0 12.736182 -12.738144 17.249996 0.000000 -1.000000 0.000000 0.003040 0.002710 1 0 1.000000
  0 9.750007 -12.738143 17.249998 0.000000 -1.000000 0.000000 0.062150 0.002710 1 0 1.000000
  0 12.736178 -12.738142 1.499995 0.000000 -1.000000 0.000000 0.003040 0.313030 1 0 1.000000
itemcrate_sheet
  0 9.750007 -12.738143 17.249998 0.000000 -1.000000 0.000000 0.062150 0.002710 1 0 1.000000
  0 9.750001 -12.738143 1.499996 0.000000 -1.000000 0.000000 0.062150 0.313030 1 0 1.000000
  0 12.736178 -12.738142 1.499995 0.000000 -1.000000 0.000000 0.003040 0.313030 1 0 1.000000
itemcrate_sheet
  0 12.736182 11.261849 17.249996 1.000000 0.000000 0.000000 0.066170 0.002710 1 0 1.000000
  0 12.736183 8.276812 17.249996 1.000000 0.000000 0.000000 0.125270 0.002710 1 0 1.000000
  0 12.736178 11.261850 1.499996 1.000000 0.000000 0.000000 0.066170 0.313030 1 0 1.000000
itemcrate_sheet
  0 12.736183 8.276812 17.249996 1.000000 0.000000 0.000000 0.125270 0.002710 1 0 1.000000
  0 12.736177 8.276813 1.499996 1.000000 0.000000 0.000000 0.125270 0.313030 1 0 1.000000
  0 12.736178 11.261850 1.499996 1.000000 0.000000 0.000000 0.066170 0.313030 1 0 1.000000
itemcrate_sheet
  0 9.750006 8.276812 17.249998 -1.000000 0.000000 0.000000 0.380920 0.289400 1 0 1.000000
  0 9.750007 11.261849 17.249998 -1.000000 0.000000 0.000000 0.327270 0.289400 1 0 1.000000
  0 9.750000 8.276813 1.499997 -1.000000 0.000000 0.000000 0.380920 0.007720 1 0 1.000000
itemcrate_sheet
  0 9.750007 11.261849 17.249998 -1.000000 0.000000 0.000000 0.327270 0.289400 1 0 1.000000
  0 9.750001 11.261850 1.499997 -1.000000 0.000000 0.000000 0.327270 0.007720 1 0 1.000000
  0 9.750000 8.276813 1.499997 -1.000000 0.000000 0.000000 0.380920 0.007720 1 0 1.000000
itemcrate_sheet
  0 9.750007 11.261849 17.249998 0.000000 1.000000 0.000000 0.191980 0.313030 1 0 1.000000
  0 12.736182 11.261849 17.249996 0.000000 1.000000 0.000000 0.132870 0.313030 1 0 1.000000
  0 9.750001 11.261850 1.499997 0.000000 1.000000 0.000000 0.191980 0.002710 1 0 1.000000
itemcrate_sheet
  0 12.736182 11.261849 17.249996 0.000000 1.000000 0.000000 0.132870 0.313030 1 0 1.000000
  0 12.736178 11.261850 1.499996 0.000000 1.000000 0.000000 0.132870 0.002710 1 0 1.000000
  0 9.750001 11.261850 1.499997 0.000000 1.000000 0.000000 0.191980 0.002710 1 0 1.000000
itemcrate_sheet
  0 12.736183 8.276812 17.249996 0.000000 -1.000000 0.000000 0.006350 0.030450 1 0 1.000000
  0 9.750006 8.276812 17.249998 0.000000 -1.000000 0.000000 0.056740 0.030450 1 0 1.000000
  0 12.736177 8.276813 1.499996 0.000000 -1.000000 0.000000 0.006350 0.302270 1 0 1.000000
itemcrate_sheet
  0 9.750006 8.276812 17.249998 0.000000 -1.000000 0.000000 0.056740 0.030450 1 0 1.000000
  0 9.750000 8.276813 1.499997 0.000000 -1.000000 0.000000 0.056740 0.302270 1 0 1.000000
  0 12.736177 8.276813 1.499996 0.000000 -1.000000 0.000000 0.006350 0.302270 1 0 1.000000
itemcrate_sheet
  0 -8.249994 11.261849 17.250002 1.000000 0.000000 0.000000 0.200130 0.024690 1 0 1.000000
  0 -8.249994 8.276812 17.250002 1.000000 0.000000 0.000000 0.251880 0.024690 1 0 1.000000
  0 -8.249999 11.261850 1.500003 1.000000 0.000000 0.000000 0.200130 0.296370 1 0 1.000000
itemcrate_sheet
  0 -8.249994 8.276812 17.250002 1.000000 0.000000 0.000000 0.251880 0.024690 1 0 1.000000
  0 -8.249999 8.276813 1.500003 1.000000 0.000000 0.000000 0.251880 0.296370 1 0 1.000000
  0 -8.249999 11.261850 1.500003 1.000000 0.000000 0.000000 0.200130 0.296370 1 0 1.000000
itemcrate_sheet
  0 -11.263809 8.276812 17.250004 -1.000000 0.000000 0.000000 0.320160 0.311370 1 0 1.000000
  0 -11.263809 11.261849 17.250004 -1.000000 0.000000 0.000000 0.261050 0.311370 1 0 1.000000
  0 -11.263815 8.276813 1.500004 -1.000000 0.000000 0.000000 0.320160 0.001060 1 0 1.000000
itemcrate_sheet
  0 -11.263809 11.261849 17.250004 -1.000000 0.000000 0.000000 0.261050 0.311370 1 0 1.000000
  0 -11.263815 11.261850 1.500004 -1.000000 0.000000 0.000000 0.261050 0.001060 1 0 1.000000
  0 -11.263815 8.276813 1.500004 -1.000000 0.000000 0.000000 0.320160 0.001060 1 0 1.000000
itemcrate_sheet
  0 -11.263809 11.261849 17.250004 0.000000 1.000000 0.000000 0.383290 0.311370 1 0 1.000000
  0 -8.249994 11.261849 17.250002 0.000000 1.000000 0.000000 0.324180 0.311370 1 0 1.000000
  0 -11.263815 11.261850 1.500004 0.000000 1.000000 0.000000 0.383290 0.001060 1 0 1.000000
itemcrate_sheet
  0 -8.249994 11.261849 17.250002 0.000000 1.000000 0.000000 0.324180 0.311370 1 0 1.000000
  0 -8.249999 11.261850 1.500003 0.000000 1.000000 0.000000 0.324180 0.001060 1 0 1.000000
  0 -11.263815 11.261850 1.500004 0.000000 1.000000 0.000000 0.383290 0.001060 1 0 1.000000
itemcrate_sheet
  0 -8.249994 8.276812 17.250002 0.000000 -1.000000 0.000000 0.068190 0.020120 1 0 1.000000
  0 -11.263809 8.276812 17.250004 0.000000 -1.000000 0.000000 0.122810 0.020120 1 0 1.000000
  0 -8.249999 8.276813 1.500003 0.000000 -1.000000 0.000000 0.068190 0.306860 1 0 1.000000
itemcrate_sheet
  0 -11.263809 8.276812 17.250004 0.000000 -1.000000 0.000000 0.122810 0.020120 1 0 1.000000
  0 -11.263815 8.276813 1.500004 0.000000 -1.000000 0.000000 0.122810 0.306860 1 0 1.000000
  0 -8.249999 8.276813 1.500003 0.000000 -1.000000 0.000000 0.068190 0.306860 1 0 1.000000
itemcrate_sheet
  0 -8.249994 -9.723181 17.250002 1.000000 0.000000 0.000000 0.203150 0.044320 1 0 1.000000
  0 -8.249994 -12.738142 17.250002 1.000000 0.000000 0.000000 0.249070 0.044320 1 0 1.000000
  0 -8.249999 -9.723180 1.500002 1.000000 0.000000 0.000000 0.203150 0.285360 1 0 1.000000
itemcrate_sheet
  0 -8.249994 -12.738142 17.250002 1.000000 0.000000 0.000000 0.249070 0.044320 1 0 1.000000
  0 -8.249999 -12.738142 1.500002 1.000000 0.000000 0.000000 0.249070 0.285360 1 0 1.000000
  0 -8.249999 -9.723180 1.500002 1.000000 0.000000 0.000000 0.203150 0.285360 1 0 1.000000
itemcrate_sheet
  0 -11.262662 -12.738143 17.250004 -1.000000 0.000000 0.000000 0.448870 0.311370 1 0 1.000000
  0 -11.262662 -9.723181 17.250004 -1.000000 0.000000 0.000000 0.389770 0.311370 1 0 1.000000
  0 -11.262667 -12.738141 1.500003 -1.000000 0.000000 0.000000 0.448870 0.001060 1 0 1.000000
itemcrate_sheet
  0 -11.262662 -9.723181 17.250004 -1.000000 0.000000 0.000000 0.389770 0.311370 1 0 1.000000
  0 -11.262667 -9.723180 1.500003 -1.000000 0.000000 0.000000 0.389770 0.001060 1 0 1.000000
  0 -11.262667 -12.738141 1.500003 -1.000000 0.000000 0.000000 0.448870 0.001060 1 0 1.000000
itemcrate_sheet
  0 -11.262662 -9.723181 17.250004 0.000000 1.000000 0.000000 0.445340 0.288190 1 0 1.000000
  0 -8.249994 -9.723181 17.250002 0.000000 1.000000 0.000000 0.393930 0.288190 1 0 1.000000
  0 -11.262667 -9.723180 1.500003 0.000000 1.000000 0.000000 0.445340 0.018320 1 0 1.000000
itemcrate_sheet
  0 -8.249994 -9.723181 17.250002 0.000000 1.000000 0.000000 0.393930 0.288190 1 0 1.000000
  0 -8.249999 -9.723180 1.500002 0.000000 1.000000 0.000000 0.393930 0.018320 1 0 1.000000
  0 -11.262667 -9.723180 1.500003 0.000000 1.000000 0.000000 0.445340 0.018320 1 0 1.000000
itemcrate_sheet
  0 -8.249994 -12.738142 17.250002 0.000000 -1.000000 0.000000 0.457860 0.001060 1 0 1.000000
  0 -11.262662 -12.738143 17.250004 0.000000 -1.000000 0.000000 0.516970 0.001060 1 0 1.000000
  0 -8.249999 -12.738142 1.500002 0.000000 -1.000000 0.000000 0.457860 0.311370 1 0 1.000000
itemcrate_sheet
  0 -11.262662 -12.738143 17.250004 0.000000 -1.000000 0.000000 0.516970 0.001060 1 0 1.000000
  0 -11.262667 -12.738141 1.500003 0.000000 -1.000000 0.000000 0.516970 0.311370 1 0 1.000000
  0 -8.249999 -12.738142 1.500002 0.000000 -1.000000 0.000000 0.457860 0.311370 1 0 1.000000
itemcrate_sheet
  0 -7.499994 10.836869 17.250002 0.000000 0.000000 -1.000000 0.243910 0.646830 1 0 1.000000
  0 9.000005 10.836869 17.249998 0.000000 0.000000 -1.000000 0.162460 0.646830 1 0 1.000000
  0 -7.499994 -12.327534 17.250002 0.000000 0.000000 -1.000000 0.243910 0.532480 1 0 1.000000
itemcrate_sheet
  0 9.000005 10.836869 17.249998 0.000000 0.000000 -1.000000 0.162460 0.646830 1 0 1.000000
  0 9.000007 -12.327535 17.249998 0.000000 0.000000 -1.000000 0.162460 0.532480 1 0 1.000000
  0 -7.499994 -12.327534 17.250002 0.000000 0.000000 -1.000000 0.243910 0.532480 1 0 1.000000
itemcrate_sheet
  0 9.000007 10.836869 17.635429 0.000000 0.000000 1.000000 0.256570 0.314620 1 0 1.000000
  0 -7.499994 10.836869 17.635435 0.000000 0.000000 1.000000 0.495060 0.314620 1 0 1.000000
  0 9.000007 -12.327535 17.635429 0.000000 0.000000 1.000000 0.256570 0.649430 1 0 1.000000
itemcrate_sheet
  0 -7.499994 10.836869 17.635435 0.000000 0.000000 1.000000 0.495060 0.314620 1 0 1.000000
  0 -7.499994 -12.327534 17.635435 0.000000 0.000000 1.000000 0.495060 0.649430 1 0 1.000000
  0 9.000007 -12.327535 17.635429 0.000000 0.000000 1.000000 0.256570 0.649430 1 0 1.000000
itemcrate_sheet
  0 9.000007 10.836869 17.635429 1.000000 0.000000 0.000000 0.248650 0.646620 1 0 1.000000
  0 9.000007 -12.327535 17.635429 1.000000 0.000000 0.000000 0.248650 0.322940 1 0 1.000000
  0 9.000005 10.836869 17.249998 1.000000 0.000000 0.000000 0.254040 0.646620 1 0 1.000000
itemcrate_sheet
  0 9.000007 -12.327535 17.635429 1.000000 0.000000 0.000000 0.248650 0.322940 1 0 1.000000
  0 9.000007 -12.327535 17.249998 1.000000 0.000000 0.000000 0.254040 0.322940 1 0 1.000000
  0 9.000005 10.836869 17.249998 1.000000 0.000000 0.000000 0.254040 0.646620 1 0 1.000000
itemcrate_sheet
  0 -7.499994 -12.327534 17.635435 -1.000000 0.000000 0.000000 0.160250 0.322940 1 0 1.000000
  0 -7.499994 10.836869 17.635435 -1.000000 0.000000 0.000000 0.160250 0.646620 1 0 1.000000
  0 -7.499994 -12.327534 17.250002 -1.000000 0.000000 0.000000 0.154870 0.322940 1 0 1.000000
itemcrate_sheet
  0 -7.499994 10.836869 17.635435 -1.000000 0.000000 0.000000 0.160250 0.646620 1 0 1.000000
  0 -7.499994 10.836869 17.250002 -1.000000 0.000000 0.000000 0.154870 0.646620 1 0 1.000000
  0 -7.499994 -12.327534 17.250002 -1.000000 0.000000 0.000000 0.154870 0.322940 1 0 1.000000
itemcrate_sheet
  0 -7.499994 10.836869 17.635435 0.000000 1.000000 0.000000 0.223060 0.320420 1 0 1.000000
  0 9.000007 10.836869 17.635429 0.000000 1.000000 0.000000 0.223060 0.490400 1 0 1.000000
  0 -7.499994 10.836869 17.250002 0.000000 1.000000 0.000000 0.219090 0.320420 1 0 1.000000
itemcrate_sheet
  0 9.000007 10.836869 17.635429 0.000000 1.000000 0.000000 0.223060 0.490400 1 0 1.000000
  0 9.000005 10.836869 17.249998 0.000000 1.000000 0.000000 0.219090 0.490400 1 0 1.000000
  0 -7.499994 10.836869 17.250002 0.000000 1.000000 0.000000 0.219090 0.320420 1 0 1.000000
itemcrate_sheet
  0 9.000007 -12.327535 17.635429 0.000000 -1.000000 0.000000 0.234710 0.490400 1 0 1.000000
  0 -7.499994 -12.327534 17.635435 0.000000 -1.000000 0.000000 0.234710 0.320420 1 0 1.000000
  0 9.000007 -12.327535 17.249998 0.000000 -1.000000 0.000000 0.238690 0.490400 1 0 1.000000
itemcrate_sheet
  0 -7.499994 -12.327534 17.635435 0.000000 -1.000000 0.000000 0.234710 0.320420 1 0 1.000000
  0 -7.499994 -12.327534 17.250002 0.000000 -1.000000 0.000000 0.238690 0.320420 1 0 1.000000
  0 9.000007 -12.327535 17.249998 0.000000 -1.000000 0.000000 0.238690 0.490400 1 0 1.000000
itemcrate_sheet
  0 12.736182 11.261849 17.999996 1.000000 0.000000 0.000000 0.629480 0.646770 1 0 1.000000
  0 12.736181 -12.738144 17.999996 1.000000 0.000000 0.000000 0.629480 0.319320 1 0 1.000000
  0 12.736182 11.261849 17.249996 1.000000 0.000000 0.000000 0.639710 0.646770 1 0 1.000000
itemcrate_sheet
  0 12.736181 -12.738144 17.999996 1.000000 0.000000 0.000000 0.629480 0.319320 1 0 1.000000
  0 12.736182 -12.738144 17.249996 1.000000 0.000000 0.000000 0.639710 0.319320 1 0 1.000000
  0 12.736182 11.261849 17.249996 1.000000 0.000000 0.000000 0.639710 0.646770 1 0 1.000000
itemcrate_sheet
  0 9.000006 -12.738143 17.999998 -1.000000 0.000000 0.000000 0.935950 0.007840 1 0 1.000000
  0 9.000007 11.261849 17.999998 -1.000000 0.000000 0.000000 0.935950 0.332250 1 0 1.000000
  0 9.000007 -12.738143 17.249998 -1.000000 0.000000 0.000000 0.925810 0.007840 1 0 1.000000
itemcrate_sheet
  0 9.000007 11.261849 17.999998 -1.000000 0.000000 0.000000 0.935950 0.332250 1 0 1.000000
  0 9.000007 11.261849 17.249998 -1.000000 0.000000 0.000000 0.925810 0.332250 1 0 1.000000
  0 9.000007 -12.738143 17.249998 -1.000000 0.000000 0.000000 0.925810 0.007840 1 0 1.000000
itemcrate_sheet
  0 9.000007 11.261849 17.999998 0.000000 1.000000 0.000000 0.173060 0.486900 1 0 1.000000
  0 12.736182 11.261849 17.999996 0.000000 1.000000 0.000000 0.173060 0.525390 1 0 1.000000
  0 9.000007 11.261849 17.249998 0.000000 1.000000 0.000000 0.165340 0.486900 1 0 1.000000
itemcrate_sheet
  0 12.736182 11.261849 17.999996 0.000000 1.000000 0.000000 0.173060 0.525390 1 0 1.000000
  0 12.736182 11.261849 17.249996 0.000000 1.000000 0.000000 0.165340 0.525390 1 0 1.000000
  0 9.000007 11.261849 17.249998 0.000000 1.000000 0.000000 0.165340 0.486900 1 0 1.000000
itemcrate_sheet
  0 12.736181 -12.738144 17.999996 0.000000 -1.000000 0.000000 0.169250 0.431380 1 0 1.000000
  0 9.000006 -12.738143 17.999998 0.000000 -1.000000 0.000000 0.169250 0.392890 1 0 1.000000
  0 12.736182 -12.738144 17.249996 0.000000 -1.000000 0.000000 0.176980 0.431380 1 0 1.000000
itemcrate_sheet
  0 9.000006 -12.738143 17.999998 0.000000 -1.000000 0.000000 0.169250 0.392890 1 0 1.000000
  0 9.000007 -12.738143 17.249998 0.000000 -1.000000 0.000000 0.176980 0.392890 1 0 1.000000
  0 12.736182 -12.738144 17.249996 0.000000 -1.000000 0.000000 0.176980 0.431380 1 0 1.000000
itemcrate_sheet
  0 9.000007 11.261849 17.249998 0.000000 0.000000 -1.000000 0.857130 0.332850 1 0 1.000000
  0 12.736182 11.261849 17.249996 0.000000 0.000000 -1.000000 0.806500 0.332640 1 0 1.000000
  0 9.000007 -12.738143 17.249998 0.000000 0.000000 -1.000000 0.857130 0.007600 1 0 1.000000
itemcrate_sheet
  0 12.736182 11.261849 17.249996 0.000000 0.000000 -1.000000 0.806500 0.332640 1 0 1.000000
  0 12.736182 -12.738144 17.249996 0.000000 0.000000 -1.000000 0.806500 0.007400 1 0 1.000000
  0 9.000007 -12.738143 17.249998 0.000000 0.000000 -1.000000 0.857130 0.007600 1 0 1.000000
itemcrate_sheet
  0 12.736182 11.261849 17.999996 0.000000 0.000000 1.000000 0.918790 0.332640 1 0 1.000000
  0 9.000007 11.261849 17.999998 0.000000 0.000000 1.000000 0.868160 0.332850 1 0 1.000000
  0 12.736181 -12.738144 17.999996 0.000000 0.000000 1.000000 0.918790 0.007400 1 0 1.000000
itemcrate_sheet
  0 9.000007 11.261849 17.999998 0.000000 0.000000 1.000000 0.868160 0.332850 1 0 1.000000
  0 9.000006 -12.738143 17.999998 0.000000 0.000000 1.000000 0.868160 0.007600 1 0 1.000000
  0 12.736181 -12.738144 17.999996 0.000000 0.000000 1.000000 0.918790 0.007400 1 0 1.000000
itemcrate_sheet
  0 12.736178 11.261850 1.499996 1.000000 0.000000 0.000000 0.588090 0.646770 1 0 1.000000
  0 12.736178 -12.738142 1.499995 1.000000 0.000000 0.000000 0.588090 0.319320 1 0 1.000000
  0 12.736179 11.261850 0.749996 1.000000 0.000000 0.000000 0.598320 0.646770 1 0 1.000000
itemcrate_sheet
  0 12.736178 -12.738142 1.499995 1.000000 0.000000 0.000000 0.588090 0.319320 1 0 1.000000
  0 12.736179 -12.738142 0.749995 1.000000 0.000000 0.000000 0.598320 0.319320 1 0 1.000000
  0 12.736179 11.261850 0.749996 1.000000 0.000000 0.000000 0.598320 0.646770 1 0 1.000000
itemcrate_sheet
  0 -11.263815 -12.738141 1.500003 -1.000000 0.000000 0.000000 0.577630 0.319320 1 0 1.000000
  0 -11.263815 11.261850 1.500004 -1.000000 0.000000 0.000000 0.577630 0.646770 1 0 1.000000
  0 -11.263815 -12.738141 0.750003 -1.000000 0.000000 0.000000 0.567390 0.319320 1 0 1.000000
itemcrate_sheet
  0 -11.263815 11.261850 1.500004 -1.000000 0.000000 0.000000 0.577630 0.646770 1 0 1.000000
  0 -11.263815 11.261850 0.750004 -1.000000 0.000000 0.000000 0.567390 0.646770 1 0 1.000000
  0 -11.263815 -12.738141 0.750003 -1.000000 0.000000 0.000000 0.567390 0.319320 1 0 1.000000
itemcrate_sheet
  0 -11.263815 11.261850 1.500004 0.000000 1.000000 0.000000 0.976950 0.007840 1 0 1.000000
  0 12.736178 11.261850 1.499996 0.000000 1.000000 0.000000 0.976950 0.332250 1 0 1.000000
  0 -11.263815 11.261850 0.750004 0.000000 1.000000 0.000000 0.966820 0.007840 1 0 1.000000
itemcrate_sheet
  0 12.736178 11.261850 1.499996 0.000000 1.000000 0.000000 0.976950 0.332250 1 0 1.000000
  0 12.736179 11.261850 0.749996 0.000000 1.000000 0.000000 0.966820 0.332250 1 0 1.000000
  0 -11.263815 11.261850 0.750004 0.000000 1.000000 0.000000 0.966820 0.007840 1 0 1.000000
itemcrate_sheet
  0 12.736178 -12.738142 1.499995 0.000000 -1.000000 0.000000 0.987320 0.332250 1 0 1.000000
  0 -11.263815 -12.738141 1.500003 0.000000 -1.000000 0.000000 0.987320 0.007840 1 0 1.000000
  0 12.736179 -12.738142 0.749995 0.000000 -1.000000 0.000000 0.997460 0.332250 1 0 1.000000
itemcrate_sheet
  0 -11.263815 -12.738141 1.500003 0.000000 -1.000000 0.000000 0.987320 0.007840 1 0 1.000000
  0 -11.263815 -12.738141 0.750003 0.000000 -1.000000 0.000000 0.997460 0.007840 1 0 1.000000
  0 12.736179 -12.738142 0.749995 0.000000 -1.000000 0.000000 0.997460 0.332250 1 0 1.000000
itemcrate_sheet
  0 -11.263815 11.261850 0.750004 0.000000 0.000000 -1.000000 0.994500 0.344590 1 0 1.000000
  0 12.736179 11.261850 0.749996 0.000000 0.000000 -1.000000 0.994500 0.646680 1 0 1.000000
  0 -11.263815 -12.738141 0.750003 0.000000 0.000000 -1.000000 0.692410 0.344590 1 0 1.000000
itemcrate_sheet
  0 12.736179 11.261850 0.749996 0.000000 0.000000 -1.000000 0.994500 0.646680 1 0 1.000000
  0 12.736179 -12.738142 0.749995 0.000000 0.000000 -1.000000 0.692410 0.646680 1 0 1.000000
  0 -11.263815 -12.738141 0.750003 0.000000 0.000000 -1.000000 0.692410 0.344590 1 0 1.000000
itemcrate_sheet
  0 12.736178 11.261850 1.499996 0.000000 0.000000 1.000000 0.004160 0.570660 1 0 1.000000
  0 -11.263815 11.261850 1.500004 0.000000 0.000000 1.000000 0.004160 0.424980 1 0 1.000000
  0 12.736178 -12.738142 1.499995 0.000000 0.000000 1.000000 0.149850 0.570660 1 0 1.000000
itemcrate_sheet
  0 -11.263815 11.261850 1.500004 0.000000 0.000000 1.000000 0.004160 0.424980 1 0 1.000000
  0 -11.263815 -12.738141 1.500003 0.000000 0.000000 1.000000 0.149850 0.424980 1 0 1.000000
  0 12.736178 -12.738142 1.499995 0.000000 0.000000 1.000000 0.149850 0.570660 1 0 1.000000
itemcrate_sheet
  0 12.000005 10.526812 17.249996 1.000000 0.000000 0.000000 0.504060 0.996240 1 0 1.000000
  0 12.000007 -11.973181 17.249996 1.000000 0.000000 0.000000 0.504060 0.653730 1 0 1.000000
  0 12.000000 10.526813 1.499997 1.000000 0.000000 0.000000 0.743820 0.996240 1 0 1.000000
itemcrate_sheet
  0 12.000007 -11.973181 17.249996 1.000000 0.000000 0.000000 0.504060 0.653730 1 0 1.000000
  0 12.000001 -11.973181 1.499996 1.000000 0.000000 0.000000 0.743820 0.653730 1 0 1.000000
  0 12.000000 10.526813 1.499997 1.000000 0.000000 0.000000 0.743820 0.996240 1 0 1.000000
itemcrate_sheet
  0 -10.499994 -11.973180 17.250002 -1.000000 0.000000 0.000000 0.997790 0.653730 1 0 1.000000
  0 -10.499994 10.526812 17.250002 -1.000000 0.000000 0.000000 0.997790 0.996240 1 0 1.000000
  0 -10.499999 -11.973180 1.500003 -1.000000 0.000000 0.000000 0.758040 0.653730 1 0 1.000000
itemcrate_sheet
  0 -10.499994 10.526812 17.250002 -1.000000 0.000000 0.000000 0.997790 0.996240 1 0 1.000000
  0 -10.499999 10.526813 1.500004 -1.000000 0.000000 0.000000 0.758040 0.996240 1 0 1.000000
  0 -10.499999 -11.973180 1.500003 -1.000000 0.000000 0.000000 0.758040 0.653730 1 0 1.000000
itemcrate_sheet
  0 -10.499994 10.526812 17.250002 0.000000 1.000000 0.000000 0.240660 0.655270 1 0 1.000000
  0 12.000005 10.526812 17.249996 0.000000 1.000000 0.000000 0.240660 0.997020 1 0 1.000000
  0 -10.499999 10.526813 1.500004 0.000000 1.000000 0.000000 0.001440 0.655270 1 0 1.000000
itemcrate_sheet
  0 12.000005 10.526812 17.249996 0.000000 1.000000 0.000000 0.240660 0.997020 1 0 1.000000
  0 12.000000 10.526813 1.499997 0.000000 1.000000 0.000000 0.001440 0.997020 1 0 1.000000
  0 -10.499999 10.526813 1.500004 0.000000 1.000000 0.000000 0.001440 0.655270 1 0 1.000000
itemcrate_sheet
  0 12.000007 -11.973181 17.249996 0.000000 -1.000000 0.000000 0.254850 0.997020 1 0 1.000000
  0 -10.499994 -11.973180 17.250002 0.000000 -1.000000 0.000000 0.254850 0.655270 1 0 1.000000
  0 12.000001 -11.973181 1.499996 0.000000 -1.000000 0.000000 0.494080 0.997020 1 0 1.000000
itemcrate_sheet
  0 -10.499994 -11.973180 17.250002 0.000000 -1.000000 0.000000 0.254850 0.655270 1 0 1.000000
  0 -10.499999 -11.973180 1.500003 0.000000 -1.000000 0.000000 0.494080 0.655270 1 0 1.000000
  0 12.000001 -11.973181 1.499996 0.000000 -1.000000 0.000000 0.494080 0.997020 1 0 1.000000
itemcrate_sheet
  0 9.000891 1.516267 17.928394 1.000000 0.000000 -0.000002 0.183870 0.477520 1 0 1.000000
  0 9.000892 -1.760528 17.928394 1.000000 0.000000 -0.000002 0.183870 0.443760 1 0 1.000000
  0 9.000891 1.516267 17.542955 1.000000 0.000000 -0.000002 0.187840 0.477520 1 0 1.000000
itemcrate_sheet
  0 9.000892 -1.760528 17.928394 1.000000 0.000000 -0.000002 0.183870 0.443760 1 0 1.000000
  0 9.000890 -1.760528 17.542955 1.000000 0.000000 -0.000002 0.187840 0.443760 1 0 1.000000
  0 9.000891 1.516267 17.542955 1.000000 0.000000 -0.000002 0.187840 0.477520 1 0 1.000000
itemcrate_sheet
  0 -7.516697 -1.760528 17.928400 -1.000000 0.000000 0.000000 0.172220 0.443760 1 0 1.000000
  0 -7.516697 1.516267 17.928400 -1.000000 0.000000 0.000000 0.172220 0.477520 1 0 1.000000
  0 -7.516697 -1.760528 17.542959 -1.000000 0.000000 0.000000 0.168240 0.443760 1 0 1.000000
itemcrate_sheet
  0 -7.516697 1.516267 17.928400 -1.000000 0.000000 0.000000 0.172220 0.477520 1 0 1.000000
  0 -7.516697 1.516267 17.542959 -1.000000 0.000000 0.000000 0.168240 0.477520 1 0 1.000000
  0 -7.516697 -1.760528 17.542959 -1.000000 0.000000 0.000000 0.168240 0.443760 1 0 1.000000
end
