// Created by Crowbar 0.74
version 1
nodes
  0 "ValveBiped.Bip01_Spine4" -1
  1 "ValveBiped.Bip01_L_Clavicle" 0
  2 "ValveBiped.Bip01_L_UpperArm" 1
  3 "ValveBiped.Bip01_L_Forearm" 2
  4 "ValveBiped.Bip01_L_Hand" 3
  5 "ValveBiped.Bip01_L_Finger4" 4
  6 "ValveBiped.Bip01_L_Finger41" 5
  7 "ValveBiped.Bip01_L_Finger42" 6
  8 "ValveBiped.Bip01_L_Finger3" 4
  9 "ValveBiped.Bip01_L_Finger31" 8
  10 "ValveBiped.Bip01_L_Finger32" 9
  11 "ValveBiped.Bip01_L_Finger2" 4
  12 "ValveBiped.Bip01_L_Finger21" 11
  13 "ValveBiped.Bip01_L_Finger22" 12
  14 "ValveBiped.Bip01_L_Finger1" 4
  15 "ValveBiped.Bip01_L_Finger11" 14
  16 "ValveBiped.Bip01_L_Finger12" 15
  17 "ValveBiped.Bip01_L_Finger0" 4
  18 "ValveBiped.Bip01_L_Finger01" 17
  19 "ValveBiped.Bip01_L_Finger02" 18
  20 "ValveBiped.Bip01_R_Clavicle" 0
  21 "ValveBiped.Bip01_R_UpperArm" 20
  22 "ValveBiped.Bip01_R_Forearm" 21
  23 "ValveBiped.Bip01_R_Hand" 22
  24 "ValveBiped.Bip01_R_Finger4" 23
  25 "ValveBiped.Bip01_R_Finger41" 24
  26 "ValveBiped.Bip01_R_Finger42" 25
  27 "ValveBiped.Bip01_R_Finger3" 23
  28 "ValveBiped.Bip01_R_Finger31" 27
  29 "ValveBiped.Bip01_R_Finger32" 28
  30 "ValveBiped.Bip01_R_Finger2" 23
  31 "ValveBiped.Bip01_R_Finger21" 30
  32 "ValveBiped.Bip01_R_Finger22" 31
  33 "ValveBiped.Bip01_R_Finger1" 23
  34 "ValveBiped.Bip01_R_Finger11" 33
  35 "ValveBiped.Bip01_R_Finger12" 34
  36 "ValveBiped.Bip01_R_Finger0" 23
  37 "ValveBiped.Bip01_R_Finger01" 36
  38 "ValveBiped.Bip01_R_Finger02" 37
  39 "ValveBiped.Bip01" -1
  40 "ValveBiped.Gun" 39
  41 "ValveBiped.Pump" 40
  42 "ValveBiped.square" 40
end
skeleton
  time 0
    0 -4.996094 -5.242188 -9.640625 -1.570781 -1.391896 -1.570809
    1 2.033349 1.000767 1.937660 1.596637 -1.286515 2.942961
    2 6.028141 0.000000 0.000000 -0.502060 -0.914478 -1.692771
    3 11.692554 0.000001 0.000002 0.000000 0.000000 -0.907306
    4 11.481674 0.000001 -0.000032 -0.583286 0.121382 0.343368
    5 3.859709 -0.142404 -1.191975 -0.502776 -0.244875 -1.327706
    6 1.312555 -0.000002 0.000001 0.000000 0.000000 -0.275280
    7 0.729363 -0.000002 -0.000002 0.000000 0.000000 -0.093519
    8 3.942335 0.046767 -0.431443 -0.253492 -0.140130 -0.944416
    9 1.539097 0.000000 0.000000 0.000000 0.000000 -0.422801
    10 1.196326 -0.000002 -0.000001 0.000000 0.000000 -0.685721
    11 3.883696 -0.046765 0.431443 -0.048698 -0.149461 -0.571418
    12 1.719570 -0.000004 -0.000001 0.000000 0.000000 -0.789633
    13 1.209171 -0.000002 0.000000 0.000000 0.000000 -0.638622
    14 3.859865 -0.137947 1.332466 0.233295 -0.200810 -0.470677
    15 1.719429 0.000002 -0.000001 0.000000 0.000000 -0.851271
    16 1.099665 0.000000 0.000000 0.000000 0.000000 -0.722480
    17 0.806053 -0.348925 1.321258 -0.919596 -0.521595 -1.290002
    18 1.789780 -0.000002 0.000002 0.000000 0.000000 0.258466
    19 1.207006 0.000000 0.000000 0.000000 0.000000 0.084299
    20 2.033356 1.000772 -1.937610 -1.668474 1.286518 2.942953
    21 6.028144 0.000000 0.000000 0.917304 0.001542 -1.163826
    22 11.692554 0.000001 0.000003 0.000000 0.000000 -0.492918
    23 11.481697 0.000001 0.000002 -1.839856 0.008434 0.043618
    24 3.859678 -0.132570 1.193109 0.452686 -0.203570 -0.743635
    25 1.312557 -0.000002 0.000001 0.000000 0.000000 -0.429894
    26 0.729365 0.000002 -0.000002 0.000000 0.000000 -0.234753
    27 3.942305 0.050327 0.431044 0.136996 -0.098616 -0.615904
    28 1.539099 -0.000002 0.000000 0.000000 0.000000 -0.346350
    29 1.196321 0.000008 0.000000 0.000000 0.000000 -0.575157
    30 3.883661 -0.050323 -0.431042 -0.085905 -0.026404 -0.587695
    31 1.719578 0.000004 0.000000 0.000000 -0.007974 -0.366436
    32 1.209185 0.000002 0.000000 0.000000 -0.004461 -0.216376
    33 3.859838 -0.148937 -1.331282 -0.354419 0.038567 -0.532001
    34 1.719423 0.000002 0.000000 0.000000 -0.006613 -0.362970
    35 1.099667 0.000002 0.000000 0.000000 -0.004211 -0.244312
    36 0.806021 -0.359837 -1.318334 1.203301 0.616014 -0.845207
    37 1.789782 0.000000 -0.000004 0.000000 0.000000 0.181370
    38 1.206999 0.000003 0.000002 0.000000 0.000000 0.294827
    39 -4.996094 -9.109375 -29.421875 1.570792 0.000003 -0.000003
    40 -4.053957 18.550107 20.380680 0.259139 0.077588 0.081819
    41 -0.004455 -0.545139 -2.136547 0.000000 0.000000 0.000000
    42 0.009659 -6.406696 -21.608532 0.000000 0.000000 0.000000
  time 1
    0 -4.996094 -5.242188 -9.640625 -1.570781 -1.391896 -1.570809
    1 2.033349 1.000767 1.937660 1.596637 -1.286515 2.942961
    2 6.028141 0.000000 0.000000 -0.505139 -0.914648 -1.691101
    3 11.692554 0.000001 0.000002 0.000000 0.000000 -0.915021
    4 11.481674 0.000001 -0.000032 -0.578092 0.121142 0.343210
    5 3.859709 -0.142404 -1.191975 -0.502776 -0.244875 -1.327706
    6 1.312555 -0.000002 0.000001 0.000000 0.000000 -0.275280
    7 0.729363 -0.000002 -0.000002 0.000000 0.000000 -0.093519
    8 3.942335 0.046767 -0.431443 -0.253492 -0.140130 -0.944416
    9 1.539097 0.000000 0.000000 0.000000 0.000000 -0.422801
    10 1.196326 -0.000002 -0.000001 0.000000 0.000000 -0.685721
    11 3.883696 -0.046765 0.431443 -0.048698 -0.149461 -0.571418
    12 1.719570 -0.000004 -0.000001 0.000000 0.000000 -0.789633
    13 1.209171 -0.000002 0.000000 0.000000 0.000000 -0.638622
    14 3.859865 -0.137947 1.332466 0.233295 -0.200810 -0.470677
    15 1.719429 0.000002 -0.000001 0.000000 0.000000 -0.851271
    16 1.099665 0.000000 0.000000 0.000000 0.000000 -0.722480
    17 0.806053 -0.348925 1.321258 -0.919596 -0.521595 -1.290002
    18 1.789780 -0.000002 0.000002 0.000000 0.000000 0.258466
    19 1.207006 0.000000 0.000000 0.000000 0.000000 0.084299
    20 2.033356 1.000772 -1.937610 -1.668474 1.286518 2.942953
    21 6.028144 0.000000 0.000000 0.917304 0.001542 -1.163826
    22 11.692554 0.000001 0.000003 0.000000 0.000000 -0.492918
    23 11.481697 0.000001 0.000002 -1.839856 0.008434 0.043618
    24 3.859678 -0.132570 1.193109 0.452686 -0.203570 -0.743635
    25 1.312557 -0.000002 0.000001 0.000000 0.000000 -0.429894
    26 0.729365 0.000002 -0.000002 0.000000 0.000000 -0.234753
    27 3.942305 0.050327 0.431044 0.136996 -0.098616 -0.615904
    28 1.539099 -0.000002 0.000000 0.000000 0.000000 -0.346350
    29 1.196321 0.000008 0.000000 0.000000 0.000000 -0.575157
    30 3.883661 -0.050323 -0.431042 -0.085905 -0.026404 -0.587695
    31 1.719578 0.000004 0.000000 0.000000 -0.007974 -0.366436
    32 1.209185 0.000002 0.000000 0.000000 -0.004461 -0.216376
    33 3.859838 -0.148937 -1.331282 -0.354419 0.038567 -0.532001
    34 1.719423 0.000002 0.000000 0.000000 -0.006613 -0.362970
    35 1.099667 0.000002 0.000000 0.000000 -0.004211 -0.244312
    36 0.806021 -0.359837 -1.318334 1.203301 0.616014 -0.845207
    37 1.789782 0.000000 -0.000004 0.000000 0.000000 0.181370
    38 1.206999 0.000003 0.000002 0.000000 0.000000 0.294827
    39 -4.996094 -9.109375 -29.421875 1.570792 0.000003 -0.000003
    40 -4.053957 18.671204 20.333804 0.250503 0.075994 0.080021
    41 -0.004455 -0.545139 -2.136547 0.000000 0.000000 0.000000
    42 0.009659 -6.406696 -21.608532 0.000000 0.000000 0.000000
  time 2
    0 -4.996094 -5.242188 -9.640625 -1.570781 -1.391896 -1.570809
    1 2.033349 1.000767 1.937660 1.596637 -1.286515 2.942961
    2 6.028141 0.000000 0.000000 -0.512519 -0.915839 -1.688220
    3 11.692554 0.000001 0.000002 0.000000 0.000000 -0.933665
    4 11.481674 0.000001 -0.000032 -0.564030 0.121070 0.341870
    5 3.859709 -0.142404 -1.191975 -0.502776 -0.244875 -1.327706
    6 1.312555 -0.000002 0.000001 0.000000 0.000000 -0.275280
    7 0.729363 -0.000002 -0.000002 0.000000 0.000000 -0.093519
    8 3.942335 0.046767 -0.431443 -0.253492 -0.140130 -0.944416
    9 1.539097 0.000000 0.000000 0.000000 0.000000 -0.422801
    10 1.196326 -0.000002 -0.000001 0.000000 0.000000 -0.685721
    11 3.883696 -0.046765 0.431443 -0.048698 -0.149461 -0.571418
    12 1.719570 -0.000004 -0.000001 0.000000 0.000000 -0.789633
    13 1.209171 -0.000002 0.000000 0.000000 0.000000 -0.638622
    14 3.859865 -0.137947 1.332466 0.233295 -0.200810 -0.470677
    15 1.719429 0.000002 -0.000001 0.000000 0.000000 -0.851271
    16 1.099665 0.000000 0.000000 0.000000 0.000000 -0.722480
    17 0.806053 -0.348925 1.321258 -0.919596 -0.521595 -1.290002
    18 1.789780 -0.000002 0.000002 0.000000 0.000000 0.258466
    19 1.207006 0.000000 0.000000 0.000000 0.000000 0.084299
    20 2.033356 1.000772 -1.937610 -1.668474 1.286518 2.942953
    21 6.028144 0.000000 0.000000 0.917304 0.001542 -1.163826
    22 11.692554 0.000001 0.000003 0.000000 0.000000 -0.492918
    23 11.481697 0.000001 0.000002 -1.839856 0.008434 0.043618
    24 3.859678 -0.132570 1.193109 0.452686 -0.203570 -0.743635
    25 1.312557 -0.000002 0.000001 0.000000 0.000000 -0.429894
    26 0.729365 0.000002 -0.000002 0.000000 0.000000 -0.234753
    27 3.942305 0.050327 0.431044 0.136996 -0.098616 -0.615904
    28 1.539099 -0.000002 0.000000 0.000000 0.000000 -0.346350
    29 1.196321 0.000008 0.000000 0.000000 0.000000 -0.575157
    30 3.883661 -0.050323 -0.431042 -0.085905 -0.026404 -0.587695
    31 1.719578 0.000004 0.000000 0.000000 -0.007974 -0.366436
    32 1.209185 0.000002 0.000000 0.000000 -0.004461 -0.216376
    33 3.859838 -0.148937 -1.331282 -0.354419 0.038567 -0.532001
    34 1.719423 0.000002 0.000000 0.000000 -0.006613 -0.362970
    35 1.099667 0.000002 0.000000 0.000000 -0.004211 -0.244312
    36 0.806021 -0.359837 -1.318334 1.203301 0.616014 -0.845207
    37 1.789782 0.000000 -0.000004 0.000000 0.000000 0.181370
    38 1.206999 0.000003 0.000002 0.000000 0.000000 0.294827
    39 -4.996094 -9.109375 -29.421875 1.570792 0.000003 -0.000003
    40 -4.053957 19.003245 20.208800 0.227282 0.071608 0.075083
    41 -0.004455 -0.545139 -2.136547 0.000000 0.000000 0.000000
    42 0.009659 -6.406696 -21.608532 0.000000 0.000000 0.000000
  time 3
    0 -4.996094 -5.242188 -9.640625 -1.570781 -1.391896 -1.570809
    1 2.033349 1.000767 1.937660 1.596637 -1.286515 2.942961
    2 6.028141 0.000000 0.000000 -0.521366 -0.919003 -1.687259
    3 11.692554 0.000001 0.000002 0.000000 0.000000 -0.957066
    4 11.481674 0.000001 -0.000032 -0.543576 0.122089 0.338245
    5 3.859709 -0.142404 -1.191975 -0.502776 -0.244875 -1.327706
    6 1.312555 -0.000002 0.000001 0.000000 0.000000 -0.275280
    7 0.729363 -0.000002 -0.000002 0.000000 0.000000 -0.093519
    8 3.942335 0.046767 -0.431443 -0.253492 -0.140130 -0.944416
    9 1.539097 0.000000 0.000000 0.000000 0.000000 -0.422801
    10 1.196326 -0.000002 -0.000001 0.000000 0.000000 -0.685721
    11 3.883696 -0.046765 0.431443 -0.048698 -0.149461 -0.571418
    12 1.719570 -0.000004 -0.000001 0.000000 0.000000 -0.789633
    13 1.209171 -0.000002 0.000000 0.000000 0.000000 -0.638622
    14 3.859865 -0.137947 1.332466 0.233295 -0.200810 -0.470677
    15 1.719429 0.000002 -0.000001 0.000000 0.000000 -0.851271
    16 1.099665 0.000000 0.000000 0.000000 0.000000 -0.722480
    17 0.806053 -0.348925 1.321258 -0.919596 -0.521595 -1.290002
    18 1.789780 -0.000002 0.000002 0.000000 0.000000 0.258466
    19 1.207006 0.000000 0.000000 0.000000 0.000000 0.084299
    20 2.033356 1.000772 -1.937610 -1.668474 1.286518 2.942953
    21 6.028144 0.000000 0.000000 0.917304 0.001542 -1.163826
    22 11.692554 0.000001 0.000003 0.000000 0.000000 -0.492918
    23 11.481697 0.000001 0.000002 -1.839856 0.008434 0.043618
    24 3.859678 -0.132570 1.193109 0.452686 -0.203570 -0.743635
    25 1.312557 -0.000002 0.000001 0.000000 0.000000 -0.429894
    26 0.729365 0.000002 -0.000002 0.000000 0.000000 -0.234753
    27 3.942305 0.050327 0.431044 0.136996 -0.098616 -0.615904
    28 1.539099 -0.000002 0.000000 0.000000 0.000000 -0.346350
    29 1.196321 0.000008 0.000000 0.000000 0.000000 -0.575157
    30 3.883661 -0.050323 -0.431042 -0.085905 -0.026404 -0.587695
    31 1.719578 0.000004 0.000000 0.000000 -0.007974 -0.366436
    32 1.209185 0.000002 0.000000 0.000000 -0.004461 -0.216376
    33 3.859838 -0.148937 -1.331282 -0.354419 0.038567 -0.532001
    34 1.719423 0.000002 0.000000 0.000000 -0.006613 -0.362970
    35 1.099667 0.000002 0.000000 0.000000 -0.004211 -0.244312
    36 0.806021 -0.359837 -1.318334 1.203301 0.616014 -0.845207
    37 1.789782 0.000000 -0.000004 0.000000 0.000000 0.181370
    38 1.206999 0.000003 0.000002 0.000000 0.000000 0.294827
    39 -4.996094 -9.109375 -29.421875 1.570792 0.000003 -0.000003
    40 -4.050050 19.495448 20.033013 0.193487 0.064980 0.067713
    41 -0.004455 -0.545139 -2.136547 0.000000 0.000000 0.000000
    42 0.009659 -6.406696 -21.608532 0.000000 0.000000 0.000000
  time 4
    0 -4.996094 -5.242188 -9.640625 -1.570781 -1.391896 -1.570809
    1 2.033349 1.000767 1.937660 1.596637 -1.286515 2.942961
    2 6.028141 0.000000 0.000000 -0.529137 -0.924788 -1.690725
    3 11.692554 0.000001 0.000002 0.000000 0.000000 -0.979824
    4 11.481674 0.000001 -0.000032 -0.519606 0.124953 0.331546
    5 3.859709 -0.142404 -1.191975 -0.502776 -0.244875 -1.327706
    6 1.312555 -0.000002 0.000001 0.000000 0.000000 -0.275280
    7 0.729363 -0.000002 -0.000002 0.000000 0.000000 -0.093519
    8 3.942335 0.046767 -0.431443 -0.253492 -0.140130 -0.944416
    9 1.539097 0.000000 0.000000 0.000000 0.000000 -0.422801
    10 1.196326 -0.000002 -0.000001 0.000000 0.000000 -0.685721
    11 3.883696 -0.046765 0.431443 -0.048698 -0.149461 -0.571418
    12 1.719570 -0.000004 -0.000001 0.000000 0.000000 -0.789633
    13 1.209171 -0.000002 0.000000 0.000000 0.000000 -0.638622
    14 3.859865 -0.137947 1.332466 0.233295 -0.200810 -0.470677
    15 1.719429 0.000002 -0.000001 0.000000 0.000000 -0.851271
    16 1.099665 0.000000 0.000000 0.000000 0.000000 -0.722480
    17 0.806053 -0.348925 1.321258 -0.919596 -0.521595 -1.290002
    18 1.789780 -0.000002 0.000002 0.000000 0.000000 0.258466
    19 1.207006 0.000000 0.000000 0.000000 0.000000 0.084299
    20 2.033356 1.000772 -1.937610 -1.668474 1.286518 2.942953
    21 6.028144 0.000000 0.000000 0.917304 0.001542 -1.163826
    22 11.692554 0.000001 0.000003 0.000000 0.000000 -0.492918
    23 11.481697 0.000001 0.000002 -1.839856 0.008434 0.043618
    24 3.859678 -0.132570 1.193109 0.452686 -0.203570 -0.743635
    25 1.312557 -0.000002 0.000001 0.000000 0.000000 -0.429894
    26 0.729365 0.000002 -0.000002 0.000000 0.000000 -0.234753
    27 3.942305 0.050327 0.431044 0.136996 -0.098616 -0.615904
    28 1.539099 -0.000002 0.000000 0.000000 0.000000 -0.346350
    29 1.196321 0.000008 0.000000 0.000000 0.000000 -0.575157
    30 3.883661 -0.050323 -0.431042 -0.085905 -0.026404 -0.587695
    31 1.719578 0.000004 0.000000 0.000000 -0.007974 -0.366436
    32 1.209185 0.000002 0.000000 0.000000 -0.004461 -0.216376
    33 3.859838 -0.148937 -1.331282 -0.354419 0.038567 -0.532001
    34 1.719423 0.000002 0.000000 0.000000 -0.006613 -0.362970
    35 1.099667 0.000002 0.000000 0.000000 -0.004211 -0.244312
    36 0.806021 -0.359837 -1.318334 1.203301 0.616014 -0.845207
    37 1.789782 0.000000 -0.000004 0.000000 0.000000 0.181370
    38 1.206999 0.000003 0.000002 0.000000 0.000000 0.294827
    39 -4.996094 -9.109375 -29.421875 1.570792 0.000003 -0.000003
    40 -4.046144 20.093122 19.841601 0.153173 0.056639 0.058569
    41 -0.004455 -0.545139 -2.136547 0.000000 0.000000 0.000000
    42 0.009659 -6.406696 -21.608532 0.000000 0.000000 0.000000
  time 5
    0 -4.996094 -5.242188 -9.640625 -1.570781 -1.391896 -1.570809
    1 2.033349 1.000767 1.937660 1.596637 -1.286515 2.942961
    2 6.028141 0.000000 0.000000 -0.533731 -0.933600 -1.700204
    3 11.692554 0.000001 0.000002 0.000000 0.000000 -0.997503
    4 11.481674 0.000001 -0.000032 -0.494678 0.130107 0.321458
    5 3.859709 -0.142404 -1.191975 -0.502776 -0.244875 -1.327706
    6 1.312555 -0.000002 0.000001 0.000000 0.000000 -0.275280
    7 0.729363 -0.000002 -0.000002 0.000000 0.000000 -0.093519
    8 3.942335 0.046767 -0.431443 -0.253492 -0.140130 -0.944416
    9 1.539097 0.000000 0.000000 0.000000 0.000000 -0.422801
    10 1.196326 -0.000002 -0.000001 0.000000 0.000000 -0.685721
    11 3.883696 -0.046765 0.431443 -0.048698 -0.149461 -0.571418
    12 1.719570 -0.000004 -0.000001 0.000000 0.000000 -0.789633
    13 1.209171 -0.000002 0.000000 0.000000 0.000000 -0.638622
    14 3.859865 -0.137947 1.332466 0.233295 -0.200810 -0.470677
    15 1.719429 0.000002 -0.000001 0.000000 0.000000 -0.851271
    16 1.099665 0.000000 0.000000 0.000000 0.000000 -0.722480
    17 0.806053 -0.348925 1.321258 -0.919596 -0.521595 -1.290002
    18 1.789780 -0.000002 0.000002 0.000000 0.000000 0.258466
    19 1.207006 0.000000 0.000000 0.000000 0.000000 0.084299
    20 2.033356 1.000772 -1.937610 -1.668474 1.286518 2.942953
    21 6.028144 0.000000 0.000000 0.917304 0.001542 -1.163826
    22 11.692554 0.000001 0.000003 0.000000 0.000000 -0.492918
    23 11.481697 0.000001 0.000002 -1.839856 0.008434 0.043618
    24 3.859678 -0.132570 1.193109 0.452686 -0.203570 -0.743635
    25 1.312557 -0.000002 0.000001 0.000000 0.000000 -0.429894
    26 0.729365 0.000002 -0.000002 0.000000 0.000000 -0.234753
    27 3.942305 0.050327 0.431044 0.136996 -0.098616 -0.615904
    28 1.539099 -0.000002 0.000000 0.000000 0.000000 -0.346350
    29 1.196321 0.000008 0.000000 0.000000 0.000000 -0.575157
    30 3.883661 -0.050323 -0.431042 -0.085905 -0.026404 -0.587695
    31 1.719578 0.000004 0.000000 0.000000 -0.007974 -0.366436
    32 1.209185 0.000002 0.000000 0.000000 -0.004461 -0.216376
    33 3.859838 -0.148937 -1.331282 -0.354419 0.038567 -0.532001
    34 1.719423 0.000002 0.000000 0.000000 -0.006613 -0.362970
    35 1.099667 0.000002 0.000000 0.000000 -0.004211 -0.244312
    36 0.806021 -0.359837 -1.318334 1.203301 0.616014 -0.845207
    37 1.789782 0.000000 -0.000004 0.000000 0.000000 0.181370
    38 1.206999 0.000003 0.000002 0.000000 0.000000 0.294827
    39 -4.996094 -9.109375 -29.421875 1.570792 0.000003 -0.000003
    40 -4.038331 20.745486 19.658002 0.110321 0.047135 0.048322
    41 -0.004455 -0.545139 -2.136547 0.000000 0.000000 0.000000
    42 0.009659 -6.406696 -21.608532 0.000000 0.000000 0.000000
  time 6
    0 -4.996094 -5.242188 -9.640625 -1.570781 -1.391896 -1.570809
    1 2.033349 1.000767 1.937660 1.596637 -1.286515 2.942961
    2 6.028141 0.000000 0.000000 -0.533633 -0.945611 -1.716906
    3 11.692554 0.000001 0.000002 0.000000 0.000000 -1.006182
    4 11.481674 0.000001 -0.000032 -0.471427 0.137813 0.307705
    5 3.859709 -0.142404 -1.191975 -0.502776 -0.244875 -1.327706
    6 1.312555 -0.000002 0.000001 0.000000 0.000000 -0.275280
    7 0.729363 -0.000002 -0.000002 0.000000 0.000000 -0.093519
    8 3.942335 0.046767 -0.431443 -0.253492 -0.140130 -0.944416
    9 1.539097 0.000000 0.000000 0.000000 0.000000 -0.422801
    10 1.196326 -0.000002 -0.000001 0.000000 0.000000 -0.685721
    11 3.883696 -0.046765 0.431443 -0.048698 -0.149461 -0.571418
    12 1.719570 -0.000004 -0.000001 0.000000 0.000000 -0.789633
    13 1.209171 -0.000002 0.000000 0.000000 0.000000 -0.638622
    14 3.859865 -0.137947 1.332466 0.233295 -0.200810 -0.470677
    15 1.719429 0.000002 -0.000001 0.000000 0.000000 -0.851271
    16 1.099665 0.000000 0.000000 0.000000 0.000000 -0.722480
    17 0.806053 -0.348925 1.321258 -0.919596 -0.521595 -1.290002
    18 1.789780 -0.000002 0.000002 0.000000 0.000000 0.258466
    19 1.207006 0.000000 0.000000 0.000000 0.000000 0.084299
    20 2.033356 1.000772 -1.937610 -1.668474 1.286518 2.942953
    21 6.028144 0.000000 0.000000 0.917304 0.001542 -1.163826
    22 11.692554 0.000001 0.000003 0.000000 0.000000 -0.492918
    23 11.481697 0.000001 0.000002 -1.839856 0.008434 0.043618
    24 3.859678 -0.132570 1.193109 0.452686 -0.203570 -0.743635
    25 1.312557 -0.000002 0.000001 0.000000 0.000000 -0.429894
    26 0.729365 0.000002 -0.000002 0.000000 0.000000 -0.234753
    27 3.942305 0.050327 0.431044 0.136996 -0.098616 -0.615904
    28 1.539099 -0.000002 0.000000 0.000000 0.000000 -0.346350
    29 1.196321 0.000008 0.000000 0.000000 0.000000 -0.575157
    30 3.883661 -0.050323 -0.431042 -0.085905 -0.026404 -0.587695
    31 1.719578 0.000004 0.000000 0.000000 -0.007974 -0.366436
    32 1.209185 0.000002 0.000000 0.000000 -0.004461 -0.216376
    33 3.859838 -0.148937 -1.331282 -0.354419 0.038567 -0.532001
    34 1.719423 0.000002 0.000000 0.000000 -0.006613 -0.362970
    35 1.099667 0.000002 0.000000 0.000000 -0.004211 -0.244312
    36 0.806021 -0.359837 -1.318334 1.203301 0.616014 -0.845207
    37 1.789782 0.000000 -0.000004 0.000000 0.000000 0.181370
    38 1.206999 0.000003 0.000002 0.000000 0.000000 0.294827
    39 -4.996094 -9.109375 -29.421875 1.570792 0.000003 -0.000003
    40 -4.034425 21.397850 19.513466 0.068956 0.037020 0.037620
    41 -0.004455 -0.545139 -2.136547 0.000000 0.000000 0.000000
    42 0.009659 -6.406696 -21.608532 0.000000 0.000000 0.000000
  time 7
    0 -4.996094 -5.242188 -9.640625 -1.570781 -1.391896 -1.570809
    1 2.033349 1.000767 1.937660 1.596637 -1.286515 2.942961
    2 6.028141 0.000000 0.000000 -0.527328 -0.960991 -1.741917
    3 11.692554 0.000001 0.000002 0.000000 0.000000 -1.001424
    4 11.481674 0.000001 -0.000032 -0.452012 0.148347 0.289775
    5 3.859709 -0.142404 -1.191975 -0.502776 -0.244875 -1.327706
    6 1.312555 -0.000002 0.000001 0.000000 0.000000 -0.275280
    7 0.729363 -0.000002 -0.000002 0.000000 0.000000 -0.093519
    8 3.942335 0.046767 -0.431443 -0.253492 -0.140130 -0.944416
    9 1.539097 0.000000 0.000000 0.000000 0.000000 -0.422801
    10 1.196326 -0.000002 -0.000001 0.000000 0.000000 -0.685721
    11 3.883696 -0.046765 0.431443 -0.048698 -0.149461 -0.571418
    12 1.719570 -0.000004 -0.000001 0.000000 0.000000 -0.789633
    13 1.209171 -0.000002 0.000000 0.000000 0.000000 -0.638622
    14 3.859865 -0.137947 1.332466 0.233295 -0.200810 -0.470677
    15 1.719429 0.000002 -0.000001 0.000000 0.000000 -0.851271
    16 1.099665 0.000000 0.000000 0.000000 0.000000 -0.722480
    17 0.806053 -0.348925 1.321258 -0.919596 -0.521595 -1.290002
    18 1.789780 -0.000002 0.000002 0.000000 0.000000 0.258466
    19 1.207006 0.000000 0.000000 0.000000 0.000000 0.084299
    20 2.033356 1.000772 -1.937610 -1.668474 1.286518 2.942953
    21 6.028144 0.000000 0.000000 0.917304 0.001542 -1.163826
    22 11.692554 0.000001 0.000003 0.000000 0.000000 -0.492918
    23 11.481697 0.000001 0.000002 -1.839856 0.008434 0.043618
    24 3.859678 -0.132570 1.193109 0.452686 -0.203570 -0.743635
    25 1.312557 -0.000002 0.000001 0.000000 0.000000 -0.429894
    26 0.729365 0.000002 -0.000002 0.000000 0.000000 -0.234753
    27 3.942305 0.050327 0.431044 0.136996 -0.098616 -0.615904
    28 1.539099 -0.000002 0.000000 0.000000 0.000000 -0.346350
    29 1.196321 0.000008 0.000000 0.000000 0.000000 -0.575157
    30 3.883661 -0.050323 -0.431042 -0.085905 -0.026404 -0.587695
    31 1.719578 0.000004 0.000000 0.000000 -0.007974 -0.366436
    32 1.209185 0.000002 0.000000 0.000000 -0.004461 -0.216376
    33 3.859838 -0.148937 -1.331282 -0.354419 0.038567 -0.532001
    34 1.719423 0.000002 0.000000 0.000000 -0.006613 -0.362970
    35 1.099667 0.000002 0.000000 0.000000 -0.004211 -0.244312
    36 0.806021 -0.359837 -1.318334 1.203301 0.616014 -0.845207
    37 1.789782 0.000000 -0.000004 0.000000 0.000000 0.181370
    38 1.206999 0.000003 0.000002 0.000000 0.000000 0.294827
    39 -4.996094 -9.109375 -29.421875 1.570792 0.000003 -0.000003
    40 -4.030519 22.003337 19.454871 0.033043 0.026905 0.027097
    41 -0.004455 -0.545139 -2.136547 0.000000 0.000000 0.000000
    42 0.009659 -6.406696 -21.608532 0.000000 0.000000 0.000000
  time 8
    0 -4.996094 -5.242188 -9.640625 -1.570781 -1.391896 -1.570809
    1 2.033349 1.000767 1.937660 1.596637 -1.286515 2.942961
    2 6.028141 0.000000 0.000000 -0.513888 -0.979195 -1.775446
    3 11.692554 0.000001 0.000002 0.000000 0.000000 -0.979631
    4 11.481674 0.000001 -0.000032 -0.439628 0.161962 0.268259
    5 3.859709 -0.142404 -1.191975 -0.502776 -0.244875 -1.327706
    6 1.312555 -0.000002 0.000001 0.000000 0.000000 -0.275280
    7 0.729363 -0.000002 -0.000002 0.000000 0.000000 -0.093519
    8 3.942335 0.046767 -0.431443 -0.253492 -0.140130 -0.944416
    9 1.539097 0.000000 0.000000 0.000000 0.000000 -0.422801
    10 1.196326 -0.000002 -0.000001 0.000000 0.000000 -0.685721
    11 3.883696 -0.046765 0.431443 -0.048698 -0.149461 -0.571418
    12 1.719570 -0.000004 -0.000001 0.000000 0.000000 -0.789633
    13 1.209171 -0.000002 0.000000 0.000000 0.000000 -0.638622
    14 3.859865 -0.137947 1.332466 0.233295 -0.200810 -0.470677
    15 1.719429 0.000002 -0.000001 0.000000 0.000000 -0.851271
    16 1.099665 0.000000 0.000000 0.000000 0.000000 -0.722480
    17 0.806053 -0.348925 1.321258 -0.919596 -0.521595 -1.290002
    18 1.789780 -0.000002 0.000002 0.000000 0.000000 0.258466
    19 1.207006 0.000000 0.000000 0.000000 0.000000 0.084299
    20 2.033356 1.000772 -1.937610 -1.668474 1.286518 2.942953
    21 6.028144 0.000000 0.000000 0.917304 0.001542 -1.163826
    22 11.692554 0.000001 0.000003 0.000000 0.000000 -0.492918
    23 11.481697 0.000001 0.000002 -1.839856 0.008434 0.043618
    24 3.859678 -0.132570 1.193109 0.452686 -0.203570 -0.743635
    25 1.312557 -0.000002 0.000001 0.000000 0.000000 -0.429894
    26 0.729365 0.000002 -0.000002 0.000000 0.000000 -0.234753
    27 3.942305 0.050327 0.431044 0.136996 -0.098616 -0.615904
    28 1.539099 -0.000002 0.000000 0.000000 0.000000 -0.346350
    29 1.196321 0.000008 0.000000 0.000000 0.000000 -0.575157
    30 3.883661 -0.050323 -0.431042 -0.085905 -0.026404 -0.587695
    31 1.719578 0.000004 0.000000 0.000000 -0.007974 -0.366436
    32 1.209185 0.000002 0.000000 0.000000 -0.004461 -0.216376
    33 3.859838 -0.148937 -1.331282 -0.354419 0.038567 -0.532001
    34 1.719423 0.000002 0.000000 0.000000 -0.006613 -0.362970
    35 1.099667 0.000002 0.000000 0.000000 -0.004211 -0.244312
    36 0.806021 -0.359837 -1.318334 1.203301 0.616014 -0.845207
    37 1.789782 0.000000 -0.000004 0.000000 0.000000 0.181370
    38 1.206999 0.000003 0.000002 0.000000 0.000000 0.294827
    39 -4.996094 -9.109375 -29.421875 1.570792 0.000003 -0.000003
    40 -4.022706 22.491633 19.525185 0.008696 0.017425 0.017414
    41 -0.004455 -0.545139 -2.136547 0.000000 0.000000 0.000000
    42 0.009659 -6.406696 -21.608532 0.000000 0.000000 0.000000
  time 9
    0 -4.996094 -5.242188 -9.640625 -1.570781 -1.391896 -1.570809
    1 2.033349 1.000767 1.937660 1.596637 -1.286515 2.942961
    2 6.028141 0.000000 0.000000 -0.496048 -0.997058 -1.811732
    3 11.692554 0.000001 0.000002 0.000000 0.000000 -0.948129
    4 11.481674 0.000001 -0.000032 -0.434834 0.176415 0.247255
    5 3.859709 -0.142404 -1.191975 -0.502776 -0.244875 -1.327706
    6 1.312555 -0.000002 0.000001 0.000000 0.000000 -0.275280
    7 0.729363 -0.000002 -0.000002 0.000000 0.000000 -0.093519
    8 3.942335 0.046767 -0.431443 -0.253492 -0.140130 -0.944416
    9 1.539097 0.000000 0.000000 0.000000 0.000000 -0.422801
    10 1.196326 -0.000002 -0.000001 0.000000 0.000000 -0.685721
    11 3.883696 -0.046765 0.431443 -0.048698 -0.149461 -0.571418
    12 1.719570 -0.000004 -0.000001 0.000000 0.000000 -0.789633
    13 1.209171 -0.000002 0.000000 0.000000 0.000000 -0.638622
    14 3.859865 -0.137947 1.332466 0.233295 -0.200810 -0.470677
    15 1.719429 0.000002 -0.000001 0.000000 0.000000 -0.851271
    16 1.099665 0.000000 0.000000 0.000000 0.000000 -0.722480
    17 0.806053 -0.348925 1.321258 -0.919596 -0.521595 -1.290002
    18 1.789780 -0.000002 0.000002 0.000000 0.000000 0.258466
    19 1.207006 0.000000 0.000000 0.000000 0.000000 0.084299
    20 2.033356 1.000772 -1.937610 -1.668474 1.286518 2.942953
    21 6.028144 0.000000 0.000000 0.917304 0.001542 -1.163826
    22 11.692554 0.000001 0.000003 0.000000 0.000000 -0.492918
    23 11.481697 0.000001 0.000002 -1.839856 0.008434 0.043618
    24 3.859678 -0.132570 1.193109 0.452686 -0.203570 -0.743635
    25 1.312557 -0.000002 0.000001 0.000000 0.000000 -0.429894
    26 0.729365 0.000002 -0.000002 0.000000 0.000000 -0.234753
    27 3.942305 0.050327 0.431044 0.136996 -0.098616 -0.615904
    28 1.539099 -0.000002 0.000000 0.000000 0.000000 -0.346350
    29 1.196321 0.000008 0.000000 0.000000 0.000000 -0.575157
    30 3.883661 -0.050323 -0.431042 -0.085905 -0.026404 -0.587695
    31 1.719578 0.000004 0.000000 0.000000 -0.007974 -0.366436
    32 1.209185 0.000002 0.000000 0.000000 -0.004461 -0.216376
    33 3.859838 -0.148937 -1.331282 -0.354419 0.038567 -0.532001
    34 1.719423 0.000002 0.000000 0.000000 -0.006613 -0.362970
    35 1.099667 0.000002 0.000000 0.000000 -0.004211 -0.244312
    36 0.806021 -0.359837 -1.318334 1.203301 0.616014 -0.845207
    37 1.789782 0.000000 -0.000004 0.000000 0.000000 0.181370
    38 1.206999 0.000003 0.000002 0.000000 0.000000 0.294827
    39 -4.996094 -9.109375 -29.421875 1.570792 0.000003 -0.000003
    40 -4.018799 22.827581 19.689253 -0.003110 0.009204 0.009132
    41 -0.004455 -0.545139 -2.136547 0.000000 0.000000 0.000000
    42 0.009659 -6.406696 -21.608532 0.000000 0.000000 0.000000
  time 10
    0 -4.996094 -5.242188 -9.640625 -1.570781 -1.391896 -1.570809
    1 2.033349 1.000767 1.937660 1.596637 -1.286515 2.942961
    2 6.028141 0.000000 0.000000 -0.477182 -1.012336 -1.845720
    3 11.692554 0.000001 0.000002 0.000000 0.000000 -0.914635
    4 11.481674 0.000001 -0.000032 -0.434754 0.189370 0.229207
    5 3.859709 -0.142404 -1.191975 -0.502776 -0.244875 -1.327706
    6 1.312555 -0.000002 0.000001 0.000000 0.000000 -0.275280
    7 0.729363 -0.000002 -0.000002 0.000000 0.000000 -0.093519
    8 3.942335 0.046767 -0.431443 -0.253492 -0.140130 -0.944416
    9 1.539097 0.000000 0.000000 0.000000 0.000000 -0.422801
    10 1.196326 -0.000002 -0.000001 0.000000 0.000000 -0.685721
    11 3.883696 -0.046765 0.431443 -0.048698 -0.149461 -0.571418
    12 1.719570 -0.000004 -0.000001 0.000000 0.000000 -0.789633
    13 1.209171 -0.000002 0.000000 0.000000 0.000000 -0.638622
    14 3.859865 -0.137947 1.332466 0.233295 -0.200810 -0.470677
    15 1.719429 0.000002 -0.000001 0.000000 0.000000 -0.851271
    16 1.099665 0.000000 0.000000 0.000000 0.000000 -0.722480
    17 0.806053 -0.348925 1.321258 -0.919596 -0.521595 -1.290002
    18 1.789780 -0.000002 0.000002 0.000000 0.000000 0.258466
    19 1.207006 0.000000 0.000000 0.000000 0.000000 0.084299
    20 2.033356 1.000772 -1.937610 -1.668474 1.286518 2.942953
    21 6.028144 0.000000 0.000000 0.917304 0.001542 -1.163826
    22 11.692554 0.000001 0.000003 0.000000 0.000000 -0.492918
    23 11.481697 0.000001 0.000002 -1.839856 0.008434 0.043618
    24 3.859678 -0.132570 1.193109 0.452686 -0.203570 -0.743635
    25 1.312557 -0.000002 0.000001 0.000000 0.000000 -0.429894
    26 0.729365 0.000002 -0.000002 0.000000 0.000000 -0.234753
    27 3.942305 0.050327 0.431044 0.136996 -0.098616 -0.615904
    28 1.539099 -0.000002 0.000000 0.000000 0.000000 -0.346350
    29 1.196321 0.000008 0.000000 0.000000 0.000000 -0.575157
    30 3.883661 -0.050323 -0.431042 -0.085905 -0.026404 -0.587695
    31 1.719578 0.000004 0.000000 0.000000 -0.007974 -0.366436
    32 1.209185 0.000002 0.000000 0.000000 -0.004461 -0.216376
    33 3.859838 -0.148937 -1.331282 -0.354419 0.038567 -0.532001
    34 1.719423 0.000002 0.000000 0.000000 -0.006613 -0.362970
    35 1.099667 0.000002 0.000000 0.000000 -0.004211 -0.244312
    36 0.806021 -0.359837 -1.318334 1.203301 0.616014 -0.845207
    37 1.789782 0.000000 -0.000004 0.000000 0.000000 0.181370
    38 1.206999 0.000003 0.000002 0.000000 0.000000 0.294827
    39 -4.996094 -9.109375 -29.421875 1.570792 0.000003 -0.000003
    40 -4.014893 23.038525 19.884571 -0.006084 0.002912 0.002864
    41 -0.004455 -0.545139 -2.136547 0.000000 0.000000 0.000000
    42 0.009659 -6.406696 -21.608532 0.000000 0.000000 0.000000
  time 11
    0 -4.996094 -5.242188 -9.640625 -1.570781 -1.391896 -1.570809
    1 2.033349 1.000767 1.937660 1.596637 -1.286515 2.942961
    2 6.028141 0.000000 0.000000 -0.459832 -1.024177 -1.874364
    3 11.692554 0.000001 0.000002 0.000000 0.000000 -0.883391
    4 11.481674 0.000001 -0.000032 -0.436272 0.199234 0.215178
    5 3.859709 -0.142404 -1.191975 -0.502776 -0.244875 -1.327706
    6 1.312555 -0.000002 0.000001 0.000000 0.000000 -0.275280
    7 0.729363 -0.000002 -0.000002 0.000000 0.000000 -0.093519
    8 3.942335 0.046767 -0.431443 -0.253492 -0.140130 -0.944416
    9 1.539097 0.000000 0.000000 0.000000 0.000000 -0.422801
    10 1.196326 -0.000002 -0.000001 0.000000 0.000000 -0.685721
    11 3.883696 -0.046765 0.431443 -0.048698 -0.149461 -0.571418
    12 1.719570 -0.000004 -0.000001 0.000000 0.000000 -0.789633
    13 1.209171 -0.000002 0.000000 0.000000 0.000000 -0.638622
    14 3.859865 -0.137947 1.332466 0.233295 -0.200810 -0.470677
    15 1.719429 0.000002 -0.000001 0.000000 0.000000 -0.851271
    16 1.099665 0.000000 0.000000 0.000000 0.000000 -0.722480
    17 0.806053 -0.348925 1.321258 -0.919596 -0.521595 -1.290002
    18 1.789780 -0.000002 0.000002 0.000000 0.000000 0.258466
    19 1.207006 0.000000 0.000000 0.000000 0.000000 0.084299
    20 2.033356 1.000772 -1.937610 -1.668474 1.286518 2.942953
    21 6.028144 0.000000 0.000000 0.917304 0.001542 -1.163826
    22 11.692554 0.000001 0.000003 0.000000 0.000000 -0.492918
    23 11.481697 0.000001 0.000002 -1.839856 0.008434 0.043618
    24 3.859678 -0.132570 1.193109 0.452686 -0.203570 -0.743635
    25 1.312557 -0.000002 0.000001 0.000000 0.000000 -0.429894
    26 0.729365 0.000002 -0.000002 0.000000 0.000000 -0.234753
    27 3.942305 0.050327 0.431044 0.136996 -0.098616 -0.615904
    28 1.539099 -0.000002 0.000000 0.000000 0.000000 -0.346350
    29 1.196321 0.000008 0.000000 0.000000 0.000000 -0.575157
    30 3.883661 -0.050323 -0.431042 -0.085905 -0.026404 -0.587695
    31 1.719578 0.000004 0.000000 0.000000 -0.007974 -0.366436
    32 1.209185 0.000002 0.000000 0.000000 -0.004461 -0.216376
    33 3.859838 -0.148937 -1.331282 -0.354419 0.038567 -0.532001
    34 1.719423 0.000002 0.000000 0.000000 -0.006613 -0.362970
    35 1.099667 0.000002 0.000000 0.000000 -0.004211 -0.244312
    36 0.806021 -0.359837 -1.318334 1.203301 0.616014 -0.845207
    37 1.789782 0.000000 -0.000004 0.000000 0.000000 0.181370
    38 1.206999 0.000003 0.000002 0.000000 0.000000 0.294827
    39 -4.996094 -9.109375 -29.421875 1.570792 0.000003 -0.000003
    40 -4.014893 23.140090 20.079890 -0.003846 -0.000564 -0.000551
    41 -0.004455 -0.545139 -2.136547 0.000000 0.000000 0.000000
    42 0.009659 -6.406696 -21.608532 0.000000 0.000000 0.000000
  time 12
    0 -4.996094 -5.242188 -9.640625 -1.570781 -1.391896 -1.570809
    1 2.033349 1.000767 1.937660 1.596637 -1.286515 2.942961
    2 6.028141 0.000000 0.000000 -0.445365 -1.032513 -1.896495
    3 11.692554 0.000001 0.000002 0.000000 0.000000 -0.856004
    4 11.481674 0.000001 -0.000032 -0.435872 0.204567 0.205366
    5 3.859709 -0.142404 -1.191975 -0.502776 -0.244875 -1.327706
    6 1.312555 -0.000002 0.000001 0.000000 0.000000 -0.275280
    7 0.729363 -0.000002 -0.000002 0.000000 0.000000 -0.093519
    8 3.942335 0.046767 -0.431443 -0.253492 -0.140130 -0.944416
    9 1.539097 0.000000 0.000000 0.000000 0.000000 -0.422801
    10 1.196326 -0.000002 -0.000001 0.000000 0.000000 -0.685721
    11 3.883696 -0.046765 0.431443 -0.048698 -0.149461 -0.571418
    12 1.719570 -0.000004 -0.000001 0.000000 0.000000 -0.789633
    13 1.209171 -0.000002 0.000000 0.000000 0.000000 -0.638622
    14 3.859865 -0.137947 1.332466 0.233295 -0.200810 -0.470677
    15 1.719429 0.000002 -0.000001 0.000000 0.000000 -0.851271
    16 1.099665 0.000000 0.000000 0.000000 0.000000 -0.722480
    17 0.806053 -0.348925 1.321258 -0.919596 -0.521595 -1.290002
    18 1.789780 -0.000002 0.000002 0.000000 0.000000 0.258466
    19 1.207006 0.000000 0.000000 0.000000 0.000000 0.084299
    20 2.033356 1.000772 -1.937610 -1.668474 1.286518 2.942953
    21 6.028144 0.000000 0.000000 0.917304 0.001542 -1.163826
    22 11.692554 0.000001 0.000003 0.000000 0.000000 -0.492918
    23 11.481697 0.000001 0.000002 -1.839856 0.008434 0.043618
    24 3.859678 -0.132570 1.193109 0.452686 -0.203570 -0.743635
    25 1.312557 -0.000002 0.000001 0.000000 0.000000 -0.429894
    26 0.729365 0.000002 -0.000002 0.000000 0.000000 -0.234753
    27 3.942305 0.050327 0.431044 0.136996 -0.098616 -0.615904
    28 1.539099 -0.000002 0.000000 0.000000 0.000000 -0.346350
    29 1.196321 0.000008 0.000000 0.000000 0.000000 -0.575157
    30 3.883661 -0.050323 -0.431042 -0.085905 -0.026404 -0.587695
    31 1.719578 0.000004 0.000000 0.000000 -0.007974 -0.366436
    32 1.209185 0.000002 0.000000 0.000000 -0.004461 -0.216376
    33 3.859838 -0.148937 -1.331282 -0.354419 0.038567 -0.532001
    34 1.719423 0.000002 0.000000 0.000000 -0.006613 -0.362970
    35 1.099667 0.000002 0.000000 0.000000 -0.004211 -0.244312
    36 0.806021 -0.359837 -1.318334 1.203301 0.616014 -0.845207
    37 1.789782 0.000000 -0.000004 0.000000 0.000000 0.181370
    38 1.206999 0.000003 0.000002 0.000000 0.000000 0.294827
    39 -4.996094 -9.109375 -29.421875 1.570792 0.000003 -0.000003
    40 -4.014893 23.155716 20.251770 -0.000001 0.000000 0.000000
    41 -0.004455 -0.545139 -2.136547 0.000000 0.000000 0.000000
    42 0.009659 -6.406696 -21.608532 0.000000 0.000000 0.000000
end
