// Created by Crowbar 0.74
version 1
nodes
  0 "ValveBiped.Bip01_Spine4" -1
  1 "ValveBiped.Bip01_L_Clavicle" 0
  2 "ValveBiped.Bip01_L_UpperArm" 1
  3 "ValveBiped.Bip01_L_Forearm" 2
  4 "ValveBiped.Bip01_L_Hand" 3
  5 "ValveBiped.Bip01_L_Finger4" 4
  6 "ValveBiped.Bip01_L_Finger41" 5
  7 "ValveBiped.Bip01_L_Finger42" 6
  8 "ValveBiped.Bip01_L_Finger3" 4
  9 "ValveBiped.Bip01_L_Finger31" 8
  10 "ValveBiped.Bip01_L_Finger32" 9
  11 "ValveBiped.Bip01_L_Finger2" 4
  12 "ValveBiped.Bip01_L_Finger21" 11
  13 "ValveBiped.Bip01_L_Finger22" 12
  14 "ValveBiped.Bip01_L_Finger1" 4
  15 "ValveBiped.Bip01_L_Finger11" 14
  16 "ValveBiped.Bip01_L_Finger12" 15
  17 "ValveBiped.Bip01_L_Finger0" 4
  18 "ValveBiped.Bip01_L_Finger01" 17
  19 "ValveBiped.Bip01_L_Finger02" 18
  20 "ValveBiped.Bip01_R_Clavicle" 0
  21 "ValveBiped.Bip01_R_UpperArm" 20
  22 "ValveBiped.Bip01_R_Forearm" 21
  23 "ValveBiped.Bip01_R_Hand" 22
  24 "ValveBiped.Bip01_R_Finger4" 23
  25 "ValveBiped.Bip01_R_Finger41" 24
  26 "ValveBiped.Bip01_R_Finger42" 25
  27 "ValveBiped.Bip01_R_Finger3" 23
  28 "ValveBiped.Bip01_R_Finger31" 27
  29 "ValveBiped.Bip01_R_Finger32" 28
  30 "ValveBiped.Bip01_R_Finger2" 23
  31 "ValveBiped.Bip01_R_Finger21" 30
  32 "ValveBiped.Bip01_R_Finger22" 31
  33 "ValveBiped.Bip01_R_Finger1" 23
  34 "ValveBiped.Bip01_R_Finger11" 33
  35 "ValveBiped.Bip01_R_Finger12" 34
  36 "ValveBiped.Bip01_R_Finger0" 23
  37 "ValveBiped.Bip01_R_Finger01" 36
  38 "ValveBiped.Bip01_R_Finger02" 37
  39 "ValveBiped.Bip01" -1
  40 "ValveBiped.Gun" 39
  41 "ValveBiped.Pump" 40
  42 "ValveBiped.square" 40
end
skeleton
  time 0
    0 -4.996094 -5.242188 -9.640625 -1.570781 -1.391896 -1.570809
    1 2.033349 1.000767 1.937660 1.596637 -1.286515 2.942961
    2 6.028141 0.000000 0.000000 -0.788567 -0.760273 -1.365912
    3 11.692554 0.000001 0.000002 0.000000 0.000000 -1.114572
    4 11.481674 0.000001 -0.000032 0.549999 -0.210651 0.017199
    5 3.859709 -0.142404 -1.191975 -0.310739 -0.056470 -0.920510
    6 1.312555 -0.000002 0.000001 0.000000 0.000000 -1.114603
    7 0.729363 -0.000002 -0.000002 0.000000 0.000000 -1.229381
    8 3.942335 0.046767 -0.431443 -0.252990 0.001490 -1.002103
    9 1.539097 0.000000 0.000000 0.000000 0.000000 -1.095902
    10 1.196326 -0.000002 -0.000001 0.000000 0.000000 -1.497486
    11 3.883696 -0.046765 0.431443 -0.162754 -0.102091 -0.528903
    12 1.719570 -0.000004 -0.000001 0.000000 0.000003 -1.341121
    13 1.209171 -0.000002 0.000000 0.000000 0.000004 -1.161276
    14 3.859865 -0.137947 1.332466 0.234519 -0.149233 -0.573772
    15 1.719429 0.000002 -0.000001 0.000000 0.000011 -1.054138
    16 1.099665 0.000000 0.000000 0.000000 0.000007 -0.809028
    17 0.806053 -0.348925 1.321258 -0.736938 -0.453710 -1.067462
    18 1.789780 -0.000002 0.000002 0.000000 0.000000 0.251797
    19 1.207006 0.000000 0.000000 0.000000 0.000000 0.013174
    20 2.033356 1.000772 -1.937610 -1.668474 1.286518 2.942953
    21 6.028144 0.000000 0.000000 0.917304 0.001542 -1.163826
    22 11.692554 0.000001 0.000003 0.000000 0.000000 -0.492918
    23 11.481697 0.000001 0.000002 -1.839856 0.008434 0.043618
    24 3.859678 -0.132570 1.193109 0.452686 -0.203570 -0.743635
    25 1.312557 -0.000002 0.000001 0.000000 0.000000 -0.429894
    26 0.729365 0.000002 -0.000002 0.000000 0.000000 -0.234753
    27 3.942305 0.050327 0.431044 0.136996 -0.098616 -0.615904
    28 1.539099 -0.000002 0.000000 0.000000 0.000000 -0.346350
    29 1.196321 0.000008 0.000000 0.000000 0.000000 -0.575157
    30 3.883661 -0.050323 -0.431042 -0.085905 -0.026404 -0.587695
    31 1.719578 0.000004 0.000000 0.000000 -0.007974 -0.366436
    32 1.209185 0.000002 0.000000 0.000000 -0.004461 -0.216376
    33 3.859838 -0.148937 -1.331282 -0.354419 0.038567 -0.532001
    34 1.719423 0.000002 0.000000 0.000000 -0.006613 -0.362970
    35 1.099667 0.000002 0.000000 0.000000 -0.004211 -0.244312
    36 0.806021 -0.359837 -1.318334 1.203301 0.616014 -0.845207
    37 1.789782 0.000000 -0.000004 0.000000 0.000000 0.181370
    38 1.206999 0.000003 0.000002 0.000000 0.000000 0.294827
    39 -4.996094 -9.109375 -29.421875 1.570792 0.000003 -0.000003
    40 -5.315714 24.253406 19.958792 -0.076272 0.048058 0.196679
    41 -0.004455 -0.545139 -2.136547 0.000000 0.000000 0.000000
    42 -0.180176 -0.942383 -3.925781 -0.569413 -0.176714 0.019636
  time 1
    0 -4.996094 -5.242188 -9.640625 -1.570781 -1.391896 -1.570809
    1 2.033349 1.000767 1.937660 1.596637 -1.286515 2.942961
    2 6.028141 0.000000 0.000000 -0.788029 -0.772931 -1.381361
    3 11.692554 0.000001 0.000002 0.000000 0.000000 -1.094450
    4 11.481674 0.000001 -0.000032 0.506214 -0.193549 -0.006720
    5 3.859709 -0.142404 -1.191975 -0.320914 -0.069475 -0.929556
    6 1.312555 -0.000002 0.000001 0.000000 0.000000 -1.066901
    7 0.729363 -0.000002 -0.000002 0.000000 0.000000 -1.170854
    8 3.942335 0.046767 -0.431443 -0.252774 -0.003867 -0.994097
    9 1.539097 0.000000 0.000000 0.000000 0.000000 -1.052215
    10 1.196326 -0.000002 -0.000001 0.000000 0.000000 -1.461602
    11 3.883696 -0.046765 0.431443 -0.154497 -0.105758 -0.528915
    12 1.719570 -0.000004 -0.000001 0.000000 0.000003 -1.298390
    13 1.209171 -0.000002 0.000000 0.000000 0.000004 -1.122348
    14 3.859865 -0.137947 1.332466 0.234555 -0.154015 -0.563513
    15 1.719429 0.000002 -0.000001 0.000000 0.000011 -1.033475
    16 1.099665 0.000000 0.000000 0.000000 0.000007 -0.801417
    17 0.806053 -0.348925 1.321258 -0.745838 -0.467815 -1.080023
    18 1.789780 -0.000002 0.000002 0.000000 0.000000 0.245242
    19 1.207006 0.000000 0.000000 0.000000 0.000000 -0.003834
    20 2.033356 1.000772 -1.937610 -1.668474 1.286518 2.942953
    21 6.028144 0.000000 0.000000 0.917304 0.001542 -1.163826
    22 11.692554 0.000001 0.000003 0.000000 0.000000 -0.492918
    23 11.481697 0.000001 0.000002 -1.839856 0.008434 0.043618
    24 3.859678 -0.132570 1.193109 0.452686 -0.203570 -0.743635
    25 1.312557 -0.000002 0.000001 0.000000 0.000000 -0.429894
    26 0.729365 0.000002 -0.000002 0.000000 0.000000 -0.234753
    27 3.942305 0.050327 0.431044 0.136996 -0.098616 -0.615904
    28 1.539099 -0.000002 0.000000 0.000000 0.000000 -0.346350
    29 1.196321 0.000008 0.000000 0.000000 0.000000 -0.575157
    30 3.883661 -0.050323 -0.431042 -0.085905 -0.026404 -0.587695
    31 1.719578 0.000004 0.000000 0.000000 -0.007974 -0.366436
    32 1.209185 0.000002 0.000000 0.000000 -0.004461 -0.216376
    33 3.859838 -0.148937 -1.331282 -0.354419 0.038567 -0.532001
    34 1.719423 0.000002 0.000000 0.000000 -0.006613 -0.362970
    35 1.099667 0.000002 0.000000 0.000000 -0.004211 -0.244312
    36 0.806021 -0.359837 -1.318334 1.203301 0.616014 -0.845207
    37 1.789782 0.000000 -0.000004 0.000000 0.000000 0.181370
    38 1.206999 0.000003 0.000002 0.000000 0.000000 0.294827
    39 -4.996094 -9.109375 -29.421875 1.570792 0.000003 -0.000003
    40 -5.303995 24.237780 19.947073 -0.073148 0.048429 0.194031
    41 -0.004455 -0.545139 -2.136547 0.000000 0.000000 0.000000
    42 -0.180176 -0.942383 -3.925781 -0.569413 -0.176714 0.019636
  time 2
    0 -4.996094 -5.242188 -9.640625 -1.570781 -1.391896 -1.570809
    1 2.033349 1.000767 1.937660 1.596637 -1.286515 2.942961
    2 6.028141 0.000000 0.000000 -0.771705 -0.794197 -1.410631
    3 11.692554 0.000001 0.000002 0.000000 0.000000 -1.063784
    4 11.481674 0.000001 -0.000032 0.451883 -0.169496 -0.027330
    5 3.859709 -0.142404 -1.191975 -0.333534 -0.083713 -0.944196
    6 1.312555 -0.000002 0.000001 0.000000 0.000000 -1.012020
    7 0.729363 -0.000002 -0.000002 0.000000 0.000000 -1.101697
    8 3.942335 0.046767 -0.431443 -0.252570 -0.010854 -0.986343
    9 1.539097 0.000000 0.000000 0.000000 0.000000 -1.003600
    10 1.196326 -0.000002 -0.000001 0.000000 0.000000 -1.417136
    11 3.883696 -0.046765 0.431443 -0.145473 -0.109701 -0.529718
    12 1.719570 -0.000004 -0.000001 0.000000 0.000003 -1.252473
    13 1.209171 -0.000002 0.000000 0.000000 0.000004 -1.080179
    14 3.859865 -0.137947 1.332466 0.234555 -0.158953 -0.553038
    15 1.719429 0.000002 -0.000001 0.000000 0.000011 -1.012455
    16 1.099665 0.000000 0.000000 0.000000 0.000007 -0.793464
    17 0.806053 -0.348925 1.321258 -0.751224 -0.487851 -1.098816
    18 1.789780 -0.000002 0.000002 0.000000 0.000000 0.239813
    19 1.207006 0.000000 0.000000 0.000000 0.000000 -0.016971
    20 2.033356 1.000772 -1.937610 -1.668474 1.286518 2.942953
    21 6.028144 0.000000 0.000000 0.917304 0.001542 -1.163826
    22 11.692554 0.000001 0.000003 0.000000 0.000000 -0.492918
    23 11.481697 0.000001 0.000002 -1.839856 0.008434 0.043618
    24 3.859678 -0.132570 1.193109 0.452686 -0.203570 -0.743635
    25 1.312557 -0.000002 0.000001 0.000000 0.000000 -0.429894
    26 0.729365 0.000002 -0.000002 0.000000 0.000000 -0.234753
    27 3.942305 0.050327 0.431044 0.136996 -0.098616 -0.615904
    28 1.539099 -0.000002 0.000000 0.000000 0.000000 -0.346350
    29 1.196321 0.000008 0.000000 0.000000 0.000000 -0.575157
    30 3.883661 -0.050323 -0.431042 -0.085905 -0.026404 -0.587695
    31 1.719578 0.000004 0.000000 0.000000 -0.007974 -0.366436
    32 1.209185 0.000002 0.000000 0.000000 -0.004461 -0.216376
    33 3.859838 -0.148937 -1.331282 -0.354419 0.038567 -0.532001
    34 1.719423 0.000002 0.000000 0.000000 -0.006613 -0.362970
    35 1.099667 0.000002 0.000000 0.000000 -0.004211 -0.244312
    36 0.806021 -0.359837 -1.318334 1.203301 0.616014 -0.845207
    37 1.789782 0.000000 -0.000004 0.000000 0.000000 0.181370
    38 1.206999 0.000003 0.000002 0.000000 0.000000 0.294827
    39 -4.996094 -9.109375 -29.421875 1.570792 0.000003 -0.000003
    40 -5.257118 24.194810 19.935354 -0.065097 0.049532 0.186576
    41 -0.004455 -0.545139 -2.136547 0.000000 0.000000 0.000000
    42 -0.180176 -0.942383 -3.925781 -0.569413 -0.176714 0.019636
  time 3
    0 -4.996094 -5.242188 -9.640625 -1.570781 -1.391896 -1.570809
    1 2.033349 1.000767 1.937660 1.596637 -1.286515 2.942961
    2 6.028141 0.000000 0.000000 -0.733973 -0.825399 -1.459652
    3 11.692554 0.000001 0.000002 0.000000 0.000000 -1.019490
    4 11.481674 0.000001 -0.000032 0.382851 -0.135915 -0.043290
    5 3.859709 -0.142404 -1.191975 -0.348647 -0.099307 -0.964980
    6 1.312555 -0.000002 0.000001 0.000000 0.000000 -0.949344
    7 0.729363 -0.000002 -0.000002 0.000000 0.000000 -1.020918
    8 3.942335 0.046767 -0.431443 -0.252391 -0.019639 -0.978889
    9 1.539097 0.000000 0.000000 0.000000 0.000000 -0.949744
    10 1.196326 -0.000002 -0.000001 0.000000 0.000000 -1.363367
    11 3.883696 -0.046765 0.431443 -0.135669 -0.113919 -0.531395
    12 1.719570 -0.000004 -0.000001 0.000000 0.000003 -1.203332
    13 1.209171 -0.000002 0.000000 0.000000 0.000004 -1.034616
    14 3.859865 -0.137947 1.332466 0.234519 -0.164046 -0.542384
    15 1.719429 0.000002 -0.000001 0.000000 0.000011 -0.991168
    16 1.099665 0.000000 0.000000 0.000000 0.000007 -0.785151
    17 0.806053 -0.348925 1.321258 -0.752235 -0.513875 -1.125026
    18 1.789780 -0.000002 0.000002 0.000000 0.000000 0.235678
    19 1.207006 0.000000 0.000000 0.000000 0.000000 -0.025720
    20 2.033356 1.000772 -1.937610 -1.668474 1.286518 2.942953
    21 6.028144 0.000000 0.000000 0.917304 0.001542 -1.163826
    22 11.692554 0.000001 0.000003 0.000000 0.000000 -0.492918
    23 11.481697 0.000001 0.000002 -1.839856 0.008434 0.043618
    24 3.859678 -0.132570 1.193109 0.452686 -0.203570 -0.743635
    25 1.312557 -0.000002 0.000001 0.000000 0.000000 -0.429894
    26 0.729365 0.000002 -0.000002 0.000000 0.000000 -0.234753
    27 3.942305 0.050327 0.431044 0.136996 -0.098616 -0.615904
    28 1.539099 -0.000002 0.000000 0.000000 0.000000 -0.346350
    29 1.196321 0.000008 0.000000 0.000000 0.000000 -0.575157
    30 3.883661 -0.050323 -0.431042 -0.085905 -0.026404 -0.587695
    31 1.719578 0.000004 0.000000 0.000000 -0.007974 -0.366436
    32 1.209185 0.000002 0.000000 0.000000 -0.004461 -0.216376
    33 3.859838 -0.148937 -1.331282 -0.354419 0.038567 -0.532001
    34 1.719423 0.000002 0.000000 0.000000 -0.006613 -0.362970
    35 1.099667 0.000002 0.000000 0.000000 -0.004211 -0.244312
    36 0.806021 -0.359837 -1.318334 1.203301 0.616014 -0.845207
    37 1.789782 0.000000 -0.000004 0.000000 0.000000 0.181370
    38 1.206999 0.000003 0.000002 0.000000 0.000000 0.294827
    39 -4.996094 -9.109375 -29.421875 1.570792 0.000003 -0.000003
    40 -5.186804 24.128402 19.923635 -0.055755 0.051066 0.174460
    41 -0.004455 -0.545139 -2.136547 0.000000 0.000000 0.000000
    42 -0.180176 -0.942383 -3.925781 -0.569413 -0.176714 0.019636
  time 4
    0 -4.996094 -5.242188 -9.640625 -1.570781 -1.391896 -1.570809
    1 2.033349 1.000767 1.937660 1.596637 -1.286515 2.942961
    2 6.028141 0.000000 0.000000 -0.669311 -0.865855 -1.535813
    3 11.692554 0.000001 0.000002 0.000000 0.000000 -0.958930
    4 11.481674 0.000001 -0.000032 0.292485 -0.089247 -0.051801
    5 3.859709 -0.142404 -1.191975 -0.366240 -0.116292 -0.992509
    6 1.312555 -0.000002 0.000001 0.000000 0.000000 -0.878473
    7 0.729363 -0.000002 -0.000002 0.000000 0.000000 -0.927794
    8 3.942335 0.046767 -0.431443 -0.252259 -0.030353 -0.971842
    9 1.539097 0.000000 0.000000 0.000000 0.000000 -0.890396
    10 1.196326 -0.000002 -0.000001 0.000000 0.000000 -1.299574
    11 3.883696 -0.046765 0.431443 -0.125111 -0.118402 -0.533996
    12 1.719570 -0.000004 -0.000001 0.000000 0.000003 -1.151087
    13 1.209171 -0.000002 0.000000 0.000000 0.000004 -0.985775
    14 3.859865 -0.137947 1.332466 0.234447 -0.169271 -0.531646
    15 1.719429 0.000002 -0.000001 0.000000 0.000011 -0.969791
    16 1.099665 0.000000 0.000000 0.000000 0.000007 -0.776535
    17 0.806053 -0.348925 1.321258 -0.747727 -0.545406 -1.160031
    18 1.789780 -0.000002 0.000002 0.000000 0.000000 0.233029
    19 1.207006 0.000000 0.000000 0.000000 0.000000 -0.029476
    20 2.033356 1.000772 -1.937610 -1.668474 1.286518 2.942953
    21 6.028144 0.000000 0.000000 0.917304 0.001542 -1.163826
    22 11.692554 0.000001 0.000003 0.000000 0.000000 -0.492918
    23 11.481697 0.000001 0.000002 -1.839856 0.008434 0.043618
    24 3.859678 -0.132570 1.193109 0.452686 -0.203570 -0.743635
    25 1.312557 -0.000002 0.000001 0.000000 0.000000 -0.429894
    26 0.729365 0.000002 -0.000002 0.000000 0.000000 -0.234753
    27 3.942305 0.050327 0.431044 0.136996 -0.098616 -0.615904
    28 1.539099 -0.000002 0.000000 0.000000 0.000000 -0.346350
    29 1.196321 0.000008 0.000000 0.000000 0.000000 -0.575157
    30 3.883661 -0.050323 -0.431042 -0.085905 -0.026404 -0.587695
    31 1.719578 0.000004 0.000000 0.000000 -0.007974 -0.366436
    32 1.209185 0.000002 0.000000 0.000000 -0.004461 -0.216376
    33 3.859838 -0.148937 -1.331282 -0.354419 0.038567 -0.532001
    34 1.719423 0.000002 0.000000 0.000000 -0.006613 -0.362970
    35 1.099667 0.000002 0.000000 0.000000 -0.004211 -0.244312
    36 0.806021 -0.359837 -1.318334 1.203301 0.616014 -0.845207
    37 1.789782 0.000000 -0.000004 0.000000 0.000000 0.181370
    38 1.206999 0.000003 0.000002 0.000000 0.000000 0.294827
    39 -4.996094 -9.109375 -29.421875 1.570792 0.000003 -0.000003
    40 -5.089145 24.042462 19.915822 -0.047824 0.052504 0.157993
    41 -0.004455 -0.545139 -2.136547 0.000000 0.000000 0.000000
    42 -0.180176 -0.942383 -3.925781 -0.569413 -0.176714 0.019636
  time 5
    0 -4.996094 -5.242188 -9.640625 -1.570781 -1.391896 -1.570809
    1 2.033349 1.000767 1.937660 1.596637 -1.286515 2.942961
    2 6.028141 0.000000 0.000000 -0.579772 -0.909646 -1.639366
    3 11.692554 0.000001 0.000002 0.000000 0.000000 -0.886156
    4 11.481674 0.000001 -0.000032 0.168482 -0.027095 -0.046915
    5 3.859709 -0.142404 -1.191975 -0.386062 -0.134643 -1.027228
    6 1.312555 -0.000002 0.000001 0.000000 0.000000 -0.799406
    7 0.729363 -0.000002 -0.000002 0.000000 0.000000 -0.822210
    8 3.942335 0.046767 -0.431443 -0.252187 -0.043068 -0.965322
    9 1.539097 0.000000 0.000000 0.000000 0.000000 -0.825713
    10 1.196326 -0.000002 -0.000001 0.000000 0.000000 -1.225489
    11 3.883696 -0.046765 0.431443 -0.113845 -0.123124 -0.537579
    12 1.719570 -0.000004 -0.000001 0.000000 0.000003 -1.096100
    13 1.209171 -0.000002 0.000000 0.000000 0.000004 -0.933998
    14 3.859865 -0.137947 1.332466 0.234328 -0.174568 -0.520908
    15 1.719429 0.000002 -0.000001 0.000000 0.000011 -0.948563
    16 1.099665 0.000000 0.000000 0.000000 0.000007 -0.767720
    17 0.806053 -0.348925 1.321258 -0.736740 -0.581038 -1.204882
    18 1.789780 -0.000002 0.000002 0.000000 0.000000 0.232035
    19 1.207006 0.000000 0.000000 0.000000 0.000000 -0.027682
    20 2.033356 1.000772 -1.937610 -1.668474 1.286518 2.942953
    21 6.028144 0.000000 0.000000 0.917304 0.001542 -1.163826
    22 11.692554 0.000001 0.000003 0.000000 0.000000 -0.492918
    23 11.481697 0.000001 0.000002 -1.839856 0.008434 0.043618
    24 3.859678 -0.132570 1.193109 0.452686 -0.203570 -0.743635
    25 1.312557 -0.000002 0.000001 0.000000 0.000000 -0.429894
    26 0.729365 0.000002 -0.000002 0.000000 0.000000 -0.234753
    27 3.942305 0.050327 0.431044 0.136996 -0.098616 -0.615904
    28 1.539099 -0.000002 0.000000 0.000000 0.000000 -0.346350
    29 1.196321 0.000008 0.000000 0.000000 0.000000 -0.575157
    30 3.883661 -0.050323 -0.431042 -0.085905 -0.026404 -0.587695
    31 1.719578 0.000004 0.000000 0.000000 -0.007974 -0.366436
    32 1.209185 0.000002 0.000000 0.000000 -0.004461 -0.216376
    33 3.859838 -0.148937 -1.331282 -0.354419 0.038567 -0.532001
    34 1.719423 0.000002 0.000000 0.000000 -0.006613 -0.362970
    35 1.099667 0.000002 0.000000 0.000000 -0.004211 -0.244312
    36 0.806021 -0.359837 -1.318334 1.203301 0.616014 -0.845207
    37 1.789782 0.000000 -0.000004 0.000000 0.000000 0.181370
    38 1.206999 0.000003 0.000002 0.000000 0.000000 0.294827
    39 -4.996094 -9.109375 -29.421875 1.570792 0.000003 -0.000003
    40 -4.968047 23.940896 19.911916 -0.043138 0.053067 0.137763
    41 -0.004455 -0.545139 -2.136547 0.000000 0.000000 0.000000
    42 -0.180176 -0.942383 -3.925781 -0.569413 -0.176714 0.019636
  time 6
    0 -4.996094 -5.242188 -9.640625 -1.570781 -1.391896 -1.570809
    1 2.033349 1.000767 1.937660 1.596637 -1.286515 2.942961
    2 6.028141 0.000000 0.000000 -0.484758 -0.947074 -1.751688
    3 11.692554 0.000001 0.000002 0.000000 0.000000 -0.817367
    4 11.481674 0.000001 -0.000032 -0.010331 0.042835 -0.012434
    5 3.859709 -0.142404 -1.191975 -0.407563 -0.154132 -1.069057
    6 1.312555 -0.000002 0.000001 0.000000 0.000000 -0.712946
    7 0.729363 -0.000002 -0.000002 0.000000 0.000000 -0.705081
    8 3.942335 0.046767 -0.431443 -0.252187 -0.057714 -0.959474
    9 1.539097 0.000000 0.000000 0.000000 0.000000 -0.756478
    10 1.196326 -0.000002 -0.000001 0.000000 0.000000 -1.141684
    11 3.883696 -0.046765 0.431443 -0.102088 -0.128001 -0.542110
    12 1.719570 -0.000004 -0.000001 0.000000 0.000003 -1.039380
    13 1.209171 -0.000002 0.000000 0.000000 0.000004 -0.880162
    14 3.859865 -0.137947 1.332466 0.234184 -0.179842 -0.510409
    15 1.719429 0.000002 -0.000001 0.000000 0.000011 -0.927930
    16 1.099665 0.000000 0.000000 0.000000 0.000007 -0.758864
    17 0.806053 -0.348925 1.321258 -0.719255 -0.617722 -1.259425
    18 1.789780 -0.000002 0.000002 0.000000 0.000000 0.232850
    19 1.207006 0.000000 0.000000 0.000000 0.000000 -0.019965
    20 2.033356 1.000772 -1.937610 -1.668474 1.286518 2.942953
    21 6.028144 0.000000 0.000000 0.917304 0.001542 -1.163826
    22 11.692554 0.000001 0.000003 0.000000 0.000000 -0.492918
    23 11.481697 0.000001 0.000002 -1.839856 0.008434 0.043618
    24 3.859678 -0.132570 1.193109 0.452686 -0.203570 -0.743635
    25 1.312557 -0.000002 0.000001 0.000000 0.000000 -0.429894
    26 0.729365 0.000002 -0.000002 0.000000 0.000000 -0.234753
    27 3.942305 0.050327 0.431044 0.136996 -0.098616 -0.615904
    28 1.539099 -0.000002 0.000000 0.000000 0.000000 -0.346350
    29 1.196321 0.000008 0.000000 0.000000 0.000000 -0.575157
    30 3.883661 -0.050323 -0.431042 -0.085905 -0.026404 -0.587695
    31 1.719578 0.000004 0.000000 0.000000 -0.007974 -0.366436
    32 1.209185 0.000002 0.000000 0.000000 -0.004461 -0.216376
    33 3.859838 -0.148937 -1.331282 -0.354419 0.038567 -0.532001
    34 1.719423 0.000002 0.000000 0.000000 -0.006613 -0.362970
    35 1.099667 0.000002 0.000000 0.000000 -0.004211 -0.244312
    36 0.806021 -0.359837 -1.318334 1.203301 0.616014 -0.845207
    37 1.789782 0.000000 -0.000004 0.000000 0.000000 0.181370
    38 1.206999 0.000003 0.000002 0.000000 0.000000 0.294827
    39 -4.996094 -9.109375 -29.421875 1.570792 0.000003 -0.000003
    40 -4.827418 23.823705 19.911916 -0.042567 0.051881 0.114717
    41 -0.004455 -0.545139 -2.136547 0.000000 0.000000 0.000000
    42 -0.180176 -0.942383 -3.925781 -0.569413 -0.176714 0.019636
  time 7
    0 -4.996094 -5.242188 -9.640625 -1.570781 -1.391896 -1.570809
    1 2.033349 1.000767 1.937660 1.596637 -1.286515 2.942961
    2 6.028141 0.000000 0.000000 -0.409783 -0.973478 -1.844927
    3 11.692554 0.000001 0.000002 0.000000 0.000000 -0.770694
    4 11.481674 0.000001 -0.000032 -0.215831 0.102374 0.064645
    5 3.859709 -0.142404 -1.191975 -0.429710 -0.174226 -1.117057
    6 1.312555 -0.000002 0.000001 0.000000 0.000000 -0.621371
    7 0.729363 -0.000002 -0.000002 0.000000 0.000000 -0.579531
    8 3.942335 0.046767 -0.431443 -0.252271 -0.073905 -0.954488
    9 1.539097 0.000000 0.000000 0.000000 0.000000 -0.684545
    10 1.196326 -0.000002 -0.000001 0.000000 0.000000 -1.050322
    11 3.883696 -0.046765 0.431443 -0.090176 -0.132879 -0.547431
    12 1.719570 -0.000004 -0.000001 0.000000 0.000003 -0.982579
    13 1.209171 -0.000002 0.000000 0.000000 0.000004 -0.825868
    14 3.859865 -0.137947 1.332466 0.234004 -0.184935 -0.500438
    15 1.719429 0.000002 -0.000001 0.000000 0.000011 -0.908456
    16 1.099665 0.000000 0.000000 0.000000 0.000007 -0.750228
    17 0.806053 -0.348925 1.321258 -0.698124 -0.650443 -1.319934
    18 1.789780 -0.000002 0.000002 0.000000 0.000000 0.235474
    19 1.207006 0.000000 0.000000 0.000000 0.000000 -0.006428
    20 2.033356 1.000772 -1.937610 -1.668474 1.286518 2.942953
    21 6.028144 0.000000 0.000000 0.917304 0.001542 -1.163826
    22 11.692554 0.000001 0.000003 0.000000 0.000000 -0.492918
    23 11.481697 0.000001 0.000002 -1.839856 0.008434 0.043618
    24 3.859678 -0.132570 1.193109 0.452686 -0.203570 -0.743635
    25 1.312557 -0.000002 0.000001 0.000000 0.000000 -0.429894
    26 0.729365 0.000002 -0.000002 0.000000 0.000000 -0.234753
    27 3.942305 0.050327 0.431044 0.136996 -0.098616 -0.615904
    28 1.539099 -0.000002 0.000000 0.000000 0.000000 -0.346350
    29 1.196321 0.000008 0.000000 0.000000 0.000000 -0.575157
    30 3.883661 -0.050323 -0.431042 -0.085905 -0.026404 -0.587695
    31 1.719578 0.000004 0.000000 0.000000 -0.007974 -0.366436
    32 1.209185 0.000002 0.000000 0.000000 -0.004461 -0.216376
    33 3.859838 -0.148937 -1.331282 -0.354419 0.038567 -0.532001
    34 1.719423 0.000002 0.000000 0.000000 -0.006613 -0.362970
    35 1.099667 0.000002 0.000000 0.000000 -0.004211 -0.244312
    36 0.806021 -0.359837 -1.318334 1.203301 0.616014 -0.845207
    37 1.789782 0.000000 -0.000004 0.000000 0.000000 0.181370
    38 1.206999 0.000003 0.000002 0.000000 0.000000 0.294827
    39 -4.996094 -9.109375 -29.421875 1.570792 0.000003 -0.000003
    40 -4.675069 23.694795 19.923635 -0.045676 0.048118 0.090196
    41 -0.004455 -0.545139 -2.136547 0.000000 0.000000 0.000000
    42 -0.180176 -0.942383 -3.925781 -0.569413 -0.176714 0.019636
  time 8
    0 -4.996094 -5.242188 -9.640625 -1.570781 -1.391896 -1.570809
    1 2.033349 1.000767 1.937660 1.596637 -1.286515 2.942961
    2 6.028141 0.000000 0.000000 -0.389500 -0.995969 -1.892987
    3 11.692554 0.000001 0.000002 0.000000 0.000000 -0.776287
    4 11.481674 0.000001 -0.000032 -0.330806 0.143745 0.127183
    5 3.859709 -0.142404 -1.191975 -0.451079 -0.193921 -1.168821
    6 1.312555 -0.000002 0.000001 0.000000 0.000000 -0.529179
    7 0.729363 -0.000002 -0.000002 0.000000 0.000000 -0.451695
    8 3.942335 0.046767 -0.431443 -0.252463 -0.090803 -0.950521
    9 1.539097 0.000000 0.000000 0.000000 0.000000 -0.613302
    10 1.196326 -0.000002 -0.000001 0.000000 0.000000 -0.955999
    11 3.883696 -0.046765 0.431443 -0.078658 -0.137541 -0.553243
    12 1.719570 -0.000004 -0.000001 0.000000 0.000003 -0.928237
    13 1.209171 -0.000002 0.000000 0.000000 0.000004 -0.773595
    14 3.859865 -0.137947 1.332466 0.233812 -0.189621 -0.491402
    15 1.719429 0.000002 -0.000001 0.000000 0.000011 -0.890915
    16 1.099665 0.000000 0.000000 0.000000 0.000007 -0.742176
    17 0.806053 -0.348925 1.321258 -0.681452 -0.672694 -1.376733
    18 1.789780 -0.000002 0.000002 0.000000 0.000000 0.239693
    19 1.207006 0.000000 0.000000 0.000000 0.000000 0.011935
    20 2.033356 1.000772 -1.937610 -1.668474 1.286518 2.942953
    21 6.028144 0.000000 0.000000 0.917304 0.001542 -1.163826
    22 11.692554 0.000001 0.000003 0.000000 0.000000 -0.492918
    23 11.481697 0.000001 0.000002 -1.839856 0.008434 0.043618
    24 3.859678 -0.132570 1.193109 0.452686 -0.203570 -0.743635
    25 1.312557 -0.000002 0.000001 0.000000 0.000000 -0.429894
    26 0.729365 0.000002 -0.000002 0.000000 0.000000 -0.234753
    27 3.942305 0.050327 0.431044 0.136996 -0.098616 -0.615904
    28 1.539099 -0.000002 0.000000 0.000000 0.000000 -0.346350
    29 1.196321 0.000008 0.000000 0.000000 0.000000 -0.575157
    30 3.883661 -0.050323 -0.431042 -0.085905 -0.026404 -0.587695
    31 1.719578 0.000004 0.000000 0.000000 -0.007974 -0.366436
    32 1.209185 0.000002 0.000000 0.000000 -0.004461 -0.216376
    33 3.859838 -0.148937 -1.331282 -0.354419 0.038567 -0.532001
    34 1.719423 0.000002 0.000000 0.000000 -0.006613 -0.362970
    35 1.099667 0.000002 0.000000 0.000000 -0.004211 -0.244312
    36 0.806021 -0.359837 -1.318334 1.203301 0.616014 -0.845207
    37 1.789782 0.000000 -0.000004 0.000000 0.000000 0.181370
    38 1.206999 0.000003 0.000002 0.000000 0.000000 0.294827
    39 -4.996094 -9.109375 -29.421875 1.570792 0.000003 -0.000003
    40 -4.514908 23.561978 19.943167 -0.050528 0.041370 0.065915
    41 -0.004455 -0.545139 -2.136547 0.000000 0.000000 0.000000
    42 -0.180176 -0.942383 -3.925781 -0.569413 -0.176714 0.019636
  time 9
    0 -4.996094 -5.242188 -9.640625 -1.570781 -1.391896 -1.570809
    1 2.033349 1.000767 1.937660 1.596637 -1.286515 2.942961
    2 6.028141 0.000000 0.000000 -0.409197 -1.013152 -1.900378
    3 11.692554 0.000001 0.000002 0.000000 0.000000 -0.810167
    4 11.481674 0.000001 -0.000032 -0.384737 0.170639 0.163477
    5 3.859709 -0.142404 -1.191975 -0.469919 -0.211837 -1.220036
    6 1.312555 -0.000002 0.000001 0.000000 0.000000 -0.442934
    7 0.729363 -0.000002 -0.000002 0.000000 0.000000 -0.331060
    8 3.942335 0.046767 -0.431443 -0.252726 -0.107102 -0.947657
    9 1.539097 0.000000 0.000000 0.000000 0.000000 -0.547677
    10 1.196326 -0.000002 -0.000001 0.000000 0.000000 -0.865928
    11 3.883696 -0.046765 0.431443 -0.068244 -0.141724 -0.559032
    12 1.719570 -0.000004 -0.000001 0.000000 0.000003 -0.879620
    13 1.209171 -0.000002 0.000000 0.000000 0.000004 -0.726546
    14 3.859865 -0.137947 1.332466 0.233644 -0.193684 -0.483732
    15 1.719429 0.000002 -0.000001 0.000000 0.000011 -0.876108
    16 1.099665 0.000000 0.000000 0.000000 0.000007 -0.735147
    17 0.806053 -0.348925 1.321258 -0.681651 -0.678926 -1.415275
    18 1.789780 -0.000002 0.000002 0.000000 0.000000 0.244882
    19 1.207006 0.000000 0.000000 0.000000 0.000000 0.032943
    20 2.033356 1.000772 -1.937610 -1.668474 1.286518 2.942953
    21 6.028144 0.000000 0.000000 0.917304 0.001542 -1.163826
    22 11.692554 0.000001 0.000003 0.000000 0.000000 -0.492918
    23 11.481697 0.000001 0.000002 -1.839856 0.008434 0.043618
    24 3.859678 -0.132570 1.193109 0.452686 -0.203570 -0.743635
    25 1.312557 -0.000002 0.000001 0.000000 0.000000 -0.429894
    26 0.729365 0.000002 -0.000002 0.000000 0.000000 -0.234753
    27 3.942305 0.050327 0.431044 0.136996 -0.098616 -0.615904
    28 1.539099 -0.000002 0.000000 0.000000 0.000000 -0.346350
    29 1.196321 0.000008 0.000000 0.000000 0.000000 -0.575157
    30 3.883661 -0.050323 -0.431042 -0.085905 -0.026404 -0.587695
    31 1.719578 0.000004 0.000000 0.000000 -0.007974 -0.366436
    32 1.209185 0.000002 0.000000 0.000000 -0.004461 -0.216376
    33 3.859838 -0.148937 -1.331282 -0.354419 0.038567 -0.532001
    34 1.719423 0.000002 0.000000 0.000000 -0.006613 -0.362970
    35 1.099667 0.000002 0.000000 0.000000 -0.004211 -0.244312
    36 0.806021 -0.359837 -1.318334 1.203301 0.616014 -0.845207
    37 1.789782 0.000000 -0.000004 0.000000 0.000000 0.181370
    38 1.206999 0.000003 0.000002 0.000000 0.000000 0.294827
    39 -4.996094 -9.109375 -29.421875 1.570792 0.000003 -0.000003
    40 -4.362560 23.433068 19.974418 -0.053697 0.031939 0.043696
    41 -0.004455 -0.545139 -2.136547 0.000000 0.000000 0.000000
    42 -0.180176 -0.942383 -3.925781 -0.569413 -0.176714 0.019636
  time 10
    0 -4.996094 -5.242188 -9.640625 -1.570781 -1.391896 -1.570809
    1 2.033349 1.000767 1.937660 1.596637 -1.286515 2.942961
    2 6.028141 0.000000 0.000000 -0.426743 -1.023292 -1.899543
    3 11.692554 0.000001 0.000002 0.000000 0.000000 -0.833632
    4 11.481674 0.000001 -0.000032 -0.412462 0.187621 0.184914
    5 3.859709 -0.142404 -1.191975 -0.484851 -0.226511 -1.265369
    6 1.312555 -0.000002 0.000001 0.000000 0.000000 -0.370161
    7 0.729363 -0.000002 -0.000002 0.000000 0.000000 -0.228486
    8 3.942335 0.046767 -0.431443 -0.253014 -0.121208 -0.945847
    9 1.539097 0.000000 0.000000 0.000000 0.000000 -0.492973
    10 1.196326 -0.000002 -0.000001 0.000000 0.000000 -0.788578
    11 3.883696 -0.046765 0.431443 -0.059687 -0.145127 -0.564185
    12 1.719570 -0.000004 -0.000001 0.000000 0.000003 -0.839952
    13 1.209171 -0.000002 0.000000 0.000000 0.000004 -0.687923
    14 3.859865 -0.137947 1.332466 0.233489 -0.196896 -0.477763
    15 1.719429 0.000002 -0.000001 0.000000 0.000011 -0.864692
    16 1.099665 0.000000 0.000000 0.000000 0.000007 -0.729504
    17 0.806053 -0.348925 1.321258 -0.731237 -0.652438 -1.403728
    18 1.789780 -0.000002 0.000002 0.000000 0.000000 0.250179
    19 1.207006 0.000000 0.000000 0.000000 0.000000 0.053423
    20 2.033356 1.000772 -1.937610 -1.668474 1.286518 2.942953
    21 6.028144 0.000000 0.000000 0.917304 0.001542 -1.163826
    22 11.692554 0.000001 0.000003 0.000000 0.000000 -0.492918
    23 11.481697 0.000001 0.000002 -1.839856 0.008434 0.043618
    24 3.859678 -0.132570 1.193109 0.452686 -0.203570 -0.743635
    25 1.312557 -0.000002 0.000001 0.000000 0.000000 -0.429894
    26 0.729365 0.000002 -0.000002 0.000000 0.000000 -0.234753
    27 3.942305 0.050327 0.431044 0.136996 -0.098616 -0.615904
    28 1.539099 -0.000002 0.000000 0.000000 0.000000 -0.346350
    29 1.196321 0.000008 0.000000 0.000000 0.000000 -0.575157
    30 3.883661 -0.050323 -0.431042 -0.085905 -0.026404 -0.587695
    31 1.719578 0.000004 0.000000 0.000000 -0.007974 -0.366436
    32 1.209185 0.000002 0.000000 0.000000 -0.004461 -0.216376
    33 3.859838 -0.148937 -1.331282 -0.354419 0.038567 -0.532001
    34 1.719423 0.000002 0.000000 0.000000 -0.006613 -0.362970
    35 1.099667 0.000002 0.000000 0.000000 -0.004211 -0.244312
    36 0.806021 -0.359837 -1.318334 1.203301 0.616014 -0.845207
    37 1.789782 0.000000 -0.000004 0.000000 0.000000 0.181370
    38 1.206999 0.000003 0.000002 0.000000 0.000000 0.294827
    39 -4.996094 -9.109375 -29.421875 1.570792 0.000003 -0.000003
    40 -4.225837 23.311971 20.017388 -0.050903 0.021021 0.025168
    41 -0.004455 -0.545139 -2.136547 0.000000 0.000000 0.000000
    42 -0.180176 -0.942383 -3.925781 -0.569413 -0.176714 0.019636
  time 11
    0 -4.996094 -5.242188 -9.640625 -1.570781 -1.391896 -1.570809
    1 2.033349 1.000767 1.937660 1.596637 -1.286515 2.942961
    2 6.028141 0.000000 0.000000 -0.437789 -1.028940 -1.897998
    3 11.692554 0.000001 0.000002 0.000000 0.000000 -0.847197
    4 11.481674 0.000001 -0.000032 -0.427084 0.197784 0.197288
    5 3.859709 -0.142404 -1.191975 -0.495170 -0.236988 -1.299931
    6 1.312555 -0.000002 0.000001 0.000000 0.000000 -0.316727
    7 0.729363 -0.000002 -0.000002 0.000000 0.000000 -0.152699
    8 3.942335 0.046767 -0.431443 -0.253265 -0.131766 -0.944889
    9 1.539097 0.000000 0.000000 0.000000 0.000000 -0.453272
    10 1.196326 -0.000002 -0.000001 0.000000 0.000000 -0.730974
    11 3.883696 -0.046765 0.431443 -0.053479 -0.147572 -0.568164
    12 1.719570 -0.000004 -0.000001 0.000000 0.000003 -0.811451
    13 1.209171 -0.000002 0.000000 0.000000 0.000004 -0.660051
    14 3.859865 -0.137947 1.332466 0.233381 -0.199137 -0.473665
    15 1.719429 0.000002 -0.000001 0.000000 0.000011 -0.856902
    16 1.099665 0.000000 0.000000 0.000000 0.000007 -0.725508
    17 0.806053 -0.348925 1.321258 -0.814981 -0.599558 -1.355818
    18 1.789780 -0.000002 0.000002 0.000000 0.000000 0.254614
    19 1.207006 0.000000 0.000000 0.000000 0.000000 0.070108
    20 2.033356 1.000772 -1.937610 -1.668474 1.286518 2.942953
    21 6.028144 0.000000 0.000000 0.917304 0.001542 -1.163826
    22 11.692554 0.000001 0.000003 0.000000 0.000000 -0.492918
    23 11.481697 0.000001 0.000002 -1.839856 0.008434 0.043618
    24 3.859678 -0.132570 1.193109 0.452686 -0.203570 -0.743635
    25 1.312557 -0.000002 0.000001 0.000000 0.000000 -0.429894
    26 0.729365 0.000002 -0.000002 0.000000 0.000000 -0.234753
    27 3.942305 0.050327 0.431044 0.136996 -0.098616 -0.615904
    28 1.539099 -0.000002 0.000000 0.000000 0.000000 -0.346350
    29 1.196321 0.000008 0.000000 0.000000 0.000000 -0.575157
    30 3.883661 -0.050323 -0.431042 -0.085905 -0.026404 -0.587695
    31 1.719578 0.000004 0.000000 0.000000 -0.007974 -0.366436
    32 1.209185 0.000002 0.000000 0.000000 -0.004461 -0.216376
    33 3.859838 -0.148937 -1.331282 -0.354419 0.038567 -0.532001
    34 1.719423 0.000002 0.000000 0.000000 -0.006613 -0.362970
    35 1.099667 0.000002 0.000000 0.000000 -0.004211 -0.244312
    36 0.806021 -0.359837 -1.318334 1.203301 0.616014 -0.845207
    37 1.789782 0.000000 -0.000004 0.000000 0.000000 0.181370
    38 1.206999 0.000003 0.000002 0.000000 0.000000 0.294827
    39 -4.996094 -9.109375 -29.421875 1.570792 0.000003 -0.000003
    40 -4.112552 23.214311 20.079890 -0.038572 0.010570 0.011397
    41 -0.004455 -0.545139 -2.136547 0.000000 0.000000 0.000000
    42 -0.180176 -0.942383 -3.925781 -0.569413 -0.176714 0.019636
  time 12
    0 -4.996094 -5.242188 -9.640625 -1.570781 -1.391896 -1.570809
    1 2.033349 1.000767 1.937660 1.596637 -1.286515 2.942961
    2 6.028141 0.000000 0.000000 -0.443605 -1.031730 -1.896871
    3 11.692554 0.000001 0.000002 0.000000 0.000000 -0.854011
    4 11.481674 0.000001 -0.000032 -0.433955 0.203021 0.203553
    5 3.859709 -0.142404 -1.191975 -0.500971 -0.242988 -1.320898
    6 1.312555 -0.000002 0.000001 0.000000 0.000000 -0.285309
    7 0.729363 -0.000002 -0.000002 0.000000 0.000000 -0.107851
    8 3.942335 0.046767 -0.431443 -0.253433 -0.138094 -0.944493
    9 1.539097 0.000000 0.000000 0.000000 0.000000 -0.430110
    10 1.196326 -0.000002 -0.000001 0.000000 0.000000 -0.696723
    11 3.883696 -0.046765 0.431443 -0.049847 -0.149010 -0.570609
    12 1.719570 -0.000004 -0.000001 0.000000 0.000003 -0.794882
    13 1.209171 -0.000002 0.000000 0.000000 0.000004 -0.643771
    14 3.859865 -0.137947 1.332466 0.233321 -0.200407 -0.471387
    15 1.719429 0.000002 -0.000001 0.000000 0.000011 -0.852591
    16 1.099665 0.000000 0.000000 0.000000 0.000007 -0.723199
    17 0.806053 -0.348925 1.321258 -0.888283 -0.546500 -1.310031
    18 1.789780 -0.000002 0.000002 0.000000 0.000000 0.257490
    19 1.207006 0.000000 0.000000 0.000000 0.000000 0.080729
    20 2.033356 1.000772 -1.937610 -1.668474 1.286518 2.942953
    21 6.028144 0.000000 0.000000 0.917304 0.001542 -1.163826
    22 11.692554 0.000001 0.000003 0.000000 0.000000 -0.492918
    23 11.481697 0.000001 0.000002 -1.839856 0.008434 0.043618
    24 3.859678 -0.132570 1.193109 0.452686 -0.203570 -0.743635
    25 1.312557 -0.000002 0.000001 0.000000 0.000000 -0.429894
    26 0.729365 0.000002 -0.000002 0.000000 0.000000 -0.234753
    27 3.942305 0.050327 0.431044 0.136996 -0.098616 -0.615904
    28 1.539099 -0.000002 0.000000 0.000000 0.000000 -0.346350
    29 1.196321 0.000008 0.000000 0.000000 0.000000 -0.575157
    30 3.883661 -0.050323 -0.431042 -0.085905 -0.026404 -0.587695
    31 1.719578 0.000004 0.000000 0.000000 -0.007974 -0.366436
    32 1.209185 0.000002 0.000000 0.000000 -0.004461 -0.216376
    33 3.859838 -0.148937 -1.331282 -0.354419 0.038567 -0.532001
    34 1.719423 0.000002 0.000000 0.000000 -0.006613 -0.362970
    35 1.099667 0.000002 0.000000 0.000000 -0.004211 -0.244312
    36 0.806021 -0.359837 -1.318334 1.203301 0.616014 -0.845207
    37 1.789782 0.000000 -0.000004 0.000000 0.000000 0.181370
    38 1.206999 0.000003 0.000002 0.000000 0.000000 0.294827
    39 -4.996094 -9.109375 -29.421875 1.570792 0.000003 -0.000003
    40 -4.038331 23.155716 20.158017 -0.017018 0.002888 0.002912
    41 -0.004455 -0.545139 -2.136547 0.000000 0.000000 0.000000
    42 -0.180176 -0.942383 -3.925781 -0.569413 -0.176714 0.019636
  time 13
    0 -4.996094 -5.242188 -9.640625 -1.570781 -1.391896 -1.570809
    1 2.033349 1.000767 1.937660 1.596637 -1.286515 2.942961
    2 6.028141 0.000000 0.000000 -0.445365 -1.032513 -1.896495
    3 11.692554 0.000001 0.000002 0.000000 0.000000 -0.856004
    4 11.481674 0.000001 -0.000032 -0.435872 0.204567 0.205366
    5 3.859709 -0.142404 -1.191975 -0.502768 -0.244863 -1.327695
    6 1.312555 -0.000002 0.000001 0.000000 0.000000 -0.275291
    7 0.729363 -0.000002 -0.000002 0.000000 0.000000 -0.093525
    8 3.942335 0.046767 -0.431443 -0.253481 -0.140120 -0.944409
    9 1.539097 0.000000 0.000000 0.000000 0.000000 -0.422797
    10 1.196326 -0.000002 -0.000001 0.000000 0.000000 -0.685711
    11 3.883696 -0.046765 0.431443 -0.048697 -0.149454 -0.571424
    12 1.719570 -0.000004 -0.000001 0.000000 0.000003 -0.789601
    13 1.209171 -0.000002 0.000000 0.000000 0.000004 -0.638586
    14 3.859865 -0.137947 1.332466 0.233309 -0.200803 -0.470680
    15 1.719429 0.000002 -0.000001 0.000000 0.000011 -0.851253
    16 1.099665 0.000000 0.000000 0.000000 0.000007 -0.722476
    17 0.806053 -0.348925 1.321258 -0.919606 -0.521611 -1.289995
    18 1.789780 -0.000002 0.000002 0.000000 0.000000 0.258461
    19 1.207006 0.000000 0.000000 0.000000 0.000000 0.084303
    20 2.033356 1.000772 -1.937610 -1.668474 1.286518 2.942953
    21 6.028144 0.000000 0.000000 0.917304 0.001542 -1.163826
    22 11.692554 0.000001 0.000003 0.000000 0.000000 -0.492918
    23 11.481697 0.000001 0.000002 -1.839856 0.008434 0.043618
    24 3.859678 -0.132570 1.193109 0.452686 -0.203570 -0.743635
    25 1.312557 -0.000002 0.000001 0.000000 0.000000 -0.429894
    26 0.729365 0.000002 -0.000002 0.000000 0.000000 -0.234753
    27 3.942305 0.050327 0.431044 0.136996 -0.098616 -0.615904
    28 1.539099 -0.000002 0.000000 0.000000 0.000000 -0.346350
    29 1.196321 0.000008 0.000000 0.000000 0.000000 -0.575157
    30 3.883661 -0.050323 -0.431042 -0.085905 -0.026404 -0.587695
    31 1.719578 0.000004 0.000000 0.000000 -0.007974 -0.366436
    32 1.209185 0.000002 0.000000 0.000000 -0.004461 -0.216376
    33 3.859838 -0.148937 -1.331282 -0.354419 0.038567 -0.532001
    34 1.719423 0.000002 0.000000 0.000000 -0.006613 -0.362970
    35 1.099667 0.000002 0.000000 0.000000 -0.004211 -0.244312
    36 0.806021 -0.359837 -1.318334 1.203301 0.616014 -0.845207
    37 1.789782 0.000000 -0.000004 0.000000 0.000000 0.181370
    38 1.206999 0.000003 0.000002 0.000000 0.000000 0.294827
    39 -4.996094 -9.109375 -29.421875 1.570792 0.000003 -0.000003
    40 -4.014893 23.155716 20.251770 -0.000001 0.000000 0.000000
    41 -0.004455 -0.545139 -2.136547 0.000000 0.000000 0.000000
    42 -0.180176 -0.942383 -3.925781 -0.569413 -0.176714 0.019636
end
