// Created by Crowbar 0.74
version 1
nodes
  0 "ValveBiped" -1
  1 "ValveBiped.Bip01" 0
  2 "ValveBiped.Bip01_Spine" 1
  3 "ValveBiped.Bip01_Spine1" 2
  4 "ValveBiped.Bip01_Spine2" 3
  5 "ValveBiped.Bip01_Spine4" 4
  6 "ValveBiped.Bip01_L_Clavicle" 5
  7 "ValveBiped.Bip01_L_UpperArm" 6
  8 "ValveBiped.Bip01_L_Forearm" 7
  9 "ValveBiped.Bip01_L_Hand" 8
  10 "ValveBiped.Bip01_L_Finger4" 9
  11 "ValveBiped.Bip01_L_Finger41" 10
  12 "ValveBiped.Bip01_L_Finger42" 11
  13 "ValveBiped.Bip01_L_Finger3" 9
  14 "ValveBiped.Bip01_L_Finger31" 13
  15 "ValveBiped.Bip01_L_Finger32" 14
  16 "ValveBiped.Bip01_L_Finger2" 9
  17 "ValveBiped.Bip01_L_Finger21" 16
  18 "ValveBiped.Bip01_L_Finger22" 17
  19 "ValveBiped.Bip01_L_Finger1" 9
  20 "ValveBiped.Bip01_L_Finger11" 19
  21 "ValveBiped.Bip01_L_Finger12" 20
  22 "ValveBiped.Bip01_L_Finger0" 9
  23 "ValveBiped.Bip01_L_Finger01" 22
  24 "ValveBiped.Bip01_L_Finger02" 23
  25 "ValveBiped.Bip01_R_Clavicle" 5
  26 "ValveBiped.Bip01_R_UpperArm" 25
  27 "ValveBiped.Bip01_R_Forearm" 26
  28 "ValveBiped.Bip01_R_Hand" 27
  29 "ValveBiped.Bip01_R_Finger4" 28
  30 "ValveBiped.Bip01_R_Finger41" 29
  31 "ValveBiped.Bip01_R_Finger42" 30
  32 "ValveBiped.Bip01_R_Finger3" 28
  33 "ValveBiped.Bip01_R_Finger31" 32
  34 "ValveBiped.Bip01_R_Finger32" 33
  35 "ValveBiped.Bip01_R_Finger2" 28
  36 "ValveBiped.Bip01_R_Finger21" 35
  37 "ValveBiped.Bip01_R_Finger22" 36
  38 "ValveBiped.Bip01_R_Finger1" 28
  39 "ValveBiped.Bip01_R_Finger11" 38
  40 "ValveBiped.Bip01_R_Finger12" 39
  41 "ValveBiped.Bip01_R_Finger0" 28
  42 "ValveBiped.Bip01_R_Finger01" 41
  43 "ValveBiped.Bip01_R_Finger02" 42
  44 "ValveBiped.Grenade_body" 28
end
skeleton
  time 0
    0 0.000000 0.000000 -67.998169 1.570796 0.000000 0.000000
    1 -0.000005 38.566917 4.614095 0.000000 0.000000 0.000000
    2 0.000005 3.345127 -2.981901 1.570796 0.086293 1.570796
    3 4.018332 0.000000 0.000000 0.000000 0.000000 -0.029242
    4 3.518566 0.000000 0.000000 0.000000 0.000000 0.100336
    5 8.942640 0.000000 0.000000 0.000000 0.000000 0.194096
    6 2.033348 1.000767 1.937660 1.596637 -1.286515 2.942961
    7 6.028142 0.000003 0.000000 -0.826837 -0.867539 -1.477190
    8 11.692552 -0.000002 0.000000 0.000000 0.000000 -0.570816
    9 11.481671 -0.000001 -0.000032 1.573171 -0.028074 0.044380
    10 3.859704 -0.142405 -1.191971 -0.447900 0.222765 -0.787092
    11 1.312562 -0.000001 -0.000002 0.000000 0.000000 -0.439715
    12 0.729363 -0.000001 0.000002 0.000000 0.000000 -0.244291
    13 3.942326 0.046771 -0.431444 -0.122519 0.115443 -0.529021
    14 1.539093 0.000000 -0.000002 0.000000 0.000000 -0.595808
    15 1.196322 0.000000 0.000000 0.000000 0.000000 -0.932850
    16 3.883688 -0.046771 0.431443 0.085902 0.021830 -0.587867
    17 1.719575 0.000001 0.000001 0.000000 0.005516 -0.366479
    18 1.209183 0.000001 0.000000 0.000000 0.003084 -0.216399
    19 3.859860 -0.137948 1.332467 0.354449 -0.042750 -0.531718
    20 1.719431 0.000001 0.000001 0.000000 0.004074 -0.363009
    21 1.099666 0.000001 -0.000001 0.000000 0.002596 -0.244330
    22 0.806046 -0.348922 1.321259 -1.144348 -0.681112 -0.953254
    23 1.789782 0.000000 -0.000001 0.000000 0.000000 0.228512
    24 1.206998 0.000001 -0.000001 0.000000 0.000000 0.362860
    25 2.033355 1.000771 -1.937610 -1.668474 1.286518 2.942953
    26 6.028142 0.000000 0.000000 2.226146 1.332871 -0.605281
    27 11.692553 0.000001 -0.000001 0.000000 0.000000 -0.650845
    28 11.481698 0.000000 0.000001 -1.344856 -0.542749 0.107777
    29 3.859674 -0.132568 1.193108 0.060093 -0.509755 0.324657
    30 1.312561 -0.000001 0.000002 0.000000 0.000000 -0.527929
    31 0.729364 0.000000 0.000001 0.000000 0.000000 -0.183171
    32 3.942296 0.050328 0.431044 -0.001529 -0.169168 0.387306
    33 1.539096 -0.000001 0.000000 0.000000 0.000000 -0.247837
    34 1.196323 0.000000 -0.000001 0.000000 0.000000 -0.751742
    35 3.883657 -0.050328 -0.431042 -0.079894 0.040056 0.175804
    36 1.719577 0.000001 0.000001 -0.002229 -0.007662 -0.298835
    37 1.209182 0.000001 0.000000 0.000000 -0.004461 -0.471630
    38 3.859828 -0.148935 -1.331282 -0.251601 0.248918 0.128189
    39 1.719424 -0.000001 0.000002 -0.002493 -0.006122 -0.190665
    40 1.099665 0.000000 0.000001 0.000000 -0.004211 -0.597741
    41 0.806017 -0.359833 -1.318333 1.082505 0.367469 -1.444286
    42 1.789781 0.000000 0.000000 0.000000 0.000000 0.265286
    43 1.206998 0.000001 0.000001 0.000000 0.000000 0.310703
    44 3.483999 -2.623363 0.559220 0.000000 0.000000 0.000000
  time 1
    0 0.000000 0.000000 -67.998169 1.570796 0.000000 0.000000
    1 -0.000005 38.566917 4.614095 0.000000 0.000000 0.000000
    2 0.000005 3.345127 -2.981901 1.570796 0.086293 1.570796
    3 4.018332 0.000000 0.000000 0.000000 0.000000 -0.029242
    4 3.518566 0.000000 0.000000 0.000000 0.000000 0.100336
    5 8.942640 0.000000 0.000000 0.000000 0.000000 0.194096
    6 2.033348 1.000767 1.937660 1.596637 -1.286515 2.942961
    7 6.028142 0.000003 0.000000 -0.825039 -0.868017 -1.476405
    8 11.692552 -0.000002 0.000000 0.000000 0.000000 -0.570816
    9 11.481671 -0.000001 -0.000032 1.573171 -0.028074 0.044380
    10 3.859704 -0.142405 -1.191971 -0.446294 0.227535 -0.777264
    11 1.312562 -0.000001 -0.000002 0.000000 0.000000 -0.439715
    12 0.729363 -0.000001 0.000002 0.000000 0.000000 -0.244291
    13 3.942326 0.046771 -0.431444 -0.119499 0.119194 -0.499800
    14 1.539093 0.000000 -0.000002 0.000000 0.000000 -0.595832
    15 1.196322 0.000000 0.000000 0.000000 0.000000 -0.932900
    16 3.883688 -0.046771 0.431443 0.086789 0.018187 -0.544458
    17 1.719575 0.000001 0.000001 0.000000 0.005516 -0.366479
    18 1.209183 0.000001 0.000000 0.000000 0.003084 -0.216399
    19 3.859860 -0.137948 1.332467 0.353143 -0.052901 -0.503721
    20 1.719431 0.000001 0.000001 0.000000 0.004074 -0.363009
    21 1.099666 0.000001 -0.000001 0.000000 0.002596 -0.244330
    22 0.806046 -0.348922 1.321259 -1.138383 -0.691220 -0.959375
    23 1.789782 0.000000 -0.000001 0.000000 0.000000 0.228512
    24 1.206998 0.000001 -0.000001 0.000000 0.000000 0.362860
    25 2.033355 1.000771 -1.937610 -1.668474 1.286518 2.942953
    26 6.028142 0.000000 0.000000 2.176391 1.316222 -0.657213
    27 11.692553 0.000001 -0.000001 0.000000 0.000000 -0.707994
    28 11.481698 0.000000 0.000001 -1.350867 -0.538603 0.120530
    29 3.859674 -0.132568 1.193108 0.060093 -0.509755 0.324657
    30 1.312561 -0.000001 0.000002 0.000000 0.000000 -0.527929
    31 0.729364 0.000000 0.000001 0.000000 0.000000 -0.183171
    32 3.942296 0.050328 0.431044 -0.001529 -0.169168 0.387268
    33 1.539096 -0.000001 0.000000 0.000000 0.000000 -0.247837
    34 1.196323 0.000000 -0.000001 0.000000 0.000000 -0.751742
    35 3.883657 -0.050328 -0.431042 -0.079894 0.040056 0.175804
    36 1.719577 0.000001 0.000001 -0.002229 -0.007662 -0.298835
    37 1.209182 0.000001 0.000000 0.000000 -0.004461 -0.471630
    38 3.859828 -0.148935 -1.331282 -0.251601 0.248918 0.128189
    39 1.719424 -0.000001 0.000002 -0.002493 -0.006122 -0.190665
    40 1.099665 0.000000 0.000001 0.000000 -0.004211 -0.597741
    41 0.806017 -0.359833 -1.318333 1.082505 0.367469 -1.444286
    42 1.789781 0.000000 0.000000 0.000000 0.000000 0.265286
    43 1.206998 0.000001 0.000001 0.000000 0.000000 0.310703
    44 3.483999 -2.623363 0.559220 0.000000 0.000000 0.000000
  time 2
    0 0.000000 0.000000 -67.998169 1.570796 0.000000 0.000000
    1 -0.000005 38.566917 4.614095 0.000000 0.000000 0.000000
    2 0.000005 3.345127 -2.981901 1.570796 0.086293 1.570796
    3 4.018332 0.000000 0.000000 0.000000 0.000000 -0.029242
    4 3.518566 0.000000 0.000000 0.000000 0.000000 0.100336
    5 8.942640 0.000000 0.000000 0.000000 0.000000 0.194096
    6 2.033348 1.000767 1.937660 1.596637 -1.286515 2.942961
    7 6.028142 0.000003 0.000000 -0.825477 -0.867891 -1.476598
    8 11.692552 -0.000002 0.000000 0.000000 0.000000 -0.570816
    9 11.481671 -0.000001 -0.000032 1.573171 -0.028074 0.044380
    10 3.859704 -0.142405 -1.191971 -0.442915 0.237015 -0.757526
    11 1.312562 -0.000001 -0.000002 0.000000 0.000000 -0.439715
    12 0.729363 -0.000001 0.000002 0.000000 0.000000 -0.244291
    13 3.942326 0.046771 -0.431444 -0.113135 0.126445 -0.441256
    14 1.539093 0.000000 -0.000002 0.000000 0.000000 -0.595832
    15 1.196322 0.000000 0.000000 0.000000 0.000000 -0.932938
    16 3.883688 -0.046771 0.431443 0.088083 0.010744 -0.457641
    17 1.719575 0.000001 0.000001 0.000000 0.005516 -0.366479
    18 1.209183 0.000001 0.000000 0.000000 0.003084 -0.216399
    19 3.859860 -0.137948 1.332467 0.349643 -0.073131 -0.447631
    20 1.719431 0.000001 0.000001 0.000000 0.004074 -0.363009
    21 1.099666 0.000001 -0.000001 0.000000 0.002596 -0.244330
    22 0.806046 -0.348922 1.321259 -1.124377 -0.714077 -0.973789
    23 1.789782 0.000000 -0.000001 0.000000 0.000000 0.228512
    24 1.206998 0.000001 -0.000001 0.000000 0.000000 0.362860
    25 2.033355 1.000771 -1.937610 -1.668474 1.286518 2.942953
    26 6.028142 0.000000 0.000000 2.093354 1.282156 -0.743367
    27 11.692553 0.000001 -0.000001 0.000000 0.000000 -0.826700
    28 11.481698 0.000000 0.000001 -1.358645 -0.522989 0.139166
    29 3.859674 -0.132568 1.193108 0.060093 -0.509755 0.324657
    30 1.312561 -0.000001 0.000002 0.000000 0.000000 -0.527929
    31 0.729364 0.000000 0.000001 0.000000 0.000000 -0.183171
    32 3.942296 0.050328 0.431044 -0.001529 -0.169168 0.387268
    33 1.539096 -0.000001 0.000000 0.000000 0.000000 -0.247837
    34 1.196323 0.000000 -0.000001 0.000000 0.000000 -0.751742
    35 3.883657 -0.050328 -0.431042 -0.079894 0.040056 0.175804
    36 1.719577 0.000001 0.000001 -0.002229 -0.007662 -0.298835
    37 1.209182 0.000001 0.000000 0.000000 -0.004461 -0.471630
    38 3.859828 -0.148935 -1.331282 -0.251601 0.248918 0.128189
    39 1.719424 -0.000001 0.000002 -0.002493 -0.006122 -0.190665
    40 1.099665 0.000000 0.000001 0.000000 -0.004211 -0.597741
    41 0.806017 -0.359833 -1.318333 1.082505 0.367469 -1.444286
    42 1.789781 0.000000 0.000000 0.000000 0.000000 0.265286
    43 1.206998 0.000001 0.000001 0.000000 0.000000 0.310703
    44 3.483999 -2.623363 0.559220 0.000000 0.000000 0.000000
  time 3
    0 0.000000 0.000000 -67.998169 1.570796 0.000000 0.000000
    1 -0.000005 38.566917 4.614095 0.000000 0.000000 0.000000
    2 0.000005 3.345127 -2.981901 1.570796 0.086293 1.570796
    3 4.018332 0.000000 0.000000 0.000000 0.000000 -0.029242
    4 3.518566 0.000000 0.000000 0.000000 0.000000 0.100336
    5 8.942640 0.000000 0.000000 0.000000 0.000000 0.194096
    6 2.033348 1.000767 1.937660 1.596637 -1.286515 2.942961
    7 6.028142 0.000003 0.000000 -0.830641 -0.866541 -1.478870
    8 11.692552 -0.000002 0.000000 0.000000 0.000000 -0.570816
    9 11.481671 -0.000001 -0.000032 1.573171 -0.028074 0.044380
    10 3.859704 -0.142405 -1.191971 -0.438624 0.248268 -0.733844
    11 1.312562 -0.000001 -0.000002 0.000000 0.000000 -0.439715
    12 0.729363 -0.000001 0.000002 0.000000 0.000000 -0.244291
    13 3.942326 0.046771 -0.431444 -0.104962 0.134582 -0.371157
    14 1.539093 0.000000 -0.000002 0.000000 0.000000 -0.595844
    15 1.196322 0.000000 0.000000 0.000000 0.000000 -0.932963
    16 3.883688 -0.046771 0.431443 0.088742 0.001672 -0.353931
    17 1.719575 0.000001 0.000001 0.000000 0.005516 -0.366479
    18 1.209183 0.000001 0.000000 0.000000 0.003084 -0.216399
    19 3.859860 -0.137948 1.332467 0.343951 -0.097124 -0.380417
    20 1.719431 0.000001 0.000001 0.000000 0.004074 -0.363009
    21 1.099666 0.000001 -0.000001 0.000000 0.002596 -0.244330
    22 0.806046 -0.348922 1.321259 -1.104355 -0.744706 -0.994376
    23 1.789782 0.000000 -0.000001 0.000000 0.000000 0.228512
    24 1.206998 0.000001 -0.000001 0.000000 0.000000 0.362860
    25 2.033355 1.000771 -1.937610 -1.668474 1.286518 2.942953
    26 6.028142 0.000000 0.000000 2.018451 1.242558 -0.820155
    27 11.692553 0.000001 -0.000001 0.000000 0.000000 -0.974531
    28 11.481698 0.000000 0.000001 -1.362282 -0.495513 0.152741
    29 3.859674 -0.132568 1.193108 0.060093 -0.509755 0.324657
    30 1.312561 -0.000001 0.000002 0.000000 0.000000 -0.527929
    31 0.729364 0.000000 0.000001 0.000000 0.000000 -0.183171
    32 3.942296 0.050328 0.431044 -0.001529 -0.169168 0.387268
    33 1.539096 -0.000001 0.000000 0.000000 0.000000 -0.247837
    34 1.196323 0.000000 -0.000001 0.000000 0.000000 -0.751742
    35 3.883657 -0.050328 -0.431042 -0.079894 0.040056 0.175804
    36 1.719577 0.000001 0.000001 -0.002229 -0.007662 -0.298835
    37 1.209182 0.000001 0.000000 0.000000 -0.004461 -0.471630
    38 3.859828 -0.148935 -1.331282 -0.251601 0.248918 0.128189
    39 1.719424 -0.000001 0.000002 -0.002493 -0.006122 -0.190665
    40 1.099665 0.000000 0.000001 0.000000 -0.004211 -0.597741
    41 0.806017 -0.359833 -1.318333 1.082505 0.367469 -1.444286
    42 1.789781 0.000000 0.000000 0.000000 0.000000 0.265286
    43 1.206998 0.000001 0.000001 0.000000 0.000000 0.310703
    44 3.483999 -2.623363 0.559220 0.000000 0.000000 0.000000
  time 4
    0 0.000000 0.000000 -67.998169 1.570796 0.000000 0.000000
    1 -0.000005 38.566917 4.614095 0.000000 0.000000 0.000000
    2 0.000005 3.345127 -2.981901 1.570796 0.086293 1.570796
    3 4.018332 0.000000 0.000000 0.000000 0.000000 -0.029242
    4 3.518566 0.000000 0.000000 0.000000 0.000000 0.100336
    5 8.942640 0.000000 0.000000 0.000000 0.000000 0.194096
    6 2.033348 1.000767 1.937660 1.596637 -1.286515 2.942961
    7 6.028142 0.000003 0.000000 -0.845049 -0.862787 -1.485300
    8 11.692552 -0.000002 0.000000 0.000000 0.000000 -0.570816
    9 11.481671 -0.000001 -0.000032 1.573171 -0.028074 0.044380
    10 3.859704 -0.142405 -1.191971 -0.433591 0.260433 -0.707838
    11 1.312562 -0.000001 -0.000002 0.000000 0.000000 -0.439715
    12 0.729363 -0.000001 0.000002 0.000000 0.000000 -0.244291
    13 3.942326 0.046771 -0.431444 -0.095386 0.142792 -0.294446
    14 1.539093 0.000000 -0.000002 0.000000 0.000000 -0.595844
    15 1.196322 0.000000 0.000000 0.000000 0.000000 -0.932975
    16 3.883688 -0.046771 0.431443 0.088347 -0.008335 -0.240661
    17 1.719575 0.000001 0.000001 0.000000 0.005516 -0.366479
    18 1.209183 0.000001 0.000000 0.000000 0.003084 -0.216399
    19 3.859860 -0.137948 1.332467 0.335825 -0.122951 -0.306706
    20 1.719431 0.000001 0.000001 0.000000 0.004074 -0.363009
    21 1.099666 0.000001 -0.000001 0.000000 0.002596 -0.244330
    22 0.806046 -0.348922 1.321259 -1.077263 -0.782598 -1.022228
    23 1.789782 0.000000 -0.000001 0.000000 0.000000 0.228512
    24 1.206998 0.000001 -0.000001 0.000000 0.000000 0.362860
    25 2.033355 1.000771 -1.937610 -1.668474 1.286518 2.942953
    26 6.028142 0.000000 0.000000 1.962215 1.208821 -0.875390
    27 11.692553 0.000001 -0.000001 0.000000 0.000000 -1.120119
    28 11.481698 0.000000 0.000001 -1.358797 -0.451848 0.154680
    29 3.859674 -0.132568 1.193108 0.060093 -0.509755 0.324657
    30 1.312561 -0.000001 0.000002 0.000000 0.000000 -0.527929
    31 0.729364 0.000000 0.000001 0.000000 0.000000 -0.183171
    32 3.942296 0.050328 0.431044 -0.001529 -0.169168 0.387268
    33 1.539096 -0.000001 0.000000 0.000000 0.000000 -0.247837
    34 1.196323 0.000000 -0.000001 0.000000 0.000000 -0.751742
    35 3.883657 -0.050328 -0.431042 -0.079894 0.040056 0.175804
    36 1.719577 0.000001 0.000001 -0.002229 -0.007662 -0.298835
    37 1.209182 0.000001 0.000000 0.000000 -0.004461 -0.471630
    38 3.859828 -0.148935 -1.331282 -0.251601 0.248918 0.128189
    39 1.719424 -0.000001 0.000002 -0.002493 -0.006122 -0.190665
    40 1.099665 0.000000 0.000001 0.000000 -0.004211 -0.597741
    41 0.806017 -0.359833 -1.318333 1.082505 0.367469 -1.444286
    42 1.789781 0.000000 0.000000 0.000000 0.000000 0.265286
    43 1.206998 0.000001 0.000001 0.000000 0.000000 0.310703
    44 3.483999 -2.623363 0.559220 0.000000 0.000000 0.000000
  time 5
    0 0.000000 0.000000 -67.998169 1.570796 0.000000 0.000000
    1 -0.000005 38.566917 4.614095 0.000000 0.000000 0.000000
    2 0.000005 3.345127 -2.981901 1.570796 0.086293 1.570796
    3 4.018332 0.000000 0.000000 0.000000 0.000000 -0.029242
    4 3.518566 0.000000 0.000000 0.000000 0.000000 0.100336
    5 8.942640 0.000000 0.000000 0.000000 0.000000 0.194096
    6 2.033348 1.000767 1.937660 1.596637 -1.286515 2.942961
    7 6.028142 0.000003 0.000000 -0.876655 -0.854758 -1.499609
    8 11.692552 -0.000002 0.000000 0.000000 0.000000 -0.570816
    9 11.481671 -0.000001 -0.000032 1.573171 -0.028074 0.044380
    10 3.859704 -0.142405 -1.191971 -0.428473 0.271914 -0.682898
    11 1.312562 -0.000001 -0.000002 0.000000 0.000000 -0.439715
    12 0.729363 -0.000001 0.000002 0.000000 0.000000 -0.244291
    13 3.942326 0.046771 -0.431444 -0.085666 0.149923 -0.221114
    14 1.539093 0.000000 -0.000002 0.000000 0.000000 -0.595844
    15 1.196322 0.000000 0.000000 0.000000 0.000000 -0.932988
    16 3.883688 -0.046771 0.431443 0.086885 -0.017863 -0.132627
    17 1.719575 0.000001 0.000001 0.000000 0.005516 -0.366479
    18 1.209183 0.000001 0.000000 0.000000 0.003084 -0.216399
    19 3.859860 -0.137948 1.332467 0.326261 -0.147100 -0.236015
    20 1.719431 0.000001 0.000001 0.000000 0.004074 -0.363009
    21 1.099666 0.000001 -0.000001 0.000000 0.002596 -0.244330
    22 0.806046 -0.348922 1.321259 -1.041744 -0.826915 -1.058723
    23 1.789782 0.000000 -0.000001 0.000000 0.000000 0.228512
    24 1.206998 0.000001 -0.000001 0.000000 0.000000 0.362860
    25 2.033355 1.000771 -1.937610 -1.668474 1.286518 2.942953
    26 6.028142 0.000000 0.000000 1.918604 1.184614 -0.913453
    27 11.692553 0.000001 -0.000001 0.000000 0.000000 -1.248940
    28 11.481698 0.000000 0.000001 -1.344856 -0.382705 0.133151
    29 3.859674 -0.132568 1.193108 0.060093 -0.509755 0.324657
    30 1.312561 -0.000001 0.000002 0.000000 0.000000 -0.527929
    31 0.729364 0.000000 0.000001 0.000000 0.000000 -0.183171
    32 3.942296 0.050328 0.431044 -0.001529 -0.169168 0.387306
    33 1.539096 -0.000001 0.000000 0.000000 0.000000 -0.247837
    34 1.196323 0.000000 -0.000001 0.000000 0.000000 -0.751742
    35 3.883657 -0.050328 -0.431042 -0.079894 0.040056 0.175804
    36 1.719577 0.000001 0.000001 -0.002229 -0.007662 -0.298835
    37 1.209182 0.000001 0.000000 0.000000 -0.004461 -0.471630
    38 3.859828 -0.148935 -1.331282 -0.251601 0.248918 0.128189
    39 1.719424 -0.000001 0.000002 -0.002493 -0.006122 -0.190665
    40 1.099665 0.000000 0.000001 0.000000 -0.004211 -0.597741
    41 0.806017 -0.359833 -1.318333 1.082505 0.367469 -1.444286
    42 1.789781 0.000000 0.000000 0.000000 0.000000 0.265286
    43 1.206998 0.000001 0.000001 0.000000 0.000000 0.310703
    44 3.483999 -2.623363 0.559220 0.000000 0.000000 0.000000
  time 6
    0 0.000000 0.000000 -67.998169 1.570796 0.000000 0.000000
    1 -0.000005 38.566917 4.614095 0.000000 0.000000 0.000000
    2 0.000005 3.345127 -2.981901 1.570796 0.086293 1.570796
    3 4.018332 0.000000 0.000000 0.000000 0.000000 -0.029242
    4 3.518566 0.000000 0.000000 0.000000 0.000000 0.100336
    5 8.942640 0.000000 0.000000 0.000000 0.000000 0.194096
    6 2.033348 1.000767 1.937660 1.596637 -1.286515 2.942961
    7 6.028142 0.000003 0.000000 -0.912987 -0.845857 -1.516420
    8 11.692552 -0.000002 0.000000 0.000000 0.000000 -0.570816
    9 11.481671 -0.000001 -0.000032 1.573171 -0.028074 0.044380
    10 3.859704 -0.142405 -1.191971 -0.423536 0.282257 -0.660031
    11 1.312562 -0.000001 -0.000002 0.000000 0.000000 -0.439715
    12 0.729363 -0.000001 0.000002 0.000000 0.000000 -0.244291
    13 3.942326 0.046771 -0.431444 -0.076342 0.155795 -0.154102
    14 1.539093 0.000000 -0.000002 0.000000 0.000000 -0.595844
    15 1.196322 0.000000 0.000000 0.000000 0.000000 -0.932988
    16 3.883688 -0.046771 0.431443 0.084644 -0.026444 -0.034110
    17 1.719575 0.000001 0.000001 0.000000 0.005516 -0.366479
    18 1.209183 0.000001 0.000000 0.000000 0.003084 -0.216399
    19 3.859860 -0.137948 1.332467 0.315978 -0.168588 -0.171170
    20 1.719431 0.000001 0.000001 0.000000 0.004074 -0.363009
    21 1.099666 0.000001 -0.000001 0.000000 0.002596 -0.244330
    22 0.806046 -0.348922 1.321259 -0.999091 -0.873264 -1.102496
    23 1.789782 0.000000 -0.000001 0.000000 0.000000 0.228512
    24 1.206998 0.000001 -0.000001 0.000000 0.000000 0.362860
    25 2.033355 1.000771 -1.937610 -1.668474 1.286518 2.942953
    26 6.028142 0.000000 0.000000 1.879077 1.170045 -0.943712
    27 11.692553 0.000001 -0.000001 0.000000 0.000000 -1.352493
    28 11.481698 0.000000 0.000001 -1.329400 -0.300640 0.099725
    29 3.859674 -0.132568 1.193108 0.060093 -0.509755 0.324657
    30 1.312561 -0.000001 0.000002 0.000000 0.000000 -0.527929
    31 0.729364 0.000000 0.000001 0.000000 0.000000 -0.183171
    32 3.942296 0.050328 0.431044 -0.001529 -0.169168 0.387268
    33 1.539096 -0.000001 0.000000 0.000000 0.000000 -0.247837
    34 1.196323 0.000000 -0.000001 0.000000 0.000000 -0.751742
    35 3.883657 -0.050328 -0.431042 -0.079894 0.040056 0.175804
    36 1.719577 0.000001 0.000001 -0.002229 -0.007662 -0.298835
    37 1.209182 0.000001 0.000000 0.000000 -0.004461 -0.471630
    38 3.859828 -0.148935 -1.331282 -0.251601 0.248918 0.128189
    39 1.719424 -0.000001 0.000002 -0.002493 -0.006122 -0.190665
    40 1.099665 0.000000 0.000001 0.000000 -0.004211 -0.597741
    41 0.806017 -0.359833 -1.318333 1.082505 0.367469 -1.444286
    42 1.789781 0.000000 0.000000 0.000000 0.000000 0.265286
    43 1.206998 0.000001 0.000001 0.000000 0.000000 0.310703
    44 3.483999 -2.623363 0.559220 0.000000 0.000000 0.000000
  time 7
    0 0.000000 0.000000 -67.998169 1.570796 0.000000 0.000000
    1 -0.000005 38.566917 4.614095 0.000000 0.000000 0.000000
    2 0.000005 3.345127 -2.981901 1.570796 0.086293 1.570796
    3 4.018332 0.000000 0.000000 0.000000 0.000000 -0.029242
    4 3.518566 0.000000 0.000000 0.000000 0.000000 0.100336
    5 8.942640 0.000000 0.000000 0.000000 0.000000 0.194096
    6 2.033348 1.000767 1.937660 1.596637 -1.286515 2.942961
    7 6.028142 0.000003 0.000000 -0.947913 -0.837659 -1.532954
    8 11.692552 -0.000002 0.000000 0.000000 0.000000 -0.570816
    9 11.481671 -0.000001 -0.000032 1.573171 -0.028074 0.044380
    10 3.859704 -0.142405 -1.191971 -0.418993 0.291233 -0.639921
    11 1.312562 -0.000001 -0.000002 0.000000 0.000000 -0.439715
    12 0.729363 -0.000001 0.000002 0.000000 0.000000 -0.244291
    13 3.942326 0.046771 -0.431444 -0.067869 0.160409 -0.095390
    14 1.539093 0.000000 -0.000002 0.000000 0.000000 -0.595844
    15 1.196322 0.000000 0.000000 0.000000 0.000000 -0.932988
    16 3.883688 -0.046771 0.431443 0.081959 -0.033790 0.052135
    17 1.719575 0.000001 0.000001 0.000000 0.005516 -0.366479
    18 1.209183 0.000001 0.000000 0.000000 0.003084 -0.216399
    19 3.859860 -0.137948 1.332467 0.305792 -0.186913 -0.114069
    20 1.719431 0.000001 0.000001 0.000000 0.004074 -0.363009
    21 1.099666 0.000001 -0.000001 0.000000 0.002596 -0.244330
    22 0.806046 -0.348922 1.321259 -0.951169 -0.917950 -1.151610
    23 1.789782 0.000000 -0.000001 0.000000 0.000000 0.228512
    24 1.206998 0.000001 -0.000001 0.000000 0.000000 0.362860
    25 2.033355 1.000771 -1.937610 -1.668474 1.286518 2.942953
    26 6.028142 0.000000 0.000000 1.836545 1.162323 -0.974271
    27 11.692553 0.000001 -0.000001 0.000000 0.000000 -1.419561
    28 11.481698 0.000000 0.000001 -1.317327 -0.212887 0.061006
    29 3.859674 -0.132568 1.193108 0.060093 -0.509755 0.324657
    30 1.312561 -0.000001 0.000002 0.000000 0.000000 -0.527929
    31 0.729364 0.000000 0.000001 0.000000 0.000000 -0.183171
    32 3.942296 0.050328 0.431044 -0.001529 -0.169168 0.387268
    33 1.539096 -0.000001 0.000000 0.000000 0.000000 -0.247837
    34 1.196323 0.000000 -0.000001 0.000000 0.000000 -0.751742
    35 3.883657 -0.050328 -0.431042 -0.079894 0.040056 0.175804
    36 1.719577 0.000001 0.000001 -0.002229 -0.007662 -0.298835
    37 1.209182 0.000001 0.000000 0.000000 -0.004461 -0.471630
    38 3.859828 -0.148935 -1.331282 -0.251601 0.248918 0.128189
    39 1.719424 -0.000001 0.000002 -0.002493 -0.006122 -0.190665
    40 1.099665 0.000000 0.000001 0.000000 -0.004211 -0.597741
    41 0.806017 -0.359833 -1.318333 1.082505 0.367469 -1.444286
    42 1.789781 0.000000 0.000000 0.000000 0.000000 0.265286
    43 1.206998 0.000001 0.000001 0.000000 0.000000 0.310703
    44 3.483999 -2.623363 0.559220 0.000000 0.000000 0.000000
  time 8
    0 0.000000 0.000000 -67.998169 1.570796 0.000000 0.000000
    1 -0.000005 38.566917 4.614095 0.000000 0.000000 0.000000
    2 0.000005 3.345127 -2.981901 1.570796 0.086293 1.570796
    3 4.018332 0.000000 0.000000 0.000000 0.000000 -0.029242
    4 3.518566 0.000000 0.000000 0.000000 0.000000 0.100336
    5 8.942640 0.000000 0.000000 0.000000 0.000000 0.194096
    6 2.033348 1.000767 1.937660 1.596637 -1.286515 2.942961
    7 6.028142 0.000003 0.000000 -0.978390 -0.830797 -1.547638
    8 11.692552 -0.000002 0.000000 0.000000 0.000000 -0.570816
    9 11.481671 -0.000001 -0.000032 1.573171 -0.028074 0.044380
    10 3.859704 -0.142405 -1.191971 -0.416021 0.296854 -0.627169
    11 1.312562 -0.000001 -0.000002 0.000000 0.000000 -0.439715
    12 0.729363 -0.000001 0.000002 0.000000 0.000000 -0.244291
    13 3.942326 0.046771 -0.431444 -0.062368 0.163058 -0.058266
    14 1.539093 0.000000 -0.000002 0.000000 0.000000 -0.595844
    15 1.196322 0.000000 0.000000 0.000000 0.000000 -0.932988
    16 3.883688 -0.046771 0.431443 0.079934 -0.038333 0.106629
    17 1.719575 0.000001 0.000001 0.000000 0.005516 -0.366479
    18 1.209183 0.000001 0.000000 0.000000 0.003084 -0.216399
    19 3.859860 -0.137948 1.332467 0.298781 -0.198226 -0.077802
    20 1.719431 0.000001 0.000001 0.000000 0.004074 -0.363009
    21 1.099666 0.000001 -0.000001 0.000000 0.002596 -0.244330
    22 0.806046 -0.348922 1.321259 -0.899569 -0.958915 -1.204429
    23 1.789782 0.000000 -0.000001 0.000000 0.000000 0.228512
    24 1.206998 0.000001 -0.000001 0.000000 0.000000 0.362860
    25 2.033355 1.000771 -1.937610 -1.668474 1.286518 2.942953
    26 6.028142 0.000000 0.000000 1.782335 1.156682 -1.014557
    27 11.692553 0.000001 -0.000001 0.000000 0.000000 -1.458683
    28 11.481698 0.000000 0.000001 -1.309599 -0.127585 0.013183
    29 3.859674 -0.132568 1.193108 0.060093 -0.509755 0.324657
    30 1.312561 -0.000001 0.000002 0.000000 0.000000 -0.527929
    31 0.729364 0.000000 0.000001 0.000000 0.000000 -0.183171
    32 3.942296 0.050328 0.431044 -0.001529 -0.169168 0.387268
    33 1.539096 -0.000001 0.000000 0.000000 0.000000 -0.247837
    34 1.196323 0.000000 -0.000001 0.000000 0.000000 -0.751742
    35 3.883657 -0.050328 -0.431042 -0.079894 0.040056 0.175804
    36 1.719577 0.000001 0.000001 -0.002229 -0.007662 -0.298835
    37 1.209182 0.000001 0.000000 0.000000 -0.004461 -0.471630
    38 3.859828 -0.148935 -1.331282 -0.251601 0.248918 0.128189
    39 1.719424 -0.000001 0.000002 -0.002493 -0.006122 -0.190665
    40 1.099665 0.000000 0.000001 0.000000 -0.004211 -0.597741
    41 0.806017 -0.359833 -1.318333 1.082505 0.367469 -1.444286
    42 1.789781 0.000000 0.000000 0.000000 0.000000 0.265286
    43 1.206998 0.000001 0.000001 0.000000 0.000000 0.310703
    44 3.483999 -2.623363 0.559220 0.000000 0.000000 0.000000
  time 9
    0 0.000000 0.000000 -67.998169 1.570796 0.000000 0.000000
    1 -0.000005 38.566917 4.614095 0.000000 0.000000 0.000000
    2 0.000005 3.345127 -2.981901 1.570796 0.086293 1.570796
    3 4.018332 0.000000 0.000000 0.000000 0.000000 -0.029242
    4 3.518566 0.000000 0.000000 0.000000 0.000000 0.100336
    5 8.942640 0.000000 0.000000 0.000000 0.000000 0.194096
    6 2.033348 1.000767 1.937660 1.596637 -1.286515 2.942961
    7 6.028142 0.000003 0.000000 -0.999783 -0.826157 -1.558068
    8 11.692552 -0.000002 0.000000 0.000000 0.000000 -0.570816
    9 11.481671 -0.000001 -0.000032 1.573171 -0.028074 0.044380
    10 3.859704 -0.142405 -1.191971 -0.416393 0.296171 -0.628727
    11 1.312562 -0.000001 -0.000002 0.000000 0.000000 -0.439715
    12 0.729363 -0.000001 0.000002 0.000000 0.000000 -0.244291
    13 3.942326 0.046771 -0.431444 -0.063051 0.162746 -0.062771
    14 1.539093 0.000000 -0.000002 0.000000 0.000000 -0.595844
    15 1.196322 0.000000 0.000000 0.000000 0.000000 -0.932988
    16 3.883688 -0.046771 0.431443 0.080197 -0.037781 0.099995
    17 1.719575 0.000001 0.000001 0.000000 0.005516 -0.366479
    18 1.209183 0.000001 0.000000 0.000000 0.003084 -0.216399
    19 3.859860 -0.137948 1.332467 0.299667 -0.196860 -0.082235
    20 1.719431 0.000001 0.000001 0.000000 0.004074 -0.363009
    21 1.099666 0.000001 -0.000001 0.000000 0.002596 -0.244330
    22 0.806046 -0.348922 1.321259 -0.846837 -0.994534 -1.258352
    23 1.789782 0.000000 -0.000001 0.000000 0.000000 0.228512
    24 1.206998 0.000001 -0.000001 0.000000 0.000000 0.362860
    25 2.033355 1.000771 -1.937610 -1.668474 1.286518 2.942953
    26 6.028142 0.000000 0.000000 1.710706 1.150219 -1.071112
    27 11.692553 0.000001 -0.000001 0.000000 0.000000 -1.464666
    28 11.481698 0.000000 0.000001 -1.305862 -0.059016 -0.049726
    29 3.859674 -0.132568 1.193108 0.060093 -0.509755 0.324657
    30 1.312561 -0.000001 0.000002 0.000000 0.000000 -0.527929
    31 0.729364 0.000000 0.000001 0.000000 0.000000 -0.183171
    32 3.942296 0.050328 0.431044 -0.001529 -0.169168 0.387268
    33 1.539096 -0.000001 0.000000 0.000000 0.000000 -0.247837
    34 1.196323 0.000000 -0.000001 0.000000 0.000000 -0.751742
    35 3.883657 -0.050328 -0.431042 -0.079894 0.040056 0.175804
    36 1.719577 0.000001 0.000001 -0.002229 -0.007662 -0.298835
    37 1.209182 0.000001 0.000000 0.000000 -0.004461 -0.471630
    38 3.859828 -0.148935 -1.331282 -0.251601 0.248918 0.128189
    39 1.719424 -0.000001 0.000002 -0.002493 -0.006122 -0.190665
    40 1.099665 0.000000 0.000001 0.000000 -0.004211 -0.597741
    41 0.806017 -0.359833 -1.318333 1.082505 0.367469 -1.444286
    42 1.789781 0.000000 0.000000 0.000000 0.000000 0.265286
    43 1.206998 0.000001 0.000001 0.000000 0.000000 0.310703
    44 3.483999 -2.623363 0.559220 0.000000 0.000000 0.000000
  time 10
    0 0.000000 0.000000 -67.998169 1.570796 0.000000 0.000000
    1 -0.000005 38.566917 4.614095 0.000000 0.000000 0.000000
    2 0.000005 3.345127 -2.981901 1.570796 0.086293 1.570796
    3 4.018332 0.000000 0.000000 0.000000 0.000000 -0.029242
    4 3.518566 0.000000 0.000000 0.000000 0.000000 0.100336
    5 8.942640 0.000000 0.000000 0.000000 0.000000 0.194096
    6 2.033348 1.000767 1.937660 1.596637 -1.286515 2.942961
    7 6.028142 0.000003 0.000000 -1.016842 -0.822557 -1.566480
    8 11.692552 -0.000002 0.000000 0.000000 0.000000 -0.570816
    9 11.481671 -0.000001 -0.000032 1.573171 -0.028074 0.044380
    10 3.859704 -0.142405 -1.191971 -0.418622 0.291952 -0.638279
    11 1.312562 -0.000001 -0.000002 0.000000 0.000000 -0.439715
    12 0.729363 -0.000001 0.000002 0.000000 0.000000 -0.244291
    13 3.942326 0.046771 -0.431444 -0.067162 0.160757 -0.090593
    14 1.539093 0.000000 -0.000002 0.000000 0.000000 -0.595844
    15 1.196322 0.000000 0.000000 0.000000 0.000000 -0.932988
    16 3.883688 -0.046771 0.431443 0.081707 -0.034378 0.059172
    17 1.719575 0.000001 0.000001 0.000000 0.005516 -0.366479
    18 1.209183 0.000001 0.000000 0.000000 0.003084 -0.216399
    19 3.859860 -0.137948 1.332467 0.304917 -0.188387 -0.109386
    20 1.719431 0.000001 0.000001 0.000000 0.004074 -0.363009
    21 1.099666 0.000001 -0.000001 0.000000 0.002596 -0.244330
    22 0.806046 -0.348922 1.321259 -0.800146 -1.021722 -1.306037
    23 1.789782 0.000000 -0.000001 0.000000 0.000000 0.228512
    24 1.206998 0.000001 -0.000001 0.000000 0.000000 0.362860
    25 2.033355 1.000771 -1.937610 -1.668474 1.286518 2.942953
    26 6.028142 0.000000 0.000000 1.627905 1.142333 -1.138114
    27 11.692553 0.000001 -0.000001 0.000000 0.000000 -1.448568
    28 11.481698 0.000000 0.000001 -1.308084 0.002532 -0.117664
    29 3.859674 -0.132568 1.193108 0.060093 -0.509755 0.324657
    30 1.312561 -0.000001 0.000002 0.000000 0.000000 -0.527929
    31 0.729364 0.000000 0.000001 0.000000 0.000000 -0.183171
    32 3.942296 0.050328 0.431044 -0.001529 -0.169168 0.387268
    33 1.539096 -0.000001 0.000000 0.000000 0.000000 -0.247837
    34 1.196323 0.000000 -0.000001 0.000000 0.000000 -0.751742
    35 3.883657 -0.050328 -0.431042 -0.079894 0.040056 0.175804
    36 1.719577 0.000001 0.000001 -0.002229 -0.007662 -0.298835
    37 1.209182 0.000001 0.000000 0.000000 -0.004461 -0.471630
    38 3.859828 -0.148935 -1.331282 -0.251601 0.248918 0.128189
    39 1.719424 -0.000001 0.000002 -0.002493 -0.006122 -0.190665
    40 1.099665 0.000000 0.000001 0.000000 -0.004211 -0.597741
    41 0.806017 -0.359833 -1.318333 1.082505 0.367469 -1.444286
    42 1.789781 0.000000 0.000000 0.000000 0.000000 0.265286
    43 1.206998 0.000001 0.000001 0.000000 0.000000 0.310703
    44 3.483999 -2.623363 0.559220 0.000000 0.000000 0.000000
  time 11
    0 0.000000 0.000000 -67.998169 1.570796 0.000000 0.000000
    1 -0.000005 38.566917 4.614095 0.000000 0.000000 0.000000
    2 0.000005 3.345127 -2.981901 1.570796 0.086293 1.570796
    3 4.018332 0.000000 0.000000 0.000000 0.000000 -0.029242
    4 3.518566 0.000000 0.000000 0.000000 0.000000 0.100336
    5 8.942640 0.000000 0.000000 0.000000 0.000000 0.194096
    6 2.033348 1.000767 1.937660 1.596637 -1.286515 2.942961
    7 6.028142 0.000003 0.000000 -1.031942 -0.819450 -1.573985
    8 11.692552 -0.000002 0.000000 0.000000 0.000000 -0.570816
    9 11.481671 -0.000001 -0.000032 1.573171 -0.028074 0.044380
    10 3.859704 -0.142405 -1.191971 -0.421750 0.285852 -0.652013
    11 1.312562 -0.000001 -0.000002 0.000000 0.000000 -0.439715
    12 0.729363 -0.000001 0.000002 0.000000 0.000000 -0.244291
    13 3.942326 0.046771 -0.431444 -0.072999 0.157689 -0.130659
    14 1.539093 0.000000 -0.000002 0.000000 0.000000 -0.595844
    15 1.196322 0.000000 0.000000 0.000000 0.000000 -0.932988
    16 3.883688 -0.046771 0.431443 0.083649 -0.029392 0.000312
    17 1.719575 0.000001 0.000001 0.000000 0.005516 -0.366479
    18 1.209183 0.000001 0.000000 0.000000 0.003084 -0.216399
    19 3.859860 -0.137948 1.332467 0.312048 -0.175959 -0.148410
    20 1.719431 0.000001 0.000001 0.000000 0.004074 -0.363009
    21 1.099666 0.000001 -0.000001 0.000000 0.002596 -0.244330
    22 0.806046 -0.348922 1.321259 -0.765087 -1.039830 -1.341804
    23 1.789782 0.000000 -0.000001 0.000000 0.000000 0.228512
    24 1.206998 0.000001 -0.000001 0.000000 0.000000 0.362860
    25 2.033355 1.000771 -1.937610 -1.668474 1.286518 2.942953
    26 6.028142 0.000000 0.000000 1.535889 1.133351 -1.213881
    27 11.692553 0.000001 -0.000001 0.000000 0.000000 -1.417671
    28 11.481698 0.000000 0.000001 -1.317277 0.060540 -0.184287
    29 3.859674 -0.132568 1.193108 0.060093 -0.509755 0.324657
    30 1.312561 -0.000001 0.000002 0.000000 0.000000 -0.527929
    31 0.729364 0.000000 0.000001 0.000000 0.000000 -0.183171
    32 3.942296 0.050328 0.431044 -0.001529 -0.169168 0.387268
    33 1.539096 -0.000001 0.000000 0.000000 0.000000 -0.247837
    34 1.196323 0.000000 -0.000001 0.000000 0.000000 -0.751742
    35 3.883657 -0.050328 -0.431042 -0.079894 0.040056 0.175804
    36 1.719577 0.000001 0.000001 -0.002229 -0.007662 -0.298835
    37 1.209182 0.000001 0.000000 0.000000 -0.004461 -0.471630
    38 3.859828 -0.148935 -1.331282 -0.251601 0.248918 0.128189
    39 1.719424 -0.000001 0.000002 -0.002493 -0.006122 -0.190665
    40 1.099665 0.000000 0.000001 0.000000 -0.004211 -0.597741
    41 0.806017 -0.359833 -1.318333 1.082505 0.367469 -1.444286
    42 1.789781 0.000000 0.000000 0.000000 0.000000 0.265286
    43 1.206998 0.000001 0.000001 0.000000 0.000000 0.310703
    44 3.483999 -2.623363 0.559220 0.000000 0.000000 0.000000
  time 12
    0 0.000000 0.000000 -67.998169 1.570796 0.000000 0.000000
    1 -0.000005 38.566917 4.614095 0.000000 0.000000 0.000000
    2 0.000005 3.345127 -2.981901 1.570796 0.086293 1.570796
    3 4.018332 0.000000 0.000000 0.000000 0.000000 -0.029242
    4 3.518566 0.000000 0.000000 0.000000 0.000000 0.100336
    5 8.942640 0.000000 0.000000 0.000000 0.000000 0.194096
    6 2.033348 1.000767 1.937660 1.596637 -1.286515 2.942961
    7 6.028142 0.000003 0.000000 -1.044299 -0.816961 -1.580161
    8 11.692552 -0.000002 0.000000 0.000000 0.000000 -0.570816
    9 11.481671 -0.000001 -0.000032 1.573171 -0.028074 0.044380
    10 3.859704 -0.142405 -1.191971 -0.425549 0.278134 -0.669187
    11 1.312562 -0.000001 -0.000002 0.000000 0.000000 -0.439715
    12 0.729363 -0.000001 0.000002 0.000000 0.000000 -0.244291
    13 3.942326 0.046771 -0.431444 -0.080118 0.153518 -0.180882
    14 1.539093 0.000000 -0.000002 0.000000 0.000000 -0.595844
    15 1.196322 0.000000 0.000000 0.000000 0.000000 -0.932988
    16 3.883688 -0.046771 0.431443 0.085638 -0.023028 -0.073492
    17 1.719575 0.000001 0.000001 0.000000 0.005516 -0.366479
    18 1.209183 0.000001 0.000000 0.000000 0.003084 -0.216399
    19 3.859860 -0.137948 1.332467 0.320269 -0.160067 -0.197144
    20 1.719431 0.000001 0.000001 0.000000 0.004074 -0.363009
    21 1.099666 0.000001 -0.000001 0.000000 0.002596 -0.244330
    22 0.806046 -0.348922 1.321259 -0.759159 -1.042725 -1.347848
    23 1.789782 0.000000 -0.000001 0.000000 0.000000 0.228512
    24 1.206998 0.000001 -0.000001 0.000000 0.000000 0.362860
    25 2.033355 1.000771 -1.937610 -1.668474 1.286518 2.942953
    26 6.028142 0.000000 0.000000 1.443839 1.125245 -1.288508
    27 11.692553 0.000001 -0.000001 0.000000 0.000000 -1.369929
    28 11.481698 0.000000 0.000001 -1.330814 0.118609 -0.244337
    29 3.859674 -0.132568 1.193108 0.060093 -0.509755 0.324657
    30 1.312561 -0.000001 0.000002 0.000000 0.000000 -0.527929
    31 0.729364 0.000000 0.000001 0.000000 0.000000 -0.183171
    32 3.942296 0.050328 0.431044 -0.001529 -0.169168 0.387268
    33 1.539096 -0.000001 0.000000 0.000000 0.000000 -0.247837
    34 1.196323 0.000000 -0.000001 0.000000 0.000000 -0.751742
    35 3.883657 -0.050328 -0.431042 -0.079894 0.040056 0.175804
    36 1.719577 0.000001 0.000001 -0.002229 -0.007662 -0.298835
    37 1.209182 0.000001 0.000000 0.000000 -0.004461 -0.471630
    38 3.859828 -0.148935 -1.331282 -0.251601 0.248918 0.128189
    39 1.719424 -0.000001 0.000002 -0.002493 -0.006122 -0.190665
    40 1.099665 0.000000 0.000001 0.000000 -0.004211 -0.597741
    41 0.806017 -0.359833 -1.318333 1.082505 0.367469 -1.444286
    42 1.789781 0.000000 0.000000 0.000000 0.000000 0.265286
    43 1.206998 0.000001 0.000001 0.000000 0.000000 0.310703
    44 3.483999 -2.623363 0.559220 0.000000 0.000000 0.000000
  time 13
    0 0.000000 0.000000 -67.998169 1.570796 0.000000 0.000000
    1 -0.000005 38.566917 4.614095 0.000000 0.000000 0.000000
    2 0.000005 3.345127 -2.981901 1.570796 0.086293 1.570796
    3 4.018332 0.000000 0.000000 0.000000 0.000000 -0.029242
    4 3.518566 0.000000 0.000000 0.000000 0.000000 0.100336
    5 8.942640 0.000000 0.000000 0.000000 0.000000 0.194096
    6 2.033348 1.000767 1.937660 1.596637 -1.286515 2.942961
    7 6.028142 0.000003 0.000000 -1.053151 -0.815203 -1.584596
    8 11.692552 -0.000002 0.000000 0.000000 0.000000 -0.570816
    9 11.481671 -0.000001 -0.000032 1.573171 -0.028074 0.044380
    10 3.859704 -0.142405 -1.191971 -0.429564 0.269553 -0.688051
    11 1.312562 -0.000001 -0.000002 0.000000 0.000000 -0.439715
    12 0.729363 -0.000001 0.000002 0.000000 0.000000 -0.244291
    13 3.942326 0.046771 -0.431444 -0.087716 0.148520 -0.236235
    14 1.539093 0.000000 -0.000002 0.000000 0.000000 -0.595844
    15 1.196322 0.000000 0.000000 0.000000 0.000000 -0.932988
    16 3.883688 -0.046771 0.431443 0.087268 -0.015909 -0.154925
    17 1.719575 0.000001 0.000001 0.000000 0.005516 -0.366479
    18 1.209183 0.000001 0.000000 0.000000 0.003084 -0.216399
    19 3.859860 -0.137948 1.332467 0.328383 -0.142162 -0.250644
    20 1.719431 0.000001 0.000001 0.000000 0.004074 -0.363009
    21 1.099666 0.000001 -0.000001 0.000000 0.002596 -0.244330
    22 0.806046 -0.348922 1.321259 -0.805950 -1.018534 -1.300098
    23 1.789782 0.000000 -0.000001 0.000000 0.000000 0.228512
    24 1.206998 0.000001 -0.000001 0.000000 0.000000 0.362860
    25 2.033355 1.000771 -1.937610 -1.668474 1.286518 2.942953
    26 6.028142 0.000000 0.000000 1.355299 1.120425 -1.358212
    27 11.692553 0.000001 -0.000001 0.000000 0.000000 -1.306365
    28 11.481698 0.000000 0.000001 -1.345007 0.186572 -0.289761
    29 3.859674 -0.132568 1.193108 0.060093 -0.509755 0.324657
    30 1.312561 -0.000001 0.000002 0.000000 0.000000 -0.527929
    31 0.729364 0.000000 0.000001 0.000000 0.000000 -0.183171
    32 3.942296 0.050328 0.431044 -0.001529 -0.169168 0.387268
    33 1.539096 -0.000001 0.000000 0.000000 0.000000 -0.247837
    34 1.196323 0.000000 -0.000001 0.000000 0.000000 -0.751742
    35 3.883657 -0.050328 -0.431042 -0.079894 0.040056 0.175804
    36 1.719577 0.000001 0.000001 -0.002229 -0.007662 -0.298835
    37 1.209182 0.000001 0.000000 0.000000 -0.004461 -0.471630
    38 3.859828 -0.148935 -1.331282 -0.251601 0.248918 0.128189
    39 1.719424 -0.000001 0.000002 -0.002493 -0.006122 -0.190665
    40 1.099665 0.000000 0.000001 0.000000 -0.004211 -0.597741
    41 0.806017 -0.359833 -1.318333 1.082505 0.367469 -1.444286
    42 1.789781 0.000000 0.000000 0.000000 0.000000 0.265286
    43 1.206998 0.000001 0.000001 0.000000 0.000000 0.310703
    44 3.483999 -2.623363 0.559220 0.000000 0.000000 0.000000
  time 14
    0 0.000000 0.000000 -67.998169 1.570796 0.000000 0.000000
    1 -0.000005 38.566917 4.614095 0.000000 0.000000 0.000000
    2 0.000005 3.345127 -2.981901 1.570796 0.086293 1.570796
    3 4.018332 0.000000 0.000000 0.000000 0.000000 -0.029242
    4 3.518566 0.000000 0.000000 0.000000 0.000000 0.100336
    5 8.942640 0.000000 0.000000 0.000000 0.000000 0.194096
    6 2.033348 1.000767 1.937660 1.596637 -1.286515 2.942961
    7 6.028142 0.000003 0.000000 -1.059906 -0.813882 -1.588004
    8 11.692552 -0.000002 0.000000 0.000000 0.000000 -0.570816
    9 11.481671 -0.000001 -0.000032 1.573171 -0.028074 0.044380
    10 3.859704 -0.142405 -1.191971 -0.433591 0.260433 -0.707838
    11 1.312562 -0.000001 -0.000002 0.000000 0.000000 -0.439715
    12 0.729363 -0.000001 0.000002 0.000000 0.000000 -0.244291
    13 3.942326 0.046771 -0.431444 -0.095386 0.142804 -0.294425
    14 1.539093 0.000000 -0.000002 0.000000 0.000000 -0.595844
    15 1.196322 0.000000 0.000000 0.000000 0.000000 -0.932988
    16 3.883688 -0.046771 0.431443 0.088347 -0.008335 -0.240661
    17 1.719575 0.000001 0.000001 0.000000 0.005516 -0.366479
    18 1.209183 0.000001 0.000000 0.000000 0.003084 -0.216399
    19 3.859860 -0.137948 1.332467 0.335825 -0.122951 -0.306706
    20 1.719431 0.000001 0.000001 0.000000 0.004074 -0.363009
    21 1.099666 0.000001 -0.000001 0.000000 0.002596 -0.244330
    22 0.806046 -0.348922 1.321259 -0.872190 -0.978115 -1.232437
    23 1.789782 0.000000 -0.000001 0.000000 0.000000 0.228512
    24 1.206998 0.000001 -0.000001 0.000000 0.000000 0.362860
    25 2.033355 1.000771 -1.937610 -1.668474 1.286518 2.942953
    26 6.028142 0.000000 0.000000 1.269966 1.120644 -1.425394
    27 11.692553 0.000001 -0.000001 0.000000 0.000000 -1.228868
    28 11.481698 0.000000 0.000001 -1.361019 0.251964 -0.322924
    29 3.859674 -0.132568 1.193108 0.060093 -0.509755 0.324657
    30 1.312561 -0.000001 0.000002 0.000000 0.000000 -0.527929
    31 0.729364 0.000000 0.000001 0.000000 0.000000 -0.183171
    32 3.942296 0.050328 0.431044 -0.001529 -0.169168 0.387268
    33 1.539096 -0.000001 0.000000 0.000000 0.000000 -0.247837
    34 1.196323 0.000000 -0.000001 0.000000 0.000000 -0.751742
    35 3.883657 -0.050328 -0.431042 -0.079894 0.040056 0.175804
    36 1.719577 0.000001 0.000001 -0.002229 -0.007662 -0.298835
    37 1.209182 0.000001 0.000000 0.000000 -0.004461 -0.471630
    38 3.859828 -0.148935 -1.331282 -0.251601 0.248918 0.128189
    39 1.719424 -0.000001 0.000002 -0.002493 -0.006122 -0.190665
    40 1.099665 0.000000 0.000001 0.000000 -0.004211 -0.597741
    41 0.806017 -0.359833 -1.318333 1.082505 0.367469 -1.444286
    42 1.789781 0.000000 0.000000 0.000000 0.000000 0.265286
    43 1.206998 0.000001 0.000001 0.000000 0.000000 0.310703
    44 3.483999 -2.623363 0.559220 0.000000 0.000000 0.000000
  time 15
    0 0.000000 0.000000 -67.998169 1.570796 0.000000 0.000000
    1 -0.000005 38.566917 4.614095 0.000000 0.000000 0.000000
    2 0.000005 3.345127 -2.981901 1.570796 0.086293 1.570796
    3 4.018332 0.000000 0.000000 0.000000 0.000000 -0.029242
    4 3.518566 0.000000 0.000000 0.000000 0.000000 0.100336
    5 8.942640 0.000000 0.000000 0.000000 0.000000 0.194096
    6 2.033348 1.000767 1.937660 1.596637 -1.286515 2.942961
    7 6.028142 0.000003 0.000000 -1.065254 -0.812855 -1.590700
    8 11.692552 -0.000002 0.000000 0.000000 0.000000 -0.570816
    9 11.481671 -0.000001 -0.000032 1.573171 -0.028074 0.044380
    10 3.859704 -0.142405 -1.191971 -0.437462 0.251169 -0.727684
    11 1.312562 -0.000001 -0.000002 0.000000 0.000000 -0.439715
    12 0.729363 -0.000001 0.000002 0.000000 0.000000 -0.244291
    13 3.942326 0.046771 -0.431444 -0.102744 0.136596 -0.352970
    14 1.539093 0.000000 -0.000002 0.000000 0.000000 -0.595844
    15 1.196322 0.000000 0.000000 0.000000 0.000000 -0.933000
    16 3.883688 -0.046771 0.431443 0.088754 -0.000701 -0.327055
    17 1.719575 0.000001 0.000001 0.000000 0.005516 -0.366479
    18 1.209183 0.000001 0.000000 0.000000 0.003084 -0.216399
    19 3.859860 -0.137948 1.332467 0.342201 -0.103284 -0.362963
    20 1.719431 0.000001 0.000001 0.000000 0.004074 -0.363009
    21 1.099666 0.000001 -0.000001 0.000000 0.002596 -0.244330
    22 0.806046 -0.348922 1.321259 -0.937673 -0.929315 -1.165439
    23 1.789782 0.000000 -0.000001 0.000000 0.000000 0.228512
    24 1.206998 0.000001 -0.000001 0.000000 0.000000 0.362860
    25 2.033355 1.000771 -1.937610 -1.668474 1.286518 2.942953
    26 6.028142 0.000000 0.000000 1.187030 1.126395 -1.492455
    27 11.692553 0.000001 -0.000001 0.000000 0.000000 -1.140507
    28 11.481698 0.000000 0.000001 -1.377536 0.309548 -0.346622
    29 3.859674 -0.132568 1.193108 0.060093 -0.509755 0.324657
    30 1.312561 -0.000001 0.000002 0.000000 0.000000 -0.527929
    31 0.729364 0.000000 0.000001 0.000000 0.000000 -0.183171
    32 3.942296 0.050328 0.431044 -0.001529 -0.169168 0.387268
    33 1.539096 -0.000001 0.000000 0.000000 0.000000 -0.247837
    34 1.196323 0.000000 -0.000001 0.000000 0.000000 -0.751742
    35 3.883657 -0.050328 -0.431042 -0.079894 0.040056 0.175804
    36 1.719577 0.000001 0.000001 -0.002229 -0.007662 -0.298835
    37 1.209182 0.000001 0.000000 0.000000 -0.004461 -0.471630
    38 3.859828 -0.148935 -1.331282 -0.251601 0.248918 0.128189
    39 1.719424 -0.000001 0.000002 -0.002493 -0.006122 -0.190665
    40 1.099665 0.000000 0.000001 0.000000 -0.004211 -0.597741
    41 0.806017 -0.359833 -1.318333 1.082505 0.367469 -1.444286
    42 1.789781 0.000000 0.000000 0.000000 0.000000 0.265286
    43 1.206998 0.000001 0.000001 0.000000 0.000000 0.310703
    44 3.483999 -2.623363 0.559220 0.000000 0.000000 0.000000
  time 16
    0 0.000000 0.000000 -67.998169 1.570796 0.000000 0.000000
    1 -0.000005 38.566917 4.614095 0.000000 0.000000 0.000000
    2 0.000005 3.345127 -2.981901 1.570796 0.086293 1.570796
    3 4.018332 0.000000 0.000000 0.000000 0.000000 -0.029242
    4 3.518566 0.000000 0.000000 0.000000 0.000000 0.100336
    5 8.942640 0.000000 0.000000 0.000000 0.000000 0.194096
    6 2.033348 1.000767 1.937660 1.596637 -1.286515 2.942961
    7 6.028142 0.000003 0.000000 -1.069012 -0.812138 -1.592597
    8 11.692552 -0.000002 0.000000 0.000000 0.000000 -0.570816
    9 11.481671 -0.000001 -0.000032 1.573171 -0.028074 0.044380
    10 3.859704 -0.142405 -1.191971 -0.440889 0.242432 -0.746164
    11 1.312562 -0.000001 -0.000002 0.000000 0.000000 -0.439715
    12 0.729363 -0.000001 0.000002 0.000000 0.000000 -0.244291
    13 3.942326 0.046771 -0.431444 -0.109276 0.130424 -0.407614
    14 1.539093 0.000000 -0.000002 0.000000 0.000000 -0.595844
    15 1.196322 0.000000 0.000000 0.000000 0.000000 -0.932988
    16 3.883688 -0.046771 0.431443 0.088515 0.006406 -0.407810
    17 1.719575 0.000001 0.000001 0.000000 0.005516 -0.366479
    18 1.209183 0.000001 0.000000 0.000000 0.003084 -0.216399
    19 3.859860 -0.137948 1.332467 0.347114 -0.084684 -0.415368
    20 1.719431 0.000001 0.000001 0.000000 0.004074 -0.363009
    21 1.099666 0.000001 -0.000001 0.000000 0.002596 -0.244330
    22 0.806046 -0.348922 1.321259 -0.999091 -0.873264 -1.102496
    23 1.789782 0.000000 -0.000001 0.000000 0.000000 0.228512
    24 1.206998 0.000001 -0.000001 0.000000 0.000000 0.362860
    25 2.033355 1.000771 -1.937610 -1.668474 1.286518 2.942953
    26 6.028142 0.000000 0.000000 1.106018 1.137184 -1.560298
    27 11.692553 0.000001 -0.000001 0.000000 0.000000 -1.045849
    28 11.481698 0.000000 0.000001 -1.391325 0.351760 -0.345143
    29 3.859674 -0.132568 1.193108 0.060093 -0.509755 0.324657
    30 1.312561 -0.000001 0.000002 0.000000 0.000000 -0.527929
    31 0.729364 0.000000 0.000001 0.000000 0.000000 -0.183171
    32 3.942296 0.050328 0.431044 -0.001529 -0.169168 0.387268
    33 1.539096 -0.000001 0.000000 0.000000 0.000000 -0.247837
    34 1.196323 0.000000 -0.000001 0.000000 0.000000 -0.751742
    35 3.883657 -0.050328 -0.431042 -0.079894 0.040056 0.175804
    36 1.719577 0.000001 0.000001 -0.002229 -0.007662 -0.298835
    37 1.209182 0.000001 0.000000 0.000000 -0.004461 -0.471630
    38 3.859828 -0.148935 -1.331282 -0.251601 0.248918 0.128189
    39 1.719424 -0.000001 0.000002 -0.002493 -0.006122 -0.190665
    40 1.099665 0.000000 0.000001 0.000000 -0.004211 -0.597741
    41 0.806017 -0.359833 -1.318333 1.082505 0.367469 -1.444286
    42 1.789781 0.000000 0.000000 0.000000 0.000000 0.265286
    43 1.206998 0.000001 0.000001 0.000000 0.000000 0.310703
    44 3.483999 -2.623363 0.559220 0.000000 0.000000 0.000000
  time 17
    0 0.000000 0.000000 -67.998169 1.570796 0.000000 0.000000
    1 -0.000005 38.566917 4.614095 0.000000 0.000000 0.000000
    2 0.000005 3.345127 -2.981901 1.570796 0.086293 1.570796
    3 4.018332 0.000000 0.000000 0.000000 0.000000 -0.029242
    4 3.518566 0.000000 0.000000 0.000000 0.000000 0.100336
    5 8.942640 0.000000 0.000000 0.000000 0.000000 0.194096
    6 2.033348 1.000767 1.937660 1.596637 -1.286515 2.942961
    7 6.028142 0.000003 0.000000 -1.070856 -0.811772 -1.593540
    8 11.692552 -0.000002 0.000000 0.000000 0.000000 -0.570816
    9 11.481671 -0.000001 -0.000032 1.573171 -0.028074 0.044380
    10 3.859704 -0.142405 -1.191971 -0.443646 0.235049 -0.761648
    11 1.312562 -0.000001 -0.000002 0.000000 0.000000 -0.439715
    12 0.729363 -0.000001 0.000002 0.000000 0.000000 -0.244291
    13 3.942326 0.046771 -0.431444 -0.114501 0.124959 -0.453478
    14 1.539093 0.000000 -0.000002 0.000000 0.000000 -0.595844
    15 1.196322 0.000000 0.000000 0.000000 0.000000 -0.932988
    16 3.883688 -0.046771 0.431443 0.087867 0.012302 -0.475721
    17 1.719575 0.000001 0.000001 0.000000 0.005516 -0.366479
    18 1.209183 0.000001 0.000000 0.000000 0.003084 -0.216399
    19 3.859860 -0.137948 1.332467 0.350470 -0.068924 -0.459323
    20 1.719431 0.000001 0.000001 0.000000 0.004074 -0.363009
    21 1.099666 0.000001 -0.000001 0.000000 0.002596 -0.244330
    22 0.806046 -0.348922 1.321259 -1.053998 -0.812261 -1.046142
    23 1.789782 0.000000 -0.000001 0.000000 0.000000 0.228512
    24 1.206998 0.000001 -0.000001 0.000000 0.000000 0.362860
    25 2.033355 1.000771 -1.937610 -1.668474 1.286518 2.942953
    26 6.028142 0.000000 0.000000 1.027976 1.151369 -1.628140
    27 11.692553 0.000001 -0.000001 0.000000 0.000000 -0.951467
    28 11.481698 0.000000 0.000001 -1.398548 0.362987 -0.290582
    29 3.859674 -0.132568 1.193108 0.060093 -0.509755 0.324657
    30 1.312561 -0.000001 0.000002 0.000000 0.000000 -0.527929
    31 0.729364 0.000000 0.000001 0.000000 0.000000 -0.183171
    32 3.942296 0.050328 0.431044 -0.001529 -0.169168 0.387268
    33 1.539096 -0.000001 0.000000 0.000000 0.000000 -0.247837
    34 1.196323 0.000000 -0.000001 0.000000 0.000000 -0.751742
    35 3.883657 -0.050328 -0.431042 -0.079894 0.040056 0.175804
    36 1.719577 0.000001 0.000001 -0.002229 -0.007662 -0.298835
    37 1.209182 0.000001 0.000000 0.000000 -0.004461 -0.471630
    38 3.859828 -0.148935 -1.331282 -0.251601 0.248918 0.128189
    39 1.719424 -0.000001 0.000002 -0.002493 -0.006122 -0.190665
    40 1.099665 0.000000 0.000001 0.000000 -0.004211 -0.597741
    41 0.806017 -0.359833 -1.318333 1.082505 0.367469 -1.444286
    42 1.789781 0.000000 0.000000 0.000000 0.000000 0.265286
    43 1.206998 0.000001 0.000001 0.000000 0.000000 0.310703
    44 3.483999 -2.623363 0.559220 0.000000 0.000000 0.000000
  time 18
    0 0.000000 0.000000 -67.998169 1.570796 0.000000 0.000000
    1 -0.000005 38.566917 4.614095 0.000000 0.000000 0.000000
    2 0.000005 3.345127 -2.981901 1.570796 0.086293 1.570796
    3 4.018332 0.000000 0.000000 0.000000 0.000000 -0.029242
    4 3.518566 0.000000 0.000000 0.000000 0.000000 0.100336
    5 8.942640 0.000000 0.000000 0.000000 0.000000 0.194096
    6 2.033348 1.000767 1.937660 1.596637 -1.286515 2.942961
    7 6.028142 0.000003 0.000000 -1.070787 -0.811786 -1.593503
    8 11.692552 -0.000002 0.000000 0.000000 0.000000 -0.570816
    9 11.481671 -0.000001 -0.000032 1.573171 -0.028074 0.044380
    10 3.859704 -0.142405 -1.191971 -0.445743 0.229117 -0.773981
    11 1.312562 -0.000001 -0.000002 0.000000 0.000000 -0.439715
    12 0.729363 -0.000001 0.000002 0.000000 0.000000 -0.244291
    13 3.942326 0.046771 -0.431444 -0.118468 0.120429 -0.490081
    14 1.539093 0.000000 -0.000002 0.000000 0.000000 -0.595844
    15 1.196322 0.000000 0.000000 0.000000 0.000000 -0.932988
    16 3.883688 -0.046771 0.431443 0.087052 0.016952 -0.529982
    17 1.719575 0.000001 0.000001 0.000000 0.005516 -0.366479
    18 1.209183 0.000001 0.000000 0.000000 0.003084 -0.216399
    19 3.859860 -0.137948 1.332467 0.352639 -0.056281 -0.494371
    20 1.719431 0.000001 0.000001 0.000000 0.004074 -0.363009
    21 1.099666 0.000001 -0.000001 0.000000 0.002596 -0.244330
    22 0.806046 -0.348922 1.321259 -1.097371 -0.754839 -1.001563
    23 1.789782 0.000000 -0.000001 0.000000 0.000000 0.228512
    24 1.206998 0.000001 -0.000001 0.000000 0.000000 0.362860
    25 2.033355 1.000771 -1.937610 -1.668474 1.286518 2.942953
    26 6.028142 0.000000 0.000000 0.957326 1.166102 -1.691720
    27 11.692553 0.000001 -0.000001 0.000000 0.000000 -0.866925
    28 11.481698 0.000000 0.000001 -1.402387 0.357480 -0.219127
    29 3.859674 -0.132568 1.193108 0.060093 -0.509755 0.324657
    30 1.312561 -0.000001 0.000002 0.000000 0.000000 -0.527929
    31 0.729364 0.000000 0.000001 0.000000 0.000000 -0.183171
    32 3.942296 0.050328 0.431044 -0.001529 -0.169168 0.387268
    33 1.539096 -0.000001 0.000000 0.000000 0.000000 -0.247837
    34 1.196323 0.000000 -0.000001 0.000000 0.000000 -0.751742
    35 3.883657 -0.050328 -0.431042 -0.079894 0.040056 0.175804
    36 1.719577 0.000001 0.000001 -0.002229 -0.007662 -0.298835
    37 1.209182 0.000001 0.000000 0.000000 -0.004461 -0.471630
    38 3.859828 -0.148935 -1.331282 -0.251601 0.248918 0.128189
    39 1.719424 -0.000001 0.000002 -0.002493 -0.006122 -0.190665
    40 1.099665 0.000000 0.000001 0.000000 -0.004211 -0.597741
    41 0.806017 -0.359833 -1.318333 1.082505 0.367469 -1.444286
    42 1.789781 0.000000 0.000000 0.000000 0.000000 0.265286
    43 1.206998 0.000001 0.000001 0.000000 0.000000 0.310703
    44 3.483999 -2.623363 0.559220 0.000000 0.000000 0.000000
  time 19
    0 0.000000 0.000000 -67.998169 1.570796 0.000000 0.000000
    1 -0.000005 38.566917 4.614095 0.000000 0.000000 0.000000
    2 0.000005 3.345127 -2.981901 1.570796 0.086293 1.570796
    3 4.018332 0.000000 0.000000 0.000000 0.000000 -0.029242
    4 3.518566 0.000000 0.000000 0.000000 0.000000 0.100336
    5 8.942640 0.000000 0.000000 0.000000 0.000000 0.194096
    6 2.033348 1.000767 1.937660 1.596637 -1.286515 2.942961
    7 6.028142 0.000003 0.000000 -1.068436 -0.812236 -1.592307
    8 11.692552 -0.000002 0.000000 0.000000 0.000000 -0.570816
    9 11.481671 -0.000001 -0.000032 1.573171 -0.028074 0.044380
    10 3.859704 -0.142405 -1.191971 -0.447253 0.224707 -0.783089
    11 1.312562 -0.000001 -0.000002 0.000000 0.000000 -0.439715
    12 0.729363 -0.000001 0.000002 0.000000 0.000000 -0.244291
    13 3.942326 0.046771 -0.431444 -0.121309 0.116977 -0.517174
    14 1.539093 0.000000 -0.000002 0.000000 0.000000 -0.595844
    15 1.196322 0.000000 0.000000 0.000000 0.000000 -0.933000
    16 3.883688 -0.046771 0.431443 0.086285 0.020356 -0.570190
    17 1.719575 0.000001 0.000001 0.000000 0.005516 -0.366479
    18 1.209183 0.000001 0.000000 0.000000 0.003084 -0.216399
    19 3.859860 -0.137948 1.332467 0.353958 -0.046885 -0.520317
    20 1.719431 0.000001 0.000001 0.000000 0.004074 -0.363009
    21 1.099666 0.000001 -0.000001 0.000000 0.002596 -0.244330
    22 0.806046 -0.348922 1.321259 -1.129497 -0.705874 -0.968512
    23 1.789782 0.000000 -0.000001 0.000000 0.000000 0.228512
    24 1.206998 0.000001 -0.000001 0.000000 0.000000 0.362860
    25 2.033355 1.000771 -1.937610 -1.668474 1.286518 2.942953
    26 6.028142 0.000000 0.000000 0.905175 1.177494 -1.739270
    27 11.692553 0.000001 -0.000001 0.000000 0.000000 -0.806627
    28 11.481698 0.000000 0.000001 -1.405771 0.342955 -0.149677
    29 3.859674 -0.132568 1.193108 0.060093 -0.509755 0.324657
    30 1.312561 -0.000001 0.000002 0.000000 0.000000 -0.527929
    31 0.729364 0.000000 0.000001 0.000000 0.000000 -0.183171
    32 3.942296 0.050328 0.431044 -0.001529 -0.169168 0.387268
    33 1.539096 -0.000001 0.000000 0.000000 0.000000 -0.247837
    34 1.196323 0.000000 -0.000001 0.000000 0.000000 -0.751742
    35 3.883657 -0.050328 -0.431042 -0.079894 0.040056 0.175804
    36 1.719577 0.000001 0.000001 -0.002229 -0.007662 -0.298835
    37 1.209182 0.000001 0.000000 0.000000 -0.004461 -0.471630
    38 3.859828 -0.148935 -1.331282 -0.251601 0.248918 0.128189
    39 1.719424 -0.000001 0.000002 -0.002493 -0.006122 -0.190665
    40 1.099665 0.000000 0.000001 0.000000 -0.004211 -0.597741
    41 0.806017 -0.359833 -1.318333 1.082505 0.367469 -1.444286
    42 1.789781 0.000000 0.000000 0.000000 0.000000 0.265286
    43 1.206998 0.000001 0.000001 0.000000 0.000000 0.310703
    44 3.483999 -2.623363 0.559220 0.000000 0.000000 0.000000
  time 20
    0 0.000000 0.000000 -67.998169 1.570796 0.000000 0.000000
    1 -0.000005 38.566917 4.614095 0.000000 0.000000 0.000000
    2 0.000005 3.345127 -2.981901 1.570796 0.086293 1.570796
    3 4.018332 0.000000 0.000000 0.000000 0.000000 -0.029242
    4 3.518566 0.000000 0.000000 0.000000 0.000000 0.100336
    5 8.942640 0.000000 0.000000 0.000000 0.000000 0.194096
    6 2.033348 1.000767 1.937660 1.596637 -1.286515 2.942961
    7 6.028142 0.000003 0.000000 -1.066015 -0.812700 -1.591086
    8 11.692552 -0.000002 0.000000 0.000000 0.000000 -0.570816
    9 11.481671 -0.000001 -0.000032 1.573171 -0.028074 0.044380
    10 3.859704 -0.142405 -1.191971 -0.447900 0.222765 -0.787092
    11 1.312562 -0.000001 -0.000002 0.000000 0.000000 -0.439715
    12 0.729363 -0.000001 0.000002 0.000000 0.000000 -0.244291
    13 3.942326 0.046771 -0.431444 -0.122519 0.115431 -0.529083
    14 1.539093 0.000000 -0.000002 0.000000 0.000000 -0.595844
    15 1.196322 0.000000 0.000000 0.000000 0.000000 -0.932988
    16 3.883688 -0.046771 0.431443 0.085902 0.021830 -0.587867
    17 1.719575 0.000001 0.000001 0.000000 0.005516 -0.366479
    18 1.209183 0.000001 0.000000 0.000000 0.003084 -0.216399
    19 3.859860 -0.137948 1.332467 0.354449 -0.042750 -0.531718
    20 1.719431 0.000001 0.000001 0.000000 0.004074 -0.363009
    21 1.099666 0.000001 -0.000001 0.000000 0.002596 -0.244330
    22 0.806046 -0.348922 1.321259 -1.144348 -0.681112 -0.953254
    23 1.789782 0.000000 -0.000001 0.000000 0.000000 0.228512
    24 1.206998 0.000001 -0.000001 0.000000 0.000000 0.362860
    25 2.033355 1.000771 -1.937610 -1.668474 1.286518 2.942953
    26 6.028142 0.000000 0.000000 0.883099 1.182423 -1.759382
    27 11.692553 0.000001 -0.000001 0.000000 0.000000 -0.781674
    28 11.481698 0.000000 0.000001 -1.408348 0.330609 -0.110104
    29 3.859674 -0.132568 1.193108 0.060093 -0.509755 0.324657
    30 1.312561 -0.000001 0.000002 0.000000 0.000000 -0.527929
    31 0.729364 0.000000 0.000001 0.000000 0.000000 -0.183171
    32 3.942296 0.050328 0.431044 -0.001529 -0.169168 0.387268
    33 1.539096 -0.000001 0.000000 0.000000 0.000000 -0.247837
    34 1.196323 0.000000 -0.000001 0.000000 0.000000 -0.751742
    35 3.883657 -0.050328 -0.431042 -0.079894 0.040056 0.175804
    36 1.719577 0.000001 0.000001 -0.002229 -0.007662 -0.298835
    37 1.209182 0.000001 0.000000 0.000000 -0.004461 -0.471630
    38 3.859828 -0.148935 -1.331282 -0.251601 0.248918 0.128189
    39 1.719424 -0.000001 0.000002 -0.002493 -0.006122 -0.190665
    40 1.099665 0.000000 0.000001 0.000000 -0.004211 -0.597741
    41 0.806017 -0.359833 -1.318333 1.082505 0.367469 -1.444286
    42 1.789781 0.000000 0.000000 0.000000 0.000000 0.265286
    43 1.206998 0.000001 0.000001 0.000000 0.000000 0.310703
    44 3.483999 -2.623363 0.559220 0.000000 0.000000 0.000000
end
