// Created by Crowbar 0.74
version 1
nodes
  0 "ValveBiped" -1
  1 "ValveBiped.Bip01" 0
  2 "ValveBiped.Bip01_Spine" 1
  3 "ValveBiped.Bip01_Spine1" 2
  4 "ValveBiped.Bip01_Spine2" 3
  5 "ValveBiped.Bip01_Spine4" 4
  6 "ValveBiped.Bip01_L_Clavicle" 5
  7 "ValveBiped.Bip01_L_UpperArm" 6
  8 "ValveBiped.Bip01_L_Forearm" 7
  9 "ValveBiped.Bip01_L_Hand" 8
  10 "ValveBiped.Bip01_L_Finger4" 9
  11 "ValveBiped.Bip01_L_Finger41" 10
  12 "ValveBiped.Bip01_L_Finger42" 11
  13 "ValveBiped.Bip01_L_Finger3" 9
  14 "ValveBiped.Bip01_L_Finger31" 13
  15 "ValveBiped.Bip01_L_Finger32" 14
  16 "ValveBiped.Bip01_L_Finger2" 9
  17 "ValveBiped.Bip01_L_Finger21" 16
  18 "ValveBiped.Bip01_L_Finger22" 17
  19 "ValveBiped.Bip01_L_Finger1" 9
  20 "ValveBiped.Bip01_L_Finger11" 19
  21 "ValveBiped.Bip01_L_Finger12" 20
  22 "ValveBiped.Bip01_L_Finger0" 9
  23 "ValveBiped.Bip01_L_Finger01" 22
  24 "ValveBiped.Bip01_L_Finger02" 23
  25 "ValveBiped.Bip01_R_Clavicle" 5
  26 "ValveBiped.Bip01_R_UpperArm" 25
  27 "ValveBiped.Bip01_R_Forearm" 26
  28 "ValveBiped.Bip01_R_Hand" 27
  29 "ValveBiped.Bip01_R_Finger4" 28
  30 "ValveBiped.Bip01_R_Finger41" 29
  31 "ValveBiped.Bip01_R_Finger42" 30
  32 "ValveBiped.Bip01_R_Finger3" 28
  33 "ValveBiped.Bip01_R_Finger31" 32
  34 "ValveBiped.Bip01_R_Finger32" 33
  35 "ValveBiped.Bip01_R_Finger2" 28
  36 "ValveBiped.Bip01_R_Finger21" 35
  37 "ValveBiped.Bip01_R_Finger22" 36
  38 "ValveBiped.Bip01_R_Finger1" 28
  39 "ValveBiped.Bip01_R_Finger11" 38
  40 "ValveBiped.Bip01_R_Finger12" 39
  41 "ValveBiped.Bip01_R_Finger0" 28
  42 "ValveBiped.Bip01_R_Finger01" 41
  43 "ValveBiped.Bip01_R_Finger02" 42
  44 "ValveBiped.UpperBodyParent" 0
  45 "ValveBiped.UpperBody" 44
  46 "ValveBiped.SpineControlParent" 45
  47 "ValveBiped.SpineControl" 46
  48 "ValveBiped.SpineControl1" 47
  49 "ValveBiped.SpineControl2" 48
  50 "ValveBiped.SpineControl3" 49
  51 "ValveBiped.Bip01_R_Hand1" 50
end
skeleton
  time 0
    0 0.000000 0.000000 -67.998169 1.570796 0.000000 0.000000
    1 -0.000005 25.257918 19.608414 0.000000 0.000000 0.000000
    2 0.000005 3.345128 -2.981901 1.570796 0.304437 1.570796
    3 4.018334 0.000000 0.000000 0.000000 0.000000 -0.029242
    4 3.518569 0.000000 0.000000 0.000000 0.000000 -0.196978
    5 8.942640 0.000000 0.000000 0.000000 0.000000 0.194096
    6 2.033346 1.000767 1.937660 1.596637 -1.286515 2.942961
    7 6.028142 0.000000 0.000000 -1.505267 -0.814928 0.168410
    8 11.692552 -0.000001 0.000002 0.000000 0.000000 -0.959392
    9 11.481668 -0.000001 -0.000034 0.251308 -0.116743 0.140760
    10 3.859703 -0.142405 -1.191971 -0.362411 0.353793 -0.423438
    11 1.312561 -0.000001 0.000001 0.003203 0.009118 -0.101893
    12 0.729363 0.000000 -0.000001 0.001345 0.004786 0.029667
    13 3.942325 0.046771 -0.431440 -0.118512 0.124057 -0.444423
    14 1.539093 -0.000001 0.000001 0.001260 0.004278 0.038760
    15 1.196321 -0.000001 0.000002 0.002744 0.006830 -0.048765
    16 3.883686 -0.046771 0.431444 0.088363 -0.006830 -0.262678
    17 1.719575 -0.000001 0.000003 0.001320 0.005356 -0.124753
    18 1.209182 -0.000001 -0.000002 0.000729 0.002997 0.022348
    19 3.859859 -0.137948 1.332468 0.345271 -0.092270 -0.395911
    20 1.719429 0.000000 0.000001 0.001487 0.003793 0.010685
    21 1.099665 0.000000 0.000001 0.000386 0.002568 -0.095080
    22 0.806047 -0.348922 1.321260 -1.409829 -0.742969 -0.479938
    23 1.789786 0.000000 0.000001 0.000000 0.007387 0.228523
    24 1.206997 0.000000 0.000001 0.000000 0.011267 0.362860
    25 2.033353 1.000771 -1.937610 -1.668475 1.286518 2.942953
    26 6.028143 -0.000001 0.000000 1.629668 0.815103 0.280183
    27 11.692550 -0.000001 -0.000001 0.000000 0.000000 -0.959943
    28 11.481696 0.000000 -0.000001 -0.325188 0.033941 0.129316
    29 3.859673 -0.132568 1.193105 0.285062 -0.419945 -0.226477
    30 1.312562 0.000001 0.000003 -0.002956 -0.011560 -0.189327
    31 0.729365 0.000000 -0.000001 -0.001629 -0.005914 0.024519
    32 3.942294 0.050328 0.431041 0.086028 -0.151392 -0.228105
    33 1.539097 0.000001 0.000000 -0.001532 -0.005650 0.017016
    34 1.196323 0.000001 0.000001 -0.002545 -0.009322 -0.164261
    35 3.883655 -0.050328 -0.431043 -0.089808 0.003109 -0.255702
    36 1.719576 0.000000 -0.000002 -0.002028 -0.007712 -0.109291
    37 1.209182 0.000001 0.000000 -0.002124 -0.003923 0.279918
    38 3.859827 -0.148935 -1.331285 -0.328792 0.140171 -0.247153
    39 1.719424 -0.000003 -0.000001 -0.002684 -0.006044 0.054920
    40 1.099667 0.000000 0.000000 0.014705 0.003231 -0.872646
    41 0.806017 -0.359832 -1.318336 1.475204 0.827508 -0.381818
    42 1.789785 -0.000001 0.000000 0.000000 -0.006301 0.228555
    43 1.206997 0.000000 0.000000 0.000000 -0.009618 0.362905
    44 0.000156 39.987263 -0.385905 0.000000 0.000000 0.000000
    45 -0.000161 -14.729345 19.994319 0.000000 0.000000 0.000000
    46 0.000005 3.345128 -2.981901 1.570796 0.083193 1.570796
    47 0.000001 0.000000 0.000000 0.000000 0.000000 -0.218144
    48 4.018313 -0.012456 0.000000 0.000000 0.000000 0.000000
    49 3.516727 -0.113777 0.000000 0.000000 0.000000 -0.297314
    50 8.921975 0.607578 0.000000 0.000000 0.000000 0.000000
    51 -0.973545 16.001771 -13.566878 -1.573845 -0.002509 2.007118
  time 1
    0 0.000000 0.000000 -67.998169 1.570796 0.000000 0.000000
    1 -0.000005 25.257918 19.608414 0.000000 0.000000 0.000000
    2 0.000005 3.345128 -2.981901 1.570796 0.304437 1.570796
    3 4.018334 0.000000 0.000000 -0.000048 0.001678 -0.038101
    4 3.518569 0.000000 0.000000 -0.000024 -0.000407 -0.194837
    5 8.942640 0.000000 0.000000 0.000000 0.000000 0.188631
    6 2.033346 1.000767 1.937660 1.596637 -1.286515 2.942961
    7 6.028142 0.000000 0.000000 -1.505267 -0.814928 0.168410
    8 11.692552 -0.000001 0.000002 0.000000 0.000000 -0.959392
    9 11.481668 -0.000001 -0.000034 0.251308 -0.116743 0.140760
    10 3.859703 -0.142405 -1.191971 -0.362411 0.353793 -0.423438
    11 1.312561 -0.000001 0.000001 0.003203 0.009118 -0.101893
    12 0.729363 0.000000 -0.000001 0.001345 0.004786 0.029667
    13 3.942325 0.046771 -0.431440 -0.118512 0.124057 -0.444423
    14 1.539093 -0.000001 0.000001 0.001260 0.004278 0.038760
    15 1.196321 -0.000001 0.000002 0.002744 0.006830 -0.048765
    16 3.883686 -0.046771 0.431444 0.088363 -0.006830 -0.262678
    17 1.719575 -0.000001 0.000003 0.001320 0.005356 -0.124753
    18 1.209182 -0.000001 -0.000002 0.000729 0.002997 0.022348
    19 3.859859 -0.137948 1.332468 0.345271 -0.092270 -0.395911
    20 1.719429 0.000000 0.000001 0.001487 0.003793 0.010685
    21 1.099665 0.000000 0.000001 0.000386 0.002568 -0.095080
    22 0.806047 -0.348922 1.321260 -1.409829 -0.742969 -0.479938
    23 1.789786 0.000000 0.000001 0.000000 0.007387 0.228523
    24 1.206997 0.000000 0.000001 0.000000 0.011267 0.362860
    25 2.033353 1.000771 -1.937610 -1.668475 1.286518 2.942953
    26 6.028143 -0.000001 0.000000 1.629668 0.815103 0.280183
    27 11.692550 -0.000001 -0.000001 0.000000 0.000000 -0.959943
    28 11.481696 0.000000 -0.000001 -0.325188 0.033941 0.129316
    29 3.859673 -0.132568 1.193105 0.285062 -0.419945 -0.226477
    30 1.312562 0.000001 0.000003 -0.002956 -0.011560 -0.189327
    31 0.729365 0.000000 -0.000001 -0.001629 -0.005914 0.024519
    32 3.942294 0.050328 0.431041 0.086028 -0.151392 -0.228105
    33 1.539097 0.000001 0.000000 -0.001532 -0.005650 0.017016
    34 1.196323 0.000001 0.000001 -0.002545 -0.009322 -0.164261
    35 3.883655 -0.050328 -0.431043 -0.089808 0.003109 -0.255702
    36 1.719576 0.000000 -0.000002 -0.002028 -0.007712 -0.109291
    37 1.209182 0.000001 0.000000 -0.002124 -0.003923 0.279918
    38 3.859827 -0.148935 -1.331285 -0.328792 0.140171 -0.247153
    39 1.719424 -0.000003 -0.000001 -0.002684 -0.006044 0.054920
    40 1.099667 0.000000 0.000000 0.014705 0.003231 -0.872646
    41 0.806017 -0.359832 -1.318336 1.475204 0.827508 -0.381818
    42 1.789785 -0.000001 0.000000 0.000000 -0.006301 0.228555
    43 1.206997 0.000000 0.000000 0.000000 -0.009618 0.362905
    44 0.000156 39.987263 -0.385905 0.000000 0.000000 0.000000
    45 -0.000161 -14.729345 19.994319 0.000000 0.000000 0.000000
    46 0.000005 3.345128 -2.981901 1.570796 0.083193 1.570796
    47 0.000001 0.000000 0.000000 0.000000 0.000000 -0.218144
    48 4.018313 -0.012456 0.000000 0.000000 0.001678 -0.008859
    49 3.516727 -0.113777 0.000000 0.000000 -0.000407 -0.295173
    50 8.921975 0.607578 0.000000 0.000000 0.000000 -0.005465
    51 -0.993077 15.997864 -13.566878 -1.573845 -0.002509 2.002828
  time 2
    0 0.000000 0.000000 -67.998169 1.570796 0.000000 0.000000
    1 -0.000005 25.265730 19.717792 0.000000 0.000000 0.000000
    2 0.000005 3.345128 -2.981901 1.570796 0.304437 1.570796
    3 4.018334 0.000000 0.000000 -0.000204 0.006352 -0.062293
    4 3.518569 0.000000 0.000000 -0.000096 -0.001558 -0.188901
    5 8.942640 0.000000 0.000000 0.000000 0.000000 0.173698
    6 2.033346 1.000767 1.937660 1.596637 -1.286515 2.942961
    7 6.028142 0.000000 0.000000 -1.505267 -0.814928 0.168410
    8 11.692552 -0.000001 0.000002 0.000000 0.000000 -0.959392
    9 11.481668 -0.000001 -0.000034 0.251308 -0.116743 0.140760
    10 3.859703 -0.142405 -1.191971 -0.362411 0.353793 -0.423438
    11 1.312561 -0.000001 0.000001 0.003203 0.009118 -0.101893
    12 0.729363 0.000000 -0.000001 0.001345 0.004786 0.029667
    13 3.942325 0.046771 -0.431440 -0.118512 0.124057 -0.444423
    14 1.539093 -0.000001 0.000001 0.001260 0.004278 0.038760
    15 1.196321 -0.000001 0.000002 0.002744 0.006830 -0.048765
    16 3.883686 -0.046771 0.431444 0.088363 -0.006830 -0.262678
    17 1.719575 -0.000001 0.000003 0.001320 0.005356 -0.124753
    18 1.209182 -0.000001 -0.000002 0.000729 0.002997 0.022348
    19 3.859859 -0.137948 1.332468 0.345271 -0.092270 -0.395911
    20 1.719429 0.000000 0.000001 0.001487 0.003793 0.010685
    21 1.099665 0.000000 0.000001 0.000386 0.002568 -0.095080
    22 0.806047 -0.348922 1.321260 -1.409829 -0.742969 -0.479938
    23 1.789786 0.000000 0.000001 0.000000 0.007387 0.228523
    24 1.206997 0.000000 0.000001 0.000000 0.011267 0.362860
    25 2.033353 1.000771 -1.937610 -1.668475 1.286518 2.942953
    26 6.028143 -0.000001 0.000000 1.629668 0.815103 0.280183
    27 11.692550 -0.000001 -0.000001 0.000000 0.000000 -0.959943
    28 11.481696 0.000000 -0.000001 -0.325188 0.033941 0.129316
    29 3.859673 -0.132568 1.193105 0.285062 -0.419945 -0.226477
    30 1.312562 0.000001 0.000003 -0.002956 -0.011560 -0.189327
    31 0.729365 0.000000 -0.000001 -0.001629 -0.005914 0.024519
    32 3.942294 0.050328 0.431041 0.086028 -0.151392 -0.228105
    33 1.539097 0.000001 0.000000 -0.001532 -0.005650 0.017016
    34 1.196323 0.000001 0.000001 -0.002545 -0.009322 -0.164261
    35 3.883655 -0.050328 -0.431043 -0.089808 0.003109 -0.255702
    36 1.719576 0.000000 -0.000002 -0.002028 -0.007712 -0.109291
    37 1.209182 0.000001 0.000000 -0.002124 -0.003923 0.279918
    38 3.859827 -0.148935 -1.331285 -0.328792 0.140171 -0.247153
    39 1.719424 -0.000003 -0.000001 -0.002684 -0.006044 0.054920
    40 1.099667 0.000000 0.000000 0.014705 0.003231 -0.872646
    41 0.806017 -0.359832 -1.318336 1.475204 0.827508 -0.381818
    42 1.789785 -0.000001 0.000000 0.000000 -0.006301 0.228555
    43 1.206997 0.000000 0.000000 0.000000 -0.009618 0.362905
    44 0.000156 39.987263 -0.385905 0.000000 0.000000 0.000000
    45 -0.000161 -14.721533 20.103697 0.000000 0.000000 0.000000
    46 0.000005 3.345128 -2.981901 1.570796 0.083193 1.570796
    47 0.000001 0.000000 0.000000 0.000000 0.000000 -0.218144
    48 4.018313 -0.012456 0.000000 0.000000 0.006352 -0.033051
    49 3.516727 -0.113777 0.000000 0.000000 -0.001558 -0.289237
    50 8.921975 0.607578 0.000000 0.000000 0.000000 -0.020398
    51 -1.059485 15.986145 -13.566878 -1.573845 -0.002509 1.990934
  time 3
    0 0.000000 0.000000 -67.998169 1.570796 0.000000 0.000000
    1 -0.000005 25.179790 19.948268 0.000000 0.000000 0.000000
    2 0.000005 3.345128 -2.981901 1.570796 0.304437 1.570796
    3 4.018334 0.000000 0.000000 -0.000431 0.013459 -0.098154
    4 3.518569 0.000000 0.000000 -0.000216 -0.003308 -0.179805
    5 8.942640 0.000000 0.000000 0.000000 0.000000 0.151563
    6 2.033346 1.000767 1.937660 1.596637 -1.286515 2.942961
    7 6.028142 0.000000 0.000000 -1.505267 -0.814928 0.168410
    8 11.692552 -0.000001 0.000002 0.000000 0.000000 -0.959392
    9 11.481668 -0.000001 -0.000034 0.251308 -0.116743 0.140760
    10 3.859703 -0.142405 -1.191971 -0.362411 0.353793 -0.423438
    11 1.312561 -0.000001 0.000001 0.003203 0.009118 -0.101893
    12 0.729363 0.000000 -0.000001 0.001345 0.004786 0.029667
    13 3.942325 0.046771 -0.431440 -0.118512 0.124057 -0.444423
    14 1.539093 -0.000001 0.000001 0.001260 0.004278 0.038760
    15 1.196321 -0.000001 0.000002 0.002744 0.006830 -0.048765
    16 3.883686 -0.046771 0.431444 0.088363 -0.006830 -0.262678
    17 1.719575 -0.000001 0.000003 0.001320 0.005356 -0.124753
    18 1.209182 -0.000001 -0.000002 0.000729 0.002997 0.022348
    19 3.859859 -0.137948 1.332468 0.345271 -0.092270 -0.395911
    20 1.719429 0.000000 0.000001 0.001487 0.003793 0.010685
    21 1.099665 0.000000 0.000001 0.000386 0.002568 -0.095080
    22 0.806047 -0.348922 1.321260 -1.409829 -0.742969 -0.479938
    23 1.789786 0.000000 0.000001 0.000000 0.007387 0.228523
    24 1.206997 0.000000 0.000001 0.000000 0.011267 0.362860
    25 2.033353 1.000771 -1.937610 -1.668475 1.286518 2.942953
    26 6.028143 -0.000001 0.000000 1.629668 0.815103 0.280183
    27 11.692550 -0.000001 -0.000001 0.000000 0.000000 -0.959943
    28 11.481696 0.000000 -0.000001 -0.325188 0.033941 0.129316
    29 3.859673 -0.132568 1.193105 0.285062 -0.419945 -0.226477
    30 1.312562 0.000001 0.000003 -0.002956 -0.011560 -0.189327
    31 0.729365 0.000000 -0.000001 -0.001629 -0.005914 0.024519
    32 3.942294 0.050328 0.431041 0.086028 -0.151392 -0.228105
    33 1.539097 0.000001 0.000000 -0.001532 -0.005650 0.017016
    34 1.196323 0.000001 0.000001 -0.002545 -0.009322 -0.164261
    35 3.883655 -0.050328 -0.431043 -0.089808 0.003109 -0.255702
    36 1.719576 0.000000 -0.000002 -0.002028 -0.007712 -0.109291
    37 1.209182 0.000001 0.000000 -0.002124 -0.003923 0.279918
    38 3.859827 -0.148935 -1.331285 -0.328792 0.140171 -0.247153
    39 1.719424 -0.000003 -0.000001 -0.002684 -0.006044 0.054920
    40 1.099667 0.000000 0.000000 0.014705 0.003231 -0.872646
    41 0.806017 -0.359832 -1.318336 1.475204 0.827508 -0.381818
    42 1.789785 -0.000001 0.000000 0.000000 -0.006301 0.228555
    43 1.206997 0.000000 0.000000 0.000000 -0.009618 0.362905
    44 0.000156 39.987263 -0.385905 0.000000 0.000000 0.000000
    45 -0.000161 -14.807473 20.334173 0.000000 0.000000 0.000000
    46 0.000005 3.345128 -2.981901 1.570796 0.083193 1.570796
    47 0.000001 0.000000 0.000000 0.000000 0.000000 -0.218144
    48 4.018313 -0.012456 0.000000 0.000000 0.013459 -0.068912
    49 3.516727 -0.113777 0.000000 0.000000 -0.003320 -0.280141
    50 8.921975 0.607578 0.000000 0.000000 0.000000 -0.042533
    51 -1.164957 15.966614 -13.566878 -1.573845 -0.002509 1.972990
  time 4
    0 0.000000 0.000000 -67.998169 1.570796 0.000000 0.000000
    1 -0.000005 24.996191 20.264684 0.000000 0.000000 0.000000
    2 0.000005 3.345128 -2.981901 1.570796 0.304437 1.570796
    3 4.018334 0.000000 0.000000 -0.000719 0.022423 -0.141984
    4 3.518569 0.000000 0.000000 -0.000372 -0.005525 -0.168288
    5 8.942640 0.000000 0.000000 0.000000 0.000000 0.124466
    6 2.033346 1.000767 1.937660 1.596637 -1.286515 2.942961
    7 6.028142 0.000000 0.000000 -1.505267 -0.814928 0.168410
    8 11.692552 -0.000001 0.000002 0.000000 0.000000 -0.959392
    9 11.481668 -0.000001 -0.000034 0.251308 -0.116743 0.140760
    10 3.859703 -0.142405 -1.191971 -0.362411 0.353793 -0.423438
    11 1.312561 -0.000001 0.000001 0.003203 0.009118 -0.101893
    12 0.729363 0.000000 -0.000001 0.001345 0.004786 0.029667
    13 3.942325 0.046771 -0.431440 -0.118512 0.124057 -0.444423
    14 1.539093 -0.000001 0.000001 0.001260 0.004278 0.038760
    15 1.196321 -0.000001 0.000002 0.002744 0.006830 -0.048765
    16 3.883686 -0.046771 0.431444 0.088363 -0.006830 -0.262678
    17 1.719575 -0.000001 0.000003 0.001320 0.005356 -0.124753
    18 1.209182 -0.000001 -0.000002 0.000729 0.002997 0.022348
    19 3.859859 -0.137948 1.332468 0.345271 -0.092270 -0.395911
    20 1.719429 0.000000 0.000001 0.001487 0.003793 0.010685
    21 1.099665 0.000000 0.000001 0.000386 0.002568 -0.095080
    22 0.806047 -0.348922 1.321260 -1.409829 -0.742969 -0.479938
    23 1.789786 0.000000 0.000001 0.000000 0.007387 0.228523
    24 1.206997 0.000000 0.000001 0.000000 0.011267 0.362860
    25 2.033353 1.000771 -1.937610 -1.668475 1.286518 2.942953
    26 6.028143 -0.000001 0.000000 1.629668 0.815103 0.280183
    27 11.692550 -0.000001 -0.000001 0.000000 0.000000 -0.959943
    28 11.481696 0.000000 -0.000001 -0.325188 0.033941 0.129316
    29 3.859673 -0.132568 1.193105 0.285062 -0.419945 -0.226477
    30 1.312562 0.000001 0.000003 -0.002956 -0.011560 -0.189327
    31 0.729365 0.000000 -0.000001 -0.001629 -0.005914 0.024519
    32 3.942294 0.050328 0.431041 0.086028 -0.151392 -0.228105
    33 1.539097 0.000001 0.000000 -0.001532 -0.005650 0.017016
    34 1.196323 0.000001 0.000001 -0.002545 -0.009322 -0.164261
    35 3.883655 -0.050328 -0.431043 -0.089808 0.003109 -0.255702
    36 1.719576 0.000000 -0.000002 -0.002028 -0.007712 -0.109291
    37 1.209182 0.000001 0.000000 -0.002124 -0.003923 0.279918
    38 3.859827 -0.148935 -1.331285 -0.328792 0.140171 -0.247153
    39 1.719424 -0.000003 -0.000001 -0.002684 -0.006044 0.054920
    40 1.099667 0.000000 0.000000 0.014705 0.003231 -0.872646
    41 0.806017 -0.359832 -1.318336 1.475204 0.827508 -0.381818
    42 1.789785 -0.000001 0.000000 0.000000 -0.006301 0.228555
    43 1.206997 0.000000 0.000000 0.000000 -0.009618 0.362905
    44 0.000156 39.987263 -0.385905 0.000000 0.000000 0.000000
    45 -0.000161 -14.991072 20.650589 0.000000 0.000000 0.000000
    46 0.000005 3.345128 -2.981901 1.570796 0.083193 1.570796
    47 0.000001 0.000000 0.000000 0.000000 0.000000 -0.218144
    48 4.018313 -0.012456 0.000000 0.000000 0.022435 -0.112742
    49 3.516727 -0.113777 0.000000 0.000000 -0.005537 -0.268624
    50 8.921975 0.607578 0.000000 0.000000 0.000000 -0.069630
    51 -1.305586 15.939269 -13.566878 -1.573845 -0.002509 1.950523
  time 5
    0 0.000000 0.000000 -67.998169 1.570796 0.000000 0.000000
    1 -0.000005 24.695400 20.647508 0.000000 0.000000 0.000000
    2 0.000005 3.345128 -2.981901 1.570796 0.304437 1.570796
    3 4.018334 0.000000 0.000000 -0.001055 0.032706 -0.190154
    4 3.518569 0.000000 0.000000 -0.000539 -0.008054 -0.155014
    5 8.942640 0.000000 0.000000 0.000000 0.000000 0.094624
    6 2.033346 1.000767 1.937660 1.596637 -1.286515 2.942961
    7 6.028142 0.000000 0.000000 -1.505267 -0.814928 0.168410
    8 11.692552 -0.000001 0.000002 0.000000 0.000000 -0.959392
    9 11.481668 -0.000001 -0.000034 0.251308 -0.116743 0.140760
    10 3.859703 -0.142405 -1.191971 -0.362411 0.353793 -0.423438
    11 1.312561 -0.000001 0.000001 0.003203 0.009118 -0.101893
    12 0.729363 0.000000 -0.000001 0.001345 0.004786 0.029667
    13 3.942325 0.046771 -0.431440 -0.118512 0.124057 -0.444423
    14 1.539093 -0.000001 0.000001 0.001260 0.004278 0.038760
    15 1.196321 -0.000001 0.000002 0.002744 0.006830 -0.048765
    16 3.883686 -0.046771 0.431444 0.088363 -0.006830 -0.262678
    17 1.719575 -0.000001 0.000003 0.001320 0.005356 -0.124753
    18 1.209182 -0.000001 -0.000002 0.000729 0.002997 0.022348
    19 3.859859 -0.137948 1.332468 0.345271 -0.092270 -0.395911
    20 1.719429 0.000000 0.000001 0.001487 0.003793 0.010685
    21 1.099665 0.000000 0.000001 0.000386 0.002568 -0.095080
    22 0.806047 -0.348922 1.321260 -1.409829 -0.742969 -0.479938
    23 1.789786 0.000000 0.000001 0.000000 0.007387 0.228523
    24 1.206997 0.000000 0.000001 0.000000 0.011267 0.362860
    25 2.033353 1.000771 -1.937610 -1.668475 1.286518 2.942953
    26 6.028143 -0.000001 0.000000 1.629668 0.815103 0.280183
    27 11.692550 -0.000001 -0.000001 0.000000 0.000000 -0.959943
    28 11.481696 0.000000 -0.000001 -0.325188 0.033941 0.129316
    29 3.859673 -0.132568 1.193105 0.285062 -0.419945 -0.226477
    30 1.312562 0.000001 0.000003 -0.002956 -0.011560 -0.189327
    31 0.729365 0.000000 -0.000001 -0.001629 -0.005914 0.024519
    32 3.942294 0.050328 0.431041 0.086028 -0.151392 -0.228105
    33 1.539097 0.000001 0.000000 -0.001532 -0.005650 0.017016
    34 1.196323 0.000001 0.000001 -0.002545 -0.009322 -0.164261
    35 3.883655 -0.050328 -0.431043 -0.089808 0.003109 -0.255702
    36 1.719576 0.000000 -0.000002 -0.002028 -0.007712 -0.109291
    37 1.209182 0.000001 0.000000 -0.002124 -0.003923 0.279918
    38 3.859827 -0.148935 -1.331285 -0.328792 0.140171 -0.247153
    39 1.719424 -0.000003 -0.000001 -0.002684 -0.006044 0.054920
    40 1.099667 0.000000 0.000000 0.014705 0.003231 -0.872646
    41 0.806017 -0.359832 -1.318336 1.475204 0.827508 -0.381818
    42 1.789785 -0.000001 0.000000 0.000000 -0.006301 0.228555
    43 1.206997 0.000000 0.000000 0.000000 -0.009618 0.362905
    44 0.000156 39.987263 -0.385905 0.000000 0.000000 0.000000
    45 -0.000161 -15.291862 21.033413 0.000000 0.000000 0.000000
    46 0.000005 3.345128 -2.981901 1.570796 0.083193 1.570796
    47 0.000001 0.000000 0.000000 0.000000 0.000000 -0.218144
    48 4.018313 -0.012456 0.000000 0.000000 0.032718 -0.160877
    49 3.516727 -0.113777 0.000000 0.000000 -0.008078 -0.255350
    50 8.921975 0.607578 0.000000 0.000000 0.000000 -0.099472
    51 -1.481373 15.904112 -13.566878 -1.573845 -0.002509 1.925032
  time 6
    0 0.000000 0.000000 -67.998169 1.570796 0.000000 0.000000
    1 -0.000005 24.089913 21.073302 0.000000 0.000000 0.000000
    2 0.000005 3.345128 -2.981901 1.570796 0.304437 1.570796
    3 4.018334 0.000000 0.000000 -0.001414 0.043732 -0.238965
    4 3.518569 0.000000 0.000000 -0.000731 -0.010774 -0.140669
    5 8.942640 0.000000 0.000000 0.000000 0.000000 0.064303
    6 2.033346 1.000767 1.937660 1.596637 -1.286515 2.942961
    7 6.028142 0.000000 0.000000 -1.505267 -0.814928 0.168410
    8 11.692552 -0.000001 0.000002 0.000000 0.000000 -0.959392
    9 11.481668 -0.000001 -0.000034 0.251308 -0.116743 0.140760
    10 3.859703 -0.142405 -1.191971 -0.362411 0.353793 -0.423438
    11 1.312561 -0.000001 0.000001 0.003203 0.009118 -0.101893
    12 0.729363 0.000000 -0.000001 0.001345 0.004786 0.029667
    13 3.942325 0.046771 -0.431440 -0.118512 0.124057 -0.444423
    14 1.539093 -0.000001 0.000001 0.001260 0.004278 0.038760
    15 1.196321 -0.000001 0.000002 0.002744 0.006830 -0.048765
    16 3.883686 -0.046771 0.431444 0.088363 -0.006830 -0.262678
    17 1.719575 -0.000001 0.000003 0.001320 0.005356 -0.124753
    18 1.209182 -0.000001 -0.000002 0.000729 0.002997 0.022348
    19 3.859859 -0.137948 1.332468 0.345271 -0.092270 -0.395911
    20 1.719429 0.000000 0.000001 0.001487 0.003793 0.010685
    21 1.099665 0.000000 0.000001 0.000386 0.002568 -0.095080
    22 0.806047 -0.348922 1.321260 -1.409829 -0.742969 -0.479938
    23 1.789786 0.000000 0.000001 0.000000 0.007387 0.228523
    24 1.206997 0.000000 0.000001 0.000000 0.011267 0.362860
    25 2.033353 1.000771 -1.937610 -1.668475 1.286518 2.942953
    26 6.028143 -0.000001 0.000000 1.629668 0.815103 0.280183
    27 11.692550 -0.000001 -0.000001 0.000000 0.000000 -0.959943
    28 11.481696 0.000000 -0.000001 -0.325188 0.033941 0.129316
    29 3.859673 -0.132568 1.193105 0.285062 -0.419945 -0.226477
    30 1.312562 0.000001 0.000003 -0.002956 -0.011560 -0.189327
    31 0.729365 0.000000 -0.000001 -0.001629 -0.005914 0.024519
    32 3.942294 0.050328 0.431041 0.086028 -0.151392 -0.228105
    33 1.539097 0.000001 0.000000 -0.001532 -0.005650 0.017016
    34 1.196323 0.000001 0.000001 -0.002545 -0.009322 -0.164261
    35 3.883655 -0.050328 -0.431043 -0.089808 0.003109 -0.255702
    36 1.719576 0.000000 -0.000002 -0.002028 -0.007712 -0.109291
    37 1.209182 0.000001 0.000000 -0.002124 -0.003923 0.279918
    38 3.859827 -0.148935 -1.331285 -0.328792 0.140171 -0.247153
    39 1.719424 -0.000003 -0.000001 -0.002684 -0.006044 0.054920
    40 1.099667 0.000000 0.000000 0.014705 0.003231 -0.872646
    41 0.806017 -0.359832 -1.318336 1.475204 0.827508 -0.381818
    42 1.789785 -0.000001 0.000000 0.000000 -0.006301 0.228555
    43 1.206997 0.000000 0.000000 0.000000 -0.009618 0.362905
    44 0.000156 39.987263 -0.385905 0.000000 0.000000 0.000000
    45 -0.000161 -15.897350 21.459207 0.000000 0.000000 0.000000
    46 0.000005 3.345128 -2.981901 1.570796 0.083193 1.570796
    47 0.000001 0.000000 0.000000 0.000000 0.000000 -0.218144
    48 4.018313 -0.012456 0.000000 0.000000 0.043756 -0.209688
    49 3.516727 -0.113777 0.000000 0.000000 -0.010798 -0.241005
    50 8.921975 0.607578 0.000000 0.000000 0.000000 -0.129793
    51 -1.680598 15.868954 -13.566878 -1.573845 -0.002509 1.898058
  time 7
    0 0.000000 0.000000 -67.998169 1.570796 0.000000 0.000000
    1 -0.000005 23.535209 21.526441 0.000000 0.000000 0.000000
    2 0.000005 3.345128 -2.981901 1.570796 0.304437 1.570796
    3 4.018334 0.000000 0.000000 -0.001774 0.054937 -0.284788
    4 3.518569 0.000000 0.000000 -0.000923 -0.013543 -0.125942
    5 8.942640 0.000000 0.000000 0.000000 0.000000 0.035720
    6 2.033346 1.000767 1.937660 1.596637 -1.286515 2.942961
    7 6.028142 0.000000 0.000000 -1.505267 -0.814928 0.168410
    8 11.692552 -0.000001 0.000002 0.000000 0.000000 -0.959392
    9 11.481668 -0.000001 -0.000034 0.251308 -0.116743 0.140760
    10 3.859703 -0.142405 -1.191971 -0.362411 0.353793 -0.423438
    11 1.312561 -0.000001 0.000001 0.003203 0.009118 -0.101893
    12 0.729363 0.000000 -0.000001 0.001345 0.004786 0.029667
    13 3.942325 0.046771 -0.431440 -0.118512 0.124057 -0.444423
    14 1.539093 -0.000001 0.000001 0.001260 0.004278 0.038760
    15 1.196321 -0.000001 0.000002 0.002744 0.006830 -0.048765
    16 3.883686 -0.046771 0.431444 0.088363 -0.006830 -0.262678
    17 1.719575 -0.000001 0.000003 0.001320 0.005356 -0.124753
    18 1.209182 -0.000001 -0.000002 0.000729 0.002997 0.022348
    19 3.859859 -0.137948 1.332468 0.345271 -0.092270 -0.395911
    20 1.719429 0.000000 0.000001 0.001487 0.003793 0.010685
    21 1.099665 0.000000 0.000001 0.000386 0.002568 -0.095080
    22 0.806047 -0.348922 1.321260 -1.409829 -0.742969 -0.479938
    23 1.789786 0.000000 0.000001 0.000000 0.007387 0.228523
    24 1.206997 0.000000 0.000001 0.000000 0.011267 0.362860
    25 2.033353 1.000771 -1.937610 -1.668475 1.286518 2.942953
    26 6.028143 -0.000001 0.000000 1.629668 0.815103 0.280183
    27 11.692550 -0.000001 -0.000001 0.000000 0.000000 -0.959943
    28 11.481696 0.000000 -0.000001 -0.325188 0.033941 0.129316
    29 3.859673 -0.132568 1.193105 0.285062 -0.419945 -0.226477
    30 1.312562 0.000001 0.000003 -0.002956 -0.011560 -0.189327
    31 0.729365 0.000000 -0.000001 -0.001629 -0.005914 0.024519
    32 3.942294 0.050328 0.431041 0.086028 -0.151392 -0.228105
    33 1.539097 0.000001 0.000000 -0.001532 -0.005650 0.017016
    34 1.196323 0.000001 0.000001 -0.002545 -0.009322 -0.164261
    35 3.883655 -0.050328 -0.431043 -0.089808 0.003109 -0.255702
    36 1.719576 0.000000 -0.000002 -0.002028 -0.007712 -0.109291
    37 1.209182 0.000001 0.000000 -0.002124 -0.003923 0.279918
    38 3.859827 -0.148935 -1.331285 -0.328792 0.140171 -0.247153
    39 1.719424 -0.000003 -0.000001 -0.002684 -0.006044 0.054920
    40 1.099667 0.000000 0.000000 0.014705 0.003231 -0.872646
    41 0.806017 -0.359832 -1.318336 1.475204 0.827508 -0.381818
    42 1.789785 -0.000001 0.000000 0.000000 -0.006301 0.228555
    43 1.206997 0.000000 0.000000 0.000000 -0.009618 0.362905
    44 0.000156 39.987263 -0.385905 0.000000 0.000000 0.000000
    45 -0.000161 -16.452054 21.912346 0.000000 0.000000 0.000000
    46 0.000005 3.345128 -2.981901 1.570796 0.083193 1.570796
    47 0.000001 0.000000 0.000000 0.000000 0.000000 -0.218144
    48 4.018313 -0.012456 0.000000 0.000000 0.054973 -0.255510
    49 3.516727 -0.113777 0.000000 0.000000 -0.013579 -0.226278
    50 8.921975 0.607578 0.000000 0.000000 0.000000 -0.158376
    51 -1.911073 15.825984 -13.566878 -1.573845 -0.002509 1.871128
  time 8
    0 0.000000 0.000000 -67.998169 1.570796 0.000000 0.000000
    1 -0.000005 23.078164 21.991299 0.000000 0.000000 0.000000
    2 0.000005 3.345128 -2.981901 1.570796 0.304437 1.570796
    3 4.018334 0.000000 0.000000 -0.002121 0.065783 -0.323957
    4 3.518569 0.000000 0.000000 -0.001103 -0.016215 -0.111521
    5 8.942640 0.000000 0.000000 0.000000 0.000000 0.011139
    6 2.033346 1.000767 1.937660 1.596637 -1.286515 2.942961
    7 6.028142 0.000000 0.000000 -1.505267 -0.814928 0.168410
    8 11.692552 -0.000001 0.000002 0.000000 0.000000 -0.959392
    9 11.481668 -0.000001 -0.000034 0.251308 -0.116743 0.140760
    10 3.859703 -0.142405 -1.191971 -0.362411 0.353793 -0.423438
    11 1.312561 -0.000001 0.000001 0.003203 0.009118 -0.101893
    12 0.729363 0.000000 -0.000001 0.001345 0.004786 0.029667
    13 3.942325 0.046771 -0.431440 -0.118512 0.124057 -0.444423
    14 1.539093 -0.000001 0.000001 0.001260 0.004278 0.038760
    15 1.196321 -0.000001 0.000002 0.002744 0.006830 -0.048765
    16 3.883686 -0.046771 0.431444 0.088363 -0.006830 -0.262678
    17 1.719575 -0.000001 0.000003 0.001320 0.005356 -0.124753
    18 1.209182 -0.000001 -0.000002 0.000729 0.002997 0.022348
    19 3.859859 -0.137948 1.332468 0.345271 -0.092270 -0.395911
    20 1.719429 0.000000 0.000001 0.001487 0.003793 0.010685
    21 1.099665 0.000000 0.000001 0.000386 0.002568 -0.095080
    22 0.806047 -0.348922 1.321260 -1.409829 -0.742969 -0.479938
    23 1.789786 0.000000 0.000001 0.000000 0.007387 0.228523
    24 1.206997 0.000000 0.000001 0.000000 0.011267 0.362860
    25 2.033353 1.000771 -1.937610 -1.668475 1.286518 2.942953
    26 6.028143 -0.000001 0.000000 1.629668 0.815103 0.280183
    27 11.692550 -0.000001 -0.000001 0.000000 0.000000 -0.959943
    28 11.481696 0.000000 -0.000001 -0.325188 0.033941 0.129316
    29 3.859673 -0.132568 1.193105 0.285062 -0.419945 -0.226477
    30 1.312562 0.000001 0.000003 -0.002956 -0.011560 -0.189327
    31 0.729365 0.000000 -0.000001 -0.001629 -0.005914 0.024519
    32 3.942294 0.050328 0.431041 0.086028 -0.151392 -0.228105
    33 1.539097 0.000001 0.000000 -0.001532 -0.005650 0.017016
    34 1.196323 0.000001 0.000001 -0.002545 -0.009322 -0.164261
    35 3.883655 -0.050328 -0.431043 -0.089808 0.003109 -0.255702
    36 1.719576 0.000000 -0.000002 -0.002028 -0.007712 -0.109291
    37 1.209182 0.000001 0.000000 -0.002124 -0.003923 0.279918
    38 3.859827 -0.148935 -1.331285 -0.328792 0.140171 -0.247153
    39 1.719424 -0.000003 -0.000001 -0.002684 -0.006044 0.054920
    40 1.099667 0.000000 0.000000 0.014705 0.003231 -0.872646
    41 0.806017 -0.359832 -1.318336 1.475204 0.827508 -0.381818
    42 1.789785 -0.000001 0.000000 0.000000 -0.006301 0.228555
    43 1.206997 0.000000 0.000000 0.000000 -0.009618 0.362905
    44 0.000156 39.987263 -0.385905 0.000000 0.000000 0.000000
    45 -0.000161 -16.909099 22.377204 0.000000 0.000000 0.000000
    46 0.000005 3.345128 -2.981901 1.570796 0.083193 1.570796
    47 0.000001 0.000000 0.000000 0.000000 0.000000 -0.218144
    48 4.018313 -0.012456 0.000000 0.000000 0.065819 -0.294645
    49 3.516727 -0.113777 0.000000 0.000000 -0.016263 -0.211857
    50 8.921975 0.607578 0.000000 0.000000 0.000000 -0.182957
    51 -2.157175 15.775201 -13.566878 -1.573845 -0.002509 1.845768
  time 9
    0 0.000000 0.000000 -67.998169 1.570796 0.000000 0.000000
    1 -0.000005 22.769560 22.460063 0.000000 0.000000 0.000000
    2 0.000005 3.345128 -2.981901 1.570796 0.304437 1.570796
    3 4.018334 0.000000 0.000000 -0.002445 0.075683 -0.352810
    4 3.518569 0.000000 0.000000 -0.001270 -0.018672 -0.098094
    5 8.942640 0.000000 0.000000 0.000000 0.000000 -0.007209
    6 2.033346 1.000767 1.937660 1.596637 -1.286515 2.942961
    7 6.028142 0.000000 0.000000 -1.505267 -0.814928 0.168410
    8 11.692552 -0.000001 0.000002 0.000000 0.000000 -0.959392
    9 11.481668 -0.000001 -0.000034 0.251308 -0.116743 0.140760
    10 3.859703 -0.142405 -1.191971 -0.362411 0.353793 -0.423438
    11 1.312561 -0.000001 0.000001 0.003203 0.009118 -0.101893
    12 0.729363 0.000000 -0.000001 0.001345 0.004786 0.029667
    13 3.942325 0.046771 -0.431440 -0.118512 0.124057 -0.444423
    14 1.539093 -0.000001 0.000001 0.001260 0.004278 0.038760
    15 1.196321 -0.000001 0.000002 0.002744 0.006830 -0.048765
    16 3.883686 -0.046771 0.431444 0.088363 -0.006830 -0.262678
    17 1.719575 -0.000001 0.000003 0.001320 0.005356 -0.124753
    18 1.209182 -0.000001 -0.000002 0.000729 0.002997 0.022348
    19 3.859859 -0.137948 1.332468 0.345271 -0.092270 -0.395911
    20 1.719429 0.000000 0.000001 0.001487 0.003793 0.010685
    21 1.099665 0.000000 0.000001 0.000386 0.002568 -0.095080
    22 0.806047 -0.348922 1.321260 -1.409829 -0.742969 -0.479938
    23 1.789786 0.000000 0.000001 0.000000 0.007387 0.228523
    24 1.206997 0.000000 0.000001 0.000000 0.011267 0.362860
    25 2.033353 1.000771 -1.937610 -1.668475 1.286518 2.942953
    26 6.028143 -0.000001 0.000000 1.629668 0.815103 0.280183
    27 11.692550 -0.000001 -0.000001 0.000000 0.000000 -0.959943
    28 11.481696 0.000000 -0.000001 -0.325188 0.033941 0.129316
    29 3.859673 -0.132568 1.193105 0.285062 -0.419945 -0.226477
    30 1.312562 0.000001 0.000003 -0.002956 -0.011560 -0.189327
    31 0.729365 0.000000 -0.000001 -0.001629 -0.005914 0.024519
    32 3.942294 0.050328 0.431041 0.086028 -0.151392 -0.228105
    33 1.539097 0.000001 0.000000 -0.001532 -0.005650 0.017016
    34 1.196323 0.000001 0.000001 -0.002545 -0.009322 -0.164261
    35 3.883655 -0.050328 -0.431043 -0.089808 0.003109 -0.255702
    36 1.719576 0.000000 -0.000002 -0.002028 -0.007712 -0.109291
    37 1.209182 0.000001 0.000000 -0.002124 -0.003923 0.279918
    38 3.859827 -0.148935 -1.331285 -0.328792 0.140171 -0.247153
    39 1.719424 -0.000003 -0.000001 -0.002684 -0.006044 0.054920
    40 1.099667 0.000000 0.000000 0.014705 0.003231 -0.872646
    41 0.806017 -0.359832 -1.318336 1.475204 0.827508 -0.381818
    42 1.789785 -0.000001 0.000000 0.000000 -0.006301 0.228555
    43 1.206997 0.000000 0.000000 0.000000 -0.009618 0.362905
    44 0.000156 39.987263 -0.385905 0.000000 0.000000 0.000000
    45 -0.000161 -17.217703 22.845968 0.000000 0.000000 0.000000
    46 0.000005 3.345128 -2.981901 1.570796 0.083193 1.570796
    47 0.000001 0.000000 0.000000 0.000000 0.000000 -0.218144
    48 4.018313 -0.012456 0.000000 0.000000 0.075719 -0.323461
    49 3.516727 -0.113777 0.000000 0.000000 -0.018708 -0.198455
    50 8.921975 0.607578 0.000000 0.000000 0.000000 -0.201305
    51 -2.426714 15.728325 -13.566878 -1.573845 -0.002509 1.823476
  time 10
    0 0.000000 0.000000 -67.998169 1.570796 0.000000 0.000000
    1 -0.000005 22.656276 22.921015 0.000000 0.000000 0.000000
    2 0.000005 3.345128 -2.981901 1.570796 0.304437 1.570796
    3 4.018334 0.000000 0.000000 -0.002721 0.084084 -0.367610
    4 3.518569 0.000000 0.000000 -0.001402 -0.020745 -0.086374
    5 8.942640 0.000000 0.000000 0.000000 0.000000 -0.017084
    6 2.033346 1.000767 1.937660 1.596637 -1.286515 2.942961
    7 6.028142 0.000000 0.000000 -1.505267 -0.814928 0.168410
    8 11.692552 -0.000001 0.000002 0.000000 0.000000 -0.959392
    9 11.481668 -0.000001 -0.000034 0.251308 -0.116743 0.140760
    10 3.859703 -0.142405 -1.191971 -0.362411 0.353793 -0.423438
    11 1.312561 -0.000001 0.000001 0.003203 0.009118 -0.101893
    12 0.729363 0.000000 -0.000001 0.001345 0.004786 0.029667
    13 3.942325 0.046771 -0.431440 -0.118512 0.124057 -0.444423
    14 1.539093 -0.000001 0.000001 0.001260 0.004278 0.038760
    15 1.196321 -0.000001 0.000002 0.002744 0.006830 -0.048765
    16 3.883686 -0.046771 0.431444 0.088363 -0.006830 -0.262678
    17 1.719575 -0.000001 0.000003 0.001320 0.005356 -0.124753
    18 1.209182 -0.000001 -0.000002 0.000729 0.002997 0.022348
    19 3.859859 -0.137948 1.332468 0.345271 -0.092270 -0.395911
    20 1.719429 0.000000 0.000001 0.001487 0.003793 0.010685
    21 1.099665 0.000000 0.000001 0.000386 0.002568 -0.095080
    22 0.806047 -0.348922 1.321260 -1.409829 -0.742969 -0.479938
    23 1.789786 0.000000 0.000001 0.000000 0.007387 0.228523
    24 1.206997 0.000000 0.000001 0.000000 0.011267 0.362860
    25 2.033353 1.000771 -1.937610 -1.668475 1.286518 2.942953
    26 6.028143 -0.000001 0.000000 1.629668 0.815103 0.280183
    27 11.692550 -0.000001 -0.000001 0.000000 0.000000 -0.959943
    28 11.481696 0.000000 -0.000001 -0.325188 0.033941 0.129316
    29 3.859673 -0.132568 1.193105 0.285062 -0.419945 -0.226477
    30 1.312562 0.000001 0.000003 -0.002956 -0.011560 -0.189327
    31 0.729365 0.000000 -0.000001 -0.001629 -0.005914 0.024519
    32 3.942294 0.050328 0.431041 0.086028 -0.151392 -0.228105
    33 1.539097 0.000001 0.000000 -0.001532 -0.005650 0.017016
    34 1.196323 0.000001 0.000001 -0.002545 -0.009322 -0.164261
    35 3.883655 -0.050328 -0.431043 -0.089808 0.003109 -0.255702
    36 1.719576 0.000000 -0.000002 -0.002028 -0.007712 -0.109291
    37 1.209182 0.000001 0.000000 -0.002124 -0.003923 0.279918
    38 3.859827 -0.148935 -1.331285 -0.328792 0.140171 -0.247153
    39 1.719424 -0.000003 -0.000001 -0.002684 -0.006044 0.054920
    40 1.099667 0.000000 0.000000 0.014705 0.003231 -0.872646
    41 0.806017 -0.359832 -1.318336 1.475204 0.827508 -0.381818
    42 1.789785 -0.000001 0.000000 0.000000 -0.006301 0.228555
    43 1.206997 0.000000 0.000000 0.000000 -0.009618 0.362905
    44 0.000156 39.987263 -0.385905 0.000000 0.000000 0.000000
    45 -0.000161 -17.330987 23.306920 0.000000 0.000000 0.000000
    46 0.000005 3.345128 -2.981901 1.570796 0.083193 1.570796
    47 0.000001 0.000000 0.000000 0.000000 0.000000 -0.218144
    48 4.018313 -0.012456 0.000000 0.000000 0.084132 -0.338261
    49 3.516727 -0.113777 0.000000 0.000000 -0.020793 -0.186735
    50 8.921975 0.607578 0.000000 0.000000 0.000000 -0.211180
    51 -2.707973 15.673636 -13.566878 -1.573845 -0.002509 1.804834
  time 11
    0 0.000000 0.000000 -67.998169 1.570796 0.000000 0.000000
    1 -0.000005 22.511740 23.362435 0.000000 0.000000 0.000000
    2 0.000005 3.345128 -2.981901 1.570796 0.304437 1.570796
    3 4.018334 0.000000 0.000000 -0.002661 0.082142 -0.329934
    4 3.518569 0.000000 0.000000 -0.001378 -0.020374 -0.079749
    5 8.942640 0.000000 0.000000 0.000000 0.000000 -0.011811
    6 2.033346 1.000767 1.937660 1.596637 -1.286515 2.942961
    7 6.028142 0.000000 0.000000 -1.505267 -0.814928 0.168410
    8 11.692552 -0.000001 0.000002 0.000000 0.000000 -0.959392
    9 11.481668 -0.000001 -0.000034 0.251308 -0.116743 0.140760
    10 3.859703 -0.142405 -1.191971 -0.362411 0.353793 -0.423438
    11 1.312561 -0.000001 0.000001 0.003203 0.009118 -0.101893
    12 0.729363 0.000000 -0.000001 0.001345 0.004786 0.029667
    13 3.942325 0.046771 -0.431440 -0.118512 0.124057 -0.444423
    14 1.539093 -0.000001 0.000001 0.001260 0.004278 0.038760
    15 1.196321 -0.000001 0.000002 0.002744 0.006830 -0.048765
    16 3.883686 -0.046771 0.431444 0.088363 -0.006830 -0.262678
    17 1.719575 -0.000001 0.000003 0.001320 0.005356 -0.124753
    18 1.209182 -0.000001 -0.000002 0.000729 0.002997 0.022348
    19 3.859859 -0.137948 1.332468 0.345271 -0.092270 -0.395911
    20 1.719429 0.000000 0.000001 0.001487 0.003793 0.010685
    21 1.099665 0.000000 0.000001 0.000386 0.002568 -0.095080
    22 0.806047 -0.348922 1.321260 -1.409829 -0.742969 -0.479938
    23 1.789786 0.000000 0.000001 0.000000 0.007387 0.228523
    24 1.206997 0.000000 0.000001 0.000000 0.011267 0.362860
    25 2.033353 1.000771 -1.937610 -1.668475 1.286518 2.942953
    26 6.028143 -0.000001 0.000000 1.629668 0.815103 0.280183
    27 11.692550 -0.000001 -0.000001 0.000000 0.000000 -0.959943
    28 11.481696 0.000000 -0.000001 -0.325188 0.033941 0.129316
    29 3.859673 -0.132568 1.193105 0.285062 -0.419945 -0.226477
    30 1.312562 0.000001 0.000003 -0.002956 -0.011560 -0.189327
    31 0.729365 0.000000 -0.000001 -0.001629 -0.005914 0.024519
    32 3.942294 0.050328 0.431041 0.086028 -0.151392 -0.228105
    33 1.539097 0.000001 0.000000 -0.001532 -0.005650 0.017016
    34 1.196323 0.000001 0.000001 -0.002545 -0.009322 -0.164261
    35 3.883655 -0.050328 -0.431043 -0.089808 0.003109 -0.255702
    36 1.719576 0.000000 -0.000002 -0.002028 -0.007712 -0.109291
    37 1.209182 0.000001 0.000000 -0.002124 -0.003923 0.279918
    38 3.859827 -0.148935 -1.331285 -0.328792 0.140171 -0.247153
    39 1.719424 -0.000003 -0.000001 -0.002684 -0.006044 0.054920
    40 1.099667 0.000000 0.000000 0.014705 0.003231 -0.872646
    41 0.806017 -0.359832 -1.318336 1.475204 0.827508 -0.381818
    42 1.789785 -0.000001 0.000000 0.000000 -0.006301 0.228555
    43 1.206997 0.000000 0.000000 0.000000 -0.009618 0.362905
    44 0.000156 39.987263 -0.385905 0.000000 0.000000 0.000000
    45 -0.000161 -17.475523 23.748340 0.000000 0.000000 0.000000
    46 0.000005 3.345128 -2.981901 1.570796 0.083193 1.570796
    47 0.000001 0.000000 0.000000 0.000000 0.000000 -0.218144
    48 4.018313 -0.012456 0.000000 0.000000 0.082178 -0.300550
    49 3.516727 -0.113777 0.000000 0.000000 -0.020422 -0.180085
    50 8.921975 0.607578 0.000000 0.000000 0.000000 -0.205907
    51 -2.997044 15.618947 -13.566878 -1.573845 -0.002509 1.785465
  time 12
    0 0.000000 0.000000 -67.998169 1.570796 0.000000 0.000000
    1 -0.000005 22.363298 23.776510 0.000000 0.000000 0.000000
    2 0.000005 3.345128 -2.981901 1.570796 0.304437 1.570796
    3 4.018334 0.000000 0.000000 -0.002481 0.076797 -0.242523
    4 3.518569 0.000000 0.000000 -0.001306 -0.019295 -0.063111
    5 8.942640 0.000000 0.000000 0.000000 0.000000 0.002618
    6 2.033346 1.000767 1.937660 1.596637 -1.286515 2.942961
    7 6.028142 0.000000 0.000000 -1.505267 -0.814928 0.168410
    8 11.692552 -0.000001 0.000002 0.000000 0.000000 -0.959392
    9 11.481668 -0.000001 -0.000034 0.251308 -0.116743 0.140760
    10 3.859703 -0.142405 -1.191971 -0.362411 0.353793 -0.423438
    11 1.312561 -0.000001 0.000001 0.003203 0.009118 -0.101893
    12 0.729363 0.000000 -0.000001 0.001345 0.004786 0.029667
    13 3.942325 0.046771 -0.431440 -0.118512 0.124057 -0.444423
    14 1.539093 -0.000001 0.000001 0.001260 0.004278 0.038760
    15 1.196321 -0.000001 0.000002 0.002744 0.006830 -0.048765
    16 3.883686 -0.046771 0.431444 0.088363 -0.006830 -0.262678
    17 1.719575 -0.000001 0.000003 0.001320 0.005356 -0.124753
    18 1.209182 -0.000001 -0.000002 0.000729 0.002997 0.022348
    19 3.859859 -0.137948 1.332468 0.345271 -0.092270 -0.395911
    20 1.719429 0.000000 0.000001 0.001487 0.003793 0.010685
    21 1.099665 0.000000 0.000001 0.000386 0.002568 -0.095080
    22 0.806047 -0.348922 1.321260 -1.409829 -0.742969 -0.479938
    23 1.789786 0.000000 0.000001 0.000000 0.007387 0.228523
    24 1.206997 0.000000 0.000001 0.000000 0.011267 0.362860
    25 2.033353 1.000771 -1.937610 -1.668475 1.286518 2.942953
    26 6.028143 -0.000001 0.000000 1.629668 0.815103 0.280183
    27 11.692550 -0.000001 -0.000001 0.000000 0.000000 -0.959943
    28 11.481696 0.000000 -0.000001 -0.325188 0.033941 0.129316
    29 3.859673 -0.132568 1.193105 0.285062 -0.419945 -0.226477
    30 1.312562 0.000001 0.000003 -0.002956 -0.011560 -0.189327
    31 0.729365 0.000000 -0.000001 -0.001629 -0.005914 0.024519
    32 3.942294 0.050328 0.431041 0.086028 -0.151392 -0.228105
    33 1.539097 0.000001 0.000000 -0.001532 -0.005650 0.017016
    34 1.196323 0.000001 0.000001 -0.002545 -0.009322 -0.164261
    35 3.883655 -0.050328 -0.431043 -0.089808 0.003109 -0.255702
    36 1.719576 0.000000 -0.000002 -0.002028 -0.007712 -0.109291
    37 1.209182 0.000001 0.000000 -0.002124 -0.003923 0.279918
    38 3.859827 -0.148935 -1.331285 -0.328792 0.140171 -0.247153
    39 1.719424 -0.000003 -0.000001 -0.002684 -0.006044 0.054920
    40 1.099667 0.000000 0.000000 0.014705 0.003231 -0.872646
    41 0.806017 -0.359832 -1.318336 1.475204 0.827508 -0.381818
    42 1.789785 -0.000001 0.000000 0.000000 -0.006301 0.228555
    43 1.206997 0.000000 0.000000 0.000000 -0.009618 0.362905
    44 0.000156 39.987263 -0.385905 0.000000 0.000000 0.000000
    45 -0.000161 -17.623965 24.162415 0.000000 0.000000 0.000000
    46 0.000005 3.345128 -2.981901 1.570796 0.083193 1.570796
    47 0.000001 0.000000 0.000000 0.000000 0.000000 -0.218144
    48 4.018313 -0.012456 0.000000 0.000000 0.076833 -0.213174
    49 3.516727 -0.113777 0.000000 0.000000 -0.019331 -0.163473
    50 8.921975 0.607578 0.000000 0.000000 0.000000 -0.191478
    51 -3.297835 15.560351 -13.566878 -1.573845 -0.002509 1.765602
  time 13
    0 0.000000 0.000000 -67.998169 1.570796 0.000000 0.000000
    1 -0.000005 22.210950 24.151521 0.000000 0.000000 0.000000
    2 0.000005 3.345128 -2.981901 1.570796 0.304437 1.570796
    3 4.018334 0.000000 0.000000 -0.002217 0.068792 -0.113416
    4 3.518569 0.000000 0.000000 -0.001198 -0.017629 -0.038804
    5 8.942640 0.000000 0.000000 0.000000 0.000000 0.024095
    6 2.033346 1.000767 1.937660 1.596637 -1.286515 2.942961
    7 6.028142 0.000000 0.000000 -1.505267 -0.814928 0.168410
    8 11.692552 -0.000001 0.000002 0.000000 0.000000 -0.959392
    9 11.481668 -0.000001 -0.000034 0.251308 -0.116743 0.140760
    10 3.859703 -0.142405 -1.191971 -0.362411 0.353793 -0.423438
    11 1.312561 -0.000001 0.000001 0.003203 0.009118 -0.101893
    12 0.729363 0.000000 -0.000001 0.001345 0.004786 0.029667
    13 3.942325 0.046771 -0.431440 -0.118512 0.124057 -0.444423
    14 1.539093 -0.000001 0.000001 0.001260 0.004278 0.038760
    15 1.196321 -0.000001 0.000002 0.002744 0.006830 -0.048765
    16 3.883686 -0.046771 0.431444 0.088363 -0.006830 -0.262678
    17 1.719575 -0.000001 0.000003 0.001320 0.005356 -0.124753
    18 1.209182 -0.000001 -0.000002 0.000729 0.002997 0.022348
    19 3.859859 -0.137948 1.332468 0.345271 -0.092270 -0.395911
    20 1.719429 0.000000 0.000001 0.001487 0.003793 0.010685
    21 1.099665 0.000000 0.000001 0.000386 0.002568 -0.095080
    22 0.806047 -0.348922 1.321260 -1.409829 -0.742969 -0.479938
    23 1.789786 0.000000 0.000001 0.000000 0.007387 0.228523
    24 1.206997 0.000000 0.000001 0.000000 0.011267 0.362860
    25 2.033353 1.000771 -1.937610 -1.668475 1.286518 2.942953
    26 6.028143 -0.000001 0.000000 1.629668 0.815103 0.280183
    27 11.692550 -0.000001 -0.000001 0.000000 0.000000 -0.959943
    28 11.481696 0.000000 -0.000001 -0.325188 0.033941 0.129316
    29 3.859673 -0.132568 1.193105 0.285062 -0.419945 -0.226477
    30 1.312562 0.000001 0.000003 -0.002956 -0.011560 -0.189327
    31 0.729365 0.000000 -0.000001 -0.001629 -0.005914 0.024519
    32 3.942294 0.050328 0.431041 0.086028 -0.151392 -0.228105
    33 1.539097 0.000001 0.000000 -0.001532 -0.005650 0.017016
    34 1.196323 0.000001 0.000001 -0.002545 -0.009322 -0.164261
    35 3.883655 -0.050328 -0.431043 -0.089808 0.003109 -0.255702
    36 1.719576 0.000000 -0.000002 -0.002028 -0.007712 -0.109291
    37 1.209182 0.000001 0.000000 -0.002124 -0.003923 0.279918
    38 3.859827 -0.148935 -1.331285 -0.328792 0.140171 -0.247153
    39 1.719424 -0.000003 -0.000001 -0.002684 -0.006044 0.054920
    40 1.099667 0.000000 0.000000 0.014705 0.003231 -0.872646
    41 0.806017 -0.359832 -1.318336 1.475204 0.827508 -0.381818
    42 1.789785 -0.000001 0.000000 0.000000 -0.006301 0.228555
    43 1.206997 0.000000 0.000000 0.000000 -0.009618 0.362905
    44 0.000156 39.987263 -0.385905 0.000000 0.000000 0.000000
    45 -0.000161 -17.776313 24.537426 0.000000 0.000000 0.000000
    46 0.000005 3.345128 -2.981901 1.570796 0.083193 1.570796
    47 0.000001 0.000000 0.000000 0.000000 0.000000 -0.218144
    48 4.018313 -0.012456 0.000000 0.000000 0.068828 -0.084103
    49 3.516727 -0.113777 0.000000 0.000000 -0.017677 -0.139140
    50 8.921975 0.607578 0.000000 0.000000 0.000000 -0.170001
    51 -3.602531 15.505662 -13.566878 -1.573845 -0.002509 1.745505
  time 14
    0 0.000000 0.000000 -67.998169 1.570796 0.000000 0.000000
    1 -0.000005 22.054695 24.479656 0.000000 0.000000 0.000000
    2 0.000005 3.345128 -2.981901 1.570796 0.304437 1.570796
    3 4.018334 0.000000 0.000000 -0.001906 0.058856 0.046714
    4 3.518569 0.000000 0.000000 -0.001055 -0.015520 -0.009504
    5 8.942640 0.000000 0.000000 0.000000 0.000000 0.050497
    6 2.033346 1.000767 1.937660 1.596637 -1.286515 2.942961
    7 6.028142 0.000000 0.000000 -1.505267 -0.814928 0.168410
    8 11.692552 -0.000001 0.000002 0.000000 0.000000 -0.959392
    9 11.481668 -0.000001 -0.000034 0.251308 -0.116743 0.140760
    10 3.859703 -0.142405 -1.191971 -0.362411 0.353793 -0.423438
    11 1.312561 -0.000001 0.000001 0.003203 0.009118 -0.101893
    12 0.729363 0.000000 -0.000001 0.001345 0.004786 0.029667
    13 3.942325 0.046771 -0.431440 -0.118512 0.124057 -0.444423
    14 1.539093 -0.000001 0.000001 0.001260 0.004278 0.038760
    15 1.196321 -0.000001 0.000002 0.002744 0.006830 -0.048765
    16 3.883686 -0.046771 0.431444 0.088363 -0.006830 -0.262678
    17 1.719575 -0.000001 0.000003 0.001320 0.005356 -0.124753
    18 1.209182 -0.000001 -0.000002 0.000729 0.002997 0.022348
    19 3.859859 -0.137948 1.332468 0.345271 -0.092270 -0.395911
    20 1.719429 0.000000 0.000001 0.001487 0.003793 0.010685
    21 1.099665 0.000000 0.000001 0.000386 0.002568 -0.095080
    22 0.806047 -0.348922 1.321260 -1.409829 -0.742969 -0.479938
    23 1.789786 0.000000 0.000001 0.000000 0.007387 0.228523
    24 1.206997 0.000000 0.000001 0.000000 0.011267 0.362860
    25 2.033353 1.000771 -1.937610 -1.668475 1.286518 2.942953
    26 6.028143 -0.000001 0.000000 1.629668 0.815103 0.280183
    27 11.692550 -0.000001 -0.000001 0.000000 0.000000 -0.959943
    28 11.481696 0.000000 -0.000001 -0.325188 0.033941 0.129316
    29 3.859673 -0.132568 1.193105 0.285062 -0.419945 -0.226477
    30 1.312562 0.000001 0.000003 -0.002956 -0.011560 -0.189327
    31 0.729365 0.000000 -0.000001 -0.001629 -0.005914 0.024519
    32 3.942294 0.050328 0.431041 0.086028 -0.151392 -0.228105
    33 1.539097 0.000001 0.000000 -0.001532 -0.005650 0.017016
    34 1.196323 0.000001 0.000001 -0.002545 -0.009322 -0.164261
    35 3.883655 -0.050328 -0.431043 -0.089808 0.003109 -0.255702
    36 1.719576 0.000000 -0.000002 -0.002028 -0.007712 -0.109291
    37 1.209182 0.000001 0.000000 -0.002124 -0.003923 0.279918
    38 3.859827 -0.148935 -1.331285 -0.328792 0.140171 -0.247153
    39 1.719424 -0.000003 -0.000001 -0.002684 -0.006044 0.054920
    40 1.099667 0.000000 0.000000 0.014705 0.003231 -0.872646
    41 0.806017 -0.359832 -1.318336 1.475204 0.827508 -0.381818
    42 1.789785 -0.000001 0.000000 0.000000 -0.006301 0.228555
    43 1.206997 0.000000 0.000000 0.000000 -0.009618 0.362905
    44 0.000156 39.987263 -0.385905 0.000000 0.000000 0.000000
    45 -0.000161 -17.932568 24.865561 0.000000 0.000000 0.000000
    46 0.000005 3.345128 -2.981901 1.570796 0.083193 1.570796
    47 0.000001 0.000000 0.000000 0.000000 0.000000 -0.218144
    48 4.018313 -0.012456 0.000000 0.000000 0.058892 0.076027
    49 3.516727 -0.113777 0.000000 0.000000 -0.015556 -0.109840
    50 8.921975 0.607578 0.000000 0.000000 0.000000 -0.143599
    51 -3.903322 15.447066 -13.566878 -1.573845 -0.002509 1.725409
  time 15
    0 0.000000 0.000000 -67.998169 1.570796 0.000000 0.000000
    1 -0.000005 21.902346 24.745289 0.000000 0.000000 0.000000
    2 0.000005 3.345128 -2.981901 1.570796 0.304437 1.570796
    3 4.018334 0.000000 0.000000 -0.001534 0.047735 0.224916
    4 3.518569 0.000000 0.000000 -0.000887 -0.013075 0.021835
    5 8.942640 0.000000 0.000000 0.000000 0.000000 0.079703
    6 2.033346 1.000767 1.937660 1.596637 -1.286515 2.942961
    7 6.028142 0.000000 0.000000 -1.505267 -0.814928 0.168410
    8 11.692552 -0.000001 0.000002 0.000000 0.000000 -0.959392
    9 11.481668 -0.000001 -0.000034 0.251308 -0.116743 0.140760
    10 3.859703 -0.142405 -1.191971 -0.362411 0.353793 -0.423438
    11 1.312561 -0.000001 0.000001 0.003203 0.009118 -0.101893
    12 0.729363 0.000000 -0.000001 0.001345 0.004786 0.029667
    13 3.942325 0.046771 -0.431440 -0.118512 0.124057 -0.444423
    14 1.539093 -0.000001 0.000001 0.001260 0.004278 0.038760
    15 1.196321 -0.000001 0.000002 0.002744 0.006830 -0.048765
    16 3.883686 -0.046771 0.431444 0.088363 -0.006830 -0.262678
    17 1.719575 -0.000001 0.000003 0.001320 0.005356 -0.124753
    18 1.209182 -0.000001 -0.000002 0.000729 0.002997 0.022348
    19 3.859859 -0.137948 1.332468 0.345271 -0.092270 -0.395911
    20 1.719429 0.000000 0.000001 0.001487 0.003793 0.010685
    21 1.099665 0.000000 0.000001 0.000386 0.002568 -0.095080
    22 0.806047 -0.348922 1.321260 -1.409829 -0.742969 -0.479938
    23 1.789786 0.000000 0.000001 0.000000 0.007387 0.228523
    24 1.206997 0.000000 0.000001 0.000000 0.011267 0.362860
    25 2.033353 1.000771 -1.937610 -1.668475 1.286518 2.942953
    26 6.028143 -0.000001 0.000000 1.629668 0.815103 0.280183
    27 11.692550 -0.000001 -0.000001 0.000000 0.000000 -0.959943
    28 11.481696 0.000000 -0.000001 -0.325188 0.033941 0.129316
    29 3.859673 -0.132568 1.193105 0.285062 -0.419945 -0.226477
    30 1.312562 0.000001 0.000003 -0.002956 -0.011560 -0.189327
    31 0.729365 0.000000 -0.000001 -0.001629 -0.005914 0.024519
    32 3.942294 0.050328 0.431041 0.086028 -0.151392 -0.228105
    33 1.539097 0.000001 0.000000 -0.001532 -0.005650 0.017016
    34 1.196323 0.000001 0.000001 -0.002545 -0.009322 -0.164261
    35 3.883655 -0.050328 -0.431043 -0.089808 0.003109 -0.255702
    36 1.719576 0.000000 -0.000002 -0.002028 -0.007712 -0.109291
    37 1.209182 0.000001 0.000000 -0.002124 -0.003923 0.279918
    38 3.859827 -0.148935 -1.331285 -0.328792 0.140171 -0.247153
    39 1.719424 -0.000003 -0.000001 -0.002684 -0.006044 0.054920
    40 1.099667 0.000000 0.000000 0.014705 0.003231 -0.872646
    41 0.806017 -0.359832 -1.318336 1.475204 0.827508 -0.381818
    42 1.789785 -0.000001 0.000000 0.000000 -0.006301 0.228555
    43 1.206997 0.000000 0.000000 0.000000 -0.009618 0.362905
    44 0.000156 39.987263 -0.385905 0.000000 0.000000 0.000000
    45 -0.000161 -18.084916 25.131194 0.000000 0.000000 0.000000
    46 0.000005 3.345128 -2.981901 1.570796 0.083193 1.570796
    47 0.000001 0.000000 0.000000 0.000000 0.000000 -0.218144
    48 4.018313 -0.012456 0.000000 0.000000 0.047759 0.254194
    49 3.516727 -0.113777 0.000000 0.000000 -0.013111 -0.078501
    50 8.921975 0.607578 0.000000 0.000000 0.000000 -0.114393
    51 -4.204112 15.388471 -13.566878 -1.573845 -0.002509 1.705531
  time 16
    0 0.000000 0.000000 -67.998169 1.570796 0.000000 0.000000
    1 -0.000005 21.753904 24.936701 0.000000 0.000000 0.000000
    2 0.000005 3.345128 -2.981901 1.570796 0.304437 1.570796
    3 4.018334 0.000000 0.000000 -0.001163 0.036158 0.405787
    4 3.518569 0.000000 0.000000 -0.000707 -0.010427 0.052334
    5 8.942640 0.000000 0.000000 0.000000 0.000000 0.109629
    6 2.033346 1.000767 1.937660 1.596637 -1.286515 2.942961
    7 6.028142 0.000000 0.000000 -1.505267 -0.814928 0.168410
    8 11.692552 -0.000001 0.000002 0.000000 0.000000 -0.959392
    9 11.481668 -0.000001 -0.000034 0.251308 -0.116743 0.140760
    10 3.859703 -0.142405 -1.191971 -0.362411 0.353793 -0.423438
    11 1.312561 -0.000001 0.000001 0.003203 0.009118 -0.101893
    12 0.729363 0.000000 -0.000001 0.001345 0.004786 0.029667
    13 3.942325 0.046771 -0.431440 -0.118512 0.124057 -0.444423
    14 1.539093 -0.000001 0.000001 0.001260 0.004278 0.038760
    15 1.196321 -0.000001 0.000002 0.002744 0.006830 -0.048765
    16 3.883686 -0.046771 0.431444 0.088363 -0.006830 -0.262678
    17 1.719575 -0.000001 0.000003 0.001320 0.005356 -0.124753
    18 1.209182 -0.000001 -0.000002 0.000729 0.002997 0.022348
    19 3.859859 -0.137948 1.332468 0.345271 -0.092270 -0.395911
    20 1.719429 0.000000 0.000001 0.001487 0.003793 0.010685
    21 1.099665 0.000000 0.000001 0.000386 0.002568 -0.095080
    22 0.806047 -0.348922 1.321260 -1.409829 -0.742969 -0.479938
    23 1.789786 0.000000 0.000001 0.000000 0.007387 0.228523
    24 1.206997 0.000000 0.000001 0.000000 0.011267 0.362860
    25 2.033353 1.000771 -1.937610 -1.668475 1.286518 2.942953
    26 6.028143 -0.000001 0.000000 1.629668 0.815103 0.280183
    27 11.692550 -0.000001 -0.000001 0.000000 0.000000 -0.959943
    28 11.481696 0.000000 -0.000001 -0.325188 0.033941 0.129316
    29 3.859673 -0.132568 1.193105 0.285062 -0.419945 -0.226477
    30 1.312562 0.000001 0.000003 -0.002956 -0.011560 -0.189327
    31 0.729365 0.000000 -0.000001 -0.001629 -0.005914 0.024519
    32 3.942294 0.050328 0.431041 0.086028 -0.151392 -0.228105
    33 1.539097 0.000001 0.000000 -0.001532 -0.005650 0.017016
    34 1.196323 0.000001 0.000001 -0.002545 -0.009322 -0.164261
    35 3.883655 -0.050328 -0.431043 -0.089808 0.003109 -0.255702
    36 1.719576 0.000000 -0.000002 -0.002028 -0.007712 -0.109291
    37 1.209182 0.000001 0.000000 -0.002124 -0.003923 0.279918
    38 3.859827 -0.148935 -1.331285 -0.328792 0.140171 -0.247153
    39 1.719424 -0.000003 -0.000001 -0.002684 -0.006044 0.054920
    40 1.099667 0.000000 0.000000 0.014705 0.003231 -0.872646
    41 0.806017 -0.359832 -1.318336 1.475204 0.827508 -0.381818
    42 1.789785 -0.000001 0.000000 0.000000 -0.006301 0.228555
    43 1.206997 0.000000 0.000000 0.000000 -0.009618 0.362905
    44 0.000156 39.987263 -0.385905 0.000000 0.000000 0.000000
    45 -0.000161 -18.233359 25.322606 0.000000 0.000000 0.000000
    46 0.000005 3.345128 -2.981901 1.570796 0.083193 1.570796
    47 0.000001 0.000000 0.000000 0.000000 0.000000 -0.218144
    48 4.018313 -0.012456 0.000000 0.000000 0.036169 0.435029
    49 3.516727 -0.113777 0.000000 0.000000 -0.010451 -0.048002
    50 8.921975 0.607578 0.000000 0.000000 0.000000 -0.084467
    51 -4.497090 15.333782 -13.566878 -1.573845 -0.002509 1.686119
  time 17
    0 0.000000 0.000000 -67.998169 1.570796 0.000000 0.000000
    1 -0.000005 21.605462 25.042173 0.000000 0.000000 0.000000
    2 0.000005 3.345128 -2.981901 1.570796 0.304437 1.570796
    3 4.018334 0.000000 0.000000 -0.000803 0.024856 0.572534
    4 3.518569 0.000000 0.000000 -0.000515 -0.007706 0.079367
    5 8.942640 0.000000 0.000000 0.000000 0.000000 0.138140
    6 2.033346 1.000767 1.937660 1.596637 -1.286515 2.942961
    7 6.028142 0.000000 0.000000 -1.505267 -0.814928 0.168410
    8 11.692552 -0.000001 0.000002 0.000000 0.000000 -0.959392
    9 11.481668 -0.000001 -0.000034 0.251308 -0.116743 0.140760
    10 3.859703 -0.142405 -1.191971 -0.362411 0.353793 -0.423438
    11 1.312561 -0.000001 0.000001 0.003203 0.009118 -0.101893
    12 0.729363 0.000000 -0.000001 0.001345 0.004786 0.029667
    13 3.942325 0.046771 -0.431440 -0.118512 0.124057 -0.444423
    14 1.539093 -0.000001 0.000001 0.001260 0.004278 0.038760
    15 1.196321 -0.000001 0.000002 0.002744 0.006830 -0.048765
    16 3.883686 -0.046771 0.431444 0.088363 -0.006830 -0.262678
    17 1.719575 -0.000001 0.000003 0.001320 0.005356 -0.124753
    18 1.209182 -0.000001 -0.000002 0.000729 0.002997 0.022348
    19 3.859859 -0.137948 1.332468 0.345271 -0.092270 -0.395911
    20 1.719429 0.000000 0.000001 0.001487 0.003793 0.010685
    21 1.099665 0.000000 0.000001 0.000386 0.002568 -0.095080
    22 0.806047 -0.348922 1.321260 -1.409829 -0.742969 -0.479938
    23 1.789786 0.000000 0.000001 0.000000 0.007387 0.228523
    24 1.206997 0.000000 0.000001 0.000000 0.011267 0.362860
    25 2.033353 1.000771 -1.937610 -1.668475 1.286518 2.942953
    26 6.028143 -0.000001 0.000000 1.629668 0.815103 0.280183
    27 11.692550 -0.000001 -0.000001 0.000000 0.000000 -0.959943
    28 11.481696 0.000000 -0.000001 -0.325188 0.033941 0.129316
    29 3.859673 -0.132568 1.193105 0.285062 -0.419945 -0.226477
    30 1.312562 0.000001 0.000003 -0.002956 -0.011560 -0.189327
    31 0.729365 0.000000 -0.000001 -0.001629 -0.005914 0.024519
    32 3.942294 0.050328 0.431041 0.086028 -0.151392 -0.228105
    33 1.539097 0.000001 0.000000 -0.001532 -0.005650 0.017016
    34 1.196323 0.000001 0.000001 -0.002545 -0.009322 -0.164261
    35 3.883655 -0.050328 -0.431043 -0.089808 0.003109 -0.255702
    36 1.719576 0.000000 -0.000002 -0.002028 -0.007712 -0.109291
    37 1.209182 0.000001 0.000000 -0.002124 -0.003923 0.279918
    38 3.859827 -0.148935 -1.331285 -0.328792 0.140171 -0.247153
    39 1.719424 -0.000003 -0.000001 -0.002684 -0.006044 0.054920
    40 1.099667 0.000000 0.000000 0.014705 0.003231 -0.872646
    41 0.806017 -0.359832 -1.318336 1.475204 0.827508 -0.381818
    42 1.789785 -0.000001 0.000000 0.000000 -0.006301 0.228555
    43 1.206997 0.000000 0.000000 0.000000 -0.009618 0.362905
    44 0.000156 39.987263 -0.385905 0.000000 0.000000 0.000000
    45 -0.000161 -18.381801 25.428078 0.000000 0.000000 0.000000
    46 0.000005 3.345128 -2.981901 1.570796 0.083193 1.570796
    47 0.000001 0.000000 0.000000 0.000000 0.000000 -0.218144
    48 4.018313 -0.012456 0.000000 0.000000 0.024868 0.601776
    49 3.516727 -0.113777 0.000000 0.000000 -0.007718 -0.020969
    50 8.921975 0.607578 0.000000 0.000000 0.000000 -0.055956
    51 -4.778348 15.279093 -13.566878 -1.573845 -0.002509 1.667419
  time 18
    0 0.000000 0.000000 -67.998169 1.570796 0.000000 0.000000
    1 -0.000005 21.464833 25.038267 0.000000 0.000000 0.000000
    2 0.000005 3.345128 -2.981901 1.570796 0.304437 1.570796
    3 4.018334 0.000000 0.000000 -0.000467 0.014573 0.707902
    4 3.518569 0.000000 0.000000 -0.000336 -0.005022 0.100744
    5 8.942640 0.000000 0.000000 0.000000 0.000000 0.163128
    6 2.033346 1.000767 1.937660 1.596637 -1.286515 2.942961
    7 6.028142 0.000000 0.000000 -1.505267 -0.814928 0.168410
    8 11.692552 -0.000001 0.000002 0.000000 0.000000 -0.959392
    9 11.481668 -0.000001 -0.000034 0.251308 -0.116743 0.140760
    10 3.859703 -0.142405 -1.191971 -0.362411 0.353793 -0.423438
    11 1.312561 -0.000001 0.000001 0.003203 0.009118 -0.101893
    12 0.729363 0.000000 -0.000001 0.001345 0.004786 0.029667
    13 3.942325 0.046771 -0.431440 -0.118512 0.124057 -0.444423
    14 1.539093 -0.000001 0.000001 0.001260 0.004278 0.038760
    15 1.196321 -0.000001 0.000002 0.002744 0.006830 -0.048765
    16 3.883686 -0.046771 0.431444 0.088363 -0.006830 -0.262678
    17 1.719575 -0.000001 0.000003 0.001320 0.005356 -0.124753
    18 1.209182 -0.000001 -0.000002 0.000729 0.002997 0.022348
    19 3.859859 -0.137948 1.332468 0.345271 -0.092270 -0.395911
    20 1.719429 0.000000 0.000001 0.001487 0.003793 0.010685
    21 1.099665 0.000000 0.000001 0.000386 0.002568 -0.095080
    22 0.806047 -0.348922 1.321260 -1.409829 -0.742969 -0.479938
    23 1.789786 0.000000 0.000001 0.000000 0.007387 0.228523
    24 1.206997 0.000000 0.000001 0.000000 0.011267 0.362860
    25 2.033353 1.000771 -1.937610 -1.668475 1.286518 2.942953
    26 6.028143 -0.000001 0.000000 1.629668 0.815103 0.280183
    27 11.692550 -0.000001 -0.000001 0.000000 0.000000 -0.959943
    28 11.481696 0.000000 -0.000001 -0.325188 0.033941 0.129316
    29 3.859673 -0.132568 1.193105 0.285062 -0.419945 -0.226477
    30 1.312562 0.000001 0.000003 -0.002956 -0.011560 -0.189327
    31 0.729365 0.000000 -0.000001 -0.001629 -0.005914 0.024519
    32 3.942294 0.050328 0.431041 0.086028 -0.151392 -0.228105
    33 1.539097 0.000001 0.000000 -0.001532 -0.005650 0.017016
    34 1.196323 0.000001 0.000001 -0.002545 -0.009322 -0.164261
    35 3.883655 -0.050328 -0.431043 -0.089808 0.003109 -0.255702
    36 1.719576 0.000000 -0.000002 -0.002028 -0.007712 -0.109291
    37 1.209182 0.000001 0.000000 -0.002124 -0.003923 0.279918
    38 3.859827 -0.148935 -1.331285 -0.328792 0.140171 -0.247153
    39 1.719424 -0.000003 -0.000001 -0.002684 -0.006044 0.054920
    40 1.099667 0.000000 0.000000 0.014705 0.003231 -0.872646
    41 0.806017 -0.359832 -1.318336 1.475204 0.827508 -0.381818
    42 1.789785 -0.000001 0.000000 0.000000 -0.006301 0.228555
    43 1.206997 0.000000 0.000000 0.000000 -0.009618 0.362905
    44 0.000156 39.987263 -0.385905 0.000000 0.000000 0.000000
    45 -0.000161 -18.522430 25.424172 0.000000 0.000000 0.000000
    46 0.000005 3.345128 -2.981901 1.570796 0.083193 1.570796
    47 0.000001 0.000000 0.000000 0.000000 0.000000 -0.218144
    48 4.018313 -0.012456 0.000000 0.000000 0.014573 0.737145
    49 3.516727 -0.113777 0.000000 0.000000 -0.005034 0.000408
    50 8.921975 0.607578 0.000000 0.000000 0.000000 -0.030968
    51 -5.047888 15.228310 -13.566878 -1.573845 -0.002509 1.649664
  time 19
    0 0.000000 0.000000 -67.998169 1.570796 0.000000 0.000000
    1 -0.000005 21.332016 25.038267 0.000000 0.000000 0.000000
    2 0.000005 3.345128 -2.981901 1.570796 0.304437 1.570796
    3 4.018334 0.000000 0.000000 -0.000192 0.006040 0.795207
    4 3.518569 0.000000 0.000000 -0.000168 -0.002517 0.114884
    5 8.942640 0.000000 0.000000 0.000000 0.000000 0.182483
    6 2.033346 1.000767 1.937660 1.596637 -1.286515 2.942961
    7 6.028142 0.000000 0.000000 -1.505267 -0.814928 0.168410
    8 11.692552 -0.000001 0.000002 0.000000 0.000000 -0.959392
    9 11.481668 -0.000001 -0.000034 0.251308 -0.116743 0.140760
    10 3.859703 -0.142405 -1.191971 -0.362411 0.353793 -0.423438
    11 1.312561 -0.000001 0.000001 0.003203 0.009118 -0.101893
    12 0.729363 0.000000 -0.000001 0.001345 0.004786 0.029667
    13 3.942325 0.046771 -0.431440 -0.118512 0.124057 -0.444423
    14 1.539093 -0.000001 0.000001 0.001260 0.004278 0.038760
    15 1.196321 -0.000001 0.000002 0.002744 0.006830 -0.048765
    16 3.883686 -0.046771 0.431444 0.088363 -0.006830 -0.262678
    17 1.719575 -0.000001 0.000003 0.001320 0.005356 -0.124753
    18 1.209182 -0.000001 -0.000002 0.000729 0.002997 0.022348
    19 3.859859 -0.137948 1.332468 0.345271 -0.092270 -0.395911
    20 1.719429 0.000000 0.000001 0.001487 0.003793 0.010685
    21 1.099665 0.000000 0.000001 0.000386 0.002568 -0.095080
    22 0.806047 -0.348922 1.321260 -1.409829 -0.742969 -0.479938
    23 1.789786 0.000000 0.000001 0.000000 0.007387 0.228523
    24 1.206997 0.000000 0.000001 0.000000 0.011267 0.362860
    25 2.033353 1.000771 -1.937610 -1.668475 1.286518 2.942953
    26 6.028143 -0.000001 0.000000 1.629668 0.815103 0.280183
    27 11.692550 -0.000001 -0.000001 0.000000 0.000000 -0.959943
    28 11.481696 0.000000 -0.000001 -0.325188 0.033941 0.129316
    29 3.859673 -0.132568 1.193105 0.285062 -0.419945 -0.226477
    30 1.312562 0.000001 0.000003 -0.002956 -0.011560 -0.189327
    31 0.729365 0.000000 -0.000001 -0.001629 -0.005914 0.024519
    32 3.942294 0.050328 0.431041 0.086028 -0.151392 -0.228105
    33 1.539097 0.000001 0.000000 -0.001532 -0.005650 0.017016
    34 1.196323 0.000001 0.000001 -0.002545 -0.009322 -0.164261
    35 3.883655 -0.050328 -0.431043 -0.089808 0.003109 -0.255702
    36 1.719576 0.000000 -0.000002 -0.002028 -0.007712 -0.109291
    37 1.209182 0.000001 0.000000 -0.002124 -0.003923 0.279918
    38 3.859827 -0.148935 -1.331285 -0.328792 0.140171 -0.247153
    39 1.719424 -0.000003 -0.000001 -0.002684 -0.006044 0.054920
    40 1.099667 0.000000 0.000000 0.014705 0.003231 -0.872646
    41 0.806017 -0.359832 -1.318336 1.475204 0.827508 -0.381818
    42 1.789785 -0.000001 0.000000 0.000000 -0.006301 0.228555
    43 1.206997 0.000000 0.000000 0.000000 -0.009618 0.362905
    44 0.000156 39.987263 -0.385905 0.000000 0.000000 0.000000
    45 -0.000161 -18.655246 25.424172 0.000000 0.000000 0.000000
    46 0.000005 3.345128 -2.981901 1.570796 0.083193 1.570796
    47 0.000001 0.000000 0.000000 0.000000 0.000000 -0.218144
    48 4.018313 -0.012456 0.000000 0.000000 0.006040 0.824450
    49 3.516727 -0.113777 0.000000 0.000000 -0.002517 0.014548
    50 8.921975 0.607578 0.000000 0.000000 0.000000 -0.011613
    51 -5.297896 15.181433 -13.566878 -1.573845 -0.002509 1.633072
  time 20
    0 0.000000 0.000000 -67.998169 1.570796 0.000000 0.000000
    1 -0.000005 21.210919 25.038267 0.000000 0.000000 0.000000
    2 0.000005 3.345128 -2.981901 1.570796 0.304437 1.570796
    3 4.018334 0.000000 0.000000 0.000000 0.000000 0.819470
    4 3.518569 0.000000 0.000000 -0.000012 -0.000300 0.120617
    5 8.942640 0.000000 0.000000 0.000000 0.000000 0.194096
    6 2.033346 1.000767 1.937660 1.596637 -1.286515 2.942961
    7 6.028142 0.000000 0.000000 -1.505267 -0.814928 0.168410
    8 11.692552 -0.000001 0.000002 0.000000 0.000000 -0.959392
    9 11.481668 -0.000001 -0.000034 0.251308 -0.116743 0.140760
    10 3.859703 -0.142405 -1.191971 -0.362411 0.353793 -0.423438
    11 1.312561 -0.000001 0.000001 0.003203 0.009118 -0.101893
    12 0.729363 0.000000 -0.000001 0.001345 0.004786 0.029667
    13 3.942325 0.046771 -0.431440 -0.118512 0.124057 -0.444423
    14 1.539093 -0.000001 0.000001 0.001260 0.004278 0.038760
    15 1.196321 -0.000001 0.000002 0.002744 0.006830 -0.048765
    16 3.883686 -0.046771 0.431444 0.088363 -0.006830 -0.262678
    17 1.719575 -0.000001 0.000003 0.001320 0.005356 -0.124753
    18 1.209182 -0.000001 -0.000002 0.000729 0.002997 0.022348
    19 3.859859 -0.137948 1.332468 0.345271 -0.092270 -0.395911
    20 1.719429 0.000000 0.000001 0.001487 0.003793 0.010685
    21 1.099665 0.000000 0.000001 0.000386 0.002568 -0.095080
    22 0.806047 -0.348922 1.321260 -1.409829 -0.742969 -0.479938
    23 1.789786 0.000000 0.000001 0.000000 0.007387 0.228523
    24 1.206997 0.000000 0.000001 0.000000 0.011267 0.362860
    25 2.033353 1.000771 -1.937610 -1.668475 1.286518 2.942953
    26 6.028143 -0.000001 0.000000 1.629668 0.815103 0.280183
    27 11.692550 -0.000001 -0.000001 0.000000 0.000000 -0.959943
    28 11.481696 0.000000 -0.000001 -0.325188 0.033941 0.129316
    29 3.859673 -0.132568 1.193105 0.285062 -0.419945 -0.226477
    30 1.312562 0.000001 0.000003 -0.002956 -0.011560 -0.189327
    31 0.729365 0.000000 -0.000001 -0.001629 -0.005914 0.024519
    32 3.942294 0.050328 0.431041 0.086028 -0.151392 -0.228105
    33 1.539097 0.000001 0.000000 -0.001532 -0.005650 0.017016
    34 1.196323 0.000001 0.000001 -0.002545 -0.009322 -0.164261
    35 3.883655 -0.050328 -0.431043 -0.089808 0.003109 -0.255702
    36 1.719576 0.000000 -0.000002 -0.002028 -0.007712 -0.109291
    37 1.209182 0.000001 0.000000 -0.002124 -0.003923 0.279918
    38 3.859827 -0.148935 -1.331285 -0.328792 0.140171 -0.247153
    39 1.719424 -0.000003 -0.000001 -0.002684 -0.006044 0.054920
    40 1.099667 0.000000 0.000000 0.014705 0.003231 -0.872646
    41 0.806017 -0.359832 -1.318336 1.475204 0.827508 -0.381818
    42 1.789785 -0.000001 0.000000 0.000000 -0.006301 0.228555
    43 1.206997 0.000000 0.000000 0.000000 -0.009618 0.362905
    44 0.000156 39.987263 -0.385905 0.000000 0.000000 0.000000
    45 -0.000161 -18.776344 25.424172 0.000000 0.000000 0.000000
    46 0.000005 3.345128 -2.981901 1.570796 0.083193 1.570796
    47 0.000001 0.000000 0.000000 0.000000 0.000000 -0.218144
    48 4.018313 -0.012456 0.000000 0.000000 0.000000 0.848713
    49 3.516727 -0.113777 0.000000 0.000000 -0.000300 0.020281
    50 8.921975 0.607578 0.000000 0.000000 0.000000 0.000000
    51 -5.524465 15.138463 -13.566878 -1.573845 -0.002509 1.617920
end
