// Created by Crowbar 0.74
version 1
nodes
  0 "ValveBiped" -1
  1 "ValveBiped.Bip01" 0
  2 "ValveBiped.Bip01_Spine" 1
  3 "ValveBiped.Bip01_Spine1" 2
  4 "ValveBiped.Bip01_Spine2" 3
  5 "ValveBiped.Bip01_Spine4" 4
  6 "ValveBiped.Bip01_L_Clavicle" 5
  7 "ValveBiped.Bip01_L_UpperArm" 6
  8 "ValveBiped.Bip01_L_Forearm" 7
  9 "ValveBiped.Bip01_L_Hand" 8
  10 "ValveBiped.Bip01_L_Finger4" 9
  11 "ValveBiped.Bip01_L_Finger41" 10
  12 "ValveBiped.Bip01_L_Finger42" 11
  13 "ValveBiped.Bip01_L_Finger3" 9
  14 "ValveBiped.Bip01_L_Finger31" 13
  15 "ValveBiped.Bip01_L_Finger32" 14
  16 "ValveBiped.Bip01_L_Finger2" 9
  17 "ValveBiped.Bip01_L_Finger21" 16
  18 "ValveBiped.Bip01_L_Finger22" 17
  19 "ValveBiped.Bip01_L_Finger1" 9
  20 "ValveBiped.Bip01_L_Finger11" 19
  21 "ValveBiped.Bip01_L_Finger12" 20
  22 "ValveBiped.Bip01_L_Finger0" 9
  23 "ValveBiped.Bip01_L_Finger01" 22
  24 "ValveBiped.Bip01_L_Finger02" 23
  25 "ValveBiped.Bip01_R_Clavicle" 5
  26 "ValveBiped.Bip01_R_UpperArm" 25
  27 "ValveBiped.Bip01_R_Forearm" 26
  28 "ValveBiped.Bip01_R_Hand" 27
  29 "ValveBiped.Bip01_R_Finger4" 28
  30 "ValveBiped.Bip01_R_Finger41" 29
  31 "ValveBiped.Bip01_R_Finger42" 30
  32 "ValveBiped.Bip01_R_Finger3" 28
  33 "ValveBiped.Bip01_R_Finger31" 32
  34 "ValveBiped.Bip01_R_Finger32" 33
  35 "ValveBiped.Bip01_R_Finger2" 28
  36 "ValveBiped.Bip01_R_Finger21" 35
  37 "ValveBiped.Bip01_R_Finger22" 36
  38 "ValveBiped.Bip01_R_Finger1" 28
  39 "ValveBiped.Bip01_R_Finger11" 38
  40 "ValveBiped.Bip01_R_Finger12" 39
  41 "ValveBiped.Bip01_R_Finger0" 28
  42 "ValveBiped.Bip01_R_Finger01" 41
  43 "ValveBiped.Bip01_R_Finger02" 42
  44 "ValveBiped.UpperBodyParent" 0
  45 "ValveBiped.UpperBody" 44
  46 "ValveBiped.SpineControlParent" 45
  47 "ValveBiped.SpineControl" 46
  48 "ValveBiped.SpineControl1" 47
  49 "ValveBiped.SpineControl2" 48
  50 "ValveBiped.SpineControl3" 49
  51 "ValveBiped.Bip01_R_Hand1" 50
end
skeleton
  time 0
    0 0.000000 0.000000 -67.998169 1.570796 0.000000 0.000000
    1 -0.000005 21.210919 25.038267 0.000000 0.000000 0.000000
    2 0.000005 3.345128 -2.981901 1.570796 0.304437 1.570796
    3 4.018334 0.000000 0.000000 0.000000 0.000000 0.819470
    4 3.518569 0.000000 0.000000 -0.000012 -0.000300 0.120617
    5 8.942640 0.000000 0.000000 0.000000 0.000000 0.194096
    6 2.033346 1.000767 1.937660 1.596637 -1.286515 2.942961
    7 6.028142 0.000000 0.000000 -1.505267 -0.814928 0.168410
    8 11.692552 -0.000001 0.000002 0.000000 0.000000 -0.959392
    9 11.481668 -0.000001 -0.000034 0.251308 -0.116743 0.140760
    10 3.859703 -0.142405 -1.191971 -0.362411 0.353793 -0.423438
    11 1.312561 -0.000001 0.000001 0.003203 0.009118 -0.101893
    12 0.729363 0.000000 -0.000001 0.001345 0.004786 0.029667
    13 3.942325 0.046771 -0.431440 -0.118512 0.124057 -0.444423
    14 1.539093 -0.000001 0.000001 0.001260 0.004278 0.038760
    15 1.196321 -0.000001 0.000002 0.002744 0.006830 -0.048765
    16 3.883686 -0.046771 0.431444 0.088363 -0.006830 -0.262678
    17 1.719575 -0.000001 0.000003 0.001320 0.005356 -0.124753
    18 1.209182 -0.000001 -0.000002 0.000729 0.002997 0.022348
    19 3.859859 -0.137948 1.332468 0.345271 -0.092270 -0.395911
    20 1.719429 0.000000 0.000001 0.001487 0.003793 0.010685
    21 1.099665 0.000000 0.000001 0.000386 0.002568 -0.095080
    22 0.806047 -0.348922 1.321260 -1.409829 -0.742969 -0.479938
    23 1.789786 0.000000 0.000001 0.000000 0.007387 0.228523
    24 1.206997 0.000000 0.000001 0.000000 0.011267 0.362860
    25 2.033353 1.000771 -1.937610 -1.668475 1.286518 2.942953
    26 6.028143 -0.000001 0.000000 1.629668 0.815103 0.280183
    27 11.692550 -0.000001 -0.000001 0.000000 0.000000 -0.959943
    28 11.481696 0.000000 -0.000001 -0.325188 0.033941 0.129316
    29 3.859673 -0.132568 1.193105 0.285062 -0.419945 -0.226477
    30 1.312562 0.000001 0.000003 -0.002956 -0.011560 -0.189327
    31 0.729365 0.000000 -0.000001 -0.001629 -0.005914 0.024519
    32 3.942294 0.050328 0.431041 0.086028 -0.151392 -0.228105
    33 1.539097 0.000001 0.000000 -0.001532 -0.005650 0.017016
    34 1.196323 0.000001 0.000001 -0.002545 -0.009322 -0.164261
    35 3.883655 -0.050328 -0.431043 -0.089808 0.003109 -0.255702
    36 1.719576 0.000000 -0.000002 -0.002028 -0.007712 -0.109291
    37 1.209182 0.000001 0.000000 -0.002124 -0.003923 0.279918
    38 3.859827 -0.148935 -1.331285 -0.328792 0.140171 -0.247153
    39 1.719424 -0.000003 -0.000001 -0.002684 -0.006044 0.054920
    40 1.099667 0.000000 0.000000 0.014705 0.003231 -0.872646
    41 0.806017 -0.359832 -1.318336 1.475204 0.827508 -0.381818
    42 1.789785 -0.000001 0.000000 0.000000 -0.006301 0.228555
    43 1.206997 0.000000 0.000000 0.000000 -0.009618 0.362905
    44 0.000156 39.987263 -0.385905 0.000000 0.000000 0.000000
    45 -0.000161 -18.776344 25.424172 0.000000 0.000000 0.000000
    46 0.000005 3.345128 -2.981901 1.570796 0.083193 1.570796
    47 0.000001 0.000000 0.000000 0.000000 0.000000 -0.218144
    48 4.018313 -0.012456 0.000000 0.000000 0.000000 0.848713
    49 3.516727 -0.113777 0.000000 0.000000 -0.000300 0.020281
    50 8.921975 0.607578 0.000000 0.000000 0.000000 0.000000
    51 -5.524465 15.138463 -13.566878 -1.573845 -0.002509 1.617920
  time 1
    0 0.000000 0.000000 -67.998169 1.570796 0.000000 0.000000
    1 -0.000005 21.363267 25.038267 0.000000 0.000000 0.000000
    2 0.000005 3.345128 -2.981901 1.570796 0.304437 1.570796
    3 4.018334 0.000000 0.000000 0.000120 -0.003883 0.778379
    4 3.518569 0.000000 0.000000 0.000096 0.001510 0.120515
    5 8.942640 0.000000 0.000000 0.000000 0.000000 0.200448
    6 2.033346 1.000767 1.937660 1.596637 -1.286515 2.942961
    7 6.028142 0.000000 0.000000 -1.505267 -0.814928 0.168410
    8 11.692552 -0.000001 0.000002 0.000000 0.000000 -0.959392
    9 11.481668 -0.000001 -0.000034 0.251308 -0.116743 0.140760
    10 3.859703 -0.142405 -1.191971 -0.362411 0.353793 -0.423438
    11 1.312561 -0.000001 0.000001 0.003203 0.009118 -0.101893
    12 0.729363 0.000000 -0.000001 0.001345 0.004786 0.029667
    13 3.942325 0.046771 -0.431440 -0.118512 0.124057 -0.444423
    14 1.539093 -0.000001 0.000001 0.001260 0.004278 0.038760
    15 1.196321 -0.000001 0.000002 0.002744 0.006830 -0.048765
    16 3.883686 -0.046771 0.431444 0.088363 -0.006830 -0.262678
    17 1.719575 -0.000001 0.000003 0.001320 0.005356 -0.124753
    18 1.209182 -0.000001 -0.000002 0.000729 0.002997 0.022348
    19 3.859859 -0.137948 1.332468 0.345271 -0.092270 -0.395911
    20 1.719429 0.000000 0.000001 0.001487 0.003793 0.010685
    21 1.099665 0.000000 0.000001 0.000386 0.002568 -0.095080
    22 0.806047 -0.348922 1.321260 -1.409829 -0.742969 -0.479938
    23 1.789786 0.000000 0.000001 0.000000 0.007387 0.228523
    24 1.206997 0.000000 0.000001 0.000000 0.011267 0.362860
    25 2.033353 1.000771 -1.937610 -1.668475 1.286518 2.942953
    26 6.028143 -0.000001 0.000000 1.629668 0.815103 0.280183
    27 11.692550 -0.000001 -0.000001 0.000000 0.000000 -0.959943
    28 11.481696 0.000000 -0.000001 -0.325188 0.033941 0.129316
    29 3.859673 -0.132568 1.193105 0.285062 -0.419945 -0.226477
    30 1.312562 0.000001 0.000003 -0.002956 -0.011560 -0.189327
    31 0.729365 0.000000 -0.000001 -0.001629 -0.005914 0.024519
    32 3.942294 0.050328 0.431041 0.086028 -0.151392 -0.228105
    33 1.539097 0.000001 0.000000 -0.001532 -0.005650 0.017016
    34 1.196323 0.000001 0.000001 -0.002545 -0.009322 -0.164261
    35 3.883655 -0.050328 -0.431043 -0.089808 0.003109 -0.255702
    36 1.719576 0.000000 -0.000002 -0.002028 -0.007712 -0.109291
    37 1.209182 0.000001 0.000000 -0.002124 -0.003923 0.279918
    38 3.859827 -0.148935 -1.331285 -0.328792 0.140171 -0.247153
    39 1.719424 -0.000003 -0.000001 -0.002684 -0.006044 0.054920
    40 1.099667 0.000000 0.000000 0.014705 0.003231 -0.872646
    41 0.806017 -0.359832 -1.318336 1.475204 0.827508 -0.381818
    42 1.789785 -0.000001 0.000000 0.000000 -0.006301 0.228555
    43 1.206997 0.000000 0.000000 0.000000 -0.009618 0.362905
    44 0.000156 39.987263 -0.385905 0.000000 0.000000 0.000000
    45 -0.000161 -18.623995 25.424172 0.000000 0.000000 0.000000
    46 0.000005 3.345128 -2.981901 1.570796 0.083193 1.570796
    47 0.000001 0.000000 0.000000 0.000000 0.000000 -0.218144
    48 4.018313 -0.012456 0.000000 0.000000 -0.003883 0.807622
    49 3.516727 -0.113777 0.000000 0.000000 0.001510 0.020179
    50 8.921975 0.607578 0.000000 0.000000 0.000000 0.006352
    51 -5.524465 15.138463 -13.566878 -1.573845 -0.002509 1.617920
  time 2
    0 0.000000 0.000000 -67.998169 1.570796 0.000000 0.000000
    1 -0.000005 22.609399 23.573379 0.000000 0.000000 0.000000
    2 0.000005 3.345128 -2.981901 1.570796 0.304437 1.570796
    3 4.018334 0.000000 0.000000 0.000204 -0.006556 0.686450
    4 3.518569 0.000000 0.000000 0.000228 0.003416 0.120133
    5 8.942640 0.000000 0.000000 0.000000 0.000000 0.205493
    6 2.033346 1.000767 1.937660 1.596637 -1.286515 2.942961
    7 6.028142 0.000000 0.000000 -1.511958 -0.814467 0.157460
    8 11.692552 -0.000001 0.000002 0.000000 0.000000 -0.959392
    9 11.481668 -0.000001 -0.000034 0.205584 -0.118996 0.212954
    10 3.859703 -0.142405 -1.191971 -0.362411 0.353793 -0.423438
    11 1.312561 -0.000001 0.000001 0.003203 0.009118 -0.101893
    12 0.729363 0.000000 -0.000001 0.001345 0.004786 0.029667
    13 3.942325 0.046771 -0.431440 -0.118512 0.124057 -0.444423
    14 1.539093 -0.000001 0.000001 0.001260 0.004278 0.038760
    15 1.196321 -0.000001 0.000002 0.002744 0.006830 -0.048765
    16 3.883686 -0.046771 0.431444 0.088363 -0.006830 -0.262678
    17 1.719575 -0.000001 0.000003 0.001320 0.005356 -0.124753
    18 1.209182 -0.000001 -0.000002 0.000729 0.002997 0.022348
    19 3.859859 -0.137948 1.332468 0.345271 -0.092270 -0.395911
    20 1.719429 0.000000 0.000001 0.001487 0.003793 0.010685
    21 1.099665 0.000000 0.000001 0.000386 0.002568 -0.095080
    22 0.806047 -0.348922 1.321260 -1.409829 -0.742969 -0.479938
    23 1.789786 0.000000 0.000001 0.000000 0.007387 0.228523
    24 1.206997 0.000000 0.000001 0.000000 0.011267 0.362860
    25 2.033353 1.000771 -1.937610 -1.668475 1.286518 2.942953
    26 6.028143 -0.000001 0.000000 1.637594 0.815679 0.267119
    27 11.692550 -0.000001 -0.000001 0.000000 0.000000 -0.959943
    28 11.481696 0.000000 -0.000001 -0.291289 0.038699 0.194929
    29 3.859673 -0.132568 1.193105 0.285062 -0.419945 -0.226477
    30 1.312562 0.000001 0.000003 -0.002956 -0.011560 -0.189327
    31 0.729365 0.000000 -0.000001 -0.001629 -0.005914 0.024519
    32 3.942294 0.050328 0.431041 0.086028 -0.151392 -0.228105
    33 1.539097 0.000001 0.000000 -0.001532 -0.005650 0.017016
    34 1.196323 0.000001 0.000001 -0.002545 -0.009322 -0.164261
    35 3.883655 -0.050328 -0.431043 -0.089808 0.003109 -0.255702
    36 1.719576 0.000000 -0.000002 -0.002028 -0.007712 -0.109291
    37 1.209182 0.000001 0.000000 -0.002124 -0.003923 0.279918
    38 3.859827 -0.148935 -1.331285 -0.328792 0.140171 -0.247153
    39 1.719424 -0.000003 -0.000001 -0.002684 -0.006044 0.054920
    40 1.099667 0.000000 0.000000 0.014705 0.003231 -0.872646
    41 0.806017 -0.359832 -1.318336 1.475204 0.827508 -0.381818
    42 1.789785 -0.000001 0.000000 0.000000 -0.006301 0.228555
    43 1.206997 0.000000 0.000000 0.000000 -0.009618 0.362905
    44 0.000156 39.987263 -0.385905 0.000000 0.000000 0.000000
    45 -0.000161 -17.377864 23.959284 0.000000 0.000000 0.000000
    46 0.000005 3.345128 -2.981901 1.570796 0.083193 1.570796
    47 0.000001 0.000000 0.000000 0.000000 0.000000 -0.218144
    48 4.018313 -0.012456 0.000000 0.000000 -0.006556 0.715692
    49 3.516727 -0.113777 0.000000 0.000000 0.003428 0.019797
    50 8.921975 0.607578 0.000000 0.000000 0.000000 0.011397
    51 -5.524465 15.138463 -13.566878 -1.573845 -0.002509 1.617920
  time 3
    0 0.000000 0.000000 -67.998169 1.570796 0.000000 0.000000
    1 -0.000005 25.148539 20.252965 0.000000 0.000000 0.000000
    2 0.000005 3.345128 -2.981901 1.570796 0.304437 1.570796
    3 4.018334 0.000000 0.000000 0.000264 -0.008197 0.555706
    4 3.518569 0.000000 0.000000 0.000360 0.005369 0.119496
    5 8.942640 0.000000 0.000000 0.000000 0.000000 0.209352
    6 2.033346 1.000767 1.937660 1.596637 -1.286515 2.942961
    7 6.028142 0.000000 0.000000 -1.563702 -0.798325 0.211814
    8 11.692552 -0.000001 0.000002 0.000000 0.000000 -1.015801
    9 11.481668 -0.000001 -0.000034 0.090647 -0.116431 0.307659
    10 3.859703 -0.142405 -1.191971 -0.362411 0.353793 -0.423438
    11 1.312561 -0.000001 0.000001 0.003203 0.009118 -0.101893
    12 0.729363 0.000000 -0.000001 0.001345 0.004786 0.029667
    13 3.942325 0.046771 -0.431440 -0.118512 0.124057 -0.444423
    14 1.539093 -0.000001 0.000001 0.001260 0.004278 0.038760
    15 1.196321 -0.000001 0.000002 0.002744 0.006830 -0.048765
    16 3.883686 -0.046771 0.431444 0.088363 -0.006830 -0.262678
    17 1.719575 -0.000001 0.000003 0.001320 0.005356 -0.124753
    18 1.209182 -0.000001 -0.000002 0.000729 0.002997 0.022348
    19 3.859859 -0.137948 1.332468 0.345271 -0.092270 -0.395911
    20 1.719429 0.000000 0.000001 0.001487 0.003793 0.010685
    21 1.099665 0.000000 0.000001 0.000386 0.002568 -0.095080
    22 0.806047 -0.348922 1.321260 -1.409829 -0.742969 -0.479938
    23 1.789786 0.000000 0.000001 0.000000 0.007387 0.228523
    24 1.206997 0.000000 0.000001 0.000000 0.011267 0.362860
    25 2.033353 1.000771 -1.937610 -1.668475 1.286518 2.942953
    26 6.028143 -0.000001 0.000000 1.676699 0.776608 0.302048
    27 11.692550 -0.000001 -0.000001 0.000000 0.000000 -1.035184
    28 11.481696 0.000000 -0.000001 -0.191842 0.041563 0.280574
    29 3.859673 -0.132568 1.193105 0.285062 -0.419945 -0.226477
    30 1.312562 0.000001 0.000003 -0.002956 -0.011560 -0.189327
    31 0.729365 0.000000 -0.000001 -0.001629 -0.005914 0.024519
    32 3.942294 0.050328 0.431041 0.086028 -0.151392 -0.228105
    33 1.539097 0.000001 0.000000 -0.001532 -0.005650 0.017016
    34 1.196323 0.000001 0.000001 -0.002545 -0.009322 -0.164261
    35 3.883655 -0.050328 -0.431043 -0.089808 0.003109 -0.255702
    36 1.719576 0.000000 -0.000002 -0.002028 -0.007712 -0.109291
    37 1.209182 0.000001 0.000000 -0.002124 -0.003923 0.279918
    38 3.859827 -0.148935 -1.331285 -0.328792 0.140171 -0.247153
    39 1.719424 -0.000003 -0.000001 -0.002684 -0.006044 0.054920
    40 1.099667 0.000000 0.000000 0.014705 0.003231 -0.872646
    41 0.806017 -0.359832 -1.318336 1.475204 0.827508 -0.381818
    42 1.789785 -0.000001 0.000000 0.000000 -0.006301 0.228555
    43 1.206997 0.000000 0.000000 0.000000 -0.009618 0.362905
    44 0.000156 39.987263 -0.385905 0.000000 0.000000 0.000000
    45 -0.000161 -14.838724 20.638870 0.000000 0.000000 0.000000
    46 0.000005 3.345128 -2.981901 1.570796 0.083193 1.570796
    47 0.000001 0.000000 0.000000 0.000000 0.000000 -0.218144
    48 4.018313 -0.012456 0.000000 0.000000 -0.008209 0.584949
    49 3.516727 -0.113777 0.000000 0.000000 0.005381 0.019160
    50 8.921975 0.607578 0.000000 0.000000 0.000000 0.015256
    51 -62.307448 -47.902523 -13.535627 -1.573845 -0.002509 1.617920
  time 4
    0 0.000000 0.000000 -67.998169 1.570796 0.000000 0.000000
    1 -0.000005 26.730619 16.780203 0.000000 0.000000 0.000000
    2 0.000005 3.345128 -2.981901 1.570796 0.304437 1.570796
    3 4.018334 0.000000 0.000000 0.000288 -0.009024 0.398138
    4 3.518569 0.000000 0.000000 0.000491 0.007275 0.118655
    5 8.942640 0.000000 0.000000 0.000000 0.000000 0.212109
    6 2.033346 1.000767 1.937660 1.596637 -1.286515 2.942961
    7 6.028142 0.000000 0.000000 -1.630846 -0.795130 0.281151
    8 11.692552 -0.000001 0.000002 0.000000 0.000000 -1.054453
    9 11.481668 -0.000001 -0.000034 -0.067553 -0.115544 0.397299
    10 3.859703 -0.142405 -1.191971 -0.362411 0.353793 -0.423438
    11 1.312561 -0.000001 0.000001 0.003203 0.009118 -0.101893
    12 0.729363 0.000000 -0.000001 0.001345 0.004786 0.029667
    13 3.942325 0.046771 -0.431440 -0.118512 0.124057 -0.444423
    14 1.539093 -0.000001 0.000001 0.001260 0.004278 0.038760
    15 1.196321 -0.000001 0.000002 0.002744 0.006830 -0.048765
    16 3.883686 -0.046771 0.431444 0.088363 -0.006830 -0.262678
    17 1.719575 -0.000001 0.000003 0.001320 0.005356 -0.124753
    18 1.209182 -0.000001 -0.000002 0.000729 0.002997 0.022348
    19 3.859859 -0.137948 1.332468 0.345271 -0.092270 -0.395911
    20 1.719429 0.000000 0.000001 0.001487 0.003793 0.010685
    21 1.099665 0.000000 0.000001 0.000386 0.002568 -0.095080
    22 0.806047 -0.348922 1.321260 -1.409829 -0.742969 -0.479938
    23 1.789786 0.000000 0.000001 0.000000 0.007387 0.228523
    24 1.206997 0.000000 0.000001 0.000000 0.011267 0.362860
    25 2.033353 1.000771 -1.937610 -1.668475 1.286518 2.942953
    26 6.028143 -0.000001 0.000000 1.727353 0.745884 0.350200
    27 11.692550 -0.000001 -0.000001 0.000000 0.000000 -1.096960
    28 11.481696 0.000000 -0.000001 -0.053581 0.045494 0.361948
    29 3.859673 -0.132568 1.193105 0.285062 -0.419945 -0.226477
    30 1.312562 0.000001 0.000003 -0.002956 -0.011560 -0.189327
    31 0.729365 0.000000 -0.000001 -0.001629 -0.005914 0.024519
    32 3.942294 0.050328 0.431041 0.086028 -0.151392 -0.228105
    33 1.539097 0.000001 0.000000 -0.001532 -0.005650 0.017016
    34 1.196323 0.000001 0.000001 -0.002545 -0.009322 -0.164261
    35 3.883655 -0.050328 -0.431043 -0.089808 0.003109 -0.255702
    36 1.719576 0.000000 -0.000002 -0.002028 -0.007712 -0.109291
    37 1.209182 0.000001 0.000000 -0.002124 -0.003923 0.279918
    38 3.859827 -0.148935 -1.331285 -0.328792 0.140171 -0.247153
    39 1.719424 -0.000003 -0.000001 -0.002684 -0.006044 0.054920
    40 1.099667 0.000000 0.000000 0.014705 0.003231 -0.872666
    41 0.806017 -0.359832 -1.318336 1.477469 0.793196 -0.378690
    42 1.789785 -0.000001 0.000000 0.000000 -0.006301 0.228555
    43 1.206997 0.000000 0.000000 0.000000 -0.009618 0.362905
    44 0.000156 39.987263 -0.385905 0.000000 0.000000 0.000000
    45 -0.000161 -13.256644 17.166108 0.000000 0.000000 0.000000
    46 0.000005 3.345128 -2.981901 1.570796 0.083193 1.570796
    47 0.000001 0.000000 0.000000 0.000000 0.000000 -0.218144
    48 4.018313 -0.012456 0.000000 0.000000 -0.009024 0.427380
    49 3.516727 -0.113777 0.000000 0.000000 0.007299 0.018319
    50 8.921975 0.607578 0.000000 0.000000 0.000000 0.018013
    51 -62.307448 -47.902523 -13.535627 -1.573845 -0.002509 1.617920
  time 5
    0 0.000000 0.000000 -67.998169 1.570796 0.000000 0.000000
    1 -0.000005 27.035316 14.229343 0.000000 0.000000 0.000000
    2 0.000005 3.345128 -2.981901 1.570796 0.304437 1.570796
    3 4.018334 0.000000 0.000000 0.000288 -0.009192 0.225663
    4 3.518569 0.000000 0.000000 0.000611 0.009084 0.117611
    5 8.942640 0.000000 0.000000 0.000000 0.000000 0.213895
    6 2.033346 1.000767 1.937660 1.596637 -1.286515 2.942961
    7 6.028142 0.000000 0.000000 -1.707716 -0.798029 0.358393
    8 11.692552 -0.000001 0.000002 0.000000 0.000000 -1.078035
    9 11.481668 -0.000001 -0.000034 -0.236133 -0.123394 0.454601
    10 3.859703 -0.142405 -1.191971 -0.362411 0.353793 -0.423438
    11 1.312561 -0.000001 0.000001 0.003203 0.009118 -0.101893
    12 0.729363 0.000000 -0.000001 0.001345 0.004786 0.029667
    13 3.942325 0.046771 -0.431440 -0.118512 0.124057 -0.444423
    14 1.539093 -0.000001 0.000001 0.001260 0.004278 0.038760
    15 1.196321 -0.000001 0.000002 0.002744 0.006830 -0.048765
    16 3.883686 -0.046771 0.431444 0.088363 -0.006830 -0.262678
    17 1.719575 -0.000001 0.000003 0.001320 0.005356 -0.124753
    18 1.209182 -0.000001 -0.000002 0.000729 0.002997 0.022348
    19 3.859859 -0.137948 1.332468 0.345271 -0.092270 -0.395911
    20 1.719429 0.000000 0.000001 0.001487 0.003793 0.010685
    21 1.099665 0.000000 0.000001 0.000386 0.002568 -0.095080
    22 0.806047 -0.348922 1.321260 -1.409829 -0.742969 -0.479938
    23 1.789786 0.000000 0.000001 0.000000 0.007387 0.228523
    24 1.206997 0.000000 0.000001 0.000000 0.011267 0.362860
    25 2.033353 1.000771 -1.937610 -1.668475 1.286518 2.942953
    26 6.028143 -0.000001 0.000000 1.783547 0.719045 0.403370
    27 11.692550 -0.000001 -0.000001 0.000000 0.000000 -1.148304
    28 11.481696 0.000000 -0.000001 0.094326 0.053679 0.414731
    29 3.859673 -0.132568 1.193105 0.285062 -0.419945 -0.226477
    30 1.312562 0.000001 0.000003 -0.002956 -0.011560 -0.189327
    31 0.729365 0.000000 -0.000001 -0.001629 -0.005914 0.024519
    32 3.942294 0.050328 0.431041 0.086028 -0.151392 -0.228105
    33 1.539097 0.000001 0.000000 -0.001532 -0.005650 0.017016
    34 1.196323 0.000001 0.000001 -0.002545 -0.009322 -0.164261
    35 3.883655 -0.050328 -0.431043 -0.089808 0.003109 -0.255702
    36 1.719576 0.000000 -0.000002 -0.002028 -0.007712 -0.109291
    37 1.209182 0.000001 0.000000 -0.002124 -0.003923 0.279918
    38 3.859827 -0.148935 -1.331285 -0.328792 0.140171 -0.247153
    39 1.719424 -0.000003 -0.000001 -0.002684 -0.006044 0.054920
    40 1.099667 0.000000 0.000000 0.014705 0.003231 -0.872646
    41 0.806017 -0.359832 -1.318336 1.480310 0.752161 -0.374639
    42 1.789785 -0.000001 0.000000 0.000000 -0.006301 0.228555
    43 1.206997 0.000000 0.000000 0.000000 -0.009618 0.362905
    44 0.000156 39.987263 -0.385905 0.000000 0.000000 0.000000
    45 -0.000161 -12.951947 14.615248 0.000000 0.000000 0.000000
    46 0.000005 3.345128 -2.981901 1.570796 0.083193 1.570796
    47 0.000001 0.000000 0.000000 0.000000 0.000000 -0.218144
    48 4.018313 -0.012456 0.000000 0.000000 -0.009192 0.254906
    49 3.516727 -0.113777 0.000000 0.000000 0.009108 0.017275
    50 8.921975 0.607578 0.000000 0.000000 0.000000 0.019799
    51 -62.307448 -47.902523 -13.535627 -1.573845 -0.002509 1.617920
  time 6
    0 0.000000 0.000000 -67.998169 1.570796 0.000000 0.000000
    1 -0.000005 27.234540 11.990994 0.000000 0.000000 0.000000
    2 0.000005 3.345128 -2.981901 1.570796 0.304437 1.570796
    3 4.018334 0.000000 0.000000 0.000288 -0.008905 0.050236
    4 3.518569 0.000000 0.000000 0.000719 0.010726 0.116388
    5 8.942640 0.000000 0.000000 0.000000 0.000000 0.214781
    6 2.033346 1.000767 1.937660 1.596637 -1.286515 2.942961
    7 6.028142 0.000000 0.000000 -1.785927 -0.799709 0.435399
    8 11.692552 -0.000001 0.000002 0.000000 0.000000 -1.093162
    9 11.481668 -0.000001 -0.000034 -0.378898 -0.147843 0.452422
    10 3.859703 -0.142405 -1.191971 -0.362411 0.353793 -0.423438
    11 1.312561 -0.000001 0.000001 0.003203 0.009118 -0.101893
    12 0.729363 0.000000 -0.000001 0.001345 0.004786 0.029667
    13 3.942325 0.046771 -0.431440 -0.118512 0.124057 -0.444423
    14 1.539093 -0.000001 0.000001 0.001260 0.004278 0.038760
    15 1.196321 -0.000001 0.000002 0.002744 0.006830 -0.048765
    16 3.883686 -0.046771 0.431444 0.088363 -0.006830 -0.262678
    17 1.719575 -0.000001 0.000003 0.001320 0.005356 -0.124753
    18 1.209182 -0.000001 -0.000002 0.000729 0.002997 0.022348
    19 3.859859 -0.137948 1.332468 0.345271 -0.092270 -0.395911
    20 1.719429 0.000000 0.000001 0.001487 0.003793 0.010685
    21 1.099665 0.000000 0.000001 0.000386 0.002568 -0.095080
    22 0.806047 -0.348922 1.321260 -1.409829 -0.742969 -0.479938
    23 1.789786 0.000000 0.000001 0.000000 0.007387 0.228523
    24 1.206997 0.000000 0.000001 0.000000 0.011267 0.362860
    25 2.033353 1.000771 -1.937610 -1.668475 1.286518 2.942953
    26 6.028143 -0.000001 0.000000 1.838405 0.691775 0.453553
    27 11.692550 -0.000001 -0.000001 0.000000 0.000000 -1.194158
    28 11.481696 0.000000 -0.000001 0.220966 0.069822 0.414676
    29 3.859673 -0.132568 1.193105 0.285062 -0.419945 -0.226477
    30 1.312562 0.000001 0.000003 -0.002956 -0.011560 -0.189327
    31 0.729365 0.000000 -0.000001 -0.001629 -0.005914 0.024519
    32 3.942294 0.050328 0.431041 0.086028 -0.151392 -0.228105
    33 1.539097 0.000001 0.000000 -0.001532 -0.005650 0.017016
    34 1.196323 0.000001 0.000001 -0.002545 -0.009322 -0.164261
    35 3.883655 -0.050328 -0.431043 -0.089808 0.003109 -0.255702
    36 1.719576 0.000000 -0.000002 -0.002028 -0.007712 -0.109291
    37 1.209182 0.000001 0.000000 -0.002124 -0.003923 0.279918
    38 3.859827 -0.148935 -1.331285 -0.328792 0.140171 -0.247153
    39 1.719424 -0.000003 -0.000001 -0.002684 -0.006044 0.054920
    40 1.099667 0.000000 0.000000 0.014705 0.003231 -0.872646
    41 0.806017 -0.359832 -1.318336 1.483485 0.707878 -0.369941
    42 1.789785 -0.000001 0.000000 0.000000 -0.006301 0.228555
    43 1.206997 0.000000 0.000000 0.000000 -0.009618 0.362905
    44 0.000156 39.987263 -0.385905 0.000000 0.000000 0.000000
    45 -0.000161 -12.752723 12.376899 0.000000 0.000000 0.000000
    46 0.000005 3.345128 -2.981901 1.570796 0.083193 1.570796
    47 0.000001 0.000000 0.000000 0.000000 0.000000 -0.218144
    48 4.018313 -0.012456 0.000000 0.000000 -0.008917 0.079478
    49 3.516727 -0.113777 0.000000 0.000000 0.010750 0.016052
    50 8.921975 0.607578 0.000000 0.000000 0.000000 0.020685
    51 -62.307448 -47.902523 -13.535627 -1.573845 -0.002509 1.617920
  time 7
    0 0.000000 0.000000 -67.998169 1.570796 0.000000 0.000000
    1 -0.000005 27.340012 10.076873 0.000000 0.000000 0.000000
    2 0.000005 3.345128 -2.981901 1.570796 0.304437 1.570796
    3 4.018334 0.000000 0.000000 0.000264 -0.008353 -0.116298
    4 3.518569 0.000000 0.000000 0.000815 0.012128 0.115063
    5 8.942640 0.000000 0.000000 0.000000 0.000000 0.214913
    6 2.033346 1.000767 1.937660 1.596637 -1.286515 2.942961
    7 6.028142 0.000000 0.000000 -1.854684 -0.792890 0.501178
    8 11.692552 -0.000001 0.000002 0.000000 0.000000 -1.111089
    9 11.481668 -0.000001 -0.000034 -0.510255 -0.216886 0.326317
    10 3.859703 -0.142405 -1.191971 -0.362411 0.353793 -0.423438
    11 1.312561 -0.000001 0.000001 0.003203 0.009118 -0.101893
    12 0.729363 0.000000 -0.000001 0.001345 0.004786 0.029667
    13 3.942325 0.046771 -0.431440 -0.118512 0.124057 -0.444423
    14 1.539093 -0.000001 0.000001 0.001260 0.004278 0.038760
    15 1.196321 -0.000001 0.000002 0.002744 0.006830 -0.048765
    16 3.883686 -0.046771 0.431444 0.088363 -0.006830 -0.262678
    17 1.719575 -0.000001 0.000003 0.001320 0.005356 -0.124753
    18 1.209182 -0.000001 -0.000002 0.000729 0.002997 0.022348
    19 3.859859 -0.137948 1.332468 0.345271 -0.092270 -0.395911
    20 1.719429 0.000000 0.000001 0.001487 0.003793 0.010685
    21 1.099665 0.000000 0.000001 0.000386 0.002568 -0.095080
    22 0.806047 -0.348922 1.321260 -1.412885 -0.720246 -0.475348
    23 1.789786 0.000000 0.000001 0.000000 0.007387 0.228523
    24 1.206997 0.000000 0.000001 0.000000 0.011267 0.362860
    25 2.033353 1.000771 -1.937610 -1.668475 1.286518 2.942953
    26 6.028143 -0.000001 0.000000 1.884585 0.659791 0.492664
    27 11.692550 -0.000001 -0.000001 0.000000 0.000000 -1.241650
    28 11.481696 0.000000 -0.000001 0.344987 0.108808 0.305625
    29 3.859673 -0.132568 1.193105 0.285062 -0.419945 -0.226477
    30 1.312562 0.000001 0.000003 -0.002956 -0.011560 -0.189327
    31 0.729365 0.000000 -0.000001 -0.001629 -0.005914 0.024519
    32 3.942294 0.050328 0.431041 0.086028 -0.151392 -0.228105
    33 1.539097 0.000001 0.000000 -0.001532 -0.005650 0.017016
    34 1.196323 0.000001 0.000001 -0.002545 -0.009322 -0.164261
    35 3.883655 -0.050328 -0.431043 -0.089808 0.003109 -0.255702
    36 1.719576 0.000000 -0.000002 -0.002028 -0.007712 -0.109291
    37 1.209182 0.000001 0.000000 -0.002124 -0.003923 0.279918
    38 3.859827 -0.148935 -1.331285 -0.328792 0.140171 -0.247153
    39 1.719424 -0.000003 -0.000001 -0.002684 -0.006044 0.054920
    40 1.099667 0.000000 0.000000 0.014705 0.003231 -0.872646
    41 0.806017 -0.359832 -1.318336 1.486733 0.663858 -0.364944
    42 1.789785 -0.000001 0.000000 0.000000 -0.006301 0.228555
    43 1.206997 0.000000 0.000000 0.000000 -0.009618 0.362905
    44 0.000156 39.987263 -0.385905 0.000000 0.000000 0.000000
    45 -0.000161 -12.647251 10.462778 0.000000 0.000000 0.000000
    46 0.000005 3.345128 -2.981901 1.570796 0.083193 1.570796
    47 0.000001 0.000000 0.000000 0.000000 0.000000 -0.218144
    48 4.018313 -0.012456 0.000000 0.000000 -0.008365 -0.087056
    49 3.516727 -0.113777 0.000000 0.000000 0.012152 0.014727
    50 8.921975 0.607578 0.000000 0.000000 0.000000 0.020817
    51 -62.307448 -47.902523 -13.535627 -1.573845 -0.002509 1.617920
  time 8
    0 0.000000 0.000000 -67.998169 1.570796 0.000000 0.000000
    1 -0.000005 27.367357 8.483074 0.000000 0.000000 0.000000
    2 0.000005 3.345128 -2.981901 1.570796 0.304437 1.570796
    3 4.018334 0.000000 0.000000 0.000240 -0.007730 -0.262161
    4 3.518569 0.000000 0.000000 0.000899 0.013231 0.113636
    5 8.942640 0.000000 0.000000 0.000000 0.000000 0.214362
    6 2.033346 1.000767 1.937660 1.596637 -1.286515 2.942961
    7 6.028142 0.000000 0.000000 -1.902079 -0.770654 0.542922
    8 11.692552 -0.000001 0.000002 0.000000 0.000000 -1.146235
    9 11.481668 -0.000001 -0.000034 -0.609085 -0.320337 0.093487
    10 3.859703 -0.142405 -1.191971 -0.362411 0.353793 -0.423438
    11 1.312561 -0.000001 0.000001 0.003203 0.009118 -0.101893
    12 0.729363 0.000000 -0.000001 0.001345 0.004786 0.029667
    13 3.942325 0.046771 -0.431440 -0.118512 0.124057 -0.444423
    14 1.539093 -0.000001 0.000001 0.001260 0.004278 0.038760
    15 1.196321 -0.000001 0.000002 0.002744 0.006830 -0.048765
    16 3.883686 -0.046771 0.431444 0.088363 -0.006830 -0.262678
    17 1.719575 -0.000001 0.000003 0.001320 0.005356 -0.124753
    18 1.209182 -0.000001 -0.000002 0.000729 0.002997 0.022348
    19 3.859859 -0.137948 1.332468 0.345271 -0.092270 -0.395911
    20 1.719429 0.000000 0.000001 0.001487 0.003793 0.010685
    21 1.099665 0.000000 0.000001 0.000386 0.002568 -0.095080
    22 0.806047 -0.348922 1.321260 -1.416492 -0.692310 -0.469775
    23 1.789786 0.000000 0.000001 0.000000 0.007387 0.228523
    24 1.206997 0.000000 0.000001 0.000000 0.011267 0.362860
    25 2.033353 1.000771 -1.937610 -1.668475 1.286518 2.942953
    26 6.028143 -0.000001 0.000000 1.914940 0.618958 0.512777
    27 11.692550 -0.000001 -0.000001 0.000000 0.000000 -1.299392
    28 11.481696 0.000000 -0.000001 0.461521 0.166119 0.107168
    29 3.859673 -0.132568 1.193105 0.285062 -0.419945 -0.226477
    30 1.312562 0.000001 0.000003 -0.002956 -0.011560 -0.189327
    31 0.729365 0.000000 -0.000001 -0.001629 -0.005914 0.024519
    32 3.942294 0.050328 0.431041 0.086028 -0.151392 -0.228105
    33 1.539097 0.000001 0.000000 -0.001532 -0.005650 0.017016
    34 1.196323 0.000001 0.000001 -0.002545 -0.009322 -0.164261
    35 3.883655 -0.050328 -0.431043 -0.089808 0.003109 -0.255702
    36 1.719576 0.000000 -0.000002 -0.002028 -0.007712 -0.109291
    37 1.209182 0.000001 0.000000 -0.002124 -0.003923 0.279918
    38 3.859827 -0.148935 -1.331285 -0.328792 0.140171 -0.247153
    39 1.719424 -0.000003 -0.000001 -0.002684 -0.006044 0.054920
    40 1.099667 0.000000 0.000000 0.014705 0.003231 -0.872646
    41 0.806017 -0.359832 -1.318336 1.489729 0.623578 -0.360102
    42 1.789785 -0.000001 0.000000 0.000000 -0.006301 0.228555
    43 1.206997 0.000000 0.000000 0.000000 -0.009618 0.362905
    44 0.000156 39.987263 -0.385905 0.000000 0.000000 0.000000
    45 -0.000161 -12.619906 8.868979 0.000000 0.000000 0.000000
    46 0.000005 3.345128 -2.981901 1.570796 0.083193 1.570796
    47 0.000001 0.000000 0.000000 0.000000 0.000000 -0.218144
    48 4.018313 -0.012456 0.000000 0.000000 -0.007730 -0.232919
    49 3.516727 -0.113777 0.000000 0.000000 0.013255 0.013300
    50 8.921975 0.607578 0.000000 0.000000 0.000000 0.020266
    51 -62.307448 -47.902523 -13.535627 -1.573845 -0.002509 1.617920
  time 9
    0 0.000000 0.000000 -67.998169 1.570796 0.000000 0.000000
    1 -0.000005 27.332200 7.205692 0.000000 0.000000 0.000000
    2 0.000005 3.345128 -2.981901 1.570796 0.304437 1.570796
    3 4.018334 0.000000 0.000000 0.000228 -0.007215 -0.375401
    4 3.518569 0.000000 0.000000 0.000947 0.013950 0.112133
    5 8.942640 0.000000 0.000000 0.000000 0.000000 0.213259
    6 2.033346 1.000767 1.937660 1.596637 -1.286515 2.942961
    7 6.028142 0.000000 0.000000 -1.917995 -0.726908 0.549010
    8 11.692552 -0.000001 0.000002 0.000000 0.000000 -1.212455
    9 11.481668 -0.000001 -0.000034 -0.625997 -0.399459 -0.147626
    10 3.859703 -0.142405 -1.191971 -0.362411 0.353793 -0.423438
    11 1.312561 -0.000001 0.000001 0.003203 0.009118 -0.101893
    12 0.729363 0.000000 -0.000001 0.001345 0.004786 0.029667
    13 3.942325 0.046771 -0.431440 -0.118512 0.124057 -0.444423
    14 1.539093 -0.000001 0.000001 0.001260 0.004278 0.038760
    15 1.196321 -0.000001 0.000002 0.002744 0.006830 -0.048765
    16 3.883686 -0.046771 0.431444 0.088363 -0.006830 -0.262678
    17 1.719575 -0.000001 0.000003 0.001320 0.005356 -0.124753
    18 1.209182 -0.000001 -0.000002 0.000729 0.002997 0.022348
    19 3.859859 -0.137948 1.332468 0.345271 -0.092270 -0.395911
    20 1.719429 0.000000 0.000001 0.001487 0.003793 0.010685
    21 1.099665 0.000000 0.000001 0.000386 0.002568 -0.095080
    22 0.806047 -0.348922 1.321260 -1.420088 -0.663343 -0.464071
    23 1.789786 0.000000 0.000001 0.000000 0.007387 0.228523
    24 1.206997 0.000000 0.000001 0.000000 0.011267 0.362860
    25 2.033353 1.000771 -1.937610 -1.668475 1.286518 2.942953
    26 6.028143 -0.000001 0.000000 1.923363 0.565317 0.507042
    27 11.692550 -0.000001 -0.000001 0.000000 0.000000 -1.375361
    28 11.481696 0.000000 -0.000001 0.523532 0.212104 -0.090791
    29 3.859673 -0.132568 1.193105 0.285062 -0.419945 -0.226477
    30 1.312562 0.000001 0.000003 -0.002956 -0.011560 -0.189327
    31 0.729365 0.000000 -0.000001 -0.001629 -0.005914 0.024519
    32 3.942294 0.050328 0.431041 0.086028 -0.151392 -0.228105
    33 1.539097 0.000001 0.000000 -0.001532 -0.005650 0.017016
    34 1.196323 0.000001 0.000001 -0.002545 -0.009322 -0.164261
    35 3.883655 -0.050328 -0.431043 -0.089808 0.003109 -0.255702
    36 1.719576 0.000000 -0.000002 -0.002028 -0.007712 -0.109291
    37 1.209182 0.000001 0.000000 -0.002124 -0.003923 0.279918
    38 3.859827 -0.148935 -1.331285 -0.328792 0.140171 -0.247153
    39 1.719424 -0.000003 -0.000001 -0.002684 -0.006044 0.054920
    40 1.099667 0.000000 0.000000 0.014705 0.003231 -0.872646
    41 0.806017 -0.359832 -1.318336 1.492210 0.590513 -0.355931
    42 1.789785 -0.000001 0.000000 0.000000 -0.006301 0.228555
    43 1.206997 0.000000 0.000000 0.000000 -0.009618 0.362905
    44 0.000156 39.987263 -0.385905 0.000000 0.000000 0.000000
    45 -0.000161 -12.655063 7.591597 0.000000 0.000000 0.000000
    46 0.000005 3.345128 -2.981901 1.570796 0.083193 1.570796
    47 0.000001 0.000000 0.000000 0.000000 0.000000 -0.218144
    48 4.018313 -0.012456 0.000000 0.000000 -0.007215 -0.346124
    49 3.516727 -0.113777 0.000000 0.000000 0.013986 0.011797
    50 8.921975 0.607578 0.000000 0.000000 0.000000 0.019163
    51 -62.307448 -47.902523 -13.535627 -1.573845 -0.002509 1.617920
  time 10
    0 0.000000 0.000000 -67.998169 1.570796 0.000000 0.000000
    1 -0.000005 27.250166 6.248631 0.000000 0.000000 0.000000
    2 0.000005 3.345128 -2.981901 1.570796 0.304437 1.570796
    3 4.018334 0.000000 0.000000 0.000216 -0.006999 -0.444064
    4 3.518569 0.000000 0.000000 0.000959 0.014238 0.110604
    5 8.942640 0.000000 0.000000 0.000000 0.000000 0.211689
    6 2.033346 1.000767 1.937660 1.596637 -1.286515 2.942961
    7 6.028142 0.000000 0.000000 -1.896607 -0.655819 0.512997
    8 11.692552 -0.000001 0.000002 0.000000 0.000000 -1.317724
    9 11.481668 -0.000001 -0.000034 -0.587028 -0.421954 -0.273645
    10 3.859703 -0.142405 -1.191971 -0.362411 0.353793 -0.423438
    11 1.312561 -0.000001 0.000001 0.003203 0.009118 -0.101893
    12 0.729363 0.000000 -0.000001 0.001345 0.004786 0.029667
    13 3.942325 0.046771 -0.431440 -0.118512 0.124057 -0.444423
    14 1.539093 -0.000001 0.000001 0.001260 0.004278 0.038760
    15 1.196321 -0.000001 0.000002 0.002744 0.006830 -0.048765
    16 3.883686 -0.046771 0.431444 0.088363 -0.006830 -0.262678
    17 1.719575 -0.000001 0.000003 0.001320 0.005356 -0.124753
    18 1.209182 -0.000001 -0.000002 0.000729 0.002997 0.022348
    19 3.859859 -0.137948 1.332468 0.345271 -0.092270 -0.395911
    20 1.719429 0.000000 0.000001 0.001487 0.003793 0.010685
    21 1.099665 0.000000 0.000001 0.000386 0.002568 -0.095080
    22 0.806047 -0.348922 1.321260 -1.423156 -0.637505 -0.459025
    23 1.789786 0.000000 0.000001 0.000000 0.007387 0.228523
    24 1.206997 0.000000 0.000001 0.000000 0.011267 0.362860
    25 2.033353 1.000771 -1.937610 -1.668475 1.286518 2.942953
    26 6.028143 -0.000001 0.000000 1.904983 0.494550 0.470440
    27 11.692550 -0.000001 -0.000001 0.000000 0.000000 -1.474257
    28 11.481696 0.000000 -0.000001 0.517469 0.226617 -0.192528
    29 3.859673 -0.132568 1.193105 0.285062 -0.419945 -0.226477
    30 1.312562 0.000001 0.000003 -0.002956 -0.011560 -0.189327
    31 0.729365 0.000000 -0.000001 -0.001629 -0.005914 0.024519
    32 3.942294 0.050328 0.431041 0.086028 -0.151392 -0.228105
    33 1.539097 0.000001 0.000000 -0.001532 -0.005650 0.017016
    34 1.196323 0.000001 0.000001 -0.002545 -0.009322 -0.164261
    35 3.883655 -0.050328 -0.431043 -0.089808 0.003109 -0.255702
    36 1.719576 0.000000 -0.000002 -0.002028 -0.007712 -0.109291
    37 1.209182 0.000001 0.000000 -0.002124 -0.003923 0.279918
    38 3.859827 -0.148935 -1.331285 -0.328792 0.140171 -0.247153
    39 1.719424 -0.000003 -0.000001 -0.002684 -0.006044 0.054920
    40 1.099667 0.000000 0.000000 0.014705 0.003231 -0.872646
    41 0.806017 -0.359832 -1.318336 1.493876 0.568125 -0.353019
    42 1.789785 -0.000001 0.000000 0.000000 -0.006301 0.228555
    43 1.206997 0.000000 0.000000 0.000000 -0.009618 0.362905
    44 0.000156 39.987263 -0.385905 0.000000 0.000000 0.000000
    45 -0.000161 -12.737097 6.634536 0.000000 0.000000 0.000000
    46 0.000005 3.345128 -2.981901 1.570796 0.083193 1.570796
    47 0.000001 0.000000 0.000000 0.000000 0.000000 -0.218144
    48 4.018313 -0.012456 0.000000 0.000000 -0.007011 -0.414822
    49 3.516727 -0.113777 0.000000 0.000000 0.014274 0.010268
    50 8.921975 0.607578 0.000000 0.000000 0.000000 0.017593
    51 -62.307448 -47.902523 -13.535627 -1.573845 -0.002509 1.617920
  time 11
    0 0.000000 0.000000 -67.998169 1.570796 0.000000 0.000000
    1 -0.000005 27.140787 5.596268 0.000000 0.000000 0.000000
    2 0.000005 3.345128 -2.981901 1.570796 0.304437 1.570796
    3 4.018334 0.000000 0.000000 0.000216 -0.006807 -0.466833
    4 3.518569 0.000000 0.000000 0.000947 0.013986 0.109075
    5 8.942640 0.000000 0.000000 0.000000 0.000000 0.209772
    6 2.033346 1.000767 1.937660 1.596637 -1.286515 2.942961
    7 6.028142 0.000000 0.000000 -1.837210 -0.545596 0.435873
    8 11.692552 -0.000001 0.000002 0.000000 0.000000 -1.465829
    9 11.481668 -0.000001 -0.000034 -0.526943 -0.410018 -0.279633
    10 3.859703 -0.142405 -1.191971 -0.422394 0.264213 -0.640545
    11 1.312561 -0.000001 0.000001 0.003203 0.009118 -0.235452
    12 0.729363 0.000000 -0.000001 0.001345 0.004786 -0.126688
    13 3.942325 0.046771 -0.431440 -0.138814 0.097020 -0.647437
    14 1.539093 -0.000001 0.000001 0.001260 0.004278 -0.119171
    15 1.196321 -0.000001 0.000002 0.002744 0.006830 -0.191530
    16 3.883686 -0.046771 0.431444 0.086553 0.010835 -0.458010
    17 1.719575 -0.000001 0.000003 0.001320 0.005356 -0.254350
    18 1.209182 -0.000001 -0.000002 0.000729 0.002997 -0.132739
    19 3.859859 -0.137948 1.332468 0.350916 -0.035223 -0.551273
    20 1.719429 0.000000 0.000001 0.001487 0.003793 -0.142381
    21 1.099665 0.000000 0.000001 0.000386 0.002568 -0.229819
    22 0.806047 -0.348922 1.321260 -1.425289 -0.618952 -0.455418
    23 1.789786 0.000000 0.000001 0.000000 0.007387 0.228523
    24 1.206997 0.000000 0.000001 0.000000 0.011267 0.362860
    25 2.033353 1.000771 -1.937610 -1.668475 1.286518 2.942953
    26 6.028143 -0.000001 0.000000 1.855806 0.395111 0.400304
    27 11.692550 -0.000001 -0.000001 0.000000 0.000000 -1.601327
    28 11.481696 0.000000 -0.000001 0.462302 0.218503 -0.199897
    29 3.859673 -0.132568 1.193105 0.389112 -0.308030 -0.541655
    30 1.312562 0.000001 0.000003 -0.002956 -0.011560 -0.333281
    31 0.729365 0.000000 -0.000001 -0.001629 -0.005914 -0.164484
    32 3.942294 0.050328 0.431041 0.121526 -0.118051 -0.521870
    33 1.539097 0.000001 0.000000 -0.001532 -0.005650 -0.170407
    34 1.196323 0.000001 0.000001 -0.002545 -0.009322 -0.313495
    35 3.883655 -0.050328 -0.431043 -0.087267 -0.018439 -0.494607
    36 1.719576 0.000000 -0.000002 -0.002028 -0.007712 -0.270106
    37 1.209182 0.000001 0.000000 -0.002124 -0.003923 0.037112
    38 3.859827 -0.148935 -1.331285 -0.346098 0.061061 -0.468090
    39 1.719424 -0.000003 -0.000001 -0.002684 -0.006044 -0.140488
    40 1.099667 0.000000 0.000000 0.014705 0.003231 -0.872646
    41 0.806017 -0.359832 -1.318336 1.494487 0.559892 -0.351929
    42 1.789785 -0.000001 0.000000 0.000000 -0.006301 0.228555
    43 1.206997 0.000000 0.000000 0.000000 -0.009618 0.362905
    44 0.000156 39.987263 -0.385905 0.000000 0.000000 0.000000
    45 -0.000161 -12.846475 5.982172 0.000000 0.000000 0.000000
    46 0.000005 3.345128 -2.981901 1.570796 0.083193 1.570796
    47 0.000001 0.000000 0.000000 0.000000 0.000000 -0.218144
    48 4.018313 -0.012456 0.000000 0.000000 -0.006807 -0.437591
    49 3.516727 -0.113777 0.000000 0.000000 0.014022 0.008739
    50 8.921975 0.607578 0.000000 0.000000 0.000000 0.015676
    51 -62.307448 -47.902523 -13.535627 -1.573845 -0.002509 1.617920
  time 12
    0 0.000000 0.000000 -67.998169 1.570796 0.000000 0.000000
    1 -0.000005 27.019690 5.248601 0.000000 0.000000 0.000000
    2 0.000005 3.345128 -2.981901 1.570796 0.304437 1.570796
    3 4.018334 0.000000 0.000000 0.000192 -0.006268 -0.455235
    4 3.518569 0.000000 0.000000 0.000887 0.013135 0.107572
    5 8.942640 0.000000 0.000000 0.000000 0.000000 0.207603
    6 2.033346 1.000767 1.937660 1.596637 -1.286515 2.942961
    7 6.028142 0.000000 0.000000 -1.751495 -0.394426 0.336731
    8 11.692552 -0.000001 0.000002 0.000000 0.000000 -1.631946
    9 11.481668 -0.000001 -0.000034 -0.449408 -0.387523 -0.255867
    10 3.859703 -0.142405 -1.191971 -0.465898 0.140876 -0.893843
    11 1.312561 -0.000001 0.000001 0.003203 0.009118 -0.399589
    12 0.729363 0.000000 -0.000001 0.001345 0.004786 -0.318841
    13 3.942325 0.046771 -0.431440 -0.155592 0.059124 -0.895490
    14 1.539093 -0.000001 0.000001 0.001260 0.004278 -0.313260
    15 1.196321 -0.000001 0.000002 0.002744 0.006830 -0.366981
    16 3.883686 -0.046771 0.431444 0.079674 0.031533 -0.698243
    17 1.719575 -0.000001 0.000003 0.001320 0.005356 -0.413620
    18 1.209182 -0.000001 -0.000002 0.000729 0.002997 -0.323333
    19 3.859859 -0.137948 1.332468 0.345678 0.034994 -0.741818
    20 1.719429 0.000000 0.000001 0.001487 0.003793 -0.330492
    21 1.099665 0.000000 0.000001 0.000386 0.002568 -0.395407
    22 0.806047 -0.348922 1.321260 -1.426092 -0.611846 -0.454039
    23 1.789786 0.000000 0.000001 0.000000 0.007387 0.228523
    24 1.206997 0.000000 0.000001 0.000000 0.011267 0.362860
    25 2.033353 1.000771 -1.937610 -1.668475 1.286518 2.942953
    26 6.028143 -0.000001 0.000000 1.781146 0.262608 0.307943
    27 11.692550 -0.000001 -0.000001 0.000000 0.000000 -1.740619
    28 11.481696 0.000000 -0.000001 0.383480 0.203199 -0.184330
    29 3.859673 -0.132568 1.193105 0.458491 -0.137390 -0.902341
    30 1.312562 0.000001 0.000003 -0.002956 -0.011560 -0.511852
    31 0.729365 0.000000 -0.000001 -0.001629 -0.005914 -0.398938
    32 3.942294 0.050328 0.431041 0.149594 -0.064935 -0.882971
    33 1.539097 0.000001 0.000000 -0.001532 -0.005650 -0.402900
    34 1.196323 0.000001 0.000001 -0.002545 -0.009322 -0.498617
    35 3.883655 -0.050328 -0.431043 -0.077164 -0.043355 -0.791243
    36 1.719576 0.000000 -0.000002 -0.002028 -0.007712 -0.469592
    37 1.209182 0.000001 0.000000 -0.002124 -0.003923 -0.264084
    38 3.859827 -0.148935 -1.331285 -0.342886 -0.039214 -0.740074
    39 1.719424 -0.000003 -0.000001 -0.002684 -0.006044 -0.382886
    40 1.099667 0.000000 0.000000 0.014705 0.003231 -0.872646
    41 0.806017 -0.359832 -1.318336 1.493804 0.569060 -0.353139
    42 1.789785 -0.000001 0.000000 0.000000 -0.006301 0.228555
    43 1.206997 0.000000 0.000000 0.000000 -0.009618 0.362905
    44 0.000156 39.987263 -0.385905 0.000000 0.000000 0.000000
    45 -0.000161 -12.967573 5.634506 0.000000 0.000000 0.000000
    46 0.000005 3.345128 -2.981901 1.570796 0.083193 1.570796
    47 0.000001 0.000000 0.000000 0.000000 0.000000 -0.218144
    48 4.018313 -0.012456 0.000000 0.000000 -0.006280 -0.425993
    49 3.516727 -0.113777 0.000000 0.000000 0.013171 0.007236
    50 8.921975 0.607578 0.000000 0.000000 0.000000 0.013507
    51 -62.307448 -47.902523 -13.535627 -1.573845 -0.002509 1.617920
  time 13
    0 0.000000 0.000000 -67.998169 1.570796 0.000000 0.000000
    1 -0.000005 26.910312 5.190005 0.000000 0.000000 0.000000
    2 0.000005 3.345128 -2.981901 1.570796 0.304437 1.570796
    3 4.018334 0.000000 0.000000 0.000168 -0.005489 -0.416848
    4 3.518569 0.000000 0.000000 0.000791 0.011781 0.106120
    5 8.942640 0.000000 0.000000 0.000000 0.000000 0.205302
    6 2.033346 1.000767 1.937660 1.596637 -1.286515 2.942961
    7 6.028142 0.000000 0.000000 -1.648144 -0.211105 0.236758
    8 11.692552 -0.000001 0.000002 0.000000 0.000000 -1.777422
    9 11.481668 -0.000001 -0.000034 -0.357378 -0.356039 -0.210340
    10 3.859703 -0.142405 -1.191971 -0.476588 0.005987 -1.148298
    11 1.312561 -0.000001 0.000001 0.003203 0.009118 -0.569842
    12 0.729363 0.000000 -0.000001 0.001345 0.004786 -0.518154
    13 3.942325 0.046771 -0.431440 -0.162591 0.016723 -1.151741
    14 1.539093 -0.000001 0.000001 0.001260 0.004278 -0.514582
    15 1.196321 -0.000001 0.000002 0.002744 0.006830 -0.548969
    16 3.883686 -0.046771 0.431444 0.067546 0.050636 -0.947787
    17 1.719575 -0.000001 0.000003 0.001320 0.005356 -0.578823
    18 1.209182 -0.000001 -0.000002 0.000729 0.002997 -0.521030
    19 3.859859 -0.137948 1.332468 0.326216 0.105404 -0.940841
    20 1.719429 0.000000 0.000001 0.001487 0.003793 -0.525612
    21 1.099665 0.000000 0.000001 0.000386 0.002568 -0.567165
    22 0.806047 -0.348922 1.321260 -1.425457 -0.617478 -0.455130
    23 1.789786 0.000000 0.000001 0.000000 0.007387 0.228523
    24 1.206997 0.000000 0.000001 0.000000 0.011267 0.362860
    25 2.033353 1.000771 -1.937610 -1.668475 1.286518 2.942953
    26 6.028143 -0.000001 0.000000 1.686969 0.103267 0.210245
    27 11.692550 -0.000001 -0.000001 0.000000 0.000000 -1.861775
    28 11.481696 0.000000 -0.000001 0.286651 0.182178 -0.151330
    29 3.859673 -0.132568 1.193105 0.463609 0.042361 -1.240801
    30 1.312562 0.000001 0.000003 -0.002956 -0.011560 -0.686795
    31 0.729365 0.000000 -0.000001 -0.001629 -0.005914 -0.628628
    32 3.942294 0.050328 0.431041 0.157133 -0.006618 -1.234428
    33 1.539097 0.000001 0.000000 -0.001532 -0.005650 -0.630669
    34 1.196323 0.000001 0.000001 -0.002545 -0.009322 -0.679977
    35 3.883655 -0.050328 -0.431043 -0.060589 -0.063849 -1.082433
    36 1.719576 0.000000 -0.000002 -0.002028 -0.007712 -0.665025
    37 1.209182 0.000001 0.000000 -0.002124 -0.003923 -0.559159
    38 3.859827 -0.148935 -1.331285 -0.313524 -0.133042 -1.009063
    39 1.719424 -0.000003 -0.000001 -0.002684 -0.006044 -0.620359
    40 1.099667 0.000000 0.000000 0.014705 0.003231 -0.872646
    41 0.806017 -0.359832 -1.318336 1.491971 0.593617 -0.356327
    42 1.789785 -0.000001 0.000000 0.000000 -0.006301 0.228555
    43 1.206997 0.000000 0.000000 0.000000 -0.009618 0.362905
    44 0.000156 39.987263 -0.385905 0.000000 0.000000 0.000000
    45 -0.000161 -13.076951 5.575910 0.000000 0.000000 0.000000
    46 0.000005 3.345128 -2.981901 1.570796 0.083193 1.570796
    47 0.000001 0.000000 0.000000 0.000000 0.000000 -0.218144
    48 4.018313 -0.012456 0.000000 0.000000 -0.005489 -0.387606
    49 3.516727 -0.113777 0.000000 0.000000 0.011805 0.005784
    50 8.921975 0.607578 0.000000 0.000000 0.000000 0.011206
    51 -62.307448 -47.902523 -13.535627 -1.573845 -0.002509 1.617920
  time 14
    0 0.000000 0.000000 -67.998169 1.570796 0.000000 0.000000
    1 -0.000005 26.816559 5.412668 0.000000 0.000000 0.000000
    2 0.000005 3.345128 -2.981901 1.570796 0.304437 1.570796
    3 4.018334 0.000000 0.000000 0.000144 -0.004530 -0.359143
    4 3.518569 0.000000 0.000000 0.000683 0.010031 0.104769
    5 8.942640 0.000000 0.000000 0.000000 0.000000 0.202965
    6 2.033346 1.000767 1.937660 1.596637 -1.286515 2.942961
    7 6.028142 0.000000 0.000000 -1.529730 -0.011478 0.152321
    8 11.692552 -0.000001 0.000002 0.000000 0.000000 -1.869317
    9 11.481668 -0.000001 -0.000034 -0.253761 -0.317161 -0.150888
    10 3.859703 -0.142405 -1.191971 -0.457113 -0.113223 -1.375601
    11 1.312561 -0.000001 0.000001 0.003203 0.009118 -0.721771
    12 0.729363 0.000000 -0.000001 0.001345 0.004786 -0.696015
    13 3.942325 0.046771 -0.431440 -0.159559 -0.021508 -1.380096
    14 1.539093 -0.000001 0.000001 0.001260 0.004278 -0.694235
    15 1.196321 -0.000001 0.000002 0.002744 0.006830 -0.711370
    16 3.883686 -0.046771 0.431444 0.053020 0.064682 -1.170811
    17 1.719575 -0.000001 0.000003 0.001320 0.005356 -0.726246
    18 1.209182 -0.000001 -0.000002 0.000729 0.002997 -0.697448
    19 3.859859 -0.137948 1.332468 0.297081 0.163853 -1.121109
    20 1.719429 0.000000 0.000001 0.001487 0.003793 -0.699731
    21 1.099665 0.000000 0.000001 0.000386 0.002568 -0.720437
    22 0.806047 -0.348922 1.321260 -1.423755 -0.632327 -0.458018
    23 1.789786 0.000000 0.000001 0.000000 0.007387 0.228523
    24 1.206997 0.000000 0.000001 0.000000 0.011267 0.362860
    25 2.033353 1.000771 -1.937610 -1.668475 1.286518 2.942953
    26 6.028143 -0.000001 0.000000 1.576926 -0.070141 0.122584
    27 11.692550 -0.000001 -0.000001 0.000000 0.000000 -1.938381
    28 11.481696 0.000000 -0.000001 0.177558 0.156915 -0.106371
    29 3.859673 -0.132568 1.193105 0.426720 0.174381 -1.501699
    30 1.312562 0.000001 0.000003 -0.002956 -0.011560 -0.819801
    31 0.729365 0.000000 -0.000001 -0.001629 -0.005914 -0.803257
    32 3.942294 0.050328 0.431041 0.149067 0.037461 -1.501621
    33 1.539097 0.000001 0.000000 -0.001532 -0.005650 -0.803837
    34 1.196323 0.000001 0.000001 -0.002545 -0.009322 -0.817862
    35 3.883655 -0.050328 -0.431043 -0.044410 -0.075750 -1.304303
    36 1.719576 0.000000 -0.000002 -0.002028 -0.007712 -0.813609
    37 1.209182 0.000001 0.000000 -0.002124 -0.003923 -0.783499
    38 3.859827 -0.148935 -1.331285 -0.274430 -0.197183 -1.218051
    39 1.719424 -0.000003 -0.000001 -0.002684 -0.006044 -0.800905
    40 1.099667 0.000000 0.000000 0.014705 0.003231 -0.872646
    41 0.806017 -0.359832 -1.318336 1.489310 0.629187 -0.360785
    42 1.789785 -0.000001 0.000000 0.000000 -0.006301 0.228555
    43 1.206997 0.000000 0.000000 0.000000 -0.009618 0.362905
    44 0.000156 39.987263 -0.385905 0.000000 0.000000 0.000000
    45 -0.000161 -13.170704 5.798573 0.000000 0.000000 0.000000
    46 0.000005 3.345128 -2.981901 1.570796 0.083193 1.570796
    47 0.000001 0.000000 0.000000 0.000000 0.000000 -0.218144
    48 4.018313 -0.012456 0.000000 0.000000 -0.004542 -0.329901
    49 3.516727 -0.113777 0.000000 0.000000 0.010055 0.004433
    50 8.921975 0.607578 0.000000 0.000000 0.000000 0.008869
    51 -62.307448 -47.902523 -13.535627 -1.573845 -0.002509 1.617920
  time 15
    0 0.000000 0.000000 -67.998169 1.570796 0.000000 0.000000
    1 -0.000005 26.754057 5.908777 0.000000 0.000000 0.000000
    2 0.000005 3.345128 -2.981901 1.570796 0.304437 1.570796
    3 4.018334 0.000000 0.000000 0.000108 -0.003500 -0.289697
    4 3.518569 0.000000 0.000000 0.000539 0.008078 0.103546
    5 8.942640 0.000000 0.000000 0.000000 0.000000 0.200688
    6 2.033346 1.000767 1.937660 1.596637 -1.286515 2.942961
    7 6.028142 0.000000 0.000000 -1.401062 0.174247 0.092393
    8 11.692552 -0.000001 0.000002 0.000000 0.000000 -1.885914
    9 11.481668 -0.000001 -0.000034 -0.142627 -0.273309 -0.084682
    10 3.859703 -0.142405 -1.191971 -0.426241 -0.194513 -1.542707
    11 1.312561 -0.000001 0.000001 0.003203 0.009118 -0.830843
    12 0.729363 0.000000 -0.000001 0.001345 0.004786 -0.823704
    13 3.942325 0.046771 -0.431440 -0.152069 -0.048054 -1.544353
    14 1.539093 -0.000001 0.000001 0.001260 0.004278 -0.823211
    15 1.196321 -0.000001 0.000002 0.002744 0.006830 -0.827960
    16 3.883686 -0.046771 0.431444 0.040832 0.072604 -1.331208
    17 1.719575 -0.000001 0.000003 0.001320 0.005356 -0.832083
    18 1.209182 -0.000001 -0.000002 0.000729 0.002997 -0.824102
    19 3.859859 -0.137948 1.332468 0.269600 0.202120 -1.252701
    20 1.719429 0.000000 0.000001 0.001487 0.003793 -0.824734
    21 1.099665 0.000000 0.000001 0.000386 0.002568 -0.830473
    22 0.806047 -0.348922 1.321260 -1.421286 -0.653324 -0.462105
    23 1.789786 0.000000 0.000001 0.000000 0.007387 0.228523
    24 1.206997 0.000000 0.000001 0.000000 0.011267 0.362860
    25 2.033353 1.000771 -1.937610 -1.668475 1.286518 2.942953
    26 6.028143 -0.000001 0.000000 1.457564 -0.233367 0.055115
    27 11.692550 -0.000001 -0.000001 0.000000 0.000000 -1.953696
    28 11.481696 0.000000 -0.000001 0.062356 0.129182 -0.054763
    29 3.859673 -0.132568 1.193105 0.402259 0.223407 -1.608488
    30 1.312562 0.000001 0.000003 -0.002956 -0.011560 -0.872665
    31 0.729365 0.000000 -0.000001 -0.001629 -0.005914 -0.872665
    32 3.942294 0.050328 0.431041 0.142643 0.054120 -1.607993
    33 1.539097 0.000001 0.000000 -0.001532 -0.005650 -0.872638
    34 1.196323 0.000001 0.000001 -0.002545 -0.009322 -0.872644
    35 3.883655 -0.050328 -0.431043 -0.037303 -0.079441 -1.392565
    36 1.719576 0.000000 -0.000002 -0.002028 -0.007712 -0.872642
    37 1.209182 0.000001 0.000000 -0.002124 -0.003923 -0.872665
    38 3.859827 -0.148935 -1.331285 -0.255099 -0.220182 -1.302464
    39 1.719424 -0.000003 -0.000001 -0.002684 -0.006044 -0.872665
    40 1.099667 0.000000 0.000000 0.014705 0.003231 -0.872646
    41 0.806017 -0.359832 -1.318336 1.486170 0.671385 -0.365819
    42 1.789785 -0.000001 0.000000 0.000000 -0.006301 0.228555
    43 1.206997 0.000000 0.000000 0.000000 -0.009618 0.362905
    44 0.000156 39.987263 -0.385905 0.000000 0.000000 0.000000
    45 -0.000161 -13.233206 6.294682 0.000000 0.000000 0.000000
    46 0.000005 3.345128 -2.981901 1.570796 0.083193 1.570796
    47 0.000001 0.000000 0.000000 0.000000 0.000000 -0.218144
    48 4.018313 -0.012456 0.000000 0.000000 -0.003500 -0.260456
    49 3.516727 -0.113777 0.000000 0.000000 0.008102 0.003210
    50 8.921975 0.607578 0.000000 0.000000 0.000000 0.006592
    51 -62.307448 -47.902523 -13.535627 -1.573845 -0.002509 1.617920
  time 16
    0 0.000000 0.000000 -67.998169 1.570796 0.000000 0.000000
    1 -0.000005 26.730619 6.662706 0.000000 0.000000 0.000000
    2 0.000005 3.345128 -2.981901 1.570796 0.304437 1.570796
    3 4.018334 0.000000 0.000000 0.000072 -0.002457 -0.215983
    4 3.518569 0.000000 0.000000 0.000407 0.006100 0.102476
    5 8.942640 0.000000 0.000000 0.000000 0.000000 0.198590
    6 2.033346 1.000767 1.937660 1.596637 -1.286515 2.942961
    7 6.028142 0.000000 0.000000 -1.279587 0.314151 0.049542
    8 11.692552 -0.000001 0.000002 0.000000 0.000000 -1.826564
    9 11.481668 -0.000001 -0.000034 -0.029882 -0.227984 -0.018145
    10 3.859703 -0.142405 -1.191971 -0.410661 -0.224144 -1.608146
    11 1.312561 -0.000001 0.000001 0.003203 0.009118 -0.872642
    12 0.729363 0.000000 -0.000001 0.001345 0.004786 -0.872665
    13 3.942325 0.046771 -0.431440 -0.148054 -0.057833 -1.607422
    14 1.539093 -0.000001 0.000001 0.001260 0.004278 -0.872637
    15 1.196321 -0.000001 0.000002 0.002744 0.006830 -0.872665
    16 3.883686 -0.046771 0.431444 0.035847 0.075109 -1.392732
    17 1.719575 -0.000001 0.000003 0.001320 0.005356 -0.872642
    18 1.209182 -0.000001 -0.000002 0.000729 0.002997 -0.872638
    19 3.859859 -0.137948 1.332468 0.257688 0.215782 -1.303675
    20 1.719429 0.000000 0.000001 0.001487 0.003793 -0.872665
    21 1.099665 0.000000 0.000001 0.000386 0.002568 -0.872665
    22 0.806047 -0.348922 1.321260 -1.418362 -0.677401 -0.466827
    23 1.789786 0.000000 0.000001 0.000000 0.007387 0.228523
    24 1.206997 0.000000 0.000001 0.000000 0.011267 0.362860
    25 2.033353 1.000771 -1.937610 -1.668475 1.286518 2.942953
    26 6.028143 -0.000001 0.000000 1.344495 -0.360329 0.005211
    27 11.692550 -0.000001 -0.000001 0.000000 0.000000 -1.907902
    28 11.481696 0.000000 -0.000001 -0.051836 0.101126 -0.001578
    29 3.859673 -0.132568 1.193105 0.433863 0.156926 -1.465386
    30 1.312562 0.000001 0.000003 -0.002956 -0.011560 -0.801595
    31 0.729365 0.000000 -0.000001 -0.001629 -0.005914 -0.779355
    32 3.942294 0.050328 0.431041 0.150865 0.031577 -1.464985
    33 1.539097 0.000001 0.000000 -0.001532 -0.005650 -0.780135
    34 1.196323 0.000001 0.000001 -0.002545 -0.009322 -0.798988
    35 3.883655 -0.050328 -0.431043 -0.046771 -0.074335 -1.273876
    36 1.719576 0.000000 -0.000002 -0.002028 -0.007712 -0.793271
    37 1.209182 0.000001 0.000000 -0.002124 -0.003923 -0.752792
    38 3.859827 -0.148935 -1.331285 -0.280602 -0.188902 -1.189129
    39 1.719424 -0.000003 -0.000001 -0.002684 -0.006044 -0.776193
    40 1.099667 0.000000 0.000000 0.014705 0.003231 -0.872646
    41 0.806017 -0.359832 -1.318336 1.482910 0.715799 -0.370804
    42 1.789785 -0.000001 0.000000 0.000000 -0.006301 0.228555
    43 1.206997 0.000000 0.000000 0.000000 -0.009618 0.362905
    44 0.000156 39.987263 -0.385905 0.000000 0.000000 0.000000
    45 -0.000161 -13.256644 7.048611 0.000000 0.000000 0.000000
    46 0.000005 3.345128 -2.981901 1.570796 0.083193 1.570796
    47 0.000001 0.000000 0.000000 0.000000 0.000000 -0.218144
    48 4.018313 -0.012456 0.000000 0.000000 -0.002457 -0.186741
    49 3.516727 -0.113777 0.000000 0.000000 0.006112 0.002140
    50 8.921975 0.607578 0.000000 0.000000 0.000000 0.004494
    51 -62.307448 -47.902523 -13.535627 -1.573845 -0.002509 1.617920
  time 17
    0 0.000000 0.000000 -67.998169 1.570796 0.000000 0.000000
    1 -0.000005 26.730619 9.924525 0.000000 0.000000 0.000000
    2 0.000005 3.345128 -2.981901 1.570796 0.304437 1.570796
    3 4.018334 0.000000 0.000000 0.000048 -0.001510 -0.145577
    4 3.518569 0.000000 0.000000 0.000288 0.004219 0.101584
    5 8.942640 0.000000 0.000000 0.000000 0.000000 0.196781
    6 2.033346 1.000767 1.937660 1.596637 -1.286515 2.942961
    7 6.028142 0.000000 0.000000 -1.191407 0.398614 0.005781
    8 11.692552 -0.000001 0.000002 0.000000 0.000000 -1.713350
    9 11.481668 -0.000001 -0.000034 0.076375 -0.185343 0.043068
    10 3.859703 -0.142405 -1.191971 -0.449922 -0.136416 -1.421806
    11 1.312561 -0.000001 0.000001 0.003203 0.009118 -0.752232
    12 0.729363 0.000000 -0.000001 0.001345 0.004786 -0.731648
    13 3.942325 0.046771 -0.431440 -0.157917 -0.029034 -1.425952
    14 1.539093 -0.000001 0.000001 0.001260 0.004278 -0.730255
    15 1.196321 -0.000001 0.000002 0.002744 0.006830 -0.743906
    16 3.883686 -0.046771 0.431444 0.049749 0.067091 -1.215575
    17 1.719575 -0.000001 0.000003 0.001320 0.005356 -0.755781
    18 1.209182 -0.000001 -0.000002 0.000729 0.002997 -0.732792
    19 3.859859 -0.137948 1.332468 0.289938 0.174891 -1.157650
    20 1.719429 0.000000 0.000001 0.001487 0.003793 -0.734615
    21 1.099665 0.000000 0.000001 0.000386 0.002568 -0.751144
    22 0.806047 -0.348922 1.321260 -1.415330 -0.701478 -0.471597
    23 1.789786 0.000000 0.000001 0.000000 0.007387 0.228523
    24 1.206997 0.000000 0.000001 0.000000 0.011267 0.362860
    25 2.033353 1.000771 -1.937610 -1.668475 1.286518 2.942953
    26 6.028143 -0.000001 0.000000 1.258514 -0.441277 -0.039237
    27 11.692550 -0.000001 -0.000001 0.000000 0.000000 -1.819287
    28 11.481696 0.000000 -0.000001 -0.156932 0.075168 0.048302
    29 3.859673 -0.132568 1.193105 0.468570 -0.013852 -1.135320
    30 1.312562 0.000001 0.000003 -0.002956 -0.011560 -0.632116
    31 0.729365 0.000000 -0.000001 -0.001629 -0.005914 -0.556838
    32 3.942294 0.050328 0.431041 0.156989 -0.025074 -1.124729
    33 1.539097 0.000001 0.000000 -0.001532 -0.005650 -0.559479
    34 1.196323 0.000001 0.000001 -0.002545 -0.009322 -0.623293
    35 3.883655 -0.050328 -0.431043 -0.066402 -0.057976 -0.991360
    36 1.719576 0.000000 -0.000002 -0.002028 -0.007712 -0.603942
    37 1.209182 0.000001 0.000000 -0.002124 -0.003923 -0.466932
    38 3.859827 -0.148935 -1.331285 -0.325448 -0.104614 -0.924456
    39 1.719424 -0.000003 -0.000001 -0.002684 -0.006044 -0.546136
    40 1.099667 0.000000 0.000000 0.014705 0.003231 -0.872646
    41 0.806017 -0.359832 -1.318336 1.479890 0.758045 -0.375239
    42 1.789785 -0.000001 0.000000 0.000000 -0.006301 0.228555
    43 1.206997 0.000000 0.000000 0.000000 -0.009618 0.362905
    44 0.000156 39.987263 -0.385905 0.000000 0.000000 0.000000
    45 -0.000161 -13.256644 10.310430 0.000000 0.000000 0.000000
    46 0.000005 3.345128 -2.981901 1.570796 0.083193 1.570796
    47 0.000001 0.000000 0.000000 0.000000 0.000000 -0.218144
    48 4.018313 -0.012456 0.000000 0.000000 -0.001510 -0.116335
    49 3.516727 -0.113777 0.000000 0.000000 0.004231 0.001248
    50 8.921975 0.607578 0.000000 0.000000 0.000000 0.002685
    51 -62.307448 -47.902523 -13.535627 -1.573845 -0.002509 1.617920
  time 18
    0 0.000000 0.000000 -67.998169 1.570796 0.000000 0.000000
    1 -0.000005 26.730619 16.162996 0.000000 0.000000 0.000000
    2 0.000005 3.345128 -2.981901 1.570796 0.304437 1.570796
    3 4.018334 0.000000 0.000000 0.000024 -0.000719 -0.085951
    4 3.518569 0.000000 0.000000 0.000168 0.002541 0.100897
    5 8.942640 0.000000 0.000000 0.000000 0.000000 0.195354
    6 2.033346 1.000767 1.937660 1.596637 -1.286515 2.942961
    7 6.028142 0.000000 0.000000 -1.148238 0.439363 -0.044818
    8 11.692552 -0.000001 0.000002 0.000000 0.000000 -1.581984
    9 11.481668 -0.000001 -0.000034 0.166124 -0.149820 0.093588
    10 3.859703 -0.142405 -1.191971 -0.475725 0.071756 -1.025373
    11 1.312561 -0.000001 0.000001 0.003203 0.009118 -0.487279
    12 0.729363 0.000000 -0.000001 0.001345 0.004786 -0.421499
    13 3.942325 0.046771 -0.431440 -0.160554 0.037504 -1.027555
    14 1.539093 -0.000001 0.000001 0.001260 0.004278 -0.416925
    15 1.196321 -0.000001 0.000002 0.002744 0.006830 -0.460715
    16 3.883686 -0.046771 0.431444 0.074029 0.041744 -0.826705
    17 1.719575 -0.000001 0.000003 0.001320 0.005356 -0.498709
    18 1.209182 -0.000001 -0.000002 0.000729 0.002997 -0.425131
    19 3.859859 -0.137948 1.332468 0.337421 0.071739 -0.844017
    20 1.719429 0.000000 0.000001 0.001487 0.003793 -0.430990
    21 1.099665 0.000000 0.000001 0.000386 0.002568 -0.483849
    22 0.806047 -0.348922 1.321260 -1.412585 -0.722475 -0.475803
    23 1.789786 0.000000 0.000001 0.000000 0.007387 0.228523
    24 1.206997 0.000000 0.000001 0.000000 0.011267 0.362860
    25 2.033353 1.000771 -1.937610 -1.668475 1.286518 2.942953
    26 6.028143 -0.000001 0.000000 1.209763 -0.483981 -0.083844
    27 11.692550 -0.000001 -0.000001 0.000000 0.000000 -1.716964
    28 11.481696 0.000000 -0.000001 -0.243977 0.053751 0.090012
    29 3.859673 -0.132568 1.193105 0.434834 -0.218734 -0.739965
    30 1.312562 0.000001 0.000003 -0.002956 -0.011560 -0.429855
    31 0.729365 0.000000 -0.000001 -0.001629 -0.005914 -0.291281
    32 3.942294 0.050328 0.431041 0.139132 -0.090570 -0.717559
    33 1.539097 0.000001 0.000000 -0.001532 -0.005650 -0.296143
    34 1.196323 0.000001 0.000001 -0.002545 -0.009322 -0.413612
    35 3.883655 -0.050328 -0.431043 -0.082725 -0.032294 -0.654964
    36 1.719576 0.000000 -0.000002 -0.002028 -0.007712 -0.377991
    37 1.209182 0.000001 0.000000 -0.002124 -0.003923 -0.125779
    38 3.859827 -0.148935 -1.331285 -0.347752 0.006711 -0.615177
    39 1.719424 -0.000003 -0.000001 -0.002684 -0.006044 -0.271580
    40 1.099667 0.000000 0.000000 0.014705 0.003231 -0.872646
    41 0.806017 -0.359832 -1.318336 1.477433 0.793699 -0.378738
    42 1.789785 -0.000001 0.000000 0.000000 -0.006301 0.228555
    43 1.206997 0.000000 0.000000 0.000000 -0.009618 0.362905
    44 0.000156 39.987263 -0.385905 0.000000 0.000000 0.000000
    45 -0.000161 -13.256644 16.548901 0.000000 0.000000 0.000000
    46 0.000005 3.345128 -2.981901 1.570796 0.083193 1.570796
    47 0.000001 0.000000 0.000000 0.000000 0.000000 -0.218144
    48 4.018313 -0.012456 0.000000 0.000000 -0.000719 -0.056709
    49 3.516727 -0.113777 0.000000 0.000000 0.002553 0.000561
    50 8.921975 0.607578 0.000000 0.000000 0.000000 0.001258
    51 -62.307448 -47.902523 -13.535627 -1.573845 -0.002509 1.617920
  time 19
    0 0.000000 0.000000 -67.998169 1.570796 0.000000 0.000000
    1 -0.000005 26.730619 22.299902 0.000000 0.000000 0.000000
    2 0.000005 3.345128 -2.981901 1.570796 0.304437 1.570796
    3 4.018334 0.000000 0.000000 0.000000 -0.000192 -0.044647
    4 3.518569 0.000000 0.000000 0.000072 0.001127 0.100463
    5 8.942640 0.000000 0.000000 0.000000 0.000000 0.194420
    6 2.033346 1.000767 1.937660 1.596637 -1.286515 2.942961
    7 6.028142 0.000000 0.000000 -1.137848 0.453396 -0.089210
    8 11.692552 -0.000001 0.000002 0.000000 0.000000 -1.473662
    9 11.481668 -0.000001 -0.000034 0.228267 -0.125635 0.128003
    10 3.859703 -0.142405 -1.191971 -0.417480 0.273544 -0.619721
    11 1.312561 -0.000001 0.000001 0.003203 0.009118 -0.222326
    12 0.729363 0.000000 -0.000001 0.001345 0.004786 -0.111295
    13 3.942325 0.046771 -0.431440 -0.137064 0.099860 -0.627526
    14 1.539093 -0.000001 0.000001 0.001260 0.004278 -0.103650
    15 1.196321 -0.000001 0.000002 0.002744 0.006830 -0.177474
    16 3.883686 -0.046771 0.431444 0.086877 0.009109 -0.438801
    17 1.719575 -0.000001 0.000003 0.001320 0.005356 -0.241614
    18 1.209182 -0.000001 -0.000002 0.000729 0.002997 -0.117498
    19 3.859859 -0.137948 1.332468 0.350748 -0.040868 -0.536036
    20 1.719429 0.000000 0.000001 0.001487 0.003793 -0.127312
    21 1.099665 0.000000 0.000001 0.000386 0.002568 -0.216578
    22 0.806047 -0.348922 1.321260 -1.410596 -0.737336 -0.478800
    23 1.789786 0.000000 0.000001 0.000000 0.007387 0.228523
    24 1.206997 0.000000 0.000001 0.000000 0.011267 0.362860
    25 2.033353 1.000771 -1.937610 -1.668475 1.286518 2.942953
    26 6.028143 -0.000001 0.000000 1.190928 -0.501790 -0.120645
    27 11.692550 -0.000001 -0.000001 0.000000 0.000000 -1.633656
    28 11.481696 0.000000 -0.000001 -0.303324 0.039262 0.118657
    29 3.859673 -0.132568 1.193105 0.341713 -0.368543 -0.385310
    30 1.312562 0.000001 0.000003 -0.002956 -0.011560 -0.260376
    31 0.729365 0.000000 -0.000001 -0.001629 -0.005914 -0.068764
    32 3.942294 0.050328 0.431041 0.104808 -0.136231 -0.373430
    33 1.539097 0.000001 0.000000 -0.001532 -0.005650 -0.075487
    34 1.196323 0.000001 0.000001 -0.002545 -0.009322 -0.237916
    35 3.883655 -0.050328 -0.431043 -0.089209 -0.007605 -0.373628
    36 1.719576 0.000000 -0.000002 -0.002028 -0.007712 -0.188662
    37 1.209182 0.000001 0.000000 -0.002124 -0.003923 0.160080
    38 3.859827 -0.148935 -1.331285 -0.339542 0.101605 -0.356623
    39 1.719424 -0.000003 -0.000001 -0.002684 -0.006044 -0.041524
    40 1.099667 0.000000 0.000000 0.014705 0.003231 -0.872646
    41 0.806017 -0.359832 -1.318336 1.475791 0.818328 -0.381003
    42 1.789785 -0.000001 0.000000 0.000000 -0.006301 0.228555
    43 1.206997 0.000000 0.000000 0.000000 -0.009618 0.362905
    44 0.000156 39.987263 -0.385905 0.000000 0.000000 0.000000
    45 -0.000161 -13.256644 22.685807 0.000000 0.000000 0.000000
    46 0.000005 3.345128 -2.981901 1.570796 0.083193 1.570796
    47 0.000001 0.000000 0.000000 0.000000 0.000000 -0.218144
    48 4.018313 -0.012456 0.000000 0.000000 -0.000192 -0.015405
    49 3.516727 -0.113777 0.000000 0.000000 0.001127 0.000127
    50 8.921975 0.607578 0.000000 0.000000 0.000000 0.000324
    51 -62.307448 -47.902523 -13.535627 -1.573845 -0.002509 1.617920
  time 20
    0 0.000000 0.000000 -67.998169 1.570796 0.000000 0.000000
    1 -0.000005 26.730619 25.038267 0.000000 0.000000 0.000000
    2 0.000005 3.345128 -2.981901 1.570796 0.304437 1.570796
    3 4.018334 0.000000 0.000000 0.000000 0.000000 -0.029242
    4 3.518569 0.000000 0.000000 0.000000 0.000000 0.100336
    5 8.942640 0.000000 0.000000 0.000000 0.000000 0.194096
    6 2.033346 1.000767 1.937660 1.596637 -1.286515 2.942961
    7 6.028142 0.000000 0.000000 -1.138160 0.455735 -0.107711
    8 11.692552 -0.000001 0.000002 0.000000 0.000000 -1.429750
    9 11.481668 -0.000001 -0.000034 0.251308 -0.116743 0.140760
    10 3.859703 -0.142405 -1.191971 -0.362411 0.353793 -0.423438
    11 1.312561 -0.000001 0.000001 0.003203 0.009118 -0.101893
    12 0.729363 0.000000 -0.000001 0.001345 0.004786 0.029667
    13 3.942325 0.046771 -0.431440 -0.118512 0.124057 -0.444423
    14 1.539093 -0.000001 0.000001 0.001260 0.004278 0.038760
    15 1.196321 -0.000001 0.000002 0.002744 0.006830 -0.048765
    16 3.883686 -0.046771 0.431444 0.088363 -0.006830 -0.262678
    17 1.719575 -0.000001 0.000003 0.001320 0.005356 -0.124753
    18 1.209182 -0.000001 -0.000002 0.000729 0.002997 0.022348
    19 3.859859 -0.137948 1.332468 0.345271 -0.092270 -0.395911
    20 1.719429 0.000000 0.000001 0.001487 0.003793 0.010685
    21 1.099665 0.000000 0.000001 0.000386 0.002568 -0.095080
    22 0.806047 -0.348922 1.321260 -1.409829 -0.742969 -0.479938
    23 1.789786 0.000000 0.000001 0.000000 0.007387 0.228523
    24 1.206997 0.000000 0.000001 0.000000 0.011267 0.362860
    25 2.033353 1.000771 -1.937610 -1.668475 1.286518 2.942953
    26 6.028143 -0.000001 0.000000 1.187135 -0.506143 -0.135700
    27 11.692550 -0.000001 -0.000001 0.000000 0.000000 -1.600236
    28 11.481696 0.000000 -0.000001 -0.325188 0.033941 0.129316
    29 3.859673 -0.132568 1.193105 0.285062 -0.419945 -0.226477
    30 1.312562 0.000001 0.000003 -0.002956 -0.011560 -0.189327
    31 0.729365 0.000000 -0.000001 -0.001629 -0.005914 0.024519
    32 3.942294 0.050328 0.431041 0.086028 -0.151392 -0.228105
    33 1.539097 0.000001 0.000000 -0.001532 -0.005650 0.017016
    34 1.196323 0.000001 0.000001 -0.002545 -0.009322 -0.164261
    35 3.883655 -0.050328 -0.431043 -0.089808 0.003109 -0.255702
    36 1.719576 0.000000 -0.000002 -0.002028 -0.007712 -0.109291
    37 1.209182 0.000001 0.000000 -0.002124 -0.003923 0.279918
    38 3.859827 -0.148935 -1.331285 -0.328792 0.140171 -0.247153
    39 1.719424 -0.000003 -0.000001 -0.002684 -0.006044 0.054920
    40 1.099667 0.000000 0.000000 0.014705 0.003231 -0.872646
    41 0.806017 -0.359832 -1.318336 1.475204 0.827508 -0.381818
    42 1.789785 -0.000001 0.000000 0.000000 -0.006301 0.228555
    43 1.206997 0.000000 0.000000 0.000000 -0.009618 0.362905
    44 0.000156 39.987263 -0.385905 0.000000 0.000000 0.000000
    45 -0.000161 -13.256644 25.424172 0.000000 0.000000 0.000000
    46 0.000005 3.345128 -2.981901 1.570796 0.083193 1.570796
    47 0.000001 0.000000 0.000000 0.000000 0.000000 -0.218144
    48 4.018313 -0.012456 0.000000 0.000000 0.000000 0.000000
    49 3.516727 -0.113777 0.000000 0.000000 0.000000 0.000000
    50 8.921975 0.607578 0.000000 0.000000 0.000000 0.000000
    51 -62.307448 -47.902523 -13.535627 -1.573845 -0.002509 1.617920
end
